<svg xmlns="http://www.w3.org/2000/svg" viewBox="0 0 800 200" width="800" height="200">
  <rect width="800" height="200" fill="#05010d"/>
  
    <defs>
      <linearGradient id="grad1" x1="0%" y1="0%" x2="100%" y2="100%">
        <stop offset="0%" style="stop-color:#4a0080;stop-opacity:0.8" />
        <stop offset="100%" style="stop-color:#7b2cbf;stop-opacity:0.8" />
      </linearGradient>
      <linearGradient id="grad2" x1="100%" y1="0%" x2="0%" y2="100%">
        <stop offset="0%" style="stop-color:#9d4edd;stop-opacity:0.7" />
        <stop offset="100%" style="stop-color:#c77dff;stop-opacity:0.7" />
      </linearGradient>
      <linearGradient id="textGrad" x1="0%" y1="0%" x2="100%" y2="0%">
        <stop offset="0%" style="stop-color:#4a0080" />
        <stop offset="25%" style="stop-color:#7b2cbf" />
        <stop offset="50%" style="stop-color:#9d4edd" />
        <stop offset="75%" style="stop-color:#c77dff" />
        <stop offset="100%" style="stop-color:#e0aaff" />
      </linearGradient>
      <filter id="glow">
        <feGaussianBlur stdDeviation="5" result="coloredBlur"/>
        <feMerge>
          <feMergeNode in="coloredBlur"/>
          <feMergeNode in="SourceGraphic"/>
        </feMerge>
      </filter>
      <filter id="textGlow">
        <feGaussianBlur stdDeviation="2" result="coloredBlur"/>
        <feMerge>
          <feMergeNode in="coloredBlur"/>
          <feMergeNode in="SourceGraphic"/>
        </feMerge>
      </filter>
    </defs>
  
  
    <style>
      @keyframes float {
        0%, 100% { transform: translateY(0px); }
        50% { transform: translateY(-8px); }
      }
      @keyframes pulse {
        0%, 100% { opacity: 0.4; }
        50% { opacity: 0.9; }
      }
      @keyframes drift {
        0% { transform: translateX(0px); }
        50% { transform: translateX(10px); }
        100% { transform: translateX(0px); }
      }
      @keyframes shimmer {
        0% { opacity: 0.3; }
        50% { opacity: 1; }
        100% { opacity: 0.3; }
      }
      @keyframes glitch {
        0%, 100% { transform: translateX(0); }
        20% { transform: translateX(-2px); }
        40% { transform: translateX(2px); }
        60% { transform: translateX(-1px); }
        80% { transform: translateX(1px); }
      }
      @keyframes dataStream {
        0% { stroke-dashoffset: 0; }
        100% { stroke-dashoffset: -20; }
      }
      .float { animation: float 8s ease-in-out infinite; }
      .pulse { animation: pulse 8s ease-in-out infinite; }
      .drift { animation: drift 8s ease-in-out infinite; }
      .shimmer { animation: shimmer 3s ease-in-out infinite; }
      .glitch { animation: glitch 0.5s ease-in-out infinite; }
      .dataStream { animation: dataStream 2s linear infinite; }
      .name-text { 
        font-family: -apple-system, BlinkMacSystemFont, 'Segoe UI', Helvetica, Arial, sans-serif;
        font-weight: 700;
        font-size: 64px;
        letter-spacing: -2px;
      }
    </style>
  
  <path d="M 373.5743528613666 3.0250927329892097 C 372.79917006906055 24.632758846329082, 390.4568949386693 48.52976010286784, 381.33391336150953 65.52254269609062 C 372.2109317843498 82.51532528931341, 341.4673009800979 103.18343403166999, 318.8364633984081 104.98178829232593 C 296.20562581671834 106.78014255298187, 263.1533469537575 93.30545085324906, 245.54888787137105 76.31266826002627 C 227.94442878898462 59.319885666803486, 211.4257351267161 25.67031079796146, 213.20970890408955 3.0250927329892225 C 214.993682681463 -19.620125331983015, 238.64827145322533 -43.89096646672106, 256.25273053561176 -59.55864012980715 C 273.8571896179982 -75.22631379289324, 297.2144168017858 -90.22014693650374, 318.8364633984081 -90.98094924552731 C 340.45850999503045 -91.74175155455089, 376.8620285381861 -79.79112764703467, 385.98501011534586 -64.12345398394858 C 395.1079916925056 -48.455780320862495, 374.34953565367266 -18.58257338035066, 373.5743528613666 3.0250927329892097 Z" fill="#4a0080" opacity="0.22601580023174808" filter="url(#glow)" class="float" />
<path d="M 536.7974999006999 181.93098664201872 C 539.6446068879553 200.27259687921375, 553.1992563021464 234.11315182139816, 543.7663772477655 245.49713831537002 C 534.3334981933846 256.8811248093419, 497.36475065669225 254.25909774802233, 480.2002255744142 250.23490560584992 C 463.0357004921362 246.2107134636775, 456.7645898726661 232.73597195630737, 440.7792267540974 221.3519854623355 C 424.79386363552874 209.96799896836364, 388.9015682180155 199.6848409371376, 384.2880468630022 181.93098664201872 C 379.6745255079889 164.17713234689984, 397.112735505449 126.68980790951485, 413.09809862401767 114.82885969162218 C 429.08346174258634 102.96791147372952, 461.2692861243783 107.32886113456641, 480.2002255744142 110.76529733466268 C 499.1311650244501 114.20173353475894, 517.2508562698522 123.58652867430716, 526.6837353242331 135.44747689219983 C 536.116614378614 147.30842511009251, 533.9503929134445 163.5893764048237, 536.7974999006999 181.93098664201872 Z" fill="#7b2cbf" opacity="0.20061310773657132" filter="url(#glow)" class="float" />
<path d="M 451.02156309570387 74.67991154954126 C 442.6073025479193 88.00943003874728, 392.05320813408827 79.75859010420508, 380.7608615478421 96.32851262810973 C 369.468514961596 112.89843515201439, 392.878382780273 163.4123982522417, 383.2674835782271 174.0994466929692 C 373.6565843761812 184.7864951336967, 339.220508732609 169.21682482658508, 323.0954663355667 160.45080327247476 C 306.9704239385244 151.68478171836443, 290.259492043129 135.79846598879624, 286.5172291959734 121.50331736830732 C 282.7749663488178 107.2081687478184, 294.9609987020892 86.16030490721596, 300.6418892526332 74.67991154954126 C 306.3227798031771 63.19951819186655, 315.9745347961411 64.18997115097598, 320.6025724992372 52.6209572222591 C 325.23061020233337 41.051943293542216, 318.46229498856144 16.631707245760275, 328.41011547121 5.265827977239965 C 338.3579359538586 -6.100051291280346, 363.1501105012389 -17.421914008135037, 380.2894953951288 -15.574318388862764 C 397.42888028901876 -13.72672276959049, 419.4577468844538 1.3090300364729384, 431.24642483454966 16.35140169287361 C 443.0351027846455 31.393773349274277, 459.43582364348845 61.350393060335236, 451.02156309570387 74.67991154954126 Z" fill="#7b2cbf" opacity="0.20846685393821368" filter="url(#glow)" class="float" />
<path d="M 313.7999451194871 137.1846285767427 C 315.8849051393112 157.33132132790004, 315.9917735809747 199.195960713004, 303.0911476106834 203.87958688968695 C 290.19052164039203 208.56321306636988, 250.9556832938643 172.95854441169664, 236.39618929773914 165.28638563684038 C 221.836695301614 157.61422686198412, 228.60185228588958 162.53026041723234, 215.73418363393245 157.8466342405494 C 202.8665149819753 153.16300806386647, 160.32793512566965 145.20972153768486, 159.1901773859964 137.1846285767427 C 158.05241964632316 129.15953561580056, 196.03996854393586 119.37172766243344, 208.907637195893 109.69607647489656 C 221.77530584785012 100.02042528735967, 222.78389758176482 83.58016246688035, 236.39618929773914 79.13072145152141 C 250.00848101371346 74.68128043616247, 277.68076152144755 73.32377919520601, 290.5813874917389 82.9994303827429 C 303.48201346203024 92.67508157027979, 311.71498509966307 117.03793582558536, 313.7999451194871 137.1846285767427 Z" fill="#e0aaff" opacity="0.16231708899978403" filter="url(#glow)" class="float" />
<path d="M 457.5233001171243 118.37856014558352 L 457.5233001171243 118.37856014558352 L 457.7413144435748 118.39763392763419 L 457.95434477007717 118.45456494778924 L 458.15747033151007 118.54848554239206 L 458.34589615857533 118.6779606194969 L 458.5150142977266 118.84100406269928 L 458.66046303592 119.03510146286267 L 458.7781834956129 119.2572389467753 L 458.8644729912035 119.50393780956836 L 458.916034569856 119.77129459831522 L 458.9300221971053 120.05502623818253 L 458.9040810904257 120.35051974035132 L 458.83638275168255 120.65288598317488 L 458.7256543016253 120.95701701514955 L 458.5712017758211 121.25764629066214 L 458.37292710116697 121.54941121751239 L 458.13133853477 121.82691736920673 L 457.8475544119855 122.08480369524291 L 457.5233001171243 122.3178080492584 L 457.1608982581617 122.52083234814401 L 456.7632520950672 122.68900667511252 L 456.3338223394645 122.81775164628394 L 455.8765975106007 122.9028383735642 L 455.39605809839173 122.94044537635418 L 454.8971348480077 122.92721182076625 L 454.38516154143935 122.86028649732853 L 453.86582270917353 122.73737198634096 L 453.3450967589292 122.55676350377863 L 452.829195057847 122.31738196953046 L 452.3244975491001 122.01880089337807 L 451.83748552314586 121.66126673197925 L 451.37467219738994 121.24571243170129 L 450.94253178551605 120.77376393689059 L 450.54742775888076 120.24773951047746 L 450.19554101692495 119.67064178308064 L 449.892798691355 119.04614251735674 L 449.64480430977454 118.37856014558352 L 449.45677003845384 117.67283020970898 L 449.33345171101917 116.93446890367497 L 449.27908733010923 116.16952998707251 L 449.29733970261395 115.38455540644969 L 449.39124383618525 114.58652002523421 L 449.5631596855545 113.78277092462949 L 449.8147307921229 112.9809617954054 L 450.1468493096886 112.18898299366691 L 450.55962785346577 111.41488788192503 L 451.0523785492115 110.66681611962807 L 451.62359959483655 109.95291460430292 L 452.2709695788911 109.28125679521808 L 452.99134972938975 108.65976117568081 L 453.780794193207 108.09610962744563 L 454.6345683713791 107.59766650102537 L 455.5471752597757 107.1713991688081 L 456.51238966843914 106.82380084370426 L 457.5233001171243 106.56081643455889 L 458.57235812991075 106.38777219080316 L 459.6514345788842 106.3093098629023 L 460.75188265648654 106.32932607225383 L 461.86460698886833 106.45091754454356 L 462.9801383390904 106.67633281447618 L 464.08871328991575 107.00693095762672 L 465.18035824179555 107.44314784732572 L 466.24497701300675 107.98447037146964 L 467.2724412862462 108.62941897646162 L 468.252683109758 109.37553883370481 L 469.1757886316613 110.21939984880264 L 470.03209222387676 111.1566056555129 L 470.8122701371953 112.1818116562322 L 471.50743282179184 113.28875208905602 L 472.10921504799705 114.47027601898711 L 472.60986297047583 115.71839206838355 L 473.00231729511347 117.02432161998642 L 473.2802917318238 118.37856014558352 L 473.43834594801456 119.77094623528195 L 473.4719522763816 121.1907378271949 L 473.3775554767686 122.62669506579701 L 473.1526249046939 124.0671691499378 L 472.7956984984 125.50019646916638 L 472.30641806146815 126.9135972702124 L 471.6855553886385 128.29507804474798 L 470.9350288579164 129.6323367854319 L 470.0579101917096 130.9131702201688 L 469.0584211729689 132.12558210489541 L 467.94192018839834 133.25789163337691 L 466.71487855903234 134.29884100872306 L 465.38484670809237 135.2377012158229 L 463.960410306262 136.0643750367807 L 462.4511366245719 136.76949636277095 L 460.8675114141757 137.34452487551115 L 459.2208667196333 137.78183519968266 L 457.5233001171243 138.07479966395792 L 455.7875859505139 138.21786385258378 L 454.0270792156615 138.20661418141697 L 452.25561281605957 138.03783679154247 L 450.4873889801598 137.70956711968276 L 448.73686569192466 137.22112957702757 L 447.01863904065794 136.57316684631442 L 445.3473224434667 135.76765839035414 L 443.73742373331004 134.80792785305385 L 442.20322113707556 133.6986391256322 L 440.75863919113414 132.44578094539403 L 439.41712565607446 131.05663999135075 L 438.1915304975977 129.53976253932902 L 437.0939879967165 127.90490483816838 L 436.13580303939744 126.16297246733147 L 435.32734261362225 124.32594903388241 L 434.6779335106205 122.40681466248633 L 434.1957671869152 120.41945482500451 L 433.887812695075 118.37856014558353 L 433.7597385340141 116.29951790206123 L 433.8158442047147 114.19829602426931 L 434.05900218485067 112.09132046366751 L 434.4906109564954 109.99534687600882 L 435.1105596355119 107.92732761876714 L 435.91720466000635 105.90427511727972 L 436.90735889909723 103.94312269743276 L 438.0762934429757 102.0605840178034 L 439.4177522316122 100.27301226007143 L 440.92397957334794 98.59626025291516 L 442.5857604968639 97.04554271127732 L 444.39247377154135 95.63530176966992 L 446.3321573229226 94.37907697500745 L 448.3915856627661 93.28938088132705 L 450.55635884797414 92.37758135576684 L 452.81100238037004 91.65379166250366 L 455.13907736079136 91.12676933926451 L 457.5233001171243 90.80382481985937 L 459.9456704375585 90.6907406863634 L 462.3876074582899 90.79170235659785 L 464.8300921798915 91.10924092699528 L 467.25381551930917 91.64418879842498 L 469.6393307455574 92.39564861380279 L 471.9672090972655 93.36097593207855 L 474.21819733976827 94.5357759543001 L 476.3733759888703 95.91391450475672 L 478.41431690809975 97.48754335460804 L 480.32323897647086 99.24713985784128 L 482.0831605246869 101.18156075082995 L 483.67804724942494 103.27810984816315 L 485.0929543378687 105.52261924976511 L 486.3141615679104 107.89954355861508 L 487.3293001932556 110.39206649558214 L 488.1274704767802 112.98221918897788 L 488.6993487995532 115.65100931233872 L 489.03728334652334 118.3785601455835 L 489.13537745245435 121.14425854292968 L 488.98955978268606 123.92691070660061 L 488.59764062202714 126.70490458920194 L 487.95935365081243 129.45637768037867 L 487.0763826990733 132.15938887563348 L 485.9523730870163 134.79209307756216 L 484.5929272816641 137.3329171427206 L 483.0055847246293 139.76073576129545 L 481.1997858135632 142.05504584202237 L 479.1868201488324 144.19613797160832 L 476.97975928637095 146.16526352640255 L 474.59337436638214 147.94479603427118 L 472.04403911455944 149.51838541649627 L 469.3496188367029 150.87110378289927 L 466.529346147977 151.98958150802946 L 463.60368429358135 152.8621323818156 L 460.5941790272811 153.4788667041224 L 457.52330011712434 153.83179127865742 L 454.4142736428662 153.9148953570235 L 451.29090633625583 153.7242216877214 L 448.17740329265456 153.25792193680104 L 445.09818044971894 152.51629586580134 L 442.0776732854576 151.50181377770093 L 439.14014323330815 150.21912187186257 L 436.309483345494 148.67503028337978 L 433.6090247574465 146.8784837197668 L 431.061345515222 144.8405147474858 L 428.6880833244213 142.57417992125758 L 426.5097537630489 140.09447908932339 L 424.54557547204956 137.41825834667878 L 422.8133037960432 134.56409724463555 L 421.3290742932789 131.55218099777235 L 420.1072574683637 128.4041585572874 L 419.1603260043161 125.14298754189207 L 418.49873568247546 121.79276713265227 L 418.1308210803755 118.37856014558355 L 418.06270702957437 114.92620559441356 L 418.2982366984103 111.46212314486365 L 418.8389170395921 108.01311094026264 L 419.6838822103768 104.60613834556796 L 420.8298754348385 101.26813521230001 L 422.2712496344582 98.02577930993002 L 423.99998700607165 94.90528359946006 L 426.0057375762628 91.93218504193986 L 428.2758766097585 89.13113663821792 L 430.79558059748433 86.5257043862023 L 433.5479213988912 84.1381708182517 L 436.51397796419155 81.9893467441218 L 439.67296491645556 80.09839277433407 L 443.00237713232514 78.48265213520853 L 446.4781493245692 77.15749621050828 L 450.0748295009643 76.13618415619925 L 453.7657650531436 75.42973783482478 L 457.52330011712434 75.04683320515986 L 461.31898274520626 74.99370918192366 L 465.1237803376955 75.27409485029341 L 468.9083017032964 75.88915578173672 L 472.64302404975 76.83746005230637 L 476.2985231520245 78.11496441312943 L 479.8457049046153 79.71502090653041 L 483.2560364377408 81.62840406127447" fill="none" stroke="#c77dff" stroke-width="1" opacity="0.3" class="drift" />
<path d="M 521.9039808822448 96.50446094569901 L 521.9039808822448 96.50446094569901 L 522.1482576415153 96.52583239289802 L 522.386950018441 96.58962143525986 L 522.6145444828951 96.69485588866421 L 522.8256684541851 96.8399277871784 L 523.0151588956544 97.02261176292538 L 523.1781286737618 97.24009051611868 L 523.3100299706251 97.4889871164758 L 523.4067140678821 97.76540380752513 L 523.4644868553002 98.06496691875431 L 523.4801594595275 98.38287742774565 L 523.4510934363226 98.71396665601094 L 523.3752400230842 99.05275652873289 L 523.2511730070333 99.39352378056404 L 523.0781148274226 99.7303674474903 L 522.8559555970708 100.05727894895048 L 522.5852647987316 100.36821403526879 L 522.2672954846282 100.657165853298 L 521.9039808822448 100.91823836821705 L 521.4979233854634 101.14571937183906 L 521.0523759866362 101.33415230766124 L 520.5712162814884 101.47840615025108 L 520.0589132541082 101.57374259137103 L 519.5204871230035 101.6158798073833 L 518.9614626005662 101.60105211176678 L 518.3878159866134 101.52606483277158 L 517.8059165813099 101.38834379902028 L 517.2224629630789 101.1859788648649 L 516.6444147325142 100.91776096209045 L 516.0789203732406 100.58321222463142 L 515.53324192466 100.18260879779737 L 515.0146771991051 99.71699601250248 L 514.5304803067219 99.18819567753407 L 514.0877812750915 98.59880531831618 L 513.693505566909 97.95218926823355 L 513.3542943077763 97.2524615976648 L 513.0764260372088 96.50446094569901 L 512.8657407892352 95.71371739933518 L 512.7275672945166 94.88641164404275 L 512.6666540737909 94.02932668715144 L 512.6871051628411 93.14979253090519 L 512.7923211722858 92.2556242444428 L 512.9849463416263 91.3550539527613 L 513.26682219648 90.45665732521302 L 513.6389483612396 89.56927520565532 L 514.1014510169683 88.70193108042254 L 514.6535594267446 87.86374512828446 L 515.2935908784577 87.06384563800258 L 516.0189443188874 86.31127861356347 L 516.8261028734264 85.61491641428468 L 517.7106453637525 84.98336629644443 L 518.6672668518364 84.42487973464398 L 519.6898081536626 83.94726340459721 L 520.7712941806966 83.55779270436096 L 521.9039808822448 83.26312867814488 L 523.079410478191 83.06923918581991 L 524.2884745899488 82.98132513220476 L 525.5214847985835 83.0037525333434 L 526.7682500836959 83.1399911525637 L 528.0181605255159 83.39256038746542 L 529.2602765864416 83.7629830305296 L 530.4834232275854 84.25174746124193 L 531.6762880613973 84.85827875700984 L 532.8275226936319 85.58091913431196 L 533.9258463673433 86.41691805109 L 534.9601509886335 87.36243221705737 L 535.9196065889312 88.4125356710826 L 536.7937662619338 89.56123999486569 L 537.572669605231 90.80152464054952 L 538.2469436972016 92.12537725749947 L 538.8079006491126 93.52384381106906 L 539.2476307904524 94.98708819456841 L 539.559090572317 96.50446094569901 L 539.7361843089934 98.06457659122766 L 539.7738389215051 99.65539905945064 L 539.6680708985022 101.26433451982894 L 539.4160447491117 102.87833093380728 L 539.0161222887531 104.48398353098506 L 538.4679021719651 106.06764536115475 L 537.7722491653941 107.6155420158942 L 536.931312738618 109.11388956396027 L 535.9485346397424 110.54901470319663 L 534.8286452159626 111.90747609848144 L 533.5776483357411 113.17618585077993 L 532.2027948681202 114.3425300269362 L 530.7125447750931 115.39448717366264 L 529.1165179740516 116.32074374241688 L 527.4254342282355 117.11080536455758 L 525.6510424229225 117.75510293833283 L 523.8060396829578 118.2450925207761 L 521.9039808822448 118.57334805828921 L 519.9591791871338 118.73364603931715 L 517.9865983624454 118.72104121072528 L 516.0017376503237 118.53193256585817 L 514.0205101074794 118.16411888629763 L 512.0591153549439 117.61684320048191 L 510.13390775553006 116.8908256099701 L 508.261261087195 115.9882840275406 L 506.4574308248748 114.91294246975609 L 504.73841517863656 113.67002664930723 L 503.1198160617784 112.26624671852562 L 501.61670117847166 110.70976712404988 L 500.2434684264568 109.01016364283345 L 499.01371380600654 107.17836778056216 L 497.94010401179526 105.22659882416295 L 497.03425485948446 103.16828394948092 L 496.306616663845 101.01796689242435 L 495.7663676402982 98.79120579599441 L 495.42131634713655 96.50446094569902 L 495.27781412175716 94.17497320100557 L 495.34067839145257 91.82063401985198 L 495.6131276581839 89.45984805598667 L 496.0967288679145 87.11138938427632 L 496.79135777918725 84.79425247638315 L 497.69517284342294 82.52749910772519 L 498.804603001711 80.33010242579462 L 500.1143496905038 78.22078944922019 L 501.617403232526 76.21788329598017 L 503.30507367030947 74.33914645754867 L 505.1670359790393 72.60162644323361 L 507.19138947385136 71.02150511536017 L 509.36473110536673 69.61395302118606 L 511.67224221712365 68.39299000151783 L 514.0977882206718 67.3713533190369 L 516.6240305294717 66.56037450153319 L 519.232549982367 65.96986603688288 L 521.9039808822448 65.60801898807273 L 524.6181546765206 65.48131251834182 L 527.3542522141395 65.59443622914074 L 530.0909634297483 65.95022611773629 L 532.8066532303247 66.54961485763708 L 535.4795322935756 67.39159699436678 L 538.0878314314776 68.47320953232628 L 540.6099781270038 69.78952826647296 L 543.0247738178324 71.33368008627401 L 545.3115704780743 73.09687134986962 L 547.4504450380791 75.06843229465485 L 549.4223701834024 77.23587731763894 L 551.2093800871345 79.58498082604652 L 552.7947296550324 82.09986822680602 L 554.1630459001576 84.76312149392056 L 555.3004701128087 87.55589862633472 L 556.1947895521766 90.45806618687827 L 556.8355574579305 93.44834399623885 L 557.2142002623891 96.504460945699 L 557.3241109764715 99.60332078955724 L 557.1607278245691 102.72117668364149 L 556.7215973141093 105.83381315099365 L 556.0064210440383 108.91673408043613 L 555.0170856818517 111.94535529904475 L 553.7576756701684 114.89520020619081 L 552.2344683601632 117.74209691531259 L 550.4559114093537 120.46237532039544 L 548.4325824241848 123.03306248763897 L 546.1771309723978 125.43207476921727 L 543.7042032351594 127.63840504554895 L 541.0303497131564 129.63230352513946 L 538.1739165431527 131.39545056676127 L 535.1549211206805 132.9111200373435 L 531.9949128594003 134.16433178016464 L 528.7168200471133 135.14199184139684 L 525.3447838812874 135.83301918825418 L 521.9039808822449 136.2284577483614 L 518.4204349888042 136.32157270679522 L 514.9208207382547 136.10793011378928 L 511.4322590191589 135.58545898146525 L 507.9821069608505 134.75449518122423 L 504.59774358688423 133.61780659358055 L 501.30635291049396 132.18059910817337 L 498.13470618777666 130.4505032223096 L 495.10894506843965 128.4375411404919 L 492.2543673941942 126.15407443374959 L 489.59521739104264 123.61473247496079 L 487.1544819837026 120.83632202346826 L 484.9536949282535 117.83771848786954 L 483.0127504129079 114.6397395486219 L 481.3497277168687 111.26500197079184 L 479.9807284438774 107.73776258064566 L 478.919727760781 104.08374451661524 L 478.1784409728201 100.32994999432405 L 477.7662066570644 96.50446094569904 L 477.6898874542791 92.63622900267606 L 477.9537894883885 88.7548563956612 L 478.5596012425768 84.89036942482201 L 479.5063525729879 81.07298623764746 L 480.7903943860887 77.33288070832342 L 482.4053993452196 73.69994426268919 L 484.342383806942 70.20354752637617 L 486.58975101976796 66.87230369278507" fill="none" stroke="#4a0080" stroke-width="1" opacity="0.3" class="drift" />
<circle cx="575.0191754650144" cy="195.94131313642157" r="0.9744675882714866" fill="white" opacity="0.487205515913734"  style="animation-delay: 0.26015951722724306s" />
<circle cx="505.8353376905762" cy="150.51935726279618" r="1.0075288805520568" fill="white" opacity="0.3285164735104222"  style="animation-delay: 4.8617348992610605s" />
<circle cx="426.96871713733697" cy="119.78609348635186" r="1.2521793071736427" fill="white" opacity="0.7137074755692918" class="shimmer" style="animation-delay: 3.907406865605394s" />
<circle cx="8.045301326282406" cy="44.64166050036526" r="1.9315662644072757" fill="white" opacity="0.6484351100368619"  style="animation-delay: 2.2637192109665385s" />
<circle cx="687.836658062451" cy="162.25017014181168" r="0.6102291355917131" fill="white" opacity="0.6925128410910748"  style="animation-delay: 1.152580749363129s" />
<circle cx="387.6657068634854" cy="52.55425016305493" r="0.747691646019986" fill="white" opacity="0.42807565069603776"  style="animation-delay: 0.20182131607666465s" />
<circle cx="262.36115403432655" cy="194.5093543592751" r="0.9549932898957856" fill="white" opacity="0.4225112878725001"  style="animation-delay: 3.3142785421980148s" />
<circle cx="387.86391432605393" cy="27.958106099691182" r="1.0079705184759624" fill="white" opacity="0.4060793574011798"  style="animation-delay: 2.5841138329840563s" />
<circle cx="653.6086452101715" cy="80.90308186641701" r="0.6544279472071042" fill="white" opacity="0.4465101769847975" class="shimmer" style="animation-delay: 0.20681974103104794s" />
<circle cx="107.33980081979641" cy="123.6964157416283" r="1.1747198359823237" fill="white" opacity="0.4022191090933323"  style="animation-delay: 2.3150990285144646s" />
<circle cx="199.87018822487562" cy="172.283591886272" r="1.9820894819032433" fill="white" opacity="0.5182339161351295"  style="animation-delay: 4.029073561735222s" />
<circle cx="793.089710263644" cy="173.9613515483283" r="0.8941551522476927" fill="white" opacity="0.41740262696029445"  style="animation-delay: 4.4734761795205085s" />
<circle cx="112.92953387281841" cy="171.7433954578388" r="1.4153659444835123" fill="white" opacity="0.35568124411630037" class="shimmer" style="animation-delay: 2.5036873632239343s" />
<circle cx="678.7463447089793" cy="1.6870583561487074" r="1.1095323025561414" fill="white" opacity="0.5410556225925329"  style="animation-delay: 2.0320554066085106s" />
<circle cx="142.53237209834316" cy="49.21697335431388" r="1.2022415507079312" fill="white" opacity="0.4774869925586593"  style="animation-delay: 0.5205243499841772s" />
<circle cx="198.64087101526647" cy="39.502026853053884" r="0.5962298121947396" fill="white" opacity="0.30296408377118217"  style="animation-delay: 0.5500263688101015s" />
<circle cx="648.3432601519178" cy="176.44250863588465" r="0.5908956163140101" fill="white" opacity="0.6539280960770153"  style="animation-delay: 1.9907131596752692s" />
<circle cx="543.8149924848764" cy="47.58210098885929" r="0.6662006779218157" fill="white" opacity="0.4163617618671042"  style="animation-delay: 0.958905380653422s" />
<circle cx="651.0887007498162" cy="141.69832059359777" r="1.004082774979336" fill="white" opacity="0.42742809662240594"  style="animation-delay: 4.363228815998115s" />
<circle cx="195.13889557346874" cy="62.203447384972186" r="1.6976905000868658" fill="white" opacity="0.7672747553673693"  style="animation-delay: 0.883903134764018s" />
<circle cx="445.7903194599135" cy="143.7172431569019" r="0.766053511920597" fill="white" opacity="0.5834425312259064" class="shimmer" style="animation-delay: 3.6601654098373206s" />
<circle cx="208.37968917262373" cy="79.55762409764904" r="0.8848434212841791" fill="white" opacity="0.5801621774287296"  style="animation-delay: 0.4101681920264566s" />
<circle cx="481.0386671215358" cy="12.806978499533939" r="1.3598282527203316" fill="white" opacity="0.3878642252885593"  style="animation-delay: 3.515239486865492s" />
<circle cx="245.54174601353384" cy="87.92687783849607" r="1.8964987064013177" fill="white" opacity="0.44036287993954276" class="shimmer" style="animation-delay: 4.579600912454417s" />
<circle cx="650.285195447305" cy="129.97185254492146" r="0.5431126549860766" fill="white" opacity="0.3153960491805226" class="shimmer" style="animation-delay: 0.011143573777678828s" />
<circle cx="382.3980797751419" cy="10.657703076297453" r="0.6300625292011882" fill="white" opacity="0.4800168404734321"  style="animation-delay: 1.7783428162482784s" />
<circle cx="171.96256523182836" cy="131.77570743946725" r="0.6079107321026637" fill="white" opacity="0.7057068521223746"  style="animation-delay: 2.7882563346801295s" />
<circle cx="632.3257010936384" cy="135.5612256675918" r="0.6202994794750709" fill="white" opacity="0.7725583572461656"  style="animation-delay: 4.219047085703201s" />
<circle cx="371.3631984410876" cy="189.50935269524174" r="1.1442211710699985" fill="white" opacity="0.3895701434523943" class="shimmer" style="animation-delay: 3.4901150957788407s" />
<circle cx="585.7941761984671" cy="134.51067562330255" r="0.8119157196886997" fill="white" opacity="0.36730624441577925"  style="animation-delay: 2.502628461339902s" />
<circle cx="583.9960190338406" cy="149.3642931735562" r="1.1968828647805025" fill="white" opacity="0.7210488723037984"  style="animation-delay: 1.438928767572435s" />
<circle cx="482.30247661933544" cy="20.37740510798858" r="0.7674622903873074" fill="white" opacity="0.5280123439679103"  style="animation-delay: 3.712774393648377s" />
<circle cx="549.973239510567" cy="36.15480061958176" r="0.7168788868398702" fill="white" opacity="0.37010858401583885" class="shimmer" style="animation-delay: 1.0232310250690357s" />
<circle cx="513.5996534909881" cy="88.24770160023974" r="1.6992408801002856" fill="white" opacity="0.3020636881887589"  style="animation-delay: 1.6389038740186657s" />
<circle cx="270.7050339421375" cy="58.85957014916268" r="1.0715419923549856" fill="white" opacity="0.45013248752644647"  style="animation-delay: 3.661347592745683s" />
<circle cx="695.7042846949327" cy="136.89157468562735" r="1.2659215837605737" fill="white" opacity="0.33248521761711275"  style="animation-delay: 0.6682808039865673s" />
<circle cx="475.0153223401259" cy="0.24496860790370611" r="1.8569006620164388" fill="white" opacity="0.7999238344924249"  style="animation-delay: 0.31051922552394196s" />
<circle cx="250.04745724667484" cy="140.9699659404579" r="1.1203387177163888" fill="white" opacity="0.5785489312490597"  style="animation-delay: 2.9282065719512715s" />
<circle cx="679.510570318859" cy="114.71380873421504" r="1.0974307979856686" fill="white" opacity="0.479365456510691"  style="animation-delay: 2.541982472017935s" />
<circle cx="478.2174352388299" cy="150.29604092737156" r="1.161110191861296" fill="white" opacity="0.7417307548675205" class="shimmer" style="animation-delay: 4.533930908038759s" />
<circle cx="454.79713510915883" cy="63.36019418166954" r="1.8622550208205322" fill="#4a0080" opacity="0.8" filter="url(#glow)" class="shimmer" style="animation-delay: 0.024635644969056347s" />
<circle cx="84.56089077931867" cy="174.6741241310444" r="2.6914093756148194" fill="#c77dff" opacity="0.8" filter="url(#glow)" class="shimmer" style="animation-delay: 2.8142683332593093s" />
<circle cx="587.0882023576482" cy="181.96914309035103" r="1.9906116365797835" fill="#c77dff" opacity="0.8" filter="url(#glow)" class="shimmer" style="animation-delay: 1.9024473643613533s" />
<circle cx="85.02311755149492" cy="187.61151519368994" r="2.9619040638728364" fill="#9d4edd" opacity="0.8" filter="url(#glow)" class="shimmer" style="animation-delay: 1.2643529581669963s" />
<circle cx="118.86870932459797" cy="34.22568795603458" r="1.7476557069076506" fill="#e0aaff" opacity="0.8" filter="url(#glow)" class="shimmer" style="animation-delay: 0.13892967517357047s" />
<circle cx="469.6391399073411" cy="147.25714045902012" r="2.9963903033505552" fill="#7b2cbf" opacity="0.8" filter="url(#glow)" class="shimmer" style="animation-delay: 1.8146429082792943s" />
<circle cx="251.37319310685592" cy="122.24753711614183" r="1.2971572671202503" fill="#7b2cbf" opacity="0.8" filter="url(#glow)" class="shimmer" style="animation-delay: 2.501102571780395s" />
<circle cx="14.053015498698151" cy="16.467494147279993" r="1.7552133665956937" fill="#c77dff" opacity="0.8" filter="url(#glow)" class="shimmer" style="animation-delay: 0.4734241929074645s" />
<line x1="133.94747491183477" y1="96.40466256137546" x2="457.6978282736169" y2="154.25409654860778" stroke="#e0aaff" stroke-width="0.5" opacity="0.3" />
<line x1="457.6978282736169" y1="154.25409654860778" x2="186.0869999671482" y2="121.28247064295851" stroke="#e0aaff" stroke-width="0.5" opacity="0.3" />
<line x1="186.0869999671482" y1="121.28247064295851" x2="723.619755086136" y2="145.3663338707993" stroke="#e0aaff" stroke-width="0.5" opacity="0.3" />
<line x1="723.619755086136" y1="145.3663338707993" x2="394.2897014769666" y2="73.40401204162178" stroke="#e0aaff" stroke-width="0.5" opacity="0.3" />

  
    <text x="400" y="120" text-anchor="middle" class="name-text" fill="url(#textGrad)" filter="url(#textGlow)">
      JOEL HOOKS
    </text>
  
</svg>
