<svg xmlns="http://www.w3.org/2000/svg" viewBox="0 0 800 200" width="800" height="200">
  <rect width="800" height="200" fill="#1a0a0a"/>
  
    <defs>
      <linearGradient id="grad1" x1="0%" y1="0%" x2="100%" y2="100%">
        <stop offset="0%" style="stop-color:#ff4500;stop-opacity:0.8" />
        <stop offset="100%" style="stop-color:#ff6b35;stop-opacity:0.8" />
      </linearGradient>
      <linearGradient id="grad2" x1="100%" y1="0%" x2="0%" y2="100%">
        <stop offset="0%" style="stop-color:#f7c59f;stop-opacity:0.7" />
        <stop offset="100%" style="stop-color:#efa48b;stop-opacity:0.7" />
      </linearGradient>
      <linearGradient id="textGrad" x1="0%" y1="0%" x2="100%" y2="0%">
        <stop offset="0%" style="stop-color:#ff4500" />
        <stop offset="25%" style="stop-color:#ff6b35" />
        <stop offset="50%" style="stop-color:#f7c59f" />
        <stop offset="75%" style="stop-color:#efa48b" />
        <stop offset="100%" style="stop-color:#d4a5a5" />
      </linearGradient>
      <filter id="glow">
        <feGaussianBlur stdDeviation="3" result="coloredBlur"/>
        <feMerge>
          <feMergeNode in="coloredBlur"/>
          <feMergeNode in="SourceGraphic"/>
        </feMerge>
      </filter>
      <filter id="textGlow">
        <feGaussianBlur stdDeviation="2" result="coloredBlur"/>
        <feMerge>
          <feMergeNode in="coloredBlur"/>
          <feMergeNode in="SourceGraphic"/>
        </feMerge>
      </filter>
    </defs>
  
  
    <style>
      @keyframes float {
        0%, 100% { transform: translateY(0px); }
        50% { transform: translateY(-8px); }
      }
      @keyframes pulse {
        0%, 100% { opacity: 0.4; }
        50% { opacity: 0.9; }
      }
      @keyframes drift {
        0% { transform: translateX(0px); }
        50% { transform: translateX(10px); }
        100% { transform: translateX(0px); }
      }
      @keyframes shimmer {
        0% { opacity: 0.3; }
        50% { opacity: 1; }
        100% { opacity: 0.3; }
      }
      @keyframes glitch {
        0%, 100% { transform: translateX(0); }
        20% { transform: translateX(-2px); }
        40% { transform: translateX(2px); }
        60% { transform: translateX(-1px); }
        80% { transform: translateX(1px); }
      }
      @keyframes dataStream {
        0% { stroke-dashoffset: 0; }
        100% { stroke-dashoffset: -20; }
      }
      .float { animation: float 8s ease-in-out infinite; }
      .pulse { animation: pulse 8s ease-in-out infinite; }
      .drift { animation: drift 8s ease-in-out infinite; }
      .shimmer { animation: shimmer 3s ease-in-out infinite; }
      .glitch { animation: glitch 0.5s ease-in-out infinite; }
      .dataStream { animation: dataStream 2s linear infinite; }
      .name-text { 
        font-family: -apple-system, BlinkMacSystemFont, 'Segoe UI', Helvetica, Arial, sans-serif;
        font-weight: 700;
        font-size: 64px;
        letter-spacing: -2px;
      }
    </style>
  
  <rect x="0" y="160" width="800" height="50" fill="#ff4500" opacity="0.3" />
<rect x="0" y="170" width="800" height="40" fill="#ff6b35" opacity="0.25" />
<rect x="0" y="180" width="800" height="30" fill="#f7c59f" opacity="0.19999999999999998" />
<rect x="0" y="190" width="800" height="20" fill="#efa48b" opacity="0.14999999999999997" />
<rect x="0" y="200" width="800" height="10" fill="#d4a5a5" opacity="0.09999999999999998" />
<line x1="412.6888654503954" y1="170" x2="412.6888654503954" y2="295.6904945692737" stroke="#ff4500" stroke-width="2.362151268305714" opacity="0.13576400620127743" class="pulse" />
<line x1="412.6888654503954" y1="170" x2="436.34395845887997" y2="258.2820089654319" stroke="#ff4500" stroke-width="1.5947921949282842" opacity="0.24108821908898317" class="pulse" />
<line x1="412.6888654503954" y1="170" x2="484.671114754658" y2="294.67691303807237" stroke="#ff4500" stroke-width="2.0078742173228465" opacity="0.20995740632697846" class="pulse" />
<line x1="412.6888654503954" y1="170" x2="508.00277094804824" y2="265.31390549765285" stroke="#ff4500" stroke-width="2.2735092415215066" opacity="0.289466109303528" class="pulse" />
<line x1="412.6888654503954" y1="170" x2="521.0740317676557" y2="232.57620494943257" stroke="#ff4500" stroke-width="2.8408595882569094" opacity="0.2199374160745723" class="pulse" />
<line x1="412.6888654503954" y1="170" x2="540.0433002846493" y2="204.12451796636037" stroke="#ff4500" stroke-width="1.1365798016879647" opacity="0.10990177693715673" class="pulse" />
<line x1="412.6888654503954" y1="170" x2="502.74922774377035" y2="170" stroke="#ff4500" stroke-width="2.5436532329191666" opacity="0.2598604721729393" class="pulse" />
<line x1="412.6888654503954" y1="170" x2="555.3582515043771" y2="131.7718532221915" stroke="#ff4500" stroke-width="1.0662346365782933" opacity="0.20412944505642738" class="pulse" />
<line x1="412.6888654503954" y1="170" x2="522.1306458762572" y2="106.81375861053681" stroke="#ff4500" stroke-width="2.7888082937920644" opacity="0.26736003415143494" class="pulse" />
<line x1="412.6888654503954" y1="170" x2="482.05495549598976" y2="100.63390995440565" stroke="#ff4500" stroke-width="1.8952784301398542" opacity="0.1486739410921778" class="pulse" />
<line x1="412.6888654503954" y1="170" x2="459.3906313693579" y2="89.1101686251684" stroke="#ff4500" stroke-width="1.2724767156514227" opacity="0.22126027427833644" class="pulse" />
<line x1="412.6888654503954" y1="170" x2="436.19920082038345" y2="82.25823389622106" stroke="#ff4500" stroke-width="2.793327176116447" opacity="0.12322740252753746" class="pulse" />
<path d="M 548.8423267520561 37.434823448588105 C 548.6484100549114 51.27541150343034, 562.389684443509 68.3894480106014, 556.911153167181 78.37483752168076 C 551.432621890853 88.36022703276012, 527.9347013729553 99.03026959389491, 515.9711390940884 97.3471605150643 C 504.0075768152214 95.66405143623369, 494.5183668471064 78.26157255977644, 485.12977949397936 68.27618304869708 C 475.7411921408523 58.290793537617716, 461.02937069887514 49.105032372173525, 459.6396149753261 37.43482344858811 C 458.249859251777 25.7646145250027, 467.4026577995578 4.223876120854136, 476.79124515268484 -1.7450704928153868 C 486.1798325058119 -7.71401710648491, 502.42390439452765 2.1084138189971875, 515.9711390940884 1.6211437665709738 C 529.5183737936491 1.13387371414476, 552.5961220737211 -10.637637421042193, 558.0746533500491 -4.66869080737267 C 563.5531846263771 1.3002558062968523, 549.0362434492008 23.59423539374587, 548.8423267520561 37.434823448588105 Z" fill="#f7c59f" opacity="0.2249640486598451" class="drift" />
<path d="M 341.7314772483325 76.781466846144 C 341.89489768586634 88.9016914948785, 327.6852203820802 104.86722021939447, 317.50578195706873 113.63240210494907 C 307.32634353205725 122.39758399050366, 292.8462873420951 129.46476260190852, 280.65484669826367 129.37255815947157 C 268.46340605443226 129.28035371703461, 254.42852321589282 121.84435733588194, 244.3571380940803 113.07917545032734 C 234.2857529722678 104.31399356477274, 219.08575529972626 87.7399223798762, 220.22653596738851 76.78146684614401 C 221.36731663505077 65.82301131241182, 241.13043697824133 53.5245232983384, 251.20182210005385 47.3284422479342 C 261.27320722186636 41.132361197529995, 269.76760715962837 40.67454521628417, 280.65484669826367 39.60498054371881 C 291.54208623689897 38.53541587115345, 306.34582090685416 34.71497316213784, 316.52525933186564 40.911054212542034 C 326.7046977568771 47.10713526294623, 341.5680568107987 64.66124219740949, 341.7314772483325 76.781466846144 Z" fill="#f7c59f" opacity="0.16960493405791693" class="drift" />
<path d="M 610.1931741197159 46.984816042139926 C 611.3302341415822 59.30833513677949, 620.0750301940484 82.10407497783494, 613.9750539390113 87.36655339165736 C 607.8750776839743 92.62903180547978, 584.7282126002945 80.88536963077966, 573.5933165894938 78.55968652507447 C 562.4584205786932 76.23400341936927, 556.0013991154588 78.67493317124858, 547.1656778742076 73.41245475742616 C 538.3299566329565 68.14997634360374, 523.3189227181994 58.53396252344767, 520.578989141987 46.98481604213993 C 517.8390555657746 35.435669560832196, 521.8903551756825 9.928239724148185, 530.7260764169337 4.117575869579731 C 539.5617976581848 -1.693087984988721, 560.8555470243472 10.569522422355845, 573.5933165894938 12.12083291472922 C 586.3310861546405 13.672143407102595, 601.0527175527768 7.61477496925153, 607.1526938078138 13.42543882381998 C 613.2526700628507 19.23610267838843, 609.0561140978496 34.66129694750036, 610.1931741197159 46.984816042139926 Z" fill="#f7c59f" opacity="0.16074382293840467" class="drift" />
<path d="M 716.0789422827016 48.41018502967707 C 715.1001389145031 59.93120109313714, 701.4905338177208 72.23731331074308, 692.2475245075677 80.03682311546169 C 683.0045151974147 87.8363329201803, 670.4514432172928 95.91889975774063, 660.6208864217831 95.20724385798874 C 650.7903296262734 94.49558795823685, 641.3842699267466 83.56639752166895, 633.2641837345099 75.76688771695034 C 625.1440975422731 67.96737791223173, 612.3384274974186 57.96714415449037, 611.9003692683631 48.41018502967708 C 611.4623110393076 38.85322590486379, 622.51574816794 26.121979631240904, 630.6358343601767 18.425132968070614 C 638.7559205524133 10.728286304900323, 649.3734680290194 3.48150608955023, 660.6208864217831 2.229105050655342 C 671.8683048145468 0.9767040117604537, 688.8773354066058 3.2138800715309968, 698.1203447167588 10.910726734701285 C 707.3633540269119 18.607573397871572, 717.0577456509002 36.88916896621701, 716.0789422827016 48.41018502967707 Z" fill="#f7c59f" opacity="0.24444595281262976" class="drift" />
<path d="M 125.77491177663318 41.36812882524291 L 133.0221161057366 37.74452666069121 L 140.26932043483998 41.36812882524291" fill="none" stroke="#d4a5a5" stroke-width="1.5" opacity="0.4" class="float" style="animation-delay: 0.6079699394457752s" />
<path d="M 492.1238540282106 64.80720521645317 L 503.6331935388038 59.05253546115655 L 515.142533049397 64.80720521645317" fill="none" stroke="#d4a5a5" stroke-width="1.5" opacity="0.4" class="float" style="animation-delay: 1.7865864572515677s" />
<path d="M 89.3787264531054 39.27085280626031 L 101.1914581672113 33.36448694920736 L 113.00418988131719 39.27085280626031" fill="none" stroke="#d4a5a5" stroke-width="1.5" opacity="0.4" class="float" style="animation-delay: 1.8594637046034488s" />
<path d="M 145.8753179074795 58.57067359682458 L 153.78235361806765 54.61715574153052 L 161.68938932865578 58.57067359682458" fill="none" stroke="#d4a5a5" stroke-width="1.5" opacity="0.4" class="float" style="animation-delay: 0.182168112707634s" />
<path d="M 377.9666556497747 52.86589587142943 L 387.45841788454067 48.120014754046444 L 396.95018011930665 52.86589587142943" fill="none" stroke="#d4a5a5" stroke-width="1.5" opacity="0.4" class="float" style="animation-delay: 1.407283426721007s" />

  
    <text x="400" y="120" text-anchor="middle" class="name-text" fill="url(#textGrad)" filter="url(#textGlow)">
      JOEL HOOKS
    </text>
  
</svg>
