<svg xmlns="http://www.w3.org/2000/svg" viewBox="0 0 800 200" width="800" height="200">
  <rect width="800" height="200" fill="#05010d"/>
  
    <defs>
      <linearGradient id="grad1" x1="0%" y1="0%" x2="100%" y2="100%">
        <stop offset="0%" style="stop-color:#4a0080;stop-opacity:0.8" />
        <stop offset="100%" style="stop-color:#7b2cbf;stop-opacity:0.8" />
      </linearGradient>
      <linearGradient id="grad2" x1="100%" y1="0%" x2="0%" y2="100%">
        <stop offset="0%" style="stop-color:#9d4edd;stop-opacity:0.7" />
        <stop offset="100%" style="stop-color:#c77dff;stop-opacity:0.7" />
      </linearGradient>
      <linearGradient id="textGrad" x1="0%" y1="0%" x2="100%" y2="0%">
        <stop offset="0%" style="stop-color:#4a0080" />
        <stop offset="25%" style="stop-color:#7b2cbf" />
        <stop offset="50%" style="stop-color:#9d4edd" />
        <stop offset="75%" style="stop-color:#c77dff" />
        <stop offset="100%" style="stop-color:#e0aaff" />
      </linearGradient>
      <filter id="glow">
        <feGaussianBlur stdDeviation="5" result="coloredBlur"/>
        <feMerge>
          <feMergeNode in="coloredBlur"/>
          <feMergeNode in="SourceGraphic"/>
        </feMerge>
      </filter>
      <filter id="textGlow">
        <feGaussianBlur stdDeviation="2" result="coloredBlur"/>
        <feMerge>
          <feMergeNode in="coloredBlur"/>
          <feMergeNode in="SourceGraphic"/>
        </feMerge>
      </filter>
    </defs>
  
  
    <style>
      @keyframes float {
        0%, 100% { transform: translateY(0px); }
        50% { transform: translateY(-8px); }
      }
      @keyframes pulse {
        0%, 100% { opacity: 0.4; }
        50% { opacity: 0.9; }
      }
      @keyframes drift {
        0% { transform: translateX(0px); }
        50% { transform: translateX(10px); }
        100% { transform: translateX(0px); }
      }
      @keyframes shimmer {
        0% { opacity: 0.3; }
        50% { opacity: 1; }
        100% { opacity: 0.3; }
      }
      @keyframes glitch {
        0%, 100% { transform: translateX(0); }
        20% { transform: translateX(-2px); }
        40% { transform: translateX(2px); }
        60% { transform: translateX(-1px); }
        80% { transform: translateX(1px); }
      }
      @keyframes dataStream {
        0% { stroke-dashoffset: 0; }
        100% { stroke-dashoffset: -20; }
      }
      .float { animation: float 8s ease-in-out infinite; }
      .pulse { animation: pulse 8s ease-in-out infinite; }
      .drift { animation: drift 8s ease-in-out infinite; }
      .shimmer { animation: shimmer 3s ease-in-out infinite; }
      .glitch { animation: glitch 0.5s ease-in-out infinite; }
      .dataStream { animation: dataStream 2s linear infinite; }
      .name-text { 
        font-family: -apple-system, BlinkMacSystemFont, 'Segoe UI', Helvetica, Arial, sans-serif;
        font-weight: 700;
        font-size: 64px;
        letter-spacing: -2px;
      }
    </style>
  
  <path d="M 585.3716738288 5.235993393726757 C 584.5248664390963 17.672274514314694, 546.1093914434721 23.16982619063837, 533.5209897630119 40.41316945035489 C 520.9325880825518 57.65651271007141, 520.7445163773957 107.7759189219559, 509.8412637460392 108.6960529520259 C 498.93801111468264 109.61618698209588, 484.84601577483306 58.18944144932565, 468.1014739748726 45.93397363077483 C 451.3569321749121 33.67850581222401, 417.797939176786 46.43766863354825, 409.37401294627625 35.163246040720956 C 400.95008671576653 23.888823447893664, 409.2853939506417 -7.316961583281675, 417.5579165918143 -21.71256192618891 C 425.8304392329869 -36.10816226909615, 445.34319950670863 -48.18246706826595, 459.0091487933118 -51.210356016722464 C 472.67509807991496 -54.23824496517898, 486.288164760113 -42.7142020741863, 499.5536123114333 -39.87989561692801 C 512.8190598627536 -37.04558915966972, 524.2988238483396 -41.72383210828185, 538.601834101234 -34.20451727317272 C 552.9048443541284 -26.68520243806359, 586.2184812185037 -7.200287726861179, 585.3716738288 5.235993393726757 Z" fill="#c77dff" opacity="0.14744786268443466" filter="url(#glow)" class="float" />
<path d="M 718.9522673176145 165.08925602210311 C 719.9926015739431 184.47250082569354, 709.6082944459587 213.75360394770905, 695.816428756162 225.85782270523381 C 682.0245630663654 237.96204146275858, 660.4279840121018 226.78660997620415, 636.2010731788349 237.7145685672516 C 611.9741623455681 248.64252715829906, 566.2675414732216 298.55130719057684, 550.454963756561 291.4255742515185 C 534.6423860399004 284.2998413124602, 548.5323776518965 223.06395747591932, 541.3256068788711 194.96017093290158 C 534.1188361058457 166.85638438988383, 500.14049816260206 139.22056023542666, 507.2143391184088 122.80285499341207 C 514.2881800742156 106.38514975139746, 562.2814472258653 101.45040202924913, 583.7686526137118 96.45393948081396 C 605.2558580015582 91.45747693237878, 618.5032763447413 90.64001063565479, 636.1375714454877 92.82407970280099 C 653.771866546234 95.00814876994718, 675.7719739061689 97.51415783047415, 689.5744232181901 109.55835388369117 C 703.3768725302112 121.60254993690819, 717.9119330612859 145.70601121851269, 718.9522673176145 165.08925602210311 Z" fill="#e0aaff" opacity="0.19796633124354607" filter="url(#glow)" class="float" />
<path d="M 636.3290299323137 57.31025372734702 C 632.9728815051863 68.95686335620823, 587.7248189058099 68.52577757954151, 574.9219914141215 83.80165389179422 C 562.1191639224331 99.07753020404692, 566.7390028265368 149.9771479955785, 559.5120649821836 148.9655116008633 C 552.2851271378304 147.9538752061481, 543.9227005798909 89.4885611356956, 531.560364348002 77.73183552350312 C 519.1980281161132 65.97510991131064, 491.28052077682133 84.70686437500866, 485.33804759085024 78.42515792770843 C 479.39557440487914 72.14345148040819, 490.25323282927957 50.517520395891346, 495.9055252321756 40.04159683970168 C 501.5578176350716 29.56567328351202, 510.41753826262766 17.947214042834947, 519.2518020082263 15.569616590570433 C 528.0860657538249 13.192019138305922, 536.2765943776574 26.05061553810519, 548.9111077057673 25.77601212611461 C 561.5456210338773 25.501408714124025, 580.4892282724616 8.6662891850882, 595.0588819768859 13.921996118626936 C 609.6285356813103 19.177703052165672, 639.6851783594411 45.663644098485804, 636.3290299323137 57.31025372734702 Z" fill="#9d4edd" opacity="0.21597009589393731" filter="url(#glow)" class="float" />
<path d="M 123.72948207481903 92.91753127601314 C 117.30691661189208 102.70271875597543, 65.57208495825054 104.13936875924546, 51.8102582436709 109.89049712690337 C 38.04843152909127 115.64162549456128, 47.751648073043086 115.01171476117526, 41.15852178734123 127.42430148196057 C 34.56539550163937 139.83688820274588, 18.987907236509162 185.37400561140515, 12.25150052945976 184.36601745161528 C 5.515093822410356 183.3580292918254, 10.439071875487143 133.12645780845014, 0.7400815450448093 121.37637252322139 C -8.958908785397524 109.62628723799266, -38.47781210260471 122.0072503778663, -45.94244145319424 113.86550574024284 C -53.407070803783775 105.72376110261938, -45.423068033641876 88.15219229096598, -44.04769455849239 72.52590469748063 C -42.6723210833429 56.89961710399527, -47.85659692831444 26.5033343204277, -37.69020060229733 20.10778017933069 C -27.523804276280224 13.712226038233677, 2.1827860358273607 31.33016447644937, 16.950683397610266 34.15257985089856 C 31.71858075939317 36.974995225347755, 38.68468896446303 34.20447369332067, 50.91718356840009 37.04227242602585 C 63.149678172337154 39.880071158731035, 78.21026793682948 41.86682910546509, 90.34565102123264 51.179372247129635 C 102.4810341056358 60.49191538879418, 130.152047537746 83.13234379605085, 123.72948207481903 92.91753127601314 Z" fill="#e0aaff" opacity="0.1328118827836376" filter="url(#glow)" class="float" />
<path d="M 387.65744681569646 74.91419792062055 L 387.65744681569646 74.91419792062055 L 388.0566871539268 74.94912692423796 L 388.4468005056079 75.05338227347372 L 388.81877568343214 75.22537505287728 L 389.16383186461815 75.46247723977169 L 389.4735307003548 75.76105174388861 L 389.7398847715615 76.11649403500994 L 389.9554612288963 76.52328493565761 L 390.1134795021272 76.97505404196393 L 390.2079020221334 77.46465312705746 L 390.2335169673757 77.98423877865898 L 390.1860121250404 78.5253634270774 L 390.0620390444752 79.07907383235066 L 389.85926675619345 79.63601602073224 L 389.57642443272545 80.1865455918465 L 389.2133324769801 80.72084225929906 L 388.77092163852177 81.22902743991185 L 388.2512398771924 81.70128367053628 L 387.65744681569646 82.12797460695685 L 386.99379574696565 82.49976434699695 L 386.2656032871648 82.80773481973466 L 385.47920688989933 83.04349999477046 L 384.6419105603652 83.1993156896899 L 383.7619192286634 83.26818379004892 L 382.8482623581389 83.24394974408077 L 381.91070747627833 83.12139225347701 L 380.9596644213305 82.89630415152045 L 380.0060811963857 82.56556353993129 L 379.0613324131889 82.12719434532237 L 378.137101389583 81.58041555434555 L 377.2452570363712 80.92567849256747 L 376.3977267308147 80.16469162488255 L 375.60636642432286 79.30043247382963 L 374.88282927060374 78.3371463754446 L 374.23843408720245 77.28033191912436 L 373.68403497763467 76.1367130472299 L 373.22989344302385 74.91419792062055 L 372.885554301174 73.62182478677639 L 372.65972670737966 72.26969521641041 L 372.5601715351323 70.86889520128305 L 372.5935963264795 69.4314047291092 L 372.7655589614981 67.96999656982243 L 373.08038112464106 66.49812511989487 L 373.5410725631833 65.02980625682142 L 374.1492670403274 63.57948925323198 L 374.9051707835119 62.161921888436 L 375.80752411797204 60.792009973643815 L 376.85357685759044 59.48467257485041 L 378.0390779005814 58.25469427370011 L 379.3582793476694 57.1165758509688 L 380.80395532630723 56.08438480909932 L 382.36743556733205 55.17160716911363 L 384.03865364151414 54.39100198292385 L 385.8062096239737 53.7544599944127 L 387.65744681569646 53.272867861611644 L 389.57854201465403 52.955979317952014 L 391.5546086955851 52.81229460310102 L 393.56981232857436 52.84894943364222 L 395.6074969433879 53.07161471125591 L 397.6503219302596 53.48440808165212 L 399.6804079595903 54.08981836197 L 401.6794908038766 54.88864374845079 L 403.6290817561076 55.87994460078233 L 405.51063326075484 57.06101147556217 L 407.30570830714237 58.42734894987353 L 408.9961520811232 59.972675638133474 L 410.56426433021204 61.688940662337316 L 411.99297087011826 63.56635668882848 L 413.26599264736535 65.59344949505126 L 414.3680107736176 67.75712387871573 L 415.28482596259585 70.04274557075975 L 416.0035108300504 72.43423866378444 L 416.51255356104167 74.91419792062055 L 416.80199150651106 77.4640151846915 L 416.8635333424187 80.06401897618765 L 416.690668509089 82.69362622703882 L 416.2787627452087 85.33150498449213 L 415.6251386394349 87.95574679894875 L 414.7291402419422 90.54404740768251 L 413.5921809075229 93.07389423318176 L 412.21777368000386 95.5227591340543 L 410.61154367362866 97.86829477855272 L 408.7812220594661 100.0885329565356 L 406.73662142256455 102.16208310570399 L 404.48959241714783 104.06832930273134 L 402.05396181125354 105.78762395981236 L 399.4454521774459 107.30147647243707 L 396.6815836511417 108.5927350849559 L 393.7815583412357 109.64576027672265 L 390.766128137646 110.44658802312054 L 387.65744681569646 110.98308135230207 L 384.4789074865122 111.24506869958121 L 381.25496658445087 111.2244676565455 L 378.0109557157378 110.91539282042731 L 374.7728828156448 110.31424657028049 L 371.5672241736033 109.41979172912906 L 368.4207089854664 108.23320521446145 L 365.36009817875424 106.75811193210365 L 362.4119593292401 105.00059832939712 L 359.60243954489044 102.96920519142655 L 356.95703823531227 100.67489943741279 L 354.5003817109564 98.13102485186974 L 352.2560015659905 95.35323186524006 L 350.2461187917346 92.35938667994267 L 348.4914355437323 89.16946021855007 L 347.0109364449469 85.80539754960616 L 345.82170125039164 82.29096862183832 L 344.9387306250504 78.65160130768344 L 344.37478669767864 74.91419792062057 L 344.1402499485897 71.10693652632288 L 344.2429938705688 67.25905851369649 L 344.6882787094755 63.400644027121444 L 345.47866544588885 59.56237698438879 L 346.6139510224179 55.77530151476233 L 348.0911256542604 52.07057174722223 L 349.9043528845567 48.479196959297326" fill="none" stroke="#c77dff" stroke-width="1" opacity="0.3" class="drift" />
<path d="M 444.9407539136291 80.65858003328415 L 444.9407539136291 80.65858003328415 L 445.3161313381936 80.6914213024771 L 445.68292730347946 80.78944522627863 L 446.03266922803675 80.95115785998286 L 446.35710112587 81.17408825992574 L 446.64828901501147 81.45481672762722 L 446.89872289079426 81.78901394931536 L 447.10141417121383 82.17149063315509 L 447.249987566133 82.59625713940228 L 447.3387663767559 83.05659249641096 L 447.3628502962768 83.54512209891394 L 447.31818485628344 84.05390329520294 L 447.20162174569157 84.57451798761437 L 447.0109693189211 85.09817129687832 L 446.74503270687467 85.61579527612717 L 446.4036430471226 86.11815660532234 L 445.98767545758494 86.59596715208677 L 445.49905548990927 87.03999625088 L 444.9407539136291 87.44118352947143 L 444.3167697989631 87.79075110000892 L 443.6321019836844 88.08031393178742 L 442.8927091267382 88.30198723413761 L 442.1054586671004 88.4484897006089 L 441.278065119651 88.51324149964306 L 440.4190182495043 88.4904559419446 L 439.53750177123294 88.3752238103723 L 438.6433033187452 88.1635894039216 L 437.7467165242487 87.85261742266457 L 436.8584361298657 87.4404499046976 L 435.98944713220686 86.92635251846372 L 435.15090902780355 86.31074961344022 L 434.35403628505844 85.5952475382112 L 433.6099762157022 84.78264584641687 L 432.92968545514515 83.87693612696988 L 432.3238062861736 82.88328831419022 L 431.80254405387296 81.80802445503734 L 431.37554692125457 80.65858003328415 L 431.05178920474407 79.44345307314508 L 430.8394595064729 78.17214136638913 L 430.74585482632983 76.85506828620103 L 430.7772817912205 75.50349776686825 L 430.9389660822937 74.12943913967096 L 431.23497107347333 72.74554262106567 L 431.6681266170375 71.36498634836273 L 432.23996882485807 70.00135594963446 L 432.9506915979951 68.66851771765013 L 433.7991105534499 67.38048653138713 L 434.7826398859243 66.15128973235842 L 435.8972825853794 64.99482821596327 L 437.13763430906704 63.92473603973692 L 438.49690108060923 62.954239880273356 L 439.9669308597512 62.09601968835433 L 441.5382588957728 61.36207189717566 L 443.20016664640286 60.763576531367704 L 444.9407539136291 60.31076954472232 L 446.74702371924127 60.01282168223878 L 448.60497931747443 59.87772511747501 L 450.49973262090447 59.91218905953906 L 452.41562319993216 60.12154545579162 L 454.3363469068774 60.509665836972175 L 456.24509307394123 61.07889026163305 L 458.1246891410758 61.82996921718906 L 459.95775148604463 62.762019226379465 L 461.72684115551675 63.87249279139651 L 463.41462313365975 65.15716318433914 L 465.0040277340583 66.61012446305409 L 466.47841266244535 68.22380695694079 L 467.8217242721529 69.98900832908697 L 469.0186565217238 71.89494018037713 L 470.05480614500476 73.92929001921402 L 470.91682255839055 76.07829827847752 L 471.59255105770586 78.32684992058483 L 472.07116789837823 80.65858003328415 L 472.3433059068348 83.05599268436937 L 472.4011693380912 85.5005921740797 L 472.23863677382 87.97302570075168 L 471.8513509462055 90.45323633947436 L 471.23679447491764 92.92062512616747 L 470.39435061677557 95.3542209416899 L 469.3253482492277 97.73285680325606 L 468.03309043866744 100.03535109446541 L 466.5228660817704 102.24069220142536 L 464.80194425133993 104.3282249714484 L 462.87955102638443 106.27783737321681 L 460.7668287380661 108.0701457135957 L 458.47677771746135 109.68667675678446 L 456.02418078642336 111.11004509646273 L 453.42551088789145 112.32412415110562 L 450.698822405386 113.31420918669852 L 447.86362687180156 114.06717081952121 L 444.9407539136291 114.57159751422054 L 441.95219841707086 114.81792566865013 L 438.9209550358833 114.79855596639919 L 435.8708412859694 114.5079547799209 L 432.8263105875518 113.94273952094447 L 429.81225672111077 113.10174695954922 L 426.85381125712973 111.98608366792594 L 423.976135601132 110.59915788838622 L 421.2042093636821 108.94669227645609 L 418.5626168192343 107.036717127679 L 416.0753332573313 104.87954385976077 L 413.765513054193 102.48771868856474 L 411.65528130182224 99.87595660581476 L 409.76553082515227 97.06105593675142 L 408.11572639536666 94.06179392596549 L 406.7237179093618 90.89880396773871 L 405.6055642515618 87.59443526199131 L 404.77536948523175 84.1725958369296 L 404.24513293650546 80.65858003328417 L 404.02461463610285 77.07888169125283 L 404.12121747186114 73.46099441858807 L 404.53988728054657 69.83320044543214 L 405.2830319708849 66.22434968731966 L 406.3504606223875 62.66363074113077 L 407.739343347492 59.18033562869108 L 409.44419253902356 55.803620178261795 L 411.45686595232354 52.56226199457135 L 413.76659189298067 49.48441801263567 L 416.3600165983868 46.59738365885266 L 419.22127371582326 43.92735565434458 L 422.33207559300484 41.49920048998193 L 425.67182591052676 39.33623057983076 L 429.2177530010606 37.4599900599378 L 432.94506301898235 35.89005214257106 L 436.8271119479717 34.6438298625639 L 440.8355952645106 33.73640196272649 L 444.9407539136291 33.18035555997321 L 449.1115951011335 32.98564711359757 L 453.31612626527544 33.15948308286325 L 457.52160046167324 33.70622151375577 L 461.69477127948073 34.62729563545606 L 465.80215530541756 35.921160377066 L 469.8103000663158 37.583262535651684 L 473.6860553111768 39.60603513917519 L 477.3968454411077 41.978916353844966 L 480.91094086053124 44.68839308638209 L 484.1977260061942 47.71806922927602 L 487.2279618120722 51.04875829295305 L 489.97404038842666 54.658599964566264 L 492.41022973205907 58.52319993054676 L 494.51290634205935 62.615792100828415 L 496.260773690788 66.90742217844516 L 497.6350645930023 71.36715133067644 L 498.6197256263471 75.96227853869266 L 499.20158188312735 80.65858003328412 L 499.37048047547603 85.42056406626159 L 499.119411372703 90.21173912188085 L 498.44460431960334 94.9948935415205 L 497.3456007665411 99.73238441902294 L 495.82529993482376 104.38643352470773 L 493.88997834275693 108.91942793406443" fill="none" stroke="#c77dff" stroke-width="1" opacity="0.3" class="drift" />
<circle cx="131.18037854353287" cy="163.017279178685" r="1.9063927000394316" fill="white" opacity="0.428477267121772"  style="animation-delay: 0.6182183026998123s" />
<circle cx="581.1717896160253" cy="120.90869514414182" r="1.4582959716525719" fill="white" opacity="0.7656568751895518" class="shimmer" style="animation-delay: 4.844265956369801s" />
<circle cx="229.07251087274858" cy="103.3414413271787" r="0.8478025726381332" fill="white" opacity="0.5584873509876807"  style="animation-delay: 2.1362413671179468s" />
<circle cx="527.7088410771095" cy="112.11353039723582" r="0.5828799299025439" fill="white" opacity="0.6272766087361856" class="shimmer" style="animation-delay: 2.735008507529723s" />
<circle cx="352.1016460679581" cy="39.41332836072435" r="1.243170780160748" fill="white" opacity="0.6937744753922188" class="shimmer" style="animation-delay: 1.4561357199911018s" />
<circle cx="261.19020600726975" cy="197.02515352121316" r="1.332285904570111" fill="white" opacity="0.7421040080863792"  style="animation-delay: 0.06807922704058833s" />
<circle cx="794.2257996672975" cy="114.14390646404446" r="1.3774834233273605" fill="white" opacity="0.7698653615114375" class="shimmer" style="animation-delay: 2.1306647776516785s" />
<circle cx="158.88001297426194" cy="92.33224782483127" r="1.3443443474001038" fill="white" opacity="0.6428713194622908"  style="animation-delay: 4.875780507950827s" />
<circle cx="658.4786909075373" cy="96.57815252863968" r="1.9608314003366392" fill="white" opacity="0.44088470753531844"  style="animation-delay: 3.0415965842700343s" />
<circle cx="794.5385150031793" cy="145.10180787466211" r="1.0863464636245552" fill="white" opacity="0.6655942850882588"  style="animation-delay: 1.983446058749354s" />
<circle cx="240.73854225481685" cy="150.47728792717433" r="0.9109476439552707" fill="white" opacity="0.5953355942053606" class="shimmer" style="animation-delay: 2.5245790394933176s" />
<circle cx="75.56047974204904" cy="112.63027277500322" r="1.2063307654181776" fill="white" opacity="0.5879456607195921"  style="animation-delay: 4.433930554303261s" />
<circle cx="149.76638537638962" cy="79.95268504535842" r="0.9600335410028271" fill="white" opacity="0.34309053054176203"  style="animation-delay: 2.1746683182335893s" />
<circle cx="518.9246055995186" cy="193.10470209073463" r="1.9706460245926984" fill="white" opacity="0.6267840547477035" class="shimmer" style="animation-delay: 1.77240136018057s" />
<circle cx="298.6650118572975" cy="187.58265871676403" r="1.9579489245237904" fill="white" opacity="0.6720832941386636"  style="animation-delay: 4.138576911076894s" />
<circle cx="214.07109867444944" cy="158.87750053994202" r="1.0151657780294965" fill="white" opacity="0.3553631338452638"  style="animation-delay: 0.8886374435744859s" />
<circle cx="356.3563597151012" cy="90.6135600567112" r="1.7370156330880446" fill="white" opacity="0.7874672676209729"  style="animation-delay: 2.183880863048866s" />
<circle cx="622.4652593807086" cy="11.125460906273466" r="1.949234588787523" fill="white" opacity="0.608003681163773"  style="animation-delay: 3.0201102148783643s" />
<circle cx="488.5179144344434" cy="24.278810050597688" r="0.8860342073965675" fill="white" opacity="0.6421459188639507"  style="animation-delay: 4.511973478603969s" />
<circle cx="617.8074410592925" cy="100.83030794107448" r="0.815288384511811" fill="white" opacity="0.6978327765150869"  style="animation-delay: 0.061998600554826755s" />
<circle cx="374.4651018692423" cy="110.63046393822873" r="1.4821341693054542" fill="white" opacity="0.6378733001257697"  style="animation-delay: 4.626703330490347s" />
<circle cx="622.8490379892813" cy="15.726977545120713" r="1.9039140173460187" fill="white" opacity="0.6221113906907618"  style="animation-delay: 3.197971090068582s" />
<circle cx="92.16109296894021" cy="167.50217458717293" r="1.1110933371721368" fill="white" opacity="0.46042640227368153"  style="animation-delay: 3.900878301035079s" />
<circle cx="523.0616759443578" cy="119.8751443677768" r="1.0166550396730376" fill="white" opacity="0.38315227160211446" class="shimmer" style="animation-delay: 3.0718710144365335s" />
<circle cx="767.4885043142965" cy="151.05466037299945" r="1.3496180738473469" fill="white" opacity="0.6796407517832519" class="shimmer" style="animation-delay: 1.7347664687523145s" />
<circle cx="708.2280606321328" cy="198.4568421226628" r="0.9952229169160969" fill="white" opacity="0.34223388037252406"  style="animation-delay: 2.0199834487299495s" />
<circle cx="760.0113398510416" cy="67.23687073975549" r="1.9966562424935008" fill="white" opacity="0.333949671847863"  style="animation-delay: 0.44643883591476974s" />
<circle cx="568.0292794462696" cy="13.003604461189155" r="0.794505224890183" fill="white" opacity="0.716899536939313"  style="animation-delay: 2.691235056471749s" />
<circle cx="320.84600704665417" cy="188.00731001226967" r="1.448215106398206" fill="white" opacity="0.6992515955708554"  style="animation-delay: 1.3466612365722241s" />
<circle cx="78.95942399681353" cy="105.07387777619641" r="1.1806276890518705" fill="white" opacity="0.5379471955045165"  style="animation-delay: 3.4718720503448672s" />
<circle cx="795.8921636362661" cy="123.2163625632313" r="1.686765312383612" fill="white" opacity="0.3948208897170424"  style="animation-delay: 0.3521859976765196s" />
<circle cx="361.14524047209716" cy="58.67770114076936" r="0.8083778704776284" fill="white" opacity="0.5775423630756424"  style="animation-delay: 3.0550930005920884s" />
<circle cx="533.7282868956391" cy="55.973683392900675" r="1.837305969559933" fill="white" opacity="0.487984570342112"  style="animation-delay: 2.223604414967432s" />
<circle cx="701.9694273474904" cy="178.45371859860086" r="1.466818982122512" fill="white" opacity="0.5417498371844569" class="shimmer" style="animation-delay: 4.612283980568287s" />
<circle cx="322.1910420705781" cy="147.6639798133176" r="1.7070906302659363" fill="white" opacity="0.3013987451519576" class="shimmer" style="animation-delay: 4.417276458170832s" />
<circle cx="184.6416330093268" cy="7.523079274214339" r="1.0912806994972528" fill="white" opacity="0.7256980795922767"  style="animation-delay: 3.1374671440776947s" />
<circle cx="347.2491347360751" cy="20.205756125751194" r="1.192556918327329" fill="white" opacity="0.5302190049402831" class="shimmer" style="animation-delay: 1.4660523927823288s" />
<circle cx="774.3515763816195" cy="4.095500147166131" r="1.265289027547817" fill="white" opacity="0.655372980732122"  style="animation-delay: 3.6815950199242273s" />
<circle cx="378.7151756642313" cy="193.13607685964024" r="0.7433070518335356" fill="white" opacity="0.32511656685443685"  style="animation-delay: 0.007944239371576733s" />
<circle cx="782.6016392013792" cy="16.512606958072908" r="1.8176010359824084" fill="white" opacity="0.5673213731512932"  style="animation-delay: 4.766480028349422s" />
<circle cx="540.6580753040989" cy="77.25022397097447" r="2.95753436298384" fill="#e0aaff" opacity="0.8" filter="url(#glow)" class="shimmer" style="animation-delay: 2.0023446874934683s" />
<circle cx="188.2186206740208" cy="71.27642164584445" r="1.244792536666695" fill="#7b2cbf" opacity="0.8" filter="url(#glow)" class="shimmer" style="animation-delay: 0.5416114864584167s" />
<circle cx="339.791205703923" cy="187.31788818565587" r="1.7192871267260648" fill="#7b2cbf" opacity="0.8" filter="url(#glow)" class="shimmer" style="animation-delay: 0.002239824060456419s" />
<circle cx="675.6918447715896" cy="103.73590856325094" r="2.966585076681932" fill="#4a0080" opacity="0.8" filter="url(#glow)" class="shimmer" style="animation-delay: 0.3352431918335588s" />
<circle cx="526.9158106614185" cy="152.17252883601358" r="1.5397808992299082" fill="#9d4edd" opacity="0.8" filter="url(#glow)" class="shimmer" style="animation-delay: 1.1672032035472475s" />
<circle cx="461.07868078732946" cy="168.21978457750757" r="1.4261582962559798" fill="#9d4edd" opacity="0.8" filter="url(#glow)" class="shimmer" style="animation-delay: 0.8876334379927835s" />
<circle cx="290.0186146646945" cy="62.50646779768081" r="1.7406860161664701" fill="#7b2cbf" opacity="0.8" filter="url(#glow)" class="shimmer" style="animation-delay: 1.1638338987368553s" />
<circle cx="498.49574073484587" cy="37.25912155568438" r="1.8085438826085674" fill="#e0aaff" opacity="0.8" filter="url(#glow)" class="shimmer" style="animation-delay: 0.9128068012284611s" />
<line x1="484.75899949458665" y1="144.66483172915994" x2="294.1431117576335" y2="64.27302595368735" stroke="#e0aaff" stroke-width="0.5" opacity="0.3" />
<line x1="294.1431117576335" y1="64.27302595368735" x2="182.77242649181065" y2="113.99679219510625" stroke="#e0aaff" stroke-width="0.5" opacity="0.3" />
<line x1="182.77242649181065" y1="113.99679219510625" x2="599.3477186931907" y2="141.93042591944624" stroke="#e0aaff" stroke-width="0.5" opacity="0.3" />

  
    <text x="400" y="120" text-anchor="middle" class="name-text" fill="url(#textGrad)" filter="url(#textGlow)">
      JOEL HOOKS
    </text>
  
</svg>
