<svg xmlns="http://www.w3.org/2000/svg" viewBox="0 0 800 200" width="800" height="200">
  <rect width="800" height="200" fill="#1a0a0a"/>
  
    <defs>
      <linearGradient id="grad1" x1="0%" y1="0%" x2="100%" y2="100%">
        <stop offset="0%" style="stop-color:#ff4500;stop-opacity:0.8" />
        <stop offset="100%" style="stop-color:#ff6b35;stop-opacity:0.8" />
      </linearGradient>
      <linearGradient id="grad2" x1="100%" y1="0%" x2="0%" y2="100%">
        <stop offset="0%" style="stop-color:#f7c59f;stop-opacity:0.7" />
        <stop offset="100%" style="stop-color:#efa48b;stop-opacity:0.7" />
      </linearGradient>
      <linearGradient id="textGrad" x1="0%" y1="0%" x2="100%" y2="0%">
        <stop offset="0%" style="stop-color:#ff4500" />
        <stop offset="25%" style="stop-color:#ff6b35" />
        <stop offset="50%" style="stop-color:#f7c59f" />
        <stop offset="75%" style="stop-color:#efa48b" />
        <stop offset="100%" style="stop-color:#d4a5a5" />
      </linearGradient>
      <filter id="glow">
        <feGaussianBlur stdDeviation="3" result="coloredBlur"/>
        <feMerge>
          <feMergeNode in="coloredBlur"/>
          <feMergeNode in="SourceGraphic"/>
        </feMerge>
      </filter>
      <filter id="textGlow">
        <feGaussianBlur stdDeviation="2" result="coloredBlur"/>
        <feMerge>
          <feMergeNode in="coloredBlur"/>
          <feMergeNode in="SourceGraphic"/>
        </feMerge>
      </filter>
    </defs>
  
  
    <style>
      @keyframes float {
        0%, 100% { transform: translateY(0px); }
        50% { transform: translateY(-8px); }
      }
      @keyframes pulse {
        0%, 100% { opacity: 0.4; }
        50% { opacity: 0.9; }
      }
      @keyframes drift {
        0% { transform: translateX(0px); }
        50% { transform: translateX(10px); }
        100% { transform: translateX(0px); }
      }
      @keyframes shimmer {
        0% { opacity: 0.3; }
        50% { opacity: 1; }
        100% { opacity: 0.3; }
      }
      @keyframes glitch {
        0%, 100% { transform: translateX(0); }
        20% { transform: translateX(-2px); }
        40% { transform: translateX(2px); }
        60% { transform: translateX(-1px); }
        80% { transform: translateX(1px); }
      }
      @keyframes dataStream {
        0% { stroke-dashoffset: 0; }
        100% { stroke-dashoffset: -20; }
      }
      .float { animation: float 8s ease-in-out infinite; }
      .pulse { animation: pulse 8s ease-in-out infinite; }
      .drift { animation: drift 8s ease-in-out infinite; }
      .shimmer { animation: shimmer 3s ease-in-out infinite; }
      .glitch { animation: glitch 0.5s ease-in-out infinite; }
      .dataStream { animation: dataStream 2s linear infinite; }
      .name-text { 
        font-family: -apple-system, BlinkMacSystemFont, 'Segoe UI', Helvetica, Arial, sans-serif;
        font-weight: 700;
        font-size: 64px;
        letter-spacing: -2px;
      }
    </style>
  
  <rect x="0" y="160" width="800" height="50" fill="#ff4500" opacity="0.3" />
<rect x="0" y="170" width="800" height="40" fill="#ff6b35" opacity="0.25" />
<rect x="0" y="180" width="800" height="30" fill="#f7c59f" opacity="0.19999999999999998" />
<rect x="0" y="190" width="800" height="20" fill="#efa48b" opacity="0.14999999999999997" />
<rect x="0" y="200" width="800" height="10" fill="#d4a5a5" opacity="0.09999999999999998" />
<line x1="529.2678734626127" y1="170" x2="529.2678734626127" y2="303.2396741803426" stroke="#ff4500" stroke-width="1.4471352369479087" opacity="0.1847078703235948" class="pulse" />
<line x1="529.2678734626127" y1="170" x2="565.7602635122036" y2="306.1914537546943" stroke="#ff4500" stroke-width="1.386697651832928" opacity="0.29929702444620293" class="pulse" />
<line x1="529.2678734626127" y1="170" x2="575.2415327901073" y2="249.62871376508346" stroke="#ff4500" stroke-width="1.4409837544462847" opacity="0.2780147060841473" class="pulse" />
<line x1="529.2678734626127" y1="170" x2="586.1963078745837" y2="226.92843441197098" stroke="#ff4500" stroke-width="2.0900078802453024" opacity="0.1957360491925748" class="pulse" />
<line x1="529.2678734626127" y1="170" x2="644.437830847518" y2="236.49340589873276" stroke="#ff4500" stroke-width="1.0840784772818415" opacity="0.2617405656738164" class="pulse" />
<line x1="529.2678734626127" y1="170" x2="664.0245315849676" y2="206.10793771860193" stroke="#ff4500" stroke-width="1.8233054874233923" opacity="0.1798981389511071" class="pulse" />
<line x1="529.2678734626127" y1="170" x2="642.0191860824799" y2="170" stroke="#ff4500" stroke-width="1.4916735137106207" opacity="0.2272381763864784" class="pulse" />
<line x1="529.2678734626127" y1="170" x2="620.0714548436338" y2="145.6692536991017" stroke="#ff4500" stroke-width="1.1330832251569154" opacity="0.2735381361161596" class="pulse" />
<line x1="529.2678734626127" y1="170" x2="617.7858774780037" y2="118.8941065535856" stroke="#ff4500" stroke-width="1.0849527174297338" opacity="0.2987834369376323" class="pulse" />
<line x1="529.2678734626127" y1="170" x2="596.5293246061755" y2="102.73854885643722" stroke="#ff4500" stroke-width="2.250344136001481" opacity="0.27091296441012136" class="pulse" />
<line x1="529.2678734626127" y1="170" x2="594.9480705109139" y2="56.238561661206916" stroke="#ff4500" stroke-width="1.3745110770618272" opacity="0.15735528146053168" class="pulse" />
<line x1="529.2678734626127" y1="170" x2="562.4919315566617" y2="46.006127159388996" stroke="#ff4500" stroke-width="1.8850301585683256" opacity="0.25725464903610823" class="pulse" />
<path d="M 773.3157248654759 63.06861296654388 C 773.6846171701334 73.0375205290122, 775.7618410917664 87.91059501101944, 770.0483844167491 94.08201256792121 C 764.3349277417317 100.25343012482298, 747.6856497901109 101.78425320034101, 739.0349848153717 100.09711830795449 C 730.3843198406324 98.40998341556796, 725.4320947094542 90.13062077050382, 718.1443945683135 83.95920321360205 C 710.8566944271728 77.78778565670028, 697.7522064405312 72.47556552090046, 695.3087839685273 63.06861296654389 C 692.8653614965235 53.66166041218731, 696.1961595951497 34.04643692269876, 703.4838597362904 27.517487887462586 C 710.7715598774311 20.988538852226412, 728.309789673286 22.769738870852052, 739.0349848153717 23.894918755126845 C 749.7601799574574 25.02009863940164, 762.1215739137868 27.73961815787517, 767.8350305888042 34.268567193111345 C 773.5484872638216 40.79751622834752, 772.9468325608184 53.09970540407557, 773.3157248654759 63.06861296654388 Z" fill="#f7c59f" opacity="0.1906765557053492" class="drift" />
<path d="M 800.3349786746655 52.30051942318962 C 799.5695416143636 64.30282911874906, 788.5641496693189 79.7170524957713, 779.467860287095 86.01113732896228 C 770.3715709048712 92.30522216215326, 757.3676554595602 89.69148797935526, 745.7572423813224 90.06502842233547 C 734.1468293030846 90.43856886531569, 715.4498134557916 94.54646482003456, 709.8053818176684 88.25237998684358 C 704.1609501795451 81.9582951536526, 712.5267138433418 64.9205342351665, 711.8906525525829 52.30051942318963 C 711.254591261824 39.680504611212754, 700.3445824349918 21.036952727347376, 705.9890140731151 12.532291114982336 C 711.6334457112383 4.027629502617296, 732.7453309520238 1.028385075562177, 745.7572423813224 1.2725497489993955 C 758.769153810621 1.516714422436614, 774.9641932666825 5.492617543240609, 784.0604826489064 13.997279155605646 C 793.1567720311302 22.501940767970684, 801.1004157349674 40.29820972763018, 800.3349786746655 52.30051942318962 Z" fill="#f7c59f" opacity="0.23388302649892892" class="drift" />
<path d="M 569.8593253598619 72.25489282193897 C 570.9392126015547 80.93737706872625, 573.5996383148846 92.44789334323059, 568.4902780128011 101.54200728737896 C 563.3809177107177 110.63612123152734, 548.054816862621 127.73029466004925, 539.2031635473611 126.81957648682922 C 530.3515102321012 125.90885831360919, 521.1187574370654 105.1718121922071, 515.3803581212413 96.07769824805872 C 509.64195880541735 86.98358430391035, 507.07535964590767 82.49841995746934, 504.7727676524172 72.25489282193897 C 502.47017565892673 62.011365686408595, 495.8264068444746 42.853984342323294, 501.5648061602986 34.61653543487649 C 507.30320547612257 26.379086527429685, 529.1288054803034 20.35843831529502, 539.2031635473611 22.830199377258154 C 549.2775216144188 25.301960439221286, 556.9015942605613 41.20965289920847, 562.0109545626448 49.447101806655276 C 567.1203148647282 57.68455071410208, 568.7794381181692 63.572408575151684, 569.8593253598619 72.25489282193897 Z" fill="#f7c59f" opacity="0.11006509037651308" class="drift" />
<path d="M 691.0423549096589 33.711244724466454 C 690.6764963981485 44.0465186471519, 679.6504983323575 52.61502941527335, 671.3904777701922 63.619490957991694 C 663.1304572080269 74.62395250071005, 654.6518143886018 96.53784654001683, 641.482231536667 99.73801398077654 C 628.3126486847322 102.93818142153626, 603.7407582387434 93.82495714526833, 592.3729806585834 82.82049560254998 C 581.0052030784234 71.81603405983164, 571.6857289730156 48.4911579344696, 573.2755660557069 33.71124472446646 C 574.8654031383983 18.931331514463324, 590.5442255745717 3.8156740585498916, 601.9120031547317 -5.858983657468855 C 613.2797807348917 -15.533641373487601, 629.5366272559131 -25.581173418203992, 641.482231536667 -24.336701571646017 C 653.4278358174208 -23.092229725088043, 665.3256082770891 -8.066810294139744, 673.5856288392545 1.6078474218790006 C 681.8456494014198 11.282505137897745, 691.4082134211693 23.375970801781005, 691.0423549096589 33.711244724466454 Z" fill="#f7c59f" opacity="0.1935739241801921" class="drift" />
<path d="M 715.6561863598353 47.736806988504775 L 723.1168132619499 44.00649353744747 L 730.5774401640646 47.736806988504775" fill="none" stroke="#d4a5a5" stroke-width="1.5" opacity="0.4" class="float" style="animation-delay: 2.16433973116078s" />
<path d="M 707.489089624728 82.89093128558468 L 714.5277321364001 79.3716100297486 L 721.5663746480723 82.89093128558468" fill="none" stroke="#d4a5a5" stroke-width="1.5" opacity="0.4" class="float" style="animation-delay: 1.5994800026085523s" />
<path d="M 145.31911622963565 35.507539812218006 L 156.41455933006273 29.959818262004475 L 167.5100024304898 35.507539812218006" fill="none" stroke="#d4a5a5" stroke-width="1.5" opacity="0.4" class="float" style="animation-delay: 1.5845770067084186s" />
<path d="M 283.23241262335483 80.21700412968337 L 294.6124913468386 74.52696476794148 L 305.9925700703224 80.21700412968337" fill="none" stroke="#d4a5a5" stroke-width="1.5" opacity="0.4" class="float" style="animation-delay: 2.8149640361308874s" />
<path d="M 736.1381604961607 81.88446751022597 L 741.7630705654208 79.07201247559594 L 747.3879806346808 81.88446751022597" fill="none" stroke="#d4a5a5" stroke-width="1.5" opacity="0.4" class="float" style="animation-delay: 0.6220196035249848s" />

  
    <text x="400" y="120" text-anchor="middle" class="name-text" fill="url(#textGrad)" filter="url(#textGlow)">
      JOEL HOOKS
    </text>
  
</svg>
