<svg xmlns="http://www.w3.org/2000/svg" viewBox="0 0 800 200" width="800" height="200">
  <rect width="800" height="200" fill="#0d1117"/>
  
    <defs>
      <linearGradient id="grad1" x1="0%" y1="0%" x2="100%" y2="100%">
        <stop offset="0%" style="stop-color:#e17055;stop-opacity:0.8" />
        <stop offset="100%" style="stop-color:#fdcb6e;stop-opacity:0.8" />
      </linearGradient>
      <linearGradient id="grad2" x1="100%" y1="0%" x2="0%" y2="100%">
        <stop offset="0%" style="stop-color:#00b894;stop-opacity:0.7" />
        <stop offset="100%" style="stop-color:#6c5ce7;stop-opacity:0.7" />
      </linearGradient>
      <linearGradient id="grad3" x1="0%" y1="100%" x2="100%" y2="0%">
        <stop offset="0%" style="stop-color:#6c5ce7;stop-opacity:0.6" />
        <stop offset="100%" style="stop-color:#fd79a8;stop-opacity:0.6" />
      </linearGradient>
      <filter id="glow">
        <feGaussianBlur stdDeviation="3" result="coloredBlur"/>
        <feMerge>
          <feMergeNode in="coloredBlur"/>
          <feMergeNode in="SourceGraphic"/>
        </feMerge>
      </filter>
    </defs>
  
  <path d="M 254.90599507354128 174.5772055877796 C 260.62514041712586 201.16212500203184, 251.76492424220137 262.1821759398447, 231.24215504484457 275.8467081090865 C 210.71938584748776 289.5112402783283, 157.23795518784502 267.6596025509921, 131.76937988940045 256.56439860323053 C 106.3008045909559 245.46919465546898, 89.59487864316125 229.81835442674802, 78.43070325417723 209.27548442251717 C 67.26652786519321 188.73261441828632, 58.27066507026569 163.16520580004303, 64.78432755549636 133.3071785778455 C 71.29799004072703 103.44915135564794, 95.48885226092109 32.95565224837732, 117.51267816556123 30.1273210893319 C 139.53650407020137 27.29898993028648, 174.02839683200716 92.26221087383169, 196.92728298333716 116.33719162357298 C 219.82616913466717 140.41217237331426, 249.18684972995672 147.99228617352733, 254.90599507354128 174.5772055877796 Z" fill="url(#grad3)" opacity="0.5518201961354938" />
<path d="M 116.57502514980231 65.66507695553744 C 117.30501777155688 81.26826053646936, 84.5397041314866 105.27507112614359, 68.33273420621157 114.66460556359685 C 52.12576428093654 124.05414000105011, 35.017678903638924 122.65098647745674, 19.33320559815215 122.00228358025704 C 3.6487322926653754 121.35358068305734, -13.327231929099893 120.16192261785196, -25.774105626709094 110.77238818039869 C -38.22097932431829 101.38285374294543, -53.76373858849251 82.28514536283508, -55.34803658750306 65.66507695553746 C -56.93233458651361 49.045008548239835, -47.72676731838159 28.993914326154606, -35.27989362077239 11.051977736612926 C -22.833019923163192 -6.889958852928753, 2.794426915409364 -43.652130305278035, 19.333205598152126 -41.98654258171263 C 35.87198428089489 -40.32095485814722, 47.745808550409144 3.103567488463714, 63.95277847568418 21.045504078005393 C 80.15974840095922 38.98744066754708, 115.84503252804775 50.06189337460553, 116.57502514980231 65.66507695553744 Z" fill="url(#grad3)" opacity="0.35178612565696576" />
<path d="M 438.30236768351926 78.50771280936794 C 431.082491837798 102.28065387590496, 388.72206497852466 114.58574384983022, 368.8741653050363 128.16690847181525 C 349.0262656315479 141.7480730938003, 341.4080314591637 154.3547039455192, 319.214969642589 159.99470054127812 C 297.0219078260143 165.63469713703705, 245.6321838128976 175.58805266835387, 235.7157944055881 162.00688804636883 C 225.7994049982786 148.4257234243838, 256.29507697988026 102.91921500284994, 259.7166331987319 78.50771280936796 C 263.1381894175836 54.09621061588598, 246.32874231138845 28.369091143860395, 256.24513171869796 15.537874885476938 C 266.1615211260075 2.7066586270934803, 293.2235881991447 6.5218507278811755, 319.214969642589 1.5204152590672066 C 345.2063510860333 -3.481020209746762, 392.3455207058754 -27.30195418579033, 412.1934203793638 -14.470737927406873 C 432.04132005285214 -1.6395216690234165, 445.52224352924054 54.73477174283093, 438.30236768351926 78.50771280936794 Z" fill="url(#grad2)" opacity="0.5087773364244524" />
<path d="M 668.0269739635002 60.16678851279793 C 665.0863646302596 71.07219238590332, 668.986017298811 75.52543376399692, 664.3989492419544 84.06117213239243 C 659.8118811850977 92.59691050078794, 650.3307808160084 109.51979806938738, 640.5045656223599 111.381218723171 C 630.6783504287114 113.24263937695463, 612.2338411587526 103.76543442348974, 605.4416580800636 95.22969605509422 C 598.6494750013745 86.69395768669871, 598.9316716853571 71.03462889536178, 599.7514671502254 60.166788512797936 C 600.5712626150937 49.29894813023409, 603.5682477905841 36.52265032651424, 610.3604308692732 30.02265375971114 C 617.1526139479622 23.52265719290804, 628.5575365603391 23.06579325630451, 640.5045656223599 21.166809111979326 C 652.4515946843807 19.267824967654143, 677.4555371845411 12.128752326956945, 682.0426052413977 18.628748893760047 C 686.6296732982544 25.12874546056315, 670.9675832967407 49.26138463969253, 668.0269739635002 60.16678851279793 Z" fill="url(#grad2)" opacity="0.5365769896893101" />
<path d="M 524.1297655513649 15.163517796126946 C 519.5441751674464 38.79247353803173, 510.5440743504016 53.86508262576157, 496.4009168954172 72.29361387008575 C 482.2577594404328 90.72214511440993, 463.31140277969 120.73748866182665, 439.2708208214584 125.73470526207197 C 415.2302388632268 130.73192186231728, 363.09453782347134 120.70544471588184, 352.1574251460277 102.27691347155766 C 341.2203124685841 83.84838222723349, 365.77496640655215 36.3281380043592, 373.6481447567968 15.163517796126955 C 381.52132310704144 -6.0011024121052845, 388.45938257005207 -14.262204925254748, 399.3964952474957 -24.710807777835768 C 410.3336079249393 -35.15941063041679, 418.517826829553 -40.0665471854413, 439.2708208214584 -47.528099319359164 C 460.02381481336386 -54.98965145327703, 509.77130174394387 -79.92872343392395, 523.9144591989283 -69.48012058134293 C 538.0576166539126 -59.03151772876191, 528.7153559352835 -8.465437945777833, 524.1297655513649 15.163517796126946 Z" fill="url(#grad2)" opacity="0.526647944277564" />
<path d="M -50 115.2721130441703 C -43.333333333333336 141.20358006973092, -36.666666666666664 103.09905343720901, -30 117.5037736022307 C -23.333333333333332 112.7443064082654, -16.666666666666664 92.41851597963131, -10 105.2402259818565 C -3.333333333333333 87.42157665604768, 3.333333333333334 133.39373462043775, 10 120.66605327264188 C 16.666666666666668 119.55303734106005, 23.333333333333336 122.52320003528193, 30 119.887397463835 C 36.666666666666664 144.58530022797365, 43.333333333333336 112.82853862533278, 50 105.83896183084951 C 56.666666666666664 68.7017691635761, 63.333333333333336 108.07504417428115, 70 108.30036923220538 C 76.66666666666667 139.06656332811082, 83.33333333333333 94.42754082906532, 90 123.60280540547787 C 96.66666666666667 108.7937229884834, 103.33333333333333 97.89301378334832, 110 116.89672371606548 C 116.66666666666667 126.27658487279126, 123.33333333333333 106.79377205711855, 130 110.76726867912558 C 136.66666666666666 130.15085063329053, 143.33333333333334 146.84794783968644, 150 106.87456084272202 C 156.66666666666666 144.34108191252085, 163.33333333333334 119.18770695855241, 170 90.36222486381864 C 176.66666666666666 58.52111620186556, 183.33333333333334 114.32953161192108, 190 78.29784875212005 C 196.66666666666666 45.21030305293186, 203.33333333333334 73.72542859745701, 210 83.90327550677024 C 216.66666666666666 74.21961283216238, 223.33333333333334 119.64904589720229, 230 88.3288075267453 C 236.66666666666666 94.00855694895515, 243.33333333333334 78.63517575687308, 250 81.96134071550391 C 256.6666666666667 72.47617439851865, 263.3333333333333 65.95238213384334, 270 70.7529774566595 C 276.6666666666667 85.96103174000629, 283.3333333333333 77.84783598975233, 290 51.84730596571217 C 296.6666666666667 62.94981439399221, 303.3333333333333 45.605712253915264, 310 66.74946041936386 C 316.6666666666667 41.87029673510821, 323.3333333333333 97.14681102421804, 330 55.906620267353496 C 336.6666666666667 25.914307373177767, 343.3333333333333 32.87237020494457, 350 68.5376401643262 C 356.6666666666667 33.49973192046969, 363.3333333333333 83.3200294022347, 370 84.58493892267529 C 376.6666666666667 109.23071279824443, 383.3333333333333 86.75029943236541, 390 99.90769225425566 C 396.6666666666667 72.02171518658912, 403.3333333333333 101.3938069291093, 410 110.82026345912993 C 416.6666666666667 128.99835599881436, 423.3333333333333 122.59803400477942, 430 110.53396571851165 C 436.6666666666667 74.66451344416042, 443.3333333333333 117.38767950351789, 450 123.87944450994507 C 456.6666666666667 101.57827775414012, 463.3333333333333 136.46205671155178, 470 115.40775288188496 C 476.6666666666667 121.32865973819702, 483.3333333333333 138.6998238747209, 490 131.28586719178196 C 496.6666666666667 169.26516188329217, 503.3333333333333 152.65370727032104, 510 124.09897014417895 C 516.6666666666666 86.81427959504003, 523.3333333333334 158.3749380041522, 530 136.1773530227483 C 536.6666666666666 113.27150358017428, 543.3333333333334 125.70504888290654, 550 139.47234137581893 C 556.6666666666666 113.55229126868431, 563.3333333333334 163.1122195130726, 570 134.53346341756617 C 576.6666666666666 162.5520042443666, 583.3333333333334 154.273395635068, 590 134.72324022862367 C 596.6666666666666 138.04768774081367, 603.3333333333334 142.4021401069868, 610 131.18414656559494 C 616.6666666666666 166.49991636991604, 623.3333333333334 158.52212938677553, 630 136.95771011153988 C 636.6666666666666 121.68187417871316, 643.3333333333334 143.41764749448518, 650 130.2916344303959 C 656.6666666666666 162.720118913805, 663.3333333333334 103.35511161344536, 670 138.08836617979279 C 676.6666666666666 172.55253441611302, 683.3333333333334 127.72437790888972, 690 134.66930100846255 C 696.6666666666666 102.28445495493122, 703.3333333333334 119.00448550770979, 710 124.83461301335942 C 716.6666666666666 140.7192577348591, 723.3333333333334 110.40995147425583, 730 132.6789326976503 C 736.6666666666666 145.0335822880253, 743.3333333333334 110.68222213238204, 750 146.24035128942836 C 756.6666666666666 128.60922626409013, 763.3333333333334 139.23679146846163, 770 155.89078582540947 C 776.6666666666666 129.98580088914676, 783.3333333333334 152.5136198237901, 790 146.51044310965187 C 796.6666666666666 150.69450128528888, 803.3333333333334 122.82329337612339, 810 162.62421182528772 C 816.6666666666666 172.63933028838727, 823.3333333333334 198.99327638369346, 830 151.12215221172193 C 836.6666666666666 163.69677720459697, 843.3333333333334 153.3564687799104, 850 162.7655814917991" fill="none" stroke="#00b894" stroke-width="3.079270964584375" opacity="0.4214192762834639" stroke-linecap="round" filter="url(#glow)" />
<path d="M -50 142.2762202841148 C -43.333333333333336 135.16240296266028, -36.666666666666664 144.18427827429585, -30 154.21501755085288 C -23.333333333333332 124.96424885682565, -16.666666666666664 155.5111649032117, -10 162.07386331797545 C -3.333333333333333 167.41445811580945, 3.333333333333334 160.18901787440726, 10 171.15774641183984 C 16.666666666666668 163.09857571188104, 23.333333333333336 146.8546292104561, 30 173.33136089580503 C 36.666666666666664 199.8346573415986, 43.333333333333336 187.39336268900547, 50 166.78087805020985 C 56.666666666666664 158.92774290869136, 63.333333333333336 185.981059010499, 70 159.6145949997456 C 76.66666666666667 135.59393423539325, 83.33333333333333 155.68558112765618, 90 160.07504016522628 C 96.66666666666667 135.4918206889132, 103.33333333333333 175.3185118846065, 110 148.42448468698305 C 116.66666666666667 156.82433064430415, 123.33333333333333 162.94990103297124, 130 137.50158359586925 C 136.66666666666666 132.5517781001413, 143.33333333333334 124.45018175837566, 150 145.83059587958613 C 156.66666666666666 129.79006965332132, 163.33333333333334 157.7849592902089, 170 149.02764999812774 C 176.66666666666666 161.08540992914243, 183.33333333333334 170.39408239048106, 190 151.79650681290252 C 196.66666666666666 137.88438139376476, 203.33333333333334 144.4715280749895, 210 162.76995132344163 C 216.66666666666666 155.49923894699646, 223.33333333333334 136.8395055250628, 230 153.58739183818983 C 236.66666666666666 174.4186295512156, 243.33333333333334 182.95585961028874, 250 167.77610912521556 C 256.6666666666667 194.49358979742118, 263.3333333333333 168.67862487423753, 270 181.4639225465526 C 276.6666666666667 197.79244481819455, 283.3333333333333 190.22262384057174, 290 172.88133461916095 C 296.6666666666667 189.40195497778797, 303.3333333333333 186.42231315104112, 310 179.2803643190119 C 316.6666666666667 200.20293281621764, 323.3333333333333 175.85760430477634, 330 167.68858599205822 C 336.6666666666667 162.49927077236904, 343.3333333333333 156.6285557022807, 350 160.35821418174143 C 356.6666666666667 149.0811365136771, 363.3333333333333 186.10525077856624, 370 162.30378267890597 C 376.6666666666667 175.52396526930605, 383.3333333333333 173.6809762274608, 390 173.77590283667428 C 396.6666666666667 195.38493023260318, 403.3333333333333 200.82815695589673, 410 187.0946701287646 C 416.6666666666667 206.24345613627932, 423.3333333333333 169.83386672667578, 430 184.35165656131963 C 436.6666666666667 192.51829761157148, 443.3333333333333 173.5811657993814, 450 176.41287949071383 C 456.6666666666667 164.99793767270614, 463.3333333333333 161.25442762901454, 470 164.62547675959803 C 476.6666666666667 138.66728754938086, 483.3333333333333 176.9352238938617, 490 170.32290997679976 C 496.6666666666667 197.4290796540946, 503.3333333333333 144.07320579641112, 510 166.09454599906448 C 516.6666666666666 151.32529274222375, 523.3333333333334 162.30109959413826, 530 179.15377129746318 C 536.6666666666666 151.66273028939082, 543.3333333333334 159.0525423103939, 550 187.68982786250854 C 556.6666666666666 180.00120866620742, 563.3333333333334 206.81624560503377, 570 195.93569262618684 C 576.6666666666666 179.4166757744841, 583.3333333333334 217.76115397592218, 590 182.91820155873586 C 596.6666666666666 204.1679917928834, 603.3333333333334 211.4122485535404, 610 187.3401895132488 C 616.6666666666666 181.55995653072856, 623.3333333333334 213.51631987115428, 630 195.08203130517558 C 636.6666666666666 178.9612356577109, 643.3333333333334 222.08180433136374, 650 188.04767405851302 C 656.6666666666666 179.9820756358288, 663.3333333333334 197.15587679528505, 670 189.82354223056592 C 676.6666666666666 181.3358482323973, 683.3333333333334 194.85019358741303, 690 184.1746150317856 C 696.6666666666666 200.25598119718268, 703.3333333333334 200.48349286815542, 710 170.7845648401026 C 716.6666666666666 152.03936727977975, 723.3333333333334 160.77129706910063, 730 185.02731246143009 C 736.6666666666666 199.6043490701049, 743.3333333333334 164.14180430563886, 750 181.02565236959344 C 756.6666666666666 199.2913918735452, 763.3333333333334 207.09618660013535, 770 195.33896411093394 C 776.6666666666666 188.3173023198234, 783.3333333333334 213.54950215154253, 790 188.98538488769006 C 796.6666666666666 209.38520460672834, 803.3333333333334 166.79934046618285, 810 193.34448969922707 C 816.6666666666666 213.79624511939477, 823.3333333333334 205.72294498394825, 830 180.01407790186926 C 836.6666666666666 151.23023352392192, 843.3333333333334 170.08362155494942, 850 170.8019756207091" fill="none" stroke="#fdcb6e" stroke-width="1.6291318387370575" opacity="0.6304558568803543" stroke-linecap="round" filter="url(#glow)" />
<path d="M -50 83.91303543494324 C -43.333333333333336 118.89567580254133, -36.666666666666664 64.16081264411419, -30 95.49716655592592 C -23.333333333333332 122.80962838823498, -16.666666666666664 121.71631181601441, -10 86.89268604808021 C -3.333333333333333 104.91905270695308, 3.333333333333334 70.45032018407207, 10 89.34331619791729 C 16.666666666666668 108.82577011698065, 23.333333333333336 108.65579214743292, 30 79.54385568097963 C 36.666666666666664 65.9997646636783, 43.333333333333336 61.21890233221471, 50 88.03551858207044 C 56.666666666666664 60.13252642293979, 63.333333333333336 118.03439063395165, 70 104.28401581427374 C 76.66666666666667 104.2551057655229, 83.33333333333333 101.47552378547852, 90 115.8134715341113 C 96.66666666666667 88.09224656392728, 103.33333333333333 138.31281877220295, 110 100.97418301532566 C 116.66666666666667 91.20106153127116, 123.33333333333333 94.71259612656795, 130 88.41555518092139 C 136.66666666666666 78.46183645787488, 143.33333333333334 88.55756190291345, 150 99.11651165731594 C 156.66666666666666 133.95146777754786, 163.33333333333334 98.33476069646613, 170 107.628117599509 C 176.66666666666666 142.1802573152135, 183.33333333333334 142.4769124811939, 190 95.90622504020965 C 196.66666666666666 112.03060459581408, 203.33333333333334 110.40833804330777, 210 91.27244001208534 C 216.66666666666666 88.42764718343349, 223.33333333333334 120.9033153236619, 230 73.5637930136231 C 236.66666666666666 59.8343381350835, 243.33333333333334 95.92181362160139, 250 74.56933563107718 C 256.6666666666667 53.696799383385105, 263.3333333333333 94.71076261471367, 270 62.48171180246506 C 276.6666666666667 42.98822476017138, 283.3333333333333 82.09795342217402, 290 50.121057668434545 C 296.6666666666667 18.492776901437928, 303.3333333333333 79.13673318013544, 310 65.46068548808574 C 316.6666666666667 53.38461508364122, 323.3333333333333 39.403528388141716, 330 53.48258813699312 C 336.6666666666667 26.912261887961066, 343.3333333333333 47.11887171106444, 350 35.31069583656118 C 356.6666666666667 34.944133681248665, 363.3333333333333 12.722076231252103, 370 41.84110017859879 C 376.6666666666667 18.429074496408354, 383.3333333333333 34.65775828251256, 390 30.61996512302906 C 396.6666666666667 22.908683739657764, 403.3333333333333 40.61932189950823, 410 39.07642581560249 C 416.6666666666667 62.155927808694216, 423.3333333333333 2.927372463519106, 430 28.38879920787216 C 436.6666666666667 42.841831787448534, 443.3333333333333 18.244311763528106, 450 45.02923475513453 C 456.6666666666667 37.20887279683958, 463.3333333333333 33.69002130196241, 470 49.28320136276999 C 476.6666666666667 53.42984909335626, 483.3333333333333 39.53616751589766, 490 60.692820889488466 C 496.6666666666667 71.09200608631323, 503.3333333333333 48.41341617607019, 510 53.155162625774786 C 516.6666666666666 57.56010549855189, 523.3333333333334 49.80183557216171, 530 47.6781499803865 C 536.6666666666666 18.840955201973742, 543.3333333333334 35.36350745409061, 550 55.46023046273738 C 556.6666666666666 55.63942429822829, 563.3333333333334 69.77564961902814, 570 64.51876355554568 C 576.6666666666666 45.478872880520655, 583.3333333333334 73.35717676748547, 590 50.039890151311624 C 596.6666666666666 69.58843613510282, 603.3333333333334 80.10712603226582, 610 66.8106547902101 C 616.6666666666666 90.18938645929342, 623.3333333333334 97.61063076735206, 630 65.60312682015307 C 636.6666666666666 93.05480746683348, 643.3333333333334 97.38939526793803, 650 77.37473484599296 C 656.6666666666666 44.212107829155826, 663.3333333333334 71.3755407518933, 670 77.13275411218521 C 676.6666666666666 78.68854024865081, 683.3333333333334 100.11872264901038, 690 85.78726207430036 C 696.6666666666666 91.28476675054098, 703.3333333333334 111.9434861151644, 710 91.4477998581624 C 716.6666666666666 75.27243936946047, 723.3333333333334 92.49436549560684, 730 85.2383143642068 C 736.6666666666666 120.01723658889725, 743.3333333333334 65.79267237474613, 750 88.55151015108495 C 756.6666666666666 65.12097893540879, 763.3333333333334 74.1458291533797, 770 83.85720090190424 C 776.6666666666666 76.42152578330084, 783.3333333333334 60.293674056761944, 790 83.93505697747605 C 796.6666666666666 68.90300262029311, 803.3333333333334 60.43730961501498, 810 65.96397716562757 C 816.6666666666666 98.89116579357888, 823.3333333333334 74.98736283850721, 830 50.38477815066233 C 836.6666666666666 55.319237785660555, 843.3333333333334 47.02607770891395, 850 48.472140239929104" fill="none" stroke="#fdcb6e" stroke-width="2.7977379602421415" opacity="0.7751719562388137" stroke-linecap="round" filter="url(#glow)" />
<path d="M -50 70.3892560242911 C -43.333333333333336 95.13457508061353, -36.666666666666664 101.14100810648917, -30 79.86988503659614 C -23.333333333333332 65.38146227881776, -16.666666666666664 56.46661481930561, -10 92.60626333533057 C -3.333333333333333 105.2905748258776, 3.333333333333334 114.52991686578672, 10 95.58585787502284 C 16.666666666666668 90.52931130184218, 23.333333333333336 123.78848433067863, 30 83.32276392422122 C 36.666666666666664 107.30840188679173, 43.333333333333336 70.06489058726174, 50 82.68683711981099 C 56.666666666666664 114.97705073509451, 63.333333333333336 109.34719149196135, 70 90.45128461408575 C 76.66666666666667 82.91070026832395, 83.33333333333333 57.16044130244828, 90 75.07106759376629 C 96.66666666666667 68.33589754034722, 103.33333333333333 60.36424595421223, 110 72.6506874877816 C 116.66666666666667 95.20048156067756, 123.33333333333333 60.81834063220054, 130 72.72464228302704 C 136.66666666666666 105.63362558670639, 143.33333333333334 72.99009748267044, 150 78.00462974293677 C 156.66666666666666 44.5585737251018, 163.33333333333334 112.20424037124057, 170 86.44811334623688 C 176.66666666666666 115.98393175658043, 183.33333333333334 90.76853551095505, 190 94.47706871679326 C 196.66666666666666 110.24255736718519, 203.33333333333334 77.96083548613697, 210 94.2993974211256 C 216.66666666666666 118.00410535994993, 223.33333333333334 109.59989425884842, 230 80.21452809619669 C 236.66666666666666 112.50777507042082, 243.33333333333334 52.983052155421106, 250 73.07390893805342 C 256.6666666666667 107.32238758017404, 263.3333333333333 101.96396045949251, 270 62.950844332653034 C 276.6666666666667 81.13679248107623, 283.3333333333333 28.781049735206416, 290 63.3480475466382 C 296.6666666666667 40.754613975028235, 303.3333333333333 80.15835377301673, 310 59.180880433007964 C 316.6666666666667 44.163156583031515, 323.3333333333333 43.21109804891213, 330 73.18922729091199 C 336.6666666666667 85.28405735389057, 343.3333333333333 88.22035189214171, 350 77.91807757562157 C 356.6666666666667 48.65007617301114, 363.3333333333333 87.1909251237077, 370 74.26677863984108 C 376.6666666666667 48.6532675312491, 383.3333333333333 42.637548947188556, 390 83.46692244484385 C 396.6666666666667 88.74277225381023, 403.3333333333333 91.26582911207055, 410 84.05037409430128 C 416.6666666666667 66.02671049480692, 423.3333333333333 82.91891771232088, 430 70.1124451319137 C 436.6666666666667 89.5884820097106, 443.3333333333333 50.76124820663691, 450 65.80805096648876 C 456.6666666666667 66.52965305651787, 463.3333333333333 52.521643797910315, 470 64.59056190146543 C 476.6666666666667 89.34677328553073, 483.3333333333333 84.7376840469194, 490 55.22456535385854 C 496.6666666666667 86.70432056336185, 503.3333333333333 64.44877211075473, 510 68.24320590988538 C 516.6666666666666 90.87949839401531, 523.3333333333334 82.09896052831485, 530 76.60905574009216 C 536.6666666666666 57.72876773883768, 543.3333333333334 54.31118631327264, 550 78.17299922775797 C 556.6666666666666 94.3193430772788, 563.3333333333334 97.36593460907778, 570 70.74067606988035 C 576.6666666666666 89.7365276797052, 583.3333333333334 99.1631458415303, 590 57.739223773187135 C 596.6666666666666 29.20885537505651, 603.3333333333334 41.63126635029712, 610 41.14103996287758 C 616.6666666666666 56.482996860279265, 623.3333333333334 34.969707701591894, 630 30.892408625713102 C 636.6666666666666 3.9521488354448984, 643.3333333333334 30.92108638018688, 650 27.835041854323816 C 656.6666666666666 18.970952294002032, 663.3333333333334 19.383558790078276, 670 44.011595410572994 C 676.6666666666666 60.598146211569315, 683.3333333333334 60.63225937556333, 690 33.84158247699236 C 696.6666666666666 10.503561669164998, 703.3333333333334 12.131193082518699, 710 35.30600554321481 C 716.6666666666666 68.02955978741153, 723.3333333333334 62.709700767040594, 730 27.90031135548663 C 736.6666666666666 1.9864077318485656, 743.3333333333334 51.04689410313871, 750 41.2768083721783 C 756.6666666666666 68.13932601284421, 763.3333333333334 35.61207804541499, 770 38.64333766309205 C 776.6666666666666 12.533056628206865, 783.3333333333334 34.78606307184682, 790 52.74403300425891 C 796.6666666666666 77.71502348042944, 803.3333333333334 53.86499439085607, 810 68.85919052631272 C 816.6666666666666 86.85958160075845, 823.3333333333334 35.40656007573099, 830 75.44286189493215 C 836.6666666666666 91.92342351203826, 843.3333333333334 71.50009124327448, 850 74.39575701085114" fill="none" stroke="#fd79a8" stroke-width="1.320249895640368" opacity="0.4960833478608752" stroke-linecap="round" filter="url(#glow)" />
<path d="M -50 119.84111261183543 C -43.333333333333336 79.394769440427, -36.666666666666664 144.07445385651846, -30 134.36919587085342 C -23.333333333333332 99.6861983205099, -16.666666666666664 113.10758077193549, -10 137.76937426881977 C -3.333333333333333 174.1938777162586, 3.333333333333334 175.66391779189604, 10 122.61892311052387 C 16.666666666666668 119.40401419641283, 23.333333333333336 96.12965885430489, 30 113.06415553264947 C 36.666666666666664 71.30253000665525, 43.333333333333336 86.69763116341205, 50 133.91883809932023 C 56.666666666666664 91.9315697582087, 63.333333333333336 171.47125476911572, 70 116.57439877999794 C 76.66666666666667 122.76460971487568, 83.33333333333333 89.92396618710978, 90 108.54402137366434 C 96.66666666666667 67.78555534944621, 103.33333333333333 149.77962723938793, 110 111.04326793009771 C 116.66666666666667 122.64886448575172, 123.33333333333333 69.96156374689443, 130 103.60361263904029 C 136.66666666666666 140.20626310000546, 143.33333333333334 101.13723150683165, 150 124.3217389955856 C 156.66666666666666 110.48074788956616, 163.33333333333334 161.42122389104821, 170 105.25911812835284 C 176.66666666666666 116.01621342421363, 183.33333333333334 70.18222736507676, 190 88.3107067717184 C 196.66666666666666 55.26815582763278, 203.33333333333334 68.29862032923157, 210 87.9597989048733 C 216.66666666666666 127.13190170897833, 223.33333333333334 84.05119989692274, 230 93.03906028584073 C 236.66666666666666 67.91140071286574, 243.33333333333334 87.00611374160928, 250 108.64511007902988 C 256.6666666666667 133.65553937155374, 263.3333333333333 124.06932393344499, 270 119.42891483507923 C 276.6666666666667 88.5759907103148, 283.3333333333333 99.71951005642676, 290 104.35626314609715 C 296.6666666666667 120.55910292693252, 303.3333333333333 76.0784884237191, 310 125.40526134948786 C 316.6666666666667 97.50673179832468, 323.3333333333333 94.00161300806091, 330 120.77540232250831 C 336.6666666666667 130.48255225126513, 343.3333333333333 155.79622770323405, 350 125.9801667731631 C 356.6666666666667 132.51600611063245, 363.3333333333333 86.26102073713645, 370 109.89817386711485 C 376.6666666666667 131.5191224201013, 383.3333333333333 115.25329750367156, 390 107.42363117680718 C 396.6666666666667 107.83607989404763, 403.3333333333333 79.28844048053305, 410 100.06788685224149 C 416.6666666666667 100.77481179495831, 423.3333333333333 128.9575290365426, 430 103.51644083679355 C 436.6666666666667 88.54416211772276, 443.3333333333333 88.24625224829795, 450 82.11038666328253 C 456.6666666666667 107.18691120818785, 463.3333333333333 51.340654539929126, 470 104.35113980915374 C 476.6666666666667 68.42562298323104, 483.3333333333333 150.4098614677024, 490 84.63643963079055 C 496.6666666666667 56.29333259447891, 503.3333333333333 38.82220886573135, 510 92.8865976044753 C 516.6666666666666 90.7344112753971, 523.3333333333334 99.50686962271874, 530 113.83945941375566 C 536.6666666666666 74.40483400951408, 543.3333333333334 120.71548709686735, 550 96.53126963385768 C 556.6666666666666 111.29312715689073, 563.3333333333334 64.67850529419997, 570 109.9154826653268 C 576.6666666666666 111.77373951782155, 583.3333333333334 81.0539048031401, 590 90.07965994269262 C 596.6666666666666 115.02404387117119, 603.3333333333334 121.10654323286776, 610 103.72431541822803 C 616.6666666666666 128.0925733235213, 623.3333333333334 143.36655389213362, 630 125.67010543557572 C 636.6666666666666 132.49691022547057, 643.3333333333334 143.41671768314845, 650 141.9566771153553 C 656.6666666666666 97.12521496574996, 663.3333333333334 124.19525862153156, 670 134.8397840534686 C 676.6666666666666 152.66378640797916, 683.3333333333334 117.79848550397215, 690 139.88264779318814 C 696.6666666666666 135.62472449062136, 703.3333333333334 158.23911001813653, 710 137.6823447112227 C 716.6666666666666 167.04234270389304, 723.3333333333334 160.8426253775117, 730 124.60134380468496 C 736.6666666666666 168.88417137573126, 743.3333333333334 132.38293073149788, 750 144.18155699130244 C 756.6666666666666 98.86159248241594, 763.3333333333334 99.99854186823481, 770 153.35129424364754 C 776.6666666666666 164.72018007398287, 783.3333333333334 114.8466733625183, 790 150.54050960636792 C 796.6666666666666 147.74659122065952, 803.3333333333334 125.10902210318908, 810 141.82662916123775 C 816.6666666666666 155.80668676309062, 823.3333333333334 115.31523569693671, 830 122.4927820467241 C 836.6666666666666 106.35693077914091, 843.3333333333334 145.338709710168, 850 138.9594672682369" fill="none" stroke="#6c5ce7" stroke-width="3.3802183483034973" opacity="0.6329475044916527" stroke-linecap="round" filter="url(#glow)" />
<path d="M -50 33.67828934692625 C -43.333333333333336 23.429312554707025, -36.666666666666664 60.86919780139596, -30 46.31028310228834 C -23.333333333333332 73.75170395978586, -16.666666666666664 24.555041791434206, -10 39.736779886271364 C -3.333333333333333 78.69794926372091, 3.333333333333334 6.774237292174433, 10 51.20311836129301 C 16.666666666666668 80.65340307173113, 23.333333333333336 13.874142561939578, 30 29.61498537048704 C 36.666666666666664 72.61646207250742, 43.333333333333336 21.77592313589087, 50 13.097677607277763 C 56.666666666666664 3.499518795127319, 63.333333333333336 59.032511005082384, 70 -6.023527691295929 C 76.66666666666667 7.3454553179204645, 83.33333333333333 -2.0388786242923764, 90 7.977957234356211 C 96.66666666666667 52.07775881437343, 103.33333333333333 13.525342385167747, 110 3.564174940812343 C 116.66666666666667 20.235882441453057, 123.33333333333333 -41.36091689443325, 130 -17.541597790938507 C 136.66666666666666 -60.96416652941005, 143.33333333333334 -5.215227983041434, 150 -28.21700847182484 C 156.66666666666666 -74.3891815276156, 163.33333333333334 -36.199147775333934, 170 -49.808489284138474 C 176.66666666666666 -75.7938946640389, 183.33333333333334 -85.01606103217775, 190 -71.29738128045231 C 196.66666666666666 -58.51451566025365, 203.33333333333334 -47.13746524664757, 210 -62.671144336041664 C 216.66666666666666 -72.63579418956752, 223.33333333333334 -104.25599861166154, 230 -71.18008047288143 C 236.66666666666666 -50.72931638969846, 243.33333333333334 -63.37621598140532, 250 -71.09510847401349 C 256.6666666666667 -108.76099915507871, 263.3333333333333 -105.85432330244765, 270 -58.810369280458374 C 276.6666666666667 -56.29442871447907, 283.3333333333333 -10.780876539446844, 290 -35.125219365789974 C 296.6666666666667 -40.21346587121896, 303.3333333333333 -72.96399202110622, 310 -28.889919193922534 C 316.6666666666667 -28.500365236651543, 323.3333333333333 12.39563783796461, 330 -22.22850980792399 C 336.6666666666667 10.045641845838162, 343.3333333333333 -20.92937754161862, 350 -30.884830496695102 C 356.6666666666667 -49.28188315186598, 363.3333333333333 -48.13321452232175, 370 -34.65222724323493 C 376.6666666666667 -36.355572909629664, 383.3333333333333 -36.902350159440076, 390 -33.65600756664479 C 396.6666666666667 -51.56784115987268, 403.3333333333333 5.14592239017086, 410 -40.87506596856706 C 416.6666666666667 -71.79043948436427, 423.3333333333333 -52.68993771352056, 430 -31.3774936952633 C 436.6666666666667 -32.56917254769006, 443.3333333333333 10.098143576313493, 450 -10.819355457955325 C 456.6666666666667 -43.312128758300645, 463.3333333333333 -33.52629551105471, 470 11.136276294333523 C 476.6666666666667 43.75703516002031, 483.3333333333333 -30.880290938061894, 490 9.187841633563085 C 496.6666666666667 35.72916999759079, 503.3333333333333 18.9716241527987, 510 -11.304328914706598 C 516.6666666666666 -48.154269304398525, 523.3333333333334 -17.573174432287, 530 -2.686031137450179 C 536.6666666666666 -22.178224445722332, 543.3333333333334 20.67653302527124, 550 -10.286956874553244 C 556.6666666666666 -52.11435316682697, 563.3333333333334 -31.46461060057289, 570 13.322357702956353 C 576.6666666666666 -14.905071865406988, 583.3333333333334 -13.457919481859477, 590 -3.8226495352563425 C 596.6666666666666 -11.411981808168814, 603.3333333333334 -29.5363659798431, 610 -17.35585757657074 C 616.6666666666666 10.802950456274253, 623.3333333333334 -19.701908558110368, 630 -9.086546799319319 C 636.6666666666666 -11.72583613413688, 643.3333333333334 -14.955004549464572, 650 -6.861764121118313 C 656.6666666666666 -31.080411498232515, 663.3333333333334 -55.40423243761005, 670 -7.721950216683638 C 676.6666666666666 -47.82610760691007, 683.3333333333334 26.566291948541455, 690 -11.027002707194804 C 696.6666666666666 -14.360262853493822, 703.3333333333334 -44.32184184491986, 710 -3.81200748518037 C 716.6666666666666 31.028391496666398, 723.3333333333334 -27.119932993520962, 730 -24.94740605909273 C 736.6666666666666 -20.82634406615357, 743.3333333333334 4.79944012436906, 750 -16.228977055844688 C 756.6666666666666 -14.763288776183373, 763.3333333333334 -14.7933037154989, 770 -25.661348509938158 C 776.6666666666666 -37.10682512331904, 783.3333333333334 -12.847489376879132, 790 -32.4110033423034 C 796.6666666666666 -73.41296522586654, 803.3333333333334 -19.832967085930477, 810 -54.21582311542248 C 816.6666666666666 -10.001241546088657, 823.3333333333334 -66.52789392919875, 830 -71.97068826012264 C 836.6666666666666 -40.21337159052786, 843.3333333333334 -78.01227873974605, 850 -67.05847759764207" fill="none" stroke="#6c5ce7" stroke-width="2.065289860085664" opacity="0.7420671515077486" stroke-linecap="round" filter="url(#glow)" />
<path d="M -50 27.822638493875793 C -43.333333333333336 19.22849361307316, -36.666666666666664 1.5105442943457348, -30 34.246524126120995 C -23.333333333333332 17.82988630643705, -16.666666666666664 49.26664984045695, -10 23.41211279711694 C -3.333333333333333 20.630311591254458, 3.333333333333334 18.76512060455696, 10 18.877120219214245 C 16.666666666666668 1.228255248456687, 23.333333333333336 21.33071206065742, 30 30.785535050609987 C 36.666666666666664 49.414077427760475, 43.333333333333336 22.053299581487735, 50 31.66783731162236 C 56.666666666666664 51.56523239346148, 63.333333333333336 17.83149149993035, 70 23.328179775081644 C 76.66666666666667 50.1556417925344, 83.33333333333333 28.476217627196018, 90 21.46266461289319 C 96.66666666666667 25.80173381513917, 103.33333333333333 42.137750319772294, 110 11.79151663354986 C 116.66666666666667 15.255792223094916, 123.33333333333333 10.976915438261093, 130 12.869940221834437 C 136.66666666666666 -4.626706059166111, 143.33333333333334 26.29465672005506, 150 12.320750749462551 C 156.66666666666666 37.74879795644384, 163.33333333333334 31.769251453922195, 170 4.660263295267082 C 176.66666666666666 7.182948666395969, 183.33333333333334 -19.049927682923474, 190 3.436614236128838 C 196.66666666666666 8.619568221900098, 203.33333333333334 -5.519932819226616, 210 -5.770643127886602 C 216.66666666666666 -12.427935167334168, 223.33333333333334 -6.2523701804527025, 230 3.7701095363850747 C 236.66666666666666 1.903852173674462, 243.33333333333334 13.628030501112931, 250 0.22190000494216733 C 256.6666666666667 18.10563885580295, 263.3333333333333 11.107370375566191, 270 6.507587833422354 C 276.6666666666667 30.231962580844318, 283.3333333333333 26.62594921826792, 290 5.465999175327573 C 296.6666666666667 28.027050088839182, 303.3333333333333 2.383824829576371, 310 14.548215388898228 C 316.6666666666667 37.260855194883746, 323.3333333333333 13.434891928689321, 330 11.246515124298819 C 336.6666666666667 18.520849057271427, 343.3333333333333 -11.964609603252418, 350 3.131073049530526 C 356.6666666666667 3.330012676187321, 363.3333333333333 15.187020082872133, 370 3.9415938277542786 C 376.6666666666667 5.089056863869843, 383.3333333333333 -17.50529196837981, 390 10.889360244093885 C 396.6666666666667 16.59823497076033, 403.3333333333333 0.7008298781280917, 410 12.400325809210111 C 416.6666666666667 21.532622298857028, 423.3333333333333 19.81330388783212, 430 5.367669932039718 C 436.6666666666667 25.505267237082425, 443.3333333333333 9.755162451813167, 450 11.639090807585776 C 456.6666666666667 34.453372544075506, 463.3333333333333 34.06449518956304, 470 12.656081206917722 C 476.6666666666667 19.147108935697062, 483.3333333333333 18.521314055733065, 490 17.389245782223497 C 496.6666666666667 12.270120253166109, 503.3333333333333 14.15626752300707, 510 5.750101886069482 C 516.6666666666666 13.819476152762524, 523.3333333333334 6.925090816337493, 530 13.940949940615482 C 536.6666666666666 4.382670061858622, 543.3333333333334 -6.981876688867192, 550 9.145655131237389 C 556.6666666666666 12.783737028710691, 563.3333333333334 26.738566698541028, 570 9.744000870110186 C 576.6666666666666 23.03177802631297, 583.3333333333334 34.68203809878534, 590 -0.9243729169775126 C 596.6666666666666 24.05090465621037, 603.3333333333334 -4.080368937129181, 610 0.027323014264117873 C 616.6666666666666 -8.714046889330843, 623.3333333333334 1.604661655353878, 630 4.653510330820165 C 636.6666666666666 -11.20770479982211, 643.3333333333334 16.392693283451116, 650 16.08498717152174 C 656.6666666666666 7.906157685558803, 663.3333333333334 25.546364763918728, 670 10.719672903732437 C 676.6666666666666 8.308515660451654, 683.3333333333334 9.134329965319829, 690 23.416654836135685 C 696.6666666666666 0.5641382918639373, 703.3333333333334 24.738422005726687, 710 33.38200073655166 C 716.6666666666666 42.19905626375349, 723.3333333333334 32.83195496489304, 730 24.80740997142435 C 736.6666666666666 13.418488750223172, 743.3333333333334 32.27040384110741, 750 28.471402686208755 C 756.6666666666666 26.1636552928758, 763.3333333333334 19.05411600843319, 770 40.683437749156695 C 776.6666666666666 48.86876162457226, 783.3333333333334 30.36039182232296, 790 49.067658855595205 C 796.6666666666666 65.32677986922366, 803.3333333333334 46.712139399220256, 810 44.441621031154625 C 816.6666666666666 38.03173980940641, 823.3333333333334 17.792098986162422, 830 45.325697850060145 C 836.6666666666666 70.51882262451797, 843.3333333333334 42.74224834062257, 850 54.89789566860888" fill="none" stroke="#00b894" stroke-width="3.901998045714678" opacity="0.7264453721838078" stroke-linecap="round" filter="url(#glow)" />
<path d="M -50 69.13174464006865 C -43.333333333333336 61.14726422213309, -36.666666666666664 82.20007444752773, -30 57.13365710592852 C -23.333333333333332 62.60494573863731, -16.666666666666664 79.23147905850833, -10 75.10558596008406 C -3.333333333333333 65.37852613928473, 3.333333333333334 44.416562023922616, 10 82.27570093346762 C 16.666666666666668 115.45981091451173, 23.333333333333336 88.90260275909202, 30 97.66003499820697 C 36.666666666666664 67.77572005092323, 43.333333333333336 70.79876034989007, 50 91.4950018823309 C 56.666666666666664 122.83179047947813, 63.333333333333336 89.08594041970082, 70 87.88934663214854 C 76.66666666666667 126.10096763368911, 83.33333333333333 58.87771110649015, 90 95.47523142781078 C 96.66666666666667 86.07058638903553, 103.33333333333333 126.13069334351191, 110 99.22811454423025 C 116.66666666666667 82.2155452609511, 123.33333333333333 138.71027548898422, 130 106.28535636533641 C 136.66666666666666 140.97217942684944, 143.33333333333334 66.43858455112357, 150 89.03380520163265 C 156.66666666666666 80.50359890344255, 163.33333333333334 117.33568292267218, 170 76.75357933066032 C 176.66666666666666 89.13061792784313, 183.33333333333334 77.24584952686604, 190 83.06113613634582 C 196.66666666666666 104.95695153573789, 203.33333333333334 70.58867953374354, 210 89.41094505285173 C 216.66666666666666 119.69449387088133, 223.33333333333334 55.50598251201869, 230 90.02129785349506 C 236.66666666666666 116.7641556362402, 243.33333333333334 101.46014335691781, 250 98.43173007122724 C 256.6666666666667 137.3852281149135, 263.3333333333333 68.5839685762528, 270 79.8063249366241 C 276.6666666666667 77.18616229140306, 283.3333333333333 46.609281050134264, 290 80.2925886874958 C 296.6666666666667 112.9788532438211, 303.3333333333333 115.93750609738292, 310 90.33798367961451 C 316.6666666666667 97.93937950155085, 323.3333333333333 105.2358554109095, 330 87.47960407829196 C 336.6666666666667 80.9969033801905, 343.3333333333333 91.46048314005867, 350 89.9969174913762 C 356.6666666666667 102.39350503549012, 363.3333333333333 70.89706370548888, 370 83.11925063678599 C 376.6666666666667 76.45750926334163, 383.3333333333333 100.00821109393961, 390 78.78105278002631 C 396.6666666666667 60.51138513174186, 403.3333333333333 62.35821296603099, 410 84.38727190594932 C 416.6666666666667 105.15179624003918, 423.3333333333333 88.53055625071127, 430 68.39468678153379 C 436.6666666666667 77.97479814353557, 443.3333333333333 83.42375925182284, 450 49.87778689937926 C 456.6666666666667 28.98596655323441, 463.3333333333333 20.11135607587984, 470 59.289726957879594 C 476.6666666666667 30.053065104233774, 483.3333333333333 97.87871880492216, 490 50.69226178207736 C 496.6666666666667 13.292569450351351, 503.3333333333333 55.23072635599692, 510 50.0794784802271 C 516.6666666666666 68.67277007211919, 523.3333333333334 72.41743106239932, 530 39.197523619753284 C 536.6666666666666 9.32717152437295, 543.3333333333334 49.14002176563371, 550 42.17984483002027 C 556.6666666666666 72.9599274109684, 563.3333333333334 68.69899056913306, 570 36.638298869648025 C 576.6666666666666 74.0406910806587, 583.3333333333334 27.83146551511091, 590 34.134988100587165 C 596.6666666666666 35.93139762922628, 603.3333333333334 14.268906786634538, 610 29.836002996024938 C 616.6666666666666 22.561861589478895, 623.3333333333334 6.677552265713246, 630 30.941447606004974 C 636.6666666666666 70.2098422245206, 643.3333333333334 47.96702471085612, 650 25.912355595286243 C 656.6666666666666 36.04933061827729, 663.3333333333334 53.23265415371549, 670 14.964274382364545 C 676.6666666666666 16.930182039055623, 683.3333333333334 19.00850699437862, 690 14.901713153081923 C 696.6666666666666 40.07793340469177, 703.3333333333334 37.92271236360554, 710 25.984048308854383 C 716.6666666666666 29.176606408078754, 723.3333333333334 52.826913821318215, 730 8.916012879991563 C 736.6666666666666 -21.222988051226153, 743.3333333333334 5.853826474306587, 750 27.01685481271931 C 756.6666666666666 -6.901683505521682, 763.3333333333334 51.206417808852756, 770 15.969688816767938 C 776.6666666666666 20.941453067571505, 783.3333333333334 21.697056526849618, 790 23.818123644037907 C 796.6666666666666 -14.585619524525551, 803.3333333333334 -0.5236961725263569, 810 32.64774242881252 C 816.6666666666666 55.615227113082234, 823.3333333333334 63.51206294922393, 830 48.388392867798494 C 836.6666666666666 79.58408527831355, 843.3333333333334 77.44845388079872, 850 63.003021180314775" fill="none" stroke="#00b894" stroke-width="2.531858991655144" opacity="0.596357420599327" stroke-linecap="round" filter="url(#glow)" />
<circle cx="147.2094357127471" cy="114.23305874035962" r="2.8321046494102258" fill="#fdcb6e" opacity="0.9018882305268152" />
<circle cx="254.7479468496448" cy="5.832924993461397" r="3.322225641274225" fill="#6c5ce7" opacity="0.5802252087176063" />
<circle cx="83.30321498762333" cy="144.91287570213066" r="7.682367314555" fill="#6c5ce7" opacity="0.9412981712285612" />
<circle cx="124.7790726504034" cy="138.2345548761382" r="4.540056216034163" fill="#6c5ce7" opacity="0.8081125865617623" />
<circle cx="350.1162017420924" cy="35.88046432862946" r="6.066946224436852" fill="#00b894" opacity="0.5410807245915715" />
<circle cx="777.6873967675452" cy="117.00783411907625" r="5.897616988727545" fill="#6c5ce7" opacity="0.7744241172930793" />
<circle cx="217.3841785140272" cy="3.2308054343996417" r="2.4520447188455954" fill="#6c5ce7" opacity="0.8757793346166005" />
<circle cx="728.2682340399081" cy="71.80551164954578" r="7.208859509400776" fill="#fdcb6e" opacity="0.8819782934192488" />
<circle cx="17.042308042846344" cy="20.735427404095887" r="2.7629348620370617" fill="#fdcb6e" opacity="0.8992864277499262" />
<circle cx="76.42723176101391" cy="112.88550537050091" r="4.488449013280941" fill="#00b894" opacity="0.6996106809817998" />
<circle cx="157.72675086522003" cy="124.87246502340814" r="3.986153583222963" fill="#6c5ce7" opacity="0.8587874846590542" />
<circle cx="195.64116409697388" cy="176.00501555753652" r="5.254488944167543" fill="#00b894" opacity="0.5124584408641519" />
<circle cx="426.00049622138414" cy="45.03995697884919" r="1.8634089259043387" fill="white" opacity="0.3048743915384729" />
<circle cx="553.1640055785676" cy="132.39434371192473" r="1.9414598819337026" fill="white" opacity="0.21656748000663087" />
<circle cx="770.8468491369185" cy="141.9735503562696" r="1.1451267318553504" fill="white" opacity="0.44359747457627446" />
<circle cx="259.53845485579023" cy="54.57908744573672" r="1.1966124848906636" fill="white" opacity="0.4534138530958766" />
<circle cx="594.7036804894674" cy="142.7158550228956" r="1.9851375149454518" fill="white" opacity="0.31441503164495355" />
<circle cx="599.7872483831176" cy="38.93940296076828" r="1.6364160737459137" fill="white" opacity="0.2131555908051977" />
<circle cx="236.87062301789314" cy="63.330413577814284" r="1.0307979436762498" fill="white" opacity="0.4941352943148471" />
<circle cx="350.60747278865153" cy="49.21321162891603" r="1.3237114768357992" fill="white" opacity="0.4093629654734452" />
<circle cx="322.43627051564533" cy="68.00626539982599" r="0.6818053455679792" fill="white" opacity="0.33792255787137393" />
<circle cx="485.048574770272" cy="31.24565570339741" r="1.83328450420403" fill="white" opacity="0.3156984323797524" />
<circle cx="62.50062779135046" cy="163.45197330718185" r="1.994485240118316" fill="white" opacity="0.4173916313409901" />
<circle cx="29.738074184414565" cy="166.49733531241034" r="0.6434702460406672" fill="white" opacity="0.2036807348401689" />
<circle cx="39.63633476424526" cy="63.20830279839353" r="1.97263747202956" fill="white" opacity="0.21498892262535352" />
<circle cx="627.0934340397143" cy="111.63509586110027" r="0.816296002622661" fill="white" opacity="0.4712785253837906" />
<circle cx="733.2332820232143" cy="39.78231541844135" r="1.2045475769334932" fill="white" opacity="0.45048580012516787" />
<circle cx="626.4257810861195" cy="104.1100405656608" r="1.4404209125469327" fill="white" opacity="0.2628563188880757" />
<circle cx="599.545875945792" cy="130.46863493739696" r="1.7831403192916666" fill="white" opacity="0.42427558052179626" />
<circle cx="286.1054651687402" cy="43.36673798330568" r="0.9923030529459598" fill="white" opacity="0.32062076405782286" />
<circle cx="459.27225355482227" cy="83.91975457315985" r="1.6801196082662044" fill="white" opacity="0.26567927366637467" />
<circle cx="176.81234254252144" cy="71.50905980660455" r="1.8321299256803099" fill="white" opacity="0.2725620694312118" />
<circle cx="456.90815915485103" cy="135.3910925398457" r="0.9323911303866965" fill="white" opacity="0.22140452732786853" />
<circle cx="275.0710500599368" cy="49.591456841227725" r="0.6261781661061688" fill="white" opacity="0.4378850057787958" />
<circle cx="698.9642146469274" cy="52.86758756203645" r="1.4349329496447045" fill="white" opacity="0.30280837578981207" />
<circle cx="300.70072712268416" cy="138.8402110156684" r="1.3131095235476422" fill="white" opacity="0.22172051372128965" />
<circle cx="495.2609085334931" cy="28.801218437362984" r="1.5530322257444602" fill="white" opacity="0.3319786634238136" />
<circle cx="21.230294514395176" cy="134.61560850080167" r="0.8677044950443552" fill="white" opacity="0.39279747764228373" />
<circle cx="534.7505753314645" cy="52.547342781766474" r="1.9481493454512164" fill="white" opacity="0.48197853336787544" />
<circle cx="271.74094367763894" cy="199.13473954003638" r="1.2709564870529821" fill="white" opacity="0.38789388646355805" />
<circle cx="511.6934301221427" cy="179.58214042832688" r="0.9219917755554318" fill="white" opacity="0.48784606500604666" />
<circle cx="112.65340807328492" cy="111.6491644894806" r="0.8111070319943665" fill="white" opacity="0.3564415661462875" />

</svg>
