<svg xmlns="http://www.w3.org/2000/svg" viewBox="0 0 800 200" width="800" height="200">
  <rect width="800" height="200" fill="#1a0a0a"/>
  
    <defs>
      <linearGradient id="grad1" x1="0%" y1="0%" x2="100%" y2="100%">
        <stop offset="0%" style="stop-color:#ff4500;stop-opacity:0.8" />
        <stop offset="100%" style="stop-color:#ff6b35;stop-opacity:0.8" />
      </linearGradient>
      <linearGradient id="grad2" x1="100%" y1="0%" x2="0%" y2="100%">
        <stop offset="0%" style="stop-color:#f7c59f;stop-opacity:0.7" />
        <stop offset="100%" style="stop-color:#efa48b;stop-opacity:0.7" />
      </linearGradient>
      <linearGradient id="textGrad" x1="0%" y1="0%" x2="100%" y2="0%">
        <stop offset="0%" style="stop-color:#ff4500" />
        <stop offset="25%" style="stop-color:#ff6b35" />
        <stop offset="50%" style="stop-color:#f7c59f" />
        <stop offset="75%" style="stop-color:#efa48b" />
        <stop offset="100%" style="stop-color:#d4a5a5" />
      </linearGradient>
      <filter id="glow">
        <feGaussianBlur stdDeviation="3" result="coloredBlur"/>
        <feMerge>
          <feMergeNode in="coloredBlur"/>
          <feMergeNode in="SourceGraphic"/>
        </feMerge>
      </filter>
      <filter id="textGlow">
        <feGaussianBlur stdDeviation="2" result="coloredBlur"/>
        <feMerge>
          <feMergeNode in="coloredBlur"/>
          <feMergeNode in="SourceGraphic"/>
        </feMerge>
      </filter>
    </defs>
  
  
    <style>
      @keyframes float {
        0%, 100% { transform: translateY(0px); }
        50% { transform: translateY(-8px); }
      }
      @keyframes pulse {
        0%, 100% { opacity: 0.4; }
        50% { opacity: 0.9; }
      }
      @keyframes drift {
        0% { transform: translateX(0px); }
        50% { transform: translateX(10px); }
        100% { transform: translateX(0px); }
      }
      @keyframes shimmer {
        0% { opacity: 0.3; }
        50% { opacity: 1; }
        100% { opacity: 0.3; }
      }
      @keyframes glitch {
        0%, 100% { transform: translateX(0); }
        20% { transform: translateX(-2px); }
        40% { transform: translateX(2px); }
        60% { transform: translateX(-1px); }
        80% { transform: translateX(1px); }
      }
      @keyframes dataStream {
        0% { stroke-dashoffset: 0; }
        100% { stroke-dashoffset: -20; }
      }
      .float { animation: float 8s ease-in-out infinite; }
      .pulse { animation: pulse 8s ease-in-out infinite; }
      .drift { animation: drift 8s ease-in-out infinite; }
      .shimmer { animation: shimmer 3s ease-in-out infinite; }
      .glitch { animation: glitch 0.5s ease-in-out infinite; }
      .dataStream { animation: dataStream 2s linear infinite; }
      .name-text { 
        font-family: -apple-system, BlinkMacSystemFont, 'Segoe UI', Helvetica, Arial, sans-serif;
        font-weight: 700;
        font-size: 64px;
        letter-spacing: -2px;
      }
    </style>
  
  <rect x="0" y="160" width="800" height="50" fill="#ff4500" opacity="0.3" />
<rect x="0" y="170" width="800" height="40" fill="#ff6b35" opacity="0.25" />
<rect x="0" y="180" width="800" height="30" fill="#f7c59f" opacity="0.19999999999999998" />
<rect x="0" y="190" width="800" height="20" fill="#efa48b" opacity="0.14999999999999997" />
<rect x="0" y="200" width="800" height="10" fill="#d4a5a5" opacity="0.09999999999999998" />
<line x1="504.69874429207044" y1="170" x2="504.69874429207044" y2="256.82606060961916" stroke="#ff4500" stroke-width="1.205932096982273" opacity="0.1380631493483439" class="pulse" />
<line x1="504.69874429207044" y1="170" x2="526.1861943137008" y2="250.1922552058213" stroke="#ff4500" stroke-width="2.9878446513516286" opacity="0.13543116675269712" class="pulse" />
<line x1="504.69874429207044" y1="170" x2="569.1605123666338" y2="281.6510574508653" stroke="#ff4500" stroke-width="1.3544353721077567" opacity="0.1361980127056726" class="pulse" />
<line x1="504.69874429207044" y1="170" x2="582.2587337797365" y2="247.5599894876661" stroke="#ff4500" stroke-width="1.642867103732824" opacity="0.19099632004579953" class="pulse" />
<line x1="504.69874429207044" y1="170" x2="629.1410991294333" y2="241.84682706394238" stroke="#ff4500" stroke-width="2.2341065419642443" opacity="0.20707595311923055" class="pulse" />
<line x1="504.69874429207044" y1="170" x2="636.6339682907529" y2="205.35193672366626" stroke="#ff4500" stroke-width="1.0256143256457482" opacity="0.19248947462232674" class="pulse" />
<line x1="504.69874429207044" y1="170" x2="586.6817540214353" y2="170" stroke="#ff4500" stroke-width="2.613414466054031" opacity="0.10035294980882958" class="pulse" />
<line x1="504.69874429207044" y1="170" x2="637.1381269058379" y2="134.51297438256452" stroke="#ff4500" stroke-width="1.5405382119308921" opacity="0.18178381894385615" class="pulse" />
<line x1="504.69874429207044" y1="170" x2="603.9714539251307" y2="112.6848743701691" stroke="#ff4500" stroke-width="2.898752664220972" opacity="0.11196669368036752" class="pulse" />
<line x1="504.69874429207044" y1="170" x2="601.4126720114829" y2="73.28607228058759" stroke="#ff4500" stroke-width="1.2544951144500502" opacity="0.24359601372821443" class="pulse" />
<line x1="504.69874429207044" y1="170" x2="545.1187246124601" y2="99.99054044415087" stroke="#ff4500" stroke-width="1.9687740289354618" opacity="0.15158255669084797" class="pulse" />
<line x1="504.69874429207044" y1="170" x2="543.1220870230096" y2="26.602132731502962" stroke="#ff4500" stroke-width="1.519391292849634" opacity="0.14485379469417903" class="pulse" />
<path d="M 335.48260712688625 76.76420859311733 C 336.5847817581532 88.91527298030358, 340.60624504719584 105.13513811147318, 333.67902922018584 116.52392564847707 C 326.75181339317584 127.91271318548097, 307.34565530861715 144.92382968980286, 293.9193121648261 145.09693381514066 C 280.4929690210351 145.27003794047846, 262.65488910044616 128.9513379375078, 253.12097035743955 117.56255040050391 C 243.58705161443294 106.17376286350002, 237.94242934804623 91.590285503506, 236.7157997067864 76.76420859311733 C 235.4891700655266 61.93813168272867, 236.22727376687408 39.14204394679646, 245.7611925098807 28.606088938171922 C 255.2951112528873 18.07013392954738, 280.36851401104224 11.04657014350548, 293.9193121648261 13.54847854137008 C 307.47011031861 16.05038693923468, 320.1387656055739 33.08158431673498, 327.0659814325839 43.61753932535952 C 333.9931972595939 54.153494333984064, 334.3804324956193 64.61314420593108, 335.48260712688625 76.76420859311733 Z" fill="#f7c59f" opacity="0.19154958887846996" class="drift" />
<path d="M 214.42833261465088 70.60399605503582 C 214.46990779992208 86.97994443342992, 209.4092111828138 110.21164897970648, 198.5548727582472 119.85656674603166 C 187.7005343336806 129.50148451235683, 162.61453579753595 131.57879248636752, 149.30230206725133 128.47350265298687 C 135.99006833696671 125.3682128196062, 126.05557867177983 110.86974551207285, 118.6814703765395 101.22482774574767 C 111.30736208129916 91.5799099794225, 105.42908184169796 81.1823694978284, 105.05765229580933 70.60399605503582 C 104.6862227499207 60.02562261224325, 109.07878480596739 47.58902497412485, 116.45289310120772 37.75458708899222 C 123.82700139644805 27.920149203859587, 135.66021397634927 14.289653846460881, 149.30230206725133 11.597368744240029 C 162.9443901581534 8.905083642019177, 187.45108322205346 11.766438590534468, 198.30542164662003 21.6008764756671 C 209.1597600711866 31.43531436079973, 214.38675742937968 54.22804767664172, 214.42833261465088 70.60399605503582 Z" fill="#f7c59f" opacity="0.23213040003419907" class="drift" />
<path d="M 490.1476600852397 77.20956998466603 C 489.799835082563 85.73769762245962, 471.729180023472 96.25838248586963, 463.13730243004835 101.7504778900167 C 454.5454248366247 107.24257329416376, 448.465908020843 108.47293154852001, 438.5963945246977 110.16214240954842 C 428.7268810285524 111.85135327057684, 411.3081178925763 117.37783846033422, 403.92022145317657 111.88574305618715 C 396.5323250137768 106.39364765204009, 392.7237156665399 87.22299412008024, 394.26901588829935 77.20956998466603 C 395.8143161100588 67.19614584925182, 405.8041263443338 59.942981218253806, 413.19202278373353 51.805198243701874 C 420.5799192231333 43.66741526914994, 429.9243562476352 28.586786500762212, 438.5963945246977 28.382872137354425 C 447.2684328017602 28.17895777394664, 456.6323748526849 42.44392908870323, 465.22425244610855 50.58171206325516 C 473.8161300395322 58.71949503780709, 490.4954850879164 68.68144234687244, 490.1476600852397 77.20956998466603 Z" fill="#f7c59f" opacity="0.16923823684477982" class="drift" />
<path d="M 642.7442935491334 54.65171689178308 C 644.7431409812212 64.01072689636334, 650.7852328226579 82.64167071815622, 645.578706215362 88.72528920178732 C 640.3721796080661 94.80890768541842, 623.0630744832993 90.95334465229624, 611.5051339053578 91.1534277935697 C 599.9471933274162 91.35351093484317, 583.5711051248459 96.00940653305926, 576.2310627477127 89.92578804942816 C 568.8910203705796 83.84216956579706, 568.0703720000754 67.01523296851484, 567.4648796425587 54.65171689178309 C 566.859387285042 42.28820081505134, 565.2580662254792 24.762193011185516, 572.5981086026123 15.744691589037657 C 579.9381509797455 6.7271901668898, 601.3405484019872 -2.2577145719820777, 611.5051339053578 0.5467083588959412 C 621.6697194087283 3.35113128977396, 628.3790950155392 23.55372775215791, 633.5856216228351 32.57122917430577 C 638.792148230131 41.58873059645363, 640.7454461170456 45.292706887202826, 642.7442935491334 54.65171689178308 Z" fill="#f7c59f" opacity="0.1907647255081928" class="drift" />
<path d="M 652.1859410708711 68.22713914662434 L 662.1792619789825 63.230478692568646 L 672.1725828870939 68.22713914662434" fill="none" stroke="#d4a5a5" stroke-width="1.5" opacity="0.4" class="float" style="animation-delay: 1.918065789987587s" />
<path d="M 61.192254806547496 49.084080990834316 L 66.89925816943176 46.23057930939218 L 72.60626153231603 49.084080990834316" fill="none" stroke="#d4a5a5" stroke-width="1.5" opacity="0.4" class="float" style="animation-delay: 1.1518997240044566s" />
<path d="M 135.79346908690755 30.79656906165482 L 141.79927660434657 27.793665302935317 L 147.8050841217856 30.79656906165482" fill="none" stroke="#d4a5a5" stroke-width="1.5" opacity="0.4" class="float" style="animation-delay: 0.9804394256339941s" />
<path d="M 646.1155378386231 76.69214214763561 L 655.4986435218967 72.0005893059988 L 664.8817492051703 76.69214214763561" fill="none" stroke="#d4a5a5" stroke-width="1.5" opacity="0.4" class="float" style="animation-delay: 0.17667404915232243s" />
<path d="M 300.94423650896255 50.53338208048221 L 308.12856670053134 46.94121698469782 L 315.3128968921001 50.53338208048221" fill="none" stroke="#d4a5a5" stroke-width="1.5" opacity="0.4" class="float" style="animation-delay: 0.6579469515143059s" />

  
    <text x="400" y="120" text-anchor="middle" class="name-text" fill="url(#textGrad)" filter="url(#textGlow)">
      JOEL HOOKS
    </text>
  
</svg>
