<svg xmlns="http://www.w3.org/2000/svg" viewBox="0 0 800 200" width="800" height="200">
  <rect width="800" height="200" fill="#05010d"/>
  
    <defs>
      <linearGradient id="grad1" x1="0%" y1="0%" x2="100%" y2="100%">
        <stop offset="0%" style="stop-color:#4a0080;stop-opacity:0.8" />
        <stop offset="100%" style="stop-color:#7b2cbf;stop-opacity:0.8" />
      </linearGradient>
      <linearGradient id="grad2" x1="100%" y1="0%" x2="0%" y2="100%">
        <stop offset="0%" style="stop-color:#9d4edd;stop-opacity:0.7" />
        <stop offset="100%" style="stop-color:#c77dff;stop-opacity:0.7" />
      </linearGradient>
      <linearGradient id="textGrad" x1="0%" y1="0%" x2="100%" y2="0%">
        <stop offset="0%" style="stop-color:#4a0080" />
        <stop offset="25%" style="stop-color:#7b2cbf" />
        <stop offset="50%" style="stop-color:#9d4edd" />
        <stop offset="75%" style="stop-color:#c77dff" />
        <stop offset="100%" style="stop-color:#e0aaff" />
      </linearGradient>
      <filter id="glow">
        <feGaussianBlur stdDeviation="5" result="coloredBlur"/>
        <feMerge>
          <feMergeNode in="coloredBlur"/>
          <feMergeNode in="SourceGraphic"/>
        </feMerge>
      </filter>
      <filter id="textGlow">
        <feGaussianBlur stdDeviation="2" result="coloredBlur"/>
        <feMerge>
          <feMergeNode in="coloredBlur"/>
          <feMergeNode in="SourceGraphic"/>
        </feMerge>
      </filter>
    </defs>
  
  
    <style>
      @keyframes float {
        0%, 100% { transform: translateY(0px); }
        50% { transform: translateY(-8px); }
      }
      @keyframes pulse {
        0%, 100% { opacity: 0.4; }
        50% { opacity: 0.9; }
      }
      @keyframes drift {
        0% { transform: translateX(0px); }
        50% { transform: translateX(10px); }
        100% { transform: translateX(0px); }
      }
      @keyframes shimmer {
        0% { opacity: 0.3; }
        50% { opacity: 1; }
        100% { opacity: 0.3; }
      }
      @keyframes glitch {
        0%, 100% { transform: translateX(0); }
        20% { transform: translateX(-2px); }
        40% { transform: translateX(2px); }
        60% { transform: translateX(-1px); }
        80% { transform: translateX(1px); }
      }
      @keyframes dataStream {
        0% { stroke-dashoffset: 0; }
        100% { stroke-dashoffset: -20; }
      }
      .float { animation: float 8s ease-in-out infinite; }
      .pulse { animation: pulse 8s ease-in-out infinite; }
      .drift { animation: drift 8s ease-in-out infinite; }
      .shimmer { animation: shimmer 3s ease-in-out infinite; }
      .glitch { animation: glitch 0.5s ease-in-out infinite; }
      .dataStream { animation: dataStream 2s linear infinite; }
      .name-text { 
        font-family: -apple-system, BlinkMacSystemFont, 'Segoe UI', Helvetica, Arial, sans-serif;
        font-weight: 700;
        font-size: 64px;
        letter-spacing: -2px;
      }
    </style>
  
  <path d="M 213.8554510612411 94.3148059752228 C 219.09677670139314 112.34979060810468, 232.7007609483314 144.17610161018848, 224.3507145563338 158.5249462465411 C 216.0006681643362 172.87379088289373, 181.87618772470677 180.89341630955877, 163.75517270925545 180.40787379333852 C 145.63415769380413 179.92233127711827, 131.1442624733578 159.6123659195357, 115.62462446362595 155.61169114921955 C 100.1049864538941 151.6110163789034, 87.50448776584886 161.23603633408086, 70.63734465086438 156.4038251714417 C 53.77020153587989 151.57161400880253, 22.228868383799476 141.89183868615646, 14.42176577371903 126.61842417338451 C 6.614663163638585 111.34500966061258, 16.722901761399957 83.14682671514838, 23.7947289903817 64.76333809481008 C 30.866556219363442 46.37984947447178, 41.991746593912794 24.696483339398384, 56.852729147609494 16.31749245135471 C 71.7137117013062 7.938501563311034, 93.69838394955768 19.003158236585442, 112.96062431256189 14.489392766548022 C 132.2228646755661 9.975627296510602, 159.10248192515812 -16.73604131598677, 172.42617132563473 -10.76510036886981 C 185.74986072611134 -4.794159421752848, 185.9978807594871 32.80172072523436, 192.9027607154215 50.31503844924979 C 199.8076406713559 67.82835617326522, 208.61412542108906 76.27982134234091, 213.8554510612411 94.3148059752228 Z" fill="#4a0080" opacity="0.11275172944894168" filter="url(#glow)" class="float" />
<path d="M 419.4483299326123 44.785482656251176 C 418.7609066352727 69.15635469502445, 408.66251983325503 106.09528577634555, 392.2952885685234 115.83582888055211 C 375.9280573037918 125.57637198475868, 345.62246566159433 102.53466670555235, 321.24494234422247 103.2287412814906 C 296.8674190268506 103.92281585742884, 263.51905572391365 129.74081944038812, 246.0301486642921 120.00027633618154 C 228.54124160467057 110.25973323197498, 214.44900747552464 67.99458803859277, 216.31149998649317 44.78548265625119 C 218.1739924974617 21.576377273909618, 239.71619667048182 -11.842605778406366, 257.20510373010336 -19.254355957867887 C 274.6940107897249 -26.666106137329407, 298.0424882404795 2.1708228118519983, 321.24494234422247 0.3149815794820654 C 344.44739644796545 -1.5408596528878675, 380.0525970878295 -37.801153531549005, 396.4198283525611 -30.389403352087484 C 412.78705961729275 -22.977653172625967, 420.1357532299519 20.41461061747791, 419.4483299326123 44.785482656251176 Z" fill="#4a0080" opacity="0.13097254036785413" filter="url(#glow)" class="float" />
<path d="M 161.5612081024598 190.02506354521836 C 158.41938530941843 206.4053804825995, 133.00574679581516 223.22455237377218, 119.30347620595273 233.1086336385647 C 105.6012056160903 242.9927149033572, 93.02959019389422 239.0611862220135, 79.3475845632852 249.32955113397344 C 65.66557893267617 259.59791604593335, 50.75419875350198 294.183058710489, 37.2114424222986 294.71882311032425 C 23.668686091095225 295.2545875101595, 12.53871977420018 265.0142330789247, -1.908953423935067 252.54413753298502 C -16.356626622070316 240.07404198704535, -46.5945935722116 233.81484961197967, -49.474596766512875 219.8982498346863 C -52.35459996081415 205.98165005739295, -29.442898865899725 181.75853361257984, -19.18897258974272 169.04453886922485 C -8.935046313585712 156.33054412586986, 2.0259469876778073 153.2338113955255, 12.048960890429164 143.61428137455638 C 22.071974793180523 133.99475135358728, 27.534755896139124 118.2890779785083, 40.94911082676542 111.32735874341013 C 54.363465757391715 104.36563950831196, 76.33420678461432 97.9274037521561, 92.53509047418692 101.84396596396738 C 108.73597416375951 105.76052817577866, 126.65006002615547 120.12988241740264, 138.15441296420096 134.8267320142778 C 149.65876590224644 149.52358161115296, 164.70303089550117 173.64474660783722, 161.5612081024598 190.02506354521836 Z" fill="#7b2cbf" opacity="0.10420676891538934" filter="url(#glow)" class="float" />
<path d="M 364.3026434202558 104.105659979888 C 366.83483383871203 131.13038806340236, 394.7336196865426 170.6121600370589, 383.0856638386176 192.77641548579973 C 371.4377079906926 214.94067093454055, 324.7063720284211 236.3566474785883, 294.41490833270586 237.09119267233288 C 264.12344463699065 237.82573786607747, 214.86007061030077 219.3479420970082, 201.3368816643265 197.18368664826738 C 187.81369271835226 175.01943119952657, 211.66951288967826 133.52540710216573, 213.27577465686034 104.10565997988802 C 214.8820364240424 74.6859128576103, 197.45126332144474 33.47958473710577, 210.974452267419 20.66520391460115 C 224.49764121339325 7.850823092096531, 268.261896822629 25.558901199841557, 294.41490833270586 27.2193750448603 C 320.5679198427827 28.879848889879042, 356.2445654799552 17.81366616220899, 367.8925213278802 30.628046984713606 C 379.5404771758052 43.44242780721822, 361.7704530017995 77.08093189637366, 364.3026434202558 104.105659979888 Z" fill="#7b2cbf" opacity="0.1439875659943366" filter="url(#glow)" class="float" />
<path d="M 584.7848699063359 106.23349160587921 L 584.7848699063359 106.23349160587921 L 585.2819903840322 106.27698401208423 L 585.7677462487902 106.40679922375396 L 586.2309170769456 106.62095877746138 L 586.6605692868991 106.91619034883576 L 587.0461957339805 107.2879651568936 L 587.3778507558692 107.73054979736082 L 587.6462792216033 108.23707197833293 L 587.8430381959632 108.79959948978353 L 587.9606099034185 109.40923160296178 L 587.9925047612163 110.05620196791335 L 587.9333533487631 110.7299919584423 L 587.7789862892992 111.41945330494589 L 587.5265011389733 112.11293875775533 L 587.1743155066838 112.79843943785029 L 586.7222057642467 113.46372745892772 L 586.1713308493339 114.09650234551405 L 585.5242408118212 114.68453972671578 L 584.7848699063359 115.21584075476892 L 583.9585141884406 115.67878068210831 L 583.0517937275883 116.06225503042276 L 582.0725997052606 116.35582180014713 L 581.0300268200749 116.54983819897663 L 579.9342915716696 116.63559041304464 L 578.7966371404094 116.60541500401258 L 577.6292257190012 116.45281058897713 L 576.4450192836468 116.17253854716797 L 575.2576499150882 115.76071159712691 L 574.0812808926403 115.21486919954437 L 572.9304598859422 114.53403886318752 L 571.8199656586692 113.7187825632873 L 570.764649774939 112.77122762216847 L 569.7792748618306 111.69508154953158 L 568.8783510296291 110.49563049328319 L 568.0759720846119 109.17972110975006 L 567.3856531869665 107.75572582305476 L 566.8201716085564 106.23349160587921 L 566.3914122315739 104.62427257629363 L 566.110219399703 102.94064686625885 L 565.9862566884098 101.19641837531088 L 566.0278761007042 99.40650417631375 L 566.2419981196497 97.58680848756117 L 566.6340039596025 95.75408426550787 L 567.2076412554075 93.92578360366346 L 567.9649443133857 92.11989824440539 L 568.906169920923 90.35479162046637 L 570.029749573886 88.64902394052217 L 571.3322588341465 87.02117191765514 L 572.8084043744828 85.48964480961247 L 574.4510291063948 84.07249849496155 L 576.251135619379 82.78724934883962 L 578.1979279894388 81.65068970551428 L 580.2788718415923 80.67870670206597 L 582.47977237747 79.88610628797696 L 584.7848699063359 79.28644415921005 L 587.1769522476117 78.89186533258442 L 589.6374832068291 78.71295401715724 L 592.1467461663973 78.75859536429488 L 594.6840016792058 79.03585058771327 L 597.2276578083057 79.54984683967223 L 599.7554518211521 80.30368311054579 L 602.2446417234327 81.2983532871203 L 604.6722060065945 82.53268736126755 L 607.0150498859139 84.00331162630124 L 609.2502162233543 85.70462853464456 L 611.3550992623905 87.62881671880886 L 613.3076592512026 89.76585149958137 L 615.0866359967744 92.1035460222863 L 616.6717593759097 94.62761297561792 L 618.043954830359 97.32174665948908 L 619.1855418922383 100.16772498026272 L 620.080423822771 103.1455307653231 L 620.7142665018947 106.2334916058792 L 621.0746647781635 109.40843725884535 L 621.151294577147 112.64587346724515 L 620.9360491715784 115.92017089543367 L 620.423158137036 119.2047677220536 L 619.6092876520636 122.4723842915009 L 618.4936209502694 125.69524809514024 L 617.0779178929253 128.845327237857 L 615.366552802609 131.8945704449225 L 613.366529880079 134.81515157962227 L 611.0874757163552 137.57971657455914 L 608.5416086082872 140.16163062976426 L 605.7436845870785 142.535223499346 L 602.7109202735807 144.67603067583843 L 599.4628928799017 146.56102828798728 L 596.0214178822191 148.16885955356057 L 592.4104050928252 149.48005067387086 L 588.6556940585823 150.47721412084712 L 584.7848699063359 151.1452373503278 L 580.8270609416795 151.47145507623966 L 576.8127194840971 151.44580335877959 L 572.7733875872883 151.06095389477997 L 568.741449446857 150.31242704911367 L 564.7498724370624 149.19868233112777 L 560.8319388426299 147.7211851984127 L 557.0209704594771 145.88444926029914 L 553.3500483285079 143.6960531538138 L 549.8517299384276 141.1666315737874 L 546.5577662859945 138.3098401546834 L 543.4988212146203 135.14229412271163 L 540.7041954642691 131.68348086106673 L 538.2015578568559 127.95564675677575 L 536.0166860116935 123.98365892274941 L 534.1732189349963 119.79484261125549 L 532.692423756255 115.41879535324128 L 531.5929787928351 110.88717906981589 L 530.8907750129976 106.23349160587922 L 530.5987378374425 101.49281932953255 L 530.7266710713463 96.70157262276767 L 531.2811245937769 91.89720625733851 L 532.2652872505672 87.11792680309594 L 533.6789062015665 82.40238935295392 L 535.5182337652024 77.7893859677284 L 537.7760025840854 73.31752834413945 L 540.4414297067398 69.02492728926647 L 543.5002499442626 64.94887164380583 L 546.934778618747 61.12550933387636 L 550.7240035746224 57.5895332463332 L 554.8437060767035 54.373874615212365 L 559.2666099717875 51.50940657687843 L 563.9625582461612 49.02466049870261 L 568.8987158714665 46.94555761088145 L 574.039797598101 45.29515837370915 L 579.3483191307089 44.0934318938456 L 584.7848699063359 43.357047563651186 L 590.3084054943728 43.099190938453056 L 595.8765574503202 43.32940568880043 L 601.4459582843696 44.05346326966203 L 606.9725790524236 45.273261737576256 L 612.412076942913 46.98675492158909 L 617.7201501189314 49.18791291614565 L 622.8528969829567 51.86671461579832 L 627.7671769617333 55.009172754621694 L 632.4209698625743 58.59739164964073 L 636.7737308300002 62.609657579505615 L 640.7867379337124 67.02056145928472 L 644.4234294456028 71.80115320180195 L 647.6497279148574 76.91912688767901 L 650.4343482260467 82.33903560239995 L 652.7490869249918 88.02253454151676 L 654.5690902205952 93.92865073677153 L 655.8730982169023 100.01407751856209 L 656.6436630974536 106.23349160587918 L 656.8673391722948 112.53989050560641" fill="none" stroke="#9d4edd" stroke-width="1" opacity="0.3" class="drift" />
<path d="M 571.2792796965018 131.65512593353185 L 571.2792796965018 131.65512593353185 L 571.6613924300534 131.68855646590652 L 572.0347697292176 131.78833920995595 L 572.3907869910048 131.95295341547524 L 572.7210400942015 132.17988380323834 L 573.0174526992645 132.46564931591837 L 573.2723800512764 132.8058429598829 L 573.4787081737469 133.19518233305197 L 573.6299473862048 133.62757032498197 L 573.7203191341807 134.0961653712108 L 573.7448351858145 134.59346054566058 L 573.6993683243192 135.11137068348845 L 573.5807137492039 135.64132664308104 L 573.3866404907068 136.17437574071485 L 573.1159322404745 136.70128732548088 L 572.7684171062187 137.21266240604706 L 572.3449859078947 137.6990461952581 L 571.8475987468712 138.15104240390914 L 571.2792796965018 138.55942809163818 L 570.6440995813831 138.91526787101236 L 569.9471469322607 139.21002626068966 L 569.1944873228981 139.43567699505314 L 568.3931114131161 139.5848081208803 L 567.5508721375238 139.65072174624027 L 566.6764115910976 139.62752735263024 L 565.7790782696443 139.51022763797863 L 564.8688354242889 139.29479592506655 L 563.956161383465 138.9782442465687 L 563.0519427825413 138.55868130360727 L 562.1673617193435 138.03535958868665 L 561.3137779226288 137.40871106528712 L 560.5026070793731 136.68037090432824 L 559.745196514904 135.85318889118383 L 559.0526994569684 134.93122823490916 L 558.4359491403335 133.91975163274176 L 557.9053340221956 132.82519456664522 L 557.4706753802892 131.65512593353185 L 557.1411085550924 130.41819623566914 L 556.924969074902 129.1240736814737 L 556.8296848679623 127.78336866826776 L 556.8616757195047 126.40754723646685 L 557.0262610738476 125.00883419796243 L 557.3275772130796 123.60010674907447 L 557.7685047648533 122.1947794793368 L 558.3506074031354 120.80668178055618 L 559.074082508107 119.44992874513711 L 559.9377244456637 118.13878671773969 L 560.9389010140095 116.88753472917188 L 562.0735434856933 115.71032309533506 L 563.336150549114 114.62103050645743 L 564.7198063251706 113.63312096228537 L 566.2162125034641 112.75950192698015 L 567.8157345094749 112.01238508292155 L 569.5074614806445 111.40315105529672 L 571.2792796965018 110.94221945921288 L 573.1179589771085 110.6389255881935 L 575.009251436377 110.50140501748999 L 576.9380018534263 110.53648733797407 L 578.888268807246 110.74960016688593 L 580.8434556086627 111.14468450093204 L 582.7864499600123 111.72412238578585 L 584.6997711780343 112.48867777468168 L 586.5657237302403 113.43745133833372 L 588.3665557602544 114.56784986977921 L 590.0846212141257 115.87557080193085 L 591.7025441280634 117.35460222370212 L 593.2033835990225 118.99723864367024 L 594.5707979335219 120.79411260955254 L 595.7892064573971 122.73424214852136 L 596.8439474700717 124.80509384883383 L 597.7214308415541 126.99266125868787 L 598.4092837786659 129.28155813493044 L 598.8964883289271 131.65512593353185 L 599.1735092457691 134.0955547968826 L 599.2324109069857 136.584017161224 L 599.0669620590778 139.10081298211662 L 598.6727272527964 141.62552545795535 L 598.0471439390474 144.13718602228417 L 597.1895843085716 146.61444727609552 L 596.1014010825537 149.03576244240182 L 594.7859565935316 151.37956984803307 L 593.2486346356123 153.62448087264235 L 591.4968347088655 155.74946975298744 L 589.539948433669 157.7340635922952 L 587.3893180654165 159.55853090037624 L 585.0581771970726 161.2040669804977 L 582.5615738951916 162.6529744840758 L 579.9162766728601 163.88883747412004 L 577.1406638591628 164.8966873730262 L 574.2545970778473 165.66315921962482 L 571.2792796965018 166.17663672406346 L 568.2371012504071 166.42738468672803 L 565.1514689809926 166.40766743845776 L 562.0466277562567 166.11185206312612 L 558.947469758399 165.53649527947525 L 555.8793354311581 164.6804129860231 L 552.867807274885 163.54473160992546 L 549.9384981602944 162.13292054678544 L 547.1168359012379 160.45080513239344 L 544.4278458820334 158.50655974800026 L 541.8959335752145 156.31068082665843 L 539.5446688105368 153.87593969803655 L 537.3965736653336 151.21731538149976 L 535.4729158395903 148.35190761069404 L 533.7935093563092 145.29883054590084 L 532.3765243888954 142.07908780155057 L 531.2383079625654 138.71542958400985 L 530.3932172064799 135.23219289762127 L 529.8534667478639 131.65512593353188 L 529.6289917393767 128.01119790469312 L 529.7273278971339 124.32839573020566 L 530.1535097998893 120.6355091016263 L 530.9099885609097 116.96190558174989 L 531.9965698340649 113.33729749159664 L 533.4103729557844 109.7915024328618 L 535.1458118560465 106.354199369987 L 537.1945981958085 103.05468225750509 L 539.5457670066755 99.92161324370551 L 542.1857249226125 96.98277751041282 L 545.0983209046597 94.26484182036515 L 548.2649391694807 91.79311883803986 L 551.6646138427482 89.5913392666746 L 555.2741646704536 87.68143380369042 L 559.0683529368227 86.08332685890716 L 563.0200565582068 84.81474390515345 L 567.1004631496684 83.89103423958105 L 571.2792796965018 83.3250108267876 L 575.5249573080846 83.12680877247783 L 579.8049293876451 83.30376383972188 L 584.0858614200677 83.86031226990107 L 588.333910461963 84.79791300829099 L 592.5149923150285 86.11499326114918 L 596.5950542762249 87.80691812849062 L 600.5403512873842 89.86598486587492 L 604.3177232532913 92.28144213100681 L 607.894871261686 95.03953436834766 L 611.2406304214526 98.12357127887977 L 614.3252370368702 101.51402211435222 L 617.1205878563176 105.18863432745762 L 619.6004891733048 109.12257590318674 L 621.7408936159919 113.28860049380427 L 623.5201225381447 117.65723428219242 L 624.9190720193222 122.19698330741981 L 625.9214005943816 126.87455980395447 L 626.5136969613524 131.65512593353182 L 626.6856260614848 136.50255312785862 L 626.4300520847538 141.37969511249216 L 625.7431371271508 146.248672548758 L 624.6244144113914 151.0711671126723 L 623.0768351788302 155.80872272865003 L 621.1067885658669 160.42305159230813 L 618.7240939913605 164.8763425517516 L 615.9419658008585 169.1315693710842 L 612.776950137044 173.1527963740739 L 609.2488342319167 176.90547896031433 L 605.3805285430188 180.35675650110198 L 601.1979223816293 183.47573515767138 L 596.7297139034384 186.23375822028052 L 592.0072155499086 188.60466164267072 L 587.0641362395017 190.56501254219302 L 581.9363418104309 192.0943285507943 L 576.6615954088234 193.17527603534046 L 571.2792796965019 193.79384535648876 L 565.830102919431 193.9395015024437 L 560.3557910297246 193.60530861622587 L 554.8987681896152 192.7880271311991 L 549.5018281036821 191.4881824380702 L 544.2077987247923 189.71010422580594 L 539.0592029586722 187.46193586722063 L 534.0979180509446 184.75561345559223 L 529.3648363781867 181.60681433972033 L 524.8995303806018 178.03487524943185 L 520.7399243678877 174.06268034970958 L 516.92197590173 169.71651980738633 L 513.4793694080385 165.0259196977124 L 510.4432245998075 160.02344431705998" fill="none" stroke="#9d4edd" stroke-width="1" opacity="0.3" class="drift" />
<circle cx="348.83467947770833" cy="151.92758668896028" r="1.5181951523341946" fill="white" opacity="0.7250365469224438"  style="animation-delay: 4.780761407755701s" />
<circle cx="596.4437080616051" cy="188.015955193251" r="1.9401226758703927" fill="white" opacity="0.7225760619950736" class="shimmer" style="animation-delay: 2.7446345404941352s" />
<circle cx="43.87305782822768" cy="26.33134454679005" r="0.8909998105517435" fill="white" opacity="0.48506665369140706"  style="animation-delay: 3.9846168262683177s" />
<circle cx="100.48472393223821" cy="14.284229131703663" r="1.5978176956070702" fill="white" opacity="0.7229659551781449"  style="animation-delay: 2.8654808391546407s" />
<circle cx="41.12084175019319" cy="23.49518551940326" r="0.9889283033296568" fill="white" opacity="0.645624042785572" class="shimmer" style="animation-delay: 1.8742115539310544s" />
<circle cx="648.3692290175428" cy="38.697543836274086" r="1.7028679612932798" fill="white" opacity="0.6178550555237936"  style="animation-delay: 2.276241978604828s" />
<circle cx="224.97382826912434" cy="181.86242242746795" r="0.540518104475407" fill="white" opacity="0.3480368883951766"  style="animation-delay: 2.0265496557159857s" />
<circle cx="228.59384659164502" cy="43.06326154433502" r="1.5949872915009715" fill="white" opacity="0.722191821082252"  style="animation-delay: 0.47261343102913966s" />
<circle cx="153.77702160938415" cy="12.995367650564438" r="1.1047421591140159" fill="white" opacity="0.7428321828746731"  style="animation-delay: 2.617984894164007s" />
<circle cx="72.34653964119016" cy="15.08607409889251" r="1.423700660250098" fill="white" opacity="0.7814352380611573"  style="animation-delay: 1.3104773408919401s" />
<circle cx="240.35091160301877" cy="175.74941953814337" r="1.135521307877073" fill="white" opacity="0.6819739341277413"  style="animation-delay: 3.4535640097263376s" />
<circle cx="639.2973660776947" cy="49.99945794638192" r="1.1165904288709367" fill="white" opacity="0.5167006788449964"  style="animation-delay: 2.182306121483971s" />
<circle cx="571.5122907113359" cy="29.107331865876283" r="0.5500256310904682" fill="white" opacity="0.6737801223706366"  style="animation-delay: 0.20910969767237164s" />
<circle cx="435.47499126076764" cy="83.99472035740811" r="1.8818846422176896" fill="white" opacity="0.4701244987252399" class="shimmer" style="animation-delay: 1.4073835816454416s" />
<circle cx="623.5232206343392" cy="191.7933578571153" r="0.7556038080245335" fill="white" opacity="0.5397364040874588"  style="animation-delay: 0.7031967506192971s" />
<circle cx="745.9923446321463" cy="60.158384564999466" r="0.8845772534256935" fill="white" opacity="0.7155362691712399"  style="animation-delay: 1.1997215511902715s" />
<circle cx="214.11349071649664" cy="192.21915154583246" r="0.6125314769307458" fill="white" opacity="0.4085360568287983" class="shimmer" style="animation-delay: 2.0766440962530943s" />
<circle cx="593.0021166836115" cy="27.90381798100796" r="1.4978631503552091" fill="white" opacity="0.41471017084052825" class="shimmer" style="animation-delay: 2.960246460523659s" />
<circle cx="339.57183417250735" cy="136.20367845813695" r="0.966501334719752" fill="white" opacity="0.48278069033201515"  style="animation-delay: 1.0651966330311546s" />
<circle cx="310.0673705868609" cy="65.94827192339223" r="1.2014431214696355" fill="white" opacity="0.7636118907186993"  style="animation-delay: 4.6680326080218535s" />
<circle cx="266.761277779233" cy="100.19708220972126" r="0.833285199934641" fill="white" opacity="0.5042825847511268"  style="animation-delay: 2.4059172333504875s" />
<circle cx="693.0101210164528" cy="23.140924745244984" r="0.8003682404194641" fill="white" opacity="0.7875140681393602"  style="animation-delay: 2.0996621489396086s" />
<circle cx="273.3297129811158" cy="177.93113880033684" r="0.9552929948632172" fill="white" opacity="0.4893219486000117"  style="animation-delay: 4.250843333341559s" />
<circle cx="373.5162551693413" cy="10.175052577930233" r="1.0840470966715507" fill="white" opacity="0.6502977850839371"  style="animation-delay: 0.847585690240118s" />
<circle cx="150.11564799128683" cy="35.46152618074121" r="0.6130486825595468" fill="white" opacity="0.378537004229518"  style="animation-delay: 3.798038124947168s" />
<circle cx="607.6154858514933" cy="125.48142974545739" r="0.7126184003883166" fill="white" opacity="0.5462452973484426" class="shimmer" style="animation-delay: 2.5638372775041294s" />
<circle cx="783.3690673032935" cy="153.81137701114068" r="1.6408985236083522" fill="white" opacity="0.6449582658510851"  style="animation-delay: 0.27425384829831145s" />
<circle cx="47.85801834108092" cy="0.2542258274771836" r="0.8215976165696321" fill="white" opacity="0.6904001682733434"  style="animation-delay: 4.494847738735963s" />
<circle cx="195.92562893296446" cy="114.77120616207608" r="1.7304795670921003" fill="white" opacity="0.6367622944094182" class="shimmer" style="animation-delay: 1.7775847204098216s" />
<circle cx="714.7757604094668" cy="72.21650815008411" r="1.5558453292376644" fill="white" opacity="0.5192162029247249"  style="animation-delay: 2.4839075592105706s" />
<circle cx="238.06812884070325" cy="35.27367395799325" r="1.9141804987959545" fill="white" opacity="0.5657890205561229"  style="animation-delay: 3.5799486213882616s" />
<circle cx="181.55956464928698" cy="147.4800394456033" r="1.2413192934070185" fill="white" opacity="0.4776814784623286"  style="animation-delay: 3.2868071595088697s" />
<circle cx="575.8627217133055" cy="154.6212395552113" r="1.8044960445656804" fill="white" opacity="0.7110242822612423"  style="animation-delay: 0.07147786940612688s" />
<circle cx="158.4340942726758" cy="85.0114909738239" r="1.7476682438640543" fill="white" opacity="0.7633463155362614"  style="animation-delay: 0.058908984283385646s" />
<circle cx="567.8503377503148" cy="136.30025617491154" r="1.8944196632824126" fill="white" opacity="0.46629620323917603" class="shimmer" style="animation-delay: 3.5351050164211317s" />
<circle cx="89.03217228126738" cy="175.85170954319725" r="1.370335056834213" fill="white" opacity="0.4800885165922251"  style="animation-delay: 3.101577748048295s" />
<circle cx="641.6749058961802" cy="2.3652151801296206" r="1.6140514801539976" fill="white" opacity="0.4899708043049323" class="shimmer" style="animation-delay: 3.9421774454977268s" />
<circle cx="373.45885004156776" cy="105.85401590550201" r="0.8527288675314967" fill="white" opacity="0.45263133328555977"  style="animation-delay: 2.3326638796612844s" />
<circle cx="124.90521620948165" cy="55.51457624883574" r="1.5223228586082755" fill="white" opacity="0.546344910589811"  style="animation-delay: 0.13219322596223937s" />
<circle cx="704.1758156183963" cy="12.639617151387395" r="1.1685387217818293" fill="white" opacity="0.7722996275377125"  style="animation-delay: 3.1148393156539633s" />
<circle cx="257.6980817553977" cy="115.20670340213739" r="1.7088495751221915" fill="#e0aaff" opacity="0.8" filter="url(#glow)" class="shimmer" style="animation-delay: 0.01060786085874943s" />
<circle cx="637.1451541044245" cy="4.8267317152508316" r="2.4946340750383165" fill="#e0aaff" opacity="0.8" filter="url(#glow)" class="shimmer" style="animation-delay: 1.062806438420074s" />
<circle cx="273.5877851544252" cy="24.62573225795022" r="1.5585262919375613" fill="#9d4edd" opacity="0.8" filter="url(#glow)" class="shimmer" style="animation-delay: 2.095702034202663s" />
<circle cx="131.72349354214106" cy="181.14930383627882" r="2.3276055791332775" fill="#7b2cbf" opacity="0.8" filter="url(#glow)" class="shimmer" style="animation-delay: 2.835586318438541s" />
<circle cx="621.28500093707" cy="148.04135656807543" r="2.8997207960189133" fill="#e0aaff" opacity="0.8" filter="url(#glow)" class="shimmer" style="animation-delay: 2.4354965330185876s" />
<circle cx="713.8359968526947" cy="190.4590808266199" r="2.26359932692601" fill="#c77dff" opacity="0.8" filter="url(#glow)" class="shimmer" style="animation-delay: 0.7661698314800254s" />
<circle cx="341.88384297566705" cy="64.26094754395346" r="2.649954300460045" fill="#9d4edd" opacity="0.8" filter="url(#glow)" class="shimmer" style="animation-delay: 2.1131530012819177s" />
<circle cx="779.5898574885165" cy="161.4862564578288" r="1.3955116322464756" fill="#e0aaff" opacity="0.8" filter="url(#glow)" class="shimmer" style="animation-delay: 0.4825479191570299s" />
<line x1="517.5927590637973" y1="64.65112252240942" x2="168.04673952224232" y2="117.89723382934446" stroke="#e0aaff" stroke-width="0.5" opacity="0.3" />
<line x1="168.04673952224232" y1="117.89723382934446" x2="337.8520393699569" y2="53.763075339898975" stroke="#e0aaff" stroke-width="0.5" opacity="0.3" />
<line x1="337.8520393699569" y1="53.763075339898975" x2="321.21741656089085" y2="79.73448398418003" stroke="#e0aaff" stroke-width="0.5" opacity="0.3" />

  
    <text x="400" y="120" text-anchor="middle" class="name-text" fill="url(#textGrad)" filter="url(#textGlow)">
      JOEL HOOKS
    </text>
  
</svg>
