<svg xmlns="http://www.w3.org/2000/svg" viewBox="0 0 800 200" width="800" height="200">
  <rect width="800" height="200" fill="#05010d"/>
  
    <defs>
      <linearGradient id="grad1" x1="0%" y1="0%" x2="100%" y2="100%">
        <stop offset="0%" style="stop-color:#4a0080;stop-opacity:0.8" />
        <stop offset="100%" style="stop-color:#7b2cbf;stop-opacity:0.8" />
      </linearGradient>
      <linearGradient id="grad2" x1="100%" y1="0%" x2="0%" y2="100%">
        <stop offset="0%" style="stop-color:#9d4edd;stop-opacity:0.7" />
        <stop offset="100%" style="stop-color:#c77dff;stop-opacity:0.7" />
      </linearGradient>
      <linearGradient id="textGrad" x1="0%" y1="0%" x2="100%" y2="0%">
        <stop offset="0%" style="stop-color:#4a0080" />
        <stop offset="25%" style="stop-color:#7b2cbf" />
        <stop offset="50%" style="stop-color:#9d4edd" />
        <stop offset="75%" style="stop-color:#c77dff" />
        <stop offset="100%" style="stop-color:#e0aaff" />
      </linearGradient>
      <filter id="glow">
        <feGaussianBlur stdDeviation="5" result="coloredBlur"/>
        <feMerge>
          <feMergeNode in="coloredBlur"/>
          <feMergeNode in="SourceGraphic"/>
        </feMerge>
      </filter>
      <filter id="textGlow">
        <feGaussianBlur stdDeviation="2" result="coloredBlur"/>
        <feMerge>
          <feMergeNode in="coloredBlur"/>
          <feMergeNode in="SourceGraphic"/>
        </feMerge>
      </filter>
    </defs>
  
  
    <style>
      @keyframes float {
        0%, 100% { transform: translateY(0px); }
        50% { transform: translateY(-8px); }
      }
      @keyframes pulse {
        0%, 100% { opacity: 0.4; }
        50% { opacity: 0.9; }
      }
      @keyframes drift {
        0% { transform: translateX(0px); }
        50% { transform: translateX(10px); }
        100% { transform: translateX(0px); }
      }
      @keyframes shimmer {
        0% { opacity: 0.3; }
        50% { opacity: 1; }
        100% { opacity: 0.3; }
      }
      @keyframes glitch {
        0%, 100% { transform: translateX(0); }
        20% { transform: translateX(-2px); }
        40% { transform: translateX(2px); }
        60% { transform: translateX(-1px); }
        80% { transform: translateX(1px); }
      }
      @keyframes dataStream {
        0% { stroke-dashoffset: 0; }
        100% { stroke-dashoffset: -20; }
      }
      .float { animation: float 8s ease-in-out infinite; }
      .pulse { animation: pulse 8s ease-in-out infinite; }
      .drift { animation: drift 8s ease-in-out infinite; }
      .shimmer { animation: shimmer 3s ease-in-out infinite; }
      .glitch { animation: glitch 0.5s ease-in-out infinite; }
      .dataStream { animation: dataStream 2s linear infinite; }
      .name-text { 
        font-family: -apple-system, BlinkMacSystemFont, 'Segoe UI', Helvetica, Arial, sans-serif;
        font-weight: 700;
        font-size: 64px;
        letter-spacing: -2px;
      }
    </style>
  
  <path d="M 257.78919444686323 194.9527075450439 C 264.67927882523327 210.792115366572, 261.9337505851254 250.7623858230121, 249.12496649283895 263.1411841447383 C 236.3161824005525 275.5199824664645, 201.66407462115973 271.2274049472842, 180.93648989314454 269.2254974754012 C 160.20890516512935 267.2235900035182, 133.94687368846297 263.50853763516676, 124.7594581247479 251.12973931344055 C 115.57204256103282 238.75094099171434, 125.46090709697155 213.3272953872936, 125.81199651085407 194.9527075450439 C 126.16308592473659 176.5781197027942, 117.67857904432795 149.0278026410825, 126.86599460804302 140.88221225994238 C 136.05341017175812 132.73662187880225, 167.45007895738192 141.54207776559858, 180.93648989314454 146.07916525820312 C 194.42290082890716 150.61625275080766, 194.9756761303323 159.95914683442956, 207.78446022261875 168.10473721556968 C 220.5932443149052 176.2503275967098, 250.8991100684932 179.11329972351578, 257.78919444686323 194.9527075450439 Z" fill="#9d4edd" opacity="0.18931910091991155" filter="url(#glow)" class="float" />
<path d="M 649.9270397238602 99.20321388020703 C 649.0623846828694 106.19434943092287, 607.5554206595689 106.0863084657558, 595.4052085408756 117.58265540938199 C 583.2549964221823 129.07900235300815, 589.8405440872011 161.49299897618855, 577.0257670117006 168.1812955419641 C 564.2109899362001 174.86959210773963, 529.1644909593324 169.20878174766136, 518.5165460878725 157.71243480403518 C 507.86860121641257 146.216087860409, 515.0617780894844 120.6299678280265, 513.138097782941 99.20321388020704 C 511.2144174763976 77.7764599323876, 496.3265193771521 45.35717977202576, 506.97446424861204 29.151911117118473 C 517.622409120072 12.946642462211184, 561.4226545886659 -5.775719880564767, 577.0257670117006 1.971601950763315 C 592.6288794347354 9.718923782091398, 588.4429266681274 59.43057345017968, 600.5931387868206 75.63584210508697 C 612.7433509055139 91.84111075999425, 650.791694764851 92.21207832949119, 649.9270397238602 99.20321388020703 Z" fill="#c77dff" opacity="0.10501045031603379" filter="url(#glow)" class="float" />
<path d="M 347.36718305257983 69.80269457897728 C 350.4311501910637 83.61481508197596, 369.3963466833105 110.07733757339271, 363.67652682456713 120.43095750342482 C 357.95670696582374 130.78457743345695, 332.09476260732333 129.75400309344872, 313.0482639001196 131.92441415916994 C 294.00176519291585 134.09482522489117, 261.3376973199181 143.8070438277842, 249.39753458134476 133.45342389775212 C 237.45737184277144 123.09980396772, 243.0900926848363 92.70240956805891, 241.4072874686796 69.8026945789773 C 239.72448225252293 46.90297958989568, 227.3605405458314 14.391205476707775, 239.30070328440473 -3.9448660367375794 C 251.24086602297805 -22.280937550182934, 295.38292711524304 -47.130917922056554, 313.0482639001196 -40.21373450169483 C 330.71360068499615 -33.29655108133311, 339.5729041349207 19.22216297198742, 345.2927239936641 37.55823448543277 C 351.0125438524075 55.894305998878124, 344.303215914096 55.99057407597861, 347.36718305257983 69.80269457897728 Z" fill="#7b2cbf" opacity="0.14454974573652274" filter="url(#glow)" class="float" />
<path d="M 312.0218000303799 119.57592762328821 C 309.30960844520956 137.30497389848603, 288.3510529256694 160.5117927984976, 272.5403832888577 167.53400736570183 C 256.729713652046 174.55622193290606, 230.62967887423795 162.5069474123984, 217.15778220950952 161.7092150265136 C 203.6858855447811 160.91148264062878, 203.9821534935476 159.30686091732125, 191.7090033004871 162.74761305039294 C 179.4358531074266 166.18836518346464, 160.73392108705875 184.19045288769505, 143.51888105114645 182.35372782494375 C 126.30384101523416 180.51700276219245, 96.17333348086149 167.1292567923561, 88.4187630850133 151.72726267388512 C 80.6641926891651 136.32526855541414, 84.28920682746214 101.70225989383415, 96.99145867605735 89.9417631141178 C 109.69371052465256 78.18126633440146, 149.84718886170745 90.38384054493103, 164.6322741765846 81.164281995587 C 179.41735949146172 71.94472344624297, 172.219785866112 45.59741542072547, 185.7019705653202 34.624411818053616 C 199.1841552645284 23.651408215381764, 228.3401219994073 10.903707396812319, 245.52538237183387 15.326260379555876 C 262.71064274426044 19.748813362299433, 277.73079652345524 43.7847851738929, 288.81353279987957 61.15972971451496 C 299.8962690763039 78.53467425513702, 314.7339916155502 101.84688134809039, 312.0218000303799 119.57592762328821 Z" fill="#7b2cbf" opacity="0.1311501154018002" filter="url(#glow)" class="float" />
<path d="M 442.0291384617697 98.95115911930466 L 442.0291384617697 98.95115911930466 L 442.3912865824229 98.98284297437903 L 442.7451556773626 99.07741227306543 L 443.0825717615584 99.2334257212631 L 443.3955698120314 99.44849945796808 L 443.67649546154774 99.71933430401641 L 443.9181033780809 100.0417535222267 L 444.11365127593837 100.41075070528031 L 444.25698854724993 100.82054730434939 L 444.3426385552605 101.26465921279546 L 444.3658736930756 101.73597172615494 L 444.32278238258857 102.22682211299829 L 444.21032726761376 102.72908895192708 L 444.02639394202026 103.23428731872758 L 443.7698296470917 103.73366884522049 L 443.4404714715619 104.21832561824816 L 443.03916369185595 104.67929684404781 L 442.567763998034 105.1076771704083 L 442.0291384617697 105.49472553683688 L 441.4271452153567 105.8319734117146 L 440.766606924162 106.1113312752336 L 440.0532722480607 106.32519221782556 L 439.2937665991209 106.46653154574383 L 438.4955326120957 106.52900131828366 L 437.6667608500816 106.5070187845495 L 436.81631136899955 106.39584774133564 L 435.95362686037436 106.1916718971154 L 435.0886381812973 105.89165939977705 L 434.2316631625889 105.49401776696122 L 433.39329966021376 104.99803854691804 L 432.5843138802137 104.40413113391485 L 431.81552506314586 103.71384526451747 L 431.09768765967635 102.92988182861204 L 430.441372164094 102.05609174084745 L 429.85684579669055 101.09746273323788 L 429.3539542389093 100.06009404690761 L 428.9420056267053 98.95115911930466 L 428.629657997603 97.77885648155299 L 428.42481136550475 96.55234919784989 L 428.33450556451663 95.28169329384501 L 428.36482495915305 93.97775573267045 L 428.52081106358975 92.65212260466836 L 428.8063840475913 91.31699829885041 L 429.2242740318764 89.98509651974001 L 429.7759629916285 88.66952410155865 L 430.46163799431577 87.38365865185068 L 431.28015639776254 86.14102112779337 L 432.22902352736185 84.95514450988642 L 433.3043832383934 83.83943978881499 L 434.5010216515946 82.80706052147983 L 435.8123842284769 81.87076724103383 L 437.23060622847635 81.04279302289676 L 438.7465564639895 80.33471151388943 L 440.34989414282813 79.75730872468745 L 442.0291384617697 79.32045986670802 L 443.77175049086003 79.03301248338114 L 445.5642267670715 78.90267708270363 L 447.39220389898 78.93592642331936 L 449.24057337238935 79.13790454051048 L 451.0936056413683 79.51234652192375 L 452.93508249099006 80.06150995619257 L 454.7484365681289 80.78611888154907 L 456.51689689586635 81.6853209568329 L 458.2236391162053 82.75665846486909 L 459.85193914561154 83.99605363894682 L 461.38532887905023 85.39780867810227 L 462.807752541193 86.95462068716226 L 464.10372225879553 88.65761164416728 L 465.2584714162181 90.49637336202649 L 466.2581043569098 92.45902727426066 L 467.089741007521 94.53229873767745 L 467.7416550281437 96.70160540902442 L 468.2034041318986 98.95115911930466 L 468.46595126945004 101.26408053973365 L 468.5217754387068 103.6225258084534 L 468.36497095648724 106.00782416826553 L 467.99133411674137 108.40062555390969 L 467.3984362583516 110.78105696386552 L 466.5856823738155 113.12888635729111 L 465.55435450738764 115.42369273245833 L 464.30763931657197 117.64504096975196 L 462.8506393031869 119.7726599607218 L 461.1903673584782 121.78662249547698 L 459.3357244097666 123.66752534444751 L 457.2974601026782 125.3966679476616 L 455.0881166018694 126.95622811553142 L 452.72195574303333 128.3294331499305 L 450.2148699185643 129.500724813177 L 447.5842772272439 130.455916605392 L 444.84900156338864 131.18234185743543 L 442.0291384617697 131.66899120696573 L 439.1459076500021 131.90663809874175 L 436.221493388774 131.88795103657776 L 433.27887380105824 131.60759141275437 L 430.3416405031793 131.06229585045384 L 427.4338099522466 130.25094211508753 L 424.5796280150172 129.17459778028402 L 421.80336934182156 127.83655097278489 L 419.1291331949718 126.24232266643747 L 416.58063743337095 124.3996601477034 L 414.1810123932669 122.31851143236383 L 411.9525964287646 120.01098057409611 L 409.9167348844792 117.49126396897925 L 408.093584266342 114.7755679243666 L 406.5019233549664 111.88200792455365 L 405.15897296916523 108.83049018784989 L 404.08022603534636 105.64257626862585 L 403.27928955188213 102.34133161226222 L 402.76773995657646 98.95115911930468 L 402.5549933105758 95.49761891619839 L 402.64819160416056 92.00723566246195 L 403.0521063695878 88.50729484684253 L 403.769060654443 85.02562963672887 L 404.7988702667859 81.59039994481927 L 406.13880505185676 78.22986546378596 L 407.7835708004272 74.97215449256201 L 409.7253122223064 71.84503043615611 L 411.9536372463894 68.8756579039243 L 414.45566273235994 66.09037035847132 L 417.21608150018375 63.514441278437225 L 420.217250403329 61.17186079308048 L 423.4392989917455 59.085119724675984 L 426.86025813253536 57.2750029363238 L 430.4562077814739 55.76039382796796 L 434.2014429286015 54.558091752545266 L 438.0686565774735 53.6826440376603 L 442.0291384617697 53.146194196579174 L 446.05298805621464 52.958347796354 L 450.10934030245943 53.12605732135947 L 454.16660234598237 53.65352722839055 L 458.1926994683309 54.54214023580047 L 462.15532830121737 55.79040572511988 L 466.02221532605444 57.393930960458036 L 469.76137859530695 59.34541565009986 L 473.3413905612689 61.63467018751083 L 476.7316398641317 64.24865771694274 L 479.90258991493357 67.17155997354428 L 482.82603211049945 70.38486665092418 L 485.4753315369275 73.86748785209785 L 487.82566305559936 77.59588898431817 L 489.85423572092805 81.5442472660848 L 491.54050355183864 85.68462882725821 L 492.86636076886515 89.98718520228948 L 493.8163197151709 94.42036784366988 L 494.3776698020274 98.95115911930463 L 494.54061595647715 103.54531810508823 L 494.29839520005095 108.16763934384144 L 493.64737015141606 112.78222261526794 L 492.5870984214514 117.35275164985124 L 491.1203770551554 121.84277962371468 L 489.25326136955 126.2160191923555 L 486.99505773883686 130.43663475963632 L 484.358290085894 134.46953463515456 L 481.3586400511133 138.28066070864816 L 478.01486102388077 141.83727326479905 L 474.34866643694465 145.10822857589676 L 470.38459293774275 148.06424694339606 L 466.1498392617185 150.67816891233525 L 461.6740818389749 152.9251974546405 L 456.9892683655669 154.78312400810574 L 452.1293907626319 156.23253636673616 L 447.13023912874326 157.2570065444626 L 442.02913846176983 157.84325687709457 L 436.8646700846475 157.98130278576892 L 431.67637985338604 157.66457079792195" fill="none" stroke="#c77dff" stroke-width="1" opacity="0.3" class="drift" />
<path d="M 223.53518119051427 73.64102193590026 L 223.53518119051427 73.64102193590026 L 223.8335570195784 73.66712643841352 L 224.1251117138079 73.74504260390039 L 224.4031106819647 73.87358294222156 L 224.6609914977947 74.05078337718041 L 224.89244768602134 74.2739256969124 L 225.09150977772578 74.53956866467433 L 225.25262276663136 74.8435874739322 L 225.37071913307457 75.18122114651452 L 225.44128664590167 75.54712739128766 L 225.4604302037821 75.93544436410063 L 225.42492703599305 76.33985869836997 L 225.33227464806242 76.75367911032326 L 225.18073096914586 77.16991482421868 L 224.96934623499482 77.58135801138172 L 224.69798622212076 77.98066939315244 L 224.36734653451532 78.3604661222494 L 223.9789577332397 78.7134110299906 L 223.53518119051427 79.0323023085447 L 223.0391956427623 79.31016268811888 L 222.49497451051295 79.54032716883668 L 221.90725414626516 79.7165283760533 L 221.28149326347338 79.83297862594256 L 220.6238238898584 79.88444781523285 L 219.94099427541798 79.86633628474628 L 219.24030426897158 79.77474185060416 L 218.52953375601794 79.60652024922125 L 217.81686482435202 79.35933830206248 L 217.1107983915532 79.03171917305015 L 216.42006608945775 78.62307916488977 L 215.75353825445674 78.13375557977062 L 215.12012891837034 77.5650252541756 L 214.52869873227093 76.91911346614152 L 213.98795678455946 76.19919300543455 L 213.50636229452232 75.40937329190251 L 213.09202717326943 74.5546795238644 L 212.75262044522538 73.64102193590026 L 212.49527551514117 72.6751553429096 L 212.32650124793503 71.66462924389774 L 212.2520978016586 70.61772885372336 L 212.2770781177101 69.54340752309867 L 212.40559592735616 68.45121109560063 L 212.64088108003372 67.35119483448175 L 212.98518293722356 66.25383363084683 L 213.4397225064326 65.16992627752185 L 214.00465391357722 64.1104946589632 L 214.6790357294823 63.08667876617851 L 215.460812578014 62.10962849625692 L 216.34680736032166 61.1903932382082 L 217.33272433259518 60.339810279930816 L 218.41316317451228 59.56839309489503 L 219.58164408305217 58.88622058124284 L 220.8306438225108 58.30282833026553 L 222.15164255731142 57.82710299550095 L 223.53518119051427 57.467180817966934 L 224.9709288287436 57.230351337372674 L 226.447759894518 57.12296728367824 L 227.95384031061897 57.15036159834197 L 229.47672208907656 57.31677248033419 L 231.00344557045764 57.62527728891665 L 232.520648478255 58.07773606378519 L 234.01468087907844 58.67474534402273 L 235.47172507277475 59.41560288105789 L 236.87791937822612 60.29828374818838 L 238.2194847309967 61.319428250986206 L 239.4828529687444 62.47434193988925 L 240.65479564984082 63.757007919385444 L 241.7225522303092 65.16011153833742 L 242.67395641428138 66.67507743413755 L 243.4975594938743 68.29211879051037 L 244.18274950579178 70.00029855589558 L 244.71986505406807 71.78760225745873 L 245.10030268109202 73.64102193590026 L 245.31661671219632 75.54665061936832 L 245.36261055237907 77.48978665190516 L 245.23341847677517 79.45504709393273 L 244.9255770288422 81.42648932022328 L 244.43708522132337 83.38773985548738 L 243.76745282426387 85.3221294099632 L 242.9177361209786 87.21283300797515 L 241.8905606161173 89.0430140420428 L 240.69013028900096 90.79597103438692 L 239.32222309931038 92.45528584714337 L 237.794172570036 94.0049720527172 L 236.11483539335129 95.42962215686134 L 234.29454512772085 96.7145523595207 L 232.34505217803772 97.84594354242924 L 230.27945037383193 98.81097718796289 L 228.11209058252012 99.59796496082056 L 225.85848191419453 100.19647072260852 L 223.53518119051427 100.59742379912245 L 221.15967146180753 100.7932223807368 L 218.75023046250817 100.77782600740785 L 216.32578999455401 100.54683617086377 L 213.90578732043053 100.09756415699009 L 211.51000973128342 99.42908535053488 L 209.15843353012912 98.54227933128438 L 206.87105873492865 97.43985520495141 L 204.66774086048966 96.12636173226402 L 202.56802118125273 94.60818194516176 L 200.59095690851046 92.89351206857847 L 198.75495273511052 90.99232469893276 L 197.07759520791865 88.9163163250595 L 195.5754913830683 86.67883941275056 L 194.26411320122338 84.2948194091844 L 193.157648989749 81.78065715714574 L 192.26886345595116 79.1541173399073 L 191.60896748065153 76.43420370481918 L 191.18749895464762 73.64102193590027 L 191.01221582252325 70.79563116195483 L 191.08900240936387 67.91988519589296 L 191.42179000684814 65.03626470201215 L 192.01249258666255 62.16770158005583 L 192.86095839205413 59.33739693702567 L 193.96493803349566 56.56863408919284 L 195.3200695828763 53.88458809680391 L 196.91988102338982 51.308133381993585 L 198.75581027047795 48.86165101586391 L 200.81724283395403 46.566837283135754 L 203.09156704397103 44.44451514190972 L 205.5642466150328 42.51445019167012 L 208.2189101740202 40.795172744628786 L 211.0374572314694 39.3038075638475 L 214.000179931341 38.05591278643238 L 217.085899774506 37.06532949169437 L 220.27211837635664 36.34404330288303 L 223.53518119051424 35.902059327389175 L 226.85045300969838 35.74729164475475 L 230.19250394252273 35.88546844510708 L 233.53530446233012 36.3200538035315 L 236.8524280321194 37.05218694928665 L 240.11725972903258 38.080639753614605 L 243.30320922354383 39.401793017247094 L 246.3839264131214 41.009631989675505 L 249.333517968303 42.89576139801512 L 252.12676302132542 45.04944010508912 L 254.73932621403947 47.457635355457924 L 257.1479663230916 50.105096405846254 L 259.33073869637894 52.97444717409657 L 261.26718976561125 56.046297379762464 L 262.9385419453289 59.29937149109462 L 264.32786728868473 62.71065463879918 L 265.42024834436296 66.2555545078908 L 266.202924746686 69.908078076504 L 266.66542417166977 73.64102193590024 L 266.79967640481425 77.42617480032307 L 266.60010939095025 81.23453069991001 L 266.06372627158567 85.0365112456439 L 265.19016255988976 88.8021952632661 L 263.9817227566254 92.50155401406238 L 262.44339587080196 96.10469015525204 L 260.5828494753259 99.58207854201807 L 258.41040209916 102.90480693757112 L 255.93897393210028 106.04481467748619 L 253.18401599483866 108.97512733018613 L 250.16341810407894 111.67008540706445 L 246.89739613864023 114.10556520339938 L 243.40835928629582 116.25918989482274 L 239.72075812108056 118.11052907347677 L 235.86091452554322 119.64128498277333 L 231.8568346305249 120.83546379939173 L 227.7380060951493 121.67953041522645 L 223.53518119051438 122.1625452897002 L 219.28014728085276 122.27628207335472 L 215.0054864145034 122.01532484597902 L 210.74432584284276 121.37714396567424 L 206.53008137738772 120.36214968803763 L 202.39619557270848 118.97372288583693 L 198.3758727848402 117.21822237782243 L 194.50181320088572 115.10496855929867 L 190.8059479649614 112.64620321530677 L 187.31917753815347 109.85702558826104 L 184.07111542546775 106.75530496410681 L 181.08983938076324 103.36157023297568 L 178.40165216138058 99.69887707034837 L 176.0308538477663 95.79265357132563 L 173.99952767017587 91.67052535222726 L 172.32734119493853 87.36212130885693 L 171.03136461738004 82.8988613879122 L 170.1259077880336 78.313727885774 L 169.62237746406987 73.64102193590028 L 169.52915612990532 68.91610698100015 L 169.85150357079272 64.17514114788821 L 170.59148221203765 59.454800550301044 L 171.747907055615 54.79199563701299 L 173.31632085675213 50.223582778450634 L 175.28899498695753 45.78607334390405 L 177.6549562285291 41.51534256276091 L 180.40003954034705 37.44634048646532 L 183.50696662737852 33.61280737276478 L 186.95544993842563 30.04699580009308" fill="none" stroke="#c77dff" stroke-width="1" opacity="0.3" class="drift" />
<circle cx="502.33629724839267" cy="18.018318126929866" r="0.9718881671891252" fill="white" opacity="0.5059624093997597" class="shimmer" style="animation-delay: 3.1273216847751906s" />
<circle cx="615.3025677551078" cy="13.717352362137003" r="0.9788437817390511" fill="white" opacity="0.5517539378351" class="shimmer" style="animation-delay: 0.7315810150750757s" />
<circle cx="448.71265069781697" cy="138.858273194344" r="0.9713709529124035" fill="white" opacity="0.751550086337688" class="shimmer" style="animation-delay: 0.3330272905837772s" />
<circle cx="335.0764859548725" cy="12.704120060753255" r="1.5059950021984598" fill="white" opacity="0.4700927107808695" class="shimmer" style="animation-delay: 0.1700273274399411s" />
<circle cx="403.81268210846406" cy="184.60288995635295" r="0.6602234473681438" fill="white" opacity="0.5622954382555905"  style="animation-delay: 4.6798543956661955s" />
<circle cx="689.5583828808658" cy="122.09133351777268" r="1.8790875680509471" fill="white" opacity="0.5626756196262204" class="shimmer" style="animation-delay: 0.5898841812315858s" />
<circle cx="51.36208837071106" cy="175.76424913941824" r="1.2306465293439106" fill="white" opacity="0.5917935524242133"  style="animation-delay: 2.710781997599482s" />
<circle cx="308.26401600465306" cy="70.35755388225296" r="1.0812971635879345" fill="white" opacity="0.5183502031233773"  style="animation-delay: 2.9862758486486616s" />
<circle cx="336.66082493303674" cy="106.56808570154865" r="0.7447817545043687" fill="white" opacity="0.7707372259998" class="shimmer" style="animation-delay: 2.8795413021517002s" />
<circle cx="8.365190319765503" cy="21.902550551272437" r="1.4634333365500605" fill="white" opacity="0.6449107282179483"  style="animation-delay: 1.4199545853235795s" />
<circle cx="358.8191550130912" cy="141.60472295507677" r="1.432202520229751" fill="white" opacity="0.7808591657878576"  style="animation-delay: 0.3107723779570548s" />
<circle cx="630.3093136884607" cy="178.76043641442746" r="1.2583993682969485" fill="white" opacity="0.7674932832699013"  style="animation-delay: 3.60606429037738s" />
<circle cx="165.47426098503237" cy="63.99719395853754" r="0.987262644475367" fill="white" opacity="0.37316986654169665" class="shimmer" style="animation-delay: 2.691625648277891s" />
<circle cx="114.91370517290332" cy="26.071943001080157" r="1.3395649568370782" fill="white" opacity="0.3416851481833823"  style="animation-delay: 4.2200731752841145s" />
<circle cx="162.99638503456765" cy="42.73230680666629" r="0.5973527557414946" fill="white" opacity="0.5018187407226313" class="shimmer" style="animation-delay: 0.2771619094905886s" />
<circle cx="660.1512649500135" cy="119.67607178971242" r="1.8962531641772982" fill="white" opacity="0.36892346937736303"  style="animation-delay: 0.9118838191756651s" />
<circle cx="249.0500697109038" cy="128.14483093256933" r="1.6570822923465722" fill="white" opacity="0.690090971414093"  style="animation-delay: 3.877553640180299s" />
<circle cx="283.05829601883994" cy="40.44810979020643" r="1.1650914723149994" fill="white" opacity="0.37215956914344644" class="shimmer" style="animation-delay: 1.2605366776641724s" />
<circle cx="769.9262209591973" cy="26.926650536655174" r="1.5202501672539515" fill="white" opacity="0.4441645670089028" class="shimmer" style="animation-delay: 1.7122345726064592s" />
<circle cx="87.06674789121305" cy="52.563907135518576" r="1.0348539379392565" fill="white" opacity="0.342820419743689"  style="animation-delay: 3.3437863693486136s" />
<circle cx="591.0801902329162" cy="118.06851636733468" r="0.5299138593911717" fill="white" opacity="0.7026130426943666"  style="animation-delay: 3.103217111568828s" />
<circle cx="700.7553759918554" cy="143.64103758849947" r="0.6565455738475559" fill="white" opacity="0.4625922546904198"  style="animation-delay: 4.12670830617834s" />
<circle cx="196.48053596203496" cy="139.469846996946" r="1.7161760207957704" fill="white" opacity="0.5575163075962783" class="shimmer" style="animation-delay: 2.597998971722213s" />
<circle cx="647.7414882213013" cy="151.2575995055903" r="1.5447428947720492" fill="white" opacity="0.6656621957431561"  style="animation-delay: 4.878730735784279s" />
<circle cx="253.05243210207175" cy="198.05286719413834" r="0.7669794863918721" fill="white" opacity="0.3384001751114309"  style="animation-delay: 1.132198041639506s" />
<circle cx="500.7326641626724" cy="120.14570236311198" r="1.446412908219354" fill="white" opacity="0.6851888212738575"  style="animation-delay: 2.4684368487294597s" />
<circle cx="127.82235879328229" cy="106.2125639491319" r="1.8160605986321239" fill="white" opacity="0.37228482680189395" class="shimmer" style="animation-delay: 2.5677658733888364s" />
<circle cx="786.7349973817646" cy="139.58487008439386" r="1.4559610930503806" fill="white" opacity="0.5794592570131105"  style="animation-delay: 1.1823444411875128s" />
<circle cx="545.1055638305022" cy="178.37587508412307" r="1.56581795205603" fill="white" opacity="0.5185899898281603"  style="animation-delay: 2.543441835625786s" />
<circle cx="185.14192958357984" cy="101.64764477960912" r="0.7818970446637842" fill="white" opacity="0.4906466580959246"  style="animation-delay: 4.747835943923163s" />
<circle cx="213.35380927065052" cy="101.64583225566966" r="0.7110043557082871" fill="white" opacity="0.7914274646888986"  style="animation-delay: 2.553113772403478s" />
<circle cx="79.06534259498218" cy="13.949438673295322" r="1.64964749801711" fill="white" opacity="0.5361895315755325"  style="animation-delay: 4.283476971637711s" />
<circle cx="406.8694239705653" cy="188.84281300522923" r="1.4273224345792654" fill="white" opacity="0.3260237768675955"  style="animation-delay: 1.7235358080980867s" />
<circle cx="478.42519747352236" cy="43.527912215160214" r="0.7253423096989545" fill="white" opacity="0.7548466122100363"  style="animation-delay: 1.4876065926735205s" />
<circle cx="436.305731286876" cy="162.08784662189947" r="1.273432095836755" fill="white" opacity="0.6587149104361592" class="shimmer" style="animation-delay: 2.5364294899512974s" />
<circle cx="771.0060837864864" cy="175.9256026048578" r="1.9047679846353063" fill="white" opacity="0.5305888573205033"  style="animation-delay: 2.462282480388872s" />
<circle cx="750.1336068219346" cy="145.06674331657857" r="1.572789191292343" fill="white" opacity="0.3235272496976383"  style="animation-delay: 1.859816406307384s" />
<circle cx="316.16365541589283" cy="2.2793107659301537" r="1.6812540914667262" fill="white" opacity="0.7786565303672388" class="shimmer" style="animation-delay: 1.4163336132720195s" />
<circle cx="325.631888824503" cy="56.523213622312696" r="1.329921009336232" fill="white" opacity="0.5158855943132841" class="shimmer" style="animation-delay: 1.8869732751009316s" />
<circle cx="194.03201938182892" cy="94.13524036859648" r="1.780361523561242" fill="white" opacity="0.3322508260708645" class="shimmer" style="animation-delay: 0.9286373253248481s" />
<circle cx="8.635639322949906" cy="159.72418498523498" r="1.42099284690069" fill="#4a0080" opacity="0.8" filter="url(#glow)" class="shimmer" style="animation-delay: 1.4209486579752164s" />
<circle cx="345.22668967930167" cy="184.50605823422103" r="1.321954648387075" fill="#4a0080" opacity="0.8" filter="url(#glow)" class="shimmer" style="animation-delay: 1.2081210335180288s" />
<circle cx="168.09377316231178" cy="152.21117773456695" r="2.925129891796606" fill="#e0aaff" opacity="0.8" filter="url(#glow)" class="shimmer" style="animation-delay: 1.6782859443317517s" />
<circle cx="136.28659247806604" cy="97.63903248245684" r="2.860503846088556" fill="#c77dff" opacity="0.8" filter="url(#glow)" class="shimmer" style="animation-delay: 1.6743535430385357s" />
<circle cx="675.7611161431488" cy="114.24464628983446" r="2.2726826452510624" fill="#e0aaff" opacity="0.8" filter="url(#glow)" class="shimmer" style="animation-delay: 2.5838458463470015s" />
<circle cx="4.944708247339058" cy="28.664850569248657" r="2.9044553850574855" fill="#7b2cbf" opacity="0.8" filter="url(#glow)" class="shimmer" style="animation-delay: 2.852780808843505s" />
<circle cx="404.2566524858728" cy="118.6488604106274" r="2.089772848411626" fill="#4a0080" opacity="0.8" filter="url(#glow)" class="shimmer" style="animation-delay: 0.03419372063413961s" />
<circle cx="773.9837581132298" cy="153.61524092971877" r="1.9983757257242099" fill="#4a0080" opacity="0.8" filter="url(#glow)" class="shimmer" style="animation-delay: 0.9406078002664464s" />
<line x1="251.70162534902147" y1="128.36376085684194" x2="619.1820163043478" y2="105.53071593260242" stroke="#e0aaff" stroke-width="0.5" opacity="0.3" />
<line x1="619.1820163043478" y1="105.53071593260242" x2="403.49264145651574" y2="57.22417498051032" stroke="#e0aaff" stroke-width="0.5" opacity="0.3" />
<line x1="403.49264145651574" y1="57.22417498051032" x2="240.4355133043656" y2="113.2172404780554" stroke="#e0aaff" stroke-width="0.5" opacity="0.3" />

  
    <text x="400" y="120" text-anchor="middle" class="name-text" fill="url(#textGrad)" filter="url(#textGlow)">
      JOEL HOOKS
    </text>
  
</svg>
