<svg xmlns="http://www.w3.org/2000/svg" viewBox="0 0 800 200" width="800" height="200">
  <rect width="800" height="200" fill="#05010d"/>
  
    <defs>
      <linearGradient id="grad1" x1="0%" y1="0%" x2="100%" y2="100%">
        <stop offset="0%" style="stop-color:#4a0080;stop-opacity:0.8" />
        <stop offset="100%" style="stop-color:#7b2cbf;stop-opacity:0.8" />
      </linearGradient>
      <linearGradient id="grad2" x1="100%" y1="0%" x2="0%" y2="100%">
        <stop offset="0%" style="stop-color:#9d4edd;stop-opacity:0.7" />
        <stop offset="100%" style="stop-color:#c77dff;stop-opacity:0.7" />
      </linearGradient>
      <linearGradient id="textGrad" x1="0%" y1="0%" x2="100%" y2="0%">
        <stop offset="0%" style="stop-color:#4a0080" />
        <stop offset="25%" style="stop-color:#7b2cbf" />
        <stop offset="50%" style="stop-color:#9d4edd" />
        <stop offset="75%" style="stop-color:#c77dff" />
        <stop offset="100%" style="stop-color:#e0aaff" />
      </linearGradient>
      <filter id="glow">
        <feGaussianBlur stdDeviation="5" result="coloredBlur"/>
        <feMerge>
          <feMergeNode in="coloredBlur"/>
          <feMergeNode in="SourceGraphic"/>
        </feMerge>
      </filter>
      <filter id="textGlow">
        <feGaussianBlur stdDeviation="2" result="coloredBlur"/>
        <feMerge>
          <feMergeNode in="coloredBlur"/>
          <feMergeNode in="SourceGraphic"/>
        </feMerge>
      </filter>
    </defs>
  
  
    <style>
      @keyframes float {
        0%, 100% { transform: translateY(0px); }
        50% { transform: translateY(-8px); }
      }
      @keyframes pulse {
        0%, 100% { opacity: 0.4; }
        50% { opacity: 0.9; }
      }
      @keyframes drift {
        0% { transform: translateX(0px); }
        50% { transform: translateX(10px); }
        100% { transform: translateX(0px); }
      }
      @keyframes shimmer {
        0% { opacity: 0.3; }
        50% { opacity: 1; }
        100% { opacity: 0.3; }
      }
      @keyframes glitch {
        0%, 100% { transform: translateX(0); }
        20% { transform: translateX(-2px); }
        40% { transform: translateX(2px); }
        60% { transform: translateX(-1px); }
        80% { transform: translateX(1px); }
      }
      @keyframes dataStream {
        0% { stroke-dashoffset: 0; }
        100% { stroke-dashoffset: -20; }
      }
      .float { animation: float 8s ease-in-out infinite; }
      .pulse { animation: pulse 8s ease-in-out infinite; }
      .drift { animation: drift 8s ease-in-out infinite; }
      .shimmer { animation: shimmer 3s ease-in-out infinite; }
      .glitch { animation: glitch 0.5s ease-in-out infinite; }
      .dataStream { animation: dataStream 2s linear infinite; }
      .name-text { 
        font-family: -apple-system, BlinkMacSystemFont, 'Segoe UI', Helvetica, Arial, sans-serif;
        font-weight: 700;
        font-size: 64px;
        letter-spacing: -2px;
      }
    </style>
  
  <path d="M 532.5606467309553 144.9075179585585 C 541.2401364148974 159.83948789425168, 519.6869816491089 207.18687085016387, 502.9453728609585 215.7418968174643 C 486.2037640728081 224.29692278476472, 450.8986273922664 201.06149999178263, 432.11099400205273 196.23767376236106 C 413.32336061183906 191.41384753293949, 405.62279803260446 195.35396540823524, 390.2195725196764 186.79893944093482 C 374.8163470067483 178.2439134736344, 339.9700584659054 159.14974266077195, 339.6916409244841 144.9075179585585 C 339.41322338306276 130.66529325634502, 373.1458417582203 115.12449502737533, 388.5490672711484 101.34559122765413 C 403.95229278407646 87.56668742793292, 421.7244327543598 58.10001416428941, 432.11099400205273 62.23409516023125 C 442.4975552497457 66.36817615617308, 434.1268259691557 112.37117340358392, 450.8684347573061 126.15007720330513 C 467.6100435454565 139.92898100302634, 523.8811570470133 129.9755480228653, 532.5606467309553 144.9075179585585 Z" fill="#e0aaff" opacity="0.16370106394579878" filter="url(#glow)" class="float" />
<path d="M 539.3395431009387 24.542687387902482 C 539.264766563755 41.47764306786956, 559.3751407985844 58.64025758819723, 556.6932960688799 75.20338654043644 C 554.0114513391754 91.76651549267565, 537.947153189568 121.51199296684165, 523.2484747227119 123.92146110133777 C 508.54979625585577 126.33092923583389, 481.2030084611672 100.29415360646935, 468.50122526774334 89.66019534741318 C 455.7994420743195 79.02623708835701, 461.1423949979011 66.37096070079136, 447.03777556216863 60.11771154700076 C 432.9331561264362 53.86446239321017, 394.5746142493648 62.720551035458556, 383.87350865334884 52.14070042466963 C 373.1724030573329 41.56084981388071, 376.90901721525336 12.482192749137685, 382.83114198607274 -3.3613921177327732 C 388.7532667568921 -19.20497698460323, 404.68873597881884 -39.77309356129039, 419.4062572782651 -42.92080877655312 C 434.1237785777114 -46.06852399181586, 454.2828490927511 -17.921749989625845, 471.13626978275056 -22.24768340930919 C 487.98969047275 -26.573616828992535, 506.19250050005655 -68.1832986063104, 520.5267814182619 -68.8764092946532 C 534.8610623364672 -69.569519982996, 554.0064950115361 -41.97619698645862, 557.1419552919823 -26.406347539366003 C 560.2774155724285 -10.83649809227339, 539.4143196381225 7.607731707935407, 539.3395431009387 24.542687387902482 Z" fill="#e0aaff" opacity="0.13233855915105255" filter="url(#glow)" class="float" />
<path d="M 580.5893201958548 79.5819967936676 C 581.6552511755865 99.5837404235159, 535.3223197956338 121.51806140168976, 515.7181278875331 142.27049455907235 C 496.1139359794325 163.02292771645492, 485.75917600946565 196.6292685746822, 462.96416874725094 204.09659573796307 C 440.1691614850362 211.56392290124396, 393.25359595416177 203.95195520675784, 378.9480843142449 187.0744575387576 C 364.64257267432805 170.19695987075735, 385.7514596920805 127.64928864364762, 377.1310989077499 102.83160972996166 C 368.5107381234193 78.01393081627569, 327.40654706001146 60.79610410065565, 327.2259196082612 38.168384056641834 C 327.045292156511 15.54066401262802, 353.67976923347817 -20.533425732875763, 376.0473341972486 -32.93471053412122 C 398.414899161019 -45.33599533536668, 439.2187747555678 -45.43844863651489, 461.43130939088354 -36.23932475083093 C 483.6438440261993 -27.04020086514697, 489.4628735416478 2.956479189232784, 509.32254200914304 22.260032779982538 C 529.1822104766383 41.563586370732295, 579.5233892161232 59.58025316381929, 580.5893201958548 79.5819967936676 Z" fill="#9d4edd" opacity="0.13565787610638158" filter="url(#glow)" class="float" />
<path d="M 519.791385608286 124.87581210032963 C 522.6884729816919 146.07268105157297, 537.842242348611 184.391304280621, 526.9626658953604 195.75925379359944 C 516.0830894421098 207.12720330657788, 478.7455102913581 187.31308665594824, 454.5139268887824 193.08350917820036 C 430.28234348620674 198.85393170045248, 401.81488211995554 235.11192577002353, 381.57316547990655 230.3817889271122 C 361.33144883985756 225.6516520842009, 333.7504177921256 186.2321303052788, 333.06362704848834 164.7026881207325 C 332.3768363048511 143.1732459361862, 367.94809181676135 122.96879442830382, 377.45242101808327 101.20513581983447 C 386.9567502194052 79.44147721136511, 375.3265617582789 52.429350242722144, 390.0896022564198 34.12073646991631 C 404.85264275456075 15.812122697110475, 446.11557410717785 -14.389430753037725, 466.03066400692865 -8.64654681700054 C 485.94575390667944 -2.9036628809633553, 500.6200213880319 46.32431359991773, 509.5801416549248 68.57804008613942 C 518.5402619218177 90.83176657236112, 516.89429823488 103.6789431490863, 519.791385608286 124.87581210032963 Z" fill="#4a0080" opacity="0.16557218222095477" filter="url(#glow)" class="float" />
<path d="M 467.670128238071 88.9988132231729 L 467.670128238071 88.9988132231729 L 468.27440533932304 89.05168061916076 L 468.8648681326332 89.209478101513 L 469.4278775799994 89.46980073983896 L 469.95014331562226 89.8286708450797 L 470.41889333108816 90.28058343651593 L 470.8220381304561 90.81856924800289 L 471.14832759637994 91.434274633257 L 471.3874988798131 92.11805755760795 L 471.5304137138581 92.85909869895998 L 471.56918365611483 93.64552652535055 L 471.4972818824889 94.46455507194412 L 471.309640287731 95.30263300794311 L 471.00273079276286 96.14560246501743 L 470.57462991474483 96.97886599460227 L 470.0250658214013 97.78755993281499 L 469.3554472647918 98.55673237967022 L 468.5688739698647 99.27152394445773 L 467.670128238071 99.91734937215283 L 466.66564771430166 100.48007814696182 L 465.5634794546701 100.94621216879456 L 464.37321562140863 101.30305861667182 L 463.1059113175836 101.53889614970478 L 461.7739852566931 101.64313265105169 L 460.3911041387511 101.60645279271334 L 458.97205177348496 101.42095378856202 L 457.5325841511571 101.08026780883478 L 456.08927181070976 100.57966965053413 L 454.6593309919736 99.9161683936956 L 453.26044518221966 99.08858192209276 L 451.9105787761455 98.09759334732284 L 450.62778466136484 96.94578854589965 L 449.43000761766103 95.63767419842732 L 448.33488547685846 94.17967590649953 L 447.3595500305142 92.58011615495454 L 446.52042969424934 90.84917208274805 L 445.8330559401112 88.9988132231729 L 445.31187549174524 87.04271957162204 L 444.97007024138986 84.99618053471107 L 444.8193867930016 82.87597550651418 L 444.8699774625585 80.70023700410488 L 445.13025447533056 78.48829747376011 L 445.6067589913753 76.26052104936299 L 446.30404646560174 74.03812170408484 L 447.22458970848936 71.84296938378009 L 448.36870085913563 69.69738584423752 L 449.7344733150694 67.62393203315575 L 451.31774448464915 65.64518896024137 L 453.1120800394311 63.78353408409203 L 455.10878014730935 62.06091531160506 L 457.29690796423597 60.49862475378229 L 459.66334045474804 59.11707441038983 L 462.1928414012285 57.93557596455661 L 464.8681562507144 56.972126856814356 L 467.670128238071 56.243204776233135 L 470.57783501740334 55.76357265431026 L 473.5687448315937 55.54609617543228 L 476.6188910547261 55.601575726533014 L 479.7030637557196 55.93859459867978 L 482.7950167555187 56.5633851255708 L 485.86768848637087 57.47971429932181 L 488.89343481166105 58.68879024362347 L 491.8442718299427 60.18919074967151 L 494.69212656858053 61.976814892663356 L 497.40909337200793 64.04485854769244 L 499.9676937080827 66.38381441524908 L 502.3411370543072 68.98149695004302 L 504.5035804845005 71.82309236437636 L 506.4303845564423 74.89123365075727 L 508.09836310242457 78.16610033985361 L 509.4860245477468 81.62554248126949 L 510.57380242696644 85.24522810803475 L 511.3442728339907 88.99881322317289 L 511.78235662947054 92.85813313028679 L 511.87550433687113 96.79341372175645 L 511.6138617862814 100.77350113982429 L 510.99041471154476 104.76610803940216 L 510.0011106705348 108.73807450865547 L 508.64495683907745 112.65564154596271 L 506.9240924247006 116.48473485126492 L 504.8438346554922 120.19125656752345 L 502.4126975201548 123.74138250525655 L 499.64238266603036 127.10186230102957 L 496.5477421004968 130.24031990026475 L 493.1467125856908 133.12555171656444 L 489.46022186490245 135.72781980446408 L 485.5120671090673 138.01913739052475 L 481.3287662213867 139.97354413909696 L 476.9393828850353 141.56736858390815 L 472.37532648099074 142.77947523460517 L 467.670128238071 143.5914939680725 L 462.85919520317566 143.98802943710928 L 457.97954383442664 143.9568483730325 L 453.0695152214233 143.4890428229538 L 448.1684741232612 142.57916754562729 L 443.3164941845536 141.22534999049836 L 438.55403184079125 139.42937150133469 L 433.92159155547705 137.1967186168827 L 429.4593851412416 134.53660358451384 L 425.2069880044131 131.46195345683074 L 421.20299521629465 127.98936740361117 L 417.4846803538991 124.13904214010074 L 414.08766006752415 119.93466564528268 L 411.04556732191816 115.40327961803919 L 408.38973622173853 110.57511139274975 L 406.14890127057646 105.48337630648487 L 404.34891382627626 100.16405177519802 L 403.0124784041019 94.65562459387407 L 402.1589113441915 88.99881322317293 L 401.8039242015978 83.23626706049608 L 401.95943403715194 77.41224491446764 L 402.6334025867197 71.57227510652875 L 403.829706066636 65.7627998097825 L 405.5480371358839 60.030806401620616 L 407.783840282754 54.42344875140311 L 410.52828163728105 48.987661486076995 L 413.7682539328103 43.769770373864645 L 417.48641705283904 38.81510203794086 L 421.66127430515394 34.1675962574767 L 426.2672842666412 29.869424131920802 L 431.2750077414713 25.96061537547071 L 436.65128907516987 22.4786979721584 L 442.35947076991357 19.458353357859792 L 448.3596400547627 16.93109020410786 L 454.608905780985 14.924939760318665 L 461.0617037395883 13.46417556666691 L 467.67012823807096 12.569060180313443 L 474.38428752852934 12.255621364162806 L 481.1526804518371 12.535459971194328 L 487.9225914547114 13.415591520251027 L 494.640500950042 14.898323202757268" fill="none" stroke="#4a0080" stroke-width="1" opacity="0.3" class="drift" />
<path d="M 215.71022135922425 116.98929939118476 L 215.71022135922425 116.98929939118476 L 215.95171276472118 117.01042715150469 L 216.18768346351922 117.0734888424378 L 216.4126827932486 117.17752336514559 L 216.62139943380492 117.32094108844811 L 216.80872921980378 117.50154201911646 L 216.9698407430047 117.71654098148687 L 217.10023804179613 117.96259955055885 L 217.19581970337342 118.23586441383792 L 217.2529337394148 118.5320117713753 L 217.2684276375407 118.84629732137124 L 217.2396930382407 119.1736113209406 L 217.16470453982848 119.50853815874565 L 217.04205219184666 119.84541982869156 L 216.870967299646 120.17842265221711 L 216.65134122902842 120.50160656130649 L 216.3837369692486 120.80899622554449 L 216.06939328466294 121.09465328463249 L 215.71022135922425 121.35274893299744 L 215.3087939131457 121.57763609562633 L 214.86832684669383 121.76392043413442 L 214.39265354149842 121.90652942935517 L 213.8861920242758 122.00077880137846 L 213.3539052707384 122.04243554985064 L 212.8012549980158 122.02777692630656 L 212.23414936145963 121.95364468608437 L 211.6588850356015 121.81749400966959 L 211.08208421865262 121.61743653175638 L 210.51062715470212 121.3522769704708 L 209.9515808171407 121.02154290859171 L 209.412124440322 120.62550734269533 L 208.8994726236311 120.1652036843613 L 208.42079676257887 119.64243296929159 L 207.98314558495645 119.05976310475391 L 207.5933655862098 118.42052006248646 L 207.2580221668319 117.72877100238206 L 206.98332227559888 116.98929939118476 L 206.77503935583803 116.20757225934761 L 206.6384413776199 115.38969981737696 L 206.57822271690776 114.54238772969396 L 206.59844061341752 113.67288241855121 L 206.70245690247205 112.7889098421448 L 206.8928856727611 111.89860825906996 L 207.1715474519969 111.01045555502962 L 207.53943046640376 110.1331917665924 L 207.99665945827155 109.27573749023206 L 208.54247247896862 108.44710891232698 L 209.17520600342678 107.65633023677348 L 209.89228863680734 106.91234432094116 L 210.69024360549358 106.2239223575053 L 211.5647001434323 105.59957345892634 L 212.5104138018901 105.0474550127709 L 213.52129562664516 104.57528467951565 L 214.59045006226833 104.19025489984774 L 215.71022135922425 103.89895076574672 L 216.87224817682 103.7072720888539 L 218.06752599430942 103.6203604709257 L 219.28647686448005 103.64253214472221 L 220.5190259695429 103.777217309765 L 221.75468436881832 104.02690663634623 L 222.9826372622454 104.39310555338027 L 224.1918370337699 104.8762968716297 L 225.3711002847862 105.47591222402862 L 226.50920802055802 106.19031272985097 L 227.59500811241767 107.01677920995952 L 228.61751912596324 107.95151219699676 L 229.5660345808092 108.9896418978615 L 230.43022669099005 110.12524817689994 L 231.2002486270957 111.35139053770773 L 231.86683434178417 112.66014799008563 L 232.42139500954806 114.04266859732829 L 232.85611114950592 115.48922840847023 L 233.16401952647496 116.98929939118476 L 233.33909396049975 118.53162589453915 L 233.37631921813798 120.10430908754729 L 233.27175720983288 121.69489874020553 L 233.02260477625703 123.2904916391885 L 232.62724241214912 124.87783586133297 L 232.0852733483701 126.44344006511221 L 231.39755249110704 127.97368690412094 L 230.56620480071604 129.4549496177163 L 229.59463278093912 130.8737108128996 L 228.4875128414191 132.21668241871384 L 227.25078039180278 133.47092577025145 L 225.89160362345382 134.62397076411105 L 224.41834603406318 135.66393302103688 L 222.8405178503864 136.5796279946692 L 221.16871660408836 137.36068097789075 L 219.41455721435807 137.99763198016325 L 217.59059202769743 138.48203448041107 L 215.71022135922425 138.80654710024817 L 213.78759517011127 138.96501729140493 L 211.83750660158435 138.9525561887532 L 209.87527816643848 138.76560384593944 L 207.91664147353544 138.4019841438306 L 205.97761142852193 137.86094874219597 L 204.07435591439045 137.14320953167197 L 202.22306200789757 136.25095913539528 L 200.43979983172312 135.18787910701224 L 198.7403851771283 133.9591355732807 L 197.14024205735953 132.57136217434922 L 195.65426636782985 131.03263026215382 L 194.2966918349566 129.35240642632067 L 193.08095943128578 127.54149752657781 L 192.01959142012674 125.61198352003198 L 191.12407116837218 123.57713847981387 L 190.40472983159106 121.45134030759597 L 189.8706409710533 119.24996974541652 L 189.52952410834817 116.98929939118477 L 189.38765816005943 114.68637351631317 L 189.4498056230011 112.35887957226748 L 189.7191483003235 110.02501235463396 L 190.1972352709654 107.70333186781085 L 190.8839437101267 105.41261599992832 L 191.7774530673957 103.17170917544459 L 192.87423300268603 100.99936820146756 L 194.16904536906114 98.91410656271404 L 195.65496041674726 96.93403844870772 L 197.32338727509023 95.07672381498435 L 199.16411864986466 93.35901578746262 L 201.165389553182 91.79691171557576 L 203.31394976327707 90.40540916515995 L 205.59514959269194 89.19836811647423 L 207.99303842683014 88.18838059618662 L 210.49047538153567 87.38664892489687 L 213.06925131923387 86.80287370406916 L 215.71022135922425 86.44515259849601 L 218.39344691985445 86.3198908930753 L 221.0983462394189 86.43172471630695 L 223.80385223954 86.78345772813793 L 226.48857652028326 87.37601196731288 L 229.1309782110348 88.20839344400088 L 231.7095363458707 89.27767294801485 L 234.20292438733202 90.57898242231883 L 236.59018548866456 92.10552712668597 L 238.85090706208234 93.84861368832667 L 240.96539320976032 95.79769400608114 L 242.9148335752741 97.94042484343463 L 244.6814671861746 100.26274281423616 L 246.2487398833354 102.74895433468345 L 247.60145396954778 105.38183998696728 L 248.72590875836846 108.14277261502566 L 249.61003076416682 111.0118483522188 L 250.2434923452845 113.96802966543582 L 250.61781769372567 116.98929939118474 L 250.72647515627835 120.05282463757356 L 250.56495497275677 123.13512933265683 L 250.13083162641715 126.21227411526547 L 249.42381011870916 129.26004218992884 L 248.44575560449445 132.2541297035495 L 247.2007059537355 135.17033914873755 L 245.69486694041794 137.984774257683 L 243.93658989805866 140.67403482159472 L 241.93633182246347 143.2154098544239 L 239.70659804529745 145.58706751605646 L 237.26186774536484 147.76824021956236 L 234.61850270707924 149.7394033694764 L 231.7946398762797 151.48244621338222 L 228.81006840112676 152.98083333712134 L 225.6860919791484 154.21975539447502 L 222.44537745946758 155.18626773478204 L 219.11179077073186 155.86941567618965 L 215.71022135922433 156.26034526749888 L 212.26639642707684 156.3523984871835 L 208.80668635647487 156.14119194337198 L 205.35790279137848 155.62467826252373 L 201.94709092279507 154.8031894862827 L 198.60131758630544 153.6794619345413 L 195.34745683076505 152.25864213703733 L 192.2119746543355 150.54827358470618 L 189.22071462784476 148.55826420435486 L 186.39868613560398 146.300834614805 L 183.76985696001694 143.79044737822764 L 181.35695191851892 141.04371761571588 L 179.1812592295912 138.07930550994604 L 177.26244623894047 134.91779136879438 L 175.61838607767464 131.58153407077236 L 174.26499675178792 128.09451385487384 L 173.2160940769723 124.48216055270555 L 172.4832597752747 120.77116848845098 L 172.07572594109746 116.98929939118479 L 172.00027696428083 113.16517477327882 L 172.26116986838235 109.32805932715802 L 172.8600738837392 105.50763697957407 L 173.7960299285133 101.73378131707048 L 175.06543051778138 98.03632215771177 L 176.66202046203028 94.44481009181929 L 178.57691855337515 90.98828084790543 L 180.7986602717185 87.69502135883567 L 183.3132613752228 84.59233940718353 L 186.10430207121178 81.70633871764178 L 189.1530312963026 79.06170133815172 L 192.43849046955654 76.6814791102104 L 195.93765592106055 74.58689597281463 L 199.62559904195146 72.79716277402215 L 203.47566305177017 71.32930617960236 L 207.45965513642608 70.1980131702781 L 211.5480525761994 69.41549250829055 L 215.7102213592243 68.99135443124528 L 219.9146456628889 68.93250969729671 L 224.12916648452827 69.24308896168813 L 228.3212276145999 69.92438331155364 L 232.45812707102354 70.97480662486075 L 236.50727205325128 72.38988025165553 L 240.43643542949613 74.16224034264948 L 244.21401174089402 76.2816679730079 L 247.80927069254298 78.7351420293434 L 251.1926061036066 81.5069146468023 L 254.3357783071029 84.57860880220275" fill="none" stroke="#9d4edd" stroke-width="1" opacity="0.3" class="drift" />
<circle cx="622.2029032406614" cy="192.34874948713684" r="0.99686123096615" fill="white" opacity="0.5193449784352366"  style="animation-delay: 3.2212471328463286s" />
<circle cx="711.8026939787452" cy="121.13301420162328" r="1.8313504951008919" fill="white" opacity="0.39733333367119045"  style="animation-delay: 2.4677233433125134s" />
<circle cx="543.7143215682745" cy="190.1208431457348" r="1.6596352946766384" fill="white" opacity="0.33541802287129435"  style="animation-delay: 1.8190206799841246s" />
<circle cx="545.1736336409532" cy="90.19459487329557" r="1.1939848666989303" fill="white" opacity="0.682269289235133" class="shimmer" style="animation-delay: 4.672936775517522s" />
<circle cx="645.1518902716127" cy="30.428839452074683" r="1.384733169220064" fill="white" opacity="0.7272543323851115"  style="animation-delay: 3.1566912303496144s" />
<circle cx="767.9846341241895" cy="13.567787875902004" r="1.0033275532616917" fill="white" opacity="0.6451300605729837"  style="animation-delay: 0.16740250972302917s" />
<circle cx="374.8911678114791" cy="34.537966858035006" r="0.7071295626992451" fill="white" opacity="0.6678277646171471"  style="animation-delay: 1.4570502618823167s" />
<circle cx="117.34226468090583" cy="36.66835445701473" r="1.3056875785482402" fill="white" opacity="0.5078212783018297"  style="animation-delay: 2.7070179456515744s" />
<circle cx="320.19887213846977" cy="76.8989695708719" r="1.1063123443530296" fill="white" opacity="0.3731782205092174"  style="animation-delay: 1.1162504961355757s" />
<circle cx="644.7659321162133" cy="54.8069165388489" r="1.9997735447131086" fill="white" opacity="0.6237979407535745"  style="animation-delay: 0.3386366755589454s" />
<circle cx="751.0076779123955" cy="19.984268449516485" r="1.948024890551952" fill="white" opacity="0.30014959881538"  style="animation-delay: 4.76364128002086s" />
<circle cx="131.17645757722852" cy="161.11860462959146" r="0.8466871135684066" fill="white" opacity="0.3131311432601395"  style="animation-delay: 3.5198864567949952s" />
<circle cx="410.03400747921467" cy="108.57264380726073" r="1.8578944083664268" fill="white" opacity="0.6451679771081593" class="shimmer" style="animation-delay: 1.6981679294534457s" />
<circle cx="62.089534694392334" cy="91.15167125158203" r="1.8902281891960997" fill="white" opacity="0.4293331076009987" class="shimmer" style="animation-delay: 0.5129650524720275s" />
<circle cx="594.5398234600594" cy="100.80249654333598" r="1.528623503256481" fill="white" opacity="0.5030986207793795"  style="animation-delay: 4.475026215791093s" />
<circle cx="329.3154640157697" cy="154.83678079262" r="1.4891461186379276" fill="white" opacity="0.3647867037416663"  style="animation-delay: 0.5476279209035495s" />
<circle cx="477.301945396054" cy="76.92472699700174" r="1.1374104474745879" fill="white" opacity="0.4289259392614147"  style="animation-delay: 3.9216839911512666s" />
<circle cx="123.6715008907666" cy="80.3555139820475" r="0.9722701435534036" fill="white" opacity="0.41358304745151514"  style="animation-delay: 4.248474750668775s" />
<circle cx="731.6715275882239" cy="56.20397220768698" r="0.9376025624726102" fill="white" opacity="0.4340773268171609"  style="animation-delay: 1.9501313116731267s" />
<circle cx="332.972555584305" cy="183.35561490536801" r="1.1984590229345489" fill="white" opacity="0.359817774991731" class="shimmer" style="animation-delay: 3.8505894163744525s" />
<circle cx="440.95017711623717" cy="102.30417539116755" r="1.6910177054904991" fill="white" opacity="0.5725985998889009" class="shimmer" style="animation-delay: 0.9963669981756218s" />
<circle cx="148.36059507279398" cy="15.669966531490065" r="0.7501335268231908" fill="white" opacity="0.3710074828587892" class="shimmer" style="animation-delay: 1.2040865227838726s" />
<circle cx="772.3105366785887" cy="158.95524043137254" r="1.190798512909282" fill="white" opacity="0.3697471285538167" class="shimmer" style="animation-delay: 3.0166478727778543s" />
<circle cx="2.134678292579828" cy="135.27052923752603" r="0.9116825916243996" fill="white" opacity="0.7910127824449174"  style="animation-delay: 4.973021881526183s" />
<circle cx="294.8892934789285" cy="158.3284715577781" r="1.204896317369559" fill="white" opacity="0.6122603682574277"  style="animation-delay: 0.07745317702336552s" />
<circle cx="562.6442104988693" cy="189.7613351321591" r="0.9483689738550201" fill="white" opacity="0.3098537044376896" class="shimmer" style="animation-delay: 4.733324061534407s" />
<circle cx="701.9706815279321" cy="152.60135696069136" r="0.9008526333688195" fill="white" opacity="0.6099079843300801" class="shimmer" style="animation-delay: 4.911027286286292s" />
<circle cx="158.37748924373614" cy="151.17714482995444" r="1.6340140458079246" fill="white" opacity="0.7465358503465165"  style="animation-delay: 2.361404189909627s" />
<circle cx="172.75005988901793" cy="105.49921474051689" r="0.5608319152518713" fill="white" opacity="0.5929913618541525" class="shimmer" style="animation-delay: 4.114136411606944s" />
<circle cx="572.5463820867172" cy="167.01549741760772" r="0.9958709261741592" fill="white" opacity="0.7864539011963443"  style="animation-delay: 3.38199486299927s" />
<circle cx="16.733581344291082" cy="93.83992705826438" r="1.777273412374025" fill="white" opacity="0.7354148657237793" class="shimmer" style="animation-delay: 2.025207654924283s" />
<circle cx="450.4387056423361" cy="81.73772385802032" r="0.5969409180448754" fill="white" opacity="0.7518840304456307"  style="animation-delay: 2.4907580468112087s" />
<circle cx="40.56058679925343" cy="138.82932093103219" r="1.5296076072444649" fill="white" opacity="0.4350989645961038"  style="animation-delay: 3.3325770676435864s" />
<circle cx="483.47382144590387" cy="146.47761689675013" r="0.7982350125763886" fill="white" opacity="0.770321597987031" class="shimmer" style="animation-delay: 3.7066558162538907s" />
<circle cx="82.8002301812779" cy="153.16298936568091" r="1.5238468242853802" fill="white" opacity="0.7572423962342307"  style="animation-delay: 0.04104785283834511s" />
<circle cx="524.9588310682029" cy="93.63395741640707" r="1.2512231432345" fill="white" opacity="0.48139820757251356"  style="animation-delay: 2.276780674479358s" />
<circle cx="464.76781248904155" cy="52.00323189924943" r="1.5025871078463569" fill="white" opacity="0.34248351843360497"  style="animation-delay: 2.6442963029163744s" />
<circle cx="728.1480296087457" cy="66.57622413084354" r="0.5270296433018299" fill="white" opacity="0.5060548410520447" class="shimmer" style="animation-delay: 3.8905419786042215s" />
<circle cx="277.96849841453763" cy="88.06552733010645" r="1.3387274123496544" fill="white" opacity="0.5326977835105944"  style="animation-delay: 2.036614486471348s" />
<circle cx="122.99835392977947" cy="64.11295207616652" r="1.136842447789563" fill="white" opacity="0.7528458100898638"  style="animation-delay: 4.549253872072533s" />
<circle cx="0.9751377619561907" cy="148.1364567972237" r="1.314472099367682" fill="#c77dff" opacity="0.8" filter="url(#glow)" class="shimmer" style="animation-delay: 1.3118914984193466s" />
<circle cx="181.6892221472724" cy="30.07942320001593" r="1.134473098056155" fill="#4a0080" opacity="0.8" filter="url(#glow)" class="shimmer" style="animation-delay: 1.650175921360009s" />
<circle cx="595.781056412284" cy="11.22689807381736" r="1.2279538343044725" fill="#e0aaff" opacity="0.8" filter="url(#glow)" class="shimmer" style="animation-delay: 1.4757230545621607s" />
<circle cx="139.12806963241843" cy="57.01973676510321" r="1.6640546773811788" fill="#c77dff" opacity="0.8" filter="url(#glow)" class="shimmer" style="animation-delay: 2.8638794680979545s" />
<circle cx="34.536573358688116" cy="151.62070370141612" r="2.9870701350959457" fill="#4a0080" opacity="0.8" filter="url(#glow)" class="shimmer" style="animation-delay: 0.6069044794244365s" />
<circle cx="411.73005770558484" cy="23.476449961324164" r="1.0620638376488736" fill="#e0aaff" opacity="0.8" filter="url(#glow)" class="shimmer" style="animation-delay: 2.2350591275482765s" />
<circle cx="524.9247472273179" cy="139.07758400481015" r="1.6835997723869243" fill="#e0aaff" opacity="0.8" filter="url(#glow)" class="shimmer" style="animation-delay: 0.04580445117945331s" />
<circle cx="239.92181869042622" cy="51.46410604397382" r="1.151112107843879" fill="#9d4edd" opacity="0.8" filter="url(#glow)" class="shimmer" style="animation-delay: 2.2331861826095634s" />
<line x1="321.14208254899376" y1="160.3362641808965" x2="666.1988014855891" y2="81.44590906595843" stroke="#e0aaff" stroke-width="0.5" opacity="0.3" />
<line x1="715.7821188423221" y1="99.32171055791392" x2="133.91485239303472" y2="129.7522136064952" stroke="#e0aaff" stroke-width="0.5" opacity="0.3" />
<line x1="133.91485239303472" y1="129.7522136064952" x2="276.77196075872996" y2="95.12486466503846" stroke="#e0aaff" stroke-width="0.5" opacity="0.3" />

  
    <text x="400" y="120" text-anchor="middle" class="name-text" fill="url(#textGrad)" filter="url(#textGlow)">
      JOEL HOOKS
    </text>
  
</svg>
