<svg xmlns="http://www.w3.org/2000/svg" viewBox="0 0 800 200" width="800" height="200">
  <rect width="800" height="200" fill="#1a0a0a"/>
  
    <defs>
      <linearGradient id="grad1" x1="0%" y1="0%" x2="100%" y2="100%">
        <stop offset="0%" style="stop-color:#ff4500;stop-opacity:0.8" />
        <stop offset="100%" style="stop-color:#ff6b35;stop-opacity:0.8" />
      </linearGradient>
      <linearGradient id="grad2" x1="100%" y1="0%" x2="0%" y2="100%">
        <stop offset="0%" style="stop-color:#f7c59f;stop-opacity:0.7" />
        <stop offset="100%" style="stop-color:#efa48b;stop-opacity:0.7" />
      </linearGradient>
      <linearGradient id="textGrad" x1="0%" y1="0%" x2="100%" y2="0%">
        <stop offset="0%" style="stop-color:#ff4500" />
        <stop offset="25%" style="stop-color:#ff6b35" />
        <stop offset="50%" style="stop-color:#f7c59f" />
        <stop offset="75%" style="stop-color:#efa48b" />
        <stop offset="100%" style="stop-color:#d4a5a5" />
      </linearGradient>
      <filter id="glow">
        <feGaussianBlur stdDeviation="3" result="coloredBlur"/>
        <feMerge>
          <feMergeNode in="coloredBlur"/>
          <feMergeNode in="SourceGraphic"/>
        </feMerge>
      </filter>
      <filter id="textGlow">
        <feGaussianBlur stdDeviation="2" result="coloredBlur"/>
        <feMerge>
          <feMergeNode in="coloredBlur"/>
          <feMergeNode in="SourceGraphic"/>
        </feMerge>
      </filter>
    </defs>
  
  
    <style>
      @keyframes float {
        0%, 100% { transform: translateY(0px); }
        50% { transform: translateY(-8px); }
      }
      @keyframes pulse {
        0%, 100% { opacity: 0.4; }
        50% { opacity: 0.9; }
      }
      @keyframes drift {
        0% { transform: translateX(0px); }
        50% { transform: translateX(10px); }
        100% { transform: translateX(0px); }
      }
      @keyframes shimmer {
        0% { opacity: 0.3; }
        50% { opacity: 1; }
        100% { opacity: 0.3; }
      }
      @keyframes glitch {
        0%, 100% { transform: translateX(0); }
        20% { transform: translateX(-2px); }
        40% { transform: translateX(2px); }
        60% { transform: translateX(-1px); }
        80% { transform: translateX(1px); }
      }
      @keyframes dataStream {
        0% { stroke-dashoffset: 0; }
        100% { stroke-dashoffset: -20; }
      }
      .float { animation: float 8s ease-in-out infinite; }
      .pulse { animation: pulse 8s ease-in-out infinite; }
      .drift { animation: drift 8s ease-in-out infinite; }
      .shimmer { animation: shimmer 3s ease-in-out infinite; }
      .glitch { animation: glitch 0.5s ease-in-out infinite; }
      .dataStream { animation: dataStream 2s linear infinite; }
      .name-text { 
        font-family: -apple-system, BlinkMacSystemFont, 'Segoe UI', Helvetica, Arial, sans-serif;
        font-weight: 700;
        font-size: 64px;
        letter-spacing: -2px;
      }
    </style>
  
  <rect x="0" y="160" width="800" height="50" fill="#ff4500" opacity="0.3" />
<rect x="0" y="170" width="800" height="40" fill="#ff6b35" opacity="0.25" />
<rect x="0" y="180" width="800" height="30" fill="#f7c59f" opacity="0.19999999999999998" />
<rect x="0" y="190" width="800" height="20" fill="#efa48b" opacity="0.14999999999999997" />
<rect x="0" y="200" width="800" height="10" fill="#d4a5a5" opacity="0.09999999999999998" />
<line x1="251.54540476041723" y1="170" x2="251.54540476041723" y2="314.08445448483735" stroke="#ff4500" stroke-width="2.5442197684069887" opacity="0.2558047749666923" class="pulse" />
<line x1="251.54540476041723" y1="170" x2="273.02770355105855" y2="250.17303055004885" stroke="#ff4500" stroke-width="1.3151132816057434" opacity="0.20672315752287573" class="pulse" />
<line x1="251.54540476041723" y1="170" x2="314.37224991167335" y2="278.81928788123804" stroke="#ff4500" stroke-width="2.614954442584427" opacity="0.26629778711243346" class="pulse" />
<line x1="251.54540476041723" y1="170" x2="313.6947136168794" y2="232.1493088564622" stroke="#ff4500" stroke-width="2.782344382383075" opacity="0.11636485867669788" class="pulse" />
<line x1="251.54540476041723" y1="170" x2="334.88442492290113" y2="218.11580572480975" stroke="#ff4500" stroke-width="1.2463989706158136" opacity="0.17027655813229411" class="pulse" />
<line x1="251.54540476041723" y1="170" x2="342.6248000842369" y2="194.40465042413246" stroke="#ff4500" stroke-width="1.6872919148654932" opacity="0.22632967848850405" class="pulse" />
<line x1="251.54540476041723" y1="170" x2="354.1530120166509" y2="170" stroke="#ff4500" stroke-width="1.1615769636723967" opacity="0.20705906888845232" class="pulse" />
<line x1="251.54540476041723" y1="170" x2="349.3304838863264" y2="143.7985670163992" stroke="#ff4500" stroke-width="2.4028361953723243" opacity="0.2927677400898011" class="pulse" />
<line x1="251.54540476041723" y1="170" x2="353.69281859934944" y2="111.02516312306841" stroke="#ff4500" stroke-width="2.0811903384309924" opacity="0.14167671706136448" class="pulse" />
<line x1="251.54540476041723" y1="170" x2="314.9981623108447" y2="106.54724244957256" stroke="#ff4500" stroke-width="2.910368891682992" opacity="0.2487804511024018" class="pulse" />
<line x1="251.54540476041723" y1="170" x2="292.3534644310719" y2="99.31836729212368" stroke="#ff4500" stroke-width="1.1422216088299537" opacity="0.2987435558552959" class="pulse" />
<line x1="251.54540476041723" y1="170" x2="278.569364866874" y2="69.1452078609888" stroke="#ff4500" stroke-width="1.3896428560709362" opacity="0.1994660161236853" class="pulse" />
<path d="M 263.38291102907584 62.39452764357312 C 260.02837385834744 69.85122864907832, 253.52968057126037 70.41984998089538, 249.0977361788312 74.70101914790341 C 244.66579178640205 78.98218831491144, 242.17990645952293 86.79504469537602, 236.79124467450092 88.08154264562127 C 231.4025828894789 89.36804059586652, 221.1567921277591 86.7011760163829, 216.76576546869916 82.42000684937487 C 212.3747388096392 78.13883768236684, 209.43794196844885 68.06254462714797, 210.44508472014127 62.39452764357312 C 211.45222747183368 56.72651065999827, 218.4175953197936 55.14415510248325, 222.80862197885355 48.411904947925755 C 227.1996486379135 41.67965479336826, 229.05518847044289 25.07620868840371, 236.79124467450092 22.001026716228118 C 244.52730087855895 18.925844744052526, 264.79301481077266 23.2285629603147, 269.2249592032018 29.960813114872202 C 273.656903595631 36.6930632694297, 266.73744819980425 54.93782663806792, 263.38291102907584 62.39452764357312 Z" fill="#f7c59f" opacity="0.15793779478448242" class="drift" />
<path d="M 781.0782091890645 61.67369714432849 C 781.8649571856477 75.61411127385061, 772.762571934752 96.90301519628245, 762.2631472082263 105.85518352264424 C 751.7637224817006 114.80735184900603, 731.8127171017231 116.38281295679182, 718.0816608299106 115.38670710249922 C 704.350604558098 114.39060124820661, 687.5046864378708 108.83071672325035, 679.8768095773505 99.87854839688856 C 672.2489327168303 90.92638007052678, 674.3886505366411 76.48289843170035, 672.3143996667892 61.6736971443285 C 670.2401487969373 46.86449585695666, 659.8034274977193 20.25728942079931, 667.4313043582396 11.02334067265749 C 675.0591812187598 1.7893919245156678, 703.0631016848292 4.405111643335221, 718.0816608299106 6.270004655477564 C 733.1002199749919 8.134897667619907, 747.0432345022018 12.978749997369723, 757.5426592287275 22.212698745511545 C 768.0420839552532 31.446647493653366, 780.2914611924814 47.733283014806375, 781.0782091890645 61.67369714432849 Z" fill="#f7c59f" opacity="0.13368842417353632" class="drift" />
<path d="M 616.1527568054329 57.935177207249474 C 615.3959739386579 72.97854365337608, 602.6878966420727 92.72875330974544, 591.4229744617897 100.79492794530441 C 580.1580522815068 108.86110258086337, 562.4891124939427 106.69291982974704, 548.5632237237348 106.33222502060323 C 534.637334953527 105.97153021145942, 516.2442822114789 106.69693372600048, 507.8676418405428 98.63075909044152 C 499.49100146960666 90.56458445488255, 497.0269070926085 70.22389676280389, 498.3033814981181 57.93517720724948 C 499.5798559036277 45.64645765169508, 507.1498479026643 33.731639949211264, 515.5264882736004 24.898441757115087 C 523.9031286445365 16.06524356501891, 535.1570264922616 7.329940136100799, 548.5632237237348 4.935988054672414 C 561.9694209552081 2.5420359732440296, 584.6987494821565 1.7015310764486031, 595.9636716624395 10.53472926854478 C 607.2285938427226 19.367927460640956, 616.9095396722079 42.89181076112287, 616.1527568054329 57.935177207249474 Z" fill="#f7c59f" opacity="0.22905839076440843" class="drift" />
<path d="M 799.1009578803707 76.64200184316802 C 800.9905470457642 91.3434736860746, 793.3415702593294 119.05068034250763, 782.2350561301411 126.41518486806814 C 771.1285420009527 133.77968939362864, 749.0700852044923 120.81187790557966, 732.4618731052409 120.82902899653104 C 715.8536610059895 120.84618008748241, 690.691553119767 133.88259593933685, 682.5857835346326 126.51809141377635 C 674.4800139494981 119.15358688821584, 682.057806730041 91.49791616897771, 683.8272555944341 76.64200184316802 C 685.5967044588272 61.786087517358325, 685.0967071358566 46.755063956196764, 693.2024767209911 37.38260545891819 C 701.3082463061255 28.01014696163962, 719.512699035776 20.269959467544847, 732.4618731052409 20.407250859496585 C 745.4110471747058 20.544542251448323, 759.7910070085919 28.833895313350048, 770.8975211377802 38.20635381062862 C 782.0040352669686 47.57881230790719, 797.2113687149773 61.94053000026143, 799.1009578803707 76.64200184316802 Z" fill="#f7c59f" opacity="0.1453671423719833" class="drift" />
<path d="M 606.7482879661941 58.21608003589243 L 613.9296154879628 54.62541627500808 L 621.1109430097315 58.21608003589243" fill="none" stroke="#d4a5a5" stroke-width="1.5" opacity="0.4" class="float" style="animation-delay: 0.1103571053570569s" />
<path d="M 415.080750682139 25.373566495066186 L 421.7605744232212 22.033654624525077 L 428.4403981643034 25.373566495066186" fill="none" stroke="#d4a5a5" stroke-width="1.5" opacity="0.4" class="float" style="animation-delay: 1.3985893464725763s" />
<path d="M 403.5635908696923 35.51341894851565 L 412.25535441696786 31.16753717487785 L 420.94711796424343 35.51341894851565" fill="none" stroke="#d4a5a5" stroke-width="1.5" opacity="0.4" class="float" style="animation-delay: 2.6329415850975053s" />
<path d="M 482.7713503432637 51.91838722538179 L 490.70357594934717 47.952274422340054 L 498.63580155543065 51.91838722538179" fill="none" stroke="#d4a5a5" stroke-width="1.5" opacity="0.4" class="float" style="animation-delay: 1.6349217630725852s" />
<path d="M 536.2032525330274 33.72216489402189 L 541.2880572286083 31.179762546231412 L 546.3728619241892 33.72216489402189" fill="none" stroke="#d4a5a5" stroke-width="1.5" opacity="0.4" class="float" style="animation-delay: 1.483304973076284s" />

  
    <text x="400" y="120" text-anchor="middle" class="name-text" fill="url(#textGrad)" filter="url(#textGlow)">
      JOEL HOOKS
    </text>
  
</svg>
