<svg xmlns="http://www.w3.org/2000/svg" viewBox="0 0 800 200" width="800" height="200">
  <rect width="800" height="200" fill="#1a0a0a"/>
  
    <defs>
      <linearGradient id="grad1" x1="0%" y1="0%" x2="100%" y2="100%">
        <stop offset="0%" style="stop-color:#ff4500;stop-opacity:0.8" />
        <stop offset="100%" style="stop-color:#ff6b35;stop-opacity:0.8" />
      </linearGradient>
      <linearGradient id="grad2" x1="100%" y1="0%" x2="0%" y2="100%">
        <stop offset="0%" style="stop-color:#f7c59f;stop-opacity:0.7" />
        <stop offset="100%" style="stop-color:#efa48b;stop-opacity:0.7" />
      </linearGradient>
      <linearGradient id="textGrad" x1="0%" y1="0%" x2="100%" y2="0%">
        <stop offset="0%" style="stop-color:#ff4500" />
        <stop offset="25%" style="stop-color:#ff6b35" />
        <stop offset="50%" style="stop-color:#f7c59f" />
        <stop offset="75%" style="stop-color:#efa48b" />
        <stop offset="100%" style="stop-color:#d4a5a5" />
      </linearGradient>
      <filter id="glow">
        <feGaussianBlur stdDeviation="3" result="coloredBlur"/>
        <feMerge>
          <feMergeNode in="coloredBlur"/>
          <feMergeNode in="SourceGraphic"/>
        </feMerge>
      </filter>
      <filter id="textGlow">
        <feGaussianBlur stdDeviation="2" result="coloredBlur"/>
        <feMerge>
          <feMergeNode in="coloredBlur"/>
          <feMergeNode in="SourceGraphic"/>
        </feMerge>
      </filter>
    </defs>
  
  
    <style>
      @keyframes float {
        0%, 100% { transform: translateY(0px); }
        50% { transform: translateY(-8px); }
      }
      @keyframes pulse {
        0%, 100% { opacity: 0.4; }
        50% { opacity: 0.9; }
      }
      @keyframes drift {
        0% { transform: translateX(0px); }
        50% { transform: translateX(10px); }
        100% { transform: translateX(0px); }
      }
      @keyframes shimmer {
        0% { opacity: 0.3; }
        50% { opacity: 1; }
        100% { opacity: 0.3; }
      }
      @keyframes glitch {
        0%, 100% { transform: translateX(0); }
        20% { transform: translateX(-2px); }
        40% { transform: translateX(2px); }
        60% { transform: translateX(-1px); }
        80% { transform: translateX(1px); }
      }
      @keyframes dataStream {
        0% { stroke-dashoffset: 0; }
        100% { stroke-dashoffset: -20; }
      }
      .float { animation: float 8s ease-in-out infinite; }
      .pulse { animation: pulse 8s ease-in-out infinite; }
      .drift { animation: drift 8s ease-in-out infinite; }
      .shimmer { animation: shimmer 3s ease-in-out infinite; }
      .glitch { animation: glitch 0.5s ease-in-out infinite; }
      .dataStream { animation: dataStream 2s linear infinite; }
      .name-text { 
        font-family: -apple-system, BlinkMacSystemFont, 'Segoe UI', Helvetica, Arial, sans-serif;
        font-weight: 700;
        font-size: 64px;
        letter-spacing: -2px;
      }
    </style>
  
  <rect x="0" y="160" width="800" height="50" fill="#ff4500" opacity="0.3" />
<rect x="0" y="170" width="800" height="40" fill="#ff6b35" opacity="0.25" />
<rect x="0" y="180" width="800" height="30" fill="#f7c59f" opacity="0.19999999999999998" />
<rect x="0" y="190" width="800" height="20" fill="#efa48b" opacity="0.14999999999999997" />
<rect x="0" y="200" width="800" height="10" fill="#d4a5a5" opacity="0.09999999999999998" />
<line x1="278.804805183181" y1="170" x2="278.804805183181" y2="269.4648127525875" stroke="#ff4500" stroke-width="2.8294407595514555" opacity="0.23296804495264545" class="pulse" />
<line x1="278.804805183181" y1="170" x2="300.67989911974036" y2="251.63896199158143" stroke="#ff4500" stroke-width="2.2322762376249687" opacity="0.2988285887745984" class="pulse" />
<line x1="278.804805183181" y1="170" x2="332.73299040085766" y2="263.40635675700094" stroke="#ff4500" stroke-width="2.1153798304558427" opacity="0.15718812068524923" class="pulse" />
<line x1="278.804805183181" y1="170" x2="382.61932373194236" y2="273.8145185487614" stroke="#ff4500" stroke-width="1.8105380189025495" opacity="0.21933360205519556" class="pulse" />
<line x1="278.804805183181" y1="170" x2="381.5879762532474" y2="229.34189148546622" stroke="#ff4500" stroke-width="2.9401745624501516" opacity="0.25892323835458186" class="pulse" />
<line x1="278.804805183181" y1="170" x2="367.30325317604" y2="193.71308767109429" stroke="#ff4500" stroke-width="2.1412013648302826" opacity="0.1276945258603603" class="pulse" />
<line x1="278.804805183181" y1="170" x2="385.8985062534388" y2="170" stroke="#ff4500" stroke-width="2.8268906266338534" opacity="0.20607414366833962" class="pulse" />
<line x1="278.804805183181" y1="170" x2="389.6621103779247" y2="140.29587459797793" stroke="#ff4500" stroke-width="1.9130488748139567" opacity="0.11476161713849381" class="pulse" />
<line x1="278.804805183181" y1="170" x2="389.50396737140244" y2="106.08780891156432" stroke="#ff4500" stroke-width="1.4947117597965094" opacity="0.1069973849926405" class="pulse" />
<line x1="278.804805183181" y1="170" x2="381.5761677612562" y2="67.22863742192474" stroke="#ff4500" stroke-width="1.671558070886943" opacity="0.21107607383069243" class="pulse" />
<line x1="278.804805183181" y1="170" x2="337.612655216184" y2="68.14181585894777" stroke="#ff4500" stroke-width="1.4977877661951489" opacity="0.2952569797442085" class="pulse" />
<line x1="278.804805183181" y1="170" x2="304.5317653693304" y2="73.98567746098885" stroke="#ff4500" stroke-width="1.853891330151919" opacity="0.22318550851964578" class="pulse" />
<path d="M 339.83208600572254 30.48222227151966 C 340.16834851577266 43.936141074598055, 334.81141070369307 62.42484182738029, 325.53316685541006 71.85276621090512 C 316.25492300712705 81.28069059442994, 297.7446083472464 87.25796445457527, 284.1626229160246 87.04976857266863 C 270.58063748480276 86.84157269076198, 254.79826037517307 80.03151530299006, 244.04125426807903 70.60359091946523 C 233.284248160985 61.17566653594041, 219.38219532947275 43.617620876847205, 219.6205862734604 30.482222271519667 C 219.85897721744803 17.34682366619213, 234.71459382491085 0.7131681026236745, 245.4715999320049 -8.208800712500008 C 256.2286060390989 -17.13076952762369, 271.1552909388405 -22.939266303378222, 284.1626229160246 -23.04959061922243 C 297.1699548932087 -23.159914935066634, 314.23734794682645 -17.79271542268892, 323.51559179510946 -8.870746607565238 C 332.79383564339247 0.05122220755844431, 339.4958234956724 17.028303468441266, 339.83208600572254 30.48222227151966 Z" fill="#f7c59f" opacity="0.22263630363221387" class="drift" />
<path d="M 610.4506822296029 21.768079247450565 C 612.1994581391657 35.09137697933564, 598.6719452714551 58.52432355212013, 587.2729536949568 66.98430017179425 C 575.8739621184584 75.44427679146835, 557.6095063131864 72.0472390643698, 542.056732770613 72.52793896549525 C 526.5039592280397 73.0086388666207, 503.2555345702445 78.32847619822107, 493.9563124395167 69.86849957854696 C 484.6570903087889 61.408522958872844, 483.53140120549574 35.07155391039881, 486.2613999862463 21.768079247450572 C 488.9913987669969 8.46460458450233, 501.0370829932922 1.790619455135971, 510.33630512402 -9.95234839914249 C 519.6355272547478 -21.695316253420952, 530.9827339183531 -48.189204908157905, 542.056732770613 -48.68972787822019 C 553.130731622873 -49.190250848282474, 565.3813066610815 -24.698454073794665, 576.7802982375798 -12.955486219516203 C 588.1792898140782 -1.2125183652377434, 608.70190632004 8.44478151556549, 610.4506822296029 21.768079247450565 Z" fill="#f7c59f" opacity="0.17066427554289748" class="drift" />
<path d="M 471.7845765568642 73.90102198863866 C 471.685127027047 83.72281011426284, 475.9945639773264 95.08381918148437, 471.0031583039346 103.06803777605964 C 466.0117526305428 111.05225637063491, 452.0595923212788 121.30522234713203, 441.8361425165136 121.80633355609027 C 431.61269271174837 122.3074447650485, 416.7861970522601 114.05892362438432, 409.6624594753432 106.07470502980905 C 402.53872189842633 98.09048643523379, 398.7247661319752 84.25663207932506, 399.09371705501223 73.90102198863866 C 399.4626679780493 63.54541189795226, 404.7524274366487 49.84542765737053, 411.8761650135656 43.941044485690654 C 418.99990259048246 38.03666131401078, 431.8821941049682 38.442012202455444, 441.8361425165136 38.474722958559425 C 451.79009092805893 38.50743371466341, 466.6084498094459 38.23292585063468, 471.59985548283765 44.137309022314554 C 476.5912611562294 50.04169219399443, 471.8840260866814 64.07923386301448, 471.7845765568642 73.90102198863866 Z" fill="#f7c59f" opacity="0.1484132567554588" class="drift" />
<path d="M 241.90989672239857 65.18781005552133 C 242.83666020295666 78.91821376465195, 230.39282999235022 101.89544052295815, 219.29511633252733 109.15931162458746 C 208.19740267270444 116.42318272621677, 188.95120123675727 109.80061738168982, 175.3236147634612 108.7710366652972 C 161.69602829016512 107.74145594890459, 148.95214133521947 110.24569842786103, 137.5295974927508 102.98182732623172 C 126.10705365028215 95.71795622460242, 106.63666217235124 77.63412627612676, 106.78835170864927 65.18781005552134 C 106.94004124494731 52.74149383491592, 127.0171908680704 39.59756434851618, 138.43973471053906 28.30393000259921 C 149.8622785530077 17.01029565668224, 162.77448130702123 -2.3194892478478835, 175.3236147634612 -2.57399601998047 C 187.87274821990115 -2.8285027921130563, 202.6368217893559 15.483255023886725, 213.7345354491788 26.77688936980369 C 224.83224910900168 38.070523715720654, 240.98313324184048 51.4574063463907, 241.90989672239857 65.18781005552133 Z" fill="#f7c59f" opacity="0.17990824998183408" class="drift" />
<path d="M 81.94370054797541 71.04595921352384 L 92.2141591667287 65.91072990414719 L 102.484617785482 71.04595921352384" fill="none" stroke="#d4a5a5" stroke-width="1.5" opacity="0.4" class="float" style="animation-delay: 0.15330042450850945s" />
<path d="M 471.9706359002228 80.96846910624694 L 482.1897421747103 75.8589159690032 L 492.4088484491978 80.96846910624694" fill="none" stroke="#d4a5a5" stroke-width="1.5" opacity="0.4" class="float" style="animation-delay: 1.013760575157768s" />
<path d="M 185.14191363335533 57.39234786052745 L 195.1611048076177 52.382752273396264 L 205.18029598188008 57.39234786052745" fill="none" stroke="#d4a5a5" stroke-width="1.5" opacity="0.4" class="float" style="animation-delay: 1.7783184043641513s" />
<path d="M 65.19674305409453 57.43713439629185 L 71.25876060433166 54.40612562117329 L 77.32077815456879 57.43713439629185" fill="none" stroke="#d4a5a5" stroke-width="1.5" opacity="0.4" class="float" style="animation-delay: 0.1348806912024989s" />
<path d="M 399.2887725006292 56.91424682436013 L 407.2216845849975 52.947790782175986 L 415.1545966693658 56.91424682436013" fill="none" stroke="#d4a5a5" stroke-width="1.5" opacity="0.4" class="float" style="animation-delay: 0.5685942796935974s" />

  
    <text x="400" y="120" text-anchor="middle" class="name-text" fill="url(#textGrad)" filter="url(#textGlow)">
      JOEL HOOKS
    </text>
  
</svg>
