<svg xmlns="http://www.w3.org/2000/svg" viewBox="0 0 800 200" width="800" height="200">
  <rect width="800" height="200" fill="#1a0a0a"/>
  
    <defs>
      <linearGradient id="grad1" x1="0%" y1="0%" x2="100%" y2="100%">
        <stop offset="0%" style="stop-color:#ff4500;stop-opacity:0.8" />
        <stop offset="100%" style="stop-color:#ff6b35;stop-opacity:0.8" />
      </linearGradient>
      <linearGradient id="grad2" x1="100%" y1="0%" x2="0%" y2="100%">
        <stop offset="0%" style="stop-color:#f7c59f;stop-opacity:0.7" />
        <stop offset="100%" style="stop-color:#efa48b;stop-opacity:0.7" />
      </linearGradient>
      <linearGradient id="textGrad" x1="0%" y1="0%" x2="100%" y2="0%">
        <stop offset="0%" style="stop-color:#ff4500" />
        <stop offset="25%" style="stop-color:#ff6b35" />
        <stop offset="50%" style="stop-color:#f7c59f" />
        <stop offset="75%" style="stop-color:#efa48b" />
        <stop offset="100%" style="stop-color:#d4a5a5" />
      </linearGradient>
      <filter id="glow">
        <feGaussianBlur stdDeviation="3" result="coloredBlur"/>
        <feMerge>
          <feMergeNode in="coloredBlur"/>
          <feMergeNode in="SourceGraphic"/>
        </feMerge>
      </filter>
      <filter id="textGlow">
        <feGaussianBlur stdDeviation="2" result="coloredBlur"/>
        <feMerge>
          <feMergeNode in="coloredBlur"/>
          <feMergeNode in="SourceGraphic"/>
        </feMerge>
      </filter>
    </defs>
  
  
    <style>
      @keyframes float {
        0%, 100% { transform: translateY(0px); }
        50% { transform: translateY(-8px); }
      }
      @keyframes pulse {
        0%, 100% { opacity: 0.4; }
        50% { opacity: 0.9; }
      }
      @keyframes drift {
        0% { transform: translateX(0px); }
        50% { transform: translateX(10px); }
        100% { transform: translateX(0px); }
      }
      @keyframes shimmer {
        0% { opacity: 0.3; }
        50% { opacity: 1; }
        100% { opacity: 0.3; }
      }
      @keyframes glitch {
        0%, 100% { transform: translateX(0); }
        20% { transform: translateX(-2px); }
        40% { transform: translateX(2px); }
        60% { transform: translateX(-1px); }
        80% { transform: translateX(1px); }
      }
      @keyframes dataStream {
        0% { stroke-dashoffset: 0; }
        100% { stroke-dashoffset: -20; }
      }
      .float { animation: float 8s ease-in-out infinite; }
      .pulse { animation: pulse 8s ease-in-out infinite; }
      .drift { animation: drift 8s ease-in-out infinite; }
      .shimmer { animation: shimmer 3s ease-in-out infinite; }
      .glitch { animation: glitch 0.5s ease-in-out infinite; }
      .dataStream { animation: dataStream 2s linear infinite; }
      .name-text { 
        font-family: -apple-system, BlinkMacSystemFont, 'Segoe UI', Helvetica, Arial, sans-serif;
        font-weight: 700;
        font-size: 64px;
        letter-spacing: -2px;
      }
    </style>
  
  <rect x="0" y="160" width="800" height="50" fill="#ff4500" opacity="0.3" />
<rect x="0" y="170" width="800" height="40" fill="#ff6b35" opacity="0.25" />
<rect x="0" y="180" width="800" height="30" fill="#f7c59f" opacity="0.19999999999999998" />
<rect x="0" y="190" width="800" height="20" fill="#efa48b" opacity="0.14999999999999997" />
<rect x="0" y="200" width="800" height="10" fill="#d4a5a5" opacity="0.09999999999999998" />
<line x1="527.5470626174365" y1="170" x2="527.5470626174365" y2="281.219966867873" stroke="#ff4500" stroke-width="2.233469256922903" opacity="0.2548385182389664" class="pulse" />
<line x1="527.5470626174365" y1="170" x2="550.8218052364131" y2="256.86252198710946" stroke="#ff4500" stroke-width="2.13462864167797" opacity="0.11087853243620592" class="pulse" />
<line x1="527.5470626174365" y1="170" x2="571.7891845548794" y2="246.62960303030877" stroke="#ff4500" stroke-width="2.16029346588735" opacity="0.11218267717451749" class="pulse" />
<line x1="527.5470626174365" y1="170" x2="601.5676215003499" y2="244.0205588829134" stroke="#ff4500" stroke-width="1.3587518857722571" opacity="0.20791258789016254" class="pulse" />
<line x1="527.5470626174365" y1="170" x2="603.0444779248974" y2="213.58845305088352" stroke="#ff4500" stroke-width="1.0511359186644658" opacity="0.15600062265107328" class="pulse" />
<line x1="527.5470626174365" y1="170" x2="657.6985770560622" y2="204.87399318751739" stroke="#ff4500" stroke-width="1.4051200712830667" opacity="0.1822105782877695" class="pulse" />
<line x1="527.5470626174365" y1="170" x2="665.8102916730556" y2="170" stroke="#ff4500" stroke-width="2.480682374611861" opacity="0.29952072128306256" class="pulse" />
<line x1="527.5470626174365" y1="170" x2="627.9665363888955" y2="143.09268309857927" stroke="#ff4500" stroke-width="2.7132230881017785" opacity="0.2410614304609893" class="pulse" />
<line x1="527.5470626174365" y1="170" x2="616.4489089573417" y2="118.67249508420103" stroke="#ff4500" stroke-width="1.6164793155548747" opacity="0.2358992980567482" class="pulse" />
<line x1="527.5470626174365" y1="170" x2="584.1855142709196" y2="113.36154834651683" stroke="#ff4500" stroke-width="1.450412172855882" opacity="0.23105196042618434" class="pulse" />
<line x1="527.5470626174365" y1="170" x2="589.8028675513287" y2="62.169782788401534" stroke="#ff4500" stroke-width="2.3671971954982283" opacity="0.15687761949555665" class="pulse" />
<line x1="527.5470626174365" y1="170" x2="562.7728422884404" y2="38.53560053158665" stroke="#ff4500" stroke-width="2.373271266140169" opacity="0.21162090117169113" class="pulse" />
<path d="M 322.26359907680063 21.945601664644112 C 320.9730596751419 34.098739815068726, 316.1304210581692 46.60104918556798, 308.3862262051834 54.53339791094176 C 300.6420313521976 62.46574663631554, 286.70442110857755 69.49630161596083, 275.7984299588857 69.53969401688677 C 264.8924388091939 69.58308641781271, 248.7112943728167 62.726101041871196, 242.95027930703242 54.79375231649742 C 237.18926424124814 46.86140359112364, 241.42416784026602 33.08681349134788, 241.23233956418002 21.945601664644116 C 241.04051128809402 10.80438983794035, 236.03829458473214 -5.451265825386614, 241.79930965051642 -12.053518643725166 C 247.5603247163007 -18.65577146206372, 263.4100711314492 -16.6125965207404, 275.7984299588857 -17.667915245387196 C 288.18678878632227 -18.72323397003399, 308.38526776214997 -24.987683809944485, 316.12946261513576 -18.385430991605933 C 323.87365746812156 -11.78317817326738, 323.5541384784594 9.792463514219497, 322.26359907680063 21.945601664644112 Z" fill="#f7c59f" opacity="0.14772824300190568" class="drift" />
<path d="M 644.0594480001743 59.75385063584096 C 643.2213031898401 67.26980852148633, 644.190270479576 75.19510865967895, 640.2097471302696 79.78728986177462 C 636.2292237809633 84.3794710638703, 627.8126048518797 86.34845397618261, 620.176307904336 87.30693784841503 C 612.5400109567923 88.26542172064745, 597.7225926729554 90.13037429726478, 594.3919654450078 85.5381930951691 C 591.0613382170602 80.94601189307343, 600.9213422635057 69.07742918247204, 600.1925445366506 59.75385063584096 C 599.4637468097956 50.43027208920988, 586.6885518559302 35.02401978932982, 590.0191790838777 29.596721815382622 C 593.3498063118252 24.169423841435425, 610.9730684196032 26.34092600340448, 620.176307904336 27.190062792157782 C 629.3795473890688 28.039199580911085, 641.2580926429681 29.26424457395524, 645.2386159922745 34.691542547902436 C 649.2191393415809 40.118840521849634, 644.8975928105084 52.2378927501956, 644.0594480001743 59.75385063584096 Z" fill="#f7c59f" opacity="0.20412157215769478" class="drift" />
<path d="M 729.0959022990504 48.795474174748605 C 728.5504151158342 63.36809416400085, 711.3981706370398 82.15872143593454, 699.4423446210161 90.87687259285661 C 687.4865186049924 99.59502374977869, 669.9021169481018 102.59034317712327, 657.360946202908 101.10438111628106 C 644.8197754577143 99.61841905543885, 635.3538055011265 90.67925138472539, 624.1953201498534 81.96110022780331 C 613.0368347985802 73.24294907088124, 591.8376110131748 61.27825977700603, 590.4100340952689 48.79547417474861 C 588.982457177363 36.3126885724912, 604.4713732911451 17.199807492135896, 615.6298586424183 7.064386614258822 C 626.7883439936915 -3.0710342636182517, 642.8467113565922 -11.413178766361218, 657.360946202908 -12.017051092513832 C 671.8751810492239 -12.620923418666445, 690.7594417042898 -6.6942682205339334, 702.7152677203135 3.441152657343139 C 714.6710937363372 13.576573535220211, 729.6413894822666 34.22285418549636, 729.0959022990504 48.795474174748605 Z" fill="#f7c59f" opacity="0.23844473568524263" class="drift" />
<path d="M 402.1046192043726 22.3032920550868 C 403.0432806477765 31.669292461309304, 404.3082108019176 46.2314798857883, 398.5661320116508 53.21727760396594 C 392.82405322138396 60.203075322143576, 377.73598992843756 64.43889674811305, 367.6521464627716 64.2180783641526 C 357.56830299710566 63.997259980192155, 345.0427464619882 58.8781650183809, 338.06307121765514 51.89236730020326 C 331.08339597332207 44.906569582025625, 325.59964703395633 31.99186917397543, 325.77409499677316 22.303292055086803 C 325.94854295959 12.614714936198174, 332.1300837502232 -0.3421954066748656, 339.1097589945563 -6.23909541312851 C 346.08943423888934 -12.135995419582155, 358.6814124033264 -13.621503080261634, 367.6521464627716 -13.078107983635064 C 376.6228805222168 -12.534712887008494, 387.19208456096067 -8.875624839822738, 392.9341633512275 -2.9787248333690926 C 398.6762421414943 2.9181751730845518, 401.16595776096875 12.937291648864294, 402.1046192043726 22.3032920550868 Z" fill="#f7c59f" opacity="0.2066439455740966" class="drift" />
<path d="M 136.0056725024628 58.78966814850601 L 143.74879755568608 54.91810562189437 L 151.49192260890936 58.78966814850601" fill="none" stroke="#d4a5a5" stroke-width="1.5" opacity="0.4" class="float" style="animation-delay: 1.202945561218117s" />
<path d="M 436.2536686218504 67.27422973544918 L 444.4484116035706 63.17685824458909 L 452.6431545852908 67.27422973544918" fill="none" stroke="#d4a5a5" stroke-width="1.5" opacity="0.4" class="float" style="animation-delay: 2.6155017891924874s" />
<path d="M 610.3952766853305 70.8356590394777 L 620.41471453478 65.82594011475294 L 630.4341523842296 70.8356590394777" fill="none" stroke="#d4a5a5" stroke-width="1.5" opacity="0.4" class="float" style="animation-delay: 2.625675765937796s" />
<path d="M 261.6109094918901 44.41052326791951 L 268.8737536337876 40.77910119697074 L 276.1365977756851 44.41052326791951" fill="none" stroke="#d4a5a5" stroke-width="1.5" opacity="0.4" class="float" style="animation-delay: 0.6073591323517076s" />
<path d="M 676.3101740639506 57.16743925954873 L 685.2687567835198 52.688147899764125 L 694.2273395030891 57.16743925954873" fill="none" stroke="#d4a5a5" stroke-width="1.5" opacity="0.4" class="float" style="animation-delay: 0.3850723142456498s" />

  
    <text x="400" y="120" text-anchor="middle" class="name-text" fill="url(#textGrad)" filter="url(#textGlow)">
      JOEL HOOKS
    </text>
  
</svg>
