<svg xmlns="http://www.w3.org/2000/svg" viewBox="0 0 800 200" width="800" height="200">
  <rect width="800" height="200" fill="#1a0a0a"/>
  
    <defs>
      <linearGradient id="grad1" x1="0%" y1="0%" x2="100%" y2="100%">
        <stop offset="0%" style="stop-color:#ff4500;stop-opacity:0.8" />
        <stop offset="100%" style="stop-color:#ff6b35;stop-opacity:0.8" />
      </linearGradient>
      <linearGradient id="grad2" x1="100%" y1="0%" x2="0%" y2="100%">
        <stop offset="0%" style="stop-color:#f7c59f;stop-opacity:0.7" />
        <stop offset="100%" style="stop-color:#efa48b;stop-opacity:0.7" />
      </linearGradient>
      <linearGradient id="textGrad" x1="0%" y1="0%" x2="100%" y2="0%">
        <stop offset="0%" style="stop-color:#ff4500" />
        <stop offset="25%" style="stop-color:#ff6b35" />
        <stop offset="50%" style="stop-color:#f7c59f" />
        <stop offset="75%" style="stop-color:#efa48b" />
        <stop offset="100%" style="stop-color:#d4a5a5" />
      </linearGradient>
      <filter id="glow">
        <feGaussianBlur stdDeviation="3" result="coloredBlur"/>
        <feMerge>
          <feMergeNode in="coloredBlur"/>
          <feMergeNode in="SourceGraphic"/>
        </feMerge>
      </filter>
      <filter id="textGlow">
        <feGaussianBlur stdDeviation="2" result="coloredBlur"/>
        <feMerge>
          <feMergeNode in="coloredBlur"/>
          <feMergeNode in="SourceGraphic"/>
        </feMerge>
      </filter>
    </defs>
  
  
    <style>
      @keyframes float {
        0%, 100% { transform: translateY(0px); }
        50% { transform: translateY(-8px); }
      }
      @keyframes pulse {
        0%, 100% { opacity: 0.4; }
        50% { opacity: 0.9; }
      }
      @keyframes drift {
        0% { transform: translateX(0px); }
        50% { transform: translateX(10px); }
        100% { transform: translateX(0px); }
      }
      @keyframes shimmer {
        0% { opacity: 0.3; }
        50% { opacity: 1; }
        100% { opacity: 0.3; }
      }
      @keyframes glitch {
        0%, 100% { transform: translateX(0); }
        20% { transform: translateX(-2px); }
        40% { transform: translateX(2px); }
        60% { transform: translateX(-1px); }
        80% { transform: translateX(1px); }
      }
      @keyframes dataStream {
        0% { stroke-dashoffset: 0; }
        100% { stroke-dashoffset: -20; }
      }
      .float { animation: float 8s ease-in-out infinite; }
      .pulse { animation: pulse 8s ease-in-out infinite; }
      .drift { animation: drift 8s ease-in-out infinite; }
      .shimmer { animation: shimmer 3s ease-in-out infinite; }
      .glitch { animation: glitch 0.5s ease-in-out infinite; }
      .dataStream { animation: dataStream 2s linear infinite; }
      .name-text { 
        font-family: -apple-system, BlinkMacSystemFont, 'Segoe UI', Helvetica, Arial, sans-serif;
        font-weight: 700;
        font-size: 64px;
        letter-spacing: -2px;
      }
    </style>
  
  <rect x="0" y="160" width="800" height="50" fill="#ff4500" opacity="0.3" />
<rect x="0" y="170" width="800" height="40" fill="#ff6b35" opacity="0.25" />
<rect x="0" y="180" width="800" height="30" fill="#f7c59f" opacity="0.19999999999999998" />
<rect x="0" y="190" width="800" height="20" fill="#efa48b" opacity="0.14999999999999997" />
<rect x="0" y="200" width="800" height="10" fill="#d4a5a5" opacity="0.09999999999999998" />
<line x1="463.26852368784455" y1="170" x2="463.26852368784455" y2="279.3631591181423" stroke="#ff4500" stroke-width="2.1468137011011423" opacity="0.27907171515914614" class="pulse" />
<line x1="463.26852368784455" y1="170" x2="488.1346247680763" y2="262.80155261756835" stroke="#ff4500" stroke-width="1.273427006802772" opacity="0.13984110753902018" class="pulse" />
<line x1="463.26852368784455" y1="170" x2="514.0332409034394" y2="257.92706944927676" stroke="#ff4500" stroke-width="2.688445244325032" opacity="0.16978103667027403" class="pulse" />
<line x1="463.26852368784455" y1="170" x2="554.4955689472939" y2="261.2270452594493" stroke="#ff4500" stroke-width="1.4318983232117457" opacity="0.13121558762951305" class="pulse" />
<line x1="463.26852368784455" y1="170" x2="559.4829826009968" y2="225.54944375344266" stroke="#ff4500" stroke-width="1.202165439432834" opacity="0.15784683547110517" class="pulse" />
<line x1="463.26852368784455" y1="170" x2="562.0969232809449" y2="196.48098986023155" stroke="#ff4500" stroke-width="2.45802036038553" opacity="0.15650951000232521" class="pulse" />
<line x1="463.26852368784455" y1="170" x2="605.2588031768141" y2="170" stroke="#ff4500" stroke-width="1.458057299495764" opacity="0.11436702706529411" class="pulse" />
<line x1="463.26852368784455" y1="170" x2="552.3903072758155" y2="146.1198900595819" stroke="#ff4500" stroke-width="1.8154106949505202" opacity="0.2635759731655182" class="pulse" />
<line x1="463.26852368784455" y1="170" x2="560.0920140441689" y2="114.09893177889705" stroke="#ff4500" stroke-width="1.9664542363974178" opacity="0.22887899084517266" class="pulse" />
<line x1="463.26852368784455" y1="170" x2="546.1630662081692" y2="87.1054574796754" stroke="#ff4500" stroke-width="2.2421676387313143" opacity="0.2192098034784743" class="pulse" />
<line x1="463.26852368784455" y1="170" x2="534.5638197577955" y2="46.512924866179276" stroke="#ff4500" stroke-width="1.2080420021104894" opacity="0.2972577335527861" class="pulse" />
<line x1="463.26852368784455" y1="170" x2="494.0066560314607" y2="55.28372836384838" stroke="#ff4500" stroke-width="2.710912387124885" opacity="0.2106525147910696" class="pulse" />
<path d="M 477.9485274349031 40.697193426689324 C 477.24905247309647 53.377302748586814, 472.9945577750739 67.35145756624698, 464.8153832270535 76.6390965069619 C 456.6362086790331 85.92673544767683, 442.758555329249 94.51858624860161, 428.8734801467809 96.42302707097892 C 414.98840496431274 98.32746789335623, 390.5509519631162 97.35338038194071, 381.50493213224445 88.06574144122578 C 372.4589123013727 78.77810250051085, 372.6544462535697 54.54379452355393, 374.59736116155057 40.69719342668933 C 376.54027606953144 26.850592329824735, 384.116401749258 13.835864949288382, 393.1624215801297 4.9861348600381845 C 402.20844141100144 -3.863595229212013, 416.231844910487 -11.663238061401653, 428.8734801467809 -12.401187108811854 C 441.5151153830748 -13.139136156222055, 460.83305844987285 -8.291289513673215, 469.0122329978932 0.5584405755769808 C 477.19140754591353 9.408170664827177, 478.6480023967097 28.017084104791834, 477.9485274349031 40.697193426689324 Z" fill="#f7c59f" opacity="0.13895060353888108" class="drift" />
<path d="M 643.516256356053 56.24242357946114 C 643.077970087374 65.90391497020103, 637.9248628451628 78.50458584232494, 631.2726610697483 83.91203894564366 C 624.6204592943338 89.31949204896237, 610.1373717539866 91.37602127101354, 603.6030457035658 88.6871421993734 C 597.0687196531451 85.99826312773325, 596.8393143754253 73.18621761912155, 592.0667047672241 67.77876451580283 C 587.294095159023 62.371311412484125, 576.4715052766275 61.59198778051003, 574.9673880543592 56.24242357946114 C 573.4632708320909 50.89285937841225, 578.269391825413 40.388273909278574, 583.0420014336141 35.68137930950947 C 587.8146110418153 30.974484709740356, 595.1263161621978 29.624104098897334, 603.6030457035658 28.001055980846477 C 612.0797752449339 26.37800786279562, 627.2501769064081 21.236196001435214, 633.9023786818226 25.943090601204325 C 640.5545804572371 30.649985200973436, 643.954542624732 46.58093218872125, 643.516256356053 56.24242357946114 Z" fill="#f7c59f" opacity="0.1794652345085709" class="drift" />
<path d="M 426.6146508712729 37.23345560532299 C 428.9661165875854 48.558137743675864, 426.66901413078324 68.83885408999394, 418.47419806988603 78.26189916931929 C 410.2793820089888 87.68494424864464, 389.8237519052416 95.06987653658862, 377.44575450588974 93.77172608127506 C 365.0677571065379 92.4735756259615, 352.75632032342435 79.89604151676325, 344.2062136737748 70.4729964374379 C 335.6561070241253 61.04995135811255, 327.3954575299573 49.56364547132616, 326.14511460799247 37.233455605322995 C 324.89477168602764 24.903265739319828, 328.1540494923361 6.54920776179053, 336.70415614198566 -3.5081427585810943 C 345.2542627916352 -13.565493278952719, 366.16887990088554 -25.414305699870603, 377.44575450588974 -23.110647516906752 C 388.72262911089393 -20.8069893339429, 396.1705877111135 0.2564558188303945, 404.3654037720107 10.313806339202017 C 412.56021983290793 20.371156859573638, 424.26318515496035 25.90877346697011, 426.6146508712729 37.23345560532299 Z" fill="#f7c59f" opacity="0.13724570825079122" class="drift" />
<path d="M 474.70956226275734 22.60358622545578 C 477.2418862816728 34.87676675407922, 475.7566067769553 60.57015256953211, 467.0827129512716 67.02009986807246 C 458.4088191255879 73.47004716661282, 437.8939992986612 60.88097457423053, 422.66619930865494 61.3032700166979 C 407.4383993186487 61.725565459165274, 386.6930752814619 76.00381982141705, 375.715913011234 69.5538725228767 C 364.73875074100613 63.10392522433635, 354.7363999734537 36.186855944095605, 356.80322568728747 22.603586225455786 C 358.87005140112126 9.020316506815965, 377.13970502400906 -1.0181099777918448, 388.11686729423695 -11.94574578896222 C 399.09402956446485 -22.873381600132596, 412.03754905139795 -43.85002238911548, 422.66619930865494 -42.962228641566476 C 433.29484956591193 -42.07443489401747, 443.21487501209515 -17.546619114838556, 451.8887688377789 -6.61898330366818 C 460.5626626634627 4.308652507502195, 472.1772382438419 10.330405696832337, 474.70956226275734 22.60358622545578 Z" fill="#f7c59f" opacity="0.1978670202956749" class="drift" />
<path d="M 507.28419032240674 83.83906170451364 L 517.6965509988455 78.63288136629426 L 528.1089116752843 83.83906170451364" fill="none" stroke="#d4a5a5" stroke-width="1.5" opacity="0.4" class="float" style="animation-delay: 0.6932044098974841s" />
<path d="M 338.9265981375302 74.36940410265092 L 350.79156113328736 68.43692260477236 L 362.6565241290445 74.36940410265092" fill="none" stroke="#d4a5a5" stroke-width="1.5" opacity="0.4" class="float" style="animation-delay: 2.3492571085692027s" />
<path d="M 58.62803493495406 80.44583988824843 L 64.84022711988231 77.3397437957843 L 71.05241930481057 80.44583988824843" fill="none" stroke="#d4a5a5" stroke-width="1.5" opacity="0.4" class="float" style="animation-delay: 1.3415921924675496s" />
<path d="M 528.7179262496156 48.6695169832808 L 538.8117489625142 43.62260562683148 L 548.9055716754128 48.6695169832808" fill="none" stroke="#d4a5a5" stroke-width="1.5" opacity="0.4" class="float" style="animation-delay: 0.3165109532520938s" />
<path d="M 582.1347372656164 43.257707708545986 L 589.6786062321202 39.48577322529413 L 597.2224751986239 43.257707708545986" fill="none" stroke="#d4a5a5" stroke-width="1.5" opacity="0.4" class="float" style="animation-delay: 2.468979428313635s" />

  
    <text x="400" y="120" text-anchor="middle" class="name-text" fill="url(#textGrad)" filter="url(#textGlow)">
      JOEL HOOKS
    </text>
  
</svg>
