<svg xmlns="http://www.w3.org/2000/svg" viewBox="0 0 800 200" width="800" height="200">
  <rect width="800" height="200" fill="#05010d"/>
  
    <defs>
      <linearGradient id="grad1" x1="0%" y1="0%" x2="100%" y2="100%">
        <stop offset="0%" style="stop-color:#4a0080;stop-opacity:0.8" />
        <stop offset="100%" style="stop-color:#7b2cbf;stop-opacity:0.8" />
      </linearGradient>
      <linearGradient id="grad2" x1="100%" y1="0%" x2="0%" y2="100%">
        <stop offset="0%" style="stop-color:#9d4edd;stop-opacity:0.7" />
        <stop offset="100%" style="stop-color:#c77dff;stop-opacity:0.7" />
      </linearGradient>
      <linearGradient id="textGrad" x1="0%" y1="0%" x2="100%" y2="0%">
        <stop offset="0%" style="stop-color:#4a0080" />
        <stop offset="25%" style="stop-color:#7b2cbf" />
        <stop offset="50%" style="stop-color:#9d4edd" />
        <stop offset="75%" style="stop-color:#c77dff" />
        <stop offset="100%" style="stop-color:#e0aaff" />
      </linearGradient>
      <filter id="glow">
        <feGaussianBlur stdDeviation="5" result="coloredBlur"/>
        <feMerge>
          <feMergeNode in="coloredBlur"/>
          <feMergeNode in="SourceGraphic"/>
        </feMerge>
      </filter>
      <filter id="textGlow">
        <feGaussianBlur stdDeviation="2" result="coloredBlur"/>
        <feMerge>
          <feMergeNode in="coloredBlur"/>
          <feMergeNode in="SourceGraphic"/>
        </feMerge>
      </filter>
    </defs>
  
  
    <style>
      @keyframes float {
        0%, 100% { transform: translateY(0px); }
        50% { transform: translateY(-8px); }
      }
      @keyframes pulse {
        0%, 100% { opacity: 0.4; }
        50% { opacity: 0.9; }
      }
      @keyframes drift {
        0% { transform: translateX(0px); }
        50% { transform: translateX(10px); }
        100% { transform: translateX(0px); }
      }
      @keyframes shimmer {
        0% { opacity: 0.3; }
        50% { opacity: 1; }
        100% { opacity: 0.3; }
      }
      @keyframes glitch {
        0%, 100% { transform: translateX(0); }
        20% { transform: translateX(-2px); }
        40% { transform: translateX(2px); }
        60% { transform: translateX(-1px); }
        80% { transform: translateX(1px); }
      }
      @keyframes dataStream {
        0% { stroke-dashoffset: 0; }
        100% { stroke-dashoffset: -20; }
      }
      .float { animation: float 8s ease-in-out infinite; }
      .pulse { animation: pulse 8s ease-in-out infinite; }
      .drift { animation: drift 8s ease-in-out infinite; }
      .shimmer { animation: shimmer 3s ease-in-out infinite; }
      .glitch { animation: glitch 0.5s ease-in-out infinite; }
      .dataStream { animation: dataStream 2s linear infinite; }
      .name-text { 
        font-family: -apple-system, BlinkMacSystemFont, 'Segoe UI', Helvetica, Arial, sans-serif;
        font-weight: 700;
        font-size: 64px;
        letter-spacing: -2px;
      }
    </style>
  
  <path d="M 699.6386138023038 93.98456412477452 C 701.2415367528149 116.74743780715391, 720.7158295844489 159.03216968452543, 709.2324341415407 166.30822134165118 C 697.7490386986325 173.58427299877692, 654.6983886153417 133.07610510315587, 630.7382411448547 137.640874067529 C 606.7780936743676 142.20564303190216, 576.6047542244121 197.3876923750944, 565.4715493186181 193.6968351278901 C 554.3383444128242 190.0059778806858, 568.8411256899767 137.39089405633626, 563.9390117100911 115.49573058430322 C 559.0368977302055 93.60056711227016, 534.3513432850235 80.01465091361439, 536.0588654393048 62.325854295691755 C 537.766387593586 44.63705767776913, 558.1531453649992 12.786628588448181, 574.1841446357785 9.362950876767457 C 590.2151439065577 5.939273165086732, 611.3397357635313 38.38911663050618, 632.2448610639805 41.78378802560741 C 653.1499863644297 45.178459420708634, 688.3826043154199 21.03084989751362, 699.6148964384738 29.730979247374805 C 710.8471885615277 38.43110859723599, 698.0356908517927 71.22169044239513, 699.6386138023038 93.98456412477452 Z" fill="#c77dff" opacity="0.14971049056117075" filter="url(#glow)" class="float" />
<path d="M 111.27662973452746 15.19568643525826 C 106.7941120521956 25.9344086530838, 82.79041680889138 19.351669294781868, 78.0456586607514 37.641633902484514 C 73.30090051261142 55.93159851018716, 92.28203246468468 115.36573361132295, 82.80808084568758 124.93547408147415 C 73.3341292266905 134.50521455162536, 34.68440069038364 107.87214171106127, 21.20194894676888 95.06007672339169 C 7.71949720315412 82.2480117357221, 4.497154550378578 61.373815870145506, 1.9133703839990162 48.0630841554566 C -0.670413782380546 34.752352440767694, 5.00644174477932 25.64813541083164, 5.699243948491507 15.195686435258265 C 6.392046152203694 4.743237459684892, 2.803365119720595 -3.443041465813744, 6.070183606272138 -14.651609697983641 C 9.337002092823681 -25.86017793015354, 13.237002231774188 -40.97623526646672, 25.300154867800767 -52.05572295776113 C 37.36330750382734 -63.13521064905553, 65.17566444127465 -85.33937310463213, 78.44909942243162 -81.12853584575006 C 91.72253440358858 -76.917698586868, 99.46950970272658 -42.84473645130345, 104.94076475474256 -26.790699404468725 C 110.41201980675854 -10.736662357634003, 115.75914741685932 4.45696421743272, 111.27662973452746 15.19568643525826 Z" fill="#c77dff" opacity="0.11296214566012898" filter="url(#glow)" class="float" />
<path d="M 339.16636280457817 63.725138321990116 C 336.52012953054214 84.02863028281405, 279.08342621833975 93.54996721463996, 256.4724836890193 116.69691438235387 C 233.8615411596989 139.84386155006777, 220.6307530878715 203.13403455584555, 203.5007076286556 202.60682132827355 C 186.37066216943967 202.07960810070156, 172.96105467193604 136.68058218463577, 153.69221093372386 113.53363501692186 C 134.42336719551167 90.38668784920796, 94.67826924594695 87.11859460019852, 87.88764519938246 63.72513832199013 C 81.09702115281797 40.33168204378174, 93.67962291612476 -3.2472372480163365, 112.94846665433694 -26.827102652328506 C 132.2173103925491 -50.40696805664068, 176.93380484883915 -81.37123164883934, 203.50070762865556 -77.7540541038829 C 230.06761040847198 -74.13687655892645, 249.738940803915 -28.703902786901946, 272.3498833332354 -5.124037382589776 C 294.96082586255585 18.455828021722393, 341.8125960786142 43.421646361166175, 339.16636280457817 63.725138321990116 Z" fill="#7b2cbf" opacity="0.14860358196615986" filter="url(#glow)" class="float" />
<path d="M 199.6559476135992 110.52687118439466 C 199.71686176419118 126.96228657073564, 192.8148940154666 143.99444216388613, 184.06461425243975 159.96588750630474 C 175.31433448941291 175.93733284872334, 164.12505488164814 197.26917672747297, 147.1542690354382 206.3555432389063 C 130.18348318922827 215.44190975033965, 103.09681923939374 219.07243928719706, 82.23989917518013 214.48408657490475 C 61.38297911096652 209.89573386261245, 26.608128805702886 196.15162953023741, 22.012748650156553 178.82542696515242 C 17.41736849461022 161.49922440006742, 56.65790158024145 134.73908193273127, 54.66761824190213 110.52687118439468 C 52.677334903562816 86.3146604360581, 3.9319029116209547 46.12714321263511, 10.071048620120663 33.552162475132974 C 16.21019432862037 20.977181737630836, 67.62422070374895 41.39261618272631, 91.50249249290039 35.07698675938184 C 115.38076428205183 28.76135733603737, 137.97457321236476 -8.721015469746678, 153.34067935502935 -4.341614064933836 C 168.70678549769394 0.0377873398790074, 175.97991797245962 42.20864764670415, 183.69912934888794 61.3533951882589 C 191.41834072531626 80.49814272981365, 199.59503346300724 94.09145579805369, 199.6559476135992 110.52687118439466 Z" fill="#e0aaff" opacity="0.10221439046119833" filter="url(#glow)" class="float" />
<path d="M 201.0229175707821 109.06333625002131 L 201.0229175707821 109.06333625002131 L 201.3090564431649 109.0883701575489 L 201.58865392834457 109.1630908338273 L 201.85525163339815 109.2863594899322 L 202.10255626957525 109.45629260014391 L 202.32452000206968 109.67028343160386 L 202.5154181811652 109.92503187919166 L 202.66992362189163 110.2165823024852 L 202.78317663314442 110.54036898002597 L 202.85085003889762 110.89126871813681 L 202.86920848328796 111.26366007797418 L 202.83516136751106 111.65148861605053 L 202.74630882912282 112.04833747078749 L 202.60098024289675 112.44750257136897 L 202.3982647962112 112.84207169579729 L 202.13803377033656 113.22500656310157 L 201.82095424123006 113.58922711052104 L 201.44849399875105 113.92769708052856 L 201.0229175707821 114.23351002504344 L 200.547273327758 114.49997482529412 L 200.02537173272216 114.72069982564597 L 199.4617548914059 114.88967468833368 L 198.86165764510784 115.00134909338357 L 198.23096053550236 115.05070743394411 L 197.5761350541007 115.03333869155365 L 196.9041816691254 114.94550071826953 L 196.22256119826693 114.78417820269878 L 195.53912016643562 114.54713365436781 L 194.86201085251406 114.23295080503766 L 194.1996067876142 113.8410698959431 L 193.56041451886668 113.37181439587309 L 192.95298249679922 112.82640877583316 L 192.385807980437 112.20698705100209 L 191.8672428820055 111.51659188904107 L 191.4053994922202 110.75916417472321 L 191.00805703738482 109.93952301348676 L 190.68257002073784 109.06333625002131 L 190.43577929261926 108.1370816715007 L 190.27392677709526 107.16799915770741 L 190.2025747567734 106.16403413117978 L 190.22653058285073 105.13377274879535 L 190.34977763422407 104.08636936104435 L 190.5754132981005 103.03146684582882 L 190.9055946853952 101.97911049917177 L 191.34149272778947 100.93965623499562 L 191.8832552302046 99.9236739094438 L 192.52997937325526 98.94184664143809 L 193.2796940756675 98.00486704971466 L 194.12935253741927 97.12333136695662 L 195.07483519127305 96.30763242340318 L 196.11096319424965 95.56785251510708 L 197.23152249229702 94.91365718554839 L 198.42929839182625 94.3541909533972 L 199.69612047182014 93.89797601373398 L 201.0229175707821 93.5528149249549 L 202.39978248479923 93.32569826896842 L 203.81604591734995 93.22271823827226 L 205.26035912908898 93.24898906031628 L 206.72078464755975 93.4085751175208 L 208.18489431345628 93.70442756082805 L 209.63987386248567 94.13833014619044 L 211.07263317082447 94.71085494749566 L 212.4699212283183 95.42132851671349 L 213.81844484759063 96.2678089732128 L 215.1049900696805 97.24707440998394 L 216.31654518822745 98.35462290571385 L 217.44042428499606 99.5846843291474 L 218.46439015003548 100.93024401681504 L 219.37677545026546 102.38307829793717 L 220.16660101095135 103.9338017320709 L 220.82369008546843 105.5719258168115 L 221.33877750995947 107.28592881556281 L 221.70361267087065 109.06333625002131 L 221.91105525472503 110.89081149953498 L 221.95516280059334 112.75425585084308 L 221.83126913618347 114.63891724779347 L 221.53605284785175 116.52950690235065 L 221.0675950126106 118.41032284639269 L 220.42542550576223 120.26537942923592 L 219.61055729044648 122.0785416992565 L 218.6255081944051 123.83366355006801 L 217.47430978382164 125.5147284630608 L 216.16250305333 127.10599163923487 L 214.6971207642824 128.59212228460538 L 213.0866563791671 129.9583447953845 L 211.3410196576856 131.1905775819099 L 209.47147909841794 132.27556827407378 L 207.49059152819785 133.20102406588688 L 205.41211925824587 133.9557359827698 L 203.25093534073716 134.5296958920887 L 201.0229175707821 134.91420512513199 L 198.74483198577195 135.10197363685427 L 196.43420671570638 135.08720869789474 L 194.10919713354463 134.865692191119 L 191.7884433429011 134.43484567166007 L 189.49092112071355 133.79378244448503 L 187.23578750405645 132.9433460161507 L 185.0422222723541 131.8861343868244 L 182.92926662822492 130.6265097639595 L 180.91566042151157 129.17059339929182 L 179.0196792912534 127.52624537507972 L 177.25897311905936 125.70302929271445 L 175.65040719426963 123.71216194591734 L 174.2099074862583 121.56644819062197 L 172.95231140216052 119.28020135320881 L 171.8912253792202 116.86914964690236 L 171.03889061997143 114.35032919173901 L 170.4060582258247 111.74196435547285 L 170.0018749206493 109.06333625002132 L 169.83378048105914 106.33464032951463 L 169.90741790484648 103.57683414069164 L 170.22655725398812 100.81147637331844 L 170.79303400457422 98.06055844658863 L 171.60670262368313 95.34632994625555 L 172.66540597350348 92.69111929578453 L 173.9649610168403 90.11715110240047 L 175.49916116652875 87.64636166495362 L 177.25979548528062 85.30021416451979 L 179.23668480321322 83.09951508017738 L 181.41773467889612 81.06423338115984 L 183.789004987375 79.21332404235959 L 186.33479577648424 77.56455741286224 L 189.0377488920429 76.13435593683059 L 191.87896473443573 74.93763968276309 L 194.83813337481047 73.98768208114842 L 197.89367912983406 73.29597720217384 L 201.02291757078208 72.87211982486637 L 204.2022238267853 72.72369945740829 L 207.4072109343657 72.85620936602349 L 210.61291688695025 73.27297155753097 L 213.79399894976646 73.97507853924431 L 216.92493372824507 74.9613525502871 L 219.98022141252991 76.2283228215934 L 222.93459256759581 77.77022127894081 L 225.7632157983603 79.57899695545275 L 228.44190459251465 81.6443492282888 L 230.94732163094122 83.95377983994192 L 233.2571788567823 86.49266350894248 L 235.3504316095931 89.24433677910314 L 237.20746516057642 92.19020460202623 L 238.81027202854193 95.30986399573037 L 240.14261851373666 98.5812439742096 L 241.1901989577172 101.98076079979572 L 241.94077632151962 105.4834874735768 L 242.3843077709592 109.0633362500213 L 242.51305406628518 112.69325284152102 L 242.32167167284211 116.34542086785893 L 241.80728663896878 119.99147500565475 L 240.96954942612825 123.60272120455734 L 239.81067002315152 127.15036226118153 L 238.3354328303593 130.60572697928015 L 236.55119095900136 133.9405010960278 L 234.4678397556658 137.12695812011006 L 232.0977695287457 140.1381882079848 L 229.455797623372 142.9483232004956 L 226.5590801610537 145.53275595316023 L 223.42700392921142 147.86835211998152 L 220.0810590724744 149.93365259245084 L 216.54469340062468 151.70906485235028 L 212.84314928605923 153.17704156867217 L 209.00328427526165 154.32224485501857 L 205.0533766827232 155.13169470364883 L 201.02291757078223 155.5949002252205 L 196.9423906437859 155.7039724484144 L 192.84304169869063 155.4537175701435 L 188.75663937568328 154.84170969390428 L 184.7152290406944 153.86834224993657 L 180.75088170592477 152.536857455026 L 176.89543995401212 150.8533533407477 L 173.1802628755828 148.82676805537926 L 169.63597205818292 146.46884132522024 L 166.29220067658758 143.7940531442158 L 163.1773477299927 140.8195399451218 L 160.31833945050448 137.56498868948574 L 157.74039986967261 134.05250949596163 L 155.46683247571738 130.3064876054109 L 153.51881482388404 126.35341565541556 L 151.91520787643492 122.22170740476368 L 150.67238174772268 117.9414942087549 L 149.80405941426454 113.54440569745893 L 149.32117982056076 109.06333625002134 L 149.23178166949896 104.53219898752867 L 149.5409090325977 99.98566912367588 L 150.25053975120278 95.45891861545724 L 151.35953742629772 90.98734414438192 L 152.86362761314223 86.60629053146667 L 154.7553986489064 82.35077174574033 L 157.02432734828548 78.2551917056291 L 159.656829605268 74.35306709491161 L 162.63633574035646 70.67675441959591 L 165.9433902331711 67.25718351891675 L 169.55577528212487 64.12359971260494 L 173.44865743733064 61.3033167177626 L 177.5947563616954 58.821482402321315 L 181.9645345898361 56.70085935855414 L 186.5264069765744 54.96162217997778 L 191.24696835779457 53.62117320889968 L 196.09123778784797 52.69397839061371 L 201.02291757078217 52.19142472477784 L 206.00466516877134 52.12170064584814 L 210.99837595138138 52.48970049377469 L 215.9654746448115 53.296954054745655 L 220.86721325197308 54.541581960967775 L 225.66497314303385 56.218277539746154 L 230.3205689625742 58.31831549699639" fill="none" stroke="#e0aaff" stroke-width="1" opacity="0.3" class="drift" />
<path d="M 360.43258175448517 142.63818775143065 L 360.43258175448517 142.63818775143065 L 360.86788186345063 142.67627157619674 L 361.2932306276772 142.78994336869073 L 361.6988029607663 142.97747070109284 L 362.0750249475907 143.2359881851942 L 362.4126960795715 143.56153022524083 L 362.7031075062666 143.94907640542363 L 362.93815503624353 144.3926090508547 L 363.1104456716559 144.88518237667157 L 363.213396524342 145.41900252128744 L 363.2413250360363 145.98551764789406 L 363.18952951072293 146.57551719419376 L 363.0543590624711 147.17923925499343 L 362.83327218639164 147.7864849966552 L 362.52488327265763 148.38673892730006 L 362.1289965027961 148.96929378283625 L 361.64662669256586 149.5233787369667 L 361.0800067755085 150.03828960384368 L 360.43258175448517 150.50351967538842 L 359.7089890839297 150.9088898217746 L 358.91502558188427 151.2446764833507 L 358.05760110684986 151.50173619539848 L 357.1446793687856 151.67162531351116 L 356.18520637495834 151.7467136468279 L 355.1890271385133 151.72029075855622 L 354.1667913993993 151.58666375771048 L 353.1298492224522 151.34124548223554 L 352.0901374449148 150.98063206100102 L 351.0600580443876 150.50266893977383 L 350.0523495872006 149.90650456333026 L 349.0799529955782 149.19263102139547 L 348.15587293894976 148.3629110890538 L 347.29303620964083 147.4205912215391 L 346.5041484853929 146.37030019771473 L 345.80155091022107 145.21803324485217 L 345.19707794069365 143.9711216182434 L 344.70191790656963 142.63818775143065 L 344.3264777227627 141.22908623508576 L 344.0802531638371 139.75483102348895 L 343.97170607283067 138.22750940582222 L 344.00814982342973 136.6601834137951 L 344.19564428877703 135.06677946618714 L 344.53890149201544 133.4619671734799 L 345.04120302368386 131.86102834068296 L 345.7043302100461 130.27971731260564 L 346.5285079052012 128.7341139021467 L 347.51236265934995 127.24047022769892 L 348.6528958869238 125.81505285962456 L 349.9454725225415 124.47398173717953 L 351.38382551114535 123.23306736558433 L 352.96007633244074 122.10764783761132 L 354.664771610228 121.11242724465166 L 356.4869357057229 120.26131704843851 L 358.414139041883 119.56728197626066 L 360.43258175448517 119.04219197955732 L 362.52719211661946 118.69668175832972 L 364.68173903776767 118.5400193020545 L 366.8789577980667 118.57998483208942 L 369.1006880440567 118.82276145140023 L 371.32802294544535 119.27283871541162 L 373.5414682944148 119.93293023361674 L 375.7211102208947 120.80390629610784 L 377.8467901001022 121.88474239335744 L 379.89828514348267 123.17248436243312 L 381.85549309185103 124.66223074950335 L 383.69861937081276 126.3471328282074 L 385.40836502408047 128.21841255750803 L 386.9661137106424 130.26539860237415 L 388.3541160372795 132.47558037745023 L 389.55566949895086 134.83467990920033 L 390.55529231620534 137.3267411473275 L 391.3388894910336 139.93423619303908 L 391.8939094503163 142.63818775143065 L 392.2094897089646 145.41830695935437 L 392.2765900625894 148.25314559005392 L 392.0881119115131 151.12026149298532 L 391.6390024234905 153.9963959929382 L 390.92634236081506 156.8576618481075 L 389.9494165276433 159.67974025333913 L 388.7097659343294 162.43808527350197 L 387.21122092619254 165.10813400383975 L 385.4599146831963 167.66552068014173 L 383.46427666320454 170.0862929024307 L 381.23500573337026 172.34712809227972 L 378.78502291038666 174.42554827637014 L 376.12940380925835 176.30013127789874 L 373.28529108040163 177.95071640319986 L 370.2717872946886 179.35860273358304 L 367.1098289139291 180.50673817187888 L 363.8220421586662 181.3798974493576 L 360.43258175448517 181.96484737121955 L 356.9669537007721 182.25049766728856 L 353.4518233605211 182.2280359182629 L 349.9148103149574 181.8910451461453 L 346.38427156104166 181.235602789411 L 342.8890747520917 180.26035992807147 L 339.4583632905978 178.96659977993292 L 336.1213151767521 177.35827465579644 L 332.906897595284 175.4420207367722 L 329.84361928606046 173.22715021985533 L 326.959282789851 170.7256205669421 L 324.2807386891147 167.95198078597758 L 321.83364397420155 164.923294869311 L 319.6422266577062 161.65904271192045 L 317.729058733741 158.18099902928307 L 316.1148395346461 154.5130909896072 L 314.8181914753089 150.68123546621536 L 313.8554700951797 146.71315700140102 L 313.2405902107385 142.63818775143068 L 312.9848698772488 138.48705085192816 L 313.0968937289249 134.29162880212579 L 313.5823971220838 130.08471861392965 L 314.4441723475299 125.89977560605115 L 315.6819980075334 121.77064784332049 L 317.2925924706388 117.73130332556431 L 319.2695921255979 113.81555211803574 L 321.6035549555095 110.05676568543748 L 324.28198974634694 106.48759574329236 L 327.28941103218176 103.13969497316228 L 330.6074196642764 100.04344196153866 L 334.21480867462594 97.22767271580284 L 338.0876938882787 94.71942108434077 L 342.19966852469673 92.54367036171149 L 346.52198081833546 90.72311829390483 L 351.02373348435964 89.27795761352633" fill="none" stroke="#c77dff" stroke-width="1" opacity="0.3" class="drift" />
<circle cx="208.12100158718536" cy="75.82239149499105" r="1.2580431644763133" fill="white" opacity="0.5990618975793529"  style="animation-delay: 3.9553429332714964s" />
<circle cx="773.4968796738492" cy="107.31977711882345" r="1.4095645960507848" fill="white" opacity="0.5139291876266494" class="shimmer" style="animation-delay: 1.6626095739688629s" />
<circle cx="517.0753113442793" cy="93.9427264419348" r="0.931233867642885" fill="white" opacity="0.5269868877634412"  style="animation-delay: 4.582269584251019s" />
<circle cx="301.53856234010055" cy="107.2854760749518" r="1.0968191416205675" fill="white" opacity="0.7110632901014502"  style="animation-delay: 0.5467116220510493s" />
<circle cx="65.17666478190165" cy="129.19954455228816" r="1.6956351681432005" fill="white" opacity="0.5911701492351367"  style="animation-delay: 2.6789022835107246s" />
<circle cx="94.32725983777281" cy="160.65219292847138" r="0.840144856950771" fill="white" opacity="0.31477532941936454" class="shimmer" style="animation-delay: 0.18377175497609977s" />
<circle cx="329.02597475597196" cy="30.7684964745901" r="1.6906246280513917" fill="white" opacity="0.6526892468643586" class="shimmer" style="animation-delay: 2.595090202554542s" />
<circle cx="105.93920412266425" cy="73.69320349946022" r="1.857199119462825" fill="white" opacity="0.4493341850569125"  style="animation-delay: 4.660105653518452s" />
<circle cx="491.417240976984" cy="76.3953225749109" r="0.8254887091610097" fill="white" opacity="0.4072485625501329"  style="animation-delay: 3.3358346343948355s" />
<circle cx="232.97394167064257" cy="123.41269233216501" r="1.2184978096356882" fill="white" opacity="0.7105077204819872"  style="animation-delay: 2.194238139767436s" />
<circle cx="25.017897213401596" cy="167.54211617414018" r="0.5421517816845169" fill="white" opacity="0.456943490479974"  style="animation-delay: 0.36622510087782834s" />
<circle cx="467.3714485339291" cy="61.82503182705861" r="1.0195731236648888" fill="white" opacity="0.5399710383258727" class="shimmer" style="animation-delay: 2.9942400392128308s" />
<circle cx="635.5528030361496" cy="170.1510798089032" r="0.6140800727243572" fill="white" opacity="0.47329521967854266"  style="animation-delay: 0.4192944316066338s" />
<circle cx="46.35441418593249" cy="77.66886882312889" r="0.679606160449939" fill="white" opacity="0.49257126882363217" class="shimmer" style="animation-delay: 4.140238186545471s" />
<circle cx="276.04159460074004" cy="70.49448057818157" r="0.5940901169383832" fill="white" opacity="0.6986543031998567"  style="animation-delay: 0.28472141415913477s" />
<circle cx="300.2942690974477" cy="195.57229474846127" r="1.1075571761409067" fill="white" opacity="0.7876091818465565"  style="animation-delay: 3.0158337499176326s" />
<circle cx="61.2235487810997" cy="184.33569390802802" r="1.8489871833248734" fill="white" opacity="0.7250135418959849" class="shimmer" style="animation-delay: 4.829419217303082s" />
<circle cx="7.790009912111806" cy="176.9112131821191" r="1.438488528239327" fill="white" opacity="0.324439424742859"  style="animation-delay: 3.2226851749502483s" />
<circle cx="368.3176861609544" cy="22.034139643337404" r="0.6777667047523958" fill="white" opacity="0.7373663484663446"  style="animation-delay: 3.3047157629141943s" />
<circle cx="21.43129707322249" cy="9.125581781754466" r="1.328225642563759" fill="white" opacity="0.628422886012771"  style="animation-delay: 0.576202353613724s" />
<circle cx="230.34893015500816" cy="151.97558445468866" r="1.7776172132437742" fill="white" opacity="0.4343017455929337" class="shimmer" style="animation-delay: 0.11032326776053036s" />
<circle cx="328.6276013768278" cy="60.90600802370321" r="0.7761620366867895" fill="white" opacity="0.3566850119609665"  style="animation-delay: 0.449325760523549s" />
<circle cx="107.2147519498408" cy="31.831863330762378" r="1.142793250693243" fill="white" opacity="0.6388602036762376"  style="animation-delay: 4.071086294574522s" />
<circle cx="73.16860347978658" cy="66.6618244994178" r="0.5941756345518848" fill="white" opacity="0.49495033413801254"  style="animation-delay: 2.981761297702562s" />
<circle cx="570.0031567784666" cy="75.44024720426688" r="0.5590400450619076" fill="white" opacity="0.6469809467681331" class="shimmer" style="animation-delay: 3.417207557517301s" />
<circle cx="530.8549607388478" cy="104.95272888776417" r="1.9346767407714176" fill="white" opacity="0.6236827684413841" class="shimmer" style="animation-delay: 3.8824716458976125s" />
<circle cx="335.71071926958194" cy="88.94509938433038" r="0.5627581588953431" fill="white" opacity="0.6775649870463356"  style="animation-delay: 3.6927764883049163s" />
<circle cx="438.04311172209793" cy="61.31616823896078" r="1.0053141557806424" fill="white" opacity="0.6261295555348629"  style="animation-delay: 2.6862055831347575s" />
<circle cx="13.937489326078989" cy="83.68904356689075" r="1.7133195329018502" fill="white" opacity="0.7175561138285469"  style="animation-delay: 2.6042409786127854s" />
<circle cx="699.063354423253" cy="51.199987104361" r="1.646550184296884" fill="white" opacity="0.5783916261225155"  style="animation-delay: 4.601332157818235s" />
<circle cx="532.655983949118" cy="85.01213017930192" r="0.912822634570967" fill="white" opacity="0.6996899343558396" class="shimmer" style="animation-delay: 0.7333751023098878s" />
<circle cx="479.0907324862829" cy="32.71700340684593" r="1.1349058502506058" fill="white" opacity="0.571135742517902"  style="animation-delay: 1.1996053062141698s" />
<circle cx="490.4740494832545" cy="22.1181569472388" r="1.4816409623292999" fill="white" opacity="0.6371641778948833"  style="animation-delay: 3.914077474318154s" />
<circle cx="686.1665484795705" cy="91.60169127438968" r="0.5882360277688452" fill="white" opacity="0.516750250647553"  style="animation-delay: 0.9791058133138597s" />
<circle cx="301.31561633224" cy="146.97985485286353" r="1.9716054476556324" fill="white" opacity="0.45386120514945677"  style="animation-delay: 2.2986925455477882s" />
<circle cx="515.2807830197702" cy="80.26038928999321" r="1.6565586975051128" fill="white" opacity="0.3226588474556"  style="animation-delay: 4.9769624217316535s" />
<circle cx="388.1838356894489" cy="163.4900171011941" r="1.327724896545662" fill="white" opacity="0.4574989098381122" class="shimmer" style="animation-delay: 1.5928077095989235s" />
<circle cx="497.682916531096" cy="98.89444563115832" r="1.1542607945128618" fill="white" opacity="0.7203707074843648"  style="animation-delay: 2.12030540207211s" />
<circle cx="317.7411906778984" cy="12.081266039174077" r="1.9876072270958425" fill="white" opacity="0.5488690133538219" class="shimmer" style="animation-delay: 0.12745904317651435s" />
<circle cx="194.65210722515582" cy="165.8486109714867" r="1.1782799841085063" fill="white" opacity="0.7668191807700369"  style="animation-delay: 4.545878548969698s" />
<circle cx="762.9228545817635" cy="184.91277547333195" r="2.980623935434973" fill="#c77dff" opacity="0.8" filter="url(#glow)" class="shimmer" style="animation-delay: 1.0949392744854571s" />
<circle cx="41.00007344255321" cy="74.23358107521061" r="2.123043743564855" fill="#9d4edd" opacity="0.8" filter="url(#glow)" class="shimmer" style="animation-delay: 1.8208070124814362s" />
<circle cx="166.0568101785035" cy="166.72826960372998" r="2.957337404370767" fill="#7b2cbf" opacity="0.8" filter="url(#glow)" class="shimmer" style="animation-delay: 0.6170774485687509s" />
<circle cx="373.00282368270865" cy="94.3466003254692" r="2.4085134825044032" fill="#e0aaff" opacity="0.8" filter="url(#glow)" class="shimmer" style="animation-delay: 2.247359977448885s" />
<circle cx="622.7944870454141" cy="197.64269631949048" r="2.0347205994238577" fill="#4a0080" opacity="0.8" filter="url(#glow)" class="shimmer" style="animation-delay: 2.2577745801119375s" />
<circle cx="615.7761619508332" cy="128.39693147568187" r="2.5792183088728184" fill="#7b2cbf" opacity="0.8" filter="url(#glow)" class="shimmer" style="animation-delay: 1.189116579057312s" />
<circle cx="418.5101258686043" cy="74.4763314494485" r="1.592619316079896" fill="#e0aaff" opacity="0.8" filter="url(#glow)" class="shimmer" style="animation-delay: 0.6732651262994025s" />
<circle cx="417.60992544784085" cy="7.888048029313266" r="2.6794277069179895" fill="#7b2cbf" opacity="0.8" filter="url(#glow)" class="shimmer" style="animation-delay: 1.0017832054968028s" />
<line x1="538.3324658931404" y1="101.77428411137566" x2="446.61760798357903" y2="54.14676832584621" stroke="#e0aaff" stroke-width="0.5" opacity="0.3" />
<line x1="446.61760798357903" y1="54.14676832584621" x2="569.132209132223" y2="93.11763094880203" stroke="#e0aaff" stroke-width="0.5" opacity="0.3" />
<line x1="656.0834708460563" y1="35.69903970282465" x2="469.1164272731942" y2="140.19369952615244" stroke="#e0aaff" stroke-width="0.5" opacity="0.3" />

  
    <text x="400" y="120" text-anchor="middle" class="name-text" fill="url(#textGrad)" filter="url(#textGlow)">
      JOEL HOOKS
    </text>
  
</svg>
