<svg xmlns="http://www.w3.org/2000/svg" viewBox="0 0 800 200" width="800" height="200">
  <rect width="800" height="200" fill="#1a0a0a"/>
  
    <defs>
      <linearGradient id="grad1" x1="0%" y1="0%" x2="100%" y2="100%">
        <stop offset="0%" style="stop-color:#ff4500;stop-opacity:0.8" />
        <stop offset="100%" style="stop-color:#ff6b35;stop-opacity:0.8" />
      </linearGradient>
      <linearGradient id="grad2" x1="100%" y1="0%" x2="0%" y2="100%">
        <stop offset="0%" style="stop-color:#f7c59f;stop-opacity:0.7" />
        <stop offset="100%" style="stop-color:#efa48b;stop-opacity:0.7" />
      </linearGradient>
      <linearGradient id="textGrad" x1="0%" y1="0%" x2="100%" y2="0%">
        <stop offset="0%" style="stop-color:#ff4500" />
        <stop offset="25%" style="stop-color:#ff6b35" />
        <stop offset="50%" style="stop-color:#f7c59f" />
        <stop offset="75%" style="stop-color:#efa48b" />
        <stop offset="100%" style="stop-color:#d4a5a5" />
      </linearGradient>
      <filter id="glow">
        <feGaussianBlur stdDeviation="3" result="coloredBlur"/>
        <feMerge>
          <feMergeNode in="coloredBlur"/>
          <feMergeNode in="SourceGraphic"/>
        </feMerge>
      </filter>
      <filter id="textGlow">
        <feGaussianBlur stdDeviation="2" result="coloredBlur"/>
        <feMerge>
          <feMergeNode in="coloredBlur"/>
          <feMergeNode in="SourceGraphic"/>
        </feMerge>
      </filter>
    </defs>
  
  
    <style>
      @keyframes float {
        0%, 100% { transform: translateY(0px); }
        50% { transform: translateY(-8px); }
      }
      @keyframes pulse {
        0%, 100% { opacity: 0.4; }
        50% { opacity: 0.9; }
      }
      @keyframes drift {
        0% { transform: translateX(0px); }
        50% { transform: translateX(10px); }
        100% { transform: translateX(0px); }
      }
      @keyframes shimmer {
        0% { opacity: 0.3; }
        50% { opacity: 1; }
        100% { opacity: 0.3; }
      }
      @keyframes glitch {
        0%, 100% { transform: translateX(0); }
        20% { transform: translateX(-2px); }
        40% { transform: translateX(2px); }
        60% { transform: translateX(-1px); }
        80% { transform: translateX(1px); }
      }
      @keyframes dataStream {
        0% { stroke-dashoffset: 0; }
        100% { stroke-dashoffset: -20; }
      }
      .float { animation: float 8s ease-in-out infinite; }
      .pulse { animation: pulse 8s ease-in-out infinite; }
      .drift { animation: drift 8s ease-in-out infinite; }
      .shimmer { animation: shimmer 3s ease-in-out infinite; }
      .glitch { animation: glitch 0.5s ease-in-out infinite; }
      .dataStream { animation: dataStream 2s linear infinite; }
      .name-text { 
        font-family: -apple-system, BlinkMacSystemFont, 'Segoe UI', Helvetica, Arial, sans-serif;
        font-weight: 700;
        font-size: 64px;
        letter-spacing: -2px;
      }
    </style>
  
  <rect x="0" y="160" width="800" height="50" fill="#ff4500" opacity="0.3" />
<rect x="0" y="170" width="800" height="40" fill="#ff6b35" opacity="0.25" />
<rect x="0" y="180" width="800" height="30" fill="#f7c59f" opacity="0.19999999999999998" />
<rect x="0" y="190" width="800" height="20" fill="#efa48b" opacity="0.14999999999999997" />
<rect x="0" y="200" width="800" height="10" fill="#d4a5a5" opacity="0.09999999999999998" />
<line x1="532.1539908796565" y1="170" x2="532.1539908796565" y2="282.2802365531892" stroke="#ff4500" stroke-width="2.797689312772208" opacity="0.10100394649187178" class="pulse" />
<line x1="532.1539908796565" y1="170" x2="564.3933552421074" y2="290.3189458043923" stroke="#ff4500" stroke-width="2.454048657497259" opacity="0.2555581301430626" class="pulse" />
<line x1="532.1539908796565" y1="170" x2="589.4004303879126" y2="269.153741780718" stroke="#ff4500" stroke-width="2.6290424854827834" opacity="0.15118994555848872" class="pulse" />
<line x1="532.1539908796565" y1="170" x2="617.7516955430369" y2="255.59770466338045" stroke="#ff4500" stroke-width="2.0373385729086024" opacity="0.14110093475286717" class="pulse" />
<line x1="532.1539908796565" y1="170" x2="611.4378598402388" y2="215.77456308678725" stroke="#ff4500" stroke-width="2.9404248958188064" opacity="0.2090618694180268" class="pulse" />
<line x1="532.1539908796565" y1="170" x2="662.0372675349302" y2="204.8021190900887" stroke="#ff4500" stroke-width="1.4493206638932654" opacity="0.25768380681738945" class="pulse" />
<line x1="532.1539908796565" y1="170" x2="663.9707251082693" y2="170" stroke="#ff4500" stroke-width="2.2638592324929525" opacity="0.1848766193616908" class="pulse" />
<line x1="532.1539908796565" y1="170" x2="646.154803779661" y2="139.4535742469523" stroke="#ff4500" stroke-width="1.9479025890955857" opacity="0.26881602204396526" class="pulse" />
<line x1="532.1539908796565" y1="170" x2="646.2442673777114" y2="104.1299481519292" stroke="#ff4500" stroke-width="1.3812037314284065" opacity="0.13816789958264777" class="pulse" />
<line x1="532.1539908796565" y1="170" x2="601.158033315452" y2="100.99595756420449" stroke="#ff4500" stroke-width="1.8938446071827522" opacity="0.12679529343336302" class="pulse" />
<line x1="532.1539908796565" y1="170" x2="577.009953371751" y2="92.30719394128857" stroke="#ff4500" stroke-width="2.0008107440746294" opacity="0.14325252964723792" class="pulse" />
<line x1="532.1539908796565" y1="170" x2="557.3468762587552" y2="75.97887177594461" stroke="#ff4500" stroke-width="2.1979266566977036" opacity="0.1437760262012719" class="pulse" />
<path d="M 673.5645892875777 49.65245426974322 C 674.873030057829 61.67993409540534, 675.3474165134073 80.46731447010279, 667.7024296010252 89.66021605748364 C 660.057442688643 98.85311764486448, 638.9244762669202 106.91597593630638, 627.6946678132848 104.80986379402832 C 616.4648593596494 102.70375165175025, 606.0821141774672 86.21644479119605, 600.3235788792128 77.02354320381521 C 594.5650435809584 67.83064161643436, 595.2568885794184 60.88958313676044, 593.1434560237585 49.652454269743224 C 591.0300234680986 38.415325402726005, 581.884448246999 19.094972865959754, 587.6429835452534 9.60077000171188 C 593.4015188435078 0.10656713746400293, 615.6598675742408 -8.6285240993772, 627.6946678132848 -7.312762915744031 C 639.7294680523288 -5.997001732110863, 652.206798067135 8.001134239263017, 659.8517849795171 17.49533710351089 C 667.4967718918992 26.989539967758766, 672.2561485173264 37.62497444408109, 673.5645892875777 49.65245426974322 Z" fill="#f7c59f" opacity="0.16773630652395377" class="drift" />
<path d="M 737.8199034292803 31.63804563253371 C 736.0344135562441 41.3994306052113, 744.7060665972135 51.19958272094136, 741.2977621710154 55.565730931457736 C 737.8894577448173 59.931879141974115, 724.8952416655885 58.28566520177613, 717.3700768720913 57.834934895631974 C 709.8449120785941 57.384204589487815, 701.572057287495 57.22749730510915, 696.1467734100322 52.86134909459277 C 690.7214895325694 48.49520088407639, 685.0947120567942 38.98881856936625, 684.8183736073146 31.638045632533714 C 684.542035157835 24.287272695701176, 689.0634588356924 13.71249389761969, 694.4887427131551 8.756711473597537 C 699.9140265906179 3.800929049575384, 707.7830837560783 3.863232818101685, 717.3700768720913 1.9033510884007931 C 726.9570699881043 -0.056530641300098994, 748.6023969830347 -7.958361328629969, 752.0107014092329 -3.002578904607816 C 755.419005835431 1.9532035194143367, 739.6053933023165 21.87666065985612, 737.8199034292803 31.63804563253371 Z" fill="#f7c59f" opacity="0.194720030802773" class="drift" />
<path d="M 288.61494400506524 23.25014286475287 C 286.39733506691897 35.77724590866085, 276.16807904430766 47.66447265889005, 267.4930095886991 54.17862518203795 C 258.8179401330906 60.69277770518585, 246.16383518466986 63.04524419614614, 236.56452727141405 62.335058003640256 C 226.96521935815824 61.62487181113437, 216.42487482689756 56.431660550150525, 209.8971621091643 49.917508027002626 C 203.36944939143103 43.403355503854726, 199.4305940737353 34.17160769422366, 197.39825096501443 23.250142864752874 C 195.36590785629355 12.328678035282087, 191.1753907391058 -6.6550341692462975, 197.70310345683907 -15.611280949822106 C 204.23081617457234 -24.567527730397913, 222.7152673112911 -29.591885796770672, 236.56452727141405 -30.487337818701977 C 250.41378723153701 -31.382789840633283, 272.1235937619683 -29.940239861985738, 280.79866321757686 -20.98399308140993 C 289.4737326731854 -12.027746300834123, 290.8325529432115 10.72303982084489, 288.61494400506524 23.25014286475287 Z" fill="#f7c59f" opacity="0.1789605115201915" class="drift" />
<path d="M 487.39808017856365 77.89321401810938 C 488.7159125215744 90.94928917220825, 478.9238117059232 109.79466332932653, 468.6046135131293 121.01493650943837 C 458.28541532033546 132.23520968955023, 437.6725268475703 147.39912477012012, 425.4828910218003 145.21485309878045 C 413.2932551960303 143.03058142744078, 401.9351003213918 119.12957966151215, 395.46679855850937 107.90930648140031 C 388.9984967956269 96.68903330128846, 386.55704221316495 87.78253994119883, 386.6730804445058 77.89321401810938 C 386.7891186758466 68.00388809501992, 389.69472618367206 56.69727388438257, 396.1630279465545 48.57335094286357 C 402.63132970943695 40.44942800134457, 414.727125770382 30.132153928665154, 425.4828910218003 29.149676368995408 C 436.2386562732186 28.16719880932566, 450.37842126227065 34.55456264332609, 460.69761945506457 42.678485584845085 C 471.0168176478585 50.802408526364076, 486.0802478355529 64.8371388640105, 487.39808017856365 77.89321401810938 Z" fill="#f7c59f" opacity="0.15032425687949721" class="drift" />
<path d="M 724.3371726080484 82.14295521414692 L 734.1389727896847 77.24205512332878 L 743.9407729713209 82.14295521414692" fill="none" stroke="#d4a5a5" stroke-width="1.5" opacity="0.4" class="float" style="animation-delay: 0.6434016562228666s" />
<path d="M 525.8084156354379 37.67391378442884 L 531.0803710413486 35.03793608147346 L 536.3523264472593 37.67391378442884" fill="none" stroke="#d4a5a5" stroke-width="1.5" opacity="0.4" class="float" style="animation-delay: 2.7122850473910303s" />
<path d="M 260.46053427441893 71.53839283469708 L 267.2335794957082 68.15187022405243 L 274.0066247169975 71.53839283469708" fill="none" stroke="#d4a5a5" stroke-width="1.5" opacity="0.4" class="float" style="animation-delay: 0.2143198101664443s" />
<path d="M 314.00520549180175 58.0767932088065 L 321.40709595391354 54.375847977750595 L 328.80898641602533 58.0767932088065" fill="none" stroke="#d4a5a5" stroke-width="1.5" opacity="0.4" class="float" style="animation-delay: 0.49440691522231295s" />
<path d="M 342.4738433415542 64.38328503655089 L 348.5538179740203 61.343297720317835 L 354.63379260648645 64.38328503655089" fill="none" stroke="#d4a5a5" stroke-width="1.5" opacity="0.4" class="float" style="animation-delay: 1.4824157637492792s" />

  
    <text x="400" y="120" text-anchor="middle" class="name-text" fill="url(#textGrad)" filter="url(#textGlow)">
      JOEL HOOKS
    </text>
  
</svg>
