<svg xmlns="http://www.w3.org/2000/svg" viewBox="0 0 800 200" width="800" height="200">
  <rect width="800" height="200" fill="#1a0a0a"/>
  
    <defs>
      <linearGradient id="grad1" x1="0%" y1="0%" x2="100%" y2="100%">
        <stop offset="0%" style="stop-color:#ff4500;stop-opacity:0.8" />
        <stop offset="100%" style="stop-color:#ff6b35;stop-opacity:0.8" />
      </linearGradient>
      <linearGradient id="grad2" x1="100%" y1="0%" x2="0%" y2="100%">
        <stop offset="0%" style="stop-color:#f7c59f;stop-opacity:0.7" />
        <stop offset="100%" style="stop-color:#efa48b;stop-opacity:0.7" />
      </linearGradient>
      <linearGradient id="textGrad" x1="0%" y1="0%" x2="100%" y2="0%">
        <stop offset="0%" style="stop-color:#ff4500" />
        <stop offset="25%" style="stop-color:#ff6b35" />
        <stop offset="50%" style="stop-color:#f7c59f" />
        <stop offset="75%" style="stop-color:#efa48b" />
        <stop offset="100%" style="stop-color:#d4a5a5" />
      </linearGradient>
      <filter id="glow">
        <feGaussianBlur stdDeviation="3" result="coloredBlur"/>
        <feMerge>
          <feMergeNode in="coloredBlur"/>
          <feMergeNode in="SourceGraphic"/>
        </feMerge>
      </filter>
      <filter id="textGlow">
        <feGaussianBlur stdDeviation="2" result="coloredBlur"/>
        <feMerge>
          <feMergeNode in="coloredBlur"/>
          <feMergeNode in="SourceGraphic"/>
        </feMerge>
      </filter>
    </defs>
  
  
    <style>
      @keyframes float {
        0%, 100% { transform: translateY(0px); }
        50% { transform: translateY(-8px); }
      }
      @keyframes pulse {
        0%, 100% { opacity: 0.4; }
        50% { opacity: 0.9; }
      }
      @keyframes drift {
        0% { transform: translateX(0px); }
        50% { transform: translateX(10px); }
        100% { transform: translateX(0px); }
      }
      @keyframes shimmer {
        0% { opacity: 0.3; }
        50% { opacity: 1; }
        100% { opacity: 0.3; }
      }
      @keyframes glitch {
        0%, 100% { transform: translateX(0); }
        20% { transform: translateX(-2px); }
        40% { transform: translateX(2px); }
        60% { transform: translateX(-1px); }
        80% { transform: translateX(1px); }
      }
      @keyframes dataStream {
        0% { stroke-dashoffset: 0; }
        100% { stroke-dashoffset: -20; }
      }
      .float { animation: float 8s ease-in-out infinite; }
      .pulse { animation: pulse 8s ease-in-out infinite; }
      .drift { animation: drift 8s ease-in-out infinite; }
      .shimmer { animation: shimmer 3s ease-in-out infinite; }
      .glitch { animation: glitch 0.5s ease-in-out infinite; }
      .dataStream { animation: dataStream 2s linear infinite; }
      .name-text { 
        font-family: -apple-system, BlinkMacSystemFont, 'Segoe UI', Helvetica, Arial, sans-serif;
        font-weight: 700;
        font-size: 64px;
        letter-spacing: -2px;
      }
    </style>
  
  <rect x="0" y="160" width="800" height="50" fill="#ff4500" opacity="0.3" />
<rect x="0" y="170" width="800" height="40" fill="#ff6b35" opacity="0.25" />
<rect x="0" y="180" width="800" height="30" fill="#f7c59f" opacity="0.19999999999999998" />
<rect x="0" y="190" width="800" height="20" fill="#efa48b" opacity="0.14999999999999997" />
<rect x="0" y="200" width="800" height="10" fill="#d4a5a5" opacity="0.09999999999999998" />
<line x1="343.86691301703354" y1="170" x2="343.86691301703354" y2="276.4891785573668" stroke="#ff4500" stroke-width="1.7670796680310978" opacity="0.2664252959157173" class="pulse" />
<line x1="343.86691301703354" y1="170" x2="380.41472424348194" y2="306.39828840254165" stroke="#ff4500" stroke-width="1.3100290721750478" opacity="0.13441757750440936" class="pulse" />
<line x1="343.86691301703354" y1="170" x2="405.5601939971485" y2="276.8558971431818" stroke="#ff4500" stroke-width="1.703908660215264" opacity="0.15876106168311943" class="pulse" />
<line x1="343.86691301703354" y1="170" x2="431.9938312406191" y2="258.12691822358556" stroke="#ff4500" stroke-width="1.5271646189089978" opacity="0.20500336644689238" class="pulse" />
<line x1="343.86691301703354" y1="170" x2="416.695602840122" y2="212.0476636740879" stroke="#ff4500" stroke-width="1.9198746654569576" opacity="0.2627652327597595" class="pulse" />
<line x1="343.86691301703354" y1="170" x2="467.83623611894546" y2="203.21748001139025" stroke="#ff4500" stroke-width="2.3928579863438233" opacity="0.2902506337529857" class="pulse" />
<line x1="343.86691301703354" y1="170" x2="441.8132433398936" y2="170" stroke="#ff4500" stroke-width="2.924528900949133" opacity="0.25066865600398613" class="pulse" />
<line x1="343.86691301703354" y1="170" x2="487.2609357835569" y2="131.57768740026006" stroke="#ff4500" stroke-width="2.9898292461826586" opacity="0.2280209697056436" class="pulse" />
<line x1="343.86691301703354" y1="170" x2="445.2330653169735" y2="111.47622468291308" stroke="#ff4500" stroke-width="2.785413921030156" opacity="0.11409071553408562" class="pulse" />
<line x1="343.86691301703354" y1="170" x2="447.32681278447444" y2="66.54010023255908" stroke="#ff4500" stroke-width="2.979383973231345" opacity="0.2881115674104764" class="pulse" />
<line x1="343.86691301703354" y1="170" x2="415.38511569667804" y2="46.126839292847194" stroke="#ff4500" stroke-width="1.939667088936743" opacity="0.19477522145053813" class="pulse" />
<line x1="343.86691301703354" y1="170" x2="379.67143486884913" y2="36.37570530831411" stroke="#ff4500" stroke-width="2.0925124061811013" opacity="0.1908227245142041" class="pulse" />
<path d="M 272.51310555857225 25.873488252609715 C 275.4452423633863 35.69381697855269, 275.0498162845664 59.38959591846255, 267.9056791113111 64.1308848448807 C 260.76154193805576 68.87217377129885, 242.63989027815586 54.08207958275987, 229.6482825190401 54.32122181111863 C 216.65667475992433 54.5603640394774, 197.05749969339527 70.30702714145144, 189.95603255661652 65.56573821503329 C 182.85456541983777 60.82444928861514, 184.2789650166554 36.34372355837211, 187.03947969836753 25.873488252609718 C 189.79999438007965 15.403252946847324, 199.41765351011054 11.198098347656462, 206.5191206468893 2.7443263804589293 C 213.62058778366804 -5.709445586738603, 222.3493262464505 -25.259907902036137, 229.6482825190401 -24.84914355057548 C 236.9472387916297 -24.438379199114824, 243.16872110917157 -3.2448594779746642, 250.31285828242693 5.208912489222868 C 257.4569954556823 13.6626844564204, 269.5809687537582 16.053159526666743, 272.51310555857225 25.873488252609715 Z" fill="#f7c59f" opacity="0.16410022940162883" class="drift" />
<path d="M 183.97781944125578 64.9699303692284 C 184.5146097693858 72.68601926734075, 186.5656826425766 85.69313902515778, 182.13152774709533 89.72856804795552 C 177.69737285161406 93.76399707075326, 164.80852047725412 89.99975332337128, 157.3728900683682 89.18250450601482 C 149.9372596594823 88.36525568865837, 143.71398389422407 88.86050416661452, 137.51774529377983 84.82507514381678 C 131.32150669333558 80.78964612101903, 121.57472349645789 72.96757699151301, 120.19545846570273 64.9699303692284 C 118.81619343494756 56.97228374694377, 123.0459165088046 42.11746623899, 129.24215510924884 36.83919541010904 C 135.4383937096931 31.560924581228086, 149.09478495685715 32.20149885441395, 157.3728900683682 33.300305395942665 C 165.65099517987926 34.39911193747138, 174.47663088283397 38.15376383040037, 178.91078577831524 43.43203465928133 C 183.34494067379651 48.710305488162284, 183.44102911312575 57.253841471116026, 183.97781944125578 64.9699303692284 Z" fill="#f7c59f" opacity="0.10847503120017625" class="drift" />
<path d="M 129.00629200908597 77.23542175612499 C 126.71291946490126 88.94471023391995, 110.11300187919191 99.34012263945321, 100.68479429304695 105.48316955695573 C 91.25658670690198 111.62621647445825, 80.80119103336364 115.14547465360292, 72.43704649221621 114.0937032611401 C 64.07290195106879 113.0419318686773, 55.544180001829176 105.31558811968137, 50.49992704616237 99.17254120217885 C 45.45567409049556 93.02949428467633, 45.14121569459979 87.51748184119401, 42.17152875821538 77.23542175612499 C 39.20184182183097 66.95336167105597, 27.637552472189086 43.80682126872127, 32.68180542785589 37.48018069176469 C 37.7260583835227 31.153540114808102, 58.80984247049967 39.65103529464859, 72.43704649221621 39.275578294385475 C 86.06425051393276 38.900121294122364, 105.0168219720102 28.900798113229435, 114.44502955815517 35.22743869018602 C 123.87323714430013 41.554079267142605, 131.29966455327067 65.52613327833004, 129.00629200908597 77.23542175612499 Z" fill="#f7c59f" opacity="0.20726829823915943" class="drift" />
<path d="M 155.6959527418379 71.88412537207745 C 154.55118512776053 85.80655124712246, 156.592604346711 102.03720714283956, 149.10533971110505 110.21710015498032 C 141.6180750754991 118.39699316712107, 123.83255625882514 120.68095037526663, 110.77236492820217 120.96348344492198 C 97.7121735975792 121.24601651457732, 80.03611291342042 120.09219158505317, 70.7441917273672 111.91229857291242 C 61.452270541313965 103.73240556077167, 53.71252544767772 83.91853740815068, 55.02083781188281 71.88412537207745 C 56.32915017608789 59.849713336004214, 69.3021447265445 47.59692346651151, 78.59406591259773 39.705826356473025 C 87.88598709865096 31.814729246434542, 97.87571834770688 26.70808962047368, 110.77236492820215 24.537542711846548 C 123.66901150869742 22.366995803219417, 148.4866807599634 18.79144779467175, 155.97394539556936 26.682544904710234 C 163.4612100311753 34.573642014748714, 156.8407203559153 57.961699497032434, 155.6959527418379 71.88412537207745 Z" fill="#f7c59f" opacity="0.13932130580597119" class="drift" />
<path d="M 222.93889105111157 35.186460768017255 L 230.67101889450964 31.32039684631821 L 238.40314673790772 35.186460768017255" fill="none" stroke="#d4a5a5" stroke-width="1.5" opacity="0.4" class="float" style="animation-delay: 2.10450942842484s" />
<path d="M 44.85831459795693 38.1053042987421 L 51.64938821776715 34.70976748883699 L 58.44046183757737 38.1053042987421" fill="none" stroke="#d4a5a5" stroke-width="1.5" opacity="0.4" class="float" style="animation-delay: 1.8069973812975546s" />
<path d="M 600.1702981071571 69.78567900162693 L 608.2778053909494 65.73192535973075 L 616.3853126747417 69.78567900162693" fill="none" stroke="#d4a5a5" stroke-width="1.5" opacity="0.4" class="float" style="animation-delay: 0.10369410326869133s" />
<path d="M 180.54306161380438 49.84440148079158 L 189.80854789476592 45.21165834031081 L 199.07403417572746 49.84440148079158" fill="none" stroke="#d4a5a5" stroke-width="1.5" opacity="0.4" class="float" style="animation-delay: 0.24157115017880604s" />
<path d="M 566.6868754001272 63.25129164790796 L 572.1720976323604 60.50868053179132 L 577.6573198645937 63.25129164790796" fill="none" stroke="#d4a5a5" stroke-width="1.5" opacity="0.4" class="float" style="animation-delay: 2.9888560507333084s" />

  
    <text x="400" y="120" text-anchor="middle" class="name-text" fill="url(#textGrad)" filter="url(#textGlow)">
      JOEL HOOKS
    </text>
  
</svg>
