<svg xmlns="http://www.w3.org/2000/svg" viewBox="0 0 800 200" width="800" height="200">
  <rect width="800" height="200" fill="#05010d"/>
  
    <defs>
      <linearGradient id="grad1" x1="0%" y1="0%" x2="100%" y2="100%">
        <stop offset="0%" style="stop-color:#4a0080;stop-opacity:0.8" />
        <stop offset="100%" style="stop-color:#7b2cbf;stop-opacity:0.8" />
      </linearGradient>
      <linearGradient id="grad2" x1="100%" y1="0%" x2="0%" y2="100%">
        <stop offset="0%" style="stop-color:#9d4edd;stop-opacity:0.7" />
        <stop offset="100%" style="stop-color:#c77dff;stop-opacity:0.7" />
      </linearGradient>
      <linearGradient id="textGrad" x1="0%" y1="0%" x2="100%" y2="0%">
        <stop offset="0%" style="stop-color:#4a0080" />
        <stop offset="25%" style="stop-color:#7b2cbf" />
        <stop offset="50%" style="stop-color:#9d4edd" />
        <stop offset="75%" style="stop-color:#c77dff" />
        <stop offset="100%" style="stop-color:#e0aaff" />
      </linearGradient>
      <filter id="glow">
        <feGaussianBlur stdDeviation="5" result="coloredBlur"/>
        <feMerge>
          <feMergeNode in="coloredBlur"/>
          <feMergeNode in="SourceGraphic"/>
        </feMerge>
      </filter>
      <filter id="textGlow">
        <feGaussianBlur stdDeviation="2" result="coloredBlur"/>
        <feMerge>
          <feMergeNode in="coloredBlur"/>
          <feMergeNode in="SourceGraphic"/>
        </feMerge>
      </filter>
    </defs>
  
  
    <style>
      @keyframes float {
        0%, 100% { transform: translateY(0px); }
        50% { transform: translateY(-8px); }
      }
      @keyframes pulse {
        0%, 100% { opacity: 0.4; }
        50% { opacity: 0.9; }
      }
      @keyframes drift {
        0% { transform: translateX(0px); }
        50% { transform: translateX(10px); }
        100% { transform: translateX(0px); }
      }
      @keyframes shimmer {
        0% { opacity: 0.3; }
        50% { opacity: 1; }
        100% { opacity: 0.3; }
      }
      @keyframes glitch {
        0%, 100% { transform: translateX(0); }
        20% { transform: translateX(-2px); }
        40% { transform: translateX(2px); }
        60% { transform: translateX(-1px); }
        80% { transform: translateX(1px); }
      }
      @keyframes dataStream {
        0% { stroke-dashoffset: 0; }
        100% { stroke-dashoffset: -20; }
      }
      .float { animation: float 8s ease-in-out infinite; }
      .pulse { animation: pulse 8s ease-in-out infinite; }
      .drift { animation: drift 8s ease-in-out infinite; }
      .shimmer { animation: shimmer 3s ease-in-out infinite; }
      .glitch { animation: glitch 0.5s ease-in-out infinite; }
      .dataStream { animation: dataStream 2s linear infinite; }
      .name-text { 
        font-family: -apple-system, BlinkMacSystemFont, 'Segoe UI', Helvetica, Arial, sans-serif;
        font-weight: 700;
        font-size: 64px;
        letter-spacing: -2px;
      }
    </style>
  
  <path d="M 839.7967672006522 56.48260899025268 C 830.408456925272 71.65228601724361, 800.3619675433933 73.19585241759133, 788.3532512948617 78.35845700287736 C 776.3445350463301 83.52106158816339, 775.1626014844561 85.78156990949628, 767.7444697094624 87.45823650196888 C 760.3263379344686 89.13490309444148, 760.7754522885477 87.75000861055868, 743.8444606448993 88.41845655771291 C 726.9134690012509 89.08690450486715, 672.6037399758491 100.25592458003212, 666.1585198475714 91.46892418489432 C 659.7132997192937 82.68192378975652, 693.1656991342312 48.47864996407462, 705.1731398752335 35.696454186886115 C 717.1805806162357 22.91425840969761, 725.8474314797529 27.403563628601525, 738.2031642935851 14.775749521763302 C 750.5588971074174 2.147935414925078, 761.5608786493008 -35.49787134067132, 779.307536758227 -40.07043045414324 C 797.0541948671532 -44.64298956761517, 834.6015745400719 -28.751778399800894, 844.6831129471427 -12.659605159068242 C 854.7646513542136 3.43256808166441, 849.1850774760323 41.31293196326175, 839.7967672006522 56.48260899025268 Z" fill="#c77dff" opacity="0.23221008183048444" filter="url(#glow)" class="float" />
<path d="M 553.9430150665668 168.32801533195584 C 552.8443721649822 187.80491446657373, 555.7922521107856 217.14176773865864, 544.3439762656665 223.99310017526403 C 532.8957004205473 230.84443261186942, 504.6094183452926 204.33828606939775, 485.253359995852 209.43600995158826 C 465.8973016464114 214.53373383377877, 442.1876803448631 256.78215556585087, 428.20762616902266 254.57944346840702 C 414.2275719931822 252.37673137096317, 409.27195852361285 216.49073671975057, 401.3730349408094 196.21973736692513 C 393.474111358006 175.9487380140997, 375.6829654396293 150.83642573744902, 380.81408467220217 132.9534473514544 C 385.94520390477504 115.07046896545978, 413.34138102316933 97.88428668474204, 432.1597503362466 88.92186705095742 C 450.97811964932384 79.9594474171728, 473.9282866608444 76.14395649598016, 493.7243005506656 79.17892954874671 C 513.5203144404868 82.21390260151325, 540.899381255857 92.2735244036885, 550.9358336751739 107.13170536755669 C 560.9722860944908 121.98988633142488, 555.0416579681513 148.85111619733794, 553.9430150665668 168.32801533195584 Z" fill="#9d4edd" opacity="0.200287994241781" filter="url(#glow)" class="float" />
<path d="M 547.8116356586424 24.187544292639007 C 547.4573783001154 42.820062367141254, 545.0261875052427 56.42603807503559, 536.175814825399 79.19332685950002 C 527.3254421455554 101.96061564396445, 512.1273891583136 158.71368346652403, 494.7093995795803 160.79127699942555 C 477.291410000847 162.86887053232707, 450.5816400846095 109.00328406859681, 431.6678773529993 91.65888805690918 C 412.75411462138914 74.31449204522154, 386.1181342859994 72.1134689249024, 381.22682318991906 56.724900929299764 C 376.3355120938387 41.336332933697115, 398.83706336578337 24.524033040931947, 402.32001077651705 -0.6725199167067082 C 405.80295818725074 -25.869072874345363, 388.4547659655815 -85.63322472280575, 402.1245076543213 -94.45441681653216 C 415.7942493430611 -103.27560891025857, 461.64231902191585 -63.908445017234975, 484.3384609089559 -53.59967247906519 C 507.0346027959959 -43.29089994089541, 527.7224965182804 -45.56631771613084, 538.3013589765615 -32.60178158751347 C 548.8802214348425 -19.637245458896103, 548.1658930171695 5.55502621813676, 547.8116356586424 24.187544292639007 Z" fill="#e0aaff" opacity="0.18411939135970157" filter="url(#glow)" class="float" />
<path d="M 734.1232681383265 123.94940706523272 C 735.0004785897346 131.37905868067878, 739.9841853407951 132.9995393869486, 741.8755853926741 147.92960868922356 C 743.7669854445531 162.8596779914985, 754.1097389489353 200.70142793326397, 745.4716684496009 213.52982287888233 C 736.8335979502665 226.35821782450068, 704.3077489760781 231.2412305553284, 690.0471623966681 224.89997836293364 C 675.7865758172582 218.55872617053888, 672.8669809947731 187.79204154144185, 659.9081489731409 175.4823097245138 C 646.9493169515086 163.17257790758578, 615.8875203038335 162.87074980945954, 612.2941702668745 151.0415874613655 C 608.7008202299155 139.21242511327148, 629.2686989886159 116.2916313965742, 638.3480487513868 104.50733563594969 C 647.4273985141577 92.72303987532517, 656.5289882431564 82.62009731639913, 666.7702688435002 80.33581289761838 C 677.0115494438439 78.05152847883764, 688.9435647898529 93.50369390540472, 699.7957323534491 90.80162912326523 C 710.6478999170454 88.09956434112574, 725.7471758366153 62.03174589256776, 731.8832742250779 64.12342420478143 C 738.0193726135406 66.2151025169951, 736.2389903653506 93.38070185313869, 736.6123226842253 103.35169899654724 C 736.9856550031001 113.3226961399558, 733.2460576869183 116.51975544978667, 734.1232681383265 123.94940706523272 Z" fill="#9d4edd" opacity="0.22069388508984805" filter="url(#glow)" class="float" />
<path d="M 215.65180430589828 60.888385205537965 L 215.65180430589828 60.888385205537965 L 216.1100973554118 60.928480651943126 L 216.55791342126915 61.048156690043726 L 216.98490844723287 61.245589383635156 L 217.38100281542768 61.517761992144145 L 217.73651003819396 61.86049945350706 L 218.0422612558308 62.26851616906771 L 218.2897242062761 62.73547660497593 L 218.47111538693403 63.254068093809074 L 218.5795041956105 63.81608509525019 L 218.60890791623717 64.41252405683264 L 218.55437650501509 65.0336879061317 L 218.41206623295778 65.66929910540298 L 218.17930135061792 66.30862010950672 L 217.85462305901993 66.94057998889086 L 217.43782519638424 67.55390591221095 L 216.9299761819444 68.13725812850491 L 216.333426894786 68.67936704726795 L 215.65180430589828 69.16917098671644 L 214.88999082420025 69.595953146295 L 214.05408946084066 69.94947635924665 L 213.15137505921794 70.22011419488015 L 212.1902319795643 70.39897700794965 L 211.18007876524044 70.47803157409805 L 210.1312804517793 70.450213005268 L 209.05504930790556 70.30952770688737 L 207.96333491901717 70.05114621890412 L 206.8687046367616 69.67148487467463 L 205.7842155222732 69.16827531448685 L 204.723279004333 68.54062100320954 L 203.69951955623574 67.7890400231867 L 202.7266287656651 66.91549354294636 L 201.8182162296631 65.92339949838743 L 200.9876587512177 64.81763116460706 L 200.2479493445935 63.604500442135944 L 199.6115475729248 62.29172582971853 L 199.09023274354132 60.888385205537965 L 198.69496147389773 59.4048536885471 L 198.43573111385177 57.85272699992846 L 198.3214504685485 56.2447308902745 L 198.35981921060431 54.59461733947614 L 198.55721730107376 52.917048372191374 L 198.91860565637072 51.22746846082974 L 199.44743920357732 49.54196660899048 L 200.1455933602017 47.87712932004687 L 201.01330485733718 46.24988575697686 L 202.0491276983394 44.677346489582455 L 203.24990490967195 43.1766373030011 L 204.6107565976603 41.76472960607789 L 206.12508467580113 40.45826902904038 L 207.784594473321 39.2734038364205 L 209.57933327824605 38.2256148028498 L 211.49774570874843 37.32954820589538 L 213.52674564642487 36.59885358132096 L 215.65180430589828 36.04602786200253 L 217.857053858182 35.6822674822939 L 220.12540587205964 35.51732997515364 L 222.43868368974492 35.55940652018061 L 224.77776771168791 35.8150068173617 L 227.12275243193363 36.28885756444903 L 229.45311394119574 36.98381570621287 L 231.74788650100052 37.90079750224544 L 233.98584668999936 39.03872432751097 L 236.14570353388382 40.39448597755241 L 238.2062929541842 41.96292209936908 L 240.1467748094067 43.73682221075686 L 241.94683075515587 45.70694460671075 L 243.5868611186603 47.862054282752055 L 245.04817896789802 50.188979833232864 L 246.31319955659404 52.67268910930258 L 247.36562334387867 55.29638324783622 L 248.1906108213588 58.04160851077169 L 248.7749474306122 60.88838520553796 L 249.10719692038586 63.81535279311457 L 249.1778415746204 66.79993013225119 L 248.97940783926322 69.81848965796772 L 248.50657598695682 72.84654415105544 L 247.75627258325164 75.85894462426205 L 246.7277446550209 78.83008773142464 L 245.42261461016238 81.73413099919497 L 243.8449151162557 84.54521408824904 L 242.0011033133083 87.23768421294793 L 239.90005391067714 89.7863237861543 L 237.55303089923416 92.16657831001794 L 234.97363779531472 94.35478250459309 L 232.17774652137294 96.3283826545644 L 229.18340521793124 98.06615316042 L 226.0107254707168 99.54840530424131 L 222.68174962415188 100.75718628185618 L 219.22029903595745 101.676466612242 L 215.65180430589828 102.29231411143036 L 212.00311868302884 102.59305271126905 L 208.30231601863318 102.56940451259791 L 204.5784747848854 102.2146135869105 L 200.861449820653 101.52455017947881 L 197.18163359448548 100.49779411915576 L 193.56970888942237 99.13569640445814 L 190.05639491368655 97.44241811077364 L 186.67218892457723 95.42494594822583 L 183.44710551906383 93.09308399237239 L 180.41041579295154 90.45942130892688 L 177.59038860044677 87.53927539742864 L 175.0140361570456 84.35061158554365 L 172.70686622060742 80.91393871370136 L 170.69264305813394 77.2521816572987 L 168.99315935918736 73.39053143893965 L 167.62802119124225 69.35627388434344 L 166.61444800795073 65.17859797088997 L 165.96708961882743 60.888385205537986 L 165.6978619089237 56.51798154737569 L 165.8158029605005 52.100953557721006 L 166.32695107651818 47.67183061594185 L 167.23424603907515 43.26583518056489 L 168.53745475601605 38.918603201436426 L 170.23312225718064 34.66589689847275 L 172.31454879969104 30.54331221477147 L 174.77179363087998 26.585983325606932 L 177.59170573963942 22.82828663927907 L 180.75798170389945 19.303546760260772 L 184.25125051545282 16.043746899114893 L 188.04918503530337 13.079246206887774 L 192.12663950504614 10.438506483982685 L 196.4558123144097 8.147830664891345 L 201.00643300391346 6.231115410819456 L 205.74597226654095 4.7096200525441105 L 210.63987350525343 3.6017540163469164 L 215.65180430589825 2.9228847372886335 L 220.7439259993534 2.685167917319859 L 225.8771793142671 2.8974018218023687 L 231.01158396407743 3.564907128150253 L 236.10654987059917 4.689433645832537 L 241.12119760268857 6.269095019391315 L 246.01468550355264 8.298332307022733 L 250.74654089521962 10.767907098359203 L 255.27699268443928 13.664924598189259 L 259.5673026515816 16.97288685985466 L 263.5800926835059 20.671776104929137 L 267.2796652132929 24.73816781653774 L 270.632314154346 29.145373044353814 L 273.606623663718 33.86360911199708 L 276.17375213942717 38.860197674321455 L 278.30769894862436 44.099788834969985 L 279.98555149722995 49.544609805628745 L 281.18771038633287 55.15473636960036 L 281.8980905553261 60.88838520553793 L 282.1042964853599 66.70222493428594 L 281.7977697279717 72.55170357445877 L 280.9739072312936 78.39138993230026 L 279.632149158486 84.17532630996666 L 277.7760351283093 89.85738979501708 L 275.41322805421106 95.39165929378154 L 272.55550501404866 100.73278539341398 L 269.2187148455773 105.83636008268905 L 265.42270243100614 110.65928333064566 L 261.1911999051171 115.16012351547599 L 256.55168529345315 119.29946871390422 L 251.5352093576718 123.04026590378314 L 246.17619169212793 126.34814519962208 L 240.51218737684252 129.19172633194916 L 234.58362574504955 131.54290469627162" fill="none" stroke="#4a0080" stroke-width="1" opacity="0.3" class="drift" />
<path d="M 498.5655848896908 86.86290856154027 L 498.5655848896908 86.86290856154027 L 499.1968399223953 86.9181362206956 L 499.813663907831 87.08297856649452 L 500.40180889358965 87.35492330050761 L 500.9473911659246 87.7298151498778 L 501.4370685105238 88.20190336420131 L 501.8582116962947 88.76390753467399 L 502.19906834476956 89.40710106674669 L 502.4489174223414 90.12141145742612 L 502.59821268448536 90.89553635633483 L 502.6387135095481 91.71707422735352 L 502.5636016835866 92.57266827666407 L 502.3675828359583 93.44816217474802 L 502.0469713766095 94.32876597570595 L 501.59975794887214 95.19923052835858 L 501.0256585845275 96.0440285810346 L 500.3261449293248 96.84754070666207 L 499.5044550953315 97.59424411751773 L 498.5655848896908 98.26890240034263 L 497.5162593657394 98.85675418292685 L 496.3648848401483 99.34369874294254 L 495.1214817169194 99.71647658883232 L 493.79759865383437 99.96284308082619 L 492.40620879744995 100.07173321737186 L 490.9615889971559 100.03341578795578 L 489.47918308538215 99.83963518682165 L 487.97545047806176 99.48373929265472 L 486.4677015053071 98.96079194592396 L 484.9739210254137 98.26766869714075 L 483.5125820043644 97.40313465453833 L 482.1024508566714 96.3679034272089 L 480.7623864405265 95.16467633803879 L 479.5111346798204 93.79816126824049 L 478.3671208468033 92.27507069018105 L 477.3482415813069 90.60409864576255 L 476.4716587450313 88.79587663197701 L 475.7535972120861 86.86290856154027 L 475.20914867962216 84.81948517279287 L 474.85208354502646 82.68157846740948 L 474.69467283900553 80.46671695496481 L 474.7475221273528 78.19384267816498 L 475.0194191988606 75.88315117971966 L 475.51719724346367 73.55591574960417 L 476.2456150942068 71.23429745812935 L 477.2072559601125 68.94114263416809 L 478.402445915718 66.69976958756745 L 479.82919323834716 64.53374649879932 L 481.4831494975905 62.46666250601126 L 483.35759310462095 60.52189410870925 L 485.4434358236125 58.72236907737734 L 487.7292525354717 57.090330108617735 L 490.20133432724595 55.64710049525955 L 492.8437647608803 54.41285408989437 L 495.63851895445805 53.40639182819874 L 498.5655848896908 52.64492704513318 L 501.60310614323424 52.143881762789626 L 504.72754502840985 51.916696053613904 L 507.91386493007036 51.974652487461825 L 511.13573042058493 52.326717556150115 L 514.3657235610912 52.97940183571143 L 517.5755746210281 53.936640495501486 L 520.7364052922039 55.19969559585368 L 523.8189823328062 56.767081433498106 L 526.7939794532527 58.6345139979783 L 529.6322451508955 60.794885394453445 L 532.3050741154224 63.23826387033769 L 534.7844797623335 65.95191985706926 L 537.0434654088524 68.92037820588217 L 539.0562915856655 72.12549655980229 L 540.7987369793647 75.54656956529136 L 542.2483505245988 79.16045838814142 L 543.3846922117143 82.94174476151146 L 544.1895602449002 86.86290856154025 L 544.6472022771235 90.89452767987976 L 544.7445085608792 95.00549874484756 L 544.4711849871625 99.16327703572384 L 543.8199041381331 103.33413373995332 L 542.7864326505182 107.48342852252046 L 541.3697333755413 111.57589521227868 L 539.57204102558 115.57593826315568 L 537.3989102161968 119.44793752039877 L 534.8592350428419 123.1565587146913 L 531.9652395725208 126.66706702120891 L 528.7324388799956 129.94564095747447 L 525.1795705135629 132.95968385399456 L 521.3284965349287 135.67813011570047 L 517.2040765389477 138.07174350056704 L 512.8340123197438 140.11340467460735 L 508.2486651076779 141.77838535971026 L 503.48084655451567 143.04460647224585 L 498.5655848896908 143.89287775555206 L 493.53986790655534 144.30711653765496 L 488.44236466179524 144.27454339599072 L 483.3131279817032 143.7858526824051 L 478.19328006375895 142.83535605303467 L 473.12468363913086 141.4210973573664 L 468.1496013195512 139.54493746720235 L 463.3103458889732 137.21260786763207 L 458.6489244150892 134.43373208651016 L 454.20667914695053 131.22181430428046 L 450.02392823155833 127.59419476011347 L 446.13960932355405 123.57197185094739 L 442.59092917742487 119.1798911048136 L 439.41302230053196 114.4462014963579 L 436.6386217076119 109.40247985831601 L 434.2977447532305 104.0834244253973 L 432.41739692825877 98.52661882411562 L 431.0212963903032 92.77226809116115 L 430.1296218568766 86.8629085615403 L 429.75878632489406 80.84309371360877 L 429.9212388919783 74.75905828905647 L 430.6252967454328 68.65836321974848 L 431.8750091551443 62.58952408808952 L 433.670055058866 56.601626021400584 L 436.00567556421714 50.743928071999406" fill="none" stroke="#9d4edd" stroke-width="1" opacity="0.3" class="drift" />
<circle cx="469.1204155296072" cy="43.836811211879436" r="1.8148788165278655" fill="white" opacity="0.711207607299938" class="shimmer" style="animation-delay: 2.5419382645712654s" />
<circle cx="61.294962164698674" cy="111.34627156325658" r="1.791547344150948" fill="white" opacity="0.5097156770288602"  style="animation-delay: 4.111636412898346s" />
<circle cx="206.55507883557897" cy="75.40898175020092" r="0.7216021469624531" fill="white" opacity="0.5690904928149185" class="shimmer" style="animation-delay: 0.4559042323307583s" />
<circle cx="338.8603162001958" cy="134.86542325417906" r="1.804467699326795" fill="white" opacity="0.5057342897258752"  style="animation-delay: 0.30606169023490337s" />
<circle cx="403.6040216139728" cy="122.83818905397092" r="1.477337371660248" fill="white" opacity="0.6688205171663799"  style="animation-delay: 1.0565000296038618s" />
<circle cx="709.4839490155357" cy="56.29605325532414" r="1.8305902984479188" fill="white" opacity="0.47422216691457725"  style="animation-delay: 3.358523635543036s" />
<circle cx="77.94560574442374" cy="138.64183448746857" r="1.7547322807162944" fill="white" opacity="0.6155881330999196"  style="animation-delay: 2.4491649445090347s" />
<circle cx="98.39465750468825" cy="98.04733093837315" r="1.5164790410967077" fill="white" opacity="0.5073130832648318"  style="animation-delay: 0.7119810061074017s" />
<circle cx="745.649683771418" cy="48.52874176069149" r="1.6319980745097107" fill="white" opacity="0.4583309020801923"  style="animation-delay: 1.1757643599604917s" />
<circle cx="513.5837351826293" cy="169.40143875063072" r="1.8719954410962243" fill="white" opacity="0.4366515153898723"  style="animation-delay: 1.870390345364058s" />
<circle cx="442.19947744321234" cy="5.43210103095797" r="0.7048497192007063" fill="white" opacity="0.5526616497025099"  style="animation-delay: 0.9740513592781275s" />
<circle cx="689.088957014216" cy="182.3840860447778" r="1.9701473371263085" fill="white" opacity="0.5959968779886131" class="shimmer" style="animation-delay: 4.876728388427405s" />
<circle cx="134.70232678556417" cy="68.95235878499739" r="0.5977168781409028" fill="white" opacity="0.7095532279984904"  style="animation-delay: 2.924458675986996s" />
<circle cx="525.0764772498027" cy="102.98227653113466" r="1.9515088548161417" fill="white" opacity="0.5966144561418816"  style="animation-delay: 2.8375271948533087s" />
<circle cx="203.60262680762364" cy="74.74984077317526" r="1.4045965407875136" fill="white" opacity="0.4107685307583106"  style="animation-delay: 2.228455230239188s" />
<circle cx="635.2997310074761" cy="69.77123917238353" r="0.8410102707926708" fill="white" opacity="0.5965056971078577"  style="animation-delay: 2.470284934241195s" />
<circle cx="415.33884307995413" cy="112.86488574911525" r="0.7526281919629066" fill="white" opacity="0.628824707637845"  style="animation-delay: 1.0423822588229492s" />
<circle cx="80.88364783427392" cy="187.5268426460346" r="1.9771776352671642" fill="white" opacity="0.5245257290621221"  style="animation-delay: 4.794440078673289s" />
<circle cx="551.7930236150704" cy="171.93881515396305" r="1.9974117710030517" fill="white" opacity="0.3701407914193399" class="shimmer" style="animation-delay: 3.1463035472122503s" />
<circle cx="338.3197720120858" cy="32.45646700931735" r="0.6371925454359691" fill="white" opacity="0.5316703794967934"  style="animation-delay: 3.805334356245954s" />
<circle cx="667.6590963009162" cy="189.94083147704416" r="0.6285230875971256" fill="white" opacity="0.7856721037873762"  style="animation-delay: 1.9972447910354596s" />
<circle cx="267.96358054210765" cy="20.45667560996285" r="1.1990741888572933" fill="white" opacity="0.3799507704451169"  style="animation-delay: 2.9977641776479844s" />
<circle cx="447.4819416688051" cy="184.91365862918468" r="1.1589644094698917" fill="white" opacity="0.636124802679201" class="shimmer" style="animation-delay: 0.5977290963145487s" />
<circle cx="784.177616398023" cy="12.386177078444804" r="1.769651206400228" fill="white" opacity="0.3340052189897668"  style="animation-delay: 0.529789414684515s" />
<circle cx="334.5306758854939" cy="45.363504647775784" r="1.4510290534179673" fill="white" opacity="0.5602696039629631"  style="animation-delay: 4.755899936193478s" />
<circle cx="748.2101059284263" cy="141.06420654650574" r="1.5461584171837588" fill="white" opacity="0.49994271015961805" class="shimmer" style="animation-delay: 1.5916650992676185s" />
<circle cx="72.413170356117" cy="107.09781192990579" r="1.2899860317699863" fill="white" opacity="0.5238434414233504"  style="animation-delay: 4.15565048869956s" />
<circle cx="147.7939162701583" cy="141.34579444216143" r="0.5128378748846592" fill="white" opacity="0.3266844018135903" class="shimmer" style="animation-delay: 0.3865914998599318s" />
<circle cx="635.6033165097115" cy="42.235348990834254" r="0.6280157403298904" fill="white" opacity="0.38249060763136317"  style="animation-delay: 2.068140362920955s" />
<circle cx="610.2744581501386" cy="118.08240986984457" r="1.9556821594096852" fill="white" opacity="0.4667349836112375"  style="animation-delay: 2.697420510829367s" />
<circle cx="544.5757333278578" cy="30.62891992028036" r="1.5177815813333035" fill="white" opacity="0.5270369500797178" class="shimmer" style="animation-delay: 4.704627653198264s" />
<circle cx="492.50145900247924" cy="176.28933311190934" r="1.4633080086289287" fill="white" opacity="0.36702054290829816"  style="animation-delay: 4.931153822524435s" />
<circle cx="440.7736134327548" cy="20.585618463866773" r="1.582683715669761" fill="white" opacity="0.5887803472848314"  style="animation-delay: 4.89999533040521s" />
<circle cx="757.7930075180976" cy="154.28912172871895" r="1.557139488454113" fill="white" opacity="0.6760666281364462"  style="animation-delay: 1.270891412971249s" />
<circle cx="410.26773558041435" cy="101.20378172246727" r="1.190157675444821" fill="white" opacity="0.4889564923424778" class="shimmer" style="animation-delay: 2.508453781173486s" />
<circle cx="461.91858761016675" cy="112.68993648723749" r="0.815091111343211" fill="white" opacity="0.3198275779228013"  style="animation-delay: 3.59799087816791s" />
<circle cx="583.351424611818" cy="21.10696077575831" r="0.8614572780873336" fill="white" opacity="0.7378442570961479"  style="animation-delay: 3.728851786898104s" />
<circle cx="20.68608714237694" cy="15.945593650766243" r="1.982186900923295" fill="white" opacity="0.6714118977956622" class="shimmer" style="animation-delay: 2.3569519217584824s" />
<circle cx="506.8816560195307" cy="181.73232544243874" r="1.7304536593076236" fill="white" opacity="0.7680016582678397" class="shimmer" style="animation-delay: 1.6330989702863352s" />
<circle cx="793.0366761131015" cy="60.0231381646104" r="1.0875814855129964" fill="white" opacity="0.5405646759891181"  style="animation-delay: 2.9401340830100953s" />
<circle cx="769.6834668279344" cy="173.30056997871844" r="2.358090525764591" fill="#7b2cbf" opacity="0.8" filter="url(#glow)" class="shimmer" style="animation-delay: 2.0650073798658455s" />
<circle cx="384.4055126363388" cy="22.551747403164057" r="2.1214883977689225" fill="#c77dff" opacity="0.8" filter="url(#glow)" class="shimmer" style="animation-delay: 0.5666767417751162s" />
<circle cx="46.328117476029185" cy="131.91575019817122" r="2.3595769480447344" fill="#e0aaff" opacity="0.8" filter="url(#glow)" class="shimmer" style="animation-delay: 0.07293155291344333s" />
<circle cx="37.4325524647265" cy="107.51456062902011" r="1.7802941515284707" fill="#7b2cbf" opacity="0.8" filter="url(#glow)" class="shimmer" style="animation-delay: 0.6008632541305099s" />
<circle cx="551.6973248020266" cy="197.4569439378521" r="2.200199326113705" fill="#7b2cbf" opacity="0.8" filter="url(#glow)" class="shimmer" style="animation-delay: 1.0123767653411002s" />
<circle cx="729.4179844386944" cy="148.2170822789262" r="2.7736686988267385" fill="#e0aaff" opacity="0.8" filter="url(#glow)" class="shimmer" style="animation-delay: 2.111675855877519s" />
<circle cx="582.3382323900331" cy="41.925650439708086" r="1.8080453654887334" fill="#e0aaff" opacity="0.8" filter="url(#glow)" class="shimmer" style="animation-delay: 2.9723683321335796s" />
<circle cx="575.9127253999052" cy="105.39943604082805" r="2.3122595784791" fill="#9d4edd" opacity="0.8" filter="url(#glow)" class="shimmer" style="animation-delay: 0.69743941605126s" />
<line x1="186.5491456598592" y1="107.82585526688034" x2="141.8557921014079" y2="156.4487600153261" stroke="#e0aaff" stroke-width="0.5" opacity="0.3" />
<line x1="482.4080398233399" y1="110.42560434258311" x2="407.9647652329792" y2="150.23590928907856" stroke="#e0aaff" stroke-width="0.5" opacity="0.3" />
<line x1="407.9647652329792" y1="150.23590928907856" x2="254.86208848099068" y2="168.30517531108217" stroke="#e0aaff" stroke-width="0.5" opacity="0.3" />

  
    <text x="400" y="120" text-anchor="middle" class="name-text" fill="url(#textGrad)" filter="url(#textGlow)">
      JOEL HOOKS
    </text>
  
</svg>
