<svg xmlns="http://www.w3.org/2000/svg" viewBox="0 0 800 200" width="800" height="200">
  <rect width="800" height="200" fill="#1a0a0a"/>
  
    <defs>
      <linearGradient id="grad1" x1="0%" y1="0%" x2="100%" y2="100%">
        <stop offset="0%" style="stop-color:#ff4500;stop-opacity:0.8" />
        <stop offset="100%" style="stop-color:#ff6b35;stop-opacity:0.8" />
      </linearGradient>
      <linearGradient id="grad2" x1="100%" y1="0%" x2="0%" y2="100%">
        <stop offset="0%" style="stop-color:#f7c59f;stop-opacity:0.7" />
        <stop offset="100%" style="stop-color:#efa48b;stop-opacity:0.7" />
      </linearGradient>
      <linearGradient id="textGrad" x1="0%" y1="0%" x2="100%" y2="0%">
        <stop offset="0%" style="stop-color:#ff4500" />
        <stop offset="25%" style="stop-color:#ff6b35" />
        <stop offset="50%" style="stop-color:#f7c59f" />
        <stop offset="75%" style="stop-color:#efa48b" />
        <stop offset="100%" style="stop-color:#d4a5a5" />
      </linearGradient>
      <filter id="glow">
        <feGaussianBlur stdDeviation="3" result="coloredBlur"/>
        <feMerge>
          <feMergeNode in="coloredBlur"/>
          <feMergeNode in="SourceGraphic"/>
        </feMerge>
      </filter>
      <filter id="textGlow">
        <feGaussianBlur stdDeviation="2" result="coloredBlur"/>
        <feMerge>
          <feMergeNode in="coloredBlur"/>
          <feMergeNode in="SourceGraphic"/>
        </feMerge>
      </filter>
    </defs>
  
  
    <style>
      @keyframes float {
        0%, 100% { transform: translateY(0px); }
        50% { transform: translateY(-8px); }
      }
      @keyframes pulse {
        0%, 100% { opacity: 0.4; }
        50% { opacity: 0.9; }
      }
      @keyframes drift {
        0% { transform: translateX(0px); }
        50% { transform: translateX(10px); }
        100% { transform: translateX(0px); }
      }
      @keyframes shimmer {
        0% { opacity: 0.3; }
        50% { opacity: 1; }
        100% { opacity: 0.3; }
      }
      @keyframes glitch {
        0%, 100% { transform: translateX(0); }
        20% { transform: translateX(-2px); }
        40% { transform: translateX(2px); }
        60% { transform: translateX(-1px); }
        80% { transform: translateX(1px); }
      }
      @keyframes dataStream {
        0% { stroke-dashoffset: 0; }
        100% { stroke-dashoffset: -20; }
      }
      .float { animation: float 8s ease-in-out infinite; }
      .pulse { animation: pulse 8s ease-in-out infinite; }
      .drift { animation: drift 8s ease-in-out infinite; }
      .shimmer { animation: shimmer 3s ease-in-out infinite; }
      .glitch { animation: glitch 0.5s ease-in-out infinite; }
      .dataStream { animation: dataStream 2s linear infinite; }
      .name-text { 
        font-family: -apple-system, BlinkMacSystemFont, 'Segoe UI', Helvetica, Arial, sans-serif;
        font-weight: 700;
        font-size: 64px;
        letter-spacing: -2px;
      }
    </style>
  
  <rect x="0" y="160" width="800" height="50" fill="#ff4500" opacity="0.3" />
<rect x="0" y="170" width="800" height="40" fill="#ff6b35" opacity="0.25" />
<rect x="0" y="180" width="800" height="30" fill="#f7c59f" opacity="0.19999999999999998" />
<rect x="0" y="190" width="800" height="20" fill="#efa48b" opacity="0.14999999999999997" />
<rect x="0" y="200" width="800" height="10" fill="#d4a5a5" opacity="0.09999999999999998" />
<line x1="407.4005377164525" y1="170" x2="407.4005377164525" y2="268.46615533626385" stroke="#ff4500" stroke-width="1.1209091628942813" opacity="0.16369681632839259" class="pulse" />
<line x1="407.4005377164525" y1="170" x2="435.1312548502383" y2="273.4924452736094" stroke="#ff4500" stroke-width="1.6703549390742003" opacity="0.2579480883338108" class="pulse" />
<line x1="407.4005377164525" y1="170" x2="459.1278454696484" y2="259.59432516728685" stroke="#ff4500" stroke-width="1.7257468132866909" opacity="0.14465132206859285" class="pulse" />
<line x1="407.4005377164525" y1="170" x2="473.57422417848306" y2="236.17368646203056" stroke="#ff4500" stroke-width="1.7307363348186322" opacity="0.11225172016245147" class="pulse" />
<line x1="407.4005377164525" y1="170" x2="502.9167321941636" y2="225.14630059367516" stroke="#ff4500" stroke-width="2.0412959793446794" opacity="0.1635645563587831" class="pulse" />
<line x1="407.4005377164525" y1="170" x2="535.4598249195119" y2="204.313382589365" stroke="#ff4500" stroke-width="2.5134902751352577" opacity="0.27652830779882365" class="pulse" />
<line x1="407.4005377164525" y1="170" x2="524.8350698961196" y2="170" stroke="#ff4500" stroke-width="2.0155143523003276" opacity="0.23687414286322248" class="pulse" />
<line x1="407.4005377164525" y1="170" x2="490.361293678244" y2="147.77073243656253" stroke="#ff4500" stroke-width="2.866050798852211" opacity="0.20646430133906457" class="pulse" />
<line x1="407.4005377164525" y1="170" x2="513.2296495392798" y2="108.89953380099166" stroke="#ff4500" stroke-width="2.6293143654433164" opacity="0.10844662786367909" class="pulse" />
<line x1="407.4005377164525" y1="170" x2="498.40952907790665" y2="78.99100863854589" stroke="#ff4500" stroke-width="1.102749993826043" opacity="0.2178518811121029" class="pulse" />
<line x1="407.4005377164525" y1="170" x2="461.88505625561754" y2="75.63004566423784" stroke="#ff4500" stroke-width="1.6837450644693122" opacity="0.26331596220773895" class="pulse" />
<line x1="407.4005377164525" y1="170" x2="438.37936318655204" y2="54.38544938677984" stroke="#ff4500" stroke-width="2.191758119185784" opacity="0.13877962157184115" class="pulse" />
<path d="M 421.9944144998077 61.89469557091654 C 420.9013617636127 74.34502723326783, 424.39585531482396 86.9251384281794, 418.06177612213344 95.96653234938555 C 411.7276969294429 105.0079262705917, 396.98960990559334 114.50066746238085, 383.98993934366445 116.14305909815343 C 370.99026878173555 117.78545073392601, 350.4590856727816 114.86227608522722, 340.06375275055996 105.82088216402107 C 329.6684198283383 96.77948824281492, 320.15040682773497 75.06922278601846, 321.61794181033457 61.89469557091655 C 323.0854767929342 48.72016835581463, 338.4736297239358 36.1648235195817, 348.86896264615746 26.773718873409557 C 359.2642955683791 17.38261422723741, 371.3647510281402 6.466263776905638, 383.98993934366445 5.548067693883681 C 396.6151276591887 4.6298716108617235, 418.2860133466126 11.87343772910567, 424.62009253930313 21.264542375277813 C 430.95417173199365 30.65564702144996, 423.0874672360027 49.44436390856525, 421.9944144998077 61.89469557091654 Z" fill="#f7c59f" opacity="0.20692831426777836" class="drift" />
<path d="M 750.4994945254183 44.08548756527604 C 751.38177781082 56.08909864333756, 740.6933369613407 71.64765955799182, 731.0005688304472 82.74317065566599 C 721.3078006995536 93.83868175334017, 705.4735710069201 110.4137632479216, 692.3428857400572 110.65855415132113 C 679.2122004731943 110.90334505472066, 659.458642733841 95.30742717373732, 652.2164572292701 84.21191607606315 C 644.9742717246992 73.11640497838897, 650.4775969624184 59.04878798532498, 648.8897727126318 44.08548756527605 C 647.3019484628453 29.122187145227116, 635.4473262259799 3.4950611831054488, 642.6895117305507 -5.567886444230453 C 649.9316972351216 -14.630834071566355, 678.5066595088097 -13.007096637327255, 692.3428857400572 -10.292198198739364 C 706.1791119713048 -7.577299760151472, 716.0141009871429 1.658556559960994, 725.7068691180364 10.721504187296894 C 735.3996372489298 19.784451814632796, 749.6172112400166 32.08187648721452, 750.4994945254183 44.08548756527604 Z" fill="#f7c59f" opacity="0.10378150817869962" class="drift" />
<path d="M 561.0324024638279 57.417453855021485 C 562.7668854545124 64.8185494108008, 562.9593312495203 78.66365801879394, 557.8633698787805 84.82418949441286 C 552.7674085080407 90.98472097003179, 539.1677628667169 94.80509262787105, 530.4566342393891 94.38064270873502 C 521.7455056120614 93.956192789599, 512.9273010804305 88.43802145521562, 505.5965981148139 82.2774899795967 C 498.2658951491972 76.11695850397777, 485.7537302136914 64.98544633121566, 486.472416445689 57.41745385502149 C 487.1911026776866 49.84946137882732, 502.57801254118266 44.81831957219333, 509.90871550679935 36.869535122431685 C 517.239418472416 28.920750672670035, 524.1986748347434 9.133400316900719, 530.4566342393891 9.724747156451599 C 536.7145936440348 10.31609399600248, 542.3605105639339 32.46883170997532, 547.4564719346737 40.417616159736966 C 552.5524333054135 48.36640060949861, 559.2979194731435 50.01635829924217, 561.0324024638279 57.417453855021485 Z" fill="#f7c59f" opacity="0.15625607480784945" class="drift" />
<path d="M 586.0552836772666 64.63672476532685 C 587.283795833505 80.74948490102629, 589.1717516179626 108.03629989750145, 579.3902818309391 116.66054164114034 C 569.6088120439156 125.28478338477923, 541.3789775975841 119.71093487663947, 527.3664649551256 116.38217522716016 C 513.353952312667 113.05341557768085, 507.5970271953285 105.31222548790339, 495.31520597618794 96.6879837442645 C 483.0333847570474 88.06374200062561, 455.91480118406173 77.55974130208558, 453.67553764028224 64.63672476532686 C 451.43627409650276 51.713708228568144, 469.59780349437034 30.51219190639825, 481.8796247135109 19.149884523712196 C 494.1614459326515 7.7875771410261425, 512.343200925126 -3.676135581328032, 527.3664649551256 -3.537119530789454 C 542.3897289851252 -3.398103480250876, 562.2377391064853 8.621673444257615, 572.0192088935088 19.983980826943665 C 581.8006786805323 31.346288209629712, 584.8267715210283 48.5239646296274, 586.0552836772666 64.63672476532685 Z" fill="#f7c59f" opacity="0.19312960085923117" class="drift" />
<path d="M 551.8306559997991 85.40214214450519 L 563.761069736494 79.43693527615774 L 575.691483473189 85.40214214450519" fill="none" stroke="#d4a5a5" stroke-width="1.5" opacity="0.4" class="float" style="animation-delay: 0.2771087018151226s" />
<path d="M 582.0417144281105 60.24276052988771 L 588.6871612951743 56.9200370963558 L 595.3326081622381 60.24276052988771" fill="none" stroke="#d4a5a5" stroke-width="1.5" opacity="0.4" class="float" style="animation-delay: 2.713891365904672s" />
<path d="M 666.0531975993771 33.64199190540477 L 676.6608919056246 28.338144752281018 L 687.268586211872 33.64199190540477" fill="none" stroke="#d4a5a5" stroke-width="1.5" opacity="0.4" class="float" style="animation-delay: 2.960248972444681s" />
<path d="M 102.67106779417968 79.10228058562645 L 111.6043933315904 74.63561781692108 L 120.53771886900113 79.10228058562645" fill="none" stroke="#d4a5a5" stroke-width="1.5" opacity="0.4" class="float" style="animation-delay: 2.7909405952238875s" />
<path d="M 203.27111733451207 31.024283513342517 L 209.08169164452522 28.11899635833594 L 214.89226595453837 31.024283513342517" fill="none" stroke="#d4a5a5" stroke-width="1.5" opacity="0.4" class="float" style="animation-delay: 2.6415781505655183s" />

  
    <text x="400" y="120" text-anchor="middle" class="name-text" fill="url(#textGrad)" filter="url(#textGlow)">
      JOEL HOOKS
    </text>
  
</svg>
