<svg xmlns="http://www.w3.org/2000/svg" viewBox="0 0 800 200" width="800" height="200">
  <rect width="800" height="200" fill="#1a0a0a"/>
  
    <defs>
      <linearGradient id="grad1" x1="0%" y1="0%" x2="100%" y2="100%">
        <stop offset="0%" style="stop-color:#ff4500;stop-opacity:0.8" />
        <stop offset="100%" style="stop-color:#ff6b35;stop-opacity:0.8" />
      </linearGradient>
      <linearGradient id="grad2" x1="100%" y1="0%" x2="0%" y2="100%">
        <stop offset="0%" style="stop-color:#f7c59f;stop-opacity:0.7" />
        <stop offset="100%" style="stop-color:#efa48b;stop-opacity:0.7" />
      </linearGradient>
      <linearGradient id="textGrad" x1="0%" y1="0%" x2="100%" y2="0%">
        <stop offset="0%" style="stop-color:#ff4500" />
        <stop offset="25%" style="stop-color:#ff6b35" />
        <stop offset="50%" style="stop-color:#f7c59f" />
        <stop offset="75%" style="stop-color:#efa48b" />
        <stop offset="100%" style="stop-color:#d4a5a5" />
      </linearGradient>
      <filter id="glow">
        <feGaussianBlur stdDeviation="3" result="coloredBlur"/>
        <feMerge>
          <feMergeNode in="coloredBlur"/>
          <feMergeNode in="SourceGraphic"/>
        </feMerge>
      </filter>
      <filter id="textGlow">
        <feGaussianBlur stdDeviation="2" result="coloredBlur"/>
        <feMerge>
          <feMergeNode in="coloredBlur"/>
          <feMergeNode in="SourceGraphic"/>
        </feMerge>
      </filter>
    </defs>
  
  
    <style>
      @keyframes float {
        0%, 100% { transform: translateY(0px); }
        50% { transform: translateY(-8px); }
      }
      @keyframes pulse {
        0%, 100% { opacity: 0.4; }
        50% { opacity: 0.9; }
      }
      @keyframes drift {
        0% { transform: translateX(0px); }
        50% { transform: translateX(10px); }
        100% { transform: translateX(0px); }
      }
      @keyframes shimmer {
        0% { opacity: 0.3; }
        50% { opacity: 1; }
        100% { opacity: 0.3; }
      }
      @keyframes glitch {
        0%, 100% { transform: translateX(0); }
        20% { transform: translateX(-2px); }
        40% { transform: translateX(2px); }
        60% { transform: translateX(-1px); }
        80% { transform: translateX(1px); }
      }
      @keyframes dataStream {
        0% { stroke-dashoffset: 0; }
        100% { stroke-dashoffset: -20; }
      }
      .float { animation: float 8s ease-in-out infinite; }
      .pulse { animation: pulse 8s ease-in-out infinite; }
      .drift { animation: drift 8s ease-in-out infinite; }
      .shimmer { animation: shimmer 3s ease-in-out infinite; }
      .glitch { animation: glitch 0.5s ease-in-out infinite; }
      .dataStream { animation: dataStream 2s linear infinite; }
      .name-text { 
        font-family: -apple-system, BlinkMacSystemFont, 'Segoe UI', Helvetica, Arial, sans-serif;
        font-weight: 700;
        font-size: 64px;
        letter-spacing: -2px;
      }
    </style>
  
  <rect x="0" y="160" width="800" height="50" fill="#ff4500" opacity="0.3" />
<rect x="0" y="170" width="800" height="40" fill="#ff6b35" opacity="0.25" />
<rect x="0" y="180" width="800" height="30" fill="#f7c59f" opacity="0.19999999999999998" />
<rect x="0" y="190" width="800" height="20" fill="#efa48b" opacity="0.14999999999999997" />
<rect x="0" y="200" width="800" height="10" fill="#d4a5a5" opacity="0.09999999999999998" />
<line x1="284.8821011091763" y1="170" x2="284.8821011091763" y2="259.91483481824804" stroke="#ff4500" stroke-width="2.05689537611416" opacity="0.2917478880282817" class="pulse" />
<line x1="284.8821011091763" y1="170" x2="311.92070534829173" y2="270.90944478612596" stroke="#ff4500" stroke-width="2.9744165694964444" opacity="0.17424371194116453" class="pulse" />
<line x1="284.8821011091763" y1="170" x2="342.3835244539082" y2="269.59538674060275" stroke="#ff4500" stroke-width="1.0005922011098343" opacity="0.20887577639001603" class="pulse" />
<line x1="284.8821011091763" y1="170" x2="372.5643560238506" y2="257.68225491467433" stroke="#ff4500" stroke-width="1.1683598144292344" opacity="0.21514804717311736" class="pulse" />
<line x1="284.8821011091763" y1="170" x2="398.3894167510455" y2="235.533479240825" stroke="#ff4500" stroke-width="1.857266012677858" opacity="0.19206234539675798" class="pulse" />
<line x1="284.8821011091763" y1="170" x2="418.57245792773233" y2="205.82222314536074" stroke="#ff4500" stroke-width="1.0369521723685509" opacity="0.2581218268046235" class="pulse" />
<line x1="284.8821011091763" y1="170" x2="410.1588084410284" y2="170" stroke="#ff4500" stroke-width="1.1784597571530604" opacity="0.2297288914499712" class="pulse" />
<line x1="284.8821011091763" y1="170" x2="379.59712087389414" y2="144.62118694294605" stroke="#ff4500" stroke-width="1.998172189812108" opacity="0.1281128196223052" class="pulse" />
<line x1="284.8821011091763" y1="170" x2="380.25353767113336" y2="114.93727542795278" stroke="#ff4500" stroke-width="1.42929231667731" opacity="0.18786063572961584" class="pulse" />
<line x1="284.8821011091763" y1="170" x2="350.7441562463282" y2="104.13794486284812" stroke="#ff4500" stroke-width="1.9325321235079245" opacity="0.1597949038973882" class="pulse" />
<line x1="284.8821011091763" y1="170" x2="343.9146282200796" y2="67.75266374472841" stroke="#ff4500" stroke-width="1.543488623739528" opacity="0.23319645867201458" class="pulse" />
<line x1="284.8821011091763" y1="170" x2="323.6407830751614" y2="25.35062966854025" stroke="#ff4500" stroke-width="1.2148550291693847" opacity="0.14165207909226937" class="pulse" />
<path d="M 378.46344353098567 55.02833908461004 C 377.9881478009465 66.87169973755708, 362.5072111448061 79.7124769734477, 352.4951257138255 89.13253385333354 C 342.48304028284485 98.55259073321938, 329.9136422398969 111.39403399203796, 318.39093094510196 111.54868036392506 C 306.868219650307 111.70332673581215, 294.4893792347053 99.48046896454196, 283.3588579450559 90.06041208465612 C 272.22833665540645 80.64035520477029, 253.61501831162886 68.71291185571553, 251.6078032072054 55.028339084610046 C 249.60058810278193 41.34376631350456, 260.18504602886566 16.631612837344015, 271.3155673185151 7.952975458023197 C 282.44608860816453 -0.7256619212976236, 304.38570881584434 1.269949062413777, 318.39093094510196 2.956514808685128 C 332.3961530743596 4.643080554956479, 345.33481466308007 9.393732556330484, 355.3469000940607 18.072369935651302 C 365.3589855250413 26.75100731497212, 378.93873926102486 43.184978431663, 378.46344353098567 55.02833908461004 Z" fill="#f7c59f" opacity="0.17837118882104203" class="drift" />
<path d="M 205.15622826058774 77.3679757564264 C 205.8268430654844 88.92326815731981, 203.50108097452483 103.62461600552598, 195.8345071938382 114.04569737379659 C 188.16793341315156 124.46677874206719, 172.40351511814146 138.87364163016665, 159.15678557646802 139.89446396605004 C 145.9100560347946 140.91528630193343, 124.20532449621699 130.59171275736747, 116.35412994379755 120.17063138909688 C 108.5029353913781 109.74955002082628, 112.79609457664625 92.38200394867812, 112.04961826195135 77.3679757564264 C 111.30314194725645 62.35394756417468, 104.02407750320872 38.40227112390253, 111.87527205562816 30.08646223558656 C 119.7264666080476 21.77065334727059, 145.83419452499635 25.03520897105563, 159.15678557646802 27.473122426530566 C 172.4793766279397 29.9110358820055, 184.14424458377164 36.398134080120194, 191.81081836445824 44.713942968436164 C 199.47739214514485 53.029751856752135, 204.48561345569107 65.812683355533, 205.15622826058774 77.3679757564264 Z" fill="#f7c59f" opacity="0.17432535947448957" class="drift" />
<path d="M 301.0314580892147 77.64685048064712 C 301.3652527672093 89.1453538706399, 312.3836806503109 107.01784068191199, 307.55474632173775 113.14374468460915 C 302.7258119931646 119.2696486873063, 281.61470973725835 116.6777149453348, 272.0578521177757 114.40227449683007 C 262.5009944982931 112.12683404832535, 259.80368405286106 105.61700599627792, 250.21360060484207 99.49110199358077 C 240.62351715682308 93.36519799088362, 216.7518826890101 87.16279891097325, 214.51735142966186 77.64685048064712 C 212.2828201703136 68.13090205032098, 227.2163296007336 50.59462663356759, 236.80641304875257 42.39541141162397 C 246.39649649677156 34.19619618968034, 260.6002579169394 28.158673660147276, 272.0578521177757 28.451559148985368 C 283.515446318612 28.74444463782346, 300.72304392519715 35.95350912270889, 305.5519782537703 44.15272434465251 C 310.38091258234346 52.35193956659614, 300.6976634112201 66.14834709065434, 301.0314580892147 77.64685048064712 Z" fill="#f7c59f" opacity="0.1191168938423183" class="drift" />
<path d="M 658.1958557552426 49.37769587696721 C 660.4283580151421 57.014526157688614, 650.7034684921746 72.55303007934045, 643.2833915151886 78.98569349882963 C 635.8633145382025 85.41835691831882, 624.33294059097 87.18546223687922, 613.6753938933261 87.97367639390231 C 603.0178471956823 88.7618905509254, 584.7684811915545 90.14764186045736, 579.3381113293252 83.71497844096817 C 573.9077414670959 77.28231502147898, 580.0718295762533 59.80211158793711, 581.0931747199504 49.377695876967216 C 582.1145198636475 38.95328016599732, 580.0358123292784 24.98613758028209, 585.4661821915078 21.168484175148787 C 590.8965520537371 17.350830770015484, 606.2716945992787 24.47240417294199, 613.6753938933261 26.471775446167392 C 621.0790931873736 28.471146719392795, 622.4683009788062 29.3470584093679, 629.8883779557922 33.1647118145012 C 637.3084549327782 36.9823652196345, 655.9633534953432 41.740865596245804, 658.1958557552426 49.37769587696721 Z" fill="#f7c59f" opacity="0.10675262292779389" class="drift" />
<path d="M 382.0288166357248 27.912268510267225 L 393.5011298213014 22.176111917478924 L 404.973443006878 27.912268510267225" fill="none" stroke="#d4a5a5" stroke-width="1.5" opacity="0.4" class="float" style="animation-delay: 0.0871535128654013s" />
<path d="M 458.7245906541828 54.76741844093436 L 468.45470833685977 49.90235959959588 L 478.18482601953673 54.76741844093436" fill="none" stroke="#d4a5a5" stroke-width="1.5" opacity="0.4" class="float" style="animation-delay: 0.9329247283178845s" />
<path d="M 336.5429470764781 53.65836495721009 L 344.0489142380668 49.90538137641573 L 351.5548813996555 53.65836495721009" fill="none" stroke="#d4a5a5" stroke-width="1.5" opacity="0.4" class="float" style="animation-delay: 2.0207339045449655s" />
<path d="M 272.6586960901398 26.939760525058247 L 281.58504331418396 22.47658691303618 L 290.5113905382281 26.939760525058247" fill="none" stroke="#d4a5a5" stroke-width="1.5" opacity="0.4" class="float" style="animation-delay: 2.0592653156468548s" />
<path d="M 483.3536398984399 36.52662001869614 L 493.14060880412956 31.633135565851298 L 502.9275777098192 36.52662001869614" fill="none" stroke="#d4a5a5" stroke-width="1.5" opacity="0.4" class="float" style="animation-delay: 1.079837594077452s" />

  
    <text x="400" y="120" text-anchor="middle" class="name-text" fill="url(#textGrad)" filter="url(#textGlow)">
      JOEL HOOKS
    </text>
  
</svg>
