<svg xmlns="http://www.w3.org/2000/svg" viewBox="0 0 800 200" width="800" height="200">
  <rect width="800" height="200" fill="#05010d"/>
  
    <defs>
      <linearGradient id="grad1" x1="0%" y1="0%" x2="100%" y2="100%">
        <stop offset="0%" style="stop-color:#4a0080;stop-opacity:0.8" />
        <stop offset="100%" style="stop-color:#7b2cbf;stop-opacity:0.8" />
      </linearGradient>
      <linearGradient id="grad2" x1="100%" y1="0%" x2="0%" y2="100%">
        <stop offset="0%" style="stop-color:#9d4edd;stop-opacity:0.7" />
        <stop offset="100%" style="stop-color:#c77dff;stop-opacity:0.7" />
      </linearGradient>
      <linearGradient id="textGrad" x1="0%" y1="0%" x2="100%" y2="0%">
        <stop offset="0%" style="stop-color:#4a0080" />
        <stop offset="25%" style="stop-color:#7b2cbf" />
        <stop offset="50%" style="stop-color:#9d4edd" />
        <stop offset="75%" style="stop-color:#c77dff" />
        <stop offset="100%" style="stop-color:#e0aaff" />
      </linearGradient>
      <filter id="glow">
        <feGaussianBlur stdDeviation="5" result="coloredBlur"/>
        <feMerge>
          <feMergeNode in="coloredBlur"/>
          <feMergeNode in="SourceGraphic"/>
        </feMerge>
      </filter>
      <filter id="textGlow">
        <feGaussianBlur stdDeviation="2" result="coloredBlur"/>
        <feMerge>
          <feMergeNode in="coloredBlur"/>
          <feMergeNode in="SourceGraphic"/>
        </feMerge>
      </filter>
    </defs>
  
  
    <style>
      @keyframes float {
        0%, 100% { transform: translateY(0px); }
        50% { transform: translateY(-8px); }
      }
      @keyframes pulse {
        0%, 100% { opacity: 0.4; }
        50% { opacity: 0.9; }
      }
      @keyframes drift {
        0% { transform: translateX(0px); }
        50% { transform: translateX(10px); }
        100% { transform: translateX(0px); }
      }
      @keyframes shimmer {
        0% { opacity: 0.3; }
        50% { opacity: 1; }
        100% { opacity: 0.3; }
      }
      @keyframes glitch {
        0%, 100% { transform: translateX(0); }
        20% { transform: translateX(-2px); }
        40% { transform: translateX(2px); }
        60% { transform: translateX(-1px); }
        80% { transform: translateX(1px); }
      }
      @keyframes dataStream {
        0% { stroke-dashoffset: 0; }
        100% { stroke-dashoffset: -20; }
      }
      .float { animation: float 8s ease-in-out infinite; }
      .pulse { animation: pulse 8s ease-in-out infinite; }
      .drift { animation: drift 8s ease-in-out infinite; }
      .shimmer { animation: shimmer 3s ease-in-out infinite; }
      .glitch { animation: glitch 0.5s ease-in-out infinite; }
      .dataStream { animation: dataStream 2s linear infinite; }
      .name-text { 
        font-family: -apple-system, BlinkMacSystemFont, 'Segoe UI', Helvetica, Arial, sans-serif;
        font-weight: 700;
        font-size: 64px;
        letter-spacing: -2px;
      }
    </style>
  
  <path d="M 478.1660998396011 150.94538494711065 C 476.33183225237235 170.23157603041793, 450.6180202815957 183.78952528954383, 434.6372502723475 203.30115543534626 C 418.6564802630993 222.8127855811487, 403.11998208766875 264.62858701444696, 382.28147978411187 268.0151658219253 C 361.442977480555 271.4017446294036, 330.2186976859543 243.13225842601867, 309.6062364510063 223.62062828021624 C 288.9937752160583 204.1089981344138, 254.61179606732784 171.17554975104974, 258.606712374424 150.94538494711068 C 262.6016286815201 130.71522014317162, 312.9632730586351 115.7086963525133, 333.5757342935831 102.23963945658186 C 354.1881955285311 88.77058256065041, 363.6036262004224 72.57364865836854, 382.28147978411187 70.13104357152201 C 400.9593333678013 67.68843848467549, 429.6620857864716 74.11495203957122, 445.6428557957198 87.58400893550267 C 461.623625804968 101.05306583143411, 480.0003674268298 131.65919386380338, 478.1660998396011 150.94538494711065 Z" fill="#9d4edd" opacity="0.11586467331197536" filter="url(#glow)" class="float" />
<path d="M 739.0019761436217 24.81252576130575 C 739.6648786752164 41.890623675517375, 705.1002860351608 55.37813652899146, 692.4407742196101 77.49170014731862 C 679.7812624040595 99.60526376564579, 679.0741308755574 154.13297999808813, 663.0449052503175 157.49390747126876 C 647.0156796250775 160.85483494444938, 616.8339919593319 110.04719091477341, 596.2654204681703 97.6572649864024 C 575.6968489770087 85.26733905803138, 555.7647128606228 95.29514177189208, 539.6334763033476 83.15435190104265 C 523.5022397460724 71.01356203019321, 500.72916711075794 45.168826439814325, 499.47800112451915 24.812525761305764 C 498.22683513828036 4.456225082797204, 516.6245436337234 -24.905876649105195, 532.1264803859148 -38.983452170008725 C 547.6284171381061 -53.061027690912255, 570.5216781654178 -47.715895583883245, 592.4896216376673 -59.65292736411543 C 614.4575651099167 -71.5899591443476, 647.9385183206823 -116.3849828557625, 663.9341412194113 -110.6056428514018 C 679.9297641181404 -104.82630284704109, 675.95205320934 -47.546582106735755, 688.4633590300417 -24.976887337951162 C 700.9746648507435 -2.407192569166572, 738.339073612027 7.734427847094121, 739.0019761436217 24.81252576130575 Z" fill="#c77dff" opacity="0.2037852190981904" filter="url(#glow)" class="float" />
<path d="M 782.3675963264558 95.59812890579784 C 787.7674448182033 110.18357129744297, 833.3140958841219 144.55394161358785, 829.5021735870589 149.76527180553552 C 825.6902512899959 154.9766019974832, 774.6607309788387 128.12472419093535, 759.4960625440779 126.86611005748384 C 744.331394109317 125.60749592403232, 747.0483064978116 140.3225816718383, 738.5141629784936 142.21358700482642 C 729.9800194591755 144.10459233781455, 719.3900933377448 142.39446132958787, 708.29120142817 138.21214205541253 C 697.1923095185952 134.0298227812372, 676.0420078132722 127.23913803516525, 671.9208115210448 117.1196713597744 C 667.7996152288174 107.00020468438355, 679.0334556402405 89.95165828191686, 683.5640236748055 77.4953420030674 C 688.0945917093705 65.03902572421795, 689.6613648757523 45.15515639853555, 699.1042197284347 42.381773686677676 C 708.5470745811172 39.6083909748198, 726.4913264230071 65.22116122552592, 740.2211527909004 60.85504573192013 C 753.9509791587938 56.48893023831434, 772.0028562948489 15.952152104418827, 781.4831779357945 16.185080725042923 C 790.9634995767401 16.41800934566702, 796.9556795714634 49.017109425538884, 797.1030826365736 62.252617455664705 C 797.2504857016838 75.48812548579052, 776.9677478347082 81.0126865141527, 782.3675963264558 95.59812890579784 Z" fill="#7b2cbf" opacity="0.2079185899812186" filter="url(#glow)" class="float" />
<path d="M 844.2713688205439 37.064132290520476 C 839.321100412013 57.642089303112826, 852.3517022841805 71.10968494782631, 847.6694353330754 89.25397033028165 C 842.9871683819703 107.39825571273698, 832.978537470399 131.9130288625092, 816.1777671139131 145.92984458525254 C 799.3769967574272 159.94666030799587, 764.6555014339281 180.5304060821986, 746.8648131941594 173.35486466674166 C 729.0741249543908 166.17932325128473, 727.9097726989813 119.20766847693743, 709.4336376753015 102.87659609251088 C 690.9575026516217 86.54552370808433, 641.792916213359 90.82654250459194, 636.0080030520803 75.36843036018236 C 630.2230898908016 59.91031821577277, 661.2679789865838 26.07440756512283, 674.7241587076293 10.127923226053358 C 688.1803384286748 -5.818561113016113, 704.2920446111737 -5.072616142265089, 716.7450813783533 -20.310475674234475 C 729.198118145533 -35.54833520620386, 734.2367783690997 -75.70963009170735, 749.4423793107073 -81.29923396576297 C 764.6479802523149 -86.88883783981858, 786.6572426157398 -61.69567595531659, 807.9786870279987 -53.84809891856817 C 829.3001314402576 -46.00052188181975, 871.3222654855032 -49.36581028012058, 877.3710457842607 -34.21377174527247 C 883.4198260830182 -19.061733210424357, 849.2216372290748 16.486175277928123, 844.2713688205439 37.064132290520476 Z" fill="#9d4edd" opacity="0.10307978741224037" filter="url(#glow)" class="float" />
<path d="M 112.68978913007301 115.2978259608183 L 112.68978913007301 115.2978259608183 L 113.0864360288965 115.33252806788808 L 113.47401522948485 115.43610618112037 L 113.84357408062029 115.60698170655662 L 114.18638879917795 115.84254369298515 L 114.49407585131473 116.1391786764407 L 114.75869970370763 116.49231203743551 L 114.97287579032304 116.8964604507114 L 115.12986758707463 117.34529489413198 L 115.22367674449985 117.83171357524515 L 115.24912529671512 118.34792403207032 L 115.20192904276217 118.88553356978264 L 115.07876128330744 119.43564710808755 L 114.87730619069123 119.9889714360468 L 114.59630119265698 120.5359248026856 L 114.23556785876463 121.06675071355465 L 113.79603089248954 121.57163475611306 L 113.2797249502591 122.04082324081769 L 112.68978913007301 122.46474242052159 L 112.03044909574739 122.83411703846467 L 111.30698692705234 123.14008695493675 L 110.52569890990475 123.37432061464919 L 109.69384160315535 123.52912414089549 L 108.81956663821 123.59754487853026 L 107.91184482360416 123.57346825535681 L 106.98038023759764 123.45170689028271 L 106.03551509680354 123.22808094607356 L 105.08812628679249 122.89948880409882 L 104.14951453056734 122.4639672274162 L 103.2312872518943 121.92074027608973 L 102.34523626189987 121.27025634390438 L 101.50321145837428 120.51421279767713 L 100.71699177723346 119.65556781815309 L 99.99815467405304 118.69853916393987 L 99.35794544007165 117.64858970595344 L 98.80714767125075 116.51239970826025 L 98.35595621066643 115.2978259608183 L 98.01385387360375 114.01384799923682 L 97.78949324124795 112.67050177507902 L 97.69058477295849 111.2788012662201 L 97.72379243902357 109.85064863914982 L 97.89463801589082 108.39873369271469 L 98.20741511463062 106.9364234244978 L 98.66511393139423 105.47764266576067 L 99.2693576165641 104.03674682759303 L 100.02035105793881 102.6283878886841 L 100.91684276351931 101.267374833059 L 101.9561004122193 99.96852981342522 L 103.13390051713529 98.74654137174129 L 104.44453251697355 97.61581609264934 L 105.8808174779874 96.5903300970065 L 107.4341414525215 95.6834818015147 L 109.09450340221926 94.90794737611033 L 110.8505774553752 94.27554032317316 L 112.68978913007301 93.79707658170844 L 114.59840501891034 93.48224652552616 L 116.56163529853089 93.33949517728664 L 118.56374829910118 93.37591190042016 L 120.58819624649229 93.59713075879661 L 122.61775117441724 94.00724265016588 L 124.63464989624516 94.60872022447204 L 126.62074682771292 95.40235649292515 L 128.55767336325408 96.38721791905576 L 130.42700243106088 97.56061265983041 L 132.21041678608594 98.91807449430881 L 133.88987954668045 100.45336284038233 L 135.44780544005388 102.15847911802892 L 136.8672311947122 104.02369957147823 L 138.13198350485706 106.0376245139819 L 139.22684299266024 108.18724380883685 L 140.13770260948758 110.45801825024593 L 140.85171894654104 112.83397635886463 L 141.35745496888617 115.2978259608183 L 141.64501274418802 117.83107977691151 L 141.70615480831128 120.41419411199477 L 141.5344128937548 123.02671960427638 L 141.12518284306694 125.64746287198841 L 140.47580463719567 128.25465778140315 L 139.58562658732316 130.82614495684209 L 138.45605286718052 133.33955806104046 L 137.0905737000892 135.77251529395517 L 135.4947776599146 138.10281449065982 L 133.6763456965383 140.3086301450849 L 131.64502665309126 142.36871064664012 L 129.412594202714 144.26257399170308 L 126.99278529565369 145.9707002219277 L 124.40122037166026 147.47471884657458 L 121.65530575648441 148.75758952668915 L 118.77411882336396 149.80377433493948 L 115.77827665928257 150.5993999561092 L 112.68978913007302 151.13240825933474 L 109.53189738672397 151.3926937537562 L 106.32889899617794 151.37222653376318 L 103.10596101218499 151.0651594277837 L 99.88892242415213 150.46791818478448 L 96.70408753324759 149.5792736644112 L 93.5780119041976 148.40039513897236 L 90.5372826272686 146.93488396714022 L 87.6082946969804 145.18878705908816 L 84.81702537137775 143.17058971951352 L 82.18880841755279 140.89118762723942 L 79.74811017503683 138.36383788641885 L 77.51830937828436 135.60408926331093 L 75.52148267249336 132.62969190263956 L 73.77819773334446 129.46048699715632 L 72.30731586091854 126.11827706165964 L 71.12580586124523 122.62667763682786 L 70.24857095595922 119.01095141728368 L 69.68829037185327 115.29782596081832 L 69.45527715831224 111.51529629021341 L 69.55735366242153 107.69241384420464 L 69.99974595982401 103.85906336850027 L 70.78499839513456 100.0457294601466 L 71.91290923000989 96.28325458775228 L 73.38048823101512 92.60259050509119 L 75.18193685453672 89.03454505543164 L 77.3086515035495 85.60952642776991 L 79.74925014252412 82.35728697326937 L 82.48962236369616 79.3066687200444 L 85.51300280189018 76.48535273656776 L 88.80006759772871 73.91961448812576 L 92.32905341201112 71.63408730676842 L 96.07589829898416 69.65153605311751 L 100.01440355480172 67.99264298838023 L 104.11641547134484 66.67580779728391 L 108.35202574635177 65.71696360788164 L 112.68978913007298 65.12941074289527 L 117.09695672793374 64.92366981023466 L 121.53972322940527 65.10735559846022 L 125.9834861968209 65.68507308728566 L 130.39311542549552 66.65833671490762 L 134.73323027937965 68.02551386428493 L 138.9684828156517 69.7817933408565 L 143.06384443804203 71.91917941606766 L 146.9848937630772 74.42651180604113 L 150.69810334647562 77.28951174441572 L 154.17112289910054 80.49085409448567 L 157.3730566235379 84.0102652300532 L 160.2747323236694 87.82464619862236 L 162.84895998059312 91.9082204665158 L 165.070777548746 96.23270533497855 L 166.91768180579473 100.76750591111707 L 168.369842188314 105.47993031937152 L 169.41029566183255 110.3354246498413 L 170.02512080769932 115.29782596081827 L 170.20358945947953 120.3296314859349 L 169.9382943871377 125.39228204286927 L 169.22525170688928 130.44645750199612 L 168.06397688695597 135.45238205099162 L 166.45753342307654 140.37013688636563 L 164.41255347093872 145.1599778762486 L 161.93922994403806 149.7826556713695 L 159.05127981310375 154.19973569377834 L 155.76587857532934 158.3739154060745 L 152.10356609636145 162.2693362580995 L 148.0881242634203 165.8518877234976 L 143.74642712212068 169.08950087531855 L 139.10826440061612 171.95242900780863" fill="none" stroke="#4a0080" stroke-width="1" opacity="0.3" class="drift" />
<path d="M 642.1536704523271 144.48433168525563 L 642.1536704523271 144.48433168525563 L 642.4525680563042 144.5104818371587 L 642.7446325972116 144.5885342559761 L 643.0231177069164 144.71729937498426 L 643.2814494833374 144.89480968337296 L 643.5133104229571 145.11834221589405 L 643.7127206179442 145.38444971805484 L 643.8741153478878 145.6890001702016 L 643.9924182314659 146.02722426855897 L 644.0631091469089 146.39377037983746 L 644.0822861814563 146.78276640917903 L 644.0467209286708 147.1878879497081 L 643.9539065179255 147.60243201648998 L 643.802097831987 148.01939560889377 L 643.5903434457377 148.43155829379177 L 643.3185089009703 148.83156795820196 L 642.987291018091 149.21202884433166 L 642.5982230346791 149.56559095286656 L 642.1536704523271 149.88503988205088 L 641.656817566169 150.1633861608208 L 641.1116447451222 150.39395313410068 L 640.5228966242265 150.57046246738048 L 639.8960414626818 150.6871163558124 L 639.2372220113904 150.73867555015389 L 638.5531983211303 150.72053234772434 L 637.8512830060914 150.62877774082943 L 637.1392695565912 150.46026196745646 L 636.4253543685816 150.21264776900117 L 635.7180532253416 149.88445572681732 L 635.0261130278615 149.47510112288904 L 634.3584196242413 148.98492184925166 L 633.7239026344208 148.41519697521392 L 633.1314382042445 147.76815567019435 L 632.5897506518452 147.0469762722708 L 632.1073139892906 146.25577538750383 L 631.6922543131282 145.39958700186267 L 631.3522540587367 144.48433168525563 L 631.0944591051739 143.51677606484245 L 630.9253896995215 142.50448284156644 L 630.8508561426667 141.45575171878318 L 630.8758801422239 140.37955170408225 L 631.0046226931606 139.2854453340205 L 631.2403192930069 138.18350545566116 L 631.5852232367401 137.08422527773024 L 632.0405576670641 135.99842247708725 L 632.6064769794178 134.9371382123464 L 633.2820380983329 133.911531955208 L 634.065182053404 132.93277310077687 L 634.9527261899334 132.01193036031822 L 635.9403672520705 131.1598599730811 L 637.0226954758604 130.38709379762656 L 638.19321972694 129.7037283572381 L 639.4444036135945 129.1193159182585 L 640.767712401465 128.64275867446858 L 642.1536704523271 128.28220709486988 L 643.5919288069953 128.04496346651433 L 645.0713424325006 127.93739162848951 L 646.5800565571715 127.96483384805958 L 648.1056014250285 128.13153573560592 L 649.6349947138606 128.44058003182099 L 651.1548507803192 128.89383002908386 L 652.6514958211422 129.49188330965555 L 654.111087972928 130.23403639693055 L 655.5197413144 131.1182608231827 L 656.8636526854368 132.1411910188289 L 658.129230196819 133.2981243250428 L 659.303222274116 134.58303332446434 L 660.3728460587698 135.98859057470062 L 661.3259139795026 137.50620571726088 L 662.1509573078802 139.12607482149667 L 662.8373455232847 140.8372417100387 L 663.3754003347022 142.62767090013847 L 663.7565032395081 144.48433168525563 L 663.9731955426564 146.39329277417892 L 664.0192698130538 148.3398268019135 L 663.8898518170588 150.30852392847189 L 663.5814720415233 152.28341364948506 L 663.0921260000299 154.24809385708747 L 662.4213226053504 156.1858661116453 L 661.5701199879403 158.0798760153604 L 660.5411482437142 159.91325751828902 L 659.3386187035637 161.66927993649222 L 657.9683194311864 163.33149642142746 L 656.4375967738297 164.88389258976065 L 654.755322911516 166.3110340038961 L 652.9318494731805 167.59821118596653 L 650.97894741185 168.7315808519776 L 648.909733454458 169.69830206834433 L 646.7385835640283 170.48666606017383 L 644.4810339716994 171.08621843921878 L 642.1536704523271 171.48787266923185 L 639.7740066291487 171.68401364717303 L 637.360352199185 171.66859034994283 L 634.931672070739 171.43719657752285 L 632.5074374965697 170.98713891399825 L 630.1074703701969 170.31749112722667 L 627.7517819275398 169.42913433513047 L 625.4604071609326 168.32478238088203 L 623.2532363068613 167.00899197970494 L 621.1498448119268 165.48815732565592 L 619.1693232130932 163.77048897654743 L 617.330108387809 161.86597696804787 L 615.6498176368351 159.78633824284213 L 614.145087057348 157.5449486164073 L 612.8314156460586 155.15675963630642 L 611.7230165417028 152.6382008257584 L 610.8326767734484 150.00706793344125 L 610.1716268267759 147.2823979388829 L 609.7494212715557 144.48433168525563 L 609.5738316188217 141.63396512782225 L 609.6507524836793 138.75319029562908 L 609.9841220325243 135.86452716529553 L 610.575857584038 132.99094773797017 L 611.4258071160879 130.1556936928271 L 612.5317173056008 127.38208906207066 L 613.8892185966876 124.69334943257145 L 615.4918276548157 122.11238922735723 L 617.3309674227631 119.66162865569163 L 619.3960048486028 117.36280194295954 L 621.6743062082452 115.23676846072433 L 624.151309796343 113.30332837291209 L 626.8106156108771 111.58104439600831 L 629.6340915097483 110.08707123944072 L 632.6019951734525 108.83699424709575 L 635.6931110676571 107.84467870241635 L 638.8849014644447 107.12213118811636 L 642.1536704523271 106.6793743076889 L 645.4747397440156 106.52433598016212 L 648.822634978438 106.66275441264733 L 652.171281110659 107.09809973791721 L 655.4942053911406 107.83151317742005 L 658.764746355054 108.8617644547482 L 661.9562671739096 110.1852280416777 L 665.042371666301 111.79587866960298 L 667.997121222658 113.68530638468208 L 670.7952508710548 115.84275126652797 L 673.4123826976853 118.25515776909884 L 675.8252348368716 120.90724847988396 L 678.0118242615222 123.78161693087385 L 679.9516616358426 126.85883893350723 L 681.6259365376884 130.1176017511487 L 683.0176914180225 133.53485026800905 L 684.1119827391269 137.08594916410132 L 684.8960278210544 140.7448599631183 L 685.3593360266891 144.4843316852556 L 685.4938230290087 148.2761037111991 L 685.2939070288959 152.09111934785093 L 684.7565859272012 155.89974848195948 L 683.8814945997092 159.67201761559713 L 682.6709415771027 163.37784549828092 L 681.1299245927565 166.98728250523578 L 679.2661246279929 170.4707518605192 L 677.0898782559627 173.79929076801912 L 674.6141282602185 176.94478949314694 L 671.8543526809165 179.88022643367594 L 668.8284726189884 182.57989722981324 L 665.5567393051066 185.01963599130218 L 662.0616011143738 187.17702676303932 L 658.367551377962 189.03160341016346 L 654.5009580079457 190.56503617848665 L 650.4898761099657 191.76130327601598 L 646.3638449087196 192.606845925571 L 642.1536704523272 193.09070545641282 L 637.8911956921286 193.20464113352523 L 633.6090596532475 192.943227565785 L 629.3404475172513 192.3039306876652 L 625.1188335304576 191.28716147218412 L 620.9777187290035 189.89630670429946 L 616.9503655339493 188.13773632253657 L 613.0695313157738 186.0207870209346 L 609.3672030571312 183.55772199195343 L 605.8743352552721 180.76366688231067 L 602.6205932008447 177.6565222262775 L 599.6341037477564 174.25685281320665 L 596.941215649429 170.58775463643263 L 594.5662714802752 166.67470025760082 L 592.5313930878729 162.54536360241855 L 590.8562824315604 158.229425379246 L 589.5580395576062 153.75836047937872 L 588.6509993404237 149.16520887590315 L 588.1465884843747 144.48433168525565 L 588.0532041324694 139.75115419080214 L 588.3761152678372 135.0018977496917 L 589.1173879223819 130.273302611808 L 590.2758350258522 125.6023437718581 L 591.8469915390151 121.02594205163362 L 593.8231153181946 116.58067266848025" fill="none" stroke="#c77dff" stroke-width="1" opacity="0.3" class="drift" />
<circle cx="284.5640644694841" cy="153.1774283749269" r="1.9022920320050463" fill="white" opacity="0.7056705944836843"  style="animation-delay: 1.5982625232402614s" />
<circle cx="597.653306041662" cy="39.48497440483965" r="1.5684994877773235" fill="white" opacity="0.35755946646146836"  style="animation-delay: 2.8791640680362116s" />
<circle cx="632.2284952763306" cy="22.872239770012204" r="1.8778168383520815" fill="white" opacity="0.4358178878806606"  style="animation-delay: 3.9307195898215563s" />
<circle cx="603.9986899333743" cy="33.102992395329125" r="1.1778558367273435" fill="white" opacity="0.4607876647519153"  style="animation-delay: 1.2317569112442217s" />
<circle cx="342.691612586135" cy="65.02254023328233" r="1.404072817073861" fill="white" opacity="0.38020682341496387"  style="animation-delay: 1.561835945532396s" />
<circle cx="264.4334981127182" cy="151.70685884311257" r="0.9742497398433498" fill="white" opacity="0.6358688142878925"  style="animation-delay: 2.8618016266671287s" />
<circle cx="410.6700636835763" cy="2.8551357142437173" r="1.2424014796100251" fill="white" opacity="0.35102589819386015" class="shimmer" style="animation-delay: 1.1461244707569695s" />
<circle cx="649.433129792971" cy="161.41713223283412" r="1.1757534943264556" fill="white" opacity="0.5204799462155156"  style="animation-delay: 1.9940714425301753s" />
<circle cx="281.57265666002223" cy="109.35847088415551" r="0.7202637115039406" fill="white" opacity="0.4441705434117538"  style="animation-delay: 1.80126647411463s" />
<circle cx="65.32405794519569" cy="153.23022724934518" r="1.7386173035228527" fill="white" opacity="0.43097787566784745"  style="animation-delay: 4.516123626706401s" />
<circle cx="113.53697791140166" cy="125.23227661193084" r="0.9726511533595671" fill="white" opacity="0.7928671091425465"  style="animation-delay: 3.244014395670808s" />
<circle cx="404.83854851128916" cy="170.85025284160858" r="0.6992388618436578" fill="white" opacity="0.6679223965749557"  style="animation-delay: 1.9938193280965777s" />
<circle cx="309.0129586271976" cy="26.78830984469989" r="0.8174173467768376" fill="white" opacity="0.38809177713153326" class="shimmer" style="animation-delay: 1.488275378475683s" />
<circle cx="615.0231979434535" cy="29.156653367643237" r="1.483130325330368" fill="white" opacity="0.6813499563900725" class="shimmer" style="animation-delay: 3.7629443043876334s" />
<circle cx="630.1738538985921" cy="52.29423752816204" r="0.7117742929318202" fill="white" opacity="0.4689430385791818"  style="animation-delay: 4.887191670789509s" />
<circle cx="10.490005879301911" cy="85.90094042821303" r="1.6358367834202139" fill="white" opacity="0.32041168697378924"  style="animation-delay: 3.4985609235758486s" />
<circle cx="456.115451698987" cy="65.52694896650384" r="1.1105515356834155" fill="white" opacity="0.3847301987446388"  style="animation-delay: 2.323374613917264s" />
<circle cx="127.25596024801007" cy="72.74439365753022" r="0.9780285015188963" fill="white" opacity="0.37776257652539763" class="shimmer" style="animation-delay: 4.158518348055496s" />
<circle cx="661.4825370112662" cy="80.70159852882317" r="1.894795421687089" fill="white" opacity="0.45840798250411713"  style="animation-delay: 2.2039630604176885s" />
<circle cx="293.06435437586754" cy="33.624339671969054" r="0.6657010464982628" fill="white" opacity="0.6512973615966309"  style="animation-delay: 2.9589475328717s" />
<circle cx="330.56824707100463" cy="91.4653669709916" r="0.649000469860588" fill="white" opacity="0.6831407301779759"  style="animation-delay: 2.79068313174149s" />
<circle cx="609.7837008191246" cy="180.4724852330511" r="1.7722815254306095" fill="white" opacity="0.34339413806502855"  style="animation-delay: 0.725173465485609s" />
<circle cx="520.7083306148622" cy="92.6236380874733" r="0.9507072470879614" fill="white" opacity="0.750642427850083" class="shimmer" style="animation-delay: 4.523866741751604s" />
<circle cx="109.08986471626872" cy="167.66252703249503" r="1.3310478583330072" fill="white" opacity="0.41859399383239054" class="shimmer" style="animation-delay: 1.6689430681196915s" />
<circle cx="508.3776278029223" cy="126.20700209758029" r="1.5640158141239615" fill="white" opacity="0.5626986597249202"  style="animation-delay: 0.04281081170175227s" />
<circle cx="83.02065064216339" cy="123.83734044966181" r="1.452962961998839" fill="white" opacity="0.3933390756188723"  style="animation-delay: 2.414257554402494s" />
<circle cx="478.671150460446" cy="110.88934980829794" r="0.7573785627215" fill="white" opacity="0.4366180484508995" class="shimmer" style="animation-delay: 2.7681101217310253s" />
<circle cx="252.41714438674575" cy="163.37649937612437" r="1.8403920045418602" fill="white" opacity="0.5255334014224018"  style="animation-delay: 0.010442405562346435s" />
<circle cx="382.06053141564166" cy="30.183228516019067" r="1.9327412231795993" fill="white" opacity="0.6988494702895258"  style="animation-delay: 0.9119244964500706s" />
<circle cx="590.9926770652773" cy="52.318425602109954" r="1.60204159001997" fill="white" opacity="0.4352438053155338"  style="animation-delay: 4.295694192888306s" />
<circle cx="137.6498888277693" cy="96.29150866057286" r="1.3510759454835584" fill="white" opacity="0.7366418976503784"  style="animation-delay: 3.7414832428538025s" />
<circle cx="213.97200986902016" cy="144.91801882033096" r="1.775642539865574" fill="white" opacity="0.4328395160191176" class="shimmer" style="animation-delay: 0.1957610700186896s" />
<circle cx="95.92412140385704" cy="13.248324791049715" r="1.3146590329556513" fill="white" opacity="0.7663961551257539"  style="animation-delay: 3.895430130107027s" />
<circle cx="732.3667302294549" cy="194.95112492034826" r="1.222151412345637" fill="white" opacity="0.49312565640350065" class="shimmer" style="animation-delay: 1.5442341156663375s" />
<circle cx="581.8475334922235" cy="132.99225262416448" r="1.704112446080373" fill="white" opacity="0.44572340787669656"  style="animation-delay: 2.4277303527477945s" />
<circle cx="750.969770037907" cy="80.89706707389888" r="1.6953417107637818" fill="white" opacity="0.41128662679768263"  style="animation-delay: 0.24800600054348143s" />
<circle cx="748.3347755851927" cy="15.06001805085404" r="1.4893022772624342" fill="white" opacity="0.7367519618763065"  style="animation-delay: 4.0634742201951966s" />
<circle cx="427.6438263385103" cy="135.74261563639757" r="1.1015083070549077" fill="white" opacity="0.44219815227108467"  style="animation-delay: 2.1954345966336444s" />
<circle cx="422.5790737655364" cy="175.1047394658667" r="1.0206196753477945" fill="white" opacity="0.7928397401086731"  style="animation-delay: 0.9117971072092235s" />
<circle cx="291.59522641778324" cy="67.2302519838408" r="1.6639309771569741" fill="white" opacity="0.7883859766061512"  style="animation-delay: 4.44008596395061s" />
<circle cx="605.1036689353703" cy="143.73194175315626" r="2.6854380684829784" fill="#e0aaff" opacity="0.8" filter="url(#glow)" class="shimmer" style="animation-delay: 0.18935185751805617s" />
<circle cx="6.7606246477742715" cy="91.84495122941625" r="1.4598725563672184" fill="#9d4edd" opacity="0.8" filter="url(#glow)" class="shimmer" style="animation-delay: 1.1720884581728488s" />
<circle cx="660.0321973313532" cy="161.70161904711696" r="1.5769148656104743" fill="#c77dff" opacity="0.8" filter="url(#glow)" class="shimmer" style="animation-delay: 2.1014686334648536s" />
<circle cx="770.3105500983046" cy="46.441662159755246" r="1.1219508075797209" fill="#c77dff" opacity="0.8" filter="url(#glow)" class="shimmer" style="animation-delay: 0.41352815563228207s" />
<circle cx="126.50229333474172" cy="32.58889042918951" r="1.071164377813174" fill="#c77dff" opacity="0.8" filter="url(#glow)" class="shimmer" style="animation-delay: 1.6785379137375258s" />
<circle cx="440.76792777656755" cy="83.38368912687724" r="1.485599005220021" fill="#9d4edd" opacity="0.8" filter="url(#glow)" class="shimmer" style="animation-delay: 2.689308899640786s" />
<circle cx="410.30674356048615" cy="69.7914897835179" r="2.6717827468147193" fill="#9d4edd" opacity="0.8" filter="url(#glow)" class="shimmer" style="animation-delay: 1.496333329113319s" />
<circle cx="380.4541181718765" cy="31.423191555188712" r="2.9426802780348407" fill="#e0aaff" opacity="0.8" filter="url(#glow)" class="shimmer" style="animation-delay: 1.9364886270197457s" />
<line x1="170.13905480207467" y1="167.08754106791147" x2="254.97119734076804" y2="88.14592114021625" stroke="#e0aaff" stroke-width="0.5" opacity="0.3" />
<line x1="254.97119734076804" y1="88.14592114021625" x2="59.147751144361195" y2="95.08802371457037" stroke="#e0aaff" stroke-width="0.5" opacity="0.3" />
<line x1="59.147751144361195" y1="95.08802371457037" x2="473.0840269620209" y2="76.15534086712768" stroke="#e0aaff" stroke-width="0.5" opacity="0.3" />
<line x1="652.3877919655089" y1="31.132161091629857" x2="311.78590716694123" y2="45.657154986385564" stroke="#e0aaff" stroke-width="0.5" opacity="0.3" />

  
    <text x="400" y="120" text-anchor="middle" class="name-text" fill="url(#textGrad)" filter="url(#textGlow)">
      JOEL HOOKS
    </text>
  
</svg>
