<svg xmlns="http://www.w3.org/2000/svg" viewBox="0 0 800 200" width="800" height="200">
  <rect width="800" height="200" fill="#1a0a0a"/>
  
    <defs>
      <linearGradient id="grad1" x1="0%" y1="0%" x2="100%" y2="100%">
        <stop offset="0%" style="stop-color:#ff4500;stop-opacity:0.8" />
        <stop offset="100%" style="stop-color:#ff6b35;stop-opacity:0.8" />
      </linearGradient>
      <linearGradient id="grad2" x1="100%" y1="0%" x2="0%" y2="100%">
        <stop offset="0%" style="stop-color:#f7c59f;stop-opacity:0.7" />
        <stop offset="100%" style="stop-color:#efa48b;stop-opacity:0.7" />
      </linearGradient>
      <linearGradient id="textGrad" x1="0%" y1="0%" x2="100%" y2="0%">
        <stop offset="0%" style="stop-color:#ff4500" />
        <stop offset="25%" style="stop-color:#ff6b35" />
        <stop offset="50%" style="stop-color:#f7c59f" />
        <stop offset="75%" style="stop-color:#efa48b" />
        <stop offset="100%" style="stop-color:#d4a5a5" />
      </linearGradient>
      <filter id="glow">
        <feGaussianBlur stdDeviation="3" result="coloredBlur"/>
        <feMerge>
          <feMergeNode in="coloredBlur"/>
          <feMergeNode in="SourceGraphic"/>
        </feMerge>
      </filter>
      <filter id="textGlow">
        <feGaussianBlur stdDeviation="2" result="coloredBlur"/>
        <feMerge>
          <feMergeNode in="coloredBlur"/>
          <feMergeNode in="SourceGraphic"/>
        </feMerge>
      </filter>
    </defs>
  
  
    <style>
      @keyframes float {
        0%, 100% { transform: translateY(0px); }
        50% { transform: translateY(-8px); }
      }
      @keyframes pulse {
        0%, 100% { opacity: 0.4; }
        50% { opacity: 0.9; }
      }
      @keyframes drift {
        0% { transform: translateX(0px); }
        50% { transform: translateX(10px); }
        100% { transform: translateX(0px); }
      }
      @keyframes shimmer {
        0% { opacity: 0.3; }
        50% { opacity: 1; }
        100% { opacity: 0.3; }
      }
      @keyframes glitch {
        0%, 100% { transform: translateX(0); }
        20% { transform: translateX(-2px); }
        40% { transform: translateX(2px); }
        60% { transform: translateX(-1px); }
        80% { transform: translateX(1px); }
      }
      @keyframes dataStream {
        0% { stroke-dashoffset: 0; }
        100% { stroke-dashoffset: -20; }
      }
      .float { animation: float 8s ease-in-out infinite; }
      .pulse { animation: pulse 8s ease-in-out infinite; }
      .drift { animation: drift 8s ease-in-out infinite; }
      .shimmer { animation: shimmer 3s ease-in-out infinite; }
      .glitch { animation: glitch 0.5s ease-in-out infinite; }
      .dataStream { animation: dataStream 2s linear infinite; }
      .name-text { 
        font-family: -apple-system, BlinkMacSystemFont, 'Segoe UI', Helvetica, Arial, sans-serif;
        font-weight: 700;
        font-size: 64px;
        letter-spacing: -2px;
      }
    </style>
  
  <rect x="0" y="160" width="800" height="50" fill="#ff4500" opacity="0.3" />
<rect x="0" y="170" width="800" height="40" fill="#ff6b35" opacity="0.25" />
<rect x="0" y="180" width="800" height="30" fill="#f7c59f" opacity="0.19999999999999998" />
<rect x="0" y="190" width="800" height="20" fill="#efa48b" opacity="0.14999999999999997" />
<rect x="0" y="200" width="800" height="10" fill="#d4a5a5" opacity="0.09999999999999998" />
<line x1="286.47688081469033" y1="170" x2="286.47688081469033" y2="253.0478810842764" stroke="#ff4500" stroke-width="1.4959700269976302" opacity="0.22625977003577624" class="pulse" />
<line x1="286.47688081469033" y1="170" x2="320.71519477444593" y2="297.7791272633026" stroke="#ff4500" stroke-width="1.3727522353394823" opacity="0.24387016675072207" class="pulse" />
<line x1="286.47688081469033" y1="170" x2="357.83113836148715" y2="293.5891994074071" stroke="#ff4500" stroke-width="1.6425850532940012" opacity="0.21934423892211216" class="pulse" />
<line x1="286.47688081469033" y1="170" x2="368.839328471398" y2="252.36244765670767" stroke="#ff4500" stroke-width="1.981719821741037" opacity="0.1501043253510848" class="pulse" />
<line x1="286.47688081469033" y1="170" x2="370.8410141802082" y2="218.70765510853124" stroke="#ff4500" stroke-width="1.4959598192116657" opacity="0.2840297918089323" class="pulse" />
<line x1="286.47688081469033" y1="170" x2="372.7122093491397" y2="193.10668663983827" stroke="#ff4500" stroke-width="2.9987924599384628" opacity="0.1366909966583439" class="pulse" />
<line x1="286.47688081469033" y1="170" x2="433.858080500675" y2="170" stroke="#ff4500" stroke-width="2.0451053058377138" opacity="0.26220063531942583" class="pulse" />
<line x1="286.47688081469033" y1="170" x2="382.55261931237015" y2="144.25658345732296" stroke="#ff4500" stroke-width="2.823988290308306" opacity="0.2860033810379452" class="pulse" />
<line x1="286.47688081469033" y1="170" x2="360.5548992556147" y2="127.23103611209825" stroke="#ff4500" stroke-width="1.0586733797961818" opacity="0.2689952563094432" class="pulse" />
<line x1="286.47688081469033" y1="170" x2="357.405545881802" y2="99.07133493288829" stroke="#ff4500" stroke-width="1.5843422048441775" opacity="0.16728373380065076" class="pulse" />
<line x1="286.47688081469033" y1="170" x2="343.50760011425655" y2="71.21989658095244" stroke="#ff4500" stroke-width="1.5035408539509074" opacity="0.2398389233375289" class="pulse" />
<line x1="286.47688081469033" y1="170" x2="313.4298237896609" y2="69.41024740390336" stroke="#ff4500" stroke-width="2.5838976204611193" opacity="0.147421757717008" class="pulse" />
<path d="M 663.9293950695553 27.567411255072315 C 664.5718526038289 35.12784189040868, 674.1591628250221 46.432998956678816, 671.2833834743494 52.176075763902276 C 668.4076041236767 57.919152571125736, 654.7595445576287 62.14393467591378, 646.6747189655194 62.025872098413075 C 638.5898933734102 61.907809520912366, 628.7652716727416 57.2107771061215, 622.7744299216937 51.46770029889804 C 616.7835881706458 45.72462349167458, 609.5451242895327 34.34963009998136, 610.7296684592322 27.56741125507232 C 611.9142126289318 20.785192410163276, 623.890853188843 14.2648332551509, 629.881694939891 10.774387229443786 C 635.8725366909389 7.283941203736671, 640.4168950773833 7.284884313756246, 646.6747189655194 6.624735100829625 C 652.9325428536556 5.964585887903004, 664.5528589180351 3.3230459261769454, 667.4286382687077 6.81349195188406 C 670.3044176193803 10.303937977591175, 663.2869375352817 20.006980619735945, 663.9293950695553 27.567411255072315 Z" fill="#f7c59f" opacity="0.11037766955316838" class="drift" />
<path d="M 555.7625956859464 38.4056257924411 C 558.253458328626 52.91846576194528, 550.3473615364908 78.84556934109636, 539.0620931392893 89.41673362899266 C 527.7768247420879 99.98789791688895, 503.85576818352865 103.03153125121187, 488.0509853027378 101.83261151981888 C 472.2462024219469 100.63369178842589, 453.6244250952188 92.79437952853098, 444.2333958545442 82.22321524063469 C 434.8423666138696 71.65205095273839, 430.27841970524696 51.585098788395776, 431.70480985869017 38.40562579244111 C 433.1312000121334 25.22615279648644, 443.40070753452875 12.683866300316454, 452.79173677520333 3.1463772649066755 C 462.1827660158779 -6.3911117705031035, 476.16345521806977 -18.684861177861052, 488.0509853027378 -18.819308420017563 C 499.9385153874058 -18.953755662174075, 512.8316488860098 -7.197795223442171, 524.1169172832113 2.3396938119676065 C 535.4021856804127 11.877182847377384, 553.2717330432667 23.892785822936922, 555.7625956859464 38.4056257924411 Z" fill="#f7c59f" opacity="0.16325203837763547" class="drift" />
<path d="M 468.4191597259999 24.69183420764733 C 469.43074769039225 33.97211464237873, 461.9542759048101 48.87502305886354, 454.4861781010979 55.56743940501856 C 447.01808029738567 62.25985575117358, 433.6043811593055 65.14439242812239, 423.6105729037267 64.84633228457747 C 413.61676464814786 64.54827214103256, 401.02265746563694 60.471494889904115, 394.5233285676249 53.779078543749094 C 388.02399966961286 47.08666219759407, 384.43071950472535 34.203702308752334, 384.6145995156543 24.691834207647332 C 384.7984795265832 15.17996610654233, 389.12727973518633 7.139116802441984, 395.62660863319843 -3.2921300628809185 C 402.1259375312105 -13.723376928203821, 414.81223262346913 -38.42529479420859, 423.6105729037267 -37.89564698429008 C 432.4089131839842 -37.365999174371574, 440.9485525110316 -10.545490068692759, 448.41665031474383 -0.11424320336985616 C 455.88474811845606 10.317003661953047, 467.4075717616076 15.411553772915926, 468.4191597259999 24.69183420764733 Z" fill="#f7c59f" opacity="0.12398248487199137" class="drift" />
<path d="M 791.2356131232941 76.58843142029986 C 792.3045579250149 85.24430975758328, 780.9737909649124 96.30406775431601, 773.0865326498335 105.76290083731254 C 765.1992743347547 115.22173392030908, 754.9035448420587 132.0747714480454, 743.9120632328209 133.34142991827903 C 732.920581623583 134.60808838851267, 715.028159474211 122.82168474171085, 707.1376429944064 113.36285165871432 C 699.2471265146019 103.90401857571779, 694.0734503117859 86.35105745756391, 696.5689643539934 76.58843142029986 C 699.0644783962008 66.8258053830358, 714.2202107678464 62.89747597986703, 722.110727247651 54.787095435129956 C 730.0012437274555 46.67671489039288, 736.4850404675112 28.08605892213039, 743.9120632328209 27.9261481518774 C 751.3390859981305 27.766237381624407, 758.7856055244299 45.71725026887493, 766.6728638395088 53.827630813612004 C 774.5601221545876 61.93801135834908, 790.1666683215733 67.93255308301643, 791.2356131232941 76.58843142029986 Z" fill="#f7c59f" opacity="0.10070586064565168" class="drift" />
<path d="M 572.8310041452535 82.32902382205931 L 578.1765521068274 79.65624984127231 L 583.5221000684014 82.32902382205931" fill="none" stroke="#d4a5a5" stroke-width="1.5" opacity="0.4" class="float" style="animation-delay: 1.1473637499333085s" />
<path d="M 497.4160606681111 68.40197023251228 L 506.32576428471117 63.94711842421225 L 515.2354679013113 68.40197023251228" fill="none" stroke="#d4a5a5" stroke-width="1.5" opacity="0.4" class="float" style="animation-delay: 0.5624277962140831s" />
<path d="M 110.83479603623648 43.77477009353085 L 118.8150529421139 39.78464164059214 L 126.7953098479913 43.77477009353085" fill="none" stroke="#d4a5a5" stroke-width="1.5" opacity="0.4" class="float" style="animation-delay: 0.4623817650765625s" />
<path d="M 318.1285315044243 61.298748447739165 L 327.6913673674339 56.51733051623439 L 337.25420323044347 61.298748447739165" fill="none" stroke="#d4a5a5" stroke-width="1.5" opacity="0.4" class="float" style="animation-delay: 2.805814083420927s" />
<path d="M 346.76591794067934 66.01582089468985 L 356.7636319711216 61.01696387946873 L 366.7613460015638 66.01582089468985" fill="none" stroke="#d4a5a5" stroke-width="1.5" opacity="0.4" class="float" style="animation-delay: 1.0555437558820906s" />

  
    <text x="400" y="120" text-anchor="middle" class="name-text" fill="url(#textGrad)" filter="url(#textGlow)">
      JOEL HOOKS
    </text>
  
</svg>
