<svg xmlns="http://www.w3.org/2000/svg" viewBox="0 0 800 200" width="800" height="200">
  <rect width="800" height="200" fill="#05010d"/>
  
    <defs>
      <linearGradient id="grad1" x1="0%" y1="0%" x2="100%" y2="100%">
        <stop offset="0%" style="stop-color:#4a0080;stop-opacity:0.8" />
        <stop offset="100%" style="stop-color:#7b2cbf;stop-opacity:0.8" />
      </linearGradient>
      <linearGradient id="grad2" x1="100%" y1="0%" x2="0%" y2="100%">
        <stop offset="0%" style="stop-color:#9d4edd;stop-opacity:0.7" />
        <stop offset="100%" style="stop-color:#c77dff;stop-opacity:0.7" />
      </linearGradient>
      <linearGradient id="textGrad" x1="0%" y1="0%" x2="100%" y2="0%">
        <stop offset="0%" style="stop-color:#4a0080" />
        <stop offset="25%" style="stop-color:#7b2cbf" />
        <stop offset="50%" style="stop-color:#9d4edd" />
        <stop offset="75%" style="stop-color:#c77dff" />
        <stop offset="100%" style="stop-color:#e0aaff" />
      </linearGradient>
      <filter id="glow">
        <feGaussianBlur stdDeviation="5" result="coloredBlur"/>
        <feMerge>
          <feMergeNode in="coloredBlur"/>
          <feMergeNode in="SourceGraphic"/>
        </feMerge>
      </filter>
      <filter id="textGlow">
        <feGaussianBlur stdDeviation="2" result="coloredBlur"/>
        <feMerge>
          <feMergeNode in="coloredBlur"/>
          <feMergeNode in="SourceGraphic"/>
        </feMerge>
      </filter>
    </defs>
  
  
    <style>
      @keyframes float {
        0%, 100% { transform: translateY(0px); }
        50% { transform: translateY(-8px); }
      }
      @keyframes pulse {
        0%, 100% { opacity: 0.4; }
        50% { opacity: 0.9; }
      }
      @keyframes drift {
        0% { transform: translateX(0px); }
        50% { transform: translateX(10px); }
        100% { transform: translateX(0px); }
      }
      @keyframes shimmer {
        0% { opacity: 0.3; }
        50% { opacity: 1; }
        100% { opacity: 0.3; }
      }
      @keyframes glitch {
        0%, 100% { transform: translateX(0); }
        20% { transform: translateX(-2px); }
        40% { transform: translateX(2px); }
        60% { transform: translateX(-1px); }
        80% { transform: translateX(1px); }
      }
      @keyframes dataStream {
        0% { stroke-dashoffset: 0; }
        100% { stroke-dashoffset: -20; }
      }
      .float { animation: float 8s ease-in-out infinite; }
      .pulse { animation: pulse 8s ease-in-out infinite; }
      .drift { animation: drift 8s ease-in-out infinite; }
      .shimmer { animation: shimmer 3s ease-in-out infinite; }
      .glitch { animation: glitch 0.5s ease-in-out infinite; }
      .dataStream { animation: dataStream 2s linear infinite; }
      .name-text { 
        font-family: -apple-system, BlinkMacSystemFont, 'Segoe UI', Helvetica, Arial, sans-serif;
        font-weight: 700;
        font-size: 64px;
        letter-spacing: -2px;
      }
    </style>
  
  <path d="M 177.00577724746125 169.7541020991997 C 187.0631660141194 186.07547101300605, 212.18655280460706 224.046027262302, 205.65698667133273 238.10868271824572 C 199.1274205380584 252.17133817418943, 158.1082083182626 247.7669294049918, 137.8283804478153 254.130034834862 C 117.54855257736803 260.4931402647322, 96.42380314341088 283.3983840861957, 83.97801944864906 276.28731529746693 C 71.53223575388725 269.1762465087382, 74.39325017293729 225.16933405099988, 63.15367827924442 211.46362210248964 C 51.91410638555154 197.7579101539794, 31.109205875942692 207.05104630691108, 16.54058808649181 194.05304360640545 C 1.971970297040924 181.05504090589983, -27.6912814084016 149.48055998769988, -24.258028457460895 133.47560589945596 C -20.82477550652019 117.47065181121202, 18.150964556606827 103.12643504547127, 37.14010579213605 98.02331907694187 C 56.12924702766527 92.92020310841248, 74.42486364133379 101.61546407231579, 89.67681895571442 102.8569100882796 C 104.92877427009506 104.09835610424342, 119.37919849247498 99.25140198153679, 128.6518376784199 105.47199517272479 C 137.9244768643648 111.69258836391279, 137.2536641432103 129.46678474766182, 145.31265407138386 140.18046923540763 C 153.37164399955742 150.89415372315344, 166.94838848080312 153.43273318539337, 177.00577724746125 169.7541020991997 Z" fill="#9d4edd" opacity="0.14724635752839116" filter="url(#glow)" class="float" />
<path d="M 189.5712143411607 86.21142313229319 C 185.67285475286613 103.35769016134878, 135.312072177642 113.05313667906645, 117.66691336736938 127.83688794125678 C 100.02175455709676 142.6206392034471, 103.01800677646158 162.7125850362337, 83.70026147952503 174.91393070543512 C 64.38251618258847 187.11527637463655, 14.77437444953083 212.0408172503461, 1.7604415857500442 201.04496195646536 C -11.253491278030742 190.04910666258462, 9.373709617257497 133.4669957604997, 5.616664296840312 108.93879894215075 C 1.8596189764231283 84.4106021238018, -21.00159203479086 75.30876611533253, -20.78183033675306 53.87578104637158 C -20.56206863871526 32.44279597741062, -11.324715922180737 -5.465207084213574, 6.935234485067106 -19.65911147161499 C 25.19518489231495 -33.85301585901641, 66.42423270472237 -38.7240448177933, 88.777872106734 -31.287645278036933 C 111.13151150874562 -23.851245738280564, 124.25818052473238 5.376107698534863, 141.05707089713684 24.959285766923216 C 157.8559612695413 44.542463835311565, 193.46957392945527 69.0651561032376, 189.5712143411607 86.21142313229319 Z" fill="#e0aaff" opacity="0.1364005721193312" filter="url(#glow)" class="float" />
<path d="M 565.4257229881977 186.88217355202048 C 567.8365398040851 197.42499360296392, 580.0756936520656 211.77610918538446, 576.7296060393654 224.57938020799213 C 573.3835184266652 237.3826512305998, 560.2084443566139 257.2166526307813, 545.3491973119964 263.70179968766655 C 530.4899502673788 270.1869467445518, 506.4568874648301 270.24245506155137, 487.57412377166065 263.49026254930357 C 468.6913600784912 256.73807003705576, 436.5736499142953 240.28523062216271, 432.0526151529797 223.1886446141797 C 427.5315803916641 206.0920586061967, 452.3073234345584 181.65760027010413, 460.4479152037671 160.91074650140547 C 468.5885069729758 140.1638927327068, 466.6523389988653 107.7131280346134, 480.8961657682319 98.70752200198777 C 495.1399925375986 89.70191596936213, 532.3494525906652 96.44128732226108, 545.9108758199668 106.87711030565168 C 559.4722990492684 117.31293328904229, 559.0122306160026 147.9882826946033, 562.264705144041 161.32245990233142 C 565.5171796720795 174.65663711005953, 563.0149061723102 176.33935350107703, 565.4257229881977 186.88217355202048 Z" fill="#4a0080" opacity="0.11712385042462553" filter="url(#glow)" class="float" />
<path d="M 223.00961994441883 180.01958972954216 C 220.74293742176081 202.580021369748, 213.75197973690445 225.99211991163673, 201.6995807167647 243.3307594353344 C 189.64718169662495 260.66939895903204, 170.2186158935297 273.0119006990123, 150.69522582358036 284.05142687172804 C 131.17183575363103 295.0909530444438, 101.23826052871202 316.79613590459104, 84.55924029706873 309.5679164716289 C 67.88022006542543 302.33969703866677, 69.92353022743784 255.69426834545618, 50.6211044337206 240.68211027395515 C 31.318678640003366 225.6699522024541, -18.082306925885277 236.04571423482605, -31.255314465234704 219.49496804262276 C -44.42832200458413 202.94422185041947, -39.0885813548838 161.4999572894298, -28.41694080237596 141.37763312073545 C -17.745300249868123 121.25530895204112, 13.952718645573949 113.96461916056481, 32.77452884981231 98.76102303045676 C 51.596339054050674 83.5574269003487, 65.55196985248355 52.437429977425964, 84.51392042305422 50.15605634008713 C 103.47587099362488 47.8746827027483, 124.74860636829321 75.43742899742175, 146.54623227323628 85.07278120642378 C 168.34385817817937 94.70813341542582, 202.55577790751562 92.14370150691292, 215.2996758527127 107.96816959409932 C 228.0435737979098 123.79263768128573, 225.27630246707685 157.4591580893363, 223.00961994441883 180.01958972954216 Z" fill="#9d4edd" opacity="0.11427442794221199" filter="url(#glow)" class="float" />
<path d="M 169.10990787190116 139.85361918572036 L 169.10990787190116 139.85361918572036 L 169.50406848509567 139.88810377098332 L 169.8892182387392 139.99103262973972 L 170.2564605991536 140.16083706306736 L 170.59712646614912 140.39492248587385 L 170.90288485604697 140.6896980843232 L 171.16584997750502 141.04061791382904 L 171.3786835528647 141.4422330200379 L 171.53469128431968 141.88825405276552 L 171.6279124216175 142.3716237354367 L 171.65320145570763 142.8845984512435 L 171.60630104011443 143.41883811294878 L 171.4839053281185 143.96550339692809 L 171.28371300826856 144.5153593444995 L 171.00446942243838 145.05888426558826 L 170.64599725863613 145.5863828219826 L 170.20921542405603 146.08810212042465 L 169.69614582137123 146.55434961002692 L 169.10990787190116 146.97561155437242 L 168.4547007519052 147.34267083641592 L 167.7357734317076 147.64672285410072 L 166.95938273047219 147.87948827648748 L 166.13273972105696 148.03332145408422 L 165.26394493832805 148.10131331279115 L 164.36191295946645 148.0773876081358 L 163.43628703505283 147.95638947487583 L 162.49734455400437 147.73416527608055 L 161.5558942227521 147.40763283486942 L 160.62316592843632 146.97484122037847 L 159.71069433648083 146.4350193564644 L 158.83019734388185 145.78861282626374 L 157.99345057019707 145.03730835705804 L 157.21215911791737 144.18404558694826 L 156.49782787212425 143.2330158365373 L 155.86163163565453 142.18964773404943 L 155.31428641009356 141.06057966992347 L 154.86592313459704 139.85361918572036 L 154.52596518370456 138.57768953099136 L 154.30301090197847 137.24276374935258 L 154.20472241761937 135.85978678020945 L 154.2377219294214 134.4405861841855 L 154.40749660190542 132.997772217177 L 154.71831313267413 131.54462808895963 L 155.17314297455377 130.09499134634126 L 155.77359910359928 128.66312741697195 L 156.51988512331937 127.26359643713859 L 157.41075738639142 125.91111456431386 L 158.4435006986263 124.6204110421081 L 159.61391804703175 123.40608234088947 L 160.9163346655932 122.28244474109133 L 162.34361661998255 121.26338675762068 L 163.88720395700227 120.36222282242878 L 165.53715832739786 119.59154964793143 L 167.28222485296504 118.96310668641172 L 169.10990787190116 118.4876420797642 L 171.00656006136316 118.17478546002272 L 172.95748430444314 118.03292891425535 L 174.94704754149404 118.0691173679239 L 176.9588057241267 118.28894956912472 L 178.97563887541477 118.69649077279969 L 180.97989515298792 119.29419812968175 L 182.95354271381106 120.08285968018104 L 184.8783280915012 121.06154773947682 L 186.73593971991565 122.22758733770587 L 188.50817517124932 123.57654024935901 L 190.17711062370535 125.10220500991471 L 191.72527103354363 126.79663317652492 L 193.13579945945514 128.65016194444217 L 194.39262397411673 130.65146308311108 L 195.48062059870742 132.7876080067395 L 196.3857707112324 135.04414864504284 L 197.09531140871084 137.40521363205121 L 197.59787734650936 139.85361918572036 L 197.88363263509984 142.37099390991543 L 197.9443914449085 144.93791661443657 L 197.7737260532123 147.5340661193952 L 197.36706116261269 150.13838188863664 L 196.7217534277468 152.72923422420425 L 195.8371552447514 155.28460265113313 L 194.7146619856324 157.78226103016107 L 193.3577419960864 160.19996785617204 L 191.77194881934838 162.51566013316753 L 189.96491525911415 164.70764916301022 L 187.9463290502376 166.75481654571647 L 185.7278900654226 168.63680866417442 L 183.3232491481496 170.3342279161993 L 180.74792882520117 171.82881896205183 L 178.019226314964 173.1036482760413 L 175.15609940875288 174.14327532659394 L 172.17903596030337 174.9339137600311 L 169.10990787190116 175.46358102898063 L 165.97181061297312 175.72223498642012 L 162.78888944701075 175.70189606027003 L 159.58615367414436 175.39675373054618 L 156.38928031829423 174.80325615054778 L 153.22440879844706 173.92018188449094 L 150.11792822216236 172.74869287538218 L 147.0962590249297 171.29236790764355 L 144.18563075059788 169.5572159878473 L 141.41185782502123 167.55166923260026 L 138.80011521666967 165.286555023785 L 136.37471590371314 162.77504736658761 L 134.15889207663548 160.03259756356783 L 132.17458199849727 157.07684449693906 L 130.4422244214538 153.92750498971105 L 128.98056241806555 150.60624489286516 L 127.80645842948525 147.13653171874628 L 126.93472226008936 143.54346980885558 L 126.37795365998883 139.8536191857204 L 126.14640103370036 136.0947993920593 L 126.24783769580918 132.29587976465575 L 126.68745696356066 128.48655772388153 L 127.46778723295785 124.69712678142274 L 128.5886280302056 120.958236077296 L 130.0470078654278 117.3006433516555 L 131.83716454178602 113.75496333621814 L 133.95054839183257 110.35141361356546 L 136.37584872558855 107.11956003940773 L 139.09904358298493 104.08806385254715 L 142.1034726885031 101.28443260934043 L 145.36993330972766 98.73477707364312 L 148.87679852571222 96.46357616939152 L 152.6001572172198 94.49345206115711 L 156.51397490067438 92.84495736837009 L 160.590274342701 91.53637644176214 L 164.79933471403294 90.58354253640752 L 169.10990787190113 89.99967260515598 L 173.48945020029524 89.79522131001852 L 177.90436828914 89.97775570808605 L 182.32027659782187 90.55185191386519 L 186.70226512688947 91.51901487266116 L 191.01517501529577 92.87762220109985 L 195.22387989029198 94.62289286243538 L 199.29357072393424 96.74688124741334 L 203.19004189490767 99.23849702771008 L 206.8799761176465 102.08355093997505 L 210.33122588301603 105.26482644595251 L 213.513089056473 108.76217699979149 L 216.39657630079 112.55264843922083 L 218.95466803115494 116.61062580456115 L 221.16255867058027 120.9080036803482 L 222.9978860527661 125.41437895041163 L 224.4409439174017 130.09726466034599 L 225.47487555871504 134.9223234931192 L 226.0858468211176 139.85361918572033 L 226.26319678510407 144.85388404884745 L 225.99956465107778 149.88480059913348 L 225.290991507271 154.90729517572302 L 224.13699585907625 159.88184129139935" fill="none" stroke="#4a0080" stroke-width="1" opacity="0.3" class="drift" />
<path d="M 658.7048944248005 114.67755220677253 L 658.7048944248005 114.67755220677253 L 658.9809585687395 114.70170468977318 L 659.2507116426608 114.77379450881654 L 659.5079226486623 114.8927229708557 L 659.7465198798244 115.05667286765522 L 659.960668440928 115.26312924740485 L 660.1448452427469 115.5089081991337 L 660.2939106663745 115.79019335746027 L 660.4031761266723 116.1025797564483 L 660.4684668041365 116.44112458610849 L 660.4861788618952 116.80040433411232 L 660.4533305187384 117.17457772924588 L 660.3676064095229 117.5574538426653 L 660.2273947304445 117.94256464870405 L 660.0318167378899 118.32324129935621 L 659.7807482452164 118.69269332608165 L 659.4748328411525 119.04408994965483 L 659.1154866358115 119.37064265373549 L 658.7048944248005 119.66568816093951 L 658.2459972477882 119.92277094161349 L 657.7424714043605 120.13572438537541 L 657.1986990762183 120.29874977380531 L 656.6197307899457 120.40649220940404 L 656.0112400378919 120.45411268095907 L 655.3794704553559 120.43735547855805 L 654.7311760294872 120.35261021239378 L 654.0735548883542 120.19696773785596 L 653.4141772867927 119.96826934478038 L 652.7609084682491 119.66514863063773 L 652.1218271382799 119.28706554533603 L 651.5051403350686 118.83433216857836 L 650.9190955248099 118.3081298586929 L 650.3718907846093 117.71051749383406 L 649.8715839623204 117.04443061168746 L 649.4260017211756 116.31367134152052 L 649.0426493869356 115.52288911179532 L 648.7286225164665 114.67755220677253 L 648.4905210990576 113.78391033574844 L 648.3343672854551 112.84894846793655 L 648.2655275145968 111.88033227369127 L 648.2886398745615 110.88634559794562 L 648.407547492555 109.87582047358755 L 648.6252386991758 108.85806026024439 L 648.9437946551319 107.84275656683354 L 649.3643450645055 106.83990068355581 L 649.8870325281207 105.85969031009277 L 650.5109860141648 104.91243242100956 L 651.2343038416113 104.00844315620458 L 652.0540464859112 103.1579456632015 L 652.9662394266038 102.37096684872296 L 653.9658861637669 101.65723401897367 L 655.0469914353865 101.0260724011215 L 656.2025945716565 100.48630454240504 L 657.424812825766 100.04615257800566 L 658.7048944248005 99.71314434427158 L 660.0332809898363 99.49402429012765 L 661.3996788820325 99.39467010668447 L 662.7931389423808 99.42001595339785 L 664.2021440075995 99.57398310892586 L 665.6147035042618 99.85941881646795 L 667.0184543484121 100.27804402730874 L 668.4007673093652 100.83041067305666 L 669.7488579347877 101.51586901726591 L 671.0499010801522 102.33254555142086 L 672.2911480397751 103.27733180936637 L 673.4600452394158 104.34588437895778 L 674.5443534222106 105.53263629079973 L 675.532266240909 106.83081986229949 L 676.412527160207 108.23250097176677 L 677.1745435736225 109.7286246328595 L 677.8084970499106 111.30907163523254 L 678.3054486444694 112.96272591372629 L 678.6574382414684 114.67755220677253 L 678.8575769323473 116.44068346582009 L 678.9001314856312 118.23851738240049 L 678.7806000213461 120.0568213088519 L 678.4957780702548 121.88084476354368 L 678.0438142731641 123.69543863251019 L 677.4242550581034 125.48518010746764 L 676.6380777225637 127.23450233596276 L 675.6877114435188 128.92782770353023 L 674.5770458388241 130.54970362079607 L 673.3114268089771 132.0849396509587 L 671.8976394972409 133.5187447854351 L 670.3438783178568 134.83686365802185 L 668.6597041155499 136.02571048094015 L 666.8559886337783 137.07249948978657 L 664.9448465832126 137.96537069876547 L 662.9395557147365 138.6935097926252 L 660.8544654118585 139.24726101734333 L 658.7048944248005 139.61823197760745 L 656.5070184717413 139.79938930522133 L 654.2777485307765 139.78514422834579 L 652.0346007382221 139.57142714648913 L 649.7955588940573 139.1557503998344 L 647.5789306527865 138.53725851319518 L 645.4031985470219 137.71676529391462 L 643.2868670509847 136.69677726858302 L 641.2483069412724 135.48150305470236 L 639.305598252105 134.07684837946798 L 637.4763731514028 132.49039657771968 L 635.7776600820906 130.73137452383855 L 634.2257305197121 128.8106040769123 L 632.8359496925739 126.74043924379822 L 631.6226325941789 124.53468938972252 L 630.5989065896366 122.20852894968365 L 629.7765818782052 119.77839421510448 L 629.1660310233277 117.26186788784221 L 628.7760786997986 114.67755220677255 L 628.6139027354498 112.04493155970157 L 628.6849474424846 109.3842255943526 L 628.992850141913 106.71623393569503 L 629.5393816841311 104.06217370205718 L 630.3244016603188 101.44351108848223 L 631.3458288838193 98.8817883519104 L 632.5996275989427 96.39844758833108 L 634.079809747659 94.01465273647392 L 635.7784534934332 91.75111127540515 L 637.6857380670829 89.62789710416315 L 639.7899948631089 87.66427610001537 L 642.0777745775772 85.87853584784494 L 644.5339300414985 84.28782101648686 L 647.1417142678785 82.90797582854331 L 649.8828930973904 81.7533950284377 L 652.7378716980726 80.83688469943468 L 655.6858340497191 80.16953421439783 L 658.7048944248005 79.76060052760366 L 661.7722597658832 79.61740592651984 L 664.8644017556164 79.7452502637141 L 667.957237280377 80.14733858071403 L 671.0263159034879 80.82472491849549 L 674.0470128893671 81.77627298423182 L 676.994726256746 82.99863421195218 L 679.8450762878676 84.48624361686745 L 682.5741058818696 86.2313337004195 L 685.1584801148398 88.22396651673327 L 687.5756833566214 90.45208386228447 L 689.804212295605 92.90157540045524 L 691.8237632375672 95.55636438246577 L 693.6154120731452 98.39851047719416 L 695.1617853506373 101.40832907587826 L 696.4472209463063 104.5645262948633 L 697.4579168928809 107.84434876164859 L 698.1820670080772 111.22374713767947 L 698.6099820581363 114.67755220677252 L 698.7341952959551 118.17966224186694 L 698.5495513286015 121.7032402559845 L 698.0532773940299 125.22091964684807 L 697.2450362606851 128.7050166594321 L 696.1269601054003 132.12774801761554 L 694.70366487346 135.4614520158016 L 692.9822447787529 138.6788113144652 L 690.9722467603651 141.75307565061215 L 688.6856248735118 144.65828265548367 L 686.136674756059 147.3694749678051 L 683.3419484757434 149.86291184162434 L 680.3201502261908 152.11627347337836 L 677.0920135006552 154.10885631317626 L 673.6801605296669 155.82175768021693 L 670.1089449212088 157.23804807144927 L 666.4042785883205 158.34292963559557 L 662.5934441879053 159.12387938095117 L 658.7048944248006 159.57077579427536 L 654.7680396956944 159.67600766882916 L 650.8130256571926 159.43456407131617 L 646.8705024002259 158.84410451917293 L 642.9713869981688 157.90500859026477 L 639.1466212676812 156.6204043454313 L 635.4269266386879 154.99617510927112 L 631.8425580724822 153.04094432477225 L 628.4230589941905 150.76603837154877 L 625.1970192174174 148.1854274141556 L 622.1918378345564 145.31564452480163 L 619.4334930259014 142.17568350234103 L 616.9463207043555 138.7868759852463 L 614.7528038603377 135.17274862890366 L 612.8733744037485 131.35886128561097 L 611.3262292169528 127.37262728767986 L 610.1271620352348 123.24311708868855 L 609.2894126597199 119.00084666388912 L 608.8235348831307 114.67755220677256 L 608.737284371842 110.30595278365479 L 609.0355275995142 105.91950272076866 L 609.7201727692292 101.5521355976989 L 610.7901234937007 97.23800180616877 L 612.2412558280828 93.01120170337683 L 614.0664190684627 88.90551644357652 L 616.2554605427536 84.95413860982855 L 618.7952744308127 81.18940478939203 L 621.6698744587454 77.64253224071767 L 624.8604901200009 74.34336178731682 L 628.3456858846064 71.32010904382614 L 632.1015026692431 68.59912603248844 L 636.1016206563932 66.20467518425076 L 640.3175423719898 64.15871763811299 L 644.7187947593941 62.480717655753885 L 649.2731488244884 61.187464856464324 L 653.9468552736722 60.29291585079 L 658.7048944248006 59.80805671093572 L 663.5112385419301 59.740787562912 L 668.3291246292002 60.0958304207437 L 673.1213356183732 60.87466120803022 L 677.8504877993763 62.07546672806509 L 682.4793222744725 63.693127151995704 L 686.9709981650801 65.71922439659565" fill="none" stroke="#c77dff" stroke-width="1" opacity="0.3" class="drift" />
<circle cx="621.7248832500386" cy="69.0132456789152" r="1.8193728026507556" fill="white" opacity="0.4383229957244181"  style="animation-delay: 3.251226846347236s" />
<circle cx="445.3957967963797" cy="36.53938828120933" r="1.843095291508715" fill="white" opacity="0.7689968859111045"  style="animation-delay: 2.0325765101022384s" />
<circle cx="512.6225695879463" cy="137.04772921656115" r="1.4308632466121414" fill="white" opacity="0.7273155178429545" class="shimmer" style="animation-delay: 2.105288084432794s" />
<circle cx="69.48219806775012" cy="192.30116715937723" r="0.8947819421273077" fill="white" opacity="0.7925524599726321" class="shimmer" style="animation-delay: 0.5450793255109232s" />
<circle cx="418.6359771316095" cy="107.95703122341456" r="1.065524715487761" fill="white" opacity="0.35988669764853437"  style="animation-delay: 0.28058193860567293s" />
<circle cx="49.43791596033744" cy="0.2917053017060578" r="1.413056775242923" fill="white" opacity="0.5233592013761494"  style="animation-delay: 3.1295780343104984s" />
<circle cx="657.3903084690835" cy="22.10281921287067" r="1.4840229893358092" fill="white" opacity="0.5815044041050195"  style="animation-delay: 3.536270343915935s" />
<circle cx="428.11257161836096" cy="52.66641365370393" r="1.4263966085066657" fill="white" opacity="0.6243067478563813"  style="animation-delay: 3.724700499486385s" />
<circle cx="292.13230824768016" cy="121.27891713308183" r="1.5943104302402649" fill="white" opacity="0.6535098665783321"  style="animation-delay: 3.868577266431805s" />
<circle cx="74.48022519892099" cy="180.2383951332335" r="1.6698167110649216" fill="white" opacity="0.7227124808448095"  style="animation-delay: 1.2931824412131399s" />
<circle cx="491.9292476745808" cy="153.2322670797179" r="0.6557909724341843" fill="white" opacity="0.7360608059586446"  style="animation-delay: 3.770438766132287s" />
<circle cx="631.3717679139645" cy="45.4149768817123" r="1.0657516536176062" fill="white" opacity="0.36445254995480963"  style="animation-delay: 1.828450204637223s" />
<circle cx="587.447335794612" cy="123.778712007991" r="1.8915330382845568" fill="white" opacity="0.6476392897284595"  style="animation-delay: 2.5847465477624674s" />
<circle cx="583.2139548088277" cy="186.06068649038977" r="1.3889585905116624" fill="white" opacity="0.34806062295111945" class="shimmer" style="animation-delay: 3.3765377304682165s" />
<circle cx="497.2601098536199" cy="38.23308973200184" r="0.587383084714541" fill="white" opacity="0.32906797768833024" class="shimmer" style="animation-delay: 3.707456026930267s" />
<circle cx="495.947759423794" cy="124.7720655821619" r="1.3964147451270679" fill="white" opacity="0.697326170175885"  style="animation-delay: 3.265562516304855s" />
<circle cx="771.3949779116733" cy="176.92691568428964" r="0.6622613178001315" fill="white" opacity="0.7639018851562338" class="shimmer" style="animation-delay: 4.363551674366326s" />
<circle cx="155.40676241439985" cy="73.90267106640036" r="0.983988924230686" fill="white" opacity="0.45038281889265414"  style="animation-delay: 3.9104763131087896s" />
<circle cx="137.61059371874006" cy="10.268805278965498" r="0.817351476534976" fill="white" opacity="0.34585670182693057" class="shimmer" style="animation-delay: 4.565538813604645s" />
<circle cx="163.67490696089408" cy="57.016958794858795" r="1.3334451224543464" fill="white" opacity="0.3462046631165598" class="shimmer" style="animation-delay: 4.045124747606939s" />
<circle cx="685.8573927740338" cy="132.0294794256642" r="1.1127857158948724" fill="white" opacity="0.6266711976700412" class="shimmer" style="animation-delay: 0.23466548445034374s" />
<circle cx="100.85330420269241" cy="55.2634577246939" r="1.721407302575611" fill="white" opacity="0.7492601224637112"  style="animation-delay: 3.2149198128758316s" />
<circle cx="553.0059763840336" cy="85.43237384541249" r="0.8446259327377426" fill="white" opacity="0.7416891342600829" class="shimmer" style="animation-delay: 3.7871616929152516s" />
<circle cx="525.4538103577783" cy="147.20477663723202" r="0.5755075984665989" fill="white" opacity="0.38331797065724776"  style="animation-delay: 0.3358808414922909s" />
<circle cx="654.6708028362339" cy="9.352702992335438" r="1.4333000670712601" fill="white" opacity="0.5302363372230965"  style="animation-delay: 0.6081922417990382s" />
<circle cx="63.31973020155939" cy="48.5059787951764" r="0.7981164628008717" fill="white" opacity="0.4089967490632856"  style="animation-delay: 4.751678558977965s" />
<circle cx="66.07349576006723" cy="119.49514137589846" r="0.817926120646137" fill="white" opacity="0.592310417017103"  style="animation-delay: 1.5251323418702345s" />
<circle cx="446.99881848324344" cy="58.946527022606965" r="1.765239669654765" fill="white" opacity="0.34125365561705817" class="shimmer" style="animation-delay: 0.2387908994712562s" />
<circle cx="385.0738890929272" cy="27.244504343208177" r="1.3545335141421866" fill="white" opacity="0.4129078730089231"  style="animation-delay: 0.2019657882240511s" />
<circle cx="541.2319774413604" cy="127.77769611308835" r="1.3593752282316856" fill="white" opacity="0.7924188917170385"  style="animation-delay: 2.3402714697616656s" />
<circle cx="68.39958361704834" cy="158.04003128447124" r="0.7701339712857" fill="white" opacity="0.3086399190317652" class="shimmer" style="animation-delay: 4.889511535620502s" />
<circle cx="51.511757914098055" cy="166.63675898740357" r="1.691158125976277" fill="white" opacity="0.5834451652790182"  style="animation-delay: 1.5439965001314715s" />
<circle cx="606.0172200177485" cy="147.34936230620627" r="0.8706995711210824" fill="white" opacity="0.6727034776255285"  style="animation-delay: 1.8960809004943802s" />
<circle cx="522.1843216095958" cy="16.720934530314537" r="1.9950567428043045" fill="white" opacity="0.6610700929401525" class="shimmer" style="animation-delay: 4.235874916098902s" />
<circle cx="588.6283741827801" cy="36.440093265481636" r="0.8893975284089489" fill="white" opacity="0.6942872848062187"  style="animation-delay: 1.2177011681092642s" />
<circle cx="628.1820530951638" cy="27.347369898551666" r="1.2659486667759272" fill="white" opacity="0.3775320053664238"  style="animation-delay: 2.9074628024410263s" />
<circle cx="414.19346030465823" cy="180.33459098152457" r="0.8299325141574001" fill="white" opacity="0.38808195307909893" class="shimmer" style="animation-delay: 4.256987018565484s" />
<circle cx="571.5377099929867" cy="4.861364621956188" r="1.2452630064889507" fill="white" opacity="0.4721925586596563" class="shimmer" style="animation-delay: 2.895658117469444s" />
<circle cx="304.70186990158135" cy="104.91317394530179" r="0.6097658202863439" fill="white" opacity="0.5263210920560315" class="shimmer" style="animation-delay: 2.388635687978523s" />
<circle cx="71.04026045354956" cy="171.7128447479443" r="0.5392472975170536" fill="white" opacity="0.6367219580780354"  style="animation-delay: 0.2980482862966971s" />
<circle cx="69.78880965770546" cy="35.93714729955133" r="1.8321533959202507" fill="#9d4edd" opacity="0.8" filter="url(#glow)" class="shimmer" style="animation-delay: 1.4526445365975311s" />
<circle cx="436.33265630443583" cy="170.21006059998513" r="1.3793886629349292" fill="#4a0080" opacity="0.8" filter="url(#glow)" class="shimmer" style="animation-delay: 1.0730733236747603s" />
<circle cx="23.93954177047899" cy="190.69682733939305" r="2.0895959071683707" fill="#e0aaff" opacity="0.8" filter="url(#glow)" class="shimmer" style="animation-delay: 1.9991361498098625s" />
<circle cx="426.43783922226316" cy="85.89943191676323" r="2.659011172000753" fill="#c77dff" opacity="0.8" filter="url(#glow)" class="shimmer" style="animation-delay: 2.933923810583497s" />
<circle cx="84.60458310527805" cy="123.80295984692928" r="1.960019349603117" fill="#7b2cbf" opacity="0.8" filter="url(#glow)" class="shimmer" style="animation-delay: 1.266705453531091s" />
<circle cx="93.9461999376558" cy="10.017216097095893" r="2.5347413631972793" fill="#e0aaff" opacity="0.8" filter="url(#glow)" class="shimmer" style="animation-delay: 1.4763351849176s" />
<circle cx="743.7785431610937" cy="129.46267633788574" r="1.4933508528128225" fill="#e0aaff" opacity="0.8" filter="url(#glow)" class="shimmer" style="animation-delay: 1.7603260834082979s" />
<circle cx="9.802651806329798" cy="74.37960599822785" r="2.1488294146084366" fill="#4a0080" opacity="0.8" filter="url(#glow)" class="shimmer" style="animation-delay: 1.3459227870633266s" />
<line x1="397.5113798383536" y1="53.43158023049424" x2="561.3136832762433" y2="121.01051446150993" stroke="#e0aaff" stroke-width="0.5" opacity="0.3" />
<line x1="561.3136832762433" y1="121.01051446150993" x2="535.6728879421039" y2="116.71718062604862" stroke="#e0aaff" stroke-width="0.5" opacity="0.3" />
<line x1="535.6728879421039" y1="116.71718062604862" x2="490.94371665875127" y2="59.160364359093606" stroke="#e0aaff" stroke-width="0.5" opacity="0.3" />
<line x1="490.94371665875127" y1="59.160364359093606" x2="207.98698369836913" y2="40.990039518823735" stroke="#e0aaff" stroke-width="0.5" opacity="0.3" />
<line x1="207.98698369836913" y1="40.990039518823735" x2="633.7510919421484" y2="56.265136243065456" stroke="#e0aaff" stroke-width="0.5" opacity="0.3" />

  
    <text x="400" y="120" text-anchor="middle" class="name-text" fill="url(#textGrad)" filter="url(#textGlow)">
      JOEL HOOKS
    </text>
  
</svg>
