<svg xmlns="http://www.w3.org/2000/svg" viewBox="0 0 800 200" width="800" height="200">
  <rect width="800" height="200" fill="#05010d"/>
  
    <defs>
      <linearGradient id="grad1" x1="0%" y1="0%" x2="100%" y2="100%">
        <stop offset="0%" style="stop-color:#4a0080;stop-opacity:0.8" />
        <stop offset="100%" style="stop-color:#7b2cbf;stop-opacity:0.8" />
      </linearGradient>
      <linearGradient id="grad2" x1="100%" y1="0%" x2="0%" y2="100%">
        <stop offset="0%" style="stop-color:#9d4edd;stop-opacity:0.7" />
        <stop offset="100%" style="stop-color:#c77dff;stop-opacity:0.7" />
      </linearGradient>
      <linearGradient id="textGrad" x1="0%" y1="0%" x2="100%" y2="0%">
        <stop offset="0%" style="stop-color:#4a0080" />
        <stop offset="25%" style="stop-color:#7b2cbf" />
        <stop offset="50%" style="stop-color:#9d4edd" />
        <stop offset="75%" style="stop-color:#c77dff" />
        <stop offset="100%" style="stop-color:#e0aaff" />
      </linearGradient>
      <filter id="glow">
        <feGaussianBlur stdDeviation="5" result="coloredBlur"/>
        <feMerge>
          <feMergeNode in="coloredBlur"/>
          <feMergeNode in="SourceGraphic"/>
        </feMerge>
      </filter>
      <filter id="textGlow">
        <feGaussianBlur stdDeviation="2" result="coloredBlur"/>
        <feMerge>
          <feMergeNode in="coloredBlur"/>
          <feMergeNode in="SourceGraphic"/>
        </feMerge>
      </filter>
    </defs>
  
  
    <style>
      @keyframes float {
        0%, 100% { transform: translateY(0px); }
        50% { transform: translateY(-8px); }
      }
      @keyframes pulse {
        0%, 100% { opacity: 0.4; }
        50% { opacity: 0.9; }
      }
      @keyframes drift {
        0% { transform: translateX(0px); }
        50% { transform: translateX(10px); }
        100% { transform: translateX(0px); }
      }
      @keyframes shimmer {
        0% { opacity: 0.3; }
        50% { opacity: 1; }
        100% { opacity: 0.3; }
      }
      @keyframes glitch {
        0%, 100% { transform: translateX(0); }
        20% { transform: translateX(-2px); }
        40% { transform: translateX(2px); }
        60% { transform: translateX(-1px); }
        80% { transform: translateX(1px); }
      }
      @keyframes dataStream {
        0% { stroke-dashoffset: 0; }
        100% { stroke-dashoffset: -20; }
      }
      .float { animation: float 8s ease-in-out infinite; }
      .pulse { animation: pulse 8s ease-in-out infinite; }
      .drift { animation: drift 8s ease-in-out infinite; }
      .shimmer { animation: shimmer 3s ease-in-out infinite; }
      .glitch { animation: glitch 0.5s ease-in-out infinite; }
      .dataStream { animation: dataStream 2s linear infinite; }
      .name-text { 
        font-family: -apple-system, BlinkMacSystemFont, 'Segoe UI', Helvetica, Arial, sans-serif;
        font-weight: 700;
        font-size: 64px;
        letter-spacing: -2px;
      }
    </style>
  
  <path d="M 141.78281698744155 99.89802057918911 C 143.65072694904373 114.96752991127379, 115.55102380897044 136.00421613086328, 100.14221359706411 150.71027846024964 C 84.73340338515779 165.416340789636, 72.10483067235673 182.2969388928409, 49.32995571600359 188.13439455550719 C 26.555080759650448 193.97185021817347, -25.578237128374063 200.44107476563377, -36.507036141054726 185.73501243624742 C -47.43583515373539 171.02895010686106, -21.757212674698042 122.99597688359088, -16.24283836008037 99.89802057918912 C -10.728464045462697 76.80006427478736, -14.349589266029348 59.3520879287337, -3.4207902533486916 47.14727460983685 C 7.508008759331965 34.942461290939995, 33.93736503587027 24.478149356157214, 49.32995571600357 26.669140665808 C 64.72254639613686 28.86013197545879, 73.52594361554476 48.088409148844725, 88.93475382745109 60.29322246774158 C 104.34356403935742 72.49803578663843, 139.91490702583937 84.82851124710443, 141.78281698744155 99.89802057918911 Z" fill="#7b2cbf" opacity="0.21143569796728234" filter="url(#glow)" class="float" />
<path d="M 321.8671167427524 117.06913459707971 C 322.55526822974696 147.59746316994656, 352.68081072460006 193.67451465197718, 340.1136614850527 210.71857477666396 C 327.54651224550537 227.76263490135074, 272.6634531305491 224.35074357998124, 246.46422130546847 219.33349534520045 C 220.26498948038787 214.31624711041965, 202.60400347338657 197.6591454926659, 182.91827053456907 180.61508536797913 C 163.23253759575158 163.57102524329235, 124.8177431270439 134.71903764185993, 128.3498236725635 117.06913459707972 C 131.8819042180831 99.41923155229952, 184.4250208688692 88.23267280675095, 204.1107538076867 74.71566709929795 C 223.7964867465042 61.19866139184494, 224.485221512902 43.82827764566753, 246.46422130546844 35.96710035236168 C 268.4432210980349 28.105923059055836, 323.41760332353795 14.031597632009868, 335.9847525630853 27.548603339462872 C 348.55190180263264 41.065609046915874, 321.1789652557578 86.54080602421287, 321.8671167427524 117.06913459707971 Z" fill="#e0aaff" opacity="0.20142561760215683" filter="url(#glow)" class="float" />
<path d="M 211.22256921087325 146.73638437789614 C 212.35944154836824 171.07390541004793, 197.9672457918353 206.6456372049146, 180.60956650500026 222.61079495161454 C 163.25188721816522 238.57595269831447, 130.3771852336202 240.91812930302413, 107.076493489863 242.52733085809572 C 83.7758017461058 244.13653241316732, 66.07923178766043 240.05685365257128, 40.80541604245707 232.2660042820441 C 15.531600297253704 224.4751549115169, -35.36010892205536 216.38349589902904, -44.56640098135718 195.78223463493265 C -53.77269304065899 175.18097337083626, -23.803017271384704 139.50190697345542, -14.43233631335383 108.65843669746575 C -5.061655355322953 77.81496642147607, -9.318284448481268 24.449076074266486, 11.657684766828083 10.721412978994579 C 32.63365398213743 -3.0062501162773287, 84.40170435963523 15.315082162549421, 111.42347897850227 26.2924581258343 C 138.44525359736932 37.26983408911918, 157.15515077463516 56.51168105002689, 173.78833248003033 76.58566875870386 C 190.4215141854255 96.65965646738084, 210.08569687337825 122.39886334574436, 211.22256921087325 146.73638437789614 Z" fill="#9d4edd" opacity="0.10576898426513069" filter="url(#glow)" class="float" />
<path d="M 390.25916358554946 90.25934080039511 C 392.1863448501091 118.38540397317684, 401.1043335631466 165.59346010168954, 385.2414208962613 180.41907411241914 C 369.37850822937594 195.24468812314873, 321.99053129236637 182.3574255939849, 295.0816875842373 179.21302486477268 C 268.1728438761082 176.06862413556044, 246.56164797110605 176.37828374787526, 223.78835864748675 161.55266973714566 C 201.01506932386744 146.72705572641607, 158.0902682618805 113.672100398671, 158.44195164252147 90.25934080039512 C 158.79363502316244 66.84658120211924, 203.12516960771322 39.71039495110252, 225.89845893133253 21.076112147490377 C 248.67174825495184 2.441829343878233, 270.4517085213088 -19.977453175984145, 295.0816875842373 -21.546356021277745 C 319.71166664716577 -23.115258866571345, 357.81542064201824 -6.971587727883364, 373.6783333089036 11.662695075728777 C 389.5412459757889 30.29697787934092, 388.3319823209898 62.13327762761338, 390.25916358554946 90.25934080039511 Z" fill="#c77dff" opacity="0.1874117922443332" filter="url(#glow)" class="float" />
<path d="M 490.9696963002157 74.34701983194405 L 490.9696963002157 74.34701983194405 L 491.2199422480791 74.3689135154754 L 491.4644673526774 74.43426131776657 L 491.69762335432017 74.54206729824013 L 491.9139063870162 74.69068419843335 L 492.10802724926333 74.87783227099983 L 492.274979384691 75.10062537213454 L 492.41010384416296 75.35560405231007 L 492.5091505305266 75.63877530881226 L 492.56833506364103 75.9456585953694 L 492.58439064630096 76.27133761983272 L 492.5546143607909 76.61051740100407 L 492.47690738059663 76.9575860008947 L 492.3498086417607 77.306680299468 L 492.1725215829282 77.65175513574584 L 491.944933631696 77.98665510246666 L 491.66762818679587 78.30518825163765 L 491.34188892024866 78.60120094562261 L 490.9696963002157 78.868653073087 L 490.55371631312 79.10169284134949 L 490.09728144199045 79.29473035656105 L 489.6043640361432 79.4425092106757 L 489.07954228452456 79.54017530934686 L 488.5279590805591 79.58334219756334 L 487.9552741394537 79.56815216984533 L 487.36760979890846 79.49133248889864 L 486.771491000394 79.3502460804546 L 486.17378000993966 79.14293612222008 L 485.5816064941274 78.86816400098279 L 485.00229361814837 78.52544017346044 L 484.4432808778391 78.11504753289651 L 483.9120444161201 77.63805695408986 L 483.4160156058116 77.0963347638584 L 482.96249870506597 76.49254196120084 L 482.5585884083668 75.83012509092691 L 482.2110881249951 75.11329875554134 L 481.9264298179298 74.34701983194405 L 481.7105962292682 73.53695354128408 L 481.5690463034434 72.68943160131616 L 481.5066445968569 71.81140277009511 L 481.52759543221055 70.91037616705113 L 481.63538251802476 69.99435783168668 L 481.83271470888843 69.07178105061061 L 482.1214785302538 68.15143104969563 L 482.5026980335055 67.2423647091689 L 482.97650248308895 66.35382601481734 L 483.5421023082235 65.49515800765617 L 484.1977736777581 64.67571203686943 L 484.94085197869174 63.9047551561415 L 485.76773439746904 63.19137653127687 L 486.6738917190995 62.54439374693768 L 487.65388937318244 61.972259912167225 L 488.7014176688301 61.48297246793988 L 489.80933107305407 61.083984595181505 L 490.9696963002157 60.782120108515215 L 492.17384889443997 60.58349269945462 L 493.41245790324626 60.49343036301648 L 494.67559815984106 60.516405803958186 L 495.9528296143104 60.65597357333666 L 497.23328308107386 60.91471463318153 L 498.50575170212056 61.29418898719086 L 499.7587873634053 61.79489694897486 L 500.9808012459443 62.4162495470343 L 502.16016764419305 63.15654848796666 L 503.2853301427032 64.01297601699837 L 504.3449092082976 64.98159492854526 L 505.3278102294442 66.05735888984864 L 506.2233310174545 67.23413314859664 L 507.02126777582436 68.50472560162608 L 507.71201854461964 69.8609281071344 L 508.28668313637513 71.2935678281558 L 508.73715859852024 72.79256830121814 L 509.0562292647875 74.34701983194405 L 509.2376504942471 75.94525872973267 L 509.27622524129856 77.57495480737732 L 509.16787265282863 79.22320648934584 L 508.90968794942535 80.87664279524063 L 508.4999929155498 82.52153139340302 L 507.93837639839484 84.14389185442042 L 507.2257242961922 85.72961317607488 L 506.364238603325 87.26457460062615 L 505.35744517104376 88.73476870277212 L 504.2101899381148 90.12642569263114 L 502.92862348455566 91.42613785303328 L 501.52017386288253 92.62098301459852 L 499.9935077641639 93.69864596575445 L 498.35848017973547 94.64753669815501 L 496.62607282280175 95.45690440097512 L 494.8083216764066 96.1169461402588 L 492.9182341345059 96.61890919179059 L 490.9696963002157 96.95518603765878 L 488.97737109886276 97.11940108751747 L 486.9565879523797 97.1064882451822 L 484.92322484503745 96.91275850918416 L 482.8935836877173 96.53595687175604 L 480.88425995815595 95.97530786384982 L 478.91200765716786 95.23154918354918 L 476.9936006751437 94.30695294092786 L 475.1456917085801 93.20533415325303 L 473.3846699025369 91.93204622962281 L 471.726518421329 90.4939632927967 L 470.18667316611914 88.89944929722526 L 468.77988386413523 87.15831401518238 L 467.52007874983366 85.28175607649305 L 466.4202340434024 83.28229336066566 L 465.4922494065575 81.17368115230659 L 464.74683051974563 78.97081858053767 L 464.19337987882716 76.6896439697986 L 463.839896853358 74.34701983194407 L 463.69288798310026 71.96060832702683 L 463.75728841482226 69.54873811170542 L 464.03639529834845 67.13026357898936 L 464.5318138698014 64.72441757024387 L 465.2434168517383 62.35065870928352 L 466.1693176951846 60.02851456832471 L 467.30585807822456 57.77742192593085 L 468.6476099607071 55.616565417355034 L 470.1873923756862 53.564715907414595 L 471.9163030164096 51.640069934857735 L 473.82376455399327 49.86009158484025 L 475.89758549640584 48.24135814243766 L 478.12403527506586 46.799410864990406 L 480.48793312229225 45.548612184528494 L 482.9727501820767 44.502010613658754 L 485.5607241792194 43.671214579318715 L 488.23298585879684 43.06627634901352 L 490.9696963002157 42.69558714394344 L 493.7501941086972 42.56578445328663 L 496.553151392857 42.68167247439531 L 499.35673735094673 43.046156505449716 L 502.1387882111177 43.660192010927474 L 504.876982203477 44.522748966895044 L 507.54901818440646 45.63079197348701 L 510.13279648717014 46.97927649694566 L 512.6066005377581 48.561161474235846 L 514.9492777515958 50.36743838056393 L 517.1404182155015 52.387176725184496 L 519.1605296603268 54.60758580478043 L 520.991207243148 57.01409240756277 L 522.6152966837409 59.59043402619346 L 524.0170493382335 62.31876700481874 L 525.1822678431281 65.17978891602866 L 526.0984410249963 68.15287433854506 L 526.7548668446882 71.21622308696094 L 527.1427622293593 74.34701983194404 L 527.2553587404151 77.5216039439899 L 527.0879831299197 80.71564829698812 L 526.6381219513371 83.90434568045156 L 525.9054695118346 87.06260139204785 L 524.8919585818362 90.16523051580623 L 523.6017734120986 93.18715833670629 L 522.0413447482214 96.10362229983964 L 520.2193266761235 98.89037389244005 L 518.1465552784465 101.52387881017482 L 515.8359892299287 103.98151376542958 L 513.3026326083204 106.24175830506249 L 510.5634403451685 108.28438002830232 L 507.63720688656707 110.09061163204093 L 504.54443877654273 111.6433182605642 L 501.3072120139076 112.92715369948357 L 497.9490151660174 113.92870402887996 L 494.4945793487632 114.63661743795858 L 490.9696963002158 115.04171900223055 L 487.40102588460553 115.13710933368546 L 483.815894462769 114.91824613380338 L 480.24208565393167 114.38300780769262 L 476.7076250909101 113.53173843416522 L 473.2405608357528 112.36727353013629 L 469.8687411748819 110.89494619725298 L 466.6195915513789 109.1225733929571 L 463.51989241676625 107.06042222605149 L 460.5955597951342 104.72115633702555 L 457.87143034853057 102.11976258461063 L 455.37105271408996 99.27345842099002 L 453.1164868504314 96.20158049746829 L 451.1281130835472 92.92545519889632 L 449.42445248099324 89.46825195747294" fill="none" stroke="#4a0080" stroke-width="1" opacity="0.3" class="drift" />
<path d="M 494.2137767282818 142.69217751528987 L 494.2137767282818 142.69217751528987 L 494.52912923404733 142.71976728455886 L 494.83727250316315 142.8021166427592 L 495.1310887666435 142.93797053517622 L 495.4036422161501 143.12525313565456 L 495.64826755715427 143.3610915743462 L 495.8586556761209 143.64184881860913 L 496.02893550382043 143.96316537296954 L 496.1537511941412 144.32000937408583 L 496.22833378370774 144.7067345707158 L 496.2485665517767 145.1171455976141 L 496.2110433617784 145.54456987685057 L 496.1131193349203 145.98193541096808 L 495.9529532818283 146.4218536703583 L 495.72954139955823 146.856706722829 L 495.4427418277136 147.2787377070982 L 495.0932897480363 147.68014371434057 L 494.6828028058544 148.05317011330348 L 494.2137767282818 148.3902053352054 L 493.6895711121713 148.6838751248345 L 493.1143854535887 148.92713526410327 L 492.4932255890773 149.11336178382152 L 491.83186081627593 149.23643769856562 L 491.1367720566226 149.29083532810324 L 490.4150915150048 149.27169330664628 L 489.6745343794259 149.17488742792784 L 488.92332318719497 148.99709452933288 L 488.170105562004 148.73584868156766 L 487.42386609777395 148.38958902107572 L 486.69383322962176 147.95769863996273 L 485.9893819890863 147.44053403188613 L 485.31993358927247 146.8394446814392 L 484.69485282533526 146.15678247820748 L 484.12334430630347 145.39590073403977 L 483.61434855529905 144.56114268226816 L 483.1764390264891 143.657819439704 L 482.81772108845075 142.69217751528987 L 482.5457340149581 141.67135605233779 L 482.36735700553635 140.60333409337295 L 482.2887202295801 139.49686825676724 L 482.31512184959865 138.36142131164286 L 482.4509519315275 137.20708223102784 L 482.6996240934081 136.0444783920551 L 483.0635156785445 134.8846806752577 L 483.54391716605517 133.73910229191213 L 484.14099145115216 132.61939223816023 L 484.8537435402051 131.53732433659837 L 485.68000111243265 130.5046828795305 L 486.61640630172775 129.53314593257707 L 487.6584189495296 128.63416739233963 L 488.800331473723 127.81885891693591 L 490.0352953902138 127.09787286314156 L 491.3553594140797 126.48128736837506 L 492.7515189570261 125.97849470971806 L 494.2137767282818 125.59809405554333 L 495.73121403807545 125.34778969818704 L 497.2920722974225 125.23429581861238 L 498.8838441061226 125.26324878641822 L 500.49337322356996 125.43912794119927 L 502.10696262514665 125.76518573459471 L 503.7104897614743 126.24338803689886 L 505.28952805949024 126.87436532845321 L 506.82947363395044 127.6573754048796 L 508.3156761162633 128.59027812730835 L 509.7335724551569 129.66952264492224 L 511.0688225011405 130.89014740826448 L 512.3074451545119 132.2457931787781 L 513.4359538351729 133.72872912393484 L 514.4414900220432 135.32989196908997 L 515.3119536106001 137.0389380579037 L 516.0361288491287 138.84430805386395 L 516.6038046376327 140.73330389719263 L 517.0058880079439 142.69217751528987 L 517.2345096491638 144.70623067192508 L 517.2831203988914 146.75992523165436 L 517.1465776873234 148.83700301244875 L 516.8212209977798 150.92061430221918 L 516.3049354929178 152.9934540247576 L 515.5972030501902 155.03790445844015 L 514.6991400522178 157.03618333767457 L 513.6135213868757 158.97049610324942 L 512.3447902271153 160.8231910141232 L 510.89905328094034 162.5769157903486 L 509.2840613264835 164.21477442524795 L 507.5091749747513 165.72048278503726 L 505.5853157322397 167.07852160612188 L 503.5249025661229 168.27428550445867 L 501.34177430498613 169.2942266277782 L 499.0510983369315 170.12599161006878 L 496.66926619322066 170.75855052841987 L 494.2137767282818 171.18231661486746 L 491.7031077248051 171.3892555399509 L 489.1565768646935 171.37298315983145 L 486.5941931118048 171.1288507045015 L 484.03649964971135 170.65401648019534 L 481.50440960621125 169.94750326386685 L 479.01903587517376 169.01024068071547 L 476.60151641472083 167.84509197632525 L 474.2728364580314 166.45686472206742 L 472.0536491185965 164.8523051249751 L 469.96409590503947 163.04007575023934 L 468.0236286812244 161.03071660466782 L 466.2508346150171 158.83658967171715 L 464.66326565350886 156.47180713185057 L 463.2772740437056 153.9521436447721 L 462.1078553856235 151.2949332113123 L 461.16850065957084 148.51895127116336 L 460.47105861137265 145.64428282707024 L 460.0256098087887 142.69217751528987 L 459.84035359984165 139.68489266497158 L 459.92150910980814 136.64552550447777 L 460.27323130890017 133.5978357794947 L 460.8975430679689 130.56606014507827 L 461.7942839957639 127.57471978061649 L 462.9610767193389 124.64842275222404 L 464.3933111301471 121.81166271055267 L 466.0841469733206 119.08861556274857 L 468.0245350077447 116.50293579475276 L 470.20325681104146 114.07755414386386 L 472.6069831477276 111.83447833113314 L 475.22035066189676 109.79459855850787 L 478.0260564991182 107.97749945657606 L 481.00497030715843 106.4012801353062 L 484.1362629129412 105.08238394246158 L 487.3975508251845 104.03543947264686 L 490.76505556965986 103.27311429460164 L 494.2137767282818 102.80598277588126 L 497.71767742544165 102.64240928307063 L 501.24988088631767 102.78844792288419 L 504.782876583395 103.24775986573825 L 508.28873439013455 104.02154915956956 L 511.739325075558 105.10851779883109 L 515.1065454013053 106.50484066282965 L 518.3625460241954 108.20416078005584 L 521.479960363114 110.19760521214506 L 524.4321325596708 112.47382168390092 L 527.1933426478914 115.01903591575865 L 529.7390270495379 117.81712944355937 L 532.0459925285811 120.84973753894707 L 534.0926217709365 124.09636667352348 L 535.8590688036729 127.53453080252527 L 537.3274425312801 131.13990558063117 L 538.4819767448569 134.88649946496875 L 539.3091850527492 138.74684050982646 L 539.797999287606 142.69217751528984 L 539.9398900642801 146.69269405929126 L 539.7289682946196 150.71773382054965 L 539.1620666080034 154.73603548972125 L 538.2387997794095 158.71597546878377 L 536.9616034286814 162.625816475169 L 535.3357504242593 166.43396009827114 L 533.3693446006152 170.10920130237957 L 531.0732915796102 173.62098283241303 L 528.4612466705227 176.93964745753064 L 525.5495400101039 180.03668598308312 L 522.3570792911885 182.88497897364533 L 518.9052306145825 185.45903015910642 L 515.2176781826511 187.7351895418855 L 511.32026373268747 189.6918642860884 L 507.24080678225874 191.30971554845812 L 503.0089069258267 192.571839505797 L 498.65572958058686 193.46393094353633 L 494.2137767282819 193.97442789452953 L 489.7166443374389 194.09463595506733 L 485.19876827579833 193.81883105555966 L 480.6951606345322 193.1443396251815 L 476.24113848314676 192.07159526182505 L 471.8720471557999 190.60417119963046 L 467.6229802353427 188.74878805478465 L 463.52849845001583 186.51529652472263 L 459.62234972886785 183.91663491480193 L 455.9371926751891 180.96876156838255 L 452.504325712305 177.69056247940296 L 449.353424132827 174.10373456937282 L 446.5122872409479 170.2326453115482 L 444.0065977177453 166.10416958226205 L 441.85969526207583 161.7475048113367 L 440.09236646494355 157.19396568858485 L 438.7226527638427 152.4767598600587 L 437.76567819625626 147.6307462144365 L 437.2334985291266 142.6921775152899 L 437.13497318472525 137.69842927760547 L 437.47566121407993 132.6877169155826 L 438.2577423882202 127.69880330222225 L 439.47996428633917 122.7706989785137 L 441.13761606000037 117.94235733020506 L 443.22252934526966 113.2523671123931 L 445.72310658174973 108.73864474584757 L 448.6243767805861 104.43812883358501 L 451.90807856433713 100.38647935134546 L 455.5527700818778 96.61778395112943 L 459.5339651830226 93.16427378273573 L 463.8242950220656 90.05605118443873 L 468.39369404870683 87.32083152081245 L 473.2096091405937 84.98370135367652 L 478.23723043566866 83.06689502178162 L 483.43974223628913 81.58959157691868 L 488.7785921822936 80.56773387948523 L 494.21377672828186 80.0138714962192 L 499.70414081280785 79.93702886795421 L 505.20768947521276 80.34260002715595 L 510.6819090606675 81.23227094505826 L 516.084095556699 82.60397037793979 L 521.3716875259694 84.45184986306748 L 526.5026010411365 86.7662932887605 L 531.4355639889003 89.53395623165842 L 536.1304470922777 92.7378350194106" fill="none" stroke="#7b2cbf" stroke-width="1" opacity="0.3" class="drift" />
<circle cx="7.450546855611684" cy="72.10061713851634" r="1.8407230491135609" fill="white" opacity="0.45339886609081975"  style="animation-delay: 2.811895912053324s" />
<circle cx="445.8798706011567" cy="158.7843845045775" r="1.767519107387487" fill="white" opacity="0.48634431562882624"  style="animation-delay: 3.294954089313041s" />
<circle cx="540.2591091484712" cy="198.6611122355925" r="1.7662473693645269" fill="white" opacity="0.4629642890856353"  style="animation-delay: 4.327962439328252s" />
<circle cx="49.612474824881936" cy="88.17068661322386" r="1.386793358522042" fill="white" opacity="0.34731250997137936" class="shimmer" style="animation-delay: 4.316974564821337s" />
<circle cx="159.29317168049585" cy="23.81117209015291" r="0.7421180050479306" fill="white" opacity="0.5472425626476627" class="shimmer" style="animation-delay: 1.4299187079121034s" />
<circle cx="150.6702451360697" cy="92.79909280904745" r="1.2372840460160681" fill="white" opacity="0.5111743304758625"  style="animation-delay: 2.773622071690909s" />
<circle cx="409.59943572444234" cy="172.2182230443545" r="1.6567980531094457" fill="white" opacity="0.36124950249032023" class="shimmer" style="animation-delay: 0.1341825016829279s" />
<circle cx="581.97590251458" cy="65.02652018026964" r="1.8091174148198772" fill="white" opacity="0.6697682028514753"  style="animation-delay: 1.3406864403956698s" />
<circle cx="603.9624425378955" cy="73.18465339971026" r="1.369439488657694" fill="white" opacity="0.7658998781014381"  style="animation-delay: 0.3514393564162943s" />
<circle cx="789.8396506146735" cy="104.684601048465" r="1.247036521026832" fill="white" opacity="0.5972196097873756"  style="animation-delay: 3.7501806968876417s" />
<circle cx="721.9303226738996" cy="86.43971115756162" r="1.8249866521268316" fill="white" opacity="0.5432985253651068"  style="animation-delay: 0.32420939564907103s" />
<circle cx="224.74042619933067" cy="92.57180998611649" r="1.746122460744925" fill="white" opacity="0.6307110380885319" class="shimmer" style="animation-delay: 4.33862242742927s" />
<circle cx="780.1709707220908" cy="166.03016732277936" r="1.3801736350253133" fill="white" opacity="0.5239047700494335"  style="animation-delay: 0.48913255330121475s" />
<circle cx="511.37292684736246" cy="127.59022954564134" r="0.6188013102235229" fill="white" opacity="0.43188696773283447"  style="animation-delay: 2.464400714430467s" />
<circle cx="6.215499467943886" cy="48.42496534532121" r="1.8581365094120192" fill="white" opacity="0.7366220142512434" class="shimmer" style="animation-delay: 1.3972678586970855s" />
<circle cx="419.74812684224736" cy="62.08795445385675" r="0.9626804347195729" fill="white" opacity="0.42334788504257775"  style="animation-delay: 4.880414408104232s" />
<circle cx="731.8191695625865" cy="80.07091187886633" r="1.409832136062711" fill="white" opacity="0.3250514748944326"  style="animation-delay: 1.9001722229389695s" />
<circle cx="165.59642307691752" cy="128.2542215304523" r="1.923158535412872" fill="white" opacity="0.6759240856383699"  style="animation-delay: 0.8154054329996485s" />
<circle cx="699.5871745412568" cy="56.44325598792723" r="0.9154408842073278" fill="white" opacity="0.37805633990144777"  style="animation-delay: 0.9668114140517359s" />
<circle cx="136.93125160400328" cy="157.1744400541294" r="1.7774559061374426" fill="white" opacity="0.5627585476172665" class="shimmer" style="animation-delay: 2.9177943794855765s" />
<circle cx="341.05954125956083" cy="86.01931541823919" r="1.3468493063071432" fill="white" opacity="0.376560129406659"  style="animation-delay: 1.826593801019748s" />
<circle cx="154.89418922183944" cy="8.883724295577444" r="0.9196424167499062" fill="white" opacity="0.3992716496118202"  style="animation-delay: 3.7512024842839917s" />
<circle cx="423.1491527350995" cy="145.44520352973555" r="1.8209764707316594" fill="white" opacity="0.6298816967473229"  style="animation-delay: 0.8668051427886891s" />
<circle cx="70.76001843057007" cy="110.38657944252215" r="1.070034857828472" fill="white" opacity="0.5534315596849533" class="shimmer" style="animation-delay: 0.9425761308082936s" />
<circle cx="388.25805699017303" cy="146.45302212195327" r="1.8704303828947917" fill="white" opacity="0.5761746614277945"  style="animation-delay: 1.873875420446941s" />
<circle cx="549.9599924010043" cy="68.61137523049061" r="0.5726279534596693" fill="white" opacity="0.4240613500394988"  style="animation-delay: 0.24521891483424874s" />
<circle cx="193.95390045023984" cy="1.8299863474241729" r="0.7006020758876343" fill="white" opacity="0.35480274998027334"  style="animation-delay: 4.309547796138863s" />
<circle cx="496.95361840868554" cy="74.9028709020076" r="0.9774295512680853" fill="white" opacity="0.7033698279576714"  style="animation-delay: 2.667479148777857s" />
<circle cx="497.91439520243534" cy="104.6172755010013" r="0.9373210036111738" fill="white" opacity="0.7019510023171975"  style="animation-delay: 0.7970718571414315s" />
<circle cx="11.18258483405441" cy="109.19243401123487" r="0.868135102920191" fill="white" opacity="0.6393154064790203"  style="animation-delay: 3.8258738092292655s" />
<circle cx="367.08861410016203" cy="195.52908659215365" r="0.5846847602589452" fill="white" opacity="0.7774036200972367"  style="animation-delay: 3.799374950431101s" />
<circle cx="163.16700088743144" cy="158.2957085395321" r="0.6996616005291819" fill="white" opacity="0.6858241714277489"  style="animation-delay: 4.117111876996523s" />
<circle cx="479.495006126316" cy="189.11382496990058" r="0.5845429411057576" fill="white" opacity="0.364441833556234"  style="animation-delay: 0.5659184535986272s" />
<circle cx="704.2638649615333" cy="173.28393761163193" r="1.1534666403348317" fill="white" opacity="0.4101462761464218"  style="animation-delay: 1.854854777071011s" />
<circle cx="58.10369998952076" cy="135.15076345001484" r="1.6907932385744875" fill="white" opacity="0.6729077464016158" class="shimmer" style="animation-delay: 3.7617032337175793s" />
<circle cx="629.0390697285627" cy="76.72856858913933" r="1.5267873436146437" fill="white" opacity="0.3653100175392207" class="shimmer" style="animation-delay: 3.4786548285824304s" />
<circle cx="168.25090897678425" cy="90.73850995956141" r="0.7096002191891401" fill="white" opacity="0.5687605844601378" class="shimmer" style="animation-delay: 3.1551247159480633s" />
<circle cx="518.2127527016531" cy="5.747866910793453" r="1.3940294790856331" fill="white" opacity="0.7703904862341748"  style="animation-delay: 2.361208300080213s" />
<circle cx="621.8460376581182" cy="9.866039708794805" r="1.3970725521919054" fill="white" opacity="0.395206192988038"  style="animation-delay: 4.492630740556191s" />
<circle cx="197.07411887824424" cy="172.1179490306669" r="0.5934417112798115" fill="white" opacity="0.4423462021670728" class="shimmer" style="animation-delay: 1.022987814124816s" />
<circle cx="682.0356990232281" cy="70.10869305726786" r="2.261637719815376" fill="#4a0080" opacity="0.8" filter="url(#glow)" class="shimmer" style="animation-delay: 2.158838192424235s" />
<circle cx="484.39656726713577" cy="12.506155970680277" r="2.3174183700564286" fill="#7b2cbf" opacity="0.8" filter="url(#glow)" class="shimmer" style="animation-delay: 1.3726525051887155s" />
<circle cx="255.1688557185937" cy="129.24612778376544" r="1.2421411591035074" fill="#7b2cbf" opacity="0.8" filter="url(#glow)" class="shimmer" style="animation-delay: 0.011999237181351763s" />
<circle cx="503.2601309924486" cy="114.8687648606301" r="2.9069954809796053" fill="#9d4edd" opacity="0.8" filter="url(#glow)" class="shimmer" style="animation-delay: 1.95638829724257s" />
<circle cx="662.0021863641476" cy="186.40545865041793" r="2.724068613607279" fill="#9d4edd" opacity="0.8" filter="url(#glow)" class="shimmer" style="animation-delay: 2.6370224846150077s" />
<circle cx="625.0464771310595" cy="89.65893646455947" r="1.451465490308642" fill="#e0aaff" opacity="0.8" filter="url(#glow)" class="shimmer" style="animation-delay: 1.8555949219442969s" />
<circle cx="397.03981831510976" cy="147.07284840594994" r="1.1902002944454888" fill="#9d4edd" opacity="0.8" filter="url(#glow)" class="shimmer" style="animation-delay: 2.311722168370212s" />
<circle cx="321.00170253758034" cy="96.16198175723505" r="2.0074924503992952" fill="#9d4edd" opacity="0.8" filter="url(#glow)" class="shimmer" style="animation-delay: 1.861339892033484s" />
<line x1="390.0597062396974" y1="166.30424841021954" x2="451.1759120459538" y2="107.1033819418032" stroke="#e0aaff" stroke-width="0.5" opacity="0.3" />
<line x1="451.1759120459538" y1="107.1033819418032" x2="708.0047074945273" y2="69.70460043598234" stroke="#e0aaff" stroke-width="0.5" opacity="0.3" />
<line x1="708.0047074945273" y1="69.70460043598234" x2="227.31989390806714" y2="158.39080379986694" stroke="#e0aaff" stroke-width="0.5" opacity="0.3" />

  
    <text x="400" y="120" text-anchor="middle" class="name-text" fill="url(#textGrad)" filter="url(#textGlow)">
      JOEL HOOKS
    </text>
  
</svg>
