<svg xmlns="http://www.w3.org/2000/svg" viewBox="0 0 800 200" width="800" height="200">
  <rect width="800" height="200" fill="#05010d"/>
  
    <defs>
      <linearGradient id="grad1" x1="0%" y1="0%" x2="100%" y2="100%">
        <stop offset="0%" style="stop-color:#4a0080;stop-opacity:0.8" />
        <stop offset="100%" style="stop-color:#7b2cbf;stop-opacity:0.8" />
      </linearGradient>
      <linearGradient id="grad2" x1="100%" y1="0%" x2="0%" y2="100%">
        <stop offset="0%" style="stop-color:#9d4edd;stop-opacity:0.7" />
        <stop offset="100%" style="stop-color:#c77dff;stop-opacity:0.7" />
      </linearGradient>
      <linearGradient id="textGrad" x1="0%" y1="0%" x2="100%" y2="0%">
        <stop offset="0%" style="stop-color:#4a0080" />
        <stop offset="25%" style="stop-color:#7b2cbf" />
        <stop offset="50%" style="stop-color:#9d4edd" />
        <stop offset="75%" style="stop-color:#c77dff" />
        <stop offset="100%" style="stop-color:#e0aaff" />
      </linearGradient>
      <filter id="glow">
        <feGaussianBlur stdDeviation="5" result="coloredBlur"/>
        <feMerge>
          <feMergeNode in="coloredBlur"/>
          <feMergeNode in="SourceGraphic"/>
        </feMerge>
      </filter>
      <filter id="textGlow">
        <feGaussianBlur stdDeviation="2" result="coloredBlur"/>
        <feMerge>
          <feMergeNode in="coloredBlur"/>
          <feMergeNode in="SourceGraphic"/>
        </feMerge>
      </filter>
    </defs>
  
  
    <style>
      @keyframes float {
        0%, 100% { transform: translateY(0px); }
        50% { transform: translateY(-8px); }
      }
      @keyframes pulse {
        0%, 100% { opacity: 0.4; }
        50% { opacity: 0.9; }
      }
      @keyframes drift {
        0% { transform: translateX(0px); }
        50% { transform: translateX(10px); }
        100% { transform: translateX(0px); }
      }
      @keyframes shimmer {
        0% { opacity: 0.3; }
        50% { opacity: 1; }
        100% { opacity: 0.3; }
      }
      @keyframes glitch {
        0%, 100% { transform: translateX(0); }
        20% { transform: translateX(-2px); }
        40% { transform: translateX(2px); }
        60% { transform: translateX(-1px); }
        80% { transform: translateX(1px); }
      }
      @keyframes dataStream {
        0% { stroke-dashoffset: 0; }
        100% { stroke-dashoffset: -20; }
      }
      .float { animation: float 8s ease-in-out infinite; }
      .pulse { animation: pulse 8s ease-in-out infinite; }
      .drift { animation: drift 8s ease-in-out infinite; }
      .shimmer { animation: shimmer 3s ease-in-out infinite; }
      .glitch { animation: glitch 0.5s ease-in-out infinite; }
      .dataStream { animation: dataStream 2s linear infinite; }
      .name-text { 
        font-family: -apple-system, BlinkMacSystemFont, 'Segoe UI', Helvetica, Arial, sans-serif;
        font-weight: 700;
        font-size: 64px;
        letter-spacing: -2px;
      }
    </style>
  
  <path d="M 356.54447408262297 159.4335653409733 C 352.8770706395044 180.56169272564807, 332.50151764009024 200.1599917652638, 318.1628407530304 214.82437378866086 C 303.8241638659706 229.48875581205792, 288.35056300651587 240.85801586160156, 270.5124127602641 247.41985748135568 C 252.67426251401236 253.9816991011098, 226.31113744203884 261.2947166121893, 211.13393927551985 254.19542350718564 C 195.95674110900086 247.096130402182, 197.2912141364131 220.61774187903592, 179.4492237611501 204.82409885133387 C 161.60723338588713 189.03045582363183, 106.76480873681906 176.5129199817963, 104.08199702394197 159.43356534097333 C 101.39918531106487 142.35421070015036, 144.46442801455407 114.92255681412355, 163.35235348388755 102.34797100639608 C 182.24027895322104 89.7733851986686, 198.84005207640436 91.31974597642619, 217.40954983994277 83.9860504946085 C 235.97904760348118 76.65235501279082, 254.30972146981821 57.667538284489375, 274.76934006511806 58.345798115489984 C 295.2289586604179 59.02405794649059, 326.5380724088243 71.20764827636495, 340.1672614117418 88.05560948061216 C 353.79645041465926 104.90357068485937, 360.21187752574156 138.30543795629853, 356.54447408262297 159.4335653409733 Z" fill="#9d4edd" opacity="0.10952829414247335" filter="url(#glow)" class="float" />
<path d="M 753.9332988867087 162.26893046942322 C 750.5435677067779 171.28704915217432, 742.5124226540574 173.62821517261855, 738.8623350257634 182.78794266037963 C 735.2122473974694 191.9476701481407, 738.8009046918173 210.58466697812457, 732.0327731169442 217.22729539598964 C 725.2646415420711 223.8699238138547, 707.6297151407402 225.81032741551698, 698.2535455765251 222.64371316757004 C 688.8773760123099 219.4770989196231, 682.7307082737293 205.82310716479805, 675.7757557316534 198.22760990830804 C 668.8208031895774 190.63211265181803, 658.7262859062193 185.23536281346105, 656.5238303240698 177.07072962862998 C 654.3213747419202 168.9060964437989, 658.0938693671703 156.24750571507894, 662.5610222387558 149.23981079932162 C 667.0281751103412 142.2321158835643, 677.1919611661731 141.62161952951297, 683.3267475535822 135.02456013408604 C 689.4615339409913 128.42750073865912, 690.7878284770959 115.29299986683043, 699.3697405632104 109.65745442676013 C 707.9516526493248 104.02190898668982, 724.8463898132463 98.0409914708121, 734.8182200702694 101.21128749366426 C 744.7900503272924 104.38158351651641, 756.0148756359417 118.5029567345799, 759.2007221053483 128.67923056387306 C 762.3865685747548 138.85550439316623, 757.3230300666395 153.25081178667213, 753.9332988867087 162.26893046942322 Z" fill="#e0aaff" opacity="0.1927694599182267" filter="url(#glow)" class="float" />
<path d="M 403.35199747078974 140.4458582427553 C 408.92872527077276 154.40444497555217, 428.2615427520861 179.52144383802397, 424.2922192248416 193.07345445316253 C 420.32289569759706 206.62546506830108, 395.05638127192435 217.50936033977968, 379.5360563073226 221.75792193358666 C 364.01573134272087 226.00648352739364, 344.85486352485407 223.46645315914822, 331.1702694372312 218.5648240160044 C 317.4856753496083 213.66319487286057, 310.003607444851 201.12592801684355, 297.42849178158525 192.34814707472373 C 284.8533761183195 183.5703661326039, 253.83583838972314 176.19631094242231, 255.71957545763655 165.89813836328545 C 257.60331252555 155.5999657841486, 300.71048742520514 142.21791641766103, 308.73091418906574 130.5591115999025 C 316.75134095292634 118.90030678214397, 299.31978927989775 101.87525734463674, 303.8421360408002 95.94530945673425 C 308.36448280170265 90.01536156883176, 322.39854288513595 102.97766558785871, 335.86499475448045 94.97942427248756 C 349.33144662382495 86.98118295711642, 375.4797043117899 45.56544326719171, 384.64084725686706 47.955861564507344 C 393.80199020194425 50.34627986182298, 387.7133273892897 93.90693461000672, 390.83185242494346 109.32193405638137 C 393.9503774605972 124.73693350275602, 397.7752696708067 126.48727150995843, 403.35199747078974 140.4458582427553 Z" fill="#e0aaff" opacity="0.20753469856627016" filter="url(#glow)" class="float" />
<path d="M 762.94785327308 14.447080104705012 C 769.2246932904391 28.33027107222373, 740.7983211764255 52.18543255464533, 727.9965053333866 69.77782664955299 C 715.1946894903477 87.37022074446065, 704.6367583678848 111.35083932788623, 686.1369582148468 120.00144467415096 C 667.6371580618088 128.6520500204157, 630.5660780211306 133.56885325480897, 616.9977044151585 121.68145872714132 C 603.4293308091865 109.79406419947368, 608.3577286665806 66.54947394521781, 604.7267165790148 48.6770775081451 C 601.095704491449 30.804681071072388, 597.5612259798963 27.564159269216113, 595.2116318897642 14.44708010470502 C 592.8620377996322 1.3300009401939246, 585.980677523875 -15.284428402447789, 590.629152038222 -30.02539747892146 C 595.2776265525689 -44.76636655539513, 609.2200695810766 -70.0832241294789, 623.102478975846 -73.998734354137 C 636.9848883706154 -77.9142445787951, 662.7181106979403 -63.598028026633045, 673.9236084068381 -53.5184588268701 C 685.1291061157358 -43.43888962710716, 675.4980910848585 -24.848908977488513, 690.3354652292321 -13.521319155559326 C 705.1728393736057 -2.1937293336301398, 756.6710132557209 0.5638891371862922, 762.94785327308 14.447080104705012 Z" fill="#c77dff" opacity="0.10593928318937176" filter="url(#glow)" class="float" />
<path d="M 338.5404119140486 88.16416330362473 L 338.5404119140486 88.16416330362473 L 338.8292691726004 88.18943503912519 L 339.1115228992417 88.26486557929327 L 339.38065334480723 88.38930531644368 L 339.63030743283235 88.56085283092214 L 339.85437987266675 88.77687662529867 L 340.04709162908375 89.03404524268282 L 340.2030649076108 89.32836546314391 L 340.31739384894195 89.65522818980244 L 340.38571016786767 90.00946155744377 L 340.40424302177075 90.38539072224145 L 340.3698724504359 90.7769037220796 L 340.2801757921648 91.17752273369504 L 340.13346655040084 91.58047999603193 L 339.92882525958953 91.97879761936792 L 339.66612197814334 92.36537045741787 L 339.34603011939697 92.73305118516981 L 338.9700314175564 93.07473669900556 L 338.5404119140486 93.3834549379733 L 338.06024893953986 93.65245121610918 L 337.53338915736316 93.87527315555609 L 336.964417824316 94.04585331893512 L 336.35861951391286 94.15858865693546 L 335.7219306343485 94.20841591326823 L 335.06088415781625 94.19088216376534 L 334.38254705862295 94.10220970920398 L 333.694451033971 93.93935459202818 L 333.00451715259146 93.70005806508186 L 332.3209751419218 93.38289040524674 L 331.6522780835767 92.9872865359185 L 331.00701333887287 92.5135729989152 L 330.39381057061604 91.96298589800313 L 329.82124776377844 91.33767952200404 L 329.29775617570374 90.64072544463313 L 328.8315251657653 89.87610198998995 L 328.4304078647351 89.04867404614085 L 328.1018286453515 88.16416330362473 L 327.85269334763154 87.2291090901077 L 327.689303195379 86.25082006592243 L 327.6172733141865 85.23731713697845 L 327.6414567262109 84.1972680306506 L 327.76587465337974 83.13991406589847 L 327.9936539088025 82.07498973021808 L 328.3269720964523 81.0126357522926 L 328.76701127213505 79.96330642964729 L 329.3139206449534 78.93767203452951 L 329.9667888185267 77.94651717798786 L 330.72362598584834 77.00063606113575 L 331.58135640158383 76.11072558334352 L 332.535821361644 75.28727730916685 L 333.58179282283095 74.5404693188276 L 334.71299769612654 73.8800589807281 L 335.9221527466665 73.3152776886032 L 337.2010099325242 72.85472860037864 L 338.5404119140486 72.50628840057905 L 339.9303573665739 72.277014083275 L 341.3600756327678 72.17305571821693 L 342.81811015760854 72.19957611921085 L 344.2924100598611 72.36067828126006 L 345.77042910980106 72.65934139193055 L 347.2392313046295 73.09736615327321 L 348.6856021612872 73.67533007401137 L 350.0961647819259 74.3925533082011 L 351.4574996907819 75.24707552689142 L 352.75626739319557 76.23564421420299 L 353.97933256855464 77.353714679518 L 355.1138887794353 78.59546197398569 L 356.1475825595318 79.953804793194 L 357.06863573337273 81.42044133956871 L 357.865964821497 82.985897008789 L 358.52929639580833 84.63958365522572 L 359.04927727122737 86.36987008309204 L 359.41757845144286 88.16416330362473 L 359.626991788331 90.00899999515835 L 359.6715183661946 91.8901475033608 L 359.54644768301426 93.79271362409834 L 359.2484267709402 95.70126432227559 L 358.7755184767681 97.59994845740331 L 358.1272482095056 99.47262851137994 L 357.30463855567905 101.30301624676981 L 356.3102312629823 103.0748121654019 L 355.14809619842003 104.77184758799609 L 353.8238269973702 106.37822813628178 L 352.3445232340618 107.87847737014782 L 350.7187590608619 109.25767931411687 L 348.9565383825055 110.5016186001333 L 347.069236750943 111.59691695747578 L 345.069530285798 112.53116479562489 L 342.9713120434645 113.29304665212271 L 340.78959637358963 113.8724593147361 L 338.5404119140486 114.26062147536754 L 336.2406839835067 114.45017383183973 L 333.90810723329565 114.43526862250897 L 331.56100951666133 114.21164765714214 L 329.2182080225594 113.77670799504335 L 326.89885880224386 113.12955451736961 L 324.6223008891191 112.27103874418718 L 322.4078962749971 111.20378335727221 L 320.27486705837157 109.93219200606855 L 318.2421311220391 108.4624440956342 L 316.3281377278815 106.80247438084622 L 314.55070443550846 104.96193731954443 L 312.92685675845104 102.95215626761231 L 311.47267196651467 100.78605773010777 L 310.20312842567057 98.47809101335747 L 309.1319618374967 96.0441337522878 L 308.2715296988124 93.50138391405748 L 307.63268524900457 90.86823900217401 L 307.2246621079572 88.16416330362475 L 307.05497073190094 85.40954413407457 L 307.1293077284261 82.62553814185492 L 307.45147897597946 79.83390882932373 L 308.023337388103 77.05685653929719 L 308.84473604927837 74.31684223379385 L 309.91349732838074 71.63640646152093 L 311.22539844838406 69.03798496866673 L 312.7741738580947 66.54372245404787 L 314.5515346144011 64.17528600397716 L 316.5472048429273 61.953679763947505 L 318.7489752022224 59.899062413067554 L 321.14277313288676 58.030569002921695 L 323.7127495295394 56.36613870506547 L 326.4413813314775 54.92234998071973 L 329.30958938847186 53.71426464252107 L 332.296870822599 52.75528222165032 L 335.381444976491 52.05700598464807 L 338.5404119140486 51.62912186318481 L 341.74992232260706 51.47929146754445 L 344.9853575568353 51.61306025126404 L 348.2215184652632 52.03378178100381 L 351.4328215512145 52.74255894315218 L 354.59350094190563 53.73820278782915 L 357.6778145733266 55.01720957285137 L 360.6602529449131 56.57375642594316 L 363.51574875752533 58.39971589416074 L 366.21988572133426 60.4846894963391 L 368.74910480723594 62.816060238603555 L 371.08090621662285 65.37906389589207 L 373.1940453598571 68.15687870528859 L 375.0687211636332 71.13073296108936 L 376.68675507148055 74.28002984821521 L 378.031759159704 77.58248870113431 L 379.08929186276123 81.0143017311582 L 379.8469998869579 84.55030512705895 L 380.2947449888371 88.16416330362472 L 380.42471440406155 91.82856495119147 L 380.2315138331475 95.51542942742837 L 379.7122420212213 99.196121931753 L 378.8665461090481 102.84167581362898 L 377.6966570808695 106.423020289508 L 376.2074047899274 109.91121178007702 L 374.40621220374726 113.27766703039568" fill="none" stroke="#e0aaff" stroke-width="1" opacity="0.3" class="drift" />
<path d="M 164.52740480123308 119.7890440157734 L 164.52740480123308 119.7890440157734 L 164.83168292506096 119.81566490216727 L 165.12900498238582 119.89512235930972 L 165.41250316225566 120.02620540683151 L 165.6754852243686 120.20691111633847 L 165.9115199424718 120.43446750590131 L 166.11451976313106 120.70536526626007 L 166.27881979421016 121.01539799638947 L 166.39925227335883 121.35971053925424 L 166.4712157111265 121.7328549256668 L 166.4907379555841 122.12885335593057 L 166.4545324850583 122.54126757616596 L 166.36004730220643 122.96327393956935 L 166.20550587556562 123.3877433829941 L 165.98993965321085 123.80732549674775 L 165.71321175652363 124.21453582088628 L 165.3760315495237 124.60184546499539 L 164.97995986992896 124.96177212084729 L 164.52740480123308 125.28697151869348 L 164.02160795974942 125.57032836850304 L 163.46662136586977 125.80504582730089 L 162.8672750638263 125.98473254293144 L 162.22913574812515 126.10348634301882 L 161.5584567466447 126.15597366547156 L 160.86211979928635 126.13750386336531 L 160.1475691561757 126.04409756212014 L 159.42273859992036 125.87254830018206 L 158.69597207155286 125.62047674545362 L 157.97593864879298 125.28637684795632 L 157.27154268747086 124.86965336403995 L 156.5918299917432 124.37065026820679 L 155.94589092555296 123.79066965456643 L 155.34276141614882 123.13198082029405 L 154.79132282998472 122.39781931741261 L 154.30020172163634 121.592375855891 L 153.87767046725742 120.72077503955909 L 153.53154979539292 119.7890440157734 L 153.26911421960165 118.80407121919997 L 153.09700135933085 117.77355548858313 L 153.02112610793955 116.70594593201797 L 153.04660056987777 115.6103730101226 L 153.17766064307548 114.49657139672456 L 153.41760006794723 113.37479526236665 L 153.76871270151668 112.25572670627474 L 154.23224370454147 111.1503781366288 L 154.80835025176606 110.06998946630638 L 155.49607229121827 109.02592105105037 L 156.29331378852524 108.02954334864154 L 157.19683479733965 107.09212432058959 L 158.2022545979796 106.22471563163384 L 159.30406604416956 105.43803872657926 L 160.4956611532452 104.74237187838958 L 161.7693678692885 104.14743930580192 L 163.11649782235762 103.66230345289597 L 164.52740480123308 103.29526150701318 L 165.99155355289628 103.05374720524021 L 167.4975984202503 102.94423894349643 L 169.03347123133716 102.97217515634442 L 170.5864777594267 103.14187788030819 L 172.14340198474238 103.4564853491564 L 173.69061730609988 103.91789439679364 L 175.21420377517305 104.52671336268736 L 176.70007035820956 105.28222610679889 L 178.1340811704869 106.18236764651957 L 179.50218457823902 107.2237118279267 L 180.7905440217346 108.40147133862425 L 181.9856693821108 109.70951026041992 L 183.07454769383205 111.14036924805943 L 184.04477199453711 112.68530330616704 L 184.88466710475237 114.33433202143686 L 185.5834111415793 116.07630199200183 L 186.13115159301228 117.89896108180817 L 186.5191148129134 119.7890440157734 L 186.73970784066802 121.73236872252639 L 186.78661150388479 123.71394272661759 L 186.65486382679754 125.71807879222614 L 186.34093284080816 127.72851892650992 L 185.84277797630952 129.72856576374318 L 185.15989930590678 131.70122027210022 L 184.29337400768878 133.62932465415466 L 183.2458795224905 135.49570925058174 L 182.02170299027372 137.283342204814 L 180.62673666691165 138.97548060506227 L 179.06845914282354 140.55582178964457 L 177.35590230804658 142.00865348234507 L 175.4996041334075 143.3190014168318 L 173.51154746338233 144.47277311318732 L 171.40508514191828 145.45689648542816 L 169.1948519168316 146.25945198649435 L 166.8966636902881 146.86979703645437 L 164.52740480123308 147.27868153037377 L 162.10490413939033 147.4783532841101 L 159.64780099856193 147.46265234879985 L 157.17540167843168 147.22709320747333 L 154.70752793795373 146.7689339594584 L 152.26435848880286 146.08723169930929 L 149.86626479344622 145.18288340614103 L 147.53364249841053 144.05865177559875 L 145.28673988859288 142.71917554931377 L 143.14548479240563 141.17096402460083 L 141.1293113996613 139.42237555928386 L 139.25698847399227 137.48358002180518 L 137.54645044896748 135.36650527404694 L 136.01463289171522 133.0847679124083 L 134.67731379970925 130.6535886304655 L 133.54896216544284 128.08969270280724 L 132.64259520013738 125.41119622319889 L 131.96964555165033 122.63747885991819 L 131.53983978371264 119.78904401577341 L 131.3610893039946 116.88736739884088 L 131.43939483783188 113.95473512127528 L 131.7787654433977 111.0140725466233 L 132.3811529534382 108.08876519995118 L 133.24640260923775 105.20247313888272 L 134.37222052517154 102.37894025652648 L 135.75415848803806 99.64180004850955 L 137.38561645540977 97.01437942530131 L 139.25786297261885 94.51950218715913 L 141.36007357989078 92.17929380191867 L 143.67938713075998 90.01498913516296 L 146.2009797914995 88.04674477781387 L 148.9081563401377 86.29345759779613 L 151.78245823399814 84.7725911101397 L 154.80378776785057 83.5000112138477 L 157.95054750198062 82.48983278430298 L 161.1997940019985 81.7542785372889 L 164.52740480123305 81.30355149533287 L 167.90825737325537 81.14572228963314 L 171.31641878755815 81.28663242199747 L 174.72534461673177 81.72981449180254 L 178.10808556959813 82.47643026386862 L 181.4375002425842 83.52522731531866 L 184.68647231193998 84.87251485401791 L 187.82813043293828 86.51215914920877 L 190.83606906953702 88.43559885766717 L 193.68456844963413 90.63188036737236 L 196.34881182737072 93.08771311659922 L 198.80509823521317 95.78754468085899 L 201.03104892488653 98.71365525457978 L 203.00580572766978 101.84627099021758 L 204.71021961097665 105.16369549599553 L 206.12702776929422 108.64245863604222 L 207.24101766307825 112.25748162469398 L 208.03917650861936 115.98225726144912 L 208.51082482459367 119.78904401577337 L 208.6477327562751 123.64907254288546 L 208.44421802538375 127.53276309392552 L 207.89722449133941 131.40995217762077 L 207.00638045724776 135.25012673668132 L 205.7740360101472 139.02266402158506 L 204.2052788486825 142.69707527794034 L 202.3079282211674 146.24325131191983 L 200.0925067716222 149.63170796190929 L 197.572190269421 152.8338294839612 L 194.76273537823914 155.82210785419397 L 191.68238580058872 158.5703760031232 L 188.3517573138868 161.05403302512076 L 184.79370239124938 163.25025945066952 L 181.03315527355375 165.13822072962688 L 177.096958527313 166.69925714997 L 173.0136722841395 167.91705850799332 L 168.81336751064723 168.77782195206146 L 164.5274048012332 169.27039154205409 L 160.18820031903124 169.3863781997172 L 155.82898063125407 169.1202588702988 L 151.48352829303698 168.46945387201518 L 147.1859201277823 167.43438157589796 L 142.970260230961 166.01848973314702 L 138.87040978760604 164.22826294891672 L 134.91971584064535 162.0732059890774 L 131.1507411772654 159.56580279844547 L 127.59499751325839 156.72145130374804 L 124.28268415052965 153.5583742706114 L 121.24243426051365 150.09750667957036 L 118.50107090619179 146.3623602798871 L 116.08337485787757 142.37886617025023 L 114.01186618326972 138.17519644063694 L 112.306601500901 133.7815660882019 L 110.98498867863846 129.23001659050686 L 110.06162063604327 124.55418268027732 L 109.54812977203233 119.78904401577343 L 109.4530643883875 114.97066357848189 L 109.78178831633292 110.13591475396744 L 110.53640477885581 105.32219916122874 L 111.71570533699862 100.56715738977977 L 113.31514457540008 95.9083748810408 L 115.32684098239578 91.3830852506864 L 117.7396042745595 87.02787339074429 L 120.53898920627806 82.87838071397383 L 123.70737569347148 78.96901490801207 L 127.22407486856318 75.33266655278706 L 131.0654604729948 72.00043492168433 L 135.20512478565925 69.00136523503822 L 139.61405808229586 66.36219956395843 L 144.26085042382658 64.10714349370019 L 149.1119143824559 62.25765054930584 L 154.13172713467262 60.83222626280404 L 159.28309018163938 59.84625362168183 L 164.52740480123313 59.31184148365258 L 169.82496119361446 59.23769737402607 L 175.1352391548659 59.62902590049849 L 180.4172180021264 60.487453827260666" fill="none" stroke="#9d4edd" stroke-width="1" opacity="0.3" class="drift" />
<circle cx="425.0559944328735" cy="89.02922949048317" r="0.7545843402704772" fill="white" opacity="0.7227783316158849"  style="animation-delay: 2.3318792871715557s" />
<circle cx="1.6904531397951672" cy="153.64898920728888" r="0.6399472642909713" fill="white" opacity="0.5557514193844217"  style="animation-delay: 3.7851542793900874s" />
<circle cx="710.4710222759834" cy="95.15338794981672" r="1.8072012552569934" fill="white" opacity="0.7800959175016253" class="shimmer" style="animation-delay: 4.642602713349692s" />
<circle cx="257.65908139259716" cy="95.06253660024888" r="1.9235807981977757" fill="white" opacity="0.4237907696233945" class="shimmer" style="animation-delay: 2.9698205411760736s" />
<circle cx="576.6000866610708" cy="69.05022793777746" r="1.0118714662303931" fill="white" opacity="0.6038729407048993"  style="animation-delay: 0.9163573751084242s" />
<circle cx="387.31439656009934" cy="38.15334791291725" r="1.970230107524035" fill="white" opacity="0.5744602010264002"  style="animation-delay: 1.6701869576202777s" />
<circle cx="19.172084016522817" cy="60.71255487314766" r="0.5335913250583753" fill="white" opacity="0.37970554900999737"  style="animation-delay: 4.062029710154347s" />
<circle cx="625.8618531517094" cy="148.79450144206774" r="0.646579045252488" fill="white" opacity="0.5438370231533283"  style="animation-delay: 2.1926212653528045s" />
<circle cx="173.07922690191015" cy="35.57308713541705" r="1.8679551991723664" fill="white" opacity="0.47269951013328965" class="shimmer" style="animation-delay: 4.7121073407484815s" />
<circle cx="415.8175632838464" cy="166.2791640130984" r="0.6644897408272002" fill="white" opacity="0.42069755890728017"  style="animation-delay: 4.29540679739831s" />
<circle cx="383.3668338335517" cy="154.18354013059567" r="1.5498825997473502" fill="white" opacity="0.38773277519508426"  style="animation-delay: 1.813450063846771s" />
<circle cx="3.356498900036442" cy="108.2885465877169" r="0.8914279555454657" fill="white" opacity="0.3009341607967794" class="shimmer" style="animation-delay: 4.394830609346307s" />
<circle cx="702.9305463802289" cy="38.05878621238441" r="0.6668730612664271" fill="white" opacity="0.6418830662400341" class="shimmer" style="animation-delay: 1.4438488173699626s" />
<circle cx="74.43875715531564" cy="104.04016627766732" r="1.794169659365873" fill="white" opacity="0.5181638406119957"  style="animation-delay: 1.6786899643625197s" />
<circle cx="721.2414609468601" cy="109.52721229379661" r="1.8806804130119898" fill="white" opacity="0.6137240166766125" class="shimmer" style="animation-delay: 3.6442600346021647s" />
<circle cx="96.43221085109187" cy="63.36555381657871" r="1.556177732188465" fill="white" opacity="0.449797410513273"  style="animation-delay: 0.899688660857324s" />
<circle cx="137.56096908850247" cy="59.62351097476697" r="1.187604144016199" fill="white" opacity="0.35273902500801163"  style="animation-delay: 4.826255147077234s" />
<circle cx="724.373058915075" cy="170.67837218128093" r="1.1790121744956814" fill="white" opacity="0.5610623368586618" class="shimmer" style="animation-delay: 4.6109108089910125s" />
<circle cx="545.1563625812373" cy="151.9612432361509" r="0.6087078739551922" fill="white" opacity="0.727906159697264" class="shimmer" style="animation-delay: 1.4954688020641893s" />
<circle cx="321.0553114236889" cy="160.31878062478947" r="0.9943157867228718" fill="white" opacity="0.6904276273273302"  style="animation-delay: 3.0467083618169157s" />
<circle cx="503.5635937823047" cy="166.16887882558973" r="1.9174241752894028" fill="white" opacity="0.5934627941992192" class="shimmer" style="animation-delay: 3.5500466346866344s" />
<circle cx="181.21233973516445" cy="22.997178259607853" r="0.7742303086215679" fill="white" opacity="0.7325046545517433" class="shimmer" style="animation-delay: 4.5572178186878896s" />
<circle cx="718.9430066075602" cy="76.53888302296448" r="0.5251940812907662" fill="white" opacity="0.7506060262835603"  style="animation-delay: 0.617354348248158s" />
<circle cx="206.57613098860458" cy="128.73713907675483" r="1.6068297062568757" fill="white" opacity="0.6730804528342047"  style="animation-delay: 2.930159264534896s" />
<circle cx="254.66818529561124" cy="74.82031814187246" r="1.2995755421977098" fill="white" opacity="0.37298857447753203" class="shimmer" style="animation-delay: 4.833388578420434s" />
<circle cx="458.8158849461781" cy="91.92955642985581" r="0.7645523173540798" fill="white" opacity="0.4096016126118465" class="shimmer" style="animation-delay: 4.612599715596869s" />
<circle cx="535.1046081812077" cy="156.4865484237545" r="1.934022413422304" fill="white" opacity="0.34835913177984806"  style="animation-delay: 2.768846079814953s" />
<circle cx="713.9427607750615" cy="148.94053554780896" r="0.7548310358673643" fill="white" opacity="0.6904669451446737"  style="animation-delay: 4.633781616162896s" />
<circle cx="296.05545565776873" cy="12.004130787274292" r="0.7785399843076518" fill="white" opacity="0.35621537995405256"  style="animation-delay: 0.8540705367038004s" />
<circle cx="114.78539250252649" cy="132.10205194426092" r="1.4403240404840836" fill="white" opacity="0.44291704980422625" class="shimmer" style="animation-delay: 4.185492606947409s" />
<circle cx="717.6693726503544" cy="76.16368109234806" r="1.2575400510623345" fill="white" opacity="0.31244269345742753"  style="animation-delay: 3.133463785912094s" />
<circle cx="413.45959994761864" cy="104.92884241374006" r="1.3202399979273578" fill="white" opacity="0.7913466638851745"  style="animation-delay: 4.006428333808064s" />
<circle cx="124.60804635081644" cy="55.376259621401005" r="1.6099220265115082" fill="white" opacity="0.7533504164665235"  style="animation-delay: 0.9168847272560532s" />
<circle cx="660.4289135814977" cy="53.367179064925274" r="0.9276730193926369" fill="white" opacity="0.4638031915318303"  style="animation-delay: 1.4988502926731695s" />
<circle cx="576.7462402301753" cy="161.92091064911273" r="0.6650807418958374" fill="white" opacity="0.41207041430297514"  style="animation-delay: 0.004501082743038065s" />
<circle cx="417.6332224148377" cy="101.13585041037356" r="0.6229292267228647" fill="white" opacity="0.5072447506637259"  style="animation-delay: 1.2760905361332608s" />
<circle cx="509.002164633978" cy="54.470983711486376" r="1.9165840306838056" fill="white" opacity="0.5981740235292852"  style="animation-delay: 2.0219239076437523s" />
<circle cx="768.7084238327241" cy="81.17244146979795" r="1.6027137363490527" fill="white" opacity="0.3502392968288493"  style="animation-delay: 0.35356292256191857s" />
<circle cx="453.61677204857483" cy="94.61119120533282" r="0.6077341397639187" fill="white" opacity="0.6029250283956369"  style="animation-delay: 3.4231806528946818s" />
<circle cx="691.4894018707438" cy="10.507929273299688" r="1.1153734427885835" fill="white" opacity="0.40923554823093927"  style="animation-delay: 0.4336286243410592s" />
<circle cx="132.07874730853746" cy="86.62794405333432" r="2.2860271634906613" fill="#9d4edd" opacity="0.8" filter="url(#glow)" class="shimmer" style="animation-delay: 0.3144243756134124s" />
<circle cx="342.0726876671109" cy="121.00333992867812" r="1.3968319346890827" fill="#4a0080" opacity="0.8" filter="url(#glow)" class="shimmer" style="animation-delay: 1.5950884564813825s" />
<circle cx="397.2308954894228" cy="41.211289516827065" r="2.2734792017008956" fill="#4a0080" opacity="0.8" filter="url(#glow)" class="shimmer" style="animation-delay: 1.957550169188176s" />
<circle cx="452.0873261517437" cy="126.38904064901158" r="2.529755341481322" fill="#4a0080" opacity="0.8" filter="url(#glow)" class="shimmer" style="animation-delay: 2.5730710746060077s" />
<circle cx="50.849426077407145" cy="111.37338330544928" r="2.4029174273373757" fill="#e0aaff" opacity="0.8" filter="url(#glow)" class="shimmer" style="animation-delay: 1.289724483711103s" />
<circle cx="360.5239669461792" cy="55.40872474528484" r="1.5587419143068222" fill="#7b2cbf" opacity="0.8" filter="url(#glow)" class="shimmer" style="animation-delay: 1.0325840803044284s" />
<circle cx="692.219997161485" cy="47.41617973726693" r="2.942030692152831" fill="#e0aaff" opacity="0.8" filter="url(#glow)" class="shimmer" style="animation-delay: 0.5857168871324512s" />
<circle cx="717.6963813920894" cy="163.1131414884722" r="1.18260863632521" fill="#9d4edd" opacity="0.8" filter="url(#glow)" class="shimmer" style="animation-delay: 1.4050873369622054s" />
<line x1="316.0004567499477" y1="78.9357380473954" x2="489.6393678469241" y2="151.6127326225156" stroke="#e0aaff" stroke-width="0.5" opacity="0.3" />
<line x1="489.6393678469241" y1="151.6127326225156" x2="476.38091169846655" y2="164.35777620314894" stroke="#e0aaff" stroke-width="0.5" opacity="0.3" />
<line x1="476.38091169846655" y1="164.35777620314894" x2="133.93962488673964" y2="156.95848009188924" stroke="#e0aaff" stroke-width="0.5" opacity="0.3" />
<line x1="133.93962488673964" y1="156.95848009188924" x2="220.5397664368789" y2="121.19433422609401" stroke="#e0aaff" stroke-width="0.5" opacity="0.3" />

  
    <text x="400" y="120" text-anchor="middle" class="name-text" fill="url(#textGrad)" filter="url(#textGlow)">
      JOEL HOOKS
    </text>
  
</svg>
