<svg xmlns="http://www.w3.org/2000/svg" viewBox="0 0 800 200" width="800" height="200">
  <rect width="800" height="200" fill="#05010d"/>
  
    <defs>
      <linearGradient id="grad1" x1="0%" y1="0%" x2="100%" y2="100%">
        <stop offset="0%" style="stop-color:#4a0080;stop-opacity:0.8" />
        <stop offset="100%" style="stop-color:#7b2cbf;stop-opacity:0.8" />
      </linearGradient>
      <linearGradient id="grad2" x1="100%" y1="0%" x2="0%" y2="100%">
        <stop offset="0%" style="stop-color:#9d4edd;stop-opacity:0.7" />
        <stop offset="100%" style="stop-color:#c77dff;stop-opacity:0.7" />
      </linearGradient>
      <linearGradient id="textGrad" x1="0%" y1="0%" x2="100%" y2="0%">
        <stop offset="0%" style="stop-color:#4a0080" />
        <stop offset="25%" style="stop-color:#7b2cbf" />
        <stop offset="50%" style="stop-color:#9d4edd" />
        <stop offset="75%" style="stop-color:#c77dff" />
        <stop offset="100%" style="stop-color:#e0aaff" />
      </linearGradient>
      <filter id="glow">
        <feGaussianBlur stdDeviation="5" result="coloredBlur"/>
        <feMerge>
          <feMergeNode in="coloredBlur"/>
          <feMergeNode in="SourceGraphic"/>
        </feMerge>
      </filter>
      <filter id="textGlow">
        <feGaussianBlur stdDeviation="2" result="coloredBlur"/>
        <feMerge>
          <feMergeNode in="coloredBlur"/>
          <feMergeNode in="SourceGraphic"/>
        </feMerge>
      </filter>
    </defs>
  
  
    <style>
      @keyframes float {
        0%, 100% { transform: translateY(0px); }
        50% { transform: translateY(-8px); }
      }
      @keyframes pulse {
        0%, 100% { opacity: 0.4; }
        50% { opacity: 0.9; }
      }
      @keyframes drift {
        0% { transform: translateX(0px); }
        50% { transform: translateX(10px); }
        100% { transform: translateX(0px); }
      }
      @keyframes shimmer {
        0% { opacity: 0.3; }
        50% { opacity: 1; }
        100% { opacity: 0.3; }
      }
      @keyframes glitch {
        0%, 100% { transform: translateX(0); }
        20% { transform: translateX(-2px); }
        40% { transform: translateX(2px); }
        60% { transform: translateX(-1px); }
        80% { transform: translateX(1px); }
      }
      @keyframes dataStream {
        0% { stroke-dashoffset: 0; }
        100% { stroke-dashoffset: -20; }
      }
      .float { animation: float 8s ease-in-out infinite; }
      .pulse { animation: pulse 8s ease-in-out infinite; }
      .drift { animation: drift 8s ease-in-out infinite; }
      .shimmer { animation: shimmer 3s ease-in-out infinite; }
      .glitch { animation: glitch 0.5s ease-in-out infinite; }
      .dataStream { animation: dataStream 2s linear infinite; }
      .name-text { 
        font-family: -apple-system, BlinkMacSystemFont, 'Segoe UI', Helvetica, Arial, sans-serif;
        font-weight: 700;
        font-size: 64px;
        letter-spacing: -2px;
      }
    </style>
  
  <path d="M 433.40572451275995 117.17429720970256 C 431.99590488351976 126.00316053107306, 402.0781859730371 132.2849970013182, 392.0015958357337 140.1119497810483 C 381.92500569843037 147.93890256077842, 385.4378157762482 154.21404663705616, 372.9461836889398 164.13601388808326 C 360.4545516016314 174.05798113911035, 325.87944557154054 204.76002344035248, 317.0518033118832 199.64375328721087 C 308.22416105222584 194.52748313406926, 320.958833418827 150.4277804450435, 319.9803301309956 133.43839296923352 C 319.00182684316417 116.44900549342353, 311.49409261987375 113.86029469857323, 311.1807835848946 97.70742843235088 C 310.8674745499154 81.55456216612853, 306.64857794564773 47.669112361905974, 318.10047592112056 36.521195371899424 C 329.5523738965934 25.373278381892874, 366.1654984893892 22.383664078823927, 379.8921714377316 30.819926492311566 C 393.61884438607393 39.256188905799206, 391.54158809867 72.74637473326011, 400.46051361117475 87.13876985282528 C 409.3794391236795 101.53116497239044, 434.81554414200014 108.34543388833205, 433.40572451275995 117.17429720970256 Z" fill="#e0aaff" opacity="0.12694662568635984" filter="url(#glow)" class="float" />
<path d="M 507.8129341745062 98.94435075602965 C 503.02123184582877 120.82091283296381, 510.4722217635079 137.664619070257, 500.7531634323542 150.1989300007998 C 491.0341051012005 162.7332409313426, 467.4117586944227 173.32190158070438, 449.498584187584 174.15021633928637 C 431.58540968074533 174.97853109786837, 403.55260467049686 167.7031294828345, 393.27411639132197 155.16881855229173 C 382.9956281121471 142.63450762174895, 390.36972939264535 120.2279149015611, 387.8276545125346 98.94435075602966 C 385.28557963242383 77.66078661049822, 367.7431788314825 46.737603977689474, 378.0216671106574 27.467433679103067 C 388.3001553898323 8.197263380516656, 424.2516324719571 -15.2553583455041, 449.498584187584 -16.67667103548881 C 474.7455359032109 -18.09798372547352, 519.7843190732651 -0.3306127593916024, 529.5033774044189 18.93955753919481 C 539.2224357355726 38.209727837781216, 512.6046365031837 77.06778867909549, 507.8129341745062 98.94435075602965 Z" fill="#c77dff" opacity="0.17554924335014005" filter="url(#glow)" class="float" />
<path d="M 769.9105440425126 18.748480163948678 C 767.3894360370687 35.15584636027715, 749.820889819835 41.46615962080638, 743.8586597391749 63.10992554995756 C 737.8964296585148 84.75369147910874, 747.9644677604501 139.85006871093188, 734.1371635585518 148.61107573885573 C 720.3098593566535 157.37208276677958, 685.8405335292337 119.9380411358011, 660.8948345277851 115.67596771750064 C 635.9491355263365 111.41389429920018, 599.164648334459 134.19441427155317, 584.4629695498601 123.03863522905297 C 569.7612907652612 111.88285618655277, 580.2921323668404 72.77911475240998, 572.6847618201917 48.74129346249943 C 565.0773912735431 24.703472172588878, 534.3553769578743 -1.6933378378742248, 538.8187462699683 -21.188292510410328 C 543.2821155820623 -40.68324718294643, 578.7421898105929 -61.35049706807826, 599.4649776927554 -68.22843457271719 C 620.1877655749179 -75.10637207735613, 641.472240591591 -56.977138915840186, 663.1554735629433 -62.45591753824392 C 684.8387065342955 -67.93469616064765, 713.5927364860528 -105.62138062551134, 729.5643755208687 -101.10110630713956 C 745.5360145556846 -96.58083198876778, 752.2609463515646 -55.30920270652797, 758.9853077718386 -35.33427162801327 C 765.7096691921126 -15.359340549498565, 772.4316520479565 2.341113967620206, 769.9105440425126 18.748480163948678 Z" fill="#9d4edd" opacity="0.2116359595718868" filter="url(#glow)" class="float" />
<path d="M 115.1324000457711 33.67852196034784 C 123.73997736796913 49.015633044926226, 117.69600423969848 85.04698271938098, 104.8839132314686 96.28511737289026 C 92.07182222323871 107.52325202639953, 56.497509832183304 97.62198514280638, 38.25985399639182 101.10732988140352 C 20.022198160600333 104.59267462000065, 13.372205629906516 113.68417155634087, -4.542021783280324 117.19718580447302 C -22.456249196467162 120.71020005260517, -55.252823131389874 131.4147886372223, -69.22551048272922 122.1854153701964 C -83.19819783406857 112.9560421031705, -82.33466973848269 82.09973699127546, -88.3781458913164 61.82094620231764 C -94.4216220441501 41.54215541335982, -109.50324554612405 19.002385667305546, -105.48636739973142 0.5126706364494353 C -101.46948925333879 -17.977044394406676, -81.10407927508948 -40.74708014923287, -64.27687701296065 -49.11734398281902 C -47.44967475083183 -57.48760781640517, -20.944798574700922 -53.73238954892534, -4.523153826958456 -49.70891236506746 C 11.89849092078401 -45.685435181209584, 24.62605761928765 -33.97170808475297, 34.252991473494134 -24.97648087967174 C 43.87992532770062 -15.98125367459051, 39.75854786956762 -5.513382941250011, 53.23844929828045 4.262450865419918 C 66.71835072699328 14.038284672089848, 106.52482272357308 18.341410875769448, 115.1324000457711 33.67852196034784 Z" fill="#7b2cbf" opacity="0.1782418386344209" filter="url(#glow)" class="float" />
<path d="M 579.097615439497 149.3982872417968 L 579.097615439497 149.3982872417968 L 579.4641392828973 149.43035392300627 L 579.8222840676998 149.52606587302193 L 580.163777045163 149.68396438303606 L 580.4805569534205 149.90163678859602 L 580.7648769399078 150.17574404758537 L 581.0094041295118 150.50205895661057 L 581.2073147716058 150.87551461749538 L 581.3523839424436 151.29026266100948 L 581.4390688327771 151.73974063507694 L 581.4625847135128 152.2167478704801 L 581.4189727441661 152.71352904939636 L 581.3051588691245 153.2218646218265 L 581.1190031345473 153.733167142865 L 580.8593388532943 154.2385825405294 L 580.5260011456933 154.72909527012672 L 580.1198444892981 155.19563626741905 L 579.6427490200582 155.62919257960306 L 579.097615439497 156.02091753067938 L 578.4883484965168 156.3622402664038 L 577.8198291272455 156.64497352382463 L 577.097875450822 156.8614184814587 L 576.3291929321013 157.00446556837662 L 575.5213141328695 157.06769014368672 L 574.6825285802419 157.04544200185626 L 573.8218033834306 156.93292771361396 L 572.9486953270558 156.72628487637337 L 572.0732552596565 156.42264742163724 L 571.2059256791837 156.02020120904115 L 570.357432492189 155.51822922683377 L 569.5386719894226 154.9171458158656 L 568.7605941369496 154.21851943768596 L 568.0340833281082 153.42508361619065 L 567.3698377771711 152.54073579542876 L 566.7782487600497 151.57052397262422 L 566.2692809204841 150.52062108412872 L 565.8523548617318 149.3982872417968 L 565.5362332336833 148.21182003704592 L 565.3289115036441 146.9704932485191 L 565.2375145658391 145.68448440568628 L 565.2682003002609 144.36479177380448 L 565.4260711361279 143.02314143433048 L 565.7150946093928 141.67188523810043 L 566.1380338279714 140.32389050536267 L 566.6963886732905 138.9924224361271 L 567.3903484730962 137.69102027539606 L 568.218756779024 136.43336834985362 L 569.1790887740922 135.2331631547805 L 570.2674417209869 134.10397772167786 L 571.4785387427689 133.05912453777046 L 572.8057461045066 132.11151831775175 L 574.2411040384294 131.27353994547502 L 575.7753710276432 130.55690290852442 L 577.3980813353943 129.97252354157723 L 579.097615439497 129.53039637514902 L 580.8612829060186 129.23947585477652 L 582.6754171138009 129.10756565211886 L 584.5254811230432 129.14121673414303 L 586.3961838680858 129.34563528990455 L 588.2716057478021 129.72460153694874 L 590.1353325876346 130.28040034164815 L 591.9705968562988 131.0137644905629 L 593.7604249383952 131.92383134396033 L 595.487789192458 133.00811348883573 L 597.13576346307 134.2624838880954 L 598.6876806662216 135.68117589602426 L 600.1272910296605 137.25679837884536 L 601.4389195450024 138.9803660442299 L 602.6076211761982 140.8413449462099 L 603.6193323698146 142.82771299329357 L 604.4610174265944 144.9260351489168 L 605.1208083209232 147.12155287592347 L 605.5881365950273 149.3982872417968 L 605.8538560077238 151.7391549700891 L 605.9103546829999 154.12609659712703 L 605.7516555811467 156.54021577277854 L 605.3735042040454 158.9619286309822 L 604.7734425458241 161.37112205094084 L 603.9508684096902 163.74731953437572 L 602.9070793304393 166.06985333896648 L 601.6453004689633 168.31804143392353 L 600.1706959790183 170.47136778131812 L 598.4903634864269 172.50966439699985 L 596.6133114656373 174.41329360822982 L 594.5504194468897 176.1633289020049 L 592.3143811379027 177.7417327487813 L 589.9196306956804 179.13152979115426 L 587.3822525354358 180.31697380611044 L 584.7198752134032 181.2837068827193 L 581.951550067141 182.01890930442963 L 579.097615439497 182.51143868620971 L 576.179547449434 182.75195699123037 L 573.2197984031404 182.73304413912484 L 570.2416240610796 182.4492970174424 L 567.2689010897151 181.8974128190015 L 564.325936129514 181.076255749603 L 561.4372680024768 179.98690628203465 L 558.6274646619595 178.63269227244746 L 555.9209165541417 177.01920140289315 L 553.3416281134153 175.15427456787845 L 550.913009152664 173.04797998195525 L 548.6576679333556 170.7125679483049 L 546.5972077092442 168.1624063936308 L 544.7520285310334 165.4138974410414 L 543.1411360774832 162.48537545857678 L 541.7819592411875 159.39698718517127 L 540.6901781447494 156.1705546967293 L 539.8795641956575 152.82942213121152 L 539.3618337062014 149.39828724179682 L 539.1465165088567 145.90301898996313 L 539.2408408883439 142.370462524414 L 539.6496360298554 138.82823301594374 L 540.3752530496361 135.30449993141838 L 541.4175055302117 131.82776343097507 L 542.7736303292145 128.42662466033525 L 544.4382692691379 125.12955178389161 L 546.4034721467707 121.96464366321308 L 548.658721326855 118.9593931291548 L 551.1909780061101 116.14045182333385 L 553.984750052621 113.53339859594706 L 557.0221811432217 111.16251344149947 L 560.2831607394135 109.05055893185417 L 563.7454542621205 107.21857106712687 L 567.3848526486869 105.6856614094913 L 571.1753403035382 104.46883229322421 L 575.0892802883116 103.58280681675069 L 579.097615439497 103.03987521961868 L 583.1700839531013 102.84975912994994 L 587.275447837906 103.01949503681865 L 591.3817325127856 103.55333819815932 L 595.4564757104719 104.45268803927966 L 599.4669837511576 105.71603593103245 L 603.3805931653998 107.33893606146972 L 607.1649355777699 109.31399993172943 L 610.7882037113092 111.63091481744055 L 614.2194163386993 114.27648634259454 L 617.4286799895898 117.23470511518136 L 620.3874452250551 120.48683717455312 L 623.0687553098389 124.01153780108021 L 625.4474851509186 127.78498804087444 L 627.5005684268231 131.78105310382364 L 629.2072109057983 135.97146160355106 L 630.5490880418946 140.32600442481169 L 631.5105250457497 144.81275182884076 L 632.0786577505577 149.39828724179677 L 632.2435727325504 154.04795601717186 L 631.9984252983002 158.7261273212322 L 631.3395341171304 163.396467162521 L 630.2664514546703 168.0222204733683 L 628.7820081517403 172.56650005429634 L 626.8923326898687 176.99258011214084 L 624.6068438892728 181.2641920604375 L 621.9382169954831 185.3458202068376 L 618.9023231252596 189.2029949275593 L 615.518142259341 192.80258092351963 L 611.8076501871084 196.11305816706331 L 607.795680024655 199.10479318218324 L 603.5097591412582 201.75029835469755 L 598.9799225380666 204.02447704177914 L 594.2385039251784 205.9048523420941 L 589.3199059375083 207.37177749801947 L 584.2603511142238 208.40862602925617 L 579.0976154394971 209.00195984174007 L 573.8707464023512 209.1416737160569 L 568.6197676790354 208.82111475442505 L 563.385372671337 208.0371755534261 L 558.2086092473289 206.7903600696264 L 553.1305581261587 205.0848213555193 L 548.1920074247115 202.92837056221302 L 543.4331259404885 200.33245683128095 L 538.8931377812278 197.31211792941295 L 534.6100009671741 193.88590171411965 L 530.6200926261442 190.07575875486936 L 526.9579033745221 185.90690666977594 L 523.6557434290659 181.40766697139597 L 520.7434629251172 176.60927544439699 L 518.2481888268584 171.54566730096295 L 516.1940807052038 166.25323857491378 L 514.6021075294493 160.77058542083458 L 513.4898474708309 155.13822317829434 L 512.8713125506711 149.39828724179682 L 512.7567997840301 143.59421794288048 L 513.1527702730436 137.77043180030893 L 514.0617574938717 131.97198162620137 L 515.4823057990112 126.24420808903226 L 517.4089399242954 120.63238542761952 L 519.8321660490361 115.18136408257016 L 522.7385047103045 109.93521306242044 L 526.1105556202509 104.93686489029906 L 529.9270941806136 100.22776598291378 L 534.1631992331959 95.84753529681419 L 538.79041133115 91.83363403711355 L 543.7769205654564 88.22104916132116 L 549.087782736058 85.0419933259379 L 554.6851624197342 82.32562381650207 L 560.5286012589444 80.09778287350761 L 566.5753095794329 78.38076167792403 L 572.7804792412287 77.19309009192413 L 579.0976154394971 76.54935406408833 L 585.478885000184 76.46004240512339 L 591.8754785620109 76.9314244215184 L 598.237983902528 77.96545966217562 L 604.5167675528579 79.55974078865474 L 610.662361754513 81.70747032511615 L 616.625853743165 84.39747178129139 L 622.359274299241 87.61423537289588 L 627.8159824842234 91.33799829092084 L 632.9510434849403 95.54485919635323 L 637.7215965161096 100.20692634226731 L 642.0872097838885 105.29249845308198" fill="none" stroke="#4a0080" stroke-width="1" opacity="0.3" class="drift" />
<path d="M 172.15155618069576 78.40497971907902 L 172.15155618069576 78.40497971907902 L 172.40736141339826 78.4273597770111 L 172.65731871267687 78.49415929929872 L 172.89565434114738 78.60436022026151 L 173.11674216287142 78.75627868712195 L 173.31517547523276 78.94758430729854 L 173.48583649978832 79.17532682048153 L 173.623962787523 79.43596992448923 L 173.7252098241683 79.7254319109176 L 173.7857091585031 80.03913269688636 L 173.802121420494 80.37204677341968 L 173.7716836463404 80.71876152980754 L 173.69225038350078 81.07354035726412 L 173.56232811006652 81.43038988487523 L 173.38110256884602 81.78313065669383 L 173.14845868660822 82.12547052133702 L 172.86499282245333 82.45107997492791 L 172.53201716554113 82.75366867502161 L 172.15155618069576 83.02706232749404 L 171.72633507998623 83.26527914042663 L 171.25976037849878 83.46260503889013 L 170.75589267241833 83.61366684224022 L 170.21941185645966 83.71350262104515 L 169.65557507488597 83.75762847394923 L 169.07016777508576 83.74210099544922 L 168.46944830423072 83.66357474346202 L 167.86008655722037 83.51935406036475 L 167.24909724727377 83.30743865250102 L 166.6437684285419 83.02656239051406 L 166.0515859524115 82.67622485577847 L 165.48015458523304 82.25671522609153 L 164.93711655456636 81.76912816604005 L 164.43006832329047 81.21537146342246 L 163.96647641572815 80.59816523208642 L 163.5535931370169 79.92103258281388 L 163.19837303610808 79.18828174670183 L 162.90739096386574 78.40497971907902 L 162.68676257070305 77.57691757559206 L 162.54206807305468 76.71056769490477 L 162.47828009482495 75.81303320370665 L 162.49969635893916 74.89199003864972 L 162.60987796549236 73.95562209567896 L 162.81159394704792 73.0125500092615 L 163.10677273875703 72.07175417155915 L 163.49646114159685 71.14249266396682 L 163.9807912916591 70.23421483004236 L 164.55895607762392 69.35647126911198 L 165.22919337294147 68.518821073239 L 165.98877936947574 67.73073716633864 L 166.83403121614447 67.00151063261643 L 167.76031908015912 66.34015494188327 L 168.76208766059344 65.75531099140181 L 169.83288709498362 65.25515388757015 L 170.96541311029551 64.84730238584622 L 172.15155618069576 64.53873189383398 L 173.38245936696018 64.3356919204412 L 174.6485844268473 64.24362882360793 L 175.9397857031631 64.26711467049861 L 177.24539121731823 64.40978297753195 L 178.5542903216861 64.67427204354243 L 179.85502719472078 65.06217652815354 L 181.13589939927047 65.57400785958453 L 182.38506066744478 66.20916398216691 L 183.5906270253471 66.9659088744277 L 184.740785328476 67.84136218437035 L 185.82390324409153 68.8314992402699 L 186.82863969071377 69.93116160365149 L 187.74405472749154 71.13407823693746 L 188.55971787768198 72.43289726234921 L 189.26581387108257 73.81922819188175 L 189.85324480003462 75.28369441138959 L 190.31372770257366 76.81599560590132 L 190.63988661435582 78.40497971907902 L 190.82533816797869 80.03872394812089 L 190.86476986399686 81.70462418720783 L 190.75401019198577 83.38949224864128 L 190.4900898420333 85.0796601118947 L 190.07129331656554 86.76109037765963 L 189.49720032889888 88.41949203731154 L 188.76871645774602 90.04044060870856 L 187.88809261542107 91.60950163746485 L 186.85893298096175 93.11235651934498 L 185.68619114704126 94.53492956467245 L 184.3761543305597 95.86351520003055 L 182.93641560033078 97.0849041863747 L 181.3758341804276 98.186507726208 L 179.70448399361877 99.15647833585571 L 177.933590714988 99.98382637217543 L 176.07545771036246 100.65853112624788 L 174.14338133665092 101.17164542960202 L 172.15155618069576 101.51539276115409 L 170.11497090887647 101.68325589500704 L 168.04929549058969 101.6700561902101 L 165.97076064403856 101.47202269307864 L 163.89603043168694 101.08685030020705 L 161.84206900452492 100.51374631528202 L 159.82600255825574 99.7534648245598 L 157.86497762001142 98.80832841368505 L 155.97601683067313 97.68223685161753 L 154.1758734248151 96.38066247495965 L 152.48088563728916 94.91063211706134 L 150.9068322821885 93.28069553999782 L 149.46879075612244 91.50088044292156 L 148.18099871323358 89.58263423640112 L 147.0567206441286 87.53875288819519 L 146.10812056488976 85.38329726046618 L 145.3461419856969 83.131497470723 L 144.78039628152766 80.79964591781162 L 144.41906053020568 78.40497971907904 L 144.26878581612266 75.96555340448229 L 144.3346169217347 73.50010280699567 L 144.61992424398656 71.02790117532685 L 145.12634867977727 68.56860861387702 L 145.85376012415958 66.1421160253179 L 146.80023011793736 63.76838479243146 L 147.962019068534 61.467283487339856 L 149.33357835034406 59.258422937419596 L 150.90756746920047 57.16099100758371 L 152.67488635107668 55.19358847785921 L 154.62472268872213 53.374067403016014 L 156.74461415264574 51.71937333722806 L 159.02052514578338 50.245392791283635 L 161.4369376553864 48.96680726272139 L 163.97695563221365 47.896955140563406 L 166.6224222070745 47.04770273625017 L 169.35404893918573 46.42932563126582 L 172.15155618069576 46.05040146017393 L 174.99382353806993 45.917715165860805 L 177.8590493147564 46.03617767228795 L 180.72491773154283 46.40875881966019 L 183.56877264209095 47.03643529837006 L 186.36779639204715 47.91815420220963 L 189.09919241155077 49.05081269904296 L 191.7403700834898 50.42925418936153 L 194.269130393992 52.04628119091413 L 196.66385084780575 53.89268505196907 L 198.90366811972876 55.95729245782313 L 200.96865691431452 58.22702855605054 L 202.84000351982436 60.68699638682148 L 204.50017256882433 63.320572166576376 L 205.93306555684384 66.10951583757642 L 207.124169721921 69.03409616350197 L 208.0606959513546 72.07322952348048 L 208.73170445715408 75.20463143479161 L 209.12821704801587 78.40497971907901 L 209.24331492255908 81.65008811923063 L 209.0722210153168 84.915089075117 L 208.6123660428242 88.17462427702102 L 207.8634375211952 91.40304153666739 L 206.82741115789833 94.57459644802074 L 205.50856415800948 97.66365725414154 L 203.91347012796905 100.64491129292784 L 202.0509754066738 103.4935713640121 L 199.9321568034204 106.1855803418036 L 197.57026087358847 108.69781235592524 L 194.98062501477904 111.00826887025357 L 192.1805808171609 113.09626801548524 L 189.1893402507887 114.9426255675408 L 186.02786541839149 116.52982601501759 L 182.71872274336783 117.84218222301382 L 179.28592259827158 118.86598227756787 L 175.7547455077607 119.58962218418243 L 172.15155618069585 120.00372319481414 L 168.50360673776672 120.10123264958744 L 164.8388306026806 119.8775073415301 L 161.18562861565874 119.33037854391705 L 157.57264900691422 118.46019797936893 L 154.02856293416386 117.26986415661482 L 150.58183734142568 115.76482865367035 L 147.26050693579214 113.95308208390807" fill="none" stroke="#9d4edd" stroke-width="1" opacity="0.3" class="drift" />
<circle cx="123.7909169058982" cy="183.47143255181413" r="1.402651192113077" fill="white" opacity="0.3532890040360031"  style="animation-delay: 3.7943073964163734s" />
<circle cx="487.193609370334" cy="81.2520788643651" r="0.989749484078739" fill="white" opacity="0.3420431694621952"  style="animation-delay: 3.8642679237897806s" />
<circle cx="290.4894399159739" cy="3.4730819399969803" r="0.7698083155852004" fill="white" opacity="0.5255644261999644"  style="animation-delay: 3.969851725041055s" />
<circle cx="300.3057331397617" cy="17.26252411041358" r="1.0455103817587128" fill="white" opacity="0.7984629862371937"  style="animation-delay: 3.541949299172442s" />
<circle cx="406.220798034686" cy="164.5660853019018" r="1.3837434837220814" fill="white" opacity="0.3820065412632289" class="shimmer" style="animation-delay: 1.821154801051873s" />
<circle cx="600.4005152296176" cy="130.82633562573966" r="0.5106895686081179" fill="white" opacity="0.6007487846068365" class="shimmer" style="animation-delay: 1.0518869157633537s" />
<circle cx="489.01788605868467" cy="141.17307933806612" r="1.3582446091201992" fill="white" opacity="0.5957294005850509"  style="animation-delay: 3.2105971544186485s" />
<circle cx="144.739257301603" cy="55.17501353133527" r="0.9599716930942349" fill="white" opacity="0.6865435398233164" class="shimmer" style="animation-delay: 4.904920318263882s" />
<circle cx="383.3205477819133" cy="2.92519351591638" r="0.9033903315264681" fill="white" opacity="0.6021486891317309"  style="animation-delay: 0.9971139709231058s" />
<circle cx="483.09045924154185" cy="45.94569660579894" r="0.6457483269211725" fill="white" opacity="0.3531160034551531"  style="animation-delay: 4.138447275684463s" />
<circle cx="74.05909277148588" cy="34.99383708521364" r="1.6772962721868176" fill="white" opacity="0.628506085901706" class="shimmer" style="animation-delay: 3.945722909607594s" />
<circle cx="14.963474493458051" cy="51.570523977866365" r="0.5680684391446983" fill="white" opacity="0.7617995184049224"  style="animation-delay: 4.6047655598296275s" />
<circle cx="120.3126077356977" cy="131.5809582532941" r="0.9397255968573895" fill="white" opacity="0.5366336786392929"  style="animation-delay: 2.4456199278897204s" />
<circle cx="143.4208072638066" cy="94.6523705459791" r="1.6941034712628982" fill="white" opacity="0.543211753322733"  style="animation-delay: 4.198982724208118s" />
<circle cx="561.9683361358454" cy="57.499579777457384" r="0.5359989975667996" fill="white" opacity="0.3480075830469908"  style="animation-delay: 2.7279407406866363s" />
<circle cx="788.1710466134363" cy="22.045836939133466" r="0.9610300092166069" fill="white" opacity="0.48745574771259365"  style="animation-delay: 3.238622831709529s" />
<circle cx="185.16089969112616" cy="195.85202672811158" r="1.8616289786806046" fill="white" opacity="0.4504903663170911" class="shimmer" style="animation-delay: 1.5550618020392937s" />
<circle cx="48.11926408217477" cy="99.52378865299858" r="1.6570324973044606" fill="white" opacity="0.3539254965874758"  style="animation-delay: 4.457634438435586s" />
<circle cx="27.841374021546983" cy="191.2653230139719" r="1.5274890647636" fill="white" opacity="0.35592133727345415" class="shimmer" style="animation-delay: 1.4533136774830646s" />
<circle cx="376.7646962221811" cy="98.72382400991006" r="1.1847641072687622" fill="white" opacity="0.3063029072657744"  style="animation-delay: 4.220943657461664s" />
<circle cx="629.131037912005" cy="134.75856158877016" r="0.8242642859494813" fill="white" opacity="0.35568608009087926"  style="animation-delay: 4.219694462499664s" />
<circle cx="688.3071991800625" cy="73.26815962105897" r="1.4250980218005695" fill="white" opacity="0.640936661244639"  style="animation-delay: 3.6140031528231886s" />
<circle cx="607.6227031507076" cy="10.058414158550733" r="1.2614291268602842" fill="white" opacity="0.7519159187557984"  style="animation-delay: 3.7772570435411854s" />
<circle cx="764.7061179165352" cy="129.1835919528255" r="1.5612699796526737" fill="white" opacity="0.6784785159022155"  style="animation-delay: 3.981733729116824s" />
<circle cx="627.20773319934" cy="80.5817697476237" r="0.665581828794252" fill="white" opacity="0.31787776962027997"  style="animation-delay: 3.020199363163644s" />
<circle cx="161.7258668960952" cy="142.35894972033046" r="1.6729309506523065" fill="white" opacity="0.5407192823321658" class="shimmer" style="animation-delay: 4.490549138053039s" />
<circle cx="540.9046365933102" cy="103.25757980726169" r="1.2871395978740958" fill="white" opacity="0.4230957919801119"  style="animation-delay: 3.1441149638714116s" />
<circle cx="741.7714545987534" cy="86.4827188742984" r="0.8994429314760035" fill="white" opacity="0.30193218501335456" class="shimmer" style="animation-delay: 3.150778585214762s" />
<circle cx="139.66594230967164" cy="112.47854252294962" r="1.82786516973625" fill="white" opacity="0.6755097041708717"  style="animation-delay: 1.5760599648673346s" />
<circle cx="543.2183493500784" cy="16.577170078276282" r="1.275620502909017" fill="white" opacity="0.37826336417660317" class="shimmer" style="animation-delay: 0.3597872230779231s" />
<circle cx="472.4604298681202" cy="112.94365132529603" r="1.7621842165102741" fill="white" opacity="0.5354921077904409"  style="animation-delay: 3.9272790660406875s" />
<circle cx="534.9796394586233" cy="121.03893689784564" r="1.1614699819352716" fill="white" opacity="0.33229145525862175" class="shimmer" style="animation-delay: 3.4087851041582526s" />
<circle cx="614.6689872240153" cy="118.75672211900925" r="0.9066592039285412" fill="white" opacity="0.5340836167276635"  style="animation-delay: 2.703206337461844s" />
<circle cx="291.8903950040551" cy="118.47146159418429" r="0.7230483755620513" fill="white" opacity="0.6572191978142701"  style="animation-delay: 4.374485234636289s" />
<circle cx="98.83160246001594" cy="190.17751693762378" r="1.3618512450659015" fill="white" opacity="0.6674204727291204"  style="animation-delay: 4.580301558205507s" />
<circle cx="687.1408035962111" cy="199.19316317827293" r="1.1346439634938075" fill="white" opacity="0.6541310430612961" class="shimmer" style="animation-delay: 3.7697521902815345s" />
<circle cx="256.7468786535814" cy="3.9098879479435578" r="1.6472728100326162" fill="white" opacity="0.5320643259141082" class="shimmer" style="animation-delay: 2.7378851867778318s" />
<circle cx="428.0048795182047" cy="98.3031147202814" r="0.5101358811065009" fill="white" opacity="0.5500573632512531" class="shimmer" style="animation-delay: 4.688716877687061s" />
<circle cx="616.6368206419786" cy="177.34427064319993" r="1.0857864508900263" fill="white" opacity="0.7885532680321343"  style="animation-delay: 1.7891940775661885s" />
<circle cx="119.08383654079948" cy="186.9908231168949" r="1.6314026175541154" fill="white" opacity="0.7604727762837391"  style="animation-delay: 2.33506831413112s" />
<circle cx="413.9878363182071" cy="44.36714157840154" r="2.752201882175133" fill="#e0aaff" opacity="0.8" filter="url(#glow)" class="shimmer" style="animation-delay: 2.205858895916199s" />
<circle cx="411.15759805377206" cy="83.29635928154443" r="1.243942367544836" fill="#c77dff" opacity="0.8" filter="url(#glow)" class="shimmer" style="animation-delay: 2.663379985206624s" />
<circle cx="466.3273563788609" cy="180.84749141845174" r="2.3810994052417804" fill="#4a0080" opacity="0.8" filter="url(#glow)" class="shimmer" style="animation-delay: 1.9656072091256405s" />
<circle cx="185.03146967228014" cy="15.665996867662502" r="1.3718638425980831" fill="#7b2cbf" opacity="0.8" filter="url(#glow)" class="shimmer" style="animation-delay: 0.1524358266409065s" />
<circle cx="34.095604145584524" cy="67.86995690371937" r="2.497064087224683" fill="#9d4edd" opacity="0.8" filter="url(#glow)" class="shimmer" style="animation-delay: 1.6058963457682571s" />
<circle cx="372.15379939910315" cy="123.48254621655919" r="2.3137164723584105" fill="#e0aaff" opacity="0.8" filter="url(#glow)" class="shimmer" style="animation-delay: 2.744643914146001s" />
<circle cx="679.2989555679453" cy="176.093574073384" r="1.3773362713797916" fill="#9d4edd" opacity="0.8" filter="url(#glow)" class="shimmer" style="animation-delay: 0.04535198634027959s" />
<circle cx="607.0775666565885" cy="189.53688619890764" r="1.2394094900095243" fill="#4a0080" opacity="0.8" filter="url(#glow)" class="shimmer" style="animation-delay: 0.3486682386063811s" />
<line x1="687.1328212981111" y1="128.75405015767547" x2="320.28240836930405" y2="101.9972809534826" stroke="#e0aaff" stroke-width="0.5" opacity="0.3" />
<line x1="142.9156972872435" y1="45.54783143906411" x2="259.8463784989376" y2="129.74353625346072" stroke="#e0aaff" stroke-width="0.5" opacity="0.3" />
<line x1="259.8463784989376" y1="129.74353625346072" x2="201.55593901040274" y2="30.055466961625385" stroke="#e0aaff" stroke-width="0.5" opacity="0.3" />

  
    <text x="400" y="120" text-anchor="middle" class="name-text" fill="url(#textGrad)" filter="url(#textGlow)">
      JOEL HOOKS
    </text>
  
</svg>
