<svg xmlns="http://www.w3.org/2000/svg" viewBox="0 0 800 200" width="800" height="200">
  <rect width="800" height="200" fill="#05010d"/>
  
    <defs>
      <linearGradient id="grad1" x1="0%" y1="0%" x2="100%" y2="100%">
        <stop offset="0%" style="stop-color:#4a0080;stop-opacity:0.8" />
        <stop offset="100%" style="stop-color:#7b2cbf;stop-opacity:0.8" />
      </linearGradient>
      <linearGradient id="grad2" x1="100%" y1="0%" x2="0%" y2="100%">
        <stop offset="0%" style="stop-color:#9d4edd;stop-opacity:0.7" />
        <stop offset="100%" style="stop-color:#c77dff;stop-opacity:0.7" />
      </linearGradient>
      <linearGradient id="textGrad" x1="0%" y1="0%" x2="100%" y2="0%">
        <stop offset="0%" style="stop-color:#4a0080" />
        <stop offset="25%" style="stop-color:#7b2cbf" />
        <stop offset="50%" style="stop-color:#9d4edd" />
        <stop offset="75%" style="stop-color:#c77dff" />
        <stop offset="100%" style="stop-color:#e0aaff" />
      </linearGradient>
      <filter id="glow">
        <feGaussianBlur stdDeviation="5" result="coloredBlur"/>
        <feMerge>
          <feMergeNode in="coloredBlur"/>
          <feMergeNode in="SourceGraphic"/>
        </feMerge>
      </filter>
      <filter id="textGlow">
        <feGaussianBlur stdDeviation="2" result="coloredBlur"/>
        <feMerge>
          <feMergeNode in="coloredBlur"/>
          <feMergeNode in="SourceGraphic"/>
        </feMerge>
      </filter>
    </defs>
  
  
    <style>
      @keyframes float {
        0%, 100% { transform: translateY(0px); }
        50% { transform: translateY(-8px); }
      }
      @keyframes pulse {
        0%, 100% { opacity: 0.4; }
        50% { opacity: 0.9; }
      }
      @keyframes drift {
        0% { transform: translateX(0px); }
        50% { transform: translateX(10px); }
        100% { transform: translateX(0px); }
      }
      @keyframes shimmer {
        0% { opacity: 0.3; }
        50% { opacity: 1; }
        100% { opacity: 0.3; }
      }
      @keyframes glitch {
        0%, 100% { transform: translateX(0); }
        20% { transform: translateX(-2px); }
        40% { transform: translateX(2px); }
        60% { transform: translateX(-1px); }
        80% { transform: translateX(1px); }
      }
      @keyframes dataStream {
        0% { stroke-dashoffset: 0; }
        100% { stroke-dashoffset: -20; }
      }
      .float { animation: float 8s ease-in-out infinite; }
      .pulse { animation: pulse 8s ease-in-out infinite; }
      .drift { animation: drift 8s ease-in-out infinite; }
      .shimmer { animation: shimmer 3s ease-in-out infinite; }
      .glitch { animation: glitch 0.5s ease-in-out infinite; }
      .dataStream { animation: dataStream 2s linear infinite; }
      .name-text { 
        font-family: -apple-system, BlinkMacSystemFont, 'Segoe UI', Helvetica, Arial, sans-serif;
        font-weight: 700;
        font-size: 64px;
        letter-spacing: -2px;
      }
    </style>
  
  <path d="M 852.9734389295882 20.94085489158557 C 847.343163532364 37.61410852312822, 821.6710513823366 51.42472875416816, 807.8517337621581 58.68871222481657 C 794.0324161419796 65.95269569546498, 781.8617847089328 61.136729704265, 770.0575332085174 64.52475571547606 C 758.253281708102 67.91278172668713, 751.8424962973907 77.23099427060691, 737.026224759666 79.01686829208295 C 722.2099532219413 80.80274231355898, 694.1563058565175 84.91933541108179, 681.1599039821697 75.23999984433223 C 668.1635021078218 65.56066427758267, 662.4767841844535 41.5318628955077, 659.0478135135793 20.94085489158558 C 655.618842842705 0.34984688766345684, 647.531233339308 -38.8065870366421, 660.586079956924 -48.3060481792005 C 673.64092657454 -57.805509321758905, 716.522740269804 -32.303677367770604, 737.3768932192755 -36.05591196376483 C 758.2310461687471 -39.80814655975905, 768.3349154993821 -69.9369728217201, 785.7109976537533 -70.81945575516586 C 803.0870798081246 -71.70193868861162, 830.4229792661974 -56.64419467223125, 841.6333861455032 -41.350809564439345 C 852.843793024809 -26.05742445664744, 858.6037143268123 4.267601260042916, 852.9734389295882 20.94085489158557 Z" fill="#9d4edd" opacity="0.16728868074095427" filter="url(#glow)" class="float" />
<path d="M 411.20345686743104 29.91741157586363 C 407.95319047305975 56.84045106084349, 425.47699985083557 87.48030529310932, 414.3340070697683 103.60215974223105 C 403.191014288701 119.72401419135278, 367.11593209608463 120.87141321526067, 344.34550018102726 126.64853827059399 C 321.5750682659699 132.4256633259273, 294.7779463616907 145.79305767787338, 277.71141557942394 138.2649100742309 C 260.6448847971572 130.73676247058842, 255.20709122362302 99.53756906513368, 241.94631548742672 81.47965264873913 C 228.6855397512304 63.421736232344585, 206.21123851874745 52.9640110324566, 198.14676116224612 29.917411575863643 C 190.0822838057448 6.870812119270685, 179.201846431044 -42.11772078843041, 193.55945134841875 -56.79994409081861 C 207.9170562657935 -71.48216739320682, 258.9664963739933 -55.907168493489486, 284.2923906664946 -58.17592823846557 C 309.6182849589959 -60.44468798344166, 320.5909479751762 -70.45247773914471, 345.5148171034264 -70.41250256067514 C 370.4386862316766 -70.37252738220556, 422.88749880866186 -74.65772952373793, 433.83560543599594 -57.936077167648136 C 444.78371206333003 -41.214424811558345, 414.45372326180234 2.9943720908837648, 411.20345686743104 29.91741157586363 Z" fill="#4a0080" opacity="0.13736708495126546" filter="url(#glow)" class="float" />
<path d="M 809.6424050837471 15.382547000504854 C 811.0529261185475 28.143807839235453, 783.4986706173764 43.94506222147435, 771.8740711950521 56.740740071982444 C 760.2494717727278 69.53641792249054, 752.8386698256829 88.41189040542892, 739.8948085498015 92.15661410355342 C 726.9509472739201 95.90133780167793, 706.6932345559155 85.95646557027078, 694.2109035397632 79.20908226072947 C 681.7285725236109 72.46169895118817, 671.0600813375075 62.310070123009666, 665.0008224528872 51.67231424630556 C 658.9415635682668 41.034558369601456, 655.453419537656 25.73403128364626, 657.855350232041 15.38254700050486 C 660.257280926426 5.031062717363463, 672.6820281650663 -1.864329226397981, 679.4124066191973 -10.436591452542832 C 686.1427850733284 -19.008853678687682, 689.1691373278214 -30.67289759433521, 698.2376209568274 -36.05102635636425 C 707.3061045858334 -41.42915511839328, 722.961087721663 -45.40939759071089, 733.8233083932334 -42.70536402471704 C 744.6855290648039 -40.001330458723196, 750.7744288711642 -29.5081434646048, 763.4109449862499 -19.82682496040115 C 776.0474611013356 -10.1455064561975, 808.2318840489468 2.621286161774254, 809.6424050837471 15.382547000504854 Z" fill="#c77dff" opacity="0.1935944867315192" filter="url(#glow)" class="float" />
<path d="M 661.0303414236928 12.262681970333889 C 661.4373594515639 23.614195918325702, 627.2322115001816 36.35709926930676, 613.4174663299616 47.53827789792259 C 599.6027211597416 58.71945652653842, 587.0057436131555 82.24441250710922, 578.1418704023729 79.34975374202887 C 569.2779971915903 76.45509497694852, 566.8611667436794 41.351503936056275, 560.2342270652663 30.170325307440443 C 553.6072873868532 18.98914667882461, 545.1059614390598 24.95762552320187, 538.380232331894 12.262681970333894 C 531.6545032247283 -0.4322615825340801, 513.2529127438585 -38.02927477187942, 519.8798524222716 -45.9993360097674 C 526.5067921006847 -53.96939724765537, 562.9592861122957 -39.79577382695047, 578.1418704023729 -35.55768545699396 C 593.3244546924501 -31.319597087037444, 597.1606129925151 -28.540867027916278, 610.9753581627351 -20.570805790028302 C 624.7901033329551 -12.600744552140327, 660.6233233958217 0.9111680223420748, 661.0303414236928 12.262681970333889 Z" fill="#e0aaff" opacity="0.17673403285047773" filter="url(#glow)" class="float" />
<path d="M 691.7828946647983 74.2065774711968 L 691.7828946647983 74.2065774711968 L 692.057285818246 74.23058358649527 L 692.3254041477153 74.30223653032527 L 692.5810564160946 74.42044426788607 L 692.818207711927 74.58340060349909 L 693.0310585003415 74.78860582634269 L 693.2141191628683 75.03289532042831 L 693.3622812274693 75.31247584812623 L 693.4708845225418 75.62296913826039 L 693.5357795286195 75.95946233501805 L 693.5533842486277 76.3165647933762 L 693.5207349714017 76.68847064110854 L 693.4355303632613 77.06902646733683 L 693.2961683881776 77.45180344360901 L 693.1017756278563 77.83017313614728 L 692.8522286482446 78.19738622767856 L 692.5481671378261 78.54665333453313 L 692.1909986248723 78.87122707980716 L 691.7828946647983 79.16448456658586 L 691.3267784741273 79.42000938670249 L 690.8263040735136 79.63167230036723 L 690.2858270879734 79.79370973027126 L 689.7103674371357 79.9007992304047 L 689.1055642311272 79.94813111469531 L 688.4776232678722 79.93147546347686 L 687.833257604336 79.84724376645075 L 687.1796217468416 79.69254450886326 L 686.5242400733346 79.46523206266055 L 685.8749301626959 79.16394830591935 L 685.2397217623037 78.78815646133302 L 684.6267721744482 78.33816671735434 L 684.0442788844307 77.81515327310132 L 683.5003902877686 77.22116252961514 L 683.0031154005384 76.55911223477875 L 682.5602334552085 75.83278147638083 L 682.1792042941299 75.04679150664336 L 681.8670804740201 74.2065774711968 L 681.6304219872345 73.31835120515329 L 681.4752144893745 72.38905534775581 L 681.4067918979457 71.42630911423632 L 681.4297641935111 70.43834614817386 L 681.5479512133444 69.4339449590005 L 681.7643231783081 68.42235252657622 L 682.0809486369615 67.41320172720172 L 682.4989504472088 66.41642330234707 L 683.018470345692 65.44215315209053 L 683.6386425791826 64.5006357891715 L 684.3575769911292 63.60212483611936 L 685.1723518709462 62.756781486636676 L 686.0790167843685 61.97457188287386 L 687.0726055110196 61.26516438208792 L 688.1471591210807 60.637827699158805 L 689.295759127458 60.101330915353685 L 690.5105705539792 59.66384633847037 L 691.7828946647983 59.33285618502961 L 693.1032310062143 59.11506403157504 L 694.4613483203955 59.0163119495196 L 695.8463638018944 59.0415041965661 L 697.2468300831815 59.19453828783048 L 698.6508292555197 59.47824421178754 L 700.0460731571134 59.89433249049664 L 701.4200090923262 60.443351710777144 L 702.7599300845411 61.12465607368443 L 704.053088711547 61.936383424448024 L 705.2868135267465 62.8754441346881 L 706.4486270324586 63.93752111399492 L 707.5263641435685 65.11708112965017 L 708.5082900610765 66.40739751224186 L 709.3832164659864 67.80058422205782 L 710.1406149446144 69.28764114734362 L 710.7707265668947 70.85851040170023 L 711.2646665595827 72.50214328500519 L 711.6145230463545 74.2065774711968 L 711.8134488664781 75.95902388798535 L 711.8557455327289 77.74596265895028 L 711.7369384472071 79.55324738842849 L 711.4538425602437 81.36621698494037 L 711.0046177321628 83.1698141404435 L 710.3888131397085 84.94870951120642 L 709.6074001578007 86.68743058225752 L 708.6627932422335 88.37049414183265 L 707.5588584391895 89.98254124558805 L 706.3009092522001 91.50847351306798 L 704.895689705533 92.93358957143992 L 703.3513445540394 94.24372044417701 L 701.6773767022785 95.42536267543046 L 699.8845920092975 96.46580798446408 L 697.985031768787 97.35326825879102 L 695.991893266451 98.07699471954668 L 693.9194389263624 98.62739012803928 L 691.7828946647983 98.9961129481421 L 689.5983381726372 99.17617243493461 L 687.3825779448886 99.16201368538077 L 685.153023967431 98.94959176138372 L 682.9275510556944 98.5364340787215 L 680.7243559170264 97.92169034651678 L 678.5618090770942 97.10616944031705 L 676.4583028702048 96.09236269678216 L 674.4320967432694 94.88445322855506 L 672.5011611627644 93.48831097323057 L 670.6830214430041 91.91147330949164 L 668.9946028319723 90.16311119546434 L 667.452078197608 88.25398090813246 L 666.0707196526092 86.19636158720213 L 664.8647554394518 84.00397891105641 L 663.8472333694259 81.69191535532119 L 663.029892070195 79.27650760500585 L 662.4230412458978 76.77523180813344 L 662.0354520924639 74.20657747119681 L 661.8742589390024 71.58991090366322 L 661.9448731043609 68.94532921913081 L 662.2509098668332 66.29350599369384 L 662.7941293451944 63.65552976673263 L 663.5743919815229 61.052736644899696 L 664.589629201468 58.506538335798076 L 665.8358297066301 56.038246993070445 L 667.3070417275171 53.66889829877483 L 668.995391435122 51.419074241520505 L 670.8911175756103 49.30872706947971 L 672.982622256998 47.35700590578799 L 675.2565376801681 45.58208750979648 L 677.6978084702678 44.001012651052385 L 680.2897891295784 42.62952953377111 L 683.0143560005383 41.48194566804635 L 685.852032998833 40.570989530340135 L 688.7821302524891 39.90768329023825 L 691.7828946647983 39.501227803473355 L 694.8316713077044 39.35890098334291 L 697.9050744490205 39.48597056450605 L 700.9791669224368 39.88562216545363 L 704.0296464646227 40.558903439513685 L 707.0320375696206 41.50468497996606 L 709.9618873478914 42.71963851365644 L 712.7949638264575 44.198232780445764 L 715.5074550881133 45.932747353992625 L 718.076167622117 47.91330451387802 L 720.4787222464383 50.127919131115846 L 722.6937459627899 52.56256637986358 L 724.7010581204087 55.20126693887206 L 726.481849292898 58.02618919814104 L 728.0188513143031 61.017767840616486 L 729.2964969757269 64.15483802680117 L 730.3010679519083 67.41478427307521 L 731.0208296078149 70.77370298351518 L 731.4461514279108 74.20657747119678 L 731.5696119147102 77.68746418947539 L 731.3860869177424 81.18968878757535 L 730.8928204783195 84.68605050897091 L 730.0894774085606 88.14903336638159 L 728.9781769639843 91.55102245454435 L 727.5635071165486 94.86452370198452 L 725.8525190881322 98.06238531638878 L 723.8547019619253 101.11801914540494 L 721.5819373497596 104.00562015615805 L 719.0484342557723 106.70038223275978 L 716.2706444396642 109.17870850177133 L 713.2671587448176 111.41841442101716 L 710.0585850163792 113.39892190725193 L 706.6674083907388 115.10144283278086 L 703.1178348893296 116.50915028990346 L 699.4356193950761 117.60733610456022 L 695.6478792278525 118.38355317627139 L 691.7828946647984 118.82774132969836" fill="none" stroke="#4a0080" stroke-width="1" opacity="0.3" class="drift" />
<path d="M 189.69655515401456 142.1585776766909 L 189.69655515401456 142.1585776766909 L 190.21510160442367 142.2039446126133 L 190.72179362524525 142.33935488082918 L 191.20492719074633 142.56274474581886 L 191.6530974801986 142.87070084550385 L 192.05534448930322 143.25849920771034 L 192.4012938960903 143.72015931751594 L 192.68129167196187 144.24851268612738 L 192.8865309898296 144.8352852239877 L 193.00917005682595 145.4711925795023 L 193.04243958813558 146.14604747145967 L 192.98073874027193 146.8488779191795 L 192.81971843566464 147.56805516084236 L 192.5563511346651 148.29142994844142 L 192.18898624485988 149.00647581833508 L 191.71739049965439 149.7004378603497 L 191.14277278712072 150.36048544653633 L 190.46779306469543 150.97386733364564 L 189.69655515401456 151.5280675216411 L 188.8345833714889 152.01096023446385 L 187.88878311263187 152.4109623889977 L 186.8673856701188 152.7171819338132 L 185.77987772554334 152.91956047070317 L 184.63691611132512 153.00900861901874 L 183.45022859071443 152.97753264499383 L 182.23250154888422 152.81835095507412 L 180.99725562529989 152.52599914308973 L 179.7587104455804 152.09642238512507 L 178.531639728662 151.52705409222978 L 177.33121815109004 150.81687985864212 L 176.1728614436359 149.96648588081607 L 175.07206127522485 148.97809116901144 L 174.04421654454217 147.85556302719448 L 173.1044627499652 146.6044154370985 L 172.267501143093 145.23179014704147 L 171.54742938969596 143.74642043397506 L 170.95757546411414 142.1585776766909 L 170.51033648887775 140.48000104756196 L 170.21702420063164 138.7238107980638 L 170.08771867650165 136.90440577802738 L 170.13113189217407 135.0373459885614 L 170.35448260464753 133.13922112233146 L 170.76338395948443 131.22750619091565 L 171.36174511519545 129.3204054758667 L 172.15168805703195 127.43668616655837 L 173.13348063995758 125.59550316263393 L 174.30548675705782 123.81621662075452 L 175.66413437636947 122.11820391333046 L 177.20390202741427 120.52066774008503 L 178.917324150024 119.042442190862 L 180.79501554385268 117.7017985993903 L 182.8257149788392 116.51625305225096 L 184.99634784641958 115.50237742469322 L 187.29210755012713 114.67561580500845 L 189.69655515401456 114.05010814184027 L 192.1917366297468 113.63852290419024 L 194.75831686988607 113.45190048223186 L 197.37572946744586 113.49950897878745 L 200.02234110180228 113.78871394702219 L 202.675629220044 114.32486352028467 L 205.3123715622649 115.11119025593355 L 207.90884595053262 116.14873087743587 L 210.44103864556493 117.43626494912446 L 212.88485947369432 118.97027335701114 L 215.21636184053474 120.74491729831631 L 217.4119656778109 122.75203830335195 L 219.44868131684763 124.98117962761549 L 221.30433224688264 127.41962916103034 L 222.95777469914339 130.05248380687078 L 224.38911199884507 132.86273508674776 L 225.57990164708835 135.83137553185148 L 226.51335313306086 138.9375252262002 L 227.1745145338154 142.1585776766909 L 227.55044603387904 145.47036399902643 L 227.6303785895497 148.8473342298068 L 227.40585607230858 152.26275440488996 L 226.87085935151148 155.6889178841369 L 226.02191091746 159.09736925439032 L 224.85815880099912 162.45913900741633 L 223.3814387137055 165.74498706890282 L 221.5963135121648 168.9256531496591 L 219.51008927931713 171.9721118019934 L 217.132807513807 174.85582999379488 L 214.47721312304736 177.54902496092313 L 211.55869812556503 180.0249200657512 L 208.3952211813451 182.25799637659816 L 205.007203283493 184.2242376896479 L 201.41740015872548 185.90136674191197 L 197.65075213609836 187.2690704108408 L 193.7342124511086 188.30921176310105 L 189.6965551540146 189.00602690144194 L 185.56816398507578 189.34630466391926 L 181.38080376365426 189.31954735330217 L 177.16737601104774 188.91811081537548 L 172.9616606869103 188.13732234201603 L 168.79804606464518 186.9755750471755 L 164.71124890081404 185.43439754990266 L 160.7360271661088 183.51849799681779 L 156.90688769962856 181.23578166542498 L 153.2577912230892 178.59734160761622 L 149.8218572063268 175.61742201790122 L 146.6310711093464 172.31335424141758 L 143.71599653872707 168.70546557071648 L 141.1054948470681 164.8169612156914 L 138.8264546732293 160.67378006582754 L 136.90353386840292 156.3044250961696 L 135.35891617878855 151.7397694960191 L 134.21208496024056 147.01283982038817 L 133.4796160843133 142.15857767669092 L 133.17499205942235 137.21358166114885 L 133.30843923632716 132.21583144908618 L 133.88678979493943 127.2043961189562 L 134.9133700208612 122.21912894992838 L 136.38791617649073 117.30035107565155 L 138.30651905457563 112.4885265010152 L 140.66159807345176 107.82393109309132 L 143.44190553469667 103.34631824088703 L 146.63256141746646 99.09458394014277 L 150.21511883138646 95.10643409841929 L 154.167659993594 91.41805687158686 L 158.46492233751388 88.0638028351762 L 163.07845410334406 85.07587576270524 L 167.97679850521962 82.48403672807743 L 173.12570531976806 80.31532417068871 L 178.4883684974419 78.59379246038876 L 184.02568816371402 77.34027137555306 L 189.69655515401453 76.57214876203943 L 195.45815601615988 76.30317847473485" fill="none" stroke="#e0aaff" stroke-width="1" opacity="0.3" class="drift" />
<circle cx="159.93289151694546" cy="107.5481248347839" r="1.7833058323034505" fill="white" opacity="0.3754521702253368"  style="animation-delay: 2.957124765708387s" />
<circle cx="268.16195399952426" cy="36.37642675594388" r="1.363626403833213" fill="white" opacity="0.5952297868007481" class="shimmer" style="animation-delay: 1.5062393094535442s" />
<circle cx="474.35467764371515" cy="99.17270281774067" r="1.3420109273130931" fill="white" opacity="0.5389318898870747"  style="animation-delay: 1.5458716023854557s" />
<circle cx="158.81233499781686" cy="164.77910719005985" r="0.7420138931819505" fill="white" opacity="0.4964503488798259"  style="animation-delay: 1.5111115846405132s" />
<circle cx="654.9186678045418" cy="186.86338550313098" r="1.6800684275888527" fill="white" opacity="0.5729172108412333" class="shimmer" style="animation-delay: 1.8035473910872568s" />
<circle cx="552.1165278764784" cy="23.579071725549248" r="1.7353885446217905" fill="white" opacity="0.33502337236672114"  style="animation-delay: 0.5414714839445189s" />
<circle cx="596.5916353270007" cy="12.396423012149338" r="1.0415569413591483" fill="white" opacity="0.54149685162011" class="shimmer" style="animation-delay: 3.2922829017473765s" />
<circle cx="168.74379172651038" cy="106.99331961668163" r="0.6908616332469087" fill="white" opacity="0.4735267088671404"  style="animation-delay: 4.924594050102074s" />
<circle cx="259.4088524482348" cy="81.7604250763686" r="1.6450073072766465" fill="white" opacity="0.37608494509917373"  style="animation-delay: 3.983760789184222s" />
<circle cx="666.9880123528334" cy="162.75706216809135" r="1.0148840201689568" fill="white" opacity="0.6614240941618053" class="shimmer" style="animation-delay: 0.7540419166426182s" />
<circle cx="735.8387428806269" cy="150.5656493208177" r="0.5526058323724219" fill="white" opacity="0.5476063687451116" class="shimmer" style="animation-delay: 1.9167678869010574s" />
<circle cx="566.5110266500841" cy="63.38881312720446" r="0.601405553389571" fill="white" opacity="0.35952882576484196" class="shimmer" style="animation-delay: 2.0467344259737095s" />
<circle cx="368.79844691680825" cy="106.39072869930612" r="0.977652910860491" fill="white" opacity="0.3940290102834855"  style="animation-delay: 1.2058051866417474s" />
<circle cx="328.8854973949288" cy="28.554187720326674" r="0.5350989012359947" fill="white" opacity="0.37246987766992196" class="shimmer" style="animation-delay: 1.6224525039906912s" />
<circle cx="197.92816987823673" cy="170.68735866247792" r="0.8466173769276772" fill="white" opacity="0.7692192702746139" class="shimmer" style="animation-delay: 3.904651963885901s" />
<circle cx="361.65335343130585" cy="125.13532829386156" r="1.1778011249125484" fill="white" opacity="0.4570269958452408" class="shimmer" style="animation-delay: 1.3645141707082398s" />
<circle cx="482.2715341732403" cy="169.04954984097063" r="0.9167357123337203" fill="white" opacity="0.42398729026013243" class="shimmer" style="animation-delay: 0.6209473780188368s" />
<circle cx="238.03705446523617" cy="98.49088619822734" r="1.1297929314492932" fill="white" opacity="0.6995118678934693"  style="animation-delay: 0.6738040967735082s" />
<circle cx="456.98752284426456" cy="53.084062383652864" r="1.9825724676120837" fill="white" opacity="0.7468638353723767"  style="animation-delay: 2.781028388611886s" />
<circle cx="206.63072195483068" cy="158.04264603330398" r="0.5351002013746681" fill="white" opacity="0.7740796007488593"  style="animation-delay: 2.750675742524958s" />
<circle cx="620.8541176894471" cy="45.03151065227841" r="1.007515370081052" fill="white" opacity="0.5657778510656684" class="shimmer" style="animation-delay: 3.9067029692175046s" />
<circle cx="198.44460471260828" cy="41.202897133321905" r="1.483587087744237" fill="white" opacity="0.31902938552464627"  style="animation-delay: 2.895090690822568s" />
<circle cx="210.04046153173715" cy="29.88772255411556" r="0.9165224077034252" fill="white" opacity="0.7305148210169774" class="shimmer" style="animation-delay: 3.2929103337726495s" />
<circle cx="197.11125340512066" cy="80.40912015410578" r="1.5429542493085178" fill="white" opacity="0.6572694998060082"  style="animation-delay: 4.153429243878234s" />
<circle cx="101.98538411824157" cy="66.01685588445054" r="0.9503577749672127" fill="white" opacity="0.6720388990046593"  style="animation-delay: 1.205043516803902s" />
<circle cx="697.8776323074139" cy="135.3221490828907" r="0.8464482938419343" fill="white" opacity="0.559784981166523"  style="animation-delay: 1.782899420815387s" />
<circle cx="250.66609922309286" cy="30.296639886318122" r="1.6463996842570268" fill="white" opacity="0.7157544628265926"  style="animation-delay: 2.7458614907110057s" />
<circle cx="558.7388912223405" cy="176.58242847390562" r="1.1778879413509646" fill="white" opacity="0.47138699739553164"  style="animation-delay: 1.6232279232330826s" />
<circle cx="139.41690038042455" cy="77.26285731321343" r="1.5828492576571445" fill="white" opacity="0.48957266299136887"  style="animation-delay: 4.238656093453782s" />
<circle cx="164.4667195767619" cy="139.60257462075947" r="1.2882661823558248" fill="white" opacity="0.4566773121065955" class="shimmer" style="animation-delay: 3.676509338536713s" />
<circle cx="582.1624123701721" cy="109.51937533438483" r="1.4636913366495699" fill="white" opacity="0.38146468581206433" class="shimmer" style="animation-delay: 4.9387945115177825s" />
<circle cx="182.44313561835028" cy="23.76861207317984" r="1.4620946945489033" fill="white" opacity="0.3404751159952943"  style="animation-delay: 2.969858645776362s" />
<circle cx="53.2855621462728" cy="82.68711276652638" r="1.0123691891772937" fill="white" opacity="0.597856637941957" class="shimmer" style="animation-delay: 2.805845732819524s" />
<circle cx="417.15846744769533" cy="147.9938678196006" r="1.0026567749581548" fill="white" opacity="0.6600649891926162" class="shimmer" style="animation-delay: 4.71375688347888s" />
<circle cx="750.527355507441" cy="38.109521726685934" r="1.299499502837349" fill="white" opacity="0.44740891774076047"  style="animation-delay: 0.163848848938144s" />
<circle cx="103.67835842736372" cy="92.23726683943498" r="1.9430559213209624" fill="white" opacity="0.34845088040264965"  style="animation-delay: 4.62580679062318s" />
<circle cx="535.9676717253974" cy="149.42362234802036" r="0.9144480208492101" fill="white" opacity="0.7385005700708063"  style="animation-delay: 3.3670706613730186s" />
<circle cx="124.43746746025309" cy="193.07216374020814" r="1.83261034518025" fill="white" opacity="0.5054892778936546"  style="animation-delay: 1.6398517429516313s" />
<circle cx="264.22581013360275" cy="5.0695897100156095" r="0.9262691919998527" fill="white" opacity="0.6759015716319274"  style="animation-delay: 0.5988851439416942s" />
<circle cx="257.70240301650824" cy="20.298751177356912" r="1.8966726626827524" fill="white" opacity="0.7981384135866685" class="shimmer" style="animation-delay: 1.7827710279998021s" />
<circle cx="751.4751748012255" cy="1.5382925775138112" r="1.7677561228825325" fill="#4a0080" opacity="0.8" filter="url(#glow)" class="shimmer" style="animation-delay: 1.6278830243320506s" />
<circle cx="477.6922345398649" cy="12.169435401504725" r="1.8594073631834411" fill="#9d4edd" opacity="0.8" filter="url(#glow)" class="shimmer" style="animation-delay: 2.1764154417381643s" />
<circle cx="126.77296992367869" cy="123.78323221081762" r="1.0796937316892454" fill="#4a0080" opacity="0.8" filter="url(#glow)" class="shimmer" style="animation-delay: 2.456806537738079s" />
<circle cx="432.8713889001067" cy="98.59409677535349" r="2.4208911074391954" fill="#7b2cbf" opacity="0.8" filter="url(#glow)" class="shimmer" style="animation-delay: 2.1908284550507755s" />
<circle cx="209.92867078358142" cy="146.83063646632712" r="2.378028222124769" fill="#4a0080" opacity="0.8" filter="url(#glow)" class="shimmer" style="animation-delay: 2.693973996636262s" />
<circle cx="76.02366722482863" cy="103.17140759373653" r="2.500243034546082" fill="#9d4edd" opacity="0.8" filter="url(#glow)" class="shimmer" style="animation-delay: 1.5654923300299037s" />
<circle cx="160.675919246464" cy="54.40535427767577" r="2.2110133001528003" fill="#c77dff" opacity="0.8" filter="url(#glow)" class="shimmer" style="animation-delay: 1.2186500026005784s" />
<circle cx="379.9697404841556" cy="12.51986161087606" r="1.1562069602632494" fill="#4a0080" opacity="0.8" filter="url(#glow)" class="shimmer" style="animation-delay: 0.8406880857126073s" />
<line x1="277.94013178480145" y1="51.80903051989439" x2="335.4204271935856" y2="94.8020877497944" stroke="#e0aaff" stroke-width="0.5" opacity="0.3" />
<line x1="476.78090724132284" y1="71.19854587313796" x2="366.7699039072604" y2="128.22912646014728" stroke="#e0aaff" stroke-width="0.5" opacity="0.3" />

  
    <text x="400" y="120" text-anchor="middle" class="name-text" fill="url(#textGrad)" filter="url(#textGlow)">
      JOEL HOOKS
    </text>
  
</svg>
