<svg xmlns="http://www.w3.org/2000/svg" viewBox="0 0 800 200" width="800" height="200">
  <rect width="800" height="200" fill="#05010d"/>
  
    <defs>
      <linearGradient id="grad1" x1="0%" y1="0%" x2="100%" y2="100%">
        <stop offset="0%" style="stop-color:#4a0080;stop-opacity:0.8" />
        <stop offset="100%" style="stop-color:#7b2cbf;stop-opacity:0.8" />
      </linearGradient>
      <linearGradient id="grad2" x1="100%" y1="0%" x2="0%" y2="100%">
        <stop offset="0%" style="stop-color:#9d4edd;stop-opacity:0.7" />
        <stop offset="100%" style="stop-color:#c77dff;stop-opacity:0.7" />
      </linearGradient>
      <linearGradient id="textGrad" x1="0%" y1="0%" x2="100%" y2="0%">
        <stop offset="0%" style="stop-color:#4a0080" />
        <stop offset="25%" style="stop-color:#7b2cbf" />
        <stop offset="50%" style="stop-color:#9d4edd" />
        <stop offset="75%" style="stop-color:#c77dff" />
        <stop offset="100%" style="stop-color:#e0aaff" />
      </linearGradient>
      <filter id="glow">
        <feGaussianBlur stdDeviation="5" result="coloredBlur"/>
        <feMerge>
          <feMergeNode in="coloredBlur"/>
          <feMergeNode in="SourceGraphic"/>
        </feMerge>
      </filter>
      <filter id="textGlow">
        <feGaussianBlur stdDeviation="2" result="coloredBlur"/>
        <feMerge>
          <feMergeNode in="coloredBlur"/>
          <feMergeNode in="SourceGraphic"/>
        </feMerge>
      </filter>
    </defs>
  
  
    <style>
      @keyframes float {
        0%, 100% { transform: translateY(0px); }
        50% { transform: translateY(-8px); }
      }
      @keyframes pulse {
        0%, 100% { opacity: 0.4; }
        50% { opacity: 0.9; }
      }
      @keyframes drift {
        0% { transform: translateX(0px); }
        50% { transform: translateX(10px); }
        100% { transform: translateX(0px); }
      }
      @keyframes shimmer {
        0% { opacity: 0.3; }
        50% { opacity: 1; }
        100% { opacity: 0.3; }
      }
      @keyframes glitch {
        0%, 100% { transform: translateX(0); }
        20% { transform: translateX(-2px); }
        40% { transform: translateX(2px); }
        60% { transform: translateX(-1px); }
        80% { transform: translateX(1px); }
      }
      @keyframes dataStream {
        0% { stroke-dashoffset: 0; }
        100% { stroke-dashoffset: -20; }
      }
      .float { animation: float 8s ease-in-out infinite; }
      .pulse { animation: pulse 8s ease-in-out infinite; }
      .drift { animation: drift 8s ease-in-out infinite; }
      .shimmer { animation: shimmer 3s ease-in-out infinite; }
      .glitch { animation: glitch 0.5s ease-in-out infinite; }
      .dataStream { animation: dataStream 2s linear infinite; }
      .name-text { 
        font-family: -apple-system, BlinkMacSystemFont, 'Segoe UI', Helvetica, Arial, sans-serif;
        font-weight: 700;
        font-size: 64px;
        letter-spacing: -2px;
      }
    </style>
  
  <path d="M 461.7465891209001 161.9824328825695 C 459.8618777879899 184.45017792991902, 489.6672311527513 215.96618484619668, 482.901539330458 223.73153402588738 C 476.13584750816466 231.4968832055781, 442.2368457669282 208.07315409536494, 421.1524381871401 208.57452796071374 C 400.068030607352 209.07590182606253, 368.42252379336134 234.50512639767084, 356.3950938517295 226.73977721798013 C 344.36766391009763 218.97442803828943, 348.662412053257 183.24276784361444, 348.9878585373489 161.9824328825695 C 349.31330502144084 140.72209792152455, 346.3203428146491 106.3561861138771, 358.34777275628096 99.17776745171037 C 370.3752026979128 91.99934878954363, 398.5087657585337 120.62070486122245, 421.1524381871401 118.91192090956909 C 443.7961106157465 117.20313695791573, 487.4441155056261 81.74664507962345, 494.2098073279194 88.92506374179018 C 500.9754991502127 96.10348240395692, 463.63130045381035 139.51468783521997, 461.7465891209001 161.9824328825695 Z" fill="#7b2cbf" opacity="0.1964480560580652" filter="url(#glow)" class="float" />
<path d="M 718.0236515181823 73.22726708529514 C 723.7138462815503 93.79502717235735, 729.2386268024138 132.7742222844062, 716.8475782475166 149.25446832828888 C 704.4565296926194 165.73471437217157, 665.818789175485 172.58547341686128, 643.6773601887986 172.1087433485913 C 621.5359312021122 171.63201328032133, 600.2869888466054 158.00365790232297, 583.9990043273983 146.39408791866902 C 567.7110198081913 134.78451793501506, 557.0763059680394 121.25816221984503, 545.9494530735561 102.45132344666752 C 534.8226001790729 83.64448467349, 511.16172615653767 51.077941580783516, 517.2378869604992 33.55305527960391 C 523.3140477644606 16.028168978424308, 560.0424073150605 14.490175377843567, 582.4064178973251 -2.6979943604100924 C 604.7704284795898 -19.886164098663752, 634.7052851590896 -74.33361351097233, 651.4219504540868 -69.57596314991805 C 668.1386157490839 -64.81831278886378, 671.6061261566256 2.0473694333800516, 682.7064096673082 25.847907805915582 C 693.8066931779908 49.64844617845111, 712.3334567548143 52.65950699823293, 718.0236515181823 73.22726708529514 Z" fill="#4a0080" opacity="0.24960145696689634" filter="url(#glow)" class="float" />
<path d="M 299.032850794321 164.88975033213032 C 300.4824674547997 192.38552710420916, 325.6469512919572 231.8637893947104, 313.60253533194987 251.7259306298029 C 301.55811937194255 271.58807186489537, 254.47514281969063 285.2992033898294, 226.7663550342773 284.0625977426852 C 199.05756724886396 282.82599209554104, 162.5907570677527 264.1684379820302, 147.3498086194699 244.3062967469377 C 132.10886017118713 224.44415551184522, 133.51757451725013 189.55884264306894, 135.32066434458062 164.88975033213032 C 137.12375417191112 140.2206580211917, 142.92739913517016 115.68552358407285, 158.16834758345294 96.29174288130599 C 173.40929603173572 76.89796217853913, 202.31027373667314 50.1171449295252, 226.76635503427727 48.527066115529166 C 251.2224363318814 46.93698730153313, 292.86041940907046 67.35748929456292, 304.9048353690778 86.75126999732979 C 316.9492513290851 106.14505070009665, 297.5832341338423 137.39397356005148, 299.032850794321 164.88975033213032 Z" fill="#e0aaff" opacity="0.1138436017172005" filter="url(#glow)" class="float" />
<path d="M 124.78863924975039 5.379011951681489 C 122.50507712357461 32.23988127093941, 126.53048293764996 70.69850963081457, 112.1324673593806 79.11093353092788 C 97.73445178111123 87.52335743104119, 58.64396995760575 60.187438367971936, 38.40054578013419 55.85355535236136 C 18.157121602662627 51.51967233675079, 6.162199990444931 61.52005933737776, -9.328077705448763 53.10763543726445 C -24.81835540134246 44.69521153715114, -50.27972615626597 25.549947352504482, -54.54112039522797 5.379011951681501 C -58.80251463418997 -14.791923449141478, -50.38672083511443 -52.319079006145046, -34.89644313922074 -67.91797696767343 C -19.406165443327055 -83.5168749292018, 11.612165237524838 -85.85832491466442, 38.40054578013417 -88.21437581748879 C 65.18892632274351 -90.57042672031315, 111.43582453816592 -97.653180346148, 125.83384011643528 -82.05428238461963 C 140.23185569470465 -66.45538442309125, 127.07220137592617 -21.481857367576424, 124.78863924975039 5.379011951681489 Z" fill="#7b2cbf" opacity="0.17931968196326104" filter="url(#glow)" class="float" />
<path d="M 224.35191745989562 89.85196148660113 L 224.35191745989562 89.85196148660113 L 224.54651203300608 89.86898630573197 L 224.73665800240278 89.91980162481755 L 224.91796320632392 90.00363298723566 L 225.08614776546602 90.11919946292494 L 225.23709872648394 90.2647282900666 L 225.366922924641 90.4379751649008 L 225.47199749920344 90.6362499735227 L 225.54901751817076 90.8564477039821 L 225.59504019727694 91.09508422398245 L 225.60752523162185 91.34833655944506 L 225.58437079648664 91.61208726265627 L 225.52394481649497 91.88197241609186 L 225.42511114890584 92.15343277973075 L 225.28725037702895 92.42176755609759 L 225.11027496306832 92.68219021874269 L 224.894638565627 92.92988582665834 L 224.64133938511975 93.16006922947896 L 224.35191745989562 93.3680435563992 L 224.0284458964098 93.54925837569988 L 223.6735160777314 93.69936691167263 L 223.29021695545384 93.81428171159932 L 222.88210859011465 93.89022816723843 L 222.45319016395445 93.92379531290737 L 222.0078627466969 93.9119833455826 L 221.55088714946146 93.8522473412719 L 221.08733725340744 93.74253667599537 L 220.62254924775164 93.5813296987451 L 220.16206725593258 93.36766324743455 L 219.71158586847753 93.10115664670474 L 219.2768901361688 92.78202987809952 L 218.86379360704805 92.41111566808706 L 218.47807501533225 91.98986529719161 L 218.12541424918416 91.52034799358105 L 217.81132823727407 91.00524383628031 L 217.5411074010295 90.44783015618025 L 217.31975332029947 89.85196148660113 L 217.15191825480858 89.22204317876034 L 217.04184715225975 88.56299886048909 L 216.99332275632753 87.88023197835213 L 217.0096144041914 87.17958172336301 L 217.09343107387144 86.46727369818424 L 217.24687920667805 85.74986573850337 L 217.47142578986188 85.0341893526544 L 217.76786713938228 84.32728729100575 L 218.13630377298898 83.6363477996945 L 218.57612170995498 82.96863615151901 L 219.08598047627942 82.33142407982007 L 219.66380803349819 81.7319177686382 L 220.30680278593397 81.17718507403563 L 221.01144275584798 80.67408266697088 L 221.77350194910846 80.22918379731979 L 222.58807386626862 79.84870738141521 L 223.4496020459615 79.53844911174671 L 224.35191745989562 79.3037152772069 L 225.28828251209137 79.14925996552579 L 226.25144132995544 79.07922629640092 L 227.23367597195187 79.09709230446316 L 228.22686811659088 79.20562205583002 L 229.2225657407882 79.40682254085901 L 230.2120542428924 79.70190683914745 L 231.18643141735495 80.09126400120442 L 232.1366856445982 80.57443603496871 L 233.05377662156488 81.15010232493185 L 233.92871792609682 81.8160717475533 L 234.75266068203965 82.56928267947232 L 235.51697757209465 83.40581102530466 L 236.21334643217904 84.32088632016378 L 236.83383265459275 85.30891588909634 L 237.37096962774683 86.36351697200674 L 237.81783644764587 87.47755664902633 L 238.16813215073833 88.64319932831206 L 238.4162457390879 89.85196148660113 L 238.55732129695923 91.09477328315187 L 238.5873175326602 92.36204660060876 L 238.50306112060346 93.64374900246459 L 238.3022932657336 94.92948303675354 L 237.98370896535567 96.2085702599694 L 237.5469885015854 97.47013930449694 L 236.9928207606553 98.70321726757304 L 236.32291804264713 99.89682366041092 L 235.54002209632756 101.04006612303303 L 234.64790118805067 102.12223708392142 L 233.651338090537 103.13291052410811 L 232.55610895609112 104.06203799303627 L 231.36895311880866 104.90004301860249 L 230.09753395085758 105.63791305636516 L 228.75039097829725 106.26728813302222 L 227.33688354141822 106.78054535691575 L 225.86712636253966 107.17087849343213 L 224.35191745989562 107.4323718355915 L 222.80265891898992 107.56006763965304 L 221.2312711019402 107.55002644193004 L 219.65010094022492 107.39937962587885 L 218.07182501628606 107.10637366750602 L 216.50934819405165 106.67040555177913 L 214.97569860710078 106.09204892252701 L 213.48391985541113 105.37307060272376 L 212.04696129697865 104.51643720047173 L 210.67756734870105 103.52631159779568 L 209.38816673145624 102.40803920386338 L 208.19076260702568 101.16812394075512 L 207.0968245592244 99.81419401769567 L 206.1171833681763 98.35495763798987 L 205.26192951506468 96.80014887102023 L 204.54031633490465 95.16046400880998 L 203.96066870701665 93.44748881207153 L 203.53029813707633 91.67361713360015 L 203.25542504110717 89.85196148660114 L 203.1411089908554 87.99625620134046 L 203.19118762200233 86.12075388469789 L 203.408224842048 84.24011596312317 L 203.79346890392384 82.36929814953443 L 204.34682083499968 80.52343172828145 L 205.06681362973364 78.71770159890721 L 205.95060252841003 76.96722205860405 L 206.9939666149059 75.28691133457694 L 208.19132187393842 73.6913659006439 L 209.5357457535262 72.19473562704265 L 211.01901318222903 70.81060081836824 L 212.63164389390204 69.55185219169378 L 214.36296081603118 68.4305748351639 L 216.20115918201938 67.45793716670329 L 218.13338593387954 66.64408588304028 L 220.14582889047742 65.99804785115779 L 222.22381506854163 65.52763984779355 L 224.35191745989562 65.23938699801462 L 226.51406948951126 65.13845070157262 L 228.69368630574664 65.2285667661435 L 230.87379198718077 65.51199439018365 L 233.03715169041948 65.98947655556245 L 235.16640771069098 66.66021230198726 L 237.24421838248853 67.52184126220304 L 239.2533987114053 68.5704407397526 L 241.177061601027 69.80053551049234 L 242.9987585206155 71.20512042588126 L 244.7026184505732 72.77569579112449 L 246.27348394349147 74.50231538542194 L 247.69704314903908 76.37364688570851 L 248.95995667105078 78.37704435026097 L 250.04997815486033 80.49863231526768 L 250.95606754202635 82.72340095677781 L 251.6684959779033 85.03531167323511 L 252.1789414146915 87.4174123508922 L 252.4805740182802 89.85196148660111 L 252.5681305609124 92.32056026057174 L 252.4379770629176 94.80429157640002 L 252.08815903488298 97.2838650176935 L 251.5184387660012 99.73976661058212 L 250.7303192042274 102.15241222987224 L 249.72705407852982 104.50230344409307 L 248.51364402210714 106.77018456162338 L 247.09681856712348 108.93719961683975 L 245.48500399537818 110.98504802208362 L 243.68827714447946 112.89613760839778 L 241.71830538458735 114.65373378555996 L 239.5882730956873 116.24210356998064 L 237.31279508871148 117.64665325747423 L 234.90781752468618 118.85405855663274 L 232.39050699352623 119.85238604730174 L 229.77912851720944 120.63120488717317 L 227.09291333995958 121.18168775738529 L 224.3519174598957 121.49670011478379 L 221.57687194157003 121.5708769036062 L 218.78902612614897 121.40068597218747 L 216.00998492499596 120.98447754015837 L 213.26154144245749 120.32251916777359 L 210.56550622414886 119.41701579065088 L 207.9435344675046 118.2721144994714 L 205.4169525613608 116.89389386417562 L 203.00658534054983 115.2903377249481 L 200.73258544965046 113.47129349684629 L 198.61426620697992 111.44841516029223 L 196.66993934557382 109.23509123480545 L 194.91675898228 106.84635815729182 L 193.3705731293046 104.29879960789273 L 192.0457840147971 101.61043244484884 L 190.95521842062513 98.80058002403892 L 190.11000917675923 95.88973378786282 L 189.51948887312318 92.89940411102006 L 189.19109676191488 89.85196148660116 L 189.13029972690225 86.77046922392064 L 189.34052809174491 83.6785089089067 L 189.8231269277685 80.5999999478943 L 190.57732340365627 77.55901457570585 L 191.60021059612797 74.5795897583786 L 192.88674805278922 71.68553745931112 L 194.4297792669582 68.90025476455367 L 196.22006609042955 66.24653537814815 L 198.24633997488772 63.7463840015934 L 200.4953697970973 61.42083510256634 L 202.9520458881787 59.28977755691637 L 205.59947975430583 57.37178661474942 L 208.41911884612836 55.68396459629215 L 211.3908756081907 54.24179166643575 L 214.49326991865058 53.058987968760746 L 217.7035839146861 52.1473883209004 L 220.9980280911217 51.51683058384039 L 224.35191745989567 51.17505871882232 L 227.73985646693114 51.12764143761946 L 231.13593128153778 51.377907235886056 L 234.51390800240966 51.92689647590411 L 237.847435264248 52.77333105529485 L 241.11024968059377 53.9136020631155 L 244.2763825220847 55.34177568525866 L 247.3203660054556 57.0496174783007 L 250.21743755745584 59.026634986016006 L 252.94374041966603 61.260138526830616 L 255.47651897504954 63.73531983469567 L 257.79430720494327 66.43534809137157 L 259.8771087259835 69.34148274611236 L 261.7065669099225 72.4332023803581 L 263.2661236551279 75.68834874143911 L 264.54116545630586 79.0832849415488 L 265.51915550816074 82.59306669744387 L 266.18975067864466 86.19162537347232" fill="none" stroke="#4a0080" stroke-width="1" opacity="0.3" class="drift" />
<path d="M 594.7451864194584 57.21849976181168 L 594.7451864194584 57.21849976181168 L 595.324817851521 57.26921094114045 L 595.8911983973944 57.42057259373688 L 596.4312452923793 57.67027787520218 L 596.9322102232513 58.014511328023964 L 597.381842092771 58.44799249419514 L 597.7685444796429 58.964036351715826 L 598.0815261067945 59.55462996091269 L 598.3109426993435 60.210524541131356 L 598.4480286980497 60.92134204040307 L 598.485217393608 61.675695111668084 L 598.4162481609028 62.461319270482804 L 598.2362595992666 63.26521588218068 L 597.9418675236553 64.07380451242429 L 597.5312269012014 64.87308307508707 L 597.0040769864108 65.6487941264165 L 596.36176907486 66.38659558530019 L 595.6072764680474 67.07223410687506 L 594.7451864194584 67.69171930123656 L 593.7816740122117 68.23149697100017 L 592.7244581002063 68.67861954117231 L 591.5827396257249 69.02091187225844 L 590.3671228052908 69.24713068267299 L 589.0895198504944 69.34711585904938 L 587.7630400598418 69.31193200254968 L 586.4018642798119 69.13399864515516 L 585.0211058866694 68.80720767143833 L 583.6366595836841 68.32702659758586 L 582.2650394398604 67.69058648943056 L 580.92320771478 66.8967534438016 L 579.6283961185359 65.94618271133241 L 578.3979212449206 64.84135470258916 L 577.2489959891146 63.58659229150997 L 576.1985388173277 62.1880590091072 L 575.2629827945453 60.65373790454011 L 574.458086297269 58.99339103831864 L 573.7987473406087 57.21849976181168 L 573.298823433144 55.34218612664719 L 572.9709588386731 53.37911595523284 L 572.8264210714858 51.345384287735165 L 572.8749483815287 49.25838409968881 L 573.1246098982955 47.13665935626727 L 573.5816799981669 44.99974363248265 L 574.2505283401076 42.86798568161974 L 575.1335268800902 40.76236347555346 L 576.2309750265014 38.70428836885473 L 577.5410439383702 36.71540115247221 L 579.0597407969229 34.81736186112595 L 580.7808937002252 33.03163528033568 L 582.6961576421004 31.379274163348743 L 584.7950418418047 29.88070221439961 L 587.0649584918199 28.555498922155273 L 589.4912927894031 27.422188335474047 L 592.0574939150335 26.498033862496424 L 594.7451864194584 25.798841143537043 L 597.5343012825407 25.338770998371317 L 600.403225713364 25.130164379601915 L 603.3289705738779 25.183381176313347 L 606.2873541295365 25.50665460681367 L 609.2532006615833 26.105962816723647 L 612.2005523184998 26.98491915996667 L 615.1028924401958 28.144682486453597 L 617.9333784591859 29.583888592701964 L 620.665082369598 31.298603811671942 L 623.2712366585394 33.28230152725425 L 625.7254835161514 35.52586219873082 L 628.0021250814879 38.017597272866055 L 630.0763724418465 40.743297147873236 L 631.9245910839388 43.68630313620281 L 633.5245404966406 46.82760315383015 L 634.8556056472206 50.145950644429576 L 635.8990180958996 53.618006029468994 L 636.6380645771579 57.21849976181167 L 637.0582809600247 60.920415852811914 L 637.1476296030927 64.69519454304414 L 636.8966582424825 68.5129525965742 L 636.2986386915247 72.34271951984513 L 635.3496837884716 76.15268784051702 L 634.0488412018569 79.91047543056555 L 632.3981628908238 83.58339772309455 L 630.4027492183096 87.13874755500845 L 628.070766926781 90.54408026913416 L 625.413440407485 93.7675016306342 L 622.4450159230847 96.777956054512 L 619.1826986781164 99.5455126043947 L 615.6465628699773 102.04164620812493 L 611.8594350930226 104.23951154336044 L 607.8467517077829 106.11420707651966 L 603.6363910241673 107.64302679099845 L 599.258481379719 108.8056972153788 L 594.7451864194584 109.58459745893606 L 590.1304691005403 109.96496007950391 L 585.4498361508992 109.93505074687059 L 580.7400649043528 109.4863248223616 L 576.0389146134697 108.6135591509464 L 571.3848245041726 107.31495755475007 L 566.8166009809921 105.59222872476371 L 562.3730965176301 103.45063542918439 L 558.0928828727924 100.8990141904045 L 554.013921354953 97.94976482631695 L 550.1732329208944 94.61880950330772 L 546.6065709307508 90.92552120598353 L 543.3480993963219 86.89262179018215 L 540.43007954922 82.54605004891103 L 537.8825675208412 77.91480048333113 L 535.7331258672245 73.03073373047923 L 534.0065515888471 67.92835985384738 L 532.7246231887653 62.64459594999009 L 531.9058691829091 57.2184997618117 L 531.5653603246402 51.690981214975764 L 531.7145276329749 46.10449400592561 L 532.3610081213827 40.50270956636305 L 533.5085199132553 34.93017590786769 L 535.1567682025948 29.431964009945442 L 537.3013832759528 24.053304553632856 L 539.9338915560784 18.839217919437928 L 543.041720361124 13.834140461676412 L 546.6082367977704 9.081550140123575 L 550.6128209244931 4.623594633506073 L 555.030973034741 0.5007250770968099 L 559.8344546213755 -3.2486614418783475" fill="none" stroke="#4a0080" stroke-width="1" opacity="0.3" class="drift" />
<circle cx="304.41802097855657" cy="122.90656101306668" r="1.146299822114508" fill="white" opacity="0.48872869692579995"  style="animation-delay: 2.5479942214291516s" />
<circle cx="177.38922614347032" cy="101.68278744154043" r="1.2744170866015194" fill="white" opacity="0.7772528719150944" class="shimmer" style="animation-delay: 3.857392532748177s" />
<circle cx="198.0397278363979" cy="124.42737569975613" r="1.478260104732793" fill="white" opacity="0.5608252700755525" class="shimmer" style="animation-delay: 2.642874581120317s" />
<circle cx="495.53161721522764" cy="177.44226407997914" r="1.089705484744166" fill="white" opacity="0.36980237745830363" class="shimmer" style="animation-delay: 4.80592370711207s" />
<circle cx="386.358612052587" cy="151.75858288504998" r="1.552253134409814" fill="white" opacity="0.5776484787713247" class="shimmer" style="animation-delay: 0.8726853856995564s" />
<circle cx="552.8019020048209" cy="189.96950233213963" r="1.6317842920969823" fill="white" opacity="0.4854283959991013" class="shimmer" style="animation-delay: 4.916461394186107s" />
<circle cx="427.91854651617706" cy="125.96065573631634" r="1.3526198363423592" fill="white" opacity="0.47544216894440244" class="shimmer" style="animation-delay: 4.422673792647679s" />
<circle cx="728.9142917429084" cy="60.22051033996436" r="0.5512474791039205" fill="white" opacity="0.31701499478181233"  style="animation-delay: 3.3681008846582805s" />
<circle cx="769.8440859525227" cy="141.1389096187909" r="1.7496212588444244" fill="white" opacity="0.6005981880185502" class="shimmer" style="animation-delay: 4.913410889159115s" />
<circle cx="701.5034206241941" cy="44.61529580353503" r="1.2828837686587766" fill="white" opacity="0.48806247911867956"  style="animation-delay: 0.11395891460965646s" />
<circle cx="455.19695540502136" cy="173.66044892474582" r="0.6959679899048582" fill="white" opacity="0.651825935845249"  style="animation-delay: 3.877110107903079s" />
<circle cx="385.7684172029094" cy="109.79629023731002" r="1.1044675527276255" fill="white" opacity="0.7758571065741431" class="shimmer" style="animation-delay: 2.038830800489553s" />
<circle cx="774.7135565268037" cy="82.03794868083239" r="1.0854597070772232" fill="white" opacity="0.32137920297124895" class="shimmer" style="animation-delay: 1.330618053552779s" />
<circle cx="776.9517624013948" cy="185.47473716000252" r="1.9192776511006864" fill="white" opacity="0.5299415490924966"  style="animation-delay: 4.382103148931856s" />
<circle cx="509.05267857332603" cy="166.47955399263026" r="1.220744261275512" fill="white" opacity="0.31632707196497906"  style="animation-delay: 1.1757287920267245s" />
<circle cx="602.8575854442087" cy="111.94215897189461" r="1.0685661165026867" fill="white" opacity="0.7967382013449928"  style="animation-delay: 3.455134501248247s" />
<circle cx="729.9748089702325" cy="47.90395238730491" r="0.9488844147566217" fill="white" opacity="0.6989635129907277"  style="animation-delay: 0.7392921341116598s" />
<circle cx="397.6538265608225" cy="129.3307780691854" r="1.2704106004516162" fill="white" opacity="0.7401551962834352"  style="animation-delay: 4.835406974552785s" />
<circle cx="462.8726492871277" cy="64.41483963259307" r="1.2677873857738802" fill="white" opacity="0.7922228971320422"  style="animation-delay: 0.806688349131931s" />
<circle cx="292.24858611799453" cy="20.037112890562003" r="1.9198312245618896" fill="white" opacity="0.5513890116649545" class="shimmer" style="animation-delay: 1.2164500069558326s" />
<circle cx="513.9680961239085" cy="131.60915842962808" r="0.8145056769454161" fill="white" opacity="0.524725021473452"  style="animation-delay: 0.9856940665819902s" />
<circle cx="100.71777152254775" cy="38.51647702990966" r="1.9915410168297987" fill="white" opacity="0.36927981533314297"  style="animation-delay: 2.408707684349812s" />
<circle cx="195.15232084232696" cy="46.8217490994554" r="1.7626586241295923" fill="white" opacity="0.6853543760611429"  style="animation-delay: 4.428800752383154s" />
<circle cx="377.23792762736343" cy="143.40582322076415" r="1.5685052527508065" fill="white" opacity="0.6733237498633289"  style="animation-delay: 3.9753665348140887s" />
<circle cx="375.7519768784192" cy="179.50359196095732" r="1.4938183792773794" fill="white" opacity="0.6350051366078893"  style="animation-delay: 0.3916384004043316s" />
<circle cx="549.6706070114249" cy="192.26566086928904" r="1.2245494367072376" fill="white" opacity="0.4677867681942571" class="shimmer" style="animation-delay: 2.2636078724928463s" />
<circle cx="384.2971194363127" cy="65.787467096074" r="0.5167312930053621" fill="white" opacity="0.7458461274984176"  style="animation-delay: 0.23575232930027945s" />
<circle cx="665.3500783241855" cy="163.01801282193887" r="1.3991387988441977" fill="white" opacity="0.4156036127484704"  style="animation-delay: 0.07872601383112188s" />
<circle cx="161.27348418247448" cy="95.69204578879736" r="1.6333101153493828" fill="white" opacity="0.685274946205513" class="shimmer" style="animation-delay: 0.37999402720761966s" />
<circle cx="677.4078424834591" cy="94.12013774591057" r="1.7533906325692408" fill="white" opacity="0.6673070337129254"  style="animation-delay: 1.3013147706316686s" />
<circle cx="386.38692090109646" cy="189.64647759967445" r="1.9324853103952095" fill="white" opacity="0.764144708378589"  style="animation-delay: 1.9089058480919818s" />
<circle cx="798.0509234477486" cy="81.42447386830081" r="1.0531053537503299" fill="white" opacity="0.5889966835785927"  style="animation-delay: 0.6917832548960978s" />
<circle cx="458.7515958828531" cy="163.65836568746076" r="1.2000801932089722" fill="white" opacity="0.6777715519585967"  style="animation-delay: 3.47029815386298s" />
<circle cx="43.59526530285631" cy="159.07012147470198" r="1.2043743271035128" fill="white" opacity="0.3541671888935061" class="shimmer" style="animation-delay: 3.3944418774386955s" />
<circle cx="618.2819797331737" cy="175.62187992515862" r="1.5775171352771804" fill="white" opacity="0.43420755030543917" class="shimmer" style="animation-delay: 1.502775522858889s" />
<circle cx="242.0502920448671" cy="59.13665985718968" r="0.7079899574585986" fill="white" opacity="0.5399006472933761"  style="animation-delay: 4.359797253688632s" />
<circle cx="428.49570995159286" cy="74.54466906347852" r="1.180941814271692" fill="white" opacity="0.5487382031221633"  style="animation-delay: 3.8641686697000885s" />
<circle cx="360.46455273744584" cy="133.42309261547675" r="1.4032856102934352" fill="white" opacity="0.617596229194582"  style="animation-delay: 0.5725932464828498s" />
<circle cx="564.7707028092268" cy="93.38576480656316" r="1.3533752541432933" fill="white" opacity="0.6775129725047393" class="shimmer" style="animation-delay: 0.8330554275980606s" />
<circle cx="611.873927762854" cy="30.17141371577363" r="1.1706964833287286" fill="white" opacity="0.7280918792662965"  style="animation-delay: 1.612626793282529s" />
<circle cx="695.4424229293984" cy="71.46520236358444" r="2.3839247718829526" fill="#9d4edd" opacity="0.8" filter="url(#glow)" class="shimmer" style="animation-delay: 1.302794824500349s" />
<circle cx="788.2575101677083" cy="126.04716292211333" r="2.2401792442804456" fill="#7b2cbf" opacity="0.8" filter="url(#glow)" class="shimmer" style="animation-delay: 0.8281556092767315s" />
<circle cx="157.40349318183533" cy="94.150425164172" r="2.0072235581218862" fill="#e0aaff" opacity="0.8" filter="url(#glow)" class="shimmer" style="animation-delay: 2.0878274821441227s" />
<circle cx="333.4188639064829" cy="159.39133359273066" r="2.8317104100782657" fill="#9d4edd" opacity="0.8" filter="url(#glow)" class="shimmer" style="animation-delay: 1.3721140519195214s" />
<circle cx="189.19011892180748" cy="118.75471636797496" r="1.137897660188357" fill="#7b2cbf" opacity="0.8" filter="url(#glow)" class="shimmer" style="animation-delay: 2.0683790365535435s" />
<circle cx="297.22077434913035" cy="147.32571421772303" r="2.1882091719623817" fill="#c77dff" opacity="0.8" filter="url(#glow)" class="shimmer" style="animation-delay: 0.5168564700070908s" />
<circle cx="175.9444060901659" cy="79.78659742213026" r="1.1177056594676853" fill="#c77dff" opacity="0.8" filter="url(#glow)" class="shimmer" style="animation-delay: 1.6803210567595694s" />
<circle cx="44.511053496217734" cy="158.4303687876886" r="1.7351192486682918" fill="#4a0080" opacity="0.8" filter="url(#glow)" class="shimmer" style="animation-delay: 2.322064354203317s" />
<line x1="548.0992994737408" y1="100.98376658136156" x2="496.95645645060216" y2="134.23670832970623" stroke="#e0aaff" stroke-width="0.5" opacity="0.3" />
<line x1="299.5340269479557" y1="165.5250765870954" x2="263.0252261821545" y2="145.6253835681019" stroke="#e0aaff" stroke-width="0.5" opacity="0.3" />

  
    <text x="400" y="120" text-anchor="middle" class="name-text" fill="url(#textGrad)" filter="url(#textGlow)">
      JOEL HOOKS
    </text>
  
</svg>
