<svg xmlns="http://www.w3.org/2000/svg" viewBox="0 0 800 200" width="800" height="200">
  <rect width="800" height="200" fill="#05010d"/>
  
    <defs>
      <linearGradient id="grad1" x1="0%" y1="0%" x2="100%" y2="100%">
        <stop offset="0%" style="stop-color:#4a0080;stop-opacity:0.8" />
        <stop offset="100%" style="stop-color:#7b2cbf;stop-opacity:0.8" />
      </linearGradient>
      <linearGradient id="grad2" x1="100%" y1="0%" x2="0%" y2="100%">
        <stop offset="0%" style="stop-color:#9d4edd;stop-opacity:0.7" />
        <stop offset="100%" style="stop-color:#c77dff;stop-opacity:0.7" />
      </linearGradient>
      <linearGradient id="textGrad" x1="0%" y1="0%" x2="100%" y2="0%">
        <stop offset="0%" style="stop-color:#4a0080" />
        <stop offset="25%" style="stop-color:#7b2cbf" />
        <stop offset="50%" style="stop-color:#9d4edd" />
        <stop offset="75%" style="stop-color:#c77dff" />
        <stop offset="100%" style="stop-color:#e0aaff" />
      </linearGradient>
      <filter id="glow">
        <feGaussianBlur stdDeviation="5" result="coloredBlur"/>
        <feMerge>
          <feMergeNode in="coloredBlur"/>
          <feMergeNode in="SourceGraphic"/>
        </feMerge>
      </filter>
      <filter id="textGlow">
        <feGaussianBlur stdDeviation="2" result="coloredBlur"/>
        <feMerge>
          <feMergeNode in="coloredBlur"/>
          <feMergeNode in="SourceGraphic"/>
        </feMerge>
      </filter>
    </defs>
  
  
    <style>
      @keyframes float {
        0%, 100% { transform: translateY(0px); }
        50% { transform: translateY(-8px); }
      }
      @keyframes pulse {
        0%, 100% { opacity: 0.4; }
        50% { opacity: 0.9; }
      }
      @keyframes drift {
        0% { transform: translateX(0px); }
        50% { transform: translateX(10px); }
        100% { transform: translateX(0px); }
      }
      @keyframes shimmer {
        0% { opacity: 0.3; }
        50% { opacity: 1; }
        100% { opacity: 0.3; }
      }
      @keyframes glitch {
        0%, 100% { transform: translateX(0); }
        20% { transform: translateX(-2px); }
        40% { transform: translateX(2px); }
        60% { transform: translateX(-1px); }
        80% { transform: translateX(1px); }
      }
      @keyframes dataStream {
        0% { stroke-dashoffset: 0; }
        100% { stroke-dashoffset: -20; }
      }
      .float { animation: float 8s ease-in-out infinite; }
      .pulse { animation: pulse 8s ease-in-out infinite; }
      .drift { animation: drift 8s ease-in-out infinite; }
      .shimmer { animation: shimmer 3s ease-in-out infinite; }
      .glitch { animation: glitch 0.5s ease-in-out infinite; }
      .dataStream { animation: dataStream 2s linear infinite; }
      .name-text { 
        font-family: -apple-system, BlinkMacSystemFont, 'Segoe UI', Helvetica, Arial, sans-serif;
        font-weight: 700;
        font-size: 64px;
        letter-spacing: -2px;
      }
    </style>
  
  <path d="M 351.9012001337039 147.4668322086407 C 348.2236537069285 166.06819406917538, 376.03571255956 179.1735636390493, 371.9083257844757 192.23827850991836 C 367.78093900939143 205.30299338078743, 344.94400109200956 222.97181525880276, 327.1368794831981 225.85512143385503 C 309.3297578743866 228.7384276089073, 282.4860846120913 222.60283043110098, 265.06559613160687 209.53811556023194 C 247.6451076511224 196.4734006893629, 222.98554533206863 168.52885672428172, 222.61394860029134 147.4668322086407 C 222.24235186851405 126.4048076929997, 245.41552726045867 93.00064475976436, 262.83601574094314 83.16596846638583 C 280.2565042214276 73.33129217300731, 305.28061471583385 88.88141796831552, 327.1368794831981 88.45877444836961 C 348.9931442505623 88.0361309284237, 389.8462175700441 70.7954310533319, 393.97360434512836 80.63010734671042 C 398.10099112021265 90.46478364008894, 355.5787465604794 128.86547034810604, 351.9012001337039 147.4668322086407 Z" fill="#9d4edd" opacity="0.10936013460370125" filter="url(#glow)" class="float" />
<path d="M 211.40321926056413 50.15233335611846 C 207.51940241981933 71.24543259164328, 173.49462270795854 94.36812139107988, 155.12553966806468 103.65490322680569 C 136.7564566281708 112.94168506253149, 119.75382754725086 101.0408808474428, 101.18872102120092 105.87302437047333 C 82.62361449515097 110.70516789350386, 58.26578976504274 137.2417400067895, 43.73490051176496 132.6477643649888 C 29.204011258487185 128.0537887231881, 20.4839939445423 97.30639937436798, 14.003385501534268 78.30917051966912 C 7.522777058526238 59.31194166497026, 1.3403881454137534 39.608194172356235, 4.85124985371678 18.664391236795623 C 8.362111562019807 -2.279411698764992, 17.766019872712526 -36.24678991272526, 35.06855575135243 -47.35364709369456 C 52.37109162999233 -58.46050427466386, 84.77315096535935 -52.05174433357875, 108.66646512555619 -47.97675184902019 C 132.55977928575302 -43.901759364461626, 161.30564835669875 -39.258539720532966, 178.42844071253342 -22.903692186343193 C 195.55123306836808 -6.5488446521534165, 215.28703610130893 29.059234120593647, 211.40321926056413 50.15233335611846 Z" fill="#c77dff" opacity="0.24648411603746048" filter="url(#glow)" class="float" />
<path d="M 202.57547912590175 132.84462575323337 C 203.88142151901084 156.82972860208525, 205.36648854459762 195.35176713592614, 190.68528444292627 208.08738164097883 C 176.00408034125493 220.82299614603153, 135.1940537293163 211.8210132230573, 114.48825451587368 209.2583127835495 C 93.78245530243105 206.69561234404173, 81.97842231712019 200.6124314109904, 66.45048916227049 192.7111790039321 C 50.92255600742078 184.8099265968738, 34.490413826233635 178.71866662281073, 21.32065558677546 161.85079834119966 C 8.150897347317283 144.9829300595886, -17.155236642502427 111.39872853632745, -12.568060274478569 91.5039693142657 C -7.980883906454711 71.60921009220395, 27.665527979347253 48.33984693936449, 48.84371379491861 42.482243008829144 C 70.02189961048995 36.6246390782938, 92.1667352373907 52.74259214121389, 114.50105461894955 56.35834573105362 C 136.8353740005084 59.974099320893345, 168.17055933311303 51.429051210837564, 182.84963008427172 64.17676454786752 C 197.5287008354304 76.92447788489748, 201.26953673279266 108.85952290438149, 202.57547912590175 132.84462575323337 Z" fill="#9d4edd" opacity="0.11088744186627289" filter="url(#glow)" class="float" />
<path d="M 165.84220252964167 26.862432575908677 C 163.90063772152382 45.01877777801279, 182.12685881766924 64.29779225801869, 176.13603364340648 76.44396923902559 C 170.1452084691437 88.5901462200325, 145.8942829847886 97.35293022713743, 129.897251484065 99.73949446195007 C 113.90021998334144 102.12605869676271, 97.84560776329639 97.24977104273891, 80.15384463906507 90.76335464790142 C 62.46208151483375 84.27693825306393, 35.35927701097269 77.93579739337514, 23.746672738677077 60.820996092925164 C 12.134068466381462 43.70619479247519, 2.809780356198611 7.385683695540145, 10.478219005291379 -11.92545315479844 C 18.146657654384146 -31.236590005137025, 49.679439846714956 -48.373564078225236, 69.75730463323369 -55.045825009106345 C 89.83516941975242 -61.71808593998745, 111.27405474792383 -55.71763924600299, 130.9454077244038 -51.95901874008511 C 150.61676070088376 -48.200398234167224, 181.96929002457387 -45.631010526264696, 187.78542249211353 -32.494101973599065 C 193.60155495965319 -19.357193420933434, 167.7837673377595 8.706087373804568, 165.84220252964167 26.862432575908677 Z" fill="#e0aaff" opacity="0.23047081156521604" filter="url(#glow)" class="float" />
<path d="M 666.045018851185 123.69949312469568 L 666.045018851185 123.69949312469568 L 666.4153211649365 123.73189037922636 L 666.7771580409225 123.82858901748044 L 667.1221714471756 123.98811529291643 L 667.4422170188075 124.20803166908154 L 667.7294680414565 124.48496468189228 L 667.9765160458795 124.8146435499916 L 668.1764669358504 125.19194914088105 L 668.3230316152908 125.61097279487406 L 668.4106101344944 126.0650844080051 L 668.434368438908 126.54700907982803 L 668.3903068766191 127.04891154345562 L 668.2753197017768 127.56248751408482 L 668.0872448998962 128.07906101940168 L 667.8249037565355 128.58968671137427 L 667.4881296922888 129.08525610464852 L 667.0777859934631 129.55660664259585 L 666.5957721782065 129.99463245847147 L 666.045018851185 130.3903956764712 L 665.4294710151021 130.7352370859745 L 664.7540599233374 131.0208850220709 L 664.0246636736397 131.23956129662966 L 663.2480568570628 131.3840830466192 L 662.4318496880805 131.44795939994475 L 661.5844171500013 131.42548190347398 L 660.7148187933801 131.31180771278645 L 659.8327099231052 131.1030346080398 L 658.9482450012567 130.79626697462393 L 658.0719741768144 130.38967197032 L 657.2147339289997 129.88252519174935 L 656.3875328777121 129.27524525117528 L 655.6014338715014 128.56941677931462 L 654.8674335102053 127.76780147978252 L 654.1963402952888 126.87433697512404 L 653.5986526256471 125.89412330203659 L 653.0844378698819 124.8333970332694 L 652.6632137476339 123.69949312469568 L 652.3438332423789 122.5007947070606 L 652.1343742461721 121.24667116178526 L 652.0420351033076 119.94740493782581 L 652.0730371749604 118.61410768083714 L 652.2325354909583 117.25862635568352 L 652.524538488323 115.89344014762423 L 652.9518377596688 114.53154902527126 L 653.5159486486026 113.1863549387146 L 654.2170624346379 111.87153670814857 L 655.0540107476593 110.60091973108688 L 656.0242427425118 109.38834169908505 L 657.1238154488176 108.24751556713909 L 658.3473975906583 107.19189106003459 L 659.6882870463618 106.23451602941496 L 661.138441991432 105.38789899285604 L 662.6885256387812 104.66387419152011 L 664.3279643610591 104.0734704958653 L 666.045018851185 103.62678546936912 L 667.8268678503722 103.33286586836226 L 669.6597038491582 103.19959581204506 L 671.5288400473794 103.2335938008749 L 673.4188277447798 103.44011969417004 L 675.3135832261049 103.8229926794915 L 677.1965231041441 104.38452117774993 L 679.0507069922289 105.12544552975422 L 680.8589862950674 106.04489420287513 L 682.6041578343509 107.14035414152971 L 684.269120964032 108.40765576326865 L 685.837036780221 109.84097297440294 L 687.2914879928253 111.43283844644056 L 688.6166380008236 113.17417425826115 L 689.7973877007668 115.05433787013615 L 690.819528558968 117.0611832556182 L 691.6698904919982 119.18113687722908 L 692.3364831275427 121.39928805301757 L 692.808629058287 123.69949312469568 L 693.0770877550457 126.06449270543516 L 693.1341688714733 128.47604115773174 L 692.9738337509492 130.91504733021466 L 692.5917840360116 133.36172546802692 L 691.9855363813667 135.7957551055234 L 691.1544823822145 138.1964486535426 L 690.0999329495518 140.54292530735913 L 688.8251464922438 142.81428982647947 L 687.3353404009698 144.98981467448044 L 685.6376854705134 147.04912395678093 L 683.7412830430973 148.972377557157 L 681.6571248053278 150.74045385041973 L 679.3980353235273 152.33512935931185 L 676.9785975554809 153.73925372857852 L 674.415061729587 154.93691840842212 L 671.7252381337144 155.91361747314664 L 668.9283745044153 156.65639904858068 L 666.045018851185 157.15400588357326 L 663.0968686888933 157.3970036760837 L 660.106607783086 157.3778958526217 L 657.0977316363415 157.09122360040328 L 654.0943630581174 156.53365006382344 L 651.1210592644495 155.70402773985495 L 648.2026120464503 154.6034482398089 L 645.363842626902 153.23527372648786 L 642.6293928914998 151.60514948499272 L 640.0235147347813 149.7209972410993 L 637.5698592998615 147.59298900192545 L 635.2912679152984 145.2335013582275 L 633.2095665413772 142.6570503547263 L 631.3453655315913 139.88020720294574 L 629.7178664930011 136.9214952787279 L 628.3446779915151 133.80126901242227 L 627.2416417950964 130.54157544228792 L 626.4226712797727 127.16599935947819 L 625.8996035405319 123.69949312469569 L 625.6820666522697 120.16819238085183 L 625.7773634156213 116.59921902153394 L 626.190372799534 113.02047290052752 L 626.9234701577561 109.46041388189178 L 627.9764671510482 105.94783593205243 L 629.3465721519881 102.51163504407317 L 631.0283717459674 99.18057285879321 L 633.0138337716497 95.98303790710922 L 635.2923321681625 92.94680644167317 L 637.8506937160539 90.09880485413396 L 640.6732665760336 87.4648756853837 L 643.7420103452666 85.06954923080417 L 647.0366071670271 82.9358227201244 L 650.5345932474164 81.08494901221073 L 654.2115099541338 79.53623668908243 L 658.0410734985298 78.30686336096932 L 661.9953620348502 77.41170390575608 L 666.045018851185 76.86317526226705 L 670.159470176581 76.67109927825305 L 674.3071559894096 76.84258498149427 L 678.4557720846776 77.38193149710128 L 682.5725215437252 78.2905526769658 L 686.624373649736 79.5669243395813 L 690.5783282076952 81.20655484141501 L 694.401683158707 83.20197951605286 L 698.0623033266728 85.54277932592218 L 701.5288881008263 88.21562387505436 L 704.7712358409849 91.20433873166326 L 707.7605027939223 94.4899968079248 L 710.4694543291602 98.05103334288953 L 712.8727063407338 101.86338383463004 L 714.9469547179709 105.90064407119068 L 716.6711908627416 110.13425121831995 L 718.0269013225491 114.53368473697776 L 718.9982497176519 119.06668572680886 L 719.5722392653892 123.69949312469565 L 719.7388543451549 128.3970950316439 L 719.491179702024 133.12349329798315 L 718.8254960547227 137.84197936751286 L 717.7413510532159 142.51541926697226 L 716.2416047212769 147.10654552915457 L 714.3324487185494 151.57825375709362 L 712.0233989632532 155.89390147383716 L 709.3272613691967 160.0176068580849 L 706.2600706674452 163.9145449409558 L 702.8410025021187 167.55123883373383 L 699.0922592095753 170.8958435708584 L 695.038929908879 173.91842018675456 L 690.7088257471584 176.59119769922205 L 686.1322913544262 178.88882074578277 L 681.3419937668854 180.7885807121957 L 676.3726902739658 182.27062830369744 L 671.2609768306241 183.3181656386899 L 666.0450188511851 183.91761609067535 L 660.7642663626846 184.0587702661929 L 655.4591556428347 183.73490668317248 L 650.1707995990431 182.94288590417688 L 644.9406692591721 181.6832170810277 L 639.8102688408184 179.96009607976515 L 634.8208069428991 177.78141457614376 L 630.012866460424 175.15873974018928 L 625.4260758598945 172.10726436194565 L 621.0987844683059 168.6457275075747 L 617.0677444229086 164.7963060335309 L 613.367801901597 160.58447752470553 L 610.0316002050423 156.03885545827734 L 607.0892971916811 151.19099762657697 L 604.5682994757968 146.0751890776733 L 602.4930156877415 140.72820104972052 L 600.8846309645455 135.18902758253938 L 599.7609046896634 129.498601685687 L 599.1359933334298 123.69949312469572 L 599.0203000621605 117.8355900546432 L 599.4203525850704 111.95176688128264 L 600.3387104957603 106.09354086322939 L 601.773903140552 100.30672008294644 L 603.720398811138 94.63704550842122 L 606.1686058156531 89.12982994052223 L 609.1049057322662 83.82959669231505 L 612.5117188946967 78.77972087550386 L 616.367601901687 74.02207617519798 L 620.6473766844484 69.59668997718114" fill="none" stroke="#4a0080" stroke-width="1" opacity="0.3" class="drift" />
<path d="M 206.051491025047 146.7220997125271 L 206.051491025047 146.7220997125271 L 206.44587576768794 146.75660390657578 L 206.83124452698092 146.85959129321995 L 207.19869571045933 147.02949228153653 L 207.5395552884692 147.26371081108803 L 207.84548754012891 147.55865402621316 L 208.1086021900409 147.9097733973893 L 208.32155678782095 148.3116168718532 L 208.4776532291199 148.75789152314093 L 208.57092737425566 149.24153606173576 L 208.5962307883143 149.75480246761825 L 208.54930370398802 150.2893459111719 L 208.42683839477144 150.83632204251492 L 208.22653224063077 151.38649065174005 L 207.9471298700103 151.93032463450473 L 207.58845387009416 152.4581231395887 L 207.1514236705899 152.96012772799853 L 206.6380623238744 153.42664033742312 L 206.051491025047 153.8481418217004 L 205.39591133812223 154.21540982270503 L 204.6765752181184 154.51963473186638 L 203.89974304198097 154.75253251041335 L 203.07262998296187 154.9064531613491 L 202.20334118209107 154.97448368190385 L 201.30079628559812 154.95054437250275 L 200.37464402745377 154.82947743671983 L 199.435167640552 154.60712687576407 L 198.493181977421 154.2804087601531 L 197.5599233107918 153.84737104967553 L 196.64693286498346 153.30724222973524 L 195.76593520007745 152.6604681368382 L 194.9287126315392 151.90873645738074 L 194.14697691766955 151.05498850101458 L 193.43223948551147 150.10341797163085 L 192.79568149217025 149.05945658430574 L 192.24802503261398 147.92974650423062 L 191.79940680670038 146.7220997125271 L 191.4592555473321 145.44544453272624 L 191.23617448830237 144.10975967936272 L 191.1378301146868 142.7259963154045 L 191.1708483908252 141.30598872691775 L 191.3407196013754 139.86235434030132 L 191.65171287008963 138.40838391849155 L 192.10680133943552 136.95792287666674 L 192.70759890264597 135.52524475415098 L 193.45430927900364 134.12491796648376 L 194.3456881140174 132.77166703910783 L 195.37901866957174 131.48022959104478 L 196.55010154614925 130.26521039257582 L 197.8532587509235 129.14093386472445 L 199.2813522930353 128.12129641974985 L 200.82581735188666 127.21962006051763 L 202.4767099270326 126.44850866224499 L 204.22276874046742 125.81970835255711 L 206.051491025047 125.34397338500716 L 207.94922169772394 125.03093886727522 L 209.9012552844471 124.88900165837713 L 211.89194983622622 124.92521068969299 L 213.90485195418054 125.14516789290548 L 215.92283192654264 125.55294083456064 L 217.9282278736692 126.150988062588 L 219.90299769917448 126.94009806549685 L 221.82887755730425 127.919342630962 L 223.68754546950768 129.0860452680664 L 225.4607886576303 130.43576522761637 L 227.13067310794807 131.9622975187847 L 228.67971383998002 133.65768917904268 L 230.0910443271445 135.51227190913374 L 231.34858350322406 137.5147110369912 L 232.43719878953038 139.65207062531016 L 233.34286359273446 141.9098943882769 L 234.05280775255397 144.2723019350714 L 234.55565946174025 146.7220997125271 L 234.84157723783585 149.24090587808013 L 234.9023705966023 151.80928819816296 L 234.73160816035505 154.40691393776288 L 234.32471203006844 157.01271058518486 L 233.6790373573083 159.60503614329258 L 232.79393616996785 162.16185761573593 L 231.670804633496 164.66093622492167 L 230.31311306577615 167.08001781866548 L 228.72641816792503 169.3970268554051 L 226.91835708383886 171.59026230427446 L 224.8986230570565 173.63859375684692 L 222.67892261311806 175.52165602244185 L 220.27291435771022 177.22004046891942 L 217.69612964410712 178.71548137610398 L 214.96587552632053 179.99103558948443 L 212.10112057553292 181.0312537976199 L 209.12236429537882 181.82234180757104 L 206.051491025047 182.3523102583937 L 202.9116093666179 182.6111112928529 L 199.72687831317538 182.59076080148776 L 196.52232138575465 182.28544496030906 L 193.32363020886504 181.69160990294836 L 190.15695906501168 180.80803349908325 L 187.04871206725153 179.6358783524297 L 184.02532467438533 178.17872528239488 L 181.11304134502748 176.44258671242034 L 178.33769118375162 174.43589955382242 L 175.72446347413558 172.16949734520014 L 173.29768501930843 169.65656158280376 L 171.0806012201505 166.9125523551848 L 169.0951628143598 163.95511857446013 L 167.3618201760703 160.8039882751114 L 165.89932703561576 157.48083962785722 L 164.72455542254886 154.00915348924877 L 163.8523235624661 150.41404847573497 L 163.2952383700071 146.72209971252713 L 163.06355407718422 142.96114256122192 L 163.16504841868098 139.16006277441974" fill="none" stroke="#9d4edd" stroke-width="1" opacity="0.3" class="drift" />
<circle cx="429.4522336777874" cy="12.908055644722616" r="0.5088821522149009" fill="white" opacity="0.7515200505486808"  style="animation-delay: 1.0539682929331518s" />
<circle cx="81.44805758984486" cy="168.32759311188448" r="1.6729171312988766" fill="white" opacity="0.510142991231002" class="shimmer" style="animation-delay: 4.62294786773906s" />
<circle cx="583.566402498011" cy="196.42416661383058" r="1.4817517816757566" fill="white" opacity="0.5518701339972412"  style="animation-delay: 4.818043088244323s" />
<circle cx="711.5246377567962" cy="65.43343727176558" r="1.4867419768726973" fill="white" opacity="0.5500601340014988" class="shimmer" style="animation-delay: 1.706396412707436s" />
<circle cx="243.1689838092634" cy="174.2802803966126" r="1.7250119325478446" fill="white" opacity="0.7908705531808453"  style="animation-delay: 1.8878477759680556s" />
<circle cx="317.74606642800035" cy="181.23848167947378" r="1.3678999102956304" fill="white" opacity="0.5788234290075374" class="shimmer" style="animation-delay: 3.6244677228351585s" />
<circle cx="694.142333213438" cy="171.06301163126264" r="0.8879139918479858" fill="white" opacity="0.4636904750857828"  style="animation-delay: 4.47008301448062s" />
<circle cx="750.2334859251416" cy="85.5014675982396" r="0.5226726448660831" fill="white" opacity="0.5636949953705421"  style="animation-delay: 4.5041054498767075s" />
<circle cx="596.5046761537934" cy="196.44121258039732" r="0.5077913287792963" fill="white" opacity="0.31069900653316035"  style="animation-delay: 4.3161376344578315s" />
<circle cx="167.26750582572868" cy="11.560485485324579" r="1.4448234325680485" fill="white" opacity="0.44115765777466537"  style="animation-delay: 0.0743879034627648s" />
<circle cx="679.6199392302213" cy="169.452047564508" r="1.7208065067688074" fill="white" opacity="0.6503347429172313" class="shimmer" style="animation-delay: 0.8461882836278467s" />
<circle cx="760.2468890299585" cy="62.50649765935532" r="1.6174717754676027" fill="white" opacity="0.7312401770282646" class="shimmer" style="animation-delay: 4.421319230232096s" />
<circle cx="101.70794655484734" cy="199.8994645704793" r="0.5826647551561568" fill="white" opacity="0.48588385857460553" class="shimmer" style="animation-delay: 2.9804987924296187s" />
<circle cx="638.0618138641737" cy="23.918850176563254" r="0.6284611425635693" fill="white" opacity="0.44005251895337055"  style="animation-delay: 3.003040441666216s" />
<circle cx="766.3338822545047" cy="104.17971402741327" r="1.5684049917896568" fill="white" opacity="0.48565849141621903"  style="animation-delay: 3.59593961985353s" />
<circle cx="384.75404830740274" cy="39.084218537303705" r="1.4066109347396174" fill="white" opacity="0.40438111500841073"  style="animation-delay: 0.5334430995771899s" />
<circle cx="343.37036753778756" cy="10.820018822663569" r="1.0333433565086887" fill="white" opacity="0.4379487556917903"  style="animation-delay: 1.1188831563694979s" />
<circle cx="681.5435074042423" cy="134.25791939105895" r="1.4483881258187739" fill="white" opacity="0.7741076860564398"  style="animation-delay: 0.867151925007914s" />
<circle cx="176.4640713755494" cy="153.0109606481963" r="1.8042255900090232" fill="white" opacity="0.5772528463342348"  style="animation-delay: 3.324426168344594s" />
<circle cx="44.450680155634004" cy="52.08096268078846" r="1.587843350986697" fill="white" opacity="0.5107346667500727" class="shimmer" style="animation-delay: 1.039635858628123s" />
<circle cx="477.5053762173226" cy="90.28653785600791" r="1.956104817687244" fill="white" opacity="0.512763211371452" class="shimmer" style="animation-delay: 4.8846580652351355s" />
<circle cx="171.4162469570283" cy="150.20024893006436" r="1.009200148624871" fill="white" opacity="0.49189903336564095" class="shimmer" style="animation-delay: 4.855637042900311s" />
<circle cx="122.97904398495483" cy="190.9970801062578" r="1.5916734478124004" fill="white" opacity="0.32101124887278537" class="shimmer" style="animation-delay: 0.47400109654299416s" />
<circle cx="429.44675531671913" cy="83.73918477718077" r="0.8461953727548378" fill="white" opacity="0.696268174811596"  style="animation-delay: 3.877664950835009s" />
<circle cx="642.3188931777557" cy="26.662067429859484" r="1.0467709360969772" fill="white" opacity="0.6367685653075206"  style="animation-delay: 1.3017707542820522s" />
<circle cx="99.95326444932661" cy="45.51917082614567" r="1.3019566554908617" fill="white" opacity="0.5270654496004945" class="shimmer" style="animation-delay: 2.396729538431799s" />
<circle cx="469.06114553421327" cy="167.3657471856286" r="1.6386718469176498" fill="white" opacity="0.7638908679032415"  style="animation-delay: 3.441368473952491s" />
<circle cx="240.11707954325738" cy="169.8907171904984" r="1.4125688770655518" fill="white" opacity="0.5367779141312283" class="shimmer" style="animation-delay: 3.8676592152042346s" />
<circle cx="490.0133266832274" cy="149.33237786712553" r="1.814205306326526" fill="white" opacity="0.6448881789794789"  style="animation-delay: 0.6815211377403985s" />
<circle cx="314.6756137772817" cy="51.69515651567682" r="1.5155071400481326" fill="white" opacity="0.34318534281504737"  style="animation-delay: 2.5181734531441604s" />
<circle cx="627.8150908947721" cy="48.47222473614976" r="0.9907410106460444" fill="white" opacity="0.6461148664820429"  style="animation-delay: 2.3981182492118105s" />
<circle cx="489.7274801238318" cy="52.516321674472046" r="1.5663314013130605" fill="white" opacity="0.6060558577965252"  style="animation-delay: 0.17418892802835595s" />
<circle cx="4.795034906410756" cy="144.58498213878377" r="1.8984850651187468" fill="white" opacity="0.40210496146700164"  style="animation-delay: 0.4276043294063714s" />
<circle cx="191.49190071729603" cy="161.44659277250017" r="1.2422229442534611" fill="white" opacity="0.7603891355311689"  style="animation-delay: 1.9447123392412158s" />
<circle cx="698.2618657297087" cy="144.36790981927055" r="0.6136098724175026" fill="white" opacity="0.729135471607864"  style="animation-delay: 2.0983838850929972s" />
<circle cx="394.8572928124525" cy="182.5114723906311" r="0.9686825593671248" fill="white" opacity="0.7375921307409203"  style="animation-delay: 0.0331228896864888s" />
<circle cx="109.09640913512106" cy="1.8248111995228466" r="1.7150270826285618" fill="white" opacity="0.3638510830471657"  style="animation-delay: 2.4237900105462473s" />
<circle cx="175.29834683565397" cy="1.4580076431371491" r="0.8806454193773765" fill="white" opacity="0.6131818132084843"  style="animation-delay: 4.378356518460408s" />
<circle cx="91.56211511913153" cy="26.60567456964764" r="1.909505095193124" fill="white" opacity="0.46427064106558774"  style="animation-delay: 2.541959559842221s" />
<circle cx="307.55993885334584" cy="196.72198551820023" r="1.0237795864884751" fill="white" opacity="0.33906814531100377" class="shimmer" style="animation-delay: 1.7645142724962137s" />
<circle cx="795.6550303079117" cy="178.43242294010057" r="1.9107118681223834" fill="#e0aaff" opacity="0.8" filter="url(#glow)" class="shimmer" style="animation-delay: 0.6953074814530384s" />
<circle cx="461.94107718775007" cy="187.16986841337916" r="1.0390852626929488" fill="#e0aaff" opacity="0.8" filter="url(#glow)" class="shimmer" style="animation-delay: 1.0300546800642556s" />
<circle cx="147.75119674838012" cy="185.41384279886722" r="2.05246025756348" fill="#e0aaff" opacity="0.8" filter="url(#glow)" class="shimmer" style="animation-delay: 1.2746783891136737s" />
<circle cx="439.850052509793" cy="160.76233813206557" r="1.8061814664062372" fill="#9d4edd" opacity="0.8" filter="url(#glow)" class="shimmer" style="animation-delay: 2.1305216527912085s" />
<circle cx="612.0196310240399" cy="9.369218155712433" r="2.051642491230774" fill="#4a0080" opacity="0.8" filter="url(#glow)" class="shimmer" style="animation-delay: 2.8148039381420684s" />
<circle cx="470.7109775712395" cy="142.37179315482663" r="2.1874386587921038" fill="#e0aaff" opacity="0.8" filter="url(#glow)" class="shimmer" style="animation-delay: 1.908469280816053s" />
<circle cx="322.65349204228573" cy="105.54307130982399" r="2.7662878056956486" fill="#9d4edd" opacity="0.8" filter="url(#glow)" class="shimmer" style="animation-delay: 2.1316565933557494s" />
<circle cx="154.6795884636577" cy="186.68437995260544" r="1.38434861481751" fill="#e0aaff" opacity="0.8" filter="url(#glow)" class="shimmer" style="animation-delay: 0.10641501885464355s" />
<line x1="333.63571717157134" y1="54.71929514125486" x2="257.7593450496961" y2="88.6520943210592" stroke="#e0aaff" stroke-width="0.5" opacity="0.3" />
<line x1="257.7593450496961" y1="88.6520943210592" x2="542.5578841147292" y2="48.8333748093032" stroke="#e0aaff" stroke-width="0.5" opacity="0.3" />
<line x1="478.04342861835715" y1="86.3490509022698" x2="610.3307666194812" y2="107.43174803621062" stroke="#e0aaff" stroke-width="0.5" opacity="0.3" />
<line x1="610.3307666194812" y1="107.43174803621062" x2="226.97701511725728" y2="72.70298859662125" stroke="#e0aaff" stroke-width="0.5" opacity="0.3" />

  
    <text x="400" y="120" text-anchor="middle" class="name-text" fill="url(#textGrad)" filter="url(#textGlow)">
      JOEL HOOKS
    </text>
  
</svg>
