<svg xmlns="http://www.w3.org/2000/svg" viewBox="0 0 800 200" width="800" height="200">
  <rect width="800" height="200" fill="#05010d"/>
  
    <defs>
      <linearGradient id="grad1" x1="0%" y1="0%" x2="100%" y2="100%">
        <stop offset="0%" style="stop-color:#4a0080;stop-opacity:0.8" />
        <stop offset="100%" style="stop-color:#7b2cbf;stop-opacity:0.8" />
      </linearGradient>
      <linearGradient id="grad2" x1="100%" y1="0%" x2="0%" y2="100%">
        <stop offset="0%" style="stop-color:#9d4edd;stop-opacity:0.7" />
        <stop offset="100%" style="stop-color:#c77dff;stop-opacity:0.7" />
      </linearGradient>
      <linearGradient id="textGrad" x1="0%" y1="0%" x2="100%" y2="0%">
        <stop offset="0%" style="stop-color:#4a0080" />
        <stop offset="25%" style="stop-color:#7b2cbf" />
        <stop offset="50%" style="stop-color:#9d4edd" />
        <stop offset="75%" style="stop-color:#c77dff" />
        <stop offset="100%" style="stop-color:#e0aaff" />
      </linearGradient>
      <filter id="glow">
        <feGaussianBlur stdDeviation="5" result="coloredBlur"/>
        <feMerge>
          <feMergeNode in="coloredBlur"/>
          <feMergeNode in="SourceGraphic"/>
        </feMerge>
      </filter>
      <filter id="textGlow">
        <feGaussianBlur stdDeviation="2" result="coloredBlur"/>
        <feMerge>
          <feMergeNode in="coloredBlur"/>
          <feMergeNode in="SourceGraphic"/>
        </feMerge>
      </filter>
    </defs>
  
  
    <style>
      @keyframes float {
        0%, 100% { transform: translateY(0px); }
        50% { transform: translateY(-8px); }
      }
      @keyframes pulse {
        0%, 100% { opacity: 0.4; }
        50% { opacity: 0.9; }
      }
      @keyframes drift {
        0% { transform: translateX(0px); }
        50% { transform: translateX(10px); }
        100% { transform: translateX(0px); }
      }
      @keyframes shimmer {
        0% { opacity: 0.3; }
        50% { opacity: 1; }
        100% { opacity: 0.3; }
      }
      @keyframes glitch {
        0%, 100% { transform: translateX(0); }
        20% { transform: translateX(-2px); }
        40% { transform: translateX(2px); }
        60% { transform: translateX(-1px); }
        80% { transform: translateX(1px); }
      }
      @keyframes dataStream {
        0% { stroke-dashoffset: 0; }
        100% { stroke-dashoffset: -20; }
      }
      .float { animation: float 8s ease-in-out infinite; }
      .pulse { animation: pulse 8s ease-in-out infinite; }
      .drift { animation: drift 8s ease-in-out infinite; }
      .shimmer { animation: shimmer 3s ease-in-out infinite; }
      .glitch { animation: glitch 0.5s ease-in-out infinite; }
      .dataStream { animation: dataStream 2s linear infinite; }
      .name-text { 
        font-family: -apple-system, BlinkMacSystemFont, 'Segoe UI', Helvetica, Arial, sans-serif;
        font-weight: 700;
        font-size: 64px;
        letter-spacing: -2px;
      }
    </style>
  
  <path d="M 112.81925343918378 24.739932345332072 C 109.92716601787849 41.29284612799121, 119.75092141419651 57.27146998253474, 112.94075919238675 65.7224114293936 C 106.13059697057699 74.17335287625247, 83.78757099780387 77.27711649836044, 71.95828010832521 75.44558102648526 C 60.12898921884655 73.61404555461007, 53.5532408254081 63.18414004500138, 41.96501385551477 54.733198598142515 C 30.376786885621435 46.28225715128365, 3.7205655883054414 36.02933506227578, 2.428918288965221 24.73993234533208 C 1.1372709896250004 13.450529628388379, 22.626903089580118 0.15768430174933457, 34.215130059473445 -13.003217703519688 C 45.80335702936677 -26.16411970878871, 55.945254498201024 -50.7935040924418, 71.9582801083252 -54.225479686282064 C 87.97130571844937 -57.65745528012233, 123.48312149840875 -46.755973271830285, 130.2932837202185 -33.59507126656126 C 137.1034459420283 -20.43416926129224, 115.71134086048907 8.187018562672929, 112.81925343918378 24.739932345332072 Z" fill="#e0aaff" opacity="0.21875982795964183" filter="url(#glow)" class="float" />
<path d="M 272.8458106493092 73.46136150651543 C 271.40575657371147 90.45514859798726, 298.6522701444497 110.8402407029977, 294.74481257335475 121.66632310273428 C 290.8373550022598 132.49240550247086, 264.0860143689575 131.2650801583006, 249.40106522273965 138.4178559049349 C 234.7161160765218 145.5706316515692, 220.06948991871548 165.61077063203902, 206.63511769604773 164.58297758254002 C 193.20074547337998 163.55518453304103, 181.35047366382025 143.11021591624535, 168.79483188673322 132.251097607941 C 156.2391901096462 121.39197929963665, 139.86053339320642 114.23275149136886, 131.30126703352562 99.42826773271388 C 122.74200067384481 84.6237839740589, 109.66443389608044 55.78935153811787, 117.43923372864842 43.424195056011094 C 125.2140335612164 31.059038573904317, 162.1027584089914 28.592791527446664, 177.95006602893346 25.23732884007321 C 193.79737364887552 21.881866152699757, 198.6831997375593 30.30929449966564, 212.52307944830085 23.291418931770373 C 226.3629591590424 16.273543363875106, 245.845668030276 -16.271954837653876, 260.9893442933827 -16.869924567298384 C 276.13302055648944 -17.46789429694289, 301.4090593009534 4.648386208267686, 303.38513702694115 19.70360055390332 C 305.3612147529289 34.758814899538955, 274.28586472490696 56.4675744150436, 272.8458106493092 73.46136150651543 Z" fill="#c77dff" opacity="0.2479980705880009" filter="url(#glow)" class="float" />
<path d="M 222.81833147565536 86.39606817644689 C 217.58136882505156 105.99861380667522, 205.82175308931036 125.97296940459951, 192.82742719803042 132.02070478129932 C 179.83310130675048 138.06844015799913, 159.68042685344398 120.29987609657275, 144.8523761279757 122.68248043664573 C 130.02432540250743 125.06508477671872, 120.3296839582751 146.75740239662323, 103.85912284522078 146.31633082173724 C 87.38856173216647 145.87525924685124, 47.51637351749843 132.66270815820155, 46.02900944964976 120.03605098732983 C 44.5416453818011 107.4093938164581, 83.51426721486794 83.06269499207468, 94.93493843812877 70.55638779650694 C 106.3556096613896 58.05008060093919, 104.9462724578544 55.70602154970714, 114.55303678921469 44.998207813923344 C 124.15980112057497 34.29039407813955, 134.292830040884 11.408301517469827, 152.57552442629043 6.309505381804158 C 170.85821881169684 1.2107092461384896, 212.54206859342574 1.0576705341555481, 224.24920310165322 14.405430999929337 C 235.9563376098807 27.753191465703125, 228.05529412625916 66.79352254621855, 222.81833147565536 86.39606817644689 Z" fill="#7b2cbf" opacity="0.16978045439130368" filter="url(#glow)" class="float" />
<path d="M 199.36301094178367 74.76556779449166 C 191.74591608428938 97.94183213452742, 183.95057984686127 113.27776199002169, 172.75029268987402 129.60873194169545 C 161.55000553288676 145.9397018933692, 149.7777740813098 158.289270865848, 132.16128799986015 172.75138750453425 C 114.5448019184105 187.2135041432205, 86.24653645544592 219.16711682910284, 67.05137620117613 216.3814317738129 C 47.85621594690633 213.59574671852295, 32.26790230801564 174.157584591824, 16.990326474241414 156.0372771727945 C 1.7127506404671848 137.916969753765, -20.350957823371914 125.90294805999889, -24.614078801469248 107.65958725963591 C -28.87719977956658 89.41622645927293, -13.537544322591486 67.89545665885103, -8.588399394342588 46.577112370616646 C -3.639254466093689 25.258768082382264, -7.878929572847403 -3.8017127458352533, 5.080790768024144 -20.250478469770385 C 18.040511108895693 -36.69924419370552, 49.241434706474706 -54.361130339975794, 69.16992265088669 -52.11548197299415 C 89.09841059529867 -49.8698336060125, 99.77122857050385 -13.887692913626331, 124.65171843449605 -6.776588267880484 C 149.53220829848823 0.3345163778653628, 206.0009797502919 -23.039213442247757, 218.45286183483984 -9.448854098519064 C 230.90474391938778 4.141505245209627, 206.98010579927796 51.5893034544559, 199.36301094178367 74.76556779449166 Z" fill="#4a0080" opacity="0.21731862666391635" filter="url(#glow)" class="float" />
<path d="M 435.7042949134701 87.32792600656576 L 435.7042949134701 87.32792600656576 L 435.93186034573046 87.34783540209892 L 436.15422343133287 87.40726054365514 L 436.3662478287345 87.50529575563829 L 436.562928503272 87.64044307539478 L 436.7394556291064 87.81062937568815 L 436.89127640858254 88.01323009229203 L 437.01415414662875 88.24509931561704 L 437.10422394471635 88.50260594035886 L 437.1580444120458 88.78167550514145 L 437.1726448307115 89.07783729562358 L 437.14556725626494 89.38627623010078 L 437.07490308492265 89.70188899679066 L 436.95932367318835 90.01934386722003 L 436.7981046543717 90.33314357087237 L 436.5911436588328 90.6376905828879 L 436.33897121018515 90.92735414946804 L 436.0427546375338 91.19653835499214 L 435.7042949134701 91.43975052092341 L 435.3260163983401 91.6516692195129 L 434.9109495425763 91.82721118519362 L 434.4627066699624 91.96159641341674 L 433.98545103491045 92.05041075047613 L 433.4838594155071 92.08966529849255 L 432.963078570565 92.07585198701554 L 432.4286759525727 92.00599469641807 L 431.88658512864254 91.87769535811609 L 431.34304641774304 91.68917450229283 L 430.8045433041082 91.4393057748416 L 430.27773523324146 91.12764400120676 L 429.7693874379079 90.75444643519714 L 429.2862984765253 90.32068689512462 L 428.83522619505504 89.82806255719794 L 428.4228128455614 89.2789932463636 L 428.05551010980275 88.67661313708521 L 427.73950478435694 88.02475485022634 L 427.4806458847548 87.32792600656576 L 427.2843739198362 86.59127837183887 L 427.1556530740772 85.82056980186755 L 427.0989070150326 85.02211926862287 L 427.1179590154512 84.20275531827554 L 427.21597704525277 83.36975837976212 L 427.395424447683 82.53079740648184 L 427.65801676692416 81.69386139382223 L 428.00468524161573 80.86718637070372 L 428.43554742059166 80.05917851368731 L 428.9498852941598 79.27833407689981 L 429.54613126698297 78.53315686964342 L 430.2218622276599 77.83207404566619 L 430.9738018960706 77.18335099333044 L 431.7978315531073 76.5950061340422 L 432.6890091792371 76.0747264470705 L 433.6415969491462 75.62978454213334 L 434.64909695021265 75.26695809676586 L 435.7042949134701 74.99245246349281 L 436.79931166779386 74.81182723224511 L 437.92566195197276 74.72992750640776 L 439.0743201458482 74.75082061654165 L 440.23579241149093 74.87773895443841 L 441.4001946691144 75.1130295620579 L 442.55733577073283 75.4581110554413 L 443.6968051780598 75.91343840332613 L 444.8080644003666 76.47847601440729 L 445.88054140349993 77.15167951653594 L 446.9037271634401 77.93048653622097 L 447.8672735070861 78.8113167082325 L 448.761091359707 79.78958106357672 L 449.575448502996 80.85970086032565 L 450.30106594010215 82.01513583647238 L 450.92921196455194 83.24842177789756 L 451.45179303866763 84.55121720843746 L 451.8614406039568 85.91435892371143 L 452.1515929709007 87.32792600656576 L 452.3165714684775 88.78131188048641 L 452.3516500743932 90.2633038788728 L 452.2531177950808 91.76216973337901 L 452.0183331197059 93.2657503143172 L 451.6457699342685 94.76155789105067 L 451.1350543499319 96.23687912100732 L 450.4869919734034 97.67888192300157 L 449.7035852259326 99.07472534449674 L 448.7880404006513 100.41167149374695 L 447.74476423484936 101.67719857683986 L 446.5793498636495 102.85911405687541 L 445.298552113638 103.94566693814001 L 443.9102521885508 104.92565817238216 L 442.4234118932941 105.7885481873063 L 440.8480176365735 106.52456054923414 L 439.19501454540284 107.12478079252834 L 437.47623111592134 107.58124947773918 L 435.7042949134701 107.88704857835401 L 433.8925399199526 108.03638034225993 L 432.05490620735867 108.02463782825392 L 430.2058326922217 107.848466379763 L 428.3601437959881 107.50581536691008 L 426.5329309001446 106.99597960365469 L 424.73942954184974 106.31962992836492 L 422.9948933451882 105.47883252319272 L 421.31446572450466 104.47705663933237 L 419.7130504291375 103.31917049089833 L 418.20518202289196 102.01142517897951 L 416.8048974064668 100.56142660859132 L 415.5256094965585 98.97809546391244 L 414.37998417136316 97.27161541048712 L 413.3798215786211 95.45336979612036 L 412.53594287921516 93.53586722410434 L 411.85808346674247 91.53265647230289 L 411.3547936616099 89.45823132861383 L 411.0333478273242 87.32792600656578 L 410.89966279708915 85.15780189345139 L 410.9582264310169 82.96452646664989 L 411.21203704868634 80.7652452908821 L 411.66255439901727 78.57744807935315 L 412.30966274009063 76.41882986439963 L 413.15164650633363 74.30714837776651 L 414.18517894014946 72.26007878643772 L 415.4053239603994 70.29506696656587 L 416.80555143198615 68.42918252508179 L 418.3777658900219 66.67897279568352 L 420.1123486595984 65.0603190428688 L 421.9982131989446 63.58829610431683 L 424.0228733807081 62.277036688168295 L 426.1725243141849 61.13960151760824 L 428.43213520149635 60.187856480724264 L 430.7855536139286 59.43235789907304 L 433.21562047182516 58.88224697401883 L 435.7042949134701 58.545154406062196 L 438.23278814618135 58.42711610949807 L 440.7817052871904 58.532500863347465 L 443.3311941235889 58.8639506501954 L 445.86109965041334 59.42233433800446 L 448.3511231844769 60.20671525689577 L 450.78098479944816 61.21433311409193 L 453.13058778544433 62.440600576551496 L 455.38018380450444 63.879114733190995 L 457.51053739210545 65.52168352793043 L 459.50308844465644 67.3583671320831 L 461.3401113338607 69.37753410084794 L 463.0048693010564 71.56593203486143 L 464.4817628081581 73.90877234496315 L 465.7564705565361 76.38982859754991 L 466.8160819308982 78.99154780015682 L 467.6492196817279 81.6951738732198 L 468.24615172670383 84.480882445324 L 468.5988910283313 87.32792600656575 L 468.7012825912246 90.21478835887386 L 468.5490767174535 93.11934721409051 L 468.13998776142705 96.01904371111974 L 467.4737377361399 98.89105755323958 L 466.5520842394306 101.71248640641319 L 465.3788322912813 104.46052814972262 L 463.95982980017806 107.11266453038607 L 462.30294650714893 109.64684474863463 L 460.4180363892569 112.04166748235244 L 458.31688363898724 114.27655985805615 L 456.013132471034 116.33195188365006 L 453.5222011423533 118.18944487948933 L 450.86118070391336 119.83197247754428 L 448.0487191322165 121.24395280374026 L 445.1048916143143 122.41143051558038 L 442.0510578806205 123.32220743558862 L 438.90970759430877 123.96596060048621 L 435.7042949134702 124.33434663578463 L 432.45906344156515 124.42109146500697 L 429.198862872141 124.22206447131421 L 425.9489587144809 123.73533634610924 L 422.7348365570657 122.96121998334405 L 419.58200238478213 121.90229390881682 L 416.51578051313436 120.56340786971424 L 413.5611107378037 118.95167034996739 L 410.74234632036683 117.07641792054866 L 408.083054440532 114.94916647950384 L 405.6058207416757 112.58354458311742 L 403.33205957969216 109.99520921597582 L 401.2818315552092 107.20174449262774 L 399.4736698662011 104.22254392584969 L 397.92441696218714 101.07867703504277 L 396.6490729128689 97.79274120184508 L 395.6606568236822 94.38869980752064 L 394.9700825388629 90.89170780700132 L 394.5860497698936 87.32792600656579 L 394.5149516743421 83.724325415064 L 394.76079978795656 80.10848313143224 L 395.32516708234004 76.50837131314144 L 396.2071497825833 72.95214084043076" fill="none" stroke="#4a0080" stroke-width="1" opacity="0.3" class="drift" />
<path d="M 338.3470178366325 137.21359663531229 L 338.3470178366325 137.21359663531229 L 338.73253470304826 137.2473249907217 L 339.1092383135944 137.34799667064914 L 339.46842723116447 137.5140773769618 L 339.80162246463675 137.7430294225317 L 340.10067572467307 138.03134073828952 L 340.3578741514249 138.3745650699593 L 340.5660403920234 138.76737295605434 L 340.7186269512935 139.20361296872102 L 340.80980379527983 139.6763825939596 L 340.8345382533934 140.17810802863858 L 340.78866634065577 140.70063207949795 L 340.6689547059265 141.23530926489696 L 340.47315250437333 141.77310714421776 L 340.2000325919004 142.30471283332707 L 339.84942154488004 142.82064360797202 L 339.42221811932734 143.31136045100737 L 338.9203998785926 143.76738336437992 L 338.3470178366325 144.1794072431944 L 337.7061790838536 144.5384170972114 L 337.003017483264 144.83580140493115 L 336.24365264508594 145.0634623970359 L 335.4351375069258 145.2139220893355 L 334.58539496293724 145.2804229202989 L 333.70314409804445 145.25702189448165 L 332.79781669112515 145.13867719027974 L 331.8794647530541 144.92132625796063 L 330.95865996069057 144.6019545112542 L 330.04638593531894 144.17865380224288 L 329.1539243928703 143.65066996410087 L 328.2927362626708 143.01843880854736 L 327.474338930781 142.28361007377117 L 326.7101808125987 141.44905893306748 L 326.0115144967811 140.5188847934569 L 325.38926972828045 139.4983972360388 L 324.8539275120815 138.39408907464184 L 324.4153966208683 137.21359663531229 L 324.08289377925 135.9656474851639 L 323.8648287743567 134.65999596391202 L 323.76869570771726 133.3073469938687 L 323.8009715565903 131.91926876311828 L 323.96702315469986 130.50809499089894 L 324.27102363308614 129.08681759278318 L 324.7158792820885 127.66897066503957 L 325.3031677059969 126.2685068015642 L 326.033088043396 124.89966684207575 L 326.90442391953223 123.57684422601139 L 327.9145196830786 122.31444519197349 L 329.0592703594564 121.12674611697358 L 330.33312562745556 120.02774933251473 L 331.72910799639 119.0310387852595 L 333.2388452285909 118.14963692826923 L 334.8526169178743 117.39586423430327 L 336.5594149999335 116.78120271527789 L 338.3470178366325 116.316164811666 L 340.20207738415036 116.0101689824464 L 342.11021882606445 115.8714232803795 L 344.0561519279732 115.90681813920534 L 346.0237932513138 116.12182952925104 L 347.99639825176394 116.5204335564336 L 349.95670218310266 117.10503348738891 L 351.88706863167056 117.87640008119172 L 353.76964442055026 118.83362599668934 L 355.5865195471637 119.97409492478113 L 357.31989075392073 121.29346596804234 L 358.95222727954786 122.78567365699305 L 360.46643729934823 124.44294385419511 L 361.8460335363761 126.25582565541728 L 363.0752965127043 128.2132392525825 L 364.13943391086724 130.30253957737358 L 365.0247345302985 132.50959539852232 L 365.7187153521503 134.81888340124377 L 366.2102602681609 137.21359663531229 L 366.4897490849818 139.67576658019965 L 366.54917548422225 142.18639794277593 L 366.38225269993114 144.72561517654998 L 365.9845057687128 147.2728195924809 L 365.3533493124572 149.80685582116175 L 364.4881499289329 152.30618628572347 L 363.39027239032964 154.74907225511566 L 362.0631089832428 157.1137599693997 L 360.5120914644583 159.37867026313802 L 358.7446852540721 161.5225900605878 L 356.77036563971706 163.5248640778042 L 354.60057592169073 165.36558504240503 L 352.24866758724556 167.02578073200192 L 349.7298227618496 168.48759613740307 L 347.0609593444683 169.7344690767387 L 344.26061939145416 170.75129762163525 L 341.34884146807053 171.52459774631345 L 338.3470178366325 172.04264967472275 L 335.27773749437574 172.29563147914493 L 332.1646162111372 172.27573857555902 L 329.03211484549774 171.97728786580257 L 325.90534733697666 171.39680539341154 L 322.809879880065 170.53309650808308 L 319.7715228822803 169.38729767198973 L 316.81611739206386 167.962909188586 L 313.96931775237545 166.26580828990987 L 311.2563722915121 164.30424218043265 L 308.7019039033697 162.0888008029216 L 306.32969239456406 159.63236926316222 L 304.16246048516274 156.95006002431154 L 302.22166534299686 154.05912515664338 L 300.5272975085227 150.97884910301667 L 299.09768902801443 147.7304225930451 L 297.9493325576526 144.33679850816563 L 297.096713130148 140.82253066411977 L 296.55215418933994 137.2135966353123 L 296.3256793973165 133.53720589568601 L 296.42489160372884 129.82159469178526 L 296.8548702389506 126.0958091942804 L 297.61808825251427 122.38947859316913 L 298.7143495669157 118.73257990802675 L 300.1407478555781 115.15519637701897 L 301.8916472837822 111.6872713659783 L 303.9586856740476 108.35835980088555 L 306.3308003742175 105.19737917289727 L 308.9942769188536 102.23236219406215 L 311.93282038401725 99.49021319366727 L 315.1276491436922 96.9964703394655 L 318.5576105445834 94.77507574473056 L 322.19931782644085 92.84815548118347 L 326.02730742900263 91.23581145950256 L 330.01421564574747 89.9559270636754 L 334.13097341045557 89.02398833334436 L 338.3470178366325 88.45292238013764 L 342.6305189736283 88.25295460051288 L 346.9486200981912 88.43148610975163 L 351.26768972756133 88.99299267043867 L 355.55358342126294 89.93894622517502 L 359.7719133346361 91.26775996864941 L 363.8883233988668 92.97475770988082 L 367.8687679307319 95.05216808288549 L 371.6797914212289 97.48914396474007 L 375.28880721634215 100.27180725560268 L 378.66437278586994 103.38331896736369 L 381.7764592778541 106.8039743579317 L 384.5967130768563 110.51132263843094 L 387.0987071241603 114.48031057254508 L 389.2581798167803 118.68344908263322 L 391.0532593796339 123.09100177778535 L 392.4646717009264 127.67119412639555 L 393.4759297340838 132.39044181176592 L 394.07350269968924 137.21359663531226 L 394.2469634669153 142.10420816967752 L 393.98911265485015 147.02479921490277 L 393.2960781686978 151.93715297613818 L 392.1673890727888 156.80260976243002 L 390.6060229002414 161.582370904034 L 388.61842570644103 166.23780750148762 L 386.21450438863593 170.7307715541769 L 383.407591015192 175.02390697007843 L 380.2143791336368 179.08095793231647 L 376.6548322547508 182.86707209253706 L 372.75206493877835 186.34909607611047 L 368.532197137455 189.49586081991305 L 364.0241826701178 192.27845431978608 L 359.2596129317988 194.6704794414791 L 354.2724971440566 196.6482945455053 L 349.099020663581 198.1912347922631 L 343.77728305754846 199.28181212824697 L 338.3470178366327 199.90589210625112 L 332.8492959048978 200.05284586107845 L 327.3262149390104 199.7156757461869 L 321.8205770459095 198.89111333456924 L 316.3755571670275 197.5796886974876 L 311.03436479719284 195.78577009586724 L 305.839901666516 193.51757344949775 L 300.83441809300257 190.78714118689226 L 296.0591707516968 187.61029032185914 L 291.5540846223337 184.00652984961113 L 287.3574218714205 179.99894780360032 L 283.5054603962578 175.61406856222345 L 280.0321847076547 170.88168124007575 L 276.96899175521276 165.83464023951572 L 274.3444142044467 160.50863927296587 L 272.1838635592478 154.94196039263332 L 270.50939538702477 149.17519978029256 L 269.33949874821445 143.2509722535977 L 268.6889117578116 137.21359663531234 L 268.56846501538297 131.10876430620823 L 268.98495443310094 124.9831934196585 L 269.94104477018385 118.8842713946923 L 271.43520494843824 112.85968842321998 L 273.46167597913154 106.95706482515445 L 276.01047207807 101.22357516125489 L 279.06741528547605 95.70557206691694 L 282.61420364209835 90.44821280020692 L 286.6285127050389 85.49509150371901 L 291.0841299181748 80.887880162113 L 295.951121084956 76.66598119536098 L 301.1960279279279 72.86619456195753 L 306.78209546171115 69.52240215694641 L 312.6695276564915 66.6652721771075 L 318.81576962941443 64.3219859907359 L 325.17581437362054 62.51598989304756 L 331.7025318209776 61.26677395141087 L 338.3470178366326 60.58967994860926 L 345.05896056310615 60.49574021857936" fill="none" stroke="#4a0080" stroke-width="1" opacity="0.3" class="drift" />
<circle cx="742.2044818341062" cy="113.23598254314042" r="1.4679485877917569" fill="white" opacity="0.6794320837031698"  style="animation-delay: 3.542669468724333s" />
<circle cx="625.569033262132" cy="90.08324276751955" r="0.7998828647942543" fill="white" opacity="0.7781394756495885"  style="animation-delay: 3.372426548322325s" />
<circle cx="548.0165448855404" cy="31.37007167744601" r="1.0287906880994877" fill="white" opacity="0.31358884125644554"  style="animation-delay: 4.032024425749931s" />
<circle cx="67.99200671386458" cy="149.46802601940638" r="1.2515583933528616" fill="white" opacity="0.3874339769722665"  style="animation-delay: 2.1553893986212245s" />
<circle cx="589.3130295147753" cy="191.29436370736283" r="0.8298370428526093" fill="white" opacity="0.3185186042335853"  style="animation-delay: 2.916337965496626s" />
<circle cx="81.04424691578274" cy="141.5968471672631" r="0.9631881517361013" fill="white" opacity="0.31533568251898086"  style="animation-delay: 2.16868530700821s" />
<circle cx="430.9827689916343" cy="133.99158244767523" r="1.7466338807701085" fill="white" opacity="0.5856007139623163"  style="animation-delay: 4.938532687288158s" />
<circle cx="707.9358623977441" cy="149.79561883275014" r="1.8227273946665175" fill="white" opacity="0.5674592851213909"  style="animation-delay: 3.21734456257343s" />
<circle cx="119.22245413979091" cy="56.77225088864497" r="1.6778067328665527" fill="white" opacity="0.6802004147151213"  style="animation-delay: 3.245697068174568s" />
<circle cx="453.7928302248538" cy="8.679765223903768" r="1.7084171167253537" fill="white" opacity="0.36894778965960845"  style="animation-delay: 4.645154379106636s" />
<circle cx="779.6211450871814" cy="39.14783361455516" r="1.8697460535734987" fill="white" opacity="0.6044028355022706"  style="animation-delay: 1.2836979124967962s" />
<circle cx="192.14877155555837" cy="177.1407274966747" r="1.5207781991696243" fill="white" opacity="0.317659284429837"  style="animation-delay: 1.8317635797545817s" />
<circle cx="769.7928080665339" cy="4.918210007570112" r="1.4906748559234013" fill="white" opacity="0.6948135424470971"  style="animation-delay: 4.553325373911572s" />
<circle cx="710.1682425544977" cy="29.961590116895522" r="1.5768919793138036" fill="white" opacity="0.47601069839967786"  style="animation-delay: 1.339869764749908s" />
<circle cx="572.0318472176011" cy="14.052292929397314" r="1.0803300333077641" fill="white" opacity="0.6125406057152305"  style="animation-delay: 0.7514041785510572s" />
<circle cx="42.425875340044605" cy="79.85435257358012" r="0.5010802900929068" fill="white" opacity="0.6202690014110912"  style="animation-delay: 0.5253751114913485s" />
<circle cx="654.3073089749237" cy="68.19786101609431" r="1.966542211627918" fill="white" opacity="0.4548214661043502"  style="animation-delay: 3.4895309183103187s" />
<circle cx="240.9576121579059" cy="9.566210540693731" r="1.285443564290861" fill="white" opacity="0.5163307747546286" class="shimmer" style="animation-delay: 0.7610443287859958s" />
<circle cx="213.39130866818596" cy="27.51646652123556" r="1.6866911076694653" fill="white" opacity="0.7996694663908888"  style="animation-delay: 1.4703691406821162s" />
<circle cx="682.8020508921298" cy="37.48249400423895" r="0.5324543603117448" fill="white" opacity="0.7212005427124994" class="shimmer" style="animation-delay: 4.7647014831106835s" />
<circle cx="183.91400521843408" cy="119.40651703575496" r="1.7360599830090564" fill="white" opacity="0.4617027595877978"  style="animation-delay: 2.418492755949866s" />
<circle cx="474.587130091315" cy="36.62075426621496" r="1.1098277241026204" fill="white" opacity="0.469325222118351" class="shimmer" style="animation-delay: 4.153089187624612s" />
<circle cx="725.5451598182649" cy="156.020307096815" r="1.3153982716793802" fill="white" opacity="0.32606776220968975" class="shimmer" style="animation-delay: 4.899240759750505s" />
<circle cx="203.91690388669554" cy="118.74521192284102" r="1.4849025895796475" fill="white" opacity="0.5216917180156793"  style="animation-delay: 0.11801747771075344s" />
<circle cx="285.4638266646063" cy="162.65417462035578" r="0.5921722386143932" fill="white" opacity="0.7820233102220993" class="shimmer" style="animation-delay: 2.515476192656453s" />
<circle cx="274.5391971830058" cy="162.09335554529298" r="1.995233786915536" fill="white" opacity="0.511997601535719"  style="animation-delay: 0.8212246566231862s" />
<circle cx="545.2437315070323" cy="74.85541958647666" r="0.693640973874512" fill="white" opacity="0.6653106916538998" class="shimmer" style="animation-delay: 2.5700376999306274s" />
<circle cx="434.90187663816346" cy="95.74125876631068" r="1.0922221984084755" fill="white" opacity="0.7071613915865582"  style="animation-delay: 3.6823441194891826s" />
<circle cx="721.0855045372736" cy="69.37480000596383" r="1.3689665493385492" fill="white" opacity="0.6735108203044136"  style="animation-delay: 1.2492514362681473s" />
<circle cx="235.32913160246753" cy="75.54335780812349" r="0.9863480578558635" fill="white" opacity="0.3285658950403057"  style="animation-delay: 4.868708017142611s" />
<circle cx="10.735793609748256" cy="30.68198835752929" r="0.8594657544309092" fill="white" opacity="0.45394668298201485" class="shimmer" style="animation-delay: 4.999123816539458s" />
<circle cx="455.46180032203785" cy="89.56067831346029" r="1.5554875744824121" fill="white" opacity="0.6578369098221641"  style="animation-delay: 1.6749851431478036s" />
<circle cx="598.6573567239706" cy="12.53476090324992" r="1.8192114783925186" fill="white" opacity="0.3666707312385132"  style="animation-delay: 3.0623944095999756s" />
<circle cx="342.65945677065037" cy="106.41525921950787" r="1.0327623035889326" fill="white" opacity="0.4743437163146083"  style="animation-delay: 4.577823652319639s" />
<circle cx="235.55974671719025" cy="82.03644231056981" r="1.384969241968855" fill="white" opacity="0.5825109223414262" class="shimmer" style="animation-delay: 2.1101666968988364s" />
<circle cx="75.10069782058757" cy="88.03770585885746" r="1.1457196519800186" fill="white" opacity="0.7824171181085964"  style="animation-delay: 2.6628707888807357s" />
<circle cx="757.4039984364482" cy="112.40808869827444" r="0.9359435829228073" fill="white" opacity="0.5342056844961098"  style="animation-delay: 1.7356474925462329s" />
<circle cx="347.7955104780174" cy="56.1649904070423" r="1.5840862218769907" fill="white" opacity="0.748647406272251"  style="animation-delay: 1.1989992605979694s" />
<circle cx="788.9132636209247" cy="80.13180862242896" r="1.5913531412186703" fill="white" opacity="0.5150479947617079"  style="animation-delay: 0.5182784990290457s" />
<circle cx="768.6188226195557" cy="32.03463018763144" r="1.0528979618038075" fill="white" opacity="0.4863166240766384"  style="animation-delay: 1.5901369977881863s" />
<circle cx="166.33741676997414" cy="88.96074495822872" r="1.0259617042843376" fill="#e0aaff" opacity="0.8" filter="url(#glow)" class="shimmer" style="animation-delay: 0.27494966412885846s" />
<circle cx="590.0438563593758" cy="65.49294640853142" r="1.0182267501333677" fill="#e0aaff" opacity="0.8" filter="url(#glow)" class="shimmer" style="animation-delay: 1.4253590016642965s" />
<circle cx="648.675671949591" cy="178.07553614161705" r="2.38535013532773" fill="#9d4edd" opacity="0.8" filter="url(#glow)" class="shimmer" style="animation-delay: 0.13583537837509052s" />
<circle cx="168.55933513759086" cy="51.18707417417849" r="2.9891499382532443" fill="#e0aaff" opacity="0.8" filter="url(#glow)" class="shimmer" style="animation-delay: 1.8888472530439322s" />
<circle cx="353.2539569846115" cy="27.44171498511454" r="1.110025730216679" fill="#7b2cbf" opacity="0.8" filter="url(#glow)" class="shimmer" style="animation-delay: 2.843260509114584s" />
<circle cx="668.6768792407353" cy="40.69225969283545" r="1.3483151918987883" fill="#c77dff" opacity="0.8" filter="url(#glow)" class="shimmer" style="animation-delay: 1.5807001621092245s" />
<circle cx="701.58212714625" cy="44.92124012778924" r="1.368364087162948" fill="#9d4edd" opacity="0.8" filter="url(#glow)" class="shimmer" style="animation-delay: 0.8543772716166085s" />
<circle cx="609.2527316966542" cy="15.04847047563631" r="2.996698422493273" fill="#9d4edd" opacity="0.8" filter="url(#glow)" class="shimmer" style="animation-delay: 0.7366201609258882s" />
<line x1="188.97624704767736" y1="132.67351148864327" x2="577.7483341737454" y2="112.6097667203173" stroke="#e0aaff" stroke-width="0.5" opacity="0.3" />
<line x1="577.7483341737454" y1="112.6097667203173" x2="413.8002845039967" y2="67.38277044568173" stroke="#e0aaff" stroke-width="0.5" opacity="0.3" />
<line x1="413.8002845039967" y1="67.38277044568173" x2="422.21982489625407" y2="31.59450923995991" stroke="#e0aaff" stroke-width="0.5" opacity="0.3" />

  
    <text x="400" y="120" text-anchor="middle" class="name-text" fill="url(#textGrad)" filter="url(#textGlow)">
      JOEL HOOKS
    </text>
  
</svg>
