<svg xmlns="http://www.w3.org/2000/svg" viewBox="0 0 800 200" width="800" height="200">
  <rect width="800" height="200" fill="#1a0a0a"/>
  
    <defs>
      <linearGradient id="grad1" x1="0%" y1="0%" x2="100%" y2="100%">
        <stop offset="0%" style="stop-color:#ff4500;stop-opacity:0.8" />
        <stop offset="100%" style="stop-color:#ff6b35;stop-opacity:0.8" />
      </linearGradient>
      <linearGradient id="grad2" x1="100%" y1="0%" x2="0%" y2="100%">
        <stop offset="0%" style="stop-color:#f7c59f;stop-opacity:0.7" />
        <stop offset="100%" style="stop-color:#efa48b;stop-opacity:0.7" />
      </linearGradient>
      <linearGradient id="textGrad" x1="0%" y1="0%" x2="100%" y2="0%">
        <stop offset="0%" style="stop-color:#ff4500" />
        <stop offset="25%" style="stop-color:#ff6b35" />
        <stop offset="50%" style="stop-color:#f7c59f" />
        <stop offset="75%" style="stop-color:#efa48b" />
        <stop offset="100%" style="stop-color:#d4a5a5" />
      </linearGradient>
      <filter id="glow">
        <feGaussianBlur stdDeviation="3" result="coloredBlur"/>
        <feMerge>
          <feMergeNode in="coloredBlur"/>
          <feMergeNode in="SourceGraphic"/>
        </feMerge>
      </filter>
      <filter id="textGlow">
        <feGaussianBlur stdDeviation="2" result="coloredBlur"/>
        <feMerge>
          <feMergeNode in="coloredBlur"/>
          <feMergeNode in="SourceGraphic"/>
        </feMerge>
      </filter>
    </defs>
  
  
    <style>
      @keyframes float {
        0%, 100% { transform: translateY(0px); }
        50% { transform: translateY(-8px); }
      }
      @keyframes pulse {
        0%, 100% { opacity: 0.4; }
        50% { opacity: 0.9; }
      }
      @keyframes drift {
        0% { transform: translateX(0px); }
        50% { transform: translateX(10px); }
        100% { transform: translateX(0px); }
      }
      @keyframes shimmer {
        0% { opacity: 0.3; }
        50% { opacity: 1; }
        100% { opacity: 0.3; }
      }
      @keyframes glitch {
        0%, 100% { transform: translateX(0); }
        20% { transform: translateX(-2px); }
        40% { transform: translateX(2px); }
        60% { transform: translateX(-1px); }
        80% { transform: translateX(1px); }
      }
      @keyframes dataStream {
        0% { stroke-dashoffset: 0; }
        100% { stroke-dashoffset: -20; }
      }
      .float { animation: float 8s ease-in-out infinite; }
      .pulse { animation: pulse 8s ease-in-out infinite; }
      .drift { animation: drift 8s ease-in-out infinite; }
      .shimmer { animation: shimmer 3s ease-in-out infinite; }
      .glitch { animation: glitch 0.5s ease-in-out infinite; }
      .dataStream { animation: dataStream 2s linear infinite; }
      .name-text { 
        font-family: -apple-system, BlinkMacSystemFont, 'Segoe UI', Helvetica, Arial, sans-serif;
        font-weight: 700;
        font-size: 64px;
        letter-spacing: -2px;
      }
    </style>
  
  <rect x="0" y="160" width="800" height="50" fill="#ff4500" opacity="0.3" />
<rect x="0" y="170" width="800" height="40" fill="#ff6b35" opacity="0.25" />
<rect x="0" y="180" width="800" height="30" fill="#f7c59f" opacity="0.19999999999999998" />
<rect x="0" y="190" width="800" height="20" fill="#efa48b" opacity="0.14999999999999997" />
<rect x="0" y="200" width="800" height="10" fill="#d4a5a5" opacity="0.09999999999999998" />
<line x1="368.75996487011037" y1="170" x2="368.75996487011037" y2="298.4197447098844" stroke="#ff4500" stroke-width="1.5847176581504048" opacity="0.2095579020622252" class="pulse" />
<line x1="368.75996487011037" y1="170" x2="404.9183112594777" y2="304.94478584279364" stroke="#ff4500" stroke-width="2.8789264325852257" opacity="0.14934351648625185" class="pulse" />
<line x1="368.75996487011037" y1="170" x2="418.2190204058507" y2="255.66559708227302" stroke="#ff4500" stroke-width="2.8524311996116722" opacity="0.24082567956731413" class="pulse" />
<line x1="368.75996487011037" y1="170" x2="450.1097617978264" y2="251.34979692771606" stroke="#ff4500" stroke-width="2.6140150976820906" opacity="0.2797054447898524" class="pulse" />
<line x1="368.75996487011037" y1="170" x2="446.05855258071387" y2="214.62836042269484" stroke="#ff4500" stroke-width="2.550730706780806" opacity="0.2779298786438914" class="pulse" />
<line x1="368.75996487011037" y1="170" x2="477.46823142100936" y2="199.12829223290063" stroke="#ff4500" stroke-width="1.4404868303182572" opacity="0.12254961316910579" class="pulse" />
<line x1="368.75996487011037" y1="170" x2="468.0848095660059" y2="170" stroke="#ff4500" stroke-width="2.966302068782426" opacity="0.112632576856638" class="pulse" />
<line x1="368.75996487011037" y1="170" x2="502.1578971155058" y2="134.25613178286466" stroke="#ff4500" stroke-width="1.9703528214078898" opacity="0.14945315337036802" class="pulse" />
<line x1="368.75996487011037" y1="170" x2="486.0851950891705" y2="102.26224675029087" stroke="#ff4500" stroke-width="2.7269466301727694" opacity="0.19666565473534425" class="pulse" />
<line x1="368.75996487011037" y1="170" x2="468.4236543115511" y2="70.3363105585593" stroke="#ff4500" stroke-width="1.9263045376035999" opacity="0.1322635532583411" class="pulse" />
<line x1="368.75996487011037" y1="170" x2="430.01824835199653" y2="63.89754062491596" stroke="#ff4500" stroke-width="1.057596614053819" opacity="0.2405676171005647" class="pulse" />
<line x1="368.75996487011037" y1="170" x2="391.4585350315112" y2="85.28778289848533" stroke="#ff4500" stroke-width="2.037959615815662" opacity="0.1607407768538663" class="pulse" />
<path d="M 352.87759630735474 55.52444022371712 C 352.74781218887995 63.0771905601969, 348.94384983675775 70.27875856381678, 343.70332081183534 77.79333887773213 C 338.46279178691293 85.30791919164747, 327.72321734081413 101.74609314222047, 321.43442215782034 100.61192210720924 C 315.14562697482654 99.477751072198, 310.5258542228495 78.50289298158009, 305.97054971387274 70.98831266766474 C 301.415245204896 63.47373235374939, 295.72373358291424 62.30020285065414, 294.10259510395974 55.52444022371712 C 292.48145662500525 48.748677596780105, 291.6884143311691 37.38216311828358, 296.24371884014585 30.333736906042635 C 300.7990233491226 23.28531069380169, 313.3947043773973 12.876699624802987, 321.43442215782034 13.233882950271457 C 329.47413993824335 13.591066275739928, 339.2414964977616 25.428410646612516, 344.482025522684 32.47683685885346 C 349.7225545476064 39.5252630710944, 353.0073804258295 47.971689887237346, 352.87759630735474 55.52444022371712 Z" fill="#f7c59f" opacity="0.16264087680018519" class="drift" />
<path d="M 394.60243124645575 69.79264839864032 C 393.1292587992309 79.59062026336674, 390.7305156091909 88.10896613754569, 384.96125283123695 94.76704665114512 C 379.191990053283 101.42512716474455, 369.59938058521266 108.453404891258, 359.98685457873216 109.74113148023692 C 350.37432857225167 111.02885806921583, 333.8640619489925 109.15148669861803, 327.2860967923539 102.4934061850186 C 320.70813163571523 95.83532567141917, 321.28519970177155 81.45903705697091, 320.5190636389004 69.79264839864032 C 319.7529275760292 58.12625974030973, 316.1113152584882 39.257983518440234, 322.68928041512686 32.495074235035034 C 329.2672455717655 25.732164951629837, 348.13502006215566 28.634502493583877, 359.98685457873216 29.215192698209137 C 371.83868909530867 29.795882902834396, 388.03102473663193 29.216306179381387, 393.8002875145859 35.979215462786584 C 399.5695502925398 42.742124746191784, 396.0756036936806 59.9946765339139, 394.60243124645575 69.79264839864032 Z" fill="#f7c59f" opacity="0.11684000478469163" class="drift" />
<path d="M 110.49236078856376 28.207303683010107 C 110.82354345217549 37.45645497953241, 105.58258720261651 51.81549464914759, 98.85243210934664 56.94830556341218 C 92.12227701607677 62.081116477676765, 79.01276757967834 59.6831657779979, 70.11143022894456 59.004169168597656 C 61.21009287821077 58.32517255919741, 49.3289411138884 58.0071368212753, 45.44440800494395 52.874325907010714 C 41.559874895999506 47.741514992746126, 48.153718422965404 37.77913127203118, 46.80423157527787 28.20730368301011 C 45.45474472759033 18.63547609398904, 33.46295380987429 -0.6724694328352627, 37.34748691881874 -4.556639627115697 C 41.232020027763184 -8.440809821396131, 60.191788694134964 3.9006096154284995, 70.11143022894456 4.902282517327507 C 80.03107176375416 5.903955419226514, 90.13518103440643 -2.430772410002089, 96.8653361276763 1.4533977842783443 C 103.59549122094617 5.337567978558777, 110.16117812495203 18.958152386487804, 110.49236078856376 28.207303683010107 Z" fill="#f7c59f" opacity="0.1926373142351463" class="drift" />
<path d="M 459.96609419602055 34.61263802937781 C 461.78612203330187 49.469572932346104, 458.3945713370693 74.74084307443057, 448.0740891211293 84.64352625012661 C 437.7536069051893 94.54620942582265, 412.1937211962182 96.55517952796599, 398.0432009003805 94.02873708355406 C 383.8926806045428 91.50229463914214, 370.98458526218263 79.38755475935108, 363.1709673461033 69.48487158365504 C 355.35734943002393 59.582188407958995, 353.45391675472206 48.52913923162115, 351.16149340390444 34.61263802937782 C 348.86907005308683 20.696136827134488, 341.60280932511836 -2.729449394543712, 349.4164272411977 -14.014135629804954 C 357.23004515727706 -25.298821865066195, 383.4202850910066 -34.681488125876605, 398.0432009003805 -33.09547938218963 C 412.6661167097544 -31.50947063850266, 426.8334398815014 -15.78276940294436, 437.1539220974414 -4.49808316768312 C 447.4744043133814 6.78660306757812, 458.14606635873923 19.75570312640952, 459.96609419602055 34.61263802937781 Z" fill="#f7c59f" opacity="0.15862869012214523" class="drift" />
<path d="M 41.97560668279909 46.703258137543756 L 50.24851294500294 42.56680500644183 L 58.5214192072068 46.703258137543756" fill="none" stroke="#d4a5a5" stroke-width="1.5" opacity="0.4" class="float" style="animation-delay: 2.642475114928022s" />
<path d="M 547.1597685556817 48.97559913324702 L 552.748750497578 46.181108162298855 L 558.3377324394744 48.97559913324702" fill="none" stroke="#d4a5a5" stroke-width="1.5" opacity="0.4" class="float" style="animation-delay: 1.750408149387791s" />
<path d="M 312.47522308156294 78.75655148839411 L 318.7340282855988 75.62714888637618 L 324.9928334896347 78.75655148839411" fill="none" stroke="#d4a5a5" stroke-width="1.5" opacity="0.4" class="float" style="animation-delay: 0.16914682443302698s" />
<path d="M 357.7423107275175 30.23222396847795 L 367.8550995154238 25.17582957452483 L 377.96788830333 30.23222396847795" fill="none" stroke="#d4a5a5" stroke-width="1.5" opacity="0.4" class="float" style="animation-delay: 0.36504532180443716s" />
<path d="M 421.77314720202804 60.23107825123907 L 432.714048176435 54.76062776403556 L 443.654949150842 60.23107825123907" fill="none" stroke="#d4a5a5" stroke-width="1.5" opacity="0.4" class="float" style="animation-delay: 0.17017516990466075s" />

  
    <text x="400" y="120" text-anchor="middle" class="name-text" fill="url(#textGrad)" filter="url(#textGlow)">
      JOEL HOOKS
    </text>
  
</svg>
