<svg xmlns="http://www.w3.org/2000/svg" viewBox="0 0 800 200" width="800" height="200">
  <rect width="800" height="200" fill="#05010d"/>
  
    <defs>
      <linearGradient id="grad1" x1="0%" y1="0%" x2="100%" y2="100%">
        <stop offset="0%" style="stop-color:#4a0080;stop-opacity:0.8" />
        <stop offset="100%" style="stop-color:#7b2cbf;stop-opacity:0.8" />
      </linearGradient>
      <linearGradient id="grad2" x1="100%" y1="0%" x2="0%" y2="100%">
        <stop offset="0%" style="stop-color:#9d4edd;stop-opacity:0.7" />
        <stop offset="100%" style="stop-color:#c77dff;stop-opacity:0.7" />
      </linearGradient>
      <linearGradient id="textGrad" x1="0%" y1="0%" x2="100%" y2="0%">
        <stop offset="0%" style="stop-color:#4a0080" />
        <stop offset="25%" style="stop-color:#7b2cbf" />
        <stop offset="50%" style="stop-color:#9d4edd" />
        <stop offset="75%" style="stop-color:#c77dff" />
        <stop offset="100%" style="stop-color:#e0aaff" />
      </linearGradient>
      <filter id="glow">
        <feGaussianBlur stdDeviation="5" result="coloredBlur"/>
        <feMerge>
          <feMergeNode in="coloredBlur"/>
          <feMergeNode in="SourceGraphic"/>
        </feMerge>
      </filter>
      <filter id="textGlow">
        <feGaussianBlur stdDeviation="2" result="coloredBlur"/>
        <feMerge>
          <feMergeNode in="coloredBlur"/>
          <feMergeNode in="SourceGraphic"/>
        </feMerge>
      </filter>
    </defs>
  
  
    <style>
      @keyframes float {
        0%, 100% { transform: translateY(0px); }
        50% { transform: translateY(-8px); }
      }
      @keyframes pulse {
        0%, 100% { opacity: 0.4; }
        50% { opacity: 0.9; }
      }
      @keyframes drift {
        0% { transform: translateX(0px); }
        50% { transform: translateX(10px); }
        100% { transform: translateX(0px); }
      }
      @keyframes shimmer {
        0% { opacity: 0.3; }
        50% { opacity: 1; }
        100% { opacity: 0.3; }
      }
      @keyframes glitch {
        0%, 100% { transform: translateX(0); }
        20% { transform: translateX(-2px); }
        40% { transform: translateX(2px); }
        60% { transform: translateX(-1px); }
        80% { transform: translateX(1px); }
      }
      @keyframes dataStream {
        0% { stroke-dashoffset: 0; }
        100% { stroke-dashoffset: -20; }
      }
      .float { animation: float 8s ease-in-out infinite; }
      .pulse { animation: pulse 8s ease-in-out infinite; }
      .drift { animation: drift 8s ease-in-out infinite; }
      .shimmer { animation: shimmer 3s ease-in-out infinite; }
      .glitch { animation: glitch 0.5s ease-in-out infinite; }
      .dataStream { animation: dataStream 2s linear infinite; }
      .name-text { 
        font-family: -apple-system, BlinkMacSystemFont, 'Segoe UI', Helvetica, Arial, sans-serif;
        font-weight: 700;
        font-size: 64px;
        letter-spacing: -2px;
      }
    </style>
  
  <path d="M 622.3437800748635 8.826142612181531 C 624.7063216834075 29.94784673929055, 635.2705039762399 59.803460454283865, 626.0037009697055 76.74619488975186 C 616.7368979631711 93.68892932521986, 586.5885946764665 106.28314120854755, 566.7429620356575 110.4825492249895 C 546.8973293948484 114.68195724143145, 525.954031548991 105.85990181152414, 506.92990512485073 101.94264298840359 C 487.9057787007104 98.02538416528304, 471.17223246132636 96.38940100945997, 452.59820349081565 86.97899628626617 C 434.02417452030494 77.56859156307236, 395.3112747431523 61.76852138163211, 395.48573130178636 45.480214649240736 C 395.6601878604204 29.191907916849363, 446.01308990382705 10.561233452725894, 453.64494284262 -10.750844108082081 C 461.276795781413 -32.062921668890056, 432.13234198249086 -71.96959912850548, 441.2768489345441 -82.3922507156071 C 450.4213558865973 -92.81490230270873, 488.1065064045197 -72.65406447150208, 508.5119845549396 -73.28675363069185 C 528.9174627053595 -73.91944278988161, 546.4903067098134 -90.07217296371064, 563.7097178370636 -86.1883856707457 C 580.9291289643139 -82.30459837778076, 602.0561076121412 -65.81978458672346, 611.8284513184412 -49.984029872902255 C 621.6007950247413 -34.14827515908105, 619.9812384663195 -12.295561514927488, 622.3437800748635 8.826142612181531 Z" fill="#9d4edd" opacity="0.23447816239570046" filter="url(#glow)" class="float" />
<path d="M 743.6909899973064 139.50249208978303 C 738.4580102059191 155.97734757479645, 701.4506724273671 158.65641673442227, 689.8923938988754 177.52111144491693 C 678.3341153703838 196.3858061554116, 685.8750821223368 250.37139949406387, 674.3413188263563 252.69066035275102 C 662.8075555303758 255.00992121143818, 636.3034280452393 203.4107671036228, 620.6898141229921 191.43667659703985 C 605.0762002007448 179.4625860904569, 592.7080348179239 189.50181473112957, 580.659635292873 180.84611731325344 C 568.611235767822 172.19041989537732, 546.2299560268714 151.7074948576254, 548.3994169726861 139.50249208978303 C 550.5688779185009 127.29748932194067, 582.8502291454975 120.03342820362332, 593.6764009677612 107.61610070619929 C 604.5025727900249 95.19877320877526, 600.0885218851105 78.00645245274805, 613.3564479062685 64.99852710523886 C 626.6243739274265 51.99060175772968, 655.2949863045543 27.289640049544595, 673.2839570947093 29.56854862114419 C 691.2729278848643 31.847457192743782, 709.5557671634326 60.34965462339662, 721.2902726471988 78.67197853483643 C 733.0247781309649 96.99430244627624, 748.9239697886936 123.02763660476961, 743.6909899973064 139.50249208978303 Z" fill="#c77dff" opacity="0.2208936120231032" filter="url(#glow)" class="float" />
<path d="M 619.4675003259284 156.25936133480985 C 619.9667487835176 165.5542450674234, 556.4672358633702 179.67692835662592, 537.990703656737 185.64175790541805 C 519.5141714501037 191.60658745421017, 526.3395789783666 184.11119892552736, 508.6083070861287 192.04833862756254 C 490.8770351938908 199.98547832959773, 440.74415219331445 239.22942566642126, 431.60307230330943 233.26459611762914 C 422.4619924133044 227.29976656883701, 445.9101506074475 174.0760957904319, 453.76182774609856 156.25936133480985 C 461.6135048847496 138.4426268791878, 469.5720552452107 135.8161076693248, 478.71313513521574 126.36418938389689 C 487.85421502522075 116.91227109846898, 499.227960790131 98.96314060126913, 508.6083070861287 99.54785162224243 C 517.9886533821264 100.13256264321573, 516.5186807045686 120.42053722430877, 534.9952129112019 129.87245550973668 C 553.4717451178351 139.32437379516458, 618.9682518683393 146.9644776021963, 619.4675003259284 156.25936133480985 Z" fill="#7b2cbf" opacity="0.18999314883116158" filter="url(#glow)" class="float" />
<path d="M 647.5141816957821 115.75316569025401 C 646.463575364855 128.1026178917773, 585.1274714111294 134.7511365766636, 570.5327756458876 150.7759712210654 C 555.9380798806458 166.80080586546717, 572.0049959095693 197.03916921357404, 559.9460071043311 211.90217355666465 C 547.8870182990929 226.76517789975526, 513.0417269187046 247.27191399156354, 498.1788428144583 239.95399727960907 C 483.315958710212 232.6360805676546, 477.60449281450207 185.8137425833411, 470.76870247885336 167.9946732849378 C 463.93291214320465 150.17560398653447, 465.98556604218214 146.55200604316252, 457.164100800566 133.0395814891891 C 448.3426355589499 119.52715693521566, 417.6024115173708 100.85078202885127, 417.83991102915667 86.92012596109723 C 418.07741054094254 72.98946989334318, 445.3460564624948 66.37115824630854, 458.58909787128135 49.45564508266483 C 471.8321392800679 32.54013191902112, 484.02058174620987 -17.513977545008334, 497.29815948187604 -14.572953020765027 C 510.5757372175422 -11.631928496521718, 524.9981885936827 51.89309038934289, 538.2545642852783 67.10179222812468 C 551.5109399768739 82.31049406690647, 558.6264773963659 68.57069576823748, 576.8364136314499 76.67925801192571 C 595.0463498665339 84.78782025561394, 648.5647880267092 103.40371348873073, 647.5141816957821 115.75316569025401 Z" fill="#7b2cbf" opacity="0.19923705832926833" filter="url(#glow)" class="float" />
<path d="M 228.01788344754405 136.76630565255934 L 228.01788344754405 136.76630565255934 L 228.66340522266086 136.82278148994118 L 229.29416980018368 136.9913493716397 L 229.895607215433 137.2694402197739 L 230.453519974403 137.6528048498275 L 230.95426432073452 138.13556254098793 L 231.38492559513648 138.71026834284464 L 231.73348580833778 139.3679984345769 L 231.98898162494052 140.09845266858147 L 232.1416510495672 140.8900732545825 L 232.18306721757173 141.73017837430493 L 232.10625781928593 142.60510936237804 L 231.90580882811466 143.5003899477442 L 231.57795135745837 144.40089592285457 L 231.12063063798266 145.29103349656572 L 230.5335562836169 146.15492449200408 L 229.81823320018697 146.97659647367632 L 228.97797268303552 147.74017582954485 L 228.01788344754405 148.43008179427116 L 226.94484253728888 149.03121937977843 L 225.7674462567404 149.52916917895558 L 224.49594147704207 149.910372027782 L 223.1421378625691 150.16230655028363 L 221.71930176077257 150.27365766923552 L 220.24203268640284 150.23447424292905 L 218.72612351176707 150.03631408396546 L 217.18840564547207 149.67237472909787 L 215.6465806414746 149.1376084586288 L 214.1190398266564 148.42882020863684 L 212.62467366711294 147.54474717806062 L 211.1826727095819 146.48611910398586 L 209.8123220337631 145.25569836081655 L 208.53279123267237 143.85829923070474 L 207.3629220007656 142.30078589191962 L 206.32101545267045 140.59204887692553 L 205.42462131845622 138.7429599609241 L 204.6903311641204 136.76630565255934 L 204.13357776822264 134.6766996694309 L 203.7684427473912 132.49047499003242 L 203.6074744649877 130.22555627876994 L 203.66151817895442 127.90131367987757 L 203.93956028738214 125.53839916744498 L 204.44858841439708 123.15856682056221 L 205.19346894552552 120.78447856302296 L 206.17684347186346 118.43949706443755 L 207.3990454374283 116.14746764244362 L 208.8580381054167 113.93249113252965 L 210.54937476828334 111.81868980151583 L 212.46618192526162 109.82996847181992 L 214.59916594094395 107.98977309529269 L 216.93664348169182 106.32084906682232 L 219.46459580489636 104.84500159844717 L 222.16674675145458 103.58286048392911 L 225.02466406630597 102.55365157136922 L 228.01788344754405 101.77497722742388 L 231.1240545035458 101.2626080211356 L 234.31910758179424 101.03028777864986 L 237.5774402246209 101.08955406266927 L 240.8721218079326 101.44957601310438 L 244.17511473100132 102.11701134891173 L 247.4575103503971 103.09588417663508 L 250.68977769083986 104.38748507992841 L 253.8420228217157 105.99029477773671 L 256.88425666170605 107.89993243839731 L 259.7866688667158 110.10912952438217 L 262.51990536919993 112.6077298195392 L 265.05534707106074 115.38271605942099 L 267.3653871482964 118.41826334761633 L 269.4237044041464 121.69581929900035 L 271.20553010898993 125.19421060662424 L 272.6879057899309 128.88977548474656 L 273.8499294808365 132.75652119844796 L 274.6729880143913 136.76630565255934 L 275.1409730310701 140.88904178143446 L 275.24047849521014 145.09292325853278 L 274.96097764476787 149.34466983292356 L 274.2949774578643 153.6097904006547 L 273.23814889467735 157.8528617343595 L 271.7894313662456 162.03782062626823 L 269.9511100907874 166.12826704961458 L 267.7288652215087 170.0877758127808 L 265.1317918657524 173.8802140707676 L 262.172390361771 177.47006197087313 L 258.86652643432365 180.82273364482765 L 255.23336111153827 183.9048957188533 L 251.29525055082996 186.68478049679743 L 247.07761618880988 189.132490980027 L 242.60878589676656 191.22029492133893 L 237.91980708708007 192.9229051687028 L 233.0442329745288 194.21774363795407 L 228.01788344754408 195.08518636111845 L 222.87858224579568 195.50878718818768 L 217.66587236984734 195.47547787398207 L 212.42071186389242 194.97574245711684 L 207.18515231174194 194.00376403374497 L 202.00200256740106 192.5575422431784 L 196.91448040297925 190.6389800140382 L 191.96585489672947 188.25393836641513 L 187.19908250127284 185.41225832566613 L 182.65643982528943 182.12774927481394 L 178.37915623008826 178.4181433528362 L 174.40704938466337 174.3050157930984 L 170.7781669384728 169.81367138740947 L 167.52843745982022 164.9729975541881 L 164.69133374921103 159.81528478153191 L 162.29755157143074 154.37601550506926 L 160.374706757644 148.69362276381864 L 158.947053510047 142.80922025241736 L 158.03522659727315 136.76630565255937 L 157.6560099598134 130.61043937793767 L 157.8221340523647 124.38890110313935 L 158.54210403565287 118.15032666562018 L 159.8200606954931 111.94432812905046 L 161.65567571343928 105.82109997407348 L 164.04408264328796 99.83101453713853 L 166.97584466307586 94.02420994798534 L 170.4369598752952 88.4501739202383 L 174.40890462124318 83.15732682625841 L 178.86871496121745 78.19260753596143 L 183.78910615324557 73.60106551906628" fill="none" stroke="#e0aaff" stroke-width="1" opacity="0.3" class="drift" />
<path d="M 148.96783589275208 86.48235429479763 L 148.96783589275208 86.48235429479763 L 149.23108300985604 86.50538543325011 L 149.48831206548957 86.57412828686714 L 149.73358135273273 86.68753517240725 L 149.9611010601319 86.84387325045732 L 150.16530719330848 87.04074433266791 L 150.3409330874375 87.27511232977277 L 150.4830777443637 87.54333806150693 L 150.58727025923375 87.8412210744282 L 150.6495296398652 88.16404804191076 L 150.6664193672903 88.50664725289971 L 150.63509609758097 88.86344863304446 L 150.55335196270235 89.22854868416844 L 150.41964999121478 89.59577967624428 L 150.23315223756103 89.95878238062704 L 149.99374028080015 90.31108159470092 L 149.70202782930807 90.64616367669757 L 149.35936524644418 90.95755528556485 L 148.96783589275208 91.23890250464846 L 148.530244262155 91.48404951977277 L 148.05009597205708 91.68711602217256 L 147.53156974948476 91.84257251466224 L 146.97948163662375 91.9453127153867 L 146.3992417185488 91.99072227735708 L 145.79680375285153 91.97474307353924 L 145.1786081545046 91.89393233626771 L 144.5515188589527 91.74551598586305 L 143.9227546514127 91.52743553613702 L 143.29981561006625 91.23838802350465 L 142.6904053646468 90.87785847116471 L 142.10234991932506 90.44614446967333 L 141.54351382930238 89.94437252959334 L 141.02171455371342 89.37450594007521 L 140.54463583296484 88.7393439485034 L 140.11974095621468 88.04251215997913 L 139.75418679411368 87.28844414063434 L 139.4547394730504 86.48235429479763 L 139.22769255990576 85.63020217205597 L 139.0787886107397 84.73864844547714 L 139.01314491300352 83.81500288587263 L 139.03518421895376 82.86716473820067 L 139.14857122818958 81.90355598426137 L 139.35615552995424 80.93304804997166 L 139.65992166142354 79.96488258501196 L 140.0609468771029 79.00858700682944 L 140.55936715718644 78.073885559232 L 141.15435190987625 77.17060668752805 L 141.8440877448468 76.3085875768339 L 142.62577161295096 75.49757673731439 L 143.49561352162337 74.7471355493449 L 144.44884894700587 74.06653970254972 L 145.4797609733886 73.46468147512643 L 146.58171209894508 72.94997380362281 L 147.74718555477077 72.53025708828804 L 148.96783589275208 72.21270966524514 L 150.23454850763832 72.00376285408014 L 151.53750767069806 71.90902145814782 L 152.8662725673348 71.93319055516511 L 154.20986074981766 72.08000936779005 L 155.55683833962135 72.3521929482321 L 156.89541624250347 72.75138234794358 L 158.21355157407592 73.27810387361066 L 159.49905343488908 73.93173795456471 L 160.73969212254397 74.71049806500574 L 161.9233108246054 75.611420057753 L 163.03793880057427 76.63036217535416 L 164.07190503429152 77.7620159100711 L 165.01395132020787 78.99992778733592 L 165.85334373820925 80.3365320485828 L 166.57998147230722 81.76319410977646 L 167.18450193856432 83.27026457236512 L 167.65838120713283 84.84714346467173 L 167.9940287321554 86.48235429479763 L 168.18487544134075 88.16362740182849 L 168.22545428403933 89.87799200136911 L 168.11147239226855 91.61187623503803 L 167.8398740729689 93.35121445233187 L 167.40889392132067 95.08156087799989 L 166.81809942366235 96.78820874947442 L 166.0684225037975 98.45631394765968 L 165.16217955756875 100.07102209110342 L 164.10307961677026 101.61759801881577 L 162.89622038396553 103.08155655123471 L 161.54807198373373 104.44879339247827 L 160.06644838240402 105.7057150203933 L 158.4604665365468 106.83936640425645 L 156.74049343943557 107.83755539346403 L 154.91808134343094 108.68897263423673 L 153.00589154381007 109.38330589524733 L 151.0176072150226 109.91134771704958 L 148.96783589275208 110.26509534405179 L 146.87200229357666 110.4378419512575 L 144.7462322575551 110.42425824072231 L 142.607228686854 110.22046355419806 L 140.47214043474924 109.82408572822371 L 138.35842517321686 109.23430900536927 L 136.2837073331499 108.45190940976411 L 134.26563226835185 107.47927709570153 L 132.3217178422775 106.32042528419808 L 130.46920467450767 104.98098551304203 L 128.72490631173125 103.4681890401799 L 127.105060605213 101.7908343573175 L 125.62518358310018 99.95924088937498 L 124.2999271012902 97.98518907492532 L 123.14294154087642 95.88184714194973 L 122.16674479342902 93.66368501113419 L 121.38259873766495 91.34637587448111 L 120.80039436262894 88.94668610921272 L 120.42854663364709 86.48235429479764 L 120.27390012842103 83.97196020347761 L 120.34164639218996 81.43478473097517 L 120.63525387346772 78.8906618232418 L 121.15641120611674 76.35982353632615 L 121.90498450017739 73.86273943892941 L 122.8789891937294 71.41995163026998 L 124.07457690198973 69.05190669885924 L 125.48603757876788 66.77878599015426 L 127.10581718028142 64.62033558232696 L 128.92455089320103 62.59569738919303 L 130.931111858694 60.723242817400106 L 133.11267519324932 59.02041040108953 L 135.4547969762914 57.50354882133271 L 137.94150774513133 56.18776668971273 L 140.55541991075782 55.08679043559063 L 143.2778483844431 54.21283158507306 L 146.08894358619239 53.57646465680332 L 148.96783589275205 53.186516825841814 L 151.89279047621667 53.04997042259541 L 154.84137138520003 53.17187923959807 L 157.79061362996555 53.5552995156293 L 160.71720195169218 54.201236354953046 L 163.59765488495327 55.1086062202199 L 166.40851266220508 56.27421601171871 L 169.12652746022871 57.69275911417685 L 171.72885445156425 59.35682865622968 L 174.193242099449 61.25694808810072 L 176.49822012294044 63.3816190410778 L 178.62328356000805 65.71738628920139 L 180.5490713705164 68.24891949036945 L 182.25753804822003 70.95911124200396 L 183.7321167510462 73.82919084670819 L 184.95787251184305 76.83885304714566 L 185.9216441571141 79.96640085786315 L 186.61217363861758 83.18890149609342 L 187.02022157155872 86.48235429479762 L 187.13866787282547 89.82186937040683 L 186.96259650258907 93.18185571587114 L 186.48936343180435 96.5362172976688 L 185.7186470858059 99.85855565420637 L 184.65248064933283 103.12237742333188 L 183.29526575988723 106.30130516917606 L 181.65376726323134 109.36928983381239 L 179.73708885590375 112.30082310777865 L 177.5566295936753 115.07114799572076 L 175.12602140064072 117.65646584956974 L 172.46104786988647 120.03413815191209 L 169.57954480210574 122.18288135661811 L 166.50128308187874 124.08295313226864 L 163.2478346413101 125.71632840630102 L 159.84242240606181 127.06686367377253 L 156.30975525831207 128.12044811379707 L 152.67584918360095 128.8651401485343 L 148.9678358927522 129.2912881834551 L 145.2137603249983 129.3916343827422 L 141.44236854305313 129.16140045927207 L 137.68288762422316 128.59835459373386 L 133.96479923287473 127.70285874106071 L 130.3176086278849 126.47789573338147 L 126.77061091344818 124.92907574598895 L 123.35265638219914 123.06462185513536 L 120.09191682560231 120.89533458253311 L 117.01565469760264 118.43453548994705 L 114.14999701339627 115.69799005685513 L 111.51971584577917 112.7038102434702 L 109.14801724687534 109.47233730907665 L 107.05634037327806 106.02600562025738 L 105.26416852803943 102.38918834382429 L 103.78885375389322 98.588026073765 L 102.64545651911521 94.6502395889832 L 101.84660193114422 90.6049280777911 L 101.40235379424377 86.48235429479766 L 101.3201076969363 82.31371823489934 L 101.60450417364021 78.13092101647321 L 102.25736283393188 73.9663207606111 L 103.27763819327976 69.85248233445164 L 104.66139777216523 65.82192289359739 L 106.4018228575045 61.906855210568395 L 108.48923214255595 58.13893081270644 L 110.91112828043285 54.54898497347907 L 113.65226720337627 51.16678560542206 L 116.69474987652575 48.02078809085808 L 120.01813597254132 45.137898057966275 L 123.59957877354756 42.54324406486472" fill="none" stroke="#7b2cbf" stroke-width="1" opacity="0.3" class="drift" />
<circle cx="666.9794432631809" cy="32.061856648725275" r="0.601072954030728" fill="white" opacity="0.6834229882782679"  style="animation-delay: 4.101804215571433s" />
<circle cx="557.5542108067783" cy="26.225549166103335" r="1.4429785369984423" fill="white" opacity="0.6952836426420363"  style="animation-delay: 4.4984527199257895s" />
<circle cx="628.3421416321254" cy="92.61151196303739" r="1.0001180619613677" fill="white" opacity="0.7243402402873891"  style="animation-delay: 3.6154479956838714s" />
<circle cx="26.634922941815553" cy="158.71800134824318" r="1.436753158769727" fill="white" opacity="0.5972569152093907"  style="animation-delay: 1.1502086288130353s" />
<circle cx="65.71089916590864" cy="150.13794748162888" r="1.436693959145293" fill="white" opacity="0.5017860392744586"  style="animation-delay: 1.6541434733212224s" />
<circle cx="195.38765452961346" cy="0.6254057384518674" r="1.341793363361886" fill="white" opacity="0.30768663971017857" class="shimmer" style="animation-delay: 4.543362886469028s" />
<circle cx="122.72012688342109" cy="106.62518214718504" r="1.5497560101259882" fill="white" opacity="0.5366757776705455"  style="animation-delay: 4.244441871140964s" />
<circle cx="718.1617042787384" cy="124.41367242743144" r="1.2537468632170818" fill="white" opacity="0.6479538939883078"  style="animation-delay: 3.219941573459717s" />
<circle cx="397.7863705510332" cy="151.85287238911118" r="1.0184890442131571" fill="white" opacity="0.4358758206764293" class="shimmer" style="animation-delay: 1.965504873964261s" />
<circle cx="114.39766989073786" cy="116.24908046411701" r="1.0164099767273893" fill="white" opacity="0.5670942376597987"  style="animation-delay: 4.890115907905538s" />
<circle cx="545.8032474724151" cy="154.64331070184994" r="1.9497710961430692" fill="white" opacity="0.7718669442182595"  style="animation-delay: 0.47314303505103017s" />
<circle cx="223.6295395280667" cy="94.52472099068854" r="0.6187870208294179" fill="white" opacity="0.4821339899905805"  style="animation-delay: 4.9763420991421725s" />
<circle cx="117.877724093848" cy="107.32639600236288" r="1.7024626223430253" fill="white" opacity="0.33293292540369673"  style="animation-delay: 1.8828883040750677s" />
<circle cx="110.70616984328421" cy="6.323082290230486" r="1.2220771873441318" fill="white" opacity="0.4348596520536386" class="shimmer" style="animation-delay: 1.7369309831391833s" />
<circle cx="727.3672063427243" cy="155.539881365508" r="1.8738839218985957" fill="white" opacity="0.48122122160102393"  style="animation-delay: 4.8945602890887265s" />
<circle cx="430.58597430529863" cy="15.336498705866708" r="1.0093478796910438" fill="white" opacity="0.5270804108613774"  style="animation-delay: 2.085208981523683s" />
<circle cx="465.53206833895155" cy="118.694553695435" r="0.8241668112640994" fill="white" opacity="0.7592387901511162" class="shimmer" style="animation-delay: 3.7959197670937828s" />
<circle cx="718.3910178402298" cy="68.14089869260114" r="1.3273932188312165" fill="white" opacity="0.40791975099193073"  style="animation-delay: 4.116682202816177s" />
<circle cx="14.793670638730028" cy="67.21636061150589" r="1.3513740478073264" fill="white" opacity="0.6359033805164462"  style="animation-delay: 4.742374984610804s" />
<circle cx="662.3458425626577" cy="0.16968558032330883" r="0.7080496439743837" fill="white" opacity="0.7072301899284616" class="shimmer" style="animation-delay: 0.36532528385490926s" />
<circle cx="8.297324395670458" cy="31.17499872631675" r="1.7060994342377913" fill="white" opacity="0.5781139266431936"  style="animation-delay: 3.0506338053287974s" />
<circle cx="336.8904566795171" cy="127.35238866807177" r="0.9227772063490007" fill="white" opacity="0.6658478138269504"  style="animation-delay: 4.95408922013692s" />
<circle cx="222.13563989372548" cy="147.18656603550318" r="1.07396941249538" fill="white" opacity="0.7027045117143726"  style="animation-delay: 2.738154227909433s" />
<circle cx="215.04402414216753" cy="182.61468721272368" r="1.0889279464692192" fill="white" opacity="0.7524935357568174"  style="animation-delay: 1.745144101742444s" />
<circle cx="90.7498016934273" cy="26.012954590266133" r="1.2553091174802251" fill="white" opacity="0.6135692223452991" class="shimmer" style="animation-delay: 1.4714439788094469s" />
<circle cx="62.33520215708719" cy="25.27929479232096" r="1.2761752697656414" fill="white" opacity="0.5892396270920075"  style="animation-delay: 4.476680649262738s" />
<circle cx="422.678753131774" cy="144.474741313074" r="1.7570578296281643" fill="white" opacity="0.5720053049171165"  style="animation-delay: 4.0319656396193s" />
<circle cx="617.6318647569449" cy="168.70362425521654" r="1.1068171489294794" fill="white" opacity="0.324045708057442"  style="animation-delay: 4.822862504019609s" />
<circle cx="545.2191668935875" cy="129.202818681145" r="0.7479461067967679" fill="white" opacity="0.5160936603692197"  style="animation-delay: 3.429370825007172s" />
<circle cx="664.4527515996717" cy="145.76584711839345" r="1.8069030686753025" fill="white" opacity="0.687166997428347"  style="animation-delay: 1.81954136622135s" />
<circle cx="609.1119147748495" cy="36.78203021735791" r="1.570471223878411" fill="white" opacity="0.656666165634898"  style="animation-delay: 1.6780422247228222s" />
<circle cx="366.5442072751901" cy="27.38983665409509" r="1.1750660800237216" fill="white" opacity="0.34864609149916664"  style="animation-delay: 4.317745161739568s" />
<circle cx="527.6271273134357" cy="136.50569575718094" r="1.7371599375873412" fill="white" opacity="0.6041161077619799" class="shimmer" style="animation-delay: 1.9461507013205714s" />
<circle cx="745.1459014376004" cy="140.20994292857924" r="1.6805686795806858" fill="white" opacity="0.6555553483135741"  style="animation-delay: 3.59063721786135s" />
<circle cx="141.66080226523476" cy="13.78370627317227" r="0.8494975618095696" fill="white" opacity="0.5888762274652313"  style="animation-delay: 1.6652463083413704s" />
<circle cx="407.5452107228276" cy="3.62383905292627" r="1.8610165891402548" fill="white" opacity="0.615885203986104"  style="animation-delay: 1.1531577239308277s" />
<circle cx="666.4038000841083" cy="125.426466646124" r="1.757195288711909" fill="white" opacity="0.7420250813398739"  style="animation-delay: 0.933544480052314s" />
<circle cx="704.1089224829614" cy="14.251038118206205" r="1.5797803330791718" fill="white" opacity="0.5723190949142922"  style="animation-delay: 0.4940664202892586s" />
<circle cx="83.8076148057965" cy="6.410194531112268" r="0.7003172380774607" fill="white" opacity="0.6722472234153825"  style="animation-delay: 0.472151731625462s" />
<circle cx="483.7376819694288" cy="7.711518856360167" r="0.7209744537065553" fill="white" opacity="0.5188775652266404"  style="animation-delay: 0.6816769930601074s" />
<circle cx="512.585350476073" cy="23.207965058315814" r="1.4065603145582357" fill="#9d4edd" opacity="0.8" filter="url(#glow)" class="shimmer" style="animation-delay: 2.5281495581917692s" />
<circle cx="755.4258123225667" cy="128.86244091630707" r="2.4921588708638724" fill="#4a0080" opacity="0.8" filter="url(#glow)" class="shimmer" style="animation-delay: 1.3468730138101501s" />
<circle cx="449.1137359209439" cy="73.00762237677483" r="2.4758356643578927" fill="#4a0080" opacity="0.8" filter="url(#glow)" class="shimmer" style="animation-delay: 0.08174108331508756s" />
<circle cx="791.3866889877584" cy="179.32963653476773" r="2.2804898576132886" fill="#7b2cbf" opacity="0.8" filter="url(#glow)" class="shimmer" style="animation-delay: 2.754057199569133s" />
<circle cx="629.2623040543608" cy="101.13898843239686" r="1.287222010009022" fill="#7b2cbf" opacity="0.8" filter="url(#glow)" class="shimmer" style="animation-delay: 1.1999559771768062s" />
<circle cx="457.3815990016319" cy="134.24025475192408" r="1.514923684671714" fill="#7b2cbf" opacity="0.8" filter="url(#glow)" class="shimmer" style="animation-delay: 1.0820733342623061s" />
<circle cx="447.5659940637106" cy="161.10747133825524" r="2.6988843907384212" fill="#4a0080" opacity="0.8" filter="url(#glow)" class="shimmer" style="animation-delay: 1.527849653223208s" />
<circle cx="108.90080849747133" cy="119.5574814168336" r="1.705740185004558" fill="#c77dff" opacity="0.8" filter="url(#glow)" class="shimmer" style="animation-delay: 0.8220922894288845s" />
<line x1="548.3153347803193" y1="163.61999778207456" x2="564.6283501999397" y2="108.94139030515339" stroke="#e0aaff" stroke-width="0.5" opacity="0.3" />
<line x1="525.650197795647" y1="107.32073982702191" x2="142.6325445116193" y2="105.1651740974338" stroke="#e0aaff" stroke-width="0.5" opacity="0.3" />
<line x1="142.6325445116193" y1="105.1651740974338" x2="182.68240879446824" y2="92.79592646272144" stroke="#e0aaff" stroke-width="0.5" opacity="0.3" />

  
    <text x="400" y="120" text-anchor="middle" class="name-text" fill="url(#textGrad)" filter="url(#textGlow)">
      JOEL HOOKS
    </text>
  
</svg>
