<svg xmlns="http://www.w3.org/2000/svg" viewBox="0 0 800 200" width="800" height="200">
  <rect width="800" height="200" fill="#1a0a0a"/>
  
    <defs>
      <linearGradient id="grad1" x1="0%" y1="0%" x2="100%" y2="100%">
        <stop offset="0%" style="stop-color:#ff4500;stop-opacity:0.8" />
        <stop offset="100%" style="stop-color:#ff6b35;stop-opacity:0.8" />
      </linearGradient>
      <linearGradient id="grad2" x1="100%" y1="0%" x2="0%" y2="100%">
        <stop offset="0%" style="stop-color:#f7c59f;stop-opacity:0.7" />
        <stop offset="100%" style="stop-color:#efa48b;stop-opacity:0.7" />
      </linearGradient>
      <linearGradient id="textGrad" x1="0%" y1="0%" x2="100%" y2="0%">
        <stop offset="0%" style="stop-color:#ff4500" />
        <stop offset="25%" style="stop-color:#ff6b35" />
        <stop offset="50%" style="stop-color:#f7c59f" />
        <stop offset="75%" style="stop-color:#efa48b" />
        <stop offset="100%" style="stop-color:#d4a5a5" />
      </linearGradient>
      <filter id="glow">
        <feGaussianBlur stdDeviation="3" result="coloredBlur"/>
        <feMerge>
          <feMergeNode in="coloredBlur"/>
          <feMergeNode in="SourceGraphic"/>
        </feMerge>
      </filter>
      <filter id="textGlow">
        <feGaussianBlur stdDeviation="2" result="coloredBlur"/>
        <feMerge>
          <feMergeNode in="coloredBlur"/>
          <feMergeNode in="SourceGraphic"/>
        </feMerge>
      </filter>
    </defs>
  
  
    <style>
      @keyframes float {
        0%, 100% { transform: translateY(0px); }
        50% { transform: translateY(-8px); }
      }
      @keyframes pulse {
        0%, 100% { opacity: 0.4; }
        50% { opacity: 0.9; }
      }
      @keyframes drift {
        0% { transform: translateX(0px); }
        50% { transform: translateX(10px); }
        100% { transform: translateX(0px); }
      }
      @keyframes shimmer {
        0% { opacity: 0.3; }
        50% { opacity: 1; }
        100% { opacity: 0.3; }
      }
      @keyframes glitch {
        0%, 100% { transform: translateX(0); }
        20% { transform: translateX(-2px); }
        40% { transform: translateX(2px); }
        60% { transform: translateX(-1px); }
        80% { transform: translateX(1px); }
      }
      @keyframes dataStream {
        0% { stroke-dashoffset: 0; }
        100% { stroke-dashoffset: -20; }
      }
      .float { animation: float 8s ease-in-out infinite; }
      .pulse { animation: pulse 8s ease-in-out infinite; }
      .drift { animation: drift 8s ease-in-out infinite; }
      .shimmer { animation: shimmer 3s ease-in-out infinite; }
      .glitch { animation: glitch 0.5s ease-in-out infinite; }
      .dataStream { animation: dataStream 2s linear infinite; }
      .name-text { 
        font-family: -apple-system, BlinkMacSystemFont, 'Segoe UI', Helvetica, Arial, sans-serif;
        font-weight: 700;
        font-size: 64px;
        letter-spacing: -2px;
      }
    </style>
  
  <rect x="0" y="160" width="800" height="50" fill="#ff4500" opacity="0.3" />
<rect x="0" y="170" width="800" height="40" fill="#ff6b35" opacity="0.25" />
<rect x="0" y="180" width="800" height="30" fill="#f7c59f" opacity="0.19999999999999998" />
<rect x="0" y="190" width="800" height="20" fill="#efa48b" opacity="0.14999999999999997" />
<rect x="0" y="200" width="800" height="10" fill="#d4a5a5" opacity="0.09999999999999998" />
<line x1="253.77920638981976" y1="170" x2="253.77920638981976" y2="256.4320373046012" stroke="#ff4500" stroke-width="2.9187526489604596" opacity="0.2466021382928648" class="pulse" />
<line x1="253.77920638981976" y1="170" x2="279.809485762052" y2="267.1463251523828" stroke="#ff4500" stroke-width="1.748060628174581" opacity="0.2920538158305177" class="pulse" />
<line x1="253.77920638981976" y1="170" x2="318.2834684131721" y2="281.7246591291819" stroke="#ff4500" stroke-width="1.3193141056124835" opacity="0.23264325132354519" class="pulse" />
<line x1="253.77920638981976" y1="170" x2="339.8297734614193" y2="256.0505670715995" stroke="#ff4500" stroke-width="2.7520975637859384" opacity="0.16656139316521873" class="pulse" />
<line x1="253.77920638981976" y1="170" x2="382.81789881279167" y2="244.50052380628017" stroke="#ff4500" stroke-width="2.718648540405164" opacity="0.28077725775125384" class="pulse" />
<line x1="253.77920638981976" y1="170" x2="373.9687224941382" y2="202.20468377883955" stroke="#ff4500" stroke-width="1.094718762697291" opacity="0.2970255213159336" class="pulse" />
<line x1="253.77920638981976" y1="170" x2="355.99176943285624" y2="170" stroke="#ff4500" stroke-width="2.442159911231092" opacity="0.232474118490724" class="pulse" />
<line x1="253.77920638981976" y1="170" x2="356.4131170791979" y2="142.49932651473316" stroke="#ff4500" stroke-width="2.981488038044359" opacity="0.1282342606714523" class="pulse" />
<line x1="253.77920638981976" y1="170" x2="346.0270014451631" y2="116.74071069264812" stroke="#ff4500" stroke-width="1.2678097250138012" opacity="0.18870604515248962" class="pulse" />
<line x1="253.77920638981976" y1="170" x2="355.26791071368217" y2="68.51129567613759" stroke="#ff4500" stroke-width="2.990410423943914" opacity="0.11989269404447898" class="pulse" />
<line x1="253.77920638981976" y1="170" x2="303.1137643303209" y2="84.55003907810149" stroke="#ff4500" stroke-width="1.3002015309096056" opacity="0.1361737799273473" class="pulse" />
<line x1="253.77920638981976" y1="170" x2="288.6700266899214" y2="39.785685922265344" stroke="#ff4500" stroke-width="1.3942102978799027" opacity="0.13393086953289313" class="pulse" />
<path d="M 120.08484578872836 69.57640610581319 C 122.52658650954623 78.52332595522327, 119.32279919549553 99.02507603443162, 112.33719353471218 103.74238781649709 C 105.35158787392884 108.45969959856255, 88.93238049821024 98.50776869425201, 78.17121182402829 97.880276798206 C 67.41004314984635 97.25278490215999, 54.913064174995476 104.69474822228646, 47.770181489620484 99.977436440221 C 40.62729880424549 95.26012465815553, 35.28092245430285 79.67708962647366, 35.31391571177832 69.57640610581319 C 35.34690896925379 59.475722585152724, 40.825258349098284 44.752322939566305, 47.96814103447328 39.373335316258185 C 55.11102371984827 33.994347692950065, 69.88477712813969 35.52122479866807, 78.17121182402829 37.30248036596447 C 86.45764651991689 39.08373593326087, 90.70114354902155 44.68188109672846, 97.6867492098049 50.06086872003658 C 104.67235487058825 55.4398563433447, 117.64310506791048 60.629486256403105, 120.08484578872836 69.57640610581319 Z" fill="#f7c59f" opacity="0.14335190741209708" class="drift" />
<path d="M 520.4441525138111 55.80348806891831 C 519.2242883179428 65.52975540361216, 522.8948744187803 76.24871395373866, 518.2811769164789 81.32269748539483 C 513.6674794141775 86.396681017051, 501.14914798094014 86.36661191674307, 492.7619675000024 86.2473892588553 C 484.3747870190647 86.12816660096755, 475.1530006897621 85.68134506972447, 467.9580940308524 80.6073615380683 C 460.7631873719427 75.53337800641214, 448.6618166681263 63.14073501355034, 449.59252754654426 55.80348806891832 C 450.52323842496224 48.4662411242863, 466.34745264245055 39.863373752881984, 473.54235930136025 36.583879870276164 C 480.73726596026995 33.304385987670344, 484.0856337016143 38.39632250545749, 492.7619675000024 36.12652477328342 C 501.4383012983905 33.85672704110935, 520.9866645893875 19.685599594625952, 525.6003620916889 22.96509347723177 C 530.2140595939903 26.244587359837585, 521.6640167096795 46.07722073422447, 520.4441525138111 55.80348806891831 Z" fill="#f7c59f" opacity="0.19246803606701046" class="drift" />
<path d="M 541.5028040777722 44.5428513406497 C 542.5835419664414 56.23874794523771, 543.9940339460165 72.545357980174, 536.8262992237111 82.87275482042139 C 529.6585645014056 93.20015166066878, 511.53241072216315 106.24785189716751, 498.49639574393944 106.50723238213399 C 485.46038076571574 106.76661286710048, 467.5427075452158 94.75643457046772, 458.6102093543688 84.42903773022033 C 449.6777111635218 74.10164088997294, 444.5762511539631 57.51309135894567, 444.9014065988573 44.542851340649705 C 445.2265620437515 31.572611322353737, 451.62864383288724 17.56271153744452, 460.56114202373425 6.607597620444523 C 469.49364021458126 -4.347516296555474, 486.86627409927917 -22.20279509009174, 498.49639574393944 -21.18783216135028 C 510.1265173885997 -20.172869232608818, 523.1741371693904 1.7422612758933038, 530.3418718916959 12.6973751928933 C 537.5096066140013 23.652489109893295, 540.422066189103 32.84695473606168, 541.5028040777722 44.5428513406497 Z" fill="#f7c59f" opacity="0.10823747058819169" class="drift" />
<path d="M 411.81563415426706 72.45886311260551 C 415.05435259397325 82.90783037086743, 417.24640169450373 108.39330846877742, 410.11994378377017 113.52192020650986 C 402.9934858730366 118.6505319442423, 382.51539856334904 103.45970736348504, 369.0568866898658 103.23053353900018 C 355.59837481638255 103.00135971451532, 337.9811223614565 117.27548899733313, 329.36887254287063 112.14687725960069 C 320.75662272428474 107.01826552186824, 314.7139439039207 83.01875728717405, 317.3833877783506 72.45886311260551 C 320.05283165278047 61.89896893803697, 336.77328597086387 54.628860817143504, 345.3855357894497 48.78751221218944 C 353.99778560803554 42.94616360723538, 361.5065371305186 37.07067074208965, 369.0568866898658 37.410771482881145 C 376.607236249213 37.75087222367264, 383.56117523479935 44.98676805198431, 390.6876331455329 50.82811665693838 C 397.8140910562665 56.66946526189244, 408.57691571456087 62.0098958543436, 411.81563415426706 72.45886311260551 Z" fill="#f7c59f" opacity="0.1015542180794009" class="drift" />
<path d="M 344.10538390425364 63.22105469817117 L 350.77761341624046 59.88493994217777 L 357.44984292822727 63.22105469817117" fill="none" stroke="#d4a5a5" stroke-width="1.5" opacity="0.4" class="float" style="animation-delay: 0.031536907516400925s" />
<path d="M 158.3687323752443 41.37137954467937 L 165.55822607365553 37.77663269547376 L 172.74771977206677 41.37137954467937" fill="none" stroke="#d4a5a5" stroke-width="1.5" opacity="0.4" class="float" style="animation-delay: 1.2491606864903493s" />
<path d="M 487.65599423906747 64.93277362215144 L 498.9456574676454 59.28794200786248 L 510.2353206962233 64.93277362215144" fill="none" stroke="#d4a5a5" stroke-width="1.5" opacity="0.4" class="float" style="animation-delay: 2.5867290307576836s" />
<path d="M 53.10319481134894 23.09247356525823 L 58.72284858053216 20.282646680666623 L 64.34250234971537 23.09247356525823" fill="none" stroke="#d4a5a5" stroke-width="1.5" opacity="0.4" class="float" style="animation-delay: 0.7068247214901937s" />
<path d="M 299.4167804546288 29.52284313181914 L 310.20417477496176 24.12914597165266 L 320.9915690952947 29.52284313181914" fill="none" stroke="#d4a5a5" stroke-width="1.5" opacity="0.4" class="float" style="animation-delay: 0.960817185835221s" />

  
    <text x="400" y="120" text-anchor="middle" class="name-text" fill="url(#textGrad)" filter="url(#textGlow)">
      JOEL HOOKS
    </text>
  
</svg>
