<svg xmlns="http://www.w3.org/2000/svg" viewBox="0 0 800 200" width="800" height="200">
  <rect width="800" height="200" fill="#05010d"/>
  
    <defs>
      <linearGradient id="grad1" x1="0%" y1="0%" x2="100%" y2="100%">
        <stop offset="0%" style="stop-color:#4a0080;stop-opacity:0.8" />
        <stop offset="100%" style="stop-color:#7b2cbf;stop-opacity:0.8" />
      </linearGradient>
      <linearGradient id="grad2" x1="100%" y1="0%" x2="0%" y2="100%">
        <stop offset="0%" style="stop-color:#9d4edd;stop-opacity:0.7" />
        <stop offset="100%" style="stop-color:#c77dff;stop-opacity:0.7" />
      </linearGradient>
      <linearGradient id="textGrad" x1="0%" y1="0%" x2="100%" y2="0%">
        <stop offset="0%" style="stop-color:#4a0080" />
        <stop offset="25%" style="stop-color:#7b2cbf" />
        <stop offset="50%" style="stop-color:#9d4edd" />
        <stop offset="75%" style="stop-color:#c77dff" />
        <stop offset="100%" style="stop-color:#e0aaff" />
      </linearGradient>
      <filter id="glow">
        <feGaussianBlur stdDeviation="5" result="coloredBlur"/>
        <feMerge>
          <feMergeNode in="coloredBlur"/>
          <feMergeNode in="SourceGraphic"/>
        </feMerge>
      </filter>
      <filter id="textGlow">
        <feGaussianBlur stdDeviation="2" result="coloredBlur"/>
        <feMerge>
          <feMergeNode in="coloredBlur"/>
          <feMergeNode in="SourceGraphic"/>
        </feMerge>
      </filter>
    </defs>
  
  
    <style>
      @keyframes float {
        0%, 100% { transform: translateY(0px); }
        50% { transform: translateY(-8px); }
      }
      @keyframes pulse {
        0%, 100% { opacity: 0.4; }
        50% { opacity: 0.9; }
      }
      @keyframes drift {
        0% { transform: translateX(0px); }
        50% { transform: translateX(10px); }
        100% { transform: translateX(0px); }
      }
      @keyframes shimmer {
        0% { opacity: 0.3; }
        50% { opacity: 1; }
        100% { opacity: 0.3; }
      }
      @keyframes glitch {
        0%, 100% { transform: translateX(0); }
        20% { transform: translateX(-2px); }
        40% { transform: translateX(2px); }
        60% { transform: translateX(-1px); }
        80% { transform: translateX(1px); }
      }
      @keyframes dataStream {
        0% { stroke-dashoffset: 0; }
        100% { stroke-dashoffset: -20; }
      }
      .float { animation: float 8s ease-in-out infinite; }
      .pulse { animation: pulse 8s ease-in-out infinite; }
      .drift { animation: drift 8s ease-in-out infinite; }
      .shimmer { animation: shimmer 3s ease-in-out infinite; }
      .glitch { animation: glitch 0.5s ease-in-out infinite; }
      .dataStream { animation: dataStream 2s linear infinite; }
      .name-text { 
        font-family: -apple-system, BlinkMacSystemFont, 'Segoe UI', Helvetica, Arial, sans-serif;
        font-weight: 700;
        font-size: 64px;
        letter-spacing: -2px;
      }
    </style>
  
  <path d="M 245.815970843375 185.86207026063892 C 244.48324708307973 208.74241017622003, 218.76094123703865 228.9632495292985, 200.42136562259986 250.5049187264965 C 182.08179000816108 272.0465879236945, 154.72789104076548 317.7103277150896, 135.7785171567423 315.1120854438269 C 116.82914327271912 312.51384317256424, 99.52263731966224 256.4571342961185, 86.72512231846076 234.9154650989205 C 73.92760731725929 213.3737959017225, 66.58035131087385 209.80012603473983, 58.99342714953346 185.86207026063892 C 51.40650298819306 161.924014486538, 28.406062349216903 107.98415180651877, 41.20357735041837 91.287130454315 C 54.00109235161984 74.59010910211124, 107.90949535108344 82.02398401763388, 135.77851715674228 85.67994214741634 C 163.64753896240111 89.3359002771988, 190.07813256993262 96.52585788080602, 208.4177081843714 113.22287923300978 C 226.7572837988102 129.91990058521355, 247.14869460367026 162.9817303450578, 245.815970843375 185.86207026063892 Z" fill="#4a0080" opacity="0.1898043644588817" filter="url(#glow)" class="float" />
<path d="M 129.62483135250974 20.76834529259437 C 128.3099148697233 32.57232063137981, 91.06191272027463 46.12264466782862, 77.19424229875207 53.31424307239188 C 63.32657187722951 60.50584147695515, 55.67179947608584 63.84224757911729, 46.41880882337438 63.917935719973975 C 37.16581817066292 63.99362386083066, 29.40385757810485 57.04327601915327, 21.676298382483324 53.76837191753197 C 13.948739186861797 50.49346781591068, 6.002873464417838 49.76851554773581, 0.05345364964520627 44.26851111024621 C -5.895966165127425 38.76850667275661, -11.564646259537971 30.38581301931847, -14.020220506152462 20.768345292594375 C -16.47579475276695 11.15087756587028, -18.203135850018356 -0.4689817423182916, -14.679991830041736 -13.436295250098368 C -11.156847810065115 -26.403608757878445, -2.5379594507725347 -57.1652046487479, 7.118643613707267 -57.03553575408608 C 16.775246678187067 -56.90586685942425, 30.26544362654313 -19.245936347754952, 43.25962655683707 -12.658281882127397 C 56.25380948713101 -6.070627416499843, 70.6895403961921 -23.08071348944104, 85.08374119547088 -17.509608960320747 C 99.47794199474966 -11.938504431200453, 130.9397478352962 8.964369953808928, 129.62483135250974 20.76834529259437 Z" fill="#4a0080" opacity="0.12618047835339072" filter="url(#glow)" class="float" />
<path d="M 155.1336925183887 85.72202407575679 C 153.4744457768114 106.65146160539967, 135.9253630366727 126.4868155781773, 123.85538609521424 145.3113372677691 C 111.78540915375577 164.13585895736088, 100.81090864503928 190.21628390954828, 82.71383086963783 198.6691542133075 C 64.61675309423639 207.12202451706673, 38.789063974174645 197.6353212841994, 15.272919442805609 196.02855909032453 C -8.243225088563428 194.42179689644968, -42.9949162813831 202.11850653151038, -58.383036318576394 189.02858105005845 C -73.77115635576969 175.93865556860652, -69.39970247448575 141.33549295638673, -77.05580078035419 117.48900620161292 C -84.71189908622263 93.64251944683912, -105.07718727938637 71.17923138482166, -104.31962615378703 45.94966052141557 C -103.56206502818769 20.720089658009474, -92.68023143233373 -23.786008568686405, -72.51043402675816 -33.88841897882361 C -52.3406366211826 -43.99082938896081, -8.619912281216315 -16.983277759747022, 16.699158279666378 -14.664801939407639 C 42.01822884054907 -12.346326119068253, 59.88537129436937 -25.710816395007214, 79.403989338538 -19.9775640567873 C 98.92260738270662 -14.244311718567388, 121.18924934803636 2.118114067821157, 133.81086654467813 19.734712089911838 C 146.4324837413199 37.35131011200252, 156.792939259966 64.79258654611391, 155.1336925183887 85.72202407575679 Z" fill="#c77dff" opacity="0.23139013276500692" filter="url(#glow)" class="float" />
<path d="M 272.80154610951956 45.65975419381414 C 269.47131996178246 63.7336297570205, 263.9466350368818 78.35155900227518, 254.03175517675024 91.49820628652384 C 244.11687531661866 104.6448535707725, 230.32477822825453 118.4826316700284, 213.31226694873013 124.53963789930611 C 196.29975566920572 130.59664412858382, 174.1376080957088 133.757418619064, 151.95668749960382 127.84024366219012 C 129.77576690349883 121.92306870531624, 89.99236160128366 109.16594232346566, 80.22674337210023 89.03658815806287 C 70.4611251429168 68.90723399266008, 82.64418374620595 30.131494058268494, 93.3629781245032 7.064118669773386 C 104.08177250280045 -16.003256718721723, 123.48955512852068 -36.65110197140232, 144.5395096418837 -49.36766417290778 C 165.58946415524673 -62.08422637441324, 198.0837714677999 -74.63902405262496, 219.6627052046814 -69.23525453925939 C 241.2416389415629 -63.83148502589381, 265.15663857903303 -36.09421521489327, 274.01311206317274 -16.945047092714347 C 282.86958554731245 2.2041210294645737, 276.13177225725667 27.585878630607773, 272.80154610951956 45.65975419381414 Z" fill="#9d4edd" opacity="0.10565118170659263" filter="url(#glow)" class="float" />
<path d="M 600.5687723061315 100.47917143520098 L 600.5687723061315 100.47917143520098 L 600.8692699931174 100.50546157622802 L 601.1628980377237 100.58393183161385 L 601.4428739566097 100.71338626654935 L 601.7025886557461 100.89184683758509 L 601.9356908122408 101.11657600267353 L 602.1361685061323 101.38410805319828 L 602.2984272274952 101.69028884964138 L 602.4173634197093 102.03032355680178 L 602.4884327635211 102.39883189259069 L 602.5077124581325 102.78991032717333 L 602.4719568145377 103.19720059734395 L 602.378645542126 103.6139638352027 L 602.2260241815601 104.03315955108505 L 602.0131362144758 104.44752865885236 L 601.7398464628733 104.84967968759233 L 601.4068554774344 105.23217728793901 L 601.015704703591 105.58763211396285 L 600.5687723061315 105.90879114318473 L 600.0692596266177 106.18862748793484 L 599.5211683420027 106.42042875112351 L 598.9292684866929 106.59788298854886 L 598.2990575930189 106.71516135808173 L 597.6367112957578 106.76699656330358 L 596.9490258341423 106.74875623520441 L 596.2433529688443 106.65651044007139 L 595.5275279109288 106.48709255432911 L 594.8097909339623 106.23815280737013 L 594.0987034086088 105.90820386080378 L 593.4030590604818 105.49665786645404 L 592.7317913061272 105.00385452518744 L 592.093877568254 104.43107975353071 L 591.498241509214 103.78057465427383 L 590.9536541508705 103.05553458003298 L 590.4686348690632 102.26009817421976 L 590.0513532616217 101.39932637114724 L 589.7095328901639 100.47917143520098 L 589.4503578876497 99.50643621720066 L 589.2803834058786 98.48872390335646 L 589.205450849914 97.43437862767226 L 589.2306088099847 96.35241741135992 L 589.3600405560355 95.25245398192618 L 589.5969989061255 94.14461510921994 L 589.9437492177543 93.03945017506713 L 590.4015211814531 91.94783476639658 L 590.9704700191828 90.8808691482524 L 591.6496476069268 89.84977253212816 L 592.4369839520317 88.86577410604464 L 593.3292793621531 87.94000183519412 L 594.3222075449006 87.08337007533024 L 595.4103297763301 86.30646706501746 L 596.5871201732093 85.61944337707041 L 597.8450019993968 85.0319024138024 L 599.1753948316986 84.55279402494338 L 600.5687723061315 84.19031231124973 L 602.0147300626185 83.9517986509714 L 603.5020634056918 83.8436509506179 L 605.0188541017503 83.87124007611388 L 606.552565640701 84.03883436578809 L 608.0901462023074 84.34953306311172 L 609.6181384861044 84.80520943519241 L 611.122795489112 85.4064642633172 L 612.5902012485376 86.15259030497238 L 614.0063955078595 87.04154823347297 L 615.3575012147545 88.06995446239458 L 616.6298537187945 89.23308115825446 L 617.8101305061409 90.52486863723077 L 618.8854802879955 91.93795023106897 L 619.8436502495811 93.46368959467118 L 620.6731102671316 95.09223031418863 L 621.3631729118603 96.81255756075052 L 621.9041080821369 98.61257142228143 L 622.2872511380665 100.47917143520098 L 622.5051034561089 102.39835173017461 L 622.5514243750448 104.35530610247716 L 622.4213135680882 106.33454221891006 L 622.1112829488104 108.320004080499 L 621.619317300214 110.29520177427807 L 620.9449229061427 112.24334746916576 L 620.0891635615219 114.14749654102827 L 619.0546834419102 115.99069265120897 L 617.8457164226389 117.7561155517084 L 616.4680815525396 119.4272303493743 L 614.9291645059247 120.9879369313707 L 613.2378849580936 122.422718235213 L 611.4046499531646 123.71678603905838 L 609.4412934573897 124.85622295191664 L 607.361002415234 125.82811929907078 L 605.1782297482978 126.62070362526012 L 602.9085948575377 127.22346557695431 L 600.5687723061315 127.62726997511973 L 598.1763694726712 127.8244609509263 L 595.7497940711395 127.80895508844463 L 593.3081125343322 127.57632260002732 L 590.870900350105 127.12385565114602 L 588.4580855241533 126.45062305127692 L 586.0897864181748 125.55751063521473 L 583.7861452774574 124.44724677409815 L 581.5671588165217 123.12441257653009 L 579.4525072748446 121.59543646648784 L 577.4613833864079 119.86857295521102 L 575.6123227264551 117.95386555784098 L 573.9230369061169 115.86309394115493 L 572.4102510802807 113.60970552513525 L 571.0895472161498 111.20873189718775 L 569.975214539392 108.6766905323937 L 569.080108531742 106.0314724450831 L 568.4155197986303 103.29221652509383 L 567.991054058229 100.479171435201 L 567.8145244246583 97.61354606325408 L 567.8918570685576 94.71734963249315 L 568.2270112384355 91.8132226753115 L 568.8219145169204 88.92426016844604 L 569.6764140680622 86.07382821032165 L 570.7882445061151 83.28537569325242 L 572.1530128837276 80.58224248368026 L 573.7642011592521 77.98746567198941 L 575.6131863600651 75.52358548913466 L 577.6892785125196 73.21245250992718 L 579.9797762606447 71.07503777201792 L 582.4700399461856 69.13124743518384 L 585.1435817732961 67.39974358735691 L 587.9821725334162 65.89777277195319 L 590.9659642208485 64.64100376559196 L 594.0736277285336 63.643376076481296 L 597.282504677752 62.91696056195193 L 600.5687723061315 62.47183347931473 L 603.907620216565 62.31596518797995 L 607.2734376765551 62.45512461329678 L 610.640010054111 62.892800464635414 L 613.9807228836148 63.63014007272381 L 617.268771973912 64.66590657513837 L 620.4773779020718 65.9964550351821 L 623.5800031804989 67.61572792929047 L 626.5505703429449 69.51527028277138 L 629.3636791669772 71.68426457435525 L 631.9948212369554 74.10958536798739 L 634.4205900528212 76.77587346686751 L 636.6188849061512 79.66562922126327 L 638.5691067759689 82.75932445946444 L 640.2523445426452 86.0355323517572 L 641.6515498786101 89.47107436182789 L 642.7516992491815 93.04118328988721 L 643.5399415451284 96.71968126833491 L 644.0057299700014 100.47917143520097 L 644.1409369191003 104.29124188412116" fill="none" stroke="#4a0080" stroke-width="1" opacity="0.3" class="drift" />
<path d="M 688.6310603835899 99.35909000596199 L 688.6310603835899 99.35909000596199 L 688.9366506925139 99.38582569367622 L 689.2352549372255 99.46562580736504 L 689.5199756896606 99.5972741443633 L 689.784091849546 99.77875913874236 L 690.0211444562683 100.00729685453125 L 690.2250197041053 100.2793628487389 L 690.39002827134 100.59073258043345 L 690.51098010989 100.93652995494335 L 690.5832538865981 101.31128350897012 L 690.6028603198166 101.7089896638372 L 690.5664987149022 102.12318240099795 L 690.4716060691437 102.54700864699292 L 690.3163981898699 102.97330859492598 L 690.0999023483212 103.39470013680864 L 689.8219810755965 103.8036665363154 L 689.4833467948143 104.19264643504621 L 689.085567074732 104.55412525767102 L 688.6310603835899 104.88072706262349 L 688.1230823170193 105.16530587551915 L 687.5657023695594 105.40103554231727 L 686.9637714147808 105.58149714845678 L 686.3228801532979 105.700763068721 L 685.6493088801714 105.75347674028289 L 684.9499690124823 105.73492728802385 L 684.2323369033346 105.64111817649827 L 683.5043805494005 105.46882911643752 L 682.7744798745655 105.2156705149864 L 682.0513413415393 104.88012982739676 L 681.3439077057678 104.46160924305809 L 680.6612637810126 103.96045421984657 L 680.0125391329834 103.37797246709137 L 679.4068086559404 102.716443068205 L 678.8529920168124 101.97911552837633 L 678.359752971786 101.17019862981387 L 677.9353995712478 100.29483907596041 L 677.5877862702669 99.35909000596199 L 677.3242189533996 98.3698695605351 L 677.1513638645149 97.33490977930401 L 677.075161404671 96.26269620674505 L 677.100745724028 95.16239867815824 L 677.2323709876265 94.0437938476941 L 677.4733451399817 92.91718010652357 L 677.8259719302675 91.79328561992295 L 678.291501888939 90.6831702865645 L 678.8700928685492 89.5981224909213 L 679.560780676947 88.54955157973605 L 680.36146024071 87.54887704535379 L 681.2688776413745 86.60741544183827 L 682.2786332676112 85.73626609371311 L 683.3851962238352 84.94619668150968 L 684.5819300307677 84.24752980276038 L 685.8611295471105 83.65003161143825 L 687.2140689347351 83.16280363298677 L 688.6310603835899 82.79417883597749 L 690.1015232078731 82.55162301513863 L 691.6140628228753 82.44164250416719 L 693.1565590132146 82.46969919061901 L 694.7162628089053 82.6401337495973 L 696.2799011967071 82.9560979483562 L 697.8337888113591 83.41949680080734 L 699.3639456754128 84.03094126985347 L 700.8562199881954 84.78971212713572 L 702.2964149046469 85.69373548490502 L 703.6704181939912 86.73957041411109 L 704.9643336269842 87.92240895729833 L 706.16461290926 89.2360887354159 L 707.2581869574813 90.67311823513397 L 708.2325953048451 92.2247147486956 L 709.0761124232156 93.880854822732 L 709.7778697608334 95.63033695685517 L 710.3279723171983 97.46085617825092 L 710.7176086102359 99.35909000596199 L 710.9391529350463 101.31079520910154 L 710.9862588681044 103.30091465787488 L 710.853943035357 105.31369346599458 L 710.5386582367574 107.33280352878913 L 710.0383551028382 109.34147547392851 L 709.3525315502909 111.32263696206189 L 708.4822694024846 113.25905620356859 L 707.4302576465916 115.1334894957756 L 706.2008019106631 116.92883153303521 L 704.7998198606489 118.62826720053867 L 703.2348223380374 120.21542353214242 L 701.5148801824668 121.6745204931785 L 699.6505768092672 122.99051924149575 L 697.653946738368 124.14926652401996 L 695.5384003972277 125.1376338820118 L 693.3186356453242 125.94365036592524 L 691.0105365901574 126.5566275002034 L 688.6310603835899 126.96727528926948 L 686.198112801594 127.16780811805154 L 683.7304135190495 127.15203947319628 L 681.2473520931495 126.91546449415317 L 678.7688357632511 126.45532945593234 L 676.3151302607741 125.77068738685269 L 673.9066948991592 124.86243913420944 L 671.5640132801996 123.73335930764276 L 669.3074210085682 122.38810665313903 L 667.1569318505003 120.8332185390515 L 665.1320638048379 119.07708936822904 L 663.2516665746234 117.12993286619324 L 661.533751934827 115.00372833316956 L 659.9953284864137 112.71215108648862 L 658.6522422687291 110.27048745825175 L 657.519024671116 107.69553485000762 L 656.6087490409069 105.00548748032372 L 655.9328973287154 102.21980859138571 L 655.5012380436209 99.359090005962 L 655.3217167108672 96.4449000451098 L 655.4003599336359 93.49962092879419 L 655.7411940589747 90.54627688511371 L 656.3461793368167 87.6083542881115 L 657.2151603410567 84.70961522829687 L 658.3458332937961 81.87390599320055 L 659.733730799123 79.12496199678786 L 661.3722243522375 76.48621074573228 L 663.2525448444841 73.98057446685618 L 665.3638211361148 71.63027404303455 L 667.6931366175749 69.45663591420934 L 670.2256035280516 67.47990359565269 L 672.944454648214 65.71905544714332 L 675.8311518337885 64.19163029429834 L 678.8655107091364 62.91356245706399 L 682.0258406966007 61.89902768055924 L 685.2890994193099 61.160301390454364 L 688.6310603835899 60.70763060933149 L 692.0264927232984 60.549120772606244 L 695.4493516733852 60.69063857328818 L 698.8729783348459 61.13573184492261 L 702.2703071989521 61.885567362385956 L 705.6140798161043 62.938887301786394 L 708.877062924682 64.29198495462174 L 712.0322692985478 65.93870013870901 L 715.0531795290277 67.8704345904342 L 717.913962928712 70.07618746083993 L 720.5896957306927 72.54261087327885 L 723.0565747581287 75.25408533416315 L 725.2921247554456 78.19281462209291 L 727.275397604051 81.33893961573672 L 728.9871616920564 84.67067035864878 L 730.410079768912 88.1644355011007 L 731.5288736917124 91.79504810634533 L 732.3304745597306 95.53588666282567 L 732.8041568368819 99.35909000596196 L 732.9416551775787 103.23576472452682 L 732.7372627989835 107.13620350838478 L 732.1879103810534 111.03011278762584 L 731.2932246239687 114.88684791883584 L 730.055565749408 118.67565409332579 L 728.4800433964765 122.36591107538486 L 726.574510533629 125.92737982670369 L 724.349535183293 129.3304490366079 L 721.8183499347283 132.5463795571003 L 718.9967794014811 135.54754473724017 L 715.9031459611724 138.30766466328691 L 712.5581542957898 140.80203233936405 L 708.9847554286645 143.00772988806554 L 705.2079911284147 144.9038329112313 L 701.254819718859 146.47160122770816 L 697.1539244958341 147.69465429680423 L 692.9355061055826 148.55912974273582 L 688.63106038359 149.0538235159155 L 684.2731432861688 149.17031036058393 L 679.8951246685397 148.9030434040753 L 675.5309327715181 148.24943183984954 L 671.2147913732043 147.2098958431437 L 666.9809516413768 145.78789803342247 L 662.8634207858362 143.98995098039498 L 658.8956896570644 141.82560043878726 L 655.1104614677361 139.30738418984055 L 651.5393838264353 136.4507665631166 L 648.2127862681364 133.27404890906132 L 645.1594254434789 129.79825648932834 L 642.4062400886414 126.04700244649257 L 639.9781178398439 122.04632970588598 L 637.8976758815178 117.82453184829852" fill="none" stroke="#e0aaff" stroke-width="1" opacity="0.3" class="drift" />
<circle cx="49.220113638524765" cy="185.55810487746044" r="1.3909061809378127" fill="white" opacity="0.4701747842858362" class="shimmer" style="animation-delay: 4.734929482192776s" />
<circle cx="189.09898765579936" cy="157.1546084972804" r="1.0073894806194437" fill="white" opacity="0.5528266564428037" class="shimmer" style="animation-delay: 4.368407665272268s" />
<circle cx="550.591557815935" cy="189.16951694801125" r="1.0936197317411311" fill="white" opacity="0.4098178680791979"  style="animation-delay: 1.913957044850566s" />
<circle cx="641.8215351742892" cy="104.60844426227868" r="0.7307203001521545" fill="white" opacity="0.33262566538763233" class="shimmer" style="animation-delay: 1.8838385184989659s" />
<circle cx="161.01038577375243" cy="197.72650440028917" r="1.771536783943196" fill="white" opacity="0.6773509407858815"  style="animation-delay: 2.553658127938081s" />
<circle cx="126.84320625515682" cy="193.1802359804944" r="1.7124791861802562" fill="white" opacity="0.467495383778936"  style="animation-delay: 3.755598192006656s" />
<circle cx="151.72897764349287" cy="139.94432127958558" r="0.6249572497282659" fill="white" opacity="0.7334697088978841"  style="animation-delay: 2.3488524616193907s" />
<circle cx="644.3865223222631" cy="185.89499849060246" r="1.3098223204384594" fill="white" opacity="0.7082785277940671"  style="animation-delay: 2.820149117261125s" />
<circle cx="497.5419872835294" cy="173.57639833331535" r="1.921782440324816" fill="white" opacity="0.3459310290366124"  style="animation-delay: 0.9184170286467408s" />
<circle cx="109.74675253936397" cy="26.351804305082105" r="1.5094125204366162" fill="white" opacity="0.5426657497537151"  style="animation-delay: 3.514752790180692s" />
<circle cx="551.9398209939995" cy="176.69665527120907" r="1.4198447714704843" fill="white" opacity="0.49881411531916614"  style="animation-delay: 0.3027133847723229s" />
<circle cx="262.2676109335545" cy="101.19270953207717" r="0.831549629801405" fill="white" opacity="0.4164179282432317" class="shimmer" style="animation-delay: 1.4615111244419265s" />
<circle cx="412.1106098163278" cy="172.45183191595413" r="1.0701445178587097" fill="white" opacity="0.7761143370948225"  style="animation-delay: 2.9494499524678885s" />
<circle cx="772.6812912216391" cy="163.09990142678083" r="1.109446581119327" fill="white" opacity="0.36862941969321766" class="shimmer" style="animation-delay: 1.275918298492943s" />
<circle cx="651.4065451976086" cy="53.486152490428694" r="1.5241792016701226" fill="white" opacity="0.5101985103220021"  style="animation-delay: 3.0529415538040574s" />
<circle cx="641.4880017144801" cy="118.5810989473775" r="1.357657215198682" fill="white" opacity="0.6306895578705967"  style="animation-delay: 2.2979579955299165s" />
<circle cx="216.30369192003283" cy="53.82312428720297" r="1.3359132219195566" fill="white" opacity="0.48259457699726"  style="animation-delay: 0.0532616039230549s" />
<circle cx="695.0214869096496" cy="24.767941551429207" r="1.8979333969594185" fill="white" opacity="0.41078843636431345"  style="animation-delay: 4.868146519571798s" />
<circle cx="449.11349348480076" cy="139.40858291242836" r="1.1039559283521507" fill="white" opacity="0.7190501521242718"  style="animation-delay: 3.0110955796554686s" />
<circle cx="615.179303471715" cy="28.332077963387547" r="1.3282814196563506" fill="white" opacity="0.6240075624359918" class="shimmer" style="animation-delay: 3.3916652173637774s" />
<circle cx="27.68117889640873" cy="106.05156745376601" r="1.6283454857526518" fill="white" opacity="0.40322755686673367" class="shimmer" style="animation-delay: 3.3771970325520884s" />
<circle cx="34.33128104007768" cy="166.36651632410647" r="1.4399611044649707" fill="white" opacity="0.596707134340233"  style="animation-delay: 3.8649957160301875s" />
<circle cx="213.22461001372977" cy="152.40815307961918" r="1.1067237038864959" fill="white" opacity="0.662568786816649"  style="animation-delay: 1.5267377726063114s" />
<circle cx="118.6848470752814" cy="108.40878198605193" r="0.9421188637877485" fill="white" opacity="0.3891123401933209"  style="animation-delay: 4.578479742228124s" />
<circle cx="796.5210173865609" cy="79.31343177821523" r="1.757777804840852" fill="white" opacity="0.3334609919454315"  style="animation-delay: 2.518801158946663s" />
<circle cx="46.96146205678442" cy="105.40883625995279" r="0.8438584268562642" fill="white" opacity="0.7819259583175886"  style="animation-delay: 4.734253396405025s" />
<circle cx="404.95400626663684" cy="117.0901035952614" r="1.6514801650368454" fill="white" opacity="0.7430552252890767"  style="animation-delay: 0.794389161388066s" />
<circle cx="243.79000830117477" cy="19.991028236806585" r="1.9410059990931017" fill="white" opacity="0.4034066980250202"  style="animation-delay: 0.7990004848592847s" />
<circle cx="334.1208901055399" cy="49.43624709445045" r="1.8086155431648105" fill="white" opacity="0.5448422939281854"  style="animation-delay: 2.4499795940859626s" />
<circle cx="169.5186816466908" cy="89.55994191838231" r="0.8231286618768506" fill="white" opacity="0.5977933241720947"  style="animation-delay: 0.8873718744359727s" />
<circle cx="345.8690508201755" cy="114.1048865213179" r="1.2237396588151492" fill="white" opacity="0.4279787149389534"  style="animation-delay: 4.284096226046085s" />
<circle cx="216.52001127359011" cy="185.0362169356995" r="0.6938075780696528" fill="white" opacity="0.6428088451921703"  style="animation-delay: 0.10894070933755384s" />
<circle cx="766.9227002149908" cy="51.18278725796834" r="0.9981385855431434" fill="white" opacity="0.7192047625760203"  style="animation-delay: 4.78112308388559s" />
<circle cx="48.17077406198713" cy="151.2404972887524" r="0.811015722277104" fill="white" opacity="0.34873941569229655"  style="animation-delay: 2.4245536265859946s" />
<circle cx="91.13287702045945" cy="14.866768014774445" r="0.6578755524523866" fill="white" opacity="0.6684426892091089"  style="animation-delay: 4.293080767728231s" />
<circle cx="670.1399509259282" cy="182.31923327612506" r="1.119164765707378" fill="white" opacity="0.306744670787046"  style="animation-delay: 2.3833709207177556s" />
<circle cx="18.666981361948665" cy="84.73279658187862" r="1.3983479632515654" fill="white" opacity="0.4651613034369095"  style="animation-delay: 2.465640445581585s" />
<circle cx="337.5400806529571" cy="153.07812260517485" r="0.7918797047855418" fill="white" opacity="0.6440301856318009"  style="animation-delay: 2.8489149272854073s" />
<circle cx="660.324759298467" cy="150.89615617945302" r="1.5542584593780755" fill="white" opacity="0.5311269181074707" class="shimmer" style="animation-delay: 1.6518627782475193s" />
<circle cx="738.4117895965524" cy="13.237301274874547" r="1.5939136040684128" fill="white" opacity="0.3679999933043055"  style="animation-delay: 2.5698331987591336s" />
<circle cx="271.36535331062015" cy="169.27814613157474" r="2.19747855443556" fill="#4a0080" opacity="0.8" filter="url(#glow)" class="shimmer" style="animation-delay: 2.650256858524582s" />
<circle cx="615.0525175393739" cy="118.52862101577921" r="1.5907095126198545" fill="#9d4edd" opacity="0.8" filter="url(#glow)" class="shimmer" style="animation-delay: 0.7581479796834933s" />
<circle cx="637.2121719633232" cy="158.98907788518116" r="2.5171608350781693" fill="#4a0080" opacity="0.8" filter="url(#glow)" class="shimmer" style="animation-delay: 1.2915360529387694s" />
<circle cx="338.4953619128344" cy="191.20752726208195" r="2.5361634160441233" fill="#9d4edd" opacity="0.8" filter="url(#glow)" class="shimmer" style="animation-delay: 2.105686031480789s" />
<circle cx="724.8349927984564" cy="126.1433114456334" r="1.5530760291141097" fill="#7b2cbf" opacity="0.8" filter="url(#glow)" class="shimmer" style="animation-delay: 1.8104070023366783s" />
<circle cx="77.57975949121949" cy="19.566312026507894" r="2.8602180329752325" fill="#4a0080" opacity="0.8" filter="url(#glow)" class="shimmer" style="animation-delay: 0.9359338457305397s" />
<circle cx="646.6729730109652" cy="125.92337430556975" r="1.358909668579459" fill="#9d4edd" opacity="0.8" filter="url(#glow)" class="shimmer" style="animation-delay: 0.7204983908050453s" />
<circle cx="771.4868898023137" cy="54.957546085522814" r="2.0329192174199804" fill="#4a0080" opacity="0.8" filter="url(#glow)" class="shimmer" style="animation-delay: 1.881567843934313s" />
<line x1="188.0063880864022" y1="106.35638879472354" x2="402.190990008462" y2="62.60629018422884" stroke="#e0aaff" stroke-width="0.5" opacity="0.3" />
<line x1="402.190990008462" y1="62.60629018422884" x2="261.4085403305157" y2="88.7510462051809" stroke="#e0aaff" stroke-width="0.5" opacity="0.3" />
<line x1="261.4085403305157" y1="88.7510462051809" x2="122.95279092859673" y2="70.3837383600128" stroke="#e0aaff" stroke-width="0.5" opacity="0.3" />
<line x1="122.95279092859673" y1="70.3837383600128" x2="723.230833041268" y2="74.78136422505231" stroke="#e0aaff" stroke-width="0.5" opacity="0.3" />

  
    <text x="400" y="120" text-anchor="middle" class="name-text" fill="url(#textGrad)" filter="url(#textGlow)">
      JOEL HOOKS
    </text>
  
</svg>
