<svg xmlns="http://www.w3.org/2000/svg" viewBox="0 0 800 200" width="800" height="200">
  <rect width="800" height="200" fill="#05010d"/>
  
    <defs>
      <linearGradient id="grad1" x1="0%" y1="0%" x2="100%" y2="100%">
        <stop offset="0%" style="stop-color:#4a0080;stop-opacity:0.8" />
        <stop offset="100%" style="stop-color:#7b2cbf;stop-opacity:0.8" />
      </linearGradient>
      <linearGradient id="grad2" x1="100%" y1="0%" x2="0%" y2="100%">
        <stop offset="0%" style="stop-color:#9d4edd;stop-opacity:0.7" />
        <stop offset="100%" style="stop-color:#c77dff;stop-opacity:0.7" />
      </linearGradient>
      <linearGradient id="textGrad" x1="0%" y1="0%" x2="100%" y2="0%">
        <stop offset="0%" style="stop-color:#4a0080" />
        <stop offset="25%" style="stop-color:#7b2cbf" />
        <stop offset="50%" style="stop-color:#9d4edd" />
        <stop offset="75%" style="stop-color:#c77dff" />
        <stop offset="100%" style="stop-color:#e0aaff" />
      </linearGradient>
      <filter id="glow">
        <feGaussianBlur stdDeviation="5" result="coloredBlur"/>
        <feMerge>
          <feMergeNode in="coloredBlur"/>
          <feMergeNode in="SourceGraphic"/>
        </feMerge>
      </filter>
      <filter id="textGlow">
        <feGaussianBlur stdDeviation="2" result="coloredBlur"/>
        <feMerge>
          <feMergeNode in="coloredBlur"/>
          <feMergeNode in="SourceGraphic"/>
        </feMerge>
      </filter>
    </defs>
  
  
    <style>
      @keyframes float {
        0%, 100% { transform: translateY(0px); }
        50% { transform: translateY(-8px); }
      }
      @keyframes pulse {
        0%, 100% { opacity: 0.4; }
        50% { opacity: 0.9; }
      }
      @keyframes drift {
        0% { transform: translateX(0px); }
        50% { transform: translateX(10px); }
        100% { transform: translateX(0px); }
      }
      @keyframes shimmer {
        0% { opacity: 0.3; }
        50% { opacity: 1; }
        100% { opacity: 0.3; }
      }
      @keyframes glitch {
        0%, 100% { transform: translateX(0); }
        20% { transform: translateX(-2px); }
        40% { transform: translateX(2px); }
        60% { transform: translateX(-1px); }
        80% { transform: translateX(1px); }
      }
      @keyframes dataStream {
        0% { stroke-dashoffset: 0; }
        100% { stroke-dashoffset: -20; }
      }
      .float { animation: float 8s ease-in-out infinite; }
      .pulse { animation: pulse 8s ease-in-out infinite; }
      .drift { animation: drift 8s ease-in-out infinite; }
      .shimmer { animation: shimmer 3s ease-in-out infinite; }
      .glitch { animation: glitch 0.5s ease-in-out infinite; }
      .dataStream { animation: dataStream 2s linear infinite; }
      .name-text { 
        font-family: -apple-system, BlinkMacSystemFont, 'Segoe UI', Helvetica, Arial, sans-serif;
        font-weight: 700;
        font-size: 64px;
        letter-spacing: -2px;
      }
    </style>
  
  <path d="M 333.3498729143264 82.67185184314916 C 333.4078310492441 93.97718405936278, 327.83943071947266 103.09698574117606, 321.504099838012 116.73374644068957 C 315.16876895655133 130.37050714020307, 305.79788809198544 163.77044717089137, 295.3378876255623 164.49241604023024 C 284.87788715913916 165.2143849095691, 271.8378419016525 130.81176389680894, 258.7440970394733 121.06555965672284 C 245.65035217729405 111.31935541663674, 228.76155472676044 118.12140355957257, 216.77541845248697 106.01519059971366 C 204.7892821782135 93.90897763985475, 185.04364378854257 67.7437561085729, 186.8272793938324 48.42828189756937 C 188.61091499912226 29.112807686565848, 210.19986138664578 -6.529023913119783, 227.477232084226 -9.877654666307478 C 244.7546027818062 -13.226285419495174, 274.8783170886004 18.539929410157313, 290.49150357931364 28.336497378443198 C 306.1046900700269 38.13306534672908, 314.0132894726702 39.84586073262351, 321.15635102850564 48.90175314340783 C 328.2994125843411 57.957645554192155, 333.29191477940867 71.36651962693553, 333.3498729143264 82.67185184314916 Z" fill="#c77dff" opacity="0.16738617058010835" filter="url(#glow)" class="float" />
<path d="M 293.3839524089725 71.8438478969615 C 291.2237212427591 83.71836256444207, 275.63347993449037 88.9409168071856, 267.65805948767843 102.0294443749212 C 259.6826390408665 115.1179719426568, 256.480731918632 146.82593789806504, 245.53142972810082 150.37501330337506 C 234.58212753756962 153.92408870868508, 208.76015236513885 134.77818147194907, 201.96224634449126 123.32389680678136 C 195.16434032384367 111.86961214161366, 207.07620281232198 92.88115663203757, 204.74399360421535 81.64930531236882 C 202.41178439610871 70.41745399270008, 189.07048091197993 67.25185500391795, 187.96899109585146 55.932788888768854 C 186.867501279723 44.613722773619756, 189.23844675150465 20.217962026643782, 198.13505470744462 13.73490862147424 C 207.0316626633846 7.2518552163046985, 227.60124020190563 14.193227166324345, 241.34863883149131 17.034468457751608 C 255.096037461077 19.87570974917887, 271.9468942220453 21.647459796836166, 280.6194464849588 30.782356370037817 C 289.29199874787236 39.91725294323947, 295.5441835751859 59.969333229480945, 293.3839524089725 71.8438478969615 Z" fill="#4a0080" opacity="0.2216417264075263" filter="url(#glow)" class="float" />
<path d="M 571.56783282356 46.934422875703596 C 574.9728160146432 73.74515853771517, 570.8136769750041 122.35976451663659, 552.5334144934361 137.5815794349878 C 534.2531520118681 152.803394353339, 491.41632494747705 138.95096422558038, 461.8862579341519 138.2653123858108 C 432.35619092082675 137.57966054604123, 395.89248715699614 148.68948331472154, 375.3530124134852 133.46766839637033 C 354.81353766997427 118.24585347801913, 336.69382646112314 73.8232550372959, 338.6494094730864 46.93442287570361 C 340.60499248504965 20.045590714111324, 366.5470357417539 -13.80767431549476, 387.08651048526485 -27.865324573183393 C 407.6259852287758 -41.92297483087203, 437.7167571238732 -38.175227009778474, 461.8862579341519 -37.41147867042819 C 486.0557587444306 -36.6477303310779, 513.8232528653691 -37.34048479477029, 532.1035153469371 -23.282834537081662 C 550.3837778285051 -9.225184279393032, 568.1628496324769 20.12368721369202, 571.56783282356 46.934422875703596 Z" fill="#9d4edd" opacity="0.12343721761377184" filter="url(#glow)" class="float" />
<path d="M 747.0500809118478 118.97145224640266 C 751.0156620316673 135.56023805542705, 788.6688746190995 164.4196523599234, 785.6820748661853 176.38338238598632 C 782.6952751132711 188.34711241204926, 746.6617434298946 181.93763170573703, 729.1292823943625 190.75383240278023 C 711.5968213588303 199.57003309982343, 699.4655621198799 225.64763557545703, 680.487308652992 229.2805865682456 C 661.5090551861042 232.9135375610342, 628.4591004674827 226.28456290625994, 615.2597615930355 212.55153835951165 C 602.0604227185883 198.81851381276337, 602.0206061406624 166.66151603744234, 601.2912754063087 146.88243928775597 C 600.5619446719551 127.1033625380696, 604.4084490270611 109.33941172639372, 610.8837771869138 93.87707786139347 C 617.3591053467665 78.41474399639323, 628.2466280307094 66.25197781235678, 640.143244365425 54.10843609775449 C 652.0398607001405 41.9648943831522, 665.9075764967579 25.508103418879685, 682.2634751952073 21.015827573779717 C 698.6193738936568 16.52355172867975, 725.0077843974444 17.848974367477965, 738.2786365561212 27.154781027154684 C 751.549488714798 36.4605876868314, 760.426680754647 61.54788899529871, 761.8885881472681 76.85066753184005 C 763.3504955398893 92.15344606838137, 743.0844997920283 102.38266643737828, 747.0500809118478 118.97145224640266 Z" fill="#9d4edd" opacity="0.24257922372751425" filter="url(#glow)" class="float" />
<path d="M 233.91105611602433 107.39257748279074 L 233.91105611602433 107.39257748279074 L 234.17718817447283 107.41586102090581 L 234.43723621914518 107.48535723168291 L 234.68519342758992 107.60000695025555 L 234.91520653745366 107.75805834691688 L 235.1216505782012 107.95708695142386 L 235.29920116730398 108.1940234018213 L 235.44290359626655 108.46518863584389 L 235.5482379633143 108.76633616702189 L 235.6111796483267 109.09270101509311 L 235.62825447131326 109.4390547919032 L 235.59658792796498 109.79976638031421 L 235.51394795408544 110.16886758535004 L 235.37878073447044 110.54012308445066 L 235.1902391404658 110.90710395779337 L 234.94820345334833 111.26326404061868 L 234.65329410716168 111.60201830775759 L 234.3068762639804 111.91682247641526 L 233.91105611602433 112.20125299697406 L 233.46866889183815 112.44908659331226 L 232.98325862710263 112.65437851399929 L 232.4590498437707 112.81153866374986 L 231.90091136333058 112.91540480065201 L 231.314312560312 112.96131200880444 L 230.7052724399021 112.94515768790934 L 230.0803019979774 112.86346134079864 L 229.4463403922731 112.71341848648314 L 228.81068551911721 112.49294807969784 L 228.18091965050945 112.20073287759976 L 227.56483084073517 111.8362522597252 L 226.97033085962607 111.3998070779435 L 226.4053704505276 110.89253618831606 L 225.87785274458975 110.31642439579983 L 225.39554568880286 109.67430162490355 L 224.96599436296978 108.96983321395761 L 224.59643407032678 108.20750131681793 L 224.29370508765768 107.39257748279074 L 224.0641699534298 106.53108657253344 L 223.91363415672808 105.62976225383953 L 223.84727106567166 104.69599440574835 L 223.8695519017311 103.73776884152939 L 223.9841815261738 102.76359983999919 L 224.19404075706677 101.78245604957687 L 224.50113588025076 100.80368039975 L 224.90655595592952 99.83690471951942 L 225.4104384545125 98.8919598212789 L 226.01194368169521 97.97878186087343 L 226.70923837409606 97.10731582973591 L 227.4994887637799 96.28741707255354 L 228.37886332341978 95.52875175345721 L 229.34254531444762 94.84069721492422 L 230.38475516912274 94.23224318617574 L 231.49878264482794 93.7118948016485 L 232.677028595926 93.28757838502018 L 233.91105611602433 92.96655094024078 L 235.19165071235275 92.75531426812319 L 236.50888908500505 92.6595345954068 L 237.85221599785552 92.68396856304456 L 239.2105286458533 92.83239637206557 L 240.5722678458951 93.10756282910343 L 241.92551530632986 93.51112696999424 L 243.25809616405888 94.04362086925148 L 244.55768591881574 94.7044181662935 L 245.8119208421409 95.49171275667418 L 247.00851089434406 96.40250800894154 L 248.13535414684486 97.43261677586867 L 249.18065168010048 98.57667237345466 L 250.13302190919467 99.82815060310698 L 250.9816132803228 101.17940279264643 L 251.71621428203287 102.62169973110035 L 252.32735972525427 104.1452862715648 L 252.8064322658679 105.73944627662131 L 253.1457581727576 107.39257748279074 L 253.3386963827649 109.09227576519031 L 253.37971993149597 110.825428191801 L 253.26448890516406 112.57831416941073 L 252.98991412318145 114.33671390118734 L 252.55421083354844 116.08602329974073 L 251.95694178265978 117.81137443018793 L 251.19904910732927 119.4977604958191 L 250.282874588924 121.13016432510223 L 249.21216790674563 122.69368927351202 L 247.99208262939362 124.1736914175129 L 246.6291597879402 125.55591189137695 L 245.13129898245205 126.82660820070585 L 243.5077170827873 127.9726833397979 L 241.76889469473628 128.98181154352116 L 239.92651067250353 129.84255951819281 L 237.99336506727977 130.54450202010838 L 235.9832910082649 131.07833068470734 L 233.91105611602433 131.43595505370735 L 231.79225414755365 131.61059480160435 L 229.64318766698455 131.59686222635008 L 227.48074262461554 131.390834141324 L 225.32225580906015 130.99011238637982 L 223.18537621199513 130.3938722641517 L 221.0879214115355 129.60289830326516 L 219.04773013800218 128.6196068518614 L 217.08251223419276 127.44805511209286 L 215.20969726069828 126.09393633811676 L 213.44628302489977 124.56456103568013 L 211.80868532967244 122.86882411970043 L 210.31259024427027 121.01715810631013 L 208.97281019518036 119.02147253663293 L 207.80314515886195 116.89507995007028 L 206.81625021122872 114.65260884405873 L 206.023510650619 112.30990417407571 L 205.4349258620347 109.88391606110243 L 205.0590030309244 107.39257748279076 L 204.9026617451377 104.85467182824895 L 204.9711504443773 102.28969129372146 L 205.26797558809756 99.71768718659311 L 205.79484431600332 97.15911328725895 L 206.55162127082656 94.63466349168235 L 207.53630014171097 92.16510502121021 L 208.744990369188 89.77110853977481 L 210.17191933031978 87.47307656143911 L 211.80945019609356 85.29097156285997 L 213.64811552361488 83.24414523526372 L 215.67666651412083 81.35117031867318 L 217.88213773541327 79.62967645719772 L 220.2499269751029 78.09619149810997 L 222.76388976017716 76.76598962919643 L 225.40644794996751 75.6529477086016 L 228.15871168470983 74.7694110892977 L 231.0006138516415 74.12607017672809 L 233.9110561160243 73.73184888350751 L 236.86806545663725 73.5938060598311 L 239.84896004512314 73.717050883056 L 242.8305232170107 74.10467308547042 L 245.7891842001237 74.75768878633778 L 248.70120419421193 75.67500257375619 L 251.54286633469647 76.85338635463842 L 254.29066802403412 78.28747535818874 L 256.921514076896 79.96978154068377 L 259.41290910055983 81.89072449825525 L 261.74314751995377 84.03867985086121 L 263.89149965790756 86.40004491589342 L 265.8383922954563 88.95932134508803 L 267.5655821645419 91.6992142547901 L 269.05632086605056 94.60074723837592 L 270.295509759607 97.64339251194514 L 271.26984343760506 100.80521531144672 L 271.96794047416 104.06303153233686 L 272.3804602294909 107.39257748279073 L 272.500204591057 110.76869050947478 L 272.32220364384676 114.16549915191914 L 271.8437843827382 117.5566213885659 L 271.06462170890927 120.91536945545775 L 269.9867710888957 124.21495964805763 L 268.6146823980156 127.42872545855454 L 266.95519461839206 130.53033235579426 L 265.01751121453367 133.49399248318258 L 262.8131561651646 136.29467753193094 L 260.35591078747393 138.90832804312262 L 257.6617316479154 141.31205740243968 L 254.74865001081878 143.4843488160616 L 251.63665343110418 145.40524359514512 L 248.3475502490067 147.05651912924895 L 244.9048178916588 148.42185499576692 L 241.33343602739788 149.48698573245917 L 237.6597057525494 150.23983889299942 L 233.91105611602444 150.6706571104406 L 230.11583940326918 150.77210300989643 L 226.3031167068665 150.53934593870088 L 222.5024354054603 149.9701296188981 L 218.74360025478973 149.0648199721076 L 215.0564398636783 147.82643251949892 L 211.47057038316882 146.26063891862094 L 208.015158278027 144.37575236292415 L 204.71868407611245 142.18269173770258 L 201.60870900227934 139.69492459653569 L 198.7116463992901 136.9283891937605 L 196.0525398186097 133.9013959796756 L 193.65484962891446 130.6345091346768 L 191.5402499398332 127.15040888494988 L 189.72843757313416 123.47373550434074 L 188.23695473365458 119.63091606321396 L 187.08102693826822 115.6499751341939 L 186.27341765374263 111.56033080538694 L 185.82430097419115 107.39257748279077 L 185.74115353684562 103.17825708396455 L 186.02866673202647 98.94962033360339 L 186.6886801105234 94.739379967438 L 187.7201367302755 90.58045773298852 L 189.11906101547936 86.50572714336542 L 190.87855952635513 82.54775399284365 L 192.98884485812528 78.73853667979955 L 195.43728270471007 75.10924840335879 L 198.2084619376745 71.68998330444117 L 201.28428736553445 68.50950860965408 L 204.64409465414565 65.59502480761043 L 208.26478670704654 62.971935841841976" fill="none" stroke="#4a0080" stroke-width="1" opacity="0.3" class="drift" />
<path d="M 439.70365276663625 109.8742255319566 L 439.70365276663625 109.8742255319566 L 440.04062146986945 109.90370647345253 L 440.3698867710978 109.99170056240862 L 440.6838430057358 110.13686671495219 L 440.9750789425458 110.33698681505459 L 441.23647240677735 110.5889910687248 L 441.46128181950667 110.88899313876685 L 441.64323367236227 111.23233470311357 L 441.7766049966473 111.61363898360698 L 441.8562999349482 112.02687270026851 L 441.87791958119925 112.46541581947038 L 441.8378243213115 112.92213838381177 L 441.73318798025673 113.38948363769747 L 441.5620431622336 113.85955659632353 L 441.3233172574792 114.32421714764006 L 441.0168586816142 114.77517672745445 L 440.6434530102524 115.20409756764928 L 440.2048287720672 115.60269348692111 L 439.70365276663625 115.9628311728181 L 439.14351487821347 116.27663089338753 L 438.52890246211604 116.53656557657246 L 437.86516448566704 116.7355572056536 L 437.15846570959735 116.86706949945916 L 436.41573129750253 116.92519587660578 L 435.64458233939524 116.90474174343832 L 434.85326286964704 116.8013001952638 L 434.0505590487725 116.61132027949245 L 433.2457112617005 116.33216703689234 L 432.44831996159763 115.96217261273291 L 431.6682461571999 115.50067781246406 L 430.9155075022841 114.94806356600785 L 430.2001709977613 114.30577185991942 L 429.53224335935977 113.57631579674047 L 428.92156013654096 112.76327854490819 L 428.37767469078926 111.87130104964096 L 427.909748153474 110.9060584843144 L 427.5264414849132 109.8742255319566 L 427.2358107470076 108.78343069660693 L 427.04520668186615 107.64219995336819 L 426.9611796583418 106.45989015301382 L 426.9893910075407 105.24661270097675 L 427.13453171747904 104.0131481304574 L 427.40024939654324 102.77085228428484 L 427.7890843457479 101.5315549091352 L 428.3024155015756 100.30745154787952 L 428.94041692507665 99.110989690397 L 429.7020254196466 97.95475020939317 L 430.58491976029654 96.85132516493906 L 431.58551191215423 95.81319310899315 L 432.69895050630794 94.85259305857356 L 433.91913672791145 93.98139833308711 L 435.23875265571104 93.21099146726388 L 436.6493019748837 92.55214141595536 L 438.14116286735157 92.01488426059663 L 439.70365276663625 91.60840860937208 L 441.3251045489128 91.34094685413021 L 442.99295361929285 91.21967340703219 L 444.69383524355266 91.25061098906474 L 446.413691371557 91.43854598126799 L 448.13788610050096 91.7869537782913 L 449.85132883473875 92.29793500325228 L 451.5386041152899 92.97216335348702 L 453.18410701692665 93.8088457493711 L 454.7721829448197 94.80569535377317 L 456.2872706067245 95.95891791875358 L 457.714046891235 97.26321179978468 L 459.037572348211 98.71178185704383 L 460.24343594452733 100.29636733926276 L 461.31789775709876 102.00728371929088 L 462.2480282659264 103.83347832305782 L 463.02184292279173 105.76259946613582 L 463.62843069619396 107.78107868574507 L 464.05807533008226 109.8742255319566 L 464.30236810266035 112.02633426116002 L 464.35431093171496 114.22080165868138 L 464.20840874412556 116.44025510684656 L 463.86075010891784 118.66668991081829 L 463.3090752248096 120.88161479818682 L 462.55283045395186 123.06620442048984 L 461.59320870268704 125.20145760644245 L 460.43317506674657 127.26836004846035 L 459.0774772814435 129.24805004676384 L 457.53264064605264 131.12198588956966 L 455.8069472246404 132.87211341413652 L 453.91039926197976 134.48103227214264 L 451.8546668916956 135.93215941435574 L 449.65302035324294 137.2098883140121 L 447.32024707350865 138.2997424658442 L 444.8725541065252 139.18852172826638 L 442.3274565597747 139.86444011971201 L 439.70365276663625 140.31725373626412 L 437.020887090506 140.53837752617844 L 434.2998013658433 140.52098973718955 L 431.56177609377266 140.26012294404333 L 428.82876261383365 139.75274066583123 L 426.12310756804055 138.997798694638 L 423.46737105767227 137.99629037788353 L 420.88413996631823 136.75127522558859 L 418.3958379839192 135.26789034959177 L 416.02453391520515 133.5533443833877 L 413.7917498914984 131.61689367758635 L 411.71827112687515 129.46980071579299 L 409.8239588678389 127.12527484773085 L 408.12756817972905 124.59839558938144 L 406.6465721929877 121.90601889250418 L 405.39699439815126 119.06666693680258 L 404.39325053017217 116.10040214591373 L 403.6480015206831 113.02868627202186 L 403.1720189214672 109.87422553195661 L 402.9740641142167 106.66080290889948 L 403.060782521249 103.41309885709543 L 403.4366139199521 100.15650176111939 L 404.1037198411686 96.91690960521308 L 405.0619288994468 93.72052440099539 L 406.30870076209806 90.59364100256181 L 407.83910931542306 87.56243200580634 L 409.6458454314763 84.65273048302618 L 411.7192395785813 81.88981234390165 L 414.0473043547932 79.29818013929388 L 416.6157968569676 76.90135013461433 L 419.40830063043126 74.72164447454796 L 422.4063267768459 72.77999024054134 L 425.58943363214775 71.09572716671506 L 428.93536426381667 69.68642572887416 L 432.4202008786109 68.56771725533827 L 436.0185350796441 67.75313762780573 L 439.70365276663625 67.25398604592607 L 443.4477323366202 67.0792002213393 L 447.2220547155656 67.2352492464151 L 450.99722363544697 67.726045250675 L 454.7433944673207 68.55287481489594 L 458.43050982996294 69.71435096025908 L 462.0285401164617 71.20638636880707 L 465.50772701861877 73.02218832316227 L 468.83882808178004 75.15227567927178 L 471.993360291315 77.58451800727785 L 474.9438406768238 80.30419685390021 L 477.6640219215597 83.29408889645576 L 480.1291209826562 86.53457057532083 L 482.3160387625596 90.00374360980074 L 484.20356892347075 93.67758062352708 L 485.77259400431615 97.53008993116342 L 487.00626708340883 101.53349836986305 L 487.89017732898486 105.65845089803767 L 488.4124978935283 109.87422553195657 L 488.56411473545126 114.14896204886743 L 488.338735092332 118.44990275495421 L 487.7329744825153 122.74364349874094 L 486.74642127528995 126.99639300658195 L 485.3816780428418 131.17423852764887 L 483.64437908839705 135.24341570221281 L 481.5431837330118 139.17058050977127 L 479.0897451368458 142.92308111331377 L 476.2986546279389 146.46922739325913 L 473.187361710906 149.77855595966895 L 469.77607012796926 152.8220884444613 L 466.08761054370285 155.57258090658777 L 462.1472906211576 158.00476223238798 L 457.98272344900664 160.09555948038417 L 453.62363546540314 161.8243082042339 L 449.101655202798 163.17294588888348 L 444.4500843474821 164.12618675250292 L 439.70365276663637 164.67167629971016 L 434.8982593027986 164.80012415896934 L 430.0707002695705 164.50541389780665 L 425.25838770187823 163.78468868243303 L 420.49905951807 162.6384118322033 L 415.8304838385786 161.07040151267023 L 411.2901597759492 159.0878390123287 L 406.91501706298936 156.70125025591335 L 402.7411169190658 153.92446041969106 L 398.8033565687098 150.77452172988302 L 395.13517982139916 147.27161474243977 L 391.7682960965504 143.43892361912182 L 388.73241023339375 139.30248612945388 L 386.0549653616969 134.89101931884358 L 383.76090102661567 130.2357219882679 L 381.8724286597615 125.37005532869698 L 380.40882636955513 120.32950324218663 L 379.3862548878922 115.15131405972934 L 378.8175963580212 109.87422553195664 L 378.71231748142577 104.53817512119215 L 379.0763583606319 99.18399776082269 L 379.91204818156234 93.8531133692251 L 381.21804867479653 88.5872065094494 L 382.9893260814146 83.4279006715333 L 385.2171521276528 78.41642972083889 L 387.88913428509835 73.5933091024774 L 390.98927536137694 68.99800941817281 L 394.49806223208583 64.66863499740649 L 398.39258328993975 60.64161006919468 L 402.6466739536388 56.95137510428954 L 407.2310893487081 53.63009584010285 L 412.11370304738386 50.70738742250913 L 417.2597305363839 48.21005600034306 L 422.6319758719223 46.16185999048442 L 428.19109978233803 44.5832930947212 L 433.8959072919366 43.491390995014825 L 439.7036527666363 42.89956348248003 L 445.57036012432764 42.8174535885484 L 451.45115581183825 43.250825085797956 L 457.30061202734134 44.20147951228526 L 463.0730975630843 45.66720364852384 L 468.7231335594249 47.64174814222684 L 474.2057513981848 50.114837734361934 L 479.4768499219476 53.072213292837446 L 484.4935491466334 56.49570560917256 L 489.2145376378103 60.36334066078241 L 493.6004107469231 64.64947578904682" fill="none" stroke="#4a0080" stroke-width="1" opacity="0.3" class="drift" />
<circle cx="247.0929640067517" cy="76.52137360551836" r="0.9147863519565429" fill="white" opacity="0.3231830742206439"  style="animation-delay: 0.9266543950299877s" />
<circle cx="151.1444169834057" cy="74.36035275548107" r="1.4988061373725885" fill="white" opacity="0.602264468684856"  style="animation-delay: 4.8537123698999585s" />
<circle cx="325.6864586742362" cy="31.611793562633792" r="1.1042493261155535" fill="white" opacity="0.6852217168413532"  style="animation-delay: 4.081275622271548s" />
<circle cx="86.72171162604414" cy="159.00053984480428" r="1.8143900968777134" fill="white" opacity="0.36903544498426294"  style="animation-delay: 2.257855538484704s" />
<circle cx="723.4750476688315" cy="78.28283162480818" r="1.8670776636875273" fill="white" opacity="0.3851856030589041"  style="animation-delay: 2.5525260922854165s" />
<circle cx="601.6552365076147" cy="123.7058606348655" r="1.0827793313538514" fill="white" opacity="0.3025373793568567"  style="animation-delay: 3.2448046935181885s" />
<circle cx="531.9090892960278" cy="122.38940156502558" r="1.633683377806062" fill="white" opacity="0.5848688527181127"  style="animation-delay: 0.20601067202472345s" />
<circle cx="490.08293432084537" cy="157.0001690336463" r="0.806066401374739" fill="white" opacity="0.319042241149282" class="shimmer" style="animation-delay: 4.627895397610926s" />
<circle cx="792.0641989340942" cy="188.47799010376485" r="1.141802438818513" fill="white" opacity="0.5620266094394739" class="shimmer" style="animation-delay: 2.316375442687116s" />
<circle cx="59.053600702803166" cy="191.8723242255778" r="0.879831788144274" fill="white" opacity="0.7869185421423992"  style="animation-delay: 0.41134468175739625s" />
<circle cx="460.16249619717905" cy="49.250214665194704" r="1.888039812923052" fill="white" opacity="0.776669135202898"  style="animation-delay: 2.5096007580235478s" />
<circle cx="290.32460771187834" cy="88.98944085915956" r="1.3888276927701164" fill="white" opacity="0.7984125439915912"  style="animation-delay: 1.7793239023428453s" />
<circle cx="33.47365204301003" cy="44.65237637351302" r="1.4635584819271021" fill="white" opacity="0.6864154156357047"  style="animation-delay: 3.7565121076904475s" />
<circle cx="7.283404413898253" cy="163.49022567952738" r="0.6031561064582227" fill="white" opacity="0.31847335177009156"  style="animation-delay: 2.1424627806891126s" />
<circle cx="747.5163981091075" cy="131.68671522666963" r="1.9685862789125017" fill="white" opacity="0.6570270016275352"  style="animation-delay: 4.167321436627516s" />
<circle cx="668.6492645739849" cy="171.86381475403442" r="1.2886129975875096" fill="white" opacity="0.737338772238302"  style="animation-delay: 3.1353313710955577s" />
<circle cx="423.26144878184164" cy="88.18307734663735" r="0.7260041506282688" fill="white" opacity="0.423645163515002"  style="animation-delay: 4.707014141518382s" />
<circle cx="376.04901488542237" cy="116.56289376304802" r="0.8882475526589381" fill="white" opacity="0.7257421921704348"  style="animation-delay: 2.9586841977349367s" />
<circle cx="402.36137445267167" cy="74.14894786935831" r="1.7376946302198284" fill="white" opacity="0.36082437156224173"  style="animation-delay: 4.72758576185133s" />
<circle cx="784.1116040059931" cy="12.009502176179954" r="0.8000567153821703" fill="white" opacity="0.6841840338972018"  style="animation-delay: 2.387993215360681s" />
<circle cx="413.74945298470925" cy="153.96382478260006" r="0.5986762021010194" fill="white" opacity="0.6311854769864935" class="shimmer" style="animation-delay: 3.9305797626066385s" />
<circle cx="448.37779396463037" cy="91.5049600784266" r="1.671416564162729" fill="white" opacity="0.7405261404871248"  style="animation-delay: 1.8143192990435797s" />
<circle cx="464.05793767189465" cy="164.68158013367048" r="1.0295585595311592" fill="white" opacity="0.5997147912096068"  style="animation-delay: 1.813270330687089s" />
<circle cx="495.4512935741972" cy="55.242884616073916" r="0.9689235446676885" fill="white" opacity="0.5655189296469902" class="shimmer" style="animation-delay: 0.27093124246080347s" />
<circle cx="562.6363985798424" cy="0.3190451988724252" r="1.2121237762626076" fill="white" opacity="0.4271235123141432"  style="animation-delay: 1.420896460257841s" />
<circle cx="14.928536651647839" cy="131.91179974308892" r="0.8730821449051989" fill="white" opacity="0.732710634562941"  style="animation-delay: 0.6828450162550814s" />
<circle cx="767.3111956338153" cy="191.6824611045349" r="0.8918650612626262" fill="white" opacity="0.6420132161542025"  style="animation-delay: 0.02614012359733242s" />
<circle cx="168.1561095724337" cy="124.1008917105284" r="0.8442272965309979" fill="white" opacity="0.5517719015933822"  style="animation-delay: 3.8908066948305784s" />
<circle cx="713.1774559310962" cy="36.43822797127743" r="1.9986455217072792" fill="white" opacity="0.4684189920832896"  style="animation-delay: 0.25475039563797597s" />
<circle cx="633.8633127134661" cy="110.39386490037097" r="0.58046542815415" fill="white" opacity="0.4743476870980367"  style="animation-delay: 4.387019358383179s" />
<circle cx="18.09136721388107" cy="35.197467389824055" r="0.9419587354647758" fill="white" opacity="0.4508610777488206"  style="animation-delay: 3.6626340243032263s" />
<circle cx="227.28335782921718" cy="42.88517887217873" r="1.5232505469988997" fill="white" opacity="0.5549339368573594"  style="animation-delay: 4.289877890762498s" />
<circle cx="202.78225904509367" cy="177.87524395744313" r="0.9207132266619513" fill="white" opacity="0.5817371517918712" class="shimmer" style="animation-delay: 2.545818557468784s" />
<circle cx="289.9895961115135" cy="124.87309586921755" r="0.5088476705990479" fill="white" opacity="0.5327307927265215"  style="animation-delay: 2.486448123279307s" />
<circle cx="366.99156650840996" cy="10.857749708689157" r="1.8835768545999398" fill="white" opacity="0.7317328342602021"  style="animation-delay: 3.610226715020871s" />
<circle cx="728.5765219467944" cy="86.69055095156328" r="1.2061247820860013" fill="white" opacity="0.6562133183779504"  style="animation-delay: 0.8044568295599142s" />
<circle cx="194.03330135210268" cy="74.6297903946974" r="1.9028399393283812" fill="white" opacity="0.706814924435039" class="shimmer" style="animation-delay: 0.813484259895153s" />
<circle cx="145.94000256557163" cy="4.535317687177187" r="1.980562897277903" fill="white" opacity="0.7467768339436414"  style="animation-delay: 2.0681434291384915s" />
<circle cx="514.0467796977633" cy="36.213395351351664" r="1.3139340287101064" fill="white" opacity="0.5186124335254272" class="shimmer" style="animation-delay: 3.051361485108399s" />
<circle cx="407.2388118224751" cy="180.93616906077176" r="0.7653865724649479" fill="white" opacity="0.7132680407459784" class="shimmer" style="animation-delay: 4.762915340056915s" />
<circle cx="606.3567050776804" cy="55.374061242091074" r="1.9898955769490771" fill="#7b2cbf" opacity="0.8" filter="url(#glow)" class="shimmer" style="animation-delay: 1.8579324488939597s" />
<circle cx="363.6253960185856" cy="86.93496040713514" r="2.2339435880247835" fill="#7b2cbf" opacity="0.8" filter="url(#glow)" class="shimmer" style="animation-delay: 1.1314355153393614s" />
<circle cx="413.2971637808732" cy="183.94000676812522" r="1.3921981724106547" fill="#c77dff" opacity="0.8" filter="url(#glow)" class="shimmer" style="animation-delay: 1.4485880977978318s" />
<circle cx="83.32584444250858" cy="126.86397464279833" r="1.2048565474693342" fill="#4a0080" opacity="0.8" filter="url(#glow)" class="shimmer" style="animation-delay: 1.6953759102136148s" />
<circle cx="189.0772352345282" cy="168.76774916044997" r="1.950939801743326" fill="#4a0080" opacity="0.8" filter="url(#glow)" class="shimmer" style="animation-delay: 2.9435790637232633s" />
<circle cx="238.93676601588734" cy="75.40831192139375" r="2.193930078424693" fill="#4a0080" opacity="0.8" filter="url(#glow)" class="shimmer" style="animation-delay: 1.4838688368682067s" />
<circle cx="206.2313223406466" cy="178.76147885743254" r="1.6161474994853293" fill="#9d4edd" opacity="0.8" filter="url(#glow)" class="shimmer" style="animation-delay: 0.6286260865964284s" />
<circle cx="395.7456353819168" cy="93.91909122377568" r="2.806097002446214" fill="#4a0080" opacity="0.8" filter="url(#glow)" class="shimmer" style="animation-delay: 1.3683716748109782s" />
<line x1="744.2858013732858" y1="116.35801927537625" x2="303.9648612096975" y2="105.50370229132002" stroke="#e0aaff" stroke-width="0.5" opacity="0.3" />
<line x1="443.949737646548" y1="152.3916309649756" x2="510.86634785427043" y2="110.90447009529693" stroke="#e0aaff" stroke-width="0.5" opacity="0.3" />

  
    <text x="400" y="120" text-anchor="middle" class="name-text" fill="url(#textGrad)" filter="url(#textGlow)">
      JOEL HOOKS
    </text>
  
</svg>
