<svg xmlns="http://www.w3.org/2000/svg" viewBox="0 0 800 200" width="800" height="200">
  <rect width="800" height="200" fill="#05010d"/>
  
    <defs>
      <linearGradient id="grad1" x1="0%" y1="0%" x2="100%" y2="100%">
        <stop offset="0%" style="stop-color:#4a0080;stop-opacity:0.8" />
        <stop offset="100%" style="stop-color:#7b2cbf;stop-opacity:0.8" />
      </linearGradient>
      <linearGradient id="grad2" x1="100%" y1="0%" x2="0%" y2="100%">
        <stop offset="0%" style="stop-color:#9d4edd;stop-opacity:0.7" />
        <stop offset="100%" style="stop-color:#c77dff;stop-opacity:0.7" />
      </linearGradient>
      <linearGradient id="textGrad" x1="0%" y1="0%" x2="100%" y2="0%">
        <stop offset="0%" style="stop-color:#4a0080" />
        <stop offset="25%" style="stop-color:#7b2cbf" />
        <stop offset="50%" style="stop-color:#9d4edd" />
        <stop offset="75%" style="stop-color:#c77dff" />
        <stop offset="100%" style="stop-color:#e0aaff" />
      </linearGradient>
      <filter id="glow">
        <feGaussianBlur stdDeviation="5" result="coloredBlur"/>
        <feMerge>
          <feMergeNode in="coloredBlur"/>
          <feMergeNode in="SourceGraphic"/>
        </feMerge>
      </filter>
      <filter id="textGlow">
        <feGaussianBlur stdDeviation="2" result="coloredBlur"/>
        <feMerge>
          <feMergeNode in="coloredBlur"/>
          <feMergeNode in="SourceGraphic"/>
        </feMerge>
      </filter>
    </defs>
  
  
    <style>
      @keyframes float {
        0%, 100% { transform: translateY(0px); }
        50% { transform: translateY(-8px); }
      }
      @keyframes pulse {
        0%, 100% { opacity: 0.4; }
        50% { opacity: 0.9; }
      }
      @keyframes drift {
        0% { transform: translateX(0px); }
        50% { transform: translateX(10px); }
        100% { transform: translateX(0px); }
      }
      @keyframes shimmer {
        0% { opacity: 0.3; }
        50% { opacity: 1; }
        100% { opacity: 0.3; }
      }
      @keyframes glitch {
        0%, 100% { transform: translateX(0); }
        20% { transform: translateX(-2px); }
        40% { transform: translateX(2px); }
        60% { transform: translateX(-1px); }
        80% { transform: translateX(1px); }
      }
      @keyframes dataStream {
        0% { stroke-dashoffset: 0; }
        100% { stroke-dashoffset: -20; }
      }
      .float { animation: float 8s ease-in-out infinite; }
      .pulse { animation: pulse 8s ease-in-out infinite; }
      .drift { animation: drift 8s ease-in-out infinite; }
      .shimmer { animation: shimmer 3s ease-in-out infinite; }
      .glitch { animation: glitch 0.5s ease-in-out infinite; }
      .dataStream { animation: dataStream 2s linear infinite; }
      .name-text { 
        font-family: -apple-system, BlinkMacSystemFont, 'Segoe UI', Helvetica, Arial, sans-serif;
        font-weight: 700;
        font-size: 64px;
        letter-spacing: -2px;
      }
    </style>
  
  <path d="M 454.2583071693074 7.979502564400098 C 446.71264526596246 26.656696369343976, 426.33120408629514 32.51118559178322, 417.12586998960285 49.463176622675306 C 407.92053589291055 66.4151676535674, 413.34697056273774 91.82864680273613, 399.0263025891536 109.69144874975265 C 384.70563461556947 127.55425069676917, 351.4317246615431 159.17988871549264, 331.20186214809814 156.6399883047744 C 310.9719996346532 154.10008789405614, 288.7522647984591 114.92202855865514, 277.6471275084837 94.4520462854432 C 266.5419902185083 73.98206401223126, 265.9316629865311 52.298551695012634, 264.5710384082456 33.82009466550273 C 263.21041382996015 15.341637635992821, 268.81652748770733 4.045673087964023, 269.4833800387708 -16.418695891616252 C 270.1502325898343 -36.883064871196524, 257.6083875714035 -72.96682782597645, 268.57215371462655 -88.96611921197892 C 279.5359198578496 -104.96541059798139, 310.8975286281358 -105.86972153921299, 335.26597689810893 -112.41444420763102 C 359.6344251680821 -118.95916687604905, 393.59386591587145 -136.53686488926095, 414.7828433344653 -128.2344552224871 C 435.9718207530592 -119.93204555571326, 455.82059743719856 -85.3023125048025, 462.3998414096722 -62.59998620698797 C 468.97908538214585 -39.89765990917344, 461.8039690726523 -10.697691240543781, 454.2583071693074 7.979502564400098 Z" fill="#4a0080" opacity="0.19743655336217247" filter="url(#glow)" class="float" />
<path d="M 202.7916772517833 97.72171391565911 C 198.63680415978757 118.96977794308751, 181.6127529541313 137.92575838707168, 168.5428816930135 153.45538159400718 C 155.4730104318957 168.98500480094268, 141.7360471526956 179.95086791818193, 124.3724496850765 190.8994531572721 C 107.00885221745742 201.84803839636226, 84.51817993532306 219.59900048855576, 64.361296887299 219.1468930285481 C 44.20441383927495 218.69478556854045, 22.815681182612675 201.87815660124218, 3.431151396932165 188.18680839722617 C -15.953378388748344 174.49546019321016, -45.310574295717316 157.86077593695825, -51.94588182678406 136.9988038044521 C -58.5811893578508 116.13683167194598, -50.359959355564044 79.15715771623437, -36.380693789468296 63.0149756021894 C -22.401428223372548 46.872793488144445, 15.752058973947339 58.860061908901656, 31.92971156979044 40.14571112018237 C 48.10736416563354 21.431360331463083, 43.65553196381745 -39.78458068345366, 60.685221785590315 -49.271129130126326 C 77.71491160736318 -58.75767757679899, 111.97670075719468 -29.313267319780792, 134.10785050042762 -16.773579559853616 C 156.23900024366054 -4.233891799926438, 182.02481578642866 6.88444851685129, 193.47212024498793 25.966997429436745 C 204.9194247035472 45.0495463420222, 206.94655034377905 76.47364988823071, 202.7916772517833 97.72171391565911 Z" fill="#7b2cbf" opacity="0.11679391150231647" filter="url(#glow)" class="float" />
<path d="M 796.383082470245 102.96300113212263 C 803.265926315669 126.27754264175748, 797.7674116050489 166.83195320417136, 782.1948989377478 190.23280085746546 C 766.6223862704467 213.63364851075957, 728.1097379149793 244.35505319774674, 702.948006466438 243.36808705188722 C 677.7862750178966 242.3811209060277, 654.0485529404868 200.90639374580684, 631.2245102465 184.31100398230834 C 608.4004675525132 167.71561421880983, 576.5377200680974 164.0368557330823, 566.003750302517 143.79574847089623 C 555.4697805369366 123.55464120871015, 558.3506743843315 85.3064692097913, 568.0206916530174 62.864360409191896 C 577.6907089217033 40.42225160859249, 603.6413324713495 13.920721920833152, 624.0238539146325 9.143095667299775 C 644.4063753579154 4.365469413766397, 670.8368233209534 27.331526865932194, 690.3158203127152 34.198602887991626 C 709.7948173044771 41.06567891005106, 723.2199588389487 38.88481875896787, 740.8978358652037 50.34555179965637 C 758.5757128914586 61.80628484034487, 789.5002386248209 79.64845962248778, 796.383082470245 102.96300113212263 Z" fill="#e0aaff" opacity="0.12865368108130662" filter="url(#glow)" class="float" />
<path d="M 154.09065528773525 157.31172334516393 C 160.10348189326226 177.04905788732975, 191.19437008081192 222.81354315178626, 182.76599582731967 231.65980873275328 C 174.33762157382742 240.5060743137203, 123.28198102384292 214.1305631548086, 103.52040976678171 210.38931683096598 C 83.7588385097205 206.64807050712335, 73.85467802191529 215.1110655268502, 64.1965682849524 209.2123307896975 C 54.53845854798952 203.31359605254477, 49.99840977331427 187.07589923365487, 45.571751345004415 174.9969084080496 C 41.14509291669456 162.91791758244432, 39.1577535694954 156.3472240426182, 37.63661771509325 136.7383858360659 C 36.115481860691105 117.12954762951361, 24.907361987439387 65.91983146610714, 36.44493621859155 57.343879168735825 C 47.982510449743714 48.767926871364516, 88.48804643941186 75.96735166666761, 106.86206310200622 85.28267205183803 C 125.23607976460058 94.59799243700846, 138.81760416320284 101.23095959753736, 146.6890361941577 113.23580147975835 C 154.56046822511254 125.24064336197934, 148.07782868220824 137.5743888029981, 154.09065528773525 157.31172334516393 Z" fill="#4a0080" opacity="0.15254557423039528" filter="url(#glow)" class="float" />
<path d="M 337.84539879339826 126.66188443976274 L 337.84539879339826 126.66188443976274 L 338.22676833322504 126.69524995111169 L 338.599419428729 126.79483862178249 L 338.95474425142265 126.95913265936751 L 339.2843550257662 127.18562167675653 L 339.58019112036857 127.47083138713752 L 339.83462264904966 127.8103633683015 L 340.0405494717141 128.19894549222565 L 340.1914945300552 128.63049250709815 L 340.2816905086571 129.09817615502158 L 340.30615887756755 129.5945041105839 L 340.26078044726853 130.111406934259 L 340.14235665047573 130.6403321510655 L 339.9486608565727 131.17234448988552 L 339.67847912287647 131.6982312530506 L 339.33163989142207 132.20861172988464 L 338.9090322495563 132.6940495224087 L 338.4126124863303 133.1451666168183 L 337.84539879339826 133.55275801099523 L 337.21145407776834 133.9079056964719 L 336.51585697320075 134.20209079307017 L 335.7646612561649 134.42730264593337 L 334.9648439899325 134.57614371778652 L 334.12424283547426 134.6419291438261 L 333.25148307924326 134.61877986236826 L 332.3558950346022 134.50170829089063 L 331.4474225745582 134.28669558389777 L 330.5365236476218 133.97075958553924 L 329.63406371509905 133.5520126754367 L 328.7512031260899 133.02970879996616 L 327.89927951514136 132.4042790824565 L 327.08968636618243 131.6773555134864 L 326.3337489344546 130.85178233571298 L 325.6425987551301 129.93161485541518 L 325.02704799277564 128.92210553409848 L 324.49746489946034 127.82967733697576 L 324.06365165093325 126.66188443976274 L 323.7347258198068 125.42736051985185 L 323.5190067221141 124.13575498138752 L 323.4239078390814 122.7976575849008 L 323.45583646971863 121.42451206982496 L 323.6201017122418 120.02851947128956 L 323.9208318038386 118.62253193999149 L 324.3609017694583 117.21993797463357 L 324.9418722417852 115.83454006941795 L 325.6639402171041 114.48042586346858 L 326.52590240621964 113.17183395398541 L 327.52513172686173 111.9230155996423 L 328.65756736508825 110.7480935945517 L 329.91771870912544 109.66091963545385 L 331.298683330976 108.67493153516324 L 332.79217906011723 107.80301165334835 L 334.3885900608848 107.05734792116343 L 336.0770266919043 106.44929882894249 L 337.84539879339826 105.98926372606525 L 339.6805019175901 105.6865597492889 L 341.56811588995123 105.54930665050193 L 343.4931149658888 105.5843207372996 L 345.439588729808 105.79701907042733 L 347.39097277242064 106.19133498151325 L 349.33018807878574 106.76964588324893 L 351.23978796486057 107.53271424301067 L 353.1021113152477 108.47964248067156 L 354.8994408002101 109.60784243295092 L 356.6141646866537 110.91301990107941 L 358.2289408063308 112.38917466689304 L 359.72686120556347 114.02861622583649 L 361.0916159748002 115.82199534494069 L 362.3076547436536 117.75835141086851 L 363.3603443279589 119.82517538885314 L 364.23612102997424 122.00848806907152 L 364.9226361211009 124.29293313398777 L 365.4088930783283 126.66188443976274 L 365.68537520075444 129.0975667682356 L 365.74416230063576 131.58118917449343 L 365.5790352440077 134.09308992988187 L 365.1855672083895 136.61289194264455 L 364.56120062874083 139.11966742933436 L 363.7053089168662 141.59211051076647 L 362.61924216296245 144.0087163175582 L 361.30635615996755 146.3479651131169 L 359.77202423072777 148.5885098770922 L 358.0236314835863 150.70936574049622 L 356.0705512726011 152.69009962550737 L 353.92410379294074 154.5110184188821 L 351.5974968987695 156.15335399825778 L 349.10574938876454 157.5994434356739 L 346.46559716193644 158.83290272246967 L 343.6953828022672 159.83879239431545 L 340.8149293034542 160.6037734843477 L 337.84539879339826 161.11625229592525 L 334.80913726064443 161.3665125640013 L 331.7295064204898 161.34683366497694 L 328.63070398565054 161.0515936385184 L 325.5375737240445 160.4773559004098 L 322.4754067932775 159.62293865219837 L 319.4697359367783 158.48946613018487 L 316.5461242092697 157.08040098213903 L 313.7299499685395 155.40155721381012 L 311.0461899255511 153.46109330760987 L 308.5192020851867 151.26948528145547 L 306.17251043484157 148.83947962529876 L 304.02859324732475 146.18602622492148 L 302.10867685781017 143.32619155568318 L 300.4325367518313 140.279052601601 L 299.0183077625451 137.06557212592955 L 297.88230512086886 133.7084560868094 L 297.03885803193094 130.23199415409968 L 296.50015736600324 126.66188443976276 L 296.27611895227733 123.02504370272796 L 296.3742638502074 119.3494044286766 L 296.79961684649635 115.66370031438638 L 297.55462428709535 111.99724180393699 L 298.63909220386955 108.37968342909276 L 300.050145536022 104.84078479752645 L 301.78220907820986 101.41016714930103 L 303.82701061187277 98.11706746339925 L 306.1736064950335 94.99009214139791 L 308.8084298002009 92.05697232407306 L 311.7153609015291 89.34432290839396 L 314.87582022262325 86.87740732673512 L 318.2688826669286 84.67991012708157 L 321.871413065088 82.77371935253996 L 325.65822178960286 81.17872066076333 L 329.60223950817385 79.91260504925665 L 333.6747098747804 78.99069196141309 L 337.84539879339826 78.42576944113523 L 342.082818734714 78.22795288175949 L 346.35446644266216 78.40456377859518 L 350.62707223640314 78.96002974471456 L 354.866858995696 79.89580688780401 L 359.03980881461746 81.21032547314095 L 363.11193522125075 82.89895961543232 L 367.0495587901932 84.95402155176232 L 370.8195839212664 87.36478085075919 L 374.38977452228073 90.11750871088029 L 377.72902631656603 93.19554729506069 L 380.8076334975791 96.5794038415604 L 383.59754747338 100.2468690833715 L 386.0726254831725 104.17315930274387 L 388.20886692627687 108.3310811449804 L 389.98463532054393 112.69121811833875 L 391.380863901881 117.22213751636059 L 392.3812429886303 121.89061631686396 L 392.9723873632583 126.66188443976272 L 393.1439820682839 131.49988358535947 L 392.88890517254254 136.36753972720444 L 392.2033262365927 141.2270472003962 L 391.0867793910128 146.0401622085325 L 389.54221013711305 150.7685034715312 L 387.5759951846828 155.37385765323145 L 385.1979348542108 159.81848714289075 L 382.42121778987985 164.06543771913567 L 379.2623579527985 168.07884359916284 L 375.741104089605 171.8242273704086 L 371.8803220979337 175.26879231675574 L 367.70585093540586 178.3817046866986 L 363.24633294096634 181.13436350663005 L 358.5330196546525 183.50065561829717 L 353.59955443245093 185.45719371505464 L 348.48173335497813 186.98353526622222 L 343.2172461205781 188.0623803518771 L 337.84539879339843 188.67974658085527 L 332.4068204435206 188.8251194315307 L 326.94315586777896 188.4915765368837 L 321.4967467151361 187.67588463110343 L 316.1103034581565 186.37856808303312" fill="none" stroke="#4a0080" stroke-width="1" opacity="0.3" class="drift" />
<path d="M 422.1945307453473 121.1440829314702 L 422.1945307453473 121.1440829314702 L 422.41237458879266 121.16314179819058 L 422.6252383296818 121.22002829938413 L 422.828205050837 121.31387544989052 L 423.01648353253387 121.44324927997823 L 423.18546942455686 121.60616522634761 L 423.33080442463773 121.8001108460816 L 423.448432829198 122.0220746227593 L 423.53465484806463 122.26858057179209 L 423.5861761065555 122.53572829267837 L 423.6001527957497 122.81923805986686 L 423.5742319745159 123.11450049180698 L 423.5065865745701 123.41663029005102 L 423.3959447120286 123.72052349741503 L 423.24161296512546 124.0209176866231 L 423.0434933374489 124.31245445891878 L 422.80209368865883 124.58974360614616 L 422.5185314795939 124.84742827004123 L 422.1945307453473 125.08025041913862 L 421.83241227766 125.28311595693195 L 421.43507706620795 125.45115877481516 L 421.00598311640505 125.5798030698982 L 420.54911582855306 125.66482326099617 L 420.0689521889112 125.70240085583414 L 419.5704190869017 125.68917764863184 L 419.0588461336005 125.62230465950834 L 418.53991341430117 125.49948626530151 L 418.01959466172275 125.31901901509474 L 417.50409638583665 125.07982467259683 L 416.9997935408231 124.78147708109651 L 416.51316234889526 124.42422250452722 L 416.0507109342481 124.00899315971016 L 415.618908447855 123.53741371953454 L 415.22411338496045 123.01180063409375 L 414.8725018116609 122.43515418600714 L 414.56999622475985 121.81114326668367 L 414.32219577001047 121.1440829314702 L 414.1343085378692 120.43890486281596 L 414.0110866429919 119.70112094110537 L 413.95676477398104 118.93678019200601 L 413.9750028734819 118.15241944638976 L 414.068833575829 117.3550081134754 L 414.24061499031444 116.55188752919035 L 414.4919893731217 115.75070539926567 L 414.823848180402 114.95934590969978 L 415.2363039393064 114.18585612542928 L 415.7286693134964 113.43836934084554 L 416.2994436752633 112.72502608275849 L 416.94630742845607 112.0538934971469 L 417.66612425554865 111.43288387521659 L 418.4549513889968 110.86967309163843 L 419.30805793220185 110.37161973814501 L 420.21995117958494 109.9456857387733 L 421.18441080916693 109.59835922886634 L 422.1945307453473 109.33558046846488 L 423.2427684149685 109.16267154197564 L 424.32100104693757 109.08427057010432 L 425.42058859533347 109.10427112716559 L 426.53244279871393 109.22576751726534 L 427.6471018249008 109.45100651679748 L 428.7548098914614 109.78134613856608 L 429.84560119800955 110.21722191505712 L 430.909387457842 110.75812113541087 L 431.9360482738046 111.40256540301291 L 432.915523567086 112.14810180889503 L 433.8379072382465 112.99130294092845 L 434.69354121754185 113.92777587074472 L 435.4731090467553 114.95218018011283 L 436.1677281275185 116.05825500683346 L 436.7690397716108 117.23885500780278 L 437.26929619705464 118.48599505448234 L 437.66144362996755 119.79090339432287 L 437.9392006960211 121.1440829314702 L 438.0971313168583 122.53538020205829 L 438.13071136572364 123.95406154428589 L 438.03638838259025 125.38889589197824 L 437.8116337018916 126.82824355312303 L 437.45498640517445 128.26015027258237 L 436.9660885761227 129.67244582141845 L 436.34571140594784 131.05284630459013 L 435.5957717725206 132.38905933468914 L 434.719338996221 133.66889118234383 L 433.72063155864674 134.88035498432282 L 432.60500365634675 136.01177906855682 L 431.378921549907 137.05191444153596 L 430.0499297582634 137.9900404780326 L 428.62660723827025 138.81606785598083 L 427.11851377953667 139.52063779067197 L 425.5361269335606 140.095216642188 L 423.8907698834616 140.53218499810686 L 422.1945307453473 140.82492036981236 L 420.4601738737923 140.96787268499756 L 418.7010438213062 140.956631810857 L 416.93096267431736 140.7879864016514 L 415.1641215554083 140.45997343035393 L 413.41496714267646 139.9719178364517 L 411.69808411156487 139.3244618001168 L 410.02807445176967 138.5195832362582 L 408.4194346514041 137.5606031897575 L 406.8864317720573 136.4521819047602 L 405.44297946138073 135.2003034354939 L 404.10251496407324 133.81224876292737 L 402.8778781974103 132.29655747986408 L 401.7811939536305 130.6629782059449 L 400.8237582784972 128.92240799267933 L 400.0159300532072 127.08682107618147 L 399.3670287756191 125.16918743090892 L 398.8852394966943 123.18338167055137 L 398.5775258193367 121.14408293147021 L 398.44955180980355 119.06666645894826 L 398.5056136069501 116.9670876962036 L 398.7485814422278 114.86175974991825 L 399.1798527041242 112.767425173245 L 399.7993165952114 110.70102306724065 L 400.6053308388295 108.67955255385347 L 401.5947107963718 106.71993371743484 L 402.762731255946 104.83886714680274 L 404.10314104964095 103.0526932357638 L 405.6081905505994 101.37725241638957 L 407.2686719934324 99.82774750600865 L 409.0739724531192 98.41860934566196 L 411.0121392093139 97.16336689459902 L 413.069957115852 96.07452292228068 L 415.2330374901141 95.16343640639182 L 417.48591793468313 94.44021270273147 L 419.81217240529924 93.91360250080074 L 422.1945307453473 93.59091051779114 L 424.61500681883615 93.47791481391003 L 427.0550342918393 93.57879753406249 L 429.49560903742116 93.89608779541238 L 431.9174370718587 94.43061734790759 L 434.30108687113557 95.1814895361799 L 436.62714486679823 96.14606198708111 L 438.8763728798404 97.31994333830728 L 441.02986622073905 98.69700421095489 L 443.0692111634701 100.26940251334746 L 444.97664049154196 102.02762304599798 L 446.7351858149963 103.96053125909758 L 448.3288253690268 106.05544089540787 L 449.74262602737286 108.2981951338781 L 450.9628782968762 110.67326073368862 L 451.977223103364 113.16383456571505 L 452.7747692330965 115.75196180958058 L 453.3462003580332 118.41866499045521 L 453.6838706466948 121.14408293147018 L 453.7818880449239 123.90761860592598 L 453.6361844017655 126.68809478918772 L 453.24457171434346 129.46391633406594 L 452.6067838712494 132.21323782626777 L 451.724503385792 134.91413531881716 L 450.6013727276076 137.5447807967553 L 449.24298998269774 140.08361798642096 L 447.6568886969766 142.50953809758622 L 445.85250188588645 144.80205407200927 L 443.8411103215438 146.94147190877882 L 441.6357753381776 148.9090576453067 L 439.25125652524395 150.68719859302087 L 436.70391480449814 152.25955745865014 L 434.01160151141505 153.6112180253386 L 431.1935342216245 154.72882112242516 L 428.2701601784624 155.60068967822983 L 425.2630082873293 156.21694172617245 L 422.1945307453474 156.5695903204861 L 419.0879354699246 156.65262941306315 L 415.96701057640445 156.46210484689885 L 412.85594223222955 155.9961697334046 L 409.7791272822636 155.25512359971168 L 406.76098209644175 154.24143481706926 L 403.82574913622796 152.95974595160172 L 400.99730276993887 151.41686181300807 L 398.29895588850707 149.6217201142135 L 395.7532688823918 147.58534479442568 L 393.38186253692476 145.320782198391 L 391.20523638732334 142.8430204447582 L 389.2425940459254 140.16889245520096 L 387.511676973013 137.31696325217973 L 386.0286081091395 134.30740226582412 L 384.80774672145407 131.1618415182692 L 383.8615557395772 127.90322067581077 L 383.20048276862866 124.5556200744191 L 382.832855868663 121.14408293147022 L 382.76479508173793 117.69442805508065 L 383.00014057090823 114.23305445130185 L 383.5403981104746 110.78673930783059 L 384.3847025347664 107.38243090010023 L 385.5297996145939 104.04703802100586 L 386.9700466873445 100.80721757851666 L 388.697432219622 97.68916203560396 L 390.70161433149 94.7183883839057 L 392.96997815997537 91.91953034609844 L 395.48771178770227 89.31613549193365 L 398.2379003116016 86.93046892925878 L 401.2016374777823 84.78332519417705 L 404.3581541630791 82.89384991398146 L 407.68496284270714 81.27937275292297 L 411.15801704802635 79.95525307463862 L 414.75188468978126 78.93473966668965 L 418.4399340014315 78.22884577273514 L 422.1945307453474 77.8462405671174 L 425.98724522270385 77.79315808584442 L 429.789067536741 78.07332449802061 L 433.57062947950885 78.68790446365918 L 437.3024313450034 79.63546717854982 L 440.9550719173703 80.91197255556233" fill="none" stroke="#4a0080" stroke-width="1" opacity="0.3" class="drift" />
<circle cx="126.4994481994309" cy="53.45588900647793" r="1.1856917317950963" fill="white" opacity="0.49935154785186325" class="shimmer" style="animation-delay: 4.918828878290178s" />
<circle cx="62.021213051030166" cy="137.81646121317868" r="1.2891082426600995" fill="white" opacity="0.3663213487971943"  style="animation-delay: 3.354099218362773s" />
<circle cx="45.94025797731742" cy="39.396490845171826" r="0.9890522544693133" fill="white" opacity="0.5847906346879028"  style="animation-delay: 3.428324467402879s" />
<circle cx="328.05331598147126" cy="0.028986433063238337" r="0.6324885178616912" fill="white" opacity="0.525655227361191"  style="animation-delay: 3.520164413129081s" />
<circle cx="516.0860428932917" cy="51.68741524334659" r="1.7945192278508149" fill="white" opacity="0.6991232536867584"  style="animation-delay: 0.6912612685345598s" />
<circle cx="777.906808192769" cy="161.1108323279013" r="1.9419567739650478" fill="white" opacity="0.43885015799315735"  style="animation-delay: 1.0814039942349907s" />
<circle cx="229.32569726121895" cy="95.03665041186599" r="1.149799710697963" fill="white" opacity="0.3096251965921339"  style="animation-delay: 2.9695880191166477s" />
<circle cx="652.5114343189734" cy="190.0062974491907" r="1.0158650548762314" fill="white" opacity="0.38162238485524186"  style="animation-delay: 1.899751035644348s" />
<circle cx="83.28927239804517" cy="119.51641767244911" r="1.3490944039383694" fill="white" opacity="0.7509566074523186"  style="animation-delay: 4.096094793209094s" />
<circle cx="119.00578005007088" cy="92.51617209789865" r="1.1892259981536466" fill="white" opacity="0.3240781726036776" class="shimmer" style="animation-delay: 2.2172198997975103s" />
<circle cx="509.43354324339936" cy="4.869170927369826" r="1.110402608112001" fill="white" opacity="0.463369551963646"  style="animation-delay: 4.745535161462174s" />
<circle cx="513.6440295732067" cy="81.94828613265872" r="1.0434083156419092" fill="white" opacity="0.44048483175654657"  style="animation-delay: 0.1579666354624354s" />
<circle cx="358.75322714868594" cy="35.790904525623105" r="0.6710015997611604" fill="white" opacity="0.5942639441405764"  style="animation-delay: 0.277644291941227s" />
<circle cx="505.1525329133488" cy="121.90349582532791" r="1.5410759234858697" fill="white" opacity="0.5856883339142498" class="shimmer" style="animation-delay: 0.6476494379527342s" />
<circle cx="720.5660186620559" cy="183.06079338550197" r="1.1642841978025975" fill="white" opacity="0.6631259888426599" class="shimmer" style="animation-delay: 4.156360933493774s" />
<circle cx="642.846834874687" cy="29.724579998731837" r="1.3917998882489404" fill="white" opacity="0.783894653173741"  style="animation-delay: 0.8638236907247376s" />
<circle cx="416.0878534876367" cy="146.06278128127795" r="0.5601768271872614" fill="white" opacity="0.5503580142666733" class="shimmer" style="animation-delay: 3.225618500606553s" />
<circle cx="702.7492306793332" cy="158.64836115729855" r="1.258590698146428" fill="white" opacity="0.7937539284856201"  style="animation-delay: 1.4252153191953598s" />
<circle cx="48.53007633070607" cy="93.0788085196406" r="0.5861873259441703" fill="white" opacity="0.7999133982325934" class="shimmer" style="animation-delay: 3.3470438184162887s" />
<circle cx="116.53017471684173" cy="133.22484833884226" r="1.3309111609190087" fill="white" opacity="0.6292886834978004" class="shimmer" style="animation-delay: 4.343296126447569s" />
<circle cx="623.5639279513059" cy="13.636256066980579" r="0.6224240228330323" fill="white" opacity="0.5980898074679097"  style="animation-delay: 1.212072513754594s" />
<circle cx="481.6619145454263" cy="155.43240037335826" r="1.2146735451017463" fill="white" opacity="0.4476212631188076" class="shimmer" style="animation-delay: 3.8216134419071857s" />
<circle cx="796.9885316541745" cy="9.839896879433052" r="0.916140742072672" fill="white" opacity="0.3506910546974827"  style="animation-delay: 1.1261270766873033s" />
<circle cx="579.728374582532" cy="15.255965634545054" r="0.5477868855044539" fill="white" opacity="0.7652712333996483"  style="animation-delay: 2.58167175388055s" />
<circle cx="570.5149518425716" cy="69.16714703775276" r="1.3018419864274127" fill="white" opacity="0.3520553077458782" class="shimmer" style="animation-delay: 3.1554651564155325s" />
<circle cx="334.0054339849887" cy="124.815018910861" r="1.9336820255598153" fill="white" opacity="0.6788210228062699"  style="animation-delay: 2.804956074824073s" />
<circle cx="256.7346678324261" cy="104.57490313633362" r="1.3838662364117533" fill="white" opacity="0.41599876328411484" class="shimmer" style="animation-delay: 4.009411980498974s" />
<circle cx="768.3597578847728" cy="88.58884068211638" r="1.501134010739533" fill="white" opacity="0.3794208484794504"  style="animation-delay: 4.203694330500525s" />
<circle cx="306.73242721901613" cy="18.353739603232633" r="0.5954253783438556" fill="white" opacity="0.4973084667706093"  style="animation-delay: 3.5920967991448585s" />
<circle cx="370.9771768565778" cy="54.189217463496945" r="0.9946137197571056" fill="white" opacity="0.37869954475809936"  style="animation-delay: 3.1173941702970085s" />
<circle cx="787.3621270583428" cy="24.60826252926971" r="1.423797234367222" fill="white" opacity="0.39740071032643703"  style="animation-delay: 3.195480702627469s" />
<circle cx="235.14917845958934" cy="60.112277076867215" r="1.9516063223946416" fill="white" opacity="0.7783363249178081" class="shimmer" style="animation-delay: 1.772339616445907s" />
<circle cx="574.3053531526602" cy="67.2932560888984" r="1.5167226728822798" fill="white" opacity="0.4225287960697755"  style="animation-delay: 1.7633967945237627s" />
<circle cx="576.8638478325796" cy="55.985799941303284" r="1.7549870301405104" fill="white" opacity="0.4441241576268952"  style="animation-delay: 3.2633438302585924s" />
<circle cx="678.5021035953592" cy="38.14347524650699" r="0.709229610725297" fill="white" opacity="0.541837206751228"  style="animation-delay: 4.719468280432794s" />
<circle cx="768.6625955764972" cy="187.49477673759216" r="1.9922358798785407" fill="white" opacity="0.5213594969114592"  style="animation-delay: 0.11141355378734175s" />
<circle cx="438.1909343806594" cy="154.01931522992572" r="1.3679113143648864" fill="white" opacity="0.556773236506263"  style="animation-delay: 2.3640131213899362s" />
<circle cx="300.88106178163673" cy="83.70281331082575" r="1.603364357127728" fill="white" opacity="0.46832382132912426" class="shimmer" style="animation-delay: 4.97011563167288s" />
<circle cx="294.3725550146011" cy="75.5982101483467" r="1.972778577594772" fill="white" opacity="0.3745712023824352" class="shimmer" style="animation-delay: 2.7341379873052363s" />
<circle cx="365.5571792870523" cy="0.1447438413483937" r="0.6266850912684014" fill="white" opacity="0.4146590364332175"  style="animation-delay: 1.036518391091048s" />
<circle cx="279.5371379105131" cy="95.14014922525034" r="2.8788177527353778" fill="#9d4edd" opacity="0.8" filter="url(#glow)" class="shimmer" style="animation-delay: 0.6686327532335323s" />
<circle cx="132.40657710471524" cy="174.84060500437337" r="2.0106016293226183" fill="#e0aaff" opacity="0.8" filter="url(#glow)" class="shimmer" style="animation-delay: 0.7781071095698984s" />
<circle cx="255.210684348868" cy="134.30177496222927" r="2.5173948337154846" fill="#4a0080" opacity="0.8" filter="url(#glow)" class="shimmer" style="animation-delay: 2.1848739653009086s" />
<circle cx="391.13624968114493" cy="189.74955582304548" r="1.2351294921836202" fill="#7b2cbf" opacity="0.8" filter="url(#glow)" class="shimmer" style="animation-delay: 0.6782521504802514s" />
<circle cx="227.0298177204987" cy="37.602907549962474" r="2.194917172618365" fill="#e0aaff" opacity="0.8" filter="url(#glow)" class="shimmer" style="animation-delay: 2.1355873210851133s" />
<circle cx="631.7364352196659" cy="9.943042754219489" r="2.1099739750433235" fill="#e0aaff" opacity="0.8" filter="url(#glow)" class="shimmer" style="animation-delay: 0.2976467007108696s" />
<circle cx="630.2643031607577" cy="46.215603866933506" r="1.4103996214077679" fill="#c77dff" opacity="0.8" filter="url(#glow)" class="shimmer" style="animation-delay: 2.6820031757769955s" />
<circle cx="543.681237059203" cy="48.40198651196115" r="1.2317277320217963" fill="#4a0080" opacity="0.8" filter="url(#glow)" class="shimmer" style="animation-delay: 0.08636967482810154s" />
<line x1="604.1289035866972" y1="108.81262437679608" x2="449.8400745686512" y2="32.610724420873744" stroke="#e0aaff" stroke-width="0.5" opacity="0.3" />
<line x1="449.8400745686512" y1="32.610724420873744" x2="459.59106788575224" y2="143.90544840042327" stroke="#e0aaff" stroke-width="0.5" opacity="0.3" />
<line x1="459.59106788575224" y1="143.90544840042327" x2="365.79195861533594" y2="119.53596118699548" stroke="#e0aaff" stroke-width="0.5" opacity="0.3" />
<line x1="365.79195861533594" y1="119.53596118699548" x2="560.9569060936058" y2="54.27415716645483" stroke="#e0aaff" stroke-width="0.5" opacity="0.3" />

  
    <text x="400" y="120" text-anchor="middle" class="name-text" fill="url(#textGrad)" filter="url(#textGlow)">
      JOEL HOOKS
    </text>
  
</svg>
