<svg xmlns="http://www.w3.org/2000/svg" viewBox="0 0 800 200" width="800" height="200">
  <rect width="800" height="200" fill="#05010d"/>
  
    <defs>
      <linearGradient id="grad1" x1="0%" y1="0%" x2="100%" y2="100%">
        <stop offset="0%" style="stop-color:#4a0080;stop-opacity:0.8" />
        <stop offset="100%" style="stop-color:#7b2cbf;stop-opacity:0.8" />
      </linearGradient>
      <linearGradient id="grad2" x1="100%" y1="0%" x2="0%" y2="100%">
        <stop offset="0%" style="stop-color:#9d4edd;stop-opacity:0.7" />
        <stop offset="100%" style="stop-color:#c77dff;stop-opacity:0.7" />
      </linearGradient>
      <linearGradient id="textGrad" x1="0%" y1="0%" x2="100%" y2="0%">
        <stop offset="0%" style="stop-color:#4a0080" />
        <stop offset="25%" style="stop-color:#7b2cbf" />
        <stop offset="50%" style="stop-color:#9d4edd" />
        <stop offset="75%" style="stop-color:#c77dff" />
        <stop offset="100%" style="stop-color:#e0aaff" />
      </linearGradient>
      <filter id="glow">
        <feGaussianBlur stdDeviation="5" result="coloredBlur"/>
        <feMerge>
          <feMergeNode in="coloredBlur"/>
          <feMergeNode in="SourceGraphic"/>
        </feMerge>
      </filter>
      <filter id="textGlow">
        <feGaussianBlur stdDeviation="2" result="coloredBlur"/>
        <feMerge>
          <feMergeNode in="coloredBlur"/>
          <feMergeNode in="SourceGraphic"/>
        </feMerge>
      </filter>
    </defs>
  
  
    <style>
      @keyframes float {
        0%, 100% { transform: translateY(0px); }
        50% { transform: translateY(-8px); }
      }
      @keyframes pulse {
        0%, 100% { opacity: 0.4; }
        50% { opacity: 0.9; }
      }
      @keyframes drift {
        0% { transform: translateX(0px); }
        50% { transform: translateX(10px); }
        100% { transform: translateX(0px); }
      }
      @keyframes shimmer {
        0% { opacity: 0.3; }
        50% { opacity: 1; }
        100% { opacity: 0.3; }
      }
      @keyframes glitch {
        0%, 100% { transform: translateX(0); }
        20% { transform: translateX(-2px); }
        40% { transform: translateX(2px); }
        60% { transform: translateX(-1px); }
        80% { transform: translateX(1px); }
      }
      @keyframes dataStream {
        0% { stroke-dashoffset: 0; }
        100% { stroke-dashoffset: -20; }
      }
      .float { animation: float 8s ease-in-out infinite; }
      .pulse { animation: pulse 8s ease-in-out infinite; }
      .drift { animation: drift 8s ease-in-out infinite; }
      .shimmer { animation: shimmer 3s ease-in-out infinite; }
      .glitch { animation: glitch 0.5s ease-in-out infinite; }
      .dataStream { animation: dataStream 2s linear infinite; }
      .name-text { 
        font-family: -apple-system, BlinkMacSystemFont, 'Segoe UI', Helvetica, Arial, sans-serif;
        font-weight: 700;
        font-size: 64px;
        letter-spacing: -2px;
      }
    </style>
  
  <path d="M 380.7539950206312 89.48671780009829 C 382.7482820200263 109.85633293340248, 381.0042340647369 144.33489115716935, 366.37836602357436 154.440514495367 C 351.7524979824118 164.54613783356467, 311.84873442148256 147.00146673433017, 292.99878677365587 150.1204578292843 C 274.14883912582917 153.23944892423845, 271.4625682886576 167.6008491224364, 253.27868013661418 173.15446106509177 C 235.09479198457075 178.70807300774715, 190.9014455254425 194.74090796838198, 183.89545786139524 183.4421294852166 C 176.88947019734798 172.14335100205125, 215.395791674768 126.22462780091651, 211.24275415233052 105.36179016609954 C 207.08971662989305 84.49895253128257, 160.7870164109677 73.39870900525806, 158.97723272677038 58.26510367631479 C 157.16744904257305 43.131498347371526, 184.38585561690377 21.344775026599603, 200.38405204714655 14.560158192439957 C 216.38224847738934 7.775541358280311, 240.02599301953052 14.090555256600533, 254.9664113082271 17.55740267135691 C 269.90682959692367 21.02425008611329, 273.45218965949664 32.91700584361407, 290.0265617793261 35.36124268097823 C 306.6009338991555 37.80547951834239, 339.2914051536527 23.201911175688505, 354.41264402720356 32.22282369554185 C 369.5338829007544 41.24373621539519, 378.75970802123607 69.1171026667941, 380.7539950206312 89.48671780009829 Z" fill="#4a0080" opacity="0.23837509212861818" filter="url(#glow)" class="float" />
<path d="M 757.0446018653229 17.768743245757392 C 759.9104861022118 38.32529417930533, 783.0630209342004 73.42415676233084, 774.2132436457138 88.036048757068 C 765.3634663572271 102.64794075180517, 719.2385637593705 113.56990475964984, 703.9459381344031 105.44009521418039 C 688.6533125094358 97.31028566871093, 694.5652539003934 53.869083478988465, 682.4574898959092 39.2571914842513 C 670.3497258914251 24.645299489514137, 636.7436501931015 30.375855410858488, 631.2993541074984 17.768743245757403 C 625.8550580218953 5.161631080656317, 637.6839493778064 -20.45292790168142, 649.7917133822905 -36.38548150635522 C 661.8994773867746 -52.31803511102902, 686.0749006607216 -78.00694915930796, 703.9459381344031 -77.82657838228538 C 721.8169756080847 -77.64620760526279, 748.1681609358935 -51.23581044889346, 757.0179382243801 -35.30325684421967 C 765.8677155128668 -19.370703239545875, 754.1787176284339 -2.7878076877905507, 757.0446018653229 17.768743245757392 Z" fill="#4a0080" opacity="0.11799759829209687" filter="url(#glow)" class="float" />
<path d="M 753.9475572596516 142.98139694321378 C 750.4926370293368 154.93382705528734, 724.8883029068172 162.12246560627952, 714.2995852831539 170.1416204064224 C 703.7108676594905 178.16077520656526, 704.125031037562 181.22091656029346, 690.4152515176713 191.096325744071 C 676.7054719977806 200.97173492784856, 640.2089746300865 234.9549487362105, 632.0409081638095 229.3940755090877 C 623.8728416975325 223.83320228196493, 643.4462216862183 175.90190482142702, 641.4068527200092 157.73108638133422 C 639.3674837538 139.56026794124142, 620.6111847610307 135.92272656954373, 619.8046943665546 120.3691648685309 C 618.9982039720785 104.81560316751806, 624.9247838640434 67.94955570344412, 636.5679103531522 64.40971617525719 C 648.211036842261 60.86987664707025, 673.2532539158924 93.46057377295533, 689.6634533012074 99.13012769940929 C 706.0736526865223 104.79968162586324, 724.3150893386348 91.11849486001354, 735.0291066650423 98.42703973398096 C 745.7431239914497 105.73558460794838, 757.4024774899664 131.02896683114022, 753.9475572596516 142.98139694321378 Z" fill="#c77dff" opacity="0.1831539197836889" filter="url(#glow)" class="float" />
<path d="M 486.38771665729917 187.77296542656637 C 483.63989240575705 196.99781884862102, 448.4490298916242 195.61998558561453, 441.8601306653118 210.14976743698165 C 435.27123143899934 224.67954928834877, 454.03874052120284 269.074281963355, 446.85432129942467 274.95165653476914 C 439.6699020776465 280.82903110618327, 409.1162903048047 255.64244101210943, 398.75361533464275 245.41401486546653 C 388.3909403644808 235.18558871882362, 397.4436138062682 219.03412538192538, 384.678271478453 213.58109965491175 C 371.91292915063775 208.12807392789813, 327.6298940414307 219.69725234279653, 322.1615613677514 212.6958605033848 C 316.6932286940721 205.69446866397308, 342.3490678373082 181.06685722809732, 351.86827543637725 171.57274861844138 C 361.3874830354463 162.07864000878544, 371.052895438995 159.7885702168734, 379.27680696216544 155.73120884544915 C 387.5007184853359 151.67384747402488, 391.090443775538 153.9182741888085, 401.2117445753999 147.22858038989582 C 411.3330453752618 140.53888659098314, 430.48205649480934 114.33103496618008, 440.0046117613368 115.59304605197306 C 449.5271670278642 116.85505713776604, 450.6165586919042 142.77066034222148, 458.34707617456456 154.8006469046537 C 466.07759365722495 166.8306334670859, 489.1355409088413 178.54811200451172, 486.38771665729917 187.77296542656637 Z" fill="#e0aaff" opacity="0.19211519681918726" filter="url(#glow)" class="float" />
<path d="M 128.91919934836767 62.16330238854051 L 128.91919934836767 62.16330238854051 L 129.26364808710446 62.19343774834578 L 129.60022242362203 62.2833851311929 L 129.92114786269687 62.43177368381258 L 130.2188486584874 62.636336052408694 L 130.48604453811865 62.893934299664714 L 130.71584427301326 63.20059581942281 L 130.90183509538215 63.55155888412409 L 131.03816699799756 63.94132736182153 L 131.11963100553908 64.36373404571191 L 131.14173056496895 64.81201195057787 L 131.100745269999 65.2788728481347 L 130.99378621013227 65.75659223783167 L 130.8188423172906 66.23709988189307 L 130.57481717190632 66.71207497395956 L 130.26155582472805 67.17304496018656 L 129.8798612895868 67.6114869905753 L 129.43150046505727 68.0189309470658 L 128.91919934836767 68.38706297383432 L 128.34662751206753 68.70782842453936 L 127.71837192184374 68.97353314108399 L 127.03990028146315 69.17694198884497 L 126.31751419709265 69.31137359419901 L 125.55829255719631 69.37079026139506 L 124.77002562483847 69.34988208712284 L 123.96114043556916 69.24414434216366 L 123.14061818520435 69.04994724983763 L 122.31790437685346 68.76459736005472 L 121.50281257466308 68.38638979502409 L 120.70542268216481 67.91465072738677 L 119.93597472513977 67.34976954295202 L 119.20475917191155 66.69322023751059 L 118.52200486740985 65.94757169948599 L 117.89776569074637 65.11648663653334 L 117.34180706904374 64.20470901363119 L 116.86349349258032 63.218039981725006 L 116.47167817778006 62.16330238854051 L 116.17459601510674 61.048294075745474 L 115.97976091853505 59.88173027814504 L 115.89386866208795 58.67317555000354 L 115.9227062471704 57.43296574985865 L 116.07106879240958 56.17212071732201 L 116.3426848758486 54.9022483723644 L 116.74015118813584 53.635441058527086 L 117.26487727540331 52.38416503549488 L 117.91704106251065 51.161144102683494 L 118.69555575200178 49.97923840316868 L 119.59804859230648 48.851319515728974 L 120.62085190130925 47.79014299137586 L 121.75900661935043 46.808219528980835 L 123.00627855001534 45.91768601204391 L 124.3551873287424 45.130177644943956 L 125.79704803940545 44.45670243192744 L 127.3220252786883 43.90751923549108 L 128.91919934836767 43.49202063265909 L 130.57664413765758 43.21862175801752 L 132.28151614263467 43.09465628141874 L 134.0201539585371 43.126280616285534 L 135.77818747445636 43.31838739180445 L 137.54065589963332 43.67452914947886 L 139.29213365719067 44.1968531420847 L 141.01686309559602 44.886048021700006 L 142.6988928912956 45.741303103908905 L 144.3222209485675 46.76028078834068 L 145.87094054540674 47.939102602292316 L 147.32938842778788 49.27234921526439 L 148.68229351946906 50.75307464883518 L 149.9149248910309 52.372834779476115 L 151.01323762040306 54.121730102781356 L 151.96401517793947 55.98846259728279 L 152.75500698226986 57.96040639570673 L 153.37505979867916 60.02369184236625 L 153.81424168954288 62.1633023885405 L 154.06395727615273 64.36318365432533 L 154.11705313277858 66.60636386667903 L 153.9679122065979 68.87508477034237 L 153.6125362406425 71.15094200203605 L 153.04861527053288 73.4150338198533 L 152.27558336876024 75.64811699001041 L 151.29465992181684 77.83076855298378 L 150.1088758446665 79.94355212135073 L 148.72308426291033 81.96718730308311 L 147.14395532449817 83.8827207972468 L 145.3799549388587 85.67169767456939 L 143.44130738071988 87.31633133357865 L 141.33994183747922 88.79967061430729 L 139.08942312153368 90.10576255611466 L 136.70486691125785 91.21980930408758 L 134.20284002507296 92.12831769973185 L 131.60124637103684 92.81924013611408 L 128.91919934836767 93.28210531500955 L 126.176881606088 93.50813761358764 L 123.39539318635761 93.49036385024056 L 120.59658919493337 93.22370633274599 L 117.80290824746533 92.70506117635412 L 115.03719303700775 91.93336099380927 L 112.32250445425088 90.90962118286983 L 109.68193076670951 89.63696916859837 L 107.13839342567516 88.12065609650662 L 104.71445111948222 86.36805061742592 L 102.43210372799415 84.38861455455334 L 100.31259785573013 82.1938603962465 L 98.3762356293928 79.79729071353961 L 96.64218843949732 77.21431975769917 L 95.12831728525474 74.46217764911333 L 93.85100134684535 71.55979772306313 L 92.82497635988719 68.52768774911735 L 92.06318430353204 65.38778588770454 L 91.57663583660482 62.16330238854052 L 91.37428682605847 58.87854816976596 L 91.46293020937848 55.55875154265891 L 91.84710431818694 52.2298644634737 L 92.52901866501527 48.918359800231336 L 93.50849805999533 45.651021197133446 L 94.78294578010164 42.45472720177676 L 96.34732636170112 39.35623138966743 L 98.19416842873432 36.381940275965704 L 100.31358780513945 33.55769084531225 L 102.69333099247258 30.908529556499712 L 105.31883892344675 28.458494689294305 L 108.17333073072166 26.23040389562889 L 111.23790709916184 24.245648796566606 L 114.491672600388 22.523998429888806 L 117.9118762422126 21.08341330104293 L 121.4740693039193 19.93987172277089 L 125.15227937270876 19.10721004644281 L 128.91919934836764 18.596978291483865 L 132.7463900436371 18.418312568969235 L 136.6044948781208 18.577825572262192 L 140.46346504506687 19.07951627238451 L 144.29279342408367 19.92469980964934 L 148.06175541982188 21.111958417064614 L 151.73965482777825 22.6371140463377 L 155.29607276445574 24.493223195265323 L 158.70111765082476 26.67059425723992 L 161.92567420593872 29.156827530969473 L 164.9416493920757 31.93687784276312 L 167.72221325422254 34.99313954640465 L 170.24203261521603 38.30555347824759 L 172.47749562344512 41.85173525928754 L 174.4069252025581 45.60712415315392 L 176.0107795218405 49.54515151075299 L 177.2718376914264 53.63742766022059 L 178.17536898772744 57.85394593638679 L 178.70928403071812 62.16330238854049 L 178.864266465201 66.53292956030481 L 178.63388384193513 70.92934260216525 L 178.01467655049893 75.31839585687213 L 177.0062238227976 79.66554795166334 L 175.61118600294708 83.93613334004192 L 173.83532246450721 88.09563816059799 L 171.68748474825156 92.10997822184342 L 169.17958469133544 95.94577688087998 L 166.3265375202816 99.57064056045431 L 163.14618008402738 102.95342964391578 L 159.65916460771837 106.06452250100409 L 155.88882855130757 108.87607042932557 L 151.86104135766777 111.3622413467215 L 147.60402907116102 113.49945013826976 L 143.14817799778774 115.26657364798857 L 138.52581876055913 116.6451484088884 L 133.77099227701635 117.61954932516235 L 128.9191993483678 118.17714765618477 L 124.0071357001085 118.30844680263591 L 119.07241445087148 118.0071945593971 L 114.15327810840351 117.270470676647 L 109.28830229783802 116.09874875850925 L 104.5160935168192 114.49593172622352 L 99.87498328366321 112.46936027861676 L 95.40272109784985 110.02979399503309 L 91.13616866614598 107.19136494317559 L 87.11099786211099 103.97150387479716 L 83.36139488132523 100.39083931408258 L 79.91977302929541 96.47307006510616 L 76.81649653364582 92.24481188412724 L 74.07961770708314 87.73541927788787 L 71.73462970309964 82.9767835987407 L 69.80423700294432 78.00310880959294 L 68.30814565073065 72.85066648460362 L 67.26287511448376 67.55753179368408 L 66.68159349542961 62.163302388540544 L 66.57397763701019 56.70880226378658 L 66.94609950022192 51.23577280717279 L 67.80033997428589 45.786553376944 L 69.13533108286015 40.403753850604026 L 70.94592732758115 35.12992167694479 L 73.22320668435462 30.00720603118925 L 75.95450153526646 25.07702172080767 L 79.12345958206534 20.37971551643652 L 82.71013454776805 15.954237587941194 L 86.69110623294328 11.837820709830837 L 91.03962925458711 8.065669862859579 L 95.72580956013392 4.670664799881969 L 100.71680757897326 1.6830780641523972 L 105.97706665076053 -0.8696891522662469 L 111.46856515568278 -2.9633510428580863 L 117.151090568433 -4.576958986385641 L 122.98253346672921 -5.693099142605469 L 128.91919934836775 -6.298064049691355" fill="none" stroke="#4a0080" stroke-width="1" opacity="0.3" class="drift" />
<path d="M 630.3167926981401 61.071538018821855 L 630.3167926981401 61.071538018821855 L 630.5627500191563 61.093056496121974 L 630.8030845387027 61.15728439081141 L 631.0322447949727 61.26324283039129 L 631.2448212452903 61.40931278653381 L 631.4356153326244 61.593253581399004 L 631.5997063012027 61.81222853289706 L 631.7325150453172 62.062837478327175 L 631.8298643044822 62.34115584564824 L 631.8880345539295 62.642779874611236 L 631.9038149816731 62.96287752674935 L 631.8745489916485 63.2962445643858 L 631.7981737262905 63.63736522494698 L 631.6732531608408 63.98047686848085 L 631.499004385132 64.31963793384728 L 631.2753167559873 64.64879850298469 L 631.0027636740566 64.96187274332243 L 630.6826068122423 65.25281247609708 L 630.3167926981401 65.51568110327308 L 629.9079416294378 65.74472711812945 L 629.4593289782446 65.93445642444757 L 628.974859017154 66.07970269664982 L 628.4590314757244 66.17569502814752 L 627.9169011102853 66.2181221374493 L 627.3540306418394 66.20319243107211 L 626.7764374856212 66.12768925873992 L 626.1905347609544 65.98902073943334 L 625.603067130772 65.78526358619 L 625.0210420759431 65.51520041271421 L 624.4516572598352 65.17835006534389 L 623.9022246828273 64.77499058919787 L 623.3800923643379 64.30617450680016 L 622.8925643209392 63.77373616051748 L 622.4468196329819 63.18029094608569 L 622.0498314085764 62.529226342644385 L 621.7082864625735 61.82468472432617 L 621.4285065292377 61.071538018821855 L 621.2163718205411 60.2753543587173 L 621.0772477274513 59.4423569510202 L 621.0159154393168 58.579375468419144 L 621.036507226639 57.693790341702325 L 621.1424470953694 56.793470405689256 L 621.3363974767022 55.88670442029542 L 621.6202125654811 54.982127053289176 L 621.9948988632592 54.088639971276734 L 622.4605834191932 53.215328739874955 L 623.0164901938884 52.371376282355364 L 623.6609248986044 51.565973687775895 L 624.3912685855385 50.80822919432134 L 625.2039801848841 50.10707620087642 L 626.0946081017407 49.47118117944535 L 627.0578109014597 48.90885237266822 L 628.0873870264115 48.42795016419496 L 629.1763134012336 48.03580000496382 L 630.3167926981401 47.739108765468174 L 631.5003089496469 47.54388536293144 L 632.7176911138479 47.45536648306982 L 633.9591841179595 47.47794817900309 L 635.2145268299635 47.615124085145105 L 636.4730363365504 47.869430931907964 L 637.7236978388922 48.242401988196214 L 638.9552594166865 48.734528993421776 L 640.1563308560446 49.345233069671366 L 641.3154856886658 50.072845028296186 L 642.4213655488761 50.91459540421077 L 643.4627859219271 51.86661446627245 L 644.4288423318284 52.9239423639946 L 645.3090160002288 54.080549480288084 L 646.0932779996922 55.329366967718656 L 646.7721909252891 56.662327352724745 L 647.3370071178302 58.070414999187214 L 647.7797624902896 59.543726130513114 L 648.093365035945 61.07153801882185 L 648.271677132322 62.64238686173085 L 648.3095907989554 64.24415378243559 L 648.2030951189543 65.86415830805784 L 647.9493350939924 67.48925860534897 L 647.5466612691972 69.10595768250991 L 646.9946695379535 70.70051470179949 L 646.2942306162812 72.2590604903819 L 645.4475087615601 73.7677162870857 L 644.4579694002446 75.21271472092626 L 643.3303754231106 76.58052198382734 L 642.0707720037033 77.85796013534983 L 640.686459895193 79.03232846169776 L 639.1859572619517 80.09152280505373 L 637.5789502039471 81.02415178254944 L 635.8762322336539 81.81964882696627 L 634.0896330656808 82.46837900357505 L 632.2319371778511 82.96173958926269 L 630.3167926981401 83.29225344107797 L 628.358611263829 83.45365423129508 L 626.3724595866204 83.4409626847002 L 624.3739435394875 83.25055302063141 L 622.3790856569093 82.8802088768497 L 620.4041970091744 82.32916807402219 L 618.4657444729369 81.5981556678229 L 616.5802144735665 80.68940482970396 L 614.7639743195169 79.60666519651136 L 613.033132284457 78.35519843250503 L 611.4033976188651 76.9417608541517 L 609.8899416888712 75.37457307739865 L 608.5072614460765 73.66327675810032 L 607.269046427765 71.81887860791107 L 606.188050472237 69.85368197933263 L 605.2759693090003 67.78120642375224 L 604.5433251483238 65.61609573426857 L 603.9993593494079 63.37401508993503 L 603.6519341914328 61.07153801882186 L 603.5074447073755 58.726023993108456 L 603.5707414671987 56.35548755939603 L 603.8450651153352 53.97845999075256 L 604.3319933779368 51.6138445228872 L 605.0314011587966 49.280766304578364 L 605.9414342399515 46.998418251392955 L 607.058496994517 44.78590404123449 L 608.3772544061811 42.66207952983929 L 609.8906485728783 40.6453938935599 L 611.589929752451 38.75373182527738 L 613.4647018865496 37.0042581168119 L 615.5029824166361 35.413265957570566 L 617.6912760837732 33.99603026430353 L 620.0146622829255 32.766667330743175 L 622.4568954237931 31.738002048686635 L 625.0005176347873 30.921443903942343 L 627.6269830356248 30.326872891798196 L 630.3167926981401 29.962536427663277 L 633.0496393152557 29.834958249765812 L 635.8045605054721 29.948860222817196 L 638.5600995956261 30.307097855021496 L 641.2944726487785 30.910610236442928 L 643.9857404376613 31.75838499533506 L 646.6119840077946 32.847438751445424 L 649.1514824287412 34.17281342245776 L 651.5828912974821 35.72758861259336 L 653.8854205349809 37.50291018198115 L 656.0390100059541 39.48803496277331 L 658.0245014928911 41.67039145421769 L 659.8238055685791 44.03565619509216 L 661.4200619368017 46.567845379177186 L 662.7977918483944 49.249421148903444 L 663.9430412492708 52.061411875058184 L 664.8435133780828 54.98354560756304 L 665.4886896034552 57.994395764904304 L 665.86993737375 61.07153801882184 L 665.9806042454876 64.19171722733968 L 665.816097059208 67.33102317405982 L 665.3739454429359 70.46507378572437 L 664.6538489426946 73.56920442416407 L 663.6577072057702 76.61866178362085 L 662.3896327747043 79.58880087070193 L 660.8559461872453 82.45528350243657 L 659.0651532186381 85.19427672852319 L 657.0279042465596 87.7826495672413 L 654.756935864548 90.19816644090533 L 652.266995015758 92.41967570631387 L 649.5747460640955 94.4272916984485 L 646.6986613630626 96.20256874162662 L 643.6588960227623 97.72866563125162 L 640.4771477113205 98.99049915094785 L 637.176502457305 99.97488526382767 L 633.78126754346 100.67066670242833 L 630.3167926981403 101.06882577888288 L 626.8092808982201 101.1625813444607 L 623.2855901949962 100.94746894495283 L 619.7730280618209 100.421403344613 L 616.2991398380941 99.58472272555187 L 612.8914929080635 98.4402140105951 L 609.5774583040344 96.99311890457363 L 606.3839914615118 95.25112040066801 L 603.3374138780795 93.22430965358936 L 600.463197438142 90.92513327882008 L 597.7857531617872 88.3683212955892 L 595.3282261179071 85.57079608945334 L 593.1122982093258 82.55156292700278 L 591.1580004911922 79.33158270902206" fill="none" stroke="#7b2cbf" stroke-width="1" opacity="0.3" class="drift" />
<circle cx="467.86530364950227" cy="58.94485989852751" r="1.746305413403364" fill="white" opacity="0.6842809695737344" class="shimmer" style="animation-delay: 4.595184873894338s" />
<circle cx="643.6484226749726" cy="27.1283868732346" r="1.6683175248312614" fill="white" opacity="0.7299929632025748" class="shimmer" style="animation-delay: 1.9564470304614057s" />
<circle cx="796.4895512496913" cy="58.37053810153145" r="1.5998101345474791" fill="white" opacity="0.5830828418295049" class="shimmer" style="animation-delay: 4.198627823464517s" />
<circle cx="400.18079505329285" cy="84.25324532972738" r="0.8909884086501803" fill="white" opacity="0.7283485726514547"  style="animation-delay: 2.5310064991860024s" />
<circle cx="467.3473176718479" cy="22.285867539845803" r="1.5995342489384052" fill="white" opacity="0.6937552861002416"  style="animation-delay: 0.7991861904267106s" />
<circle cx="481.80117434246415" cy="27.683772301320573" r="0.7111416365668743" fill="white" opacity="0.30858471589118036"  style="animation-delay: 3.2465923666202534s" />
<circle cx="508.00981551428777" cy="109.62115609772405" r="1.087181382088965" fill="white" opacity="0.5932482642853307"  style="animation-delay: 2.0331337782434646s" />
<circle cx="232.71395724077843" cy="65.05299668492093" r="1.2088469353909064" fill="white" opacity="0.48140041697484454" class="shimmer" style="animation-delay: 2.1037655537368694s" />
<circle cx="97.89268077256423" cy="27.556999738222522" r="1.4277754963300322" fill="white" opacity="0.4869061647753325" class="shimmer" style="animation-delay: 2.723758248638691s" />
<circle cx="367.52794676214864" cy="56.7242652674318" r="1.082283860802261" fill="white" opacity="0.48863415430422236" class="shimmer" style="animation-delay: 1.725024451946443s" />
<circle cx="799.873521625918" cy="18.740622732412593" r="0.785910042533864" fill="white" opacity="0.7127727626565861"  style="animation-delay: 4.417507719889633s" />
<circle cx="27.126238433887195" cy="86.38757505106014" r="1.3514965712795426" fill="white" opacity="0.598422564078851" class="shimmer" style="animation-delay: 4.159835923226991s" />
<circle cx="94.83445376669124" cy="172.17233392950808" r="1.8110900730709956" fill="white" opacity="0.5449880572845416"  style="animation-delay: 3.314865817157784s" />
<circle cx="672.3933234775624" cy="73.10443250464513" r="1.4770719123553488" fill="white" opacity="0.751782982923209" class="shimmer" style="animation-delay: 1.2309939630839828s" />
<circle cx="768.6599901618551" cy="128.376351173386" r="1.2694275660745031" fill="white" opacity="0.47291517778732034"  style="animation-delay: 4.9748052387574s" />
<circle cx="265.48671230181196" cy="49.52949482427806" r="0.6830932120889899" fill="white" opacity="0.5630062797632673" class="shimmer" style="animation-delay: 1.4095356994765196s" />
<circle cx="731.3813345644558" cy="28.525365016938853" r="1.2352132862007617" fill="white" opacity="0.34509167683726655"  style="animation-delay: 2.7158434575780177s" />
<circle cx="536.2592903915905" cy="9.985141112963625" r="0.5335264747695893" fill="white" opacity="0.46450370483056475"  style="animation-delay: 0.15834286331376846s" />
<circle cx="221.95693073464452" cy="123.05028015867157" r="1.4466174508241707" fill="white" opacity="0.684710300674733"  style="animation-delay: 1.7597956682086302s" />
<circle cx="31.35381523979799" cy="143.57261432616113" r="1.1140033898606365" fill="white" opacity="0.7887341610842151" class="shimmer" style="animation-delay: 2.2330757052011063s" />
<circle cx="281.7835637454781" cy="191.56553422028324" r="1.6227972026683397" fill="white" opacity="0.32768642446440993"  style="animation-delay: 1.6309851116974294s" />
<circle cx="277.0071048421247" cy="54.51508303023749" r="0.6400783731696307" fill="white" opacity="0.43634849184897134"  style="animation-delay: 4.661569521099499s" />
<circle cx="96.52440156854176" cy="84.42188764474521" r="1.6041845930413028" fill="white" opacity="0.316768798437935"  style="animation-delay: 3.283759850750384s" />
<circle cx="782.0207933116473" cy="60.665443513860936" r="1.2178853394796803" fill="white" opacity="0.4773533845288139"  style="animation-delay: 3.880539364846851s" />
<circle cx="385.97201402815637" cy="39.59113503832042" r="0.9521505264703078" fill="white" opacity="0.34661280887073137"  style="animation-delay: 0.5758312204652671s" />
<circle cx="144.3086760292074" cy="14.301446182107247" r="1.0292408584103854" fill="white" opacity="0.4408420932718294"  style="animation-delay: 0.0839051012880887s" />
<circle cx="330.37892801105977" cy="63.64346114201012" r="0.9604897729688843" fill="white" opacity="0.369759005260163"  style="animation-delay: 1.671610468044351s" />
<circle cx="288.73502398531275" cy="90.28271385354812" r="1.5382279671162824" fill="white" opacity="0.49892317384037305" class="shimmer" style="animation-delay: 0.6468150721299026s" />
<circle cx="362.530249646745" cy="31.64583422405256" r="1.0171266827450953" fill="white" opacity="0.4392128205492714"  style="animation-delay: 0.6176947256679011s" />
<circle cx="503.32803501272014" cy="114.12814079276825" r="1.4757832737313357" fill="white" opacity="0.7602529764427703" class="shimmer" style="animation-delay: 0.319715848631682s" />
<circle cx="599.2548243060475" cy="23.073642149737328" r="1.3033979820707584" fill="white" opacity="0.6976402718901307" class="shimmer" style="animation-delay: 4.3204718443907s" />
<circle cx="601.5876614034618" cy="75.66834664186271" r="1.0512536752302912" fill="white" opacity="0.3253565808157241"  style="animation-delay: 2.9738307441728775s" />
<circle cx="325.31928890891794" cy="192.67444673727124" r="1.0395835208998432" fill="white" opacity="0.6912847330228928" class="shimmer" style="animation-delay: 4.069017748133855s" />
<circle cx="657.560519280757" cy="75.4746528945355" r="1.3389901950154157" fill="white" opacity="0.4704661110873632"  style="animation-delay: 0.056561999731151724s" />
<circle cx="379.44337606623753" cy="122.55537280273478" r="1.6459530858318394" fill="white" opacity="0.6523555994549886"  style="animation-delay: 1.5674463378231185s" />
<circle cx="365.8948485525343" cy="196.2993590239464" r="1.1880933609052398" fill="white" opacity="0.7919489705086518"  style="animation-delay: 2.180480494701312s" />
<circle cx="704.1784722667494" cy="1.0887994959187353" r="1.9180129297540183" fill="white" opacity="0.57675987016366"  style="animation-delay: 0.8272652500480204s" />
<circle cx="376.56925894630115" cy="145.35155080641084" r="1.5362044775365207" fill="white" opacity="0.7790488364414931"  style="animation-delay: 0.779409619392788s" />
<circle cx="364.9413728702099" cy="160.9505799731768" r="0.6849995814150106" fill="white" opacity="0.3725189293832399"  style="animation-delay: 4.504345820816894s" />
<circle cx="640.3122005408366" cy="160.93237172152658" r="1.0430613814711174" fill="white" opacity="0.4590862096259572" class="shimmer" style="animation-delay: 4.061217384506113s" />
<circle cx="611.9530071736385" cy="172.6720051116664" r="2.9473187696118477" fill="#9d4edd" opacity="0.8" filter="url(#glow)" class="shimmer" style="animation-delay: 2.2065713966339846s" />
<circle cx="650.7242186764804" cy="161.70186927100855" r="1.0376185745744961" fill="#c77dff" opacity="0.8" filter="url(#glow)" class="shimmer" style="animation-delay: 2.6696481688028006s" />
<circle cx="285.47335105648716" cy="54.11031225962844" r="1.4081135188688538" fill="#9d4edd" opacity="0.8" filter="url(#glow)" class="shimmer" style="animation-delay: 0.0751310723154277s" />
<circle cx="778.737971705029" cy="93.92377206967666" r="1.80125520333605" fill="#4a0080" opacity="0.8" filter="url(#glow)" class="shimmer" style="animation-delay: 2.564993153625001s" />
<circle cx="17.82978216290605" cy="45.653912911820704" r="1.9421477981488948" fill="#9d4edd" opacity="0.8" filter="url(#glow)" class="shimmer" style="animation-delay: 1.580780117449663s" />
<circle cx="641.0607463971324" cy="126.72393116657959" r="1.512158437257432" fill="#c77dff" opacity="0.8" filter="url(#glow)" class="shimmer" style="animation-delay: 0.4372744019988517s" />
<circle cx="588.2751602244475" cy="92.17636404353402" r="2.306511505479558" fill="#e0aaff" opacity="0.8" filter="url(#glow)" class="shimmer" style="animation-delay: 1.6366638425994093s" />
<circle cx="330.75170664993027" cy="10.733412184059965" r="1.945589569757769" fill="#c77dff" opacity="0.8" filter="url(#glow)" class="shimmer" style="animation-delay: 2.3508307365832097s" />
<line x1="538.8220110742611" y1="131.75539555186495" x2="690.0897407590722" y2="159.51036969104408" stroke="#e0aaff" stroke-width="0.5" opacity="0.3" />
<line x1="690.0897407590722" y1="159.51036969104408" x2="355.81527796994857" y2="53.83885767300933" stroke="#e0aaff" stroke-width="0.5" opacity="0.3" />
<line x1="355.81527796994857" y1="53.83885767300933" x2="359.61891963943646" y2="104.16424524364864" stroke="#e0aaff" stroke-width="0.5" opacity="0.3" />
<line x1="359.61891963943646" y1="104.16424524364864" x2="450.4425258291781" y2="55.77894832563696" stroke="#e0aaff" stroke-width="0.5" opacity="0.3" />
<line x1="450.4425258291781" y1="55.77894832563696" x2="353.042886059562" y2="46.77347089619256" stroke="#e0aaff" stroke-width="0.5" opacity="0.3" />

  
    <text x="400" y="120" text-anchor="middle" class="name-text" fill="url(#textGrad)" filter="url(#textGlow)">
      JOEL HOOKS
    </text>
  
</svg>
