<svg xmlns="http://www.w3.org/2000/svg" viewBox="0 0 800 200" width="800" height="200">
  <rect width="800" height="200" fill="#1a0a0a"/>
  
    <defs>
      <linearGradient id="grad1" x1="0%" y1="0%" x2="100%" y2="100%">
        <stop offset="0%" style="stop-color:#ff4500;stop-opacity:0.8" />
        <stop offset="100%" style="stop-color:#ff6b35;stop-opacity:0.8" />
      </linearGradient>
      <linearGradient id="grad2" x1="100%" y1="0%" x2="0%" y2="100%">
        <stop offset="0%" style="stop-color:#f7c59f;stop-opacity:0.7" />
        <stop offset="100%" style="stop-color:#efa48b;stop-opacity:0.7" />
      </linearGradient>
      <linearGradient id="textGrad" x1="0%" y1="0%" x2="100%" y2="0%">
        <stop offset="0%" style="stop-color:#ff4500" />
        <stop offset="25%" style="stop-color:#ff6b35" />
        <stop offset="50%" style="stop-color:#f7c59f" />
        <stop offset="75%" style="stop-color:#efa48b" />
        <stop offset="100%" style="stop-color:#d4a5a5" />
      </linearGradient>
      <filter id="glow">
        <feGaussianBlur stdDeviation="3" result="coloredBlur"/>
        <feMerge>
          <feMergeNode in="coloredBlur"/>
          <feMergeNode in="SourceGraphic"/>
        </feMerge>
      </filter>
      <filter id="textGlow">
        <feGaussianBlur stdDeviation="2" result="coloredBlur"/>
        <feMerge>
          <feMergeNode in="coloredBlur"/>
          <feMergeNode in="SourceGraphic"/>
        </feMerge>
      </filter>
    </defs>
  
  
    <style>
      @keyframes float {
        0%, 100% { transform: translateY(0px); }
        50% { transform: translateY(-8px); }
      }
      @keyframes pulse {
        0%, 100% { opacity: 0.4; }
        50% { opacity: 0.9; }
      }
      @keyframes drift {
        0% { transform: translateX(0px); }
        50% { transform: translateX(10px); }
        100% { transform: translateX(0px); }
      }
      @keyframes shimmer {
        0% { opacity: 0.3; }
        50% { opacity: 1; }
        100% { opacity: 0.3; }
      }
      @keyframes glitch {
        0%, 100% { transform: translateX(0); }
        20% { transform: translateX(-2px); }
        40% { transform: translateX(2px); }
        60% { transform: translateX(-1px); }
        80% { transform: translateX(1px); }
      }
      @keyframes dataStream {
        0% { stroke-dashoffset: 0; }
        100% { stroke-dashoffset: -20; }
      }
      .float { animation: float 8s ease-in-out infinite; }
      .pulse { animation: pulse 8s ease-in-out infinite; }
      .drift { animation: drift 8s ease-in-out infinite; }
      .shimmer { animation: shimmer 3s ease-in-out infinite; }
      .glitch { animation: glitch 0.5s ease-in-out infinite; }
      .dataStream { animation: dataStream 2s linear infinite; }
      .name-text { 
        font-family: -apple-system, BlinkMacSystemFont, 'Segoe UI', Helvetica, Arial, sans-serif;
        font-weight: 700;
        font-size: 64px;
        letter-spacing: -2px;
      }
    </style>
  
  <rect x="0" y="160" width="800" height="50" fill="#ff4500" opacity="0.3" />
<rect x="0" y="170" width="800" height="40" fill="#ff6b35" opacity="0.25" />
<rect x="0" y="180" width="800" height="30" fill="#f7c59f" opacity="0.19999999999999998" />
<rect x="0" y="190" width="800" height="20" fill="#efa48b" opacity="0.14999999999999997" />
<rect x="0" y="200" width="800" height="10" fill="#d4a5a5" opacity="0.09999999999999998" />
<line x1="445.9742490382803" y1="170" x2="445.9742490382803" y2="280.5053745912118" stroke="#ff4500" stroke-width="1.3869719457567289" opacity="0.12813900654326008" class="pulse" />
<line x1="445.9742490382803" y1="170" x2="470.68459267876403" y2="262.2202579387719" stroke="#ff4500" stroke-width="1.32999639835689" opacity="0.10932724712026434" class="pulse" />
<line x1="445.9742490382803" y1="170" x2="495.19633671962214" y2="255.2551567186943" stroke="#ff4500" stroke-width="1.4989811101589265" opacity="0.25234567520017925" class="pulse" />
<line x1="445.9742490382803" y1="170" x2="524.0034694585046" y2="248.02922042022425" stroke="#ff4500" stroke-width="2.251197589420551" opacity="0.16817530632049976" class="pulse" />
<line x1="445.9742490382803" y1="170" x2="534.6103805989619" y2="221.1740944164866" stroke="#ff4500" stroke-width="1.3314075885109458" opacity="0.20735692854290316" class="pulse" />
<line x1="445.9742490382803" y1="170" x2="534.3826426749345" y2="193.68895767907432" stroke="#ff4500" stroke-width="2.0627019808324722" opacity="0.15884723453700875" class="pulse" />
<line x1="445.9742490382803" y1="170" x2="595.7439636965873" y2="170" stroke="#ff4500" stroke-width="2.9863436913426713" opacity="0.15787137257709521" class="pulse" />
<line x1="445.9742490382803" y1="170" x2="582.0756197449418" y2="133.53174763038118" stroke="#ff4500" stroke-width="1.3499261665994498" opacity="0.24982348212164712" class="pulse" />
<line x1="445.9742490382803" y1="170" x2="567.8741533291379" y2="99.62105744348374" stroke="#ff4500" stroke-width="2.2729522614000257" opacity="0.13136583165272664" class="pulse" />
<line x1="445.9742490382803" y1="170" x2="521.0774133988173" y2="94.89683563946302" stroke="#ff4500" stroke-width="1.8223419475656444" opacity="0.20492109514972245" class="pulse" />
<line x1="445.9742490382803" y1="170" x2="514.5344748515681" y2="51.250205512990206" stroke="#ff4500" stroke-width="2.7700726280193217" opacity="0.20092233897678885" class="pulse" />
<line x1="445.9742490382803" y1="170" x2="470.4548318775943" y2="78.63722104478128" stroke="#ff4500" stroke-width="2.8485501640412463" opacity="0.1667211186772048" class="pulse" />
<path d="M 526.9896291297482 64.37976204478286 C 526.7132389765663 72.4239165517264, 505.6950955173491 82.68495035226545, 496.7755301826123 87.68305510606781 C 487.85596484787544 92.68115985987018, 483.5999895532753 92.00840248941071, 473.47223712132734 94.36839056759705 C 463.3444846893794 96.72837864578338, 443.8520890156724 106.84108832898814, 436.00901559092443 101.84298357518577 C 428.1659421661765 96.8448788213834, 425.48577563838927 75.93948162046699, 426.41379657283943 64.37976204478286 C 427.3418175072896 52.82004246909873, 433.73406777287744 41.333674916720305, 441.57714119762545 32.484666121080984 C 449.42021462237346 23.635657325441663, 463.9961154706476 10.130132280392678, 473.47223712132734 11.285709270946946 C 482.94835877200705 12.441286261501213, 489.5143057669668 30.569119268767267, 498.43387110170363 39.41812806440659 C 507.35343643644046 48.26713686004591, 527.2660192829301 56.33560753783933, 526.9896291297482 64.37976204478286 Z" fill="#f7c59f" opacity="0.14915297635404848" class="drift" />
<path d="M 457.93652117414365 54.885334576296415 C 457.87707863106516 70.86153906071934, 458.40445504534074 96.01212980797528, 448.9479846547735 102.6356204003297 C 439.4915142642063 109.25911099268411, 413.68981873202813 98.0509201704794, 401.1976988307402 94.62627813042289 C 388.70557892945226 91.20163609036638, 383.9710958809209 88.71125875234509, 373.99526524704595 82.08776815999067 C 364.019434613171 75.46427756763626, 343.4014913130129 66.01158872305055, 341.3427150274902 54.88533457629642 C 339.2839387419675 43.75908042954229, 351.6667769000347 21.864896572131588, 361.64260753390965 15.330243279465869 C 371.61843816778463 8.795589986800149, 386.5873601008511 17.10272311791439, 401.1976988307402 15.677414820302111 C 415.8080375606293 14.25210652268983, 439.84816952267715 0.24374020112647, 449.3046399132444 6.778393493792187 C 458.7611103038116 13.313046786457903, 457.99596371722214 38.9091300918735, 457.93652117414365 54.885334576296415 Z" fill="#f7c59f" opacity="0.21899130770960984" class="drift" />
<path d="M 299.1026718353818 56.19593923900661 C 297.6950086973206 68.48400493989732, 284.0871893130991 83.0548716806418, 274.55585127094486 88.8371469274951 C 265.0245132287906 94.6194221743484, 254.17866919664834 89.50596766876397, 241.9146435824564 90.88959072012642 C 229.65061796826444 92.27321377148887, 207.5953336679652 102.92116048252312, 200.9716975857932 97.13888523566982 C 194.3480615036212 91.35660998881652, 199.69748546876372 67.36824628390033, 202.1728270894244 56.19593923900662 C 204.6481687100851 45.023632194112906, 209.2001112275853 39.94429778975494, 215.8237473097573 30.10504296630753 C 222.4473833919293 20.265788142860117, 230.71829645086393 -0.3402079943184071, 241.9146435824564 -2.839589701677859 C 253.11099071404885 -5.3389714090373115, 273.4704920571579 5.269497898703406, 283.00183009931214 15.108752722150818 C 292.5331681414664 24.94800754559823, 300.510334973443 43.9078735381159, 299.1026718353818 56.19593923900661 Z" fill="#f7c59f" opacity="0.2005776292343136" class="drift" />
<path d="M 139.10798436309295 25.29080875374463 C 139.0709302783413 32.903954795452115, 124.80344454100022 43.41598895207123, 117.39688140240817 48.019084624612134 C 109.99031826381612 52.62218029715304, 101.83306992045529 53.321010357031255, 94.66860553154066 52.909382788990044 C 87.50414114262604 52.49775522094883, 81.7980847728201 50.152414888905774, 74.41009506892043 45.54931921636487 C 67.02210536502075 40.94622354382397, 48.970658738994274 30.673637005469736, 50.340667308142585 25.29080875374464 C 51.710675877290896 19.90798050201954, 75.24215677991063 18.49539742908516, 82.63014648381031 13.252349706014282 C 90.01813618770998 8.009301982943406, 88.8370956270227 -4.348787362739444, 94.66860553154066 -6.1674775846806185 C 100.50011543605862 -7.9861678066217925, 110.212642772326 -2.9028393487036386, 117.61920591091805 2.3402083743672364 C 125.0257690495101 7.583256097438111, 139.1450384478446 17.677662712037147, 139.10798436309295 25.29080875374463 Z" fill="#f7c59f" opacity="0.23280612786989763" class="drift" />
<path d="M 590.5039684429665 82.21144405391826 L 600.0479464442142 77.43945505329441 L 609.5919244454618 82.21144405391826" fill="none" stroke="#d4a5a5" stroke-width="1.5" opacity="0.4" class="float" style="animation-delay: 2.524886912138076s" />
<path d="M 491.2460282027212 30.476063023827557 L 499.88695201720304 26.15560111658665 L 508.52787583168487 30.476063023827557" fill="none" stroke="#d4a5a5" stroke-width="1.5" opacity="0.4" class="float" style="animation-delay: 2.8392331932739534s" />
<path d="M 660.0123196691155 63.2753841888446 L 670.339347057943 58.11187049443086 L 680.6663744467704 63.2753841888446" fill="none" stroke="#d4a5a5" stroke-width="1.5" opacity="0.4" class="float" style="animation-delay: 0.3476280540741754s" />
<path d="M 262.2964922683095 69.34729622508912 L 272.4400506790839 64.27551701970191 L 282.5836090898583 69.34729622508912" fill="none" stroke="#d4a5a5" stroke-width="1.5" opacity="0.4" class="float" style="animation-delay: 0.5627568452087268s" />
<path d="M 725.6922966700981 34.135822318493055 L 731.9620753789317 31.000932964076263 L 738.2318540877652 34.135822318493055" fill="none" stroke="#d4a5a5" stroke-width="1.5" opacity="0.4" class="float" style="animation-delay: 0.6930195927677552s" />

  
    <text x="400" y="120" text-anchor="middle" class="name-text" fill="url(#textGrad)" filter="url(#textGlow)">
      JOEL HOOKS
    </text>
  
</svg>
