<svg xmlns="http://www.w3.org/2000/svg" viewBox="0 0 800 200" width="800" height="200">
  <rect width="800" height="200" fill="#05010d"/>
  
    <defs>
      <linearGradient id="grad1" x1="0%" y1="0%" x2="100%" y2="100%">
        <stop offset="0%" style="stop-color:#4a0080;stop-opacity:0.8" />
        <stop offset="100%" style="stop-color:#7b2cbf;stop-opacity:0.8" />
      </linearGradient>
      <linearGradient id="grad2" x1="100%" y1="0%" x2="0%" y2="100%">
        <stop offset="0%" style="stop-color:#9d4edd;stop-opacity:0.7" />
        <stop offset="100%" style="stop-color:#c77dff;stop-opacity:0.7" />
      </linearGradient>
      <linearGradient id="textGrad" x1="0%" y1="0%" x2="100%" y2="0%">
        <stop offset="0%" style="stop-color:#4a0080" />
        <stop offset="25%" style="stop-color:#7b2cbf" />
        <stop offset="50%" style="stop-color:#9d4edd" />
        <stop offset="75%" style="stop-color:#c77dff" />
        <stop offset="100%" style="stop-color:#e0aaff" />
      </linearGradient>
      <filter id="glow">
        <feGaussianBlur stdDeviation="5" result="coloredBlur"/>
        <feMerge>
          <feMergeNode in="coloredBlur"/>
          <feMergeNode in="SourceGraphic"/>
        </feMerge>
      </filter>
      <filter id="textGlow">
        <feGaussianBlur stdDeviation="2" result="coloredBlur"/>
        <feMerge>
          <feMergeNode in="coloredBlur"/>
          <feMergeNode in="SourceGraphic"/>
        </feMerge>
      </filter>
    </defs>
  
  
    <style>
      @keyframes float {
        0%, 100% { transform: translateY(0px); }
        50% { transform: translateY(-8px); }
      }
      @keyframes pulse {
        0%, 100% { opacity: 0.4; }
        50% { opacity: 0.9; }
      }
      @keyframes drift {
        0% { transform: translateX(0px); }
        50% { transform: translateX(10px); }
        100% { transform: translateX(0px); }
      }
      @keyframes shimmer {
        0% { opacity: 0.3; }
        50% { opacity: 1; }
        100% { opacity: 0.3; }
      }
      @keyframes glitch {
        0%, 100% { transform: translateX(0); }
        20% { transform: translateX(-2px); }
        40% { transform: translateX(2px); }
        60% { transform: translateX(-1px); }
        80% { transform: translateX(1px); }
      }
      @keyframes dataStream {
        0% { stroke-dashoffset: 0; }
        100% { stroke-dashoffset: -20; }
      }
      .float { animation: float 8s ease-in-out infinite; }
      .pulse { animation: pulse 8s ease-in-out infinite; }
      .drift { animation: drift 8s ease-in-out infinite; }
      .shimmer { animation: shimmer 3s ease-in-out infinite; }
      .glitch { animation: glitch 0.5s ease-in-out infinite; }
      .dataStream { animation: dataStream 2s linear infinite; }
      .name-text { 
        font-family: -apple-system, BlinkMacSystemFont, 'Segoe UI', Helvetica, Arial, sans-serif;
        font-weight: 700;
        font-size: 64px;
        letter-spacing: -2px;
      }
    </style>
  
  <path d="M 480.3874593722955 140.03012685904844 C 472.4081849753875 158.51370942190604, 412.64976559503503 157.60652290822446, 396.6117133466668 178.08902797168724 C 380.5736610982986 198.57153303515003, 396.7639904190792 257.3446002821218, 384.1591458820863 262.9251572398252 C 371.5543013450934 268.50571419752856, 338.2479559703957 224.3461564637502, 320.9826461247093 211.5723697179074 C 303.71733627902285 198.79858297206462, 293.4501139684396 198.20614390791164, 280.5672868079677 186.28243676476848 C 267.6844596474958 174.35872962162532, 246.28234785121288 157.33415082206, 243.68568316187807 140.03012685904844 C 241.08901847254327 122.72610289603688, 252.5046711126392 95.61368785389213, 264.98729867195897 82.45829298669912 C 277.46992623127875 69.30289811950611, 302.2389873635417 61.1530086831096, 318.5814485177968 61.09775765589036 C 334.9239096720519 61.04250662867113, 342.0577470624363 81.11182433360851, 363.04206559748934 82.12678682338371 C 384.0263841325424 83.14174931315891, 424.92979409898055 57.53697592193079, 444.48735972811494 67.18753259454158 C 464.0449253572493 76.83808926715237, 488.3667337692035 121.54654429619083, 480.3874593722955 140.03012685904844 Z" fill="#4a0080" opacity="0.13862696615178927" filter="url(#glow)" class="float" />
<path d="M 225.27307551284952 176.93196584883907 C 219.6206954004637 190.4703338332052, 180.0434416735608 196.15807333505194, 167.49873754817588 206.64937742287933 C 154.95403342279096 217.1406815107067, 159.39153329343722 233.14931054864022, 150.00485076054002 239.8797903758034 C 140.61816822764283 246.61027020296657, 125.43568761252872 246.59941351471645, 111.17864235079273 247.03225638585837 C 96.92159708905673 247.4650992570003, 80.16898783834566 249.05517298527303, 64.46257919012406 242.47684760265497 C 48.756170541902456 235.8985222200369, 12.214926411942425 219.87840598852762, 16.940190461463104 207.56230409015006 C 21.665454510983782 195.2462021917725, 79.36375084415376 178.22746257748472, 92.81416348724812 168.5802362123896 C 106.26457613034249 158.93300984729447, 93.62607690127335 153.32233903239762, 97.64266632002928 149.67894589957936 C 101.6592557387852 146.0355527667611, 110.33394029358749 147.96714380359242, 116.9136999997837 146.71987741548008 C 123.49345970597992 145.47261102736775, 123.03800485342202 145.74546555403833, 137.12122455720655 142.19534757090543 C 151.20444426099107 138.64522958777252, 186.72104306321697 119.62973313702695, 201.4130182224908 125.41916951668256 C 216.10499338176461 131.20860589633816, 230.92545562523534 163.39359786447295, 225.27307551284952 176.93196584883907 Z" fill="#7b2cbf" opacity="0.18755112925766004" filter="url(#glow)" class="float" />
<path d="M 703.3713357951607 198.19170679864206 C 703.0484308571695 212.71976667231627, 679.0116879737624 224.18481767344423, 665.6166654480729 240.80717160569117 C 652.2216429223835 257.4295255379381, 634.3658790649882 300.7663069038424, 623.0012006410238 297.92583039212377 C 611.6365222170595 295.08535388040514, 612.6225073344581 240.38666646762624, 597.4285949042867 223.76431253537928 C 582.2346824741153 207.1419586031323, 532.2831127171792 207.16129536807108, 531.8377260599958 198.19170679864206 C 531.3923394028125 189.22211822921304, 579.5623625310154 175.56177299935626, 594.7562749611868 169.9467811188051 C 609.9501873913582 164.33178923825392, 610.868230621885 167.21975030786163, 623.0012006410238 164.50175551533508 C 635.1341706601627 161.78376072280852, 654.1590725503306 148.02382048309465, 667.5540950760201 153.63881236364583 C 680.9491176017095 159.253804244197, 703.6942407331519 183.66364692496785, 703.3713357951607 198.19170679864206 Z" fill="#c77dff" opacity="0.11201620598633417" filter="url(#glow)" class="float" />
<path d="M 250.0385023441051 93.46707720655223 C 257.1109583610012 102.90304145365432, 250.59316760737846 127.75113747507278, 241.8485596126476 135.41054443225403 C 233.10395161791672 143.06995138943526, 209.18149105158176 141.31537737105413, 197.57085437571985 139.42351894963969 C 185.96021769985794 137.53166052822525, 183.63074281925114 122.54623990842417, 172.1847395574761 124.0593939037674 C 160.73873629570105 125.57254789911063, 141.279520492764 149.7494373150063, 128.89483480506954 148.50244292169904 C 116.51014911737508 147.25544852839178, 105.17554934869723 130.22690964548926, 97.87662543130931 116.57742754392382 C 90.57770151392138 102.92794544235838, 78.34282845653051 77.79630806028503, 85.101291300742 66.60555031230638 C 91.8597541449535 55.41479256432772, 125.13476320371257 58.54879008765609, 138.42740249657828 49.43288105605189 C 151.720041789444 40.31697202444769, 156.87210661599755 8.130877065820808, 164.8571270579363 11.910096122681182 C 172.84214749987507 15.689315179541556, 180.57807573932183 60.960751592720754, 186.33752514821091 72.10819539721413 C 192.0969745571 83.25563920170751, 188.79699397862183 75.23494531475178, 199.41382351127086 78.79475894964146 C 210.0306530439199 82.35457258453114, 242.96604632720897 84.03111295945014, 250.0385023441051 93.46707720655223 Z" fill="#4a0080" opacity="0.18616171602883227" filter="url(#glow)" class="float" />
<path d="M 260.4975230195108 59.724459777375905 L 260.4975230195108 59.724459777375905 L 261.1601609925333 59.782433088037166 L 261.8076504765688 59.955470596222206 L 262.4250351800803 60.24093510420166 L 262.9977411583726 60.63446475909404 L 263.5117628869123 61.13002291106133 L 263.9538432704553 61.71996720466426 L 264.3116456592441 62.395137201373466 L 264.5739160218492 63.14495964217168 L 264.73063352074195 63.95757027860705 L 264.77314785050555 64.81995103029887 L 264.6943018286498 65.71808106838535 L 264.4885378740875 66.63710027926487 L 264.15198716709295 67.56148343261982 L 263.6825404555243 68.47522326339214 L 263.07989965363964 69.36202058022327 L 262.3456095702812 70.20547943383997 L 261.4830693007523 70.98930531875757 L 260.4975230195108 71.69750434110601 L 259.39603011694686 72.31458126480248 L 258.1874148310478 72.82573434795599 L 256.8821957317305 73.21704490136221 L 255.4924956200611 73.4756595411157 L 254.03193260455785 73.58996316742284 L 252.5154933103574 73.54974078115383 L 250.9593893623767 73.3463263478519 L 249.38089845892455 72.97273703497561 L 247.7981915158174 72.42379128106933 L 246.23014751132652 71.69620930416112 L 244.69615779775867 70.78869481965151 L 243.21592176478842 69.70199691381765 L 241.8092358416215 68.43895120622557 L 240.4957779086166 67.00449963112095 L 239.29488925324662 65.40568837245925 L 238.22535624952468 63.651643697762964 L 237.30519396372503 61.75352565052007 L 236.55143389205062 59.724459777375905 L 235.97991801768012 57.579447282909236 L 235.60510133540868 55.335254219296246 L 235.43986493210767 53.010280528641054 L 235.49534163089302 50.6244099601946 L 235.78075610681847 48.19884208115539 L 236.30328126289947 45.75590778635745 L 237.0679125182921 43.3188698871052 L 238.0773615066498 40.911710520999165 L 239.33197051335512 38.55890727122019 L 240.82964879693512 36.28520001393028 L 242.56583174409863 34.115350624881046 L 244.533463601204 32.07389776982007 L 246.7230043093936 30.18490907684116 L 249.12246074803417 28.47173304160365 L 251.71744246347293 26.956753047694868 L 254.4912417295071 25.66114589386769 L 257.42493755446395 24.604647207185977 L 260.4975230195108 23.8053260861856 L 263.6860551058802 23.27937126114108 L 266.9658259472071 23.040890979751666 L 270.31055422920025 23.101728726555926 L 273.6925952544237 23.471296763880083 L 277.0831679969989 24.156429342038138 L 280.45259729239433 25.161257267931106 L 283.77056914291813 26.487105345414484 L 287.00639697167804 28.132414009253527 L 290.1292965281288 30.09268626875791 L 293.1086670382178 32.36046085900972 L 295.9143761027484 34.92531226882714 L 298.5170457799001 37.77387807720403 L 300.88833724269097 40.889913785991126 L 303.0012313801611 44.25437508816769 L 304.83030271260867 47.84552726038346 L 306.3519840165411 51.63908111775544 L 307.5448191041049 55.60835472042633 L 308.3897012744312 59.72445977737589 L 308.87009505014976 63.95651145564803 L 308.9722389306571 68.2718600746889 L 308.6853270337476 72.63634294801984 L 308.00166765788464 77.01455443002041 L 306.916816977494 81.37013203613154 L 305.4296862817891 85.66605633212441 L 303.542621382215 89.86496213391978 L 301.2614530428945 93.92945842533362 L 298.59551753059117 97.82245428845614 L 295.5576466336675 101.50748805134418 L 292.1641267611962 104.94905679135618 L 288.4346270015477 108.11294329059864 L 284.39209629216316 110.9665375232015 L 280.0626301264507 113.47914976290417 L 275.47530749745783 115.62231243389061 L 270.66199904874793 117.37006788792827 L 265.65714766836317 118.69923937637407 L 260.4975230195108 119.58968259602642 L 255.22195174933606 120.02451532241898 L 249.87102535258117 119.99032280204429 L 244.48678788791233 119.47733675502957 L 239.1124059491348 118.47958604062777 L 233.7918234794877 116.99501725800454 L 228.56940418289727 115.02558379248762 L 223.48956442983044 112.57730207082278 L 218.59639967576268 109.660274056021 L 213.93330750596823 106.28867529091843 L 209.54261049028125 102.48070808732314 L 205.46518207478786 98.25851975219788 L 201.74007875345464 93.64808604127785 L 198.4041817510398 88.67906033129574 L 195.49185140910453 83.3845893020473 L 193.0345973995793 77.80109621627746 L 191.0607677954364 71.9680331762297 L 189.59525990610854 65.9276040181309 L 188.65925563713023 59.724459777375934 L 188.2699839600636 53.40536891529843 L 188.44051288132036 47.01886474082957 L 189.17957307844034 40.61487268482276 L 190.49141513138096 34.2443202892683 L 192.37570201623674 27.958732956085253 L 194.82743825156575 21.8098186588972 L 197.8369367953212 15.849044954558948 L 201.3898244856044 10.127211737837285 L 205.467086503506 4.694023261371029 L 210.0451500137732 -0.40233700711507936" fill="none" stroke="#9d4edd" stroke-width="1" opacity="0.3" class="drift" />
<path d="M 460.97319158613675 146.0146895387063 L 460.97319158613675 146.0146895387063 L 461.3669523105624 146.04913913823532 L 461.7517113172474 146.151963572315 L 462.11858109833634 146.32159573351927 L 462.4589013487239 146.55544366904672 L 462.76434953678523 146.8499202080589 L 463.0270478715701 147.20048401797808 L 463.2396655203416 147.60169167259235 L 463.3955149768762 148.0472602024679 L 463.4886415382967 148.53013949086622 L 463.51390491583874 149.04259377713063 L 463.46705208224336 149.5762914353139 L 463.3447805446803 150.12240210957307 L 463.14479132645346 150.6717002103923 L 462.86583104232824 151.21467370776128 L 462.50772256020156 151.7416370997043 L 462.07138385500633 152.24284738759115 L 461.5588347781298 152.70862185394262 L 460.97319158613675 153.12945641433691 L 460.31864919508575 153.49614330279397 L 459.60045125004973 153.7998868498124 L 458.824848222446 154.0324161241035 L 457.9990438692644 154.18609323293555 L 457.13113050711485 154.2540161116892 L 456.2300136690497 154.23011468043984 L 455.30532682225805 154.10923930372354 L 454.3673369289116 153.88724055860956 L 453.426841729657 153.56103939518604 L 452.4950597185486 153.12868686187187 L 451.58351385871674 152.58941266480562 L 450.70391015896985 151.94366193506514 L 449.8680122921163 151.19311968869235 L 449.0875134854397 150.3407225814297 L 448.3739069519412 149.39065768164886 L 447.7383561572564 148.3483481100542 L 447.1915662312384 147.22042552222135 L 446.74365783487553 146.0146895387063 L 446.40404478238713 144.74005435613327 L 446.1813166950352 143.40648290014101 L 446.08312792754197 142.02490900613785 L 446.1160939602654 140.60714823530208 L 446.2856963908194 139.1657980500151 L 446.59619758810305 137.71412818380392 L 447.05056599030706 136.26596214483493 L 447.6504129370697 134.8355508880176 L 448.39594182533716 133.43743977790672 L 449.2859102695076 132.08633004195437 L 450.3176058300448 130.79693598047388 L 451.4868357519626 129.58383925523924 L 452.7879310264814 128.46134162235145 L 454.21376495688145 127.44331750636715 L 455.75578627431645 126.54306783131314 L 457.40406671231057 125.77317652983051 L 459.1473628110997 125.14537114414601 L 460.97319158613675 124.67038891181447 L 462.8679195602318 124.35784969529468 L 464.8168645271803 124.21613706760928 L 466.804409287583 124.25228880691394 L 468.8141264760729 124.47189798119288 L 470.82891348449726 124.87902572105455 L 472.8311363788544 125.47612668437247 L 474.8027816100008 126.26398811206423 L 476.725614230289 127.24168326047543 L 478.58134125125616 128.4065398735869 L 480.35177871205246 129.75412422861362 L 482.0190209751816 131.27824115262166 L 483.565610725904 132.97095026671684 L 484.97470812482607 134.82259856938163 L 486.230257550118 136.82186932291913 L 487.3171503667275 138.95584705800823 L 488.221382175008 141.2100983624018 L 488.93020302035904 143.5687679721472 L 489.4322590886592 146.0146895387063 L 489.71772446921034 148.5295103043234 L 489.77842163722926 151.09382878222817 L 489.60792939112673 153.6873444090303 L 489.20167707529225 156.28901801517435 L 488.557024026123 158.87724184673615 L 487.6733232967707 161.43001776923927 L 486.5519688435912 163.92514219256304 L 485.1964254935314 166.34039617632214 L 483.61224115557604 168.65373910814552 L 481.807040889693 170.84350429378586 L 479.7905026022141 172.88859475856356 L 477.5743142959415 174.76867753477367 L 475.17211296513074 176.46437469973003 L 472.59940538845586 177.95744943432965 L 469.8734712357126 179.23098539249466 L 467.01324906491953 180.26955770757303 L 464.0392059442179 181.0593940125906 L 460.97319158613675 181.58852391685934 L 457.83827802899765 181.8469154614419 L 454.6585860401366 181.82659716979427 L 451.459099546935 181.52176441689386 L 448.26546952313686 180.92886895950394 L 445.1038088684376 180.04669060102697 L 442.0004799177885 178.87639010564044 L 438.9818763022874 177.42154262697323 L 436.07420095505734 175.6881510752648 L 433.3032421123777 173.68463901246537 L 430.6941492018934 171.42182283572618 L 428.2712105354671 168.91286318477634 L 426.05763473376925 166.17319568632635 L 424.07533780277856 163.2204413273696 L 422.3447377588713 160.0742969275573 L 420.8845586591508 156.7564063571599 L 419.71164583727455 153.2902133199674 L 418.8407940725905 149.70079668830945 L 418.2845903323531 146.01468953870634 L 418.05327262373913 142.2596831900452 L 418.15460637505333 138.46461769022787 L 418.5937796347516 134.65916033062675 L 419.37331823369703 130.8735738891745 L 420.49302190148165 127.13847641133786 L 421.9499221629025 123.48459443254268 L 423.73826266705737 119.94251162486428 L 425.8495024204144 116.54241491416336" fill="none" stroke="#7b2cbf" stroke-width="1" opacity="0.3" class="drift" />
<circle cx="184.05890349959364" cy="7.720717794293863" r="1.2116349859537774" fill="white" opacity="0.566103180657306"  style="animation-delay: 3.3616705963982696s" />
<circle cx="745.1347151098503" cy="88.17434783109128" r="0.5339502585591397" fill="white" opacity="0.7869734837190332"  style="animation-delay: 4.332803214296758s" />
<circle cx="416.3677818123148" cy="1.1291587347368015" r="1.3751130819424369" fill="white" opacity="0.32934691855299586"  style="animation-delay: 1.1830879716271692s" />
<circle cx="473.6835137013818" cy="144.26186267562667" r="0.8854873359497617" fill="white" opacity="0.7210712730996787"  style="animation-delay: 3.726220308432283s" />
<circle cx="546.4935093164794" cy="119.86967411576504" r="0.7602325872794319" fill="white" opacity="0.31255044552985606"  style="animation-delay: 0.9039721154202085s" />
<circle cx="154.23775668998675" cy="139.16606131907082" r="1.6860988054612465" fill="white" opacity="0.5626292507970774" class="shimmer" style="animation-delay: 2.5428711703876825s" />
<circle cx="187.73004722956372" cy="115.92703259141923" r="0.6831075636593267" fill="white" opacity="0.641327742472543" class="shimmer" style="animation-delay: 2.1137125425912737s" />
<circle cx="264.6464907883379" cy="154.0260789626059" r="1.625457820677715" fill="white" opacity="0.3201525814212474" class="shimmer" style="animation-delay: 3.8243938749031123s" />
<circle cx="651.7446611322201" cy="103.3365628699114" r="1.6282192908307398" fill="white" opacity="0.3219604271827901"  style="animation-delay: 0.022581195050602743s" />
<circle cx="236.55222666711654" cy="148.81544010070314" r="0.6107355182901112" fill="white" opacity="0.3120235884944295"  style="animation-delay: 3.0854707031065267s" />
<circle cx="106.22107764353146" cy="154.15621933860595" r="1.0683408707783455" fill="white" opacity="0.6140089017955974" class="shimmer" style="animation-delay: 1.1315068295231456s" />
<circle cx="347.6996386087521" cy="3.4976559543236974" r="1.713552887653246" fill="white" opacity="0.7470321054324218"  style="animation-delay: 1.7147628446345797s" />
<circle cx="751.066423763201" cy="67.4710498891212" r="1.0213672511336775" fill="white" opacity="0.34385064519327374" class="shimmer" style="animation-delay: 3.1496037699594814s" />
<circle cx="124.253327008622" cy="62.30294194521014" r="0.7032961175854954" fill="white" opacity="0.32387698330008846"  style="animation-delay: 0.6327016947071384s" />
<circle cx="688.1398142913426" cy="164.77754551257706" r="0.7200109069152847" fill="white" opacity="0.5511799171595912"  style="animation-delay: 0.9942863485114306s" />
<circle cx="390.5463988125035" cy="14.64200882911002" r="1.3053291266833376" fill="white" opacity="0.4722224345635058"  style="animation-delay: 3.32127027078796s" />
<circle cx="345.8959209015475" cy="58.1202401575692" r="1.6694207587564829" fill="white" opacity="0.7081925569922538"  style="animation-delay: 4.087663674995556s" />
<circle cx="445.44187159894955" cy="13.677985803731518" r="1.4585203355782972" fill="white" opacity="0.5237212411531251"  style="animation-delay: 4.358259985736474s" />
<circle cx="235.706796779856" cy="160.0904070436323" r="0.7066001254860241" fill="white" opacity="0.7954786298807235"  style="animation-delay: 0.6399369163201951s" />
<circle cx="149.85312917125012" cy="25.836519723150975" r="1.7485895501186388" fill="white" opacity="0.7220646750313426" class="shimmer" style="animation-delay: 3.278941253323059s" />
<circle cx="236.2328724490732" cy="48.45130019729815" r="0.5060838679199109" fill="white" opacity="0.5125005827787679"  style="animation-delay: 4.349876611569435s" />
<circle cx="495.4800773291078" cy="34.13594770627712" r="1.3297376432369719" fill="white" opacity="0.46790065376935835"  style="animation-delay: 0.08137166816319708s" />
<circle cx="786.1474671583361" cy="56.98696889839972" r="0.6355473354402166" fill="white" opacity="0.5513447143341044"  style="animation-delay: 0.8857415114252898s" />
<circle cx="35.698475883576464" cy="88.74684196689438" r="1.324818783105422" fill="white" opacity="0.3237637848390777"  style="animation-delay: 3.2230180861969817s" />
<circle cx="260.8229616085003" cy="171.99132836695776" r="1.0558221611781162" fill="white" opacity="0.7790098435734758"  style="animation-delay: 2.8567685559792686s" />
<circle cx="164.78064795681232" cy="60.514162066096766" r="0.9200616915461449" fill="white" opacity="0.7353323089486625" class="shimmer" style="animation-delay: 4.8850837733965236s" />
<circle cx="214.98788603054192" cy="40.56965235924039" r="0.5418441481945702" fill="white" opacity="0.6857394712190585"  style="animation-delay: 3.9468536539961665s" />
<circle cx="685.5675533561321" cy="132.4161700946818" r="1.2198927463701557" fill="white" opacity="0.3938777909693158"  style="animation-delay: 2.42134987184786s" />
<circle cx="195.66950405238117" cy="107.67945765415763" r="1.2891770949827748" fill="white" opacity="0.5547275697798795"  style="animation-delay: 1.437517839207304s" />
<circle cx="506.9829381276385" cy="153.48055808032086" r="1.9183343492530016" fill="white" opacity="0.7992547055987689"  style="animation-delay: 1.8464813484612264s" />
<circle cx="533.6063429090917" cy="16.464500096051758" r="0.5069709250150736" fill="white" opacity="0.6382630457081633"  style="animation-delay: 3.8207214614999243s" />
<circle cx="603.9737403095712" cy="129.1232980425499" r="0.5336455193446416" fill="white" opacity="0.617185232929357"  style="animation-delay: 2.6229802746358177s" />
<circle cx="211.50917094665812" cy="57.750762631846975" r="0.6516966360978111" fill="white" opacity="0.7084295237828786"  style="animation-delay: 3.0611007335381393s" />
<circle cx="660.8751888810432" cy="102.16373922510913" r="0.9862156533186274" fill="white" opacity="0.42700270415641534" class="shimmer" style="animation-delay: 3.329284909018387s" />
<circle cx="744.8515911261802" cy="17.089088441671983" r="1.6521289789656108" fill="white" opacity="0.33761977892658296" class="shimmer" style="animation-delay: 3.628109892155069s" />
<circle cx="592.0775502775639" cy="49.17848652928356" r="1.8872344675035388" fill="white" opacity="0.5657540232468734" class="shimmer" style="animation-delay: 3.5141694395666265s" />
<circle cx="39.25411382759307" cy="27.06314602657338" r="1.7207897294648584" fill="white" opacity="0.49971851745607027"  style="animation-delay: 3.695658355862842s" />
<circle cx="591.3031959001813" cy="27.643087821393042" r="1.1243157904929957" fill="white" opacity="0.48239679931846197"  style="animation-delay: 3.3875135892211405s" />
<circle cx="137.4883517342715" cy="44.53942175503718" r="1.0861748691894062" fill="white" opacity="0.662028347872355"  style="animation-delay: 0.9586731327865017s" />
<circle cx="88.21883963667946" cy="161.4850733065811" r="1.4804286587890172" fill="white" opacity="0.542034956758614"  style="animation-delay: 1.657720982254518s" />
<circle cx="606.8384100627649" cy="180.80569372906007" r="1.3147919299856836" fill="#7b2cbf" opacity="0.8" filter="url(#glow)" class="shimmer" style="animation-delay: 0.17824974077019107s" />
<circle cx="729.7302860415388" cy="33.399944519303574" r="1.1661588754766274" fill="#c77dff" opacity="0.8" filter="url(#glow)" class="shimmer" style="animation-delay: 1.019345628034826s" />
<circle cx="252.19161041349238" cy="128.88027753179892" r="1.7719596834326268" fill="#4a0080" opacity="0.8" filter="url(#glow)" class="shimmer" style="animation-delay: 2.1373250373094987s" />
<circle cx="649.856694503454" cy="30.02308308900168" r="2.197523460555007" fill="#c77dff" opacity="0.8" filter="url(#glow)" class="shimmer" style="animation-delay: 2.214378312077658s" />
<circle cx="469.2440531895269" cy="45.56114827747058" r="2.736781703510274" fill="#c77dff" opacity="0.8" filter="url(#glow)" class="shimmer" style="animation-delay: 2.5839055893480074s" />
<circle cx="648.9187847373961" cy="198.34215475489447" r="1.639443490301307" fill="#7b2cbf" opacity="0.8" filter="url(#glow)" class="shimmer" style="animation-delay: 2.4432710011088288s" />
<circle cx="461.87325774888564" cy="190.84457680198037" r="2.474556650228541" fill="#4a0080" opacity="0.8" filter="url(#glow)" class="shimmer" style="animation-delay: 1.5461647944468622s" />
<circle cx="219.86083014151524" cy="97.91135126486985" r="2.340448991026733" fill="#9d4edd" opacity="0.8" filter="url(#glow)" class="shimmer" style="animation-delay: 0.32210142886123716s" />
<line x1="147.4795628014375" y1="139.8902310540612" x2="625.4611201568838" y2="162.3150597538629" stroke="#e0aaff" stroke-width="0.5" opacity="0.3" />
<line x1="231.51202793111824" y1="138.59432785162502" x2="535.0792940286201" y2="67.94978709855684" stroke="#e0aaff" stroke-width="0.5" opacity="0.3" />

  
    <text x="400" y="120" text-anchor="middle" class="name-text" fill="url(#textGrad)" filter="url(#textGlow)">
      JOEL HOOKS
    </text>
  
</svg>
