<svg xmlns="http://www.w3.org/2000/svg" viewBox="0 0 800 200" width="800" height="200">
  <rect width="800" height="200" fill="#05010d"/>
  
    <defs>
      <linearGradient id="grad1" x1="0%" y1="0%" x2="100%" y2="100%">
        <stop offset="0%" style="stop-color:#4a0080;stop-opacity:0.8" />
        <stop offset="100%" style="stop-color:#7b2cbf;stop-opacity:0.8" />
      </linearGradient>
      <linearGradient id="grad2" x1="100%" y1="0%" x2="0%" y2="100%">
        <stop offset="0%" style="stop-color:#9d4edd;stop-opacity:0.7" />
        <stop offset="100%" style="stop-color:#c77dff;stop-opacity:0.7" />
      </linearGradient>
      <linearGradient id="textGrad" x1="0%" y1="0%" x2="100%" y2="0%">
        <stop offset="0%" style="stop-color:#4a0080" />
        <stop offset="25%" style="stop-color:#7b2cbf" />
        <stop offset="50%" style="stop-color:#9d4edd" />
        <stop offset="75%" style="stop-color:#c77dff" />
        <stop offset="100%" style="stop-color:#e0aaff" />
      </linearGradient>
      <filter id="glow">
        <feGaussianBlur stdDeviation="5" result="coloredBlur"/>
        <feMerge>
          <feMergeNode in="coloredBlur"/>
          <feMergeNode in="SourceGraphic"/>
        </feMerge>
      </filter>
      <filter id="textGlow">
        <feGaussianBlur stdDeviation="2" result="coloredBlur"/>
        <feMerge>
          <feMergeNode in="coloredBlur"/>
          <feMergeNode in="SourceGraphic"/>
        </feMerge>
      </filter>
    </defs>
  
  
    <style>
      @keyframes float {
        0%, 100% { transform: translateY(0px); }
        50% { transform: translateY(-8px); }
      }
      @keyframes pulse {
        0%, 100% { opacity: 0.4; }
        50% { opacity: 0.9; }
      }
      @keyframes drift {
        0% { transform: translateX(0px); }
        50% { transform: translateX(10px); }
        100% { transform: translateX(0px); }
      }
      @keyframes shimmer {
        0% { opacity: 0.3; }
        50% { opacity: 1; }
        100% { opacity: 0.3; }
      }
      @keyframes glitch {
        0%, 100% { transform: translateX(0); }
        20% { transform: translateX(-2px); }
        40% { transform: translateX(2px); }
        60% { transform: translateX(-1px); }
        80% { transform: translateX(1px); }
      }
      @keyframes dataStream {
        0% { stroke-dashoffset: 0; }
        100% { stroke-dashoffset: -20; }
      }
      .float { animation: float 8s ease-in-out infinite; }
      .pulse { animation: pulse 8s ease-in-out infinite; }
      .drift { animation: drift 8s ease-in-out infinite; }
      .shimmer { animation: shimmer 3s ease-in-out infinite; }
      .glitch { animation: glitch 0.5s ease-in-out infinite; }
      .dataStream { animation: dataStream 2s linear infinite; }
      .name-text { 
        font-family: -apple-system, BlinkMacSystemFont, 'Segoe UI', Helvetica, Arial, sans-serif;
        font-weight: 700;
        font-size: 64px;
        letter-spacing: -2px;
      }
    </style>
  
  <path d="M 627.5617345794241 120.40982040316099 C 627.9491794137347 140.139656216668, 579.8129098234728 158.01657793919853, 558.192776483592 180.76166234661372 C 536.5726431437112 203.5067467540289, 524.7714175559616 250.0671244796472, 497.8409345401392 256.8803268476521 C 470.9104515243167 263.693529215657, 408.0685658644532 244.38596096205833, 396.6098783886571 221.64087655464314 C 385.15119091286095 198.89579214722795, 425.44797315889474 150.51266926052074, 429.0888096853624 120.409820403161 C 432.72964621183 90.30697154580129, 406.99621007166684 60.54373658957668, 418.45489754746296 41.023783410484796 C 429.9135850232591 21.503830231392914, 474.93873288509496 -0.2697093472381198, 497.8409345401392 3.2901013286097083 C 520.7431361951834 6.849912004457536, 534.2479741378476 42.86269428647988, 555.8681074777284 62.382647465571765 C 577.4882408176092 81.90260064466365, 627.1742897451135 100.679984589654, 627.5617345794241 120.40982040316099 Z" fill="#c77dff" opacity="0.18984561589692428" filter="url(#glow)" class="float" />
<path d="M 473.7801667021658 122.81133022673068 C 479.03449695212055 140.66747928267432, 523.7880339578862 176.28150077750186, 520.6883990340885 189.6064971190235 C 517.5887641102909 202.9314934605451, 471.2794287021692 208.99240679404176, 455.1823571593798 202.76130827586036 C 439.08528561659045 196.53020975767896, 433.8757488700185 162.84416214981835, 424.1059697773522 152.21990600993502 C 414.33619068468585 141.5956498700517, 405.13187493936675 148.06574578800954, 396.5636826033817 139.01577143656036 C 387.9954902673967 129.96579708511118, 373.40799762293375 114.70480597459887, 372.6968157614421 97.92005990124 C 371.98563389995047 81.13531382788112, 378.57570546184803 47.33229889713416, 392.2965914344318 38.30729499640714 C 406.0174774070155 29.282291095680115, 438.87782724695654 36.409651865718764, 455.0221315969446 43.77003649687785 C 471.1664359469326 51.130421128036936, 486.0360783501566 69.29605382838619, 489.1624175343601 82.46960278336167 C 492.2887567185636 95.64315173833714, 468.525836452211 104.95518117078704, 473.7801667021658 122.81133022673068 Z" fill="#4a0080" opacity="0.10020762769053028" filter="url(#glow)" class="float" />
<path d="M 141.42365768530368 60.83401107171746 C 143.3085516182257 86.47793967175582, 163.45550454010476 123.69270818152286, 152.37592168661575 142.51063828360193 C 141.29633883312675 161.32856838568102, 102.13472088875933 168.36157475660724, 74.94616056436966 173.74159168419192 C 47.75760023997999 179.1216086117766, 8.210549636028677 187.91330700230097, -10.755440259722263 174.79073984910994 C -29.721430155473204 161.6681726959189, -35.0305184008772 119.38018645208943, -38.84977881013599 95.00618876504576 C -42.669039219394776 70.6321910780021, -43.48558499131009 44.345686610536546, -33.67100271527501 28.546753726847946 C -23.856420439239923 12.747820843159344, 2.522304010129112 10.317719143497774, 20.03771484607453 0.21259146291414766 C 37.553125682019946 -9.892536217669479, 51.24998842656262 -30.156424893396753, 71.4214623003975 -32.08401235665381 C 91.59293617423236 -34.01159981991086, 129.3995255249327 -26.839270554690067, 141.06655808908374 -11.352933316628189 C 152.73359065323478 4.13340392143369, 139.53876375238167 35.190082471679105, 141.42365768530368 60.83401107171746 Z" fill="#4a0080" opacity="0.199272349515713" filter="url(#glow)" class="float" />
<path d="M 873.6740627586455 88.09550136541469 C 873.6586518590904 115.07084778774315, 904.408811430847 153.2345068160921, 894.4303052433507 168.9879506106351 C 884.4517990558545 184.74139440517808, 838.7119706402557 176.54737467656403, 813.8030256336677 182.61616413267257 C 788.8940806270798 188.6849535887811, 764.5624572651162 210.6430820835886, 744.9766352038231 205.40068734728635 C 725.39081314253 200.1582926109841, 710.0004257044084 170.71266004517096, 696.2880932659089 151.161795714859 C 682.5757608274093 131.61093138454706, 663.731326408594 109.86498348953853, 662.7026405728258 88.0955013654147 C 661.6739547370576 66.32601924129088, 678.0452823722068 45.14820511333998, 690.1159782512993 20.544902970116098 C 702.1866741303919 -4.058399173107787, 711.5618089658872 -45.948598614428704, 735.1268158473811 -59.52431149392859 C 758.691822728875 -73.10002437342848, 804.9400270747122 -72.01940490198207, 831.5060195402624 -60.90937430688325 C 858.0720120058126 -49.79934371178443, 887.4947634376178 -17.698273868718662, 894.5227706406818 7.135872076664327 C 901.5507778437457 31.970018022047316, 873.6894736582007 61.120154943086234, 873.6740627586455 88.09550136541469 Z" fill="#e0aaff" opacity="0.1316586377644551" filter="url(#glow)" class="float" />
<path d="M 613.0572476538757 86.72867654361332 L 613.0572476538757 86.72867654361332 L 613.6911984363411 86.78414005031243 L 614.3106565443184 86.94968634885822 L 614.9013131800798 87.22279241214979 L 615.4492253400258 87.59928522240091 L 615.9409938324435 88.07338947085468 L 616.3639354936063 88.63779365800781 L 616.7062477569768 89.28373392273275 L 616.9571638051964 90.00109474780878 L 617.1070966268786 90.77852551661623 L 617.1477704091201 91.60357173276411 L 617.0723378210633 92.46281956277225 L 616.8754818826646 93.3420522230744 L 616.5535012647033 94.22641660788953 L 616.1043780296322 95.10059844513873 L 615.527826996558 95.94900417463381 L 614.825326095835 96.75594766715459 L 614.0001272677605 97.50583984552401 L 613.0572476538757 98.18337922998026 L 612.0034410265927 98.77374141045468 L 610.8471496014267 99.2627654480399 L 609.5984365741205 99.63713522704202 L 608.268899920544 99.88455381743897 L 606.8715681885654 99.99390896502508 L 605.4207791962978 99.95542790253549 L 603.9320427284492 99.76081976897456 L 602.4218884902405 99.40340403540537 L 600.907700734867 98.87822346262206 L 599.4075411242535 98.18214025829744 L 597.9399615124566 97.31391425710811 L 596.523808455223 96.27426211558577 L 595.1780213467555 95.06589669250978 L 593.9214261646748 93.69354597391403 L 592.7725268656307 92.1639510975144 L 591.7492965163506 90.48584323277663 L 590.868970267589 88.66989927808203 L 590.1478422811418 86.72867654361332 L 589.6010687026584 84.67652679574641 L 589.2424787354652 82.5294902439602 L 589.0843958132224 80.30517025263933 L 589.1374707923745 78.02258975573744 L 589.4105289896199 75.70203054023412 L 589.9104327757619 73.36485674285188 L 590.6419613062544 71.03332407187969 L 591.6077088216123 68.73037642053829 L 592.8080027888611 66.47943167859876 L 594.2408429797518 64.30415867351968 L 595.9018623940739 62.22824727993421 L 597.7843107387198 60.275173825768995 L 599.8790609669103 58.46796399364912 L 602.1746391690309 56.828955466736836 L 604.6572778887559 55.37956259814362 L 607.3109927175083 54.140045392104184 L 610.1176817988231 53.12928507295059 L 613.0572476538757 52.364568484512496 L 616.1077405223265 51.86138350801992 L 619.2455222007329 51.633227611218864 L 622.4454491560685 51.691431545735426 L 625.6810734962958 52.04500009443659 L 628.9248601953238 52.70047163651357 L 632.1484187978206 53.66179814630791 L 635.3227476719164 54.93024707373192 L 638.4184887363905 56.5043263708784 L 641.4061904648961 58.37973373259292 L 644.2565768644408 60.54933091004962 L 646.9408200398149 63.00314373750432 L 649.4308138909116 65.72838828527391 L 651.6994464466839 68.70952331857899 L 653.7208683184277 71.92832900422434 L 655.47075475657 75.3640115672747 L 656.9265588193688 78.99333336004173 L 658.0677532089145 82.79076756797679 L 658.8760583993435 86.7286765436133 L 659.3356547738451 90.77751253264807 L 659.4333766002541 94.90603933767464 L 659.1588858089782 99.08157325702484 L 658.504823690728 103.2702414405775 L 657.4669388038194 107.43725562313035 L 656.0441895703727 111.54719903074165 L 654.2388202460172 115.56432410796116 L 652.056409167082 119.45285858556791 L 649.505888410902 123.17731730063949 L 646.5995342468792 126.70281709464979 L 643.3529280062918 129.9953920518126 L 639.7848872553985 133.02230629984092 L 635.917367416979 135.75236157926548 L 631.7753342478089 138.15619679584086 L 627.3866078414331 140.20657680353222 L 622.7816790846514 141.8786677230903 L 617.9934997500962 143.15029618302808 L 613.0572476538757 144.002189975448 L 608.0100685442571 144.41819774795874 L 602.8907966126103 144.38548550397564 L 597.7396557292454 143.8947078559404 L 592.5979437023675 142.94015216814114 L 587.5077020362899 141.51985393640106 L 582.5113738235639 139.635681979302 L 577.6514525432208 137.29339225801493 L 572.9701246524813 134.50264939729112 L 568.5089089508436 131.27701524664533 L 564.3082957623678 127.63390409605664 L 560.4073890234164 123.59450444233659 L 556.8435543784565 119.18366748831963 L 553.6520763753796 114.42976284478544 L 550.8658278139726 109.36450219209058 L 548.5149542367323 104.02273194238948 L 546.6265764604148 98.4421962215931 L 545.2245139300849 92.66327176041767 L 544.3290315356741 86.72867654361335 L 543.9566123651542 80.68315431341081 L 544.1197586795295 74.57313725514379" fill="none" stroke="#4a0080" stroke-width="1" opacity="0.3" class="drift" />
<path d="M 332.3618769348778 90.50059456680357 L 332.3618769348778 90.50059456680357 L 332.8565316379235 90.54387124567985 L 333.3398780978162 90.67304255899387 L 333.800751545481 90.88613985672434 L 334.22827263113885 91.17990704560515 L 334.6119863267638 91.54983780792652 L 334.94199630166213 91.99022717775787 L 335.2090933313842 92.49423695055168 L 335.4048763586387 93.05397426095406 L 335.521864896925 93.6605825288508 L 335.5536015525659 94.30434384650476 L 335.4947435379105 94.97479176131371 L 335.3411421567864 95.66083330037225 L 335.0899093617974 96.35087898570727 L 334.73947061068327 97.03297950371733 L 334.2896033844816 97.69496761981947 L 333.7414608724002 98.32460387031085 L 333.09758047577463 98.90972451858127 L 332.3618769348778 99.4383902325294 L 331.53962003622837 99.89903392467276 L 330.6373970129748 100.28060619618768 L 329.6630599054324 100.57271684102581 L 328.6256583014691 100.76577089623947 L 327.53535802571224 100.85109776947934 L 326.4033464910606 100.82107203394092 L 325.2417255643488 100.66922455432663 L 324.0633929288887 100.39034269402669 L 322.88191304873607 99.98055845294526 L 321.71137895171444 99.4374234963303 L 320.56626614935107 98.75997015661716 L 319.4612801009561 97.94875762157508 L 318.41119870518435 97.00590266176583 L 317.4307113647892 95.93509439721618 L 316.53425621824283 94.74159275593202 L 315.7358571649248 93.43221043403862 L 315.0489623282766 92.01527832747357 L 314.48628560342615 90.50059456680357 L 314.05965292218514 88.89935744838102 L 313.77985483904797 87.22408271518792 L 313.65650699703644 85.4885057978336 L 313.6979199722671 83.70746977878783 L 313.91097992141226 81.89679998959542 L 314.3010413673874 80.07316629012345 L 314.87183335633813 78.25393420949379 L 315.6253801041925 76.45700624897586 L 316.56193712464164 74.70065475656742 L 317.6799436935124 73.00334788017807 L 318.97599235828335 71.38357019026024 L 320.44481604724336 69.85963963252888 L 322.0792931718729 68.44952252632042 L 323.8704709498581 67.17064836354015 L 325.8076070062247 66.03972618654956 L 327.8782291379301 65.07256433040489 L 330.06821295443467 64.28389530537898 L 332.3618769348778 63.68720756962611 L 334.74209427307346 63.29458589928748 L 337.1904207162061 63.11656200452806 L 339.6872374433724 63.1619769653432 L 342.2119078775006 63.43785697101801 L 344.74294718012857 63.94930374254835 L 347.25820304442084 64.6994008989602 L 349.7350462789684 65.68913739724732 L 352.1505695645441 66.91734903265615 L 354.4817926692084 68.38067883247295 L 356.7058723249654 70.07355701359961 L 358.8003149024377 71.98820100342829 L 360.74318996950547 74.11463584630621 L 362.51334278615064 76.44073513575609 L 364.090603771316 78.95228242717681 L 365.4559929787509 81.63305289862592 L 366.59191763772213 84.46491484014312 L 367.4823608511258 87.42795036658731 L 368.1130595977811 90.50059456680356 L 368.4716702572173 93.65979212477241 L 368.547919963599 96.88117027784456 L 368.3337421999572 100.13922681482273 L 367.8233951638382 103.4075316640335 L 367.01356156992273 106.65894048009693 L 365.90342870307416 109.86581850920949 L 364.4947476954506 113.00027289767505 L 362.79187117248733 116.0343915083085 L 360.8017685933029 118.94048622522861 L 358.5340187999204 121.69133866035337 L 356.0007794850339 124.26044612538008 L 353.216733488238 126.62226570178429 L 350.1990120339679 128.75245422886618 L 346.9670952291117 130.62810203641664 L 343.54269034258004 132.22795827429573 L 339.94958859125086 133.53264573609366 L 336.2135013548672 134.52486313787506 L 332.3618769348778 135.18957289543266 L 328.42369915713584 135.51417254396654 L 324.42926929412414 135.48864806197048 L 320.40997294733404 135.1057074955021 L 316.3980336830408 134.3608934289388 L 312.4262553535419 133.25267301263827 L 308.52775515960894 131.78250443535296 L 304.7356896172255 129.95487891839304 L 301.08297568153426 127.77733750787533 L 297.6020093523582 125.26046214932308 L 294.3243841378659 122.41784074368479 L 291.2806117852847 119.26600610374058 L 288.49984769954403 115.82434895302671 L 286.00962346202544 112.11500533393624 L 283.8355888320899 108.16271901564451 L 282.00126556376654 103.99467971403044 L 280.527815299142 99.64033815288934 L 279.43382370898286 95.13119920656611 L 278.73510294052284 90.50059456680358 L 278.4445143028914 85.78343656928851 L 278.5718129732652 81.01595499633724 L 279.1235163425602 76.2354188397351 L 280.1027974395677 71.47984516035952 L 281.50940467825336 66.78769731742504 L 283.3396089659754 62.197574958671765 L 285.5861789922717 57.74789826237047 L 288.2383852903439 53.476589001621456 L 291.28203342826384 49.42075106018955 L 294.699526446158 45.61635306632945 L 298.46995641115996 42.0979158261939 L 302.56922471579173 38.898207231116835 L 306.9701904997025 36.047947283161484 L 311.6428463314298 33.57552583084084 L 316.5545200481263 31.506735532073286 L 321.67010141907934 29.864522464622098 L 326.9522920753421 28.668756686085196 L 332.3618769348778 27.93602490672282 L 337.858015152166 27.679447279993703 L 343.3985484350568 27.908520138745274 L 348.9403244014708 28.628986310866914 L 354.4395324959289 29.842734438318665 L 359.85204985229893 31.547728499389386 L 365.1337943758724 33.73796849754813 L 370.2410822260918 36.40348303318097 L 375.1309868118985 39.53035421880749 L 379.76169636558626 43.10077513609513 L 384.09286713881403 47.093139766245194 L 388.08596926650404 51.48216505630485 L 391.70462237091755 56.2390445148546 L 394.9149180293096 61.33163246358568 L 397.6857263040153 66.72465780874833 L 399.9889836332271 72.37996594052748 L 401.79995950350497 78.25678712129243 L 403.0974994704196 84.31202948749488 L 403.86424226068436 90.50059456680354 L 404.0868088765111 96.77571300386488 L 403.75596182938176 103.08929799669536 L 402.8667328544335 109.39231377292113 L 401.4185176965375 115.63515628246176 L 399.41513681308163 121.7680431522674 L 396.86486110448624 127.74140984066108 L 393.7804020595171 133.50630884479835 L 390.17886598633595 139.01480875566298" fill="none" stroke="#9d4edd" stroke-width="1" opacity="0.3" class="drift" />
<circle cx="319.7865103655513" cy="150.82645868289387" r="1.2294247489100711" fill="white" opacity="0.43477419026592884"  style="animation-delay: 1.3724217044450149s" />
<circle cx="504.924644097494" cy="185.34875017669705" r="1.5426264982888762" fill="white" opacity="0.45526794956702527"  style="animation-delay: 0.23426374316954046s" />
<circle cx="566.6357941272669" cy="10.843484411147575" r="1.9176535522026898" fill="white" opacity="0.4529869883417977"  style="animation-delay: 4.809133839845528s" />
<circle cx="381.4300307551747" cy="140.4377043211277" r="1.8928738491265746" fill="white" opacity="0.3845645822562182"  style="animation-delay: 3.210250760550096s" />
<circle cx="576.4113632535745" cy="1.323106663574647" r="0.5278402098977301" fill="white" opacity="0.3482966055160633"  style="animation-delay: 3.4491700712137616s" />
<circle cx="236.57378092016506" cy="26.953431374769377" r="1.675958865455978" fill="white" opacity="0.44328832704079385" class="shimmer" style="animation-delay: 4.612507862210079s" />
<circle cx="70.06194111771524" cy="130.4889527398854" r="0.8233094557075903" fill="white" opacity="0.3278948721795541"  style="animation-delay: 1.9329977743567328s" />
<circle cx="566.1888933246436" cy="178.52473737023922" r="1.8696326113480555" fill="white" opacity="0.6836854060548172" class="shimmer" style="animation-delay: 0.18869045798233008s" />
<circle cx="117.57954674998797" cy="114.38555106320325" r="0.6628150353232292" fill="white" opacity="0.4694718757694591"  style="animation-delay: 1.7725712178587272s" />
<circle cx="265.653261923763" cy="12.598231424302408" r="1.9826385473148784" fill="white" opacity="0.6100361818947388"  style="animation-delay: 1.5316837341802791s" />
<circle cx="41.82146701997436" cy="6.192213752057452" r="1.8411216613096606" fill="white" opacity="0.4272573970094901"  style="animation-delay: 2.6988874203427815s" />
<circle cx="473.93096559855934" cy="27.595645080218834" r="0.7769929066327865" fill="white" opacity="0.36375489928098287" class="shimmer" style="animation-delay: 0.7266490095703471s" />
<circle cx="206.6009788030689" cy="190.7279628362109" r="1.9391464467345476" fill="white" opacity="0.6173827144823796"  style="animation-delay: 2.2287665971629322s" />
<circle cx="247.75921075356618" cy="49.93963266921671" r="1.3265956624279829" fill="white" opacity="0.3653912066514134" class="shimmer" style="animation-delay: 4.046467030971426s" />
<circle cx="678.2323089887765" cy="90.2102326381478" r="0.5491056382215556" fill="white" opacity="0.5640088283961182"  style="animation-delay: 0.07670769552825085s" />
<circle cx="631.9997128047299" cy="151.45099237964246" r="1.1182869763959737" fill="white" opacity="0.5935221335396796" class="shimmer" style="animation-delay: 0.34592763527580117s" />
<circle cx="784.2855919243672" cy="47.585054454370734" r="1.6615052224367337" fill="white" opacity="0.5927844023888582"  style="animation-delay: 1.3646296666172375s" />
<circle cx="635.9852894124584" cy="104.68525994895175" r="1.7872159931535456" fill="white" opacity="0.49090948905550585"  style="animation-delay: 1.201840857634382s" />
<circle cx="596.1996924112333" cy="142.17570337788544" r="1.3757683548094781" fill="white" opacity="0.36472048753659764"  style="animation-delay: 2.05073558914627s" />
<circle cx="542.6421062925599" cy="127.06759944548378" r="0.9484063858605952" fill="white" opacity="0.32675605694140103"  style="animation-delay: 2.8351586874436006s" />
<circle cx="73.38948693119818" cy="173.95541276287702" r="0.7308690423529703" fill="white" opacity="0.6878839606758615"  style="animation-delay: 4.275963306914768s" />
<circle cx="502.70488137727244" cy="172.98902639787883" r="1.2371130589063046" fill="white" opacity="0.4558333415151065"  style="animation-delay: 0.787590120316769s" />
<circle cx="501.7062928783098" cy="126.60558622683942" r="1.6777570477128712" fill="white" opacity="0.5807536476716071" class="shimmer" style="animation-delay: 0.1784141893691482s" />
<circle cx="355.98525682943955" cy="91.46919379575297" r="0.7054259460034001" fill="white" opacity="0.4029327868641092"  style="animation-delay: 4.350975986002346s" />
<circle cx="43.28049707616639" cy="61.27637899043022" r="1.2741300070144066" fill="white" opacity="0.3484722622952698"  style="animation-delay: 4.643140409524444s" />
<circle cx="379.28367115871" cy="101.61988949075563" r="1.8075855032504466" fill="white" opacity="0.7149230997275349"  style="animation-delay: 3.0544347802522043s" />
<circle cx="522.2983297678379" cy="160.23099332591616" r="1.931052675939783" fill="white" opacity="0.426019094776592"  style="animation-delay: 4.347796272743211s" />
<circle cx="341.7612982035651" cy="72.03073352180338" r="0.7909215098130097" fill="white" opacity="0.3287790418792332"  style="animation-delay: 2.3370203135631327s" />
<circle cx="731.8078589485891" cy="71.12211645707691" r="0.7102532815953889" fill="white" opacity="0.45599374057785463" class="shimmer" style="animation-delay: 3.5248680266029684s" />
<circle cx="374.06506988388503" cy="174.94020724198927" r="0.5016317945631784" fill="white" opacity="0.614161437631966" class="shimmer" style="animation-delay: 4.504263798175767s" />
<circle cx="337.5396885980905" cy="131.05361882004735" r="0.8305180583812809" fill="white" opacity="0.4584496507977654"  style="animation-delay: 1.0815347789424123s" />
<circle cx="770.1302679882098" cy="145.2438943812276" r="0.566045153558432" fill="white" opacity="0.3480658943373684" class="shimmer" style="animation-delay: 2.9740848933127517s" />
<circle cx="580.3523277628136" cy="105.14320502073957" r="1.6569097002387436" fill="white" opacity="0.309947384956415"  style="animation-delay: 4.178385430833621s" />
<circle cx="492.410021059089" cy="69.52405129607703" r="1.4206818959031366" fill="white" opacity="0.553886987040896" class="shimmer" style="animation-delay: 1.5480989225988429s" />
<circle cx="189.91975280237642" cy="60.335022094537734" r="1.538234606946584" fill="white" opacity="0.42901809915856687"  style="animation-delay: 3.1960800823492086s" />
<circle cx="747.147088770332" cy="167.18136307616814" r="1.0940982770820982" fill="white" opacity="0.766262775774748" class="shimmer" style="animation-delay: 3.301360907863801s" />
<circle cx="378.2346959090777" cy="174.71866753653197" r="1.4355974595736083" fill="white" opacity="0.4265314290107321" class="shimmer" style="animation-delay: 0.768822220761558s" />
<circle cx="402.65244517483706" cy="55.34085941693352" r="1.4008435679314633" fill="white" opacity="0.34149157435446614"  style="animation-delay: 4.193713268910657s" />
<circle cx="644.1627553315211" cy="17.061854643132524" r="0.9952108073871266" fill="white" opacity="0.307998027720286" class="shimmer" style="animation-delay: 4.698147195031616s" />
<circle cx="420.4640813634787" cy="33.07996655948307" r="1.757267143311695" fill="white" opacity="0.5277194563456988"  style="animation-delay: 3.5552089690349566s" />
<circle cx="675.8567910046711" cy="124.23996788206892" r="1.0783513312036743" fill="#9d4edd" opacity="0.8" filter="url(#glow)" class="shimmer" style="animation-delay: 0.9554994831047201s" />
<circle cx="480.3683878181131" cy="189.30254526794585" r="2.383332456375957" fill="#c77dff" opacity="0.8" filter="url(#glow)" class="shimmer" style="animation-delay: 0.0023754448808577244s" />
<circle cx="135.27043567740637" cy="150.9496430217136" r="1.3312982917776988" fill="#c77dff" opacity="0.8" filter="url(#glow)" class="shimmer" style="animation-delay: 0.7206558604324795s" />
<circle cx="446.7096753911589" cy="74.26295098944342" r="1.1812934342632437" fill="#9d4edd" opacity="0.8" filter="url(#glow)" class="shimmer" style="animation-delay: 1.5661729870427403s" />
<circle cx="114.35967929548295" cy="12.282983821014648" r="2.164488969535682" fill="#7b2cbf" opacity="0.8" filter="url(#glow)" class="shimmer" style="animation-delay: 2.1681015864146467s" />
<circle cx="691.8611736659027" cy="94.0657403323352" r="2.7417789659847944" fill="#c77dff" opacity="0.8" filter="url(#glow)" class="shimmer" style="animation-delay: 0.4250505066950654s" />
<circle cx="640.1318841127777" cy="27.336687821343418" r="2.9061494151499994" fill="#9d4edd" opacity="0.8" filter="url(#glow)" class="shimmer" style="animation-delay: 2.0076276686238232s" />
<circle cx="748.8783640529435" cy="78.49936788546788" r="1.145904207085679" fill="#c77dff" opacity="0.8" filter="url(#glow)" class="shimmer" style="animation-delay: 2.904390100194978s" />
<line x1="607.141859072919" y1="95.5017784680072" x2="747.5940088600886" y2="119.44887920276753" stroke="#e0aaff" stroke-width="0.5" opacity="0.3" />

  
    <text x="400" y="120" text-anchor="middle" class="name-text" fill="url(#textGrad)" filter="url(#textGlow)">
      JOEL HOOKS
    </text>
  
</svg>
