<svg xmlns="http://www.w3.org/2000/svg" viewBox="0 0 800 200" width="800" height="200">
  <rect width="800" height="200" fill="#05010d"/>
  
    <defs>
      <linearGradient id="grad1" x1="0%" y1="0%" x2="100%" y2="100%">
        <stop offset="0%" style="stop-color:#4a0080;stop-opacity:0.8" />
        <stop offset="100%" style="stop-color:#7b2cbf;stop-opacity:0.8" />
      </linearGradient>
      <linearGradient id="grad2" x1="100%" y1="0%" x2="0%" y2="100%">
        <stop offset="0%" style="stop-color:#9d4edd;stop-opacity:0.7" />
        <stop offset="100%" style="stop-color:#c77dff;stop-opacity:0.7" />
      </linearGradient>
      <linearGradient id="textGrad" x1="0%" y1="0%" x2="100%" y2="0%">
        <stop offset="0%" style="stop-color:#4a0080" />
        <stop offset="25%" style="stop-color:#7b2cbf" />
        <stop offset="50%" style="stop-color:#9d4edd" />
        <stop offset="75%" style="stop-color:#c77dff" />
        <stop offset="100%" style="stop-color:#e0aaff" />
      </linearGradient>
      <filter id="glow">
        <feGaussianBlur stdDeviation="5" result="coloredBlur"/>
        <feMerge>
          <feMergeNode in="coloredBlur"/>
          <feMergeNode in="SourceGraphic"/>
        </feMerge>
      </filter>
      <filter id="textGlow">
        <feGaussianBlur stdDeviation="2" result="coloredBlur"/>
        <feMerge>
          <feMergeNode in="coloredBlur"/>
          <feMergeNode in="SourceGraphic"/>
        </feMerge>
      </filter>
    </defs>
  
  
    <style>
      @keyframes float {
        0%, 100% { transform: translateY(0px); }
        50% { transform: translateY(-8px); }
      }
      @keyframes pulse {
        0%, 100% { opacity: 0.4; }
        50% { opacity: 0.9; }
      }
      @keyframes drift {
        0% { transform: translateX(0px); }
        50% { transform: translateX(10px); }
        100% { transform: translateX(0px); }
      }
      @keyframes shimmer {
        0% { opacity: 0.3; }
        50% { opacity: 1; }
        100% { opacity: 0.3; }
      }
      @keyframes glitch {
        0%, 100% { transform: translateX(0); }
        20% { transform: translateX(-2px); }
        40% { transform: translateX(2px); }
        60% { transform: translateX(-1px); }
        80% { transform: translateX(1px); }
      }
      @keyframes dataStream {
        0% { stroke-dashoffset: 0; }
        100% { stroke-dashoffset: -20; }
      }
      .float { animation: float 8s ease-in-out infinite; }
      .pulse { animation: pulse 8s ease-in-out infinite; }
      .drift { animation: drift 8s ease-in-out infinite; }
      .shimmer { animation: shimmer 3s ease-in-out infinite; }
      .glitch { animation: glitch 0.5s ease-in-out infinite; }
      .dataStream { animation: dataStream 2s linear infinite; }
      .name-text { 
        font-family: -apple-system, BlinkMacSystemFont, 'Segoe UI', Helvetica, Arial, sans-serif;
        font-weight: 700;
        font-size: 64px;
        letter-spacing: -2px;
      }
    </style>
  
  <path d="M 678.7027196860934 57.498241208329894 C 685.0017197068402 77.81159299405638, 666.2915419173353 122.30169043173728, 647.8418952796998 137.33529662774964 C 629.3922486420643 152.368902823762, 594.7263050084955 147.59076504266173, 568.00483986028 147.699878384404 C 541.2833747120644 147.80899172614627, 503.1126324015287 153.02358287421563, 487.5131043904066 137.98997667820328 C 471.91357637928456 122.95637048219093, 473.42263692810013 83.34378483284031, 474.40767179354754 57.49824120832991 C 475.39270665899494 31.652697583819506, 477.8237855719688 -4.506069917442881, 493.4233135830909 -17.083285068859148 C 509.02284159421293 -29.660500220275416, 548.5674095982586 -23.38812819720934, 568.00483986028 -17.96504970016769 C 587.4422701223014 -12.541971203126039, 591.5982485175834 2.8779707619744936, 610.0478951552191 15.455185913390757 C 628.4975417928547 28.03240106480702, 672.4037196653466 37.18488942260341, 678.7027196860934 57.498241208329894 Z" fill="#9d4edd" opacity="0.12966129159413778" filter="url(#glow)" class="float" />
<path d="M 567.9148709289467 131.64885131772036 C 561.3178477425972 148.43377362230572, 524.1233988583342 155.19293384653807, 510.30897819344057 167.6245645221153 C 496.4945575285469 180.05619519769252, 496.3969262280662 202.64495936682715, 485.02834693958465 206.23863537118365 C 473.6597676511031 209.83231137554014, 456.088102434398 194.38819526258192, 442.0975024625512 189.18662054825418 C 428.10690249070433 183.98504583392645, 412.4604780838809 184.6188152903062, 401.0847471085036 175.02918708521722 C 389.70901613312634 165.43955888012823, 376.3724141744425 147.94660548655833, 373.84311661028744 131.64885131772036 C 371.3138190461324 115.35109714888239, 376.1918613119902 91.93703025772349, 385.90896172357327 77.2426620721894 C 395.62606213515636 62.54829388665531, 415.0248466676315 48.696185155095215, 432.145719079786 43.4826422045158 C 449.26659149194046 38.26909925393638, 469.0099631578748 42.05600628703167, 488.63419619650006 45.96140436871289 C 508.25842923512533 49.86680245039411, 536.6776715227967 52.63378953643521, 549.8911173115378 66.91503069460312 C 563.1045631002788 81.19627185277103, 574.5118941152962 114.86392901313499, 567.9148709289467 131.64885131772036 Z" fill="#e0aaff" opacity="0.20061396833047457" filter="url(#glow)" class="float" />
<path d="M 645.5472152750667 181.2042431041938 C 642.7353259496359 212.12990074122487, 616.5297947595734 250.36234084048402, 593.7998317707537 266.902850127646 C 571.069868781934 283.44335941480796, 533.079002949245 282.79721343606, 509.16743734214873 280.4472988271655 C 485.2558717350525 278.09738421827103, 466.42170561802465 264.54866240518805, 450.3304381281763 252.80336247427914 C 434.23917063832795 241.05806254337023, 428.6069417108205 230.23513741294963, 412.6198324030585 209.9754992417121 C 396.63272309529657 189.71586107047457, 350.56645640815964 152.20667196690295, 354.4077822816044 131.24553344685398 C 358.24910815504916 110.284394926805, 408.54645223962746 99.95452584085257, 435.66778764372714 84.20866812141824 C 462.7891230478268 68.46281040198392, 487.96856469293374 37.247014432907775, 517.1357947062023 36.770387130248 C 546.3030247194708 36.29375982758822, 589.2692642951945 57.27659497646859, 610.6711677233386 81.34890430545956 C 632.0730711514827 105.42121363445052, 648.3591046004975 150.27858546716274, 645.5472152750667 181.2042431041938 Z" fill="#9d4edd" opacity="0.1047799729799681" filter="url(#glow)" class="float" />
<path d="M 899.4001249361434 108.13781007675342 C 903.8975627102717 127.41596427653619, 894.8038974614999 161.3394191920171, 880.8942177191715 175.7750121059878 C 866.9845379768431 190.2106050199585, 836.2672916607876 191.22219302413052, 815.9420464821727 194.75136756057773 C 795.6168013035578 198.28054209702495, 771.1872016862853 205.89731614391332, 758.9427466474825 196.95005932467103 C 746.6982916086797 188.00280250542875, 749.0554839310822 155.8698681864436, 742.4753162493557 141.067826645124 C 735.8951485676292 126.2657851038044, 728.0185519006114 125.33136961137284, 719.4617405571237 108.13781007675344 C 710.9049292136359 90.94425054213404, 682.9621670956599 47.80848974424508, 691.1344481884291 37.906469437407594 C 699.3067292811984 28.004449130570105, 749.2339882911871 46.71695577911139, 768.4954271137389 48.725688235728505 C 787.7568659362906 50.73442069234562, 792.4673871302961 48.06213106518317, 806.7030811237398 49.95886417711029 C 820.9387751171836 51.85559728903741, 838.460083772334 50.40959592401738, 853.9095910744012 60.106086907291235 C 869.3590983764684 69.80257789056509, 894.902687162015 88.85965587697066, 899.4001249361434 108.13781007675342 Z" fill="#9d4edd" opacity="0.1936776270296811" filter="url(#glow)" class="float" />
<path d="M 352.31429619103943 89.711112618985 L 352.31429619103943 89.711112618985 L 352.65630517376246 89.7410345277973 L 352.9904955292423 89.83034480664737 L 353.309147829583 89.97768231212153 L 353.60473998851364 90.18079575025907 L 353.87004329987315 90.43656940998666 L 354.09821534616816 90.74105882341111 L 354.28288878172054 91.0895359906437 L 354.4182550353384 91.47654370924842 L 354.4991420272606 91.89595845520614 L 354.5210850538687 92.34106117435869 L 354.4803900607888 92.80461526148389 L 354.3741885998916 93.27895092924248 L 354.20048384764374 93.75605510195264 L 353.95818715049865 94.2276659101448 L 353.6471446567221 94.6853708117029 L 353.26815369233844 95.12070732460809 L 352.82296864084844 95.52526532527604 L 352.31429619103943 95.89078984554166 L 351.7457799236058 96.20928329072204 L 351.12197431441564 96.47310600101386 L 350.4483083390837 96.67507408879005 L 349.7310389690321 96.80855350509324 L 348.97719495243183 96.86754931962005 L 348.194511373335 96.84678923949997 L 347.39135557797266 96.74180044284613 L 346.57664514768334 96.54897886295657 L 345.759758682376 96.26565012764843 L 344.95044023599314 95.89012143490697 L 344.15869831536054 95.42172373014247 L 343.39470041539573 94.86084364111555 L 342.66866411627046 94.20894472319526 L 341.99074581124563 93.46857766917749 L 341.3709281670601 92.64337924348685 L 340.81890744159034 91.73805980924541 L 340.34398179573435 90.75837942741538 L 339.9549417379261 89.711112618985 L 339.65996383028835 88.60400199293004 L 339.4665087651846 87.44570105339983 L 339.3812248899729 86.2457066082101 L 339.40985821629715 85.01428130624438 L 339.55716989860304 83.76236693277141 L 339.8268621051382 82.50148918800222 L 340.22151313399826 81.24365476451014 L 340.74252254739525 80.00124162253618 L 341.3900670099337 78.78688343787927 L 342.16306742202477 77.61334926426606 L 343.05916783847385 76.49341951012607 L 344.07472655563055 75.43975937795506 L 345.2048196392232 74.46479095241466 L 346.44325705011363 73.58056515055716 L 347.7826114077184 72.79863476374413 L 349.2142593118176 72.12992982570995 L 350.72843502398774 71.58463653466586 L 352.31429619103943 71.17208093931502 L 353.9600011757157 70.90061856921986 L 355.652797445586 70.77753114930418 L 357.3791203606335 70.80893148665697 L 359.12470159451334 70.99967755560871 L 360.874686324859 71.35329673474725 L 362.6137582353005 71.87192106769757 L 364.3262712869224 72.55623432876384 L 365.99638714058096 73.40543157566817 L 367.60821704458743 74.41719176543698 L 369.145966945431 75.58766389687763 L 370.5940845330784 76.91146702501135 L 371.9374068974556 78.38170437029778 L 373.1613074494111 79.9899916195628 L 374.2518407481013 81.72649938732594 L 375.19588387754175 83.58000967684478 L 375.98127302814044 85.53798605080178 L 376.5969339643726 87.58665709331196 L 377.0330050972661 89.711112618985 L 377.2809519298186 91.89541196228264 L 377.33367170454625 94.12270356249294 L 377.18558715462893 96.37535494739826 L 376.8327283430497 98.63509211319219 L 376.2728016670785 100.8831472004105 L 375.50524520771313 103.1004132765244 L 374.5312697144406 105.26760495627603 L 373.3538846340289 107.3654235216192 L 371.9779087170298 109.37472514497529 L 370.40996486623953 111.27669077304918 L 368.65845902642116 113.05299619420394 L 366.73354305300495 114.68598079078741 L 364.6470616380676 116.15881346915802 L 362.41248351343177 117.45565426468087 L 360.04481729199887 118.56181013674882 L 357.56051244818406 119.463883499912 L 354.97734607533386 120.14991208133222 L 352.31429619103943 120.60949875176829 L 349.59140248912047 120.83393004677824 L 346.8296155585701 120.81628217631777 L 344.05063570380696 120.55151341383598 L 341.276742606099 120.03654185962932 L 338.530617162008 119.27030768682545 L 335.8351569202217 118.25381910104491 L 333.2132866123403 116.99018137556621 L 330.6877653353126 115.4846084616471 L 328.2809919926068 113.74441681741757 L 326.0148106373026 111.7790012472778 L 323.91031738264047 109.59979269577485 L 321.98767055385076 107.22019809422886 L 320.26590574906504 104.6555225136191 L 318.76275745670955 101.92287403211061 L 317.4944888420141 99.0410518787636 L 316.47573126628646 96.030418565091 L 315.7193350396782 92.91275686190072 L 315.23623283169945 89.71111261898501 L 315.0353170742321 86.44962455844471 L 315.12333258988065 83.15334229755427 L 315.504785564927 79.8480339729333 L 316.1818698617611 76.55998494331129 L 317.1544115313976 73.3157891423476 L 318.4198322435933 70.14213473488888 L 319.9731322012782 67.06558579887783 L 321.8068929487047 64.11236181016542 L 323.91130032016457 61.308116748110095 L 326.274187609654 58.67771966557555 L 328.8810988728415 56.24503857740605 L 331.7153721025172 54.03272951641013 L 334.75824184879934 52.062032585209266 L 337.98896068718057 50.35257679602108 L 341.3849387724416 48.92219543869823 L 344.92190055597206 47.78675365040604 L 348.5740575895024 46.95998977860968 L 352.31429619103943 46.453372033088385 L 356.114378610201 46.27597181316368 L 359.94515620143153 46.43435497400027 L 363.7767929959102 46.93249216161106 L 367.5789979574464 47.77168920107262 L 371.32126411528276 48.95053836754184 L 374.97311268841383 50.46489120615262 L 378.50434025255475 52.3078533960438 L 381.88526695295167 54.469801976977635 L 385.08698373435664 56.93842507566784 L 388.0815965441215 59.698784084506855 L 390.8424654657984 62.733398059378956 L 393.34443675900053 66.02234991718447 L 395.5640658166165 69.54341382913896 L 397.4798291026373 73.27220302439274 L 399.07232320258765 77.18233704156802 L 400.3244492034444 81.24562729495621 L 401.2215807204288 85.43227965882669 L 401.7517140034927 89.71111261898497 L 401.9055986858748 94.04978939676793 L 401.67684787985013 98.41506231833858 L 401.06202647967484 102.773027582675 L 400.06071669758586 107.08938847612525 L 398.6755600342839 111.32972499083438 L 396.91227506925804 115.45976772963769 L 394.7796506471607 119.44567392190832 L 392.2895142327194 123.25430333399001 L 389.456675406799 126.85349183474442 L 386.2988446786103 130.2123203717397 L 382.8365279920535 133.30137712692402 L 379.0928975061184 136.09301065233228 L 375.09363942849143 138.56157183636344 L 370.8667798763649 140.68364261921695 L 366.4424899272757 142.4382494617947 L 361.8528712040296 143.8070596752159 L 357.13172350981915 144.7745588373884 L 352.31429619103955 145.32820765799494 L 347.43702505463517 145.45857680283441 L 342.5372568027245 145.15945835162168 L 337.65296306853014 144.42795273888188 L 332.8224462431659 143.26453021416543 L 328.0840393715842 141.67306605403087 L 323.47580246710834 139.6608489625898 L 319.035217646708 137.23856230828628 L 314.7988855229418 134.42023806033762 L 310.80222530283766 131.22318350718675 L 307.0791810386122 127.66788105964864 L 303.6619364499204 123.77786166140714 L 300.58064069230585 119.57955254734219 L 297.8631473818597 115.10210030404306 L 295.53476910217347 110.37717039504375 L 293.61804951696826 105.43872451404037 L 292.1325550909826 100.3227773209367 L 291.09468828362196 95.06713429638607 L 290.51752392547286 89.71111261898504 L 290.41067031817596 84.29524712395951" fill="none" stroke="#4a0080" stroke-width="1" opacity="0.3" class="drift" />
<path d="M 500.5083820982083 92.16437054631788 L 500.5083820982083 92.16437054631788 L 500.9044214394474 92.19901949898657 L 501.29140697175404 92.30243895808984 L 501.6603997569917 92.47305274765529 L 502.00268937455166 92.70825391575427 L 502.30990513193564 93.00443453328755 L 502.57412365094757 93.35702698786811 L 502.78797167674566 93.76055635323404 L 502.9447230038072 94.20870330162808 L 503.03838847054624 94.69437691865582 L 503.06379804234604 95.20979667831655 L 503.01667408050514 95.74658274116231 L 502.8936949813087 96.29585365179645 L 502.69254846432943 96.8483304340089 L 502.4119738912357 97.39444601351966 L 502.0517931048953 97.92445884023478 L 501.6129293923839 98.4285695346838 L 501.09741429357615 98.89703934738257 L 500.5083820982083 99.32030919561922 L 499.8500519975031 99.68911802986078 L 499.12769798048885 99.99461928177529 L 498.3476066888465 100.22849415780153 L 497.5170235663082 100.3830605662064 L 496.6440877581478 100.45137650146353 L 495.7377563320074 100.42733675727503 L 494.8077185020792 100.30576189823704 L 493.8643006434502 100.08247848951443 L 492.9183629811945 99.7543896633317 L 491.981188928612 99.31953518990355 L 491.0643681299821 98.77714031782769 L 490.17967433451184 98.12765275406899 L 489.33893928909896 97.37276726552984 L 488.5539238874614 96.51543750180898 L 487.83618785159115 95.55987476102928 L 487.19695924793075 94.511533546441 L 486.6470051548398 93.37708388972226 L 486.19650479960563 92.16437054631788 L 485.8549264723616 90.88235929757613 L 485.63090950083927 89.54107072265087 L 485.53215253402436 88.15150192893171 L 485.56530933477467 86.72553685195403 L 485.73589322164435 85.27584585316657 L 486.0481912290333 83.81577545546632 L 486.5051889729074 82.35922916097577 L 487.10850711741415 80.92054039211185 L 487.8583502365186 79.5143386846282 L 488.7534687551747 78.15541033912399 L 489.7911345374855 76.85855480470987 L 490.96713056580654 75.63843812440359 L 492.2757550259055 74.50944481579023 L 493.7098399802535 73.48552959202583 L 495.2607846754725 72.58007034700046 L 496.91860339213764 71.80572383412864 L 498.6719876067674 71.17428546064559 L 500.5083820982083 70.69655459841388 L 502.4140744949866 70.3822067781674 L 504.37429762782284 70.23967408703716 L 506.3733439236189 70.2760350294337 L 508.39469095503586 70.49691503933909 L 510.4211371444504 70.90639874833559 L 512.4349465137105 71.50695501892503 L 514.4180012727634 72.29937564763515 L 516.3519609518622 73.28272852792611 L 518.2184267045739 74.45432593995231 L 519.9991093429998 75.80970850383636 L 521.6759996131981 77.34264519638212 L 523.2315391783404 79.04514968926543 L 524.6487907501543 80.90751312092426 L 525.9116057960455 82.91835326589934 L 527.004788250226 85.06467991555772 L 527.9142526723092 87.33197613429968 L 528.6271753261843 89.70429490684045 L 529.1321366954136 92.16437054631788 L 529.4192540086626 94.69374409113271 L 529.4803024194007 97.27290178187994 L 529.3088235677927 99.88142557975284 L 528.9002203487322 102.49815456560921 L 528.2518368176089 105.10135594565082 L 527.3630222838191 107.66890428647075 L 526.2351787702728 110.17846751008594 L 524.8717911541977 112.60769809941976 L 523.2784394492497 114.9344278973593 L 521.4627928401378 117.13686482870699 L 519.434585237357 119.19378983468947 L 517.2055722799114 121.08475228466789 L 514.7894698766927 122.79026211968218 L 512.2018745410907 124.29197698770022 L 509.4601659369929 125.57288265103585 L 506.583392216174 126.61746498233043 L 503.5921388857223 127.41187191659776 L 500.5083820982083 127.94406379282455 L 497.35532740535695 128.20395059907597 L 494.15723515669873 128.18351472942192 L 490.93923385674896 127.87691796860261 L 487.72712291645325 127.28059154038698 L 484.54716634578455 126.39330818713682 L 481.4258790334048 125.21623539014647 L 478.38980734522727 123.75296899176423 L 475.4653058456585 122.00954663990491 L 472.67831200249094 119.99444064203519 L 470.0541207782216 117.71852998769529 L 467.61716103645495 115.19505147467964 L 465.39077570164045 112.43953005267164 L 463.39700760342566 109.46968867789312 L 461.6563929132808 106.3053381516639 L 460.18776404079006 102.96824759312685 L 459.00806380028405 99.48199637023113 L 458.13217258562463 95.87180848186838 L 457.5727502024003 92.1643705463179 L 457.34009390314645 88.38763470543002 L 457.44201405319257 84.57060789886077 L 457.8837287232233 80.74312909683408 L 458.66777836059407 76.93563620209912 L 459.793961535971 73.17892444080334 L 461.2592925961619 69.50389815686364 L 463.0579818793801 65.9413180041239 L 465.18143896702367 62.52154559432017 L 467.6182992578151 59.27428770592467 L 470.354473957383 56.228342188733535 L 473.3732233806336 53.411347711182735 L 476.6552532672039 50.84953949153216 L 480.1788336135422 48.567513130116915 L 483.91993933039856 46.587998617845244 L 487.85241184337497 44.93164653619938 L 491.9481405683475 43.616828386482005 L 496.17726301462125 42.65945289143042 L 500.5083820982083 42.072800001208556 L 504.9087990871327 41.86737420895222" fill="none" stroke="#4a0080" stroke-width="1" opacity="0.3" class="drift" />
<circle cx="348.81710137808443" cy="134.6603849323302" r="1.648270309130433" fill="white" opacity="0.6816730783983642"  style="animation-delay: 2.2886008668284177s" />
<circle cx="549.5543575331134" cy="198.83251529800688" r="1.553716519773955" fill="white" opacity="0.38540249431456314"  style="animation-delay: 2.4270974646994112s" />
<circle cx="565.0301825997174" cy="101.078088014797" r="1.0872579190827345" fill="white" opacity="0.4644638708138344" class="shimmer" style="animation-delay: 0.907929336545894s" />
<circle cx="569.6799084615243" cy="92.0823795653705" r="1.43742442626567" fill="white" opacity="0.4921320916040491"  style="animation-delay: 3.17574062521368s" />
<circle cx="364.58899543715313" cy="96.98652421022933" r="1.430593953258501" fill="white" opacity="0.6844899188296001"  style="animation-delay: 2.202225637307742s" />
<circle cx="221.96034904986934" cy="180.698080412095" r="1.4058801942784331" fill="white" opacity="0.3799291411977381" class="shimmer" style="animation-delay: 4.970173881327868s" />
<circle cx="177.66751584062135" cy="165.8258694115439" r="0.908293126996037" fill="white" opacity="0.7030330344582374" class="shimmer" style="animation-delay: 0.48044628233810616s" />
<circle cx="133.77923818231992" cy="54.233657497817944" r="0.8407235742840676" fill="white" opacity="0.4493413086006423"  style="animation-delay: 1.094677686449611s" />
<circle cx="511.5882723812978" cy="199.7012946897319" r="0.9016061001195169" fill="white" opacity="0.43981156728301224" class="shimmer" style="animation-delay: 1.7020307824341852s" />
<circle cx="671.9677715419259" cy="27.763358099942703" r="0.9796126104319198" fill="white" opacity="0.7605904131371062"  style="animation-delay: 4.898978141857299s" />
<circle cx="171.06067230362" cy="20.447965549347515" r="0.7869051893235433" fill="white" opacity="0.60241491398684" class="shimmer" style="animation-delay: 2.859852295355765s" />
<circle cx="84.15823665671437" cy="137.7778344648845" r="1.3985817199102604" fill="white" opacity="0.5337784715626399"  style="animation-delay: 2.1012747917923447s" />
<circle cx="487.2049837427817" cy="98.35235006989964" r="1.7938717418482084" fill="white" opacity="0.5190273387224345"  style="animation-delay: 3.0323211829575056s" />
<circle cx="306.4394509108071" cy="11.87677294838525" r="1.6381209522984563" fill="white" opacity="0.5591007419620528"  style="animation-delay: 1.9955490367444573s" />
<circle cx="636.3288078990663" cy="195.6498704744653" r="1.994934882216047" fill="white" opacity="0.7427503899152423" class="shimmer" style="animation-delay: 4.626736639139327s" />
<circle cx="453.2643911789707" cy="164.851824838296" r="1.1988075747795635" fill="white" opacity="0.7748799319916342" class="shimmer" style="animation-delay: 4.163613065612291s" />
<circle cx="430.89663383602306" cy="143.21882534991047" r="0.8077566694982597" fill="white" opacity="0.5865994581532006"  style="animation-delay: 3.442913012268277s" />
<circle cx="167.68761550074737" cy="185.18322491095068" r="1.6269700105503442" fill="white" opacity="0.5270619704327277"  style="animation-delay: 1.8606997426682825s" />
<circle cx="149.46680248486146" cy="31.076177148475857" r="0.6764511024032686" fill="white" opacity="0.5043816549136007"  style="animation-delay: 4.63475516197199s" />
<circle cx="673.4445878898074" cy="144.51264163573006" r="0.7186732214124585" fill="white" opacity="0.6050266769357608" class="shimmer" style="animation-delay: 3.5029959115803377s" />
<circle cx="365.9504602680169" cy="64.16839468986586" r="0.5882706326608335" fill="white" opacity="0.3381082188695876" class="shimmer" style="animation-delay: 4.989153225048485s" />
<circle cx="481.47406238287704" cy="124.9972815263956" r="0.7404266313382688" fill="white" opacity="0.6673087141847496"  style="animation-delay: 4.601062760763927s" />
<circle cx="429.2218084521538" cy="180.56784923341692" r="0.7943467546291781" fill="white" opacity="0.5066843791386901"  style="animation-delay: 4.304153077808738s" />
<circle cx="727.0742763362907" cy="143.8105952828789" r="1.5548938322111363" fill="white" opacity="0.45876244719117215"  style="animation-delay: 1.8989515577082927s" />
<circle cx="31.13376853124219" cy="50.76656715993737" r="1.2453471204912976" fill="white" opacity="0.3986675735924265"  style="animation-delay: 0.2596344140950557s" />
<circle cx="731.9383464635772" cy="130.38960113956955" r="1.2179392359796601" fill="white" opacity="0.3883527793621652" class="shimmer" style="animation-delay: 2.345982592717699s" />
<circle cx="168.55043202865704" cy="31.20311293837643" r="0.8067045479160982" fill="white" opacity="0.5027171652390456" class="shimmer" style="animation-delay: 3.150981809072678s" />
<circle cx="322.4015838310551" cy="192.8022668430436" r="0.761342061778598" fill="white" opacity="0.748639574377141" class="shimmer" style="animation-delay: 3.235924547949356s" />
<circle cx="619.7490238701461" cy="84.20505600092811" r="1.831508512600571" fill="white" opacity="0.36302311234091184"  style="animation-delay: 0.3948060642655582s" />
<circle cx="304.65663263930463" cy="195.99279310401178" r="1.7877820584139474" fill="white" opacity="0.6428429446004083"  style="animation-delay: 3.434955083499054s" />
<circle cx="124.98504208851173" cy="191.33819311740012" r="0.6904413017390092" fill="white" opacity="0.6228360805762057"  style="animation-delay: 0.36998232928461605s" />
<circle cx="86.94130644696187" cy="57.720953296418955" r="0.6429535669749766" fill="white" opacity="0.4562339898122468"  style="animation-delay: 1.8432057718628425s" />
<circle cx="523.2392992088144" cy="135.78329877837402" r="0.6709021494255001" fill="white" opacity="0.5837391264110092"  style="animation-delay: 0.7976506126174543s" />
<circle cx="83.07472579991727" cy="92.80446214024738" r="1.5546463501850551" fill="white" opacity="0.5113878166587214" class="shimmer" style="animation-delay: 0.9117648424808544s" />
<circle cx="298.7815965108453" cy="25.01750748746643" r="0.8212972199290055" fill="white" opacity="0.5386592737999918"  style="animation-delay: 4.054801367648633s" />
<circle cx="312.13568087099884" cy="179.9961874364281" r="1.03360811522438" fill="white" opacity="0.5099455906025865" class="shimmer" style="animation-delay: 0.6253921951371566s" />
<circle cx="599.7256236405443" cy="18.8584454180738" r="0.7940717791055166" fill="white" opacity="0.5358308254078195" class="shimmer" style="animation-delay: 0.9238193556605212s" />
<circle cx="649.130687226153" cy="26.310843355030933" r="0.6572627346718997" fill="white" opacity="0.43623588803476926" class="shimmer" style="animation-delay: 4.150362101063086s" />
<circle cx="677.7627264572395" cy="123.44018394254235" r="0.8579925568624069" fill="white" opacity="0.729668158141304"  style="animation-delay: 1.4674538592577424s" />
<circle cx="293.6341096320179" cy="101.10479814419739" r="1.8771859795709391" fill="white" opacity="0.6361306288777939"  style="animation-delay: 4.948422453373473s" />
<circle cx="746.437334872711" cy="78.05701349221023" r="2.7065471031454775" fill="#c77dff" opacity="0.8" filter="url(#glow)" class="shimmer" style="animation-delay: 2.6812683262147674s" />
<circle cx="115.16955885204432" cy="83.93716024271023" r="2.3489808766224756" fill="#9d4edd" opacity="0.8" filter="url(#glow)" class="shimmer" style="animation-delay: 1.7195654581265396s" />
<circle cx="553.1169258551799" cy="59.52082708716438" r="2.6559679947318147" fill="#7b2cbf" opacity="0.8" filter="url(#glow)" class="shimmer" style="animation-delay: 0.0011177845250878171s" />
<circle cx="390.54929105780917" cy="175.58912300758328" r="1.6371528633997166" fill="#7b2cbf" opacity="0.8" filter="url(#glow)" class="shimmer" style="animation-delay: 1.9224227733966626s" />
<circle cx="515.9383162614711" cy="161.5404561015777" r="1.6049771669346558" fill="#9d4edd" opacity="0.8" filter="url(#glow)" class="shimmer" style="animation-delay: 2.3736380071957672s" />
<circle cx="148.60358761259178" cy="177.48446522131792" r="1.60516870192729" fill="#4a0080" opacity="0.8" filter="url(#glow)" class="shimmer" style="animation-delay: 0.10816644521590613s" />
<circle cx="142.28202608346425" cy="137.5393767556115" r="1.5499009749917172" fill="#9d4edd" opacity="0.8" filter="url(#glow)" class="shimmer" style="animation-delay: 0.29944533617578917s" />
<circle cx="519.2717763386918" cy="15.888087073721247" r="2.657801008135732" fill="#9d4edd" opacity="0.8" filter="url(#glow)" class="shimmer" style="animation-delay: 2.737756590198255s" />
<line x1="482.40737825735187" y1="99.60920471919223" x2="639.5901978345091" y2="126.06246281840703" stroke="#e0aaff" stroke-width="0.5" opacity="0.3" />
<line x1="639.5901978345091" y1="126.06246281840703" x2="247.394470135256" y2="44.30638536684228" stroke="#e0aaff" stroke-width="0.5" opacity="0.3" />
<line x1="247.394470135256" y1="44.30638536684228" x2="304.9817254510257" y2="49.779030595496394" stroke="#e0aaff" stroke-width="0.5" opacity="0.3" />

  
    <text x="400" y="120" text-anchor="middle" class="name-text" fill="url(#textGrad)" filter="url(#textGlow)">
      JOEL HOOKS
    </text>
  
</svg>
