<svg xmlns="http://www.w3.org/2000/svg" viewBox="0 0 800 200" width="800" height="200">
  <rect width="800" height="200" fill="#05010d"/>
  
    <defs>
      <linearGradient id="grad1" x1="0%" y1="0%" x2="100%" y2="100%">
        <stop offset="0%" style="stop-color:#4a0080;stop-opacity:0.8" />
        <stop offset="100%" style="stop-color:#7b2cbf;stop-opacity:0.8" />
      </linearGradient>
      <linearGradient id="grad2" x1="100%" y1="0%" x2="0%" y2="100%">
        <stop offset="0%" style="stop-color:#9d4edd;stop-opacity:0.7" />
        <stop offset="100%" style="stop-color:#c77dff;stop-opacity:0.7" />
      </linearGradient>
      <linearGradient id="textGrad" x1="0%" y1="0%" x2="100%" y2="0%">
        <stop offset="0%" style="stop-color:#4a0080" />
        <stop offset="25%" style="stop-color:#7b2cbf" />
        <stop offset="50%" style="stop-color:#9d4edd" />
        <stop offset="75%" style="stop-color:#c77dff" />
        <stop offset="100%" style="stop-color:#e0aaff" />
      </linearGradient>
      <filter id="glow">
        <feGaussianBlur stdDeviation="5" result="coloredBlur"/>
        <feMerge>
          <feMergeNode in="coloredBlur"/>
          <feMergeNode in="SourceGraphic"/>
        </feMerge>
      </filter>
      <filter id="textGlow">
        <feGaussianBlur stdDeviation="2" result="coloredBlur"/>
        <feMerge>
          <feMergeNode in="coloredBlur"/>
          <feMergeNode in="SourceGraphic"/>
        </feMerge>
      </filter>
    </defs>
  
  
    <style>
      @keyframes float {
        0%, 100% { transform: translateY(0px); }
        50% { transform: translateY(-8px); }
      }
      @keyframes pulse {
        0%, 100% { opacity: 0.4; }
        50% { opacity: 0.9; }
      }
      @keyframes drift {
        0% { transform: translateX(0px); }
        50% { transform: translateX(10px); }
        100% { transform: translateX(0px); }
      }
      @keyframes shimmer {
        0% { opacity: 0.3; }
        50% { opacity: 1; }
        100% { opacity: 0.3; }
      }
      @keyframes glitch {
        0%, 100% { transform: translateX(0); }
        20% { transform: translateX(-2px); }
        40% { transform: translateX(2px); }
        60% { transform: translateX(-1px); }
        80% { transform: translateX(1px); }
      }
      @keyframes dataStream {
        0% { stroke-dashoffset: 0; }
        100% { stroke-dashoffset: -20; }
      }
      .float { animation: float 8s ease-in-out infinite; }
      .pulse { animation: pulse 8s ease-in-out infinite; }
      .drift { animation: drift 8s ease-in-out infinite; }
      .shimmer { animation: shimmer 3s ease-in-out infinite; }
      .glitch { animation: glitch 0.5s ease-in-out infinite; }
      .dataStream { animation: dataStream 2s linear infinite; }
      .name-text { 
        font-family: -apple-system, BlinkMacSystemFont, 'Segoe UI', Helvetica, Arial, sans-serif;
        font-weight: 700;
        font-size: 64px;
        letter-spacing: -2px;
      }
    </style>
  
  <path d="M 116.67457127419239 143.22718322712933 C 113.77923448510887 151.99815023834242, 92.96942911192173 150.64044997133692, 89.07513222742999 163.95792435045712 C 85.18083534293825 177.27539872957732, 101.01307219628514 210.39552197718135, 93.30878996724198 223.13202950185047 C 85.60450773819882 235.8685370265196, 53.405351695990504 248.53114253778077, 42.849438853171044 240.3769694984718 C 32.293526010351584 232.22279645916282, 42.05632290644719 186.16716649218853, 29.97331291032523 174.20699126599658 C 17.89030291420327 162.24681603980463, -17.53172319960523 178.65075431077094, -29.6486211235607 168.61591814132015 C -41.76551904751617 158.58108197186937, -53.03065671833774 122.97081450316169, -42.72807463340757 113.9979742492918 C -32.42549254847741 105.02513399542191, 16.40222914220716 115.65425765688748, 32.166871386020276 114.7788766181008 C 47.93151362983339 113.90349557931411, 43.24220780333269 113.87793860162336, 51.859778829471104 108.7456880165717 C 60.47734985560952 103.61343743152005, 74.77440185410744 83.55430073002306, 83.87229754285076 83.98537310779088 C 92.97019323159408 84.4164454855587, 100.9801073400408 101.45848726328884, 106.44715296193107 111.33212228317859 C 111.91419858382133 121.20575730306834, 119.5699080632759 134.45621621591624, 116.67457127419239 143.22718322712933 Z" fill="#9d4edd" opacity="0.16853291655962363" filter="url(#glow)" class="float" />
<path d="M 274.1370358166346 160.4104990200796 C 279.5889214541355 180.0752040755623, 307.2073183562002 224.76548058712925, 298.2585344938337 233.12863986947087 C 289.3097506314672 241.4917991518125, 243.20059561046676 208.31133620418063, 220.4443326424355 210.58945471412935 C 197.68806967440426 212.86757322407806, 173.92741747329583 251.2544507526646, 161.72095668564623 246.7973509291631 C 149.51449589799662 242.34025110566157, 155.01982714918483 204.11435340520467, 147.20556791653794 183.84685577312024 C 139.39130868389105 163.5793581410358, 108.2030231392667 136.19884912195613, 114.83540128976496 125.19236513665643 C 121.46777944026321 114.18588115135674, 168.26837697376652 126.70980777964724, 186.99983681952747 117.80795186132207 C 205.73129666528843 108.9060959429969, 214.13292972278055 72.22582001416335, 227.2241603643307 71.78122962670544 C 240.31539100588083 71.33663923924753, 257.7284080934443 100.36886463767895, 265.54722066882823 115.14040953657465 C 273.3660332442122 129.91195443547034, 268.68515017913364 140.7457939645969, 274.1370358166346 160.4104990200796 Z" fill="#e0aaff" opacity="0.12173134171009481" filter="url(#glow)" class="float" />
<path d="M 547.287410481738 77.14342577706725 C 542.260516821519 102.46505352219728, 529.8416445088634 123.2168504761052, 514.9096168147051 140.45411516368586 C 499.97758912054695 157.69137985126653, 475.93721709327093 181.30352475316295, 457.6952443167887 180.56701390255125 C 439.4532715403065 179.83050305193956, 421.8423965801687 148.4150513204879, 405.45778015581175 136.0350500600157 C 389.07316373145477 123.65504879954348, 372.2294802239593 122.83892337174333, 359.3875457706468 106.28700633971799 C 346.5456113173343 89.73508930769265, 324.0544101731337 57.15793804706243, 328.4061734359367 36.723547867863665 C 332.7579366987397 16.289157688664897, 364.8987207274147 -11.19948030976289, 385.4981253474647 -16.319334735474627 C 406.0975299675147 -21.439189161186363, 425.40712558481096 5.1971407421965425, 452.00260115623666 6.004421313593255 C 478.5980767276624 6.811701884989968, 529.1901772217689 -23.332152051006688, 545.070978776019 -11.475651307094353 C 560.9517803302692 0.38084943681798045, 552.314304141957 51.82179803193722, 547.287410481738 77.14342577706725 Z" fill="#9d4edd" opacity="0.1472186421042911" filter="url(#glow)" class="float" />
<path d="M 672.0818533790787 16.744912450601923 C 666.2139240973107 32.38270395315283, 684.6195842530478 41.7683041799518, 680.9723037366383 48.88695506993717 C 677.3250232202288 56.00560595992255, 662.1068028803544 55.24528317179623, 650.1981702806218 59.45681779051418 C 638.2895376808891 63.66835240923213, 622.0483984542889 77.17189365619039, 609.5205081382422 74.15616278224488 C 596.9926178221956 71.14043190829936, 582.4333545789077 55.63599067472043, 575.0308283843417 41.36243254684112 C 567.6283021897757 27.088874418961808, 557.3620447916102 -1.2692110229607465, 565.1053509708465 -11.485185985031002 C 572.8486571500829 -21.701160947101258, 606.0178460151408 -10.199956315630006, 621.4906654597596 -19.933417225580413 C 636.9634849043784 -29.666878135530823, 642.160731977312 -65.71822199143547, 657.9422676385598 -69.88595144473345 C 673.7238032998075 -74.05368089803143, 713.8232818038259 -59.37827126125749, 716.1798794272457 -44.93979394536826 C 718.5364770506656 -30.501316629479028, 677.9497826608466 1.1071209480510174, 672.0818533790787 16.744912450601923 Z" fill="#c77dff" opacity="0.1207611240403225" filter="url(#glow)" class="float" />
<path d="M 639.354686347143 56.62458013053322 L 639.354686347143 56.62458013053322 L 639.755766284471 56.6596700782171 L 640.1476771803904 56.76440580988922 L 640.5213663263083 56.93719108877614 L 640.8680124396199 57.17538578293317 L 641.1791382897239 57.4753360432945 L 641.4467196535214 57.83241612312447 L 641.6632894329692 58.24108141396293 L 641.8220358146726 58.69493215872282 L 641.9168934099104 59.186787193300596 L 641.94262638238 59.7087669649453 L 641.8949026496754 60.2523849796887 L 641.7703583323255 60.80864674329009 L 641.5666517203223 61.36815518124379 L 641.2825061305429 61.921221454202126 L 640.9177411383577 62.45798002636013 L 640.473291781991 62.968506796512216 L 639.951215457769 63.442939065108014 L 639.354686347143 63.871596086080736 L 638.6879773411492 64.24509893976386 L 637.956429553583 64.55448846300696 L 637.1664096394426 64.7913399846909 L 636.3252552589432 64.94787363915579 L 635.4412091484411 65.01705906640578 L 634.523342376778 64.99271335604696 L 633.5814674777512 64.86959115134113 L 632.6260422555268 64.64346590000463 L 631.6680651588408 64.31120131883536 L 630.7189632107892 63.87081222919682 L 629.7904735630059 63.321514019027745 L 628.8945198152509 62.66376009348948 L 628.0430843031409 61.899266789653154 L 627.2480776073284 61.031025349732815 L 626.5212065763238 60.06330067120538 L 625.8738421819377 59.001616679585204 L 625.3168885406654 57.85272829946909 L 624.860654436048 56.62458013053322 L 624.5147286660097 55.32625206622959 L 624.2878605154428 53.96789222276923 L 624.187846617993 52.56063767337522 L 624.2214254223746 51.11652360653373 L 624.3941804179789 49.64838164589073 L 624.7104532024939 48.169728182394444 L 625.1732673913534 46.69464367517928 L 625.7842642757298 45.237643975490414 L 626.5436510333061 43.81354481669632 L 627.4501621850528 42.43732069223764 L 628.5010348726863 41.12395941141436 L 629.691998406413 39.88831367950573 L 631.0172784020824 38.74495109323952 L 632.4696156921436 37.70800397457283 L 634.0403000570133 36.7910204847217 L 635.719218683887 36.00681846610148 L 637.4949191198973 35.36734345215298 L 639.354686347143 34.88353226389066 L 641.2846334697565 34.56518357749712 L 643.2698053691109 34.420836799606725 L 645.2942945537585 34.45766052639094 L 647.3413683069423 34.68135178961916 L 649.3936061177261 35.096047208077536 L 651.4330462730555 35.704247066748856 L 653.441340388459 36.506753239761935 L 655.3999145656124 37.50262175717831 L 657.2901357865146 38.689130691161566 L 659.0934820873803 40.061763905016406 L 660.7917150012436 41.61421107011445 L 662.3670527173058 43.338384212029425 L 663.8023423777282 45.22445089953206 L 665.0812299192492 47.260884039734094 L 666.1883258679468 49.43452809094598 L 667.1093655108011 51.730681353073216 L 667.831361897426 54.1331938449776 L 668.342750169333 56.62458013053321 L 668.6335217720818 59.18614631145661 L 668.6953471772958 61.798130266705186 L 668.5216858262776 64.43985408660629 L 668.1078821042028 67.08988752613226 L 667.4512462628902 69.72622118705692 L 666.5511193300626 72.32644803421948 L 665.4089211728959 74.8679517578114 L 664.0281810224396 77.32810041242922 L 662.4145499120494 79.6844436954396 L 660.5757946360864 81.91491217271228 L 658.5217729935239 83.99801671961545 L 656.2643902434205 85.91304641983133 L 653.8175368640848 87.64026315441004 L 651.1970078737419 89.16109111878508 L 648.4204041361878 90.45829952632933 L 645.507016238807 91.51617679341771 L 642.4776916910085 92.32069455271889 L 639.354686347143 92.8596599082708 L 636.1615011079098 93.12285442737476 L 632.922705096767 93.10215845991246 L 629.6637466416124 92.7916594846601 L 626.4107535157442 92.18774330373877 L 623.1903240046787 91.28916703957205 L 620.029310465683 90.09711303258823 L 616.9545971339028 88.6152228912679 L 613.9928740018204 86.84961110777165 L 611.1704086567019 84.80885782097437 L 608.5128180030222 82.50398048290326 L 606.0448418230791 79.94838436287625 L 603.7901201387095 77.15779200458451 L 601.7709763299746 74.15015193341557 L 600.0082079427453 70.94552709293188 L 598.5208870763546 67.56596366903554 L 597.3261721850322 64.03534113640119 L 596.4391330530545 60.37920453270859 L 595.8725906138579 56.62458013053323 L 595.6369731783988 52.799775832990115 L 595.7401905185374 48.934167765953276 L 596.1875271180238 45.057974675545 L 596.9815557577917 41.20202186333468 L 598.1220724448126 37.397496502128334 L 599.6060535259527 33.67569627129938 L 601.4276356514266 30.067773331330848 L 603.5781190679628 26.60447572178405 L 606.0459945311671 23.315888314557277 L 608.8169939313464 20.23117548447064 L 611.8741645288378 17.37832767148764 L 615.1979664953179 14.783914002964494 L 618.76639325832 12.47284312007325 L 622.5551139489446 10.46813430998985 L 626.5376370591831 8.790700984752519 L 630.685494227071 7.459148469196002 L 634.9684428866577 6.489587964542089 L 639.354686347143 5.8954684417005865 L 643.811109702996 5.687428089886232 L 648.303529825927 5.873166802701235 L 652.7969575515887 6.457341026421737" fill="none" stroke="#c77dff" stroke-width="1" opacity="0.3" class="drift" />
<path d="M 323.1470406173171 128.89715694514808 L 323.1470406173171 128.89715694514808 L 323.4593644722497 128.9244817418034 L 323.76454832816415 129.00604021536594 L 324.0555427752491 129.14058936468788 L 324.3254786167876 129.32607329988357 L 324.5677545718531 129.5596467421959 L 324.77612211974423 129.83770758910623 L 324.94476657708026 130.15593821380955 L 325.0683835353867 130.5093550790654 L 325.14224983249363 130.89236616032463 L 325.1622882847137 131.29883559273512 L 325.1251254680708 131.72215488191878 L 325.0281419052334 132.15531995000234 L 324.86951408964137 132.5910132269417 L 324.6482478588913 133.02168994329497 L 324.3642027150161 133.439667734808 L 324.01810677905996 133.83721863192466 L 323.61156216045754 134.20666247900274 L 323.1470406173171 134.54046080889697 L 322.627869480866 134.831310188868 L 322.0582079151385 135.07223405361879 L 321.44301368053846 135.256672050672 L 320.7880006662719 135.37856594223604 L 320.0995875508972 135.4324411360137 L 319.3848380414845 135.41348295485662 L 318.65139322924045 135.3176068014451 L 317.90739668208585 135.1415214288744 L 317.16141297178746 134.8827845906777 L 316.42234040407334 134.53985041385866 L 315.6993187840126 134.11210791531695 L 315.00163310518144 133.59991016493882 L 314.3386140991939 133.00459368684452 L 313.7195366215528 132.328487783032 L 313.15351688006524 131.57491356008597 L 312.6494095329169 130.7481725388517 L 312.21570569467514 129.8535248280843 L 311.8604328898193 128.89715694514808 L 311.5910579848099 127.88613946890125 L 311.41439411122275 126.82837481100874 L 311.33651256420126 125.73253549113058 L 311.3626606226117 124.60799339779322 L 311.49718619012185 123.46474060935603 L 311.74347010032716 122.31330243744107 L 312.10386686448624 121.1646434376563 L 312.5796545679341 120.03006720860287 L 313.1709945414344 118.9211108692654 L 313.8769013472926 117.84943516624767 L 314.69522352773305 116.82671121530969 L 315.6226354656519 115.86450492573103 L 316.6546406062485 114.97416019069524 L 317.7855861831235 114.16668195176636 L 319.00868948514034 113.45262026030431 L 320.31607559165275 112.84195646312423 L 321.6988263945851 112.34399263371884 L 323.1470406173171 111.96724535390146 L 324.64990443335967 111.7193449238536 L 326.19577218341715 111.6069410414301 L 327.77225658857344 111.63561594444033 L 329.3663277609816 111.80980595282529 L 330.9644202224813 112.13273228162323 L 332.55254705689856 112.60634192087676 L 334.11642024422406 113.23125929578336 L 335.64157615517627 114.0067493301084 L 337.11350512355284 114.93069243891233 L 338.51778396187416 115.9995718738096 L 339.84021024368934 117.20847373614886 L 341.0669371440155 118.55109986160848 L 342.18460760809955 120.0197936647074 L 343.18048660831624 121.60557891464481 L 344.0425902497528 123.2982112957325 L 344.7598104969646 125.08624248752297 L 345.3220343175336 126.95709638262035 L 345.72025607231257 128.89715694514808 L 345.9466820273989 130.89186710098647 L 345.9948259186587 132.92583794320888 L 345.85959456561676 134.98296743364327 L 345.5373626072573 137.04656768512234 L 345.0260355171716 139.09949981968438 L 344.3251001488698 141.12431531660394 L 343.4356621632157 143.1034026914702 L 342.36046979801347 145.01913828432117 L 341.10392355390593 146.8540398817369 L 339.67207148996954 148.59092185536184 L 338.07258994573147 150.21305046805418 L 336.3147496327311 151.70429797912794 L 334.4093671671299 153.04929417226015 L 332.3687422441301 154.23357393376463 L 330.2065807839715 155.2437195251757 L 327.9379045069029 156.0674962224192 L 325.5789475196406 156.69398003415188 L 323.1470406173171 157.11367626389244 L 320.660484121683 157.31862774401714 L 318.13841018729556 157.30251164411334 L 315.6006356115831 157.06072384103967 L 313.06750628103316 156.59044993270572 L 310.5597344734087 155.89072208133217 L 308.0982303139868 154.96246098398223 L 305.70392875157984 153.80850238758055 L 303.3976134768301 152.43360769150115 L 301.19973925037516 150.84445831208996 L 299.13025414144664 149.0496336191145 L 297.20842319787715 147.05957239297766 L 295.4526550760558 144.88651789243656 L 293.88033315387537 142.544446764333 L 292.5076526310831 140.04898216827073 L 291.34946508969756 137.41729162904136 L 290.4191319424223 134.66797026669465 L 289.728388139526 131.82091018726734 L 289.28721743482384 128.89715694514808 L 289.1037404296607 125.91875410971821 L 289.1841165207282 122.90857708316581 L 289.5324607738336 119.89015742217515 L 290.150776632142 116.88749901255449 L 291.03890524480335 113.92488753186757 L 292.1944920712016 111.0266947099433 L 293.61297127835076 108.21717895999566 L 295.28756830530733 105.52028400334711 L 297.2093208200221 102.95943714785311 L 299.36711814203676 100.55734890362095 L 301.7477590500723 98.3358156291743 L 304.3360277381542 96.31552689660542 L 307.1147875287601 94.51587924537677 L 310.06509179788475 92.95479796129669 L 313.16631141618495 91.64856846993663 L 316.39627786380976 90.6116788726297 L 319.73144103540204 89.8566750785697 L 323.1470406173171 89.39402989890598 L 326.61728979254275 89.23202736870445 L 330.1155699112601 89.37666345093555 L 333.6146346575288 89.83156415407265 L 337.08682214622036 90.5979219623556 L 340.5042732999697 91.67445133630474 L 343.83915478439627 93.05736389175114 L 347.06388472188473 94.74036370964797 L 350.151359360432 96.71466306748164 L 353.07517884496514 98.96901871750006 L 355.8098702245009 101.48978866855381 L 358.3311058298247 104.26100925848814 L 360.61591517314116 107.26449213411075 L 362.642888553418 110.47994058721892 L 364.3923705987859 113.88508452940599 L 365.84664204012046 117.45583322677709 L 366.9900880874591 121.16644475968002 L 367.8093518726828 124.98971102343737 L 368.29347152730804 128.89715694514805 L 368.43399958254804 132.85925246016947 L 368.22510350915326 136.8456356710519 L 367.66364635598444 140.82534550259865 L 366.749246597727 144.76706207036105" fill="none" stroke="#9d4edd" stroke-width="1" opacity="0.3" class="drift" />
<circle cx="517.340539696162" cy="13.798494395298322" r="1.433730453831806" fill="white" opacity="0.5998317648790861"  style="animation-delay: 0.9517424730145552s" />
<circle cx="77.12647378106485" cy="126.56599377139584" r="1.858728831609991" fill="white" opacity="0.5636264623968312"  style="animation-delay: 0.894287117850221s" />
<circle cx="195.26820976697738" cy="139.40931873090975" r="0.5659277192111881" fill="white" opacity="0.6395972208270073"  style="animation-delay: 0.06796294235097533s" />
<circle cx="238.24232913608796" cy="146.40788921416618" r="1.0980994524098393" fill="white" opacity="0.7688267687915302"  style="animation-delay: 3.2712305852082024s" />
<circle cx="506.6881140074427" cy="58.26359538354722" r="1.5922130924948688" fill="white" opacity="0.5148119544992598"  style="animation-delay: 1.5716418002286048s" />
<circle cx="406.8313358868549" cy="84.41538199153875" r="0.8023285626392964" fill="white" opacity="0.3467347808921634"  style="animation-delay: 1.9036911832931958s" />
<circle cx="480.7879385764759" cy="95.35163665951391" r="0.6352546732628648" fill="white" opacity="0.308262503627827" class="shimmer" style="animation-delay: 4.577703596231774s" />
<circle cx="104.89500157211431" cy="127.77584572247184" r="0.769182149270611" fill="white" opacity="0.3460648962060279"  style="animation-delay: 2.073071565012908s" />
<circle cx="530.1343754244833" cy="162.72788232108653" r="1.587810948690668" fill="white" opacity="0.32599637441221047"  style="animation-delay: 2.6883220530824445s" />
<circle cx="474.9185633178744" cy="189.79011993522937" r="1.549389094037633" fill="white" opacity="0.5197468221956891"  style="animation-delay: 1.9341350874040453s" />
<circle cx="90.39230920792747" cy="93.38655549918195" r="1.9774695499314903" fill="white" opacity="0.7999945553290468"  style="animation-delay: 2.3128599978760453s" />
<circle cx="537.3381742839086" cy="197.47102571218522" r="1.6816989695278357" fill="white" opacity="0.37665247398450724" class="shimmer" style="animation-delay: 2.5554599416540102s" />
<circle cx="366.3163009345333" cy="35.83247309566575" r="1.881335085737423" fill="white" opacity="0.3867546111508286"  style="animation-delay: 3.0118284563669673s" />
<circle cx="659.4175716347145" cy="23.96071773129278" r="0.7026576878806957" fill="white" opacity="0.3041724896777053" class="shimmer" style="animation-delay: 0.25230224427786885s" />
<circle cx="217.65883394768738" cy="64.535763472426" r="1.3558057284914695" fill="white" opacity="0.386284444915085"  style="animation-delay: 4.945791759890033s" />
<circle cx="494.5344266775063" cy="37.85310564953326" r="1.8003528927481418" fill="white" opacity="0.4368017216519469"  style="animation-delay: 3.0071904057949017s" />
<circle cx="195.2593689885507" cy="178.75679165705387" r="0.8353403012005018" fill="white" opacity="0.5164645663757312"  style="animation-delay: 0.27445077523036154s" />
<circle cx="631.2926928897998" cy="34.79578276446102" r="0.9661036718349784" fill="white" opacity="0.40177637102052716"  style="animation-delay: 3.830985209504271s" />
<circle cx="5.664724823150458" cy="157.38768694058967" r="1.728329079940881" fill="white" opacity="0.7503874277261111"  style="animation-delay: 3.756653800167645s" />
<circle cx="466.78282751355516" cy="173.21456752223216" r="1.4300378865936194" fill="white" opacity="0.5076961699073981"  style="animation-delay: 3.1270474749933674s" />
<circle cx="226.70822005684315" cy="28.671593604062284" r="1.4649234027062605" fill="white" opacity="0.35136813771826775" class="shimmer" style="animation-delay: 1.3540754990045833s" />
<circle cx="214.64129526799755" cy="186.8124707507326" r="1.670596913766447" fill="white" opacity="0.5812422473508838"  style="animation-delay: 0.402377392039176s" />
<circle cx="271.0845760470166" cy="191.5303400767663" r="1.752748691258616" fill="white" opacity="0.6114847437527444"  style="animation-delay: 0.16301396778636068s" />
<circle cx="652.5810509709039" cy="64.46081493384375" r="1.7740480940311805" fill="white" opacity="0.726932918753348" class="shimmer" style="animation-delay: 1.0470635613975077s" />
<circle cx="281.47971223847446" cy="41.122087386643" r="1.3751450748559875" fill="white" opacity="0.6440514439027536"  style="animation-delay: 0.3800367694451834s" />
<circle cx="746.809606871467" cy="42.34752168249858" r="0.9518343064619431" fill="white" opacity="0.35178534246619014" class="shimmer" style="animation-delay: 3.998322714832987s" />
<circle cx="462.5546701970658" cy="173.35327913420028" r="1.1042963592976178" fill="white" opacity="0.43327699295475613" class="shimmer" style="animation-delay: 3.5717917788041067s" />
<circle cx="223.48229489145712" cy="21.289918770941707" r="1.3068567217338096" fill="white" opacity="0.7636250453020783" class="shimmer" style="animation-delay: 1.2669135962308786s" />
<circle cx="110.28276047432115" cy="196.30328648034583" r="1.076679717559586" fill="white" opacity="0.44736740381678136" class="shimmer" style="animation-delay: 1.6306596690744724s" />
<circle cx="73.13614465747608" cy="174.38587203389596" r="1.636894888945617" fill="white" opacity="0.5289356524402484"  style="animation-delay: 0.24554024111438588s" />
<circle cx="118.41434100921298" cy="10.956124164235437" r="1.129704222505298" fill="white" opacity="0.49004034851383965"  style="animation-delay: 2.2458752450156183s" />
<circle cx="787.5513969773762" cy="54.81731377798531" r="1.9239442263532123" fill="white" opacity="0.48520307467934914"  style="animation-delay: 3.6917714468678273s" />
<circle cx="285.7401582317957" cy="122.6672287480934" r="0.7396176335418326" fill="white" opacity="0.7846157597888326"  style="animation-delay: 4.786613347507043s" />
<circle cx="216.88912228437152" cy="111.95121400265285" r="1.6436317030033343" fill="white" opacity="0.5447808941118346"  style="animation-delay: 4.7657858435656895s" />
<circle cx="368.74112959331455" cy="95.94268754131198" r="0.8328857812191246" fill="white" opacity="0.6469779367904318"  style="animation-delay: 4.0043802539433955s" />
<circle cx="476.41953409960394" cy="10.324820156315573" r="0.6945110627751065" fill="white" opacity="0.3668355874409451"  style="animation-delay: 1.450375013996743s" />
<circle cx="483.9794109193411" cy="194.00387190347192" r="1.3295745135480856" fill="white" opacity="0.3315418939721671" class="shimmer" style="animation-delay: 3.239795573501587s" />
<circle cx="266.269576902342" cy="19.015310007302453" r="1.2761096570795358" fill="white" opacity="0.6261582085679613"  style="animation-delay: 0.5913628199472043s" />
<circle cx="311.84080669269656" cy="58.22303807666933" r="1.2955753234210141" fill="white" opacity="0.5926043584385496"  style="animation-delay: 4.434712461375364s" />
<circle cx="140.5949928377888" cy="106.1087675519901" r="0.592466588774757" fill="white" opacity="0.31641684637384154" class="shimmer" style="animation-delay: 0.05236623618437575s" />
<circle cx="175.40542591689868" cy="185.993262065019" r="1.2469176740047412" fill="#7b2cbf" opacity="0.8" filter="url(#glow)" class="shimmer" style="animation-delay: 1.6246282494095092s" />
<circle cx="509.65761371296594" cy="16.302257534820708" r="1.4157582208766826" fill="#9d4edd" opacity="0.8" filter="url(#glow)" class="shimmer" style="animation-delay: 2.7361626547140734s" />
<circle cx="199.07648759369624" cy="49.84020972768044" r="1.3395362301165394" fill="#e0aaff" opacity="0.8" filter="url(#glow)" class="shimmer" style="animation-delay: 2.995897686166229s" />
<circle cx="381.2994272191544" cy="103.9123058915044" r="2.7420256454469927" fill="#4a0080" opacity="0.8" filter="url(#glow)" class="shimmer" style="animation-delay: 1.7431513354766581s" />
<circle cx="23.716134124031107" cy="67.15380613380782" r="1.6709363530506174" fill="#c77dff" opacity="0.8" filter="url(#glow)" class="shimmer" style="animation-delay: 2.003359174056653s" />
<circle cx="391.242544019747" cy="91.48062792325918" r="1.4678938871120404" fill="#e0aaff" opacity="0.8" filter="url(#glow)" class="shimmer" style="animation-delay: 0.08359688420850464s" />
<circle cx="104.27892734834785" cy="76.30496694154591" r="2.4263188749488136" fill="#9d4edd" opacity="0.8" filter="url(#glow)" class="shimmer" style="animation-delay: 0.6686035755531718s" />
<circle cx="656.3749780165715" cy="35.58551730065878" r="1.5110601772776384" fill="#9d4edd" opacity="0.8" filter="url(#glow)" class="shimmer" style="animation-delay: 0.38917139536910583s" />
<line x1="375.85960532686875" y1="49.212246432388575" x2="541.4849559746342" y2="39.174150251286584" stroke="#e0aaff" stroke-width="0.5" opacity="0.3" />
<line x1="541.4849559746342" y1="39.174150251286584" x2="523.1689619440316" y2="44.89130631801745" stroke="#e0aaff" stroke-width="0.5" opacity="0.3" />
<line x1="641.1648512861418" y1="34.25568432782734" x2="350.3793462595002" y2="118.60549562269892" stroke="#e0aaff" stroke-width="0.5" opacity="0.3" />
<line x1="350.3793462595002" y1="118.60549562269892" x2="114.91519113544051" y2="55.41871609461545" stroke="#e0aaff" stroke-width="0.5" opacity="0.3" />

  
    <text x="400" y="120" text-anchor="middle" class="name-text" fill="url(#textGrad)" filter="url(#textGlow)">
      JOEL HOOKS
    </text>
  
</svg>
