<svg xmlns="http://www.w3.org/2000/svg" viewBox="0 0 800 200" width="800" height="200">
  <rect width="800" height="200" fill="#05010d"/>
  
    <defs>
      <linearGradient id="grad1" x1="0%" y1="0%" x2="100%" y2="100%">
        <stop offset="0%" style="stop-color:#4a0080;stop-opacity:0.8" />
        <stop offset="100%" style="stop-color:#7b2cbf;stop-opacity:0.8" />
      </linearGradient>
      <linearGradient id="grad2" x1="100%" y1="0%" x2="0%" y2="100%">
        <stop offset="0%" style="stop-color:#9d4edd;stop-opacity:0.7" />
        <stop offset="100%" style="stop-color:#c77dff;stop-opacity:0.7" />
      </linearGradient>
      <linearGradient id="textGrad" x1="0%" y1="0%" x2="100%" y2="0%">
        <stop offset="0%" style="stop-color:#4a0080" />
        <stop offset="25%" style="stop-color:#7b2cbf" />
        <stop offset="50%" style="stop-color:#9d4edd" />
        <stop offset="75%" style="stop-color:#c77dff" />
        <stop offset="100%" style="stop-color:#e0aaff" />
      </linearGradient>
      <filter id="glow">
        <feGaussianBlur stdDeviation="5" result="coloredBlur"/>
        <feMerge>
          <feMergeNode in="coloredBlur"/>
          <feMergeNode in="SourceGraphic"/>
        </feMerge>
      </filter>
      <filter id="textGlow">
        <feGaussianBlur stdDeviation="2" result="coloredBlur"/>
        <feMerge>
          <feMergeNode in="coloredBlur"/>
          <feMergeNode in="SourceGraphic"/>
        </feMerge>
      </filter>
    </defs>
  
  
    <style>
      @keyframes float {
        0%, 100% { transform: translateY(0px); }
        50% { transform: translateY(-8px); }
      }
      @keyframes pulse {
        0%, 100% { opacity: 0.4; }
        50% { opacity: 0.9; }
      }
      @keyframes drift {
        0% { transform: translateX(0px); }
        50% { transform: translateX(10px); }
        100% { transform: translateX(0px); }
      }
      @keyframes shimmer {
        0% { opacity: 0.3; }
        50% { opacity: 1; }
        100% { opacity: 0.3; }
      }
      @keyframes glitch {
        0%, 100% { transform: translateX(0); }
        20% { transform: translateX(-2px); }
        40% { transform: translateX(2px); }
        60% { transform: translateX(-1px); }
        80% { transform: translateX(1px); }
      }
      @keyframes dataStream {
        0% { stroke-dashoffset: 0; }
        100% { stroke-dashoffset: -20; }
      }
      .float { animation: float 8s ease-in-out infinite; }
      .pulse { animation: pulse 8s ease-in-out infinite; }
      .drift { animation: drift 8s ease-in-out infinite; }
      .shimmer { animation: shimmer 3s ease-in-out infinite; }
      .glitch { animation: glitch 0.5s ease-in-out infinite; }
      .dataStream { animation: dataStream 2s linear infinite; }
      .name-text { 
        font-family: -apple-system, BlinkMacSystemFont, 'Segoe UI', Helvetica, Arial, sans-serif;
        font-weight: 700;
        font-size: 64px;
        letter-spacing: -2px;
      }
    </style>
  
  <path d="M 149.27712677778086 67.53088745342973 C 155.27506684747232 92.79113294320676, 165.74844203100048 133.62024848294692, 153.45931413043525 156.38489954593567 C 141.17018622987 179.14955060892441, 101.79081296487091 200.87530157128717, 75.54235937438952 204.11879383136218 C 49.29390578390813 207.3622860914372, 21.262594282709873 185.6073413693271, -4.031407412453078 175.84585310638573 C -29.32540910761603 166.08436484344438, -66.12284222573885 163.60235852920675, -76.2216507965882 145.54986425371408 C -86.32045936743754 127.49736997822141, -68.52309153747105 90.70454528745327, -64.62425883754912 67.53088745342974 C -60.725426137627196 44.35722961940621, -61.04840538634703 30.343556724770608, -52.82865459705665 6.507917249572884 C -44.60890380776627 -17.32772222562484, -36.356139813084226 -63.94992720569213, -15.305754101806855 -75.48294939775658 C 5.744631609470517 -87.01597158982105, 51.344088368258696 -76.0746119036522, 73.47365967060759 -62.69021590281386 C 95.60323097295648 -49.305819901975525, 104.83776252775765 -16.88009061876716, 117.47167371228653 4.82342660727344 C 130.1055848968154 26.52694383331404, 143.2791867080894 42.27064196365269, 149.27712677778086 67.53088745342973 Z" fill="#9d4edd" opacity="0.20738078348553218" filter="url(#glow)" class="float" />
<path d="M 417.1978722521718 166.59667549971508 C 417.541366449823 179.21041358859765, 383.93916471445556 190.55931115912472, 373.27360016290186 205.1001407165053 C 362.60803561134816 219.6409702738859, 364.7661800364064 249.29571088423768, 353.2044849428495 253.84165284399865 C 341.64278984929257 258.3875948037596, 316.62149139467283 239.90282763707927, 303.90342960156033 232.37579247507102 C 291.18536780844784 224.84875731306278, 284.23924858020104 217.02365513019166, 276.8961141841747 208.67944187194914 C 269.5529797881483 200.33522861370662, 273.70745215497175 195.1793124845, 259.8446232254021 182.3105129256159 C 245.9817942958324 169.44171336673182, 198.2329459830371 149.58836584481324, 193.7191406067567 131.46664451864453 C 189.2053352304763 113.34492319247582, 215.7425976933497 88.04203719341845, 232.7617909677196 73.58018496860363 C 249.78098424208952 59.11833274378881, 274.5200936111763 46.44976267841015, 295.8343002529762 44.6955311697556 C 317.1485068947761 42.94129966110104, 348.0839750311827 48.93443241443393, 360.6470308185191 63.05479591667631 C 373.2100866058555 77.1751594189187, 361.78749473805254 112.16073225270343, 371.21263497699465 129.4177121832099 C 380.63777521593676 146.67469211371633, 416.8543780545206 153.9829374108325, 417.1978722521718 166.59667549971508 Z" fill="#7b2cbf" opacity="0.1262216029301568" filter="url(#glow)" class="float" />
<path d="M 622.3949734201161 165.3258167953084 C 632.2173846789385 178.02382372670425, 618.9852229877514 215.54823903230965, 605.5420583671917 224.8290361107754 C 592.0988937466319 234.10983318924116, 560.6914880560748 214.59871191859034, 541.7359856967579 221.0105992661029 C 522.780483337441 227.42248661361546, 500.6418859073794 268.35462113486795, 491.8090442112899 263.3003601958508 C 482.97620251520044 258.2460992568337, 500.5214511962194 207.0141241987572, 488.73893552022116 190.68503363200014 C 476.9564198442229 174.35594306524308, 423.247095431496 175.32870983577547, 421.1139501553005 165.3258167953084 C 418.98080487910494 155.32292375484136, 460.35142340613913 135.28271837731202, 475.94006386304784 130.66767538919783 C 491.52870431995655 126.05263240108363, 504.5343894556122 138.5098613791257, 514.6457928967526 137.6355588666232 C 524.757196337893 136.7612563541207, 531.2815181903061 123.58762103821998, 536.6084845098902 125.42186031418284 C 541.9354508294743 127.2560995901457, 532.3098426625529 141.99033510887938, 546.6075908142573 148.64099452240032 C 560.9053389659616 155.29165393592126, 612.5725621612937 152.62780986391257, 622.3949734201161 165.3258167953084 Z" fill="#4a0080" opacity="0.10574706411138698" filter="url(#glow)" class="float" />
<path d="M 178.02188830323615 183.38705976575343 C 185.79221323353124 193.3747989840113, 207.22995903167077 213.43956529358604, 207.24565283966115 228.33133125838367 C 207.26134664765152 243.2230972231813, 190.72711943283204 273.58415853218185, 178.11605115117848 272.7376555545391 C 165.50498286952492 271.8911525768964, 149.3724107849221 225.45825890615058, 131.57924314973974 223.25231339252738 C 113.78607551455738 221.0463678789042, 84.76041716519202 261.93010700708095, 71.35704534008438 259.5019824728 C 57.953673514976735 257.0738579385191, 56.498779957872436 226.16492204907271, 51.15901219909385 208.68356618684172 C 45.819244440315266 191.20221032461072, 30.982437884454015 165.78045641661453, 39.31843878741286 154.613847299414 C 47.6544396903717 143.44723818221348, 85.50776957753376 141.51247958146752, 101.17501761684693 141.6839114836386 C 116.8422656561601 141.8553433858097, 121.68367715822035 160.98833194899294, 133.3219270232919 155.64243871244065 C 144.96017688836343 150.29654547588837, 166.45422076817636 107.48147585825897, 171.00451680727616 109.60855206432494 C 175.55481284637597 111.7356282703909, 159.45414134189735 156.10847799859837, 160.6237032578907 168.40489594883647 C 161.79326517388404 180.70131389907456, 170.25156337294106 173.39932054749556, 178.02188830323615 183.38705976575343 Z" fill="#e0aaff" opacity="0.13583077062767357" filter="url(#glow)" class="float" />
<path d="M 500.98655005667456 133.20606067745257 L 500.98655005667456 133.20606067745257 L 501.4982472945016 133.25082838491997 L 501.99824668178667 133.38445008875152 L 502.4749987852354 133.60488931224558 L 502.9172494245136 133.90877777866257 L 503.31418336036575 134.2914539123404 L 503.65556329988937 134.7470161918933 L 503.9318627295704 135.26839081339884 L 504.13439114715686 135.84741297548095 L 504.2554103379781 136.47492095875612 L 504.2882404292101 137.14086204055545 L 504.2273545560187 137.83440916343181 L 504.068461085556 138.54408716388212 L 503.8085724673829 139.2579072670496 L 503.4460599109095 139.96350846488934 L 502.98069323063964 140.64830432025684 L 502.4136653470662 141.29963367834935 L 501.7476010836203 141.9049137205121 L 500.98655005667456 142.45179376409695 L 500.1359636147941 142.92830819616614 L 499.202655943685 143.32302692857354 L 498.19474961312346 143.62520177737858 L 497.1216060000196 143.82490720056748 L 495.9937411761906 143.91317387443192 L 494.82272799891166 143.88211365031168 L 493.62108528543786 143.72503450922355 L 492.4021550880823 143.43654422152008 L 491.179969212764 143.01264152136318 L 489.9691062399865 142.45079372055196 L 488.7845404118202 141.74999981208717 L 487.64148384060064 140.91083824965622 L 486.55522357378936 139.935498733757 L 485.54095511396196 138.82779748713256 L 484.6136140425051 137.59317566017572 L 483.78770742976894 136.2386806695349 L 483.07714673272847 134.77293043881136 L 482.4950838833858 133.20606067745257 L 482.0537522570744 131.549655501159 L 481.7643141795447 129.81666186277232 L 481.6367165853834 128.0212884251434 L 481.6795563782838 126.1788896653526 L 481.899956966407 124.30583615137253 L 482.3034573541711 122.41937207636747 L 482.89391506602846 120.53746127092542 L 483.67342405902184 118.67862303829641 L 484.6422486501569 116.86175927093491 L 485.7987743430113 115.10597440717929 L 487.1394762867495 113.43038987372313 L 488.6589059411487 111.85395473173435 L 490.349696354774 110.39525430127915 L 492.2025862915496 109.07231857946414 L 494.20646326519335 107.90243229191799 L 496.3484253629016 106.90194842453806 L 498.6138615609027 106.08610707261994 L 500.98655005667456 105.46886141751946 L 503.4487739673812 105.06271259696588 L 505.9814535730454 104.87855517431386 L 508.56429411774184 104.92553483479628 L 511.1759480242195 105.21091984378599 L 513.7941902283508 105.73998769389682 L 516.3961052010818 106.51592824530478 L 518.9582840984922 107.53976452793137 L 521.4570303663946 108.81029222621467 L 523.8685720257993 110.32403870832783 L 526.169278780533 112.07524229322541 L 528.3358820192791 114.05585227223709 L 530.3456957320371 116.25555001860454 L 532.1768363261361 118.66179132995589 L 533.8084393099389 121.25986995688262 L 535.2208708135743 124.03300207721327 L 536.3959319355979 126.96243128198894 L 537.3170539423937 130.0275534472676 L 537.9694824032521 133.20606067745257 L 538.3404484180478 136.47410332257235 L 538.4193251858221 139.80646889551406 L 538.197768270696 143.17677654727788 L 537.669838045617 146.5576856004425 L 536.8321029335185 149.92111649472486 L 535.6837222184668 153.23848236518202 L 534.2265073650708 156.4809293545606 L 532.4649609614977 159.61958365773648 L 530.4062925884064 162.6258032091843 L 528.0604111114656 165.47143185489625 L 525.4398930971805 168.1290537989322 L 522.5599272588447 170.5722460824595 L 519.4382350497674 172.77582684020237 L 516.0949677326895 174.71609708599266 L 512.5525804656719 176.37107380571743 L 508.8356841538288 177.72071218238483 L 504.97087602127266 178.7471148440583 L 500.98655005667456 179.43472611067443 L 496.9126886771417 179.77050931971237 L 492.78063713692245 179.74410543260902 L 488.62286237809116 179.34797126283914 L 484.4726981782397 178.57749582167082 L 480.3640785938062 177.43109344758471 L 476.33126182562296 175.91027256888907 L 472.4085467442761 174.01967914472402 L 468.6299844058268 171.7671140358609 L 465.02908696233567 169.1635237717914 L 461.6385364256457 166.22296440280755 L 458.4898957763198 162.96253835324896 L 455.6133249220233 159.40230442294495 L 453.03730400063654 155.56516131614146 L 450.7883664928586 151.47670530891247 L 448.89084455704455 147.16506289520802 L 447.36662892573344 142.66069947629745 L 446.23494560918226 137.99620537646373 L 445.51215153680835 133.2060606774526 L 445.2115511335282 128.32638056350666 L 445.3432356755092 123.39464305600981 L 445.9139470999229 118.44940119011102 L 446.9269677571805 113.5299818435727 L 448.3820373932542 108.6761735689881 L 450.2752984355938 103.92790590307868 L 452.599270430528 99.32492272976373 L 455.342854244681 94.90645235604092 L 458.4913663997287 90.71087702050663 L 462.02660366075577 86.77540459283848 L 465.92693774558774 83.13574523822274" fill="none" stroke="#9d4edd" stroke-width="1" opacity="0.3" class="drift" />
<path d="M 584.5491927059495 81.3514583792514 L 584.5491927059495 81.3514583792514 L 584.9410222685469 81.38573902401299 L 585.3238942614677 81.48805916548608 L 585.6889647647893 81.65685938197305 L 586.0276159470444 81.88956043265729 L 586.3315660936692 82.18259273963672 L 586.5929760495859 82.53143724286511 L 586.8045509354258 82.93067721289398 L 586.9596360432005 83.37406049451246 L 587.0523058743037 83.85457154760556 L 587.0774453500259 84.36451255081516 L 587.0308223016735 84.89559273985697 L 586.9091504331769 85.43902506652407 L 586.7101420429514 85.98562918732237 L 586.4325498928702 86.52593972308343 L 586.0761977195579 87.05031867344995 L 585.641998995827 87.5490708233971 L 585.1319636668967 88.01256094340779 L 584.5491927059495 88.43133156093367 L 583.8978604554792 88.79622006860265 L 583.1831848436027 89.09847393443353 L 582.4113856868979 89.32986279112937 L 581.589631412217 89.48278620527314 L 580.725974648177 89.55037596276159 L 579.8292772514947 89.52659175379675 L 578.9091254429403 89.40630919880952 L 577.975735831351 89.1853992253172 L 577.039853200887 88.86079788431387 L 576.112641025571 88.43056578266511 L 575.2055657552621 87.89393640434214 L 574.3302759877678 87.25135269731996 L 573.4984777020879 86.5044914136404 L 572.7218067771906 85.65627480649857 L 572.0117000587127 84.71086940918964 L 571.3792662621399 83.67367174524092 L 570.8351580150393 82.5512809459073 L 570.389446342585 81.3514583792514 L 570.0514988898444 80.08307452307231 L 569.8298631511035 78.75604344079252 L 569.7321559410333 77.38124534386984 L 569.7649602950008 75.97043784519244 L 569.9337309266488 74.53615662409176 L 570.2427093004951 73.09160633395541 L 570.6948492963095 71.65054268687548 L 571.2917543510689 70.22714674531557 L 572.0336268641787 68.8358925374806 L 572.9192305431984 67.49140919005805 L 573.9458662514921 66.20833883848213 L 575.1093617970398 65.0011916301607 L 576.4040759741733 63.884199179599236 L 577.8229170383757 62.87116786556561 L 579.3573756596813 61.9753333789763 L 580.9975722638479 61.209217935777865 L 582.7323185335848 60.58449156158737 L 584.5491927059495 60.11183883420456 L 586.4346281678373 59.8008324363925 L 588.3740147205204 59.65981482474143 L 590.351811757661 59.69578926129688 L 592.351672480335 59.914321383375864 L 594.3565781584963 60.31945240416002 L 596.3489813420866 60.91362494288802 L 598.310956827692 61.697622379529584 L 600.2243590992227 62.670522515556016 L 602.0709848844286 63.82966620077229 L 603.8327394039576 65.17064145716292 L 605.4918048368006 66.68728349542732 L 607.0308094859492 68.37169087950055 L 608.4329961013923 70.21425795008807 L 609.6823878045622 72.20372347135117 L 610.7639500592629 74.32723531665324 L 611.6637471490869 76.57043086103765 L 612.3690916503674 78.91753260117801 L 612.8686854326786 81.3514583792514 L 613.1527507755623 83.85394544684799 L 613.2131502601234 86.40568746993446 L 613.0434941769423 88.98648344729285 L 612.639234286752 91.57539739396343 L 611.9977428768315 94.15092752918537 L 611.1183761732219 96.69118360622964 L 610.0025212957531 99.17407093036064 L 608.6536260784596 101.577479531862 L 607.077211221137 103.8794768944388 L 605.2808643873753 106.05850258607431 L 603.2742160191402 108.09356310018434 L 601.0688967965415 109.96442519016013 L 598.6784768325 111.65180597048473 L 596.1183868541763 113.13755806279096 L 593.4058217848776 114.40484808560304 L 590.5596273002753 115.43832682205276 L 587.6001700897317 116.22428945042307 L 584.5491927059495 116.75082428766278 L 581.4296540326442 117.00794857561795 L 578.2655565391543 116.98772993308918 L 575.0817616215782 116.68439220328244 L 571.9037944509109 116.0944045449807 L 568.7576398586284 115.21655274592396 L 565.6695308881301 114.05199187743281 L 562.6657317254736 112.60427955913693 L 559.7723167940015 110.87938926057637 L 557.0149478540537 108.88570323114712 L 554.4186509903118 106.63398482001469 L 552.0075953949347 104.13733012180883 L 549.8048758641318 101.4110990606845 L 547.8323009189255 98.47282620318903 L 546.1101884374831 95.34211176780468 L 544.6571706465596 92.04049347450946 L 543.4900102634842 88.59130004968932 L 542.623429508024 85.01948736874228 L 542.0699536158559 81.35145837925141 L 541.8397703828291 77.61486810023735 L 541.9406071524478 73.83841513634415 L 542.3776265288802 70.05162127854997 L 543.1533419552933 66.28460088388636 L 544.2675541434863 62.56782183454315 L 545.7173091768591 58.93185997059082 L 547.4968789359822 55.407148969408865 L 549.5977643158097 52.02372770796606 L 552.0087215173455 48.810987190647324 L 554.7158115058489 45.797419154798895 L 557.7024725340254 43.010368478154795 L 560.9496154336753 40.475791506524644 L 564.4357411846247 38.21802239643686 L 568.1370800770696 36.25954952585805 L 572.0277515943615 34.62080396682324 L 576.0799439593994 33.3199619371222 L 580.2641121107499 32.37276305457208 L 584.5491927059495 31.792346107475453 L 588.9028345906723 31.58910392937721 L 593.2916430249688 31.770558826085768 L 597.6814358229808 32.3412598491438 L 602.0375094416411 33.302703043668316 L 606.3249129480449 34.65327562099763 L 610.5087277054512 36.388224819251946 L 614.5543505451587 38.49965201920222 L 618.4277781365722 40.97653248029683 L 622.0958902312619 43.804760853939044 L 625.5267294392168 46.96722241981339 L 628.6897751971279 50.44388977796062 L 631.5562096095853 54.21194451613601 L 634.0991728845546 58.24592316053945 L 636.2940061442697 62.517886510044946 L 638.118479471416 66.99761125133342 L 639.5530031477426 71.65280255658926 L 640.5808201573826 76.44932617834311 L 641.1881781594077 81.35145837925137 L 641.3644792825776 86.32215186968291 L 641.1024062587791 91.32331577438293 L 640.3980235890954 96.31610751261263 L 639.2508526264595 101.2612343552695 L 637.6639196599938 106.11926231873403 L 635.6437762968579 110.85092996959416 L 633.2004916560805 115.41746464782725 L 630.3476161137188 119.78089856921156 L 627.1021165679703 123.90438224127203 L 623.4842834247249 127.75249262133349 L 619.5176097366069 131.29153346051174 L 615.2286431599061 134.48982531379613 L 610.6468116220486 137.3179827536471 L 605.8042238154824 139.7491764024985 L 600.7354458501975 141.75937749775608 L 595.4772556047237 143.32758282070841 L 590.0683765125666 144.43601795743837 L 584.5491927059496 145.0703170143919 L 578.9614476098093 145.2196770826332 L 573.3479282347059 144.87698593174485 L 567.7521375562583 144.03892161543553 L 562.2179574896049 142.70602288468828 L 556.7893050690798 140.88272952908636 L 551.5097845247656 138.57739200106883 L 546.422338008007 135.80224991946434 L 541.5688977566521 132.57337929583557 L 536.9900425072206 128.91060857798038 L 532.7246609550527 124.83740385736428 L 528.8096250346073 120.38072383927543 L 525.2794757404957 115.57084542404908 L 522.1661241357633 110.44116099273779 L 519.4985700977755 105.02794872911082 L 517.3026412344066 99.37011753982928 L 515.6007542648285 93.50892835413786 L 514.4117010010087 87.48769379157729 L 513.7504608891268 81.35145837925144 L 513.6280418758138 75.14666167740253 L 514.0513511537921 68.92078683189578 L 515.0230971167271 62.72199721323028 L 516.5417236155857 56.59876392258026 L 518.601377360324 50.59948704499444 L 521.191909053223 44.77211360722638 L 524.2989085756548 39.16375525194215 L 527.9037742805506 33.82030867061657" fill="none" stroke="#7b2cbf" stroke-width="1" opacity="0.3" class="drift" />
<circle cx="195.7105483715031" cy="21.1104976538762" r="1.2505978907572641" fill="white" opacity="0.357903846110552" class="shimmer" style="animation-delay: 0.7048082010430534s" />
<circle cx="156.16722415830696" cy="58.86305260610767" r="1.3364370384113684" fill="white" opacity="0.35908654978750515"  style="animation-delay: 3.052382386382427s" />
<circle cx="166.60649454078342" cy="129.57694649370848" r="0.6491926084210536" fill="white" opacity="0.4269223695887758"  style="animation-delay: 0.8480418860445926s" />
<circle cx="750.4175766175454" cy="74.76314352654718" r="1.878279793539968" fill="white" opacity="0.7626086657319657"  style="animation-delay: 0.7595517112378503s" />
<circle cx="165.1159282522567" cy="43.41395251839262" r="1.3997308500979582" fill="white" opacity="0.4238147041289137"  style="animation-delay: 0.6544355697698645s" />
<circle cx="673.4081065644978" cy="73.57401035861658" r="0.592417751378812" fill="white" opacity="0.6432230134740671"  style="animation-delay: 0.0405864040424031s" />
<circle cx="442.1926618221649" cy="177.2892100263365" r="0.6732613055490682" fill="white" opacity="0.5965475769045288"  style="animation-delay: 4.1479784470227195s" />
<circle cx="123.88938816776935" cy="77.96310335976963" r="0.710926485874506" fill="white" opacity="0.7611908858907439" class="shimmer" style="animation-delay: 0.348549592838997s" />
<circle cx="562.5837601707988" cy="119.48333356349457" r="0.6345872092461784" fill="white" opacity="0.30365870100946885"  style="animation-delay: 2.5156510174654825s" />
<circle cx="305.3622128990174" cy="79.3623094386482" r="0.8423818784999361" fill="white" opacity="0.42537834171930017" class="shimmer" style="animation-delay: 4.636447025147113s" />
<circle cx="137.89734894468336" cy="138.49516958148897" r="1.9930075507090277" fill="white" opacity="0.6025977377622769" class="shimmer" style="animation-delay: 2.259770685244539s" />
<circle cx="95.31774217799835" cy="161.0262069087385" r="0.6726634152587175" fill="white" opacity="0.35472530600707114"  style="animation-delay: 3.5523664556061982s" />
<circle cx="799.2060983026313" cy="69.65418043220133" r="1.3486620566703391" fill="white" opacity="0.5965532315795004"  style="animation-delay: 1.1199553093484893s" />
<circle cx="208.26968407426278" cy="8.542071386598193" r="1.6734667122795068" fill="white" opacity="0.5273704085220545" class="shimmer" style="animation-delay: 3.0285418962403146s" />
<circle cx="705.7218606388867" cy="33.536393960096156" r="0.8312173996208839" fill="white" opacity="0.6103476775646608"  style="animation-delay: 2.0103111023250433s" />
<circle cx="375.09808540361075" cy="184.69843739165017" r="1.6789603885231121" fill="white" opacity="0.7673791612592777"  style="animation-delay: 1.0652892939078795s" />
<circle cx="175.38641760100296" cy="5.957628154065908" r="0.6856807694249868" fill="white" opacity="0.5635810909671111"  style="animation-delay: 4.676354577105501s" />
<circle cx="734.4954023372001" cy="136.67306104514756" r="1.5952469700121" fill="white" opacity="0.6014068933677992"  style="animation-delay: 4.63997295752678s" />
<circle cx="484.12513031026185" cy="6.961786707525208" r="1.0309630841570476" fill="white" opacity="0.35700690096031934"  style="animation-delay: 1.5027785328346521s" />
<circle cx="377.2304689390383" cy="108.03534585088678" r="0.8361195472372744" fill="white" opacity="0.5586861709154152"  style="animation-delay: 0.41250402167446687s" />
<circle cx="608.599789319034" cy="186.49080334421177" r="1.2271479929969165" fill="white" opacity="0.37021602744776355"  style="animation-delay: 0.5659670136132688s" />
<circle cx="432.970114619196" cy="104.99055535395097" r="1.8471770126034683" fill="white" opacity="0.6331599463358122"  style="animation-delay: 3.286710485024791s" />
<circle cx="543.8582110636986" cy="27.80118341130482" r="1.694474269361642" fill="white" opacity="0.3215880016295642"  style="animation-delay: 3.3693069025051923s" />
<circle cx="135.96549483136312" cy="42.63946279688198" r="0.9719425981960552" fill="white" opacity="0.5748405517010291"  style="animation-delay: 1.676656176504745s" />
<circle cx="637.2433731408167" cy="188.37829671583285" r="1.2447232496389147" fill="white" opacity="0.7623916702931157"  style="animation-delay: 4.285099677859774s" />
<circle cx="370.1163536705511" cy="180.2423786138236" r="1.3337729190855234" fill="white" opacity="0.757365714717201"  style="animation-delay: 1.890173287969773s" />
<circle cx="120.16340964289557" cy="55.87809097020377" r="1.90572081002" fill="white" opacity="0.6616293604121959"  style="animation-delay: 0.3787136653159717s" />
<circle cx="73.43976414541444" cy="79.772624649982" r="1.856602415987747" fill="white" opacity="0.6149673693428788" class="shimmer" style="animation-delay: 2.1850789309630523s" />
<circle cx="616.4382978835663" cy="178.54054702133314" r="1.3520345729578394" fill="white" opacity="0.44223028199129116" class="shimmer" style="animation-delay: 1.729726717467731s" />
<circle cx="371.48326877845295" cy="99.28296369222748" r="1.5323457228220634" fill="white" opacity="0.48203373844503256" class="shimmer" style="animation-delay: 1.6663661243490713s" />
<circle cx="664.7798733216707" cy="78.59933128949805" r="1.4589603679717649" fill="white" opacity="0.4994924701584555"  style="animation-delay: 4.4731950889225764s" />
<circle cx="552.2303773352589" cy="185.01335916830882" r="1.9122568387877434" fill="white" opacity="0.6454868266740312"  style="animation-delay: 3.402999795490389s" />
<circle cx="481.15535047888295" cy="29.3441312666181" r="1.5966467312777766" fill="white" opacity="0.7962343915546368" class="shimmer" style="animation-delay: 4.870018848614449s" />
<circle cx="81.3473810643309" cy="192.83240042153423" r="1.5787410732397076" fill="white" opacity="0.7709153314975572"  style="animation-delay: 4.8178127157852355s" />
<circle cx="101.08958778233266" cy="186.93445266237578" r="1.5404663373841612" fill="white" opacity="0.40581785341122295"  style="animation-delay: 2.19297005429968s" />
<circle cx="613.7126453352247" cy="128.43001040430045" r="0.6168472980690741" fill="white" opacity="0.5806156628738635"  style="animation-delay: 2.4586158824342554s" />
<circle cx="135.4708526588542" cy="111.18902796081986" r="1.29457422525009" fill="white" opacity="0.6576201249245079"  style="animation-delay: 3.6713857403427044s" />
<circle cx="411.11617663236314" cy="90.40947666445867" r="1.330696849580009" fill="white" opacity="0.7128329920053194"  style="animation-delay: 4.133330046266509s" />
<circle cx="340.62141627226856" cy="123.93338996842984" r="0.6360332184126173" fill="white" opacity="0.6614432782524682"  style="animation-delay: 2.722767850254776s" />
<circle cx="157.5717926092361" cy="135.17518230291395" r="1.8536013609815702" fill="white" opacity="0.7585449541954254" class="shimmer" style="animation-delay: 2.6432251146353822s" />
<circle cx="600.7360151726825" cy="65.53724003390653" r="1.0991426999081808" fill="#e0aaff" opacity="0.8" filter="url(#glow)" class="shimmer" style="animation-delay: 2.637400790481337s" />
<circle cx="690.4975777026605" cy="179.8552479411235" r="2.539473295030132" fill="#7b2cbf" opacity="0.8" filter="url(#glow)" class="shimmer" style="animation-delay: 2.36186965561436s" />
<circle cx="408.6900224852643" cy="94.68532078842516" r="2.5329895613718207" fill="#4a0080" opacity="0.8" filter="url(#glow)" class="shimmer" style="animation-delay: 0.5193882487249477s" />
<circle cx="627.9122123640494" cy="124.32476241316763" r="2.930162817951298" fill="#9d4edd" opacity="0.8" filter="url(#glow)" class="shimmer" style="animation-delay: 0.626023413047128s" />
<circle cx="289.2434111850889" cy="36.14655208142099" r="2.309865435016998" fill="#e0aaff" opacity="0.8" filter="url(#glow)" class="shimmer" style="animation-delay: 1.9213946498146548s" />
<circle cx="758.3344947354368" cy="12.6543821235781" r="1.70258158022656" fill="#e0aaff" opacity="0.8" filter="url(#glow)" class="shimmer" style="animation-delay: 2.881271643872604s" />
<circle cx="291.9162216584139" cy="113.202052593181" r="2.1331272986935343" fill="#4a0080" opacity="0.8" filter="url(#glow)" class="shimmer" style="animation-delay: 0.7297985619218836s" />
<circle cx="791.9795763656905" cy="45.26240777038666" r="2.1963790335137574" fill="#e0aaff" opacity="0.8" filter="url(#glow)" class="shimmer" style="animation-delay: 0.12565125067345462s" />
<line x1="738.1125653007826" y1="146.97324040226897" x2="348.7346629194017" y2="120.22291129992752" stroke="#e0aaff" stroke-width="0.5" opacity="0.3" />
<line x1="348.7346629194017" y1="120.22291129992752" x2="119.52752721990645" y2="163.63111738679808" stroke="#e0aaff" stroke-width="0.5" opacity="0.3" />
<line x1="119.52752721990645" y1="163.63111738679808" x2="412.83894640634793" y2="139.9316670508528" stroke="#e0aaff" stroke-width="0.5" opacity="0.3" />
<line x1="412.83894640634793" y1="139.9316670508528" x2="464.91410687202745" y2="108.62028772338202" stroke="#e0aaff" stroke-width="0.5" opacity="0.3" />
<line x1="464.91410687202745" y1="108.62028772338202" x2="285.94509528614077" y2="36.749133701076424" stroke="#e0aaff" stroke-width="0.5" opacity="0.3" />

  
    <text x="400" y="120" text-anchor="middle" class="name-text" fill="url(#textGrad)" filter="url(#textGlow)">
      JOEL HOOKS
    </text>
  
</svg>
