<svg xmlns="http://www.w3.org/2000/svg" viewBox="0 0 800 200" width="800" height="200">
  <rect width="800" height="200" fill="#0d1117"/>
  
    <defs>
      <linearGradient id="grad1" x1="0%" y1="0%" x2="100%" y2="100%">
        <stop offset="0%" style="stop-color:#ff6b6b;stop-opacity:0.8" />
        <stop offset="100%" style="stop-color:#feca57;stop-opacity:0.8" />
      </linearGradient>
      <linearGradient id="grad2" x1="100%" y1="0%" x2="0%" y2="100%">
        <stop offset="0%" style="stop-color:#48dbfb;stop-opacity:0.7" />
        <stop offset="100%" style="stop-color:#ff9ff3;stop-opacity:0.7" />
      </linearGradient>
      <linearGradient id="grad3" x1="0%" y1="100%" x2="100%" y2="0%">
        <stop offset="0%" style="stop-color:#ff9ff3;stop-opacity:0.6" />
        <stop offset="100%" style="stop-color:#ff6b6b;stop-opacity:0.6" />
      </linearGradient>
      <linearGradient id="textGrad" x1="0%" y1="0%" x2="100%" y2="0%">
        <stop offset="0%" style="stop-color:#ff6b6b" />
        <stop offset="25%" style="stop-color:#feca57" />
        <stop offset="50%" style="stop-color:#48dbfb" />
        <stop offset="75%" style="stop-color:#ff9ff3" />
        <stop offset="100%" style="stop-color:#ff6b6b" />
      </linearGradient>
      <filter id="glow">
        <feGaussianBlur stdDeviation="3" result="coloredBlur"/>
        <feMerge>
          <feMergeNode in="coloredBlur"/>
          <feMergeNode in="SourceGraphic"/>
        </feMerge>
      </filter>
      <filter id="textGlow">
        <feGaussianBlur stdDeviation="2" result="coloredBlur"/>
        <feMerge>
          <feMergeNode in="coloredBlur"/>
          <feMergeNode in="SourceGraphic"/>
        </feMerge>
      </filter>
    </defs>
  
  
    <style>
      @keyframes float {
        0%, 100% { transform: translateY(0px); }
        50% { transform: translateY(-8px); }
      }
      @keyframes pulse {
        0%, 100% { opacity: 0.4; }
        50% { opacity: 0.9; }
      }
      @keyframes drift {
        0% { transform: translateX(0px); }
        50% { transform: translateX(10px); }
        100% { transform: translateX(0px); }
      }
      @keyframes shimmer {
        0% { opacity: 0.6; }
        50% { opacity: 1; }
        100% { opacity: 0.6; }
      }
      .float { animation: float 6s ease-in-out infinite; }
      .float-delay { animation: float 6s ease-in-out infinite; animation-delay: -3s; }
      .pulse { animation: pulse 4s ease-in-out infinite; }
      .drift { animation: drift 8s ease-in-out infinite; }
      .shimmer { animation: shimmer 3s ease-in-out infinite; }
      .name-text { 
        font-family: -apple-system, BlinkMacSystemFont, 'Segoe UI', Helvetica, Arial, sans-serif;
        font-weight: 700;
        font-size: 64px;
        letter-spacing: -2px;
      }
    </style>
  
  <path class="float" d="M 495.1067584941419 130.24528580302334 C 496.2813481770418 154.99931614709408, 494.3297108150419 196.37150960693282, 475.0292828002139 210.6107238617221 C 455.72885478538586 224.8499381165114, 405.5596690902761 229.07481100820888, 379.3041904051738 215.6805713317591 C 353.04871172007154 202.2863316553093, 317.3797422633056 158.52163867062077, 317.49641068960005 130.24528580302334 C 317.6130791158945 101.9689329354259, 354.92331196073826 57.38224479379541, 380.0042009629406 46.022454126174466 C 405.08508996514297 34.662663458553524, 448.7979851142808 48.04940318448954, 467.98174470281435 62.086541797297684 C 487.16550429134793 76.12368041010583, 493.932168811242 105.4912554589526, 495.1067584941419 130.24528580302334 Z" fill="url(#grad1)" opacity="0.457081430243665" />
<path class="float-delay" d="M 775.2238639290239 102.18806162878784 C 775.0227100445854 116.49084166428243, 774.2810528738717 139.19418739493202, 765.960219679915 144.33968475671367 C 757.6393864859583 149.48518211849532, 736.6823957436235 137.30230229742824, 725.2988647652837 133.06104579947774 C 713.915333786944 128.81978930152724, 704.5735025864419 127.93304964345148, 697.6590338098765 118.89214576901074 C 690.7445650333111 109.85124189457, 679.7242428370396 89.01827329104988, 683.812052105891 78.81562255283325 C 687.8998613747424 68.61297181461661, 708.2933742762093 61.05834434122547, 722.1858894229852 57.67624133971094 C 736.078404569761 54.29413833819641, 758.3274805688727 51.104367828899925, 767.1671429865459 58.523004543746076 C 776.006805404219 65.94164125859223, 775.4250178134623 87.88528159329324, 775.2238639290239 102.18806162878784 Z" fill="url(#grad2)" opacity="0.2208140715614286" />
<path class="float" d="M 299.6471709300633 74.3828754496227 C 302.5989176259956 90.97938026072369, 306.12986796755354 122.23622121214059, 294.14256388530595 135.2765097335039 C 282.15525980305836 148.3167982548672, 246.98037235965924 157.39747912953996, 227.72334643657774 152.62460657780252 C 208.46632051349624 147.8517340260651, 186.32211191461246 124.83147919467748, 178.60040834681692 106.63927442307929 C 170.87870477902138 88.44706965148109, 171.91370119726173 56.22593918242932, 181.39312502980454 43.47137794821333 C 190.87254886234734 30.71681671399734, 219.63712489542255 31.407556531335906, 235.4769513420738 30.111907017783345 C 251.31677778872503 28.816257504230784, 265.7370471117137 28.31898612825806, 276.43208370971195 35.697480866897955 C 287.1271203077102 43.07597560553785, 296.69542423413094 57.78637063852172, 299.6471709300633 74.3828754496227 Z" fill="url(#grad1)" opacity="0.21112544758020305" />
<path class="float-delay" d="M 443.6018074742867 126.25141452595052 C 444.3575250059678 138.5809077224792, 430.23373241337515 154.55022765944105, 419.708990964267 165.5070467105797 C 409.18424951515885 176.46386576171832, 394.03866819571164 191.4922301449182, 380.4533587796378 191.99232883278228 C 366.868049363564 192.49242752064634, 348.3664946429021 179.4644578889028, 338.1971344678242 168.50763883776418 C 328.02777429274624 157.55081978662554, 319.59705644369916 140.49668134441748, 319.4371977291701 126.25141452595054 C 319.2773390146411 112.0061477074836, 327.0686220055719 89.68958809349252, 337.23798218064985 83.03603792696258 C 347.4073423557278 76.38248776043264, 367.46390818071603 84.9144385926967, 380.4533587796378 86.33011352677087 C 393.4428093785596 87.74578846084505, 404.64994432507257 84.87653736487766, 415.1746857741807 91.5300875314076 C 425.69942722328886 98.18363769793754, 442.84608994260566 113.92192132942185, 443.6018074742867 126.25141452595052 Z" fill="url(#grad2)" opacity="0.24558647018685686" />
<path class="float" d="M 707.8474200293645 157.01604173231846 C 709.2496898851581 173.7505171163628, 670.4952673210937 193.83084891063686, 652.1427896355367 211.42627745183245 C 633.7903119499797 229.02170599302804, 614.2030245664258 264.2548875689269, 597.7325539160227 262.58861297949204 C 581.2620832656195 260.9223383900572, 565.0466737826176 219.02405845641889, 553.3199657331178 201.4286299152233 C 541.5932576836179 183.8332013740277, 532.4494029430269 176.89733511729034, 527.3723056190233 157.01604173231846 C 522.2952082950197 137.13474834734657, 511.13067373959615 95.46764630503183, 522.857381789096 82.14086960539194 C 534.5840898385959 68.81409290575205, 577.5872557974095 72.24228894411671, 597.7325539160227 77.05538153447912 C 617.8778520346358 81.86847412484154, 625.3766928152177 97.69264844792657, 643.7291705007747 111.01942514756647 C 662.0816481863317 124.34620184720636, 706.4451501735708 140.2815663482741, 707.8474200293645 157.01604173231846 Z" fill="url(#grad1)" opacity="0.3808815527048395" />
<path class="pulse" d="M -50 85.03309709389757 C -43.333333333333336 67.64306422440478, -36.666666666666664 73.44617208227187, -30 82.32441888467581 C -23.333333333333332 73.6354205109007, -16.666666666666664 67.80948846683407, -10 88.55099368489655 C -3.333333333333333 86.53831635929326, 3.333333333333334 80.13549517253065, 10 98.71090752923823 C 16.666666666666668 84.20636620475642, 23.333333333333336 121.449900039067, 30 109.85135278205578 C 36.666666666666664 99.53822271893065, 43.333333333333336 120.7634981668539, 50 113.06237224546112 C 56.666666666666664 134.77095066629477, 63.333333333333336 131.71062936159788, 70 103.5126147556136 C 76.66666666666667 84.6977921792281, 83.33333333333333 91.14198087638246, 90 109.24845125984334 C 96.66666666666667 112.55229825929733, 103.33333333333333 117.43353367614816, 110 104.20363337671748 C 116.66666666666667 109.4498337187575, 123.33333333333333 84.98938061698314, 130 110.21784890536917 C 136.66666666666666 88.62263857910008, 143.33333333333334 117.79530404273049, 150 112.52983552569907 C 156.66666666666666 92.22045964630644, 163.33333333333334 107.63276528603258, 170 104.57896538533485 C 176.66666666666666 107.81073863374894, 183.33333333333334 97.81393811256665, 190 104.28100720971139 C 196.66666666666666 95.40089554469978, 203.33333333333334 88.6920234804455, 210 112.44287693080778 C 216.66666666666666 111.96307429047629, 223.33333333333334 128.53276838917867, 230 109.11718440971269 C 236.66666666666666 108.17832867991237, 243.33333333333334 96.38515157385724, 250 105.34020861593723 C 256.6666666666667 117.26622468688599, 263.3333333333333 93.70621811033487, 270 113.53864301262631 C 276.6666666666667 95.29598983861734, 283.3333333333333 134.64388505274857, 290 121.67556462505111 C 296.6666666666667 101.37875817832483, 303.3333333333333 116.54282200286804, 310 112.84960149236251 C 316.6666666666667 114.68332836541384, 323.3333333333333 100.35727314368822, 330 118.90510837147535 C 336.6666666666667 110.86076669385521, 343.3333333333333 136.55313996220403, 350 114.81718382392604 C 356.6666666666667 125.18408629508983, 363.3333333333333 108.47478056881367, 370 121.06089122867344 C 376.6666666666667 101.72767409929958, 383.3333333333333 128.57177684544789, 390 129.74916657622427 C 396.6666666666667 111.95942185779111, 403.3333333333333 116.93779067361298, 410 126.48007309027538 C 416.6666666666667 124.04391784736693, 423.3333333333333 124.86088755979264, 430 123.99018831304821 C 436.6666666666667 132.16637016022983, 443.3333333333333 112.05246626035667, 450 126.9038327225687 C 456.6666666666667 110.39547275704666, 463.3333333333333 113.91271315697465, 470 134.88987243645678 C 476.6666666666667 150.96486681504066, 483.3333333333333 135.98603010722698, 490 145.76442925071194 C 496.6666666666667 127.67441551882928, 503.3333333333333 123.25680532678521, 510 143.92063861300855 C 516.6666666666666 145.36679749731172, 523.3333333333334 124.31497936775557, 530 153.69576144462792 C 536.6666666666666 157.13529151553647, 543.3333333333334 162.12932360716349, 550 147.86164133518247 C 556.6666666666666 152.4247733117205, 563.3333333333334 141.946347105174, 570 147.85239825287368 C 576.6666666666666 146.58029806509958, 583.3333333333334 157.44975185340908, 590 139.9539311000998 C 596.6666666666666 141.78143909798328, 603.3333333333334 125.43890000425122, 610 141.0350192550313 C 616.6666666666666 163.41147113047995, 623.3333333333334 161.81397140699195, 630 131.85020023287277 C 636.6666666666666 146.31300567273317, 643.3333333333334 130.9129714163634, 650 137.3453854804713 C 656.6666666666666 132.2470138977261, 663.3333333333334 141.02702339319214, 670 142.3735698503973 C 676.6666666666666 152.48917370760068, 683.3333333333334 136.4502935212748, 690 149.9697038648537 C 696.6666666666666 163.8951748596651, 703.3333333333334 154.96288149307964, 710 150.1170659064304 C 716.6666666666666 133.10711237403305, 723.3333333333334 161.69905565362825, 730 143.8701288337741 C 736.6666666666666 121.785735278979, 743.3333333333334 133.9560535968843, 750 154.0686156523752 C 756.6666666666666 160.52272097666895, 763.3333333333334 152.885021924583, 770 165.06051648725187 C 776.6666666666666 169.79841397682526, 783.3333333333334 181.8846417740275, 790 163.98417577712058 C 796.6666666666666 182.19660913272403, 803.3333333333334 142.58983919819332, 810 154.80267599098306 C 816.6666666666666 170.18378575728144, 823.3333333333334 163.790263833744, 830 164.9871164468634 C 836.6666666666666 157.95521184477468, 843.3333333333334 185.4818321575075, 850 168.13984088830034" fill="none" stroke="#1dd1a1" stroke-width="1.3196461976348566" opacity="0.31267146991567835" stroke-linecap="round" filter="url(#glow)" />
<path class="drift" d="M -50 89.4242624010226 C -43.333333333333336 114.37523143058479, -36.666666666666664 79.28070420443056, -30 97.64088376350904 C -23.333333333333332 104.77036612487453, -16.666666666666664 113.21473072053186, -10 93.75030290500942 C -3.333333333333333 116.69377391278321, 3.333333333333334 103.68619285592357, 10 102.29101011960543 C 16.666666666666668 119.46108434631581, 23.333333333333336 96.20269936839873, 30 92.66014731616853 C 36.666666666666664 94.37626425167514, 43.333333333333336 115.16478156503632, 50 85.50138989312191 C 56.666666666666664 104.97882971603158, 63.333333333333336 89.59358279959457, 70 80.65266760160357 C 76.66666666666667 72.0951186410561, 83.33333333333333 89.19577111664431, 90 87.77382619890784 C 96.66666666666667 92.27220928234809, 103.33333333333333 97.17735368276573, 110 88.73883671190818 C 116.66666666666667 85.5554317009129, 123.33333333333333 90.33381434037943, 130 100.46557370612051 C 136.66666666666666 83.91925846793478, 143.33333333333334 99.37918735782485, 150 98.61220537639218 C 156.66666666666666 80.20560248489093, 163.33333333333334 114.76401892362907, 170 109.33007495625056 C 176.66666666666666 91.55395935390636, 183.33333333333334 110.40798820274063, 190 110.151947773494 C 196.66666666666666 127.52046291331403, 203.33333333333334 110.7887802696936, 210 114.60510865918955 C 216.66666666666666 126.25342145435812, 223.33333333333334 114.44222808289832, 230 123.08718776354482 C 236.66666666666666 98.79028931917138, 243.33333333333334 133.58686937494156, 250 119.3424056177373 C 256.6666666666667 99.15746217623634, 263.3333333333333 97.89069415045415, 270 116.58093665528162 C 276.6666666666667 125.7902585793916, 283.3333333333333 125.09727173864528, 290 116.810054872564 C 296.6666666666667 109.10006868608225, 303.3333333333333 120.00665794921748, 310 113.25613483482248 C 316.6666666666667 134.01303600087334, 323.3333333333333 118.45679227639937, 330 111.59051634908457 C 336.6666666666667 127.31517482220838, 343.3333333333333 121.48757116227017, 350 102.02581170069249 C 356.6666666666667 108.4627808853785, 363.3333333333333 120.15629054723516, 370 107.99347321501025 C 376.6666666666667 121.98924841592031, 383.3333333333333 83.20809824088417, 390 113.94805916296886 C 396.6666666666667 137.52910602722037, 403.3333333333333 118.78563599601188, 410 125.9667384895643 C 416.6666666666667 137.03544983237106, 423.3333333333333 123.65336080406897, 430 136.01520465824527 C 436.6666666666667 133.52186448629155, 443.3333333333333 126.41390095824605, 450 126.23238677405611 C 456.6666666666667 144.15135165280066, 463.3333333333333 111.08193913124371, 470 124.17825122101733 C 476.6666666666667 124.43792959043799, 483.3333333333333 148.93466376053206, 490 127.23164417670954 C 496.6666666666667 126.412873367732, 503.3333333333333 108.92482499287598, 510 133.13288677661046 C 516.6666666666666 115.37315133503844, 523.3333333333334 127.30536147406903, 530 124.48726684256205 C 536.6666666666666 142.69811890575642, 543.3333333333334 133.3367498799441, 550 113.7467906019209 C 556.6666666666666 93.10335446328136, 563.3333333333334 128.254099599185, 570 125.08115974234593 C 576.6666666666666 136.97278707053135, 583.3333333333334 109.6877000146359, 590 123.95518865176697 C 596.6666666666666 139.6680153579865, 603.3333333333334 137.70242223703485, 610 116.29371524456111 C 616.6666666666666 97.63751554901305, 623.3333333333334 96.28252499968704, 630 123.37525632267503 C 636.6666666666666 120.77477005136575, 643.3333333333334 130.98563928323802, 650 126.32916081579982 C 656.6666666666666 134.259212630181, 663.3333333333334 133.49648528168547, 670 135.28329924342353 C 676.6666666666666 128.24827245875224, 683.3333333333334 126.63623607705483, 690 142.15387626227215 C 696.6666666666666 130.89417837992488, 703.3333333333334 126.20791355710642, 710 132.81879695551203 C 716.6666666666666 113.8857220371213, 723.3333333333334 122.58318000479186, 730 130.27544509940913 C 736.6666666666666 134.1225404097949, 743.3333333333334 145.9516879595741, 750 133.03200442183794 C 756.6666666666666 142.97769601409607, 763.3333333333334 143.94749044768685, 770 131.05398318811407 C 776.6666666666666 138.64596066024436, 783.3333333333334 135.49505429987119, 790 125.16535199023627 C 796.6666666666666 145.94310622268367, 803.3333333333334 132.47939558250243, 810 116.18155046918666 C 816.6666666666666 136.50424827460023, 823.3333333333334 102.62865455463819, 830 121.43237098958369 C 836.6666666666666 98.32725079286135, 843.3333333333334 102.20906646138704, 850 128.608859510605" fill="none" stroke="#ff9ff3" stroke-width="2.474295581669991" opacity="0.44269893460207244" stroke-linecap="round" filter="url(#glow)" />
<path class="pulse" d="M -50 153.22645423008237 C -43.333333333333336 165.18515832996476, -36.666666666666664 173.8528944949383, -30 146.3012265271674 C -23.333333333333332 168.1088186813522, -16.666666666666664 134.838205097759, -10 131.6998163885612 C -3.333333333333333 112.72694088513111, 3.333333333333334 103.6527105186359, 10 117.90236399784757 C 16.666666666666668 134.17076932764044, 23.333333333333336 109.97516949993312, 30 118.94362333865685 C 36.666666666666664 99.54571241784281, 43.333333333333336 100.43285096510417, 50 127.53338282418846 C 56.666666666666664 122.49795473110036, 63.333333333333336 113.37734367673866, 70 118.07464184690535 C 76.66666666666667 131.04427163581326, 83.33333333333333 99.79135401955922, 90 106.00823361286302 C 96.66666666666667 81.99848551041842, 103.33333333333333 134.00046654153317, 110 120.0163788960209 C 116.66666666666667 126.23782739319724, 123.33333333333333 137.6729384509844, 130 115.04209778688768 C 136.66666666666666 98.69056599724547, 143.33333333333334 117.39144084674146, 150 109.60701270473653 C 156.66666666666666 90.25017244320142, 163.33333333333334 96.39159415947549, 170 120.45963076322819 C 176.66666666666666 121.8506515397122, 183.33333333333334 116.54562124200564, 190 121.30056346974095 C 196.66666666666666 96.06974112281438, 203.33333333333334 143.59663037037885, 210 126.66654902016198 C 216.66666666666666 127.80081910499462, 223.33333333333334 137.39903637239337, 230 119.30418012808573 C 236.66666666666666 91.58292826692735, 243.33333333333334 137.57044814957482, 250 106.65119530125124 C 256.6666666666667 85.56878520972172, 263.3333333333333 128.5250132526961, 270 100.41203381441112 C 276.6666666666667 124.76199661904744, 283.3333333333333 101.4855895487087, 290 85.78712393946365 C 296.6666666666667 111.07172015273048, 303.3333333333333 111.12652766034131, 310 76.17591020882986 C 316.6666666666667 51.0004705730081, 323.3333333333333 82.5526937822928, 330 78.48111741111362 C 336.6666666666667 94.21525071001317, 343.3333333333333 59.49760087741245, 350 75.2371996461801 C 356.6666666666667 104.43513136115426, 363.3333333333333 64.74343285371826, 370 74.09432178757473 C 376.6666666666667 70.36318342565755, 383.3333333333333 48.16810851297639, 390 80.87439780461638 C 396.6666666666667 72.87265029998923, 403.3333333333333 91.86676514320554, 410 68.70240279224403 C 416.6666666666667 90.44059206897197, 423.3333333333333 76.32026128812275, 430 73.80324392156238 C 436.6666666666667 101.62761612869957, 443.3333333333333 58.659775370376934, 450 84.05616744188976 C 456.6666666666667 64.02542763206328, 463.3333333333333 108.25478682997162, 470 94.88355521920103 C 476.6666666666667 93.63051245944452, 483.3333333333333 114.1619688899576, 490 95.08555383538597 C 496.6666666666667 68.46496517419644, 503.3333333333333 84.40341255252855, 510 88.68305296994195 C 516.6666666666666 61.5079652429827, 523.3333333333334 68.8526253419256, 530 83.31021103475119 C 536.6666666666666 109.3211106603264, 543.3333333333334 103.70727259393367, 550 93.9217088328453 C 556.6666666666666 107.75228447241302, 563.3333333333334 95.4756772343809, 570 88.89384315966564 C 576.6666666666666 94.24581801116203, 583.3333333333334 98.92917903652317, 590 93.88170018768561 C 596.6666666666666 92.10563497713932, 603.3333333333334 64.68744163573061, 610 87.77753754389833 C 616.6666666666666 106.55250241944388, 623.3333333333334 113.22279676194505, 630 85.25867595784099 C 636.6666666666666 105.030007828356, 643.3333333333334 111.96893331675467, 650 88.16478103901123 C 656.6666666666666 64.18252068596423, 663.3333333333334 108.94147058938155, 670 101.87446896302208 C 676.6666666666666 123.36990736858468, 683.3333333333334 117.66653266103096, 690 93.46891719445068 C 696.6666666666666 119.03765436121871, 703.3333333333334 97.36168208759085, 710 96.85363774422898 C 716.6666666666666 118.50521445756837, 723.3333333333334 124.12032150902233, 730 106.89029033890657 C 736.6666666666666 130.80389637338922, 743.3333333333334 102.88697787449019, 750 97.68012845162328 C 756.6666666666666 109.36922760599289, 763.3333333333334 116.22167469425472, 770 99.33180607296853 C 776.6666666666666 115.09013583911901, 783.3333333333334 92.89665425950729, 790 93.29430473760216 C 796.6666666666666 83.78232327087252, 803.3333333333334 97.74898526573621, 810 97.39770111802035 C 816.6666666666666 93.08589954692006, 823.3333333333334 83.29985724012289, 830 86.77556513026613 C 836.6666666666666 110.34004004878119, 843.3333333333334 60.62735633035923, 850 96.34211409611012" fill="none" stroke="#ff9ff3" stroke-width="2.2304551312746987" opacity="0.42708768990894946" stroke-linecap="round" filter="url(#glow)" />
<path class="drift" d="M -50 64.33357639605408 C -43.333333333333336 86.86194665416573, -36.666666666666664 70.93120946885709, -30 61.350770521498 C -23.333333333333332 78.76276813117866, -16.666666666666664 32.25081462795829, -10 71.77825340732801 C -3.333333333333333 65.01970197036707, 3.333333333333334 76.63788494922312, 10 67.82925961876995 C 16.666666666666668 84.35683853876543, 23.333333333333336 64.87996109717336, 30 78.51425950360417 C 36.666666666666664 68.35573244010587, 43.333333333333336 54.99484330386624, 50 70.0826481125198 C 56.666666666666664 78.26678676915239, 63.333333333333336 65.93761741791617, 70 70.81074117487677 C 76.66666666666667 85.97575170817241, 83.33333333333333 73.13097328146682, 90 59.46566874737652 C 96.66666666666667 52.56188886467605, 103.33333333333333 37.297188392549664, 110 69.76404599479056 C 116.66666666666667 82.52031961624132, 123.33333333333333 57.36338121283922, 130 84.42545494991968 C 136.66666666666666 111.92737832558521, 143.33333333333334 108.53398506313309, 150 98.2707189481274 C 156.66666666666666 108.55775735342236, 163.33333333333334 84.81736679717372, 170 84.7698321034598 C 176.66666666666666 101.12927679808887, 183.33333333333334 104.86097729674765, 190 99.10757676196312 C 196.66666666666666 108.80116563540244, 203.33333333333334 84.50064333748381, 210 98.68998755706649 C 216.66666666666666 73.91613650214188, 223.33333333333334 81.99003841717412, 230 91.15610646069734 C 236.66666666666666 74.54462892575259, 243.33333333333334 114.37247570074354, 250 85.92161840175137 C 256.6666666666667 107.16355032585724, 263.3333333333333 89.64880192040914, 270 79.19646474433418 C 276.6666666666667 88.09642978245753, 283.3333333333333 105.70610041855294, 290 90.84650512503889 C 296.6666666666667 64.97907898711946, 303.3333333333333 100.71430625239465, 310 75.70694609916492 C 316.6666666666667 48.72158724861415, 323.3333333333333 102.31959270342102, 330 88.38842381493335 C 336.6666666666667 65.92310813084731, 343.3333333333333 81.55643595583165, 350 78.22227789846359 C 356.6666666666667 102.99909265906939, 363.3333333333333 54.15064673231888, 370 66.51402956514183 C 376.6666666666667 80.85033052236005, 383.3333333333333 85.28250143312755, 390 61.656152104997375 C 396.6666666666667 55.31656704875291, 403.3333333333333 46.021287515226234, 410 72.79982510672288 C 416.6666666666667 44.75590986109724, 423.3333333333333 75.09207814503638, 430 81.89911220842254 C 436.6666666666667 56.182605554456124, 443.3333333333333 72.24505374414329, 450 88.54057313411836 C 456.6666666666667 102.31662854884149, 463.3333333333333 111.10432185371636, 470 83.52790015983935 C 476.6666666666667 58.77872073222454, 483.3333333333333 60.40911659274521, 490 83.04541131058699 C 496.6666666666667 58.02307287234604, 503.3333333333333 78.26160484504743, 510 96.50102650843576 C 516.6666666666666 80.83378596139104, 523.3333333333334 113.79269592387219, 530 90.29762896450949 C 536.6666666666666 71.92397349046593, 543.3333333333334 104.34312622638308, 550 86.45937059115076 C 556.6666666666666 86.80228720725174, 563.3333333333334 60.46719717333246, 570 94.31057932706484 C 576.6666666666666 116.77395397029866, 583.3333333333334 93.04586094244371, 590 103.58044005979401 C 596.6666666666666 126.05596172020321, 603.3333333333334 88.98647780271321, 610 91.75212272369572 C 616.6666666666666 116.4830474725589, 623.3333333333334 92.94078984130903, 630 76.76209287212085 C 636.6666666666666 77.05463999254306, 643.3333333333334 55.77388002158421, 650 67.50137887979415 C 656.6666666666666 49.511081786793376, 663.3333333333334 43.468936097177526, 670 73.73119523780387 C 676.6666666666666 97.87210830185673, 683.3333333333334 48.75863815902056, 690 77.12333517488867 C 696.6666666666666 80.58986282711666, 703.3333333333334 65.75690385784638, 710 64.59768953879566 C 716.6666666666666 37.03105355864686, 723.3333333333334 87.20354543745066, 730 76.0984752449375 C 736.6666666666666 68.14091001821738, 743.3333333333334 55.99083816977749, 750 80.92664524565899 C 756.6666666666666 107.58913687819569, 763.3333333333334 57.627835277960685, 770 71.00788420532359 C 776.6666666666666 80.80655231477292, 783.3333333333334 49.578053819443845, 790 57.86626091512037 C 796.6666666666666 59.65928061678795, 803.3333333333334 38.956277460027124, 810 49.35460119650523 C 816.6666666666666 75.59276450527437, 823.3333333333334 40.641242422667474, 830 40.42857044726555 C 836.6666666666666 23.90349920212225, 843.3333333333334 21.448872317875356, 850 43.1160205893192" fill="none" stroke="#ff9ff3" stroke-width="2.1979130698133056" opacity="0.5925207131748662" stroke-linecap="round" filter="url(#glow)" />
<path class="pulse" d="M -50 163.994465104094 C -43.333333333333336 162.27859975900896, -36.666666666666664 158.83083385843068, -30 174.23474975278793 C -23.333333333333332 191.0222912599378, -16.666666666666664 152.99449985587657, -10 178.24577533604594 C -3.333333333333333 179.92933311963765, 3.333333333333334 169.64793996664582, 10 178.37782316039426 C 16.666666666666668 170.33751347644713, 23.333333333333336 172.0629910206474, 30 175.31852340635382 C 36.666666666666664 185.0712553528632, 43.333333333333336 173.12019279827203, 50 174.51245438077007 C 56.666666666666664 176.79169854224745, 63.333333333333336 180.98374400474094, 70 167.55860250971085 C 76.66666666666667 150.49037360746905, 83.33333333333333 156.83142029536887, 90 170.09806296983967 C 96.66666666666667 189.2924718984072, 103.33333333333333 184.65139298892484, 110 163.1611602782124 C 116.66666666666667 162.60059370282434, 123.33333333333333 173.51678775907692, 130 156.87152346449358 C 136.66666666666666 148.8077787802566, 143.33333333333334 153.09899703905754, 150 154.44076100067764 C 156.66666666666666 138.63152082052113, 163.33333333333334 139.09674465715014, 170 151.26582381251924 C 176.66666666666666 137.18651359137846, 183.33333333333334 131.73604087241466, 190 146.78157033704252 C 196.66666666666666 138.22860915769724, 203.33333333333334 132.21819896582372, 210 156.3396757099909 C 216.66666666666666 169.097342185422, 223.33333333333334 136.26280200932365, 230 152.3789753628389 C 236.66666666666666 155.84100832351555, 243.33333333333334 169.80485255295463, 250 161.74015336821282 C 256.6666666666667 158.57112515284618, 263.3333333333333 181.48063607866226, 270 162.17964602658054 C 276.6666666666667 167.81731938194105, 283.3333333333333 149.43456491469678, 290 164.2190459809692 C 296.6666666666667 159.21430319910857, 303.3333333333333 162.5457216200771, 310 170.64964509404427 C 316.6666666666667 172.29531747186365, 323.3333333333333 158.33439478802518, 330 172.38098380815092 C 336.6666666666667 173.03526243612657, 343.3333333333333 185.2279116111726, 350 175.69030772685755 C 356.6666666666667 168.37974490117622, 363.3333333333333 185.4569430159676, 370 175.55945792592564 C 376.6666666666667 170.58801737290796, 383.3333333333333 186.50187625534372, 390 178.98657844193033 C 396.6666666666667 191.069853982894, 403.3333333333333 178.98527792699122, 410 189.4039874396289 C 416.6666666666667 210.20053111865036, 423.3333333333333 169.2519736330315, 430 179.94477759771598 C 436.6666666666667 167.66831727326272, 443.3333333333333 165.28109659012688, 450 190.49581839235512 C 456.6666666666667 174.33748984109212, 463.3333333333333 172.0612405252502, 470 184.27456789240253 C 476.6666666666667 205.07571220721798, 483.3333333333333 171.0921405451245, 490 189.91014297555665 C 496.6666666666667 169.85895910834614, 503.3333333333333 188.02122598876682, 510 183.10627833120967 C 516.6666666666666 165.32583041620845, 523.3333333333334 197.13253314973917, 530 180.81065074343198 C 536.6666666666666 175.42365287406562, 543.3333333333334 184.34573058950713, 550 188.6373457094343 C 556.6666666666666 176.66993113611275, 563.3333333333334 168.78261240110146, 570 180.1423617566807 C 576.6666666666666 192.62248962756186, 583.3333333333334 181.5760916519813, 590 177.32147319351537 C 596.6666666666666 186.49378374865083, 603.3333333333334 176.73622745683159, 610 175.24777661707535 C 616.6666666666666 174.69677038915134, 623.3333333333334 166.52595343522606, 630 167.85509895107876 C 636.6666666666666 178.93807719112527, 643.3333333333334 156.41198720785687, 650 160.18517543587512 C 656.6666666666666 181.93129409103358, 663.3333333333334 160.4223584994503, 670 152.8773067920686 C 676.6666666666666 145.1428033405174, 683.3333333333334 146.56236187907666, 690 153.26885077887775 C 696.6666666666666 163.08953391935083, 703.3333333333334 151.28336264016514, 710 152.39199083272075 C 716.6666666666666 149.56741150743076, 723.3333333333334 131.42096614238784, 730 154.0643169530949 C 736.6666666666666 151.29775442081885, 743.3333333333334 136.55458764306007, 750 155.47810088277097 C 756.6666666666666 138.51260396600753, 763.3333333333334 172.2409943227603, 770 150.42042812686236 C 776.6666666666666 130.30689344950937, 783.3333333333334 155.06159806063283, 790 146.62044784698173 C 796.6666666666666 136.3067015318633, 803.3333333333334 165.94058133399267, 810 136.02845963852724 C 816.6666666666666 153.73679926231767, 823.3333333333334 150.9188137667805, 830 139.04737326710432 C 836.6666666666666 141.07006910331975, 843.3333333333334 155.5542929787077, 850 134.69287982501544" fill="none" stroke="#ff9ff3" stroke-width="2.739668641062375" opacity="0.41307034691149985" stroke-linecap="round" filter="url(#glow)" />
<path class="drift" d="M -50 45.522528764964086 C -43.333333333333336 41.820656534739626, -36.666666666666664 42.33261397733882, -30 58.23736457732727 C -23.333333333333332 65.70869932003033, -16.666666666666664 73.08297542786516, -10 51.428172000080004 C -3.333333333333333 56.989860741659356, 3.333333333333334 70.80607281259518, 10 45.61325682727792 C 16.666666666666668 41.680934977053425, 23.333333333333336 46.05950578869515, 30 33.32261846967268 C 36.666666666666664 38.77252771512278, 43.333333333333336 52.45378889285753, 50 43.89965730941018 C 56.666666666666664 53.772191083763985, 63.333333333333336 37.773068738655255, 70 48.99362072020362 C 76.66666666666667 36.3960469076367, 83.33333333333333 75.252378645883, 90 58.09612384737666 C 96.66666666666667 59.508620432410744, 103.33333333333333 44.02743874591338, 110 69.54102250622309 C 116.66666666666667 57.540797500416296, 123.33333333333333 95.29173493039903, 130 72.05779312093217 C 136.66666666666666 50.83871664712549, 143.33333333333334 78.0567995341336, 150 76.48015872911179 C 156.66666666666666 102.86737636071805, 163.33333333333334 54.06057239620818, 170 73.49926356005284 C 176.66666666666666 54.756024713874766, 183.33333333333334 46.663149056707155, 190 72.0705433086403 C 196.66666666666666 86.08689634833429, 203.33333333333334 56.18743297030735, 210 69.29616353989677 C 216.66666666666666 42.99012402130603, 223.33333333333334 90.43770175318178, 230 61.598820507780005 C 236.66666666666666 83.04591544671173, 243.33333333333334 53.62313357287759, 250 69.33803130001152 C 256.6666666666667 45.95777962509356, 263.3333333333333 80.73682650758043, 270 62.067163411226126 C 276.6666666666667 59.19509344867531, 283.3333333333333 68.71764380920223, 290 60.14650705435801 C 296.6666666666667 68.31509669359046, 303.3333333333333 54.145025760493276, 310 73.25885661138015 C 316.6666666666667 46.73454351837651, 323.3333333333333 85.47645923823116, 330 78.99120445284997 C 336.6666666666667 53.17056774501387, 343.3333333333333 65.87047804612716, 350 89.10831946388983 C 356.6666666666667 90.35415879188915, 363.3333333333333 67.75924410899229, 370 84.27143354932578 C 376.6666666666667 97.29108360641102, 383.3333333333333 101.07969873348421, 390 73.67007708472754 C 396.6666666666667 98.12957589359468, 403.3333333333333 77.55553431830906, 410 68.43230626088331 C 416.6666666666667 86.53199105163577, 423.3333333333333 72.3160307201399, 430 74.39710494311903 C 436.6666666666667 71.63721829992124, 443.3333333333333 67.8031764355625, 450 76.61298232877586 C 456.6666666666667 85.11812179271054, 463.3333333333333 53.962312224683316, 470 64.03915486932763 C 476.6666666666667 45.53019577962572, 483.3333333333333 45.61208300506815, 490 77.32962917903106 C 496.6666666666667 57.27657526121078, 503.3333333333333 86.3585841988593, 510 73.89793475491075 C 516.6666666666666 75.01234174617811, 523.3333333333334 48.99736856121501, 530 73.71555785284386 C 536.6666666666666 61.63998977586011, 543.3333333333334 80.92227775205654, 550 82.35286353883436 C 556.6666666666666 92.33874002970411, 563.3333333333334 88.88213561828348, 570 80.84936313322837 C 576.6666666666666 100.63991472497341, 583.3333333333334 103.70066638176594, 590 81.27496024698517 C 596.6666666666666 76.28850555400362, 603.3333333333334 83.33019768260917, 610 83.14027229538043 C 616.6666666666666 65.33045048638309, 623.3333333333334 93.19878687279596, 630 88.23524069949084 C 636.6666666666666 102.27564053012401, 643.3333333333334 79.42351422937256, 650 100.9568952954384 C 656.6666666666666 110.65510880925223, 663.3333333333334 88.57526797250134, 670 90.60838514116391 C 676.6666666666666 71.63408993065136, 683.3333333333334 94.91501111816802, 690 92.5458172082771 C 696.6666666666666 70.68432870380568, 703.3333333333334 66.43145232391237, 710 96.91829933162288 C 716.6666666666666 117.12423353835544, 723.3333333333334 108.3062766408883, 730 101.66083431780689 C 736.6666666666666 90.56348288117566, 743.3333333333334 126.66614230682094, 750 92.89582256256705 C 756.6666666666666 92.39013092705717, 763.3333333333334 66.04916876324396, 770 102.36633152275034 C 776.6666666666666 86.8497263520847, 783.3333333333334 108.695457292598, 790 100.27160282329642 C 796.6666666666666 76.63881384854633, 803.3333333333334 111.54576098358812, 810 112.4342661019699 C 816.6666666666666 85.74700026547788, 823.3333333333334 96.54134823091167, 830 109.32256070658914 C 836.6666666666666 126.61558148711711, 843.3333333333334 130.99996440994965, 850 106.36671325331469" fill="none" stroke="#ff9ff3" stroke-width="2.4490424296959397" opacity="0.41484401659048153" stroke-linecap="round" filter="url(#glow)" />
<circle cx="542.4021210227652" cy="127.51313267744595" r="3.8324592036738556" fill="#feca57" opacity="0.7" class="shimmer" style="animation-delay: 1.9430924713113562s" />
<circle cx="455.073228462094" cy="122.73141004732211" r="4.688229383062564" fill="#48dbfb" opacity="0.7" class="shimmer" style="animation-delay: 0.2771700839289011s" />
<circle cx="630.4094962956219" cy="168.83540154579316" r="5.8352026433214075" fill="#48dbfb" opacity="0.7" class="shimmer" style="animation-delay: 1.9821038377577986s" />
<circle cx="681.6640050559625" cy="100.86841936277202" r="2.2380105630056457" fill="#ff9ff3" opacity="0.7" class="shimmer" style="animation-delay: 1.7394365092442987s" />
<circle cx="488.88714997958937" cy="117.80439372271636" r="2.904225445158529" fill="#1dd1a1" opacity="0.7" class="shimmer" style="animation-delay: 2.8994485423303713s" />
<circle cx="132.7035295286562" cy="175.49544454289392" r="2.5291442480543322" fill="#1dd1a1" opacity="0.7" class="shimmer" style="animation-delay: 1.3209212176911835s" />
<circle cx="150.8457672933444" cy="168.0327106123388" r="4.603941563452891" fill="#1dd1a1" opacity="0.7" class="shimmer" style="animation-delay: 0.7850119814672594s" />
<circle cx="474.53863735910954" cy="16.373960773739515" r="4.517979208449452" fill="#feca57" opacity="0.7" class="shimmer" style="animation-delay: 0.7124118377140682s" />
<circle cx="647.1650627345945" cy="106.61183399825727" r="3.0706706119576177" fill="#ff9ff3" opacity="0.7" class="shimmer" style="animation-delay: 1.6157310499335553s" />
<circle cx="573.6617480470412" cy="141.10759239564382" r="3.440377889458291" fill="#48dbfb" opacity="0.7" class="shimmer" style="animation-delay: 1.5995997089296834s" />
<circle cx="291.4886221186723" cy="52.930461694344054" r="4.939580266632378" fill="#feca57" opacity="0.7" class="shimmer" style="animation-delay: 2.917596716363213s" />
<circle cx="538.6848617609495" cy="187.31646473576043" r="4.038989428169991" fill="#feca57" opacity="0.7" class="shimmer" style="animation-delay: 2.6344854650565264s" />
<circle cx="388.908437003793" cy="5.304189225148814" r="3.0203510447473034" fill="#48dbfb" opacity="0.7" class="shimmer" style="animation-delay: 2.3864997133003882s" />
<circle cx="435.76273310113527" cy="183.40687687125072" r="3.847621007911183" fill="#48dbfb" opacity="0.7" class="shimmer" style="animation-delay: 0.1091104137309804s" />
<circle cx="202.53621699014968" cy="59.60993864307716" r="3.121921679577511" fill="#feca57" opacity="0.7" class="shimmer" style="animation-delay: 0.661546401319316s" />
<circle cx="114.34280596030639" cy="69.95948174022288" r="0.740517288693928" fill="white" opacity="0.34790180571371154" />
<circle cx="678.9862805784319" cy="153.16915138908684" r="1.237124399276298" fill="white" opacity="0.30824859900092594" />
<circle cx="693.2251704548094" cy="88.64758151134984" r="0.6882894768475645" fill="white" opacity="0.257124274244789" />
<circle cx="428.24352552976313" cy="60.197059224226514" r="0.8004974764370443" fill="white" opacity="0.27529836614615355" />
<circle cx="605.6522419388697" cy="192.2506980211132" r="1.4710587036332414" fill="white" opacity="0.15388795294238442" />
<circle cx="521.2043157386378" cy="186.72729229461495" r="1.3645389772019303" fill="white" opacity="0.2320615708759263" />
<circle cx="493.58454520066425" cy="90.90279915213166" r="0.7316216020309143" fill="white" opacity="0.2793073533422713" />
<circle cx="166.42108350606895" cy="107.23002482315054" r="1.0397314085487122" fill="white" opacity="0.25789622146270497" />
<circle cx="663.0084218433403" cy="90.85170758186538" r="1.248248234359479" fill="white" opacity="0.3427195208406162" />
<circle cx="335.14757823723664" cy="177.02997447867054" r="0.5683578964558889" fill="white" opacity="0.19822986602339768" />
<circle cx="249.91497393614512" cy="136.64001976001092" r="1.4542912056251909" fill="white" opacity="0.16593237227964555" />
<circle cx="631.8176441622916" cy="196.87540889658018" r="1.3907835270017201" fill="white" opacity="0.1902772781909556" />
<circle cx="99.19174408095692" cy="79.81406009452047" r="1.0024481980162543" fill="white" opacity="0.1711624786183645" />
<circle cx="329.906271622607" cy="118.51532268676945" r="1.433024652753781" fill="white" opacity="0.35122983206539415" />
<circle cx="717.5193567974623" cy="196.16300617443966" r="1.2913868222781486" fill="white" opacity="0.3502018686104297" />
<circle cx="402.21200256611735" cy="86.21099329801933" r="1.3858422097588503" fill="white" opacity="0.22883604943581368" />
<circle cx="173.7303279039196" cy="49.133714454924295" r="0.9145828947980716" fill="white" opacity="0.21353798762849316" />
<circle cx="213.61421920785074" cy="148.7624819511029" r="1.3170870743303509" fill="white" opacity="0.34294573865284883" />
<circle cx="437.54201856857173" cy="40.817177079674764" r="1.4653504263203647" fill="white" opacity="0.17310329171805575" />
<circle cx="175.02258737949177" cy="72.19036704008647" r="0.605767190203917" fill="white" opacity="0.2975951020073865" />
<circle cx="190.47839073917885" cy="31.205691037019136" r="0.8887214029704538" fill="white" opacity="0.3398565150458338" />
<circle cx="174.6340356895647" cy="147.4181005011679" r="1.3560736553992185" fill="white" opacity="0.23555034362365826" />
<circle cx="0.15426154970761274" cy="86.24289575458413" r="0.9136399065842531" fill="white" opacity="0.31079114786688977" />
<circle cx="522.3817268092095" cy="99.07368397092924" r="1.230636285129336" fill="white" opacity="0.3502104233074975" />
<circle cx="718.7352731707322" cy="0.096992485807057" r="1.0121987345592436" fill="white" opacity="0.3882935424119627" />

  
    <text x="400" y="120" text-anchor="middle" class="name-text" fill="url(#textGrad)" filter="url(#textGlow)">
      JOEL HOOKS
    </text>
  
</svg>
