<svg xmlns="http://www.w3.org/2000/svg" viewBox="0 0 800 200" width="800" height="200">
  <rect width="800" height="200" fill="#0a1628"/>
  
    <defs>
      <linearGradient id="grad1" x1="0%" y1="0%" x2="100%" y2="100%">
        <stop offset="0%" style="stop-color:#006994;stop-opacity:0.8" />
        <stop offset="100%" style="stop-color:#40a4c8;stop-opacity:0.8" />
      </linearGradient>
      <linearGradient id="grad2" x1="100%" y1="0%" x2="0%" y2="100%">
        <stop offset="0%" style="stop-color:#89cff0;stop-opacity:0.7" />
        <stop offset="100%" style="stop-color:#b0e0e6;stop-opacity:0.7" />
      </linearGradient>
      <linearGradient id="textGrad" x1="0%" y1="0%" x2="100%" y2="0%">
        <stop offset="0%" style="stop-color:#006994" />
        <stop offset="25%" style="stop-color:#40a4c8" />
        <stop offset="50%" style="stop-color:#89cff0" />
        <stop offset="75%" style="stop-color:#b0e0e6" />
        <stop offset="100%" style="stop-color:#e0ffff" />
      </linearGradient>
      <filter id="glow">
        <feGaussianBlur stdDeviation="3" result="coloredBlur"/>
        <feMerge>
          <feMergeNode in="coloredBlur"/>
          <feMergeNode in="SourceGraphic"/>
        </feMerge>
      </filter>
      <filter id="textGlow">
        <feGaussianBlur stdDeviation="2" result="coloredBlur"/>
        <feMerge>
          <feMergeNode in="coloredBlur"/>
          <feMergeNode in="SourceGraphic"/>
        </feMerge>
      </filter>
    </defs>
  
  
    <style>
      @keyframes float {
        0%, 100% { transform: translateY(0px); }
        50% { transform: translateY(-8px); }
      }
      @keyframes pulse {
        0%, 100% { opacity: 0.4; }
        50% { opacity: 0.9; }
      }
      @keyframes drift {
        0% { transform: translateX(0px); }
        50% { transform: translateX(10px); }
        100% { transform: translateX(0px); }
      }
      @keyframes shimmer {
        0% { opacity: 0.3; }
        50% { opacity: 1; }
        100% { opacity: 0.3; }
      }
      @keyframes glitch {
        0%, 100% { transform: translateX(0); }
        20% { transform: translateX(-2px); }
        40% { transform: translateX(2px); }
        60% { transform: translateX(-1px); }
        80% { transform: translateX(1px); }
      }
      @keyframes dataStream {
        0% { stroke-dashoffset: 0; }
        100% { stroke-dashoffset: -20; }
      }
      .float { animation: float 8s ease-in-out infinite; }
      .pulse { animation: pulse 8s ease-in-out infinite; }
      .drift { animation: drift 8s ease-in-out infinite; }
      .shimmer { animation: shimmer 3s ease-in-out infinite; }
      .glitch { animation: glitch 0.5s ease-in-out infinite; }
      .dataStream { animation: dataStream 2s linear infinite; }
      .name-text { 
        font-family: -apple-system, BlinkMacSystemFont, 'Segoe UI', Helvetica, Arial, sans-serif;
        font-weight: 700;
        font-size: 64px;
        letter-spacing: -2px;
      }
    </style>
  
  <path d="M -10 50 L 0 50 L 10 52.98003996192592 L 20 55.841275134629754 L 30 58.46963710092553 L 40 60.76034136349284 L 50 62.62206477211845 L 60 63.980586289508395 L 70 64.7817459498269 L 80 64.99360404562258 L 90 64.60771446317293 L 100 63.63946140238522 L 110 62.12744605729385 L 120 60.13194770826726 L 130 57.732520577321964 L 140 55.024822252338566 L 150 52.116800120898006 L 160 49.1243878485863 L 170 46.16688346959753 L 180 43.362193350577215 L 190 40.82213163585921 L 200 38.647962570381075 L 210 36.92636341379618 L 220 35.72596889165726 L 230 35.09463494549803 L 240 35.05753086746239 L 250 35.61613588005292 L 260 36.748180164197706 L 270 38.408532686660195 L 280 40.53100043191519 L 290 43.03096730879364 L 300 45.808767527016116 L 310 48.75365895773756 L 320 51.7482380727574 L 330 54.67312045270068 L 340 57.41170026707912 L 350 59.85479898078184 L 360 61.9050179577373 L 370 63.480621437174406 L 380 64.5187950804723 L 390 64.97815018061908 L 400 64.84037369935072 L 410 64.1109583501966 L 420 62.81898362132421 L 430 61.0159564681117 L 440 58.77375789337643 L 450 56.18177727862635 L 460 53.34334871150369 L 470 50.37163138180037 L 480 47.3850982816553 L 490 44.502813061221076 L 500 41.839683336659455 L 510 39.50187968609684 L 520 37.582602963715196 L 530 36.1583686758079 L 540 35.28595654900263 L 550 35.00014690173945 L 560 35.312334062730244 L 570 36.21007211502987 L 580 37.65757107546936 L 590 39.59712372834316 L 600 41.951406229993474 L 610 44.6265607664476 L 620 47.51593736827536 L 630 50.504345708317054 L 640 53.472647376523085 L 650 56.302505552399616 L 660 58.88110272060837 L 670 61.10563834928673 L 680 62.887427222847435 L 690 64.15543504166158 L 700 64.85911033542305 L 710 64.97039979074542 L 720 64.48486664823916 L 730 63.421867582107566 L 740 61.823781010629745 L 750 59.75431760235675 L 760 57.29598033280697 L 770 54.54677535118553 L 780 51.61630478449166 L 790 48.62139724658478 L 800 45.68145025002402 L 810 42.913670204023006 L 820 40.42839976478079 L 810 210 L -10 210 Z" fill="#006994" opacity="0.15" class="drift" style="animation-delay: 0s" />
<path d="M -10 80 L 0 86.23253200185464 L 10 88.37482993408999 L 20 90.18324982515729 L 30 91.58569568079866 L 40 92.52625641042351 L 50 92.9674348258527 L 60 92.89164253588208 L 70 92.30190113993639 L 80 91.22172176643537 L 90 89.69416775829737 L 100 87.78013787335144 L 110 85.55593844303979 L 120 83.11024127978177 L 130 80.54054861163277 L 140 77.94930597613777 L 150 75.43981804003494 L 160 73.11213016818958 L 170 71.05903993060834 L 180 69.36239755616266 L 190 68.08984282225708 L 200 67.29210847035374 L 210 67.0009976516667 L 220 67.22811603588367 L 230 67.96440912973948 L 240 69.18052325108928 L 250 70.8279757675849 L 260 72.84108794623072 L 270 75.13960335720694 L 280 77.63188744446276 L 290 80.21858070629655 L 300 82.7965598451416 L 310 85.26304896801578 L 320 87.51971693704661 L 330 89.47659752163639 L 340 91.05567606817134 L 350 92.19399969807161 L 360 92.846187040401 L 370 92.98623744391703 L 380 92.60856754098612 L 390 91.72823383883181 L 400 90.38033246410538 L 410 88.61859999106838 L 420 86.5132711339525 L 430 84.14827871054158 L 440 81.6179075055918 L 450 79.02303543399648 L 460 76.46711185665772 L 470 74.05203338092082 L 480 71.87408156439253 L 490 70.02008447307342 L 500 68.56395512036829 L 510 67.56374478848755 L 520 67.0593287070171 L 530 67.07081635334814 L 540 67.59774975127284 L 550 68.61912172905043 L 560 70.09421340905259 L 570 71.96421754091857 L 580 74.15458296105018 L 590 76.57798671224458 L 600 79.13781533443439 L 610 81.73201653845928 L 620 84.25716770879 L 630 86.61259903684086 L 640 88.70440690855582 L 650 90.44919754517107 L 660 91.77741165001001 L 670 92.63609751813469 L 680 92.99102205372293 L 690 92.82803553556997 L 700 92.15363572182088 L 710 90.99470880485813 L 720 89.39745754365569 L 730 87.42555930557985 L 740 85.15762745069796 L 750 82.68407726519136 L 760 80.10352138921716 L 770 77.51883844213553 L 780 75.03307157660788 L 790 72.74532047327187 L 800 70.74679054920139 L 810 69.1171568857433 L 820 67.92138783445321 L 810 210 L -10 210 Z" fill="#40a4c8" opacity="0.2" class="drift" style="animation-delay: 0.5s" />
<path d="M -10 110 L 0 119.25618083288686 L 10 120.25242994563949 L 20 120.83994702987306 L 30 120.99530963345656 L 40 120.71232393966015 L 50 120.0022716950825 L 60 118.8934604420155 L 70 117.43009498606266 L 80 115.6705150900361 L 90 113.68486965171496 L 100 111.55232008865853 L 110 109.35788442229662 L 120 107.18904787770485 L 130 105.13227512375663 L 140 103.26956319963008 L 150 101.67517255161279 L 160 100.41266650345054 L 170 99.53237718721532 L 180 99.06939896003189 L 190 99.04218930280575 L 200 99.45183297870548 L 210 100.28199878707832 L 220 101.49959063688414 L 230 103.05606698340446 L 240 104.88937602644867 L 250 106.92642951981182 L 260 109.08601656900754 L 270 111.28204125335543 L 280 113.42695499864716 L 290 115.43524686252469 L 300 117.22685258590668 L 310 118.73034650234068 L 320 119.8857890539279 L 330 120.64711639234635 L 340 120.98397679912065 L 350 120.8829407128572 L 360 120.3480361234775 L 370 119.40058798897108 L 380 118.07836807661523 L 390 116.43408912180938 L 400 114.53330333765932 L 410 112.45178905510272 L 420 110.27252967998693 L 430 108.08240540654722 L 440 105.96872957822879 L 450 104.01576778021693 L 460 102.30137843647103 L 470 100.8939088400578 L 480 99.84947036225913 L 490 99.2097014692686 L 500 99.00010772794226 L 510 99.22904497933551 L 520 99.88738621768857 L 530 100.9488854553442 L 540 102.37122406745165 L 550 104.09769790199522 L 560 106.0594778953949 L 570 108.1783540700686 L 580 110.36985351943251 L 590 112.54660807611693 L 600 114.62183740509305 L 610 116.51280866177947 L 620 118.14413478947694 L 630 119.45077996342145 L 640 120.38065236388515 L 650 120.89668091264357 L 660 120.97829317987998 L 670 120.62223554204205 L 680 119.84270289354555 L 690 118.67077274112847 L 700 117.15316624172829 L 710 115.35038557739178 L 720 113.33430192420272 L 730 111.18529017529389 L 740 108.9890246474955 L 750 106.83306351668428 L 760 104.80335814961684 L 770 102.98082649417258 L 780 101.43812713612272 L 790 100.23676263060345 L 800 99.42462758932487 L 810 99.03409927354244 L 820 99.08074681482303 L 810 210 L -10 210 Z" fill="#89cff0" opacity="0.25" class="drift" style="animation-delay: 1s" />
<path d="M -10 140 L 0 148.9774548794365 L 10 148.9249832940722 L 20 148.51670078918673 L 30 147.76888429983987 L 40 146.71134690959047 L 50 145.3862492969356 L 60 143.84641892210448 L 70 142.15324396292584 L 80 140.3742259618996 L 90 138.58028875271077 L 100 136.8429509507934 L 110 135.23147473182357 L 120 133.81010456734424 L 130 132.63550600042032 L 140 131.75450656925491 L 150 131.20222894101414 L 160 131.0006906819231 L 170 131.157926486381 L 180 131.6676678590504 L 190 132.5095930199849 L 200 133.65013706986647 L 210 135.04383011662125 L 220 136.63511001652788 L 230 138.36053746155113 L 240 140.15132510435916 L 250 141.93607989279033 L 260 143.64364928554937 L 270 145.2059578794938 L 280 146.5607213611329 L 290 147.65392958565707 L 300 148.44199979097266 L 310 148.893514104893 L 320 148.99047207655795 L 330 148.7290082976058 L 340 148.11954650380665 L 350 147.18638401361142 L 360 145.96672307073965 L 370 144.50918770812098 L 380 142.87188526114414 L 390 141.12008981156356 L 400 139.32363991584373 L 410 137.55415436230152 L 420 135.8821769560221 L 430 134.37436415996407 L 440 133.09082771212775 L 450 132.08273816025496 L 460 131.3902848535683 L 470 131.0410737202426 L 480 131.04902670616408 L 490 131.41382675088119 L 500 132.12093042780415 L 510 133.1421477447287 L 520 134.4367659898667 L 530 135.95317281918858 L 540 137.6309138777078 L 550 139.40310292383919 L 560 141.1990883727795 L 570 142.94726995223922 L 580 144.57795317935137 L 590 146.02612785976942 L 600 147.23405983896458 L 610 148.15359268077617 L 620 148.74806751255477 L 630 148.99378449873126 L 640 148.88094767847153 L 650 148.41405549972214 L 660 147.6117214802864 L 670 146.50593214560777 L 680 145.1407718269399 L 690 143.5706651581755 L 700 141.85820733744018 L 710 140.07166865407342 L 720 138.2822727676323 L 730 136.5613572453439 L 740 134.97752955841898 L 750 133.5939319186779 L 760 132.46572399782227 L 770 131.6378838853907 L 780 131.1434149542652 L 790 131.0020301203429 L 800 131.2193659507866 L 810 131.78675795187934 L 820 132.6815859950466 L 810 210 L -10 210 Z" fill="#b0e0e6" opacity="0.30000000000000004" class="drift" style="animation-delay: 1.5s" />
<path d="M -10 170 L 0 176.36508198777977 L 10 175.65947482673712 L 20 174.72824226385805 L 30 173.60850960275025 L 40 172.34491705109133 L 50 170.98784005641906 L 60 169.59138099600693 L 70 168.21121228581217 L 80 166.90235689693603 L 90 165.71699476340098 L 100 164.7023825328445 L 110 163.89896959310488 L 120 163.33878548277337 L 130 163.04416297456575 L 140 163.02684773814912 L 150 163.28753007735804 L 160 163.81581740995892 L 170 164.5906485871081 L 180 165.58113353489375 L 190 166.7477847441037 L 200 168.0440915126075 L 210 169.41837418027754 L 220 170.81584443395346 L 230 172.18078954459367 L 240 173.45879345797024 L 250 174.59890619103152 L 260 175.55567504694406 L 270 176.2909566706814 L 280 176.7754377042204 L 290 176.98980341762223 L 300 176.92550772636366 L 310 176.5851138967584 L 320 175.98219235661796 L 330 175.1407796851188 L 340 174.09442035024233 L 350 172.88482939669228 L 360 171.56022939870172 L 370 170.1734279781735 L 380 168.77971253143912 L 390 167.4346460952365 L 400 166.19185222377442 L 410 165.1008771868452 L 420 164.20521471640043 L 430 163.54057204871035 L 440 163.13344638953456 L 450 163.0000685541451 L 460 163.1457558959408 L 470 163.56470032034727 L 480 164.24019983521904 L 490 165.14532440656015 L 500 166.24398957399694 L 510 167.49239502434222 L 520 168.84077077186183 L 530 170.23536133054796 L 540 171.62056877571078 L 550 172.9411692577865 L 560 174.14451460295058 L 570 175.18263122966715 L 580 176.01413270399547 L 590 176.60586968610875 L 600 176.9342514898641 L 610 176.98618656901454 L 620 176.75960443584495 L 630 176.26353820498352 L 640 175.5177644716272 L 650 174.5520148810998 L 660 173.40479082197658 L 670 172.12182849721992 L 680 170.7542755660961 L 690 169.35665204840623 L 700 167.98467678334455 L 710 166.69304609521072 L 720 165.53325322356437 L 730 164.5515354502599 L 740 163.78703076492945 L 750 163.2702175568431 L 760 163.02169953770883 L 770 163.05138433670558 L 780 163.35808851457313 L 790 163.92958474360094 L 800 164.74308927259827 L 810 165.766170243156 L 820 166.9580406454967 L 810 210 L -10 210 Z" fill="#e0ffff" opacity="0.35" class="drift" style="animation-delay: 2s" />
<circle cx="727.1772575201524" cy="125.06801612209175" r="5.551128599893328" fill="none" stroke="#e0ffff" stroke-width="1" opacity="0.4220576610719562" class="float" style="animation-delay: 1.7444711393562287s" />
<circle cx="426.85035255224176" cy="156.3811822883296" r="5.583212085372274" fill="none" stroke="#e0ffff" stroke-width="1" opacity="0.2856685724367888" class="float" style="animation-delay: 2.9142642617635506s" />
<circle cx="423.45165762896266" cy="187.17870289285608" r="6.568256356644982" fill="none" stroke="#e0ffff" stroke-width="1" opacity="0.27841059702201787" class="float" style="animation-delay: 3.0233752264413356s" />
<circle cx="491.98647699120886" cy="172.28206401496186" r="2.124615915440783" fill="none" stroke="#006994" stroke-width="1" opacity="0.37869897510186845" class="float" style="animation-delay: 3.821300250922869s" />
<circle cx="187.84707223688315" cy="145.0282679110286" r="7.705464553755224" fill="none" stroke="#006994" stroke-width="1" opacity="0.42920808058855386" class="float" style="animation-delay: 0.1369375148572951s" />
<circle cx="609.7224266395799" cy="111.8342225419167" r="7.595890042022878" fill="none" stroke="#006994" stroke-width="1" opacity="0.22889685586013803" class="float" style="animation-delay: 0.620206452595979s" />
<circle cx="517.2190288480215" cy="168.1544144694112" r="5.534091963100931" fill="none" stroke="#89cff0" stroke-width="1" opacity="0.42104280195950994" class="float" style="animation-delay: 2.081139708254409s" />
<circle cx="17.478202366518047" cy="72.47926857124445" r="3.1730913998332824" fill="none" stroke="#40a4c8" stroke-width="1" opacity="0.4364776267745145" class="float" style="animation-delay: 0.4387629276996732s" />
<circle cx="17.300874121072063" cy="154.6985119226289" r="6.886484503115259" fill="none" stroke="#89cff0" stroke-width="1" opacity="0.34369851075874447" class="float" style="animation-delay: 2.5609014803143104s" />
<circle cx="212.22396886976097" cy="113.85437117098797" r="7.986840657059702" fill="none" stroke="#e0ffff" stroke-width="1" opacity="0.32152613580184675" class="float" style="animation-delay: 0.5023696785686829s" />
<circle cx="262.67481580639947" cy="17.474588981226802" r="8.30896811075859" fill="none" stroke="#89cff0" stroke-width="1" opacity="0.22882955323821133" class="float" style="animation-delay: 3.220189721703677s" />
<circle cx="54.912736680712015" cy="93.86414658544825" r="8.032474192749266" fill="none" stroke="#e0ffff" stroke-width="1" opacity="0.3546612712476775" class="float" style="animation-delay: 0.27749408699493383s" />
<circle cx="613.7700402417071" cy="172.30098332565947" r="5.1451325277955675" fill="none" stroke="#e0ffff" stroke-width="1" opacity="0.48659655255577866" class="float" style="animation-delay: 1.5185820839869324s" />
<circle cx="242.4062580542083" cy="166.6332477630688" r="3.2227523326154923" fill="none" stroke="#89cff0" stroke-width="1" opacity="0.2359594221826425" class="float" style="animation-delay: 1.7641682729966197s" />
<circle cx="257.86697743910685" cy="111.0935371716153" r="7.50182764502469" fill="none" stroke="#40a4c8" stroke-width="1" opacity="0.4485090680233318" class="float" style="animation-delay: 3.778637614147092s" />
<circle cx="300.66874247901774" cy="37.924209368321684" r="5.024367513055038" fill="none" stroke="#b0e0e6" stroke-width="1" opacity="0.499455839745276" class="float" style="animation-delay: 0.8511259473494199s" />
<circle cx="796.021672820667" cy="11.701244695324364" r="7.994167624275823" fill="none" stroke="#e0ffff" stroke-width="1" opacity="0.20665453965841307" class="float" style="animation-delay: 1.7659586156049611s" />
<circle cx="171.3646182772738" cy="2.081996712284173" r="5.250006066578665" fill="none" stroke="#b0e0e6" stroke-width="1" opacity="0.4262192252616841" class="float" style="animation-delay: 1.5263018828017199s" />
<circle cx="292.9456700032325" cy="141.66933384508252" r="5.768197597896322" fill="none" stroke="#b0e0e6" stroke-width="1" opacity="0.2560300868944939" class="float" style="animation-delay: 3.055757738016034s" />
<circle cx="627.0546097168058" cy="189.23168117715213" r="4.666696964918973" fill="none" stroke="#e0ffff" stroke-width="1" opacity="0.27900017440998215" class="float" style="animation-delay: 1.460784889530653s" />
<circle cx="635.7287248513593" cy="7.101645974308157" r="3.9123010608602904" fill="none" stroke="#e0ffff" stroke-width="1" opacity="0.4664512166583697" class="float" style="animation-delay: 1.8183800277345386s" />
<circle cx="296.0672175553924" cy="9.698004881991906" r="8.282163832884024" fill="none" stroke="#89cff0" stroke-width="1" opacity="0.3766263657524599" class="float" style="animation-delay: 2.4241621271958813s" />
<circle cx="467.63568826913496" cy="18.643619992116854" r="4.989259592516731" fill="none" stroke="#b0e0e6" stroke-width="1" opacity="0.4188126195252875" class="float" style="animation-delay: 2.3467972367319305s" />
<circle cx="274.11494077949214" cy="118.68630260499273" r="6.331543247219017" fill="none" stroke="#e0ffff" stroke-width="1" opacity="0.3471520705427484" class="float" style="animation-delay: 0.027938644460014928s" />
<circle cx="211.9674919351226" cy="176.94434229083674" r="9.06166291353357" fill="none" stroke="#40a4c8" stroke-width="1" opacity="0.2412811269204488" class="float" style="animation-delay: 2.0859830914957387s" />
<circle cx="257.0846007402926" cy="54.47413688255283" r="20" fill="none" stroke="#006994" stroke-width="1" opacity="0.3" class="pulse" />
<circle cx="257.0846007402926" cy="54.47413688255283" r="35" fill="none" stroke="#006994" stroke-width="1" opacity="0.19999999999999998" class="pulse" />
<circle cx="257.0846007402926" cy="54.47413688255283" r="50" fill="none" stroke="#006994" stroke-width="1" opacity="0.09999999999999998" class="pulse" />
<circle cx="520.4596505726653" cy="51.330479768308535" r="20" fill="none" stroke="#006994" stroke-width="1" opacity="0.3" class="pulse" />
<circle cx="520.4596505726653" cy="51.330479768308535" r="35" fill="none" stroke="#006994" stroke-width="1" opacity="0.19999999999999998" class="pulse" />
<circle cx="520.4596505726653" cy="51.330479768308535" r="50" fill="none" stroke="#006994" stroke-width="1" opacity="0.09999999999999998" class="pulse" />
<circle cx="459.5737334563842" cy="79.93194864475701" r="20" fill="none" stroke="#006994" stroke-width="1" opacity="0.3" class="pulse" />
<circle cx="459.5737334563842" cy="79.93194864475701" r="35" fill="none" stroke="#006994" stroke-width="1" opacity="0.19999999999999998" class="pulse" />
<circle cx="459.5737334563842" cy="79.93194864475701" r="50" fill="none" stroke="#006994" stroke-width="1" opacity="0.09999999999999998" class="pulse" />

  
    <text x="400" y="120" text-anchor="middle" class="name-text" fill="url(#textGrad)" filter="url(#textGlow)">
      JOEL HOOKS
    </text>
  
</svg>
