<svg xmlns="http://www.w3.org/2000/svg" viewBox="0 0 800 200" width="800" height="200">
  <rect width="800" height="200" fill="#05010d"/>
  
    <defs>
      <linearGradient id="grad1" x1="0%" y1="0%" x2="100%" y2="100%">
        <stop offset="0%" style="stop-color:#4a0080;stop-opacity:0.8" />
        <stop offset="100%" style="stop-color:#7b2cbf;stop-opacity:0.8" />
      </linearGradient>
      <linearGradient id="grad2" x1="100%" y1="0%" x2="0%" y2="100%">
        <stop offset="0%" style="stop-color:#9d4edd;stop-opacity:0.7" />
        <stop offset="100%" style="stop-color:#c77dff;stop-opacity:0.7" />
      </linearGradient>
      <linearGradient id="textGrad" x1="0%" y1="0%" x2="100%" y2="0%">
        <stop offset="0%" style="stop-color:#4a0080" />
        <stop offset="25%" style="stop-color:#7b2cbf" />
        <stop offset="50%" style="stop-color:#9d4edd" />
        <stop offset="75%" style="stop-color:#c77dff" />
        <stop offset="100%" style="stop-color:#e0aaff" />
      </linearGradient>
      <filter id="glow">
        <feGaussianBlur stdDeviation="5" result="coloredBlur"/>
        <feMerge>
          <feMergeNode in="coloredBlur"/>
          <feMergeNode in="SourceGraphic"/>
        </feMerge>
      </filter>
      <filter id="textGlow">
        <feGaussianBlur stdDeviation="2" result="coloredBlur"/>
        <feMerge>
          <feMergeNode in="coloredBlur"/>
          <feMergeNode in="SourceGraphic"/>
        </feMerge>
      </filter>
    </defs>
  
  
    <style>
      @keyframes float {
        0%, 100% { transform: translateY(0px); }
        50% { transform: translateY(-8px); }
      }
      @keyframes pulse {
        0%, 100% { opacity: 0.4; }
        50% { opacity: 0.9; }
      }
      @keyframes drift {
        0% { transform: translateX(0px); }
        50% { transform: translateX(10px); }
        100% { transform: translateX(0px); }
      }
      @keyframes shimmer {
        0% { opacity: 0.3; }
        50% { opacity: 1; }
        100% { opacity: 0.3; }
      }
      @keyframes glitch {
        0%, 100% { transform: translateX(0); }
        20% { transform: translateX(-2px); }
        40% { transform: translateX(2px); }
        60% { transform: translateX(-1px); }
        80% { transform: translateX(1px); }
      }
      @keyframes dataStream {
        0% { stroke-dashoffset: 0; }
        100% { stroke-dashoffset: -20; }
      }
      .float { animation: float 8s ease-in-out infinite; }
      .pulse { animation: pulse 8s ease-in-out infinite; }
      .drift { animation: drift 8s ease-in-out infinite; }
      .shimmer { animation: shimmer 3s ease-in-out infinite; }
      .glitch { animation: glitch 0.5s ease-in-out infinite; }
      .dataStream { animation: dataStream 2s linear infinite; }
      .name-text { 
        font-family: -apple-system, BlinkMacSystemFont, 'Segoe UI', Helvetica, Arial, sans-serif;
        font-weight: 700;
        font-size: 64px;
        letter-spacing: -2px;
      }
    </style>
  
  <path d="M 652.1027182198739 193.7281731409426 C 653.6749453101687 209.92733742531675, 609.2335682310621 224.8409806966862, 589.9969034084984 247.04234726494963 C 570.7602385859346 269.24371383321306, 554.6499362783599 326.7405569313238, 536.6827292844913 326.9363725505233 C 518.7155222906227 327.1321881697228, 499.58435079067294 270.4186075484101, 482.19366144528726 248.21724098014664 C 464.8029720999016 226.0158744118832, 432.5575800458799 212.11018258771315, 432.33859321217733 193.7281731409426 C 432.11960637847477 175.34616369417205, 463.48905109768634 156.94194891121901, 480.879740443072 137.92518429952335 C 498.2704297884577 118.9084196878277, 520.0687625472151 77.64055592757177, 536.6827292844913 79.62758547076868 C 553.2966960217675 81.61461501396559, 561.3268760441654 130.83059694700916, 580.5635408667291 149.84736155870482 C 599.8002056892929 168.86412617040048, 650.530491129579 177.52900885656845, 652.1027182198739 193.7281731409426 Z" fill="#7b2cbf" opacity="0.22054438487734704" filter="url(#glow)" class="float" />
<path d="M 793.0071974528253 185.31548948413476 C 795.2198442695862 202.56654861603647, 779.510662166728 227.29970216678916, 766.9267005492989 241.89141291533747 C 754.3427389318697 256.48312366388575, 735.5767373810228 266.6143899523038, 717.5034277482505 272.8657539754246 C 699.4301181154782 279.1171179985454, 682.964571945025 279.6518322000344, 658.4868427526651 279.39959705406216 C 634.0091135603052 279.1473619080899, 586.8580989117012 287.0330276945792, 570.6370525940907 271.3523430995913 C 554.4160062764803 255.67165850460339, 556.561473434822 210.65300518815346, 561.1605648470027 185.3154894841348 C 565.7596562591833 159.97797378011612, 584.1959917615255 141.73401698371384, 598.2316010671747 119.3272488754792 C 612.2672103728238 96.92048076724456, 624.6796708416246 56.979670593887164, 645.3742206808972 50.87488083472692 C 666.0687705201699 44.77009107556668, 704.3528002748382 68.11348077231771, 722.3989001028108 82.69851032051777 C 740.4449999307834 97.28353986871782, 741.8827700903971 121.28222826332444, 753.6508196487329 138.38505812392728 C 765.4188692070686 155.48788798453012, 790.7945506360643 168.06443035223305, 793.0071974528253 185.31548948413476 Z" fill="#9d4edd" opacity="0.19951368904128208" filter="url(#glow)" class="float" />
<path d="M 698.8313739883279 6.145343858817398 C 707.536138696674 16.557735936731245, 712.0094860162411 47.223127146479946, 703.5054336459016 54.165157873017456 C 695.001381275562 61.107188599554966, 661.8579789053108 44.68971234405119, 647.8070597662904 47.79752821804246 C 633.75614062727 50.90534409203373, 631.87243428952 68.78796476479464, 619.1999188117791 72.81205311696507 C 606.5274033340381 76.83614146913551, 584.1895904313045 78.9379539237209, 571.7719668998444 71.94205833106506 C 559.3543433683843 64.94616273840921, 549.0270790419017 45.86514985433461, 544.6941776230185 30.83667956102998 C 540.3612762041353 15.808209267725353, 534.3241899590456 -11.153612220208505, 545.7745583865453 -18.228763428762722 C 557.224926814045 -25.30391463731694, 600.3453173940816 -10.223552055579667, 613.3963881880169 -11.61422769029533 C 626.4474589819522 -13.004903325010993, 619.1367440019986 -24.322484931823134, 624.080983150157 -26.572817237056704 C 629.0252222983153 -28.823149542290274, 638.5291793693556 -28.16015862879526, 643.0618230769668 -25.116221521696744 C 647.594466784578 -22.07228441459823, 641.9819202439309 -13.519455491217979, 651.2768453958244 -8.309194594465623 C 660.5717705477178 -3.0989336977132664, 690.1266092799817 -4.2670482190964485, 698.8313739883279 6.145343858817398 Z" fill="#7b2cbf" opacity="0.13529358654902954" filter="url(#glow)" class="float" />
<path d="M 277.68651569662813 184.69114096658555 C 283.89171100471816 198.72304989488032, 276.9215941313438 231.07391309483992, 264.15191582578956 238.75037839212234 C 251.38223752023535 246.42684368940476, 216.50253333398496 229.92207886205824, 201.06844586330283 230.74993275028004 C 185.6343583926207 231.57778663850183, 183.87780433893695 241.20973289546936, 171.54739100169684 243.71750172145317 C 159.21697766445672 246.225270547437, 143.41696583414503 250.42373778876149, 127.0859658398621 245.796545706183 C 110.75496584557916 241.1693536236045, 71.11075657446871 228.0101746591222, 73.56139103599928 215.95434922598224 C 76.01202549752985 203.89852379284227, 133.90824429295287 190.05570208525313, 141.7897726090455 173.46159310734313 C 149.67130092513815 156.86748412943314, 115.39919269395142 120.93552893394903, 120.85056093255504 116.38969535852235 C 126.30192917115866 111.84386178309566, 161.77769221920204 141.05758773120525, 174.49798204066727 146.186591654783 C 187.2182718621325 151.31559557836076, 188.43517287191614 145.76833003872707, 197.17229986134646 147.16371889998885 C 205.90942685077678 148.55910776125063, 213.50170800470232 148.30435447792092, 226.92074397724926 154.5589248223537 C 240.3397799497962 160.81349516678648, 271.4813203885381 170.65923203829078, 277.68651569662813 184.69114096658555 Z" fill="#e0aaff" opacity="0.16292831423941365" filter="url(#glow)" class="float" />
<path d="M 249.29846499357464 56.17771572544377 L 249.29846499357464 56.17771572544377 L 249.6650854320008 56.20979085762296 L 250.02332460358147 56.30552803191379 L 250.36490757934513 56.46346815507513 L 250.68177097293108 56.68119792681197 L 250.96616589014093 56.95537742502458 L 251.21075752332922 57.28177833226688 L 251.40872032351308 57.65533241501387 L 251.55382772640743 58.07018976273474 L 251.640535461992 58.51978619386112 L 251.66405754018837 58.99691914148476 L 251.6204340771848 59.49383124391844 L 251.50659020722085 60.0023007849529 L 251.32038541248477 60.5137380565161 L 251.06065269836336 61.01928665319131 L 250.72722714173142 61.50992865429615 L 250.32096344533483 61.97659260549853 L 249.84374224062094 62.410263178688794 L 249.29846499357464 62.80209136638243 L 248.68903748216994 63.14350405554115 L 248.02034192887442 63.42631182551222 L 247.29819798615515 63.642813825837095 L 246.52931288604952 63.78589861190419 L 245.7212211755029 63.84913984964865 L 244.88221456628222 63.82688584446204 L 244.02126253082426 63.7143419037953 L 243.14792437237895 63.50764460715034 L 242.27225358832257 63.20392713069583 L 241.40469542865986 62.80137485596219 L 240.55597862668685 62.299270582234215 L 239.7370023448018 61.69802875955932 L 238.9587194348637 60.99921826284481 L 238.23201715872312 60.205573336389385 L 237.5675965500994 59.3209924513887 L 236.97585162345828 58.35052493543415 L 236.4667496486584 57.300345351715585 L 236.0497137116973 56.17771572544377 L 235.73350877180607 54.99093583481357 L 235.5261324034446 53.74928190251334 L 235.43471137855846 52.46293414023613 L 235.46540520001022 51.14289371176175 L 235.62331764173115 49.8008897888811 L 235.91241728529266 48.449277477681996 L 236.33546796681 47.10092748951312 L 236.89396996299428 45.769108520343394 L 237.58811265148788 44.467363383357 L 238.41673927915153 43.20938001165523 L 239.37732436360392 42.008858510142886 L 240.46596413898976 40.87937548740723 L 241.67738033768265 39.83424693909423 L 243.0049374764721 38.88639098348827 L 244.44067368984156 38.048191767345685 L 245.97534502535404 37.331365865265795 L 247.59848298807734 36.74683248885634 L 249.29846499357464 36.30458880262779 L 251.06259726343035 36.01359161200398 L 252.87720957473528 35.881646645252104 L 254.72776115657044 35.915306595804736 L 256.59895691341353 36.11977902477538 L 258.47487304862824 36.49884514596167 L 260.33909106180573 37.0547904278981 L 262.1748390026856 37.78834785026603 L 263.9651387825797 38.69865454598964 L 265.6929582724961 39.78322244652229 L 267.34136685623696 41.03792342711595 L 268.8936930572886 42.45698932229277 L 270.33368282087486 44.03302705038955 L 271.64565700756276 45.75704895106085 L 272.8146666426341 47.618518302184334 L 273.8266444662956 49.60540984392256 L 274.6685513438142 51.70428499899296 L 275.3285161218333 53.90038134072095 L 275.7959675573293 56.17771572544376 L 276.0617569986856 58.51920037452499 L 276.11827056382793 60.90677106483459 L 275.9595296378365 63.32152646622768 L 275.581278601347 65.74387755143961 L 274.98105880069534 68.15370589898829 L 274.158267880384 70.53052961414417 L 273.1142037171655 72.85367550773498 L 271.85209232190255 75.10245609835354 L 270.3770992093309 77.25634994119993 L 268.69632387580714 79.29518373697987 L 266.8187771699059 81.19931463757085 L 264.75534148909816 82.94981114200772 L 262.5187138864485 84.52863096707051 L 260.123332322991 85.91879428160723 L 257.585285452884 87.10455071278756 L 254.92220647825565 88.07153856574496 L 252.153151757523 88.8069347453736 L 249.29846499357464 89.29959393013706 L 246.37962796526796 89.54017562222596 L 243.41909889595362 89.52125778575865 L 240.4401396750026 89.2374358843285 L 237.46663326142192 88.68540624032013 L 234.5228927015392 87.86403276020309 L 231.6334632844049 86.77439620151686 L 228.8229194381032 85.41982529744773 L 226.1156580367602 83.80590920264548 L 223.53568984098374 81.94049087803465 L 221.10643083316478 79.83364119158102 L 218.85049523303448 77.49761367495535 L 216.789491987747 74.94678004143663 L 214.9438265243093 72.19754673680852 L 213.3325095303072 69.26825296101703 L 211.972974491608 66.17905076254127 L 210.88090566321185 62.951767968354964 L 210.0700780819736 59.6097548686176 L 209.55221114794267 56.17771572544378 L 209.33683720512124 52.681526317911576 L 209.43118644319816 49.148038869592554 L 209.84008932006708 45.60487582908351 L 210.5658975715943 42.08021408713414 L 211.6084247311767 38.602561314917416 L 212.96490692823787 35.20052619580465 L 214.62998457315757 31.902584396792058 L 216.59570536749914 28.736842184724637 L 218.85154890414904 25.730799636018148 L 221.38447294353273 22.9111154161601 L 224.1789812708828 20.303375116490507 L 227.21721285711246 17.931865130352413 L 230.47905186371895 15.819354028539792 L 233.9422578518445 13.986883355072337 L 237.58261537868898 12.453569708854289 L 241.37410199243322 11.23641990501936 L 245.2890734711753 10.350160922171533 L 249.2984649935746 9.807086238873147 L 253.37200678033233 9.616920045319176 L 257.47845260765604 9.78670068500567 L 261.58581946772296 10.32068453731332 L 265.6616365380412 11.220271396359443 L 269.6732015225919 12.483952235407223 L 273.587842343683 14.10728007084326 L 277.37318209540666 16.082864456613628 L 280.99740511819846 18.400389950494493 L 284.42952201983496 21.046658699183467 L 287.6396314517321 24.00565709149717 L 290.599176450941 27.25864622957162 L 293.2811931779297 30.784275768512245 L 295.6605499181172 34.558720477097154 L 297.71417427105 38.55583867755661 L 299.421266524787 42.74735153276997 L 300.76349730406065 47.10304196607216 L 301.7251876885181 51.59097182381901 L 302.29347012108394 56.17771572544374 L 302.4584285653704 60.82860989142696 L 302.21321652407437 65.50801409775546 L 301.55415169632795 70.17958477738023 L 300.48078622976294 74.8065571760672 L 298.99595171124975 79.35203437295205 L 297.10577823743887 83.77928089602148 L 294.81968711081794 88.05201860045601 L 292.15035691739763 92.13472243397234 L 289.1136629566697 95.99291368853875 L 285.7285902114259 99.59344833247499 L 282.017120262627 102.90479803122328 L 278.0040927709756 105.89732149906249 L 273.71704236041217 108.54352387762495 L 269.1860119476186 110.81830191002315 L 264.4433437640367 112.69917277127892 L 259.52344951117647 114.1664845259914 L 254.462561274425 115.20360631205841 L 249.29846499357478 115.7970964938917 L 244.07021844836595 115.93684718891076 L 238.81785586303283 115.61620374600508 L 233.58208136384994 114.8320579428199 L 228.4039536367943 113.58491386873607 L 223.32456422757554 111.87892567075754 L 218.38471200252752 109.72190655857165 L 213.62457634538214 107.12530869110017 L 209.08339170114144 104.10417379814064 L 204.7991260936449 100.6770546253735 L 200.8081662376697 96.86590752719985 L 197.14501183938205 92.69595676767639 L 193.8419816306922 88.19553132331396 L 190.9289336137549 83.39587521077235 L 188.43300190189126 78.33093258564467" fill="none" stroke="#4a0080" stroke-width="1" opacity="0.3" class="drift" />
<path d="M 512.5878419893895 134.04613038423759 L 512.5878419893895 134.04613038423759 L 512.9266504821267 134.07577228645837 L 513.2577135136468 134.16424680757245 L 513.5733838937814 134.31020554162643 L 513.8662099272816 134.51141826207058 L 514.1290305535827 134.76479841438177 L 514.3550673859327 135.06643844265054 L 514.5380126637143 135.41165459119534 L 514.6721121718342 135.79504072560073 L 514.7522422303988 136.21053062524683 L 514.7739799160935 136.65146811229346 L 514.7336657431803 137.11068430103376 L 514.6284581062155 137.58058117732398 L 514.4563788677644 138.05322065113984 L 514.2163495618049 138.52041816685983 L 513.9082177763338 138.9738399061972 L 513.5327733760685 139.40510257829578 L 513.0917543271431 139.80587476076812 L 512.5878419893895 140.16797873471532 L 512.0246458471943 140.4834917462423 L 511.4066777560409 140.74484562681033 L 510.7393158876676 140.9449237149811 L 510.02875866130813 141.07715404264397 L 509.2819690507263 141.1355977795262 L 508.5066097557377 141.11503197041034 L 507.7109698216832 141.01102564968346 L 506.9038833799593 140.82000847718282 L 506.0946412663618 140.5393311072653 L 505.29289635083313 140.16731657900857 L 504.5085634814723 139.7033020987769 L 503.7517150066736 139.14767067630237 L 503.0324728913918 138.50187217113154 L 502.36089848625295 137.7684334069014 L 501.7468810410783 136.9509571155149 L 501.2000260770159 136.05410958093023 L 500.72954474359136 135.0835969619656 L 500.34414528843405 134.04613038423759 L 500.0519277581172 132.94938000206795 L 499.8602830285013 131.8019183408752 L 499.77579723229445 130.61315333818257 L 499.80416261046884 129.3932516059078 L 499.9500957630055 128.15305253705526 L 500.21726421358716 126.9039739753469 L 500.6082221328226 125.65791025578274 L 501.12435598594374 124.42712350674033 L 501.7658407843433 123.22412917919138 L 502.53160752655145 122.06157683518065 L 503.41932231410163 120.95212728519937 L 504.42537752208585 119.90832721189206 L 505.5448952939765 118.94248245514446 L 506.7717435164773 118.06653116058673 L 508.0985643137791 117.2919180095748 L 509.5168149826831 116.62947075354847 L 511.01682117168707 116.08928026917185 L 512.5878419893895 115.68058533280441 L 514.2181466115336 115.41166328369766 L 515.8951018427656 115.28972770503393 L 517.6052699797776 115.32083420079096 L 519.3345162179677 115.5097952848026 L 521.0681247450909 115.86010532675812 L 522.7909225735191 116.37387641880568 L 524.4874100785929 117.05178593654968 L 526.1418971349539 117.89303647029126 L 527.7386436764542 118.8953286971729 L 529.262003448947 120.05484765333247 L 530.6965696795487 121.36626274820117 L 532.0273213513647 122.82274174169507 L 533.239768749578 124.4159787803055 L 534.3200969335546 126.13623646107696 L 535.2553057904039 127.97240176429409 L 536.033345338394 129.91205556751737 L 536.6432449737229 131.94155532656075 L 537.0752353913005 134.04613038423759 L 537.320861959197 136.20998924635606 L 537.3730883869086 138.41643804762748 L 537.2263895991878 140.64800931895877 L 536.8768328093388 142.88660006306418 L 536.3221458779644 145.11361804845802 L 535.561772144451 147.31013514360598 L 534.5969110281984 149.45704643418952 L 533.4305438138364 151.53523379786895 L 532.0674441584727 153.52573255332072 L 530.5141729883617 155.40989975429562 L 528.7790575861745 157.16958266551785 L 526.8721548071709 158.78728593584225 L 524.8051985018407 160.24633597552156 L 522.5915313627986 161.53104104891705 L 520.2460215536661 162.6268456116035 L 517.7849646161235 163.5204774515576 L 515.2259712870408 164.20008623783855 L 512.5878419893895 164.65537213662623 L 509.89042888729665 164.87770322331272 L 507.15448651598587 164.86022050007216 L 504.40151211033526 164.59792942038737 L 501.65357686031456 164.0877769247012 L 498.93314941665005 163.32871310390794 L 496.26291305478225 162.32173672892867 L 493.66557797868904 161.06992401416755 L 491.1636903076911 159.57844011918502 L 488.77943933828783 157.85453303533922 L 486.53446470883097 155.90750965127685 L 484.4496651169883 153.74869394177114 L 482.5450102481553 151.3913673772578 L 480.8393575670101 148.8506918052078 L 479.35027560419576 146.143615207895 L 478.093875335672 143.28876089284725 L 477.084651203754 140.30630082098529 L 476.33533326652093 137.21781392186327 L 475.85675188652317 134.04613038423759 L 475.65771628104676 130.81516304217033 L 475.74490815523944 127.54972710082018 L 476.1227915268882 124.27534956085017 L 476.7935397284116 121.01806980491423 L 477.7569804386237 117.80423290297904 L 479.0105594550689 114.66027727439143 L 480.5493237683385 111.61251841278859 L 482.3659243439415 108.68693043447212 L 484.4506388562694 105.90892725111745 L 486.79141445428326 103.30314519317845 L 489.3739304711074 100.8932289207153 L 492.18168082113044 98.70162245337377 L 495.19607565990026 96.74936713076272 L 498.3965617154837 95.05590827852951 L 501.76076053644675 93.63891230416854 L 505.26462374262803 92.51409588028662 L 508.88260421178944 91.69506879210141 L 512.5878419893895 91.1931919308935 L 516.3523635714312 91.01745180662724 L 520.1472930828206 91.17435283177207 L 523.9430737571099 91.66782849538467 L 527.7096980189613 92.49917240274536 L 531.4169443791671 93.66699000237635 L 535.0346192744745 95.16717166028735 L 538.5328019215871 96.9928875720656 L 541.8820902072221 99.13460482828906 L 545.0538456045281 101.580126769099 L 548.0204350909491 104.31465458106425 L 550.7554680440328 107.32087090520693 L 553.234026109883 110.57904504073963 L 555.4328840739598 114.06715914622924 L 557.3307198156118 117.76105466008327 L 558.9083114958102 121.63459798696172 L 560.1487202116559 125.65986432746234 L 561.0374564507933 129.80733836666315 L 561.5626287932114 134.04613038423756 L 561.7150734362675 138.34420620625366 L 561.4884632601705 142.6686292876826 L 560.879395304594 146.98581309629108 L 559.8874556913961 151.26178186405772 L 558.5152612023461 155.46243768253433 L 556.7684769029693 159.5538318445614 L 554.6558093926826 163.50243827718367 L 552.1889754558385 167.27542687013724 L 549.3826460865466 170.8409344813946 L 546.2543660606299 174.16833139629782 L 542.8244494291687 177.22848103000194" fill="none" stroke="#c77dff" stroke-width="1" opacity="0.3" class="drift" />
<circle cx="614.7148223089324" cy="52.96547899528248" r="0.6920332292007322" fill="white" opacity="0.601175258806071" class="shimmer" style="animation-delay: 3.794399342551528s" />
<circle cx="764.7594141998329" cy="6.052975474288758" r="1.0458543325184295" fill="white" opacity="0.5375946427910712"  style="animation-delay: 3.5297866490066387s" />
<circle cx="390.78556898001614" cy="121.57908251241109" r="1.319227890992129" fill="white" opacity="0.5941693937243291"  style="animation-delay: 4.733668593780785s" />
<circle cx="532.5493628773596" cy="6.625779000880616" r="1.1259125681341504" fill="white" opacity="0.7920263218012902"  style="animation-delay: 1.8680350985793626s" />
<circle cx="658.8049376841166" cy="55.436653970088436" r="1.7318817866737597" fill="white" opacity="0.7602430114506757"  style="animation-delay: 4.86883536230173s" />
<circle cx="771.9306848604152" cy="15.65006023900306" r="1.0645786249099713" fill="white" opacity="0.6090837593387768"  style="animation-delay: 2.2636121084590775s" />
<circle cx="459.29760909126605" cy="133.89566638458504" r="1.5688371471663298" fill="white" opacity="0.38165826543137" class="shimmer" style="animation-delay: 3.974929541796249s" />
<circle cx="796.8861689030167" cy="174.92122458167762" r="0.6214763887921011" fill="white" opacity="0.43020551390431444"  style="animation-delay: 3.245625918316928s" />
<circle cx="464.5030439412603" cy="57.50447465763684" r="0.597700679845591" fill="white" opacity="0.42447314879632364" class="shimmer" style="animation-delay: 2.4279052918098776s" />
<circle cx="496.8188156529422" cy="84.62299247234677" r="0.798361912549791" fill="white" opacity="0.3850639837296644" class="shimmer" style="animation-delay: 4.4943809529000545s" />
<circle cx="785.8064855978408" cy="110.36876590666473" r="1.737054761395632" fill="white" opacity="0.7339851793513419"  style="animation-delay: 4.02999819497407s" />
<circle cx="262.94930139915033" cy="102.05838911461397" r="0.6066438737622268" fill="white" opacity="0.7137255352070755"  style="animation-delay: 2.3066191726537086s" />
<circle cx="674.9797292817722" cy="48.5399633437801" r="0.6572198181240002" fill="white" opacity="0.34909386717677166"  style="animation-delay: 0.900101878701256s" />
<circle cx="539.441071322817" cy="97.3124502247701" r="1.4719289172935979" fill="white" opacity="0.7702839516870146"  style="animation-delay: 4.8009229462597505s" />
<circle cx="264.3530195817716" cy="108.49028039053228" r="1.5479470057623015" fill="white" opacity="0.40689057994079664" class="shimmer" style="animation-delay: 1.3840017773055202s" />
<circle cx="160.92646237393228" cy="14.175376997351607" r="1.7493216314513202" fill="white" opacity="0.3308587132589083"  style="animation-delay: 0.8377878086748269s" />
<circle cx="452.3590765557403" cy="124.2681299526331" r="1.9533426108634835" fill="white" opacity="0.3645834471433865"  style="animation-delay: 1.041916450571585s" />
<circle cx="1.0259703231531248" cy="59.49484046278872" r="0.8686480726566834" fill="white" opacity="0.6553698500297671"  style="animation-delay: 4.873734407006073s" />
<circle cx="636.4114313808301" cy="110.27025571477745" r="1.303121473343508" fill="white" opacity="0.3971853092414977"  style="animation-delay: 4.047461550093159s" />
<circle cx="30.949589283739876" cy="110.20010223864638" r="1.2543594867502939" fill="white" opacity="0.564290226442197"  style="animation-delay: 1.4546336628277978s" />
<circle cx="30.10814358888041" cy="154.46223080447194" r="1.5416572376777067" fill="white" opacity="0.7316194307932671"  style="animation-delay: 0.4153345876521075s" />
<circle cx="392.98741388923287" cy="98.07100491798977" r="1.7503025828470145" fill="white" opacity="0.4851141902863994"  style="animation-delay: 1.7647905984587042s" />
<circle cx="306.17355309296687" cy="91.72521371304327" r="0.9269147563964287" fill="white" opacity="0.5227786806302221"  style="animation-delay: 1.471971888211302s" />
<circle cx="11.068556748448088" cy="186.77412641912275" r="1.1308649530602208" fill="white" opacity="0.7697131451710901"  style="animation-delay: 0.4533765316410543s" />
<circle cx="299.2486687526375" cy="143.44766134482515" r="0.7315557858807267" fill="white" opacity="0.4786339323274122"  style="animation-delay: 4.766103482834266s" />
<circle cx="544.9379924956254" cy="54.40941152768719" r="1.3136429868864892" fill="white" opacity="0.6020752941178011"  style="animation-delay: 0.9453742568601331s" />
<circle cx="456.4572546136697" cy="111.51729047210588" r="0.8058036849482878" fill="white" opacity="0.38661499397899096"  style="animation-delay: 3.4026664041085897s" />
<circle cx="459.76725269539446" cy="157.733940048298" r="0.6297061384377258" fill="white" opacity="0.7055079673858098"  style="animation-delay: 2.373586701187925s" />
<circle cx="236.7115965674895" cy="0.10593404107024362" r="1.687672228449976" fill="white" opacity="0.44804742107725687"  style="animation-delay: 3.147829706594931s" />
<circle cx="163.6306638757457" cy="107.1127918015335" r="0.8949577795325926" fill="white" opacity="0.6138621729130187"  style="animation-delay: 1.9761451295094712s" />
<circle cx="199.9877908757151" cy="109.44928524858368" r="0.6281659219901046" fill="white" opacity="0.42418407386956"  style="animation-delay: 3.688290526594895s" />
<circle cx="41.60686063411134" cy="62.89002615697434" r="1.1561062691058503" fill="white" opacity="0.46469119914515794" class="shimmer" style="animation-delay: 2.9177922961552327s" />
<circle cx="436.04062003780564" cy="70.81728617522897" r="1.69421030968806" fill="white" opacity="0.61025474355844"  style="animation-delay: 0.9516269770933594s" />
<circle cx="215.0546948215327" cy="106.73198671637505" r="1.3901227756762244" fill="white" opacity="0.7171874304834158" class="shimmer" style="animation-delay: 4.691737158929353s" />
<circle cx="191.5139291069753" cy="161.06371910659766" r="1.8568642881829645" fill="white" opacity="0.32027836023099526"  style="animation-delay: 3.501488703393363s" />
<circle cx="229.94822885719907" cy="149.96612716039178" r="1.8773004022193578" fill="white" opacity="0.6744501084566672"  style="animation-delay: 2.5554598497545964s" />
<circle cx="595.5715671009286" cy="23.247292778397586" r="0.6595144964018643" fill="white" opacity="0.3064824206164381" class="shimmer" style="animation-delay: 2.8958204201509483s" />
<circle cx="532.5505485750044" cy="140.8529410503387" r="1.2194209207586217" fill="white" opacity="0.518636722019638"  style="animation-delay: 1.19541750569653s" />
<circle cx="114.32900067925988" cy="192.18711670203615" r="1.696100195833525" fill="white" opacity="0.6719085141714982"  style="animation-delay: 3.023076168194275s" />
<circle cx="582.3638554574693" cy="47.46580387678594" r="1.4917698836778408" fill="white" opacity="0.5505939325913987"  style="animation-delay: 1.8433150606681004s" />
<circle cx="386.45140138558884" cy="119.2554411882699" r="1.170382967920609" fill="#e0aaff" opacity="0.8" filter="url(#glow)" class="shimmer" style="animation-delay: 0.5354743582893862s" />
<circle cx="677.7870645873245" cy="44.52544010434485" r="2.501402408087587" fill="#7b2cbf" opacity="0.8" filter="url(#glow)" class="shimmer" style="animation-delay: 2.7693451817558925s" />
<circle cx="793.5806617309357" cy="107.11230269876583" r="2.4696967089241793" fill="#7b2cbf" opacity="0.8" filter="url(#glow)" class="shimmer" style="animation-delay: 0.3956736293036591s" />
<circle cx="197.542778919712" cy="116.97179184282814" r="2.684655067676301" fill="#4a0080" opacity="0.8" filter="url(#glow)" class="shimmer" style="animation-delay: 2.842317629064858s" />
<circle cx="786.6374069302088" cy="156.82570352749886" r="1.276785627387142" fill="#7b2cbf" opacity="0.8" filter="url(#glow)" class="shimmer" style="animation-delay: 2.271639894310164s" />
<circle cx="10.778012741576504" cy="10.661382885769699" r="1.9715059870400657" fill="#c77dff" opacity="0.8" filter="url(#glow)" class="shimmer" style="animation-delay: 2.3609023487698364s" />
<circle cx="573.5311248762634" cy="90.33846979263393" r="2.589519991832979" fill="#c77dff" opacity="0.8" filter="url(#glow)" class="shimmer" style="animation-delay: 1.4570843356695506s" />
<circle cx="397.93345294596935" cy="125.45370194871124" r="2.8102500964458788" fill="#9d4edd" opacity="0.8" filter="url(#glow)" class="shimmer" style="animation-delay: 0.7448080801572379s" />
<line x1="194.7120501866512" y1="73.66447181399622" x2="445.92836441346213" y2="106.77070446704707" stroke="#e0aaff" stroke-width="0.5" opacity="0.3" />
<line x1="445.92836441346213" y1="106.77070446704707" x2="642.2896547870918" y2="126.0805198459718" stroke="#e0aaff" stroke-width="0.5" opacity="0.3" />
<line x1="98.85370511295777" y1="88.45562413246162" x2="702.2321831472684" y2="165.77501152583395" stroke="#e0aaff" stroke-width="0.5" opacity="0.3" />

  
    <text x="400" y="120" text-anchor="middle" class="name-text" fill="url(#textGrad)" filter="url(#textGlow)">
      JOEL HOOKS
    </text>
  
</svg>
