<svg xmlns="http://www.w3.org/2000/svg" viewBox="0 0 800 200" width="800" height="200">
  <rect width="800" height="200" fill="#1a0a0a"/>
  
    <defs>
      <linearGradient id="grad1" x1="0%" y1="0%" x2="100%" y2="100%">
        <stop offset="0%" style="stop-color:#ff4500;stop-opacity:0.8" />
        <stop offset="100%" style="stop-color:#ff6b35;stop-opacity:0.8" />
      </linearGradient>
      <linearGradient id="grad2" x1="100%" y1="0%" x2="0%" y2="100%">
        <stop offset="0%" style="stop-color:#f7c59f;stop-opacity:0.7" />
        <stop offset="100%" style="stop-color:#efa48b;stop-opacity:0.7" />
      </linearGradient>
      <linearGradient id="textGrad" x1="0%" y1="0%" x2="100%" y2="0%">
        <stop offset="0%" style="stop-color:#ff4500" />
        <stop offset="25%" style="stop-color:#ff6b35" />
        <stop offset="50%" style="stop-color:#f7c59f" />
        <stop offset="75%" style="stop-color:#efa48b" />
        <stop offset="100%" style="stop-color:#d4a5a5" />
      </linearGradient>
      <filter id="glow">
        <feGaussianBlur stdDeviation="3" result="coloredBlur"/>
        <feMerge>
          <feMergeNode in="coloredBlur"/>
          <feMergeNode in="SourceGraphic"/>
        </feMerge>
      </filter>
      <filter id="textGlow">
        <feGaussianBlur stdDeviation="2" result="coloredBlur"/>
        <feMerge>
          <feMergeNode in="coloredBlur"/>
          <feMergeNode in="SourceGraphic"/>
        </feMerge>
      </filter>
    </defs>
  
  
    <style>
      @keyframes float {
        0%, 100% { transform: translateY(0px); }
        50% { transform: translateY(-8px); }
      }
      @keyframes pulse {
        0%, 100% { opacity: 0.4; }
        50% { opacity: 0.9; }
      }
      @keyframes drift {
        0% { transform: translateX(0px); }
        50% { transform: translateX(10px); }
        100% { transform: translateX(0px); }
      }
      @keyframes shimmer {
        0% { opacity: 0.3; }
        50% { opacity: 1; }
        100% { opacity: 0.3; }
      }
      @keyframes glitch {
        0%, 100% { transform: translateX(0); }
        20% { transform: translateX(-2px); }
        40% { transform: translateX(2px); }
        60% { transform: translateX(-1px); }
        80% { transform: translateX(1px); }
      }
      @keyframes dataStream {
        0% { stroke-dashoffset: 0; }
        100% { stroke-dashoffset: -20; }
      }
      .float { animation: float 8s ease-in-out infinite; }
      .pulse { animation: pulse 8s ease-in-out infinite; }
      .drift { animation: drift 8s ease-in-out infinite; }
      .shimmer { animation: shimmer 3s ease-in-out infinite; }
      .glitch { animation: glitch 0.5s ease-in-out infinite; }
      .dataStream { animation: dataStream 2s linear infinite; }
      .name-text { 
        font-family: -apple-system, BlinkMacSystemFont, 'Segoe UI', Helvetica, Arial, sans-serif;
        font-weight: 700;
        font-size: 64px;
        letter-spacing: -2px;
      }
    </style>
  
  <rect x="0" y="160" width="800" height="50" fill="#ff4500" opacity="0.3" />
<rect x="0" y="170" width="800" height="40" fill="#ff6b35" opacity="0.25" />
<rect x="0" y="180" width="800" height="30" fill="#f7c59f" opacity="0.19999999999999998" />
<rect x="0" y="190" width="800" height="20" fill="#efa48b" opacity="0.14999999999999997" />
<rect x="0" y="200" width="800" height="10" fill="#d4a5a5" opacity="0.09999999999999998" />
<line x1="261.69918676330997" y1="170" x2="261.69918676330997" y2="280.9952520699784" stroke="#ff4500" stroke-width="1.897178429032743" opacity="0.21006082440022608" class="pulse" />
<line x1="261.69918676330997" y1="170" x2="289.5561164145321" y2="273.96347680123296" stroke="#ff4500" stroke-width="2.886801742419933" opacity="0.29049051770626544" class="pulse" />
<line x1="261.69918676330997" y1="170" x2="336.5213371814383" y2="299.59576605575927" stroke="#ff4500" stroke-width="2.4192976288417296" opacity="0.1434199687597581" class="pulse" />
<line x1="261.69918676330997" y1="170" x2="355.4213131793902" y2="263.7221264160802" stroke="#ff4500" stroke-width="1.8220159099879916" opacity="0.2809457613633891" class="pulse" />
<line x1="261.69918676330997" y1="170" x2="334.25401230988183" y2="211.8895480603196" stroke="#ff4500" stroke-width="2.8318974973726188" opacity="0.2678298996279246" class="pulse" />
<line x1="261.69918676330997" y1="170" x2="361.30441836458937" y2="196.6891413694778" stroke="#ff4500" stroke-width="2.888207066740924" opacity="0.2502684449238477" class="pulse" />
<line x1="261.69918676330997" y1="170" x2="368.87795737237866" y2="170" stroke="#ff4500" stroke-width="1.4344099952452716" opacity="0.2692978512774443" class="pulse" />
<line x1="261.69918676330997" y1="170" x2="343.11954953389" y2="148.18347954817403" stroke="#ff4500" stroke-width="1.8102709508667973" opacity="0.12540958602990906" class="pulse" />
<line x1="261.69918676330997" y1="170" x2="335.23334892184573" y2="127.54503168313579" stroke="#ff4500" stroke-width="1.1954291243498405" opacity="0.19283221942760984" class="pulse" />
<line x1="261.69918676330997" y1="170" x2="346.83658858026064" y2="84.86259818304936" stroke="#ff4500" stroke-width="1.9998480332206525" opacity="0.13726658257983398" class="pulse" />
<line x1="261.69918676330997" y1="170" x2="315.36838397313215" y2="77.04222363115426" stroke="#ff4500" stroke-width="1.4497874880761854" opacity="0.21921047596208637" class="pulse" />
<line x1="261.69918676330997" y1="170" x2="295.0664219758097" y2="45.47178287884974" stroke="#ff4500" stroke-width="2.924551215168592" opacity="0.1970782333040454" class="pulse" />
<path d="M 556.3373663322214 27.556304832547973 C 554.6303103570989 40.38585986779051, 532.4429031313599 50.604960803147435, 520.9905110551156 60.92380201290789 C 509.5381189788713 71.24264322266835, 499.820375481093 88.39448954489332, 487.62301387475566 89.4693520911107 C 475.42565226841833 90.54421463732807, 456.8311796960296 77.69181849997256, 447.8063414170915 67.3729772902121 C 438.7815031381534 57.054136080451656, 434.61089190459023 41.96543668856575, 433.47398420112717 27.55630483254798 C 432.3370764976641 13.147172976530209, 431.960056917375 -6.914348414167371, 440.9848951963131 -19.081813845894523 C 450.0097334752512 -31.249279277621675, 472.5816885898327 -45.953202032372786, 487.62301387475566 -45.448487757814924 C 502.6643391596786 -44.94377348325706, 519.7804548296066 -28.220993630274478, 531.2328469058509 -16.053528198547326 C 542.6852389820953 -3.886062766820176, 558.044422307344 14.726749797305438, 556.3373663322214 27.556304832547973 Z" fill="#f7c59f" opacity="0.18219860063170557" class="drift" />
<path d="M 112.94057147955655 40.45941003351028 C 113.9111532828952 51.99629606018763, 105.38994249921168 72.78964504103807, 96.37533600513311 77.98181352355826 C 87.36072951105453 83.17398200607845, 69.12373130064694 73.84908997308557, 58.85293251508512 71.6124209286314 C 48.582133729523306 69.37575188417722, 42.32186970422243 69.75396773935337, 34.75054329176223 64.56179925683318 C 27.179216879302025 59.369630774312995, 14.057768934488449 49.126334668782455, 13.42497404032391 40.45941003351029 C 12.792179146159372 31.79248539823812, 23.382447514314794 17.923108410272256, 30.953773926774996 12.560251445200166 C 38.525100339235195 7.197394480128075, 48.919920638697405 8.915560590028749, 58.852932515085115 8.282268243077745 C 68.78594439147282 7.64897589612674, 81.53723869102267 3.397640398422049, 90.55184518510124 8.760497363494139 C 99.56645167917982 14.12335432856623, 111.9699896762179 28.92252400683293, 112.94057147955655 40.45941003351028 Z" fill="#f7c59f" opacity="0.19680829447251286" class="drift" />
<path d="M 333.53118621844544 34.379149101667224 C 334.7968113751084 44.21468765262162, 332.6208031013762 63.669253212580244, 325.77802825339194 67.68264022451933 C 318.93525340540765 71.69602723645842, 302.0208414071284 60.014330604330574, 292.47453713053983 58.459471173301736 C 282.9282328539513 56.9046117422729, 272.7085885675366 62.366870650285406, 268.50020259386076 58.35348363834632 C 264.29181662018493 54.34009662640723, 266.3049009973276 41.45127365606952, 267.224221288485 34.379149101667224 C 268.14354157964243 27.30702454726493, 269.80773836712933 19.760746978749545, 274.01612434080516 15.92073631193255 C 278.224510314481 12.080725645115557, 285.11317830177165 12.547639666288534, 292.47453713053983 11.339085100765264 C 299.835895959308 10.130530535241993, 311.3415024654298 4.829398251975938, 318.1842773134141 8.669408918792932 C 325.0270521613984 12.509419585609926, 332.2655610617825 24.543610550712824, 333.53118621844544 34.379149101667224 Z" fill="#f7c59f" opacity="0.19088073187374532" class="drift" />
<path d="M 431.5411590574819 47.28998606367203 C 428.70618550065956 57.50694462645248, 410.1438255452856 62.03372679848191, 401.4351678392715 69.43594108154633 C 392.7265101332574 76.83815536461076, 389.0153160879638 89.35915350145008, 379.2892128213972 91.70327176205859 C 369.5631095548306 94.0473900226671, 349.1810562354863 90.90286492826179, 343.07854823987185 83.50065064519737 C 336.9760402442574 76.09843636213294, 340.4124753540956 57.098518097232365, 342.67416484771036 47.28998606367204 C 344.9358543413251 37.48145403011171, 350.5461772059461 31.846302862365, 356.64868520156057 24.6494584438354 C 362.75119319717504 17.4526140253058, 368.98982549162304 6.86146434232305, 379.2892128213972 4.108919552494427 C 389.58860015117136 1.356374762665805, 409.73635147419145 0.9373452863340646, 418.44500918020555 8.134189704863665 C 427.15366688621964 15.331034123393266, 434.3761326143042 37.073027500891584, 431.5411590574819 47.28998606367203 Z" fill="#f7c59f" opacity="0.21225781158989332" class="drift" />
<path d="M 554.3242854087858 66.62673680537972 L 562.0351655704002 62.77129672457255 L 569.7460457320145 66.62673680537972" fill="none" stroke="#d4a5a5" stroke-width="1.5" opacity="0.4" class="float" style="animation-delay: 2.130783096710995s" />
<path d="M 171.88030894481744 67.09028482511653 L 181.39794249263127 62.33146805120961 L 190.9155760404451 67.09028482511653" fill="none" stroke="#d4a5a5" stroke-width="1.5" opacity="0.4" class="float" style="animation-delay: 2.3829334457285842s" />
<path d="M 370.53700007015874 58.712095572681726 L 381.88769375089885 53.03674873231168 L 393.23838743163896 58.712095572681726" fill="none" stroke="#d4a5a5" stroke-width="1.5" opacity="0.4" class="float" style="animation-delay: 2.2330601879668044s" />
<path d="M 319.085463327905 41.55575173639733 L 328.7450480575589 36.72595937157039 L 338.4046327872128 41.55575173639733" fill="none" stroke="#d4a5a5" stroke-width="1.5" opacity="0.4" class="float" style="animation-delay: 1.2375932401268464s" />
<path d="M 164.5488831668696 25.01077224059668 L 173.56999550680348 20.500216070629733 L 182.59110784673737 25.01077224059668" fill="none" stroke="#d4a5a5" stroke-width="1.5" opacity="0.4" class="float" style="animation-delay: 2.330350521905954s" />

  
    <text x="400" y="120" text-anchor="middle" class="name-text" fill="url(#textGrad)" filter="url(#textGlow)">
      JOEL HOOKS
    </text>
  
</svg>
