<svg xmlns="http://www.w3.org/2000/svg" viewBox="0 0 800 200" width="800" height="200">
  <rect width="800" height="200" fill="#1a0a0a"/>
  
    <defs>
      <linearGradient id="grad1" x1="0%" y1="0%" x2="100%" y2="100%">
        <stop offset="0%" style="stop-color:#ff4500;stop-opacity:0.8" />
        <stop offset="100%" style="stop-color:#ff6b35;stop-opacity:0.8" />
      </linearGradient>
      <linearGradient id="grad2" x1="100%" y1="0%" x2="0%" y2="100%">
        <stop offset="0%" style="stop-color:#f7c59f;stop-opacity:0.7" />
        <stop offset="100%" style="stop-color:#efa48b;stop-opacity:0.7" />
      </linearGradient>
      <linearGradient id="textGrad" x1="0%" y1="0%" x2="100%" y2="0%">
        <stop offset="0%" style="stop-color:#ff4500" />
        <stop offset="25%" style="stop-color:#ff6b35" />
        <stop offset="50%" style="stop-color:#f7c59f" />
        <stop offset="75%" style="stop-color:#efa48b" />
        <stop offset="100%" style="stop-color:#d4a5a5" />
      </linearGradient>
      <filter id="glow">
        <feGaussianBlur stdDeviation="3" result="coloredBlur"/>
        <feMerge>
          <feMergeNode in="coloredBlur"/>
          <feMergeNode in="SourceGraphic"/>
        </feMerge>
      </filter>
      <filter id="textGlow">
        <feGaussianBlur stdDeviation="2" result="coloredBlur"/>
        <feMerge>
          <feMergeNode in="coloredBlur"/>
          <feMergeNode in="SourceGraphic"/>
        </feMerge>
      </filter>
    </defs>
  
  
    <style>
      @keyframes float {
        0%, 100% { transform: translateY(0px); }
        50% { transform: translateY(-8px); }
      }
      @keyframes pulse {
        0%, 100% { opacity: 0.4; }
        50% { opacity: 0.9; }
      }
      @keyframes drift {
        0% { transform: translateX(0px); }
        50% { transform: translateX(10px); }
        100% { transform: translateX(0px); }
      }
      @keyframes shimmer {
        0% { opacity: 0.3; }
        50% { opacity: 1; }
        100% { opacity: 0.3; }
      }
      @keyframes glitch {
        0%, 100% { transform: translateX(0); }
        20% { transform: translateX(-2px); }
        40% { transform: translateX(2px); }
        60% { transform: translateX(-1px); }
        80% { transform: translateX(1px); }
      }
      @keyframes dataStream {
        0% { stroke-dashoffset: 0; }
        100% { stroke-dashoffset: -20; }
      }
      .float { animation: float 8s ease-in-out infinite; }
      .pulse { animation: pulse 8s ease-in-out infinite; }
      .drift { animation: drift 8s ease-in-out infinite; }
      .shimmer { animation: shimmer 3s ease-in-out infinite; }
      .glitch { animation: glitch 0.5s ease-in-out infinite; }
      .dataStream { animation: dataStream 2s linear infinite; }
      .name-text { 
        font-family: -apple-system, BlinkMacSystemFont, 'Segoe UI', Helvetica, Arial, sans-serif;
        font-weight: 700;
        font-size: 64px;
        letter-spacing: -2px;
      }
    </style>
  
  <rect x="0" y="160" width="800" height="50" fill="#ff4500" opacity="0.3" />
<rect x="0" y="170" width="800" height="40" fill="#ff6b35" opacity="0.25" />
<rect x="0" y="180" width="800" height="30" fill="#f7c59f" opacity="0.19999999999999998" />
<rect x="0" y="190" width="800" height="20" fill="#efa48b" opacity="0.14999999999999997" />
<rect x="0" y="200" width="800" height="10" fill="#d4a5a5" opacity="0.09999999999999998" />
<line x1="418.6864237735895" y1="170" x2="418.6864237735895" y2="261.6808252651564" stroke="#ff4500" stroke-width="2.1253328810550527" opacity="0.22839644242982785" class="pulse" />
<line x1="418.6864237735895" y1="170" x2="444.05931156808913" y2="264.6929063838168" stroke="#ff4500" stroke-width="2.0590904673864943" opacity="0.2855610888363137" class="pulse" />
<line x1="418.6864237735895" y1="170" x2="483.7534480350099" y2="282.6993919180969" stroke="#ff4500" stroke-width="2.4442188460389134" opacity="0.24544321798533555" class="pulse" />
<line x1="418.6864237735895" y1="170" x2="485.61733417743744" y2="236.93091040384792" stroke="#ff4500" stroke-width="2.017945779482272" opacity="0.291673523421851" class="pulse" />
<line x1="418.6864237735895" y1="170" x2="525.8085324604065" y2="231.84697828649416" stroke="#ff4500" stroke-width="1.5255031975669682" opacity="0.22987567137095244" class="pulse" />
<line x1="418.6864237735895" y1="170" x2="553.3911422343015" y2="206.09402052820954" stroke="#ff4500" stroke-width="2.3794276265997283" opacity="0.22961065285163132" class="pulse" />
<line x1="418.6864237735895" y1="170" x2="565.3400346091111" y2="170" stroke="#ff4500" stroke-width="1.5598466559784945" opacity="0.27900617879746703" class="pulse" />
<line x1="418.6864237735895" y1="170" x2="506.53803519776176" y2="146.46023166512026" stroke="#ff4500" stroke-width="2.1434040958688394" opacity="0.25174552131680106" class="pulse" />
<line x1="418.6864237735895" y1="170" x2="534.2752278255189" y2="103.2647728653117" stroke="#ff4500" stroke-width="2.2004784570242184" opacity="0.1783611832567194" class="pulse" />
<line x1="418.6864237735895" y1="170" x2="486.5118445174572" y2="102.17457925613236" stroke="#ff4500" stroke-width="2.875647230423391" opacity="0.20527423144575802" class="pulse" />
<line x1="418.6864237735895" y1="170" x2="481.12207505448947" y2="61.85827977782853" stroke="#ff4500" stroke-width="2.3800434046310577" opacity="0.10397808716335365" class="pulse" />
<line x1="418.6864237735895" y1="170" x2="453.7374238687503" y2="39.187886788758675" stroke="#ff4500" stroke-width="1.0609886128716348" opacity="0.14997298592251723" class="pulse" />
<path d="M 637.6693531746682 21.60393202871846 C 635.9569110725174 31.741143165326825, 634.1427680121599 40.11302366044287, 628.3825895589837 46.87823913209092 C 622.6224111058075 53.64345460373897, 610.4506701788558 63.277606169819606, 603.1082824556112 62.19522485860675 C 595.7658947323665 61.112843547393894, 592.2309244646732 47.14916673646184, 584.3282632195159 40.38395126481379 C 576.4256019743585 33.61873579316574, 557.1255095652854 29.297133021368474, 555.6923149846672 21.603932028718468 C 554.259120404049 13.910731036068462, 567.8264344906491 -0.5816608172616577, 575.7290957358065 -5.775254691086239 C 583.6317569809638 -10.968848564910822, 592.6202580495974 -8.196002381483517, 603.1082824556112 -9.55763121422902 C 613.596306861625 -10.919260046974522, 632.8970637187127 -19.138621561383832, 638.6572421718889 -13.945027687559254 C 644.4174206250651 -8.751433813734675, 639.381795276819 11.466720892110098, 637.6693531746682 21.60393202871846 Z" fill="#f7c59f" opacity="0.24941486912490388" class="drift" />
<path d="M 636.9122551908259 52.408478444769045 C 639.2967301719482 60.87209110046955, 626.992849687541 77.45838151548224, 618.5001160047904 84.95274135523741 C 610.0073823220397 92.44710119499257, 596.387926294642 97.79065191980285, 585.955853094322 97.37463748330005 C 575.523779894002 96.95862304679724, 561.0635177162757 89.95101457597576, 555.9076768028705 82.4566547362206 C 550.7518358894653 74.96229489646544, 552.9934590987154 60.397188693410904, 555.0208076138908 52.40847844476905 C 557.0481561290662 44.4197681961272, 562.9159269805173 41.52074128792639, 568.0717678939225 34.524393244369506 C 573.2276088073277 27.52804520081262, 579.9356033902997 10.4892781539836, 585.955853094322 10.430390183427747 C 591.9761027983444 10.371502212871894, 595.7005324353061 27.174717377477503, 604.1932661180567 34.171065421034385 C 612.6859998008074 41.16741346459127, 634.5277802097037 43.944865789068544, 636.9122551908259 52.408478444769045 Z" fill="#f7c59f" opacity="0.21996060646667165" class="drift" />
<path d="M 160.74723237749535 30.615503641020045 C 161.34622555782803 41.56925845870521, 165.3192909596731 54.776383621811476, 159.30205387729796 65.27374763507359 C 153.28481679492282 75.7711116483357, 136.63715161579486 93.15909398606014, 124.64380988324442 93.59968772059274 C 112.65046815069397 94.04028145512534, 94.80130897581193 78.41467405553126, 87.3420034819953 67.91731004226915 C 79.88269798817868 57.419946029007036, 80.32572268466895 43.487184872427356, 79.88797692034467 30.61550364102005 C 79.4502311560204 17.743822409612747, 77.25622340223305 -0.6368069343834843, 84.71552889604968 -9.31277734617468 C 92.1748343898663 -17.988747757965875, 112.81171556670238 -22.91765150891668, 124.6438098832444 -21.44031882972713 C 136.47590419978644 -19.962986150537578, 149.6908577129267 -9.124751682828576, 155.70809479530183 -0.4487812710373795 C 161.72533187767698 8.227189140753817, 160.14823919716267 19.661748823334882, 160.74723237749535 30.615503641020045 Z" fill="#f7c59f" opacity="0.13252890070308868" class="drift" />
<path d="M 765.2768212234474 66.03204983142915 C 763.9180085964033 75.96480642805061, 754.7258731087178 87.90525008802386, 747.4713171040254 91.75388174016135 C 740.216761099333 95.60251339229883, 730.8965507358898 88.55071817323483, 721.7494851952932 89.12383974425407 C 712.6024196546966 89.69696131527331, 700.3339571247036 99.04124281841429, 692.5889238604456 95.1926111662768 C 684.8438905961875 91.34397951413932, 675.522291503481 75.99524283678132, 675.2792856097448 66.03204983142915 C 675.0362797160085 56.06885682607698, 683.3858552337698 39.19936444375335, 691.1308884980278 35.4134531341638 C 698.8759217622859 31.627541824574248, 711.0006011339162 43.859267136180364, 721.7494851952932 43.31658197389182 C 732.4983692566702 42.77389681160328, 748.3696368615974 28.371430850843, 755.6241928662898 32.157342160432556 C 762.8787488709822 35.943253470022114, 766.6356338504916 56.09929323480768, 765.2768212234474 66.03204983142915 Z" fill="#f7c59f" opacity="0.1554163811450006" class="drift" />
<path d="M 382.1643681608258 66.47939937146629 L 389.66162789347385 62.730769505142256 L 397.1588876261219 66.47939937146629" fill="none" stroke="#d4a5a5" stroke-width="1.5" opacity="0.4" class="float" style="animation-delay: 2.1219307222745307s" />
<path d="M 728.481057330717 32.997730118924686 L 739.6587312740302 27.408893147268103 L 750.8364052173433 32.997730118924686" fill="none" stroke="#d4a5a5" stroke-width="1.5" opacity="0.4" class="float" style="animation-delay: 1.6635047618926808s" />
<path d="M 741.1880106613554 66.21068602580952 L 749.2098097510118 62.19978648098134 L 757.2316088406682 66.21068602580952" fill="none" stroke="#d4a5a5" stroke-width="1.5" opacity="0.4" class="float" style="animation-delay: 2.2969183156621105s" />
<path d="M 199.19334462645497 67.97770206825848 L 206.7321067114114 64.20832102578026 L 214.27086879636784 67.97770206825848" fill="none" stroke="#d4a5a5" stroke-width="1.5" opacity="0.4" class="float" style="animation-delay: 2.665210609086465s" />
<path d="M 143.65870571563264 62.74814059038544 L 150.00350763975064 59.575739628326446 L 156.34830956386864 62.74814059038544" fill="none" stroke="#d4a5a5" stroke-width="1.5" opacity="0.4" class="float" style="animation-delay: 1.6266217500423772s" />

  
    <text x="400" y="120" text-anchor="middle" class="name-text" fill="url(#textGrad)" filter="url(#textGlow)">
      JOEL HOOKS
    </text>
  
</svg>
