<svg xmlns="http://www.w3.org/2000/svg" viewBox="0 0 800 200" width="800" height="200">
  <rect width="800" height="200" fill="#05010d"/>
  
    <defs>
      <linearGradient id="grad1" x1="0%" y1="0%" x2="100%" y2="100%">
        <stop offset="0%" style="stop-color:#4a0080;stop-opacity:0.8" />
        <stop offset="100%" style="stop-color:#7b2cbf;stop-opacity:0.8" />
      </linearGradient>
      <linearGradient id="grad2" x1="100%" y1="0%" x2="0%" y2="100%">
        <stop offset="0%" style="stop-color:#9d4edd;stop-opacity:0.7" />
        <stop offset="100%" style="stop-color:#c77dff;stop-opacity:0.7" />
      </linearGradient>
      <linearGradient id="textGrad" x1="0%" y1="0%" x2="100%" y2="0%">
        <stop offset="0%" style="stop-color:#4a0080" />
        <stop offset="25%" style="stop-color:#7b2cbf" />
        <stop offset="50%" style="stop-color:#9d4edd" />
        <stop offset="75%" style="stop-color:#c77dff" />
        <stop offset="100%" style="stop-color:#e0aaff" />
      </linearGradient>
      <filter id="glow">
        <feGaussianBlur stdDeviation="5" result="coloredBlur"/>
        <feMerge>
          <feMergeNode in="coloredBlur"/>
          <feMergeNode in="SourceGraphic"/>
        </feMerge>
      </filter>
      <filter id="textGlow">
        <feGaussianBlur stdDeviation="2" result="coloredBlur"/>
        <feMerge>
          <feMergeNode in="coloredBlur"/>
          <feMergeNode in="SourceGraphic"/>
        </feMerge>
      </filter>
    </defs>
  
  
    <style>
      @keyframes float {
        0%, 100% { transform: translateY(0px); }
        50% { transform: translateY(-8px); }
      }
      @keyframes pulse {
        0%, 100% { opacity: 0.4; }
        50% { opacity: 0.9; }
      }
      @keyframes drift {
        0% { transform: translateX(0px); }
        50% { transform: translateX(10px); }
        100% { transform: translateX(0px); }
      }
      @keyframes shimmer {
        0% { opacity: 0.3; }
        50% { opacity: 1; }
        100% { opacity: 0.3; }
      }
      @keyframes glitch {
        0%, 100% { transform: translateX(0); }
        20% { transform: translateX(-2px); }
        40% { transform: translateX(2px); }
        60% { transform: translateX(-1px); }
        80% { transform: translateX(1px); }
      }
      @keyframes dataStream {
        0% { stroke-dashoffset: 0; }
        100% { stroke-dashoffset: -20; }
      }
      .float { animation: float 8s ease-in-out infinite; }
      .pulse { animation: pulse 8s ease-in-out infinite; }
      .drift { animation: drift 8s ease-in-out infinite; }
      .shimmer { animation: shimmer 3s ease-in-out infinite; }
      .glitch { animation: glitch 0.5s ease-in-out infinite; }
      .dataStream { animation: dataStream 2s linear infinite; }
      .name-text { 
        font-family: -apple-system, BlinkMacSystemFont, 'Segoe UI', Helvetica, Arial, sans-serif;
        font-weight: 700;
        font-size: 64px;
        letter-spacing: -2px;
      }
    </style>
  
  <path d="M 427.5610417393816 3.273239664931449 C 426.0150637948346 19.43143420555996, 396.4793215149581 29.74957098108904, 385.1100134932311 48.378167114601794 C 373.74070547150416 67.00676324811455, 373.93636132380175 109.49989750983829, 359.34519360901965 115.04481646600797 C 344.75402589423754 120.58973542217765, 314.10496836924335 92.65545371526014, 297.56300720453834 81.64768085161992 C 281.0210460398333 70.63990798797971, 277.5424331993964 62.06058614861482, 260.09342662078944 48.99817928416674 C 242.64442004218247 35.93577241971866, 198.7435851611611 22.7830456020722, 192.86896773289658 3.273239664931465 C 186.99435030463206 -16.236566272209274, 208.79432551698108 -50.696848049233026, 224.84572205120236 -68.06065633867769 C 240.89711858542364 -85.42446462812235, 267.5829187866652 -96.7003154841025, 289.1773469382242 -100.90961007173652 C 310.77177508978326 -105.11890465937054, 336.87753525684167 -102.0395255215764, 354.4122909605565 -93.31642386448185 C 371.94704666427134 -84.5933222073873, 382.1944226973757 -64.66927738407148, 394.38588116051324 -48.57100012916926 C 406.57733962365074 -32.47272287426705, 429.1070196839286 -12.884954875697062, 427.5610417393816 3.273239664931449 Z" fill="#7b2cbf" opacity="0.15808737458970729" filter="url(#glow)" class="float" />
<path d="M 567.056969856973 136.5679567630433 C 567.5085975517309 165.64578127659996, 537.5729254536749 207.5756274618592, 513.9584452480266 225.15631338798693 C 490.3439650423783 242.73699931411466, 455.49659310371976 241.4550200474874, 425.37008862308295 242.0520723198097 C 395.24358414244614 242.64912459213198, 351.3002645263868 246.31931294804835, 333.19941836420566 228.73862702192062 C 315.0985722020245 211.1579410957929, 313.5431775243937 164.06967939039998, 316.7650116499961 136.5679567630433 C 319.9868457755985 109.0662341356866, 334.42957695563894 83.56576386610598, 352.5304231178201 63.72829125778047 C 370.6312692800012 43.89081864945496, 398.9170459628064 19.71627527161247, 425.37008862308295 17.543121113090223 C 451.8231312833595 15.369966954567973, 487.6341988738309 30.85189369832146, 511.24867907947925 50.689366306646974 C 534.8631592851276 70.52683891497249, 566.605342162215 107.49013224948663, 567.056969856973 136.5679567630433 Z" fill="#9d4edd" opacity="0.24190825785315365" filter="url(#glow)" class="float" />
<path d="M 668.5521289523479 195.57914017458646 C 670.8038547942768 210.46843867702287, 663.7064552860776 232.45874361386166, 654.0405689942149 245.15495943860583 C 644.3746827023523 257.85117526335, 624.8792101448321 270.94035029906706, 610.5568112011719 271.7564351230515 C 596.2344122575116 272.57251994703597, 583.2643943557738 254.73176342949745, 568.1061753322537 250.05146838251238 C 552.9479563087335 245.37117333552732, 533.4416820525947 252.7533862091288, 519.6074970600508 243.67466484114115 C 505.773312067507 234.5959434731535, 486.8331532966536 212.86941726598423, 485.10106537699056 195.57914017458646 C 483.3689774573275 178.2888630831887, 496.8826871322249 153.63410451394734, 509.2149695420725 139.9330022927545 C 521.5472519519201 126.2319000715617, 544.0194518456221 111.2083939617305, 559.0947598360763 113.37252684742955 C 574.1700678265304 115.53665973312862, 586.0942418003699 145.8433593441892, 599.6668174847974 152.91779960694885 C 613.239393169225 159.9922398697085, 629.0493286980495 148.70894499604776, 640.5302139426412 155.81916842398738 C 652.011099187233 162.929391851927, 666.3004031104189 180.68984167215004, 668.5521289523479 195.57914017458646 Z" fill="#c77dff" opacity="0.2379423916440754" filter="url(#glow)" class="float" />
<path d="M 699.6525365301163 111.4173808047934 C 696.8401424758198 128.58886528448025, 718.2191428133801 148.14136850121417, 712.7222758366901 157.50958651050416 C 707.22540886 166.87780451979415, 681.3817407665882 156.1338717300236, 666.6713346699756 167.62668886053342 C 651.960928573363 179.11950599104324, 641.5466662390617 221.05290434993842, 624.4598392570143 226.46648929356303 C 607.373012274967 231.88007423718764, 571.7489375423781 216.24240308305357, 564.1503727776915 200.10819852228107 C 556.5518080130048 183.97399396150857, 579.8437688319345 148.4903605865755, 578.8684506688945 129.66126192892798 C 577.8931325058545 110.83216327128046, 559.3873749168495 103.38179891146194, 558.2984637994513 87.13360657639596 C 557.2095526820531 70.88541424132998, 560.4281150085418 41.17931665604728, 572.3349839645057 32.172107918532106 C 584.2418529204696 23.164899181016935, 614.6299708132966 27.90870363160564, 629.7396775352348 33.090354151304936 C 644.849384257173 38.27200467100423, 646.3503971915961 59.69695678988154, 662.9932242961352 63.26201103672789 C 679.6360514006742 66.82706528357424, 723.486754790139 46.454784671038816, 729.5966401624692 54.480679632383065 C 735.7065255347993 62.506574593727315, 702.4649305844129 94.24589632510654, 699.6525365301163 111.4173808047934 Z" fill="#c77dff" opacity="0.11852989893709848" filter="url(#glow)" class="float" />
<path d="M 492.4128533190008 146.57390007446674 L 492.4128533190008 146.57390007446674 L 492.7602894589968 146.60429679801558 L 493.0997829021438 146.69502429382166 L 493.423491725081 146.8446998192158 L 493.72377447758146 147.05103635565985 L 493.9932877450197 147.31086875053114 L 494.22508053124585 147.62018994328918 L 494.41268445058523 147.9741969079486 L 494.55019875874245 148.36734584465236 L 494.6323693029942 148.7934160584601 L 494.6546605317329 149.24558187414377 L 494.6133197716152 149.71649185267086 L 494.5054330566457 150.1983544989568 L 494.32897187676826 150.6830295821158 L 494.08283030317676 151.16212412949903 L 493.7668520427461 151.62709210486767 L 493.3818470738402 152.06933673961052 L 492.9295976193314 152.4803144543988 L 492.4128533190008 152.85163928740133 L 491.83531557157255 153.17518673439082 L 491.20161112545156 153.44319590589646 L 490.5172551057574 153.64836891702805 L 489.78860377243865 153.78396644666037 L 489.02279740910456 153.84389843415357 L 488.2276938437111 153.82280892344684 L 487.4117931994227 153.71615411583971 L 486.5841545658975 153.520272753627 L 485.75430536702066 153.23244802644686 L 484.9321442799051 152.85096027011647 L 484.12783863100816 152.37512981317735 L 483.35171725777565 151.80534941857888 L 482.6141598776838 151.14310586606604 L 481.9254840503555 150.39099032401174 L 481.29583085211874 149.55269726670645 L 480.7350504055703 148.63301180350047 L 480.25258841914064 147.6377853986767 L 479.85737489313163 146.57390007446674 L 479.5577161391486 145.44922130315905 L 479.3611912392844 144.27253990672315 L 479.2745540399584 143.0535033927289 L 479.3036417331942 141.80253726253548 L 479.453291025646 140.53075693073865 L 479.72726283328564 139.2498709927097 L 480.12817636783933 137.97207666879237 L 480.6574534004219 136.70994833844574 L 481.3152733990339 135.47632015449986 L 482.1005401404334 134.2841637959524 L 483.01086029419395 133.14646247668554 L 484.04253436842134 132.07608237650652 L 485.19056029356966 131.08564269948175 L 486.44864980408676 130.18738559220847 L 487.80925765826674 129.39304717110352 L 489.26362361577276 128.71373091274947 L 490.8018269709114 128.15978465467848 L 492.4128533190008 127.74068243566295 L 494.0846731141879 127.46491237468646 L 495.8043314609387 127.33987174646353 L 497.55804846923303 127.37177035894315 L 499.3313293963011 127.56554327504715 L 501.10908369656073 127.924773847444 L 502.8757520072251 128.45162795201645 L 504.6154400107714 129.14680021351668 L 506.3120580379395 130.00947291646915 L 507.9494652069544 131.0372881865131 L 509.5116168369338 132.22633391298163 L 510.98271382657055 133.5711437635636 L 512.3473526536961 135.06471151741997 L 513.5906746276537 136.69851981520375 L 514.6985130148721 138.46258329418362 L 515.6575366588452 140.34550594523827 L 516.4553887290048 142.33455239704435 L 517.0808192587172 144.41573270249793 L 517.5238101707392 146.57390007446674 L 517.7756915387092 148.79286089353326 L 517.8292478952908 151.05549619059894 L 517.6788134710056 153.3438936931933 L 517.3203553320334 155.6394894171361 L 516.7515434796915 157.9232176858585 L 515.9718070781862 160.17566836915833 L 514.9823760897394 162.37725005233358 L 513.786307716417 164.50835777632312 L 512.3884971749412 166.54954393040708 L 510.7956724634036 168.48169083181836 L 509.0163729160002 170.286183491825 L 507.0609114825149 171.94508104589715 L 504.9413208120957 173.44128531678763 L 502.671283364653 174.75870498395093 L 500.26604591672367 175.8824138507922 L 497.7423189706175 176.79880173275748 L 495.11816171484907 177.49571653411118 L 492.4128533190008 177.9625961391397 L 489.64675147605493 178.1905888141032 L 486.8411392286743 178.17266089904345 L 484.0180612317799 177.90369066295258 L 481.2001507109624 177.38054730111227 L 478.4104484737772 176.6021541688254 L 475.6722154178419 175.56953547038722 L 473.0087400550377 174.2858457549939 L 470.4431426342268 172.75638171130166 L 467.99817749507366 170.98857589839386 L 465.69603532223056 168.99197220178723 L 463.558146991854 166.77818295756236 L 461.6049907108353 164.36082784444807 L 459.85590414301197 161.7554548013934 L 458.32890319590365 158.97944338548797 L 457.04050910619424 156.05189114068395 L 456.00558541242333 152.99348370027775 L 455.23718633942826 149.82634949419437 L 454.74641804139327 146.57390007446674 L 454.54231405943625 143.2606572076414 L 454.63172624613736 139.9120680099459 L 455.0192322940338 136.55430951875132 L 455.7070608787423 133.21408420105928 L 456.6950352909742 129.9184079954113 L 457.9805362863453 126.69439256684049 L 459.55848472868513 123.56902352440743 L 461.4213444427472 120.56893640677502 L 463.55914552708697 117.72019228255283 L 465.95952820876266 115.04805483827778 L 468.60780714980893 112.57677083753143 L 471.48705594255216 110.32935582956617 L 474.5782113582423 108.32738696480993 L 477.8601967426105 106.59080473775657 L 481.3100637842892 105.137725425179 L 484.9031517189955 103.98426591960249 L 488.6132628753938 103.1443825749661 L 492.4128533190008 102.62972558392458 L 496.27323720970554 102.44951029497409 L 500.164803357716 102.61040675331654 L 504.05724234321053 103.1164486130186 L 507.91978245777733 103.96896242059523" fill="none" stroke="#e0aaff" stroke-width="1" opacity="0.3" class="drift" />
<path d="M 696.1474322628137 61.68266660189814 L 696.1474322628137 61.68266660189814 L 696.4383097625811 61.70811508560256 L 696.7225375459406 61.784073180061384 L 696.993550265198 61.909383237338446 L 697.2449504110539 62.08213053942453 L 697.4705899930142 62.299665184437586 L 697.6646495578088 62.55863241558275 L 697.8217136991634 62.85501108471479 L 697.9368422466412 63.18415985935268 L 698.0056363636456 63.540870702730075 L 698.0242988346318 63.91942908168244 L 697.9896878786684 64.31368028759054 L 697.8993638901829 64.71710119188845 L 697.7516285774162 65.12287670041925 L 697.5455560441561 65.52398012073884 L 697.2810154400153 65.91325661381956 L 696.9586848881196 66.28350886691281 L 696.5800564857888 66.62758409794411 L 696.1474322628137 66.93846148400578 L 695.6639110724299 67.20933909747892 L 695.1333664811813 67.43371943316647 L 694.5604158147316 67.60549261858812 L 693.9503806064185 67.71901641721925 L 693.3092387831323 67.7691921608201 L 692.6435690080752 67.75153578187876 L 691.9604876813257 67.66224316028995 L 691.2675791760864 67.4982490493373 L 690.5728199603179 67.25727890439394 L 689.8844973194177 66.93789300298904 L 689.2111234550792 66.53952231642424 L 688.5613457878379 66.06249567032118 L 687.943854335571 65.5080578136427 L 687.3672870768921 64.8783781021093 L 686.8401342365867 64.17654959174148 L 686.3706424496576 63.40657843067324 L 685.9667197709543 62.5733635315526 L 685.6358424985984 61.68266660189814 L 685.3849647714195 60.74107270483486 L 685.2204318834039 59.755941616796555 L 685.1478982318181 58.73535034117421 L 685.1722507804117 57.6880272266342 L 685.2975388751702 56.6232782250747 L 685.5269111978477 55.55090590610588 L 685.8625605823798 54.481121921738755 L 686.3056773517628 53.42445368589815 L 686.8564117586541 52.391646097738466 L 687.51384603245 51.393559194890386 L 688.2759764496162 50.44106267212155 L 689.1397057533368 49.54492824193691 L 690.1008461539271 48.715720845933966 L 691.1541330437337 47.96368974889563 L 692.2932494603285 47.29866056136535 L 693.5108612305694 46.729929240600484 L 694.7986626264798 46.26615911422543 L 696.1474322628137 45.91528195557519 L 697.5470988665564 45.684404114690615 L 698.9868164513845 45.57971867434681 L 700.4550483361795 45.60642455659679 L 701.9396593569464 45.76865345241523 L 703.4280155367792 46.069405385533116 L 704.9070903996598 46.5104936519466 L 706.3635770416445 47.09249979942213 L 707.7840050080864 47.81473922723551 L 709.1548609686373 48.67523789607459 L 710.4627121334332 49.67072054226179 L 711.6943313146324 50.79661069002929 L 712.8368225077604 52.04704265136744 L 713.8777458474995 53.41488559586958 L 714.8052407828972 54.891779663949436 L 715.6081463176522 56.46818398677117 L 716.2761171722528 58.133436366184675 L 716.7997347462998 59.87582425888482 L 717.1706117912443 61.682666601898134 L 717.3814897458346 63.540405912320296 L 717.4263277385065 65.43470999393806 L 717.3003823224208 67.35058248790571 L 717.0002770793775 69.27248141489964 L 716.5240613079003 71.1844447730056 L 715.8712570977507 73.07022217979804 L 715.0428941873319 74.91341147940028 L 714.041532101088 76.69759917644357 L 712.8712691703012 78.40650350938554 L 711.5377381517228 80.02411893612936 L 710.048088273354 81.53486077575894 L 708.4109536543982 82.92370873183032 L 706.6364081659842 84.1763480153054 L 704.7359069196312 85.27930678906245 L 702.7222146905825 86.2200886710423 L 700.6093217019964 86.9872990594788 L 698.4123473125065 87.5707640811976 L 696.1474322628137 87.96164101243639 L 693.8316202457121 88.1525190807324 L 691.4827296673046 88.13750962573246 L 689.1192165641643 87.91232467581088 L 686.7600297309434 87.47434308554287 L 684.4244591945643 86.82266347570626 L 682.13197924386 85.95814332182063 L 679.9020872866403 84.88342364845838 L 677.7541398589956 83.60293890378425 L 675.7071871536624 82.12291171104943 L 673.7798074649708 80.45133232007997 L 671.9899429669108 78.59792271110976 L 670.3547382478961 76.57408543453647 L 668.8903830206849 74.39283740221069 L 667.6119604085685 72.0687289775844 L 666.5333021793639 69.61774884230874 L 665.6668522570916 67.05721524454994 L 665.0235397877009 64.40565435827034 L 664.6126629701678 61.682666601898156 L 664.441784788166 58.908781878117146 L 664.5166416908379 56.10530480291988 L 664.8410661745953 53.294151090606896 L 665.416924112088 50.49767635115912 L 666.2440675602841 47.738498636506726 L 667.3203036579058 45.03931614189056 L 668.6413800942114 42.4227215270533 L 670.2009874973159 39.91101436880729 L 671.9907789519985 37.526013291082975 L 674.0004067153592 35.28886934044346 L 676.2175760549308 33.21988218395316 L 678.6281159891215 31.338320701995045 L 681.2160665653591 29.662249531047813 L 683.9637821682587 28.20836308057202 L 686.8520502097613 26.991828504142603 L 689.8602244166927 26.026139048034487 L 692.9663717997621 25.322979130971945 L 696.1474322628137 24.892102427144586 L 699.3793896932741 24.74122413143713 L 702.6374532652611 24.875928481780818 L 705.8962475867467 25.299592499374043 L 709.1300102324215 26.013326784091618 L 712.3127951253471 27.01593407064695 L 715.418680163875 28.30388611200472 L 718.4219774363299 29.871319311253725 L 721.2974443251773 31.710049372788568 L 724.0204937752927 33.80960508941912 L 726.5674019878801 36.15728122517091 L 728.9155118028008 38.738210295343755 L 731.0434300477023 41.53545288715215 L 732.9312171623856 44.53010600730159 L 734.5605674512207 47.70142878847427 L 735.914978374875 51.02698473620389 L 736.9799073648188 54.482799552307995 L 737.7429147295533 58.04353343216715 L 738.1937913196749 61.68266660189812 L 738.3246697290881 65.37269673903799 L 738.1301179310725 69.0853468078148 L 737.6072143796436 72.79178173847296 L 736.7556037477011 76.46283229037469 L 735.5775326227864 80.06922436157362 L 734.0778646376926 83.58181194401331 L 732.2640746755003 86.97181187408572 L 730.146221955535 90.21103849353449 L 727.7369019769567 93.272136316041 L 725.0511774688136 96.12880879057629 L 722.1064886680394 98.75604126392736 L 718.9225434186136 101.13031627177213 L 715.5211877545522 103.22981933019153 L 711.9262577951063 105.03463345738606 L 708.1634139411499 106.52692072826503 L 704.259958515873 107.69108925204479 L 700.2446381392242 108.51394406445108 L 696.1474322628138 108.98482054086699 L 691.9993294189944 109.0956990639859 L 687.832092853428 108.84129981829847 L 683.678017313597 108.21915673303361 L 679.5696788554684 107.22966975386649 L 675.5396796059963 105.8761347905924 L 671.6203894796447 104.16475086176246 L 667.8436868919548 102.1046041366268 L 664.2407005419047 99.70762875823118 L 660.8415543470069 96.98854451770491 L 657.6751176105239 93.96477163717088 L 654.7687624787424 90.65632310579522 L 652.1481307079542 87.08567519875179 L 649.8369117057988 83.27761699077878 L 647.8566337402449 79.2590798530595 L 646.2264701221411 75.05894809287604 L 644.9630620645256 70.70785205842674 L 644.0803598044474 66.23794518498808" fill="none" stroke="#9d4edd" stroke-width="1" opacity="0.3" class="drift" />
<circle cx="403.57110365839" cy="8.327844581174215" r="1.5807015662917672" fill="white" opacity="0.7197357788585204" class="shimmer" style="animation-delay: 4.685234736483791s" />
<circle cx="82.10364701248132" cy="39.02058045699741" r="0.5925090567864719" fill="white" opacity="0.42833121225162946"  style="animation-delay: 4.933828425055387s" />
<circle cx="247.62381988842125" cy="40.22222765403023" r="0.8096825391566577" fill="white" opacity="0.785953497440818"  style="animation-delay: 2.3039654172161628s" />
<circle cx="507.08200316295427" cy="177.92025097228762" r="1.5753356747993736" fill="white" opacity="0.3593205876968279" class="shimmer" style="animation-delay: 2.996815738247378s" />
<circle cx="124.18447753576984" cy="96.12745697148925" r="1.5606332265610519" fill="white" opacity="0.5986872332162183"  style="animation-delay: 3.728368993641318s" />
<circle cx="190.39956140973703" cy="117.38715360729577" r="0.7996851086184088" fill="white" opacity="0.5566649869911762"  style="animation-delay: 2.028999761391165s" />
<circle cx="79.32901304705541" cy="191.8245683457099" r="1.696652018104745" fill="white" opacity="0.6741046939125275"  style="animation-delay: 0.5654547024039158s" />
<circle cx="657.8582234605105" cy="29.157398187847285" r="1.003377789322452" fill="white" opacity="0.6495559941570956"  style="animation-delay: 1.8634983187724674s" />
<circle cx="185.83343882229073" cy="54.557255077507925" r="1.886749548410331" fill="white" opacity="0.5867788827050249"  style="animation-delay: 3.820236579799079s" />
<circle cx="296.23759764774604" cy="186.02425016299384" r="0.9988504466297815" fill="white" opacity="0.5588896807388799" class="shimmer" style="animation-delay: 0.11691050797427271s" />
<circle cx="505.04218374280947" cy="77.34071673985916" r="1.6866139242527514" fill="white" opacity="0.6095499679576311" class="shimmer" style="animation-delay: 4.047130144738831s" />
<circle cx="458.2865491234946" cy="92.65604419996465" r="0.952017425402671" fill="white" opacity="0.7130135534551081"  style="animation-delay: 2.423478164321465s" />
<circle cx="310.52215555418064" cy="123.57555640838945" r="1.3641772442845284" fill="white" opacity="0.7408701939565581"  style="animation-delay: 1.678229417336482s" />
<circle cx="392.58220566744126" cy="192.48721284624168" r="1.8812468725784284" fill="white" opacity="0.30184326272140044"  style="animation-delay: 1.4409455363610257s" />
<circle cx="704.9588831625704" cy="70.90093964379243" r="1.247381407434096" fill="white" opacity="0.4476700812426962" class="shimmer" style="animation-delay: 0.4659054844501864s" />
<circle cx="402.38503087685604" cy="88.90380624884915" r="0.618230502921866" fill="white" opacity="0.603794233568443" class="shimmer" style="animation-delay: 2.604166810881976s" />
<circle cx="61.60288356651584" cy="82.59086602657142" r="1.6085496148024856" fill="white" opacity="0.32764360578922685"  style="animation-delay: 2.1018173740869583s" />
<circle cx="776.0791413077204" cy="160.77636164261057" r="1.1333320170105927" fill="white" opacity="0.7532790514909733"  style="animation-delay: 4.412599215063276s" />
<circle cx="398.3753645822571" cy="32.948153161133305" r="1.5763511454410257" fill="white" opacity="0.34727692829472795"  style="animation-delay: 0.8490071449673497s" />
<circle cx="688.3572515254245" cy="173.68355183242753" r="0.939173868551721" fill="white" opacity="0.3144385161760323" class="shimmer" style="animation-delay: 2.9796753418402933s" />
<circle cx="512.5700220214457" cy="56.44262923944958" r="1.635239632932206" fill="white" opacity="0.6055573702164045"  style="animation-delay: 0.9249764279684525s" />
<circle cx="787.5149068084104" cy="26.11589303385129" r="0.8167531346366637" fill="white" opacity="0.5277397331260925" class="shimmer" style="animation-delay: 2.1624868583023193s" />
<circle cx="259.7524915771439" cy="4.244952721700113" r="0.911865722547773" fill="white" opacity="0.4667117450969704" class="shimmer" style="animation-delay: 0.6403997995909871s" />
<circle cx="184.42414350406898" cy="56.63238351139475" r="1.790486696603581" fill="white" opacity="0.5903806751010257"  style="animation-delay: 1.3992940387997277s" />
<circle cx="525.9125215041213" cy="9.88440246166995" r="1.3666902568827393" fill="white" opacity="0.7041493397746557"  style="animation-delay: 1.8880648684846568s" />
<circle cx="615.722982328987" cy="183.08437615432462" r="1.4588812382185532" fill="white" opacity="0.32761596098265583"  style="animation-delay: 2.909729345926564s" />
<circle cx="577.6379711949481" cy="149.60540713394838" r="1.0961712687977645" fill="white" opacity="0.30404019508381824"  style="animation-delay: 1.789485234486864s" />
<circle cx="371.2738213133374" cy="5.674652203212371" r="0.5297962049452862" fill="white" opacity="0.759486574813679"  style="animation-delay: 2.7114469092364346s" />
<circle cx="230.52779746694583" cy="189.21025257137626" r="1.1558717778705478" fill="white" opacity="0.5704081721302943"  style="animation-delay: 2.0939041930692195s" />
<circle cx="677.294943475458" cy="122.62809718946426" r="0.6615884973536115" fill="white" opacity="0.44306549632657893" class="shimmer" style="animation-delay: 0.5705355044961269s" />
<circle cx="114.8778381919266" cy="25.097134142966617" r="0.8241537070485094" fill="white" opacity="0.3588479223966213"  style="animation-delay: 0.10829775820272891s" />
<circle cx="450.45123530845" cy="175.1788010432647" r="0.7927678091765665" fill="white" opacity="0.5009592867625214"  style="animation-delay: 0.8554901328438314s" />
<circle cx="699.4521688583492" cy="113.59187117622204" r="1.8365464806604566" fill="white" opacity="0.5134511865137321"  style="animation-delay: 4.299003820336451s" />
<circle cx="93.83818482456086" cy="148.3632683736055" r="1.2882120274442264" fill="white" opacity="0.6562227977019826" class="shimmer" style="animation-delay: 4.294563865660929s" />
<circle cx="152.28103295891594" cy="57.573238286757444" r="1.3210363311797675" fill="white" opacity="0.5900579921304396"  style="animation-delay: 1.3011344351019072s" />
<circle cx="610.7317050730595" cy="172.50765238352542" r="1.4190363014163243" fill="white" opacity="0.6463333279047343"  style="animation-delay: 3.9589884009139187s" />
<circle cx="598.9111677847795" cy="31.74866118599926" r="0.7145332160388788" fill="white" opacity="0.37747514813421573"  style="animation-delay: 2.0537763991833877s" />
<circle cx="12.987736860323551" cy="55.080751655754455" r="1.671301100350027" fill="white" opacity="0.5103164550680341"  style="animation-delay: 1.4341819818517965s" />
<circle cx="593.3705922689076" cy="188.20257227951834" r="0.6997132481140438" fill="white" opacity="0.6953563953302875"  style="animation-delay: 0.7314870583928745s" />
<circle cx="53.92360626504136" cy="11.893826261645035" r="1.0533826798461752" fill="white" opacity="0.6799977105935979"  style="animation-delay: 3.0566182209051895s" />
<circle cx="99.4021658779408" cy="22.925892370643464" r="2.6809255683321758" fill="#9d4edd" opacity="0.8" filter="url(#glow)" class="shimmer" style="animation-delay: 0.5258479564658058s" />
<circle cx="154.64177843639658" cy="89.13185099544529" r="1.342758692173644" fill="#4a0080" opacity="0.8" filter="url(#glow)" class="shimmer" style="animation-delay: 0.28915112069048954s" />
<circle cx="796.1521116634793" cy="193.42580009176018" r="1.7044299426334812" fill="#c77dff" opacity="0.8" filter="url(#glow)" class="shimmer" style="animation-delay: 2.752448618452005s" />
<circle cx="174.72117224577204" cy="10.512323723293004" r="1.4379837536917304" fill="#4a0080" opacity="0.8" filter="url(#glow)" class="shimmer" style="animation-delay: 1.7524157901399005s" />
<circle cx="188.1885233050083" cy="147.5592633076544" r="2.9604533856335986" fill="#4a0080" opacity="0.8" filter="url(#glow)" class="shimmer" style="animation-delay: 2.884139700514033s" />
<circle cx="661.7428027378887" cy="112.17219031296088" r="1.6798098192712292" fill="#e0aaff" opacity="0.8" filter="url(#glow)" class="shimmer" style="animation-delay: 2.544451637661756s" />
<circle cx="182.5837229331853" cy="145.53418988578494" r="1.9044997579294907" fill="#e0aaff" opacity="0.8" filter="url(#glow)" class="shimmer" style="animation-delay: 0.8199269472739472s" />
<circle cx="40.72089953500839" cy="124.58214382913746" r="2.505786496029447" fill="#4a0080" opacity="0.8" filter="url(#glow)" class="shimmer" style="animation-delay: 0.20092100925872391s" />
<line x1="398.9393351018436" y1="41.06846404788297" x2="503.1395272682783" y2="91.714425771713" stroke="#e0aaff" stroke-width="0.5" opacity="0.3" />
<line x1="505.0038593457047" y1="147.87008770289253" x2="284.74303472342854" y2="165.19600918334748" stroke="#e0aaff" stroke-width="0.5" opacity="0.3" />

  
    <text x="400" y="120" text-anchor="middle" class="name-text" fill="url(#textGrad)" filter="url(#textGlow)">
      JOEL HOOKS
    </text>
  
</svg>
