<svg xmlns="http://www.w3.org/2000/svg" viewBox="0 0 800 200" width="800" height="200">
  <rect width="800" height="200" fill="#05010d"/>
  
    <defs>
      <linearGradient id="grad1" x1="0%" y1="0%" x2="100%" y2="100%">
        <stop offset="0%" style="stop-color:#4a0080;stop-opacity:0.8" />
        <stop offset="100%" style="stop-color:#7b2cbf;stop-opacity:0.8" />
      </linearGradient>
      <linearGradient id="grad2" x1="100%" y1="0%" x2="0%" y2="100%">
        <stop offset="0%" style="stop-color:#9d4edd;stop-opacity:0.7" />
        <stop offset="100%" style="stop-color:#c77dff;stop-opacity:0.7" />
      </linearGradient>
      <linearGradient id="textGrad" x1="0%" y1="0%" x2="100%" y2="0%">
        <stop offset="0%" style="stop-color:#4a0080" />
        <stop offset="25%" style="stop-color:#7b2cbf" />
        <stop offset="50%" style="stop-color:#9d4edd" />
        <stop offset="75%" style="stop-color:#c77dff" />
        <stop offset="100%" style="stop-color:#e0aaff" />
      </linearGradient>
      <filter id="glow">
        <feGaussianBlur stdDeviation="5" result="coloredBlur"/>
        <feMerge>
          <feMergeNode in="coloredBlur"/>
          <feMergeNode in="SourceGraphic"/>
        </feMerge>
      </filter>
      <filter id="textGlow">
        <feGaussianBlur stdDeviation="2" result="coloredBlur"/>
        <feMerge>
          <feMergeNode in="coloredBlur"/>
          <feMergeNode in="SourceGraphic"/>
        </feMerge>
      </filter>
    </defs>
  
  
    <style>
      @keyframes float {
        0%, 100% { transform: translateY(0px); }
        50% { transform: translateY(-8px); }
      }
      @keyframes pulse {
        0%, 100% { opacity: 0.4; }
        50% { opacity: 0.9; }
      }
      @keyframes drift {
        0% { transform: translateX(0px); }
        50% { transform: translateX(10px); }
        100% { transform: translateX(0px); }
      }
      @keyframes shimmer {
        0% { opacity: 0.3; }
        50% { opacity: 1; }
        100% { opacity: 0.3; }
      }
      @keyframes glitch {
        0%, 100% { transform: translateX(0); }
        20% { transform: translateX(-2px); }
        40% { transform: translateX(2px); }
        60% { transform: translateX(-1px); }
        80% { transform: translateX(1px); }
      }
      @keyframes dataStream {
        0% { stroke-dashoffset: 0; }
        100% { stroke-dashoffset: -20; }
      }
      .float { animation: float 8s ease-in-out infinite; }
      .pulse { animation: pulse 8s ease-in-out infinite; }
      .drift { animation: drift 8s ease-in-out infinite; }
      .shimmer { animation: shimmer 3s ease-in-out infinite; }
      .glitch { animation: glitch 0.5s ease-in-out infinite; }
      .dataStream { animation: dataStream 2s linear infinite; }
      .name-text { 
        font-family: -apple-system, BlinkMacSystemFont, 'Segoe UI', Helvetica, Arial, sans-serif;
        font-weight: 700;
        font-size: 64px;
        letter-spacing: -2px;
      }
    </style>
  
  <path d="M 286.0391007673737 191.25476421146277 C 291.84396557682106 209.21143245471384, 291.75628458845273 243.5988748776357, 279.9916261685225 259.7373487031396 C 268.22696774859224 275.87582252864354, 237.9583930046879 284.07572137143967, 215.45115024779224 288.0856071644863 C 192.94390749089658 292.09549295753294, 163.47924625232633 294.22610828773395, 144.94816962714845 283.7966634614193 C 126.41709300197057 273.3672186351047, 111.18287467094147 246.6917009570561, 104.26469049672498 225.5089382065985 C 97.34650632250849 204.32617545614087, 92.45768644698367 170.5567697799023, 103.43906458184951 156.7000869586736 C 114.42044271671534 142.8434041374449, 152.40707461610583 147.51476460785395, 170.15295930592004 142.36884127922636 C 187.89884399573424 137.22291795059877, 197.41279305308169 124.21979732617356, 209.91437272073478 125.82454698690803 C 222.41595238838786 127.4292966476425, 232.47498263739874 141.09230303954072, 245.16243731183857 151.99733924363318 C 257.8498919862784 162.90237544772563, 280.2342359579264 173.2980959682117, 286.0391007673737 191.25476421146277 Z" fill="#9d4edd" opacity="0.21320566179793443" filter="url(#glow)" class="float" />
<path d="M 483.53247573003983 149.62615885007548 C 481.64147650624625 160.02474054104448, 467.84242139931473 162.48572762591263, 461.2760527377362 176.06169366925727 C 454.7096840761577 189.6376597126019, 456.85625226097125 222.54735435354738, 444.1342637605687 231.0819551101433 C 431.4122752601661 239.61655586673922, 402.6837501026317 235.25984281940242, 384.9441217353209 227.26929820883277 C 367.2044933680101 219.2787535982631, 341.91818002297447 200.33507860197125, 337.69649355670407 183.1386874467254 C 333.47480709043367 165.94229629147958, 351.05545161269026 141.43226562624014, 359.61400293769844 124.09095127735779 C 368.1725542627066 106.74963692847545, 374.44717181699184 91.32548208348786, 389.04780150675305 79.09080135343139 C 403.64843119651425 66.85612062337492, 433.2887399806415 44.91963320201703, 447.2177810762656 50.68286689701901 C 461.14682217188977 56.44610059202099, 466.5695989715355 97.17965486460051, 472.6220480804979 113.67020352344325 C 478.6744971894603 130.160752182286, 485.4234749538334 139.2275771591065, 483.53247573003983 149.62615885007548 Z" fill="#7b2cbf" opacity="0.1694452177658759" filter="url(#glow)" class="float" />
<path d="M 556.4487911754471 82.69504875594139 C 558.7139193639534 104.40066398039599, 600.5611611844696 139.99276895566044, 595.364879386711 153.51389911193974 C 590.1685975889524 167.03502926821903, 545.9505424942258 164.1709098171976, 525.2711003888957 163.8218296936172 C 504.59165828356555 163.47274957003677, 490.1103032517197 158.95762894953774, 471.2882267547302 151.4194183704572 C 452.4661502577407 143.88120779137668, 417.6320939268113 134.3802241543259, 412.3386414069586 118.592566219134 C 407.04518888710584 102.8049082839421, 428.06150374112866 71.2880231902663, 439.5275116356137 56.69347075930577 C 450.9935195300987 42.098918328345235, 467.1837963989678 38.28621840921865, 481.1346887738687 31.025251633370786 C 495.08558114876956 23.764284857522927, 506.45962897138486 14.418510748911714, 523.232865885019 13.127670104218609 C 540.0061027986532 11.836829459525504, 576.2381227072688 11.685644656591691, 581.7741102556735 23.280207765212154 C 587.3100978040782 34.87477087383262, 554.1836629869408 60.98943353148678, 556.4487911754471 82.69504875594139 Z" fill="#e0aaff" opacity="0.11944641583254044" filter="url(#glow)" class="float" />
<path d="M 688.4723593172362 77.37483924720641 C 691.0819014692155 95.01248545676246, 664.3499216766131 127.25791889395703, 647.3789167894597 136.85677544767694 C 630.4079119023063 146.45563200139685, 605.4650341624888 132.75023127919422, 586.6463299943159 134.96797856952588 C 567.827625826143 137.18572585985754, 546.2057313411333 156.10548799634816, 534.4666917804223 150.16325918966692 C 522.7276522197112 144.22103038298567, 526.4811675667686 117.7329192891025, 516.2120926300496 99.3146057294384 C 505.94301769333055 80.8962921697743, 468.4103887949032 53.017542060866994, 472.85224216010806 39.6533778316823 C 477.2940955253129 26.289213602497604, 522.88740072557 28.170303056933335, 542.8632128212786 19.12962035433022 C 562.8390249169871 10.088937651727106, 577.8973728916416 -16.57426468993812, 592.707114734359 -14.590718383936391 C 607.5168565770765 -12.607172077934662, 615.7607897804373 15.703305251816793, 631.7216638775835 31.030898190340594 C 647.6825379747297 46.358491128864394, 685.8628171652568 59.73719303765036, 688.4723593172362 77.37483924720641 Z" fill="#e0aaff" opacity="0.18890659596277137" filter="url(#glow)" class="float" />
<path d="M 667.4760724720502 64.31492869764601 L 667.4760724720502 64.31492869764601 L 667.7084725676118 64.33526107140999 L 667.9355597918446 64.39594870941919 L 668.1520886808244 64.49606669485739 L 668.352947867141 64.63408524061948 L 668.5332253394514 64.8078871755557 L 668.6882715752001 65.01479217616102 L 668.813759870064 65.25158749750341 L 668.9057432151391 65.51456489087687 L 668.9607071067385 65.79956333233432 L 668.9756177135888 66.10201712650715 L 668.9479648718261 66.41700889452486 L 668.8757994290802 66.73932690394578 L 668.7577645146154 67.0635261528891 L 668.5931203724573 67.38399258046387 L 668.3817624581071 67.69500974151678 L 668.1242325662356 67.99082725600161 L 667.8217228260378 68.26573032219264 L 667.4760724720502 68.51410956873607 L 667.0897573705346 68.73053051331578 L 666.6658723543184 68.90980189559052 L 666.2081064915706 69.04704215906509 L 665.7207114856961 69.13774337064551 L 665.2084634736656 69.17783188769147 L 664.6766185579902 69.16372511024557 L 664.1308624725594 69.09238369055248 L 663.5772548440499 68.96135861268498 L 663.0221685679853 68.76883260171094 L 662.472224871239 68.51365537395401 L 661.9342246802787 68.19537229705526 L 661.4150769563007 67.81424609022106 L 660.9217246941629 67.37127126068609 L 660.4610693113236 66.8681810414338 L 660.0398941755345 66.30744666697123 L 659.6647880355446 65.69226889779007 L 659.3420691273953 65.02656177938526 L 659.0777107298701 64.31492869764601 L 658.8772689362722 63.56263086837881 L 658.7458133959557 62.77554847395558 L 658.6878617579862 61.96013473389802 L 658.707318521142 61.12336326791127 L 658.8074189593605 60.272669178786565 L 658.9906787500009 59.41588434804093 L 659.258849884251 58.56116749852197 L 659.6128833850612 57.71692963487631 L 660.0528992986086 56.89175552420446 L 660.5781643609728 56.09432192488476 L 661.1870776730076 55.33331331098185 L 661.8771646439301 54.6173358724469 L 662.6450793885352 53.95483059711439 L 663.4866156848817 53.353986259010796 L 664.3967265194567 52.822653148485394 L 665.3695521659475 52.36825838299029 L 666.3984566625593 51.99772363288297 L 667.4760724720502 51.71738608437581 L 668.594353029069 51.532923441759834 L 669.7446328016993 51.449283743401395 L 670.9176944190665 51.470620730937085 L 672.1038423451655 51.600235468829155 L 673.2929825113845 51.840524862312016 L 674.4747072572003 52.192937666147124 L 675.6383848708076 52.657938514954225 L 676.7732529695893 53.23498043870693 L 677.8685149148683 53.92248625482784 L 678.9134384167616 54.71783915179917 L 679.897455453607 55.61738269897012 L 680.810262606699 56.61643043398088 L 681.6419208952261 57.70928509365617 L 682.3829541885941 58.889267467096964 L 683.0244452738557 60.14875476178418 L 683.558128664856 61.47922828558468 L 683.9764792569214 62.87133016040354 L 684.2727959564105 64.31492869764601 L 684.4412794480446 65.79919198241645 L 684.4771033044449 67.31266913325368 L 684.376477691404 68.84337862793059 L 684.1367049787757 70.37890301414201 L 683.7562266300284 71.90648925745522 L 683.2346608129988 73.41315391834114 L 682.5728302496346 74.8857922960367 L 681.7727799029393 76.31129062995456 L 680.837784184245 77.67664040984079 L 679.7723434526665 78.96905381430737 L 678.5821696703595 80.17607927409549 L 677.2741611712603 81.28571614174444 L 675.8563665965149 82.28652744346617 L 674.3379381459799 83.16774969209858 L 672.7290743911803 83.91939875209647 L 671.0409529900701 84.53237076860184 L 669.2856537370443 84.99853720262546 L 667.4760724720502 85.31083305309635 L 665.6258264595282 85.46333739374859 L 663.7491519304839 85.45134540819075 L 661.8607945584973 85.27143116964477 L 659.9758937121736 84.92150048228022 L 658.1098613917661 84.40083317826856 L 656.27825681581 83.71011434804424 L 654.4966576740262 82.85145407012313 L 652.7805291049723 81.82839530048521 L 651.1450914904788 80.64590967921741 L 649.6051881834388 79.31038111303172 L 648.1751543007081 77.82957709558856 L 646.8686877185021 76.21260783240119 L 645.6987234035857 74.4698733425856 L 644.6773121996889 72.61299881495633 L 643.8155051649549 70.65475860004445 L 643.1232445229443 68.60898932162458 L 642.6092622469625 66.49049269039172 L 642.2809872455098 64.31492869764602 L 642.1444620558394 62.09869995737237 L 642.2042698833554 59.858828050121105 L 642.4634727474065 57.61282280082479 L 642.9235614095073 55.37854549438877 L 643.5844176687833 53.17406709688706 L 644.4442895122023 51.017522605860776 L 645.4997795046804 48.9269626999887 L 646.745846697261 46.920203895798636 L 648.1758222211022 45.01467844669797 L 649.7814386218951 43.22728523708453 L 651.5528728744744 41.57424293141125 L 653.47880290175 40.07094663464824 L 655.5464773066357 38.7318293065373 L 657.7417979113593 37.57022914737608 L 660.0494145863835 36.59826413790571 L 662.452831742113 35.82671487039008 L 664.9345257515529 35.26491675245016 L 667.4760724720502 34.92066260001555 L 670.0582839400754 34.80011656132703 L 672.6613532255337 34.90774023080117 L 675.2650063521397 35.2462317203574 L 677.848660118688 35.816478357194434 L 680.391584593284 36.61752357173492 L 682.8730689993804 37.646548428348446 L 685.2725896693408 38.89886813538361 L 687.569978708667 40.36794375090669 L 689.7455919923749 42.045409177321375 L 691.7804751045617 43.92111341272148 L 693.6565258331776 45.9831779004368 L 695.3566518444976 48.21806869180075 L 696.8649221858032 50.61068301175666 L 698.1667113002288 53.14444969357438 L 699.2488342844354 55.80144282871097 L 700.0996721774562 58.5625078617502 L 700.7092861373542 61.40739924939713 L 701.0695194407707 64.314928697646 L 701.1740863284774 67.26312289342287 L 701.0186468170451 70.22938955708821 L 700.6008667019837 73.19069056100379 L 699.9204620904104 76.1237207876645 L 698.9792279206056 79.00509133935476 L 697.7810500507974 81.81151566052125 L 696.3319006292053 84.51999709456996 L 694.6398165907395 87.10801636903227 L 692.7148612617515 89.55371748734724 L 690.5690691917441 91.8360905021076 L 688.2163744688927 93.93514965366612 L 685.6725229134405 95.8321053795431 L 682.9549686784144 97.50952873404326 L 680.0827559195023 98.9515068037333 L 677.0763863242536 100.14378776267614 L 673.9576734139047 101.07391428120205 L 670.7495846480507 101.73134408305826 L 667.4760724720503 102.10755653745662 L 664.1618955485217 102.19614427418139 L 660.8324315066494 101.99288892079096 L 657.5134826254241 101.49582018022446 L 654.2310759386511 100.70525759391495 L 651.0112593098667 99.62383446884564 L 647.8798950736299 98.25650358584288 L 644.862452875493 96.61052444969377 L 641.9838033658946 94.69543198828546 L 639.2680144129723 92.5229867567239 L 636.7381514956386 90.10710685210944" fill="none" stroke="#9d4edd" stroke-width="1" opacity="0.3" class="drift" />
<path d="M 585.5539490052931 126.14453320601473 L 585.5539490052931 126.14453320601473 L 585.9794568998424 126.18176032302857 L 586.395237308318 126.29287503239244 L 586.7916861627654 126.47618387780139 L 587.1594449163233 126.7288859288658 L 587.48952002878 127.04710479716957 L 587.7733985580543 127.42593300275415 L 588.0031586190779 127.85948824024248 L 588.1715735218426 128.34098097241193 L 588.2722084623497 128.86279266307128 L 588.2995087132897 129.41656385170148 L 588.2488783447939 129.99329117053358 L 588.116748598772 130.58343231153697 L 587.9006351422958 131.1770178670806 L 587.5991835352719 131.7637688946202 L 587.2122023642264 132.3332189933756 L 586.7406836163149 132.87483963021342 L 586.1868099945284 133.37816741335143 L 585.5539490052931 133.83293198645129 L 584.8466337820302 134.2291832024499 L 584.070530741516 134.5574162362631 L 583.2323943027865 134.80869330831993 L 582.3400090296122 134.97476071668046 L 581.4021196859809 135.04815991405434 L 580.4283498183354 135.0223314170592 L 579.4291095973368 134.89171039810304 L 578.4154937645022 134.65181288480028 L 577.3991706341235 134.29931157718434 L 576.3922631973702 133.83210038840494 L 575.4072234624707 133.24934691924403 L 574.4567012414875 132.55153218971185 L 573.5534086596746 131.74047707117472 L 572.7099817170521 130.81935498882328 L 571.9388402730992 129.792690595668 L 571.252047853871 128.66634425443593 L 570.6611726960705 127.44748230149916 L 570.17715144442 126.14453320601473 L 569.810156906972 124.76712987650262 L 569.5694712478213 123.3260385048381 L 569.4633659581549 121.83307447278813 L 569.4989898949918 120.30100597750405 L 569.6822666127008 118.74344615854508 L 570.0178021359653 117.17473462883875 L 570.5088042349012 115.60980942432992 L 571.1570141642715 114.06407049083009 L 571.9626517200105 112.55323592073206 L 572.9243743485092 111.09319223585568 L 574.0392509183353 109.69984008488869 L 575.3027506313778 108.3889367839258 L 576.7087474119758 107.17593717584342 L 578.2495399696547 106.07583431813805 L 579.9158875849199 105.10300152898779 L 581.6970615194725 104.271037327369 L 583.5809118035596 103.59261479490614 L 585.5539490052931 103.07933686470508 L 587.6014404410544 102.7415990058077 L 589.7075201438693 102.58846072131934 L 591.8553117692397 102.62752721404344 L 594.0270634866336 102.86484249607778 L 596.2042937809202 103.30479512886967 L 598.3679469726874 103.95003767840356 L 600.4985571607065 104.80142085731921 L 602.5764191948715 105.85794320275689 L 604.5817652046888 107.11671700661898 L 606.4949451376883 108.57295107483708 L 608.2966097047228 110.21995074532838 L 609.9678940856654 112.04913544188103 L 611.4906007200171 114.05007388453991 L 612.8473794928054 116.21053691754658 L 614.0219036271532 118.5165677549215 L 614.9990396111624 120.9525692827946 L 615.7650095182877 123.50140789803201 L 616.3075441270394 126.14453320601471 L 616.616025307386 128.86211274802514 L 616.6816162172121 131.63318078199026 L 616.4973779420975 134.43580000068127 L 616.0583713148657 137.24723494018502 L 615.3617427669909 140.0441357097992 L 614.4067931911877 142.80273056362722 L 613.1950289322922 145.49902573515658 L 611.7301941707872 148.10901086998678 L 610.018284118802 150.60886831952348 L 608.0675386108645 152.97518450064607 L 605.888415839708 155.18516148374795 L 603.4935461596451 157.21682694467037 L 600.8976660549254 159.0492406052915 L 598.1175325465911 160.66269529316259 L 595.1718184871063 162.03891077270777 L 592.0809893659127 163.1612185391075 L 588.867162419525 164.01473582089517 L 585.5539490052931 164.5865271081975 L 582.1662813570337 164.86575160999362 L 578.7302249919181 164.84379514515717 L 575.2727781799066 164.5143850876521 L 571.8216600182931 163.87368711522288 L 568.4050887733513 162.92038265226526 L 565.0515522574624 161.6557260501926 L 561.7895721024228 160.08358071131744 L 558.6474638669274 158.2104335337449 L 555.6530949776712 156.04538723363657 L 552.8336425484257 153.60013028597984 L 550.2153531492563 150.88888441415816 L 547.8233066083542 147.92832975058494 L 545.6811859214637 144.73750798380433 L 543.8110553185096 141.33770400014248 L 542.2331484937671 137.7523067185479 L 540.9656689449769 134.00665000403376 L 540.0246042885267 130.12783472649573 L 539.4235563226738 126.14453320601474 L 539.1735884994283 122.0867774515061 L 539.2830923389272 117.98573275524029 L 539.7576741788228 113.87345834990818 L 540.6000634964494 109.78265696618486 L 541.8100438744899 105.74641524591547 L 543.3844075028319 101.79793706796562 L 545.3169339216868 97.97027192941586 L 547.5983935153268 94.29604059325527 L 550.2165760635583 90.80716026427979 L 553.1563444509344 87.53457158691108 L 556.3997134234212 84.50796977167437 L 559.9259530705046 81.7555421507924 L 563.7117164993462 79.3037144376325 L 567.7311909583356 77.17690791959564 L 571.9562714620399 75.39730974965563 L 576.3567557698747 73.98465841847494 L 580.900559378563 72.95604638736242 L 585.5539490052931 72.32574174295888" fill="none" stroke="#4a0080" stroke-width="1" opacity="0.3" class="drift" />
<circle cx="791.5343261769202" cy="25.430225325403157" r="1.215714869935884" fill="white" opacity="0.5175988835856591"  style="animation-delay: 1.9475235818124403s" />
<circle cx="371.62623189516745" cy="153.51051847804217" r="1.8748034855002578" fill="white" opacity="0.4988764856164019"  style="animation-delay: 0.4465867528565548s" />
<circle cx="568.2452942597475" cy="105.5578027001844" r="0.9943605185836789" fill="white" opacity="0.7865620728512834"  style="animation-delay: 1.2639742594117842s" />
<circle cx="178.1591894731827" cy="55.29432887669894" r="1.9392092598541124" fill="white" opacity="0.7658897874650785"  style="animation-delay: 2.678815657747938s" />
<circle cx="458.1435163358997" cy="67.92767767851622" r="0.6945981793394359" fill="white" opacity="0.3461249526715307"  style="animation-delay: 4.976522076710472s" />
<circle cx="728.552341627819" cy="16.157913511388067" r="1.7076111796174014" fill="white" opacity="0.7761648834676915"  style="animation-delay: 4.799211701303188s" />
<circle cx="88.84516735257222" cy="113.83994746772488" r="1.5660858546636525" fill="white" opacity="0.7883155110440374"  style="animation-delay: 2.826921295776926s" />
<circle cx="642.8224232241431" cy="160.04642414233535" r="1.5230931676586545" fill="white" opacity="0.6099660740430035" class="shimmer" style="animation-delay: 4.481909603351455s" />
<circle cx="61.46081998079804" cy="135.04866008272822" r="1.935396902886993" fill="white" opacity="0.36570342269020756"  style="animation-delay: 3.5562120409526865s" />
<circle cx="231.51329668144615" cy="1.8627165250276967" r="1.4133005428558345" fill="white" opacity="0.760320262269786"  style="animation-delay: 0.7891288644632799s" />
<circle cx="87.69587272576977" cy="141.4767862647886" r="0.6080575702681448" fill="white" opacity="0.34888331545704016" class="shimmer" style="animation-delay: 0.3694933319579652s" />
<circle cx="266.5220613202523" cy="128.71949406129394" r="0.5266166252581762" fill="white" opacity="0.47467803057089125"  style="animation-delay: 0.1320064415018818s" />
<circle cx="422.78984520746906" cy="160.15175110298375" r="1.7957284310307946" fill="white" opacity="0.485064860514311"  style="animation-delay: 0.6265377223770174s" />
<circle cx="724.3280027472432" cy="98.43568151256954" r="1.73549383011869" fill="white" opacity="0.4278079909044255" class="shimmer" style="animation-delay: 2.5412756713637075s" />
<circle cx="126.85574738631473" cy="118.12296488491651" r="1.284512918176583" fill="white" opacity="0.43686785102200637"  style="animation-delay: 4.828941195419554s" />
<circle cx="56.17338450328493" cy="6.317709276481898" r="1.063588167831944" fill="white" opacity="0.6001277274021914"  style="animation-delay: 1.376202449986822s" />
<circle cx="304.65276190256407" cy="58.493242955610604" r="0.9923737344779574" fill="white" opacity="0.5124729854662107"  style="animation-delay: 0.5557557279846559s" />
<circle cx="370.8371185114103" cy="196.45241663499547" r="1.859901141693021" fill="white" opacity="0.5442046859988332"  style="animation-delay: 2.1344705082743465s" />
<circle cx="162.81787319245194" cy="92.32285465061838" r="1.7418761079427318" fill="white" opacity="0.6018989405011594" class="shimmer" style="animation-delay: 1.968834426024202s" />
<circle cx="435.26205610143444" cy="22.697590527512503" r="0.8847143966186994" fill="white" opacity="0.7274459293943398"  style="animation-delay: 3.9393598763059456s" />
<circle cx="183.35582382169804" cy="64.63359876955911" r="0.9215396153103713" fill="white" opacity="0.7050898797840812" class="shimmer" style="animation-delay: 4.397916084287616s" />
<circle cx="254.76250641167243" cy="179.39081985565727" r="1.2840347638185747" fill="white" opacity="0.31542081170798536" class="shimmer" style="animation-delay: 1.6294572486772152s" />
<circle cx="697.8528543733029" cy="48.69882337821334" r="1.3273893158356542" fill="white" opacity="0.6862939299111979" class="shimmer" style="animation-delay: 2.2201963118753563s" />
<circle cx="246.57573495641216" cy="63.959322738028845" r="0.9489358651818449" fill="white" opacity="0.41943780225294464" class="shimmer" style="animation-delay: 0.9626744390936426s" />
<circle cx="435.1446655812639" cy="69.34065546053701" r="0.6105947651406605" fill="white" opacity="0.47926826368706615"  style="animation-delay: 4.423542956617101s" />
<circle cx="387.2807273104314" cy="16.59382699852103" r="0.7830396359426425" fill="white" opacity="0.33782914135504444"  style="animation-delay: 4.531742606167865s" />
<circle cx="440.61340974778193" cy="107.43138617630095" r="1.3616284586779752" fill="white" opacity="0.7518338105424802"  style="animation-delay: 3.8453127267498677s" />
<circle cx="15.589061115434966" cy="197.43261902280875" r="1.1183612172699395" fill="white" opacity="0.5494916872595121" class="shimmer" style="animation-delay: 1.0575328459761135s" />
<circle cx="522.1754008913855" cy="10.002794669775295" r="1.963986215690813" fill="white" opacity="0.4563663653507936" class="shimmer" style="animation-delay: 0.33289350963818576s" />
<circle cx="252.88696956220883" cy="9.572274764390576" r="1.850689064356298" fill="white" opacity="0.3778767892000528"  style="animation-delay: 0.7282927386978832s" />
<circle cx="241.09318840899246" cy="138.9878952439231" r="0.9716753378117554" fill="white" opacity="0.7272518248984172"  style="animation-delay: 4.881417885277427s" />
<circle cx="707.4955484876989" cy="183.0124126551672" r="1.019133743419165" fill="white" opacity="0.7913056092500392" class="shimmer" style="animation-delay: 2.089356422525148s" />
<circle cx="280.56943742196444" cy="29.267766166522293" r="0.9500857929933296" fill="white" opacity="0.44237128751657867" class="shimmer" style="animation-delay: 0.12495256364340679s" />
<circle cx="731.8423884710035" cy="132.46184045863018" r="0.7302146067145788" fill="white" opacity="0.7334256800055363" class="shimmer" style="animation-delay: 0.9598430029320937s" />
<circle cx="164.39226580309844" cy="24.077751806942118" r="0.745430889304266" fill="white" opacity="0.35953577526102826" class="shimmer" style="animation-delay: 2.235888140649056s" />
<circle cx="614.2388971741182" cy="131.7190675463842" r="0.7870225363324785" fill="white" opacity="0.49861218992850337" class="shimmer" style="animation-delay: 3.297380815447534s" />
<circle cx="487.9455869201992" cy="199.69691740529268" r="0.802852388536299" fill="white" opacity="0.6702325229159418"  style="animation-delay: 0.6482476445108776s" />
<circle cx="283.00550214504466" cy="183.60828317073475" r="1.5962687208626916" fill="white" opacity="0.5729269038729996"  style="animation-delay: 4.537557245050786s" />
<circle cx="741.0951192622317" cy="47.71481085594252" r="1.1891563499750382" fill="white" opacity="0.5018789522455318" class="shimmer" style="animation-delay: 1.9882678099756035s" />
<circle cx="511.9000082354102" cy="37.644838371966486" r="0.7118277641320697" fill="white" opacity="0.3502313372824429" class="shimmer" style="animation-delay: 1.0356056317670315s" />
<circle cx="638.7225988644427" cy="169.86601651152972" r="1.9501751480521805" fill="#e0aaff" opacity="0.8" filter="url(#glow)" class="shimmer" style="animation-delay: 1.6363270654535607s" />
<circle cx="570.9043345217007" cy="94.57526841291282" r="2.4783369177178542" fill="#9d4edd" opacity="0.8" filter="url(#glow)" class="shimmer" style="animation-delay: 1.8400164996564463s" />
<circle cx="635.7991961009402" cy="4.792483181927576" r="2.4855238082347935" fill="#4a0080" opacity="0.8" filter="url(#glow)" class="shimmer" style="animation-delay: 1.3919827538568976s" />
<circle cx="184.25430346577832" cy="35.16674947353784" r="2.7317525841043335" fill="#4a0080" opacity="0.8" filter="url(#glow)" class="shimmer" style="animation-delay: 2.5674179912204176s" />
<circle cx="521.0495425463342" cy="36.55539335458777" r="2.179217605410575" fill="#7b2cbf" opacity="0.8" filter="url(#glow)" class="shimmer" style="animation-delay: 2.1305953812224425s" />
<circle cx="41.6863348934152" cy="28.05031794077064" r="1.5562032251647717" fill="#9d4edd" opacity="0.8" filter="url(#glow)" class="shimmer" style="animation-delay: 0.8988502410242232s" />
<circle cx="756.4845822744171" cy="71.15471118131578" r="1.2681142197145014" fill="#e0aaff" opacity="0.8" filter="url(#glow)" class="shimmer" style="animation-delay: 0.21538171336969625s" />
<circle cx="644.9785262078555" cy="164.29553164981021" r="1.784581296400102" fill="#e0aaff" opacity="0.8" filter="url(#glow)" class="shimmer" style="animation-delay: 2.252916195971162s" />
<line x1="654.6364185157616" y1="71.98557910791294" x2="61.28568769482834" y2="111.72730221533752" stroke="#e0aaff" stroke-width="0.5" opacity="0.3" />
<line x1="61.28568769482834" y1="111.72730221533752" x2="154.67017896593808" y2="53.97958083583476" stroke="#e0aaff" stroke-width="0.5" opacity="0.3" />
<line x1="387.52478661599457" y1="151.75294610027316" x2="94.41704719623641" y2="133.02179132528505" stroke="#e0aaff" stroke-width="0.5" opacity="0.3" />

  
    <text x="400" y="120" text-anchor="middle" class="name-text" fill="url(#textGrad)" filter="url(#textGlow)">
      JOEL HOOKS
    </text>
  
</svg>
