<svg xmlns="http://www.w3.org/2000/svg" viewBox="0 0 800 200" width="800" height="200">
  <rect width="800" height="200" fill="#1a0a0a"/>
  
    <defs>
      <linearGradient id="grad1" x1="0%" y1="0%" x2="100%" y2="100%">
        <stop offset="0%" style="stop-color:#ff4500;stop-opacity:0.8" />
        <stop offset="100%" style="stop-color:#ff6b35;stop-opacity:0.8" />
      </linearGradient>
      <linearGradient id="grad2" x1="100%" y1="0%" x2="0%" y2="100%">
        <stop offset="0%" style="stop-color:#f7c59f;stop-opacity:0.7" />
        <stop offset="100%" style="stop-color:#efa48b;stop-opacity:0.7" />
      </linearGradient>
      <linearGradient id="textGrad" x1="0%" y1="0%" x2="100%" y2="0%">
        <stop offset="0%" style="stop-color:#ff4500" />
        <stop offset="25%" style="stop-color:#ff6b35" />
        <stop offset="50%" style="stop-color:#f7c59f" />
        <stop offset="75%" style="stop-color:#efa48b" />
        <stop offset="100%" style="stop-color:#d4a5a5" />
      </linearGradient>
      <filter id="glow">
        <feGaussianBlur stdDeviation="3" result="coloredBlur"/>
        <feMerge>
          <feMergeNode in="coloredBlur"/>
          <feMergeNode in="SourceGraphic"/>
        </feMerge>
      </filter>
      <filter id="textGlow">
        <feGaussianBlur stdDeviation="2" result="coloredBlur"/>
        <feMerge>
          <feMergeNode in="coloredBlur"/>
          <feMergeNode in="SourceGraphic"/>
        </feMerge>
      </filter>
    </defs>
  
  
    <style>
      @keyframes float {
        0%, 100% { transform: translateY(0px); }
        50% { transform: translateY(-8px); }
      }
      @keyframes pulse {
        0%, 100% { opacity: 0.4; }
        50% { opacity: 0.9; }
      }
      @keyframes drift {
        0% { transform: translateX(0px); }
        50% { transform: translateX(10px); }
        100% { transform: translateX(0px); }
      }
      @keyframes shimmer {
        0% { opacity: 0.3; }
        50% { opacity: 1; }
        100% { opacity: 0.3; }
      }
      @keyframes glitch {
        0%, 100% { transform: translateX(0); }
        20% { transform: translateX(-2px); }
        40% { transform: translateX(2px); }
        60% { transform: translateX(-1px); }
        80% { transform: translateX(1px); }
      }
      @keyframes dataStream {
        0% { stroke-dashoffset: 0; }
        100% { stroke-dashoffset: -20; }
      }
      .float { animation: float 8s ease-in-out infinite; }
      .pulse { animation: pulse 8s ease-in-out infinite; }
      .drift { animation: drift 8s ease-in-out infinite; }
      .shimmer { animation: shimmer 3s ease-in-out infinite; }
      .glitch { animation: glitch 0.5s ease-in-out infinite; }
      .dataStream { animation: dataStream 2s linear infinite; }
      .name-text { 
        font-family: -apple-system, BlinkMacSystemFont, 'Segoe UI', Helvetica, Arial, sans-serif;
        font-weight: 700;
        font-size: 64px;
        letter-spacing: -2px;
      }
    </style>
  
  <rect x="0" y="160" width="800" height="50" fill="#ff4500" opacity="0.3" />
<rect x="0" y="170" width="800" height="40" fill="#ff6b35" opacity="0.25" />
<rect x="0" y="180" width="800" height="30" fill="#f7c59f" opacity="0.19999999999999998" />
<rect x="0" y="190" width="800" height="20" fill="#efa48b" opacity="0.14999999999999997" />
<rect x="0" y="200" width="800" height="10" fill="#d4a5a5" opacity="0.09999999999999998" />
<line x1="362.98373911187593" y1="170" x2="362.98373911187593" y2="259.1116311533247" stroke="#ff4500" stroke-width="2.1750156482131633" opacity="0.18286559257149748" class="pulse" />
<line x1="362.98373911187593" y1="170" x2="395.6266191586693" y2="291.82488684000936" stroke="#ff4500" stroke-width="2.4521268563233116" opacity="0.2718115995264829" class="pulse" />
<line x1="362.98373911187593" y1="170" x2="433.4736297909198" y2="292.09207207607983" stroke="#ff4500" stroke-width="2.5095774585567643" opacity="0.1470656426640312" class="pulse" />
<line x1="362.98373911187593" y1="170" x2="465.6835115524997" y2="272.69977244062375" stroke="#ff4500" stroke-width="2.3137284466113495" opacity="0.13090439747962163" class="pulse" />
<line x1="362.98373911187593" y1="170" x2="464.28801789888814" y2="228.4880526277424" stroke="#ff4500" stroke-width="2.5291706054098655" opacity="0.29199353915231785" class="pulse" />
<line x1="362.98373911187593" y1="170" x2="449.017439989033" y2="193.052660671895" stroke="#ff4500" stroke-width="2.757208157354332" opacity="0.28977354049529674" class="pulse" />
<line x1="362.98373911187593" y1="170" x2="490.1063942699191" y2="170" stroke="#ff4500" stroke-width="2.8458179710378464" opacity="0.2869806929737556" class="pulse" />
<line x1="362.98373911187593" y1="170" x2="497.58860332597544" y2="133.93273533653112" stroke="#ff4500" stroke-width="1.1371848953809218" opacity="0.24736198075137755" class="pulse" />
<line x1="362.98373911187593" y1="170" x2="487.5155563235532" y2="98.10152181016488" stroke="#ff4500" stroke-width="2.517963312114028" opacity="0.19596770571468014" class="pulse" />
<line x1="362.98373911187593" y1="170" x2="421.6111971968995" y2="111.3725419149764" stroke="#ff4500" stroke-width="2.692251839599303" opacity="0.2362920400024448" class="pulse" />
<line x1="362.98373911187593" y1="170" x2="430.0961532512341" y2="53.75788889202785" stroke="#ff4500" stroke-width="1.9448149361032785" opacity="0.16406791029766882" class="pulse" />
<line x1="362.98373911187593" y1="170" x2="391.6377795794928" y2="63.06166513271924" stroke="#ff4500" stroke-width="1.0190537275109377" opacity="0.21101536715645763" class="pulse" />
<path d="M 461.04934103905396 30.678461781233356 C 458.43484670305463 39.8667898630911, 452.2526150185279 46.42509828044635, 446.5489695669076 50.39996301880865 C 440.8453241152873 54.37482775717095, 434.9180872852562 53.01086500134165, 426.8274683293323 54.527650211407135 C 418.7368493734084 56.04443542147262, 403.41172540078 63.47553901756386, 398.0052558313641 59.50067427920156 C 392.59878626194813 55.52580954083926, 393.022264095574 38.919479129959974, 394.3886509128368 30.67846178123336 C 395.7550377300996 22.437444432506744, 400.79710716552495 15.831506095597994, 406.20357673494084 10.054570186841882 C 411.61004630435673 4.277634278085771, 417.48874185467184 -1.5190577281066822, 426.8274683293323 -3.9831536713033024 C 436.16619480399277 -6.447249614499922, 456.5322901312832 -10.506941381093949, 462.2359355829035 -4.73000547233784 C 467.93958103452377 1.0469304364182692, 463.6638353750533 21.49013369937561, 461.04934103905396 30.678461781233356 Z" fill="#f7c59f" opacity="0.12077466746929594" class="drift" />
<path d="M 724.7447224748109 54.209604950629796 C 724.0975044310968 69.18725664307152, 714.5651243434312 88.79235303602357, 703.9309445279187 97.20090589681247 C 693.2967647124061 105.60945875760137, 673.150282225434 106.78071712039267, 660.9396435817359 104.66092211536318 C 648.7290049380379 102.54112711033369, 640.8446639300361 92.89068872742443, 630.6671126657302 84.48213586663553 C 620.4895614014243 76.07358300584663, 599.9484147974127 64.37452739081024, 599.8743359959009 54.2096049506298 C 599.800257194389 44.044682510449356, 620.0450885923531 30.67034164245666, 630.2226398566589 23.492601225552846 C 640.4001911209648 16.314860808649033, 648.0077080928119 13.836096696438712, 660.9396435817359 11.143162449206926 C 673.87157907066 8.45022820197514, 697.180072974691 0.15725532525831643, 707.8142527902036 7.334995742162128 C 718.4484326057161 14.512736159065941, 725.3919405185251 39.23195325818807, 724.7447224748109 54.209604950629796 Z" fill="#f7c59f" opacity="0.16262783826590907" class="drift" />
<path d="M 447.9969355855748 68.14413657565453 C 449.13154547448227 75.0796805510852, 434.3075914098965 85.11178245680546, 426.7276302561579 92.35459816866891 C 419.14766910241934 99.59741388053237, 411.7478457956078 110.44050757870914, 402.51716866314354 111.60103084683531 C 393.28649153067926 112.76155411496148, 375.4674838694625 106.56055348928942, 371.3435674613721 99.31773777742596 C 367.2196510532817 92.0749220655625, 376.3057675293238 77.06743429096785, 377.773670214601 68.14413657565453 C 379.2415728998782 59.22083886034121, 376.0270671649446 51.19961405537661, 380.15098357303503 45.77795148554605 C 384.2748999811255 40.35628891571549, 395.88900410486383 34.7869306849147, 402.51716866314354 35.61416115667117 C 409.14533322142324 36.441391628427645, 412.34000976897465 45.31967174625431, 419.9199709227132 50.74133431608487 C 427.4999320764518 56.162996885915426, 446.86232569666737 61.20859260022385, 447.9969355855748 68.14413657565453 Z" fill="#f7c59f" opacity="0.2101302866375011" class="drift" />
<path d="M 377.1781848667311 59.84383909654935 C 375.48016704513145 67.36019746289978, 352.33363626257176 72.66011763996583, 343.8737222148894 77.29886073080161 C 335.4138081672071 81.93760382163738, 333.30473064617536 86.60860812077654, 326.41870058063716 87.67629764156396 C 319.53267051509897 88.74398716235139, 307.72353477364254 88.34374094636192, 302.5575418216604 83.70499785552616 C 297.3915488696782 79.0662547646904, 297.06692276348326 69.44173857761389, 295.42274286874436 59.84383909654936 C 293.77856297400547 50.24593961548483, 287.5264695012447 31.949807688027423, 292.6924624532268 26.117600969138998 C 297.85845540520893 20.285394250250572, 316.19047279876037 23.836747189292137, 326.41870058063716 24.850598783218807 C 336.64692836251396 25.864450377145477, 345.60191509680516 26.368503813810594, 354.0618291444875 32.20071053269902 C 362.5217431921698 38.03291725158744, 378.87620268833075 52.32748073019892, 377.1781848667311 59.84383909654935 Z" fill="#f7c59f" opacity="0.1682525695881641" class="drift" />
<path d="M 504.38390774339047 64.69066948225051 L 509.89842972604345 61.93340849092403 L 515.4129517086964 64.69066948225051" fill="none" stroke="#d4a5a5" stroke-width="1.5" opacity="0.4" class="float" style="animation-delay: 0.33631100767126276s" />
<path d="M 291.4422662392465 53.601098287403246 L 302.91419321671697 47.86513479866802 L 314.3861201941874 53.601098287403246" fill="none" stroke="#d4a5a5" stroke-width="1.5" opacity="0.4" class="float" style="animation-delay: 0.9760321804089367s" />
<path d="M 608.4488336482933 45.59135127642213 L 618.5286529599405 40.55144162059854 L 628.6084722715876 45.59135127642213" fill="none" stroke="#d4a5a5" stroke-width="1.5" opacity="0.4" class="float" style="animation-delay: 0.6195047572771586s" />
<path d="M 217.17049477287787 62.850533038632406 L 227.81680323023917 57.527378809951756 L 238.46311168760047 62.850533038632406" fill="none" stroke="#d4a5a5" stroke-width="1.5" opacity="0.4" class="float" style="animation-delay: 1.6201582757827115s" />
<path d="M 293.55935170376875 74.65008034883974 L 303.1432351442569 69.85813862859565 L 312.727118584745 74.65008034883974" fill="none" stroke="#d4a5a5" stroke-width="1.5" opacity="0.4" class="float" style="animation-delay: 0.6562089690499158s" />

  
    <text x="400" y="120" text-anchor="middle" class="name-text" fill="url(#textGrad)" filter="url(#textGlow)">
      JOEL HOOKS
    </text>
  
</svg>
