<svg xmlns="http://www.w3.org/2000/svg" viewBox="0 0 800 200" width="800" height="200">
  <rect width="800" height="200" fill="#1a0a0a"/>
  
    <defs>
      <linearGradient id="grad1" x1="0%" y1="0%" x2="100%" y2="100%">
        <stop offset="0%" style="stop-color:#ff4500;stop-opacity:0.8" />
        <stop offset="100%" style="stop-color:#ff6b35;stop-opacity:0.8" />
      </linearGradient>
      <linearGradient id="grad2" x1="100%" y1="0%" x2="0%" y2="100%">
        <stop offset="0%" style="stop-color:#f7c59f;stop-opacity:0.7" />
        <stop offset="100%" style="stop-color:#efa48b;stop-opacity:0.7" />
      </linearGradient>
      <linearGradient id="textGrad" x1="0%" y1="0%" x2="100%" y2="0%">
        <stop offset="0%" style="stop-color:#ff4500" />
        <stop offset="25%" style="stop-color:#ff6b35" />
        <stop offset="50%" style="stop-color:#f7c59f" />
        <stop offset="75%" style="stop-color:#efa48b" />
        <stop offset="100%" style="stop-color:#d4a5a5" />
      </linearGradient>
      <filter id="glow">
        <feGaussianBlur stdDeviation="3" result="coloredBlur"/>
        <feMerge>
          <feMergeNode in="coloredBlur"/>
          <feMergeNode in="SourceGraphic"/>
        </feMerge>
      </filter>
      <filter id="textGlow">
        <feGaussianBlur stdDeviation="2" result="coloredBlur"/>
        <feMerge>
          <feMergeNode in="coloredBlur"/>
          <feMergeNode in="SourceGraphic"/>
        </feMerge>
      </filter>
    </defs>
  
  
    <style>
      @keyframes float {
        0%, 100% { transform: translateY(0px); }
        50% { transform: translateY(-8px); }
      }
      @keyframes pulse {
        0%, 100% { opacity: 0.4; }
        50% { opacity: 0.9; }
      }
      @keyframes drift {
        0% { transform: translateX(0px); }
        50% { transform: translateX(10px); }
        100% { transform: translateX(0px); }
      }
      @keyframes shimmer {
        0% { opacity: 0.3; }
        50% { opacity: 1; }
        100% { opacity: 0.3; }
      }
      @keyframes glitch {
        0%, 100% { transform: translateX(0); }
        20% { transform: translateX(-2px); }
        40% { transform: translateX(2px); }
        60% { transform: translateX(-1px); }
        80% { transform: translateX(1px); }
      }
      @keyframes dataStream {
        0% { stroke-dashoffset: 0; }
        100% { stroke-dashoffset: -20; }
      }
      .float { animation: float 8s ease-in-out infinite; }
      .pulse { animation: pulse 8s ease-in-out infinite; }
      .drift { animation: drift 8s ease-in-out infinite; }
      .shimmer { animation: shimmer 3s ease-in-out infinite; }
      .glitch { animation: glitch 0.5s ease-in-out infinite; }
      .dataStream { animation: dataStream 2s linear infinite; }
      .name-text { 
        font-family: -apple-system, BlinkMacSystemFont, 'Segoe UI', Helvetica, Arial, sans-serif;
        font-weight: 700;
        font-size: 64px;
        letter-spacing: -2px;
      }
    </style>
  
  <rect x="0" y="160" width="800" height="50" fill="#ff4500" opacity="0.3" />
<rect x="0" y="170" width="800" height="40" fill="#ff6b35" opacity="0.25" />
<rect x="0" y="180" width="800" height="30" fill="#f7c59f" opacity="0.19999999999999998" />
<rect x="0" y="190" width="800" height="20" fill="#efa48b" opacity="0.14999999999999997" />
<rect x="0" y="200" width="800" height="10" fill="#d4a5a5" opacity="0.09999999999999998" />
<line x1="505.48100894244754" y1="170" x2="505.48100894244754" y2="319.0709710042532" stroke="#ff4500" stroke-width="1.9448450357015075" opacity="0.2818354469567754" class="pulse" />
<line x1="505.48100894244754" y1="170" x2="531.4907702910966" y2="267.0697508458995" stroke="#ff4500" stroke-width="2.8041170282589407" opacity="0.11349291180788788" class="pulse" />
<line x1="505.48100894244754" y1="170" x2="561.2092874761302" y2="266.5242098386884" stroke="#ff4500" stroke-width="1.0245462371230123" opacity="0.10604408900923828" class="pulse" />
<line x1="505.48100894244754" y1="170" x2="563.6526509487343" y2="228.17164200628673" stroke="#ff4500" stroke-width="1.236448066039474" opacity="0.2994099357368397" class="pulse" />
<line x1="505.48100894244754" y1="170" x2="630.8898109973597" y2="242.40480562515202" stroke="#ff4500" stroke-width="2.9763169128482785" opacity="0.2983970385051561" class="pulse" />
<line x1="505.48100894244754" y1="170" x2="615.9033991356649" y2="199.58759027858693" stroke="#ff4500" stroke-width="1.6338669818992262" opacity="0.2598941534792755" class="pulse" />
<line x1="505.48100894244754" y1="170" x2="622.7906002369532" y2="170" stroke="#ff4500" stroke-width="2.9752551839241166" opacity="0.22771069629793686" class="pulse" />
<line x1="505.48100894244754" y1="170" x2="586.9333343775065" y2="148.17491517803896" stroke="#ff4500" stroke-width="1.5811195138802612" opacity="0.12636819821332979" class="pulse" />
<line x1="505.48100894244754" y1="170" x2="586.9183108068394" y2="122.98215184651659" stroke="#ff4500" stroke-width="1.1254532361421243" opacity="0.11895886018106326" class="pulse" />
<line x1="505.48100894244754" y1="170" x2="563.2855772176267" y2="112.19543172482078" stroke="#ff4500" stroke-width="2.512458294371026" opacity="0.2332737786156808" class="pulse" />
<line x1="505.48100894244754" y1="170" x2="555.538924955797" y2="83.29714614386303" stroke="#ff4500" stroke-width="2.827367077470528" opacity="0.2668727269333043" class="pulse" />
<line x1="505.48100894244754" y1="170" x2="538.2074374755898" y2="47.863305964041544" stroke="#ff4500" stroke-width="1.2420261825646866" opacity="0.22822432695000477" class="pulse" />
<path d="M 750.1749579651117 27.31035223109194 C 748.8324076267581 40.244663480194696, 736.7096551352593 53.187768469102345, 727.0615380228393 62.08563496333938 C 717.4134209104193 70.98350145757641, 706.0956614433219 78.47990595453318, 692.2862552905918 80.69755119651414 C 678.4768491378618 82.9151964384951, 653.410250599653 84.28937290946217, 644.2051011064586 75.39150641522514 C 634.9999516132643 66.4936399209881, 635.8643635299279 42.1464088243049, 637.055358331426 27.310352231091947 C 638.246353132924 12.474295637878994, 642.145920422253 -6.022406144431179, 651.3510699154473 -13.624833144052587 C 660.5562194086416 -21.227260143673995, 678.3252936010063 -17.988309868765743, 692.2862552905918 -18.304209766636504 C 706.2472169801774 -18.620109664507265, 725.4687229405409 -23.12265953089856, 735.1168400529609 -15.520232531277152 C 744.7649571653809 -7.917805531655745, 751.5175083034653 14.376040981989185, 750.1749579651117 27.31035223109194 Z" fill="#f7c59f" opacity="0.20754667900590784" class="drift" />
<path d="M 418.5626055729074 23.475290067564472 C 415.98895439671435 32.99805599710301, 418.96905100583456 38.03364061100447, 414.88087124041266 44.32263432760097 C 410.79269147499076 50.611628044197474, 403.1911784018236 59.00071569904153, 394.03352698037617 61.20925236714349 C 384.8758755589287 63.417789035245455, 366.5404653690746 63.862848052809255, 359.9349627117279 57.573854336212754 C 353.32946005438123 51.28486061961625, 351.89788627461206 32.33885339542995, 354.400511036296 23.475290067564476 C 356.9031357979799 14.611726739699, 368.34520862448494 8.424097886108857, 374.9507112818316 4.392474369019904 C 381.5562139391783 0.3608508519309508, 384.8048491444196 2.1532882348057814, 394.03352698037617 -0.7144510349692439 C 403.2622048163327 -3.582190304744269, 426.234598532149 -16.8455847667192, 430.3227782975709 -12.813961249630246 C 434.4109580629928 -8.782337732541293, 421.1362567491004 13.952524138025936, 418.5626055729074 23.475290067564472 Z" fill="#f7c59f" opacity="0.16061873845547125" class="drift" />
<path d="M 374.18123954657733 65.15965760437969 C 373.6192732795035 77.00776122545652, 374.6230025553479 93.24502030563005, 367.93967274470026 99.01806966638863 C 361.2563429340526 104.7911190271472, 346.0111652481316 99.1541865574938, 334.0812606826913 99.79795376893111 C 322.15135611725105 100.44172098036842, 303.949772774877 108.65372229577105, 296.36024535205854 102.88067293501247 C 288.7707179292401 97.10762357425389, 288.57503290829084 77.76426614376727, 288.5440961457808 65.15965760437969 C 288.5131593832708 52.5550490649921, 288.5850973541801 35.45762288465638, 296.17462477699854 27.253021698686943 C 303.764152199817 19.048420512717506, 321.5584530876672 15.819312781689613, 334.0812606826913 15.932050488563057 C 346.60406827771544 16.044788195436503, 364.6281405364957 19.724846753958175, 371.31147034714337 27.929447939927613 C 377.994800157791 36.13404912589705, 374.7432058136512 53.31155398330285, 374.18123954657733 65.15965760437969 Z" fill="#f7c59f" opacity="0.15874719075970045" class="drift" />
<path d="M 548.2196809868985 30.881327991241747 C 547.777864201378 41.66444360016319, 530.871035892076 51.82658587053891, 521.1965275790709 61.90522446144437 C 511.52201926606585 71.98386305234982, 503.2825693454855 88.5845201234581, 490.17263110886825 91.35315953667448 C 477.062692872251 94.12179894989086, 449.3495543563551 88.59569953164808, 442.5368981593674 78.51706094074262 C 435.7242419623797 68.43842234983717, 447.5404236034552 45.003635317588504, 449.2966939269421 30.88132799124175 C 451.052964250429 16.759020664894997, 446.26186390330093 4.01399484021959, 453.0745201002886 -6.216783017337896 C 459.8871762972763 -16.44756087489538, 478.3771464102173 -31.073891458312108, 490.17263110886825 -30.503339154103173 C 501.9681158075192 -29.93278684989424, 514.1729199791893 -13.024247049641774, 523.8474282921943 -2.793469192084288 C 533.5219366051994 7.437308665473198, 548.6614977724191 20.098212382320305, 548.2196809868985 30.881327991241747 Z" fill="#f7c59f" opacity="0.22697590489590935" class="drift" />
<path d="M 506.51386660856605 43.228755247432176 L 515.81399546084 38.5786908212952 L 525.114124313114 43.228755247432176" fill="none" stroke="#d4a5a5" stroke-width="1.5" opacity="0.4" class="float" style="animation-delay: 2.1864203483524305s" />
<path d="M 684.5711462600385 67.20531415169002 L 695.6762263373215 61.65277411304852 L 706.7813064146045 67.20531415169002" fill="none" stroke="#d4a5a5" stroke-width="1.5" opacity="0.4" class="float" style="animation-delay: 0.7365232633951804s" />
<path d="M 107.51955008037781 64.41176440045562 L 118.27993177617908 59.03157355255498 L 129.04031347198037 64.41176440045562" fill="none" stroke="#d4a5a5" stroke-width="1.5" opacity="0.4" class="float" style="animation-delay: 1.4181275551198356s" />
<path d="M 658.3017609152007 82.36793498734913 L 667.0476916255645 77.9949696321672 L 675.7936223359284 82.36793498734913" fill="none" stroke="#d4a5a5" stroke-width="1.5" opacity="0.4" class="float" style="animation-delay: 0.39153505708164116s" />
<path d="M 320.81323305052496 80.77564077909337 L 332.59573763445326 74.88438848712923 L 344.37824221838156 80.77564077909337" fill="none" stroke="#d4a5a5" stroke-width="1.5" opacity="0.4" class="float" style="animation-delay: 2.224143750861865s" />

  
    <text x="400" y="120" text-anchor="middle" class="name-text" fill="url(#textGrad)" filter="url(#textGlow)">
      JOEL HOOKS
    </text>
  
</svg>
