<svg xmlns="http://www.w3.org/2000/svg" viewBox="0 0 800 200" width="800" height="200">
  <rect width="800" height="200" fill="#1a0a0a"/>
  
    <defs>
      <linearGradient id="grad1" x1="0%" y1="0%" x2="100%" y2="100%">
        <stop offset="0%" style="stop-color:#ff4500;stop-opacity:0.8" />
        <stop offset="100%" style="stop-color:#ff6b35;stop-opacity:0.8" />
      </linearGradient>
      <linearGradient id="grad2" x1="100%" y1="0%" x2="0%" y2="100%">
        <stop offset="0%" style="stop-color:#f7c59f;stop-opacity:0.7" />
        <stop offset="100%" style="stop-color:#efa48b;stop-opacity:0.7" />
      </linearGradient>
      <linearGradient id="textGrad" x1="0%" y1="0%" x2="100%" y2="0%">
        <stop offset="0%" style="stop-color:#ff4500" />
        <stop offset="25%" style="stop-color:#ff6b35" />
        <stop offset="50%" style="stop-color:#f7c59f" />
        <stop offset="75%" style="stop-color:#efa48b" />
        <stop offset="100%" style="stop-color:#d4a5a5" />
      </linearGradient>
      <filter id="glow">
        <feGaussianBlur stdDeviation="3" result="coloredBlur"/>
        <feMerge>
          <feMergeNode in="coloredBlur"/>
          <feMergeNode in="SourceGraphic"/>
        </feMerge>
      </filter>
      <filter id="textGlow">
        <feGaussianBlur stdDeviation="2" result="coloredBlur"/>
        <feMerge>
          <feMergeNode in="coloredBlur"/>
          <feMergeNode in="SourceGraphic"/>
        </feMerge>
      </filter>
    </defs>
  
  
    <style>
      @keyframes float {
        0%, 100% { transform: translateY(0px); }
        50% { transform: translateY(-8px); }
      }
      @keyframes pulse {
        0%, 100% { opacity: 0.4; }
        50% { opacity: 0.9; }
      }
      @keyframes drift {
        0% { transform: translateX(0px); }
        50% { transform: translateX(10px); }
        100% { transform: translateX(0px); }
      }
      @keyframes shimmer {
        0% { opacity: 0.3; }
        50% { opacity: 1; }
        100% { opacity: 0.3; }
      }
      @keyframes glitch {
        0%, 100% { transform: translateX(0); }
        20% { transform: translateX(-2px); }
        40% { transform: translateX(2px); }
        60% { transform: translateX(-1px); }
        80% { transform: translateX(1px); }
      }
      @keyframes dataStream {
        0% { stroke-dashoffset: 0; }
        100% { stroke-dashoffset: -20; }
      }
      .float { animation: float 8s ease-in-out infinite; }
      .pulse { animation: pulse 8s ease-in-out infinite; }
      .drift { animation: drift 8s ease-in-out infinite; }
      .shimmer { animation: shimmer 3s ease-in-out infinite; }
      .glitch { animation: glitch 0.5s ease-in-out infinite; }
      .dataStream { animation: dataStream 2s linear infinite; }
      .name-text { 
        font-family: -apple-system, BlinkMacSystemFont, 'Segoe UI', Helvetica, Arial, sans-serif;
        font-weight: 700;
        font-size: 64px;
        letter-spacing: -2px;
      }
    </style>
  
  <rect x="0" y="160" width="800" height="50" fill="#ff4500" opacity="0.3" />
<rect x="0" y="170" width="800" height="40" fill="#ff6b35" opacity="0.25" />
<rect x="0" y="180" width="800" height="30" fill="#f7c59f" opacity="0.19999999999999998" />
<rect x="0" y="190" width="800" height="20" fill="#efa48b" opacity="0.14999999999999997" />
<rect x="0" y="200" width="800" height="10" fill="#d4a5a5" opacity="0.09999999999999998" />
<line x1="412.050525989223" y1="170" x2="412.050525989223" y2="281.7022058663888" stroke="#ff4500" stroke-width="2.5044925760020513" opacity="0.19615058381512349" class="pulse" />
<line x1="412.050525989223" y1="170" x2="449.208230087721" y2="308.6744395882049" stroke="#ff4500" stroke-width="2.709874460209394" opacity="0.1908414191462638" class="pulse" />
<line x1="412.050525989223" y1="170" x2="472.29130229046575" y2="274.3400852411436" stroke="#ff4500" stroke-width="1.5271975129956519" opacity="0.2919841083515974" class="pulse" />
<line x1="412.050525989223" y1="170" x2="480.5424547595349" y2="238.4919287703119" stroke="#ff4500" stroke-width="1.7563852451526998" opacity="0.18500090108388817" class="pulse" />
<line x1="412.050525989223" y1="170" x2="519.7355046042646" y2="232.17195139107338" stroke="#ff4500" stroke-width="1.146634783732535" opacity="0.18361355922490805" class="pulse" />
<line x1="412.050525989223" y1="170" x2="499.5285808394672" y2="193.43967415256841" stroke="#ff4500" stroke-width="1.0985189091601812" opacity="0.1850041217113182" class="pulse" />
<line x1="412.050525989223" y1="170" x2="551.619518929603" y2="170" stroke="#ff4500" stroke-width="1.3014997425626458" opacity="0.1617246553578903" class="pulse" />
<line x1="412.050525989223" y1="170" x2="506.73811819722374" y2="144.62853613461874" stroke="#ff4500" stroke-width="2.1620487219836004" opacity="0.28730409694235504" class="pulse" />
<line x1="412.050525989223" y1="170" x2="531.5078948185233" y2="101.03125594971911" stroke="#ff4500" stroke-width="2.5579597905391833" opacity="0.1046303050027901" class="pulse" />
<line x1="412.050525989223" y1="170" x2="489.7944727592802" y2="92.25605322994278" stroke="#ff4500" stroke-width="2.54932920469517" opacity="0.12689148278413537" class="pulse" />
<line x1="412.050525989223" y1="170" x2="459.3487354922087" y2="88.07709803379176" stroke="#ff4500" stroke-width="1.9964087982662293" opacity="0.16870782646357743" class="pulse" />
<line x1="412.050525989223" y1="170" x2="433.9146632852075" y2="88.40192874772421" stroke="#ff4500" stroke-width="2.693586021117662" opacity="0.12465345478500552" class="pulse" />
<path d="M 211.54225657381386 29.317157908967083 C 210.30452925757498 36.71323886773786, 201.664199975378 42.18681182566504, 195.99357647017172 47.792218836562725 C 190.32295296496542 53.39762584746041, 183.97981964013266 62.64664951932849, 177.51851554257607 62.949599974353205 C 171.05721144501948 63.25255042937792, 161.30293478007712 55.21532857760871, 157.22575188483214 49.60992156671102 C 153.14856898958715 44.00451455581334, 152.9138155439358 35.93980983437806, 153.05541817110614 29.317157908967086 C 153.19702079827647 22.694505983556112, 153.99818475260918 17.019370640612603, 158.07536764785416 9.874010014245183 C 162.15255054309915 2.7286493878777627, 169.96108675595093 -12.478626360852918, 177.51851554257607 -13.555005849237432 C 185.0759443292012 -14.631385337621946, 197.74931686239876 -3.7296275424293226, 203.41994036760505 3.415733083938097 C 209.09056387281134 10.561093710305517, 212.77998389005273 21.921076950196312, 211.54225657381386 29.317157908967083 Z" fill="#f7c59f" opacity="0.15798084206346083" class="drift" />
<path d="M 755.2944478081872 75.13036300532426 C 753.9041045490536 85.49089786490106, 738.5304291564998 94.30906524249956, 729.7955104658965 102.04093780665372 C 721.0605917752932 109.77281037080787, 713.5985389375114 119.77818671774789, 702.884935664567 121.52159839024918 C 692.1713323916226 123.26501006275048, 671.6312404870881 120.23328040581566, 665.5138908282298 112.5014078416615 C 659.3965411693715 104.76953527750734, 664.0147958754902 85.42133611484326, 666.180837711417 75.13036300532426 C 668.3468795473437 64.83938989580525, 672.392792184932 58.27026251240587, 678.5101418437903 50.755569184547504 C 684.6274915026486 43.24087585668914, 692.9470309684157 31.85517646073314, 702.884935664567 30.042203038174037 C 712.8228403607184 28.229229615614933, 729.4026513300951 32.36303532133452, 738.1375700206984 39.87772864919289 C 746.8724887113017 47.39242197705126, 756.6847910673208 64.76982814574745, 755.2944478081872 75.13036300532426 Z" fill="#f7c59f" opacity="0.20717316176375228" class="drift" />
<path d="M 659.7977866494563 34.35178003008929 C 662.2914065306718 44.272143194266285, 654.2976966298113 65.19490610216262, 645.7492887986468 71.59372916626702 C 637.2008809674824 77.99255223037143, 618.4829505748535 75.1830905477239, 608.5073396624691 72.74471841471572 C 598.5317287500848 70.30634628170753, 591.4172579572921 63.36231943232232, 585.8956233243405 56.96349636821792 C 580.3739886913888 50.56467330411351, 575.934589996187 42.44607694089311, 575.3775318647595 34.351780030089294 C 574.8204737333319 26.25748311928548, 577.0316399028233 17.053790472683254, 582.5532745357749 8.397714903395023 C 588.0749091687265 -0.25836066589320694, 600.4682904998728 -18.19697926527509, 608.5073396624691 -17.584673385640087 C 616.5463888250655 -16.972367506005085, 622.2391616801888 3.4154746119168085, 630.7875695113534 12.071550181205037 C 639.3359773425179 20.727625750493267, 657.3041667682407 24.43141686591229, 659.7977866494563 34.35178003008929 Z" fill="#f7c59f" opacity="0.18468238801353432" class="drift" />
<path d="M 348.11139551773766 52.18191127010278 C 347.3999755724914 64.10171650464693, 333.71021900088624 79.13524958075115, 324.1049525239372 85.8070671379965 C 314.49968604698813 92.47888469524185, 300.7622093350298 93.13878922388642, 290.47979665604345 92.21281661357489 C 280.1973839770571 91.28684400326335, 271.3689014113797 86.92304903337262, 262.41047645001896 80.25123147612727 C 253.45205148865824 73.57941391888193, 238.5157269248864 63.324831375784804, 236.7292468878792 52.18191127010279 C 234.94276685087203 41.03899116442077, 242.7331712666151 21.9827557276367, 251.69159622797582 13.393710842035155 C 260.65002118933654 4.804665956433608, 277.69948399480364 0.4985544750440939, 290.47979665604345 0.6476419564935014 C 303.26010931728325 0.796729437942909, 318.76820571846554 5.699190845130053, 328.3734721954146 14.2882357307316 C 337.97873867236365 22.877280616333145, 348.8228154629839 40.26210603555863, 348.11139551773766 52.18191127010278 Z" fill="#f7c59f" opacity="0.2352801434522983" class="drift" />
<path d="M 630.3636970917132 41.86660966555329 L 637.7000054087899 38.19845550701491 L 645.0363137258666 41.86660966555329" fill="none" stroke="#d4a5a5" stroke-width="1.5" opacity="0.4" class="float" style="animation-delay: 1.6971189491809333s" />
<path d="M 86.14865627833503 75.41193448612933 L 96.6653563506616 70.15358444996605 L 107.18205642298817 75.41193448612933" fill="none" stroke="#d4a5a5" stroke-width="1.5" opacity="0.4" class="float" style="animation-delay: 1.7026006767341677s" />
<path d="M 459.30745422346365 46.14241979846213 L 469.1067850497221 41.24275438533293 L 478.9061158759805 46.14241979846213" fill="none" stroke="#d4a5a5" stroke-width="1.5" opacity="0.4" class="float" style="animation-delay: 1.3848082465861413s" />
<path d="M 528.8981871955464 56.54118041335193 L 534.9114998627331 53.534524079758576 L 540.9248125299198 56.54118041335193" fill="none" stroke="#d4a5a5" stroke-width="1.5" opacity="0.4" class="float" style="animation-delay: 0.4778196255587508s" />
<path d="M 538.2793393784414 52.78514265567711 L 544.7576292110743 49.5459977393606 L 551.2359190437073 52.78514265567711" fill="none" stroke="#d4a5a5" stroke-width="1.5" opacity="0.4" class="float" style="animation-delay: 0.6702455671420071s" />

  
    <text x="400" y="120" text-anchor="middle" class="name-text" fill="url(#textGrad)" filter="url(#textGlow)">
      JOEL HOOKS
    </text>
  
</svg>
