<svg xmlns="http://www.w3.org/2000/svg" viewBox="0 0 800 200" width="800" height="200">
  <rect width="800" height="200" fill="#0d1117"/>
  
    <defs>
      <linearGradient id="grad1" x1="0%" y1="0%" x2="100%" y2="100%">
        <stop offset="0%" style="stop-color:#ff6b6b;stop-opacity:0.8" />
        <stop offset="100%" style="stop-color:#feca57;stop-opacity:0.8" />
      </linearGradient>
      <linearGradient id="grad2" x1="100%" y1="0%" x2="0%" y2="100%">
        <stop offset="0%" style="stop-color:#48dbfb;stop-opacity:0.7" />
        <stop offset="100%" style="stop-color:#ff9ff3;stop-opacity:0.7" />
      </linearGradient>
      <linearGradient id="grad3" x1="0%" y1="100%" x2="100%" y2="0%">
        <stop offset="0%" style="stop-color:#ff9ff3;stop-opacity:0.6" />
        <stop offset="100%" style="stop-color:#1dd1a1;stop-opacity:0.6" />
      </linearGradient>
      <filter id="glow">
        <feGaussianBlur stdDeviation="3" result="coloredBlur"/>
        <feMerge>
          <feMergeNode in="coloredBlur"/>
          <feMergeNode in="SourceGraphic"/>
        </feMerge>
      </filter>
    </defs>
  
  <path d="M 38.86339275964702 23.38400339650697 C 40.54626624969118 32.80291467174876, 41.80321937804569 46.56583262207255, 35.730113842553855 56.68935769236481 C 29.65700830706202 66.81288276265707, 12.701782663226671 84.94991546701583, 2.424759546696013 84.12515381826054 C -7.852263569834646 83.30039216950526, -16.84714931893645 61.864312870125346, -25.932024856630104 51.740787799833086 C -35.016900394323756 41.617262729540826, -49.95396050831311 34.96679803543516, -52.08449367946592 23.384003396506976 C -54.215026850618734 11.801208757578793, -47.80009942124063 -8.57230889525261, -38.715223883546976 -17.75598003373601 C -29.63034834585332 -26.939651172219406, -8.299923250943314 -34.706668446835096, 2.424759546695999 -31.718023434393416 C 13.149442344335311 -28.729378421951736, 19.55976736679707 -9.007781097569339, 25.63287290228891 0.1758900409140587 C 31.705978437780747 9.359561179397456, 37.18051926960286 13.965092121265178, 38.86339275964702 23.38400339650697 Z" fill="url(#grad3)" opacity="0.30185236034613483" />
<path d="M 698.9920090171621 19.437667415712667 C 703.4373175561184 38.687848362868905, 718.8320372297601 72.77815754006366, 709.7328147092419 86.87732736815273 C 700.6335921887237 100.97649719624181, 665.9839534048456 96.4469789365536, 644.3966738940527 104.03268638424716 C 622.8093943832598 111.61839383194071, 593.6354630850208 140.0643079607563, 580.2091376444846 132.39157205431403 C 566.7828122039484 124.71883614787174, 569.6462246421794 76.82192171869367, 563.8387212508356 57.99627094559345 C 558.0312178594919 39.17062017249323, 550.8379310864052 36.26749376781129, 545.364117296422 19.437667415712674 C 539.8903035064388 2.607841063614064, 523.5771717051798 -29.11568751013523, 530.9958385109363 -42.98268716699821 C 538.4145053166928 -56.84968682386119, 569.6224767084386 -55.902901713969314, 589.8761181309611 -63.7643305254652 C 610.1297595534836 -71.62575933696108, 636.9868794886476 -96.00802207108694, 652.5176870460714 -90.15126003597354 C 668.0484946034952 -84.29449800086013, 675.3152431469891 -46.88857955673243, 683.0609634755042 -28.62375831478473 C 690.8066838040193 -10.35893707283703, 694.5467004782058 0.18748646855642548, 698.9920090171621 19.437667415712667 Z" fill="url(#grad3)" opacity="0.41965746225804784" />
<path d="M 169.35386580566862 150.22117330376088 C 173.35343658582545 172.46438842673783, 185.3982140865051 223.84371886563895, 173.33127261657148 231.99672805066575 C 161.26433114663786 240.14973723569256, 118.0824070335557 207.82694510957836, 96.95221698606679 199.13922841392161 C 75.82202693857788 190.45151171826487, 57.01299995696726 193.9582368614541, 46.55013233163801 179.87042787672524 C 36.08726470630876 165.78261889199638, 26.985941095609185 133.01387873725577, 34.17501123409127 114.61237450554844 C 41.36408137257336 96.21087027384111, 70.491413712274 72.14055868527197, 89.68455316253053 69.46140248648125 C 108.87769261278707 66.78224628769053, 136.05562916177414 85.07747550992414, 149.33384793563047 98.53743731280409 C 162.6120667094868 111.99739911568403, 165.3542950255118 127.97795818078393, 169.35386580566862 150.22117330376088 Z" fill="url(#grad2)" opacity="0.6119111073093587" />
<path d="M 438.47673103894067 130.0028816400287 C 432.95954771459475 149.57431485142126, 418.21502938032813 154.18667983462245, 407.84611495535603 174.828781796418 C 397.4772005303839 195.47088375821357, 391.3128097681789 250.68130286403198, 376.2632444891079 253.855493410802 C 361.21367921003684 257.02968395757205, 341.44010907583174 207.1450378772479, 317.54872328092995 193.87392507703828 C 293.65733748602815 180.60281227682867, 246.91408425369227 192.2062249543456, 232.9149297196971 174.2288166095443 C 218.91577518570196 156.25140826474302, 219.32117715080003 103.80569071866935, 233.5537960769591 86.00947500823057 C 247.78641500311815 68.21325929779178, 295.3098108688236 76.31467582941428, 318.31064327665155 67.45152234691163 C 341.3114756844795 58.58836886440897, 351.1190285864635 34.50577741635612, 371.55879052392686 32.83055411321462 C 391.9985524613902 31.15533081007312, 429.796224815596 41.20479460692697, 440.9492149014317 57.40018252806264 C 452.1022049872673 73.59557044919832, 443.9939143632866 110.43144842863614, 438.47673103894067 130.0028816400287 Z" fill="url(#grad1)" opacity="0.4910134768603692" />
<path d="M 461.4432545902624 158.73853683194716 C 457.8686597437704 176.54206725492594, 471.01594456747733 192.1773822702106, 465.62165545105694 205.25737024980117 C 460.22736633463654 218.33735822939175, 443.8580458493555 226.07858253667806, 429.07751989173994 237.21846470949072 C 414.2969939341244 248.35834688230338, 392.04528263445127 274.6362005117161, 376.9384997053636 272.0966632866771 C 361.8317167762759 269.5571260616381, 347.54870884416795 237.40116228345866, 338.43682231721397 221.98124135925667 C 329.32493579026 206.56132043505468, 323.32061959536725 193.10870039421218, 322.2671805436396 179.5771377414652 C 321.21374149191195 166.04557508871824, 330.4882000084946 156.03674493940437, 332.11618800684806 140.79186544277485 C 333.74417600520155 125.54698594614533, 324.2627674790647 101.90962141741653, 332.03510853376036 88.10786076168812 C 339.80744958845605 74.3061001059597, 363.7731834140903 56.66913702580637, 378.75023433502207 57.98130150840437 C 393.72728525595386 59.29346599100237, 403.84424902685316 89.23836662335543, 421.897414059351 95.98084765727612 C 439.9505790918488 102.7233286911968, 480.47825110819053 87.97657284948328, 487.06922453000914 98.43618771192845 C 493.66019795182774 108.89580257437363, 465.01784943675443 140.93500640896838, 461.4432545902624 158.73853683194716 Z" fill="url(#grad3)" opacity="0.39372970292662907" />
<path d="M -50 108.71471427978967 C -43.333333333333336 120.16236339361237, -36.666666666666664 114.4798348788996, -30 118.4809173582813 C -23.333333333333332 89.98351017427524, -16.666666666666664 89.72883114188384, -10 102.91564907116289 C -3.333333333333333 79.8786229458521, 3.333333333333334 109.88558604840482, 10 86.85163734142111 C 16.666666666666668 90.72733760257148, 23.333333333333336 101.35400010861173, 30 86.40437586804232 C 36.666666666666664 61.19298369991795, 43.333333333333336 113.76616162436551, 50 78.31832665306649 C 56.666666666666664 39.903988498443546, 63.333333333333336 89.4698285515602, 70 86.02317492107764 C 76.66666666666667 104.77513605257226, 83.33333333333333 69.47211481702968, 90 100.26780598234865 C 96.66666666666667 112.66180468435948, 103.33333333333333 100.43436896843326, 110 100.43822823134416 C 116.66666666666667 71.23547377811448, 123.33333333333333 130.39958960243877, 130 90.81247760645567 C 136.66666666666666 50.37639171223929, 143.33333333333334 105.27981208708779, 150 91.29622179086454 C 156.66666666666666 128.50126945275204, 163.33333333333334 134.07566396625808, 170 112.2056000846187 C 176.66666666666666 119.44671514048679, 183.33333333333334 133.40962039161852, 190 98.05726627078536 C 196.66666666666666 67.76260343759995, 203.33333333333334 122.61109856107237, 210 116.16265971155728 C 216.66666666666666 117.64813020354765, 223.33333333333334 159.1893158612096, 230 100.52247598360994 C 236.66666666666666 63.282655989476574, 243.33333333333334 110.01929059914755, 250 103.96059921536855 C 256.6666666666667 67.09299437812415, 263.3333333333333 125.70031638101722, 270 114.30659050012605 C 276.6666666666667 97.69018747138432, 283.3333333333333 103.14608712467809, 290 95.47797689134381 C 296.6666666666667 134.79262633130796, 303.3333333333333 67.66246096756998, 310 81.88709362172295 C 316.6666666666667 116.32109402230049, 323.3333333333333 79.38215399384131, 330 88.16405872910649 C 336.6666666666667 86.16320920183844, 343.3333333333333 128.13501229839122, 350 92.86847916973412 C 356.6666666666667 104.67806445396606, 363.3333333333333 95.71883735626315, 370 83.35659893503652 C 376.6666666666667 72.72907901243435, 383.3333333333333 63.03003535420578, 390 67.78286115927315 C 396.6666666666667 64.09494112299583, 403.3333333333333 52.20123589976318, 410 82.89337877327507 C 416.6666666666667 111.77837222836777, 423.3333333333333 65.24298330431998, 430 63.58825828581689 C 436.6666666666667 75.54998171764441, 443.3333333333333 43.72465008054765, 450 68.9447156095148 C 456.6666666666667 73.15782976433373, 463.3333333333333 67.28122462953812, 470 73.98036519320158 C 476.6666666666667 81.08710949920493, 483.3333333333333 51.300460660301994, 490 82.39361396665312 C 496.6666666666667 43.28860154402541, 503.3333333333333 87.6923824710386, 510 91.57794384602386 C 516.6666666666666 134.0362070103956, 523.3333333333334 69.58247823551176, 530 99.89832832190105 C 536.6666666666666 104.48235356262205, 543.3333333333334 111.98872072574258, 550 99.37981875613133 C 556.6666666666666 128.54288831139684, 563.3333333333334 58.95557503547258, 570 106.24273010904389 C 576.6666666666666 79.65094203942306, 583.3333333333334 140.00107954785787, 590 115.23039506014163 C 596.6666666666666 142.34298445614763, 603.3333333333334 89.59857739869588, 610 135.99610529659998 C 616.6666666666666 119.99151366745502, 623.3333333333334 125.70347806741572, 630 132.04712215114662 C 636.6666666666666 93.66382031910737, 643.3333333333334 150.42683093178854, 650 131.99995105206614 C 656.6666666666666 103.69732481533889, 663.3333333333334 171.5618233150828, 670 140.05117639228806 C 676.6666666666666 182.2517109408788, 683.3333333333334 153.23077751201777, 690 159.0501920064021 C 696.6666666666666 169.18298762216205, 703.3333333333334 119.8668846556438, 710 149.66818458603794 C 716.6666666666666 175.69713379306322, 723.3333333333334 168.99911958775112, 730 151.40704271175227 C 736.6666666666666 149.9216753310717, 743.3333333333334 149.96543340153116, 750 140.84291939122465 C 756.6666666666666 128.32936749523822, 763.3333333333334 138.6903657277596, 770 156.40204422597577 C 776.6666666666666 115.94289831717653, 783.3333333333334 141.36813499431582, 790 156.9558724501742 C 796.6666666666666 187.13903715379007, 803.3333333333334 145.23503122684136, 810 169.0630832167907 C 816.6666666666666 129.6338497146219, 823.3333333333334 173.58999873641437, 830 161.75316426424064 C 836.6666666666666 184.4881606641624, 843.3333333333334 122.78322805654177, 850 154.04028114330924" fill="none" stroke="#1dd1a1" stroke-width="2.9791480548026987" opacity="0.7371200838883563" stroke-linecap="round" filter="url(#glow)" />
<path d="M -50 80.12447588615551 C -43.333333333333336 69.67649065337912, -36.666666666666664 78.22747189784629, -30 81.6331936996219 C -23.333333333333332 79.97847281945613, -16.666666666666664 102.08264388959034, -10 83.39921248844695 C -3.333333333333333 53.627623914475464, 3.333333333333334 91.49685710906776, 10 80.72520889279677 C 16.666666666666668 72.21617100690251, 23.333333333333336 57.15139225386157, 30 91.56625636140413 C 36.666666666666664 76.69588993116518, 43.333333333333336 109.84599588088884, 50 84.36499229312815 C 56.666666666666664 101.07345133973062, 63.333333333333336 101.44729987927684, 70 84.37524906195691 C 76.66666666666667 112.2199607104663, 83.33333333333333 82.83845349833217, 90 74.46580738761304 C 96.66666666666667 67.53969631605388, 103.33333333333333 78.64101766649446, 110 88.7231508072473 C 116.66666666666667 105.03838310527277, 123.33333333333333 63.859515375705485, 130 75.30900201952754 C 136.66666666666666 59.897282561056414, 143.33333333333334 75.60789126304238, 150 63.30583174481714 C 156.66666666666666 69.495373038097, 163.33333333333334 32.63827554689676, 170 59.60857312237089 C 176.66666666666666 61.453664909079826, 183.33333333333334 75.31853589329795, 190 57.65773237421517 C 196.66666666666666 39.47742994641141, 203.33333333333334 37.17516272414652, 210 70.44089324152483 C 216.66666666666666 73.29849391947128, 223.33333333333334 54.198293912074796, 230 81.91738717137174 C 236.66666666666666 60.42208117835423, 243.33333333333334 90.08591620506749, 250 84.80745319699176 C 256.6666666666667 111.31268401765078, 263.3333333333333 59.53651797537782, 270 93.10147287918953 C 276.6666666666667 86.7018525786569, 283.3333333333333 90.56631519685763, 290 78.3240061725349 C 296.6666666666667 104.77149671427688, 303.3333333333333 107.50881593717921, 310 80.24486661367227 C 316.6666666666667 93.85841314613393, 323.3333333333333 107.0077141038621, 330 74.82365250936654 C 336.6666666666667 51.486609925873296, 343.3333333333333 45.31402573347745, 350 78.52657393969447 C 356.6666666666667 54.30546533119238, 363.3333333333333 74.24091751745738, 370 72.92581574993989 C 376.6666666666667 87.31588943110532, 383.3333333333333 98.34357513509514, 390 58.81680481752676 C 396.6666666666667 89.57157876518416, 403.3333333333333 37.83771255806333, 410 63.637663690866695 C 416.6666666666667 64.8983968187424, 423.3333333333333 38.71166938647834, 430 54.07971800447443 C 436.6666666666667 52.45024567027234, 443.3333333333333 29.21739964778141, 450 50.33069911218534 C 456.6666666666667 73.25159686967967, 463.3333333333333 30.9630070920237, 470 64.04871001282673 C 476.6666666666667 78.51702331761959, 483.3333333333333 37.72985479171457, 490 51.361756158889634 C 496.6666666666667 57.451272619413, 503.3333333333333 60.245253904274776, 510 43.27720148317458 C 516.6666666666666 49.32105090393704, 523.3333333333334 28.825668939613287, 530 31.314396081936955 C 536.6666666666666 22.88154589864708, 543.3333333333334 12.01257679286645, 550 17.004108755980265 C 556.6666666666666 28.39459982504297, 563.3333333333334 40.41966935331803, 570 29.179385386252186 C 576.6666666666666 8.165840282375271, 583.3333333333334 47.495057684956855, 590 23.300476521120476 C 596.6666666666666 19.611644064568615, 603.3333333333334 21.286134291794582, 610 34.958479227837614 C 616.6666666666666 49.45636221539889, 623.3333333333334 31.58834552854599, 630 33.44311933282238 C 636.6666666666666 18.566275963270616, 643.3333333333334 40.414172756563346, 650 18.787910156396364 C 656.6666666666666 3.290835919716036, 663.3333333333334 42.901715929269805, 670 6.4267608070195 C 676.6666666666666 -1.2264976697768777, 683.3333333333334 24.35350064999117, 690 0.1453665797986332 C 696.6666666666666 -9.20689448621119, 703.3333333333334 -1.8140629992270405, 710 -11.540974991509945 C 716.6666666666666 16.836541328153583, 723.3333333333334 -4.613850647911708, 730 -13.476192637343752 C 736.6666666666666 -35.28297313602012, 743.3333333333334 0.6720514779018014, 750 -7.704588431541763 C 756.6666666666666 14.895115552237742, 763.3333333333334 -10.899384160800315, 770 -21.248192570069797 C 776.6666666666666 0.6231343589775449, 783.3333333333334 -26.781544004600885, 790 -8.50935471980063 C 796.6666666666666 10.030513592619211, 803.3333333333334 10.441199198575017, 810 -9.540231674653077 C 816.6666666666666 -32.590010709469716, 823.3333333333334 -19.826182631717437, 830 -19.233350327593463 C 836.6666666666666 -28.224396149229293, 843.3333333333334 -21.201665098272855, 850 -22.778164091794835" fill="none" stroke="#ff6b6b" stroke-width="1.1117448695644063" opacity="0.7892914696282061" stroke-linecap="round" filter="url(#glow)" />
<path d="M -50 153.282626116544 C -43.333333333333336 155.62492382369967, -36.666666666666664 169.81186187703636, -30 141.90622378403273 C -23.333333333333332 123.82962383175003, -16.666666666666664 134.84887882729012, -10 139.8821944667162 C -3.333333333333333 130.04127776740964, 3.333333333333334 137.7758545818112, 10 145.42656893895224 C 16.666666666666668 133.70290184321306, 23.333333333333336 153.02187131680614, 30 149.5832030518488 C 36.666666666666664 129.80913633679972, 43.333333333333336 132.53307162165657, 50 142.42748708739788 C 56.666666666666664 153.56694364001473, 63.333333333333336 117.85128894200668, 70 143.69625313272695 C 76.66666666666667 135.98174582750892, 83.33333333333333 128.55967618216314, 90 143.30579771991623 C 96.66666666666667 153.02466960965225, 103.33333333333333 137.83695204639375, 110 145.91036097861632 C 116.66666666666667 141.11532853494006, 123.33333333333333 144.6187628990402, 130 150.16203405592734 C 136.66666666666666 157.92637076626448, 143.33333333333334 172.57340802921672, 150 158.77026229907634 C 156.66666666666666 152.8608358921211, 163.33333333333334 147.88750768974788, 170 161.39811380178372 C 176.66666666666666 163.58372468337126, 183.33333333333334 139.88050571364124, 190 159.2348653231165 C 196.66666666666666 176.1296527333413, 203.33333333333334 163.7263833325348, 210 170.14009048335703 C 216.66666666666666 165.0859354067879, 223.33333333333334 152.84202752233222, 230 173.4746962025362 C 236.66666666666666 168.95035008960858, 243.33333333333334 196.76061354608197, 250 176.06866371871422 C 256.6666666666667 157.28753004872758, 263.3333333333333 168.55503253534096, 270 177.65796780827645 C 276.6666666666667 195.35048436912157, 283.3333333333333 178.01336064906513, 290 168.968746451668 C 296.6666666666667 183.6345987889093, 303.3333333333333 187.86614255527797, 310 157.774182210616 C 316.6666666666667 143.5776806458203, 323.3333333333333 153.20083642781924, 330 166.83362093484487 C 336.6666666666667 182.411458486785, 343.3333333333333 146.10247185744208, 350 159.0183181793496 C 356.6666666666667 144.89902065230615, 363.3333333333333 156.8223214978899, 370 170.3620806085276 C 376.6666666666667 151.9490689804122, 383.3333333333333 185.84147328350846, 390 180.22558631708588 C 396.6666666666667 182.6122849394805, 403.3333333333333 162.80798762418078, 410 180.74962705019803 C 416.6666666666667 183.06235636759655, 423.3333333333333 169.77494924938637, 430 173.26779647501496 C 436.6666666666667 184.05186014160103, 443.3333333333333 169.8697476239123, 450 166.76161208841756 C 456.6666666666667 159.92117795355145, 463.3333333333333 143.69196344610916, 470 158.3016564136871 C 476.6666666666667 170.6620715844109, 483.3333333333333 135.72286774493412, 490 156.606146621328 C 496.6666666666667 131.7681596535654, 503.3333333333333 179.85639589487323, 510 166.3390053967801 C 516.6666666666666 148.85295083186747, 523.3333333333334 168.1440661173067, 530 163.76740688379235 C 536.6666666666666 156.73243309655896, 543.3333333333334 171.26521990896273, 550 168.5623080687752 C 556.6666666666666 145.4266847953034, 563.3333333333334 152.6725495781314, 570 175.76284372764127 C 576.6666666666666 156.11954666591117, 583.3333333333334 152.74993407944356, 590 171.49190129693903 C 596.6666666666666 168.43516864865148, 603.3333333333334 188.50242439370405, 610 181.8580698583342 C 616.6666666666666 184.7117824260674, 623.3333333333334 206.218201691756, 630 177.40426246445648 C 636.6666666666666 161.94654563008734, 643.3333333333334 180.23726839050389, 650 181.54768173833648 C 656.6666666666666 193.4775198878235, 663.3333333333334 174.11860799092395, 670 183.72246537000504 C 676.6666666666666 184.53743634910495, 683.3333333333334 182.15660518813007, 690 194.68865685875807 C 696.6666666666666 211.39175848972283, 703.3333333333334 194.7531510214127, 710 200.09044680244327 C 716.6666666666666 209.46279390087926, 723.3333333333334 221.51276288726717, 730 189.68597811710077 C 736.6666666666666 186.72847461521278, 743.3333333333334 186.84372427010663, 750 195.39523427051546 C 756.6666666666666 192.42811334093295, 763.3333333333334 171.0602111207839, 770 199.25782439987685 C 776.6666666666666 199.7591066782639, 783.3333333333334 210.25907178935608, 790 197.92890098862736 C 796.6666666666666 177.9962437811143, 803.3333333333334 179.4713889602884, 810 194.3930683044248 C 816.6666666666666 170.90258500868856, 823.3333333333334 219.9139511210794, 830 194.56277876284284 C 836.6666666666666 197.09358149851454, 843.3333333333334 187.07958820844453, 850 187.7524080574203" fill="none" stroke="#ff6b6b" stroke-width="3.722398096370741" opacity="0.5739065890924978" stroke-linecap="round" filter="url(#glow)" />
<path d="M -50 73.597351518202 C -43.333333333333336 81.00117324014488, -36.666666666666664 59.592688871441766, -30 67.76116181349596 C -23.333333333333332 63.166933161628265, -16.666666666666664 52.476993793103155, -10 78.59517693372123 C -3.333333333333333 72.17270395395289, 3.333333333333334 94.53659038319049, 10 69.08353445102948 C 16.666666666666668 84.73978945942036, 23.333333333333336 72.30513509511262, 30 69.32553695407378 C 36.666666666666664 86.86112982893076, 43.333333333333336 47.153281967410464, 50 59.80784277446048 C 56.666666666666664 42.10094719365378, 63.333333333333336 39.1655197213769, 70 69.27370636633202 C 76.66666666666667 81.34604499709047, 83.33333333333333 53.14564166131487, 90 58.682906307473544 C 96.66666666666667 62.48880220032546, 103.33333333333333 42.11197730239916, 110 61.40247371269828 C 116.66666666666667 43.30306386527577, 123.33333333333333 72.21382997439704, 130 67.00443864386132 C 136.66666666666666 69.06772213085176, 143.33333333333334 48.775321672391314, 150 62.84261860140007 C 156.66666666666666 86.36211597303442, 163.33333333333334 62.43359781072685, 170 55.51560595019477 C 176.66666666666666 52.53217394206767, 183.33333333333334 79.00904513851793, 190 47.32007326255015 C 196.66666666666666 53.71884130910483, 203.33333333333334 46.61185921960899, 210 46.07470949872143 C 216.66666666666666 44.96436351017307, 223.33333333333334 33.16622792490314, 230 35.987492818489734 C 236.66666666666666 52.43580077408621, 243.33333333333334 56.917115807863404, 250 41.088215481109074 C 256.6666666666667 60.68194370116618, 263.3333333333333 59.075107569654264, 270 34.42655915543265 C 276.6666666666667 32.39692736905307, 283.3333333333333 28.591515209397127, 290 25.060874327449888 C 296.6666666666667 27.88768877683874, 303.3333333333333 13.037025466715184, 310 32.24708717033428 C 316.6666666666667 42.60672895247349, 323.3333333333333 18.58617201018994, 330 40.9857412122291 C 336.6666666666667 54.18860290181652, 343.3333333333333 63.22971855264218, 350 43.19910843431714 C 356.6666666666667 60.57321903278955, 363.3333333333333 49.38075248327362, 370 54.28710011167766 C 376.6666666666667 32.03619819285311, 383.3333333333333 44.08859782763129, 390 54.023929794191545 C 396.6666666666667 42.35878601063228, 403.3333333333333 42.64194688440847, 410 43.31790025898763 C 416.6666666666667 19.951834202072774, 423.3333333333333 55.35946314702221, 430 33.1609043890791 C 436.6666666666667 58.13350458751979, 443.3333333333333 46.45471681068705, 450 24.964762633480976 C 456.6666666666667 42.35982766326104, 463.3333333333333 36.51834434598706, 470 31.327509383395427 C 476.6666666666667 23.02633632964574, 483.3333333333333 11.686354413006551, 490 32.6744929537334 C 496.6666666666667 45.181066784282436, 503.3333333333333 30.66008601881928, 510 37.48901862986101 C 516.6666666666666 37.212923470889166, 523.3333333333334 13.818214841270535, 530 26.115193641828604 C 536.6666666666666 17.7808756658848, 543.3333333333334 5.867549682846217, 550 32.83063017407687 C 556.6666666666666 47.9315548130992, 563.3333333333334 15.870152261868085, 570 35.896371338024935 C 576.6666666666666 29.323837600528964, 583.3333333333334 56.05563611313417, 590 35.55076248047386 C 596.6666666666666 21.189478585585483, 603.3333333333334 35.75484693050932, 610 38.41277986963741 C 616.6666666666666 43.126286676269395, 623.3333333333334 23.25253124613687, 630 44.26947808528169 C 636.6666666666666 38.71774582723305, 643.3333333333334 61.628840171567596, 650 34.79503221001253 C 656.6666666666666 47.59891944923989, 663.3333333333334 46.36658131506622, 670 36.636906534739225 C 676.6666666666666 22.850246485598213, 683.3333333333334 55.88055353204875, 690 44.58259333538381 C 696.6666666666666 21.645941720847354, 703.3333333333334 26.910398062532693, 710 33.428232659802376 C 716.6666666666666 48.229811378124474, 723.3333333333334 28.675400442688268, 730 33.978403181340305 C 736.6666666666666 39.76224782009584, 743.3333333333334 17.185845969262814, 750 21.599498399560403 C 756.6666666666666 21.650449115716498, 763.3333333333334 46.70160209504793, 770 21.456325273427638 C 776.6666666666666 36.59764605512978, 783.3333333333334 14.737902608385287, 790 25.81485345385077 C 796.6666666666666 6.910514146229627, 803.3333333333334 19.042792189697135, 810 29.271053881275677 C 816.6666666666666 11.080682536845917, 823.3333333333334 26.66645544954172, 830 37.14160076676865 C 836.6666666666666 15.674601115205007, 843.3333333333334 56.71098775288103, 850 37.40856888563164" fill="none" stroke="#1dd1a1" stroke-width="2.727429835702793" opacity="0.5893185649514163" stroke-linecap="round" filter="url(#glow)" />
<path d="M -50 160.68225945075352 C -43.333333333333336 176.11929787487756, -36.666666666666664 200.06042336002832, -30 156.14450465359795 C -23.333333333333332 137.95511471335735, -16.666666666666664 120.2004100778887, -10 155.0850259091792 C -3.333333333333333 151.96574081681726, 3.333333333333334 189.0372122426965, 10 136.03459977852046 C 16.666666666666668 120.06967491494507, 23.333333333333336 150.9191726015817, 30 136.27641571878212 C 36.666666666666664 118.00995106328813, 43.333333333333336 121.30274758935525, 50 127.05880915400974 C 56.666666666666664 110.13248750700711, 63.333333333333336 117.13180659405569, 70 136.30839899318556 C 76.66666666666667 124.23014433370659, 83.33333333333333 148.44625173044489, 90 122.65213523925765 C 96.66666666666667 152.42995185442976, 103.33333333333333 100.16409453471493, 110 131.53473362065412 C 116.66666666666667 144.17233564379967, 123.33333333333333 101.76436849209082, 130 124.03374091728605 C 136.66666666666666 99.11929142366458, 143.33333333333334 113.42168357699593, 150 138.6577259164311 C 156.66666666666666 102.67294092714543, 163.33333333333334 113.40922155753822, 170 125.00527490274213 C 176.66666666666666 104.51902488346248, 183.33333333333334 124.28247965905358, 190 123.95967115244511 C 196.66666666666666 101.7031892601729, 203.33333333333334 96.95319689843588, 210 130.16787158935026 C 216.66666666666666 102.9515837725872, 223.33333333333334 125.00918362703985, 230 129.01910104031342 C 236.66666666666666 117.88242682887144, 243.33333333333334 102.88852633316822, 250 114.70439982535548 C 256.6666666666667 82.94894103703815, 263.3333333333333 84.74972461000719, 270 124.4238510844541 C 276.6666666666667 118.51043788696265, 283.3333333333333 90.84679155770252, 290 118.99728870224372 C 296.6666666666667 86.68424247922208, 303.3333333333333 154.8970187809632, 310 107.67146195374718 C 316.6666666666667 139.78569527385542, 323.3333333333333 105.04453555527286, 330 95.62096435709682 C 336.6666666666667 133.56338089965953, 343.3333333333333 133.5309346637675, 350 97.2357641854272 C 356.6666666666667 84.63160002740418, 363.3333333333333 79.56065062136796, 370 87.37787126814088 C 376.6666666666667 46.42805781562091, 383.3333333333333 70.07559011543488, 390 77.2917964999609 C 396.6666666666667 109.9144174009105, 403.3333333333333 72.14015884899406, 410 83.04836014072966 C 416.6666666666667 77.26439504617669, 423.3333333333333 44.56211020295993, 430 64.25452191572425 C 436.6666666666667 28.154092421272267, 443.3333333333333 25.116519458340584, 450 81.68883555955205 C 456.6666666666667 71.01362176318426, 463.3333333333333 104.5467461797222, 470 89.52532643013276 C 476.6666666666667 112.5007773778303, 483.3333333333333 127.49777218127171, 490 96.09238665431577 C 496.6666666666667 110.77047890121358, 503.3333333333333 59.50041021205023, 510 101.39319821594836 C 516.6666666666666 122.1919954309341, 523.3333333333334 68.90930101484243, 530 92.45685683646875 C 536.6666666666666 60.21502748703349, 543.3333333333334 116.25113813677808, 550 72.29114894057285 C 556.6666666666666 87.2992353449837, 563.3333333333334 105.15565289102751, 570 91.91599676997212 C 576.6666666666666 83.64431394586529, 583.3333333333334 94.83063268807835, 590 86.0136193248323 C 596.6666666666666 117.02114227180385, 603.3333333333334 74.29122831875398, 610 104.71621162399803 C 616.6666666666666 95.40453378477291, 623.3333333333334 69.11863544561476, 630 107.25376403764679 C 636.6666666666666 105.3308970640939, 643.3333333333334 113.53537586411696, 650 103.98976856358586 C 656.6666666666666 144.55535373680334, 663.3333333333334 87.57787843816025, 670 84.88986973502487 C 676.6666666666666 99.13599555001952, 683.3333333333334 82.56216584984018, 690 68.59137681461122 C 696.6666666666666 103.73582911819263, 703.3333333333334 88.42590675172963, 710 82.21309599669017 C 716.6666666666666 45.36297027089339, 723.3333333333334 94.00768172419643, 730 95.97618226821996 C 736.6666666666666 88.006027900978, 743.3333333333334 61.35995946765345, 750 87.92288895580475 C 756.6666666666666 57.47672990421341, 763.3333333333334 54.81988344792208, 770 74.41386123168104 C 776.6666666666666 78.06755967819282, 783.3333333333334 90.91665109953317, 790 89.1946480106019 C 796.6666666666666 94.47996161715005, 803.3333333333334 59.75851445585443, 810 87.04517929656788 C 816.6666666666666 109.61867445088109, 823.3333333333334 114.18776119971304, 830 94.69152857181192 C 836.6666666666666 131.1074743528151, 843.3333333333334 129.6978561943516, 850 95.6420654800694" fill="none" stroke="#feca57" stroke-width="3.9475285492294376" opacity="0.6648255878872444" stroke-linecap="round" filter="url(#glow)" />
<path d="M -50 76.21561132647355 C -43.333333333333336 85.10998077345565, -36.666666666666664 73.96961496058215, -30 62.71548867197099 C -23.333333333333332 61.817874128387416, -16.666666666666664 84.5822408145274, -10 56.288227519451155 C -3.333333333333333 32.330026758083505, 3.333333333333334 27.438219373654974, 10 42.217939397612895 C 16.666666666666668 65.05444025069308, 23.333333333333336 42.813747089563144, 30 48.58667739065454 C 36.666666666666664 70.22590933654138, 43.333333333333336 25.778542502490993, 50 42.22179434963938 C 56.666666666666664 20.632068495172028, 63.333333333333336 55.0154837625036, 70 29.00573545923811 C 76.66666666666667 41.463098433883175, 83.33333333333333 52.060733600972505, 90 36.534159851687974 C 96.66666666666667 21.60707680599723, 103.33333333333333 25.866515715158407, 110 34.613698868543906 C 116.66666666666667 17.42431040209692, 123.33333333333333 64.25761104380496, 130 50.95130224065815 C 136.66666666666666 55.327990598836415, 143.33333333333334 69.32094253856431, 150 57.50872037004238 C 156.66666666666666 60.56249081792225, 163.33333333333334 49.55781033822174, 170 53.54429418072517 C 176.66666666666666 26.080457279857757, 183.33333333333334 60.89453339429449, 190 69.08235213835806 C 196.66666666666666 74.8937652373276, 203.33333333333334 53.73400029459556, 210 68.92770714566284 C 216.66666666666666 74.1537058845072, 223.33333333333334 86.65758274688045, 230 79.65763527883053 C 236.66666666666666 98.69115561478975, 243.33333333333334 95.29071661751732, 250 87.17408701205983 C 256.6666666666667 89.66072782107729, 263.3333333333333 68.7377116929693, 270 84.92074030943247 C 276.6666666666667 103.1285565205589, 283.3333333333333 116.98225635058228, 290 76.29047694086324 C 296.6666666666667 60.52038076837193, 303.3333333333333 82.05033136343943, 310 66.71305357615483 C 316.6666666666667 81.35478079366126, 323.3333333333333 73.57927060911597, 330 50.54701350502192 C 336.6666666666667 33.6990760669309, 343.3333333333333 55.672270474986256, 350 47.738422612321855 C 356.6666666666667 21.296220194980044, 363.3333333333333 45.15861613233087, 370 34.78318078932236 C 376.6666666666667 2.3242293467979067, 383.3333333333333 65.40942290593813, 390 35.123026426820566 C 396.6666666666667 61.669391548113175, 403.3333333333333 55.91836303422619, 410 37.71588197034198 C 416.6666666666667 17.654739819752514, 423.3333333333333 50.566610567133864, 430 49.10084671489822 C 436.6666666666667 35.71740245659768, 443.3333333333333 39.51508252937198, 450 57.962404940074265 C 456.6666666666667 66.19358298984866, 463.3333333333333 33.93829093007373, 470 54.53149703739548 C 476.6666666666667 26.998985513264582, 483.3333333333333 67.89870019255943, 490 41.50606303544237 C 496.6666666666667 72.49396928188007, 503.3333333333333 18.448323198550433, 510 53.815526172228445 C 516.6666666666666 31.091913183072585, 523.3333333333334 69.56456775316923, 530 69.08501894717246 C 536.6666666666666 101.01347233726457, 543.3333333333334 63.25219509200268, 550 81.68675501882427 C 556.6666666666666 82.75275464609899, 563.3333333333334 80.65862214889411, 570 87.92427469190031 C 576.6666666666666 102.1379089065413, 583.3333333333334 115.72911942026269, 590 76.93161274856696 C 596.6666666666666 65.34526050230392, 603.3333333333334 99.3409263474654, 610 92.24217281528908 C 616.6666666666666 115.00063229981657, 623.3333333333334 121.73199869522215, 630 78.14153585659113 C 636.6666666666666 69.98017675337809, 643.3333333333334 46.37438989355357, 650 83.3220641440731 C 656.6666666666666 71.85392785582272, 663.3333333333334 78.63873920233941, 670 98.2664029148981 C 676.6666666666666 109.76318870274797, 683.3333333333334 125.21626127329486, 690 101.11794055628346 C 696.6666666666666 92.03048767297325, 703.3333333333334 111.0855736960323, 710 86.13762432807685 C 716.6666666666666 82.61376107546599, 723.3333333333334 73.66240880275323, 730 93.3807639646399 C 736.6666666666666 73.72734909012965, 743.3333333333334 66.39401354258479, 750 97.27393625295497 C 756.6666666666666 85.14866881067371, 763.3333333333334 107.57253654041092, 770 102.63654719976084 C 776.6666666666666 74.26010846074315, 783.3333333333334 111.79112660615196, 790 100.40500576022768 C 796.6666666666666 112.60226701782156, 803.3333333333334 75.56900513472972, 810 100.86463854451895 C 816.6666666666666 96.31232856017324, 823.3333333333334 70.79093482028514, 830 116.41367037816357 C 836.6666666666666 109.23185017871273, 843.3333333333334 124.74357579150856, 850 104.81717466373857" fill="none" stroke="#48dbfb" stroke-width="1.6923352242149192" opacity="0.6244009590784666" stroke-linecap="round" filter="url(#glow)" />
<path d="M -50 107.93667258551892 C -43.333333333333336 89.73462935537711, -36.666666666666664 135.20141313760405, -30 100.24197928566126 C -23.333333333333332 91.88430701148984, -16.666666666666664 122.3670969862537, -10 99.9831211072028 C -3.333333333333333 111.60944584201883, 3.333333333333334 88.62821005138252, 10 98.18327701017087 C 16.666666666666668 91.21486819844615, 23.333333333333336 112.36263320736572, 30 82.1839534517481 C 36.666666666666664 91.34737198122994, 43.333333333333336 99.5618930868128, 50 79.97592435268535 C 56.666666666666664 65.56886319445174, 63.333333333333336 97.98597180368722, 70 88.12592140884016 C 76.66666666666667 74.13256718646775, 83.33333333333333 56.4743877841515, 90 87.93523832830878 C 96.66666666666667 64.11939094950463, 103.33333333333333 102.69564383626135, 110 76.95631093331582 C 116.66666666666667 107.85763685548785, 123.33333333333333 58.09536831999918, 130 72.79192120907254 C 136.66666666666666 44.41481666782159, 143.33333333333334 82.13701891333302, 150 77.62260743227523 C 156.66666666666666 73.39262305402372, 163.33333333333334 65.2904232971698, 170 84.13008424678134 C 176.66666666666666 75.97419667135269, 183.33333333333334 114.44023769609933, 190 75.46706766459766 C 196.66666666666666 80.64374969902318, 203.33333333333334 59.19330130433918, 210 61.99384770505763 C 216.66666666666666 60.973398068626445, 223.33333333333334 39.17522640786268, 230 69.61490906022956 C 236.66666666666666 100.70890489267052, 243.33333333333334 42.7536584630864, 250 62.35354011208049 C 256.6666666666667 71.72488227906015, 263.3333333333333 80.76571515304192, 270 56.97679092595733 C 276.6666666666667 54.18318848851222, 283.3333333333333 61.22372586913219, 290 68.66498020675778 C 296.6666666666667 82.21774445538311, 303.3333333333333 40.87706162222336, 310 64.12797116476507 C 316.6666666666667 85.94033846748559, 323.3333333333333 92.14596604634883, 330 62.172023468901706 C 336.6666666666667 37.484364317340706, 343.3333333333333 52.5078791344628, 350 60.195765729617875 C 356.6666666666667 58.62438248601323, 363.3333333333333 63.91332837889995, 370 55.17645583121564 C 376.6666666666667 28.96115106114355, 383.3333333333333 72.18685990557532, 390 55.98365498872327 C 396.6666666666667 78.82669633449852, 403.3333333333333 30.70934507557513, 410 56.51528753787532 C 416.6666666666667 31.037046926166198, 423.3333333333333 56.61560728127917, 430 66.3121433567255 C 436.6666666666667 71.23212451885342, 443.3333333333333 66.59526021511545, 450 56.505101904887546 C 456.6666666666667 39.374196405055585, 463.3333333333333 86.35368998089211, 470 67.04159748641422 C 476.6666666666667 47.184333760173644, 483.3333333333333 43.37595547783984, 490 55.89769617501116 C 496.6666666666667 61.665388966051125, 503.3333333333333 34.55556157897895, 510 67.87163992691427 C 516.6666666666666 36.782682488616075, 523.3333333333334 93.39796161139265, 530 66.60551167535937 C 536.6666666666666 42.00815667762494, 543.3333333333334 52.570341329370045, 550 81.56199111331112 C 556.6666666666666 110.15598339284041, 563.3333333333334 54.15693152697841, 570 70.48463016258039 C 576.6666666666666 41.41562176839322, 583.3333333333334 93.3170459277975, 590 74.4087238798317 C 596.6666666666666 43.27098887533473, 603.3333333333334 65.89292472240024, 610 68.80062086899156 C 616.6666666666666 45.524242387358186, 623.3333333333334 37.57083634828052, 630 56.98605695552481 C 636.6666666666666 69.03457976749533, 643.3333333333334 37.79485482755191, 650 46.87220313529065 C 656.6666666666666 31.994032911412145, 663.3333333333334 45.30969068587662, 670 53.38184646657089 C 676.6666666666666 29.69480403035244, 683.3333333333334 50.589247767814584, 690 43.66764615715471 C 696.6666666666666 39.336130242446465, 703.3333333333334 52.70354276244299, 710 37.26376805344462 C 716.6666666666666 14.867873479034728, 723.3333333333334 9.821379263171181, 730 37.90524948465729 C 736.6666666666666 17.479103550449537, 743.3333333333334 31.856134991952086, 750 41.09715652594848 C 756.6666666666666 12.218385501153321, 763.3333333333334 29.08028276245981, 770 45.76993532776737 C 776.6666666666666 72.85153490857482, 783.3333333333334 64.288102297944, 790 50.43814933235902 C 796.6666666666666 70.42786672733013, 803.3333333333334 62.98648318278429, 810 43.25593724058305 C 816.6666666666666 71.16171870976905, 823.3333333333334 18.639311924299328, 830 47.06885091936852 C 836.6666666666666 36.2307238183262, 843.3333333333334 19.76964080805548, 850 52.77480146420894" fill="none" stroke="#ff6b6b" stroke-width="2.3425571092986424" opacity="0.6462985970504064" stroke-linecap="round" filter="url(#glow)" />
<path d="M -50 156.3028565901251 C -43.333333333333336 130.49508264172076, -36.666666666666664 115.55184623303819, -30 172.76044879182513 C -23.333333333333332 138.32929506761707, -16.666666666666664 218.17286941436038, -10 160.55480742169655 C -3.333333333333333 195.6419977644519, 3.333333333333334 139.36655697655618, 10 159.54696142507203 C 16.666666666666668 147.44905334492262, 23.333333333333336 171.95773081066267, 30 168.03203262846185 C 36.666666666666664 139.88256506046315, 43.333333333333336 171.72289881282447, 50 159.91665817542287 C 56.666666666666664 205.45297372983063, 63.333333333333336 192.1086623127181, 70 156.9669179528243 C 76.66666666666667 171.145530687149, 83.33333333333333 159.22364817776298, 90 153.77530090253418 C 96.66666666666667 190.96486652300615, 103.33333333333333 169.4755894594786, 110 155.38490519525524 C 116.66666666666667 190.37894993493816, 123.33333333333333 189.9941664636998, 130 146.0176965802317 C 136.66666666666666 148.45572273303304, 143.33333333333334 173.8657764986392, 150 153.26427402298842 C 156.66666666666666 108.39319283677793, 163.33333333333334 143.98749710572207, 170 134.76105172080534 C 176.66666666666666 180.6835740545697, 183.33333333333334 103.4250236769839, 190 122.34925595705624 C 196.66666666666666 128.4256477677183, 203.33333333333334 118.83494404183587, 210 119.6764499310473 C 216.66666666666666 105.4201737783928, 223.33333333333334 113.31377097381733, 230 105.57928671483161 C 236.66666666666666 128.39214194382043, 243.33333333333334 89.0506906021186, 250 119.03488620135924 C 256.6666666666667 165.67470637715638, 263.3333333333333 155.16607322188617, 270 131.56798361127224 C 276.6666666666667 89.45904996514241, 283.3333333333333 139.58228330629578, 290 130.31149840355567 C 296.6666666666667 121.02292749723114, 303.3333333333333 152.2767438333559, 310 123.57465501491687 C 316.6666666666667 115.76282490323996, 323.3333333333333 159.16538920714618, 330 127.38971707918682 C 336.6666666666667 134.1534032504387, 343.3333333333333 102.14015017536052, 350 108.03911921366343 C 356.6666666666667 113.79638121560473, 363.3333333333333 127.68601112473596, 370 100.10036981205924 C 376.6666666666667 116.33316215158297, 383.3333333333333 107.8235857082079, 390 92.13601859409869 C 396.6666666666667 106.35805550638338, 403.3333333333333 109.63709342100059, 410 114.19524753065569 C 416.6666666666667 101.53651806748297, 423.3333333333333 133.85626796992335, 430 130.09475460227668 C 436.6666666666667 172.3650674320245, 443.3333333333333 174.36655332724348, 450 113.71126028586542 C 456.6666666666667 150.3697054943159, 463.3333333333333 142.49470928553907, 470 93.64893392731945 C 476.6666666666667 74.06489439387835, 483.3333333333333 110.4399606338635, 490 84.05835925430104 C 496.6666666666667 69.45464065513325, 503.3333333333333 46.950747296837235, 510 70.47741184963151 C 516.6666666666666 28.66835427434794, 523.3333333333334 47.105100113576384, 530 82.37710127359337 C 536.6666666666666 79.463474281902, 543.3333333333334 41.740271340252704, 550 92.89608893874899 C 556.6666666666666 115.43209247948798, 563.3333333333334 46.190984869728936, 570 81.75199227592988 C 576.6666666666666 107.64744420330736, 583.3333333333334 66.67267250386884, 590 81.72162882887517 C 596.6666666666666 93.4578158613235, 603.3333333333334 101.35292370685188, 610 85.85029123498167 C 616.6666666666666 125.591579151029, 623.3333333333334 119.6726150556385, 630 104.0007194021037 C 636.6666666666666 129.1312286149351, 643.3333333333334 77.94346638512474, 650 103.10469843126046 C 656.6666666666666 91.81405739770187, 663.3333333333334 64.20822362338853, 670 96.1824670955416 C 676.6666666666666 51.89084362627828, 683.3333333333334 101.30059435905474, 690 74.77666422391232 C 696.6666666666666 118.25747117584642, 703.3333333333334 45.4673616134682, 710 82.39179618359476 C 716.6666666666666 99.4896885856198, 723.3333333333334 89.10240245337177, 730 105.48716264279156 C 736.6666666666666 100.47670124590636, 743.3333333333334 58.748635375852174, 750 83.01904163856615 C 756.6666666666666 99.2459393770747, 763.3333333333334 98.71077251841683, 770 77.1565502118216 C 776.6666666666666 88.7566834305012, 783.3333333333334 55.371385085863125, 790 57.9499137154335 C 796.6666666666666 65.00603970858145, 803.3333333333334 66.56008294773035, 810 75.283489714708 C 816.6666666666666 83.73813940181381, 823.3333333333334 86.94734716691761, 830 93.66142462921604 C 836.6666666666666 70.2292269028921, 843.3333333333334 106.54272121918373, 850 109.54368980998976" fill="none" stroke="#ff6b6b" stroke-width="3.122515822215242" opacity="0.5712519103848877" stroke-linecap="round" filter="url(#glow)" />
<circle cx="45.97423903269657" cy="4.443750402352409" r="7.795792330924815" fill="#48dbfb" opacity="0.7277437405373062" />
<circle cx="322.94096850003535" cy="150.63104210541874" r="6.421389179034345" fill="#1dd1a1" opacity="0.9797660457938396" />
<circle cx="222.8769718161681" cy="73.17011201295323" r="5.718412530686836" fill="#ff6b6b" opacity="0.7237861711975004" />
<circle cx="260.2577341629631" cy="16.233329950431184" r="5.402944211128965" fill="#feca57" opacity="0.5684371308975847" />
<circle cx="222.19643335380556" cy="75.61684606562093" r="3.6501596320041627" fill="#1dd1a1" opacity="0.9702045572004829" />
<circle cx="303.1307507120202" cy="196.01055191384708" r="4.703266793946468" fill="#ff6b6b" opacity="0.9540815151728219" />
<circle cx="728.7708472474002" cy="14.271594868187565" r="5.766056317480716" fill="#ff9ff3" opacity="0.6940261399847116" />
<circle cx="559.2362789758027" cy="89.75810140846305" r="5.9025021081461935" fill="#ff9ff3" opacity="0.5509115479809379" />
<circle cx="756.977306742089" cy="195.03429099500326" r="4.590464874449692" fill="#feca57" opacity="0.9532527832430681" />
<circle cx="199.96323944633403" cy="118.1780636924484" r="6.165400574931134" fill="#48dbfb" opacity="0.5727862704964591" />
<circle cx="143.67507961806484" cy="121.30388207487823" r="3.289456253097181" fill="#ff9ff3" opacity="0.548237658885632" />
<circle cx="450.685426739877" cy="168.87295997101367" r="2.213845911605478" fill="#48dbfb" opacity="0.7452620930985371" />
<circle cx="722.3773907758888" cy="30.79614022893189" r="1.9093465549666477" fill="white" opacity="0.3743147348045205" />
<circle cx="544.8436537310799" cy="140.75395006672312" r="1.2280116795788059" fill="white" opacity="0.4100084715234371" />
<circle cx="478.7023865231687" cy="90.52255989672027" r="1.537133042657954" fill="white" opacity="0.22856022787750507" />
<circle cx="508.15792521755" cy="172.93900024365615" r="1.4860377625094041" fill="white" opacity="0.361554133442508" />
<circle cx="377.9458378993583" cy="74.86008843371307" r="0.5072686342435744" fill="white" opacity="0.4585151854615689" />
<circle cx="5.688940160985467" cy="150.90501572827878" r="1.2365154157966887" fill="white" opacity="0.48080598083599646" />
<circle cx="281.0440743224911" cy="161.02327664746974" r="1.0578425736965427" fill="white" opacity="0.20711188044732" />
<circle cx="413.08849941274025" cy="163.81240669284836" r="1.8830021724016308" fill="white" opacity="0.34636940675594385" />
<circle cx="692.0071891041118" cy="100.23029165931607" r="1.1402671079844708" fill="white" opacity="0.25218973479189066" />
<circle cx="653.4707608876724" cy="181.02576976077444" r="1.1053619361329599" fill="white" opacity="0.3958166416726968" />
<circle cx="380.6993222255503" cy="132.51887479183418" r="0.6930092466589646" fill="white" opacity="0.21602053112829378" />
<circle cx="376.9537292349293" cy="46.21527923021862" r="1.0626936803297338" fill="white" opacity="0.21066937402936492" />
<circle cx="299.16383872187" cy="126.53334060127062" r="0.8526550101001898" fill="white" opacity="0.4643916542085501" />
<circle cx="634.5995033633567" cy="60.79288491739789" r="1.760797081004972" fill="white" opacity="0.46784240581772957" />
<circle cx="353.23088268444957" cy="146.55588102199454" r="0.6817101540127986" fill="white" opacity="0.44331535406521155" />
<circle cx="688.5725069641069" cy="20.312238674232308" r="1.943863547240746" fill="white" opacity="0.40855571158068904" />
<circle cx="187.26267681960138" cy="67.72551207511835" r="1.9553212968249498" fill="white" opacity="0.2941177843253587" />
<circle cx="289.15357162552004" cy="194.33343302518082" r="0.8807776380101292" fill="white" opacity="0.28042900518789204" />
<circle cx="226.1585518768502" cy="43.615155962751075" r="1.5878536893106912" fill="white" opacity="0.4780436296793116" />
<circle cx="794.668928769433" cy="66.62550627337484" r="0.6934985886624575" fill="white" opacity="0.2075570862088142" />
<circle cx="480.58354807689733" cy="146.07262958411718" r="1.2874448262108422" fill="white" opacity="0.2650650635998406" />
<circle cx="470.4261926691965" cy="188.96551885867203" r="1.249605911222467" fill="white" opacity="0.27720773740565663" />
<circle cx="99.76436780111584" cy="152.9692634569338" r="1.7532914945178906" fill="white" opacity="0.2106022759081103" />
<circle cx="499.84476681871024" cy="181.51344048430232" r="0.5812842509326122" fill="white" opacity="0.4217010025841854" />
<circle cx="217.5497015676113" cy="95.40604377839665" r="0.7890623911542515" fill="white" opacity="0.47015934033709905" />
<circle cx="476.92778678887197" cy="21.83881754781698" r="1.6590819852806797" fill="white" opacity="0.3278922211883355" />
<circle cx="287.35560887592106" cy="196.22122775747127" r="1.0147745546621438" fill="white" opacity="0.26625441002810357" />
<circle cx="371.5329265926204" cy="133.4779713945607" r="0.6756354731630226" fill="white" opacity="0.2274629816830823" />
<circle cx="18.019300447312858" cy="109.92659610927147" r="1.7168607014691644" fill="white" opacity="0.4607862335021079" />
<circle cx="8.841426648229955" cy="139.72438411050504" r="1.4198739842570718" fill="white" opacity="0.4753977335723339" />

</svg>
