<svg xmlns="http://www.w3.org/2000/svg" viewBox="0 0 800 200" width="800" height="200">
  <rect width="800" height="200" fill="#1a0a0a"/>
  
    <defs>
      <linearGradient id="grad1" x1="0%" y1="0%" x2="100%" y2="100%">
        <stop offset="0%" style="stop-color:#ff4500;stop-opacity:0.8" />
        <stop offset="100%" style="stop-color:#ff6b35;stop-opacity:0.8" />
      </linearGradient>
      <linearGradient id="grad2" x1="100%" y1="0%" x2="0%" y2="100%">
        <stop offset="0%" style="stop-color:#f7c59f;stop-opacity:0.7" />
        <stop offset="100%" style="stop-color:#efa48b;stop-opacity:0.7" />
      </linearGradient>
      <linearGradient id="textGrad" x1="0%" y1="0%" x2="100%" y2="0%">
        <stop offset="0%" style="stop-color:#ff4500" />
        <stop offset="25%" style="stop-color:#ff6b35" />
        <stop offset="50%" style="stop-color:#f7c59f" />
        <stop offset="75%" style="stop-color:#efa48b" />
        <stop offset="100%" style="stop-color:#d4a5a5" />
      </linearGradient>
      <filter id="glow">
        <feGaussianBlur stdDeviation="3" result="coloredBlur"/>
        <feMerge>
          <feMergeNode in="coloredBlur"/>
          <feMergeNode in="SourceGraphic"/>
        </feMerge>
      </filter>
      <filter id="textGlow">
        <feGaussianBlur stdDeviation="2" result="coloredBlur"/>
        <feMerge>
          <feMergeNode in="coloredBlur"/>
          <feMergeNode in="SourceGraphic"/>
        </feMerge>
      </filter>
    </defs>
  
  
    <style>
      @keyframes float {
        0%, 100% { transform: translateY(0px); }
        50% { transform: translateY(-8px); }
      }
      @keyframes pulse {
        0%, 100% { opacity: 0.4; }
        50% { opacity: 0.9; }
      }
      @keyframes drift {
        0% { transform: translateX(0px); }
        50% { transform: translateX(10px); }
        100% { transform: translateX(0px); }
      }
      @keyframes shimmer {
        0% { opacity: 0.3; }
        50% { opacity: 1; }
        100% { opacity: 0.3; }
      }
      @keyframes glitch {
        0%, 100% { transform: translateX(0); }
        20% { transform: translateX(-2px); }
        40% { transform: translateX(2px); }
        60% { transform: translateX(-1px); }
        80% { transform: translateX(1px); }
      }
      @keyframes dataStream {
        0% { stroke-dashoffset: 0; }
        100% { stroke-dashoffset: -20; }
      }
      .float { animation: float 8s ease-in-out infinite; }
      .pulse { animation: pulse 8s ease-in-out infinite; }
      .drift { animation: drift 8s ease-in-out infinite; }
      .shimmer { animation: shimmer 3s ease-in-out infinite; }
      .glitch { animation: glitch 0.5s ease-in-out infinite; }
      .dataStream { animation: dataStream 2s linear infinite; }
      .name-text { 
        font-family: -apple-system, BlinkMacSystemFont, 'Segoe UI', Helvetica, Arial, sans-serif;
        font-weight: 700;
        font-size: 64px;
        letter-spacing: -2px;
      }
    </style>
  
  <rect x="0" y="160" width="800" height="50" fill="#ff4500" opacity="0.3" />
<rect x="0" y="170" width="800" height="40" fill="#ff6b35" opacity="0.25" />
<rect x="0" y="180" width="800" height="30" fill="#f7c59f" opacity="0.19999999999999998" />
<rect x="0" y="190" width="800" height="20" fill="#efa48b" opacity="0.14999999999999997" />
<rect x="0" y="200" width="800" height="10" fill="#d4a5a5" opacity="0.09999999999999998" />
<line x1="501.0528159169417" y1="170" x2="501.0528159169417" y2="273.932274612681" stroke="#ff4500" stroke-width="2.8099032351570203" opacity="0.15485417750686747" class="pulse" />
<line x1="501.0528159169417" y1="170" x2="521.9430258197752" y2="247.96332473815318" stroke="#ff4500" stroke-width="1.3214605874934495" opacity="0.26938400151780917" class="pulse" />
<line x1="501.0528159169417" y1="170" x2="572.9783884716956" y2="294.5787460283152" stroke="#ff4500" stroke-width="2.273998396814966" opacity="0.14368303990743034" class="pulse" />
<line x1="501.0528159169417" y1="170" x2="565.5067810100811" y2="234.45396509313937" stroke="#ff4500" stroke-width="1.4089045929303876" opacity="0.2432218234799112" class="pulse" />
<line x1="501.0528159169417" y1="170" x2="625.8716056082235" y2="242.06416182818484" stroke="#ff4500" stroke-width="1.2373278771584326" opacity="0.10217969326049824" class="pulse" />
<line x1="501.0528159169417" y1="170" x2="615.7197596360173" y2="200.72491496807132" stroke="#ff4500" stroke-width="1.312858260538548" opacity="0.19567329584930782" class="pulse" />
<line x1="501.0528159169417" y1="170" x2="618.8956700696543" y2="170" stroke="#ff4500" stroke-width="1.3834533104934739" opacity="0.2486907963765326" class="pulse" />
<line x1="501.0528159169417" y1="170" x2="584.8388622028048" y2="147.54959656070633" stroke="#ff4500" stroke-width="2.4336519403932253" opacity="0.22690630083336977" class="pulse" />
<line x1="501.0528159169417" y1="170" x2="602.1991017388553" y2="111.60316465318738" stroke="#ff4500" stroke-width="2.914110617706239" opacity="0.21850793103160226" class="pulse" />
<line x1="501.0528159169417" y1="170" x2="598.4920786268032" y2="72.56073729013859" stroke="#ff4500" stroke-width="2.4958894212330023" opacity="0.24949497759881903" class="pulse" />
<line x1="501.0528159169417" y1="170" x2="575.1681493704688" y2="41.62847683858186" stroke="#ff4500" stroke-width="2.668343681207576" opacity="0.2378363516549482" class="pulse" />
<line x1="501.0528159169417" y1="170" x2="537.7705115247218" y2="32.96769445491651" stroke="#ff4500" stroke-width="1.8414111673981979" opacity="0.14898340024556508" class="pulse" />
<path d="M 180.02566789140607 36.1562995870476 C 182.47667892792882 49.14421834521097, 182.0531109410647 75.01804123024463, 173.19524167418473 82.47308897110594 C 164.33737240730477 89.92813671196724, 143.09233591047376 80.11163220655415, 126.87845229012638 80.88658603221542 C 110.66456866977899 81.66153985787669, 84.86195006897141 94.5778596659349, 75.9119399521004 87.12281192507359 C 66.96192983522938 79.66776418421229, 73.18868045070501 53.15542589486095, 73.17839158890033 36.156299587047606 C 73.16810272709564 19.157173279234264, 66.9001966644013 -4.796612322015328, 75.8502067812723 -14.871945921806464 C 84.8002168981433 -24.9472795215976, 113.10529084449703 -27.531955735687905, 126.87845229012636 -24.295702011699213 C 140.6516137357557 -21.05944828771052, 149.6313061881683 -5.529757177665436, 158.48917545504827 4.5455764221256985 C 167.34704472192823 14.620910021916833, 177.57465685488333 23.168380828884224, 180.02566789140607 36.1562995870476 Z" fill="#f7c59f" opacity="0.11860656589664581" class="drift" />
<path d="M 349.1097480294537 41.519828344474064 C 347.7013899647272 54.30842911786687, 329.71906504143203 64.0748986613508, 319.0127828186279 75.66055647047288 C 308.30650059582376 87.24621427959497, 297.08849100779355 110.1975815927083, 284.8720546926291 111.03377519920652 C 272.65561837746463 111.86996880570473, 254.99701244151086 92.26337591858419, 245.71416492764104 80.67771810946212 C 236.4313174137712 69.09206030034005, 228.23889167523328 53.63638033195989, 229.17496960941014 41.51982834447407 C 230.111047543587 29.40327635698825, 242.04778501883237 20.199898518240218, 251.3306325327022 7.97840618454719 C 260.613480046572 -4.243086149145837, 272.18333824691496 -30.3008832652789, 284.8720546926291 -31.809125657684092 C 297.5607711383432 -33.317368050089286, 316.756648984183 -13.292540503576985, 327.4629312069871 -1.0710481698839587 C 338.16921342979117 11.150444163809068, 350.51810609418027 28.731227571081256, 349.1097480294537 41.519828344474064 Z" fill="#f7c59f" opacity="0.1374975199518096" class="drift" />
<path d="M 539.0098241996997 45.435415306853976 C 541.9969185871947 58.84375665083178, 539.0910304495504 84.2664668916051, 529.2700102606369 94.62172250127244 C 519.4489900717234 104.97697811093978, 494.44789400464487 109.5981937579044, 480.08370306621845 107.566948964858 C 465.71951212779203 105.5357041718116, 450.22417318727855 92.7895093526614, 443.08486463007836 82.43425374299406 C 435.94555607287816 72.07899813332672, 438.062427569627 58.582937298843646, 437.2478517230174 45.43541530685398 C 436.4332758764078 32.28789331486432, 431.05810099322036 14.070710329547056, 438.19740955042056 3.5491217910560806 C 445.33671810762075 -6.972466747434895, 467.8920306686774 -19.464541365150122, 480.08370306621845 -17.694115924091868 C 492.2753754637595 -15.923690483033614, 501.52642374675327 3.650085898914636, 511.3474439356668 14.17167443740561 C 521.1684641245803 24.693262975896584, 536.0227298122046 32.02707396287617, 539.0098241996997 45.435415306853976 Z" fill="#f7c59f" opacity="0.1187181128034667" class="drift" />
<path d="M 158.8900237307735 35.935384653884526 C 158.696841165426 43.81350074637427, 156.99563323742825 51.345762707195895, 152.00579502247388 58.99018523531123 C 147.0159568075195 66.63460776342657, 136.53108587141034 81.9067619193556, 128.95099444104716 81.80191982257655 C 121.37090301068396 81.6970777257975, 110.37594591090959 66.0055551827523, 106.52524644029472 58.36113265463696 C 102.67454696967985 50.716710126521626, 108.21237792500179 45.77621429511248, 105.84679761735798 35.935384653884526 C 103.48121730971417 26.09455501265657, 88.48106512381696 5.981914208019137, 92.33176459443183 -0.6838451927307858 C 96.1824640650467 -7.349604593480708, 118.81214013769265 -6.126727396132271, 128.95099444104716 -4.059171750615008 C 139.08984874440165 -1.9916161050977443, 148.17505219960447 5.055729279622871, 153.16489041455887 11.721488680372794 C 158.15472862951327 18.387248081122717, 159.08320629612098 28.057268561394785, 158.8900237307735 35.935384653884526 Z" fill="#f7c59f" opacity="0.13581163507416052" class="drift" />
<path d="M 385.2996312924227 27.710435126095213 L 396.83338280020126 21.943559372205947 L 408.3671343079798 27.710435126095213" fill="none" stroke="#d4a5a5" stroke-width="1.5" opacity="0.4" class="float" style="animation-delay: 0.23503730824948388s" />
<path d="M 255.75729312273137 41.933166736189385 L 266.0530683575894 36.78527911876037 L 276.3488435924474 41.933166736189385" fill="none" stroke="#d4a5a5" stroke-width="1.5" opacity="0.4" class="float" style="animation-delay: 1.9883273312809886s" />
<path d="M 680.7801991629192 81.78272578316637 L 686.8470612045372 78.74929476235735 L 692.9139232461553 81.78272578316637" fill="none" stroke="#d4a5a5" stroke-width="1.5" opacity="0.4" class="float" style="animation-delay: 2.778269001366289s" />
<path d="M 364.08457348153013 31.441156243029454 L 373.8738793263748 26.546503320607123 L 383.6631851712194 31.441156243029454" fill="none" stroke="#d4a5a5" stroke-width="1.5" opacity="0.4" class="float" style="animation-delay: 1.4717204999664661s" />
<path d="M 592.7088659254221 67.43416214025176 L 597.7982608748459 64.88946466553985 L 602.8876558242698 67.43416214025176" fill="none" stroke="#d4a5a5" stroke-width="1.5" opacity="0.4" class="float" style="animation-delay: 1.0694954053064119s" />

  
    <text x="400" y="120" text-anchor="middle" class="name-text" fill="url(#textGrad)" filter="url(#textGlow)">
      JOEL HOOKS
    </text>
  
</svg>
