<svg xmlns="http://www.w3.org/2000/svg" viewBox="0 0 800 200" width="800" height="200">
  <rect width="800" height="200" fill="#1a0a0a"/>
  
    <defs>
      <linearGradient id="grad1" x1="0%" y1="0%" x2="100%" y2="100%">
        <stop offset="0%" style="stop-color:#ff4500;stop-opacity:0.8" />
        <stop offset="100%" style="stop-color:#ff6b35;stop-opacity:0.8" />
      </linearGradient>
      <linearGradient id="grad2" x1="100%" y1="0%" x2="0%" y2="100%">
        <stop offset="0%" style="stop-color:#f7c59f;stop-opacity:0.7" />
        <stop offset="100%" style="stop-color:#efa48b;stop-opacity:0.7" />
      </linearGradient>
      <linearGradient id="textGrad" x1="0%" y1="0%" x2="100%" y2="0%">
        <stop offset="0%" style="stop-color:#ff4500" />
        <stop offset="25%" style="stop-color:#ff6b35" />
        <stop offset="50%" style="stop-color:#f7c59f" />
        <stop offset="75%" style="stop-color:#efa48b" />
        <stop offset="100%" style="stop-color:#d4a5a5" />
      </linearGradient>
      <filter id="glow">
        <feGaussianBlur stdDeviation="3" result="coloredBlur"/>
        <feMerge>
          <feMergeNode in="coloredBlur"/>
          <feMergeNode in="SourceGraphic"/>
        </feMerge>
      </filter>
      <filter id="textGlow">
        <feGaussianBlur stdDeviation="2" result="coloredBlur"/>
        <feMerge>
          <feMergeNode in="coloredBlur"/>
          <feMergeNode in="SourceGraphic"/>
        </feMerge>
      </filter>
    </defs>
  
  
    <style>
      @keyframes float {
        0%, 100% { transform: translateY(0px); }
        50% { transform: translateY(-8px); }
      }
      @keyframes pulse {
        0%, 100% { opacity: 0.4; }
        50% { opacity: 0.9; }
      }
      @keyframes drift {
        0% { transform: translateX(0px); }
        50% { transform: translateX(10px); }
        100% { transform: translateX(0px); }
      }
      @keyframes shimmer {
        0% { opacity: 0.3; }
        50% { opacity: 1; }
        100% { opacity: 0.3; }
      }
      @keyframes glitch {
        0%, 100% { transform: translateX(0); }
        20% { transform: translateX(-2px); }
        40% { transform: translateX(2px); }
        60% { transform: translateX(-1px); }
        80% { transform: translateX(1px); }
      }
      @keyframes dataStream {
        0% { stroke-dashoffset: 0; }
        100% { stroke-dashoffset: -20; }
      }
      .float { animation: float 8s ease-in-out infinite; }
      .pulse { animation: pulse 8s ease-in-out infinite; }
      .drift { animation: drift 8s ease-in-out infinite; }
      .shimmer { animation: shimmer 3s ease-in-out infinite; }
      .glitch { animation: glitch 0.5s ease-in-out infinite; }
      .dataStream { animation: dataStream 2s linear infinite; }
      .name-text { 
        font-family: -apple-system, BlinkMacSystemFont, 'Segoe UI', Helvetica, Arial, sans-serif;
        font-weight: 700;
        font-size: 64px;
        letter-spacing: -2px;
      }
    </style>
  
  <rect x="0" y="160" width="800" height="50" fill="#ff4500" opacity="0.3" />
<rect x="0" y="170" width="800" height="40" fill="#ff6b35" opacity="0.25" />
<rect x="0" y="180" width="800" height="30" fill="#f7c59f" opacity="0.19999999999999998" />
<rect x="0" y="190" width="800" height="20" fill="#efa48b" opacity="0.14999999999999997" />
<rect x="0" y="200" width="800" height="10" fill="#d4a5a5" opacity="0.09999999999999998" />
<line x1="442.94631364375437" y1="170" x2="442.94631364375437" y2="310.27145547217674" stroke="#ff4500" stroke-width="2.8188082193890747" opacity="0.1540400372405691" class="pulse" />
<line x1="442.94631364375437" y1="170" x2="481.2858180867091" y2="313.0849785181199" stroke="#ff4500" stroke-width="2.8527813713586854" opacity="0.19502740927818948" class="pulse" />
<line x1="442.94631364375437" y1="170" x2="497.6821065076517" y2="264.8051742328363" stroke="#ff4500" stroke-width="2.9895338833001377" opacity="0.1941278678462189" class="pulse" />
<line x1="442.94631364375437" y1="170" x2="545.5131367136812" y2="272.5668230699269" stroke="#ff4500" stroke-width="2.4907246039272715" opacity="0.16120791709340243" class="pulse" />
<line x1="442.94631364375437" y1="170" x2="514.8981990683249" y2="211.54144041857685" stroke="#ff4500" stroke-width="2.804025564301668" opacity="0.1355641067180327" class="pulse" />
<line x1="442.94631364375437" y1="170" x2="562.8000193247519" y2="202.11470364710078" stroke="#ff4500" stroke-width="1.0645655439612391" opacity="0.21711078254290767" class="pulse" />
<line x1="442.94631364375437" y1="170" x2="585.701475507442" y2="170" stroke="#ff4500" stroke-width="2.422918742777185" opacity="0.11016915726033322" class="pulse" />
<line x1="442.94631364375437" y1="170" x2="582.6977885194269" y2="132.55370516600522" stroke="#ff4500" stroke-width="2.8680868284636594" opacity="0.1919965377370682" class="pulse" />
<line x1="442.94631364375437" y1="170" x2="535.3009497925914" y2="116.67902595855904" stroke="#ff4500" stroke-width="2.8082787877436983" opacity="0.14478744857803796" class="pulse" />
<line x1="442.94631364375437" y1="170" x2="540.1550495028663" y2="72.7912641408881" stroke="#ff4500" stroke-width="2.1088856221641685" opacity="0.16989164414461735" class="pulse" />
<line x1="442.94631364375437" y1="170" x2="513.3995141495426" y2="47.97147716813751" stroke="#ff4500" stroke-width="2.938754916078625" opacity="0.1239550642897568" class="pulse" />
<line x1="442.94631364375437" y1="170" x2="479.9125807496126" y2="32.04001299477511" stroke="#ff4500" stroke-width="1.9635370971843567" opacity="0.25999463371492615" class="pulse" />
<path d="M 234.07403165977314 65.77601765423053 C 232.86752453170112 78.99221466041293, 221.98338997795233 94.91573390304993, 212.35944771472194 101.80508728856167 C 202.73550545149155 108.6944406740734, 187.333823028279 108.11838289752313, 176.3303780803908 107.11213796730095 C 165.3269331325026 106.10589303707877, 154.37347079172915 102.65697109274035, 146.33877802739272 95.76761770722861 C 138.3040852630563 88.87826432171687, 128.70674934834085 76.35774552586513, 128.12222149437227 65.77601765423053 C 127.5376936404037 55.19428978259593, 134.79691813924487 42.347045620093134, 142.8316109035813 32.27725047742102 C 150.86630366791772 22.207455334748907, 163.535898150462 6.985471002523487, 176.3303780803908 5.357246798197863 C 189.1248580103196 3.72902259387224, 209.97454821992363 12.438110108795167, 219.59849048315402 22.507905251467278 C 229.2224327463844 32.57770039413939, 235.28053878784516 52.55982064804813, 234.07403165977314 65.77601765423053 Z" fill="#f7c59f" opacity="0.16556711908550512" class="drift" />
<path d="M 693.0790030293805 72.56069175246179 C 693.1366144067513 80.38853877829517, 686.2192744894446 90.94172528327294, 680.116053739535 96.21706696207414 C 674.0128329896254 101.49240864087534, 664.8734317597273 103.68444699866839, 656.4596785299226 104.212741825269 C 648.0459253001179 104.74103665186962, 637.7857980745088 104.66217760047904, 629.6335343607066 99.38683592167784 C 621.4812706469044 94.11149424287665, 608.132606605706 82.08925016746386, 607.5460962471093 72.56069175246179 C 606.9595858885126 63.03213333745973, 617.962208495324 49.10162148612864, 626.1144722091262 42.21548543166548 C 634.2667359229284 35.32934937720231, 647.5170263188919 30.071458863114724, 656.4596785299226 31.243875425682795 C 665.4023307409533 32.41629198825086, 673.6671647254009 42.363848752610735, 679.7703854753105 49.2499848070739 C 685.8736062252201 56.136120861537066, 693.0213916520097 64.73284472662841, 693.0790030293805 72.56069175246179 Z" fill="#f7c59f" opacity="0.1821643627926455" class="drift" />
<path d="M 563.1774471086421 63.432885902426456 C 562.3112061446659 79.52890807894153, 556.670120299802 98.43056863618224, 546.2307862105107 109.12222954004292 C 535.7914521212194 119.8138904439036, 514.7311118492069 128.62296326181678, 500.54144257289425 127.58285132559052 C 486.35177329658165 126.54273938936429, 469.76725586557404 113.57321882654615, 461.0927705526352 102.88155792268547 C 452.4182852396964 92.1898970188248, 450.1532904287486 78.24120297599995, 448.49453069526146 63.43288590242646 C 446.8357709617743 48.624568828852965, 442.46572683877343 22.5496174159499, 451.14021215171226 14.0316554812445 C 459.8146974646511 5.513693546539098, 483.82677259911827 12.572707460909383, 500.54144257289425 12.325114294194059 C 517.2561125466702 12.077521127478734, 540.9888979050769 4.02813454624715, 551.4282319943682 12.54609648095255 C 561.8675660836594 21.064058415657946, 564.0436880726184 47.33686372591139, 563.1774471086421 63.432885902426456 Z" fill="#f7c59f" opacity="0.1295357793845178" class="drift" />
<path d="M 77.60445569833448 28.72720781955561 C 76.33607541493257 35.118117920265156, 73.5719545763454 36.284633100203166, 69.69193646156302 44.09479727147851 C 65.81191834678063 51.90496144275386, 61.39313839611677 73.64193127803867, 54.32434700964011 75.5881928472077 C 47.255555623163445 77.53445441637672, 34.7594493658492 63.582530857768035, 27.279188142703028 55.77236668649269 C 19.79892691955686 47.96220251521734, 9.134363499087035 37.43384460352526, 9.442779670763088 28.727207819555616 C 9.75119584243914 20.020571035585974, 21.64942394961317 11.373268038758098, 29.129685172759338 3.532545982674847 C 36.60994639590551 -4.308176073408403, 46.29559151143758 -18.68658963103495, 54.3243470096401 -18.317124516943885 C 62.35310250784262 -17.94765940285282, 73.42220004719206 -2.0913853888620126, 77.30221816197447 5.749336667221236 C 81.18223627675687 13.590058723304484, 78.87283598173639 22.336297718846062, 77.60445569833448 28.72720781955561 Z" fill="#f7c59f" opacity="0.1684829837254202" class="drift" />
<path d="M 196.1462562324982 32.96080824086377 L 206.1448291497917 27.961521782217016 L 216.1434020670852 32.96080824086377" fill="none" stroke="#d4a5a5" stroke-width="1.5" opacity="0.4" class="float" style="animation-delay: 0.3934867549411083s" />
<path d="M 477.9527764035496 62.48964689727363 L 487.9083218231399 57.511874187478476 L 497.8638672427302 62.48964689727363" fill="none" stroke="#d4a5a5" stroke-width="1.5" opacity="0.4" class="float" style="animation-delay: 2.899368483156927s" />
<path d="M 699.0317953689115 67.81788975703546 L 707.3442086317797 63.66168312560136 L 715.6566218946479 67.81788975703546" fill="none" stroke="#d4a5a5" stroke-width="1.5" opacity="0.4" class="float" style="animation-delay: 2.771440452553753s" />
<path d="M 126.02878685320127 52.65824638531738 L 136.55968666429888 47.39279647976858 L 147.0905864753965 52.65824638531738" fill="none" stroke="#d4a5a5" stroke-width="1.5" opacity="0.4" class="float" style="animation-delay: 2.6162260946325926s" />
<path d="M 645.0035068882166 39.0699340421204 L 653.7794055661652 34.681984703146114 L 662.5553042441138 39.0699340421204" fill="none" stroke="#d4a5a5" stroke-width="1.5" opacity="0.4" class="float" style="animation-delay: 0.4642895131991325s" />

  
    <text x="400" y="120" text-anchor="middle" class="name-text" fill="url(#textGrad)" filter="url(#textGlow)">
      JOEL HOOKS
    </text>
  
</svg>
