<svg xmlns="http://www.w3.org/2000/svg" viewBox="0 0 800 200" width="800" height="200">
  <rect width="800" height="200" fill="#05010d"/>
  
    <defs>
      <linearGradient id="grad1" x1="0%" y1="0%" x2="100%" y2="100%">
        <stop offset="0%" style="stop-color:#4a0080;stop-opacity:0.8" />
        <stop offset="100%" style="stop-color:#7b2cbf;stop-opacity:0.8" />
      </linearGradient>
      <linearGradient id="grad2" x1="100%" y1="0%" x2="0%" y2="100%">
        <stop offset="0%" style="stop-color:#9d4edd;stop-opacity:0.7" />
        <stop offset="100%" style="stop-color:#c77dff;stop-opacity:0.7" />
      </linearGradient>
      <linearGradient id="textGrad" x1="0%" y1="0%" x2="100%" y2="0%">
        <stop offset="0%" style="stop-color:#4a0080" />
        <stop offset="25%" style="stop-color:#7b2cbf" />
        <stop offset="50%" style="stop-color:#9d4edd" />
        <stop offset="75%" style="stop-color:#c77dff" />
        <stop offset="100%" style="stop-color:#e0aaff" />
      </linearGradient>
      <filter id="glow">
        <feGaussianBlur stdDeviation="5" result="coloredBlur"/>
        <feMerge>
          <feMergeNode in="coloredBlur"/>
          <feMergeNode in="SourceGraphic"/>
        </feMerge>
      </filter>
      <filter id="textGlow">
        <feGaussianBlur stdDeviation="2" result="coloredBlur"/>
        <feMerge>
          <feMergeNode in="coloredBlur"/>
          <feMergeNode in="SourceGraphic"/>
        </feMerge>
      </filter>
    </defs>
  
  
    <style>
      @keyframes float {
        0%, 100% { transform: translateY(0px); }
        50% { transform: translateY(-8px); }
      }
      @keyframes pulse {
        0%, 100% { opacity: 0.4; }
        50% { opacity: 0.9; }
      }
      @keyframes drift {
        0% { transform: translateX(0px); }
        50% { transform: translateX(10px); }
        100% { transform: translateX(0px); }
      }
      @keyframes shimmer {
        0% { opacity: 0.3; }
        50% { opacity: 1; }
        100% { opacity: 0.3; }
      }
      @keyframes glitch {
        0%, 100% { transform: translateX(0); }
        20% { transform: translateX(-2px); }
        40% { transform: translateX(2px); }
        60% { transform: translateX(-1px); }
        80% { transform: translateX(1px); }
      }
      @keyframes dataStream {
        0% { stroke-dashoffset: 0; }
        100% { stroke-dashoffset: -20; }
      }
      .float { animation: float 8s ease-in-out infinite; }
      .pulse { animation: pulse 8s ease-in-out infinite; }
      .drift { animation: drift 8s ease-in-out infinite; }
      .shimmer { animation: shimmer 3s ease-in-out infinite; }
      .glitch { animation: glitch 0.5s ease-in-out infinite; }
      .dataStream { animation: dataStream 2s linear infinite; }
      .name-text { 
        font-family: -apple-system, BlinkMacSystemFont, 'Segoe UI', Helvetica, Arial, sans-serif;
        font-weight: 700;
        font-size: 64px;
        letter-spacing: -2px;
      }
    </style>
  
  <path d="M 541.5998512224505 44.6299139936436 C 536.2566378352532 56.29793706629957, 491.9275031833129 52.08682293296762, 481.76300426508095 67.98776792559204 C 471.598505346849 83.88871291821646, 488.8363202955688 135.1102537066543, 480.6128577130587 140.03558394939012 C 472.3893951305486 144.96091419212593, 446.00852782138463 107.32337424036064, 432.4222287700205 97.5397493820069 C 418.8359297186564 87.75612452365317, 403.69624511372285 90.15214069732822, 399.0950634048739 81.33383479926768 C 394.4938816960249 72.51552890120713, 407.9489628896108 59.141410944239794, 404.81513851692654 44.629913993643605 C 401.68131414424226 30.118417043047415, 374.70042581962696 0.034683780410010634, 380.2921171687683 -5.735146904309474 C 385.88380851790964 -11.504977589028957, 424.76804223748866 7.906464621581586, 438.3652866117744 10.010929885326696 C 451.9625309860602 12.115395149071807, 449.29941708506755 8.896861410772937, 461.8755834144827 6.891644678161192 C 474.4517497438979 4.886427945549448, 500.5349066202707 -8.310082062924167, 513.8222845882653 -2.020370510343767 C 527.10966255626 4.269341042236634, 546.9430646096479 32.96189092098763, 541.5998512224505 44.6299139936436 Z" fill="#9d4edd" opacity="0.17971538411402826" filter="url(#glow)" class="float" />
<path d="M 307.45913859781945 66.7685640201749 C 312.4347289392788 81.37194704558937, 330.47230343949326 105.53595175383316, 326.22435293453697 121.42364705142704 C 321.9764024295807 137.31134234902092, 297.9702750870873 160.55165914877452, 281.97143556808174 162.09473580573814 C 265.9725960490762 163.63781246270176, 238.25450837442648 144.49118778603773, 230.2313158205037 130.68210699320878 C 222.20812326658094 116.87302620037983, 243.91638883682884 89.89250821093675, 233.8322802445452 79.24025104876445 C 223.74817165226153 68.58799388659214, 172.1482473237851 72.68517610570044, 169.72666426680172 66.76856402017492 C 167.30508120981833 60.851951934649406, 210.6893124823673 58.91899766659219, 219.30278190264477 43.74057853561134 C 227.91625132292222 28.562159404630492, 212.42593284911456 -16.75560476475862, 221.4074807884665 -24.301950765710174 C 230.38902872781844 -31.84829676666173, 260.6981811892039 -11.221714080873058, 273.19206953875636 -1.537497470097989 C 285.6859578883088 8.14671914067708, 290.65963270927045 22.41900531722809, 296.370810885781 33.80334889894024 C 302.08198906229154 45.187692480652395, 302.4835482563601 52.16518099476044, 307.45913859781945 66.7685640201749 Z" fill="#4a0080" opacity="0.21498629362829244" filter="url(#glow)" class="float" />
<path d="M 367.48290204389326 87.06071232196012 C 373.29580609357544 109.58630721216073, 402.3747526172708 146.18668167232795, 395.49815679409573 167.30746300248802 C 388.62156097092065 188.4282443326481, 351.8539765898523 204.93194592525094, 326.2233271048428 213.78540030292055 C 300.59267761983324 222.63885468059016, 267.4513166189652 227.8358444668809, 241.7142598840386 220.4281892685056 C 215.977203149112 213.0205340701303, 184.57989306110838 191.56738193709302, 171.80098669528314 169.33946911266878 C 159.0220803294579 147.11155628824454, 164.64323845455397 114.1981034572194, 165.04082168908712 87.06071232196014 C 165.43840492362028 59.923321186700875, 158.11484690687595 18.609045503004005, 174.18648610248218 6.515122301113195 C 190.2581252980884 -5.578800900777614, 239.28517944906537 12.486687604843612, 261.4706568627245 14.497173110615293 C 283.6561342763837 16.507658616386973, 290.77433797889074 15.635248577298436, 307.2993505844371 18.57803533574328 C 323.82436318998344 21.520822094188123, 350.5901405860933 20.740114163581552, 360.62073249600263 32.15389366128436 C 370.65132440591196 43.56767315898716, 361.6699979942111 64.53511743175952, 367.48290204389326 87.06071232196012 Z" fill="#7b2cbf" opacity="0.16878035616192255" filter="url(#glow)" class="float" />
<path d="M 134.00682352672527 0.023302478263165227 C 135.50636392524177 14.283693450494074, 131.04251733380033 37.27108110786376, 121.32254968306336 46.57926678094779 C 111.60258203232637 55.88745245403182, 94.2137610356438 47.55911412481435, 75.68701762230336 55.872416516767345 C 57.16027420896292 64.18571890872033, 26.527254745795187 100.4082122916317, 10.162089203020678 96.45908113266576 C -6.2030763397538315 92.50994997369982, -17.2766674025475 53.53031924263034, -22.503975634343703 32.17762956297172 C -27.731283866139908 10.824939883313096, -31.2664246471681 -18.228002196658633, -21.20176018775655 -31.657056945285962 C -11.137095728344995 -45.086111693913296, 21.091124903624998 -40.71197686960381, 37.884011122125614 -48.39669892879226 C 54.676897340626226 -56.081420987980714, 67.14867442827403 -79.33432594647579, 79.55555712324714 -77.76538930041669 C 91.96243981822025 -76.19645265435759, 103.25009622471791 -51.94786101555097, 112.32530729196426 -38.98307905243766 C 121.40051835921062 -26.01829708932435, 132.50728312820877 -14.237088493967743, 134.00682352672527 0.023302478263165227 Z" fill="#e0aaff" opacity="0.15259545249621823" filter="url(#glow)" class="float" />
<path d="M 391.2834450572944 129.46265467925218 L 391.2834450572944 129.46265467925218 L 391.7079019011368 129.4997898412444 L 392.1226552868525 129.61063008520983 L 392.51812486957766 129.7934861378645 L 392.8849752190782 130.04556398742105 L 393.21423501016324 130.36299682056367 L 393.4974123286429 130.74088927934227 L 393.7266048573654 131.1733735883128 L 393.8946037570315 131.65367698114696 L 393.9949901183073 132.1741997402651 L 394.02222293466286 132.72660305392358 L 393.9717176286754 133.30190579364947 L 393.83991425747456 133.8905892219492 L 393.62433462470426 134.48270855671126 L 393.3236276358854 135.06801024549563 L 392.937602350356 135.63605374066864 L 392.4672483049555 136.1763365157171 L 391.91474281116183 136.6784210245728 L 391.2834450572944 137.1320622797927 L 390.5778769794425 137.52733471225758 L 389.803690997718 137.85475697483335 L 388.96762484700815 138.10541336523525 L 388.07744386236567 138.2710705690633 L 387.14187120726154 138.344288462449 L 386.17050665693404 138.31852376464624 L 385.1737346677921 138.1882253937915 L 384.1626225761364 137.94892045339782 L 383.1488098742556 137.59728986229095 L 382.14438960821445 137.13123273588386 L 381.1617830284288 136.54991873107485 L 380.2136087005518 135.85382767970262 L 379.3125473495074 135.0447759553834 L 378.47120376302365 134.12592914460302 L 377.70196712217813 133.10180072398768 L 377.0168711548064 131.97823658053207 L 376.42745552281076 130.76238534897928 L 375.94462985621334 129.46265467925218 L 375.578541835126 128.0886536855407 L 375.33845069569014 126.651121966057 L 375.2326074976116 125.16184571729204 L 375.26814343945597 123.63356159756364 L 375.4509674437696 122.07984912049801 L 375.78567415785477 120.51501247862157 L 376.2754634282868 118.95395280930822 L 376.92207220874025 117.41203201883098 L 377.72571975222974 115.90492937418756 L 378.6850668213995 114.44849215576374 L 379.79718952503003 113.0585817359183 L 381.0575682565737 111.75091650846406 L 382.46009207244185 110.54091314113724 L 383.9970787051837 109.44352765695417 L 385.659310260885 108.47309787043619 L 387.4360845023957 107.64318871074113 L 389.31528147170764 106.96644195560557 L 391.2834450572944 106.45443187763063 L 393.3258789668655 106.11752826792079 L 395.4267564241083 105.96476825162489 L 397.56924277092844 106.0037382458696 L 399.73563002574275 106.24046733338648 L 401.9074823247699 106.67933323539948 L 404.06579105819526 107.32298196576703 L 406.19113840768 108.17226213577628 L 408.2638678969788 109.2261747562895 L 410.26426048438486 110.4818392521617 L 412.1727146551913 111.93447626409406 L 413.96992891509655 113.57740766654618 L 415.63708504212804 115.40207407826122 L 417.1560304257373 117.39806998567828 L 418.5094578076197 119.55319644038167 L 419.6810807398101 121.85353113116885 L 420.6558030918285 124.28351547073473 L 421.41988097010403 126.8260581778058 L 421.9610754594565 129.46265467925218 L 422.26879465778876 132.17352150468298 L 422.3342235509447 134.93774469968488 L 422.1504403643767 137.73344114456015 L 421.7125181311874 140.5379315344604 L 421.01761033147505 143.32792365544904 L 420.0650195848251 146.0797044804233 L 418.8562485152386 148.76933951007948 L 417.3950320546656 151.3728776981998 L 415.68735060641075 153.86656022836848 L 413.7414236517157 156.22703135155766 L 411.56768355044204 158.43154945152267 L 409.1787294585556 160.4581964781314 L 406.58926145958964 162.28608387802302 L 403.8159951829248 163.89555315760475 L 400.8775573570516 165.2683692354677 L 397.79436291943057 166.38790477980936 L 394.58847447460045 167.23931378122478 L 391.2834450572944 167.80969268195477 L 387.90414531600396 168.08822746890957 L 384.47657638324296 168.0663252389256 L 381.0276698403125 167.73772886003428 L 377.5850763153264 167.09861348117246 L 374.1769443723762 166.14766378376078 L 370.83169145585305 164.88613102082846 L 367.57776874602547 163.3178690516647 L 364.44342185908357 161.44934875103195 L 361.4564493861522 159.28965035039434 L 358.64396131058044 156.85043345293676 L 356.0321393705556 154.14588465284154 L 353.64600144436963 151.19264288078364 L 351.5091720281956 148.00970279026876 L 349.6436608509145 144.61829669164237 L 348.06965162737913 141.04175573068335 L 346.80530289071413 137.30535119500715 L 345.8665627661588 133.43611701241787 L 345.26699945405124 129.4626546792522 L 345.017649078474 125.41492202210213 L 345.1268824315979 121.32400735158197 L 345.6002920028125 117.22189071059634 L 346.4406005273468 113.14119405052432 L 347.6475921224578 109.11492228561268 L 349.2180669016726 105.1761972775405 L 351.1458197704136 101.35798688754163 L 353.4216439111061 97.69283130177816 L 356.0333592641264 94.21256888608414 L 358.9658661043466 90.94806385812964 L 362.2012236032634 87.92893807804515 L 365.71875305549264 85.18330925228187 L 369.4951652375565 82.73753781982546 L 373.50471115814435 80.61598474484501 L 377.7193552541893 78.84078237563713 L 382.10896988792064 77.43162044664888 L 386.6415498082691 76.40554919895357 L 391.2834450572944 75.77680147546855 L 395.99961063030406 75.55663551126878 L 400.7538710385834 75.75319998753264 L 405.5091977776241 76.37142275107055 L 410.2279975727821 77.41292442127732 L 414.8724091596552 78.87595791408769 L 419.40460625927625 80.7553747095848 L 423.78710432944666 83.0426184779031" fill="none" stroke="#7b2cbf" stroke-width="1" opacity="0.3" class="drift" />
<path d="M 358.3732752807959 95.95851274375434 L 358.3732752807959 95.95851274375434 L 358.7007694532229 95.9871647712125 L 359.02077681978267 96.07268473512796 L 359.3259055639495 96.21376925881079 L 359.6089528356737 96.40826259288069 L 359.86299671400707 96.65318125657836 L 360.08148517263595 96.94474818464057 L 360.2583210950844 97.27843603278981 L 360.38794242505696 97.64901920144877 L 360.4653965850874 98.05063404804582 L 360.48640835291394 98.47684667408065 L 360.4474404492802 98.92072759477912 L 360.34574616256833 99.37493252743444 L 360.17941341413837 99.83178847010345 L 359.94739975273814 100.28338418582655 L 359.6495578560781 100.72166415952233 L 359.2866512117849 101.13852505564861 L 358.86035974758477 101.52591367501357 L 358.3732752807959 101.87592538907174 L 357.8288867590907 102.1809020198676 L 357.2315553670596 102.43352813362218 L 356.5864796754008 102.62692472582953 L 355.899651110601 102.7547392955821 L 355.1778001218054 102.81123133652584 L 354.42833351725096 102.79135231111454 L 353.65926353424067 102.69081922335612 L 352.879129293289 102.50618096260276 L 352.09691136792145 102.23487665662877 L 351.32194027588224 101.87528534568486 L 350.5637997644578 101.42676636975841 L 349.83222582159567 100.8896899481855 L 349.1370023948865 100.26545752326327 L 348.4878548417737 99.55651153676516 L 347.8943421661063 98.76633440937516 L 347.3657491180206 97.89943659710595 L 346.9109792458504 96.96133370479022 L 346.5384499901611 95.95851274375434 L 346.2559909009964 94.89838772780213 L 346.070746040047 93.78924490765549 L 345.98908159979914 92.64017804802064 L 346.01649973201813 91.46101425249083 L 346.1575595284641 90.26223093859738 L 346.41580603791556 89.05486465755071 L 346.7937081358808 87.85041253967934 L 347.2926059873601 86.66072722643497 L 347.9126687593385 85.49790622229695 L 348.6528631490529 84.3741766642533 L 349.51093319727204 83.30177656210302 L 350.48339175370603 82.29283360903396 L 351.5655238551205 81.35924269828465 L 352.7514021667165 80.51254330778218 L 354.03391452483646 79.76379793014317 L 355.40480350508165 79.12347273009797 L 356.854717825513 78.60132160512264 L 358.3732752807959 78.20627480780215 L 359.9491367909951 77.9463332602686 L 361.57009103925736 77.8284696521244 L 363.22314906686825 77.85853736383598 L 364.89464809312796 78.04118819802663 L 366.57036373211935 78.37979983186226 L 368.23562968965825 78.87641382535386 L 369.87546394239064 79.53168493352601 L 371.47470032792774 80.34484237573119 L 373.01812441083626 81.31366361371398 L 374.49061243488427 82.43446108219888 L 375.8772721277605 83.70208220271073 L 377.1635840910364 85.10992289400578 L 378.3355424858259 86.64995467191245 L 379.379793713718 88.31276530860637 L 380.28377179332864 90.08761289745627 L 381.0358291453333 91.96249304567748 L 381.62536152311384 93.92421879422442 L 382.0429258620655 95.95851274375434 L 382.28034986796786 98.05011074820061 L 382.33083222330686 100.18287642457841 L 382.18903235963586 102.33992562016529 L 381.8511488234736 104.50375987715502 L 381.3149853522483 106.65640784124425 L 380.5800038747165 108.77957347527536 L 379.6473637563375 110.85478986286888 L 378.5199467234064 112.86357732069865 L 377.2023670194192 114.78760448237762 L 375.7009664721638 116.6088509724301 L 374.02379427935927 118.30977025603221 L 372.18057145320313 119.87345122951501 L 370.18263999880423 121.28377710834464 L 368.0428970370125 122.52558017362645 L 365.7757142174326 123.58479095520869 L 363.39684290123535 124.4485804591728 L 360.92330572457286 125.10549408975854 L 358.3732752807959 125.54557597034132 L 355.76594078210263 125.76048243461256 L 353.1213636776092 125.74358353714638 L 350.4603233140463 125.49005152151588 L 347.8041538263267 124.99693528338202 L 345.1745735371395 124.26321997476704 L 342.5935082266162 123.28987101319511 L 340.08290970416164 122.07986188460923 L 337.6645711740391 120.63818526095223 L 335.3599409335896 118.9718470909606 L 333.1899359775328 117.08984346493477 L 331.17475710320474 115.00312019983753 L 329.3337071195151 112.72451523882029 L 327.6850137566453 110.26868410792915 L 326.2456588539738 107.65200882103947 L 325.03121537041994 104.89249077072968 L 324.0556937144964 102.00962828655642 L 323.33139883110545 99.02427968177831 L 322.8687994088915 95.95851274375435 L 322.6764104862514 92.83544175081406 L 322.7606906365228 89.67905321820504 L 323.1259548041128 86.51402168666608 L 323.77430374421823 83.36551696821653 L 324.7055708902229 80.25900435393152 L 325.917287335835 77.2200393669159 L 327.40466547462773 74.2740587096003 L 329.16060168901066 71.44616910718511 L 331.1756983250067 68.76093578796511 L 333.438305029803 66.24217236590384 L 335.93457936719295 63.91273390084994 L 338.64856646307123 61.79431490695339 L 341.5622972704546 59.90725406004344 L 344.6559048824422 58.27034731998226 L 347.9077581634819 56.90067113445683 L 351.2946118156312 55.81341732657377 L 354.7917718485249 55.02174119037767 L 358.3732752807959 54.53662422653257 L 362.0120827679832 54.36675284552364 L 365.6802827287078 54.518414248600195 L 369.3493054282227 54.99541056814962 L 372.99014537740226 55.7989922102267 L 376.57359031678516 56.92781119362104 L 380.070454980293 58.377895123273284 L 383.4518177724698 60.14264227227293 L 386.68925844717756 62.21283807738171 L 389.75509484516806 64.57669317938218 L 392.62261673323377 67.21990296294902 L 395.26631478901356 70.1257283726316 L 397.66210279311696 73.275097603371 L 399.7875311240671 76.64672808724659 L 401.6219897015179 80.21726802433197 L 403.146898589015 83.96145653610174 L 404.3458845488575 87.85230135622703 L 405.2049419378588 91.8612728172364 L 405.7125764433351 95.95851274375431 L 405.8599302827128 100.11305672518866 L 405.64088762683105 104.29306811402894 L 405.0521591553222 108.46608198151978 L 404.09334481127354 112.59925716142929 L 402.7669739904895 116.65963442591017 L 401.0785225767971 120.61439876591011 L 399.0364064175906 124.43114369294791 L 396.65195102175585 128.07813543994857 L 393.9393374537511 131.5245749167094 L 390.9155245914137 134.74085527077958 L 387.60014810943835 137.69881291728532 L 384.01539674383804 140.37196993159552 L 380.1858665834701 142.73576574658583 L 376.1383943212868 144.76777616142638 L 371.9018705787872 146.447917750895 L 367.5070345906858 147.75863586269702 L 362.98625170156095 148.6850745045035 L 358.373275280796 149.2152265516109 L 353.70299480511454 149.34006284935754 L 349.01117198815876 149.0536389406706" fill="none" stroke="#9d4edd" stroke-width="1" opacity="0.3" class="drift" />
<circle cx="657.891542808672" cy="136.1269467864893" r="1.736943546428074" fill="white" opacity="0.5660452990940825"  style="animation-delay: 1.569108929409403s" />
<circle cx="380.90435322707424" cy="188.81232366952904" r="0.9254741227363902" fill="white" opacity="0.7039501260010945"  style="animation-delay: 4.730556157400524s" />
<circle cx="16.44489528535633" cy="106.43936388988391" r="1.1056100573520284" fill="white" opacity="0.555130897847826" class="shimmer" style="animation-delay: 3.4652328311137137s" />
<circle cx="109.01299162320726" cy="61.54186402542283" r="1.8314769075481632" fill="white" opacity="0.594606361713589" class="shimmer" style="animation-delay: 4.050240359817645s" />
<circle cx="202.4892901101941" cy="190.53307738686897" r="0.5053071443477322" fill="white" opacity="0.6385343619477928"  style="animation-delay: 0.10016745163910379s" />
<circle cx="607.5613417192635" cy="188.42037230731862" r="1.6433700810134164" fill="white" opacity="0.6751298468047411"  style="animation-delay: 4.202004903361032s" />
<circle cx="153.23363775013252" cy="183.06956407329486" r="1.7385425625156168" fill="white" opacity="0.637760566741113"  style="animation-delay: 1.5650412423713755s" />
<circle cx="468.2742510322306" cy="59.75517123178218" r="0.9736158019698358" fill="white" opacity="0.5843822420476656"  style="animation-delay: 2.5335631433287045s" />
<circle cx="547.4660631691501" cy="102.31517967229769" r="1.2832625492618244" fill="white" opacity="0.7755512445455683"  style="animation-delay: 2.015640773999058s" />
<circle cx="763.4161328787646" cy="150.77933583957278" r="1.186057613440694" fill="white" opacity="0.5322952557631124"  style="animation-delay: 2.743406500417651s" />
<circle cx="705.4000955585858" cy="184.39632670880889" r="1.7279140102972947" fill="white" opacity="0.3065066138895031"  style="animation-delay: 0.8288575109053542s" />
<circle cx="172.74256884677078" cy="176.90479748678896" r="1.906379666085689" fill="white" opacity="0.7256155850358703" class="shimmer" style="animation-delay: 2.374342726405889s" />
<circle cx="593.5236087411854" cy="5.960220458248289" r="1.0773449266108823" fill="white" opacity="0.5687971332501043"  style="animation-delay: 2.969493516866595s" />
<circle cx="95.67709529609942" cy="128.85074936564786" r="0.5448586478661233" fill="white" opacity="0.7676222784134723"  style="animation-delay: 0.7729916847794482s" />
<circle cx="230.16266873077706" cy="169.53703679209698" r="0.6247212034169998" fill="white" opacity="0.6064545044549579" class="shimmer" style="animation-delay: 3.720299455847873s" />
<circle cx="540.9356651890287" cy="107.47057450215918" r="1.4636223024386217" fill="white" opacity="0.4173541339492621"  style="animation-delay: 2.9494253270559003s" />
<circle cx="24.467818723227097" cy="25.915520078486722" r="0.8548543041843445" fill="white" opacity="0.37207755147765226" class="shimmer" style="animation-delay: 0.7544933176708946s" />
<circle cx="232.26206603719407" cy="119.39406284386452" r="0.8920696790380932" fill="white" opacity="0.47779998251681693"  style="animation-delay: 2.6727291851207378s" />
<circle cx="511.9734227829367" cy="161.90860012903053" r="0.8678662754606753" fill="white" opacity="0.4425334010871131" class="shimmer" style="animation-delay: 3.275687809207718s" />
<circle cx="388.28969711611074" cy="71.16788634432342" r="1.8728323223125045" fill="white" opacity="0.7674992382178834"  style="animation-delay: 4.489636826471354s" />
<circle cx="405.4449600117909" cy="114.05343912689672" r="1.951451642411156" fill="white" opacity="0.7284344431913212"  style="animation-delay: 0.4018758676202383s" />
<circle cx="251.19281994614707" cy="25.27950747515351" r="0.6707289384904188" fill="white" opacity="0.7922484866360242" class="shimmer" style="animation-delay: 0.661799356695062s" />
<circle cx="537.5828213568547" cy="150.6824326917105" r="0.8885972228912046" fill="white" opacity="0.3888666728502442"  style="animation-delay: 3.805429854221299s" />
<circle cx="387.46743959534217" cy="189.9019310456858" r="0.8381052659952946" fill="white" opacity="0.3677671052600739"  style="animation-delay: 2.2926676645906676s" />
<circle cx="254.14610151733186" cy="62.393222369705285" r="1.909364032111579" fill="white" opacity="0.6633592499879395" class="shimmer" style="animation-delay: 4.515123685716742s" />
<circle cx="394.5714128756478" cy="165.17010424480446" r="0.6211361988828052" fill="white" opacity="0.6140098577055759"  style="animation-delay: 4.9963014528184s" />
<circle cx="629.0251337980478" cy="54.88079644035935" r="0.6373258103380051" fill="white" opacity="0.6658360994881851" class="shimmer" style="animation-delay: 3.4309935435362924s" />
<circle cx="466.89171847487023" cy="52.13504959499922" r="0.513323039004209" fill="white" opacity="0.7080459309249727"  style="animation-delay: 0.6991246927225092s" />
<circle cx="427.1899683690842" cy="143.0127647206268" r="1.001690640673103" fill="white" opacity="0.48802731023625606" class="shimmer" style="animation-delay: 0.8849481980011842s" />
<circle cx="105.56539774097828" cy="100.74027892926392" r="1.1846266690778593" fill="white" opacity="0.6328380152837398"  style="animation-delay: 1.221331387912531s" />
<circle cx="148.00631841265837" cy="101.90288012202112" r="0.7211584913285309" fill="white" opacity="0.7253457864062496" class="shimmer" style="animation-delay: 3.575622850836605s" />
<circle cx="158.58148202861938" cy="157.6610874743801" r="1.8445316762871211" fill="white" opacity="0.7457875290167242"  style="animation-delay: 2.585695858607986s" />
<circle cx="411.9703186818869" cy="112.34556515511076" r="1.8381919696572222" fill="white" opacity="0.3426777546539948"  style="animation-delay: 4.056961991192294s" />
<circle cx="633.6063447173242" cy="3.5575868545992595" r="1.7708808937997258" fill="white" opacity="0.6996824280957414"  style="animation-delay: 3.721429731460172s" />
<circle cx="164.20519598925392" cy="130.63104573788817" r="1.3240608194239245" fill="white" opacity="0.5503979978615745"  style="animation-delay: 4.083396248738891s" />
<circle cx="459.5792540194315" cy="18.625839598164085" r="1.677754635302234" fill="white" opacity="0.4018886840022195"  style="animation-delay: 4.461261837177755s" />
<circle cx="536.5654453453242" cy="102.94274800606628" r="0.746351064987125" fill="white" opacity="0.5017188190810409"  style="animation-delay: 2.5916544261652263s" />
<circle cx="698.8869891767931" cy="117.7196217453334" r="1.392999795331209" fill="white" opacity="0.39286109785564"  style="animation-delay: 4.6119569384074985s" />
<circle cx="41.37561864876371" cy="56.353704001642456" r="0.608881296267295" fill="white" opacity="0.7989891350751295"  style="animation-delay: 4.6530368845364825s" />
<circle cx="234.5332482061611" cy="169.13124297716453" r="0.9674347988662341" fill="white" opacity="0.30483843849486664" class="shimmer" style="animation-delay: 4.523445477884476s" />
<circle cx="787.5596142942167" cy="97.14683068606477" r="1.0583385295834056" fill="#c77dff" opacity="0.8" filter="url(#glow)" class="shimmer" style="animation-delay: 2.9164035014494916s" />
<circle cx="514.222108030606" cy="59.01279790569198" r="2.8845115624892927" fill="#4a0080" opacity="0.8" filter="url(#glow)" class="shimmer" style="animation-delay: 0.08698831804240448s" />
<circle cx="29.055029151674283" cy="167.47941602947282" r="2.054041469444835" fill="#7b2cbf" opacity="0.8" filter="url(#glow)" class="shimmer" style="animation-delay: 0.43672191822785056s" />
<circle cx="648.7621990878037" cy="70.68106389142011" r="2.228136309253457" fill="#e0aaff" opacity="0.8" filter="url(#glow)" class="shimmer" style="animation-delay: 1.7188696815149034s" />
<circle cx="23.258533678220594" cy="199.69030416354917" r="2.3462704017046145" fill="#7b2cbf" opacity="0.8" filter="url(#glow)" class="shimmer" style="animation-delay: 1.2522212898776748s" />
<circle cx="130.62277103068905" cy="52.913141313585086" r="1.5352216204195694" fill="#9d4edd" opacity="0.8" filter="url(#glow)" class="shimmer" style="animation-delay: 2.261822081628567s" />
<circle cx="387.4385657976802" cy="58.46218915395549" r="1.2071237970849973" fill="#9d4edd" opacity="0.8" filter="url(#glow)" class="shimmer" style="animation-delay: 1.8065514219772179s" />
<circle cx="472.26328060214496" cy="186.56437136017755" r="2.964176061303146" fill="#7b2cbf" opacity="0.8" filter="url(#glow)" class="shimmer" style="animation-delay: 1.6964675945426229s" />
<line x1="612.1468990720163" y1="161.81238260259698" x2="682.2627068316713" y2="56.09983342355058" stroke="#e0aaff" stroke-width="0.5" opacity="0.3" />
<line x1="682.2627068316713" y1="56.09983342355058" x2="180.58600811337567" y2="126.43532947893253" stroke="#e0aaff" stroke-width="0.5" opacity="0.3" />

  
    <text x="400" y="120" text-anchor="middle" class="name-text" fill="url(#textGrad)" filter="url(#textGlow)">
      JOEL HOOKS
    </text>
  
</svg>
