<svg xmlns="http://www.w3.org/2000/svg" viewBox="0 0 800 200" width="800" height="200">
  <rect width="800" height="200" fill="#05010d"/>
  
    <defs>
      <linearGradient id="grad1" x1="0%" y1="0%" x2="100%" y2="100%">
        <stop offset="0%" style="stop-color:#4a0080;stop-opacity:0.8" />
        <stop offset="100%" style="stop-color:#7b2cbf;stop-opacity:0.8" />
      </linearGradient>
      <linearGradient id="grad2" x1="100%" y1="0%" x2="0%" y2="100%">
        <stop offset="0%" style="stop-color:#9d4edd;stop-opacity:0.7" />
        <stop offset="100%" style="stop-color:#c77dff;stop-opacity:0.7" />
      </linearGradient>
      <linearGradient id="textGrad" x1="0%" y1="0%" x2="100%" y2="0%">
        <stop offset="0%" style="stop-color:#4a0080" />
        <stop offset="25%" style="stop-color:#7b2cbf" />
        <stop offset="50%" style="stop-color:#9d4edd" />
        <stop offset="75%" style="stop-color:#c77dff" />
        <stop offset="100%" style="stop-color:#e0aaff" />
      </linearGradient>
      <filter id="glow">
        <feGaussianBlur stdDeviation="5" result="coloredBlur"/>
        <feMerge>
          <feMergeNode in="coloredBlur"/>
          <feMergeNode in="SourceGraphic"/>
        </feMerge>
      </filter>
      <filter id="textGlow">
        <feGaussianBlur stdDeviation="2" result="coloredBlur"/>
        <feMerge>
          <feMergeNode in="coloredBlur"/>
          <feMergeNode in="SourceGraphic"/>
        </feMerge>
      </filter>
    </defs>
  
  
    <style>
      @keyframes float {
        0%, 100% { transform: translateY(0px); }
        50% { transform: translateY(-8px); }
      }
      @keyframes pulse {
        0%, 100% { opacity: 0.4; }
        50% { opacity: 0.9; }
      }
      @keyframes drift {
        0% { transform: translateX(0px); }
        50% { transform: translateX(10px); }
        100% { transform: translateX(0px); }
      }
      @keyframes shimmer {
        0% { opacity: 0.3; }
        50% { opacity: 1; }
        100% { opacity: 0.3; }
      }
      @keyframes glitch {
        0%, 100% { transform: translateX(0); }
        20% { transform: translateX(-2px); }
        40% { transform: translateX(2px); }
        60% { transform: translateX(-1px); }
        80% { transform: translateX(1px); }
      }
      @keyframes dataStream {
        0% { stroke-dashoffset: 0; }
        100% { stroke-dashoffset: -20; }
      }
      .float { animation: float 8s ease-in-out infinite; }
      .pulse { animation: pulse 8s ease-in-out infinite; }
      .drift { animation: drift 8s ease-in-out infinite; }
      .shimmer { animation: shimmer 3s ease-in-out infinite; }
      .glitch { animation: glitch 0.5s ease-in-out infinite; }
      .dataStream { animation: dataStream 2s linear infinite; }
      .name-text { 
        font-family: -apple-system, BlinkMacSystemFont, 'Segoe UI', Helvetica, Arial, sans-serif;
        font-weight: 700;
        font-size: 64px;
        letter-spacing: -2px;
      }
    </style>
  
  <path d="M 705.186237442531 19.840578231271966 C 698.4057212917918 41.280547281132996, 685.0640287656925 51.7156206489114, 673.0307040421104 67.09189957702444 C 660.9973793185284 82.46817850513747, 651.1277509390271 104.80739293761087, 632.9862891010387 112.09825179995018 C 614.8448272630502 119.38911066228948, 586.7752284496378 118.97685997725871, 564.1819330141798 110.83705275106027 C 541.5886375787218 102.69724552486183, 506.63445126264315 84.9638759763236, 497.4265164882903 63.25940844275951 C 488.21858171393745 41.55494090919541, 498.42627348477953 4.082949170400049, 508.93432436806273 -19.389752450324334 C 519.4423752513459 -42.86245407104872, 538.4577807457196 -61.1296749286017, 560.4748217879894 -77.5768012815868 C 582.4918628302593 -94.02392763457189, 615.4967407619225 -120.74399166147576, 641.0365706216819 -118.07251056823492 C 666.5764004814413 -115.40102947499408, 703.0221898097375 -84.53342952205954, 713.7138009465457 -61.547914722141726 C 724.4054120833539 -38.56239992222392, 711.9667535932703 -1.5993908185890646, 705.186237442531 19.840578231271966 Z" fill="#4a0080" opacity="0.2335720651971639" filter="url(#glow)" class="float" />
<path d="M 894.3642178690814 198.9895791725903 C 892.9888261151933 210.03468306329006, 848.5961818427505 220.90183969407684, 834.3534799330855 229.127049039087 C 820.1107780234205 237.35225838409718, 818.140999643722 246.22491078687122, 808.9080064110913 248.34083524265125 C 799.6750131784605 250.45675969843128, 789.0960169004878 244.62201179042762, 778.9555205373013 241.82259577376726 C 768.8150241741147 239.0231797571069, 751.1755285405794 238.68317524288526, 748.0650282319721 231.5443391426891 C 744.9545279233647 224.40550304249294, 765.6100477086479 213.70457680839547, 760.2925186856571 198.9895791725903 C 754.9749896626663 184.27458153678515, 712.6172763947973 149.06339195614834, 716.1598540940275 143.2543533278581 C 719.7024317932578 137.44531469956786, 763.2639672675458 171.76886219459894, 781.5479848810389 164.1353474028489 C 799.832002494532 156.50183261109888, 815.6876521790906 97.66641819535133, 825.8639597749864 97.45326457735793 C 836.0402673708821 97.24011095936453, 831.1891207740643 145.9337065956831, 842.6058304564135 162.85642569488851 C 854.0225401387627 179.77914479409392, 895.7396096229694 187.94447528189056, 894.3642178690814 198.9895791725903 Z" fill="#4a0080" opacity="0.15425617507427275" filter="url(#glow)" class="float" />
<path d="M 780.388764400593 147.83108772721113 C 790.2994439715469 162.2418927407107, 786.3816446332163 200.76780776079647, 773.3328434217642 210.1711238201243 C 760.2840422103121 219.57443987945214, 720.4941230659867 199.12403731933136, 702.0959571318807 204.25098408317817 C 683.6977911977747 209.37793084702497, 678.5234284872122 237.3122706350223, 662.9438478171282 240.93280440320518 C 647.3642671470443 244.55333817138808, 617.7290641499808 238.16094757738225, 608.6184731113769 225.97418669227557 C 599.5078820727731 213.7874258071689, 607.0581710483975 183.79088155758535, 608.2803015855055 167.81223909256508 C 609.5024321226135 151.8335966275448, 612.3424110520355 142.35658927461395, 615.9512563340248 130.10233190215385 C 619.5601016160142 117.84807452969373, 621.2704987699818 101.07068150863111, 629.9333732774414 94.2866948578044 C 638.596247784901 87.5027082069777, 653.2840739460681 95.60882049896242, 667.9285033787826 89.39841199719358 C 682.572932811497 83.18800349542474, 710.1432394375184 51.30626355686913, 717.7999498737281 57.02424384719133 C 725.4566603099378 62.742224137513524, 703.4372969082298 108.57181975912346, 713.8687659960406 123.70629373912675 C 724.3002350838514 138.84076771913004, 770.4780848296391 133.42028271371154, 780.388764400593 147.83108772721113 Z" fill="#4a0080" opacity="0.13900399230213326" filter="url(#glow)" class="float" />
<path d="M 508.14496480022035 86.30463320881762 C 503.90069187013444 105.64569460528315, 469.10459049551514 125.76176793080879, 452.23844255474637 131.5949986079564 C 435.3722946139776 137.428229285104, 419.46259650740865 123.88628638628182, 406.9480771556076 121.30401727170329 C 394.4335578038066 118.72174815712475, 392.6750089539204 121.93461459763279, 377.1513264439401 116.10138392048518 C 361.6276439339598 110.26815324333757, 320.92104242337075 103.35194377368511, 313.80598209572577 86.30463320881763 C 306.6909217680808 69.25732264395016, 318.93728196809 25.398791893638112, 334.4609644780703 13.817520531280323 C 349.9846469880506 2.2362491689225337, 383.0742245460757 16.528486751690416, 406.9480771556076 16.8170050346709 C 430.82192976513954 17.105523317651382, 460.8379321944932 3.9673588668054354, 477.70408013526196 15.548630229163223 C 494.57022807603073 27.129901591521012, 512.3892377303063 66.96357181235209, 508.14496480022035 86.30463320881762 Z" fill="#7b2cbf" opacity="0.2180189516284553" filter="url(#glow)" class="float" />
<path d="M 627.8829872592413 112.57159247175827 L 627.8829872592413 112.57159247175827 L 628.1950540832919 112.59889478112524 L 628.4999867842772 112.6803861351064 L 628.7907417537872 112.81482455549754 L 629.0604554481976 113.00015584433366 L 629.3025320191896 113.23353706441594 L 629.5107280883615 113.51136907762177 L 629.6792337576001 113.82933781039189 L 629.8027489837611 114.18246382675115 L 629.876554491661 114.56515970417794 L 629.8965764529823 114.97129462740808 L 629.8594442199512 115.3942655406078 L 629.7625404709682 115.82707412999869 L 629.6040432001513 116.26240884762376 L 629.3829590632552 116.692731133105 L 629.0991476779377 117.11036494448744 L 628.7533365660264 117.50758867204559 L 628.3471265184797 117.87672848061888 L 627.8829872592413 118.21025210693927 L 627.3642433812689 118.50086212872013 L 626.7950506257599 118.74158772211742 L 626.1803626730664 118.92587393357913 L 625.5258887100766 119.04766751101742 L 624.838042133016 119.1014983675203 L 624.1238808357873 119.08255578823912 L 623.3910396212641 118.9867585373254 L 622.6476553555144 118.81081807644782 L 621.9022855619822 118.55229416901729 L 621.1638212234218 118.20964221423333 L 620.4413946231834 117.78225173181185 L 619.7442831136402 117.27047550107577 L 619.081809747562 116.67564894623587 L 618.4632417475916 116.00009945236141 L 617.8976878192371 115.24714539289033 L 617.3939953336308 114.42108474867665 L 616.9606484174694 113.52717329960218 L 616.6056679888793 112.57159247175827 L 616.3365147693681 111.56140702518042 L 616.1599962835589 110.5045128681436 L 616.0821788301454 109.40957538314764 L 616.1083053696792 108.28595874600434 L 616.2427202276655 107.14364681196531 L 616.4888014553998 105.99315623071377 L 616.8489016264658 104.84544253443744 L 617.3242977743821 103.71180001929746 L 617.9151510971429 102.6037563096599 L 618.6204769680322 101.53296255576907 L 619.4381256998441 100.51108026849207 L 620.3647744123333 99.54966583879657 L 621.3959302511961 98.66005382426522 L 622.5259451020489 97.85324010980564 L 623.7480418356736 97.13976606447905 L 625.0543520121897 96.52960482082449 L 626.4359648627919 96.03205079707516 L 627.8829872592413 95.65561356621528 L 629.3846142744246 95.40791714897391 L 630.9292098329892 95.29560577075264 L 632.5043968502877 95.32425707538738 L 634.0971561615845 95.49830373189322 L 635.6939334526019 95.82096430436869 L 637.2807533178762 96.29418418055614 L 638.8433394959058 96.91858727177447 L 640.3672402604361 97.69343910672934 L 641.837957886179 98.61662184482054 L 643.2410810554002 99.68462163181526 L 644.5624190297158 100.89252861301746 L 645.7881363795636 102.23404980725977 L 646.9048870425481 103.70153493014537 L 647.8999464714968 105.28601513797659 L 648.7613406337955 106.97725454575485 L 649.4779706354983 108.76381425457335 L 650.0397317668356 110.63312850670347 L 650.4376257999653 112.57159247175827 L 650.6638654149369 114.564661055547 L 650.7119696855701 116.59695801563943 L 650.5768496228873 118.65239456524023 L 650.2548828494093 120.71429655069073 L 649.7439765624447 122.7655391986865 L 649.0436180378041 124.78868834798374 L 648.1549120264334 126.7661470077663 L 647.0806045044399 128.680306021687 L 645.8250923510184 130.5136975635353 L 644.3944186479183 132.2491501480868 L 642.7962534173257 133.8699438094411 L 641.0398597413302 135.35996407944123 L 639.1360453344219 136.70385339087886 L 637.0970997696122 137.88715853431677 L 634.9367176876804 138.89647281358754 L 632.6699084465595 139.71957157333853 L 630.3128927929016 140.34553981226387 L 627.8829872592413 140.76489064766324 L 625.3984771068472 140.9696734603651 L 622.8784787452269 140.95357062341034 L 620.3427926633236 140.7119818026792 L 617.8117480037196 140.2420949122292 L 615.3060399987454 139.5429429107754 L 612.8465615654253 138.61544573768168 L 610.4542304238897 137.46243680615873 L 608.1498131605787 136.0886735971266 L 605.9537477026249 134.50083202837465 L 603.8859657027431 132.7074844091692 L 601.9657163543501 130.7190609291863 L 600.2113931641977 128.54779477143774 L 598.6403652043069 126.20765108050642 L 597.2688143463798 123.71424015871847 L 596.1115799501371 121.08471540263302 L 595.1820124323378 118.33765662920968 L 594.4918370858245 115.49293957402394 L 594.0510294481553 112.57159247175828 L 593.8677034377232 109.59564075075868 L 593.948013382266 106.5879409876106 L 594.2960709610454 103.5720053734049 L 594.9138779684674 100.5718180396473 L 595.8012756844104 97.61164467769478 L 596.9559115059573 94.71583696035175 L 598.3732233576325 91.90863333706304 L 600.0464422537033 89.21395782436163 L 601.9666132377856 86.6552184503025 L 604.1226347730965 84.25510703509032 L 606.5013165024696 82.03540199965876 L 609.0874551419713 80.01677588935402 L 611.8639281169255 78.21860928101012 L 614.8118043956919 76.65881270859387 L 617.9104718259308 75.35365819537897 L 621.1377801316567 74.31762191953155 L 624.4701985883702 73.56323946543019 L 627.8829872592413 73.1009750254913 L 631.3503805488464 72.93910581732894 L 634.8457817135222 73.0836228694597 L 638.3419668600303 73.53814920628729 L 641.8112968679416 74.30387633068143 L 645.2259355868724 75.37951976111357 L 648.5580725882382 76.76129423111357 L 651.7801486932802 78.44290900294115 L 654.8650824553719 80.41558358605057 L 657.7864957455364 82.66808398546317 L 660.5189365760789 85.18677943687942 L 663.0380972985491 87.95571941564299 L 665.3210263290061 90.95673053689778 L 667.3463315858032 94.16953279587483 L 669.0943738727086 97.57187443161945 L 670.5474485028956 101.13968453601214 L 671.6899535367912 104.84724237404032 L 672.5085430984807 108.66736223228179 L 672.9922643406893 112.57159247175824 L 673.1326767465819 116.53042732996872 L 672.923952586863 120.51352989617251 L 672.3629574919873 124.4899645749829 L 671.4493102506211 128.42843725704776" fill="none" stroke="#4a0080" stroke-width="1" opacity="0.3" class="drift" />
<path d="M 416.4818367969927 117.36517194674232 L 416.4818367969927 117.36517194674232 L 416.9838598265088 117.40909327065393 L 417.47440616642456 117.54018870679795 L 417.9421447383932 117.75646028034134 L 418.3760341349409 118.05460339558174 L 418.7654635910005 118.43004460915613 L 419.10038936113654 118.87699397453794 L 419.3714650412225 119.38851142597571 L 419.57016443266656 119.95658652679087 L 419.68889562039715 120.57223077014676 L 419.7211050220534 121.22558149133465 L 419.66137026435945 121.906016330532 L 419.50548085258396 122.60227707502997 L 419.2505057192686 123.30260161116273 L 418.89484686793065 123.99486262956094 L 418.4382784649878 124.66671165374483 L 417.88197087743765 125.30572690219708 L 417.2284993034899 125.89956344851608 L 416.4818367969927 126.43610411351605 L 415.6473316426723 126.90360950754828 L 414.7316691964365 127.29086564106076 L 413.7428184617996 127.58732753654583 L 412.68996382837594 127.7832573054573 L 411.5834225498892 127.86985519917843 L 410.4345486858102 127.83938220331761 L 409.2556243711592 127.68527281899159 L 408.0597394118349 127.40223676268239 L 406.86066032677934 126.98634841695565 L 405.6726900721342 126.43512297691223 L 404.51051978518353 125.74757836070923 L 403.38907397627355 124.92428208572042 L 402.323350674144 123.96738245370793 L 401.32825809340727 122.88062353745765 L 400.4184494415872 121.66934361633153 L 399.6081575166514 120.34045686768789 L 398.9110307639291 118.9024182836483 L 398.33997246344524 117.36517194674232 L 397.9069847048969 115.74008296201315 L 397.62301877778765 114.0398535056855 L 397.49783355878617 112.27842360995508 L 397.5398634175109 110.47085745834818 L 397.7560970861283 108.63321611494911 L 398.1519688479859 106.78241775217298 L 398.73126329672397 104.93608657430865 L 399.49603480078645 103.11239175647533 L 400.4465426799705 101.32987782972012 L 401.5812029617136 99.60728804161758 L 402.8965574364256 97.9633823069137 L 404.3872605746277 96.41675143359174 L 406.04608470533736 94.9856293654654 L 407.86394368649997 93.6877052223901 L 409.82993512580936 92.53993694293382 L 411.9314010355465 91.55836834151438 L 414.15400662967795 90.75795138238885 L 416.4818367969927 90.15237544642113 L 418.89750961213065 89.75390532335665 L 421.3823060785501 89.57322960265068 L 423.9163151353741 89.61932106013282 L 426.4785928051642 89.89931054649372 L 429.04733421347566 90.4183757774497 L 431.6000570749489 91.17964630530409 L 434.11379511602655 92.1841258184541 L 436.56529979236893 93.43063277026984 L 438.9312485608238 94.91576018291121 L 441.18845788238366 96.63385530635395 L 443.3140990648408 98.5770196395751 L 445.28591500257477 100.73512964099048 L 447.08243583669787 103.09587827039728 L 448.68319154211173 105.64483731647226 L 450.0689194492042 108.36554027396488 L 451.2217647271072 111.23958534479551 L 452.125471892636 114.24675794901876 L 452.7655654640876 117.36517194674231 L 453.1295179516682 120.5714285922891 L 453.2069034659709 123.84079206880031 L 452.9895353320052 127.14738028671778 L 452.4715862180081 130.4643694746912 L 451.6496894247136 133.76421094791496 L 450.5230201308624 137.01885830808536 L 449.0933555533004 140.20000321237632 L 447.3651131537314 143.27931774722776 L 445.3453662076327 146.22870135738228 L 443.0438362424903 149.02053021239948 L 440.47286205076006 151.6279068426099 L 437.64734518613136 154.02490784475586 L 434.5846720580275 156.18682744487577 L 431.30461294704014 158.09041471262813 L 427.82919847136424 159.71410224735683 L 424.18257423944004 161.03822420174345 L 420.3908346251251 162.0452215736755 L 416.4818367969927 162.71983278061094 L 412.48499632103716 163.0492676327077 L 408.4310658344341 163.02336294060714 L 404.3518984554231 162.63471813015784 L 400.28019774926645 161.87880938852453 L 396.2492562111304 160.7540810328915 L 392.29268435226277 159.2620129730435 L 388.4441325847586 157.4071633310695 L 384.73700819139805 155.19718548374726 L 381.20418973954384 152.64281900419118 L 377.8777413510694 149.7578541973492 L 374.7886292731057 146.55907014710988 L 371.9664432065477 143.06614641926788 L 369.43912484043096 139.30154879246678 L 367.23270601034005 135.29038961656713 L 365.3710588479752 131.060263622708 L 363.87566021710495 126.6410602296903 L 362.7653726387697 122.06475360528347 L 362.0562437963503 117.36517194674234 L 361.76132657973744 112.57774764037802 L 361.8905214782413 107.73925014368315 L 362.4504429651742 102.88750360357855 L 363.4443113344437 98.06109137923873 L 364.87187125241525 93.2990497761903 L 366.72933807826007 88.64055341862547 L 369.009372784646 84.12459478790811 L 371.70108607972156 79.78966053603847 L 374.790072092735 75.67340724248456 L 378.2584717412767 71.81233932055275 L 382.085065650025 68.24149179483587 L 386.2453962410803 64.99412066386586 L 390.7119183665785 62.10140353175234 L 395.45417760739053 59.592153139322875 L 400.4390151194329 57.49254634932183 L 405.6307976735441 55.82587104196801 L 410.9916713080428 54.61229325722943 L 416.4818367969927 53.868646779326234 L 422.05984493376576 53.60824719819722" fill="none" stroke="#e0aaff" stroke-width="1" opacity="0.3" class="drift" />
<circle cx="169.3020720924258" cy="102.81537258509337" r="1.3184552030394183" fill="white" opacity="0.46424896917980346"  style="animation-delay: 0.8202390683330818s" />
<circle cx="473.30578959437395" cy="117.83955473212227" r="1.4107620605336377" fill="white" opacity="0.7936048504924054"  style="animation-delay: 2.888399498898556s" />
<circle cx="533.8586589533751" cy="70.92336155449392" r="1.5303908659468837" fill="white" opacity="0.4100183742363676"  style="animation-delay: 1.5923243599644876s" />
<circle cx="68.5852513183475" cy="40.31809493286267" r="1.6134979001086487" fill="white" opacity="0.582374357891954" class="shimmer" style="animation-delay: 2.0254965170355907s" />
<circle cx="654.7008658390635" cy="123.24350289626933" r="1.8693323698453879" fill="white" opacity="0.3324960497851795" class="shimmer" style="animation-delay: 4.4556642754619755s" />
<circle cx="729.5096508970252" cy="28.244308518777352" r="0.7789490018987703" fill="white" opacity="0.35425745211749465" class="shimmer" style="animation-delay: 4.277617956835035s" />
<circle cx="606.2339787297431" cy="9.491994125510583" r="1.5996828906646687" fill="white" opacity="0.6157108319014992" class="shimmer" style="animation-delay: 2.412565392829702s" />
<circle cx="70.4439925663511" cy="3.4592965044849766" r="1.972258254170952" fill="white" opacity="0.3672840716108318" class="shimmer" style="animation-delay: 3.709909398286376s" />
<circle cx="408.698474349986" cy="132.06442801195365" r="1.7900112810907827" fill="white" opacity="0.5363286390209931"  style="animation-delay: 2.5192807693529295s" />
<circle cx="187.48796061241748" cy="191.90339501977118" r="0.9462673769310109" fill="white" opacity="0.7068681196813118" class="shimmer" style="animation-delay: 4.949435523160384s" />
<circle cx="675.8874853848974" cy="57.89502702922151" r="1.9720156929106256" fill="white" opacity="0.3512521651060389"  style="animation-delay: 3.356281491183589s" />
<circle cx="537.313471027541" cy="127.99259759025094" r="0.7487856389390938" fill="white" opacity="0.3356466401308667"  style="animation-delay: 3.1750690412336002s" />
<circle cx="607.2724768944663" cy="62.66637304405123" r="0.5947081760736803" fill="white" opacity="0.3040142083119935"  style="animation-delay: 0.8289021421123277s" />
<circle cx="245.66215533123187" cy="194.0861370887967" r="0.8967745229171272" fill="white" opacity="0.34285559650462377" class="shimmer" style="animation-delay: 1.4687917054550181s" />
<circle cx="502.6256554144117" cy="29.329080733556047" r="1.7418388733707006" fill="white" opacity="0.4058709138593269" class="shimmer" style="animation-delay: 0.8862774401467988s" />
<circle cx="462.55841825759063" cy="41.388810949230546" r="1.753555320009979" fill="white" opacity="0.6218927059878678"  style="animation-delay: 2.9687554970718466s" />
<circle cx="143.3856074424794" cy="51.39930137990412" r="1.7131003088772645" fill="white" opacity="0.5440804371182952"  style="animation-delay: 4.798175724353103s" />
<circle cx="799.5760405665012" cy="160.50617164193918" r="1.1091708541013148" fill="white" opacity="0.3205317839221105"  style="animation-delay: 2.9046081733508067s" />
<circle cx="301.3896935706448" cy="160.36634980780815" r="1.6288626363610343" fill="white" opacity="0.6422466740632033"  style="animation-delay: 2.1825145541739133s" />
<circle cx="460.9491657535251" cy="12.200950423784995" r="0.828331287083671" fill="white" opacity="0.6243107210659395"  style="animation-delay: 2.452080885728083s" />
<circle cx="397.74095501355066" cy="168.74343950212642" r="0.6442979612193591" fill="white" opacity="0.6817492299631629"  style="animation-delay: 2.8806869736093144s" />
<circle cx="304.51223309002734" cy="175.59919532221903" r="0.7153940164472407" fill="white" opacity="0.6273307441943368"  style="animation-delay: 2.5262208210132577s" />
<circle cx="768.0231880457408" cy="54.989008879485056" r="1.091269881910467" fill="white" opacity="0.6811164829892491"  style="animation-delay: 0.5576938158140465s" />
<circle cx="312.13719707206076" cy="4.711210113762521" r="1.2318997558081857" fill="white" opacity="0.5605428713913096" class="shimmer" style="animation-delay: 2.3297602228289316s" />
<circle cx="516.0128918287096" cy="77.08644131076143" r="0.703416209444403" fill="white" opacity="0.34117853574147833"  style="animation-delay: 2.2342666252828747s" />
<circle cx="475.47683691171284" cy="165.65087421767294" r="1.193032961157561" fill="white" opacity="0.3386542660810051"  style="animation-delay: 0.32982028568837585s" />
<circle cx="454.39048495437913" cy="54.00511665667898" r="1.519212867396246" fill="white" opacity="0.4493305256596534"  style="animation-delay: 4.665378479229307s" />
<circle cx="515.292360749401" cy="107.79013072688421" r="1.245650050951264" fill="white" opacity="0.7539035459230792"  style="animation-delay: 1.704687469766455s" />
<circle cx="292.3422704179078" cy="174.5214184426585" r="1.1686628951763125" fill="white" opacity="0.6202760345525484" class="shimmer" style="animation-delay: 0.9266957162331124s" />
<circle cx="400.56095594323386" cy="40.44758347813011" r="0.9709710279970923" fill="white" opacity="0.5510884427340732" class="shimmer" style="animation-delay: 4.557408505988466s" />
<circle cx="441.04985184175354" cy="104.0815086385229" r="1.5699597735680868" fill="white" opacity="0.5510749879245449" class="shimmer" style="animation-delay: 2.9085855583551092s" />
<circle cx="412.47125551180943" cy="143.79460058129675" r="1.7405887080485674" fill="white" opacity="0.5285370915315919"  style="animation-delay: 2.1816817531804276s" />
<circle cx="398.1484792561954" cy="3.8272876517220666" r="1.9741469920342367" fill="white" opacity="0.3462722860473811" class="shimmer" style="animation-delay: 3.370011123676826s" />
<circle cx="298.3333484462651" cy="183.200242511306" r="0.8975042637005685" fill="white" opacity="0.3678719128378511" class="shimmer" style="animation-delay: 0.5808245475003304s" />
<circle cx="769.6176324911708" cy="67.8340134357383" r="1.504754432430658" fill="white" opacity="0.5444567053390739"  style="animation-delay: 1.05240668199295s" />
<circle cx="36.53643260806696" cy="181.18176103842922" r="1.7105113510645968" fill="white" opacity="0.6728622356194522"  style="animation-delay: 2.9688561463213157s" />
<circle cx="538.8699094161149" cy="159.43524766588956" r="0.7976496201132575" fill="white" opacity="0.47325480183555485"  style="animation-delay: 4.127584608173579s" />
<circle cx="202.99127514667566" cy="53.30452542785093" r="0.5493374555197936" fill="white" opacity="0.7644651155334112"  style="animation-delay: 4.118273434957138s" />
<circle cx="702.2373078886612" cy="176.53231207306916" r="1.9400098839640956" fill="white" opacity="0.40860451655488655"  style="animation-delay: 2.8977096437605434s" />
<circle cx="111.08193408632587" cy="32.23756836552205" r="1.3137606681537937" fill="white" opacity="0.7605820633153668"  style="animation-delay: 0.3993066342086127s" />
<circle cx="558.6713125558529" cy="138.0075475264952" r="1.075156938279942" fill="#e0aaff" opacity="0.8" filter="url(#glow)" class="shimmer" style="animation-delay: 1.2052809216332734s" />
<circle cx="288.06704863420515" cy="37.912465114103796" r="1.6509066519730058" fill="#9d4edd" opacity="0.8" filter="url(#glow)" class="shimmer" style="animation-delay: 1.0145071391097003s" />
<circle cx="602.4157534409616" cy="55.960627083094884" r="1.0568331481291438" fill="#c77dff" opacity="0.8" filter="url(#glow)" class="shimmer" style="animation-delay: 1.0857943152468628s" />
<circle cx="662.1276978726604" cy="0.9134663665877341" r="2.2463670496447126" fill="#9d4edd" opacity="0.8" filter="url(#glow)" class="shimmer" style="animation-delay: 2.6756852071262642s" />
<circle cx="313.53291557712595" cy="60.596818997777916" r="2.677168368746256" fill="#4a0080" opacity="0.8" filter="url(#glow)" class="shimmer" style="animation-delay: 0.10476738558963006s" />
<circle cx="604.2542220050207" cy="37.08791498383874" r="2.8084254352088074" fill="#4a0080" opacity="0.8" filter="url(#glow)" class="shimmer" style="animation-delay: 1.587667214011323s" />
<circle cx="110.70771523553606" cy="71.88119814542016" r="1.767101076778253" fill="#7b2cbf" opacity="0.8" filter="url(#glow)" class="shimmer" style="animation-delay: 1.4834558711482764s" />
<circle cx="229.07938071363213" cy="57.46139272389614" r="1.5667265134712065" fill="#e0aaff" opacity="0.8" filter="url(#glow)" class="shimmer" style="animation-delay: 2.472268373182052s" />
<line x1="165.52424122651792" y1="74.08639260432892" x2="86.45497894752779" y2="164.26882172113253" stroke="#e0aaff" stroke-width="0.5" opacity="0.3" />
<line x1="463.1283170737975" y1="87.94481828653213" x2="242.2663933075808" y2="115.18655760830008" stroke="#e0aaff" stroke-width="0.5" opacity="0.3" />
<line x1="242.2663933075808" y1="115.18655760830008" x2="167.54733044053415" y2="45.930415882591404" stroke="#e0aaff" stroke-width="0.5" opacity="0.3" />

  
    <text x="400" y="120" text-anchor="middle" class="name-text" fill="url(#textGrad)" filter="url(#textGlow)">
      JOEL HOOKS
    </text>
  
</svg>
