<svg xmlns="http://www.w3.org/2000/svg" viewBox="0 0 800 200" width="800" height="200">
  <rect width="800" height="200" fill="#1a0a0a"/>
  
    <defs>
      <linearGradient id="grad1" x1="0%" y1="0%" x2="100%" y2="100%">
        <stop offset="0%" style="stop-color:#ff4500;stop-opacity:0.8" />
        <stop offset="100%" style="stop-color:#ff6b35;stop-opacity:0.8" />
      </linearGradient>
      <linearGradient id="grad2" x1="100%" y1="0%" x2="0%" y2="100%">
        <stop offset="0%" style="stop-color:#f7c59f;stop-opacity:0.7" />
        <stop offset="100%" style="stop-color:#efa48b;stop-opacity:0.7" />
      </linearGradient>
      <linearGradient id="textGrad" x1="0%" y1="0%" x2="100%" y2="0%">
        <stop offset="0%" style="stop-color:#ff4500" />
        <stop offset="25%" style="stop-color:#ff6b35" />
        <stop offset="50%" style="stop-color:#f7c59f" />
        <stop offset="75%" style="stop-color:#efa48b" />
        <stop offset="100%" style="stop-color:#d4a5a5" />
      </linearGradient>
      <filter id="glow">
        <feGaussianBlur stdDeviation="3" result="coloredBlur"/>
        <feMerge>
          <feMergeNode in="coloredBlur"/>
          <feMergeNode in="SourceGraphic"/>
        </feMerge>
      </filter>
      <filter id="textGlow">
        <feGaussianBlur stdDeviation="2" result="coloredBlur"/>
        <feMerge>
          <feMergeNode in="coloredBlur"/>
          <feMergeNode in="SourceGraphic"/>
        </feMerge>
      </filter>
    </defs>
  
  
    <style>
      @keyframes float {
        0%, 100% { transform: translateY(0px); }
        50% { transform: translateY(-8px); }
      }
      @keyframes pulse {
        0%, 100% { opacity: 0.4; }
        50% { opacity: 0.9; }
      }
      @keyframes drift {
        0% { transform: translateX(0px); }
        50% { transform: translateX(10px); }
        100% { transform: translateX(0px); }
      }
      @keyframes shimmer {
        0% { opacity: 0.3; }
        50% { opacity: 1; }
        100% { opacity: 0.3; }
      }
      @keyframes glitch {
        0%, 100% { transform: translateX(0); }
        20% { transform: translateX(-2px); }
        40% { transform: translateX(2px); }
        60% { transform: translateX(-1px); }
        80% { transform: translateX(1px); }
      }
      @keyframes dataStream {
        0% { stroke-dashoffset: 0; }
        100% { stroke-dashoffset: -20; }
      }
      .float { animation: float 8s ease-in-out infinite; }
      .pulse { animation: pulse 8s ease-in-out infinite; }
      .drift { animation: drift 8s ease-in-out infinite; }
      .shimmer { animation: shimmer 3s ease-in-out infinite; }
      .glitch { animation: glitch 0.5s ease-in-out infinite; }
      .dataStream { animation: dataStream 2s linear infinite; }
      .name-text { 
        font-family: -apple-system, BlinkMacSystemFont, 'Segoe UI', Helvetica, Arial, sans-serif;
        font-weight: 700;
        font-size: 64px;
        letter-spacing: -2px;
      }
    </style>
  
  <rect x="0" y="160" width="800" height="50" fill="#ff4500" opacity="0.3" />
<rect x="0" y="170" width="800" height="40" fill="#ff6b35" opacity="0.25" />
<rect x="0" y="180" width="800" height="30" fill="#f7c59f" opacity="0.19999999999999998" />
<rect x="0" y="190" width="800" height="20" fill="#efa48b" opacity="0.14999999999999997" />
<rect x="0" y="200" width="800" height="10" fill="#d4a5a5" opacity="0.09999999999999998" />
<line x1="292.5016937133429" y1="170" x2="292.5016937133429" y2="313.53637110544554" stroke="#ff4500" stroke-width="1.39746211537796" opacity="0.2804615076868972" class="pulse" />
<line x1="292.5016937133429" y1="170" x2="325.1844647639268" y2="291.9737620929204" stroke="#ff4500" stroke-width="2.5447748997094144" opacity="0.15925093063312062" class="pulse" />
<line x1="292.5016937133429" y1="170" x2="337.69402996975265" y2="248.27542250883883" stroke="#ff4500" stroke-width="1.0908959857751026" opacity="0.18957680137264962" class="pulse" />
<line x1="292.5016937133429" y1="170" x2="368.1280622484885" y2="245.6263685351456" stroke="#ff4500" stroke-width="1.3319483346015626" opacity="0.12702742614351464" class="pulse" />
<line x1="292.5016937133429" y1="170" x2="402.4835563498323" y2="233.49805799915362" stroke="#ff4500" stroke-width="1.9233567709726866" opacity="0.2582396529047407" class="pulse" />
<line x1="292.5016937133429" y1="170" x2="390.71884705823874" y2="196.3172069216486" stroke="#ff4500" stroke-width="1.5264961185337524" opacity="0.18393014438959854" class="pulse" />
<line x1="292.5016937133429" y1="170" x2="417.2893722190718" y2="170" stroke="#ff4500" stroke-width="1.2474333858635025" opacity="0.16241848352563495" class="pulse" />
<line x1="292.5016937133429" y1="170" x2="435.1189590299735" y2="131.78581893167367" stroke="#ff4500" stroke-width="2.8206883236398204" opacity="0.20030392688129814" class="pulse" />
<line x1="292.5016937133429" y1="170" x2="382.4493055912877" y2="118.06872206930458" stroke="#ff4500" stroke-width="2.555376544775397" opacity="0.23004315403762823" class="pulse" />
<line x1="292.5016937133429" y1="170" x2="367.2688473065238" y2="95.23284640681909" stroke="#ff4500" stroke-width="2.9424326427183614" opacity="0.20369353611196367" class="pulse" />
<line x1="292.5016937133429" y1="170" x2="334.9862191636868" y2="96.4146433845513" stroke="#ff4500" stroke-width="2.689496829026258" opacity="0.1660854964501659" class="pulse" />
<line x1="292.5016937133429" y1="170" x2="321.7348628268821" y2="60.90032760201866" stroke="#ff4500" stroke-width="2.0230313968909837" opacity="0.20753632664288543" class="pulse" />
<path d="M 89.31869010232299 51.215212605675966 C 87.80785802981801 59.67693219490923, 90.73740340711552 68.29556182773912, 86.85061355803705 72.0678751558608 C 82.96382370895859 75.84018848398249, 71.99543730968956 74.80249378929699, 65.99795100785222 73.84909257440604 C 60.00046470601488 72.8956913595151, 57.23369823680764 70.11978119463686, 50.86569574701302 66.34746786651517 C 44.4976932572184 62.5751545383935, 28.85505819328736 57.324419816825234, 27.789936069084497 51.21521260567597 C 26.724813944881635 45.10600539452671, 38.10696051200124 34.34206301662347, 44.47496300179586 29.69222459961961 C 50.842965491590476 25.04238618261575, 57.42451050930704 24.71529326684589, 65.99795100785222 23.316182103652825 C 74.5713915063974 21.91707094045976, 92.02881614398851 16.64771920345736, 95.91560599306696 21.297557620461216 C 99.80239584214542 25.947396037465072, 90.82952217482797 42.753493016442704, 89.31869010232299 51.215212605675966 Z" fill="#f7c59f" opacity="0.1405029081664778" class="drift" />
<path d="M 191.2372581586078 67.06600672141025 C 193.0368640059178 80.31349888215532, 194.0759694174223 103.64084225984297, 185.61545286435214 112.2073007455755 C 177.15493631128197 120.77375923130802, 153.43536973531346 120.55064474873387, 140.47415884018687 118.46475763580537 C 127.51294794506029 116.37887052287687, 117.899484718898 108.25843655373697, 107.84818749359266 99.69197806800446 C 97.79689026828733 91.12551958227195, 79.72981988614872 77.50477490140219, 80.16637548835486 67.06600672141026 C 80.602931090561 56.62723854141833, 100.41622388152416 44.25841032119139, 110.4675211068295 37.059368988052874 C 120.51881833213483 29.860327654914357, 129.74910939457644 24.594595590403788, 140.47415884018687 23.871758722579152 C 151.1992082857973 23.148921854754516, 166.35730122742189 25.52330644796654, 174.81781778049205 32.72234778110506 C 183.2783343335622 39.921389114243574, 189.4376523112978 53.81851456066517, 191.2372581586078 67.06600672141025 Z" fill="#f7c59f" opacity="0.1233585616271049" class="drift" />
<path d="M 753.2936318775238 72.00585906089523 C 752.5336929443757 80.95873522409485, 731.5285267896419 89.87892061165178, 722.2597434340346 96.58467075104981 C 712.9909600784273 103.29042089044785, 707.4778145520906 110.63641431912436, 697.68093174388 112.24035989728341 C 687.8840489356694 113.84430547544247, 669.82749262062 112.91409435940221, 663.4784465847711 106.20834422000418 C 657.1294005489221 99.50259408060614, 660.7489691980536 84.5690011165317, 659.5866555287868 72.00585906089523 C 658.4243418595199 59.44271700525877, 650.1555185333212 40.178541513523164, 656.5045645691702 30.82949188618541 C 662.8536106050191 21.480442258847653, 685.9617963332546 13.905240982590895, 697.68093174388 15.911561296868683 C 709.4000671545055 17.91788161114647, 717.5505936773158 33.51836414451438, 726.8193770329231 42.867413771852135 C 736.0881603885304 52.21646339918989, 754.0535708106719 63.05298289769562, 753.2936318775238 72.00585906089523 Z" fill="#f7c59f" opacity="0.14068368861328276" class="drift" />
<path d="M 252.47924945785422 73.58208618162877 C 252.94548896021385 83.37056782593115, 253.36924728004325 98.5011888584585, 247.39441415648386 104.34624962161479 C 241.41958103292447 110.19131038477107, 228.0437809881525 107.49364163557382, 216.63025071649784 108.65245076056647 C 205.2167204448432 109.81125988555911, 185.6280653903849 117.14416513472693, 178.913232526556 111.29910437157065 C 172.19839966272707 105.45404360841437, 175.00372486421116 84.8168969089629, 176.34125353352434 73.58208618162877 C 177.6787822028375 62.34727545429464, 180.22357167860602 52.16398987898765, 186.93840454243494 43.890240007565865 C 193.65323740626386 35.61649013614408, 207.020488616516 23.652066995058927, 216.63025071649784 23.939586953098043 C 226.2400128164797 24.22710691113716, 238.62214401876665 37.34160988437877, 244.59697714232604 45.615359755800554 C 250.57181026588543 53.88910962722234, 252.0130099554946 63.793604537326395, 252.47924945785422 73.58208618162877 Z" fill="#f7c59f" opacity="0.23380586261475295" class="drift" />
<path d="M 389.4289527588118 39.88475149600998 L 398.13236923708655 35.5330432568726 L 406.8357857153613 39.88475149600998" fill="none" stroke="#d4a5a5" stroke-width="1.5" opacity="0.4" class="float" style="animation-delay: 1.3972530468165394s" />
<path d="M 630.3421987556927 36.83783803316144 L 639.0383609512771 32.48975693536924 L 647.7345231468615 36.83783803316144" fill="none" stroke="#d4a5a5" stroke-width="1.5" opacity="0.4" class="float" style="animation-delay: 1.9180534134493175s" />
<path d="M 202.55133646323023 73.88777481369964 L 210.7002833807407 69.8133013549444 L 218.84923029825117 73.88777481369964" fill="none" stroke="#d4a5a5" stroke-width="1.5" opacity="0.4" class="float" style="animation-delay: 0.047708501615570276s" />
<path d="M 135.3994681838947 61.253825041065745 L 140.51536744948618 58.69587540827 L 145.63126671507766 61.253825041065745" fill="none" stroke="#d4a5a5" stroke-width="1.5" opacity="0.4" class="float" style="animation-delay: 1.738163784323013s" />
<path d="M 296.1151274461692 76.45513433752312 L 305.3225828067924 71.8514066572115 L 314.5300381674156 76.45513433752312" fill="none" stroke="#d4a5a5" stroke-width="1.5" opacity="0.4" class="float" style="animation-delay: 1.572472129198881s" />

  
    <text x="400" y="120" text-anchor="middle" class="name-text" fill="url(#textGrad)" filter="url(#textGlow)">
      JOEL HOOKS
    </text>
  
</svg>
