<svg xmlns="http://www.w3.org/2000/svg" viewBox="0 0 800 200" width="800" height="200">
  <rect width="800" height="200" fill="#05010d"/>
  
    <defs>
      <linearGradient id="grad1" x1="0%" y1="0%" x2="100%" y2="100%">
        <stop offset="0%" style="stop-color:#4a0080;stop-opacity:0.8" />
        <stop offset="100%" style="stop-color:#7b2cbf;stop-opacity:0.8" />
      </linearGradient>
      <linearGradient id="grad2" x1="100%" y1="0%" x2="0%" y2="100%">
        <stop offset="0%" style="stop-color:#9d4edd;stop-opacity:0.7" />
        <stop offset="100%" style="stop-color:#c77dff;stop-opacity:0.7" />
      </linearGradient>
      <linearGradient id="textGrad" x1="0%" y1="0%" x2="100%" y2="0%">
        <stop offset="0%" style="stop-color:#4a0080" />
        <stop offset="25%" style="stop-color:#7b2cbf" />
        <stop offset="50%" style="stop-color:#9d4edd" />
        <stop offset="75%" style="stop-color:#c77dff" />
        <stop offset="100%" style="stop-color:#e0aaff" />
      </linearGradient>
      <filter id="glow">
        <feGaussianBlur stdDeviation="5" result="coloredBlur"/>
        <feMerge>
          <feMergeNode in="coloredBlur"/>
          <feMergeNode in="SourceGraphic"/>
        </feMerge>
      </filter>
      <filter id="textGlow">
        <feGaussianBlur stdDeviation="2" result="coloredBlur"/>
        <feMerge>
          <feMergeNode in="coloredBlur"/>
          <feMergeNode in="SourceGraphic"/>
        </feMerge>
      </filter>
    </defs>
  
  
    <style>
      @keyframes float {
        0%, 100% { transform: translateY(0px); }
        50% { transform: translateY(-8px); }
      }
      @keyframes pulse {
        0%, 100% { opacity: 0.4; }
        50% { opacity: 0.9; }
      }
      @keyframes drift {
        0% { transform: translateX(0px); }
        50% { transform: translateX(10px); }
        100% { transform: translateX(0px); }
      }
      @keyframes shimmer {
        0% { opacity: 0.3; }
        50% { opacity: 1; }
        100% { opacity: 0.3; }
      }
      @keyframes glitch {
        0%, 100% { transform: translateX(0); }
        20% { transform: translateX(-2px); }
        40% { transform: translateX(2px); }
        60% { transform: translateX(-1px); }
        80% { transform: translateX(1px); }
      }
      @keyframes dataStream {
        0% { stroke-dashoffset: 0; }
        100% { stroke-dashoffset: -20; }
      }
      .float { animation: float 8s ease-in-out infinite; }
      .pulse { animation: pulse 8s ease-in-out infinite; }
      .drift { animation: drift 8s ease-in-out infinite; }
      .shimmer { animation: shimmer 3s ease-in-out infinite; }
      .glitch { animation: glitch 0.5s ease-in-out infinite; }
      .dataStream { animation: dataStream 2s linear infinite; }
      .name-text { 
        font-family: -apple-system, BlinkMacSystemFont, 'Segoe UI', Helvetica, Arial, sans-serif;
        font-weight: 700;
        font-size: 64px;
        letter-spacing: -2px;
      }
    </style>
  
  <path d="M 247.7073607213346 73.48328984597133 C 250.40712716898148 86.26223803661267, 227.24917254469855 110.59594117709813, 213.75614674262158 117.70461983758761 C 200.2631209405446 124.8132984980771, 179.41251544803706 115.75268416266027, 166.7492059088728 116.13536180890827 C 154.08589636970854 116.51803945515627, 152.74681494219462 117.91077237484998, 137.77628950763605 120.00068571507556 C 122.80576407307748 122.09059905530114, 87.51592567488386 136.4277411617791, 76.9260533015214 128.6748418502617 C 66.33618092815895 120.92194253874435, 68.69709645086283 87.85545816374439, 74.23705526746136 73.48328984597134 C 79.77701408405989 59.1111215281983, 99.17897171121142 48.973007484187406, 110.16580620111256 42.441831943623434 C 121.1526406910137 35.91065640305946, 127.22696895799656 47.00485212941937, 140.15806220686824 34.29623660258753 C 153.08915545573993 21.587621075755685, 178.18578471936397 -34.93231023255963, 187.75236569434264 -33.809861217367626 C 197.31894666932132 -32.68741220217562, 187.56504888557495 23.14873884984971, 197.55754805674027 41.030930693739535 C 207.5500472279056 58.91312253762936, 245.00759427368772 60.70434165532998, 247.7073607213346 73.48328984597133 Z" fill="#9d4edd" opacity="0.12663550738270302" filter="url(#glow)" class="float" />
<path d="M 376.6103667045513 154.51602103565855 C 377.34751258859876 178.59870883148778, 363.91994342392525 216.6718648232801, 345.61283823898776 228.37078792545998 C 327.3057330540503 240.06971102763987, 287.8591466341612 224.24830110038909, 266.76773559492653 224.70955964873792 C 245.67632455569185 225.17081819708676, 235.28843584562756 233.81153107506816, 219.06437200357962 231.13833921555297 C 202.84030816153168 228.4651473560378, 187.07684498221641 221.44079485496252, 169.42335254263892 208.67040849164678 C 151.76986010306143 195.90002212833105, 109.85504930968762 170.17834428025944, 113.14341736611462 154.51602103565858 C 116.43178542254162 138.85369779105773, 171.64723648462984 127.91979205051659, 189.15356088120092 114.69646902404165 C 206.659885277772 101.4731459975667, 205.42870115701257 79.67509571960453, 218.181363745541 75.17608287680895 C 230.93402633406944 70.67707003401337, 245.16810321417782 86.25262892165559, 265.6695364123715 87.7023919672682 C 286.1709696105651 89.15215501288081, 322.699824552673 72.73905630575288, 341.189962934703 83.87466115048461 C 359.68010131673293 95.01026599521634, 375.8732208205039 130.43333323982932, 376.6103667045513 154.51602103565855 Z" fill="#c77dff" opacity="0.10672825707701256" filter="url(#glow)" class="float" />
<path d="M 761.220815951769 80.46111404539849 C 762.1497088646345 89.14037358285862, 707.8732484599317 95.22174696529017, 691.4388434913689 109.28557139637512 C 675.004438522806 123.34939582746007, 678.2189329490947 158.84766627353125, 662.6143861403922 164.84406063190818 C 647.0098393316897 170.8404549902851, 607.50425042141 159.32776197772162, 597.811562639154 145.26393754663667 C 588.118874856898 131.20011311555172, 600.1599278616222 97.76372362724426, 604.4582594468559 80.4611140453985 C 608.7565910320895 63.158504463552745, 613.9088643682998 49.985428242702326, 623.6015521505558 41.448280055562115 C 633.2942399328118 32.911131868421904, 652.2370638297888 26.611269236548537, 662.6143861403922 29.23822492255725 C 672.9917084509956 31.865180608565964, 669.4310810456134 48.672865984474186, 685.8654860141762 57.21001417161439 C 702.299890982739 65.7471623587546, 760.2919230389036 71.78185450793836, 761.220815951769 80.46111404539849 Z" fill="#9d4edd" opacity="0.10485707622336664" filter="url(#glow)" class="float" />
<path d="M 550.9272070891883 104.85115066339685 C 551.3251590166062 117.13307382282697, 514.6874726814439 131.07164312044978, 501.53901593477957 142.56430713979975 C 488.3905591881153 154.05697115914973, 486.0909888030362 163.46320502675917, 472.03646660920253 173.80713477949672 C 457.98194441536884 184.15106453223427, 433.6646535247005 206.8799619711861, 417.2118827717773 204.62788565622503 C 400.7591120188541 202.37580934126396, 385.8295142055355 176.92413272186838, 373.31984209166353 160.29467688973034 C 360.8101699777916 143.6652210575923, 338.21367903506797 120.4696242342074, 342.1538500885457 104.85115066339687 C 346.09402114202345 89.23267709258633, 382.3188677687137 76.65065888454586, 396.9608684125301 66.58383546486708 C 411.6028690563465 56.5170120451883, 417.86731433090813 48.41374975147884, 430.00585395144424 44.45021014532419 C 442.14439357198034 40.486670539169545, 458.2678643992753 38.73217148829007, 469.79210613574656 42.80259782793921 C 481.3163478722178 46.87302416758835, 485.6287875446982 58.53134271064273, 499.1513043702718 68.87276818321901 C 512.6738211958454 79.21419365579528, 550.5292551617704 92.56922750396673, 550.9272070891883 104.85115066339685 Z" fill="#9d4edd" opacity="0.16411954629352377" filter="url(#glow)" class="float" />
<path d="M 590.4809874292496 127.45713823642714 L 590.4809874292496 127.45713823642714 L 590.8249032042659 127.4872269679488 L 591.1609567610841 127.57703517568387 L 591.4813856339163 127.72519412747714 L 591.7786257988324 127.92943997779703 L 592.0454082476855 128.18663964464093 L 592.2748524146599 128.4928266686436 L 592.4605554544082 128.84324669004218 L 592.5966764113883 129.23241208102561 L 592.6780143700997 129.65416517727735 L 592.7000797349976 130.10174946410058 L 592.6591578563589 130.56788799024795 L 592.5523642936826 131.0448682072477 L 592.3776910906055 131.5246323643606 L 592.1340435240442 131.99887252996714 L 591.8212668844996 132.45912925976077 L 591.4401629433034 132.89689289110362 L 590.9924958651178 133.3037064117048 L 590.4809874292496 133.671268829726 L 589.909301530338 133.9915379617375 L 589.2820180366822 134.25683155477276 L 588.6045961918996 134.45992566909422 L 587.8833278517152 134.59414926913288 L 587.1252809514662 134.6534740012325 L 586.3382337003837 134.6325981780683 L 585.5306000949101 134.52702404056535 L 584.7113474343046 134.3331274283781 L 583.889906606699 134.04821905897774 L 583.0760759917639 133.67059669252177 L 582.2799198964493 133.19958754426082 L 581.5116625021982 132.6355803975095 L 580.7815783549468 131.98004696735265 L 580.0998804725867 131.23555216738623 L 579.4766071779156 130.4057530379771 L 578.921508788062 129.49538620379172 L 578.4439353036779 128.5102438396853 L 578.0527262426519 127.45713823642714 L 577.7561037536452 126.34385517012568 L 577.5615701243929 125.17909639054908 L 577.4758107685822 123.97241165277723 L 577.5046037334209 122.73412082272827 L 577.6527367180748 121.47522668907405 L 577.9239325313775 120.20731921091183 L 578.3207838461319 118.9424720213634 L 578.8446980274864 117.69313209113557 L 579.4958527249986 116.47200353217617 L 580.2731628228083 115.29192658912928 L 581.1742592406915 114.16575292464732 L 582.1954799715178 113.10621835314485 L 583.3318736287544 112.12581421575486 L 584.577215662126 111.23665861664138 L 585.9240372813997 110.4503687570928 L 587.3636670085743 109.77793560872857 L 588.8862846586015 109.22960216056144 L 590.4809874292496 108.81474645653063 L 592.135867662941 108.54177061052877 L 593.8381017284383 108.41799694505944 L 595.5740493591995 108.44957234775936 L 597.3293626791129 108.64138187747565 L 599.0891040461723 108.99697257888296 L 600.8378717514144 109.51848838232428 L 602.5599325250377 110.20661687432992 L 604.2393597248877 111.06054862485175 L 605.860176015201 112.07794965047577 L 607.4064992863597 113.25494747963938 L 608.8626905200089 114.58613116714473 L 610.2135022687627 116.06456548204594 L 611.4442263962912 117.6818193663623 L 612.5408397121582 119.42800863313907 L 613.4901461365843 121.29185274227727 L 614.2799140434591 123.26074536244121 L 614.8990074554093 125.32083829838918 L 615.337509802445 127.45713823642714 L 615.586839005442 129.65361563750844 L 615.6398527071283 131.89332498892654 L 615.4909425459177 134.158535512677 L 615.1361164513239 136.430871322455 L 614.5730680331632 138.69145992291956 L 613.8012322395833 140.92108785524127 L 612.8218265703263 143.1003622129396 L 611.6378772506372 145.20987668241182 L 610.2542298969014 147.23038070407887 L 608.6775443363839 149.14295030334944 L 606.9162733792564 150.92915910616597 L 604.9806254802802 152.57124803217116 L 602.882511368884 154.05229214983825 L 600.6354748687022 155.35636318245864 L 598.2546082696994 156.4686861717622 L 595.7564527565462 157.3757888371478 L 593.1588845346774 158.06564221288087 L 590.4809874292496 158.52779120292132 L 587.7429128607785 158.75347376291353 L 584.9657282234396 158.73572750081692 L 582.1712548066998 158.46948258109563 L 579.3818965070573 157.95163992162438 L 576.6204606731875 157.18113378671018 L 573.909972513786 156.15897800299172 L 571.2734845720128 154.8882951564834 L 568.7338828329184 153.374328267627 L 566.3136910798975 151.62443458577928 L 564.0348751525152 149.64806129390803 L 561.9186487805313 147.4567030671583 L 559.9852826772748 145.06384158410717 L 558.2539185694691 142.48486724563128 L 556.7423898200952 139.7369835120442 L 555.4670502659142 136.83909442317693 L 554.4426128420179 133.8116760170344 L 553.6819995025019 130.6766325092449 L 553.1962038694566 127.45713823642716 L 552.9941679524692 124.17746650056607 L 553.0826741783487 120.86280657730644 L 553.4662538565807 117.53907026757732 L 554.1471130809294 114.23268947807034 L 555.1250769325972 110.97040641079545 L 556.3975527064541 107.77905802431414 L 557.9595127302139 104.685356498466 L 559.8034971882375 101.71566748974938 L 561.919637198197 98.89578800537458 L 564.2956982214222 96.25072574988042 L 566.917143717794 93.80448180872934 L 569.7672187849201 91.57983852822142 L 572.8270533504758 89.59815443027719 L 576.075784317468 87.87916796414987 L 579.4906958961998 86.44081184509139 L 583.0473771953317 85.2990396626844 L 586.7198959890419 84.46766635938539 L 590.4809874292496 83.9582240833353 L 594.3022563325005 83.77983480935272 L 598.154391541681 83.93910099901527 L 602.0073907443993 84.44001543575791 L 605.8307940237709 85.28389122498416 L 609.5939243244509 86.4693127934053 L 613.2661329380119 87.99210855740083 L 616.8170480479351 89.84534575841192 L 620.2168243262739 92.01934778560286 L 623.4363915420025 94.50173412367423 L 626.4477001256085 97.27748287825318 L 629.2239616359269 100.32901564424725 L 631.7398820936861 103.63630429544828 L 633.9718861817689 107.17699908808369 L 635.8983303646497 110.92657728848101 L 637.4997030485857 114.8585113570774 L 638.7588099895033 118.94445554919857 L 639.6609432565854 123.15444962882962 L 640.1940321756402 127.45713823642711 L 640.348774806618 131.82000430706802 L 640.1187486531725 136.20961480216926 L 639.5004994579192 140.59187689787683 L 638.4936071038154 144.9323026671129 L 637.1007278186408 149.19628020119822 L 635.3276120645068 153.3493490418389 L 633.1830976862443 157.357477735837" fill="none" stroke="#9d4edd" stroke-width="1" opacity="0.3" class="drift" />
<path d="M 649.4821290395769 147.17336185693438 L 649.4821290395769 147.17336185693438 L 649.915743739611 147.21129822752556 L 650.339445624842 147.32452990192547 L 650.7434476499565 147.51133115998394 L 651.1182129684188 147.76884770779412 L 651.4545766944743 148.09312930372295 L 651.7438636968877 148.47917497016832 L 651.9780011622951 148.92099033166915 L 652.1496247172962 149.41165649627567 L 652.252176961567 149.9434097789245 L 652.2799973387534 150.50773145408354 L 652.2284023570172 151.09544662120587 L 652.0937552660447 151.6968311715561 L 651.8735244012271 152.30172575966782 L 651.5663295175859 152.89965560788093 L 651.1719755548247 153.47995490883233 L 650.6914733995058 154.0318945390559 L 650.1270473396269 154.54481175751422 L 649.4821290395769 155.008240536338 L 648.7613379983445 155.41204115758242 L 647.9704485896658 155.7465277095863 L 647.11634391823 156.0025921295915 L 646.2069568598483 156.17182346556467 L 645.2511987843495 156.24662106946278 L 644.2588765866411 156.22030048617785 L 643.240598772667 156.08719086664232 L 642.2076714617177 155.84272280952223 L 641.1719852736065 155.4835056229047 L 640.1458941675592 155.00739309462887 L 639.1420873883156 154.41353696654986 L 638.1734557530225 153.70242742310407 L 637.2529535792125 152.87592002702345 L 636.3934576088419 151.93724866381234 L 635.6076243254014 150.89102419047953 L 634.9077470900686 149.74321862178311 L 634.3056145383831 148.50113482762563 L 633.8123716807696 147.17336185693438 L 633.4383851383149 145.76971614506078 L 633.1931139195382 144.30116900210342 L 633.0849871046422 142.77976091729013 L 633.1212897511582 141.21850334833692 L 633.3080582694175 139.63126879326816 L 633.6499864384008 138.0326700642968 L 634.1503431428793 136.43792979784936 L 634.8109028121205 134.86274134055733 L 635.6318894296263 133.32312224698387 L 636.6119348633645 131.8352617100482 L 637.7480521377863 130.41536331868346 L 639.0356241337054 129.0794845984474 L 640.468408061049 127.84337483893907 L 642.03855590383 126.72231274641098 L 643.7366508877344 125.73094548048132 L 645.5517598698082 124.88313064003935 L 647.4715013982444 124.19178275512664 L 649.4821290395769 123.66872581872352 L 651.5686294220917 123.32455335505843 L 653.7148342993278 123.16849746950896 L 655.9035457975185 123.20830825972214 L 658.1166738770431 123.45014488872722 L 660.3353849116819 123.89847952914411 L 662.5402601719162 124.55601528382567 L 664.711462890837 125.42361907324701 L 666.8289124944719 126.50027035460954 L 668.8724644935076 127.78302640300366 L 670.8220944613315 129.2670047422041 L 672.6580844648175 130.94538316296865 L 674.3612102699965 132.80941761136106 L 675.9129276152031 134.84847806996763 L 677.2955558298887 137.0501023923187 L 678.4924570783074 139.40006788679455 L 679.4882095238586 141.88248028224575 L 680.2687727419985 144.47987954496068 L 680.8216437571914 147.17336185693438 L 681.1360021420668 149.94271691009044 L 681.202842694389 152.76657952160517 L 681.0150942990666 155.6225944331733 L 680.5677236875724 158.48759302326954 L 679.8578229249981 161.33778053747824 L 678.8846795846182 164.14893232897555 L 677.6498287102539 166.89659750036964 L 676.1570858167702 169.5563082503472 L 674.4125603374878 172.10379315484528 L 672.424649092825 174.51519255355754 L 670.2040095257178 176.76727416916472 L 667.763512624852 178.83764705928658 L 665.1181756349824 180.70497199019152 L 662.2850748330615 182.34916632703462 L 659.2832388280141 183.75160155794254 L 656.1335230191854 184.89529160860286 L 652.8584660221918 185.76507015996998 L 649.4821290395769 186.3477552539525 L 646.0299193157797 186.63229956003823 L 642.5283989699861 186.60992477913328 L 639.0050806450406 186.27423877870172 L 635.4882115443729 185.6213341847184 L 632.0065475505942 184.6498672999865 L 628.5891192278339 183.36111637390832 L 625.2649916039666 181.7590184146012 L 622.0630197076462 179.85018390899626 L 619.0116018976858 177.64388899882547 L 616.1384330680852 175.15204484870046 L 613.4702598403569 172.38914413525038 L 611.032639865292 169.3721847819113 L 608.8497073486888 166.12057126077877 L 606.9439468896882 162.65599397928776 L 605.3359776762911 159.0022874636689 L 604.0443500205216 155.18526824146284 L 603.0853561359273 151.23255351019048 L 602.4728569631551 147.1733618569344 L 602.2181267358591 143.03829746249593 L 602.3297168499912 138.85911938242376 L 602.813340455532 134.6684976441007 L 603.6717790320045 130.49975803286154 L 604.9048120388939 126.3866175595129 L 606.5091705506703 122.36291270548953 L 608.4785155949204 118.46232262914893 L 610.8034417126465 114.71808958648583 L 613.4715060537055 111.16273887106303 L 616.467283109293 107.82780061057419 L 619.7724449690858 104.74353577072465 L 623.3658667748981 101.93866871071697 L 627.2237568272936 99.44012860841536 L 631.3198105883547 97.27280202725726" fill="none" stroke="#7b2cbf" stroke-width="1" opacity="0.3" class="drift" />
<circle cx="179.4960281441588" cy="139.1252956249943" r="1.5988681658167696" fill="white" opacity="0.7936743381610005"  style="animation-delay: 0.8059624292868817s" />
<circle cx="175.6121567265165" cy="63.067442344693035" r="1.6230814767690371" fill="white" opacity="0.7476565718885733"  style="animation-delay: 4.358547554853028s" />
<circle cx="12.4919153345191" cy="0.06522804114492686" r="1.216279889804484" fill="white" opacity="0.49824196888253475"  style="animation-delay: 1.1639833931775234s" />
<circle cx="682.919837696755" cy="140.0366621263362" r="0.8615167727833957" fill="white" opacity="0.3063070213851013"  style="animation-delay: 2.2251648055210502s" />
<circle cx="376.8850364916487" cy="110.61366841973611" r="0.5834293927988513" fill="white" opacity="0.30217889160082884"  style="animation-delay: 0.3891400293956804s" />
<circle cx="287.4426160158453" cy="144.1459402988985" r="1.5914352563532679" fill="white" opacity="0.5747481735813456"  style="animation-delay: 1.4851066526073164s" />
<circle cx="644.4534356176387" cy="42.89626375258613" r="1.6898068551925232" fill="white" opacity="0.7186543666800524"  style="animation-delay: 1.9659591153382217s" />
<circle cx="407.96768087463045" cy="114.53882350794173" r="0.8930046542137404" fill="white" opacity="0.673740471557845"  style="animation-delay: 3.907164385468269s" />
<circle cx="126.20328635055209" cy="140.88340590158452" r="1.016938525293181" fill="white" opacity="0.43998750040128115"  style="animation-delay: 2.4288628539987203s" />
<circle cx="432.9510396297495" cy="153.68000264536468" r="0.7836062277072346" fill="white" opacity="0.5259394446770582"  style="animation-delay: 2.232626452842176s" />
<circle cx="19.588473307694443" cy="9.380184862771657" r="1.6268792967942605" fill="white" opacity="0.3714355299825198" class="shimmer" style="animation-delay: 2.249618103817539s" />
<circle cx="422.9385200570903" cy="25.36041327377605" r="1.5325839680893734" fill="white" opacity="0.352554595453271"  style="animation-delay: 1.6947097570580771s" />
<circle cx="435.5008868276187" cy="87.65021987839306" r="0.7271732448065942" fill="white" opacity="0.7545780974374556"  style="animation-delay: 3.93558204812104s" />
<circle cx="688.6509885550967" cy="177.90110021908956" r="1.6117959336914058" fill="white" opacity="0.4937645452507012"  style="animation-delay: 0.47400058482230945s" />
<circle cx="514.763915458032" cy="27.952852773317495" r="1.1353975984192837" fill="white" opacity="0.3526252213337437" class="shimmer" style="animation-delay: 1.1433481481106522s" />
<circle cx="352.6618304221769" cy="50.392724090687935" r="1.214904419852247" fill="white" opacity="0.32174050819876193"  style="animation-delay: 0.2992488604514687s" />
<circle cx="184.40783003089027" cy="172.75213983941882" r="1.2072507059181028" fill="white" opacity="0.45017672171344375"  style="animation-delay: 1.5975602835433578s" />
<circle cx="320.53713639336434" cy="53.294883987969975" r="1.6781683422500233" fill="white" opacity="0.517635356869778" class="shimmer" style="animation-delay: 4.847536881193422s" />
<circle cx="180.44754821210435" cy="160.98420764349032" r="1.5922404475397818" fill="white" opacity="0.702754878114384" class="shimmer" style="animation-delay: 2.673814090094263s" />
<circle cx="420.50483240194956" cy="118.55381967844623" r="1.430118124618329" fill="white" opacity="0.41214041177425725"  style="animation-delay: 0.4770962185541161s" />
<circle cx="222.85470914539528" cy="187.18296742484642" r="0.8785632087337347" fill="white" opacity="0.7509658745828127"  style="animation-delay: 2.7734495243401813s" />
<circle cx="688.9405923238918" cy="42.21423608205575" r="1.6663797219117327" fill="white" opacity="0.7306895993323188"  style="animation-delay: 0.3623787927626754s" />
<circle cx="573.4226679199443" cy="116.34848575278794" r="1.337267758416624" fill="white" opacity="0.5554863670727048" class="shimmer" style="animation-delay: 1.1256046602275094s" />
<circle cx="500.50412240605556" cy="88.92540711516052" r="0.7836716558630892" fill="white" opacity="0.5308021344749612"  style="animation-delay: 2.41455854996536s" />
<circle cx="326.84682798119695" cy="161.07039126684822" r="1.3943688707340738" fill="white" opacity="0.3928255510941771" class="shimmer" style="animation-delay: 1.4176538635406477s" />
<circle cx="770.0049942203867" cy="177.24469566469998" r="1.9407642865700887" fill="white" opacity="0.7921053385317851"  style="animation-delay: 0.41909184242050257s" />
<circle cx="645.043671471153" cy="44.843814007940175" r="1.7027610351502083" fill="white" opacity="0.6614277654321183" class="shimmer" style="animation-delay: 2.6788872201753233s" />
<circle cx="729.330239175903" cy="184.91655709050767" r="1.1898940990890017" fill="white" opacity="0.5846219850339593"  style="animation-delay: 1.41023678930977s" />
<circle cx="551.1922277226316" cy="152.1383101969062" r="1.5807873234118874" fill="white" opacity="0.7306834832897624" class="shimmer" style="animation-delay: 0.549640338799372s" />
<circle cx="568.1583841933272" cy="102.93291007798832" r="1.2915859863309325" fill="white" opacity="0.41431377431010613"  style="animation-delay: 1.3644785454394404s" />
<circle cx="261.793439318776" cy="141.4871844466436" r="0.5829478341317248" fill="white" opacity="0.40802817359612725"  style="animation-delay: 4.134266765909879s" />
<circle cx="716.0305029750534" cy="79.43552314569126" r="1.3319906686288285" fill="white" opacity="0.7430203770692714" class="shimmer" style="animation-delay: 1.134638919180686s" />
<circle cx="635.1050451394435" cy="146.93721059889583" r="1.741929765457367" fill="white" opacity="0.49813692486055733"  style="animation-delay: 2.445727779229001s" />
<circle cx="201.63672894204757" cy="178.75482676929465" r="1.4665490394028255" fill="white" opacity="0.6500469059993339"  style="animation-delay: 1.0492015539100097s" />
<circle cx="170.69880370785899" cy="58.33938806721663" r="0.920728665773391" fill="white" opacity="0.5489235947213147" class="shimmer" style="animation-delay: 4.401187477898612s" />
<circle cx="788.8785728565757" cy="187.52713028197428" r="1.4630857092428786" fill="white" opacity="0.5383257730286104"  style="animation-delay: 3.4874862016403263s" />
<circle cx="318.663852455831" cy="24.24160916736282" r="1.8846855023977502" fill="white" opacity="0.4077067409512089"  style="animation-delay: 4.176401776393294s" />
<circle cx="323.5205193850799" cy="94.12219023054055" r="1.5063960619077015" fill="white" opacity="0.5079529478835456"  style="animation-delay: 3.2010647989478924s" />
<circle cx="604.9402266869997" cy="40.13155262735584" r="1.5215376070332316" fill="white" opacity="0.3388890858432692"  style="animation-delay: 3.04534711498774s" />
<circle cx="161.07919049884015" cy="101.76442061860533" r="1.5372905140775814" fill="white" opacity="0.355478357653047" class="shimmer" style="animation-delay: 0.21259656208968303s" />
<circle cx="650.3846908376302" cy="107.46427359427146" r="2.6567894346222665" fill="#9d4edd" opacity="0.8" filter="url(#glow)" class="shimmer" style="animation-delay: 1.7257533847466204s" />
<circle cx="76.42612272928969" cy="126.20611588791677" r="2.1158496686991106" fill="#c77dff" opacity="0.8" filter="url(#glow)" class="shimmer" style="animation-delay: 2.5117531742130703s" />
<circle cx="622.2162864019813" cy="176.5576348361945" r="1.2682311578570293" fill="#4a0080" opacity="0.8" filter="url(#glow)" class="shimmer" style="animation-delay: 2.193201366758653s" />
<circle cx="343.704109280881" cy="57.17405378442608" r="2.92669148958236" fill="#4a0080" opacity="0.8" filter="url(#glow)" class="shimmer" style="animation-delay: 0.8614610696237543s" />
<circle cx="706.2996543688125" cy="148.99454314151507" r="1.1740763885703358" fill="#9d4edd" opacity="0.8" filter="url(#glow)" class="shimmer" style="animation-delay: 2.1380860319749475s" />
<circle cx="581.314033815746" cy="158.72330138098613" r="1.716031590977218" fill="#7b2cbf" opacity="0.8" filter="url(#glow)" class="shimmer" style="animation-delay: 0.19934823374493083s" />
<circle cx="654.0416341259478" cy="108.31258994675972" r="1.3788777399748344" fill="#c77dff" opacity="0.8" filter="url(#glow)" class="shimmer" style="animation-delay: 0.8776866724486088s" />
<circle cx="488.63234380529195" cy="37.948009946285175" r="1.7635862356525074" fill="#9d4edd" opacity="0.8" filter="url(#glow)" class="shimmer" style="animation-delay: 1.5065887444350752s" />
<line x1="655.1273935252864" y1="166.87758607733022" x2="739.8217677495805" y2="131.74002442629256" stroke="#e0aaff" stroke-width="0.5" opacity="0.3" />

  
    <text x="400" y="120" text-anchor="middle" class="name-text" fill="url(#textGrad)" filter="url(#textGlow)">
      JOEL HOOKS
    </text>
  
</svg>
