<svg xmlns="http://www.w3.org/2000/svg" viewBox="0 0 800 200" width="800" height="200">
  <rect width="800" height="200" fill="#05010d"/>
  
    <defs>
      <linearGradient id="grad1" x1="0%" y1="0%" x2="100%" y2="100%">
        <stop offset="0%" style="stop-color:#4a0080;stop-opacity:0.8" />
        <stop offset="100%" style="stop-color:#7b2cbf;stop-opacity:0.8" />
      </linearGradient>
      <linearGradient id="grad2" x1="100%" y1="0%" x2="0%" y2="100%">
        <stop offset="0%" style="stop-color:#9d4edd;stop-opacity:0.7" />
        <stop offset="100%" style="stop-color:#c77dff;stop-opacity:0.7" />
      </linearGradient>
      <linearGradient id="textGrad" x1="0%" y1="0%" x2="100%" y2="0%">
        <stop offset="0%" style="stop-color:#4a0080" />
        <stop offset="25%" style="stop-color:#7b2cbf" />
        <stop offset="50%" style="stop-color:#9d4edd" />
        <stop offset="75%" style="stop-color:#c77dff" />
        <stop offset="100%" style="stop-color:#e0aaff" />
      </linearGradient>
      <filter id="glow">
        <feGaussianBlur stdDeviation="5" result="coloredBlur"/>
        <feMerge>
          <feMergeNode in="coloredBlur"/>
          <feMergeNode in="SourceGraphic"/>
        </feMerge>
      </filter>
      <filter id="textGlow">
        <feGaussianBlur stdDeviation="2" result="coloredBlur"/>
        <feMerge>
          <feMergeNode in="coloredBlur"/>
          <feMergeNode in="SourceGraphic"/>
        </feMerge>
      </filter>
    </defs>
  
  
    <style>
      @keyframes float {
        0%, 100% { transform: translateY(0px); }
        50% { transform: translateY(-8px); }
      }
      @keyframes pulse {
        0%, 100% { opacity: 0.4; }
        50% { opacity: 0.9; }
      }
      @keyframes drift {
        0% { transform: translateX(0px); }
        50% { transform: translateX(10px); }
        100% { transform: translateX(0px); }
      }
      @keyframes shimmer {
        0% { opacity: 0.3; }
        50% { opacity: 1; }
        100% { opacity: 0.3; }
      }
      @keyframes glitch {
        0%, 100% { transform: translateX(0); }
        20% { transform: translateX(-2px); }
        40% { transform: translateX(2px); }
        60% { transform: translateX(-1px); }
        80% { transform: translateX(1px); }
      }
      @keyframes dataStream {
        0% { stroke-dashoffset: 0; }
        100% { stroke-dashoffset: -20; }
      }
      .float { animation: float 8s ease-in-out infinite; }
      .pulse { animation: pulse 8s ease-in-out infinite; }
      .drift { animation: drift 8s ease-in-out infinite; }
      .shimmer { animation: shimmer 3s ease-in-out infinite; }
      .glitch { animation: glitch 0.5s ease-in-out infinite; }
      .dataStream { animation: dataStream 2s linear infinite; }
      .name-text { 
        font-family: -apple-system, BlinkMacSystemFont, 'Segoe UI', Helvetica, Arial, sans-serif;
        font-weight: 700;
        font-size: 64px;
        letter-spacing: -2px;
      }
    </style>
  
  <path d="M 361.9460208124569 145.35033835501315 C 362.56497164514656 157.84868296464532, 308.9540078486433 163.76691655471086, 295.62750872799734 184.1944544919899 C 282.3010096073514 204.62199242926891, 294.8353676080087 262.27084224085775, 281.9870260885812 267.91556597868725 C 269.1386845691537 273.56028971651676, 238.55995252380401 228.76542980487585, 218.5374596114323 218.0627969189671 C 198.51496669906058 207.36016403305837, 174.51623488104667 215.8185117572272, 161.8520686143509 203.6997686632349 C 149.18790234765515 191.58102556924257, 142.11616213893547 164.4831580455482, 142.55246201125783 145.35033835501315 C 142.9887618835802 126.21751866447808, 152.16430620542707 102.12526516115717, 164.46986784828508 88.90285052002449 C 176.7754294911431 75.6804358788918, 197.81074012193255 73.92362400067547, 216.3858318684058 66.01585050821704 C 234.96092361487905 58.1080770157586, 263.33242301654894 34.25812017761057, 275.9204183271245 41.456209565273866 C 288.5084136377 48.65429895293716, 277.576203317637 91.88869870257358, 291.9138037318591 109.2043868341968 C 306.2514041460812 126.52007496582002, 361.3270699797672 132.85199374538098, 361.9460208124569 145.35033835501315 Z" fill="#e0aaff" opacity="0.1826002955038371" filter="url(#glow)" class="float" />
<path d="M 305.3625146310257 102.21997031729808 C 307.8725245821821 117.81338727377484, 295.5098754635579 141.68093484547188, 284.1427784082096 154.47110811242365 C 272.77568135286134 167.26128137937542, 254.28543045057737 171.8525644246077, 237.15993229893598 178.96100991900863 C 220.0344341472946 186.06945541340957, 201.1813457800136 198.5518973467501, 181.3897894983613 197.12178107882923 C 161.598233216709 195.69166481090835, 128.36968892691115 186.1972807717385, 118.41059460902216 170.3803123114833 C 108.45150029113316 154.5633438512281, 119.1253042312796 123.11652115863915, 121.63522359102728 102.21997031729809 C 124.14514295077497 81.32341947595704, 121.67955938267258 55.18133045970703, 133.4701107675083 45.001007263437 C 145.260662152344 34.82068406716698, 176.19908329886277 40.999523714754865, 192.37853190004157 41.13803113967796 C 208.55798050122036 41.27653856460106, 217.7627712410428 42.53662260732808, 230.5468023745811 45.8320518129756 C 243.33083350811938 49.12748101862312, 256.61343332519726 51.512619956176, 269.08271870127135 60.910606373563084 C 281.55200407734543 70.30859279095016, 302.8525046798693 86.62655336082132, 305.3625146310257 102.21997031729808 Z" fill="#e0aaff" opacity="0.2396518853606594" filter="url(#glow)" class="float" />
<path d="M 548.7062311962237 124.06928257813026 C 551.2641943750765 158.76270719349856, 581.7744501846745 212.5564142663831, 566.037261305832 235.82344596079338 C 550.3000724269895 259.0904776552037, 484.7072077717605 270.4987506902214, 454.28309792316884 263.67147274459205 C 423.85898807457716 256.8441947989627, 408.04811744855505 218.12680998142747, 383.49260221428193 194.85977828701718 C 358.9370869800088 171.5927465926069, 305.32731855426323 146.04342651782568, 306.95000651753014 124.06928257813027 C 308.57269448079705 102.09513863843486, 368.6732147596101 81.89278944593592, 393.22872999388323 63.01491464884469 C 417.78424522815635 44.13703985175346, 428.0396392166968 16.69403652562637, 454.28309792316884 10.802033795582858 C 480.5265566296409 4.910031065539346, 534.952293353873 8.785023471492384, 550.6894822327155 27.662898268583618 C 566.426671111558 46.540773065674856, 546.1482680173709 89.37585796276196, 548.7062311962237 124.06928257813026 Z" fill="#9d4edd" opacity="0.11383215429610416" filter="url(#glow)" class="float" />
<path d="M 558.6492986767391 14.481008921246508 C 552.3248594775745 42.25501307271819, 522.7031359568884 63.227183567589705, 502.64416444153403 78.82970377816763 C 482.5851929261797 94.43222398874555, 461.7094248466193 106.13173987501466, 438.2954695846129 108.09613018471404 C 414.88151432260645 110.06052049441342, 384.9450076059068 106.21856584694181, 362.1604328694955 90.61604563636389 C 339.37585813308414 75.01352542578597, 301.28687862015545 39.55821194696282, 301.5880211661449 14.481008921246524 C 301.8891637121344 -10.596194104469774, 341.1827134090211 -46.8321058660146, 363.96728814543246 -59.84717251793388 C 386.7518628818438 -72.86223916985315, 408.8582176694313 -58.94819955481439, 438.2954695846129 -63.609390990269155 C 467.7327214997944 -68.27058242572392, 520.5318281211673 -100.82938778258176, 540.5907996365218 -87.81432113066248 C 560.6497711518762 -74.7992544787432, 564.9737378759038 -13.292995230225175, 558.6492986767391 14.481008921246508 Z" fill="#e0aaff" opacity="0.13309170355413855" filter="url(#glow)" class="float" />
<path d="M 447.1431829426159 84.82720802071199 L 447.1431829426159 84.82720802071199 L 447.60822895232695 84.86789427457968 L 448.06264359975074 84.9893337422648 L 448.4959304087078 85.18967561181455 L 448.89786123788696 85.4658586909036 L 449.2586068689769 85.81364639781846 L 449.56886333888684 86.227675250467 L 449.8199726624475 86.70151636074036 L 450.0040366469467 87.22774930886814 L 450.11402256758385 87.79804764567992 L 450.1438595528111 88.40327515112551 L 450.08852461980337 89.03359186616171 L 449.9441174021259 89.67856881325382 L 449.7079227230927 90.32731022925064 L 449.3784602882866 90.96858205416058 L 448.9555208981287 91.59094535117136 L 448.44018871503835 92.18289327779074 L 447.83484925836655 92.73299018579999 L 447.1431829426159 93.23001139924206 L 446.3701441191299 93.66308220522211 L 445.5219257270878 94.02181459206042 L 444.605909804898 94.2964402833551 L 443.63060425656204 94.47793864470262 L 442.6055664079262 94.55815808197269 L 441.5413140235959 94.52992960579566 L 440.4492245853717 94.38717130582499 L 439.34142375610844 94.12498255978714 L 438.23066406771215 93.73972689561576 L 437.1301949774581 93.2291025292585 L 436.05362553188485 92.59219971511524 L 435.01478096126135 91.82954416948705 L 434.02755459917756 90.94312595877204 L 433.10575658044775 89.93641338224492 L 432.2629608156053 88.81435152284021 L 431.51235177132355 87.58334528710972 L 430.86657260272887 86.25122690608096 L 430.33757618555575 84.82720802071199 L 429.9364805833067 83.32181662760767 L 429.6734304570539 81.74681931120864 L 429.55746588342157 80.11512933637866 L 429.59639998990565 78.44070131879585 L 429.7967067464555 76.73841332843902 L 430.1634201687195 75.0239374124269 L 430.70004609222156 73.31359964625202 L 431.40848756879643 71.6242309358532 L 432.2889848177763 69.97300989587238 L 433.3400705357181 68.37729922080982 L 434.55854123099687 66.85447704469958 L 435.9394451045758 65.42176485054466 L 437.4760868469726 64.096053542374 L 439.16004956522073 62.8937293298242 L 440.9812338938723 61.830501097150176 L 442.9279141822429 60.92123093520607 L 444.98681148762864 60.17976950602586 L 447.1431829426159 59.618797885121786 L 449.3809269053385 59.24967748660375 L 451.6827031460945 59.082309620936385 L 454.03006717356465 59.12500616496643 L 456.40361766039433 59.38437273928215 L 458.78315579247214 59.86520568965196 L 461.14785524016605 60.570404058002836 L 463.4764413342917 61.5008976050363 L 465.747377925826 62.655591812148174 L 467.93906031739135 64.03133064593654 L 470.0300125772624 65.62287771546285 L 471.99908748390965 67.42291629187713 L 473.82566730159596 69.42206849340685 L 475.48986355585356 71.60893376748541 L 476.9727139622233 73.97014662745454 L 478.25637466272894 76.49045342535301 L 479.3243059423354 79.15280776636368 L 480.1614496321011 81.9384839961064 L 480.7543964567362 84.82720802071198 L 481.0915416515232 87.79730455305297 L 481.1632272566051 90.82585971816587 L 480.96186959491274 93.88889779827609 L 480.4820705527653 96.96157075435269 L 479.7207114085756 100.01835902815148 L 478.6770280941378 103.03328200752712 L 477.35266692357294 105.98011642960358 L 475.75171998592407 108.83262090227342 L 473.8807395673272 111.56476464542325 L 471.74873114621636 114.15095849010284 L 469.3671246886666 116.5662861272871 L 466.74972415918603 118.78673356850481 L 463.91263535342574 120.78941476884933 L 460.87417235173564 122.552791369039 L 457.6547430845903 124.05688453737628 L 454.27671469093946 125.28347693464508 L 450.76425953683986 126.21630288499624 L 447.1431829426159 126.84122491336234 L 443.44073384065666 127.14639490441834 L 439.68539975118676 127.12239824891478 L 435.9066876184364 126.76237946956002 L 432.134892193113 126.06214795958105 L 428.4008537775932 125.02026262157139 L 424.73570726653577 123.63809436104667 L 421.17062451650855 121.91986556695042 L 417.7365521627032 119.87266589876451 L 414.4639470679688 117.50644389535911 L 411.38251163848076 114.83397412266382 L 408.5209312707595 111.87079978397853 L 405.9066162060103 108.63515092654717 L 403.5654500595789 105.14783858910505 L 401.52154726556927 101.43212544569398 L 399.7970216294004 97.51357370930175 L 398.4117681144692 93.41987126301082 L 397.3832599035326 89.18063718455424 L 396.7263626714355 84.827208020712 L 396.4531678841105 80.39240634913442 L 396.57284680019956 75.91029333530759 L 397.09152669721664 71.41590714991705 L 398.0121906750272 66.94498925534681 L 399.33460220685686 62.533700698106045 L 401.0552554134685 58.21833065536674 L 403.16735183109614 54.03499957738883 L 405.66080422981906 50.01935934244798 L 408.52226781803296 46.20629289612899 L 411.7351989423128 42.62961588183246 L 415.2799411621336 39.321782783574214 L 419.1338383475157 36.31360009529367 L 423.2713742166396 33.633949002775296 L 427.6643375017716 31.309520014945775 L 432.28201170741073 29.36456191094525 L 437.0913882063418 27.82064727835173 L 442.05740120915533 26.696456806829623 L 447.1431829426159 26.007584371001506 L 452.3103371838118 25.766364787407504 L 457.5192291219956 25.98172596408203 L 462.72928936002614 26.659066978761494 L 467.8993297238433 27.800163424403713 L 472.9878684228051 29.40310115005324 L 477.9534619972261 31.462239302751804" fill="none" stroke="#4a0080" stroke-width="1" opacity="0.3" class="drift" />
<path d="M 496.0369305462524 140.07149065135496 L 496.0369305462524 140.07149065135496 L 496.4199609916279 140.1050014731106 L 496.7942350229136 140.20502386320163 L 497.151107323599 140.3700334190705 L 497.4821535884756 140.59750882059987 L 497.7792780812318 140.88396065008334 L 498.0348176867088 141.22497132970796 L 498.24164134293403 141.61524577076378 L 498.3932437833122 142.04867221950997 L 498.4838325751456 142.51839268024813 L 498.50840750644613 143.01688219767968 L 498.4628314481805 143.53603618899754 L 498.3438919029584 144.06726493226773 L 498.14935254294613 144.60159424230136 L 497.87799413860955 145.12977129913628 L 497.52964438483 145.6423745380879 L 497.1051962410258 146.12992646464457 L 496.6066145160983 146.58300822273856 L 496.0369305462524 146.99237472147288 L 495.4002249328952 147.34906911348958 L 494.70159842778565 147.64453541796698 L 493.9471311722437 147.87072809278106 L 493.1438306154054 148.02021738358275 L 492.2995685521019 148.08628931226013 L 491.4230078328404 148.06303921318053 L 490.5235194055066 147.94545778236082 L 489.61109044974864 147.72950867179924 L 488.6962244595729 147.41219673803448 L 487.78983421654317 146.99162613989745 L 486.9031286742856 146.46704757462007 L 486.04749484397047 145.8388940431199 L 485.2343758293802 145.10880464347088 L 484.4751462084665 144.2796360053142 L 483.78098599543995 143.35546109622578 L 483.162754443012 142.3415552527484 L 482.6308649581097 141.24436941280246 L 482.19516240601655 140.07149065135496 L 481.8648040673587 138.8315902463962 L 481.64814548968957 137.53435962626816 L 481.5526324407468 136.1904346710531 L 481.58470012402006 134.81130895890593 L 481.74968075942144 133.40923666178233 L 482.0517205630577 131.99712590288405 L 482.4937070809223 130.58842348927223 L 483.07720774242364 129.19699202650247 L 483.80242040178655 127.83698050688912 L 484.66813652936116 126.52268953826126 L 485.6717176016503 125.26843244506397 L 486.80908511942846 124.08839352770386 L 488.07472455871437 122.99648480855701 L 489.4617034306911 122.00620262356453 L 490.96170349508844 121.13048543646303 L 492.56506703823885 120.38157425816371 L 494.26085699320333 119.77087704645318 L 496.0369305462524 119.30883844100119 L 497.88002574281273 119.00481615570217 L 499.77586047795927 118.8669653048413 L 501.70924313284746 118.90213188176986 L 503.6641940003035 119.11575653911805 L 505.62407653124717 119.51178973859825 L 507.57173732978225 120.09261924679109 L 509.4896537296721 120.85901085170067 L 511.36008769945363 121.81006306414172 L 513.1652447485046 122.94317644910278 L 514.8874364427306 124.25403810611496 L 516.5092450868676 125.73662168541593 L 518.0136890912727 127.38320318947208 L 519.3843875149761 129.1843926683948 L 520.6057222640474 131.12918177419158 L 521.6629964252238 133.20500699389783 L 522.5425872293945 135.39782823672135 L 523.2320921679133 137.69222230670434 L 523.7204668267241 140.07149065135496 L 523.9981530586642 142.51778063951687 L 524.0571961827169 145.01221948968188 L 523.891349979917 147.53505984424316 L 523.4961683484938 150.06583586700816 L 522.8690825849349 152.58352863177188 L 522.0094633721855 155.06673946994377 L 520.9186666802309 157.49386985611164 L 519.6000629168501 159.84330633290494 L 518.0590488062909 162.09360891139346 L 516.3030416198411 164.22370133121763 L 514.3414555335283 166.21306152629438 L 512.1856600431942 168.0419106177444 L 509.8489205246347 169.69139874600447 L 507.34632118501787 171.1437860591545 L 504.6946708100027 172.3826171944059 L 501.9123918675061 173.39288762444784 L 499.0193936825046 174.16120028977494 L 496.0369305462524 174.6759110019446 L 492.987445766489 174.92726118052596 L 489.89440280130543 174.90749657777025 L 486.78210474707106 174.6109707490991 L 483.67550356899716 174.034232143601 L 480.6000005704134 173.17609381596327 L 477.58123969260464 172.0376848986572 L 474.6448953201588 170.62248311965772 L 471.81645633635367 168.9363278053372 L 469.1210082284275 166.98741296917981 L 466.58301508300525 164.78626025329248 L 464.2261033369888 162.34567165996796 L 462.0728491584938 159.68066218335574 L 460.1445713256771 156.8083726251594 L 458.46113144844827 153.74796305172248 L 457.04074333912195 150.52048752139845 L 455.8997932832087 147.1487508792287 L 455.0526728910733 143.65714857920872 L 454.51162612554486 140.071490651355 L 454.2866120003223 136.41881107998995 L 454.3851843298863 132.72716399978793 L 454.8123897844288 129.02540824588039 L 455.5706853640018 125.34298191249766 L 456.6598762557183 121.70966868009381 L 458.077074877581 118.15535776264818 L 459.81668174362545 114.7097994039244 L 461.8703886088856 111.40235791310751 L 464.2272041706412 108.26176427574374 L 466.8735024159662 105.31587040472328 L 469.7930935163024 102.59140710776714 L 472.9673169791927 100.11374784222718 L 476.37515657702585 97.9066803048539 L 479.9933763842828 95.99218786354629 L 483.79667706991575 94.390242780145 L 487.7578714117586 93.11861309836044 L 491.84807782679707 92.19268497941678 L 496.0369305462524 91.62530216052949 L 500.29280490921894 91.42662408866579 L 504.5830561044395 91.60400414503803 L 508.87426955802005 92.16188922545183 L 513.1325210467118 93.10174177909981 L 517.3236445129356 94.4219852348951 L 521.4135054700181 96.11797356131439 L 525.36827781502 98.18198551440383 L 529.1547218128486 100.6032439306037 L 532.7404609796499 103.36796021795745 L 536.0942555762686 106.45940399271998 L 539.1862704241644 109.85799760006802 L 541.9883347767493 113.54143504923626 L 544.4741920186792 117.48482468670626 L 546.6197370240656 121.66085472778322 L 548.4032390815419 126.03998056872513 L 549.8055483891977 130.5906326102411 L 550.8102842349497 135.27944314029818 L 551.4040031071958 140.07149065135494 L 551.5763451257006 144.93055980592308 L 551.3201573425201 149.81941511616222 L 550.631592636235 154.7000862694158 L 549.5101831085121 159.53416291341637 L 547.958887088638 164.28309661346046 L 545.9841090576622 168.90850761017958 L 543.5956920175278 173.37249394145942 L 540.8068820503881 177.63794044629998 L 537.6342650374363 181.6688251425388 L 534.0976757332361 185.43052046475563 L 530.2200796188762 188.89008686359128" fill="none" stroke="#7b2cbf" stroke-width="1" opacity="0.3" class="drift" />
<circle cx="303.572412396668" cy="37.33385009982166" r="1.421863942215634" fill="white" opacity="0.7448996313448837"  style="animation-delay: 0.10035734353966319s" />
<circle cx="717.3863423911612" cy="10.57534042995325" r="0.5426980736545065" fill="white" opacity="0.4715618480319202"  style="animation-delay: 1.432699189998079s" />
<circle cx="453.1183773464523" cy="63.559378031127125" r="1.30244439002686" fill="white" opacity="0.4772525547503788" class="shimmer" style="animation-delay: 4.978371308813675s" />
<circle cx="96.95851621636216" cy="29.782075433775155" r="1.3694978972110525" fill="white" opacity="0.5997192994565768"  style="animation-delay: 4.33753082373612s" />
<circle cx="273.13547731508373" cy="169.5763424494123" r="1.666475228144482" fill="white" opacity="0.3315900695218918" class="shimmer" style="animation-delay: 0.6616357284461827s" />
<circle cx="673.4067822599224" cy="13.784525471363018" r="1.772781692361711" fill="white" opacity="0.43382976233095066"  style="animation-delay: 2.950019003510432s" />
<circle cx="463.29405598561345" cy="160.41240227373183" r="1.137276627462886" fill="white" opacity="0.7621140791103358"  style="animation-delay: 2.47059861766712s" />
<circle cx="505.9838485189923" cy="109.69191379377384" r="1.4065272299791967" fill="white" opacity="0.662548017997119"  style="animation-delay: 2.239464224778244s" />
<circle cx="226.55797127115028" cy="161.5128029523995" r="0.5872384068521866" fill="white" opacity="0.721550150192916"  style="animation-delay: 4.976008600985546s" />
<circle cx="65.62454623492133" cy="78.13283337476413" r="0.9939061063658835" fill="white" opacity="0.6352916065689633"  style="animation-delay: 0.9046456764948196s" />
<circle cx="289.01813981078135" cy="118.63734479636365" r="0.7515488052417" fill="white" opacity="0.5724940871464421"  style="animation-delay: 3.5295282094514246s" />
<circle cx="664.4550247385004" cy="54.553464591380106" r="1.2222215977112918" fill="white" opacity="0.6694617571531631"  style="animation-delay: 2.7185268802898213s" />
<circle cx="765.9669648947402" cy="45.25676441909163" r="1.4905203697207663" fill="white" opacity="0.5287684082325295"  style="animation-delay: 3.7035500517618667s" />
<circle cx="777.946776266664" cy="72.07496400802857" r="1.8268198269099816" fill="white" opacity="0.7371554939678522"  style="animation-delay: 3.1431164761954076s" />
<circle cx="507.6446403948269" cy="153.61475406650925" r="0.8529814520867288" fill="white" opacity="0.7690259275040814"  style="animation-delay: 2.5916403231492913s" />
<circle cx="260.0545077157182" cy="9.711524463139343" r="1.3209737226856497" fill="white" opacity="0.4366732753783353" class="shimmer" style="animation-delay: 2.8655261205059657s" />
<circle cx="125.5604741637299" cy="106.21510124115457" r="1.9183523713998298" fill="white" opacity="0.3562953504481216"  style="animation-delay: 0.9265217847837992s" />
<circle cx="697.6139950074282" cy="1.0717854907299262" r="1.0879600156791631" fill="white" opacity="0.4419888556767089"  style="animation-delay: 1.562199946815651s" />
<circle cx="487.64883103267954" cy="66.69889750762196" r="0.7839996170975649" fill="white" opacity="0.30751797590195035"  style="animation-delay: 0.7329384269492856s" />
<circle cx="790.1316503181461" cy="36.94007304501601" r="1.158843631807466" fill="white" opacity="0.6860920447772945"  style="animation-delay: 4.812642427943862s" />
<circle cx="483.0408727156481" cy="166.35521606760938" r="1.5958819153689845" fill="white" opacity="0.6827919700190008" class="shimmer" style="animation-delay: 0.7289725872586561s" />
<circle cx="691.8860658198813" cy="29.55300490360453" r="1.9085137905809924" fill="white" opacity="0.5533593406611013"  style="animation-delay: 3.7811400455798196s" />
<circle cx="512.4720468621348" cy="189.7052184413828" r="0.6306998036198488" fill="white" opacity="0.7499016065823971"  style="animation-delay: 1.3641215794771022s" />
<circle cx="215.26888885538665" cy="13.288904746697616" r="1.1772154242158306" fill="white" opacity="0.7413798874303705"  style="animation-delay: 0.11067495587849585s" />
<circle cx="98.04897130007468" cy="87.00722358917683" r="1.70125068531495" fill="white" opacity="0.5812674034417427"  style="animation-delay: 4.898914575813839s" />
<circle cx="142.9261473676757" cy="134.64201644259552" r="0.5282294488721567" fill="white" opacity="0.7927852987632473"  style="animation-delay: 1.4783037669445664s" />
<circle cx="148.89455748941742" cy="66.1996171494664" r="0.5988945523106618" fill="white" opacity="0.5298981075049538"  style="animation-delay: 3.5502741113642458s" />
<circle cx="324.06240990422964" cy="47.015355373336206" r="0.535391813316905" fill="white" opacity="0.31986870976629517"  style="animation-delay: 0.09322919045443245s" />
<circle cx="636.4816446866312" cy="17.232104521669058" r="1.8838723647973397" fill="white" opacity="0.7862217969482996"  style="animation-delay: 0.40584498223275034s" />
<circle cx="769.9153044878462" cy="126.37606294395316" r="0.5278723226123525" fill="white" opacity="0.708442193293018"  style="animation-delay: 4.477484839725462s" />
<circle cx="26.14996302610031" cy="86.04255945079693" r="1.6907439250027672" fill="white" opacity="0.3254448865026352"  style="animation-delay: 3.8698316637679486s" />
<circle cx="146.7539857633577" cy="19.519399121361314" r="1.1782391558808487" fill="white" opacity="0.5447849757065952"  style="animation-delay: 0.6904627235503769s" />
<circle cx="40.866787402211635" cy="11.71791858156963" r="0.7426877318846996" fill="white" opacity="0.6108185851074406"  style="animation-delay: 2.4904280084536277s" />
<circle cx="132.506541453105" cy="79.00712944292918" r="1.59505634776492" fill="white" opacity="0.5257307619689617"  style="animation-delay: 0.7100685659977946s" />
<circle cx="793.0891670287536" cy="66.39870530314624" r="0.9012461174099303" fill="white" opacity="0.722635931387523" class="shimmer" style="animation-delay: 0.6540943179711767s" />
<circle cx="179.07121193581918" cy="17.75562898655756" r="1.7127652548148933" fill="white" opacity="0.7766989941067723" class="shimmer" style="animation-delay: 2.8826210667106658s" />
<circle cx="737.3533772147894" cy="16.671906151115266" r="1.5145626055374797" fill="white" opacity="0.642990973421077"  style="animation-delay: 4.42217047069792s" />
<circle cx="420.31639049338185" cy="5.475148922503781" r="1.2018405727155588" fill="white" opacity="0.7550305318131583"  style="animation-delay: 4.926982557708131s" />
<circle cx="73.59790921636566" cy="107.79667815275391" r="0.7690044108001152" fill="white" opacity="0.46634752449477107"  style="animation-delay: 0.8227761804419254s" />
<circle cx="686.6310733183399" cy="94.85191190103718" r="1.5163596381744056" fill="white" opacity="0.4953313653144475"  style="animation-delay: 1.2865605514039191s" />
<circle cx="151.93243818803825" cy="187.77364502635882" r="1.1166407597832078" fill="#7b2cbf" opacity="0.8" filter="url(#glow)" class="shimmer" style="animation-delay: 2.7621176495658517s" />
<circle cx="58.21262618622054" cy="52.575104901947256" r="1.2350555211211867" fill="#c77dff" opacity="0.8" filter="url(#glow)" class="shimmer" style="animation-delay: 1.2389230529452568s" />
<circle cx="231.85356273935636" cy="144.9457312054145" r="1.1760759104490526" fill="#e0aaff" opacity="0.8" filter="url(#glow)" class="shimmer" style="animation-delay: 2.706854586002591s" />
<circle cx="776.0314867391309" cy="73.82915617490964" r="2.537292571805592" fill="#c77dff" opacity="0.8" filter="url(#glow)" class="shimmer" style="animation-delay: 1.2705474677436124s" />
<circle cx="528.8510659080058" cy="87.63894340848877" r="1.11241456070651" fill="#e0aaff" opacity="0.8" filter="url(#glow)" class="shimmer" style="animation-delay: 0.08938511321123244s" />
<circle cx="624.4735888722383" cy="112.26619032942011" r="2.637786531607558" fill="#c77dff" opacity="0.8" filter="url(#glow)" class="shimmer" style="animation-delay: 2.714101404444381s" />
<circle cx="196.7951278961783" cy="65.96392514634952" r="2.5818735667730257" fill="#c77dff" opacity="0.8" filter="url(#glow)" class="shimmer" style="animation-delay: 2.279354728111175s" />
<circle cx="510.44422907868386" cy="13.346348774099592" r="2.3482928563254095" fill="#c77dff" opacity="0.8" filter="url(#glow)" class="shimmer" style="animation-delay: 2.810200792401961s" />
<line x1="118.55518119005919" y1="38.42172490576493" x2="467.70495059878726" y2="165.59391411344617" stroke="#e0aaff" stroke-width="0.5" opacity="0.3" />
<line x1="467.70495059878726" y1="165.59391411344617" x2="217.44745068310743" y2="52.131095408361645" stroke="#e0aaff" stroke-width="0.5" opacity="0.3" />

  
    <text x="400" y="120" text-anchor="middle" class="name-text" fill="url(#textGrad)" filter="url(#textGlow)">
      JOEL HOOKS
    </text>
  
</svg>
