<svg xmlns="http://www.w3.org/2000/svg" viewBox="0 0 800 200" width="800" height="200">
  <rect width="800" height="200" fill="#1a0a0a"/>
  
    <defs>
      <linearGradient id="grad1" x1="0%" y1="0%" x2="100%" y2="100%">
        <stop offset="0%" style="stop-color:#ff4500;stop-opacity:0.8" />
        <stop offset="100%" style="stop-color:#ff6b35;stop-opacity:0.8" />
      </linearGradient>
      <linearGradient id="grad2" x1="100%" y1="0%" x2="0%" y2="100%">
        <stop offset="0%" style="stop-color:#f7c59f;stop-opacity:0.7" />
        <stop offset="100%" style="stop-color:#efa48b;stop-opacity:0.7" />
      </linearGradient>
      <linearGradient id="textGrad" x1="0%" y1="0%" x2="100%" y2="0%">
        <stop offset="0%" style="stop-color:#ff4500" />
        <stop offset="25%" style="stop-color:#ff6b35" />
        <stop offset="50%" style="stop-color:#f7c59f" />
        <stop offset="75%" style="stop-color:#efa48b" />
        <stop offset="100%" style="stop-color:#d4a5a5" />
      </linearGradient>
      <filter id="glow">
        <feGaussianBlur stdDeviation="3" result="coloredBlur"/>
        <feMerge>
          <feMergeNode in="coloredBlur"/>
          <feMergeNode in="SourceGraphic"/>
        </feMerge>
      </filter>
      <filter id="textGlow">
        <feGaussianBlur stdDeviation="2" result="coloredBlur"/>
        <feMerge>
          <feMergeNode in="coloredBlur"/>
          <feMergeNode in="SourceGraphic"/>
        </feMerge>
      </filter>
    </defs>
  
  
    <style>
      @keyframes float {
        0%, 100% { transform: translateY(0px); }
        50% { transform: translateY(-8px); }
      }
      @keyframes pulse {
        0%, 100% { opacity: 0.4; }
        50% { opacity: 0.9; }
      }
      @keyframes drift {
        0% { transform: translateX(0px); }
        50% { transform: translateX(10px); }
        100% { transform: translateX(0px); }
      }
      @keyframes shimmer {
        0% { opacity: 0.3; }
        50% { opacity: 1; }
        100% { opacity: 0.3; }
      }
      @keyframes glitch {
        0%, 100% { transform: translateX(0); }
        20% { transform: translateX(-2px); }
        40% { transform: translateX(2px); }
        60% { transform: translateX(-1px); }
        80% { transform: translateX(1px); }
      }
      @keyframes dataStream {
        0% { stroke-dashoffset: 0; }
        100% { stroke-dashoffset: -20; }
      }
      .float { animation: float 8s ease-in-out infinite; }
      .pulse { animation: pulse 8s ease-in-out infinite; }
      .drift { animation: drift 8s ease-in-out infinite; }
      .shimmer { animation: shimmer 3s ease-in-out infinite; }
      .glitch { animation: glitch 0.5s ease-in-out infinite; }
      .dataStream { animation: dataStream 2s linear infinite; }
      .name-text { 
        font-family: -apple-system, BlinkMacSystemFont, 'Segoe UI', Helvetica, Arial, sans-serif;
        font-weight: 700;
        font-size: 64px;
        letter-spacing: -2px;
      }
    </style>
  
  <rect x="0" y="160" width="800" height="50" fill="#ff4500" opacity="0.3" />
<rect x="0" y="170" width="800" height="40" fill="#ff6b35" opacity="0.25" />
<rect x="0" y="180" width="800" height="30" fill="#f7c59f" opacity="0.19999999999999998" />
<rect x="0" y="190" width="800" height="20" fill="#efa48b" opacity="0.14999999999999997" />
<rect x="0" y="200" width="800" height="10" fill="#d4a5a5" opacity="0.09999999999999998" />
<line x1="405.8848678342322" y1="170" x2="405.8848678342322" y2="257.93775722272903" stroke="#ff4500" stroke-width="2.752936476676989" opacity="0.12820603488845253" class="pulse" />
<line x1="405.8848678342322" y1="170" x2="439.5812936243738" y2="295.7567730822829" stroke="#ff4500" stroke-width="2.1738579327143652" opacity="0.14260568836252507" class="pulse" />
<line x1="405.8848678342322" y1="170" x2="474.59917009951687" y2="289.0166627301183" stroke="#ff4500" stroke-width="1.2771379425774851" opacity="0.1835554506207798" class="pulse" />
<line x1="405.8848678342322" y1="170" x2="477.8861095747859" y2="242.0012417405537" stroke="#ff4500" stroke-width="2.1402727857576567" opacity="0.20357993493684157" class="pulse" />
<line x1="405.8848678342322" y1="170" x2="484.7035745080739" y2="215.5060015153207" stroke="#ff4500" stroke-width="2.4554102631314905" opacity="0.12426494481052314" class="pulse" />
<line x1="405.8848678342322" y1="170" x2="510.6885693873071" y2="198.08206719493884" stroke="#ff4500" stroke-width="1.0358854417127343" opacity="0.12268131837658101" class="pulse" />
<line x1="405.8848678342322" y1="170" x2="525.9629008073655" y2="170" stroke="#ff4500" stroke-width="1.2803258118072627" opacity="0.10862290211746531" class="pulse" />
<line x1="405.8848678342322" y1="170" x2="546.4445699552842" y2="132.33714132830497" stroke="#ff4500" stroke-width="1.5629538713139626" opacity="0.14604405439270945" class="pulse" />
<line x1="405.8848678342322" y1="170" x2="522.1483917021727" y2="102.87522319791007" stroke="#ff4500" stroke-width="2.1763068233669136" opacity="0.13970132788153808" class="pulse" />
<line x1="405.8848678342322" y1="170" x2="488.4318662129453" y2="87.45300162128692" stroke="#ff4500" stroke-width="1.7721466630194311" opacity="0.10372533503008362" class="pulse" />
<line x1="405.8848678342322" y1="170" x2="464.36924400008553" y2="68.7020890317718" stroke="#ff4500" stroke-width="1.2847530017790598" opacity="0.13519119157384724" class="pulse" />
<line x1="405.8848678342322" y1="170" x2="437.70286045590245" y2="51.25363494107499" stroke="#ff4500" stroke-width="1.1735972521945732" opacity="0.14407157183897054" class="pulse" />
<path d="M 253.5214581894876 65.6294307996709 C 251.50580601715052 77.08772856880603, 237.73830574421171 87.8360854752371, 228.91608789707772 93.95736759006505 C 220.09387004994372 100.078649704893, 211.19161507637017 101.19630511575008, 200.58815110668357 102.35712348863862 C 189.98468713699697 103.51794186152716, 172.19772354775418 107.04355994222425, 165.29530407895817 100.9222778273963 C 158.39288461016216 94.80099571256835, 157.76224334725526 75.98232219559378, 159.17363429390753 65.6294307996709 C 160.5850252405598 55.276539403748025, 166.8612302900757 44.28896261448615, 173.7636497588717 38.80492945185904 C 180.66606922766772 33.320896289231925, 189.38042591131216 34.99145657000901, 200.58815110668357 32.72523182390822 C 211.79587630205498 30.459007077807428, 232.18778308396614 19.723547812627196, 241.01000093110014 25.20758097525431 C 249.83221877823414 30.691614137881423, 255.53711036182466 54.17113303053578, 253.5214581894876 65.6294307996709 Z" fill="#f7c59f" opacity="0.1558031898094529" class="drift" />
<path d="M 128.7888079626502 47.618185001343015 C 129.37178262855585 61.349890027086154, 129.53785019866754 82.18993295172807, 121.09885083088174 90.5622240762894 C 112.65985146309593 98.93451520085073, 89.7035942165213 100.6178289797738, 78.15481175593536 97.85193174871095 C 66.60602929534942 95.0860345176481, 61.51696062292663 82.3391318144736, 51.8061560673661 73.96684068991227 C 42.095351511805575 65.59454956535095, 21.097208888559244 57.60829469685318, 19.88998442257217 47.61818500134302 C 18.682759956585095 37.628075305832866, 34.85200471588312 23.484315645421365, 44.56280927144365 14.026182516851314 C 54.273613827004176 4.568049388281263, 65.98177949526799 -8.154915670907155, 78.15481175593534 -9.130613770077282 C 90.3278440166027 -10.10631186924741, 109.16200346766199 -1.2861392067395006, 117.6010028354478 8.171993921830548 C 126.04000220323361 17.630127050400596, 128.20583329674454 33.886479975599876, 128.7888079626502 47.618185001343015 Z" fill="#f7c59f" opacity="0.20190950596995605" class="drift" />
<path d="M 570.8422970954908 47.99094981481561 C 571.8020416447288 52.87492763806242, 570.1588664502096 58.560701123816706, 566.5159468976625 65.5221169322698 C 562.8730273451154 72.4835327407229, 554.6860328497607 89.90191396846646, 548.9847797802083 89.75944466553415 C 543.2835267106559 89.61697536260183, 538.6317411792336 71.62871692312905, 532.308428480348 64.66730111467596 C 525.9851157814624 57.705885306222875, 510.8814766620472 53.386306656588154, 511.04490358689475 47.990949814815615 C 511.2083305117423 42.595592973043075, 526.9656773305478 35.408543442870126, 533.2889900294334 32.29516006404074 C 539.612302728319 29.18177668521136, 544.4066981847413 28.65680122038128, 548.9847797802083 29.31064954183931 C 553.5628613756753 29.964497863297343, 557.114560049688 33.10486661395955, 560.757479602235 36.218249992788934 C 564.400399154782 39.33163337161832, 569.8825525462529 43.1069719915688, 570.8422970954908 47.99094981481561 Z" fill="#f7c59f" opacity="0.2121956526524577" class="drift" />
<path d="M 358.68274585267324 46.018541156616955 C 357.84036650203745 54.55909751914231, 355.18193682801035 65.50567021369619, 349.86286881594407 69.11307219228559 C 344.5438008038778 72.72047417087498, 333.4343684167651 68.69509940355319, 326.76833778027543 67.66295302815334 C 320.10230714378577 66.63080665275349, 313.3560549512623 66.52759591847588, 309.8666849970059 62.92019393988648 C 306.3773150427495 59.31279196129708, 307.6648418556152 53.485149218584915, 305.83211805473707 46.018541156616955 C 303.99939425385895 38.551933094648994, 295.38097223748076 22.189779543186564, 298.87034219173717 18.12054556807872 C 302.35971214599357 14.05131159297088, 317.4272039922718 21.64493923112746, 326.76833778027543 21.60313730596991 C 336.10947156827905 21.56133538081236, 349.59807690769264 13.800500042025586, 354.9171449197589 17.86973401713343 C 360.2362129318252 21.93896799224127, 359.525125203309 37.4779847940916, 358.68274585267324 46.018541156616955 Z" fill="#f7c59f" opacity="0.21339345044885058" class="drift" />
<path d="M 531.2493430509343 41.07545090887477 L 542.6129742753456 35.39363529666913 L 553.9766054997568 41.07545090887477" fill="none" stroke="#d4a5a5" stroke-width="1.5" opacity="0.4" class="float" style="animation-delay: 2.603635120060603s" />
<path d="M 64.25958273974209 65.56601908824103 L 75.74426829464662 59.82367631078878 L 87.22895384955115 65.56601908824103" fill="none" stroke="#d4a5a5" stroke-width="1.5" opacity="0.4" class="float" style="animation-delay: 0.946754721965037s" />
<path d="M 286.2546341469885 32.20490167474726 L 294.60405410262433 28.030191696929364 L 302.95347405826016 32.20490167474726" fill="none" stroke="#d4a5a5" stroke-width="1.5" opacity="0.4" class="float" style="animation-delay: 2.303854326689306s" />
<path d="M 390.6213481267338 24.80426243336312 L 396.64492909716796 21.792471948146044 L 402.66851006760214 24.80426243336312" fill="none" stroke="#d4a5a5" stroke-width="1.5" opacity="0.4" class="float" style="animation-delay: 1.1792604714914203s" />
<path d="M 390.0205128585239 40.38274653939653 L 398.4268869483037 36.17955949450661 L 406.83326103808355 40.38274653939653" fill="none" stroke="#d4a5a5" stroke-width="1.5" opacity="0.4" class="float" style="animation-delay: 0.9964443770402813s" />

  
    <text x="400" y="120" text-anchor="middle" class="name-text" fill="url(#textGrad)" filter="url(#textGlow)">
      JOEL HOOKS
    </text>
  
</svg>
