<svg xmlns="http://www.w3.org/2000/svg" viewBox="0 0 800 200" width="800" height="200">
  <rect width="800" height="200" fill="#05010d"/>
  
    <defs>
      <linearGradient id="grad1" x1="0%" y1="0%" x2="100%" y2="100%">
        <stop offset="0%" style="stop-color:#4a0080;stop-opacity:0.8" />
        <stop offset="100%" style="stop-color:#7b2cbf;stop-opacity:0.8" />
      </linearGradient>
      <linearGradient id="grad2" x1="100%" y1="0%" x2="0%" y2="100%">
        <stop offset="0%" style="stop-color:#9d4edd;stop-opacity:0.7" />
        <stop offset="100%" style="stop-color:#c77dff;stop-opacity:0.7" />
      </linearGradient>
      <linearGradient id="textGrad" x1="0%" y1="0%" x2="100%" y2="0%">
        <stop offset="0%" style="stop-color:#4a0080" />
        <stop offset="25%" style="stop-color:#7b2cbf" />
        <stop offset="50%" style="stop-color:#9d4edd" />
        <stop offset="75%" style="stop-color:#c77dff" />
        <stop offset="100%" style="stop-color:#e0aaff" />
      </linearGradient>
      <filter id="glow">
        <feGaussianBlur stdDeviation="5" result="coloredBlur"/>
        <feMerge>
          <feMergeNode in="coloredBlur"/>
          <feMergeNode in="SourceGraphic"/>
        </feMerge>
      </filter>
      <filter id="textGlow">
        <feGaussianBlur stdDeviation="2" result="coloredBlur"/>
        <feMerge>
          <feMergeNode in="coloredBlur"/>
          <feMergeNode in="SourceGraphic"/>
        </feMerge>
      </filter>
    </defs>
  
  
    <style>
      @keyframes float {
        0%, 100% { transform: translateY(0px); }
        50% { transform: translateY(-8px); }
      }
      @keyframes pulse {
        0%, 100% { opacity: 0.4; }
        50% { opacity: 0.9; }
      }
      @keyframes drift {
        0% { transform: translateX(0px); }
        50% { transform: translateX(10px); }
        100% { transform: translateX(0px); }
      }
      @keyframes shimmer {
        0% { opacity: 0.3; }
        50% { opacity: 1; }
        100% { opacity: 0.3; }
      }
      @keyframes glitch {
        0%, 100% { transform: translateX(0); }
        20% { transform: translateX(-2px); }
        40% { transform: translateX(2px); }
        60% { transform: translateX(-1px); }
        80% { transform: translateX(1px); }
      }
      @keyframes dataStream {
        0% { stroke-dashoffset: 0; }
        100% { stroke-dashoffset: -20; }
      }
      .float { animation: float 8s ease-in-out infinite; }
      .pulse { animation: pulse 8s ease-in-out infinite; }
      .drift { animation: drift 8s ease-in-out infinite; }
      .shimmer { animation: shimmer 3s ease-in-out infinite; }
      .glitch { animation: glitch 0.5s ease-in-out infinite; }
      .dataStream { animation: dataStream 2s linear infinite; }
      .name-text { 
        font-family: -apple-system, BlinkMacSystemFont, 'Segoe UI', Helvetica, Arial, sans-serif;
        font-weight: 700;
        font-size: 64px;
        letter-spacing: -2px;
      }
    </style>
  
  <path d="M 436.63524214471875 157.9977346166853 C 435.3820642328283 175.9920747669589, 398.1280544524916 193.64347283095714, 383.1038290496348 209.56464944324222 C 368.07960364677797 225.4858260555273, 362.89384803116263 241.04045611115933, 346.4898897275779 253.52479429039573 C 330.0859314239932 266.00913246963216, 304.9987338377567 285.33401023226, 284.6800792281266 284.47067851866063 C 264.3614246184965 283.60734680506124, 241.8997812433153 263.447595815195, 224.57796206979748 248.34480400879923 C 207.25614289627967 233.2420122024035, 185.17180043495767 214.04152522525868, 180.74916418701974 193.8539276802862 C 176.3265279390818 173.66633013531373, 189.23430329246332 146.51849329145995, 198.04214458216995 127.21921873896434 C 206.84998587187658 107.91994418646874, 218.5597447298434 89.85643709306798, 233.59621192525952 78.05828036531256 C 248.63267912067565 66.26012363755713, 269.9174907068092 57.994335360342106, 288.2609477546667 56.43027837243177 C 306.6044048025242 54.86622138452144, 326.5966294180193 61.145883409655724, 343.6569542124044 68.67393843785055 C 360.7172790067895 76.20199346604538, 375.12651519892495 86.71130917846163, 390.62289652097735 101.59860854160075 C 406.11927784302975 116.48590790473988, 437.88842005660916 140.00339446641172, 436.63524214471875 157.9977346166853 Z" fill="#4a0080" opacity="0.12400046971249462" filter="url(#glow)" class="float" />
<path d="M 217.3208638570817 68.12387360293988 C 218.29967695357283 74.50266673936221, 159.3115072977108 77.31376547730613, 147.65207177782375 89.14738795537531 C 135.9926362579367 100.98101043344448, 154.56907211953714 130.43980922676565, 147.3642507377595 139.1256084713549 C 140.15942935598187 147.81140771594414, 118.65701622414505 142.90585994813716, 104.42314348715789 141.2621834229107 C 90.18927075017072 139.61850689768426, 70.63699617539886 138.3911547427257, 61.96101431583652 129.26354931999614 C 53.28503245627418 120.13594389726661, 53.85303602709783 99.71537806194077, 52.36725232978386 86.4965508865335 C 50.88146863246989 73.27772371112623, 46.29269989845858 57.253859688593565, 53.04631213195271 49.95058626755254 C 59.79992436544684 42.64731284651151, 85.09446778790755 57.18172017627717, 92.88892573074864 42.67691036028734 C 100.68338367358973 28.172100544297507, 89.72693384705266 -27.280996051540946, 99.81305978899927 -37.07827262838643 C 109.89918573094587 -46.87554920523191, 146.4113258141153 -30.765566061656862, 153.40568138242824 -16.106749100785564 C 160.4000369507412 -1.4479321399142666, 131.1266627864347 36.836192019553785, 141.77919319887695 50.87462913684136 C 152.4317236113192 64.91306625412894, 216.34205076059055 61.74508046651756, 217.3208638570817 68.12387360293988 Z" fill="#9d4edd" opacity="0.2216100284010559" filter="url(#glow)" class="float" />
<path d="M 295.7474051952179 171.12849530080152 C 289.12998764367995 191.05516362264845, 295.69687855147924 196.4434213652945, 292.94912507428137 218.1502321763357 C 290.2013715970835 239.85704298737687, 294.32601796880334 289.24091150616994, 279.2608843320307 301.3693601670486 C 264.195750695258 313.4978088279273, 220.32783786334693 303.56102802813757, 202.5583232536455 290.92092414160777 C 184.7888086439441 278.28082025507797, 189.7602920377925 239.62540333431647, 172.6437966738221 225.52873684786982 C 155.52730130985168 211.43207036142317, 107.53887201428782 219.96937435296934, 99.85935106982306 206.3409252229279 C 92.17983012535831 192.71247609288645, 115.07954519391885 159.43625875753375, 126.56667100703352 143.7580420676212 C 138.0537968201482 128.07982537770866, 156.14737739544836 127.88774549406203, 168.7821059485111 112.27162508345258 C 181.41683450157382 96.65550467284312, 185.97148982594865 57.558291708544466, 202.3750423254099 50.06131960396448 C 218.77859482487116 42.56434749938449, 245.49032293559537 59.201642015757706, 267.20342094527854 67.28979245597263 C 288.9165189549617 75.37794289618756, 327.8962996751857 81.28377177111588, 332.65363038350887 98.59022224525403 C 337.41096109183206 115.89667271939217, 302.3648227467558 151.20182697895459, 295.7474051952179 171.12849530080152 Z" fill="#e0aaff" opacity="0.19454215575732775" filter="url(#glow)" class="float" />
<path d="M 873.5177866008249 123.12967218879729 C 876.857919212765 141.4397367546063, 883.8861877997183 173.36033743372533, 872.965726960564 184.49958455100793 C 862.0452661214097 195.63883166829052, 825.2489241806588 190.88519784413973, 807.9950215658987 189.96515489249285 C 790.7411189511386 189.04511194084597, 783.5140534468514 179.74977150525893, 769.4423112720028 178.9793268411266 C 755.3705690971542 178.20888217699428, 732.9247858216229 191.50938634245608, 723.5645685168073 185.34248690769886 C 714.2043512119917 179.17558747294163, 715.0109660421435 155.49281637389635, 713.2810074431093 141.97793023258333 C 711.551048844075 128.46304409127032, 715.1982781487148 122.06498399927844, 713.184816922602 104.25317005982076 C 711.1713556964891 86.44135612036308, 693.4352289005001 52.47564423658754, 701.200240086432 35.10704659583723 C 708.965251272364 17.73844895508692, 738.888083106997 3.2714494441866457, 759.7748840381932 0.04158421531887768 C 780.6616849693895 -3.1882810135488904, 810.9960377984881 3.294919732491449, 826.5210456736098 15.727855222630623 C 842.0460535487315 28.160790712769796, 845.0921411343877 56.73889432845948, 852.9249312889235 74.63919715615393 C 860.7577214434593 92.53949998384837, 870.1776539888849 104.81960762298829, 873.5177866008249 123.12967218879729 Z" fill="#9d4edd" opacity="0.23522864803213137" filter="url(#glow)" class="float" />
<path d="M 177.73193891962396 147.44254642059445 L 177.73193891962396 147.44254642059445 L 178.35723126175967 147.4972524119209 L 178.96822886899625 147.6605376946475 L 179.55081837182325 147.92991370094083 L 180.09124719887657 148.30126440770022 L 180.576299163347 148.76889338479413 L 180.99346432696865 149.32558899249372 L 181.3311013215511 149.9627070656648 L 181.57859038191702 150.67027024387212 L 181.72647543518275 151.43708293615325 L 181.76659369872104 152.25086074846078 L 181.69219136187735 153.09837305219423 L 181.4980240634225 153.96559723528387 L 181.18044102654312 154.83788305427436 L 180.73745187449413 155.70012539797858 L 180.16877532135578 156.5369436815909 L 179.47586911204826 157.33286601557282 L 178.66194077217355 158.07251623690132 L 177.73193891962396 158.74080185199006 L 176.69252508442148 159.3231009211727 L 175.5520261790936 159.80544591431743 L 174.3203679571994 160.17470258598948 L 173.00898999054226 160.4187419564838 L 171.63074288430545 160.52660354172045 L 170.1997686320269 160.48864804997325 L 168.73136518722987 160.2966978560485 L 167.24183649397156 159.94416367304694 L 165.7483293729476 159.4261559672708 L 164.2686588015982 158.73957980206626 L 162.82112325449728 157.88321195017159 L 161.42431188290044 156.8577592800908 L 160.0969054085411 155.66589759863243 L 158.85747268560306 154.31229031744056 L 157.72426494543177 152.80358650440445 L 156.7150097802949 151.1483980794961 L 155.84670694487454 149.3572561170201 L 155.13542805683275 147.44254642059445 L 154.59612226060312 145.4184247415159 L 154.24242988155032 143.30071221358673 L 154.08650604103318 141.10677177609173 L 154.13885612709782 138.85536654953683 L 154.408184921095 136.56650131415714 L 154.90126106821106 134.26124841729958 L 155.62279845064302 131.96155960087665 L 156.57535587701207 129.69006539256733 L 157.75925634183002 127.46986384280054 L 159.1725269357774 125.3243005124093 L 160.81086030272309 123.27674172194087 L 162.66759834442982 121.35034316183686 L 164.73373867046715 119.56781603210864 L 166.9979640808019 117.95119292993681 L 169.4466951537358 116.52159573320651 L 172.06416579424496 115.29900773691472 L 174.83252137932226 114.30205228740246 L 177.73193891962396 113.54778012640766 L 180.74076844257854 113.05146760313107 L 183.83569459310903 112.82642783817013 L 186.99191724620488 112.88383682880792 L 190.18334973265752 113.23257637143158 L 193.3828330971801 113.87909554466255 L 196.56236463861663 114.82729234714745 L 199.69333882666552 116.07841691808659 L 202.74679855002583 117.63099758782315 L 205.69369452853545 119.48079081168297 L 208.50515061796852 121.62075583437316 L 211.15273265180446 124.04105471636983 L 213.60871840041563 126.72907812970251 L 215.84636618551272 129.6694971003188 L 217.84017966691835 132.84434063979648 L 219.56616632020766 136.2330989726281 L 221.00208714765435 139.81285182873808 L 222.12769521125853 143.55842103641672 L 222.92496064520634 147.44254642059445 L 223.3782798955299 151.4360837874251 L 223.47466704639896 155.50822356055684 L 223.20392522460622 159.6267284292535 L 222.55879622542358 163.75818817560398 L 221.5350866729588 167.86828966926942 L 220.13176921510507 171.92209985528487 L 218.35105745565872 175.88435941495976 L 216.19845354255466 179.71978465337105 L 213.68276755965306 183.39337506062347 L 210.81610810822 186.87072390909842 L 207.61384371117234 190.11832918630185 L 204.09453492621367 193.10390212342026 L 200.27983731101844 195.79667056388618 L 196.19437564239792 198.1676744245256 L 191.86559004966847 200.1900505343739 L 187.32355497795766 201.83930419297553 L 182.60077214767782 203.09356487067157 L 177.73193891962399 203.93382357757244 L 172.7536937089173 204.34414955494296 L 167.70434031318422 204.31188409172012 L 162.62355322888675 203.82780943877248 L 157.55206622263853 202.88629098303085 L 152.53134659983021 201.4853910513323 L 147.60325776923574 199.6269529381097 L 142.80971283793497 197.31665399015617 L 138.19232208447266 194.56402683368464 L 133.7920372484773 191.38244809174105 L 129.64879564096063 187.78909421156527 L 125.80116712038969 183.8048642994666 L 122.28600699476405 179.45427014288197 L 119.13811789892927 174.76529388310772 L 116.38992365905604 169.76921408534432 L 114.07115809264877 164.50040123271717 L 112.2085716028922 158.9960839454055 L 110.82565831110428 153.2960874925243 L 109.94240633125037 147.44254642059448 L 109.57507362683289 141.47959336601176 L 109.73599170414761 135.4530263476774 L 110.4333991882502 129.40995704777896" fill="none" stroke="#9d4edd" stroke-width="1" opacity="0.3" class="drift" />
<path d="M 518.9345008988203 111.10712602850717 L 518.9345008988203 111.10712602850717 L 519.272571365807 111.13670336184143 L 519.6029132434969 111.22498515911228 L 519.917895999578 111.37062595159593 L 520.2100841708116 111.57140037083991 L 520.4723322955548 111.82422858575568 L 520.6978767523996 112.12521155225365 L 520.8804235209088 112.46967571726638 L 521.0142309203826 112.85222672254841 L 521.0941864318272 113.26681156151415 L 521.1158767663718 113.70678855546004 L 521.0756504097276 114.16500443464633 L 520.9706719463132 114.6338777356657 L 520.7989675476664 115.10548766001695 L 520.5594610969848 115.57166748047693 L 520.2520005142641 116.02410153229593 L 519.8773739436612 116.45442478592062 L 519.4373155655026 116.85432396728162 L 518.9345008988203 117.21563917098602 L 518.3725315654694 117.53046490125509 L 517.7559095927692 117.791249475274 L 517.0900014371989 117.99089173381144 L 516.3809920159902 118.12283402445965 L 515.6358291354771 118.181150453486 L 514.8621588038344 118.16062944282423 L 514.0682520103945 118.05684967882345 L 513.2629236431862 117.86624859858465 L 512.4554442997993 117.58618262752809 L 511.65544582335224 117.21497845765151 L 510.87282146445335 116.75197473908106 L 510.1176216309239 116.19755364723954 L 509.3999462390662 115.55316188344793 L 508.7298347228894 114.82132076716913 L 508.11715479048496 114.00562518248356 L 507.57149103931664 113.11073124879395 L 507.1020345542846 112.14233269520606 L 506.7174746138625 111.10712602850717 L 506.4258936203112 110.01276469513977 L 506.2346663499633 108.86780254701017 L 506.15036458896947 107.68162702835326 L 506.17866817890666 106.46438260517972 L 506.32428344559713 105.2268850590694 L 506.5908699237654 103.98052736228183 L 506.98097622027626 102.73717794041485 L 507.4959857802276 101.50907221128034 L 508.1360732337854 100.3086983634723 L 508.9001719080831 99.14867840452395 L 509.7859529885798 98.04164556591255 L 510.78981670884843 97.00011919987303 L 511.9068958377849 96.03637834050879 L 513.1310716196609 95.16233512861517 L 514.4550022063113 94.38940931562536 L 515.8701635030875 93.72840506691341 L 517.3669022321047 93.18939127821034 L 518.9345008988203 92.7815866010706 L 520.5612542322042 92.51325034423688 L 522.2345565557632 92.39158037756005 L 523.9409994375068 92.42261911410984 L 525.666478862645 92.61116858463244 L 527.3963110743526 92.96071554703973 L 529.1153561362851 93.47336749271449 L 530.8081481865792 94.14980032173541 L 532.4590312776398 94.98921836139934 L 534.052299629869 95.98932729745835 L 535.5723410713186 97.14632047617722 L 537.0037823896427 98.45487891860016 L 538.3316352881922 99.90818526729592 L 539.5414416150629 101.49795176137714 L 540.6194165226734 103.21446220885052 L 541.5525882162486 105.04662779746563 L 542.3289329625042 106.98205645732845 L 542.9375040548782 109.00713536177511 L 543.3685534687357 111.10712602850717 L 543.6136449888518 113.26627136190774 L 543.6657576518576 115.46791386089605 L 543.5193784177641 117.69462410572622 L 543.1705830666561 119.92833853282931 L 542.617104408532 122.1505054101342 L 541.8583869953508 124.34223783721134 L 540.8956276338197 126.4844725159326 L 539.7318011144432 128.55813296891958 L 538.371670695883 130.54429582556992 L 536.821783012743 132.42435874952074 L 535.0904472083938 134.18020854755724 L 533.1876982312709 135.79438797861692 L 531.1252443720449 137.25025977299416 L 528.9163992589743 138.5321663763214 L 526.5759986683944 139.62558395048202 L 524.1203026454449 140.5172691942812 L 521.5668835655689 141.19539759032637 L 518.9345008988203 141.64969174090146 L 516.2429635654031 141.8715385242998 L 513.5129808909854 141.8540938836346 L 510.76600328306864 141.59237415199755 L 508.0240538540008 141.08333292030414 L 505.3095523110986 140.32592256646325 L 502.64513251887666 139.32113968577545 L 500.0534552117283 138.0720537917344 L 497.55701739681507 136.58381879264536 L 495.1779600357435 134.86366689158388 L 492.93787562929157 132.92088470402274 L 490.85761735154244 130.7667715377473 L 488.9571113879727 128.41457993219726 L 487.25517412608895 125.87943870782645 L 485.76933582704487 123.17825892915852 L 484.51567237229887 120.32962333661386 L 483.5086466309561 117.35365995057775 L 482.7609609312399 114.27190069527238 L 482.2834220439471 111.10712602850718 L 482.08481999726644 107.88319669507348 L 482.17182194160273 104.6248738452264 L 482.5488821707834 101.35762887422291 L 483.21816928306214 98.10744444319036 L 484.1795113326199 94.90060823469089 L 485.4303596808142 91.7635010773241 L 486.9657721073653 88.72238114174868 L 488.7784155861669 85.80316596490918 L 490.8585889697296 83.0312140994165 L 493.19426566171194 80.43110821046324 L 495.77115618991354 78.02644145300167 L 498.57279042389075 75.83960895692181 L 501.58061901340636 73.89160622753155 L 504.77413345767155 72.20183623277066 L 508.13100405218097 70.78792689743926 L 511.6272348013037 69.66556065855283 L 515.2373342320385 68.8483176551656 L 518.9345008988203 68.34753403115516 L 522.6908222322705 68.17217672119214 L 526.477485257547 68.32873596919947 L 530.264997591637 68.82113669592374 L 534.0234170246345 69.65066968878794 L 537.7225878987311 70.81594343406248 L 541.3323824212426 72.31285724976325 L 544.8229449852454 74.13459620882452 L 548.1649375240111 76.27164816733861 L 551.3297838939249 78.71184303340257 L 554.2899112653794 81.44041422980607 L 557.0189865025535 84.4400821199339 L 559.4921455311434 87.69115898233822 L 561.6862137280402 91.17167493699861 L 563.5799154185179 94.85752404686103 L 565.1540706344347 98.72262964333531 L 566.3917773708647 102.73912775554467 L 567.2785776779231 106.87756736170888 L 567.8026060386511 111.10712602850714 L 567.9547186118965 115.395839361974 L 567.7286020602181 119.7108425626799 L 567.1208608359502 124.0186222598565 L 566.1310819625006 128.28527669481866 L 564.7618765215092 132.47678223451277 L 563.018897238302 136.55926412216903 L 560.9108317467307 140.49926931459876 L 558.4493713085039 144.26403921529078 L 555.6491549599389 147.82178008962566 L 552.5276892591141 151.14192894358143 L 549.10524400706 154.19541266046818 L 545.4047245162287 156.95489822156807 L 541.4515211964234 159.39503188597138 L 537.2733374209637 161.4926652721659 L 532.8999968225248 163.2270663686681 L 528.3632313472287 164.5801136026418 L 523.6964515656352 165.5364712133711 L 518.9345008988204 166.08374431081688 L 514.1133955653369 166.21261214734457 L 509.2700521892017 165.91693829199517 L 504.44200512893826 165.1938565701836 L 499.6671156920114 164.04383181614864 L 494.9832754867201 162.47069467944047 L 490.4281062339189 160.48164992872665 L 486.03865841306214 158.08725790464533 L 481.8511111504439 155.3013889867061 L 477.90047577168775 152.14115115563965 L 474.2203054352309 148.62679095039397 L 470.84241323863154 144.78156833641347 L 467.7966011450215 140.63160621715497 L 465.11040201311175 136.2057155322051 L 462.8088369312004 131.53519709114792 L 460.91418995411277 126.65362149074419 L 459.4458022225955 121.59658865236167 L 458.41988730819514 116.4014686953387 L 457.8493694740317 111.10712602850721 L 457.7437463742217 105.75362869500731 L 458.1089775332421 100.38194514344264 L 458.9473997525973 95.0336307200927 L 460.2576703872177 89.75050628120098 L 462.0347392196427 84.5743314103123 L 464.26984943786294 79.54647479236647" fill="none" stroke="#4a0080" stroke-width="1" opacity="0.3" class="drift" />
<circle cx="378.1848756052657" cy="150.56797692751923" r="1.91913681539249" fill="white" opacity="0.7220283067221509"  style="animation-delay: 2.8097042131762007s" />
<circle cx="185.48025361653728" cy="140.3396136258244" r="0.8580693084940795" fill="white" opacity="0.6633437128546347"  style="animation-delay: 2.128379126223905s" />
<circle cx="406.45888629414577" cy="176.5437378612299" r="1.837939774441698" fill="white" opacity="0.4358865727541891" class="shimmer" style="animation-delay: 4.000467829065183s" />
<circle cx="743.4134858255222" cy="59.327922274681775" r="1.37966928273265" fill="white" opacity="0.47966371589206064"  style="animation-delay: 3.3633171070900625s" />
<circle cx="41.92132750322504" cy="97.41024654018898" r="1.8166773739173887" fill="white" opacity="0.7951606470961357"  style="animation-delay: 3.36222912440176s" />
<circle cx="48.036324605077674" cy="116.85779606120504" r="1.8164824506131585" fill="white" opacity="0.38969795093861986"  style="animation-delay: 1.0107458909728573s" />
<circle cx="54.80166064477672" cy="188.5746914112601" r="1.1636242095859488" fill="white" opacity="0.4319543779667692"  style="animation-delay: 3.3013664224923156s" />
<circle cx="48.056402023388856" cy="128.24728510429034" r="1.8015051707674345" fill="white" opacity="0.6682993844444596"  style="animation-delay: 0.9325031259731265s" />
<circle cx="198.5677408605575" cy="66.46649626173469" r="0.8549146983910941" fill="white" opacity="0.48609172329285005"  style="animation-delay: 1.0202300576863088s" />
<circle cx="328.3321389637173" cy="74.95889690399413" r="1.0871300679894675" fill="white" opacity="0.5276915167115674" class="shimmer" style="animation-delay: 3.379794379924471s" />
<circle cx="705.9255810416232" cy="112.0619240793952" r="1.4270061147126483" fill="white" opacity="0.5267875518210725"  style="animation-delay: 4.232739789192269s" />
<circle cx="202.70156132643928" cy="80.16428937786193" r="1.9448102979236954" fill="white" opacity="0.5500027028865475"  style="animation-delay: 4.800228093793011s" />
<circle cx="641.215774774228" cy="134.2908519384205" r="1.0299160308032222" fill="white" opacity="0.5207442909818487"  style="animation-delay: 2.024613384444467s" />
<circle cx="272.1948868454643" cy="23.154596710952013" r="0.6248706653467254" fill="white" opacity="0.6937400519904091"  style="animation-delay: 1.0540805916695994s" />
<circle cx="230.4982862003559" cy="152.55398149556294" r="1.3417387044871996" fill="white" opacity="0.6481429656424886"  style="animation-delay: 3.57138783371333s" />
<circle cx="94.07807402283251" cy="16.500395337982575" r="1.630963943434864" fill="white" opacity="0.30886812921060297"  style="animation-delay: 1.1909338670608394s" />
<circle cx="230.19070098338918" cy="69.30129955450602" r="1.3960630069050366" fill="white" opacity="0.47475327275662577"  style="animation-delay: 1.1972920665994125s" />
<circle cx="317.772865894411" cy="148.55301145258312" r="1.1122581427690852" fill="white" opacity="0.5889569211466208"  style="animation-delay: 0.40425230407069357s" />
<circle cx="750.0200715866622" cy="50.80794447420143" r="0.6197509132800484" fill="white" opacity="0.4122203009597281"  style="animation-delay: 3.8566366479908964s" />
<circle cx="192.3747598642885" cy="178.68743206011342" r="0.9264337843788435" fill="white" opacity="0.7308804149408528"  style="animation-delay: 4.228844854327383s" />
<circle cx="87.34980818659963" cy="184.88271681776126" r="1.9898667994879902" fill="white" opacity="0.3033784646352496" class="shimmer" style="animation-delay: 3.223961219867977s" />
<circle cx="523.7049114867817" cy="55.74198419835046" r="1.4562646029510922" fill="white" opacity="0.34481349500968744"  style="animation-delay: 1.8531294602026138s" />
<circle cx="175.18238429661892" cy="190.42273958409064" r="0.8510008344865602" fill="white" opacity="0.3121534484983632"  style="animation-delay: 4.4567232395435585s" />
<circle cx="646.43127202874" cy="74.83986515985106" r="0.7037287418499213" fill="white" opacity="0.5309164911897557"  style="animation-delay: 1.098449684767725s" />
<circle cx="65.24146605446236" cy="32.32569747975633" r="0.8442388227584324" fill="white" opacity="0.7379524437003642"  style="animation-delay: 1.9964068431210247s" />
<circle cx="31.94756962679275" cy="10.581907771535404" r="1.7947718244700221" fill="white" opacity="0.3118619375577128"  style="animation-delay: 1.8195329797282167s" />
<circle cx="106.12225339224591" cy="135.86017649937023" r="1.1002155988154665" fill="white" opacity="0.7830269741635587"  style="animation-delay: 3.3328623646746323s" />
<circle cx="257.29857077672784" cy="101.8586034482309" r="0.5295493304135391" fill="white" opacity="0.5019702415371212"  style="animation-delay: 4.962789204962271s" />
<circle cx="526.2181464865026" cy="13.446957553208971" r="1.6392147209649155" fill="white" opacity="0.47606328626674327"  style="animation-delay: 0.01554610713561555s" />
<circle cx="296.5712562319878" cy="12.482173912163885" r="1.5526404176368573" fill="white" opacity="0.4882927605861827"  style="animation-delay: 4.030890823449793s" />
<circle cx="278.8239446458606" cy="187.64372835562946" r="1.1523911549631913" fill="white" opacity="0.7465192222086638" class="shimmer" style="animation-delay: 1.6598393297232794s" />
<circle cx="384.80222645351745" cy="133.47729491102876" r="1.8595547485072594" fill="white" opacity="0.4401025134417074"  style="animation-delay: 3.00217885728137s" />
<circle cx="272.5350891179051" cy="161.09807497878546" r="1.3248250636604433" fill="white" opacity="0.650612272207792" class="shimmer" style="animation-delay: 1.4117956678902654s" />
<circle cx="615.676140342191" cy="162.6307336053521" r="1.9459482831242414" fill="white" opacity="0.3517773620112767"  style="animation-delay: 0.5095065020101885s" />
<circle cx="615.5050055626822" cy="93.93419389240822" r="0.9172274442358835" fill="white" opacity="0.7253562478191404"  style="animation-delay: 4.387215380820143s" />
<circle cx="120.76541178004146" cy="2.364844550738665" r="0.8384583194581837" fill="white" opacity="0.3003606572061776" class="shimmer" style="animation-delay: 4.796687436060752s" />
<circle cx="269.3283690481293" cy="72.56464952149497" r="1.7497870695149562" fill="white" opacity="0.5313567312711112"  style="animation-delay: 0.52918856221984s" />
<circle cx="472.1198061371458" cy="167.29584580167125" r="1.4961386177774636" fill="white" opacity="0.7954158854217059"  style="animation-delay: 3.336509655014522s" />
<circle cx="247.59207676688462" cy="149.5666111468335" r="0.7927375000987137" fill="white" opacity="0.6746296468628459"  style="animation-delay: 3.645006441594434s" />
<circle cx="685.2788798898937" cy="161.45779336787052" r="1.9533712141567103" fill="white" opacity="0.7109744102695708"  style="animation-delay: 0.8154723847438738s" />
<circle cx="372.3187970224295" cy="43.1201593846215" r="2.358970369567554" fill="#c77dff" opacity="0.8" filter="url(#glow)" class="shimmer" style="animation-delay: 1.712688292612515s" />
<circle cx="354.5912081863667" cy="3.8358427317685795" r="2.8124321870747724" fill="#c77dff" opacity="0.8" filter="url(#glow)" class="shimmer" style="animation-delay: 0.16769401751112123s" />
<circle cx="178.72702318896927" cy="193.75636125770876" r="2.3053737638014216" fill="#7b2cbf" opacity="0.8" filter="url(#glow)" class="shimmer" style="animation-delay: 2.4735686226433957s" />
<circle cx="147.33091814571395" cy="26.910373408174905" r="1.4364367076542823" fill="#4a0080" opacity="0.8" filter="url(#glow)" class="shimmer" style="animation-delay: 1.9652103856437584s" />
<circle cx="695.6567213299804" cy="193.8695312512329" r="2.2162799211947366" fill="#e0aaff" opacity="0.8" filter="url(#glow)" class="shimmer" style="animation-delay: 0.06974182323695133s" />
<circle cx="148.367590265463" cy="90.92365195102245" r="2.58066620052321" fill="#c77dff" opacity="0.8" filter="url(#glow)" class="shimmer" style="animation-delay: 2.7763194104455695s" />
<circle cx="219.85132141114042" cy="8.755675100469862" r="1.1354602242129652" fill="#9d4edd" opacity="0.8" filter="url(#glow)" class="shimmer" style="animation-delay: 1.4034676424709205s" />
<circle cx="69.34651788413274" cy="105.49719100619544" r="1.6149937803924268" fill="#9d4edd" opacity="0.8" filter="url(#glow)" class="shimmer" style="animation-delay: 2.9599180698744925s" />
<line x1="575.886891016012" y1="149.3523795980567" x2="155.01769353407676" y2="88.504152584011" stroke="#e0aaff" stroke-width="0.5" opacity="0.3" />
<line x1="262.9770879676307" y1="141.08288157891988" x2="423.3538436353297" y2="90.98976661003732" stroke="#e0aaff" stroke-width="0.5" opacity="0.3" />
<line x1="423.3538436353297" y1="90.98976661003732" x2="549.6623305618089" y2="94.41538746171196" stroke="#e0aaff" stroke-width="0.5" opacity="0.3" />

  
    <text x="400" y="120" text-anchor="middle" class="name-text" fill="url(#textGrad)" filter="url(#textGlow)">
      JOEL HOOKS
    </text>
  
</svg>
