<svg xmlns="http://www.w3.org/2000/svg" viewBox="0 0 800 200" width="800" height="200">
  <rect width="800" height="200" fill="#0a1628"/>
  
    <defs>
      <linearGradient id="grad1" x1="0%" y1="0%" x2="100%" y2="100%">
        <stop offset="0%" style="stop-color:#006994;stop-opacity:0.8" />
        <stop offset="100%" style="stop-color:#40a4c8;stop-opacity:0.8" />
      </linearGradient>
      <linearGradient id="grad2" x1="100%" y1="0%" x2="0%" y2="100%">
        <stop offset="0%" style="stop-color:#89cff0;stop-opacity:0.7" />
        <stop offset="100%" style="stop-color:#b0e0e6;stop-opacity:0.7" />
      </linearGradient>
      <linearGradient id="textGrad" x1="0%" y1="0%" x2="100%" y2="0%">
        <stop offset="0%" style="stop-color:#006994" />
        <stop offset="25%" style="stop-color:#40a4c8" />
        <stop offset="50%" style="stop-color:#89cff0" />
        <stop offset="75%" style="stop-color:#b0e0e6" />
        <stop offset="100%" style="stop-color:#e0ffff" />
      </linearGradient>
      <filter id="glow">
        <feGaussianBlur stdDeviation="3" result="coloredBlur"/>
        <feMerge>
          <feMergeNode in="coloredBlur"/>
          <feMergeNode in="SourceGraphic"/>
        </feMerge>
      </filter>
      <filter id="textGlow">
        <feGaussianBlur stdDeviation="2" result="coloredBlur"/>
        <feMerge>
          <feMergeNode in="coloredBlur"/>
          <feMergeNode in="SourceGraphic"/>
        </feMerge>
      </filter>
    </defs>
  
  
    <style>
      @keyframes float {
        0%, 100% { transform: translateY(0px); }
        50% { transform: translateY(-8px); }
      }
      @keyframes pulse {
        0%, 100% { opacity: 0.4; }
        50% { opacity: 0.9; }
      }
      @keyframes drift {
        0% { transform: translateX(0px); }
        50% { transform: translateX(10px); }
        100% { transform: translateX(0px); }
      }
      @keyframes shimmer {
        0% { opacity: 0.3; }
        50% { opacity: 1; }
        100% { opacity: 0.3; }
      }
      @keyframes glitch {
        0%, 100% { transform: translateX(0); }
        20% { transform: translateX(-2px); }
        40% { transform: translateX(2px); }
        60% { transform: translateX(-1px); }
        80% { transform: translateX(1px); }
      }
      @keyframes dataStream {
        0% { stroke-dashoffset: 0; }
        100% { stroke-dashoffset: -20; }
      }
      .float { animation: float 8s ease-in-out infinite; }
      .pulse { animation: pulse 8s ease-in-out infinite; }
      .drift { animation: drift 8s ease-in-out infinite; }
      .shimmer { animation: shimmer 3s ease-in-out infinite; }
      .glitch { animation: glitch 0.5s ease-in-out infinite; }
      .dataStream { animation: dataStream 2s linear infinite; }
      .name-text { 
        font-family: -apple-system, BlinkMacSystemFont, 'Segoe UI', Helvetica, Arial, sans-serif;
        font-weight: 700;
        font-size: 64px;
        letter-spacing: -2px;
      }
    </style>
  
  <path d="M -10 50 L 0 50 L 10 52.98003996192592 L 20 55.841275134629754 L 30 58.46963710092553 L 40 60.76034136349284 L 50 62.62206477211845 L 60 63.980586289508395 L 70 64.7817459498269 L 80 64.99360404562258 L 90 64.60771446317293 L 100 63.63946140238522 L 110 62.12744605729385 L 120 60.13194770826726 L 130 57.732520577321964 L 140 55.024822252338566 L 150 52.116800120898006 L 160 49.1243878485863 L 170 46.16688346959753 L 180 43.362193350577215 L 190 40.82213163585921 L 200 38.647962570381075 L 210 36.92636341379618 L 220 35.72596889165726 L 230 35.09463494549803 L 240 35.05753086746239 L 250 35.61613588005292 L 260 36.748180164197706 L 270 38.408532686660195 L 280 40.53100043191519 L 290 43.03096730879364 L 300 45.808767527016116 L 310 48.75365895773756 L 320 51.7482380727574 L 330 54.67312045270068 L 340 57.41170026707912 L 350 59.85479898078184 L 360 61.9050179577373 L 370 63.480621437174406 L 380 64.5187950804723 L 390 64.97815018061908 L 400 64.84037369935072 L 410 64.1109583501966 L 420 62.81898362132421 L 430 61.0159564681117 L 440 58.77375789337643 L 450 56.18177727862635 L 460 53.34334871150369 L 470 50.37163138180037 L 480 47.3850982816553 L 490 44.502813061221076 L 500 41.839683336659455 L 510 39.50187968609684 L 520 37.582602963715196 L 530 36.1583686758079 L 540 35.28595654900263 L 550 35.00014690173945 L 560 35.312334062730244 L 570 36.21007211502987 L 580 37.65757107546936 L 590 39.59712372834316 L 600 41.951406229993474 L 610 44.6265607664476 L 620 47.51593736827536 L 630 50.504345708317054 L 640 53.472647376523085 L 650 56.302505552399616 L 660 58.88110272060837 L 670 61.10563834928673 L 680 62.887427222847435 L 690 64.15543504166158 L 700 64.85911033542305 L 710 64.97039979074542 L 720 64.48486664823916 L 730 63.421867582107566 L 740 61.823781010629745 L 750 59.75431760235675 L 760 57.29598033280697 L 770 54.54677535118553 L 780 51.61630478449166 L 790 48.62139724658478 L 800 45.68145025002402 L 810 42.913670204023006 L 820 40.42839976478079 L 810 210 L -10 210 Z" fill="#006994" opacity="0.15" class="drift" style="animation-delay: 0s" />
<path d="M -10 80 L 0 86.23253200185464 L 10 88.37482993408999 L 20 90.18324982515729 L 30 91.58569568079866 L 40 92.52625641042351 L 50 92.9674348258527 L 60 92.89164253588208 L 70 92.30190113993639 L 80 91.22172176643537 L 90 89.69416775829737 L 100 87.78013787335144 L 110 85.55593844303979 L 120 83.11024127978177 L 130 80.54054861163277 L 140 77.94930597613777 L 150 75.43981804003494 L 160 73.11213016818958 L 170 71.05903993060834 L 180 69.36239755616266 L 190 68.08984282225708 L 200 67.29210847035374 L 210 67.0009976516667 L 220 67.22811603588367 L 230 67.96440912973948 L 240 69.18052325108928 L 250 70.8279757675849 L 260 72.84108794623072 L 270 75.13960335720694 L 280 77.63188744446276 L 290 80.21858070629655 L 300 82.7965598451416 L 310 85.26304896801578 L 320 87.51971693704661 L 330 89.47659752163639 L 340 91.05567606817134 L 350 92.19399969807161 L 360 92.846187040401 L 370 92.98623744391703 L 380 92.60856754098612 L 390 91.72823383883181 L 400 90.38033246410538 L 410 88.61859999106838 L 420 86.5132711339525 L 430 84.14827871054158 L 440 81.6179075055918 L 450 79.02303543399648 L 460 76.46711185665772 L 470 74.05203338092082 L 480 71.87408156439253 L 490 70.02008447307342 L 500 68.56395512036829 L 510 67.56374478848755 L 520 67.0593287070171 L 530 67.07081635334814 L 540 67.59774975127284 L 550 68.61912172905043 L 560 70.09421340905259 L 570 71.96421754091857 L 580 74.15458296105018 L 590 76.57798671224458 L 600 79.13781533443439 L 610 81.73201653845928 L 620 84.25716770879 L 630 86.61259903684086 L 640 88.70440690855582 L 650 90.44919754517107 L 660 91.77741165001001 L 670 92.63609751813469 L 680 92.99102205372293 L 690 92.82803553556997 L 700 92.15363572182088 L 710 90.99470880485813 L 720 89.39745754365569 L 730 87.42555930557985 L 740 85.15762745069796 L 750 82.68407726519136 L 760 80.10352138921716 L 770 77.51883844213553 L 780 75.03307157660788 L 790 72.74532047327187 L 800 70.74679054920139 L 810 69.1171568857433 L 820 67.92138783445321 L 810 210 L -10 210 Z" fill="#40a4c8" opacity="0.2" class="drift" style="animation-delay: 0.5s" />
<path d="M -10 110 L 0 119.25618083288686 L 10 120.25242994563949 L 20 120.83994702987306 L 30 120.99530963345656 L 40 120.71232393966015 L 50 120.0022716950825 L 60 118.8934604420155 L 70 117.43009498606266 L 80 115.6705150900361 L 90 113.68486965171496 L 100 111.55232008865853 L 110 109.35788442229662 L 120 107.18904787770485 L 130 105.13227512375663 L 140 103.26956319963008 L 150 101.67517255161279 L 160 100.41266650345054 L 170 99.53237718721532 L 180 99.06939896003189 L 190 99.04218930280575 L 200 99.45183297870548 L 210 100.28199878707832 L 220 101.49959063688414 L 230 103.05606698340446 L 240 104.88937602644867 L 250 106.92642951981182 L 260 109.08601656900754 L 270 111.28204125335543 L 280 113.42695499864716 L 290 115.43524686252469 L 300 117.22685258590668 L 310 118.73034650234068 L 320 119.8857890539279 L 330 120.64711639234635 L 340 120.98397679912065 L 350 120.8829407128572 L 360 120.3480361234775 L 370 119.40058798897108 L 380 118.07836807661523 L 390 116.43408912180938 L 400 114.53330333765932 L 410 112.45178905510272 L 420 110.27252967998693 L 430 108.08240540654722 L 440 105.96872957822879 L 450 104.01576778021693 L 460 102.30137843647103 L 470 100.8939088400578 L 480 99.84947036225913 L 490 99.2097014692686 L 500 99.00010772794226 L 510 99.22904497933551 L 520 99.88738621768857 L 530 100.9488854553442 L 540 102.37122406745165 L 550 104.09769790199522 L 560 106.0594778953949 L 570 108.1783540700686 L 580 110.36985351943251 L 590 112.54660807611693 L 600 114.62183740509305 L 610 116.51280866177947 L 620 118.14413478947694 L 630 119.45077996342145 L 640 120.38065236388515 L 650 120.89668091264357 L 660 120.97829317987998 L 670 120.62223554204205 L 680 119.84270289354555 L 690 118.67077274112847 L 700 117.15316624172829 L 710 115.35038557739178 L 720 113.33430192420272 L 730 111.18529017529389 L 740 108.9890246474955 L 750 106.83306351668428 L 760 104.80335814961684 L 770 102.98082649417258 L 780 101.43812713612272 L 790 100.23676263060345 L 800 99.42462758932487 L 810 99.03409927354244 L 820 99.08074681482303 L 810 210 L -10 210 Z" fill="#89cff0" opacity="0.25" class="drift" style="animation-delay: 1s" />
<path d="M -10 140 L 0 148.9774548794365 L 10 148.9249832940722 L 20 148.51670078918673 L 30 147.76888429983987 L 40 146.71134690959047 L 50 145.3862492969356 L 60 143.84641892210448 L 70 142.15324396292584 L 80 140.3742259618996 L 90 138.58028875271077 L 100 136.8429509507934 L 110 135.23147473182357 L 120 133.81010456734424 L 130 132.63550600042032 L 140 131.75450656925491 L 150 131.20222894101414 L 160 131.0006906819231 L 170 131.157926486381 L 180 131.6676678590504 L 190 132.5095930199849 L 200 133.65013706986647 L 210 135.04383011662125 L 220 136.63511001652788 L 230 138.36053746155113 L 240 140.15132510435916 L 250 141.93607989279033 L 260 143.64364928554937 L 270 145.2059578794938 L 280 146.5607213611329 L 290 147.65392958565707 L 300 148.44199979097266 L 310 148.893514104893 L 320 148.99047207655795 L 330 148.7290082976058 L 340 148.11954650380665 L 350 147.18638401361142 L 360 145.96672307073965 L 370 144.50918770812098 L 380 142.87188526114414 L 390 141.12008981156356 L 400 139.32363991584373 L 410 137.55415436230152 L 420 135.8821769560221 L 430 134.37436415996407 L 440 133.09082771212775 L 450 132.08273816025496 L 460 131.3902848535683 L 470 131.0410737202426 L 480 131.04902670616408 L 490 131.41382675088119 L 500 132.12093042780415 L 510 133.1421477447287 L 520 134.4367659898667 L 530 135.95317281918858 L 540 137.6309138777078 L 550 139.40310292383919 L 560 141.1990883727795 L 570 142.94726995223922 L 580 144.57795317935137 L 590 146.02612785976942 L 600 147.23405983896458 L 610 148.15359268077617 L 620 148.74806751255477 L 630 148.99378449873126 L 640 148.88094767847153 L 650 148.41405549972214 L 660 147.6117214802864 L 670 146.50593214560777 L 680 145.1407718269399 L 690 143.5706651581755 L 700 141.85820733744018 L 710 140.07166865407342 L 720 138.2822727676323 L 730 136.5613572453439 L 740 134.97752955841898 L 750 133.5939319186779 L 760 132.46572399782227 L 770 131.6378838853907 L 780 131.1434149542652 L 790 131.0020301203429 L 800 131.2193659507866 L 810 131.78675795187934 L 820 132.6815859950466 L 810 210 L -10 210 Z" fill="#b0e0e6" opacity="0.30000000000000004" class="drift" style="animation-delay: 1.5s" />
<path d="M -10 170 L 0 176.36508198777977 L 10 175.65947482673712 L 20 174.72824226385805 L 30 173.60850960275025 L 40 172.34491705109133 L 50 170.98784005641906 L 60 169.59138099600693 L 70 168.21121228581217 L 80 166.90235689693603 L 90 165.71699476340098 L 100 164.7023825328445 L 110 163.89896959310488 L 120 163.33878548277337 L 130 163.04416297456575 L 140 163.02684773814912 L 150 163.28753007735804 L 160 163.81581740995892 L 170 164.5906485871081 L 180 165.58113353489375 L 190 166.7477847441037 L 200 168.0440915126075 L 210 169.41837418027754 L 220 170.81584443395346 L 230 172.18078954459367 L 240 173.45879345797024 L 250 174.59890619103152 L 260 175.55567504694406 L 270 176.2909566706814 L 280 176.7754377042204 L 290 176.98980341762223 L 300 176.92550772636366 L 310 176.5851138967584 L 320 175.98219235661796 L 330 175.1407796851188 L 340 174.09442035024233 L 350 172.88482939669228 L 360 171.56022939870172 L 370 170.1734279781735 L 380 168.77971253143912 L 390 167.4346460952365 L 400 166.19185222377442 L 410 165.1008771868452 L 420 164.20521471640043 L 430 163.54057204871035 L 440 163.13344638953456 L 450 163.0000685541451 L 460 163.1457558959408 L 470 163.56470032034727 L 480 164.24019983521904 L 490 165.14532440656015 L 500 166.24398957399694 L 510 167.49239502434222 L 520 168.84077077186183 L 530 170.23536133054796 L 540 171.62056877571078 L 550 172.9411692577865 L 560 174.14451460295058 L 570 175.18263122966715 L 580 176.01413270399547 L 590 176.60586968610875 L 600 176.9342514898641 L 610 176.98618656901454 L 620 176.75960443584495 L 630 176.26353820498352 L 640 175.5177644716272 L 650 174.5520148810998 L 660 173.40479082197658 L 670 172.12182849721992 L 680 170.7542755660961 L 690 169.35665204840623 L 700 167.98467678334455 L 710 166.69304609521072 L 720 165.53325322356437 L 730 164.5515354502599 L 740 163.78703076492945 L 750 163.2702175568431 L 760 163.02169953770883 L 770 163.05138433670558 L 780 163.35808851457313 L 790 163.92958474360094 L 800 164.74308927259827 L 810 165.766170243156 L 820 166.9580406454967 L 810 210 L -10 210 Z" fill="#e0ffff" opacity="0.35" class="drift" style="animation-delay: 2s" />
<circle cx="722.9092625598731" cy="118.79801878959407" r="7.353130177011632" fill="none" stroke="#006994" stroke-width="1" opacity="0.37925421745474364" class="float" style="animation-delay: 0.3625438382915753s" />
<circle cx="122.07323641814457" cy="56.860029035366686" r="6.333992858999384" fill="none" stroke="#006994" stroke-width="1" opacity="0.4201198165602211" class="float" style="animation-delay: 0.8889945082135196s" />
<circle cx="4.1559705111804846" cy="25.28298142628218" r="7.0703625801356065" fill="none" stroke="#40a4c8" stroke-width="1" opacity="0.34157491412750607" class="float" style="animation-delay: 3.987287452910583s" />
<circle cx="89.42180703902665" cy="156.38688016859282" r="3.669882662106078" fill="none" stroke="#40a4c8" stroke-width="1" opacity="0.40652983755493033" class="float" style="animation-delay: 3.7662687736732847s" />
<circle cx="210.47306151372797" cy="80.41705682269185" r="4.407717141248993" fill="none" stroke="#e0ffff" stroke-width="1" opacity="0.4204185009806418" class="float" style="animation-delay: 3.2605994291560707s" />
<circle cx="532.8950666770927" cy="197.0306998207242" r="5.4792873631776935" fill="none" stroke="#89cff0" stroke-width="1" opacity="0.36524286437799547" class="float" style="animation-delay: 1.6474444408389397s" />
<circle cx="570.6476520592702" cy="17.29866953712098" r="2.7107188329316614" fill="none" stroke="#e0ffff" stroke-width="1" opacity="0.4985573680352067" class="float" style="animation-delay: 3.628092245505753s" />
<circle cx="52.51054996016755" cy="49.301929016744104" r="7.275681044973533" fill="none" stroke="#89cff0" stroke-width="1" opacity="0.31451436157969453" class="float" style="animation-delay: 0.9036980585399377s" />
<circle cx="254.6128306886489" cy="189.57990650321364" r="3.930746667444838" fill="none" stroke="#40a4c8" stroke-width="1" opacity="0.28790028670955775" class="float" style="animation-delay: 1.7347762509600075s" />
<circle cx="408.81220356892493" cy="25.168962578886898" r="6.0685788424328795" fill="none" stroke="#b0e0e6" stroke-width="1" opacity="0.4058023041315195" class="float" style="animation-delay: 3.1939805941593606s" />
<circle cx="120.89274129198114" cy="152.59237676679066" r="4.694324209491551" fill="none" stroke="#006994" stroke-width="1" opacity="0.4275261121377191" class="float" style="animation-delay: 3.576412291144252s" />
<circle cx="351.8084847602266" cy="151.7385801584826" r="3.967666195164524" fill="none" stroke="#40a4c8" stroke-width="1" opacity="0.20892311387538837" class="float" style="animation-delay: 2.3435587623725267s" />
<circle cx="165.878739750889" cy="77.12518594349449" r="5.632750643708121" fill="none" stroke="#006994" stroke-width="1" opacity="0.4502449411587037" class="float" style="animation-delay: 1.2847321364169915s" />
<circle cx="386.40422675181566" cy="43.55461878034275" r="6.132882864584889" fill="none" stroke="#e0ffff" stroke-width="1" opacity="0.372295803525565" class="float" style="animation-delay: 0.003948864154859066s" />
<circle cx="617.3672999383939" cy="112.27496363868612" r="2.713857043290302" fill="none" stroke="#89cff0" stroke-width="1" opacity="0.4260478613219697" class="float" style="animation-delay: 3.350744521526938s" />
<circle cx="243.00607269026546" cy="106.17954995002546" r="9.178828416675508" fill="none" stroke="#b0e0e6" stroke-width="1" opacity="0.23412811829435862" class="float" style="animation-delay: 0.6709316184031744s" />
<circle cx="231.40559117787572" cy="54.25317637188405" r="3.5927154926258353" fill="none" stroke="#40a4c8" stroke-width="1" opacity="0.2187788409653132" class="float" style="animation-delay: 3.1030070926927076s" />
<circle cx="65.21461096115821" cy="62.15068379102968" r="3.328210301049232" fill="none" stroke="#e0ffff" stroke-width="1" opacity="0.23249292075294706" class="float" style="animation-delay: 2.2999188063333262s" />
<circle cx="653.7413931361449" cy="198.47578369628187" r="3.0747566720607686" fill="none" stroke="#006994" stroke-width="1" opacity="0.4312128834026746" class="float" style="animation-delay: 0.5442079585524535s" />
<circle cx="311.61694682477207" cy="171.4012766282409" r="4.858932389636699" fill="none" stroke="#40a4c8" stroke-width="1" opacity="0.3710564016094764" class="float" style="animation-delay: 1.2337735821824527s" />
<circle cx="584.5844641571002" cy="104.00146105976877" r="2.8591996633998207" fill="none" stroke="#89cff0" stroke-width="1" opacity="0.2457927347474482" class="float" style="animation-delay: 3.331273268470567s" />
<circle cx="458.489644747206" cy="76.40446506880507" r="4.421433068957917" fill="none" stroke="#b0e0e6" stroke-width="1" opacity="0.24591644212029784" class="float" style="animation-delay: 0.7555616987790748s" />
<circle cx="350.3627208646975" cy="190.62153582647863" r="4.457889367887104" fill="none" stroke="#40a4c8" stroke-width="1" opacity="0.4207183287353503" class="float" style="animation-delay: 2.5456228990975713s" />
<circle cx="758.9242862199594" cy="51.13480251879645" r="7.701842329900398" fill="none" stroke="#e0ffff" stroke-width="1" opacity="0.3604464444185662" class="float" style="animation-delay: 3.196671357422617s" />
<circle cx="6.466414939248111" cy="141.02333728409388" r="8.10653539740974" fill="none" stroke="#e0ffff" stroke-width="1" opacity="0.20139911396913032" class="float" style="animation-delay: 2.552276819645213s" />
<circle cx="301.50356057090244" cy="98.32727373990863" r="20" fill="none" stroke="#006994" stroke-width="1" opacity="0.3" class="pulse" />
<circle cx="301.50356057090244" cy="98.32727373990863" r="35" fill="none" stroke="#006994" stroke-width="1" opacity="0.19999999999999998" class="pulse" />
<circle cx="301.50356057090244" cy="98.32727373990863" r="50" fill="none" stroke="#006994" stroke-width="1" opacity="0.09999999999999998" class="pulse" />
<circle cx="583.3903462930978" cy="93.31720897113883" r="20" fill="none" stroke="#006994" stroke-width="1" opacity="0.3" class="pulse" />
<circle cx="583.3903462930978" cy="93.31720897113883" r="35" fill="none" stroke="#006994" stroke-width="1" opacity="0.19999999999999998" class="pulse" />
<circle cx="583.3903462930978" cy="93.31720897113883" r="50" fill="none" stroke="#006994" stroke-width="1" opacity="0.09999999999999998" class="pulse" />
<circle cx="514.9560501355102" cy="127.56214260140727" r="20" fill="none" stroke="#006994" stroke-width="1" opacity="0.3" class="pulse" />
<circle cx="514.9560501355102" cy="127.56214260140727" r="35" fill="none" stroke="#006994" stroke-width="1" opacity="0.19999999999999998" class="pulse" />
<circle cx="514.9560501355102" cy="127.56214260140727" r="50" fill="none" stroke="#006994" stroke-width="1" opacity="0.09999999999999998" class="pulse" />

  
    <text x="400" y="120" text-anchor="middle" class="name-text" fill="url(#textGrad)" filter="url(#textGlow)">
      JOEL HOOKS
    </text>
  
</svg>
