<svg xmlns="http://www.w3.org/2000/svg" viewBox="0 0 800 200" width="800" height="200">
  <rect width="800" height="200" fill="#1a0a0a"/>
  
    <defs>
      <linearGradient id="grad1" x1="0%" y1="0%" x2="100%" y2="100%">
        <stop offset="0%" style="stop-color:#ff4500;stop-opacity:0.8" />
        <stop offset="100%" style="stop-color:#ff6b35;stop-opacity:0.8" />
      </linearGradient>
      <linearGradient id="grad2" x1="100%" y1="0%" x2="0%" y2="100%">
        <stop offset="0%" style="stop-color:#f7c59f;stop-opacity:0.7" />
        <stop offset="100%" style="stop-color:#efa48b;stop-opacity:0.7" />
      </linearGradient>
      <linearGradient id="textGrad" x1="0%" y1="0%" x2="100%" y2="0%">
        <stop offset="0%" style="stop-color:#ff4500" />
        <stop offset="25%" style="stop-color:#ff6b35" />
        <stop offset="50%" style="stop-color:#f7c59f" />
        <stop offset="75%" style="stop-color:#efa48b" />
        <stop offset="100%" style="stop-color:#d4a5a5" />
      </linearGradient>
      <filter id="glow">
        <feGaussianBlur stdDeviation="3" result="coloredBlur"/>
        <feMerge>
          <feMergeNode in="coloredBlur"/>
          <feMergeNode in="SourceGraphic"/>
        </feMerge>
      </filter>
      <filter id="textGlow">
        <feGaussianBlur stdDeviation="2" result="coloredBlur"/>
        <feMerge>
          <feMergeNode in="coloredBlur"/>
          <feMergeNode in="SourceGraphic"/>
        </feMerge>
      </filter>
    </defs>
  
  
    <style>
      @keyframes float {
        0%, 100% { transform: translateY(0px); }
        50% { transform: translateY(-8px); }
      }
      @keyframes pulse {
        0%, 100% { opacity: 0.4; }
        50% { opacity: 0.9; }
      }
      @keyframes drift {
        0% { transform: translateX(0px); }
        50% { transform: translateX(10px); }
        100% { transform: translateX(0px); }
      }
      @keyframes shimmer {
        0% { opacity: 0.3; }
        50% { opacity: 1; }
        100% { opacity: 0.3; }
      }
      @keyframes glitch {
        0%, 100% { transform: translateX(0); }
        20% { transform: translateX(-2px); }
        40% { transform: translateX(2px); }
        60% { transform: translateX(-1px); }
        80% { transform: translateX(1px); }
      }
      @keyframes dataStream {
        0% { stroke-dashoffset: 0; }
        100% { stroke-dashoffset: -20; }
      }
      .float { animation: float 8s ease-in-out infinite; }
      .pulse { animation: pulse 8s ease-in-out infinite; }
      .drift { animation: drift 8s ease-in-out infinite; }
      .shimmer { animation: shimmer 3s ease-in-out infinite; }
      .glitch { animation: glitch 0.5s ease-in-out infinite; }
      .dataStream { animation: dataStream 2s linear infinite; }
      .name-text { 
        font-family: -apple-system, BlinkMacSystemFont, 'Segoe UI', Helvetica, Arial, sans-serif;
        font-weight: 700;
        font-size: 64px;
        letter-spacing: -2px;
      }
    </style>
  
  <rect x="0" y="160" width="800" height="50" fill="#ff4500" opacity="0.3" />
<rect x="0" y="170" width="800" height="40" fill="#ff6b35" opacity="0.25" />
<rect x="0" y="180" width="800" height="30" fill="#f7c59f" opacity="0.19999999999999998" />
<rect x="0" y="190" width="800" height="20" fill="#efa48b" opacity="0.14999999999999997" />
<rect x="0" y="200" width="800" height="10" fill="#d4a5a5" opacity="0.09999999999999998" />
<line x1="388.55397235455405" y1="170" x2="388.55397235455405" y2="264.9340028265116" stroke="#ff4500" stroke-width="2.534675482872991" opacity="0.18538004454628754" class="pulse" />
<line x1="388.55397235455405" y1="170" x2="424.2658659240936" y2="303.2786012360138" stroke="#ff4500" stroke-width="2.3986899948645437" opacity="0.15933211268390024" class="pulse" />
<line x1="388.55397235455405" y1="170" x2="447.970285677153" y2="272.91207347317305" stroke="#ff4500" stroke-width="2.7376380223987886" opacity="0.2880132348068849" class="pulse" />
<line x1="388.55397235455405" y1="170" x2="467.07414169670983" y2="248.52016934215575" stroke="#ff4500" stroke-width="1.166768212308971" opacity="0.10914133632449126" class="pulse" />
<line x1="388.55397235455405" y1="170" x2="468.08327817543" y2="215.9162661241468" stroke="#ff4500" stroke-width="1.7683182383727036" opacity="0.12736645733052776" class="pulse" />
<line x1="388.55397235455405" y1="170" x2="501.13598872630797" y2="200.1662603690789" stroke="#ff4500" stroke-width="2.506609535259015" opacity="0.28132812207887603" class="pulse" />
<line x1="388.55397235455405" y1="170" x2="535.8185364510064" y2="170" stroke="#ff4500" stroke-width="2.3975185593861488" opacity="0.230671712789718" class="pulse" />
<line x1="388.55397235455405" y1="170" x2="473.0537711848984" y2="147.3583471428169" stroke="#ff4500" stroke-width="2.117597627527114" opacity="0.1306369233300601" class="pulse" />
<line x1="388.55397235455405" y1="170" x2="473.271583565911" y2="121.08826436202105" stroke="#ff4500" stroke-width="1.3515723451043473" opacity="0.11647008594385633" class="pulse" />
<line x1="388.55397235455405" y1="170" x2="470.3624367079258" y2="88.19153564662828" stroke="#ff4500" stroke-width="2.2233443362946796" opacity="0.10500676859675546" class="pulse" />
<line x1="388.55397235455405" y1="170" x2="458.9645034431318" y2="48.04538276667547" stroke="#ff4500" stroke-width="1.5003825649985418" opacity="0.19630431878843424" class="pulse" />
<line x1="388.55397235455405" y1="170" x2="409.79985623235234" y2="90.70928191634837" stroke="#ff4500" stroke-width="2.798541690051862" opacity="0.2878158586055343" class="pulse" />
<path d="M 760.9117180654405 47.28700995296674 C 761.7204969696654 54.57457419206798, 766.9338137747663 65.18300258418954, 763.2804270306359 71.57603938294514 C 759.6270402865055 77.96907618170074, 746.5346318490324 86.19833964045162, 738.9913976006575 85.64523074550038 C 731.4481633522826 85.09212185054915, 722.4901112999123 74.65042281199328, 718.0210215403865 68.25738601323768 C 713.5519317808607 61.86434921448207, 713.9574836414498 56.05775990433726, 712.176859043503 47.28700995296674 C 710.3962344455562 38.51626000159622, 702.8681841931796 20.284074265734127, 707.3372739527053 15.632886305014576 C 711.8063637122311 10.981698344295026, 730.4763176585607 17.343587581428917, 738.9913976006575 19.37988218864944 C 747.5064775427543 21.416176795869962, 754.7743668611561 23.199465987618154, 758.4277536052865 27.850653948337705 C 762.081140349417 32.501841909057255, 760.1029391612155 39.999445713865505, 760.9117180654405 47.28700995296674 Z" fill="#f7c59f" opacity="0.11213297364922432" class="drift" />
<path d="M 547.2758354063544 42.447971455583826 C 546.2739390761324 47.521976974723636, 534.0308703571899 50.01660655702725, 528.9386118340063 54.664299022336934 C 523.8463533108228 59.311991487646615, 523.6361422825257 67.49237742108718, 516.7222842672533 70.33412624744192 C 509.80842625198085 73.17587507379665, 491.9178774476553 76.36248444577498, 487.45546374237176 71.71479198046531 C 482.9930500370882 67.06709951515563, 489.70839005214515 51.96416631380426, 489.9478020355519 42.447971455583826 C 490.1872140189586 32.93177659736339, 484.42952193752853 22.298021892657978, 488.8919356428121 14.617622831142679 C 493.35434934809564 6.937223769627379, 509.0459419051654 -5.234863426233873, 516.7222842672533 -3.6344229135079757 C 524.398626629341 -2.0339824007820786, 529.8577312921554 16.53986684598276, 534.949989815339 24.22026590749806 C 540.0422483385225 31.90066496901336, 548.2777317365765 37.373965936444016, 547.2758354063544 42.447971455583826 Z" fill="#f7c59f" opacity="0.20264007633606557" class="drift" />
<path d="M 763.9388761880901 73.273361203424 C 763.5623356824331 85.98293782654477, 770.5509697046916 102.43231916967503, 764.4735667375338 110.27246955581484 C 758.396163770376 118.11261994195465, 737.9025120085856 122.21924601428384, 727.474458385143 120.31426352026287 C 717.0464047617003 118.4092810262419, 708.6310522108224 106.68272497782885, 701.9052449968779 98.84257459168904 C 695.1794377829333 91.00242420554923, 688.6755810973441 83.35239832871414, 687.1196151014757 73.273361203424 C 685.5636491056073 63.19432407813386, 685.8436418077225 44.93842630900433, 692.5694490216671 38.368351839948176 C 699.2952562356116 31.79827737089202, 715.1138982601747 34.578471392896724, 727.474458385143 33.852914389087076 C 739.8350185101112 33.12735738527743, 760.6554068043188 27.444935348034118, 766.7328097714767 34.015009817090274 C 772.8102127386346 40.585084286146426, 764.3154166937472 60.56378458030324, 763.9388761880901 73.273361203424 Z" fill="#f7c59f" opacity="0.1928280783676838" class="drift" />
<path d="M 622.0123847703767 36.06360035826944 C 621.5976689861889 47.85046960409756, 620.3269642616708 62.20670068214137, 613.1665880829455 70.18006074319018 C 606.0062119042202 78.153420804239, 591.5266433030381 82.79939858118931, 579.0501276980248 83.90376072456235 C 566.5736120930114 85.00812286793538, 547.5676828885424 84.77959366447726, 538.3074944528657 76.80623360342844 C 529.047306017189 68.83287354237962, 522.1775305940602 48.33301161675148, 523.4889970839645 36.06360035826945 C 524.8004635738688 23.794189099787417, 536.9161049566148 10.40866861129675, 546.1762933922915 3.189766052536257 C 555.4364818279682 -4.029136506224237, 567.4703627987279 -6.62799486357438, 579.0501276980248 -7.249814994293516 C 590.6298925973216 -7.871635125012651, 608.4945066093475 -7.760057290539048, 615.6548827880728 -0.5411547317785548 C 622.8152589667981 6.677747826981938, 622.4271005545645 24.27673111244132, 622.0123847703767 36.06360035826944 Z" fill="#f7c59f" opacity="0.19645442641730698" class="drift" />
<path d="M 601.5054213374774 51.410176385533575 L 613.4825205833957 45.42162676257438 L 625.4596198293141 51.410176385533575" fill="none" stroke="#d4a5a5" stroke-width="1.5" opacity="0.4" class="float" style="animation-delay: 1.4818128084388669s" />
<path d="M 310.96513905693865 49.71239647727306 L 317.26603686211405 46.561947574685355 L 323.56693466728944 49.71239647727306" fill="none" stroke="#d4a5a5" stroke-width="1.5" opacity="0.4" class="float" style="animation-delay: 2.6103510267132206s" />
<path d="M 627.3485093297295 42.90004004858545 L 632.5528143389569 40.29788754397178 L 637.7571193481842 42.90004004858545" fill="none" stroke="#d4a5a5" stroke-width="1.5" opacity="0.4" class="float" style="animation-delay: 2.0923200446333645s" />
<path d="M 389.49839360463676 61.752278012628906 L 395.0583645293127 58.97229255029092 L 400.61833545398866 61.752278012628906" fill="none" stroke="#d4a5a5" stroke-width="1.5" opacity="0.4" class="float" style="animation-delay: 0.2628527791656643s" />
<path d="M 300.3446529012501 38.49483311367311 L 309.0047065499388 34.16480628932875 L 317.66476019862756 38.49483311367311" fill="none" stroke="#d4a5a5" stroke-width="1.5" opacity="0.4" class="float" style="animation-delay: 1.4857788488557229s" />

  
    <text x="400" y="120" text-anchor="middle" class="name-text" fill="url(#textGrad)" filter="url(#textGlow)">
      JOEL HOOKS
    </text>
  
</svg>
