<svg xmlns="http://www.w3.org/2000/svg" viewBox="0 0 800 200" width="800" height="200">
  <rect width="800" height="200" fill="#05010d"/>
  
    <defs>
      <linearGradient id="grad1" x1="0%" y1="0%" x2="100%" y2="100%">
        <stop offset="0%" style="stop-color:#4a0080;stop-opacity:0.8" />
        <stop offset="100%" style="stop-color:#7b2cbf;stop-opacity:0.8" />
      </linearGradient>
      <linearGradient id="grad2" x1="100%" y1="0%" x2="0%" y2="100%">
        <stop offset="0%" style="stop-color:#9d4edd;stop-opacity:0.7" />
        <stop offset="100%" style="stop-color:#c77dff;stop-opacity:0.7" />
      </linearGradient>
      <linearGradient id="textGrad" x1="0%" y1="0%" x2="100%" y2="0%">
        <stop offset="0%" style="stop-color:#4a0080" />
        <stop offset="25%" style="stop-color:#7b2cbf" />
        <stop offset="50%" style="stop-color:#9d4edd" />
        <stop offset="75%" style="stop-color:#c77dff" />
        <stop offset="100%" style="stop-color:#e0aaff" />
      </linearGradient>
      <filter id="glow">
        <feGaussianBlur stdDeviation="5" result="coloredBlur"/>
        <feMerge>
          <feMergeNode in="coloredBlur"/>
          <feMergeNode in="SourceGraphic"/>
        </feMerge>
      </filter>
      <filter id="textGlow">
        <feGaussianBlur stdDeviation="2" result="coloredBlur"/>
        <feMerge>
          <feMergeNode in="coloredBlur"/>
          <feMergeNode in="SourceGraphic"/>
        </feMerge>
      </filter>
    </defs>
  
  
    <style>
      @keyframes float {
        0%, 100% { transform: translateY(0px); }
        50% { transform: translateY(-8px); }
      }
      @keyframes pulse {
        0%, 100% { opacity: 0.4; }
        50% { opacity: 0.9; }
      }
      @keyframes drift {
        0% { transform: translateX(0px); }
        50% { transform: translateX(10px); }
        100% { transform: translateX(0px); }
      }
      @keyframes shimmer {
        0% { opacity: 0.3; }
        50% { opacity: 1; }
        100% { opacity: 0.3; }
      }
      @keyframes glitch {
        0%, 100% { transform: translateX(0); }
        20% { transform: translateX(-2px); }
        40% { transform: translateX(2px); }
        60% { transform: translateX(-1px); }
        80% { transform: translateX(1px); }
      }
      @keyframes dataStream {
        0% { stroke-dashoffset: 0; }
        100% { stroke-dashoffset: -20; }
      }
      .float { animation: float 8s ease-in-out infinite; }
      .pulse { animation: pulse 8s ease-in-out infinite; }
      .drift { animation: drift 8s ease-in-out infinite; }
      .shimmer { animation: shimmer 3s ease-in-out infinite; }
      .glitch { animation: glitch 0.5s ease-in-out infinite; }
      .dataStream { animation: dataStream 2s linear infinite; }
      .name-text { 
        font-family: -apple-system, BlinkMacSystemFont, 'Segoe UI', Helvetica, Arial, sans-serif;
        font-weight: 700;
        font-size: 64px;
        letter-spacing: -2px;
      }
    </style>
  
  <path d="M 590.3999170922262 148.94168026221797 C 590.9355207652515 177.10695177634798, 586.8699178991735 211.23399636719896, 570.6862933706797 234.7857693380859 C 554.5026688421858 258.33754230897284, 523.052768509745 282.5560998475913, 493.298169921263 290.2523180875397 C 463.54357133278114 297.9485363274881, 418.8835092915283 296.2993176468641, 392.15870183978825 280.9630787777762 C 365.4338943880482 265.62683990868834, 340.32685303575744 227.54744414441805, 332.9493252108226 198.2348848730124 C 325.5717973858878 168.92232560160673, 333.848010547109 128.0715366568994, 347.89353489017935 105.08772314934231 C 361.9390592332497 82.1039096417852, 394.20321762499174 69.68501478357477, 417.2224712692445 60.33200382766971 C 440.2417249134973 50.978992871764646, 460.9673567451488 48.05930134297257, 486.00905675569607 48.96965741391192 C 511.05075676624335 49.88001348485127, 550.0741946097734 49.1321364452548, 567.4726713325284 65.79414025330581 C 584.8711480552835 82.45614406135682, 589.864313419201 120.77640874808796, 590.3999170922262 148.94168026221797 Z" fill="#7b2cbf" opacity="0.15592248071280979" filter="url(#glow)" class="float" />
<path d="M 848.5720914552488 178.39146340986449 C 852.9652528719954 195.60326487649883, 860.9242907621854 228.0534658320317, 850.4127597558577 238.49680803660124 C 839.90122874953 248.94015024117078, 802.2908919024093 242.72036707941027, 785.5029054172828 241.05151663728185 C 768.7149189321564 239.38266619515343, 766.5488234050504 224.96905666888156, 749.6848408450988 228.48370538383074 C 732.8208582851473 231.9983540987799, 692.0617710122053 267.8621778442932, 684.3190100575735 262.1394089269769 C 676.5762491029416 256.41664000966057, 702.8111725948033 211.53392539083927, 703.2282751173078 194.14709187993262 C 703.6453776398123 176.76025836902596, 682.4332705995082 165.70082982055874, 686.8216251926003 157.818407861537 C 691.2099797856924 149.93598590251526, 719.4012530340945 153.99844181050722, 729.5584026758604 146.8525601258021 C 739.7155523176264 139.706678441097, 735.9921203517532 125.49104666363326, 747.7645230431957 114.94311775330637 C 759.5369257346382 104.39518884297948, 787.4779407891516 80.18450641659263, 800.1928188245154 83.56498666384077 C 812.9076968598791 86.94546691108891, 815.9905791502559 119.42158644579123, 824.0537912553782 135.2259992367952 C 832.1170033605005 151.03041202779914, 844.1789300385022 161.17966194323014, 848.5720914552488 178.39146340986449 Z" fill="#4a0080" opacity="0.17998456734654278" filter="url(#glow)" class="float" />
<path d="M 760.5267013358043 80.26595666709144 C 766.0771150099528 104.91430095210414, 772.2771531999331 150.88752638151266, 756.5079887972621 170.8622305445749 C 740.7388243945911 190.83693470763717, 694.6068169761975 201.61783754820738, 665.9117149197787 200.114181645465 C 637.2166128633598 198.61052574272264, 599.5681400402094 181.81499929118291, 584.3373764587495 161.84029512812066 C 569.1066128772896 141.8655909650584, 577.3015500336716 110.23181942342023, 574.5271334310191 80.26595666709146 C 571.7527168283667 50.30009391076268, 552.4601132613753 6.173611022533105, 567.6908768428352 -17.954881409851964 C 582.9216404242951 -42.08337384223704, 639.992609934856 -71.32617230127741, 665.9117149197787 -64.50499792721897 C 691.8308199047013 -57.68382355316052, 707.4363423497003 -1.1563275978863565, 723.2055067523713 22.972164834498713 C 738.9746711550423 47.100657266883786, 754.9762876616559 55.61761238207875, 760.5267013358043 80.26595666709144 Z" fill="#c77dff" opacity="0.1250179647884492" filter="url(#glow)" class="float" />
<path d="M 328.65598544410074 19.789038650422253 C 333.16818248803895 36.808840585434424, 317.6877212323658 67.2523221441938, 303.63498649209436 79.54788333975891 C 289.5822517518229 91.84344453532402, 261.05142076733415 95.07809536865737, 244.3395770024723 93.56240582381297 C 227.62773323761047 92.04671627896856, 214.34706594449233 76.55436573757702, 203.3639239029234 70.45374607069247 C 192.38078186135448 64.35312640380793, 186.60838229504162 62.6480787793537, 178.44072475305882 56.95868782250574 C 170.273067211076 51.26929686565777, 156.1061565598961 44.60182477351857, 154.35797865102654 36.317400329604695 C 152.60980074215698 28.032975885690817, 169.19790853170286 22.272221990028605, 167.9516572998414 7.252141159022479 C 166.70540606797994 -7.767939671983649, 142.2858595725492 -38.355055177292165, 146.8804712598577 -53.80308465643208 C 151.4750829471662 -69.25111413557198, 182.04189754065519 -91.46198579317328, 195.51932742369223 -85.43603571581697 C 208.99675730672928 -79.41008563846066, 214.23797109061783 -28.124902099877957, 227.74505055807998 -17.64738419229415 C 241.25213002554213 -7.169866284710343, 259.743315080795 -28.810332077433525, 276.5618042284651 -22.570928270314123 C 293.3802933761352 -16.33152446319472, 324.1437884001625 2.7692367154100808, 328.65598544410074 19.789038650422253 Z" fill="#c77dff" opacity="0.10063770856836207" filter="url(#glow)" class="float" />
<path d="M 393.939949896784 74.00674260905187 L 393.939949896784 74.00674260905187 L 394.3874188520806 74.04589106992012 L 394.8246582720695 74.16274056567345 L 395.24156840934444 74.35551023834583 L 395.6283077092817 74.62125459759184 L 395.97541846241336 74.9558971891386 L 396.2739483617471 75.35427725108647 L 396.5155666625874 75.81020888400671 L 396.69267369529314 76.31655213311382 L 396.7985025465834 76.86529525885123 L 396.82721180186144 77.4476473571883 L 396.7739683288559 78.05414038388577 L 396.63501918085325 78.67473953897802 L 396.4077518050095 79.29896087968817 L 396.0907418566739 79.91599495279392 L 395.68378804325386 80.51483517185396 L 395.1879335497566 81.08440961133564 L 394.6054737315441 81.61371484909425 L 393.939949896784 82.0919504612595 L 393.19612914028744 82.50865275968746 L 392.3799703305682 82.8538263619066 L 391.4985764917263 83.11807219697481 L 390.56013395981415 83.29271057778939 L 389.573838828385 83.36989801094686 L 388.5498113286456 83.34273646890416 L 387.4989989148024 83.20537391549254 L 386.43306894358267 82.95309495420659 L 385.36429194738594 82.58240055844998 L 384.305416602002 82.09107594326868 L 383.2695375813128 81.47824574815051 L 382.26995757196863 80.74441581922488 L 381.3200447898821 79.89150100558962 L 380.4330873968022 78.92283851737164 L 379.6221462586194 77.84318653128547 L 378.89990751693097 76.65870787161872 L 378.27853646140267 75.37693873944035 L 377.7695341923688 74.00674260905187 L 377.38359855080944 72.55824955692692 L 377.13049076636 71.04278143324187 L 377.01890923349856 69.47276342823035 L 377.0563717718067 67.86162272365215 L 377.2491076586234 66.22367505234065 L 377.6019606420425 64.57400011480964 L 378.11830404970607 62.92830692004354 L 378.7999690049837 61.30279022671117 L 379.6471866477872 59.713979360055035 L 380.6585451334278 58.17858076762428 L 381.8309620506586 56.7133157529434 L 383.1596727605072 55.33475488934728 L 384.638235011934 54.0591506658843 L 386.2585500400343 52.90226995283024 L 388.01090019878666 51.87922789552474 L 389.884003024623 51.00432485162958 L 391.86508147076717 50.290887978331526 L 393.939949896784 49.75111905242899 L 396.09311524453733 49.3959500677383 L 398.3078926821882 49.234908101058636 L 400.5665348533693 49.27599087040391 L 402.85037373061357 49.52555432783477 L 405.13997394180745 49.988213534625615 L 407.41529631713007 50.66675795942113 L 409.6558702928191 51.562082221336624 L 411.8409737082641 52.67313317060598 L 413.9498184453796 53.99687406045629 L 415.96174028485717 55.52826641655629 L 417.8563912935298 57.260270055899724 L 419.6139330113778 59.18386154667121 L 421.21522867621724 61.288071235889625 L 422.6420327092454 63.560038803872345 L 423.87717568567365 65.98508713529071 L 424.9047430317755 68.54681412729659 L 425.71024572284335 71.2272018874067 L 426.28078130561454 74.00674260905186 L 426.6051836334366 76.86458025243354 L 426.6741597823465 79.77866700405028 L 426.4804127107945 82.72593334140093 L 426.0187483342409 85.68247039131134 L 425.2861658074759 88.62372314238758 L 424.281929941304 91.5246929555017 L 423.00762482513653 94.3601477121137 L 421.4671878818755 97.10483784967133 L 419.66692374497836 99.73371645724615 L 417.615497518419 102.22216154377061 L 415.3239071569629 104.5461985464349 L 412.8054348852685 106.68272111853491 L 410.07557775825853 108.6097082247507 L 407.15195765039346 110.30643557775308 L 404.05421114630894 111.75367947330402 L 400.80385998813347 112.93391112161265 L 397.4241629140576 113.83147963045019 L 393.939949896784 114.43278187009 L 390.377439957774 114.72641754104342 L 386.7640438921914 114.70332787218362 L 383.1281533886712 114.35691649842487 L 379.4989181660947 113.68315120274856 L 375.9060128751361 112.68064535600942 L 372.37939562423037 111.35071804846108 L 368.94906008669545 109.69743207804171 L 365.6447832270252 107.72760914078896 L 362.49587074899097 105.45082175684489 L 359.53090241541975 102.87936165982623 L 356.77747941876373 100.02818457625754 L 354.26197599241175 96.91483152364013 L 352.00929744481954 93.55932695883857 L 350.042646771843 89.98405431109114 L 348.38330195716935 86.21360963434059 L 347.050406006654 82.27463430999556 L 346.0607716800467 78.19562792195376 L 345.42870278353826 74.00674260905188 L 345.16583376945346 69.73956037441353 L 345.28098925608305 65.42685499486505 L 345.7800649320485 61.10234032517517 L 346.6659311468475 56.800406929932684 L 347.9383603135608 52.55584909909173 L 349.59397906248563 48.40358441039435 L 351.62624588715687 44.3783680919366 L 354.02545481840133 40.5145045101537 L 356.77876544939227 36.84555816166008 L 359.87025941687034 33.404066581041945 L 363.2810232225516 30.22125759039431 L 366.98925705609196 27.326773309790383 L 370.97040905868505 24.748403320821737 L 375.1973342463149 22.511829327871077 L 379.6404770957315 20.64038359407469 L 384.26807658624614 19.154823341352575 L 389.04639228825374 18.073123196975573 L 393.939949896784 17.410287643598487 L 398.9118044270507 17.17818528638236 L 403.92381912056504 17.38540659078162 L 408.9369579564244 18.037146568953844 L 413.91158952433307 19.135113702875593 L 418.8077998950564 20.677466189563027 L 423.58571202154525 22.658776379864207 L 428.2058091209261 25.070024058787503 L 432.62925942482156 27.89861898402362 L 436.8182396437745 31.12845286206138 L 440.7362544714395 34.7399806999988 L 444.34844945607887 38.71033122779267 L 447.62191459093475 43.013445842255976 L 450.5259760212798 47.620245282640674 L 453.03247333420455 52.498823010152734 L 455.1160199871237 57.61466403223558 L 456.75424454205256 62.93088768891975 L 457.92801050419934 68.40851270489337 L 458.621612714445 74.00674260905184 L 458.8229484147925 79.68326943494691 L 458.5236612926235 85.3945934424272 L 457.71925701224455 91.09635644445603 L 456.4091889592001 96.74368618503078 L 454.59691315253843 102.29154909563658 L 452.2899115208609 107.69510865991691 L 449.49968298768573 112.91008654022062 L 446.24170206845776 117.89312356622887 L 442.53534494337333 122.60213765564103 L 438.40378323497646 126.99667573035295 L 433.87384598506986 131.03825670898405 L 428.97585058968383 134.69070269809174 L 423.7434037115074 137.92045556981327 L 418.21317344411295 140.69687620271225 L 412.4246342493642 142.99252377475403 L 406.41978642651037 144.78341263188966 L 400.24285209657097 146.04924441180614" fill="none" stroke="#c77dff" stroke-width="1" opacity="0.3" class="drift" />
<path d="M 514.7847039418164 106.66921840588242 L 514.7847039418164 106.66921840588242 L 515.0622146089912 106.69349744326773 L 515.3333811373503 106.7659649991545 L 515.5919398797561 106.88551662355475 L 515.8317873147076 107.0503255864099 L 516.0470579732525 107.25786375804395 L 516.232199826235 107.5049305444024 L 516.3820463241299 107.78768958308017 L 516.4918843145106 108.10171282696318 L 516.5575171026186 108.44203156668459 L 516.5753219681673 108.80319387175012 L 516.5423015059843 109.17932786380358 L 516.4561282188563 109.56421017471972 L 516.3151818574363 109.9513388876165 L 516.1185790736625 110.3340102110018 L 515.866195030178 110.70539809558102 L 515.558676687993 111.05863597015384 L 515.1974475773667 111.38689974785471 L 514.7847039418164 111.68349123700231 L 514.3234022314954 111.94192108220439 L 513.8172380090955 112.1559903612217 L 513.2706164181101 112.31986997146045 L 512.6886144489152 112.42817695678431 L 512.0769353218733 112.47604695048888 L 511.44185538773644 112.45920194355702 L 510.790164023253 112.3740126284305 L 510.12909707330385 112.21755461713845 L 509.46626445940984 111.98765788828895 L 508.8095726373868 111.68294887966509 L 508.1671426436606 111.30288471141593 L 507.5472245197231 110.84777909848233 L 506.958108946912 110.3188195892839 L 506.40803695868635 109.71807585010221 L 505.90510862447945 109.04849880027803 L 505.45719161773957 108.31391049150787 L 505.07183059069695 107.51898471436843 L 504.75615827957654 106.66921840588242 L 504.51680925634724 105.7708940226258 L 504.35983722667174 104.8310331337128 L 504.2906367486 103.85734157614216 L 504.31387021290385 102.85814660060767 L 504.4334008840396 101.84232651815788 L 504.6522327508858 100.81923343624253 L 504.97245787903364 99.79860974595343 L 505.3952118919985 98.79049908993822 L 505.9206381378055 97.80515260187154 L 506.54786102060194 96.85293126289099 L 507.2749688949172 95.94420526749202 L 508.09900683365646 95.08925133053322 L 509.01597949063336 94.29814889780778 L 510.02086418522293 93.58067624474177 L 511.1076342413868 92.94620746090719 L 512.2692925167421 92.40361132200029 L 513.4979149603947 91.96115304561586 L 514.7847039418164 91.62639991252271 L 516.1200509980087 91.40613171126618 L 517.4936085534348 91.30625693093243 L 518.8943700775906 91.33173558502774 L 520.3107580594648 91.48650949895925 L 521.7307190973224 91.7734408349354 L 523.1418253270162 92.1942595616959 L 524.531381343111 92.7495205028651 L 525.8865357051923 93.43857051750265 L 527.1943960674316 94.25952628026718 L 528.4421469233697 95.20926303723631 L 529.6171689204414 96.28341461761765 L 530.7071586704216 97.47638488216259 L 531.7002479630613 98.78137068691791 L 532.5851212809677 100.19039633691536 L 533.3511305144299 101.69435939941889 L 533.9884057855038 103.2830876413594 L 534.48796131123 104.9454067515251 L 534.841795266296 106.66921840588242 L 535.0429826455797 108.44158813501038 L 535.0857601765717 110.24884235694958 L 534.9656023903093 112.0766738476906 L 534.6792880267502 113.91025483590444 L 534.2249560259337 115.73435682916998 L 533.6021504392588 117.53347620664219 L 532.8118536850683 119.29196454854265 L 531.856507668758 120.99416261669005 L 530.740022389036 122.62453685310197 L 529.4677717578942 124.16781722599758 L 528.0465764714468 125.60913522474203 L 526.4846738810961 126.93416078774354 L 524.7916749285624 128.1292369402976 L 522.978508323157 129.18151092304436 L 521.0573522543139 130.07906060613428 L 519.0415540457881 130.81101500937527 L 516.9455382691093 131.36766778444323 L 514.7847039418164 131.74058256148192 L 512.5753115397528 131.92268911879293 L 510.3343606513004 131.90836940044312 L 508.07945919397423 131.69353248201372 L 505.8286851994207 131.27567766882686 L 503.6004422507473 130.65394500317 L 501.4133097254966 129.82915255658085 L 499.28588905779054 128.803819989369 L 497.23664728357704 127.58217797138593 L 495.2837591729924 126.17016317470633 L 493.44494928313935 124.575398669392 L 491.73733528272214 122.80715967687846 L 490.17727390669927 120.87632476072213 L 488.7802108942309 118.79531266040993 L 487.5605362466438 116.57800509959675 L 486.53144611392617 114.23965602441389 L 485.70481257851816 111.79678784930296 L 485.0910625541084 109.26707540611106 L 484.69906695509695 106.66921840588243 L 484.5360412197587 104.02280333088316 L 484.60745818745033 101.34815577591773 L 484.91697423804675 98.66618435200625 L 485.4663695008613 95.99821735111315 L 486.2555028313585 93.36583344703186 L 487.282282137862 90.7906877740027 L 488.5426505180952 88.29433478049096 L 490.030588537751 85.89804930021137 L 491.7381328513881 83.62264731545413 L 493.65541123087513 81.4883079086435 L 495.7706939294547 79.51439790655358 L 498.0704611714167 77.71930071750938 L 500.53948641950734 76.12025084512668 L 503.1609349357284 74.73317553269922 L 505.91647701725094 73.57254495035392 L 508.786415158947 72.65123228277886 L 511.74982426865205 71.98038500902733 L 514.7847039418164 71.5693085880431 L 517.8681416897513 71.42536367467764 L 520.9764859112298 71.55387789171101 L 524.0855273017264 71.95807307447447 L 527.1706873089593 72.63900878691669 L 530.2072121684485 73.59554278225428 L 533.170370989256 74.82430894867207 L 536.0356563085735 76.31971314192664 L 538.7789854949191 78.07394716325516 L 541.376901353849 80.0770209938498 L 543.8067702776171 82.31681324750944 L 546.0469762813798 84.77913965215512 L 548.0771092834453 87.4478392199228 L 549.8781460157423 90.30487761579188 L 551.4326219930102 93.33046708742074 L 552.7247930249832 96.50320217528301 L 553.7407848247252 99.80021028356433 L 554.4687293478186 103.19731605978252 L 554.8988865907755 106.6692184058824 L 555.0237506821683 110.18967882675297 L 554.8381392157931 113.73171971474471 L 554.3392649008626 117.26783107182645 L 553.5267887387927 120.77018408539894 L 552.4028540786147 124.21084990029604 L 550.9721010522827 127.56202186888197 L 549.2416610460068 130.79623951400512 L 547.2211310230055 133.88661240641693 L 544.9225276754534 136.80704213951935 L 542.360221547621 139.53244058024507 L 539.5508514369093 142.03894258568053 L 536.513219543336 144.3041114007673 L 533.2681679996884 146.30713499297872 L 529.8384375726516 148.0290116350869 L 526.2485094784498 149.45272311668754 L 522.5244314035832 150.56339404859668 L 518.693628960852 151.34843582103179 L 514.7847039418165 151.79767388596153 L 510.82722084801014 151.90345715538146 L 506.8514832935054 151.66074843966453 L 502.88830196983827 151.06719499256698 L 498.9687559499262 150.12317838086943 L 495.1239491796213 148.8318430558511 L 491.3847640632568 147.19910316960463 L 487.781614092328 145.23362735030747" fill="none" stroke="#e0aaff" stroke-width="1" opacity="0.3" class="drift" />
<circle cx="592.9040731136395" cy="73.30446506301733" r="1.405533876431384" fill="white" opacity="0.7768673081045234" class="shimmer" style="animation-delay: 2.062337491179492s" />
<circle cx="760.8404572249694" cy="81.48882264557673" r="0.5191137067443158" fill="white" opacity="0.6043252552928391"  style="animation-delay: 4.674782992355366s" />
<circle cx="406.52961381570253" cy="195.6408403013804" r="1.0839591220706908" fill="white" opacity="0.7712662555191863"  style="animation-delay: 2.9042990230953336s" />
<circle cx="65.2564470118353" cy="12.690009216373" r="1.9056395147204817" fill="white" opacity="0.47999929225904653"  style="animation-delay: 2.6220485016981385s" />
<circle cx="53.45390254799671" cy="83.49966982064979" r="1.9532840577805843" fill="white" opacity="0.38201744027735635"  style="animation-delay: 2.3156575886987274s" />
<circle cx="581.684293345128" cy="40.613436634899045" r="0.5168711919659446" fill="white" opacity="0.4060031205076364"  style="animation-delay: 1.5763416456935975s" />
<circle cx="509.13245831536784" cy="26.21256893776538" r="0.7316154797327404" fill="white" opacity="0.7994177296190648" class="shimmer" style="animation-delay: 1.829657791923488s" />
<circle cx="52.327794815929174" cy="73.85580722264677" r="0.9648016104901517" fill="white" opacity="0.5978070109006108"  style="animation-delay: 2.7796592128739905s" />
<circle cx="460.8998795378609" cy="193.48773756333762" r="1.0501309436801978" fill="white" opacity="0.475116187443219"  style="animation-delay: 3.5256254380610597s" />
<circle cx="413.344374814667" cy="61.581984789799634" r="0.5443265082033798" fill="white" opacity="0.34167669001483875" class="shimmer" style="animation-delay: 4.737987000513309s" />
<circle cx="588.78491955426" cy="186.34537760862725" r="0.5304985659976331" fill="white" opacity="0.7231800761391225"  style="animation-delay: 2.9953361098756393s" />
<circle cx="509.1396224159332" cy="184.148950876715" r="0.7541018216996724" fill="white" opacity="0.4267939024290283" class="shimmer" style="animation-delay: 3.571841823857176s" />
<circle cx="535.8131756981644" cy="25.573497748306508" r="0.9024479049584644" fill="white" opacity="0.30597055083169095"  style="animation-delay: 2.0662636075061327s" />
<circle cx="374.6417154193244" cy="59.081037875119605" r="0.9945058953681895" fill="white" opacity="0.5175814977564399" class="shimmer" style="animation-delay: 0.8300827255996346s" />
<circle cx="197.6823309972641" cy="143.53829943302995" r="0.5641374304258044" fill="white" opacity="0.7539937864562631"  style="animation-delay: 4.294502140183641s" />
<circle cx="643.6253541686348" cy="29.04148578871375" r="1.1589913242591847" fill="white" opacity="0.6269867173631736"  style="animation-delay: 2.8407306416985234s" />
<circle cx="4.339715645360798" cy="153.61202550642844" r="1.5799230619094644" fill="white" opacity="0.5408861487847092"  style="animation-delay: 3.9090558967734443s" />
<circle cx="11.95189380511028" cy="176.12088123312586" r="1.6735920014084016" fill="white" opacity="0.3799719783374836" class="shimmer" style="animation-delay: 1.8460248067374285s" />
<circle cx="445.3140232566849" cy="74.4376315982573" r="0.5496619672577799" fill="white" opacity="0.5960170172422488" class="shimmer" style="animation-delay: 0.5854120236288651s" />
<circle cx="303.8744849323322" cy="134.4680742223215" r="1.8202603769762777" fill="white" opacity="0.551036844554256" class="shimmer" style="animation-delay: 2.084061678498058s" />
<circle cx="488.7104475180294" cy="69.25842002455683" r="1.9529133200642081" fill="white" opacity="0.3550215315368927" class="shimmer" style="animation-delay: 2.3958102330852804s" />
<circle cx="212.67186498690762" cy="164.35811340508616" r="0.6016699424049559" fill="white" opacity="0.7650080208879191" class="shimmer" style="animation-delay: 4.4381659861281975s" />
<circle cx="574.7051934853188" cy="78.1795547161873" r="0.7736187558169231" fill="white" opacity="0.5559409828845532"  style="animation-delay: 4.741384972016677s" />
<circle cx="654.5879962840679" cy="59.036431474853444" r="1.6739881020479037" fill="white" opacity="0.36402196248671176"  style="animation-delay: 2.4550622677448963s" />
<circle cx="161.5826065673392" cy="185.31211942502267" r="1.6751845037267343" fill="white" opacity="0.7635259287247171"  style="animation-delay: 4.024674087347697s" />
<circle cx="460.7452095302447" cy="26.761090674412813" r="1.2790276187732705" fill="white" opacity="0.5002470003695907" class="shimmer" style="animation-delay: 4.803684569662555s" />
<circle cx="605.7403872285577" cy="55.721722865707825" r="1.703496330334234" fill="white" opacity="0.7255407025916436"  style="animation-delay: 3.7558247279107846s" />
<circle cx="282.3732629187843" cy="120.63324455850059" r="1.9048152304863373" fill="white" opacity="0.6628755582642618" class="shimmer" style="animation-delay: 0.034296776318029076s" />
<circle cx="171.41967371820073" cy="173.76916198683952" r="1.5134643196957303" fill="white" opacity="0.7349674417084713" class="shimmer" style="animation-delay: 2.3944285106781713s" />
<circle cx="242.84867405980572" cy="183.61594343194722" r="1.9766330160405343" fill="white" opacity="0.782901590695642"  style="animation-delay: 0.679605356288373s" />
<circle cx="3.295882408274764" cy="84.50535088082059" r="1.9963166517820563" fill="white" opacity="0.6483458396855224"  style="animation-delay: 0.07222807449699498s" />
<circle cx="178.02558285086488" cy="43.870139437122944" r="1.6573992557870727" fill="white" opacity="0.6888066343584536" class="shimmer" style="animation-delay: 1.8910278527987145s" />
<circle cx="781.0805671643723" cy="181.76687821145444" r="1.6112550513249342" fill="white" opacity="0.785262493348543" class="shimmer" style="animation-delay: 4.026545792363906s" />
<circle cx="244.77820099681952" cy="198.36806036400043" r="1.6007605253589783" fill="white" opacity="0.43718056666151933"  style="animation-delay: 3.5769033141933027s" />
<circle cx="506.3444447127727" cy="46.62521318923556" r="0.6275452164191991" fill="white" opacity="0.6844001683982777"  style="animation-delay: 3.2015222729289006s" />
<circle cx="95.62849761454206" cy="16.300121851411433" r="1.6206016616062149" fill="white" opacity="0.47252781396911364"  style="animation-delay: 1.2459349034248224s" />
<circle cx="685.4081857188687" cy="40.79274690323218" r="1.7572080897727005" fill="white" opacity="0.6155446861826346"  style="animation-delay: 4.759535488455366s" />
<circle cx="589.1158039612985" cy="124.07104540463534" r="1.0407902882452493" fill="white" opacity="0.31706125290330384"  style="animation-delay: 0.3620678884678574s" />
<circle cx="689.7955680410748" cy="86.68428964499219" r="1.427665622046451" fill="white" opacity="0.546672181086354"  style="animation-delay: 2.0930674762458548s" />
<circle cx="46.959219278491204" cy="62.89682878945837" r="1.2234899660025293" fill="white" opacity="0.4930749274617258" class="shimmer" style="animation-delay: 2.9180986741445745s" />
<circle cx="169.77279256261468" cy="192.07781170536703" r="1.9207689076007415" fill="#4a0080" opacity="0.8" filter="url(#glow)" class="shimmer" style="animation-delay: 1.4643302477910198s" />
<circle cx="503.13538912170304" cy="110.53575007548599" r="1.1450577092962688" fill="#4a0080" opacity="0.8" filter="url(#glow)" class="shimmer" style="animation-delay: 2.1929518160125836s" />
<circle cx="298.3318309667844" cy="106.22833703455453" r="1.009677136035931" fill="#9d4edd" opacity="0.8" filter="url(#glow)" class="shimmer" style="animation-delay: 0.8579677758720115s" />
<circle cx="172.2994798705761" cy="162.5483436610838" r="1.3246624010058752" fill="#7b2cbf" opacity="0.8" filter="url(#glow)" class="shimmer" style="animation-delay: 2.7273507721378794s" />
<circle cx="73.9246125030359" cy="134.08876254627464" r="2.994172158900333" fill="#c77dff" opacity="0.8" filter="url(#glow)" class="shimmer" style="animation-delay: 1.4964195349648302s" />
<circle cx="503.3103067502088" cy="167.43002021173913" r="2.5757448067394764" fill="#c77dff" opacity="0.8" filter="url(#glow)" class="shimmer" style="animation-delay: 1.328476486238447s" />
<circle cx="778.1875904278094" cy="5.18840690939073" r="1.835924526090586" fill="#7b2cbf" opacity="0.8" filter="url(#glow)" class="shimmer" style="animation-delay: 0.3282162476335717s" />
<circle cx="496.3889903362094" cy="148.26043239897166" r="1.7496308059713002" fill="#4a0080" opacity="0.8" filter="url(#glow)" class="shimmer" style="animation-delay: 2.7085199559544844s" />
<line x1="607.2626856672867" y1="42.061978841129765" x2="519.9336913796393" y2="141.42049846277172" stroke="#e0aaff" stroke-width="0.5" opacity="0.3" />
<line x1="519.9336913796393" y1="141.42049846277172" x2="108.73828175063404" y2="128.98353077067893" stroke="#e0aaff" stroke-width="0.5" opacity="0.3" />
<line x1="108.73828175063404" y1="128.98353077067893" x2="690.2415641315256" y2="79.8333004898455" stroke="#e0aaff" stroke-width="0.5" opacity="0.3" />
<line x1="690.2415641315256" y1="79.8333004898455" x2="126.33916939323254" y2="149.1040043599674" stroke="#e0aaff" stroke-width="0.5" opacity="0.3" />

  
    <text x="400" y="120" text-anchor="middle" class="name-text" fill="url(#textGrad)" filter="url(#textGlow)">
      JOEL HOOKS
    </text>
  
</svg>
