<svg xmlns="http://www.w3.org/2000/svg" viewBox="0 0 800 200" width="800" height="200">
  <rect width="800" height="200" fill="#05010d"/>
  
    <defs>
      <linearGradient id="grad1" x1="0%" y1="0%" x2="100%" y2="100%">
        <stop offset="0%" style="stop-color:#4a0080;stop-opacity:0.8" />
        <stop offset="100%" style="stop-color:#7b2cbf;stop-opacity:0.8" />
      </linearGradient>
      <linearGradient id="grad2" x1="100%" y1="0%" x2="0%" y2="100%">
        <stop offset="0%" style="stop-color:#9d4edd;stop-opacity:0.7" />
        <stop offset="100%" style="stop-color:#c77dff;stop-opacity:0.7" />
      </linearGradient>
      <linearGradient id="textGrad" x1="0%" y1="0%" x2="100%" y2="0%">
        <stop offset="0%" style="stop-color:#4a0080" />
        <stop offset="25%" style="stop-color:#7b2cbf" />
        <stop offset="50%" style="stop-color:#9d4edd" />
        <stop offset="75%" style="stop-color:#c77dff" />
        <stop offset="100%" style="stop-color:#e0aaff" />
      </linearGradient>
      <filter id="glow">
        <feGaussianBlur stdDeviation="5" result="coloredBlur"/>
        <feMerge>
          <feMergeNode in="coloredBlur"/>
          <feMergeNode in="SourceGraphic"/>
        </feMerge>
      </filter>
      <filter id="textGlow">
        <feGaussianBlur stdDeviation="2" result="coloredBlur"/>
        <feMerge>
          <feMergeNode in="coloredBlur"/>
          <feMergeNode in="SourceGraphic"/>
        </feMerge>
      </filter>
    </defs>
  
  
    <style>
      @keyframes float {
        0%, 100% { transform: translateY(0px); }
        50% { transform: translateY(-8px); }
      }
      @keyframes pulse {
        0%, 100% { opacity: 0.4; }
        50% { opacity: 0.9; }
      }
      @keyframes drift {
        0% { transform: translateX(0px); }
        50% { transform: translateX(10px); }
        100% { transform: translateX(0px); }
      }
      @keyframes shimmer {
        0% { opacity: 0.3; }
        50% { opacity: 1; }
        100% { opacity: 0.3; }
      }
      @keyframes glitch {
        0%, 100% { transform: translateX(0); }
        20% { transform: translateX(-2px); }
        40% { transform: translateX(2px); }
        60% { transform: translateX(-1px); }
        80% { transform: translateX(1px); }
      }
      @keyframes dataStream {
        0% { stroke-dashoffset: 0; }
        100% { stroke-dashoffset: -20; }
      }
      .float { animation: float 8s ease-in-out infinite; }
      .pulse { animation: pulse 8s ease-in-out infinite; }
      .drift { animation: drift 8s ease-in-out infinite; }
      .shimmer { animation: shimmer 3s ease-in-out infinite; }
      .glitch { animation: glitch 0.5s ease-in-out infinite; }
      .dataStream { animation: dataStream 2s linear infinite; }
      .name-text { 
        font-family: -apple-system, BlinkMacSystemFont, 'Segoe UI', Helvetica, Arial, sans-serif;
        font-weight: 700;
        font-size: 64px;
        letter-spacing: -2px;
      }
    </style>
  
  <path d="M 622.7208612251941 52.098847010258574 C 613.1519444241153 72.05001499061686, 565.4306353868977 77.79502654246188, 549.6958278291402 93.5036426858621 C 533.9610202713826 109.21225882926232, 541.9347367348879 133.18664840543954, 528.3120158786487 146.35054387065992 C 514.6892950224095 159.5144393358803, 485.46257749581025 176.27511068845422, 467.95950269170476 172.48701547718443 C 450.45642788759926 168.69892026591464, 432.1101712658314 140.2508052231123, 423.29356705401574 123.62197260304112 C 414.47696284220007 106.99313998296992, 428.1064599792785 91.4982868596211, 415.05987742081066 72.7140197567573 C 402.01329486234283 53.92975265389349, 344.84531214716446 27.6616915288345, 345.0140717032087 10.916369985858246 C 345.1828312592529 -5.828951557118007, 395.0036965398922 -18.57587808360794, 416.072434757076 -27.757909501100222 C 437.1411729742598 -36.939940918592505, 450.52723355850446 -36.97538291568228, 471.4265010063116 -44.175818519095465 C 492.3257684541187 -51.37625412250865, 518.8542348390353 -73.95593200871396, 541.4680394439189 -70.96052312157931 C 564.0818440488025 -67.96511423444467, 593.5671916720672 -46.71326021826061, 607.1093286356131 -26.203365196287628 C 620.651465599159 -5.693470174314648, 632.2897780262729 32.14767902990029, 622.7208612251941 52.098847010258574 Z" fill="#c77dff" opacity="0.22390035386259044" filter="url(#glow)" class="float" />
<path d="M 302.5999861779138 173.81447038375018 C 300.63564606375775 184.91091907336371, 274.591546094137 196.53062868779594, 263.52747576841114 203.3166022408273 C 252.46340544268529 210.10257579385868, 244.9968539326544 211.58624325780596, 236.21556422355866 214.53031170193844 C 227.4342745144629 217.47438014607093, 224.91793028250612 215.09638058639425, 210.8397375138366 220.98101290562226 C 196.7615447451671 226.86564522485028, 165.7362421150777 253.25953742761655, 151.74640761154154 249.8381056173066 C 137.7565731080054 246.41667380699667, 126.49634949484663 216.22805804565235, 126.90073049261974 200.4524220437626 C 127.30511149039286 184.67678604187284, 144.32925194502226 165.7135234991306, 154.17269359818022 155.18428960596802 C 164.01613525133817 144.65505571280545, 177.0248720582382 145.56628939153214, 185.9613804115674 137.27701868478718 C 194.8978887648966 128.98774797804222, 196.113557744426 113.37650512419333, 207.7917437181555 105.4486653654982 C 219.46992969188497 97.52082560680307, 244.77686746474555 84.49510600967506, 256.03049625394425 89.70998013261637 C 267.2841250431429 94.92485425555768, 267.5519347993527 122.72049506129045, 275.31351645334763 136.73791010314608 C 283.07509810734257 150.7553251450017, 304.5643262920699 162.71802169413664, 302.5999861779138 173.81447038375018 Z" fill="#e0aaff" opacity="0.10526956578434948" filter="url(#glow)" class="float" />
<path d="M 386.2998358161659 139.37890171756288 C 384.5179627672196 153.98195924583032, 373.7880823555145 168.61571134772882, 364.46272676641263 179.30425465366704 C 355.13737117731074 189.99279795960527, 345.84694014356705 190.65038934636485, 330.34770228155446 203.5101615531923 C 314.84846441954187 216.36993376001973, 288.94236900476864 256.9782728946976, 271.46729959433713 256.4628878946317 C 253.99223018390563 255.94750289456576, 226.8247858791286 219.9318492489748, 225.4972858189655 200.41785155279666 C 224.16978575880242 180.90385385661853, 256.0071125013377 154.27964641315276, 263.5022992333586 139.37890171756288 C 270.9974859653795 124.47815702197299, 266.5716395779853 122.61999164127575, 270.46840621109084 111.0133833792573 C 274.36517284419637 99.40677511723887, 274.85939198964405 81.98983812273278, 286.8828990319919 69.73925214545224 C 298.9064060743397 57.488666168171704, 327.89760412716146 33.85209129247239, 342.6094484651779 37.50986751557407 C 357.3212928031943 41.16764373867576, 367.8722338349256 74.70773711706423, 375.1539650600903 91.68590948406236 C 382.43569628525495 108.6640818510605, 388.0817088651122 124.77584418929544, 386.2998358161659 139.37890171756288 Z" fill="#7b2cbf" opacity="0.2155054121236517" filter="url(#glow)" class="float" />
<path d="M 457.84879710809844 88.39426530297696 C 464.43657589780736 104.18827460320787, 491.69421912578395 136.38882746856498, 486.82724262157177 150.13519757111536 C 481.9602661173596 163.88156767366573, 445.76084137021365 172.08126057223888, 428.64693808282544 170.87248591827915 C 411.53303479543723 169.66371126431943, 402.5110365919106 146.52943566784126, 384.1438228972426 142.88254964735705 C 365.7766092025746 139.23566362687285, 330.55522729669275 158.07255051943727, 318.4436559148172 148.99116979537393 C 306.3320845329417 139.9097890713106, 304.93260690384574 103.84034649231951, 311.47439460598935 88.39426530297698 C 318.01618230813295 72.94818411363444, 344.53069048998816 62.15797019293138, 357.6943821276788 56.31468265931875 C 370.85807376536945 50.47139512570612, 379.1833676907245 60.034664667998726, 390.4565444321331 53.3345401013012 C 401.72972117354175 46.634415534603676, 415.85943833426643 15.774501647728835, 425.3334425761306 16.113935259133612 C 434.8074468179948 16.453368870538387, 441.88134412799025 43.32442009575597, 447.30056988331825 55.37114176972986 C 452.71979563864625 67.41786344370375, 451.2610183183895 72.60025600274605, 457.84879710809844 88.39426530297696 Z" fill="#7b2cbf" opacity="0.1755709506814483" filter="url(#glow)" class="float" />
<path d="M 232.98767871276712 126.70952659768209 L 232.98767871276712 126.70952659768209 L 233.43772562520567 126.7489006005753 L 233.87748406796058 126.86642328938157 L 234.2967961069836 127.06030354625993 L 234.68576348850854 127.32757891131257 L 235.0348740153328 127.66414944500741 L 235.33512380445322 128.0648246532749 L 235.57813411610658 128.52338299849646 L 235.75626149745204 129.03264339119497 L 235.86270004968304 129.584547934598 L 235.89157470465824 130.17025507853825 L 235.8380244854754 130.78024223150123 L 235.6982748239528 131.4044167810543 L 235.46969811581295 132.03223438435288 L 235.1508618104738 132.65282331277712 L 234.74156345565632 133.25511356876447 L 234.24285224636301 133.82796943922978 L 233.65703676195182 134.36032410913734 L 232.98767871276712 134.84131493123908 L 232.239572657796 135.26041793401444 L 231.41871179577225 135.60758014961672 L 230.53224007272223 135.87334835719741 L 229.58839098779947 136.04899286426 L 228.59641361507065 136.12662498948427 L 227.5664864903958 136.0993069644265 L 226.50962013843014 135.96115303818013 L 225.43754913385024 135.7074206479081 L 224.3626147020194 135.3345906084298 L 223.29763896636987 134.8404353749772 L 222.2557920417894 134.22407454391302 L 221.25045325433663 133.48601687564627 L 220.29506783685983 132.6281882510991 L 219.40300050683564 131.65394510672593 L 218.5873873763859 130.56807303203834 L 217.86098767447825 129.37677035657336 L 217.23603677741806 128.0876166989447 L 216.7241020456531 126.70952659768209 L 216.335942952541 125.25268849063306 L 216.08137696409133 123.72848945539184 L 215.96915258795292 122.14942626617017 L 216.00683095535277 120.52900346137727 L 216.20067723172843 118.88161924961445 L 216.55556307096444 117.22244020853225 L 217.07488123511047 115.56726584982245 L 217.76047339700003 113.9323842333612 L 218.61257202818757 112.33441991310255 L 219.62975715006803 110.79017558574377 L 220.80892859301355 109.31646888954576 L 222.14529426802443 107.9299658641933 L 223.63237480897894 106.64701263253829 L 225.2620247923861 105.48346690091415 L 227.02447058694383 104.45453089600198 L 228.90836472858047 103.57458736265205 L 230.90085655942664 102.85704023843923 L 232.98767871276712 102.31416159701106 L 235.15324887189405 101.95694641356214 L 237.38078608035272 101.79497665226513 L 239.6524407357461 101.83629610756904 L 241.9494372604091 102.08729734943127 L 244.25222831120593 102.5526220274069 L 246.54065926869546 103.2350756808211 L 248.7941416341494 104.13555808286685 L 250.991833862492 105.25301001637392 L 253.11282807117846 106.58437723927074 L 255.1363409902465 108.12459224957898 L 257.04190745806204 109.86657430440587 L 258.80957472131416 111.80124798616089 L 260.4200957671474 113.91758044352275 L 261.8551199003715 116.2026372659639 L 263.09737877974607 118.64165678039176 L 264.1308661445383 121.21814238820002 L 264.9410094959038 123.91397239226369 L 265.51483204699514 126.70952659768207 L 265.84110332078086 129.58382880888692 L 265.91047685492526 132.51470419056307 L 265.71561356817904 135.4789503121281 L 265.2512894518544 138.45252055666126 L 264.5144863722788 141.41071844649207 L 263.5044649046864 144.3284013203889 L 262.22281826474097 147.18019169258702 L 260.6735065596164 149.94069453281094 L 258.8628707450103 152.58471862992522 L 256.79962584627424 155.08750014070256 L 254.49483317956597 157.4249263801356 L 251.9618514910668 159.57375788128746 L 249.21626711729763 161.51184674129888 L 246.2758034558225 163.21834927612292 L 243.1602102215245 164.6739310299599 L 239.89113314754454 165.86096222619443 L 236.49196497026347 166.76370180471253 L 232.98767871276712 167.36846826546713 L 229.4046444494844 167.66379562958963 L 225.77043089459076 167.64057293658138 L 222.11359330685409 167.29216581839285 L 218.46344934245082 166.61451882760582 L 214.84984461358601 165.6062373464303 L 211.3029098232818 164.2686480646597 L 207.8528114443396 162.60583718681454 L 204.5294979922343 160.62466571007243 L 201.36244400669213 158.33476130375703 L 198.38039390420562 155.74848651659323 L 195.61110789315504 152.8808832380036 L 193.08111215410344 149.74959354276027 L 190.81545547991382 146.37475725258372 L 188.8374745434898 142.7788867520746 L 187.16856991519046 138.98671979790652 L 185.8279948875136 135.02505125775488 L 184.83265908184285 130.9225449072563 L 184.19694871142508 126.7095265976821 L 183.93256525696577 122.41776028232148 L 184.04838417712668 118.08020855421036 L 184.55033512675752 113.73077950030194 L 185.4413049920069 109.40406181602863 L 186.72106487478243 105.13505024812983 L 188.38622197073127 100.9588635414182 L 190.43019708647606 96.91045715573193 L 192.8432283348357 93.02433309174526 L 195.61240133286034 89.33424921777527 L 198.72170600845206 85.87293052357944 L 202.15211989892293 82.67178474091142 L 205.88171760091043 79.76062476396012 L 209.8858058074943 77.16740027559229 L 214.13708314703743 74.91794093756832 L 218.60582382107566 73.03571343480657 L 223.26008382739894 71.54159457568741 L 228.065928351115 70.45366254286402 L 232.9876787127671 69.78700826278305 L 237.98817708020562 69.55356871798693 L 243.0290669815342 69.76198386530048 L 248.07108750161422 70.41747864637361 L 253.07437890575773 71.52177138608542 L 257.9987973126905 73.07300967046088 L 262.8042359358094 75.0657345805879 L 267.45095032823997 77.49087393423247 L 271.8998850041079 80.33576495420957 L 276.1129987665057 83.58420654394351 L 280.0535860524109 87.21654110796302 L 283.68659160669637 91.20976561031526 L 286.9789158215474 95.5376713190469" fill="none" stroke="#c77dff" stroke-width="1" opacity="0.3" class="drift" />
<path d="M 551.7955942307161 121.90638531323272 L 551.7955942307161 121.90638531323272 L 552.121490892081 121.9348975765831 L 552.4399372680917 122.02000037555368 L 552.7435775993791 122.1603966913041 L 553.0252441712748 122.3539412901633 L 553.2780488278447 122.59766524474088 L 553.495471503449 122.88780991423442 L 553.6714448232435 123.2198700386756 L 553.8004338625498 123.58864550887392 L 553.877510202491 123.98830128500754 L 553.8984194752676 124.41243485302476 L 553.8596416564121 124.85415053006157 L 553.7584434327196 125.30613985869864 L 553.5929220526374 125.76076726576716 L 553.3620401499732 126.21016010518831 L 553.0656511210731 126.64630215654766 L 552.7045147292838 127.06112961223747 L 552.2803027076725 127.44662855643602 L 551.7955942307161 127.79493291924292 L 551.253861227059 128.09842187916584 L 550.6594436075065 128.34981568698865 L 550.0175145842164 128.54226889387363 L 549.3340363575979 128.66945998630578 L 548.6157065457786 128.72567646002443 L 547.8698958267094 128.70589440416455 L 547.1045773541344 128.6058517151165 L 546.3282485948822 128.42211411669203 L 545.5498463153916 128.15213322855718 L 544.7786555192984 127.79429599797692 L 544.024213204531 127.34796489006749 L 543.2962078670513 126.81350831824123 L 542.6043757285186 126.19232088858334 L 541.9583947062462 125.4868331286774 L 541.3677771754233 124.70051047201794 L 540.841762595331 123.83784137268904 L 540.3892110829446 122.90431453049588 L 540.0184990186957 121.90638531323272 L 539.7374177602148 120.85143156926881 L 539.5530765205799 119.74769912913447 L 539.4718104380972 118.60423739830475 L 539.4990948251287 117.43082554392686 L 539.6394665342614 116.23788987486577 L 539.8964533215853 115.0364131062208 L 540.272512019476 113.83783628551221 L 540.7689762556311 112.65395423720612 L 541.3860143718421 111.49680545435864 L 542.1225981057793 110.3785574301893 L 542.9764825027426 109.31138847769124 L 543.9441974227025 108.30736713136903 L 545.0210509019361 107.37833026137213 L 546.2011445190838 106.53576105624849 L 547.4774008035026 105.79066804596192 L 548.8416026103712 105.15346634146731 L 550.2844442731462 104.63386226089298 L 551.7955942307161 104.24074249520208 L 553.3637687149868 103.98206893816317 L 554.976815975703 103.86478026671612 L 556.6218104140725 103.89470130863594 L 558.2851558962096 104.07646117513102 L 559.9526974225124 104.41342106711485 L 561.6098402407331 104.90761258590311 L 563.2416754095755 105.55968729263631 L 564.8331107469354 106.36887816652202 L 566.3690060331398 107.33297351080901 L 567.8343112853852 108.44830374810311 L 569.214206875614 109.7097414341203 L 570.4942442307787 111.11071470221398 L 571.6604858322398 112.6432342310233 L 572.6996432202146 114.29793370541276 L 573.5992117099648 116.06412361759091 L 574.3476005388619 117.9298581319991 L 574.9342571876241 119.88201461535603 L 575.349784654757 121.90638531323272 L 575.5860505103539 123.98778053781017 L 575.636286613613 126.11014261910822 L 575.4951784472909 128.25666976501728 L 575.1589431013322 130.40994887491385 L 574.625395026497 132.55209625845845 L 573.8939987762446 134.66490512625484 L 572.9659080606689 136.72999864323089 L 571.8439905490525 138.7289872696447 L 570.5328379766895 140.64362905920603 L 569.0387612360385 142.4559915395275 L 567.3697702609674 144.14861376748684 L 565.53553864474 145.70466713149418 L 563.547353066355 147.10811346441946 L 561.4180477347237 148.3438590352456 L 559.1619241947863 149.39790300445938 L 556.7946569728383 150.2574789577588 L 554.3331856688995 150.91118817470888 L 551.7955942307161 151.3491233432838 L 549.200978265832 151.5629814974387 L 546.569301363952 151.54616503250998 L 543.9212415105033 151.29386974178536 L 541.2780287728474 150.8031589163631 L 538.661275532061 150.07302265867676 L 536.0928006146889 149.1044216769601 L 533.5944487495792 147.90031495254175 L 531.1879068341115 146.4656708031948 L 528.8945185411932 144.80746100275567 L 526.7350988327956 142.93463775874773 L 524.7297499671057 140.8580934946228 L 522.8976805942558 138.59060353026166 L 521.2570295298663 136.1467519023009 L 519.824695776189 133.54284071342795 L 518.6161763275115 130.79678354573113 L 517.6454132498097 127.9279836162436 L 516.9246514646718 124.95719749172294 L 516.4643085946549 121.90638531323273 L 516.2728581419419 118.79854860804177 L 516.3567271750585 115.65755688557995 L 516.7202095901856 112.50796432459151 L 517.3653958950714 109.37481795917634 L 518.292120335609 106.28345886114823 L 519.4979260487899 103.25931789420035 L 520.9780487820508 100.32770768095695 L 522.7254195691283 97.51361247643536 L 524.7306865976435 94.8414776801601 L 526.9822563450084 92.33500074368655 L 529.4663538981872 90.016925240266 L 532.1671022106821 87.90883985857349 L 535.0666198882185 86.0309840627198 L 538.1451369343332 84.4020621261912 L 541.3811277297895 83.0390671980502 L 544.7514603668166 81.95711699594597 L 548.2315613119191 81.16930264262011 L 551.7955942307161 80.68655207116123 L 555.4166516762139 80.51750931989031 L 559.0669582192576 80.66843092119478 L 562.7180834877855 81.14310046072421 L 566.3411634809602 81.94276224507371 L 569.90712843623 83.06607486846252 L 573.3869354527535 84.50908531310755 L 576.7518040141308 86.26522405521108 L 579.9734525077062 88.32532148001926 L 583.0243338073384 90.67764573661049 L 585.877867971888 93.30796198733235 L 588.5086701130391 96.19961282956497 L 590.8927715035742 99.33361949019357 L 593.0078320308921 102.68880321730575 L 594.833342150272 106.24192612066213 L 596.3508125578766 109.96785054387772 L 597.5439498843832 113.83971588844456 L 598.3988168058969 117.82913165412904 L 598.9039750787978 121.90638531323269 L 599.0506101286268 126.04066349903718 L 598.8326359591343 130.20028486266284 L 598.2467792952026 134.35294283873046 L 597.2926420313895 138.46595645966434 L 595.9727412251493 142.50652727217607 L 594.2925260490401 146.44200033827522 L 592.2603712980941 150.24012724778612 L 589.8875472355552 153.8693290304155 L 587.1881657508881 157.29895683340453 L 584.1791029968092 160.49954822603024 L 580.8798988655226 163.44307700491208 L 577.3126338567605 166.10319440428967 L 573.5017840800725 168.4554596630718 L 569.4740553194742 170.47755796530288 L 565.2581972684995 172.14950385237108 L 560.8847992163929 173.45382830328015 L 556.3860686301266 174.37574779298174 L 551.7955942307162 174.90331376732462 L 547.1480953046049 175.02754111571156 L 542.4791591203974 174.74251437803133 L 537.82496843679 174.04547058969706 L 533.2220211880968 172.9368578464204 L 528.7068445183435 171.42036885732907 L 524.3157054026684 169.50294894975562 L 520.0843201450239 167.19477818996705 L 516.0475650733407 164.50922748969757 L 512.2391907669946 161.4627887769542 L 508.691542146293 158.07497951951856 L 505.43528672968046 154.36822209917807 L 502.49915332146026 150.36769874228207 L 499.909683331214 146.1011829160186 L 497.6909968461316 141.5988482981785 L 495.8645754795998 136.89305661944434 L 494.4490639042884 132.01812585979826 L 493.4600918463989 127.01008045295002 L 492.910118170614 121.90638531323276 L 492.80829852366907 116.74566564681484 L 493.1603778295372 111.56741464202543 L 493.96860874227383 106.41169125087842 L 495.2316969650141 101.31881037442582 L 496.9447741369567 96.32902784743058 L 499.0993987759943 91.48222268218001 L 501.68358554462554 86.81757907640161 L 504.6818628826256 82.3732707156646 L 508.07535882344484 78.18614990596173 L 511.84191458423754 74.2914440571839 L 515.956225293632 70.72246200284071 L 520.3900069986615 67.51031258577802 L 525.1121888745009 64.68363786406749" fill="none" stroke="#9d4edd" stroke-width="1" opacity="0.3" class="drift" />
<circle cx="770.5346807664091" cy="71.96274215969898" r="1.9901955124433302" fill="white" opacity="0.7683237907637852"  style="animation-delay: 1.476766952646622s" />
<circle cx="732.2055153933535" cy="138.04192704984328" r="0.9444028854988792" fill="white" opacity="0.7893694184000668" class="shimmer" style="animation-delay: 1.4255287791132876s" />
<circle cx="548.4892956773766" cy="148.07473075993266" r="1.0477300245319925" fill="white" opacity="0.6873556015191591"  style="animation-delay: 1.3811108557181218s" />
<circle cx="669.2153300207392" cy="127.51844410416835" r="1.5535811382452338" fill="white" opacity="0.7535833328467669" class="shimmer" style="animation-delay: 1.0221076268961249s" />
<circle cx="189.86109519891522" cy="171.46193570704636" r="1.3175450723465543" fill="white" opacity="0.36971263272226546"  style="animation-delay: 3.6164956330720077s" />
<circle cx="329.6702339861831" cy="71.95156927256701" r="1.7795526266757395" fill="white" opacity="0.30419385992923004"  style="animation-delay: 4.390825893669364s" />
<circle cx="32.47441372205291" cy="131.54705192792005" r="1.1917695692097874" fill="white" opacity="0.6914001540625729"  style="animation-delay: 4.964221356181879s" />
<circle cx="571.131944862515" cy="117.28880096097521" r="1.79028808850001" fill="white" opacity="0.6277095859071482" class="shimmer" style="animation-delay: 2.4834276016730095s" />
<circle cx="142.3037489507621" cy="20.598346828339764" r="1.16281377253548" fill="white" opacity="0.5844882464866492" class="shimmer" style="animation-delay: 3.304707400687273s" />
<circle cx="214.36247677126445" cy="163.43525020416752" r="1.1097317321543398" fill="white" opacity="0.4553997111638434"  style="animation-delay: 2.8922924244756656s" />
<circle cx="751.438634075568" cy="29.93300577518334" r="0.8175363317694323" fill="white" opacity="0.4726142779265072"  style="animation-delay: 4.884925360515919s" />
<circle cx="113.42234842091763" cy="133.66094727765204" r="1.692721176536959" fill="white" opacity="0.5939343939613417"  style="animation-delay: 1.926859300752637s" />
<circle cx="203.13355544623323" cy="186.23866567130528" r="1.2278290078969452" fill="white" opacity="0.7064564968492997" class="shimmer" style="animation-delay: 0.3343636452288101s" />
<circle cx="467.7668886878845" cy="0.6967667802994626" r="0.5071244084869891" fill="white" opacity="0.6313433104175956" class="shimmer" style="animation-delay: 2.7946023826328514s" />
<circle cx="29.597586311935054" cy="14.323820566701473" r="0.8711753742261193" fill="white" opacity="0.3255209215674884"  style="animation-delay: 4.441657586269711s" />
<circle cx="296.9912236343125" cy="151.47017217307734" r="0.9026024078707814" fill="white" opacity="0.347718494723615"  style="animation-delay: 2.949576186819185s" />
<circle cx="666.0221436220041" cy="26.155576423727254" r="1.9897140933155724" fill="white" opacity="0.4330390423423934"  style="animation-delay: 0.2881671838663147s" />
<circle cx="203.15943206418635" cy="159.4353321765545" r="0.5741967868913703" fill="white" opacity="0.7831996830129735"  style="animation-delay: 0.4041799434533s" />
<circle cx="270.633383581848" cy="182.58160758981305" r="1.532488297039047" fill="white" opacity="0.6169069020458138"  style="animation-delay: 1.8380858796074206s" />
<circle cx="659.5313248472378" cy="151.02196983007562" r="0.7835257816302937" fill="white" opacity="0.6092276096974261" class="shimmer" style="animation-delay: 4.06600208696023s" />
<circle cx="159.70787905034848" cy="182.43901829238843" r="1.2858599474421744" fill="white" opacity="0.5756718121194782"  style="animation-delay: 2.455917864244758s" />
<circle cx="106.1061685652021" cy="11.106641822427976" r="1.9217790719554841" fill="white" opacity="0.6949719609687695" class="shimmer" style="animation-delay: 1.7418195603626396s" />
<circle cx="95.47811061272462" cy="176.08696583483706" r="1.6383241845903442" fill="white" opacity="0.4408044809240867" class="shimmer" style="animation-delay: 3.216850362436807s" />
<circle cx="716.6107214824855" cy="116.0535534317828" r="1.8454812610191489" fill="white" opacity="0.46500122195107535"  style="animation-delay: 3.724060354514538s" />
<circle cx="675.746269120086" cy="10.599575471254052" r="0.7755041681183907" fill="white" opacity="0.5315234572508756"  style="animation-delay: 1.3493188638602471s" />
<circle cx="557.5380809465516" cy="192.48452196966403" r="1.5600232972408552" fill="white" opacity="0.47953408003900616" class="shimmer" style="animation-delay: 3.104829267449615s" />
<circle cx="730.0614522809759" cy="9.765040417109638" r="0.9756224822268378" fill="white" opacity="0.727940197170915"  style="animation-delay: 3.2649713230106903s" />
<circle cx="726.6159611579777" cy="153.58468398636376" r="1.5197144463459331" fill="white" opacity="0.7437607445223524"  style="animation-delay: 3.526018724012392s" />
<circle cx="617.6987238539987" cy="99.51923026367817" r="1.7394104143387554" fill="white" opacity="0.3899124699283348"  style="animation-delay: 0.42187402904352966s" />
<circle cx="385.6740239933103" cy="148.7374738388099" r="1.619702186015624" fill="white" opacity="0.5950712458398224"  style="animation-delay: 3.9194627963684123s" />
<circle cx="499.7476804438953" cy="167.17263485677475" r="1.2733062127938248" fill="white" opacity="0.6998717564195356"  style="animation-delay: 3.677859259464288s" />
<circle cx="167.7020331372468" cy="26.986257306576444" r="0.8582778866554583" fill="white" opacity="0.3150606687030007"  style="animation-delay: 3.9443688918238298s" />
<circle cx="701.9789870476451" cy="5.563072702812111" r="1.5218254843586432" fill="white" opacity="0.36099652080394024"  style="animation-delay: 3.0191099526351173s" />
<circle cx="91.14290197150953" cy="76.53813122533224" r="0.6908901978339748" fill="white" opacity="0.5330707417375051"  style="animation-delay: 1.361858416974554s" />
<circle cx="791.1872684042247" cy="104.02687170570033" r="0.9265780193513211" fill="white" opacity="0.4545743309337065" class="shimmer" style="animation-delay: 1.3519203612288788s" />
<circle cx="777.9341648855216" cy="2.8561769402724035" r="0.6416857043339974" fill="white" opacity="0.4826667878384366"  style="animation-delay: 3.7238845259990794s" />
<circle cx="21.833028580006264" cy="150.82579789303745" r="1.5010017322895752" fill="white" opacity="0.6954830639945369"  style="animation-delay: 1.4342303067915152s" />
<circle cx="547.8041814147218" cy="145.04133160443124" r="1.7037222726622336" fill="white" opacity="0.4844373192422437"  style="animation-delay: 3.1052749926766254s" />
<circle cx="134.06113775825528" cy="75.79536038682821" r="1.7703271940249865" fill="white" opacity="0.5331741126218796" class="shimmer" style="animation-delay: 1.0046092243158211s" />
<circle cx="143.25069556106786" cy="104.23616430073466" r="1.3236338152772882" fill="white" opacity="0.399396333259975"  style="animation-delay: 0.4995383827501543s" />
<circle cx="587.0613637083561" cy="127.32427126841586" r="2.8030357360125375" fill="#9d4edd" opacity="0.8" filter="url(#glow)" class="shimmer" style="animation-delay: 2.4404951206822085s" />
<circle cx="197.93439278166218" cy="34.36285899218623" r="1.9534534054110408" fill="#e0aaff" opacity="0.8" filter="url(#glow)" class="shimmer" style="animation-delay: 1.0110296547549003s" />
<circle cx="414.97051113288546" cy="137.30183813726794" r="2.0273872995314033" fill="#c77dff" opacity="0.8" filter="url(#glow)" class="shimmer" style="animation-delay: 2.0514005135943005s" />
<circle cx="543.3797569088002" cy="38.96723269022768" r="2.3678899287121093" fill="#9d4edd" opacity="0.8" filter="url(#glow)" class="shimmer" style="animation-delay: 0.9875301719801668s" />
<circle cx="661.0448824420622" cy="161.56469071352393" r="1.797329540639638" fill="#4a0080" opacity="0.8" filter="url(#glow)" class="shimmer" style="animation-delay: 2.138554554206673s" />
<circle cx="777.1435186737463" cy="137.04735950795688" r="1.5893311767546678" fill="#c77dff" opacity="0.8" filter="url(#glow)" class="shimmer" style="animation-delay: 0.14213486806433684s" />
<circle cx="563.443479888554" cy="123.28224532568251" r="2.2220753933526387" fill="#7b2cbf" opacity="0.8" filter="url(#glow)" class="shimmer" style="animation-delay: 2.763926323532128s" />
<circle cx="229.54139602007385" cy="199.8955098400761" r="1.6463811137546696" fill="#c77dff" opacity="0.8" filter="url(#glow)" class="shimmer" style="animation-delay: 1.539941418010676s" />
<line x1="418.728060426117" y1="76.89880140147054" x2="709.9799863954079" y2="112.02215755191123" stroke="#e0aaff" stroke-width="0.5" opacity="0.3" />
<line x1="709.9799863954079" y1="112.02215755191123" x2="451.62484329045185" y2="162.3571341092316" stroke="#e0aaff" stroke-width="0.5" opacity="0.3" />
<line x1="451.62484329045185" y1="162.3571341092316" x2="377.77978938762874" y2="103.1374883909209" stroke="#e0aaff" stroke-width="0.5" opacity="0.3" />

  
    <text x="400" y="120" text-anchor="middle" class="name-text" fill="url(#textGrad)" filter="url(#textGlow)">
      JOEL HOOKS
    </text>
  
</svg>
