<svg xmlns="http://www.w3.org/2000/svg" viewBox="0 0 800 200" width="800" height="200">
  <rect width="800" height="200" fill="#1a0a0a"/>
  
    <defs>
      <linearGradient id="grad1" x1="0%" y1="0%" x2="100%" y2="100%">
        <stop offset="0%" style="stop-color:#ff4500;stop-opacity:0.8" />
        <stop offset="100%" style="stop-color:#ff6b35;stop-opacity:0.8" />
      </linearGradient>
      <linearGradient id="grad2" x1="100%" y1="0%" x2="0%" y2="100%">
        <stop offset="0%" style="stop-color:#f7c59f;stop-opacity:0.7" />
        <stop offset="100%" style="stop-color:#efa48b;stop-opacity:0.7" />
      </linearGradient>
      <linearGradient id="textGrad" x1="0%" y1="0%" x2="100%" y2="0%">
        <stop offset="0%" style="stop-color:#ff4500" />
        <stop offset="25%" style="stop-color:#ff6b35" />
        <stop offset="50%" style="stop-color:#f7c59f" />
        <stop offset="75%" style="stop-color:#efa48b" />
        <stop offset="100%" style="stop-color:#d4a5a5" />
      </linearGradient>
      <filter id="glow">
        <feGaussianBlur stdDeviation="3" result="coloredBlur"/>
        <feMerge>
          <feMergeNode in="coloredBlur"/>
          <feMergeNode in="SourceGraphic"/>
        </feMerge>
      </filter>
      <filter id="textGlow">
        <feGaussianBlur stdDeviation="2" result="coloredBlur"/>
        <feMerge>
          <feMergeNode in="coloredBlur"/>
          <feMergeNode in="SourceGraphic"/>
        </feMerge>
      </filter>
    </defs>
  
  
    <style>
      @keyframes float {
        0%, 100% { transform: translateY(0px); }
        50% { transform: translateY(-8px); }
      }
      @keyframes pulse {
        0%, 100% { opacity: 0.4; }
        50% { opacity: 0.9; }
      }
      @keyframes drift {
        0% { transform: translateX(0px); }
        50% { transform: translateX(10px); }
        100% { transform: translateX(0px); }
      }
      @keyframes shimmer {
        0% { opacity: 0.3; }
        50% { opacity: 1; }
        100% { opacity: 0.3; }
      }
      @keyframes glitch {
        0%, 100% { transform: translateX(0); }
        20% { transform: translateX(-2px); }
        40% { transform: translateX(2px); }
        60% { transform: translateX(-1px); }
        80% { transform: translateX(1px); }
      }
      @keyframes dataStream {
        0% { stroke-dashoffset: 0; }
        100% { stroke-dashoffset: -20; }
      }
      .float { animation: float 8s ease-in-out infinite; }
      .pulse { animation: pulse 8s ease-in-out infinite; }
      .drift { animation: drift 8s ease-in-out infinite; }
      .shimmer { animation: shimmer 3s ease-in-out infinite; }
      .glitch { animation: glitch 0.5s ease-in-out infinite; }
      .dataStream { animation: dataStream 2s linear infinite; }
      .name-text { 
        font-family: -apple-system, BlinkMacSystemFont, 'Segoe UI', Helvetica, Arial, sans-serif;
        font-weight: 700;
        font-size: 64px;
        letter-spacing: -2px;
      }
    </style>
  
  <rect x="0" y="160" width="800" height="50" fill="#ff4500" opacity="0.3" />
<rect x="0" y="170" width="800" height="40" fill="#ff6b35" opacity="0.25" />
<rect x="0" y="180" width="800" height="30" fill="#f7c59f" opacity="0.19999999999999998" />
<rect x="0" y="190" width="800" height="20" fill="#efa48b" opacity="0.14999999999999997" />
<rect x="0" y="200" width="800" height="10" fill="#d4a5a5" opacity="0.09999999999999998" />
<line x1="384.5585603228745" y1="170" x2="384.5585603228745" y2="318.3900765317809" stroke="#ff4500" stroke-width="1.9612791414342112" opacity="0.19660725544656094" class="pulse" />
<line x1="384.5585603228745" y1="170" x2="420.2718519914948" y2="303.2838190128174" stroke="#ff4500" stroke-width="1.7508911636927298" opacity="0.22475946355988646" class="pulse" />
<line x1="384.5585603228745" y1="170" x2="426.89795353722917" y2="243.33398020889928" stroke="#ff4500" stroke-width="2.323151864053366" opacity="0.17523643598407" class="pulse" />
<line x1="384.5585603228745" y1="170" x2="454.7158983001763" y2="240.15733797730184" stroke="#ff4500" stroke-width="1.8346834898563475" opacity="0.1528119667464083" class="pulse" />
<line x1="384.5585603228745" y1="170" x2="489.9224814466735" y2="230.83188822369988" stroke="#ff4500" stroke-width="2.0347338614154857" opacity="0.21019803445134183" class="pulse" />
<line x1="384.5585603228745" y1="170" x2="506.33544233502187" y2="202.63001719193502" stroke="#ff4500" stroke-width="1.420779005330144" opacity="0.2009728458346295" class="pulse" />
<line x1="384.5585603228745" y1="170" x2="505.24164371347433" y2="170" stroke="#ff4500" stroke-width="2.5675964032437704" opacity="0.13625758756192155" class="pulse" />
<line x1="384.5585603228745" y1="170" x2="500.58629357334513" y2="138.91046257592268" stroke="#ff4500" stroke-width="1.6561314903031188" opacity="0.1650463240236329" class="pulse" />
<line x1="384.5585603228745" y1="170" x2="506.95715300216267" y2="99.33313956818164" stroke="#ff4500" stroke-width="2.144926340787309" opacity="0.27800811688470317" class="pulse" />
<line x1="384.5585603228745" y1="170" x2="474.2965562571102" y2="80.26200406576429" stroke="#ff4500" stroke-width="1.318045944795533" opacity="0.117540373401101" class="pulse" />
<line x1="384.5585603228745" y1="170" x2="428.51400020872944" y2="93.86694484865976" stroke="#ff4500" stroke-width="1.488250543258776" opacity="0.1961809241722617" class="pulse" />
<line x1="384.5585603228745" y1="170" x2="407.0248266659541" y2="86.15475255125239" stroke="#ff4500" stroke-width="1.8057763621842748" opacity="0.278725662364156" class="pulse" />
<path d="M 563.1018608760015 32.488354297928964 C 564.7181386212742 44.58642265164682, 566.9901520454085 63.6117526689112, 559.5392026198956 73.63139259490035 C 552.0882531943827 83.6510325208895, 530.0976213118876 94.61908296389092, 518.3961643229242 92.60619385386386 C 506.69470733396076 90.5933047438368, 496.3207217316931 71.57369786072718, 489.3304606861151 61.554057934738026 C 482.3401996405371 51.53441800874888, 477.96540586421435 43.687729991623385, 476.4545980494563 32.48835429792897 C 474.94379023469827 21.288978604234558, 473.27535275198875 4.761906056637015, 480.26561379756674 -5.642196227428471 C 487.25587484314474 -16.04629851149396, 506.8001772644753 -31.050455856467565, 518.3961643229242 -29.936259406463947 C 529.992151381373 -28.82206295646033, 542.390586722747 -9.361119811472259, 549.8415361482599 1.042982472593227 C 557.2924855737729 11.447084756658713, 561.4855831307289 20.390285944211108, 563.1018608760015 32.488354297928964 Z" fill="#f7c59f" opacity="0.12549041900483102" class="drift" />
<path d="M 454.3027703394816 37.32478070542611 C 455.5958859570287 42.91119536865177, 440.9009207505911 53.821642198119655, 434.0928326643493 57.96337154774455 C 427.2847445781075 62.10510089736945, 420.169642477145 62.33928642883423, 413.4542418220309 62.17515680317549 C 406.7388411669168 62.01102717751675, 397.1738554508997 61.120323143417025, 393.8004287336649 56.97859379379213 C 390.4270020164301 52.83686444416723, 392.0456750874029 42.70804530366214, 393.2136815186222 37.32478070542611 C 394.3816879498415 31.941516107190072, 397.4350406037459 29.693037323118222, 400.8084673209807 24.679006204375924 C 404.1818940382155 19.664975085633625, 409.1999632156833 7.279614432303197, 413.4542418220309 7.2405939929723075 C 417.7085204283785 7.201573553641418, 419.5260508728246 19.430852449648285, 426.3341389590664 24.444883568390583 C 433.14222704530823 29.458914687132882, 453.00965472193445 31.738366042200447, 454.3027703394816 37.32478070542611 Z" fill="#f7c59f" opacity="0.16577026993933403" class="drift" />
<path d="M 469.17960601741373 57.75069240813452 C 468.63902804049127 71.24075358405074, 468.3937183366054 86.48699048012463, 460.46685088104743 96.59914200511584 C 452.5399834254895 106.71129353010704, 435.76318210427104 117.2283039368706, 421.6184012840661 118.42360155808177 C 407.4736204638612 119.61889917929294, 384.54971587896057 113.88307925737406, 375.59816595981783 103.77092773238286 C 366.6466160406751 93.65877620739165, 366.14051129181826 71.32218037215911, 367.90910176920977 57.750692408134526 C 369.6776922466013 44.17920444410994, 377.2581589050242 29.024261608805606, 386.2097088241669 22.34199994823534 C 395.16125874330965 15.659738287665075, 408.70163296433026 18.77099327781574, 421.6184012840661 17.65712244471294 C 434.535169603802 16.54325161161014, 455.78345128702415 8.976513289048263, 463.7103187425821 15.658774949618525 C 471.63718619814006 22.341036610188787, 469.7201839943362 44.2606312322183, 469.17960601741373 57.75069240813452 Z" fill="#f7c59f" opacity="0.22399930017036418" class="drift" />
<path d="M 559.1995597506791 57.22471900577348 C 559.5891133235306 69.10770829247849, 536.2973774238982 84.46928219390334, 524.3534152428081 94.04234758444284 C 512.409453061718 103.61541297498233, 501.42980966382174 113.04163120888386, 487.5357866641387 114.66311134901045 C 473.64176366445565 116.28459148913704, 450.801086943892 113.34429381574188, 440.9892772447098 103.77122842520238 C 431.1774675455276 94.19816303466288, 428.74167853347006 72.81697221000792, 428.66492846904526 57.22471900577349 C 428.58817840462046 41.63246580153906, 430.71696715897883 19.900733231333952, 440.52877685816105 10.217709199795841 C 450.3405865573433 0.5346851682577292, 473.9545671728823 -2.961208960858, 487.5357866641387 -0.8734251834551827 C 501.1170061553951 1.2143585939476345, 510.0721316246093 13.061387832674633, 522.0160938056994 22.744411864212744 C 533.9600559867895 32.427435895750854, 558.8100061778276 45.34172971906846, 559.1995597506791 57.22471900577348 Z" fill="#f7c59f" opacity="0.21972911634843206" class="drift" />
<path d="M 209.51076706259144 23.275835595230646 L 215.71305099962296 20.174693626714884 L 221.9153349366545 23.275835595230646" fill="none" stroke="#d4a5a5" stroke-width="1.5" opacity="0.4" class="float" style="animation-delay: 1.7773396031793374s" />
<path d="M 631.3262301576389 45.11773115371509 L 640.6887023887527 40.43649503815816 L 650.0511746198666 45.11773115371509" fill="none" stroke="#d4a5a5" stroke-width="1.5" opacity="0.4" class="float" style="animation-delay: 1.4532969138546932s" />
<path d="M 673.7657001502306 43.509546746536195 L 681.7293301008222 39.52773177124042 L 689.6929600514137 43.509546746536195" fill="none" stroke="#d4a5a5" stroke-width="1.5" opacity="0.4" class="float" style="animation-delay: 1.7284053586991412s" />
<path d="M 137.77896393831358 75.44655043885389 L 146.41407758694584 71.12899361453776 L 155.0491912355781 75.44655043885389" fill="none" stroke="#d4a5a5" stroke-width="1.5" opacity="0.4" class="float" style="animation-delay: 1.0032069840988833s" />
<path d="M 139.83660547814137 78.4783224839853 L 146.12452537252636 75.3343625367928 L 152.41244526691136 78.4783224839853" fill="none" stroke="#d4a5a5" stroke-width="1.5" opacity="0.4" class="float" style="animation-delay: 0.5599990814608296s" />

  
    <text x="400" y="120" text-anchor="middle" class="name-text" fill="url(#textGrad)" filter="url(#textGlow)">
      JOEL HOOKS
    </text>
  
</svg>
