<svg xmlns="http://www.w3.org/2000/svg" viewBox="0 0 800 200" width="800" height="200">
  <rect width="800" height="200" fill="#05010d"/>
  
    <defs>
      <linearGradient id="grad1" x1="0%" y1="0%" x2="100%" y2="100%">
        <stop offset="0%" style="stop-color:#4a0080;stop-opacity:0.8" />
        <stop offset="100%" style="stop-color:#7b2cbf;stop-opacity:0.8" />
      </linearGradient>
      <linearGradient id="grad2" x1="100%" y1="0%" x2="0%" y2="100%">
        <stop offset="0%" style="stop-color:#9d4edd;stop-opacity:0.7" />
        <stop offset="100%" style="stop-color:#c77dff;stop-opacity:0.7" />
      </linearGradient>
      <linearGradient id="textGrad" x1="0%" y1="0%" x2="100%" y2="0%">
        <stop offset="0%" style="stop-color:#4a0080" />
        <stop offset="25%" style="stop-color:#7b2cbf" />
        <stop offset="50%" style="stop-color:#9d4edd" />
        <stop offset="75%" style="stop-color:#c77dff" />
        <stop offset="100%" style="stop-color:#e0aaff" />
      </linearGradient>
      <filter id="glow">
        <feGaussianBlur stdDeviation="5" result="coloredBlur"/>
        <feMerge>
          <feMergeNode in="coloredBlur"/>
          <feMergeNode in="SourceGraphic"/>
        </feMerge>
      </filter>
      <filter id="textGlow">
        <feGaussianBlur stdDeviation="2" result="coloredBlur"/>
        <feMerge>
          <feMergeNode in="coloredBlur"/>
          <feMergeNode in="SourceGraphic"/>
        </feMerge>
      </filter>
    </defs>
  
  
    <style>
      @keyframes float {
        0%, 100% { transform: translateY(0px); }
        50% { transform: translateY(-8px); }
      }
      @keyframes pulse {
        0%, 100% { opacity: 0.4; }
        50% { opacity: 0.9; }
      }
      @keyframes drift {
        0% { transform: translateX(0px); }
        50% { transform: translateX(10px); }
        100% { transform: translateX(0px); }
      }
      @keyframes shimmer {
        0% { opacity: 0.3; }
        50% { opacity: 1; }
        100% { opacity: 0.3; }
      }
      @keyframes glitch {
        0%, 100% { transform: translateX(0); }
        20% { transform: translateX(-2px); }
        40% { transform: translateX(2px); }
        60% { transform: translateX(-1px); }
        80% { transform: translateX(1px); }
      }
      @keyframes dataStream {
        0% { stroke-dashoffset: 0; }
        100% { stroke-dashoffset: -20; }
      }
      .float { animation: float 8s ease-in-out infinite; }
      .pulse { animation: pulse 8s ease-in-out infinite; }
      .drift { animation: drift 8s ease-in-out infinite; }
      .shimmer { animation: shimmer 3s ease-in-out infinite; }
      .glitch { animation: glitch 0.5s ease-in-out infinite; }
      .dataStream { animation: dataStream 2s linear infinite; }
      .name-text { 
        font-family: -apple-system, BlinkMacSystemFont, 'Segoe UI', Helvetica, Arial, sans-serif;
        font-weight: 700;
        font-size: 64px;
        letter-spacing: -2px;
      }
    </style>
  
  <path d="M 475.54429900581977 156.645693958414 C 477.53578272850336 176.12924090339573, 509.8561769810689 209.88737259119114, 503.75483318649407 220.1094945649572 C 497.6534893919192 230.33161653872327, 455.47036045139015 221.75121046797452, 438.93623623837055 217.97842580101042 C 422.40211202535096 214.20564113404632, 413.96541711132056 204.9240419795031, 404.55008790837644 197.47278656317263 C 395.1347587054323 190.02153114684216, 393.34697182131663 185.47356033366572, 382.4442610207059 173.27089330302763 C 371.54155022009513 161.06822627238955, 335.58062501211845 134.05924929730568, 339.1338231047118 124.2567843793442 C 342.6870211973051 114.4543194613827, 385.6381692234347 127.73904525318262, 403.7634495762659 114.45610379525866 C 421.88872992909705 101.17316233733469, 433.2117583426775 46.43378411516567, 447.8855052216986 44.55913563180036 C 462.55925210071973 42.684487148435046, 487.1961318863725 84.52711984063119, 491.80593085039266 103.2082128950668 C 496.4157298144128 121.8893059495024, 473.55281528313617 137.16214701343227, 475.54429900581977 156.645693958414 Z" fill="#4a0080" opacity="0.10887133963692412" filter="url(#glow)" class="float" />
<path d="M 325.46215717423024 74.15916957908055 C 315.37244410536664 88.67724542396797, 304.16105440760145 85.60174082198593, 297.91097358946683 95.72158019404009 C 291.6608927713322 105.84141956609425, 298.20751314277766 122.16179130843481, 287.9616722654227 134.8782058114055 C 277.7158313880677 147.59462031437621, 249.89248596477108 174.75211519149784, 236.4359283253372 172.02006721186427 C 222.9793706859033 169.2880192322307, 209.6815806889894 134.79606753906805, 207.2223264288193 118.4859179336041 C 204.76307216864916 102.17576832814015, 224.3644087913049 90.8847968879515, 221.6804027643165 74.15916957908055 C 218.99639673732813 57.43354227020961, 185.42568691112388 24.49107840438926, 191.11829026688895 18.132154080378413 C 196.81089362265402 11.773229756367567, 241.17487011432542 32.234468574860024, 255.83602289890695 36.005623635015475 C 270.4971756834885 39.776778695170925, 261.9830021237545 45.32450085969443, 279.0852069743781 40.75908444131112 C 296.1874118250017 36.1936680229278, 350.7197603026732 3.0464442684206743, 358.44925200264856 8.61312512471558 C 366.17874370262393 14.179805981010485, 335.55187024309384 59.641093734193134, 325.46215717423024 74.15916957908055 Z" fill="#4a0080" opacity="0.18603870782652027" filter="url(#glow)" class="float" />
<path d="M 205.85372926506628 114.7993357889554 C 203.39359728979338 141.55573755777968, 196.20240596655157 172.1791725611928, 179.6943794307178 187.68814516960953 C 163.186352894884 203.19711777802627, 126.1335410188616 212.8214702642093, 106.80557005006364 207.85317143945588 C 87.47759908126567 202.88487261470246, 80.34824397205455 173.3873248295058, 63.726553617929994 157.87835222108905 C 47.104863263805434 142.3693796126723, 14.884225498244291 136.96780550592797, 7.075427925316276 114.79933578895542 C -0.7333696476117382 92.63086607198287, 0.2520778262373504 39.887237202903314, 16.873768180361907 24.867533919253702 C 33.49545853448646 9.847830635604089, 77.20866953306474 24.300749314156047, 106.80557005006362 24.68111608705773 C 136.4024705670625 25.061482859959415, 177.94714474652142 12.13003127301419, 194.4551712823552 27.1497345566638 C 210.96319781818897 42.169437840313414, 208.31386124033918 88.04293402013111, 205.85372926506628 114.7993357889554 Z" fill="#c77dff" opacity="0.20780350349286497" filter="url(#glow)" class="float" />
<path d="M 333.82296020537444 136.0897612698588 C 333.68232749140236 148.1733873557949, 320.4196409299617 152.3605567015021, 315.51513697802795 172.03411258507847 C 310.6106330260942 191.70766846865484, 317.4538693305677 245.31075613224075, 304.39593649377184 254.131096571317 C 291.33800365697596 262.95143701039325, 261.12681661218716 231.8665742207212, 237.1675399572525 224.9561552195359 C 213.20826330231785 218.0457362183506, 171.12556319120634 227.47964822248485, 160.64027656416394 212.66858256420534 C 150.15498993712154 197.85751690592582, 174.24790536609436 161.61028457484056, 174.25582019499805 136.0897612698588 C 174.26373502390175 110.56923796487705, 148.87877316829403 70.28256102160827, 160.68776553758607 59.54544273431482 C 172.49675790687812 48.80832444702137, 220.84675663057516 79.54239940641611, 245.10977441075033 71.6670515460981 C 269.3727921909255 63.791703685780085, 294.3910124101187 7.649138151846121, 306.26587221863707 12.293355572406753 C 318.1407320271554 16.937572992967386, 311.76608526407097 78.89962178655321, 316.35893326186056 99.53235606946188 C 320.95178125965015 120.16509035237056, 333.9635929193465 124.0061351839227, 333.82296020537444 136.0897612698588 Z" fill="#9d4edd" opacity="0.21035516120756115" filter="url(#glow)" class="float" />
<path d="M 371.02818911568625 50.31845342122298 L 371.02818911568625 50.31845342122298 L 371.39119367215784 50.3502122047225 L 371.74589962403724 50.44500514818325 L 372.0841136558234 50.601387549020934 L 372.3978519082365 50.8169699086932 L 372.67944191240457 51.08844524588261 L 372.9216212019808 51.411626945937435 L 373.1176315465953 51.781496762000714 L 373.2613077929457 52.19226247968648 L 373.34716035270384 52.63742465824055 L 373.3704504387656 53.10985176779729 L 373.3272572226227 53.601862955508615 L 373.21453616511513 54.105317593812146 L 373.0301678598013 54.611710692690686 L 372.772996821832 55.11227319514888 L 372.442859754676 55.59807612190868 L 372.04060293136837 56.06013748803085 L 371.5680884351781 56.48953088124019 L 371.02818911568625 56.87749456950969 L 370.42477222919536 57.215539994183395 L 369.7626718460836 57.49555850473281 L 369.0476502211006 57.70992520218296 L 368.28634843460003 57.85159878024939 L 367.48622672225196 57.914216286127385 L 366.65549501682847 57.89218176640131 L 365.8030343271944 57.7807478173267 L 364.9383096756799 57.57608912231618 L 364.0712754046335 57.275367132275676 L 363.2122737452782 56.876785125845224 L 362.37192761620594 56.379632975873584 L 361.56102868421334 55.784321044795234 L 360.7904217760325 55.09240273411266 L 360.0708867752842 54.30658532098472 L 359.4130191741777 53.43072882700045 L 358.82711047371953 52.46983277954751 L 358.3230296391802 51.43001084370623 L 357.91010681911285 50.31845342122298 L 357.59702052623703 49.1433784317407 L 357.39168945701755 47.91397060897792 L 357.3011700939034 46.64030975984962 L 357.33156119018366 45.33328854652081 L 357.48791618259577 44.00452045901406 L 357.7741645116242 42.66623874822182 L 358.1930427543879 41.33118718501693 L 358.7460363907593 40.01250359967376 L 359.4333329305984 38.723597236135156 L 360.25378702952116 37.478021026981175 L 361.20489811332146 36.28933995654801 L 362.28280091797063 35.170996730866335 L 363.48226923402194 34.13617601338318 L 364.7967330223085 33.19766851434479 L 366.2183089431211 32.36773623889161 L 367.7378442147193 31.65798020409743 L 369.3449735902116 31.079211928228148 L 371.02818911568625 30.64132997636286 L 372.7749222081599 30.353202815284945 L 374.5716374705737 30.222559187395465 L 376.40393754384735 30.255887158617334 L 378.2566781840044 30.458342929244274 L 380.1140926466698 30.83367041994648 L 381.95992436283075 31.384132558277173 L 383.77756679960646 32.11045509472993 L 385.55020931877834 33.01178367246227 L 387.2609877748092 34.08565476210002 L 388.8931385337618 35.32798095351501 L 390.43015454555587 36.73305097114405 L 391.85594206492664 38.29354464936401 L 393.1549765917121 40.000562970783996 L 394.3124565890406 41.84367313422929 L 395.31445353884044 43.810968481870106 L 396.1480569079706 45.88914297761364 L 396.8015126251699 48.063579792756975 L 397.2643537088331 50.318453421222976 L 397.5275217381131 52.636844616688045 L 397.5834779246726 55.000867318752825 L 397.4263026191147 57.39180661617175 L 397.0517821741411 59.79026668315712 L 396.4574821851488 62.17632752098121 L 395.6428062375158 64.52970924251083 L 394.609039407374 66.82994255285736 L 393.3593758882807 69.05654400585794 L 391.89893024884435 71.18919455438105 L 390.2347319649371 73.2079198631323 L 388.3757030134793 75.0932708162873 L 386.3326184616885 76.82650262934712 L 384.1180501348999 78.3897509654349 L 381.74629359629597 79.76620346105346 L 379.23327882182684 80.94026508520002 L 376.59646510193795 81.89771578866622 L 373.85472084714365 82.62585894719544 L 371.02818911568625 83.11365916265652 L 368.13813981722984 83.35186806013864 L 365.206809675514 83.33313680536818 L 362.25723115394976 83.05211416547431 L 359.3130516601362 82.505529046154 L 356.3983444471534 81.6922565588716 L 353.5374127202551 80.61336680193631 L 350.75458853633774 79.2721556781054 L 348.0740281495084 77.67415721765121 L 345.519505508493 75.82713702841619 L 343.1142056499432 73.74106665201673 L 340.88051975542726 71.42807876673027 L 338.83984364867837 68.90240334136865 L 337.0123815032883 66.18028500921125 L 335.4169565093796 63.279882095448635 L 334.07083021088636 60.22114789415127 L 332.98953217308417 57.025694950117106 L 332.186701573225 53.716643255671755 L 331.673942225966 50.318453421223 L 331.4606924602818 46.856746019775194 L 331.5541111563822 43.35810843840836 L 331.9589811306121 39.84989069269875 L 332.6776309242791 36.35999177205693 L 333.7098759098516 32.916638183915495 L 335.0529794760892 29.54815645164838 L 336.70163489360914 26.282741394160315 L 338.6479682954242 23.14822207350232 L 340.88156303445794 20.171827339994625 L 343.3895055033497 17.37995293164615 L 346.15645232246476 14.797932095769355 L 349.16471862139724 12.449811695331363 L 352.39438695892335 10.358135740638957 L 355.8234362478446 8.543738248440185 L 359.42788987597027 7.025547275600275 L 363.1819820441497 5.820401903462049 L 367.0583411782461 4.942883862272893 L 371.02818911568625 4.40516538321603 L 375.06155462012543 4.216874749329698 L 379.1274996411433 4.384980886760076 L 383.1943566109981 4.913698195325978 L 387.2299749584683 5.804412663339669 L 391.2019749217684 7.055630147202237 L 395.07800665940414 8.662947522742165 L 398.82601259046316 10.619047233951257 L 402.41449084494974 12.913715577127228 L 405.81275767094974 15.533884865959521 L 408.99120662909684 18.463699427343563 L 411.92156240633454 21.68460518028735 L 414.5771271004616 25.17546235279061 L 416.9330168644563 28.912680695685413 L 418.96638685494514 32.87037635976529 L 420.65664250213183 37.02054941471927 L 421.985635208606 41.33328080704406 L 422.93784069112513 45.77694738079153 L 423.5005183019799 50.318453421222955 L 423.6638498040684 54.92347702865352 L 423.421056225308 59.55672948932248 L 422.7684915824061 64.18222568332254 L 421.7057124400457 68.76356345762099 L 420.235522457893 73.26420979607984 L 418.36399127305083 77.64779153908421 L 416.1004472681527 81.87838834371397 L 413.4574439836157 85.92082553202943 L 410.4507001449849 89.74096445052155 L 407.0990134911085 93.30598795846733 L 403.42414880433597 96.584678677066 L 399.4507007582621 99.54768766488205 L 395.20593240999847 102.16779123817912 L 390.7195903707598 104.42013372695807 L 386.0236978889778 106.28245404849135 L 381.1523272725076 107.7352940893016 L 376.14135325910917 108.76218701315071 L 371.02818911568636 109.34982375580336 L 365.85150740526433 109.4881961260939 L 360.65094750494444 109.17071510600358 L 355.4668120867989 108.39430312876564 L 350.3397548856723 107.15945931205862 L 345.3104621720548 105.47029683161583 L 340.4193304236816 103.33455183747124 L 335.7061427454811 100.76356353888411 L 331.209746623337 97.77222531298625 L 326.9677356123525 94.3789069245567 L 323.01613755460824 90.60534817818824 L 319.3891118946486 86.47652455758688 L 316.1186586131434 82.02048563794207 L 313.2343412305441 77.26816728430997 L 310.763026243475 72.25317886991256 L 308.728641247595 67.01156696130212 L 307.1519538724488 61.581557120686824 L 306.05037350726974 56.003275667637304 L 305.4377776328192 50.318453421223026 L 305.3243643943265 44.570113607809816 L 305.7165328557468 38.8022462678388 L 306.6167921673207 33.05947162554803 L 308.0237006583745 27.386694997593047 L 309.9318356371074 21.82875590881682 L 312.3317944405542 16.43007415507507 L 315.2102270328305 11.234295603303593 L 318.5499002000892 6.283940547330893 L 322.3297931383172 1.6200574438542716 L 326.52522397717814 -2.718115163688779 L 331.10800653160817 -6.693475765009374 L 336.0466363248237 -10.271373340203546" fill="none" stroke="#4a0080" stroke-width="1" opacity="0.3" class="drift" />
<path d="M 295.80045339379103 113.60889474298781 L 295.80045339379103 113.60889474298781 L 296.2469134543931 113.6479549370076 L 296.68316704391077 113.76454097574357 L 297.09913718653223 113.9568760164762 L 297.4850045170887 114.22202120996788 L 297.8313326501233 114.55590929300367 L 298.12918946313886 114.95339113949738 L 298.3702629945177 115.4082947971803 L 298.54697070936345 115.91349640950662 L 298.6525609515494 116.4610023007462 L 298.68120547693957 117.04204138745331 L 298.62808205037925 117.64716697270114 L 298.4894461868102 118.26636688168351 L 298.26269122383223 118.88918080945162 L 297.9463960282213 119.50482367452983 L 297.540359761233 120.10231370669372 L 297.04562325583714 120.67060394394568 L 296.4644766921273 121.19871577322347 L 295.80045339379103 121.67587312204523 L 295.0583097074152 122.09163589442767 L 294.24399106623343 122.43603124418516 L 293.3645844793723 122.69968129217608 L 292.4282578254007 122.87392592112526 L 291.44418646371815 122.95093932211608 L 290.42246780775275 122.9238390203792 L 289.37402462881784 122.78678617415446 L 288.3104979776049 122.53507601859809 L 287.2441307205159 122.16521741626296 L 286.1876427892877 121.67500057580364 L 285.1540993336377 121.06355211035671 L 284.1567730470518 120.33137672553566 L 283.2090020045312 119.48038495308607 L 282.3240444074093 118.51390647882833 L 281.51493167363805 117.43668875136008 L 280.79432134175556 116.25488069983575 L 280.1743512727176 114.97600153368013 L 279.6664966356762 113.60889474298781 L 279.28143115151346 112.16366756425595 L 279.0288940415161 110.65161632062835 L 278.91756408815564 109.08513818763879 L 278.95494216081386 107.47763007318717 L 279.14724349186673 105.84337543285787 L 279.4993009083561 104.19741996742081 L 280.0144801321844 102.55543726723394 L 280.6946081581429 100.93358557713438 L 281.5399156049991 99.34835695419589 L 282.54899381130787 97.81642017844656 L 283.71876731564146 96.35445885239452 L 285.0444822217145 94.97900618820503 L 286.5197108036357 93.70627803093194 L 288.1363725565402 92.55200570176635 L 289.88477174448843 91.53127026638772 L 291.75365134214127 90.65833983987474 L 293.73026311074267 89.94651153107667 L 295.80045339379103 89.40795960581555 L 297.94876406487896 89.05359140987247 L 300.15854791095234 88.89291253963526 L 302.4120975900704 88.93390268090536 L 304.69078716500195 89.1829034551709 L 306.97522508397805 89.64451951826749 L 309.24541735888675 90.32153404950934 L 311.4809395803256 91.2148396509412 L 313.66111630931175 92.32338554730178 L 315.7652062980997 93.64414183867913 L 317.77259191837015 95.17208141083735 L 319.6629711148243 96.90017995405752 L 321.41655015661735 98.81943438138252 L 323.0142354286429 100.91889977277543 L 324.43782248985224 103.18574480432672 L 325.6701806268382 105.60532545275491 L 326.6954311479817 108.16127659653615 L 327.49911769653994 110.8356209675834 L 328.0683669100207 113.6088947429878 L 328.3920378177441 116.46028890643181 L 328.4608584482212 119.36780535495096 L 328.26754821232055 122.30842658019748 L 327.8069247364477 125.25829761560905 L 327.0759939413074 128.19291881323187 L 326.07402229531306 131.0873478976122 L 324.80259031627764 133.91640964030307 L 323.26562654951493 136.65491140817588 L 321.4694214136165 139.27786276281324 L 319.4226204756088 141.76069722760482 L 317.136196893502 144.07949429446109 L 314.62340294492503 146.2111997138577 L 311.89970074406045 148.13384210063575 L 308.98267243386243 149.82674389388873 L 305.89191032495427 151.27072473248208 L 302.6488876350445 152.4482953482561 L 299.27681066155156 153.34384013657444 L 295.80045339379103 153.94378663827493 L 292.24597573799105 154.23676025777866 L 288.640726687026 154.21372264849558 L 285.0130339156511 153.86809231796445 L 281.39198141975953 153.1958461404842 L 277.80717694348994 152.19560061330023 L 274.2885110496379 150.8686718525534 L 270.8659097856951 149.21911349591443 L 267.5690829789357 147.25373185874963 L 264.4272702584488 144.98207787833002 L 261.4689869491362 142.41641557447295 L 258.7217720118778 139.57166695347956 L 256.21194021487764 136.4653334836505 L 253.96434071334704 133.11739447331428 L 252.00212418805037 129.5501828844695 L 250.34652064784967 125.78823931508137 L 249.01662993744515 121.85814507904315 L 248.02922690936663 117.78833550310435 L 247.3985831194465 113.60889474298783 L 247.13630678816244 109.35133359483176 L 247.25120263720567 105.04835194142099 L 247.74915306236733 100.73358762391743 L 248.63302194145493 96.44135366754604 L 249.90258220068256 92.20636591262968 L 251.55446807618196 88.06346320930594 L 253.58215281042442 84.0473224241112" fill="none" stroke="#9d4edd" stroke-width="1" opacity="0.3" class="drift" />
<circle cx="267.7326965015674" cy="199.9770433926602" r="1.3086230980710938" fill="white" opacity="0.5141410189291797" class="shimmer" style="animation-delay: 2.526036599556992s" />
<circle cx="632.7157164207392" cy="92.82391648665929" r="0.6983594802078192" fill="white" opacity="0.44359395470973656"  style="animation-delay: 2.8214356182336697s" />
<circle cx="728.6531630366189" cy="19.195375015111082" r="1.0761965354376457" fill="white" opacity="0.5885985059311325"  style="animation-delay: 4.8283195071201686s" />
<circle cx="588.0326125261652" cy="68.57869893788964" r="1.7484599791878928" fill="white" opacity="0.6156569728089174"  style="animation-delay: 4.055225356181978s" />
<circle cx="545.481562871297" cy="135.40427205008848" r="0.6335820702829829" fill="white" opacity="0.6543285865599555"  style="animation-delay: 1.4422001789644445s" />
<circle cx="0.246523567995105" cy="47.13843963889306" r="0.6808508280346729" fill="white" opacity="0.7834848342456497"  style="animation-delay: 3.973871270656276s" />
<circle cx="634.707161746576" cy="163.01629103410718" r="1.9499773248801566" fill="white" opacity="0.3948148569317362"  style="animation-delay: 0.7753566034673876s" />
<circle cx="19.834429540140164" cy="177.89043806010957" r="0.715591267539362" fill="white" opacity="0.7075366825100065"  style="animation-delay: 2.235045223287843s" />
<circle cx="495.2398526450887" cy="186.88507109321378" r="0.5719689407985636" fill="white" opacity="0.6755007910287063"  style="animation-delay: 4.763190817893949s" />
<circle cx="533.0782507377485" cy="151.63058297612034" r="0.9304270782208518" fill="white" opacity="0.7025022941629606"  style="animation-delay: 4.898326020338598s" />
<circle cx="124.52831977111067" cy="111.3315421693112" r="0.8917852497105853" fill="white" opacity="0.41233435899174303" class="shimmer" style="animation-delay: 4.976965454637745s" />
<circle cx="240.67836192814394" cy="63.914653854453405" r="1.5033680293437661" fill="white" opacity="0.5437352405212541"  style="animation-delay: 0.7752122227111691s" />
<circle cx="366.0245114393032" cy="199.16431126126605" r="1.9616012182573521" fill="white" opacity="0.42525523189200504"  style="animation-delay: 3.023489394968074s" />
<circle cx="39.74741337074317" cy="172.21894953604377" r="0.8622897135403493" fill="white" opacity="0.5005837522391834" class="shimmer" style="animation-delay: 3.4052869595022095s" />
<circle cx="338.8478891998613" cy="66.28693555800793" r="1.789264004265624" fill="white" opacity="0.7483440214416659"  style="animation-delay: 4.798794586175933s" />
<circle cx="791.4065292099148" cy="17.33165074765428" r="1.9927635940310302" fill="white" opacity="0.6514165096429334" class="shimmer" style="animation-delay: 0.7900538446873218s" />
<circle cx="608.7565754811455" cy="9.214827554303628" r="0.8119856092755459" fill="white" opacity="0.756610215932652" class="shimmer" style="animation-delay: 3.271093168797564s" />
<circle cx="361.36839280573076" cy="79.722731078235" r="0.571986037689824" fill="white" opacity="0.3035166049789538" class="shimmer" style="animation-delay: 2.750686611947939s" />
<circle cx="360.5118745068825" cy="8.633827094199908" r="0.5633805001883606" fill="white" opacity="0.39259237015395093"  style="animation-delay: 1.4803668500268363s" />
<circle cx="130.6957533373426" cy="65.65425899472226" r="1.1694979776635825" fill="white" opacity="0.7482591041421869"  style="animation-delay: 1.8158292743304716s" />
<circle cx="322.93839019163" cy="113.25165482893702" r="1.5983435452138957" fill="white" opacity="0.5185381652177046" class="shimmer" style="animation-delay: 4.439951983893687s" />
<circle cx="627.0852342684426" cy="87.91230576991218" r="0.5107416617489156" fill="white" opacity="0.47328655058701724" class="shimmer" style="animation-delay: 2.355344656034657s" />
<circle cx="651.0979594533359" cy="123.92688304462483" r="1.9103569525474917" fill="white" opacity="0.7606950013291507"  style="animation-delay: 2.5069057866704503s" />
<circle cx="659.7102853032447" cy="140.55268472641393" r="0.8490302008931498" fill="white" opacity="0.7633924837741046"  style="animation-delay: 3.8853074388415587s" />
<circle cx="229.7250159772423" cy="135.84635579498934" r="0.631460418499502" fill="white" opacity="0.5865766375907759"  style="animation-delay: 3.186686977345495s" />
<circle cx="373.1271054423644" cy="26.776789690581595" r="0.9647243803644491" fill="white" opacity="0.7886707826545647" class="shimmer" style="animation-delay: 1.9829114825299843s" />
<circle cx="91.78986657974839" cy="40.00631085818771" r="1.3482823511628348" fill="white" opacity="0.5242327076142361"  style="animation-delay: 0.9988529654931144s" />
<circle cx="791.2307489127941" cy="94.32312759386043" r="0.5730291376729807" fill="white" opacity="0.4423270113515773"  style="animation-delay: 3.7470386566573177s" />
<circle cx="22.148603224440855" cy="89.10622100858268" r="1.5689197951882794" fill="white" opacity="0.39418354677564454"  style="animation-delay: 4.188128014158768s" />
<circle cx="210.7277532003568" cy="137.47137142004817" r="1.8162772740975717" fill="white" opacity="0.4304795585549341"  style="animation-delay: 3.5777985566667834s" />
<circle cx="269.05924229933584" cy="168.5175946462869" r="0.5925456087907379" fill="white" opacity="0.33205931212183154" class="shimmer" style="animation-delay: 3.3608463795266283s" />
<circle cx="558.8136727616481" cy="90.50310674112532" r="0.633408756792597" fill="white" opacity="0.409908858463276"  style="animation-delay: 0.1393739722479681s" />
<circle cx="636.3614994182198" cy="83.57302308764591" r="1.0097894005162114" fill="white" opacity="0.6803747327028453"  style="animation-delay: 0.39173621248795976s" />
<circle cx="318.0996608050492" cy="91.97113555748477" r="1.397380686362819" fill="white" opacity="0.7218822891326717"  style="animation-delay: 3.173011210204859s" />
<circle cx="256.69480872158596" cy="177.88007445596557" r="1.3865748914666378" fill="white" opacity="0.7293152784660051"  style="animation-delay: 0.08088394013841871s" />
<circle cx="624.108991161409" cy="51.2305142359732" r="1.421325404498404" fill="white" opacity="0.5930801974405637" class="shimmer" style="animation-delay: 3.773708704605939s" />
<circle cx="17.385608947800435" cy="132.97647075492463" r="1.3836992188282686" fill="white" opacity="0.7310255035215045"  style="animation-delay: 1.2718529593509675s" />
<circle cx="507.98990698526205" cy="174.85738361786463" r="1.9681762213397274" fill="white" opacity="0.7930238372412102"  style="animation-delay: 2.041757095151918s" />
<circle cx="76.08237741046828" cy="139.0343607548445" r="0.8760660729622141" fill="white" opacity="0.6946832349499268"  style="animation-delay: 4.29881184903952s" />
<circle cx="365.6353365780591" cy="193.9033583896816" r="1.813703315116883" fill="white" opacity="0.45404473753080393"  style="animation-delay: 0.32183417495899924s" />
<circle cx="543.3654737731292" cy="165.40776324788106" r="1.5939884654917513" fill="#7b2cbf" opacity="0.8" filter="url(#glow)" class="shimmer" style="animation-delay: 0.544281054297298s" />
<circle cx="72.17135194796533" cy="66.39467306319892" r="1.5616598166531581" fill="#e0aaff" opacity="0.8" filter="url(#glow)" class="shimmer" style="animation-delay: 1.6421586461218118s" />
<circle cx="175.39084781314926" cy="117.8351434725842" r="2.521144967761009" fill="#4a0080" opacity="0.8" filter="url(#glow)" class="shimmer" style="animation-delay: 2.6362589032060155s" />
<circle cx="711.0916189609723" cy="158.46902818246394" r="2.138153963680713" fill="#e0aaff" opacity="0.8" filter="url(#glow)" class="shimmer" style="animation-delay: 2.7893166566789818s" />
<circle cx="602.9444684070165" cy="43.057992487436316" r="1.2311095990901304" fill="#4a0080" opacity="0.8" filter="url(#glow)" class="shimmer" style="animation-delay: 1.6362782467467922s" />
<circle cx="120.38895031504762" cy="145.52109459301158" r="1.5952043094946546" fill="#c77dff" opacity="0.8" filter="url(#glow)" class="shimmer" style="animation-delay: 2.877025177920802s" />
<circle cx="558.6411027489078" cy="73.24879416281966" r="1.09320614201558" fill="#9d4edd" opacity="0.8" filter="url(#glow)" class="shimmer" style="animation-delay: 1.1440422564074397s" />
<circle cx="293.02466669953554" cy="153.06184288937658" r="2.6442352052321625" fill="#9d4edd" opacity="0.8" filter="url(#glow)" class="shimmer" style="animation-delay: 2.353299186171017s" />
<line x1="642.1809849884017" y1="64.31726043612491" x2="339.95519683282834" y2="46.181800379767935" stroke="#e0aaff" stroke-width="0.5" opacity="0.3" />
<line x1="339.95519683282834" y1="46.181800379767935" x2="234.6869876892662" y2="51.471944615349436" stroke="#e0aaff" stroke-width="0.5" opacity="0.3" />
<line x1="234.6869876892662" y1="51.471944615349436" x2="308.02937271418324" y2="96.84041520640118" stroke="#e0aaff" stroke-width="0.5" opacity="0.3" />

  
    <text x="400" y="120" text-anchor="middle" class="name-text" fill="url(#textGrad)" filter="url(#textGlow)">
      JOEL HOOKS
    </text>
  
</svg>
