<svg xmlns="http://www.w3.org/2000/svg" viewBox="0 0 800 200" width="800" height="200">
  <rect width="800" height="200" fill="#1a0a0a"/>
  
    <defs>
      <linearGradient id="grad1" x1="0%" y1="0%" x2="100%" y2="100%">
        <stop offset="0%" style="stop-color:#ff4500;stop-opacity:0.8" />
        <stop offset="100%" style="stop-color:#ff6b35;stop-opacity:0.8" />
      </linearGradient>
      <linearGradient id="grad2" x1="100%" y1="0%" x2="0%" y2="100%">
        <stop offset="0%" style="stop-color:#f7c59f;stop-opacity:0.7" />
        <stop offset="100%" style="stop-color:#efa48b;stop-opacity:0.7" />
      </linearGradient>
      <linearGradient id="textGrad" x1="0%" y1="0%" x2="100%" y2="0%">
        <stop offset="0%" style="stop-color:#ff4500" />
        <stop offset="25%" style="stop-color:#ff6b35" />
        <stop offset="50%" style="stop-color:#f7c59f" />
        <stop offset="75%" style="stop-color:#efa48b" />
        <stop offset="100%" style="stop-color:#d4a5a5" />
      </linearGradient>
      <filter id="glow">
        <feGaussianBlur stdDeviation="3" result="coloredBlur"/>
        <feMerge>
          <feMergeNode in="coloredBlur"/>
          <feMergeNode in="SourceGraphic"/>
        </feMerge>
      </filter>
      <filter id="textGlow">
        <feGaussianBlur stdDeviation="2" result="coloredBlur"/>
        <feMerge>
          <feMergeNode in="coloredBlur"/>
          <feMergeNode in="SourceGraphic"/>
        </feMerge>
      </filter>
    </defs>
  
  
    <style>
      @keyframes float {
        0%, 100% { transform: translateY(0px); }
        50% { transform: translateY(-8px); }
      }
      @keyframes pulse {
        0%, 100% { opacity: 0.4; }
        50% { opacity: 0.9; }
      }
      @keyframes drift {
        0% { transform: translateX(0px); }
        50% { transform: translateX(10px); }
        100% { transform: translateX(0px); }
      }
      @keyframes shimmer {
        0% { opacity: 0.3; }
        50% { opacity: 1; }
        100% { opacity: 0.3; }
      }
      @keyframes glitch {
        0%, 100% { transform: translateX(0); }
        20% { transform: translateX(-2px); }
        40% { transform: translateX(2px); }
        60% { transform: translateX(-1px); }
        80% { transform: translateX(1px); }
      }
      @keyframes dataStream {
        0% { stroke-dashoffset: 0; }
        100% { stroke-dashoffset: -20; }
      }
      .float { animation: float 8s ease-in-out infinite; }
      .pulse { animation: pulse 8s ease-in-out infinite; }
      .drift { animation: drift 8s ease-in-out infinite; }
      .shimmer { animation: shimmer 3s ease-in-out infinite; }
      .glitch { animation: glitch 0.5s ease-in-out infinite; }
      .dataStream { animation: dataStream 2s linear infinite; }
      .name-text { 
        font-family: -apple-system, BlinkMacSystemFont, 'Segoe UI', Helvetica, Arial, sans-serif;
        font-weight: 700;
        font-size: 64px;
        letter-spacing: -2px;
      }
    </style>
  
  <rect x="0" y="160" width="800" height="50" fill="#ff4500" opacity="0.3" />
<rect x="0" y="170" width="800" height="40" fill="#ff6b35" opacity="0.25" />
<rect x="0" y="180" width="800" height="30" fill="#f7c59f" opacity="0.19999999999999998" />
<rect x="0" y="190" width="800" height="20" fill="#efa48b" opacity="0.14999999999999997" />
<rect x="0" y="200" width="800" height="10" fill="#d4a5a5" opacity="0.09999999999999998" />
<line x1="240.0093024468697" y1="170" x2="240.0093024468697" y2="264.9885817263769" stroke="#ff4500" stroke-width="2.8754949036573167" opacity="0.29230022885753004" class="pulse" />
<line x1="240.0093024468697" y1="170" x2="277.0065703700596" y2="308.07568363058306" stroke="#ff4500" stroke-width="2.9953701342200003" opacity="0.2038707403147323" class="pulse" />
<line x1="240.0093024468697" y1="170" x2="297.67902002887377" y2="269.88688091017923" stroke="#ff4500" stroke-width="1.8197959485933781" opacity="0.2387325130641122" class="pulse" />
<line x1="240.0093024468697" y1="170" x2="324.3175067106824" y2="254.30820426381268" stroke="#ff4500" stroke-width="1.709732148983015" opacity="0.14372067175230735" class="pulse" />
<line x1="240.0093024468697" y1="170" x2="317.7526364002184" y2="214.88513478566486" stroke="#ff4500" stroke-width="1.3130834664853386" opacity="0.10265083394935909" class="pulse" />
<line x1="240.0093024468697" y1="170" x2="356.6063782861442" y2="201.24209231096398" stroke="#ff4500" stroke-width="1.9381692256538559" opacity="0.11739194343877157" class="pulse" />
<line x1="240.0093024468697" y1="170" x2="357.5758239986857" y2="170" stroke="#ff4500" stroke-width="1.1854568800095904" opacity="0.11423815608944304" class="pulse" />
<line x1="240.0093024468697" y1="170" x2="337.99689278111197" y2="143.7443043016681" stroke="#ff4500" stroke-width="1.171495267796205" opacity="0.12988814095685539" class="pulse" />
<line x1="240.0093024468697" y1="170" x2="310.8032803938695" y2="129.12707777529525" stroke="#ff4500" stroke-width="1.4359619840350697" opacity="0.2279114859255198" class="pulse" />
<line x1="240.0093024468697" y1="170" x2="302.3939109211497" y2="107.61539152571999" stroke="#ff4500" stroke-width="1.0446752832253532" opacity="0.14993269781506052" class="pulse" />
<line x1="240.0093024468697" y1="170" x2="286.4838585202887" y2="89.50370762162954" stroke="#ff4500" stroke-width="2.364286122910063" opacity="0.13000744949792814" class="pulse" />
<line x1="240.0093024468697" y1="170" x2="274.73709056855813" y2="40.39413029537201" stroke="#ff4500" stroke-width="1.2835270799728886" opacity="0.19060954019182225" class="pulse" />
<path d="M 304.6286935428603 68.9462513458017 C 304.9832212161266 82.5374181024173, 312.9432777273011 102.0920987616561, 306.2387779062601 110.78333463544757 C 299.5342780852191 119.47457050923904, 276.95512803691594 122.48592759813083, 264.40169461661424 121.09366658855055 C 251.84826119631256 119.70140557897027, 240.90802366789617 111.12100445175739, 230.91817738445002 102.42976857796592 C 220.92833110100386 93.73853270417445, 203.33188375350454 78.9766905940904, 204.46261691593725 68.94625134580171 C 205.59335007836995 58.915812097513026, 227.71273007560015 49.181068186987794, 237.7025763590463 42.24713308823378 C 247.69242264249246 35.31319798947977, 253.33352203201162 29.511107252024296, 264.40169461661424 27.34264075327765 C 275.46986720121686 25.174174254531003, 297.40711204562103 22.302398996999894, 304.11161186666203 29.236334095753904 C 310.816111687703 36.17026919450791, 304.27416586959396 55.355084589186085, 304.6286935428603 68.9462513458017 Z" fill="#f7c59f" opacity="0.24220592074076985" class="drift" />
<path d="M 475.45242616146766 56.37334975669659 C 474.37577188396557 69.29376128537584, 467.6577523032206 85.21029698612212, 458.9925631808649 91.90462151022805 C 450.32737405850924 98.59894603433399, 434.06843426949706 97.77591131034578, 423.46129142733344 96.53929690133224 C 412.8541485851698 95.3026824923187, 402.94843591788043 91.17925958025279, 395.34970612788317 84.48493505614685 C 387.7509763378859 77.79061053204092, 379.3381609825222 67.21312648501902, 377.86891268734985 56.3733497566966 C 376.3996643921775 45.53357302837417, 378.93548656685186 28.189542992259902, 386.53421635684913 19.44627468621229 C 394.1329461468464 10.703006380164679, 410.3082460124954 4.757760311754208, 423.46129142733344 3.9137399204109258 C 436.6143368421715 3.0697195290676427, 456.7872997235217 5.638884032104983, 465.4524888458774 14.382152338152594 C 474.11767796823307 23.125420644200204, 476.52908043896974 43.452938228017345, 475.45242616146766 56.37334975669659 Z" fill="#f7c59f" opacity="0.16562302711587085" class="drift" />
<path d="M 691.1615613617099 67.28823532437414 C 693.9174562759872 81.1228086769075, 704.2435388052006 106.85356857699102, 696.9056533338123 117.05964012480618 C 689.567767862424 127.26571167262134, 662.470908274038 129.77847313741802, 647.1342485333803 128.52466461126508 C 631.7975887927225 127.27085608511214, 616.1290108690856 119.74286051570374, 604.8856948898658 109.53678896788858 C 593.642378910646 99.33071742007343, 581.2079857522513 82.90471963306857, 579.6743526580617 67.28823532437416 C 578.1407195638722 51.67175101567974, 584.4405803455085 23.59529078713988, 595.6838963247283 15.837883115722079 C 606.9272123039481 8.080475444304277, 633.0198506128103 17.70806981355335, 647.1342485333803 20.743789295867344 C 661.2486464539503 23.779508778181338, 673.03239837676 26.294792338188234, 680.3702838481483 34.05220000960603 C 687.7081693195366 41.809607681023834, 688.4056664474326 53.45366197184078, 691.1615613617099 67.28823532437414 Z" fill="#f7c59f" opacity="0.13202498634099186" class="drift" />
<path d="M 559.7622210802856 39.6395621694723 C 560.2055374524609 48.0119738720804, 551.8634577167779 60.30931336417635, 544.9942681992064 66.0867463938225 C 538.1250786816349 71.86417942346864, 526.3316647784075 75.33530761858142, 518.5470839748563 74.30416034734918 C 510.7625031713051 73.27301307611694, 503.38232261906643 65.6772957960752, 498.2867833778995 59.89986276642905 C 493.19124413673256 54.122429736782905, 489.96042175324214 48.37956892717873, 487.9738485278546 39.639562169472306 C 485.9872753024671 30.89955541176588, 481.27180478440755 11.631081320934243, 486.3673440255745 7.45982222019051 C 491.4628832667414 3.288563119446777, 509.2192463180929 13.213265238679336, 518.5470839748563 14.612007565009904 C 527.8749216316196 16.01074989134047, 535.4651804485832 11.681017077430184, 542.3343699661547 15.852276178173916 C 549.2035594837262 20.02353527891765, 559.3189047081103 31.2671504668642, 559.7622210802856 39.6395621694723 Z" fill="#f7c59f" opacity="0.2228709853864067" class="drift" />
<path d="M 61.762884827524154 65.79294009379616 L 69.72422000215451 61.81227250648099 L 77.68555517678486 65.79294009379616" fill="none" stroke="#d4a5a5" stroke-width="1.5" opacity="0.4" class="float" style="animation-delay: 0.7005546920843895s" />
<path d="M 584.8475942479573 67.72255188345903 L 591.9052241150297 64.19373694992288 L 598.962853982102 67.72255188345903" fill="none" stroke="#d4a5a5" stroke-width="1.5" opacity="0.4" class="float" style="animation-delay: 0.31107327705246024s" />
<path d="M 352.8433935282263 64.47736070204755 L 359.79072914951877 61.003692891401286 L 366.73806477081126 64.47736070204755" fill="none" stroke="#d4a5a5" stroke-width="1.5" opacity="0.4" class="float" style="animation-delay: 1.5947579319928138s" />
<path d="M 331.50129004887856 41.12075817403786 L 338.5013169830637 37.6207447069453 L 345.50134391724885 41.12075817403786" fill="none" stroke="#d4a5a5" stroke-width="1.5" opacity="0.4" class="float" style="animation-delay: 0.066482673839529s" />
<path d="M 233.82334927339994 55.859376226694614 L 243.81852489356797 50.861788416610594 L 253.813700513736 55.859376226694614" fill="none" stroke="#d4a5a5" stroke-width="1.5" opacity="0.4" class="float" style="animation-delay: 1.0128466087858718s" />

  
    <text x="400" y="120" text-anchor="middle" class="name-text" fill="url(#textGrad)" filter="url(#textGlow)">
      JOEL HOOKS
    </text>
  
</svg>
