<svg xmlns="http://www.w3.org/2000/svg" viewBox="0 0 800 200" width="800" height="200">
  <rect width="800" height="200" fill="#05010d"/>
  
    <defs>
      <linearGradient id="grad1" x1="0%" y1="0%" x2="100%" y2="100%">
        <stop offset="0%" style="stop-color:#4a0080;stop-opacity:0.8" />
        <stop offset="100%" style="stop-color:#7b2cbf;stop-opacity:0.8" />
      </linearGradient>
      <linearGradient id="grad2" x1="100%" y1="0%" x2="0%" y2="100%">
        <stop offset="0%" style="stop-color:#9d4edd;stop-opacity:0.7" />
        <stop offset="100%" style="stop-color:#c77dff;stop-opacity:0.7" />
      </linearGradient>
      <linearGradient id="textGrad" x1="0%" y1="0%" x2="100%" y2="0%">
        <stop offset="0%" style="stop-color:#4a0080" />
        <stop offset="25%" style="stop-color:#7b2cbf" />
        <stop offset="50%" style="stop-color:#9d4edd" />
        <stop offset="75%" style="stop-color:#c77dff" />
        <stop offset="100%" style="stop-color:#e0aaff" />
      </linearGradient>
      <filter id="glow">
        <feGaussianBlur stdDeviation="5" result="coloredBlur"/>
        <feMerge>
          <feMergeNode in="coloredBlur"/>
          <feMergeNode in="SourceGraphic"/>
        </feMerge>
      </filter>
      <filter id="textGlow">
        <feGaussianBlur stdDeviation="2" result="coloredBlur"/>
        <feMerge>
          <feMergeNode in="coloredBlur"/>
          <feMergeNode in="SourceGraphic"/>
        </feMerge>
      </filter>
    </defs>
  
  
    <style>
      @keyframes float {
        0%, 100% { transform: translateY(0px); }
        50% { transform: translateY(-8px); }
      }
      @keyframes pulse {
        0%, 100% { opacity: 0.4; }
        50% { opacity: 0.9; }
      }
      @keyframes drift {
        0% { transform: translateX(0px); }
        50% { transform: translateX(10px); }
        100% { transform: translateX(0px); }
      }
      @keyframes shimmer {
        0% { opacity: 0.3; }
        50% { opacity: 1; }
        100% { opacity: 0.3; }
      }
      @keyframes glitch {
        0%, 100% { transform: translateX(0); }
        20% { transform: translateX(-2px); }
        40% { transform: translateX(2px); }
        60% { transform: translateX(-1px); }
        80% { transform: translateX(1px); }
      }
      @keyframes dataStream {
        0% { stroke-dashoffset: 0; }
        100% { stroke-dashoffset: -20; }
      }
      .float { animation: float 8s ease-in-out infinite; }
      .pulse { animation: pulse 8s ease-in-out infinite; }
      .drift { animation: drift 8s ease-in-out infinite; }
      .shimmer { animation: shimmer 3s ease-in-out infinite; }
      .glitch { animation: glitch 0.5s ease-in-out infinite; }
      .dataStream { animation: dataStream 2s linear infinite; }
      .name-text { 
        font-family: -apple-system, BlinkMacSystemFont, 'Segoe UI', Helvetica, Arial, sans-serif;
        font-weight: 700;
        font-size: 64px;
        letter-spacing: -2px;
      }
    </style>
  
  <path d="M 439.4817286154306 70.458717918665 C 448.043223528748 90.77222859918935, 451.40230527186594 132.20618057740168, 438.8353504075894 150.06012043371805 C 426.2683955433128 167.91406029003443, 389.00429672480124 170.3396500415107, 364.07999942977114 177.58235705656318 C 339.15570213474103 184.82506407161566, 310.91966869739616 199.86985682095556, 289.2895666374087 193.51636252403296 C 267.65946457742126 187.16286822711035, 240.36572919558895 159.97099870925555, 234.29938706984646 139.46139127502755 C 228.23304494410397 118.95178384079956, 250.30185318211636 91.57811040518996, 252.89151388295377 70.45871791866502 C 255.4811745837912 49.33932543214007, 242.31558545263206 28.775310239783884, 249.83735127487103 12.74503635587785 C 257.35911709710996 -3.2852375280281834, 279.49777022104604 -19.076333435250117, 298.0221088163875 -25.722925384771187 C 316.546447411729 -32.369517334292254, 346.07600416170385 -36.118178963805775, 360.98338284692005 -27.134515341248573 C 375.89076153213625 -18.15085171869137, 374.38332329959974 11.91351747391975, 387.46638092768484 28.17905635057201 C 400.54943855576994 44.44459522722427, 430.9202337021132 50.14520723814066, 439.4817286154306 70.458717918665 Z" fill="#4a0080" opacity="0.14967070718909198" filter="url(#glow)" class="float" />
<path d="M 858.668091283687 15.196672909976039 C 854.502573579494 39.49607665632582, 826.7493160111842 61.066854321382216, 808.2852293313896 75.59833103644627 C 789.821142651595 90.12980775151033, 767.3030847923367 103.09990565509985, 747.8835712049193 102.38553320036037 C 728.464057617502 101.6711607456209, 708.8343019501017 85.8435730230735, 691.768147806886 71.31209630800944 C 674.7019936636702 56.78061959294539, 645.2680516159493 33.68321931297824, 645.4866463456249 15.196672909976051 C 645.7052410753005 -3.289873493026132, 676.0135620417238 -19.100346999381852, 693.0797161849396 -39.60718211000367 C 710.1458703281553 -60.114017220625485, 724.5171346429846 -102.74585286514673, 747.8835712049193 -107.84433775375486 C 771.2500077668541 -112.94282264236298, 814.8142488767531 -90.70492655227422, 833.2783355565477 -70.1980914416524 C 851.7424222363423 -49.69125633103057, 862.83360898788 -9.10273083637374, 858.668091283687 15.196672909976039 Z" fill="#7b2cbf" opacity="0.13905841005439118" filter="url(#glow)" class="float" />
<path d="M 770.8233108323961 102.09174338959626 C 773.2740105632759 121.92729284197944, 746.3770837085857 148.81642882195592, 728.1160887738658 168.95049093938502 C 709.855093839146 189.08455305681412, 685.3906275560558 221.049078945455, 661.2573412240771 222.8961160941708 C 637.1240548920983 224.7431532428866, 595.907146820301 200.1667759491089, 583.3163707819936 180.0327138316798 C 570.7255947436861 159.89865171425072, 581.4785373606466 123.83791923670485, 585.7126849942325 102.09174338959627 C 589.9468326278185 80.3455675424877, 596.1304805452017 63.30397601531076, 608.7212565835092 49.5556587490284 C 621.3120326218167 35.80734148274605, 643.8089022565641 19.53825054589254, 661.2573412240771 19.601839791902137 C 678.7057801915901 19.665429037911732, 695.1508954538675 36.18887695880362, 713.4118903885874 49.937194225085975 C 731.6728853233072 63.68551149136833, 768.3726111015164 82.25619393721308, 770.8233108323961 102.09174338959626 Z" fill="#c77dff" opacity="0.2491067200503165" filter="url(#glow)" class="float" />
<path d="M 375.1615453236052 15.718023922680668 C 378.8299260037562 33.95180527008998, 399.56254502745355 65.34586038047924, 391.87464225762227 77.49194330250238 C 384.186739487791 89.63802622452552, 347.24979966578275 83.62137600377639, 329.03412870461744 88.59452145481954 C 310.81845774345214 93.5676669058627, 300.03749395169854 105.73208709669784, 282.5806164906306 107.33081600876129 C 265.1237390295626 108.92954492082474, 231.94665657904451 110.56373266885393, 224.29286393820968 98.18689492720023 C 216.63907129737484 85.81005718554653, 243.63486159419162 52.36030975510701, 236.6578606456216 33.06978955883911 C 229.6808596970516 13.77926936257121, 178.48964985510415 -7.846178243130366, 182.43085824678957 -17.55622625040718 C 186.372066638475 -27.266274257683996, 243.9444787116356 -13.165293704355117, 260.30511099573414 -25.190498484821784 C 276.66574327983267 -37.215703265288454, 268.95049380503855 -83.96490202825744, 280.59465195138074 -89.70745493320719 C 292.23881009772293 -95.45000783815694, 315.29177550289813 -69.27860093972922, 330.1700598737874 -59.64581591452027 C 345.0483442446767 -50.01303088931132, 362.36577726841335 -44.47138475482029, 369.86435817671634 -31.910744781953465 C 377.3629390850193 -19.35010480908664, 371.4931646434542 -2.5157574247286405, 375.1615453236052 15.718023922680668 Z" fill="#c77dff" opacity="0.24376321540334484" filter="url(#glow)" class="float" />
<path d="M 417.42840183709984 130.4205626170957 L 417.42840183709984 130.4205626170957 L 417.81853364192835 130.4546947272991 L 418.1997466893215 130.55657152597297 L 418.56323537916495 130.7246403482358 L 418.90041922018173 130.95633312885994 L 419.2030523816373 131.24809575656244 L 419.4633296747182 131.5954287519261 L 419.67398782802843 131.992938855642 L 419.82840096775453 132.43440100245385 L 419.9206692698749 132.91283004987076 L 419.94569981879755 133.4205615304141 L 419.8992787833869 133.9493406028406 L 419.77813410676066 134.4904182923324 L 419.57998799971335 135.03465403289303 L 419.30359862827464 135.57262345788226 L 418.94879049280036 136.0947303274213 L 418.51647310811796 136.59132143486895 L 418.00864771055774 137.0528032991808 L 417.42840183709984 137.4697594260782 L 416.77989174323517 137.83306690883788 L 416.06831274832723 138.13401113931226 L 415.29985771911913 138.36439741155152 L 414.48166402239656 138.51665822404604 L 413.6217493955528 138.5839551219679 L 412.72893729777815 138.56027396756912 L 411.81277241372015 138.44051258469776 L 410.8834270846858 138.2205597917235 L 409.95159953877464 137.89736491542087 L 409.02840487980836 137.46899696584924 L 408.1252598746815 136.93469274821612 L 407.2537626490081 136.2948932912478 L 406.4255684609677 135.55126808178952 L 405.65226277244483 134.70672671120957 L 404.9452328743835 133.7654176596368 L 404.3155393493317 132.73271406800916 L 403.7737886681011 131.61518647421488 L 403.3300082191348 130.4205626170957 L 402.993525058444 129.1576745395697 L 402.77284964488837 127.83639334842772 L 402.6755657902533 126.46755211227442 L 402.70822800628105 125.06285749945337 L 402.8762673718929 123.63479087346839 L 403.18390697377134 122.19649967328274 L 403.6340878928243 120.76168000888266 L 404.2284066184989 119.34445149762583 L 404.96706467322457 117.95922545322041 L 405.8488311212904 116.62056761583112 L 406.8710185211461 115.34305667800385 L 408.02947275845645 114.14113991614886 L 409.3185770703257 113.02898728062884 L 410.7312704400469 112.02034532857222 L 412.25908040771816 111.12839240198869 L 413.89217020629104 110.36559645933264 L 415.6193999963194 109.7435769611833 L 417.42840183709984 109.27297219014812 L 419.30566789828714 108.96331335152624 L 421.2366512856632 108.82290675488932 L 423.2058787287617 108.85872531785846 L 425.1970742576812 109.07631056240845 L 427.19329288280744 109.47968619155397 L 429.17706318540405 110.07128424091214 L 431.13053763014625 110.8518846961467 L 433.0356493236256 111.8205693545217 L 434.87427386652524 112.9746905876703 L 436.6283948823375 114.30985553423042 L 438.28027175286513 115.81992611630854 L 439.81260805090176 117.49703513396105 L 441.20871913390147 119.33161854824131 L 442.45269734949176 121.31246391710374 L 443.52957330459753 123.42677480087342 L 444.4254716648578 125.6602508063915 L 445.1277599799259 127.99718279265392 L 445.62518907302996 130.4205626170957 L 445.90802358958297 132.91220666194428 L 445.96816136930113 135.45289224555438 L 445.7992403887278 138.02250589559816 L 445.39673211565554 140.60020234061614 L 444.75802022297637 143.16457296488358 L 443.8824637261385 145.69382236989114 L 442.7714437347223 148.16595159497547 L 441.42839314364693 150.55894647067728 L 439.8588087320754 152.8509695120712 L 438.070245287021 155.02055370630646 L 436.0722915227204 157.0467965095345 L 433.87652772472575 158.9095523437527 L 431.4964652080345 160.58962187423208 L 428.94746784003087 162.06893635335607 L 426.2466560401627 163.33073533698413 L 423.4127938276994 164.35973611484857 L 420.46615964520294 165.14229324683538 L 417.42840183709984 165.66654666200833 L 414.32237980859 165.92255685649246 L 411.1719920287458 165.90242581929192 L 408.0019921717568 165.60040242111438 L 404.8377948106404 165.01297111951985 L 401.70527218723174 164.13892296330698 L 398.6305436798131 162.97940801898943 L 395.63975967438677 161.53796849139167 L 392.7588816164624 159.82055196761593 L 390.0134600765742 157.83550437762133 L 387.428412703916 155.59354243407273 L 385.0278039679876 153.10770548754962 L 382.83462859758777 150.39328690921286 L 380.87060061962865 147.46774529011063 L 379.155949876971 144.35059592296577 L 377.7092278648207 141.06328320699916 L 376.54712466935206 137.62903478759057 L 375.6842987204465 134.07269840886008 L 375.1332209832047 130.42056261709573 L 374.90403511078944 126.70016260492454 L 375.00443496490874 122.94007262884632 L 375.4395607806905 119.16968656491198 L 376.21191511080724 115.4189882876972 L 377.3212995305538 111.7183136651473 L 378.7647729223511 108.09810605531767 L 380.5366319861304 104.58866726954926 L 382.6284144426065 101.21990602940242 L 385.0289252110241 98.02108599101993 L 387.724285653067 95.02057543993872 L 390.6980057818125 92.24560077131 L 393.9310791404914 89.72200586472857 L 397.4020998620046 87.47401943928976 L 401.08740122829073 85.52403243309841 L 404.96121486035577 83.89238739242585 L 408.9958494867096 82.597181779353 L 413.1618880616742 81.65408701352874 L 417.42840183709984 81.07618495421802 L 421.7631798329323 80.87382340387165 L 426.13297200524454 81.05449207490969 L 430.50374427612405 81.62272030829561 L 434.8409434694374 82.57999766693464 L 439.1097700911285 83.92471835021487 L 443.2754568033691 85.65215018949183 L 447.3035503694797 87.75442878945283 L 451.16019479184894 90.22057717862927 L 454.8124133287257 93.03655112546984 L 458.2283870582299 96.185310066007 L 461.377727659559 99.64691337697502 L 464.231742102322 103.39864151599602 L 466.76368697524055 107.4151413399202 L 468.94901024496556 111.66859470534743 L 470.7655783141604 116.12890925351104 L 472.19388634483744 120.76393008681009 L 473.21724992758044 125.53967085800883 L 473.8219763089601 130.42056261709567 L 473.9975135372375 135.36971859658942 L 473.73657604928076 140.34921296513588 L 473.03524539829067 145.3203714429605 L 471.89304501112935 150.24407155237228 L 470.3129880643154 155.08105017320472 L 468.30159777755875 159.79221598785617 L 465.86889964141625 164.33896433430886 L 463.0283853195393 168.68349193890074 L 459.7969481942759 172.78910897427164 L 456.1947907552444 176.62054588219888 L 452.24530426205376 180.1442524162284 L 447.9749213426909 183.3286863951729 L 443.41294241635563 186.14458971557116 L 438.5913370517871 188.5652492488299 L 433.5445215875252 190.56674034654694 L 428.3091145472808 192.12815079482823 L 422.92367157984813 193.23178319448996 L 417.4284018371 193.86333389793845 L 411.86486787394483 194.01204680414702 L 406.2756713091644 193.67084049927155 L 400.70412662439435 192.83640743067718 L 395.1939255988842 191.50928401499368 L 389.78879497891063 189.69389080464606 L 384.53215006184803 187.39854207040966 L 379.4667469350533 184.63542439808558 L 374.634336148239 181.42054414350832 L 370.0753206143737 177.77364383982177 L 365.8284205280237 173.7180879022962 L 361.93034806129367 169.280718226883 L 358.4154945461675 164.4916805271779 L 355.3156327782897 159.38422249843188 L 352.6596369814972 153.994465134722 L 350.47322285525786 148.36114875436155" fill="none" stroke="#c77dff" stroke-width="1" opacity="0.3" class="drift" />
<path d="M 272.34481467171764 66.69656822106151 L 272.34481467171764 66.69656822106151 L 272.8477897395025 66.74057283752887 L 273.33926635325184 66.8719168835269 L 273.8078919463214 67.0885985952559 L 274.2426041722726 67.38730711016643 L 274.6327721437456 67.7634603118011 L 274.96833306831 68.21125727355805 L 275.2399228172853 68.7237447685203 L 275.43899902296596 69.2928971689885 L 275.5579553729456 69.9097089222895 L 275.5902258566264 70.56429866012193 L 275.5303778177243 71.24602387838208 L 275.37419277671074 71.94360501424626 L 275.1187341076406 72.64525764833422 L 274.76240078358484 73.33883147300378 L 274.3049665426896 74.01195459408015 L 273.7476039714407 74.65218167333516 L 273.0928931516628 75.24714437340461 L 272.34481467171764 75.78470253604075 L 271.50872695883777 76.25309450897439 L 270.5913280470638 76.64108503640358 L 269.60060205235686 76.9381091432876 L 268.5457507816406 77.13441047411364 L 267.4371110543155 77.22117259239016 L 266.2860584617315 77.190641807431 L 265.1048984307934 77.03624016951733 L 263.9067455909549 76.7526673626186 L 262.7053925680337 76.3359903247455 L 261.51516944234845 75.78371953880597 L 260.3507952115089 75.09487106053363 L 259.2272226887558 74.27001348354422 L 258.15947834514424 73.31129918364698 L 257.1624986672782 72.22247933390085 L 256.25096465107663 71.00890233719988 L 255.43913608563614 69.67749548297301 L 254.74068729924656 68.23672979741914 L 254.16854604175916 66.69656822106151 L 253.73473716367678 65.06839741176917 L 253.45023272256773 63.364943634219244 L 253.3248101018692 61.60017335653436 L 253.36691966616831 59.78917933001233 L 253.5835634010883 57.94805307699686 L 253.98018589557103 56.09374485358572 L 254.56057892037364 54.24391228667182 L 255.3268007398518 52.41675900746307 L 256.27911116557766 50.63086471492155 L 257.41592322113746 48.905008201383595 L 258.73377213878007 47.25798495796458 L 260.2273022517453 45.708421048322535 L 261.88927218246965 44.27458499518744 L 263.71057855790616 42.974199464124865 L 265.6802983104129 41.82425455279814 L 267.7857494476177 40.84082450117215 L 270.0125699989475 40.03888962846244 L 272.34481467171764 39.43216527612377 L 274.7650685774225 39.032939492892666 L 277.25457722074833 38.851921138103734 L 279.7933917814112 38.898100003590685 L 282.3605285637389 39.17862046301499 L 284.93414134244483 39.6986700511315 L 287.4917051966831 40.461384255137794 L 290.0102102995728 41.46776866682932 L 292.4663640181518 42.71663949888692 L 294.8367995803136 44.20458331246556 L 297.0982894817043 45.92593663764559 L 299.22796173770274 47.87278599465847 L 301.2035170342337 50.03498864359955 L 303.0034447968924 52.40021420515096 L 304.6072361811515 54.95400710627791 L 305.99559198760335 57.67986961459039 L 307.15062352541486 60.55936503477309 L 308.05604448444467 63.57224045187888 L 308.6973519316346 66.6965682210615 L 309.06199462001445 69.90890522317888 L 309.13952688848326 73.18446873228065 L 308.9217465368108 76.49732757592142 L 308.40281518226135 79.82060711405495 L 307.57935974094835 83.12670641845123 L 306.4505538274185 86.38752590351652 L 305.018178028838 89.57470354238211 L 303.286658184201 92.6598577003314 L 301.2630809827696 95.6148345321134 L 298.9571863879693 98.41195782135694 L 296.38133659158615 101.02427908993481 L 293.5504614066692 103.42582577335472 L 290.48198021429073 105.59184524553694 L 287.1957007874734 107.49904248299255 L 283.71369552335517 109.12580918456962 L 280.0601558201945 110.45244220856658 L 276.26122553731284 111.46134925391655 L 272.34481467171764 112.13723979595775 L 268.34039457318784 112.46729938948633 L 264.2787761983101 112.441345571635 L 260.19187307169136 112.05196373377709 L 256.1124507777521 111.29462148410244 L 252.0738649476654 110.16776018959291 L 248.109789831773 108.6728625665395 L 244.25393965693164 106.81449538107012 L 240.53978505961206 104.60032652385365 L 237.0002669582097 102.0411159345694 L 233.6675102811135 99.15068007014892 L 230.57253999995618 95.94582983439551 L 227.74500192964732 92.4462821135027 L 225.21289074794151 88.6745452902971 L 223.0022876572894 84.65577933778937 L 221.13711006058716 80.4176313178654 L 219.63887555040472 75.9900473317268 L 218.52648241873462 71.40506218306913 L 217.81600878184216 66.69656822106153 L 217.52053228316484 61.9000650261192 L 217.6499721873363 57.0523917854655 L 218.21095551137972 52.19144437586877 L 219.20670865617953 47.355879326123855 L 220.63697580388555 42.58480697034677 L 222.4979651364626 37.91747622362719 L 224.78232370882085 33.39295351281006 L 227.47914157861675 29.049798476120223 L 230.57398555575375 24.925739105097584 L 234.04896268979456 21.05734904014856 L 237.8828133649182 17.479729746411884 L 242.05103362178681 14.22620028921407 L 246.52602607581952 11.327997397984689 L 251.27727855401764 8.813988454136066 L 256.27156932974736 6.710399962308685 L 261.4731975988639 5.040563965940727 L 266.84423761329754 3.8246847479505064 L 272.34481467171764 3.079628016206776 L 277.9334009630724 2.8187346123807373 L 283.5671290695021 3.0516606028723103 L 289.2021207620767 3.7842454131012104 L 294.79382856762743 5.018409453026187 L 300.2973874490949 6.752082453928729 L 305.6679738266415 8.979163496029301 L 310.8611690734346 11.689513455276597 L 315.83332454949465 14.868980337651855 L 320.54192519013753 18.499457702641642 L 324.94594864293936 22.558976106302723 L 329.0062169492555 27.02182722079658 L 332.6857377933422 31.85872001364107 L 335.95003239409516 37.03696809850085 L 338.76744719114026 42.52070710238926 L 341.10944657809284 48.271140633924844 L 342.9508840606463 54.24681318601933 L 344.2702493649566 60.40390806622901 L 345.04988919155164 66.69656822106147 L 345.27619950052645 73.0772376088288 L 344.9397874237147 79.49702058103452" fill="none" stroke="#c77dff" stroke-width="1" opacity="0.3" class="drift" />
<circle cx="364.8608688715216" cy="88.07865784698362" r="1.4826154064937411" fill="white" opacity="0.5459085416586562"  style="animation-delay: 4.603994461223598s" />
<circle cx="577.4847204171682" cy="45.08906405101945" r="1.3098468859418961" fill="white" opacity="0.30500368734219413"  style="animation-delay: 0.6255563239364426s" />
<circle cx="750.8139441868577" cy="71.63936011175748" r="1.758726445819764" fill="white" opacity="0.7319632877193185"  style="animation-delay: 2.518490683173582s" />
<circle cx="16.289267290737897" cy="121.57011314718034" r="1.019910771911808" fill="white" opacity="0.7234274764009487" class="shimmer" style="animation-delay: 1.8572820651938293s" />
<circle cx="42.221311616952306" cy="81.9848591832458" r="1.157812848602915" fill="white" opacity="0.493572120708411"  style="animation-delay: 4.9914042840031065s" />
<circle cx="192.2011021843227" cy="106.74787263162284" r="1.1610672068347823" fill="white" opacity="0.7626076265093045"  style="animation-delay: 1.6822470452406313s" />
<circle cx="547.6404271169317" cy="92.33938596971991" r="1.802097504409058" fill="white" opacity="0.4891888373996938"  style="animation-delay: 0.5258913191509118s" />
<circle cx="143.7591866376364" cy="65.72042414460438" r="1.6728582434879093" fill="white" opacity="0.40167994534696744"  style="animation-delay: 1.4445274467618985s" />
<circle cx="29.685826793428305" cy="111.05339067860452" r="1.6448530435254984" fill="white" opacity="0.5412564711618062"  style="animation-delay: 0.5870325513751207s" />
<circle cx="117.74790292615745" cy="103.87293690245407" r="0.7674474495789408" fill="white" opacity="0.377549368591862"  style="animation-delay: 1.3883548494499665s" />
<circle cx="244.52239819590193" cy="180.64389061885439" r="1.207337287541498" fill="white" opacity="0.5959945282090626" class="shimmer" style="animation-delay: 1.9417776019039157s" />
<circle cx="118.88902892354719" cy="48.44859795545005" r="1.5568001281912984" fill="white" opacity="0.5131337247617951"  style="animation-delay: 3.010219130132125s" />
<circle cx="502.9209464546813" cy="160.33050937468167" r="0.8516312217108949" fill="white" opacity="0.49498829380243275" class="shimmer" style="animation-delay: 4.820053247255624s" />
<circle cx="302.26754756502476" cy="194.75098692088997" r="0.5359617395954158" fill="white" opacity="0.7162361446640675"  style="animation-delay: 1.651339470572456s" />
<circle cx="706.352843193808" cy="73.1851796768888" r="1.741159038010061" fill="white" opacity="0.7403898601941543" class="shimmer" style="animation-delay: 3.721524259015766s" />
<circle cx="132.58642763440704" cy="157.17140117562764" r="1.8056482506770348" fill="white" opacity="0.5451548226340819" class="shimmer" style="animation-delay: 3.990083027653534s" />
<circle cx="305.8367550609734" cy="12.107578192005164" r="0.847704649410031" fill="white" opacity="0.6125981120537412"  style="animation-delay: 2.417183696764633s" />
<circle cx="497.05813108187124" cy="34.601254065574594" r="1.8969104344501777" fill="white" opacity="0.3278454530504921" class="shimmer" style="animation-delay: 1.0469835759177037s" />
<circle cx="30.321139995352198" cy="105.8552916475874" r="1.9594520571519998" fill="white" opacity="0.5880540410367143" class="shimmer" style="animation-delay: 1.007760817220047s" />
<circle cx="301.714968842955" cy="1.9260959130812605" r="1.403061146539354" fill="white" opacity="0.6166000743287223" class="shimmer" style="animation-delay: 3.0809985532609585s" />
<circle cx="467.65466143038435" cy="183.55988914759536" r="1.7109874538098682" fill="white" opacity="0.7168137079091439"  style="animation-delay: 0.5161662754756857s" />
<circle cx="444.79429770735044" cy="54.96117643818579" r="0.7117993693078998" fill="white" opacity="0.6111334906120742"  style="animation-delay: 1.3015977301912207s" />
<circle cx="544.2011310896577" cy="86.58107540765738" r="0.8988912437788968" fill="white" opacity="0.6876315710115866"  style="animation-delay: 1.9036762346524272s" />
<circle cx="358.0922922450581" cy="144.84543004356908" r="1.1269221238731335" fill="white" opacity="0.3263329873648219"  style="animation-delay: 0.8971318244018955s" />
<circle cx="543.9199978843807" cy="190.9771792183744" r="1.686907273436345" fill="white" opacity="0.5679597933328131"  style="animation-delay: 4.874501465838742s" />
<circle cx="335.0674732029132" cy="121.11158461129267" r="0.823462386873852" fill="white" opacity="0.3412693480683547" class="shimmer" style="animation-delay: 0.6714331011167118s" />
<circle cx="484.6367524306563" cy="126.46205654987214" r="1.4112359219988737" fill="white" opacity="0.5486247689611454"  style="animation-delay: 2.942008074718717s" />
<circle cx="717.0885133052412" cy="126.3844924116861" r="1.5517567338909912" fill="white" opacity="0.7497835016796137"  style="animation-delay: 1.279659287589111s" />
<circle cx="202.12801969722616" cy="43.82589396056629" r="0.6992095140408169" fill="white" opacity="0.6524833491642565" class="shimmer" style="animation-delay: 1.6053624329434235s" />
<circle cx="73.10027523972273" cy="146.00369927640992" r="1.0971492736853468" fill="white" opacity="0.482926070369136"  style="animation-delay: 4.68272193330132s" />
<circle cx="207.54155516729026" cy="124.8686837484402" r="1.5745616705490981" fill="white" opacity="0.41854027312662373"  style="animation-delay: 2.8595449438650444s" />
<circle cx="74.60973010419742" cy="112.02194792412996" r="0.5935092434258368" fill="white" opacity="0.7873254048127258"  style="animation-delay: 2.1125984004266773s" />
<circle cx="486.1751609419688" cy="35.748788200393335" r="1.7358591664084058" fill="white" opacity="0.3003796914748958" class="shimmer" style="animation-delay: 3.1948127482562905s" />
<circle cx="76.392815938018" cy="137.83869851020557" r="1.5418080867875201" fill="white" opacity="0.5806911157378261"  style="animation-delay: 1.2487196654300614s" />
<circle cx="655.2167303664417" cy="40.12069377300449" r="1.4072288517917886" fill="white" opacity="0.621790482874468"  style="animation-delay: 4.438955210053679s" />
<circle cx="226.0421811875691" cy="37.977042380638615" r="0.6127479830511813" fill="white" opacity="0.3218656409657478"  style="animation-delay: 0.6857065227737558s" />
<circle cx="331.5490969265566" cy="27.402172429790284" r="1.247030117404606" fill="white" opacity="0.7839742673830665"  style="animation-delay: 1.7296516649783378s" />
<circle cx="759.4874725865977" cy="169.5110667027198" r="0.9156451987498281" fill="white" opacity="0.40332573639920705"  style="animation-delay: 4.8246929125405185s" />
<circle cx="252.62113333439817" cy="188.56166215091355" r="1.2173535571510223" fill="white" opacity="0.6412545531457128"  style="animation-delay: 2.68478969640371s" />
<circle cx="101.2602834639674" cy="188.5523401468808" r="1.608615533480525" fill="white" opacity="0.3476522668903986" class="shimmer" style="animation-delay: 2.3090890534708395s" />
<circle cx="131.66792560128985" cy="66.44117916614745" r="1.9671957538389941" fill="#4a0080" opacity="0.8" filter="url(#glow)" class="shimmer" style="animation-delay: 1.616518322574279s" />
<circle cx="29.273478198747505" cy="129.50177541208768" r="2.4574916568324356" fill="#c77dff" opacity="0.8" filter="url(#glow)" class="shimmer" style="animation-delay: 2.243266622165197s" />
<circle cx="237.5081418594217" cy="104.71013685867345" r="2.439825641266247" fill="#7b2cbf" opacity="0.8" filter="url(#glow)" class="shimmer" style="animation-delay: 0.947966887050695s" />
<circle cx="598.2730443221856" cy="183.35869360186888" r="1.9139604878036995" fill="#e0aaff" opacity="0.8" filter="url(#glow)" class="shimmer" style="animation-delay: 0.595667686752829s" />
<circle cx="514.6140346923188" cy="98.77557531842368" r="1.9520167439192648" fill="#4a0080" opacity="0.8" filter="url(#glow)" class="shimmer" style="animation-delay: 2.449694637967079s" />
<circle cx="233.86903961262692" cy="157.69696999577891" r="2.743367280964784" fill="#7b2cbf" opacity="0.8" filter="url(#glow)" class="shimmer" style="animation-delay: 0.066974941807868s" />
<circle cx="759.4847377025995" cy="107.09983107296033" r="2.448539677509061" fill="#4a0080" opacity="0.8" filter="url(#glow)" class="shimmer" style="animation-delay: 1.2358735069736424s" />
<circle cx="132.2995515562866" cy="104.60576478180484" r="2.2069318795552797" fill="#c77dff" opacity="0.8" filter="url(#glow)" class="shimmer" style="animation-delay: 2.0534100105967124s" />
<line x1="357.4754611203736" y1="121.25437762977178" x2="145.35181145563269" y2="91.38101024306059" stroke="#e0aaff" stroke-width="0.5" opacity="0.3" />
<line x1="110.60885978599123" y1="48.294383880501755" x2="362.7266393607641" y2="53.138705060667135" stroke="#e0aaff" stroke-width="0.5" opacity="0.3" />

  
    <text x="400" y="120" text-anchor="middle" class="name-text" fill="url(#textGrad)" filter="url(#textGlow)">
      JOEL HOOKS
    </text>
  
</svg>
