<svg xmlns="http://www.w3.org/2000/svg" viewBox="0 0 800 200" width="800" height="200">
  <rect width="800" height="200" fill="#05010d"/>
  
    <defs>
      <linearGradient id="grad1" x1="0%" y1="0%" x2="100%" y2="100%">
        <stop offset="0%" style="stop-color:#4a0080;stop-opacity:0.8" />
        <stop offset="100%" style="stop-color:#7b2cbf;stop-opacity:0.8" />
      </linearGradient>
      <linearGradient id="grad2" x1="100%" y1="0%" x2="0%" y2="100%">
        <stop offset="0%" style="stop-color:#9d4edd;stop-opacity:0.7" />
        <stop offset="100%" style="stop-color:#c77dff;stop-opacity:0.7" />
      </linearGradient>
      <linearGradient id="textGrad" x1="0%" y1="0%" x2="100%" y2="0%">
        <stop offset="0%" style="stop-color:#4a0080" />
        <stop offset="25%" style="stop-color:#7b2cbf" />
        <stop offset="50%" style="stop-color:#9d4edd" />
        <stop offset="75%" style="stop-color:#c77dff" />
        <stop offset="100%" style="stop-color:#e0aaff" />
      </linearGradient>
      <filter id="glow">
        <feGaussianBlur stdDeviation="5" result="coloredBlur"/>
        <feMerge>
          <feMergeNode in="coloredBlur"/>
          <feMergeNode in="SourceGraphic"/>
        </feMerge>
      </filter>
      <filter id="textGlow">
        <feGaussianBlur stdDeviation="2" result="coloredBlur"/>
        <feMerge>
          <feMergeNode in="coloredBlur"/>
          <feMergeNode in="SourceGraphic"/>
        </feMerge>
      </filter>
    </defs>
  
  
    <style>
      @keyframes float {
        0%, 100% { transform: translateY(0px); }
        50% { transform: translateY(-8px); }
      }
      @keyframes pulse {
        0%, 100% { opacity: 0.4; }
        50% { opacity: 0.9; }
      }
      @keyframes drift {
        0% { transform: translateX(0px); }
        50% { transform: translateX(10px); }
        100% { transform: translateX(0px); }
      }
      @keyframes shimmer {
        0% { opacity: 0.3; }
        50% { opacity: 1; }
        100% { opacity: 0.3; }
      }
      @keyframes glitch {
        0%, 100% { transform: translateX(0); }
        20% { transform: translateX(-2px); }
        40% { transform: translateX(2px); }
        60% { transform: translateX(-1px); }
        80% { transform: translateX(1px); }
      }
      @keyframes dataStream {
        0% { stroke-dashoffset: 0; }
        100% { stroke-dashoffset: -20; }
      }
      .float { animation: float 8s ease-in-out infinite; }
      .pulse { animation: pulse 8s ease-in-out infinite; }
      .drift { animation: drift 8s ease-in-out infinite; }
      .shimmer { animation: shimmer 3s ease-in-out infinite; }
      .glitch { animation: glitch 0.5s ease-in-out infinite; }
      .dataStream { animation: dataStream 2s linear infinite; }
      .name-text { 
        font-family: -apple-system, BlinkMacSystemFont, 'Segoe UI', Helvetica, Arial, sans-serif;
        font-weight: 700;
        font-size: 64px;
        letter-spacing: -2px;
      }
    </style>
  
  <path d="M 876.9823128174792 196.44178983693004 C 881.6577934784808 221.0188566541402, 905.4978322139815 270.06032874619507, 893.3359553075693 281.9425725832295 C 881.1740784011571 293.8248164202639, 832.8847329996079 261.3895022941037, 804.0110513790062 267.7352528591365 C 775.1373697584045 274.0810034241693, 736.9520582474617 326.5260154188972, 720.0938655839587 320.01707597342624 C 703.2356729204558 313.5081365279553, 709.3545474908943 255.96861299964462, 702.8618953979886 228.6816161863106 C 696.3692433050829 201.3946193729766, 678.4749555669287 182.62627492005686, 681.1379530265245 156.29509509342222 C 683.8009504861204 129.96391526678758, 696.8987700837504 84.17855579103714, 718.8398801555637 70.69453722650282 C 740.7809902273771 57.210518661968486, 788.3774149264051 64.76004463063862, 812.7846134574044 75.39098370621625 C 837.1918119884036 86.02192278179388, 854.5834547815467 114.30503732484961, 865.2830713415592 134.48017167996858 C 875.9826879015717 154.65530603508753, 872.3068321564775 171.8647230197199, 876.9823128174792 196.44178983693004 Z" fill="#9d4edd" opacity="0.15176072020467765" filter="url(#glow)" class="float" />
<path d="M 663.6843690427163 187.90903153993756 C 659.3413106657038 209.79869223762603, 617.429859880351 224.07629344289398, 597.6509966554725 240.5488385019654 C 577.8721334305939 257.0213835610368, 566.6171467905888 282.684947117898, 545.0111896934446 286.7443018943662 C 523.4052325963005 290.80365667083436, 478.46078444689124 281.3775122198458, 468.01525407260783 264.9049671607744 C 457.5697236983244 248.43242210170297, 482.98504352844236 214.22137949424808, 482.3380074477441 187.90903153993756 C 481.6909713670458 161.59668358562703, 453.6875072141348 121.1190979997177, 464.13303758841823 107.03087943491118 C 474.57856796270164 92.94266087010467, 518.4151381385898 103.01638767094461, 545.0111896934446 103.37972015109851 C 571.6072412482995 103.74305263125241, 603.930483692669 95.12265575102809, 623.7093469175476 109.2108743158346 C 643.4882101424262 123.29909288064111, 668.0274274197288 166.0193708422491, 663.6843690427163 187.90903153993756 Z" fill="#4a0080" opacity="0.17266363001188134" filter="url(#glow)" class="float" />
<path d="M 792.9947022112613 134.64341204349662 C 791.7803035156603 164.24994553377863, 769.545027690094 208.96917764332392, 747.8198119090519 219.81981642753973 C 726.0945961280097 230.67045521175555, 684.4440636104696 206.33872345801169, 662.6434075250087 199.7472447487915 C 640.8427514395478 193.15576603957132, 627.3431135301187 191.12158295643448, 617.0158753962867 180.27094417221866 C 606.6886372624547 169.42030538800284, 604.72129936579 153.8939100635108, 600.6799787220165 134.64341204349662 C 596.638658078243 115.39291402348246, 582.4407133998137 83.92123253553135, 592.7679515336457 64.76795605213366 C 603.0951896674777 45.61467956873597, 635.5870321001734 23.488309904158182, 662.6434075250087 19.723753143110528 C 689.699782949844 15.959196382062876, 733.3809883016154 23.027339002450056, 755.1062040826575 42.18061548584774 C 776.8314198636997 61.33389196924542, 794.2091009068622 105.03687855321462, 792.9947022112613 134.64341204349662 Z" fill="#9d4edd" opacity="0.1793427661597819" filter="url(#glow)" class="float" />
<path d="M 365.4606754616002 122.15028988612247 C 372.14047419031505 138.52650686230416, 410.1360196955347 176.66216084910022, 405.1171065336198 185.83841437945 C 400.0981933717049 195.01466790979978, 352.041309849662 181.40783808154816, 335.3471964901108 177.20781106822113 C 318.65308313055954 173.0077840548941, 318.8186235481212 161.9063434947457, 304.9524263763123 160.63825229948776 C 291.0862292045034 159.37016110422982, 266.88768084506614 176.0139242989011, 252.1500134592574 169.59926389667353 C 237.41234607344865 163.18460349444598, 216.8846706475341 138.226897389687, 216.52642206145975 122.15028988612248 C 216.1681734753854 106.07368238255798, 236.66668295060504 83.87481881352393, 250.0005219428112 73.13961887528652 C 263.33436093501734 62.4044189370491, 283.6892607330988 54.486613716384674, 296.52945601469673 57.73909025669799 C 309.36965129629465 60.99156679701131, 315.6235506079596 87.6808077395561, 327.0416936323986 92.6544781171664 C 338.45983665683764 97.62814849477671, 358.6351505231304 82.66514389420048, 365.0383141613307 87.58111252235983 C 371.44147779953096 92.49708115051918, 358.78087673288536 105.77407290994077, 365.4606754616002 122.15028988612247 Z" fill="#4a0080" opacity="0.21302431309707004" filter="url(#glow)" class="float" />
<path d="M 406.9532462555946 78.48380855165155 L 406.9532462555946 78.48380855165155 L 407.2108023332157 78.5063417886656 L 407.4624704515526 78.57359851662852 L 407.7024373551914 78.6845537017651 L 407.9250384004142 78.83751196625961 L 408.1248298787246 79.03012696728604 L 408.29665898332485 79.25942825163936 L 408.4357306688782 79.52185531311115 L 408.537670685326 79.81329850626744 L 408.5985841040444 80.12914640010133 L 408.61510869886445 80.46433908881582 L 408.5844625950311 80.81342691538295 L 408.50448565557025 81.17063400711201 L 408.3736741362443 81.52992597178951 L 408.1912082067228 81.88508105852031 L 407.95697200616235 82.22976404963562 L 407.6715659754104 82.55760211931559 L 407.33631128483347 82.86226187121069 L 406.9532462555946 83.13752675157848 L 406.5251147523276 83.37737402645294 L 406.05534660582487 83.57605051123161 L 405.5480302047997 83.72814624882925 L 405.00787747525027 83.8286653481596 L 404.4401815436759 83.87309321804949 L 403.85076745564334 83.85745946257249 L 403.24593639323894 83.7783957419502 L 402.63240390309295 83.63318794827863 L 402.0172327102452 83.41982209700092 L 401.4077607515347 83.1370233928072 L 400.81152511484817 82.78428799198414 L 400.23618261694344 82.36190705159065 L 399.68942779218867 81.8709827285854 L 399.17890909703743 81.31343586851605 L 398.71214416002965 80.69200520290062 L 398.29643492430847 80.01023795626006 L 397.9387835388552 79.27247184714335 L 397.64580985574077 78.48380855165155 L 397.42367138361294 77.65007878213164 L 397.2779865323925 76.7777992170891 L 397.213761960836 75.87412160017539 L 397.2353248073981 74.94677440557093 L 397.3462605459287 74.0039975434487 L 397.54935716148293 73.0544706517368 L 397.8465562882809 72.10723558839979 L 398.2389118920718 71.1716138012641 L 398.72655701334565 70.2571193094026 L 399.3086790165532 69.37336808069594 L 399.9835037143659 68.5299846338901 L 400.748288655692 67.73650672980968 L 401.5993257823766 67.00228904497769 L 402.5319535729938 66.33640674140597 L 403.5405787036642 65.7475598585057 L 404.61870716619336 65.2439794567434 L 405.75898469384987 64.83333643773189 L 406.9532462555946 64.52265395187078 L 408.1925742913674 64.31822428248964 L 409.46736527494977 64.22553106482738 L 410.7674041077521 64.24917765931207 L 412.08194576741147 64.39282245176666 L 413.39980356008164 64.6591217987177 L 414.7094432554728 65.0496812743492 L 415.99908231974246 65.56501580732285 L 417.2567934038678 66.20451922123311 L 418.4706111947431 66.96644361250301 L 419.6286416934459 67.84788891472435 L 420.7191729503711 68.84480290952678 L 421.73078626062716 69.95199185178552 L 422.6524668055364 71.16314178214934 L 423.4737127175286 72.4708505033145 L 424.18464154632136 73.86667009903987 L 424.7760931141248 75.34115977745755 L 425.2397277666945 76.8839487236539 L 425.5681190553023 78.48380855165155 L 425.75483992193676 80.12873485367732 L 425.7945415060408 81.80603725579947 L 425.68302374551496 83.50243730449033 L 425.41729700716786 85.20417342920473 L 424.9956340517964 86.89711215242274 L 424.41761171608766 88.5668646514932 L 423.6841417769383 90.1989077166955 L 422.7974905529087 91.77870809781054 L 421.7612868916427 93.29184918769965 L 420.58051829040755 94.7241589563985 L 419.26151499861544 96.06183802344306 L 417.8119220554241 97.29158673987484 L 416.240659321381 98.40073014486131 L 414.5578696696679 99.37733966527395 L 412.7748556088876 100.21035043995919 L 410.90400471458133 100.8896731738038 L 408.9587043498452 101.40629945993174 L 406.9532462555946 101.75239955128617 L 404.90272168731593 101.921411615174 L 402.82290786665396 101.90812156571982 L 400.7301466020745 101.70873263915281 L 398.64121601230516 101.32092395491327 L 396.57319635853924 100.74389739112131 L 394.5433310557895 99.97841219533532 L 392.5688839896546 99.02680685001032 L 390.66699431154984 97.89300781586135 L 388.85452992264686 96.58252488459924 L 387.147940883952 95.10243298435032 L 385.56311400678806 93.46134039556853 L 384.1152298841806 91.66934345144449 L 382.81862361911686 89.73796791372209 L 381.6866504902838 87.68009733146117 L 380.73155776970606 85.50988880562585 L 379.96436386982026 83.24267669543102 L 379.39474595013417 80.89486491215506 L 379.03093705603305 78.48380855165156 L 378.8796337948919 76.02768571711995 L 378.9459154779043 73.54536047791817 L 379.23317557051246 71.05623799745011 L 379.7430662006445 68.58011294262583 L 380.47545637285685 66.13701235831203 L 381.4284044287201 63.74703425188294 L 382.5981451802208 61.43018318481545 L 383.9790920244891 59.206204209721044 L 385.5638542257473 57.09441652180426 L 387.3432694250101 55.11354821311323 L 389.30645131078154 53.28157352583001 L 391.4408522558382 51.615553997046845 L 393.7323405972399 50.13148487190587 L 396.1652921100487 48.844148134652315 L 398.722695100939 47.76697346818214 L 401.3862684270224 46.91190840225519 L 404.1365916288382 46.28929884901083 L 406.9532462555946 45.90778115216308 L 409.8149673563791 45.774186693768584 L 412.69980401412073 45.893460010339176 L 415.5852877104773 46.2685912689885 L 418.4486072303566 46.90056384501301 L 421.26678874521826 47.788317625645874 L 424.0168796553266 48.92872854158636 L 426.6761347233268 50.316604699262754 L 429.22220299541084 51.94469935365039 L 431.63331398234146 53.8037408249047 L 433.8884615610286 55.882479323181286 L 435.96758405843116 58.16775050594237 L 437.85173899339003 60.64455545193168 L 439.52327097860825 63.296156597012654 L 440.96597132428224 66.1041890403693 L 442.1652279366449 69.04878649631462 L 443.10816416861303 72.1087210382866 L 443.7837653554156 75.26155565864224 L 444.18299185500996 78.48380855165153 L 444.2988775106578 81.75112791868898 L 444.126612560529 85.03847599497047 L 443.66361013583855 88.32032090721555 L 442.90955561392155 91.57083489214982 L 441.8664382248682 94.76409733755946 L 440.5385644488505 97.87430105134703 L 438.9325528849985 100.87596012027983 L 437.0573104204914 103.74411768935364 L 434.92398967924106 106.45455197529795 L 432.54592788195066 108.9839788239812 L 429.9385674021998 111.31024913150318 L 427.11935845527796 113.41253947263763 L 424.10764450651766 115.27153431793313 L 420.924531132613 116.8695982720276 L 417.5927392116129 118.19093683028271 L 414.1364434537523 119.22174422829201 L 410.5810974148569 119.9503370486528 L 406.9532462555947 120.36727235099386 L 403.28032862230424 120.46544920389505 L 399.590469127483 120.24019262020803 L 395.91226299934925 119.68931902947637 L 392.27455454936006 118.8131825616669 L 388.7062111734026 117.61470156419313 L 385.23589465593557 116.09936492809811 L 381.8918315860702 114.27521795807044 L 378.7015847200068 112.15282768344406 L 375.6918271350486 109.74522767219756 L 372.8881210163693 107.06784257589342 L 370.31470289872794 104.13839279915285 L 367.9942771514178 100.97677985129835 L 365.94781944604506 97.60495309885887 L 364.1943918835301 94.04675879440629 L 362.7509713793825 90.3277724083511 L 361.6322928153321 86.47511543460206 L 360.85070836141307 82.51725797716678 L 360.41606425632534 78.48380855165158 L 360.3355962061708 74.40529265210836 L 360.6138444234161 70.31292173874724 L 361.25258918018886 66.23835439472496 L 362.25080759389084 62.213451479680735 L 363.6046521997851 58.27002717317529 L 365.3074516959573 54.43959785202915 L 367.3497340721607 50.753130781231036" fill="none" stroke="#7b2cbf" stroke-width="1" opacity="0.3" class="drift" />
<path d="M 405.4297533303437 109.38397965845161 L 405.4297533303437 109.38397965845161 L 405.87582620308143 109.4230059779226 L 406.31170145619103 109.53949090862375 L 406.7273108530137 109.73165914878396 L 407.11284354412356 109.9965743978522 L 407.458871327671 110.33017291990544 L 407.75646982744985 110.72731005438378 L 407.99733429030493 111.18181920158017 L 408.1738887572148 111.68658268303963 L 408.27938742735665 112.23361375546455 L 408.3080071110787 112.81414894204045 L 408.25492975526004 113.41874973839064 L 408.116414122208 114.03741265266386 L 407.88985581012366 114.65968645150245 L 407.5738349182458 115.274795406681 L 407.1681507820055 115.8717672718016 L 406.6738433317209 116.43956466523004 L 406.09320076135054 116.96721849499257 L 405.4297533303437 117.4439620340446 L 404.6882532603949 117.85936424046797 L 403.87464082862226 118.20346091692466 L 402.9959968980172 118.4668823171416 L 402.06048226364044 118.64097583424065 L 401.0772643276561 118.71792244615695 L 400.05643174661503 118.69084564687613 L 399.0088978191703 118.55391165831307 L 397.9462935004326 118.3024197957826 L 396.8808510393049 117.93288194949041 L 395.82527933629495 117.4430902445097 L 394.79263221050445 116.8321720514128 L 393.79617084481305 116.10063163811243 L 392.8492217469148 115.25037787946535 L 391.9650316201051 114.28473757365637 L 391.1566205809737 113.20845405210751 L 390.43663519093957 112.02767091137807 L 389.8172027845241 110.7499008399363 L 389.3097885791577 109.38397965845161 L 388.9250570390487 107.94000583802493 L 388.67273893924494 106.42926590518086 L 388.5615055356337 104.86414628413101 L 388.59885119254545 103.25803226444565 L 388.79098575226027 101.62519491453021 L 389.14273785060084 99.98066688692644 L 389.657470290582 98.34010817923331 L 390.3370084825528 96.71966302321746 L 391.181582845279 95.13580917338695 L 392.1897859389626 93.60520095394294 L 393.3585449693377 92.14450749871207 L 394.68311016288635 90.77024768160258 L 396.15705936809616 89.4986232846446 L 397.77231908783625 88.3453519862038 L 399.5192019946937 87.32550177306163 L 401.38646082586797 86.4533283864217 L 403.3613583983812 85.74211740335335 L 405.4297533303437 85.20403253167261 L 407.5762009012482 84.84997165787793 L 409.78406833516374 84.68943213472708 L 412.03566364665846 84.73038672772162 L 414.31237705165233 84.97917155864413 L 416.59483381549893 85.4403872899901 L 418.8630572896654 86.11681468739033 L 421.09664077760686 87.00934557878966 L 423.2749267709009 88.11693010020079 L 425.3771920094342 89.43654097936107 L 427.3828367453123 90.96315546174739 L 429.2715765299835 92.68975532940067 L 431.0236347985111 94.60734530319776 L 432.6199344945288 96.70498995497027 L 434.04228696460075 98.96986908864149 L 435.2735763517537 101.38735138080746 L 436.2979377349994 103.94108590242652 L 437.10092729472063 106.61311097601123 L 437.6696828327157 109.3839796584516 L 437.99307304019607 112.23290097983399 L 438.06183398669396 115.13789591482094 L 437.8686913970937 118.07596691676045 L 437.4084673921604 121.02327970706294 L 436.67817048918334 123.95535588484059 L 435.6770677927234 126.84727480556974 L 434.4067384499059 129.67388307375964 L 432.8711075990544 132.41000990433184 L 431.07646020346016 135.030686531568 L 429.03143433237096 137.5113677838801 L 426.7469936274395 139.82815389799163 L 424.236378873394 141.95801061793742 L 421.5150387750588 143.8789856130148 L 418.6005402274566 145.57041925471785 L 415.512458549982 147.01314781588158 L 412.2722483379181 148.189697195733 L 408.903095763262 149.0844653321072 L 405.4297533303437 149.6838915364166 L 401.8783582584835 149.9766110775826 L 398.27623582242506 149.9535934474276 L 394.6516891300407 149.6082628612216 L 391.03377695442975 148.93659968227752 L 387.452081362721 147.93722160766933 L 383.9364669954291 146.61144361214969 L 380.51683394699086 144.9633158179141 L 377.2228662791404 142.9996386376223 L 374.08377826320145 140.72995472559387 L 371.1280604944553 138.16651746580197 L 368.3832280509035 135.3242359235923 L 365.8755728795395 132.22059638929844 L 363.6299225854024 128.8755608444005 L 361.6694077720682 125.3114428828671 L 360.0152400368938 121.55276182008402 L 358.6865026604366 117.62607591757526 L 357.6999559474095 113.55979584184769 L 357.06985907678575 109.38397965845162 L 356.8078102019341 105.13011083611359 L 356.92260640874196 100.83086089898369 L 357.4201249915538 96.51983851615444 L 358.30322734450857 92.23132695523496 L 359.5716865907479 88.0000119495951 L 361.2221398853273 83.86070213574041 L 363.248066130981 79.84804430705387 L 365.6397896407131 75.99623580192528 L 368.3845100691756 72.33873639728344 L 371.46635871767035 68.90798211210327" fill="none" stroke="#c77dff" stroke-width="1" opacity="0.3" class="drift" />
<circle cx="270.02400617389276" cy="128.02203503891042" r="1.3697701779493405" fill="white" opacity="0.4846761365047875"  style="animation-delay: 0.5564087039922072s" />
<circle cx="796.4512572336563" cy="198.3080416409761" r="1.923194040957033" fill="white" opacity="0.3718773031615256" class="shimmer" style="animation-delay: 2.5879397895529266s" />
<circle cx="703.8271194155323" cy="14.198075941201349" r="1.5335774892740948" fill="white" opacity="0.30986224584076344"  style="animation-delay: 2.977953663254876s" />
<circle cx="396.5809716198182" cy="72.69887286922727" r="1.9047513243255039" fill="white" opacity="0.5248403256812655"  style="animation-delay: 3.624563747310552s" />
<circle cx="512.0623980909332" cy="175.1548285121116" r="1.750679657759247" fill="white" opacity="0.6137241920119094" class="shimmer" style="animation-delay: 1.929977682922236s" />
<circle cx="306.8714738858434" cy="51.12612858190717" r="0.6848750539174876" fill="white" opacity="0.5298411992255758"  style="animation-delay: 4.257054756253216s" />
<circle cx="454.24396880018725" cy="57.154321812338615" r="1.4667472517274547" fill="white" opacity="0.4013958427055278"  style="animation-delay: 0.4085947672936685s" />
<circle cx="460.2525428961572" cy="42.060940198529465" r="0.8478493600622106" fill="white" opacity="0.592123465052224" class="shimmer" style="animation-delay: 3.4164428279956183s" />
<circle cx="713.4572860620949" cy="129.87916288966065" r="0.6642057959437059" fill="white" opacity="0.6629298999546571" class="shimmer" style="animation-delay: 4.285689937831191s" />
<circle cx="196.20088206775304" cy="192.5291795087665" r="1.0738769760380964" fill="white" opacity="0.3462853987757811" class="shimmer" style="animation-delay: 0.385157450644672s" />
<circle cx="300.86244504824134" cy="68.38672500679843" r="0.9303548029171459" fill="white" opacity="0.32977184355006145" class="shimmer" style="animation-delay: 1.5685211107408126s" />
<circle cx="542.3131894244674" cy="48.35938812565503" r="1.329508563962936" fill="white" opacity="0.487636833965812"  style="animation-delay: 2.1265937762695755s" />
<circle cx="609.2228703256309" cy="128.11350952190722" r="0.8390035653705424" fill="white" opacity="0.3101589500662429" class="shimmer" style="animation-delay: 2.255047962297491s" />
<circle cx="793.0589241929324" cy="108.92193371908422" r="0.764095549292458" fill="white" opacity="0.7450254507151779" class="shimmer" style="animation-delay: 0.8114976253547479s" />
<circle cx="619.0172241121626" cy="85.42860772026133" r="1.9621898513883238" fill="white" opacity="0.5033750276309639"  style="animation-delay: 1.3154801695192497s" />
<circle cx="144.52409940709464" cy="64.7243082282361" r="1.3647540096048423" fill="white" opacity="0.31007494965177446"  style="animation-delay: 0.5237853946877946s" />
<circle cx="702.5293347293601" cy="178.0364537600446" r="1.0898239143535022" fill="white" opacity="0.5548094522253628" class="shimmer" style="animation-delay: 4.46915490667954s" />
<circle cx="784.7652069230965" cy="119.45692367527072" r="1.667694266437699" fill="white" opacity="0.7082967492617795" class="shimmer" style="animation-delay: 0.3774261969208126s" />
<circle cx="646.9020893289587" cy="134.98588657002242" r="1.5059138148113074" fill="white" opacity="0.7871672166379147" class="shimmer" style="animation-delay: 2.4479599526641582s" />
<circle cx="688.2635444502006" cy="137.87989775565634" r="1.653729973813801" fill="white" opacity="0.7493198539984953"  style="animation-delay: 0.5866193135642561s" />
<circle cx="111.31170824439778" cy="131.69452147849307" r="1.9437463398375847" fill="white" opacity="0.49565881989187227" class="shimmer" style="animation-delay: 1.1719122598334153s" />
<circle cx="278.05557282320893" cy="172.82916845386765" r="1.3431624244975036" fill="white" opacity="0.5623463091804393" class="shimmer" style="animation-delay: 3.652085380625162s" />
<circle cx="398.0510964270852" cy="20.713612355679167" r="1.345547609271891" fill="white" opacity="0.7889264331856372"  style="animation-delay: 2.432011692769953s" />
<circle cx="172.06875751700056" cy="135.62669512502973" r="0.6668622840222307" fill="white" opacity="0.6136773496972168"  style="animation-delay: 2.2605644392539626s" />
<circle cx="573.3438865744097" cy="3.153985813291005" r="1.4737094790019842" fill="white" opacity="0.4458754101888351"  style="animation-delay: 3.312940773868328s" />
<circle cx="41.798871125629766" cy="199.46785827004803" r="1.612651344272878" fill="white" opacity="0.6728546652090255"  style="animation-delay: 1.4642511078964182s" />
<circle cx="718.1726522019507" cy="195.79416119560773" r="0.5799461139218762" fill="white" opacity="0.7074911065446188"  style="animation-delay: 0.9053936320808842s" />
<circle cx="453.52720612580646" cy="131.00891344165797" r="0.7481971584185738" fill="white" opacity="0.4205784925230844"  style="animation-delay: 1.6986912986447589s" />
<circle cx="490.2664153484387" cy="116.77056247592121" r="1.0848215965236827" fill="white" opacity="0.4124299529185606" class="shimmer" style="animation-delay: 0.18835421778576222s" />
<circle cx="319.17165148508036" cy="74.59235647551586" r="0.8859293706631544" fill="white" opacity="0.3122160785234001"  style="animation-delay: 3.84359437194853s" />
<circle cx="641.3227139777767" cy="2.3042927499721255" r="1.4117075793854061" fill="white" opacity="0.6922182445995828"  style="animation-delay: 4.9490590848868425s" />
<circle cx="116.76058993598969" cy="117.493129406851" r="1.6149517391646024" fill="white" opacity="0.7433511781415294"  style="animation-delay: 3.6340680685899827s" />
<circle cx="264.2612503826756" cy="148.75174322176443" r="1.269012823083591" fill="white" opacity="0.38627687424732265"  style="animation-delay: 4.354877836427745s" />
<circle cx="730.3349596932652" cy="150.3135434511669" r="0.5642943627900427" fill="white" opacity="0.47623927319353504"  style="animation-delay: 2.9042624051414556s" />
<circle cx="98.61562885384939" cy="166.8572275607105" r="1.053605898562719" fill="white" opacity="0.6907829212668561" class="shimmer" style="animation-delay: 0.5704434073677356s" />
<circle cx="354.5854227029016" cy="136.55774020890377" r="1.2036696055453693" fill="white" opacity="0.33331273370791076"  style="animation-delay: 1.238040129283916s" />
<circle cx="426.39156807641126" cy="154.39790363434912" r="1.2919990646029142" fill="white" opacity="0.7579512519567209"  style="animation-delay: 1.4522581527235934s" />
<circle cx="471.0540974964712" cy="188.8989013786213" r="1.839547666664224" fill="white" opacity="0.33095352409250917"  style="animation-delay: 2.19225667664253s" />
<circle cx="387.7124801135139" cy="191.77715716314086" r="1.8050006049333882" fill="white" opacity="0.611325943979597" class="shimmer" style="animation-delay: 2.18364785130753s" />
<circle cx="689.6746799724579" cy="14.289990180064294" r="1.6704891984584098" fill="white" opacity="0.6680665946848483" class="shimmer" style="animation-delay: 0.6500888717753261s" />
<circle cx="319.66800519819947" cy="26.081881521274262" r="2.5977932323510187" fill="#7b2cbf" opacity="0.8" filter="url(#glow)" class="shimmer" style="animation-delay: 0.7701755517024826s" />
<circle cx="35.60077308886758" cy="21.099360460772587" r="1.6572027844178518" fill="#7b2cbf" opacity="0.8" filter="url(#glow)" class="shimmer" style="animation-delay: 1.3316023704378392s" />
<circle cx="377.10963325757217" cy="156.70864213172246" r="2.9684386959381643" fill="#7b2cbf" opacity="0.8" filter="url(#glow)" class="shimmer" style="animation-delay: 0.5626175091912275s" />
<circle cx="555.8460110569943" cy="90.4615627682797" r="2.2623337241850767" fill="#7b2cbf" opacity="0.8" filter="url(#glow)" class="shimmer" style="animation-delay: 1.0961418552448372s" />
<circle cx="742.8128761951951" cy="92.21684394412249" r="1.3062855569249638" fill="#9d4edd" opacity="0.8" filter="url(#glow)" class="shimmer" style="animation-delay: 1.561172545165987s" />
<circle cx="422.71046230413293" cy="115.57389661444044" r="1.8372081513611143" fill="#c77dff" opacity="0.8" filter="url(#glow)" class="shimmer" style="animation-delay: 2.0972505062997566s" />
<circle cx="378.67883717998205" cy="57.76013156457624" r="1.1695678583054123" fill="#e0aaff" opacity="0.8" filter="url(#glow)" class="shimmer" style="animation-delay: 0.002113171311439288s" />
<circle cx="178.07054212019492" cy="171.31623957442906" r="1.0984914145965674" fill="#9d4edd" opacity="0.8" filter="url(#glow)" class="shimmer" style="animation-delay: 2.150808262328856s" />
<line x1="360.68323674726423" y1="143.03574856919678" x2="280.33704075489607" y2="142.6038179165405" stroke="#e0aaff" stroke-width="0.5" opacity="0.3" />
<line x1="280.33704075489607" y1="142.6038179165405" x2="279.5044008388155" y2="82.84992447731393" stroke="#e0aaff" stroke-width="0.5" opacity="0.3" />
<line x1="70.67080071722106" y1="43.86457790845253" x2="217.99067231389702" y2="74.69211867873295" stroke="#e0aaff" stroke-width="0.5" opacity="0.3" />
<line x1="217.99067231389702" y1="74.69211867873295" x2="643.4311982568361" y2="58.98435389390669" stroke="#e0aaff" stroke-width="0.5" opacity="0.3" />

  
    <text x="400" y="120" text-anchor="middle" class="name-text" fill="url(#textGrad)" filter="url(#textGlow)">
      JOEL HOOKS
    </text>
  
</svg>
