<svg xmlns="http://www.w3.org/2000/svg" viewBox="0 0 800 200" width="800" height="200">
  <rect width="800" height="200" fill="#1a0a0a"/>
  
    <defs>
      <linearGradient id="grad1" x1="0%" y1="0%" x2="100%" y2="100%">
        <stop offset="0%" style="stop-color:#ff4500;stop-opacity:0.8" />
        <stop offset="100%" style="stop-color:#ff6b35;stop-opacity:0.8" />
      </linearGradient>
      <linearGradient id="grad2" x1="100%" y1="0%" x2="0%" y2="100%">
        <stop offset="0%" style="stop-color:#f7c59f;stop-opacity:0.7" />
        <stop offset="100%" style="stop-color:#efa48b;stop-opacity:0.7" />
      </linearGradient>
      <linearGradient id="textGrad" x1="0%" y1="0%" x2="100%" y2="0%">
        <stop offset="0%" style="stop-color:#ff4500" />
        <stop offset="25%" style="stop-color:#ff6b35" />
        <stop offset="50%" style="stop-color:#f7c59f" />
        <stop offset="75%" style="stop-color:#efa48b" />
        <stop offset="100%" style="stop-color:#d4a5a5" />
      </linearGradient>
      <filter id="glow">
        <feGaussianBlur stdDeviation="3" result="coloredBlur"/>
        <feMerge>
          <feMergeNode in="coloredBlur"/>
          <feMergeNode in="SourceGraphic"/>
        </feMerge>
      </filter>
      <filter id="textGlow">
        <feGaussianBlur stdDeviation="2" result="coloredBlur"/>
        <feMerge>
          <feMergeNode in="coloredBlur"/>
          <feMergeNode in="SourceGraphic"/>
        </feMerge>
      </filter>
    </defs>
  
  
    <style>
      @keyframes float {
        0%, 100% { transform: translateY(0px); }
        50% { transform: translateY(-8px); }
      }
      @keyframes pulse {
        0%, 100% { opacity: 0.4; }
        50% { opacity: 0.9; }
      }
      @keyframes drift {
        0% { transform: translateX(0px); }
        50% { transform: translateX(10px); }
        100% { transform: translateX(0px); }
      }
      @keyframes shimmer {
        0% { opacity: 0.3; }
        50% { opacity: 1; }
        100% { opacity: 0.3; }
      }
      @keyframes glitch {
        0%, 100% { transform: translateX(0); }
        20% { transform: translateX(-2px); }
        40% { transform: translateX(2px); }
        60% { transform: translateX(-1px); }
        80% { transform: translateX(1px); }
      }
      @keyframes dataStream {
        0% { stroke-dashoffset: 0; }
        100% { stroke-dashoffset: -20; }
      }
      .float { animation: float 8s ease-in-out infinite; }
      .pulse { animation: pulse 8s ease-in-out infinite; }
      .drift { animation: drift 8s ease-in-out infinite; }
      .shimmer { animation: shimmer 3s ease-in-out infinite; }
      .glitch { animation: glitch 0.5s ease-in-out infinite; }
      .dataStream { animation: dataStream 2s linear infinite; }
      .name-text { 
        font-family: -apple-system, BlinkMacSystemFont, 'Segoe UI', Helvetica, Arial, sans-serif;
        font-weight: 700;
        font-size: 64px;
        letter-spacing: -2px;
      }
    </style>
  
  <rect x="0" y="160" width="800" height="50" fill="#ff4500" opacity="0.3" />
<rect x="0" y="170" width="800" height="40" fill="#ff6b35" opacity="0.25" />
<rect x="0" y="180" width="800" height="30" fill="#f7c59f" opacity="0.19999999999999998" />
<rect x="0" y="190" width="800" height="20" fill="#efa48b" opacity="0.14999999999999997" />
<rect x="0" y="200" width="800" height="10" fill="#d4a5a5" opacity="0.09999999999999998" />
<line x1="395.44294733585025" y1="170" x2="395.44294733585025" y2="303.2288643886793" stroke="#ff4500" stroke-width="2.6029325610595415" opacity="0.24694229844628274" class="pulse" />
<line x1="395.44294733585025" y1="170" x2="417.70860713159124" y2="253.09657362174903" stroke="#ff4500" stroke-width="2.0027850067941264" opacity="0.23050671083475427" class="pulse" />
<line x1="395.44294733585025" y1="170" x2="468.93790966319307" y2="297.29700885131837" stroke="#ff4500" stroke-width="2.4529194627284" opacity="0.11515618249646363" class="pulse" />
<line x1="395.44294733585025" y1="170" x2="457.72732994824446" y2="232.2843826123942" stroke="#ff4500" stroke-width="1.4371681745275682" opacity="0.17913826249673362" class="pulse" />
<line x1="395.44294733585025" y1="170" x2="521.4020949218037" y2="242.72254776564608" stroke="#ff4500" stroke-width="2.4198403951250875" opacity="0.2230371184261995" class="pulse" />
<line x1="395.44294733585025" y1="170" x2="501.0871014673129" y2="198.3072657845945" stroke="#ff4500" stroke-width="1.2655148132801015" opacity="0.1505602130790272" class="pulse" />
<line x1="395.44294733585025" y1="170" x2="539.0392672139033" y2="170" stroke="#ff4500" stroke-width="2.1439004487188433" opacity="0.10790918924629814" class="pulse" />
<line x1="395.44294733585025" y1="170" x2="494.79813504264985" y2="143.37785769012044" stroke="#ff4500" stroke-width="2.309400318306222" opacity="0.2967267766417597" class="pulse" />
<line x1="395.44294733585025" y1="170" x2="509.7224889181179" y2="104.02067590461078" stroke="#ff4500" stroke-width="1.9354024403187884" opacity="0.25665547859201376" class="pulse" />
<line x1="395.44294733585025" y1="170" x2="494.3400062498353" y2="71.10294108601495" stroke="#ff4500" stroke-width="1.0838687651157097" opacity="0.24239524361485976" class="pulse" />
<line x1="395.44294733585025" y1="170" x2="459.5800779184752" y2="58.91123117921401" stroke="#ff4500" stroke-width="2.216214803408585" opacity="0.16761237361224404" class="pulse" />
<line x1="395.44294733585025" y1="170" x2="424.72189405854795" y2="60.72948323878998" stroke="#ff4500" stroke-width="2.861011923851803" opacity="0.29598175117648323" class="pulse" />
<path d="M 309.99482589242126 40.22679558338025 C 310.3523626900781 50.19412007941555, 307.32305584757444 64.54151664351157, 300.59378506238977 71.2013794644567 C 293.8645142772051 77.86124228540184, 280.7802988083602 79.34973617569636, 269.6192011813133 80.18597250905108 C 258.4581035542664 81.0222088424058, 239.35606649415527 82.87866028553019, 233.62719930010851 76.21879746458505 C 227.89833210606176 69.55893464363992, 234.61951061365954 51.59764214040869, 235.24599801703272 40.22679558338026 C 235.8724854204059 28.85594902635183, 231.65725652630078 13.842617021829383, 237.38612372034754 7.993718122414471 C 243.1149909143943 2.1448192229995584, 259.4421277552965 4.566116459252376, 269.6192011813133 5.133402186890784 C 279.79627460733013 5.700687914529192, 291.71929349126395 5.548533588830009, 298.4485642764486 11.39743248824492 C 305.1778350616333 17.246331387659833, 309.6372890947644 30.259471087344956, 309.99482589242126 40.22679558338025 Z" fill="#f7c59f" opacity="0.24188580180008065" class="drift" />
<path d="M 378.68016482964896 73.78558124262956 C 377.65471304992053 87.71118665493542, 361.4536736157155 105.22437309952154, 350.26828319338233 112.48604214036189 C 339.08289277104916 119.74771118120223, 323.8839310807539 117.93964033514523, 311.56782229565 117.35559548767165 C 299.2517135105461 116.77155064019807, 288.28074707699903 116.24344209636077, 276.37163048275914 108.98177305552042 C 264.46251388851925 101.72010401468008, 240.09524175336813 85.4997642034174, 240.1131227302106 73.78558124262958 C 240.13100370705305 62.07139828184175, 264.569799749574 49.235474895693315, 276.47891634381386 38.69667529079347 C 288.38803293805375 28.15787568589363, 298.24414270766016 12.18016121727499, 311.56782229565 10.552783613230531 C 324.8915018836398 8.925406009186073, 345.2356034494196 18.393610061626887, 356.4209938717528 28.932409666526723 C 367.60638429408596 39.47120927142656, 379.7056166093774 59.8599758303237, 378.68016482964896 73.78558124262956 Z" fill="#f7c59f" opacity="0.1985313892324938" class="drift" />
<path d="M 619.2841042840737 72.11979002391752 C 618.7224074788865 82.1047948756209, 603.0779583286733 89.80157004334968, 594.1827443096835 100.38971416346595 C 585.2875302906937 110.97785828358222, 575.4707005958743 135.514082365392, 565.912820170135 135.64865474461516 C 556.3549397443957 135.78322712383832, 546.1264238408988 111.78529255892124, 536.8354617552475 101.19714843880497 C 527.5444996695961 90.6090043186887, 513.1309757338959 84.77617090654914, 510.16704765622677 72.11979002391752 C 507.2031195785576 59.4634091412859, 509.7609312035813 35.42386324075902, 519.0518932892327 25.258863143015276 C 528.342855374884 15.093863045271535, 552.8293148615393 8.592985785750011, 565.912820170135 11.129789437455074 C 578.9963254787307 13.666593089160136, 588.657711121817 30.314684955501903, 597.5529251408068 40.479685053245646 C 606.4481391597966 50.64468515098939, 619.8458010892609 62.13478517221413, 619.2841042840737 72.11979002391752 Z" fill="#f7c59f" opacity="0.1195441783560241" class="drift" />
<path d="M 419.956790934926 55.325971539080456 C 421.37526217414916 62.171725935844314, 422.6731896904269 76.73140782988528, 418.2579340599349 80.11864844704141 C 413.84267842944286 83.50588906419753, 401.3773699010269 76.00152812895116, 393.4652571519739 75.64941524201716 C 385.5531444029209 75.29730235508315, 378.243431373525 81.3932117425935, 370.785257565617 78.00597112543738 C 363.3270837577089 74.61873050828127, 348.13361508051764 62.30337217719145, 348.71621430452564 55.32597153908046 C 349.2988135285336 48.34857090096948, 366.8226791017569 41.76903488929499, 374.28085290966493 36.14156729677147 C 381.739026717573 30.514099704247947, 387.55421486615205 21.07740685565819, 393.4652571519739 21.56116598393932 C 399.37629943779575 22.044925112220447, 405.33185099410406 33.41665447393472, 409.7471066245961 39.04412206645824 C 414.1623622550881 44.671589658981766, 418.53831969570285 48.4802171423166, 419.956790934926 55.325971539080456 Z" fill="#f7c59f" opacity="0.23684979614900348" class="drift" />
<path d="M 639.4753862698722 80.57381369453978 L 650.6445927348273 74.98921046206223 L 661.8137991997824 80.57381369453978" fill="none" stroke="#d4a5a5" stroke-width="1.5" opacity="0.4" class="float" style="animation-delay: 0.7561516624701572s" />
<path d="M 668.7326513782851 56.14116089448785 L 679.8717492628838 50.57161195218853 L 691.0108471474824 56.14116089448785" fill="none" stroke="#d4a5a5" stroke-width="1.5" opacity="0.4" class="float" style="animation-delay: 2.8202517885079272s" />
<path d="M 471.3862313751667 55.87783697092646 L 478.3806781990717 52.38061355897393 L 485.37512502297676 55.87783697092646" fill="none" stroke="#d4a5a5" stroke-width="1.5" opacity="0.4" class="float" style="animation-delay: 0.6835945740637037s" />
<path d="M 516.8369898841047 58.9731683399799 L 524.948860409364 54.91723307735025 L 533.0607309346233 58.9731683399799" fill="none" stroke="#d4a5a5" stroke-width="1.5" opacity="0.4" class="float" style="animation-delay: 1.0609505470881702s" />
<path d="M 58.480334364668735 66.52093484848366 L 70.01240498569672 60.75489953796967 L 81.5444756067247 66.52093484848366" fill="none" stroke="#d4a5a5" stroke-width="1.5" opacity="0.4" class="float" style="animation-delay: 2.1941378008102914s" />

  
    <text x="400" y="120" text-anchor="middle" class="name-text" fill="url(#textGrad)" filter="url(#textGlow)">
      JOEL HOOKS
    </text>
  
</svg>
