<svg xmlns="http://www.w3.org/2000/svg" viewBox="0 0 800 200" width="800" height="200">
  <rect width="800" height="200" fill="#05010d"/>
  
    <defs>
      <linearGradient id="grad1" x1="0%" y1="0%" x2="100%" y2="100%">
        <stop offset="0%" style="stop-color:#4a0080;stop-opacity:0.8" />
        <stop offset="100%" style="stop-color:#7b2cbf;stop-opacity:0.8" />
      </linearGradient>
      <linearGradient id="grad2" x1="100%" y1="0%" x2="0%" y2="100%">
        <stop offset="0%" style="stop-color:#9d4edd;stop-opacity:0.7" />
        <stop offset="100%" style="stop-color:#c77dff;stop-opacity:0.7" />
      </linearGradient>
      <linearGradient id="textGrad" x1="0%" y1="0%" x2="100%" y2="0%">
        <stop offset="0%" style="stop-color:#4a0080" />
        <stop offset="25%" style="stop-color:#7b2cbf" />
        <stop offset="50%" style="stop-color:#9d4edd" />
        <stop offset="75%" style="stop-color:#c77dff" />
        <stop offset="100%" style="stop-color:#e0aaff" />
      </linearGradient>
      <filter id="glow">
        <feGaussianBlur stdDeviation="5" result="coloredBlur"/>
        <feMerge>
          <feMergeNode in="coloredBlur"/>
          <feMergeNode in="SourceGraphic"/>
        </feMerge>
      </filter>
      <filter id="textGlow">
        <feGaussianBlur stdDeviation="2" result="coloredBlur"/>
        <feMerge>
          <feMergeNode in="coloredBlur"/>
          <feMergeNode in="SourceGraphic"/>
        </feMerge>
      </filter>
    </defs>
  
  
    <style>
      @keyframes float {
        0%, 100% { transform: translateY(0px); }
        50% { transform: translateY(-8px); }
      }
      @keyframes pulse {
        0%, 100% { opacity: 0.4; }
        50% { opacity: 0.9; }
      }
      @keyframes drift {
        0% { transform: translateX(0px); }
        50% { transform: translateX(10px); }
        100% { transform: translateX(0px); }
      }
      @keyframes shimmer {
        0% { opacity: 0.3; }
        50% { opacity: 1; }
        100% { opacity: 0.3; }
      }
      @keyframes glitch {
        0%, 100% { transform: translateX(0); }
        20% { transform: translateX(-2px); }
        40% { transform: translateX(2px); }
        60% { transform: translateX(-1px); }
        80% { transform: translateX(1px); }
      }
      @keyframes dataStream {
        0% { stroke-dashoffset: 0; }
        100% { stroke-dashoffset: -20; }
      }
      .float { animation: float 8s ease-in-out infinite; }
      .pulse { animation: pulse 8s ease-in-out infinite; }
      .drift { animation: drift 8s ease-in-out infinite; }
      .shimmer { animation: shimmer 3s ease-in-out infinite; }
      .glitch { animation: glitch 0.5s ease-in-out infinite; }
      .dataStream { animation: dataStream 2s linear infinite; }
      .name-text { 
        font-family: -apple-system, BlinkMacSystemFont, 'Segoe UI', Helvetica, Arial, sans-serif;
        font-weight: 700;
        font-size: 64px;
        letter-spacing: -2px;
      }
    </style>
  
  <path d="M 668.9021582257434 46.9579977415632 C 670.7529200501685 72.00018713742293, 619.6645459489097 113.5222519052117, 593.681252761372 127.63685140241773 C 567.6979595738343 141.75145089962376, 536.5740628108827 134.96688223471898, 513.0023991005174 131.6455947247994 C 489.43073539015217 128.3243072148798, 470.3636660155023 121.8237258401063, 452.25127049918035 107.70912634290028 C 434.1388749828584 93.59452684569425, 411.1169034625852 73.99725140200847, 404.3280260025856 46.95799774156321 C 397.539148542586 19.918744081117946, 393.40561022286096 -31.78181691016447, 411.5180057391829 -54.5263956197713 C 429.63040125550486 -77.27097432937813, 484.49261975457773 -94.82782629058288, 513.0023991005174 -89.50947451607777 C 541.5121784464571 -84.19112274157267, 556.5933886272836 -45.36086368234749, 582.5766818148213 -22.616284972740665 C 608.559975002359 0.12829373686616208, 667.0513964013182 21.915808345703464, 668.9021582257434 46.9579977415632 Z" fill="#4a0080" opacity="0.14032334758541826" filter="url(#glow)" class="float" />
<path d="M 121.42899312454108 22.805936209142974 C 112.28430847094347 37.992468491936265, 108.11274755617198 42.18834031897712, 101.44149631506706 50.734737131391036 C 94.77024507396213 59.28113394380495, 90.47719279460499 65.99243172264097, 81.4014856779115 74.08431708362649 C 72.325778561218 82.176202444612, 61.632604843448924 95.43512189533133, 46.98725361490611 99.28604929730415 C 32.341902386363294 103.13697669927696, 2.2822867476900424 106.82835289772977, -6.470621693345372 97.18988149546335 C -15.223530134380786 87.55141009319694, 2.605803293015043 59.39572671819326, -5.530197031306372 41.455220883705636 C -13.666197355627787 23.514715049218015, -54.006824445060936 6.348467166831835, -55.28662363927386 -10.453153511462379 C -56.56642283348679 -27.254774189756592, -29.385385668629798 -46.10521370846012, -13.208992196583942 -59.354503186059645 C 2.9674012754619135 -72.60379266365916, 21.076286924630256 -84.30719336651038, 41.77173719300127 -89.94889037705953 C 62.46718746137229 -95.59058738760868, 91.8740649063669 -101.46542421796968, 110.96370941364214 -93.20468524935455 C 130.05335392091737 -84.94394628073942, 154.56539028483616 -59.719560141784996, 156.30960423665266 -40.38445656536874 C 158.05381818846917 -21.04935298895248, 130.5736777781387 7.61940392634968, 121.42899312454108 22.805936209142974 Z" fill="#4a0080" opacity="0.12282062747291106" filter="url(#glow)" class="float" />
<path d="M 609.0738739818829 163.51545744748742 C 609.146895997697 187.25675601785036, 624.6154453541996 223.98314620377184, 613.0185056344126 234.92317139818857 C 601.4215659146256 245.8631965926053, 562.7318515063129 225.37106820377565, 539.4922356631611 229.15560861398782 C 516.2526198200093 232.9401490242, 486.59601280443604 264.53539929739907, 473.58081057550163 257.63041385946156 C 460.5656083465672 250.72542842152404, 468.216577169711 209.18837418526425, 461.40102228955465 187.7256959863628 C 454.5854674093983 166.26301778746137, 431.5324944392326 150.09071659846936, 432.68748129456344 128.8543446660529 C 433.8424681498943 107.61797273363645, 450.72073290404273 64.3897939203353, 468.3309434215396 60.307464391864116 C 485.94115393903644 56.225134863392945, 514.3071727132133 98.99904823120141, 538.3487443995447 104.36036749522586 C 562.3903160858761 109.7216867592503, 600.7928519424715 82.61619831730057, 612.580373539528 92.47537997601083 C 624.3678951365844 102.33456163472108, 609.0008519660688 139.77415887712448, 609.0738739818829 163.51545744748742 Z" fill="#7b2cbf" opacity="0.20869475675918692" filter="url(#glow)" class="float" />
<path d="M 206.10978725829176 103.00092867548156 C 204.25978705046685 130.3779320415681, 241.1905850571595 165.43363577925413, 232.81624430333147 181.0996272903305 C 224.44190354950345 196.76561880140684, 177.4772749659908 198.63228123234504, 155.86374273532365 196.99687774193978 C 134.2502105046565 195.36147425153453, 128.1455793182327 172.48022426083426, 103.13505091932858 171.28720634789892 C 78.12452252042445 170.09418843496357, 23.909953744415553 201.21981654306387, 5.800572341898842 189.83877026432765 C -12.308809060617868 178.45772398559143, -10.62715342805176 128.237210802542, -5.521237495771686 103.00092867548157 C -0.41532156349161387 77.76464654842117, 20.544389152971917 56.62751062434686, 36.436067935579274 38.4210775019652 C 52.32774671818663 20.21464437958354, 69.51533525516608 -0.07656081680033378, 89.82883519987246 -6.237670058808391 C 110.14233514457884 -12.398779300816447, 132.63583254541615 -2.3914574755197457, 158.31706760381758 1.4544220499168574 C 183.998302662219 5.30030157535346, 235.95079227453527 -0.08681067711622248, 243.91624555028096 16.83760709381123 C 251.88169882602665 33.76202486473868, 207.95978746611667 75.62392530939502, 206.10978725829176 103.00092867548156 Z" fill="#e0aaff" opacity="0.13293132374448213" filter="url(#glow)" class="float" />
<path d="M 276.54190028772837 92.87785434365287 L 276.54190028772837 92.87785434365287 L 276.9720515528806 92.91548770295502 L 277.3923691804085 93.02781495568563 L 277.79314429761126 93.21312416563528 L 278.1649162321399 93.46858383715812 L 278.498593301443 93.79027528060641 L 278.7855696656448 94.17323746296543 L 279.0178369918138 94.61152388798361 L 279.1880897284204 95.09827092736278 L 279.28982285142985 95.62577690735435 L 279.31742101736575 96.18559114451791 L 279.2662381431052 96.76861202150143 L 279.1326665263535 97.3651930994857 L 278.91419472380755 97.965256179311 L 278.60945351499674 98.55841014909322 L 278.21824939764036 99.13407439306735 L 277.74158518399037 99.68160548509366 L 277.181667395865 100.19042585124095 L 276.54190028772837 100.65015305952824 L 275.82686646098745 101.05072838154543 L 275.0422941674008 101.38254327045385 L 274.1950115338515 101.63656241283314 L 273.29288807344955 101.80444203791626 L 272.3447639777421 101.87864220674034 L 271.3603678104781 101.85253185531852 L 270.35022334369006 101.72048542967234 L 269.3255463906712 101.477970025902 L 268.29813259662393 101.12162203475732 L 267.28023724530624 100.64931238663753 L 266.2844482279458 100.06019959873734 L 265.3235533981463 99.35476994021568 L 264.41040360269744 98.53486415276477 L 263.55777273243615 97.60369029169483 L 262.7782161790165 96.5658223854593 L 262.0839291121667 95.42718474820967 L 261.4866060074 94.1950219192283 L 260.99730285597764 92.87785434365287 L 260.62630347709546 91.48542004947315 L 260.3829913268065 90.02860271503056 L 260.2757281592507 88.51934665788166 L 260.3117408436131 86.97055940860042 L 260.4970175752681 85.39600266063391 L 260.8362146423135 83.81017250846494 L 261.3325748197749 82.22816999990694 L 261.98785836392216 80.6655631332484 L 262.80228746922097 79.13824152514546 L 263.7745049313964 77.66226505967364 L 264.9015476329363 76.2537079019363 L 266.1788353332279 74.92849932032158 L 267.60017510558373 73.70226280924915 L 269.1577816189128 72.59015503850878 L 270.84231331402754 71.60670617564364 L 272.64292437487677 70.76566313397032 L 274.54733224471414 70.07983729058415 L 276.54190028772837 69.56095819602677 L 278.61173504934686 69.21953476027967 L 280.74079742464545 69.06472534861011 L 282.912026905394 69.10421815587785 L 285.1074779435544 69.34412314968573 L 287.3084673437801 69.78887678181982 L 289.495731480854 70.44116056448875 L 291.6495920311819 71.3018344937654 L 293.7501288114801 72.36988617828956 L 295.7773582336387 73.64239639774249 L 297.7114158132647 75.11452167397363 L 299.532741111379 76.77949428915318 L 301.2222634448089 78.62864003121469 L 302.76158667150486 80.65141378847552 L 304.1331713427243 82.83545295406371 L 305.320512515035 85.16664843805763 L 306.3083115315318 87.62923292250647 L 307.0826401135374 90.20588583319987 L 307.63109515122983 92.87785434365286 L 307.9429426438419 95.6250895727102 L 308.009249316892 98.42639698886472 L 307.82300053480077 101.2595998932129 L 307.37920323154736 104.10171472025253 L 306.6749726989342 106.92913677273728 L 305.7096022006417 109.71783489471613 L 304.48461451954984 112.44355348681401 L 303.0037946946488 115.0820201807519 L 301.27320336104174 117.60915741696618 L 299.3011702707549 120.00129611074627 L 297.0982677419357 122.23538954923745 L 294.6772639581042 124.28922563448265 L 292.05305621593845 126.14163557680217 L 289.24258439809114 127.77269714850068 L 286.26472512521804 129.16393063025686 L 283.1401672171695 130.29848562157719 L 279.89126926562017 131.16131694220223 L 276.54190028772837 131.7393479230297 L 273.1172645912323 132.0216194725067 L 269.64371213422174 131.9994234069374 L 266.1485358062739 131.66641865002265 L 262.65975719035515 131.01872903732377 L 259.20590248561126 130.0550216042315 L 255.81577037872742 128.77656439031549 L 252.51819374485964 127.1872629574084 L 249.34179713728207 125.29367499213039 L 246.31475208701204 123.10500254436916 L 243.4645322790779 120.63306164002671 L 240.8176707002098 117.8922291975678 L 238.39952086314935 114.89936737196639 L 236.23402420520625 111.67372564489563 L 234.34348573302867 108.23682117478924 L 232.748359941827 104.61229811303693 L 231.46704897568316 100.82576678138881 L 230.5157149164387 96.90462378898346 L 229.90810799247618 92.87785434365288 L 229.65541238613423 88.77581817971802 L 229.76611119032296 84.63002068185146 L 230.24587192206124 80.47287093030396 L 231.0974538442056 76.33742852550606 L 232.3206381777769 72.25714116850308 L 233.91218210731657 68.26557507671419 L 235.86579729203885 64.39614040107656 L 238.17215339769376 60.681813879859305 L 240.81890695960914 57.154861015533584 L 243.79075567800732 53.84656009344527 L 247.06951803410584 50.7869303742003 L 250.63423790147718 48.00446678532464 L 254.4613136134529 45.52588341175796 L 258.5246507358184 43.3758680391013 L 262.7958375864499 41.576849938454146 L 267.24434234169763 40.14878299748676 L 271.837730374959 39.10894619962287 L 276.54190028772837 38.47176333252533 L 281.321336919102 38.2486436693184 L 286.13937945782453 38.44784521212656 L 290.9585026329716 39.074361918688346 L 295.7406088266488 40.12983615027823 L 300.44732883591087 41.612497384328606 L 305.04032891260465 43.51712802949178 L 309.48162163001234 45.83505696602937 L 313.7338780648692 48.55418121206115 L 317.7607387432506 51.659015888130654 L 321.5271207794931 55.13077242058452 L 324.99951863911497 58.94746469032271 L 328.1462959798058 63.084042599463984 L 330.93796606899605 67.51255229634467 L 333.34745834213174 72.20232207096919 L 335.3503687522245 77.12017271047998 L 336.9251916680154 82.23065088932736 L 338.0535312044987 87.49628396344481 L 338.7202900147313 92.87785434365284 L 338.9138337348032 98.33469144246529 L 338.62612945337554 103.82497902204393 L 337.8528567719903 109.30607562079051 L 336.5934902309549 114.73484560334688 L 334.8513520964254 120.06799826486818 L 332.6336347356387 125.26243232646682 L 329.95139204728594 130.27558308564437 L 326.8194996608771 135.06576943414106 L 323.2565838706536 139.59253792657802 L 319.284919524144 143.81700107697466 L 314.93029734076606 147.70216707697352 L 310.22186138985506 151.21325816947953 L 305.1919177080693 154.31801497429336 L 299.87571528118553 156.98698414790817 L 294.31120085279576 159.1937868674463 L 288.53874925034864 160.91536575806074 L 282.6008711353753 162.1322080331635 L 276.54190028772854 162.82854278653116 L 270.40766272147715 162.992510563468" fill="none" stroke="#c77dff" stroke-width="1" opacity="0.3" class="drift" />
<path d="M 362.1210810560353 50.59417295167159 L 362.1210810560353 50.59417295167159 L 362.35582947313424 50.6147107769484 L 362.5852113342013 50.67601164227598 L 362.8039281717368 50.777141284877736 L 363.00681696975425 50.91655445968587 L 363.18891608275675 51.09211260227797 L 363.34552900639267 51.30110830541912 L 363.4722853165077 51.54029636051543 L 363.5651981210557 51.80593104830701 L 363.62071740352144 52.09380929915776 L 363.63577867682955 52.399319282947076 L 363.6078464127899 52.71749393241391 L 363.53495176353033 53.04306885238639 L 363.41572414761185 53.370544021147474 L 363.24941633408525 53.694248649688 L 363.035922722066 54.00840853017928 L 362.7757905808704 54.30721517699957 L 362.4702240857411 54.58489604235404 L 362.1210810560353 54.835785074156774 L 361.7308623757758 55.05439287655198 L 361.3026941499914 55.23547573333157 L 360.84030272359223 55.374102761582364 L 360.3479827619567 55.46572047712595 L 359.83055866324594 55.50621407459046 L 359.2933396410452 55.49196475310119 L 358.742068881593 55.41990245335869 L 358.18286724197014 55.28755341298785 L 357.62217201357674 55.0930819941301 L 357.06667132846394 54.83532628989557 L 356.52323483407827 54.513827074024654 L 355.9988413042483 54.12884972040924 L 355.50050389036204 53.68139878543115 L 355.0351937462835 53.17322501578586 L 354.60976278331833 52.60682461693923 L 354.23086632721333 51.98543069194623 L 353.9048864575714 51.312996836360114 L 353.6378568110649 50.59417295167159 L 353.43538962337345 49.83427341642944 L 353.3026057708813 49.03923783018817 L 353.2440685519153 48.21558461999166 L 353.26372191884553 47.370357871528746 L 353.36483383691905 46.51106781669927 L 353.54994540353346 45.64562547543887 L 353.82082631313347 44.782272011630845 L 354.1784371984231 43.92950342017676 L 354.6228993186044 43.09599121424073 L 355.1534720003816 42.290499827804354 L 355.76853816808375 41.52180148849985 L 356.465598226055 40.79858934881238 L 357.24127248009273 40.129389689800945 L 358.0913122058567 39.522474030184405 L 359.0106193915307 38.985771984745426 L 359.9932751003211 38.526785719355644 L 361.0325763163641 38.152506845426295 L 362.1210810560353 37.86933658421602 L 363.2506614462601 37.68301001122836 L 364.4125643929582 37.598525163023645 L 365.5974793869521 37.62007775334234 L 366.7956129222424 37.75100220274645 L 367.9967689331906 37.99371963635796 L 369.1904345935106 38.34969344809757 L 370.3658707616745 38.81939296755506 L 371.5122063049598 39.40226569776358 L 372.61853548843845 40.09671851926839 L 373.67401757619837 40.9001081785882 L 374.66797776042176 41.80874129812162 L 375.5900085099667 42.81788406044873 L 376.4300704141033 43.92178163354608 L 377.17859158925785 45.11368731542876 L 377.8265647171707 46.38590128793017 L 378.3656407918452 47.72981878051791 L 378.788218670062 49.13598735701773 L 379.08752954597605 50.59417295167158 L 379.2577155042599 52.09343419687908 L 379.2939013481772 53.62220450403402 L 379.19225894857374 55.1683812818253 L 378.9500634166958 56.71942160394299 L 378.5657404675463 58.26244357100985 L 378.03890441068154 59.784332550389486 L 377.3703862813665 61.271851422909236 L 376.5622517062392 62.71175391802582 L 375.61780818341083 64.09090007904712 L 374.54160154654835 65.39637286813056 L 373.3394014751837 66.61559489727276 L 372.0181760085007 67.73644425667521 L 370.58605511634374 68.74736840593698 L 369.0522834783424 69.63749509662954 L 367.4271627190136 70.39673930701622 L 365.72198344262847 71.0159051909755 L 363.9489475056718 71.48678207347973 L 362.1210810560353 71.80223356409753 L 360.2521389558451 71.95627890767766 L 358.35650128823335 71.9441657473075 L 356.4490627266447 71.7624335384193 L 354.5451156176996 71.4089669240675 L 352.66022769451405 70.88303845937999 L 350.8101153960748 70.18534015739003 L 349.0105138191992 69.31800341821754 L 347.27704437225134 68.28460699817136 L 345.6250812336874 67.09017277401946 L 344.06961774328045 65.74114915961441 L 342.62513386921944 64.24538213641848 L 341.3054658999595 62.61207396537962 L 340.1236795055725 60.85172975416302 L 339.09194729934194 58.976092160042974 L 338.2214320064814 56.9980646138868 L 337.52217631323737 54.931623553704284 L 337.00300042644574 52.79172025629079 L 336.67140832112415 50.594172951671595 L 336.53350359224777 48.35554999649878 L 336.5939157569054 46.09304496843013 L 336.85573777507835 43.824344623044055 L 337.320475471904 41.567490727271654 L 337.9880094521295 39.34073684796741 L 338.85656999924464 37.162401230468475 L 339.9227253482746 35.050716949237064 L 341.18138361323963 33.02368055045797 L 342.6258085387151 31.098900434351357 L 344.2476491306628 29.29344624262086 L 346.03698310568996 27.62370052364102 L 347.98237398108466 26.105213944523552 L 350.0709415113609 24.752565305011426 L 352.2884450615996 23.579227583242858 L 354.6193793945832 22.597441207908485 L 357.04708223856306 21.81809570537972 L 359.5538528964334 21.25062081430061 L 362.1210810560353 20.902888094275266 L 364.72938486619074 20.781123980102674 L 367.35875725471624 20.889835149047716 L 369.98871938389965 21.231746976505402 L 372.59848006649946 21.8077557558049 L 375.1670999019224 22.616895251568426 L 377.67365883848095 23.656318043808735 L 380.0974258240683 24.921292002696227 L 382.4180291746786 26.405212112580067 L 384.61562626832784 28.099627739379034 L 386.67107116138186 29.994285308869397 L 388.56607872528053 32.07718623572778 L 390.2833839142555 34.33465981547837 L 391.8068947988928 36.751450664814215 L 393.1218380361994 39.310820171171585 L 394.21489549400764 41.994661290982584 L 395.07433080582115 44.78362591875986 L 395.6901047011877 47.65726393708711 L 396.05397803591677 50.594172951671574 L 396.1596015353856 53.572157616809726 L 396.0025913621531 56.56839736579212 L 395.58058972541073 59.55962127877285 L 394.89330986363734 62.52228874820007 L 393.9425648523358 65.43277453974174 L 392.73227981497035 68.26755679535984 L 391.2684872462254 71.003406485303 L 389.5593052914226 73.61757678774465 L 387.6148989633002 76.08799085893646 L 385.44742441626715 78.39342645331406 L 383.0709565375775 80.51369586213161 L 380.50140025347116 82.42981966096401 L 377.75638608507563 84.12419279072651 L 374.8551506225995 85.5807415435711 L 371.81840271596127 86.78507008385314 L 368.6681763043865 87.72459520495141 L 365.4276709256025 88.38866810460542 L 362.1210810560354 88.7686820540383 L 358.77341553591447 88.85816493880334 L 355.4103084264753 88.65285576128343 L 352.0578227296971 88.15076431525623 L 348.74224847344254 87.35221337100906 L 345.4898967257822 86.2598628441695 L 342.3268911511044 84.87871556167883 L 339.2789587568054 83.21610438307641 L 336.3712215025326 81.28166058335486 L 333.627990453798 79.08726355390883 L 331.07256415809695 76.64697202933326 L 328.72703290436056 73.97693719881227 L 326.6120904956706 71.09529821035 L 324.74685512078304 68.02206072289498 L 323.1487008524004 64.7789593043001 L 321.83310122964446 61.38930461083438 L 320.81348629926146 57.877816415462426 L 320.10111439532005 54.27044367622147 L 319.7049598311834 50.59417295167162 L 319.6316175611221 46.876826576568206 L 319.88522574292944 43.14685210667209 L 320.46740699824136 39.43310462609655 L 321.3772290249624 35.76462358301456 L 322.61118506734 32.17040587923549 L 324.1631945949558 28.67917698549816 L 326.0246243834158 25.319161886843215 L 328.18433002805614 22.11785768073918 L 330.6287177588256 19.1018096544621 L 333.3418262609439 16.296392657437423 L 336.30542804329616 13.725599558782143 L 339.4991497361142 11.411838540234776 L 342.900610542629 9.375740920221908 L 346.4855779173424 7.635981136301346 L 350.2281393976356 6.209110431071551 L 354.1008893768049 5.109405691403808 L 358.07512947650275 4.348734783174933 L 362.12108105603534 3.9364396043345096 L 366.2081082861214 3.879237948976993 L 370.3049501164742 4.181145135071766 L 374.3799593808472 4.843416199668454 L 378.4013472107565 5.864509308863312 L 382.33743087065426 7.240070866778893 L 386.15688308345136 8.962942639519937" fill="none" stroke="#e0aaff" stroke-width="1" opacity="0.3" class="drift" />
<circle cx="33.45346994544762" cy="55.34512228199296" r="1.0265471491118272" fill="white" opacity="0.5873619205697769" class="shimmer" style="animation-delay: 3.224263783183896s" />
<circle cx="227.71639783544623" cy="71.88529239819923" r="1.5658549004426159" fill="white" opacity="0.44559258391435436" class="shimmer" style="animation-delay: 3.80991417104331s" />
<circle cx="234.883285575356" cy="21.519436286991134" r="1.4103093380079845" fill="white" opacity="0.6501630198540014" class="shimmer" style="animation-delay: 1.5882297338207685s" />
<circle cx="200.20700768970858" cy="36.911541083439836" r="0.6212765245798868" fill="white" opacity="0.5654415887730335"  style="animation-delay: 3.26832856316303s" />
<circle cx="434.9012060474493" cy="16.32519295412731" r="1.530682835840103" fill="white" opacity="0.7226312207253727"  style="animation-delay: 2.571093093250779s" />
<circle cx="399.3795529208672" cy="158.35462127547947" r="0.5851588369963833" fill="white" opacity="0.6184764138423302"  style="animation-delay: 3.243042972206309s" />
<circle cx="195.59013678643583" cy="113.48517033005456" r="1.8827896594318125" fill="white" opacity="0.5949420027618331" class="shimmer" style="animation-delay: 4.009089224646123s" />
<circle cx="157.8076750956571" cy="34.78209560032579" r="0.9568660839055734" fill="white" opacity="0.39899106183244776"  style="animation-delay: 2.2042926029669365s" />
<circle cx="369.6192935894555" cy="54.164320585458505" r="1.2227507738574475" fill="white" opacity="0.6592312643640004"  style="animation-delay: 0.8226739368095026s" />
<circle cx="75.74143626139485" cy="141.61609480164077" r="1.5653649050284208" fill="white" opacity="0.7748328698740932" class="shimmer" style="animation-delay: 0.39159014576247486s" />
<circle cx="605.8591987215692" cy="166.48867137562732" r="1.1254256059011305" fill="white" opacity="0.3608300492261792"  style="animation-delay: 4.592154253418173s" />
<circle cx="1.054378013127355" cy="153.3754869460478" r="1.908888972690142" fill="white" opacity="0.4678132137090028"  style="animation-delay: 2.0402539165170963s" />
<circle cx="283.0644991381812" cy="103.43541414733704" r="1.0959648009940701" fill="white" opacity="0.4087070418818682" class="shimmer" style="animation-delay: 1.1979459909500467s" />
<circle cx="308.401528113615" cy="197.49232858287337" r="1.540891144335967" fill="white" opacity="0.7469054783884417" class="shimmer" style="animation-delay: 2.874343163815812s" />
<circle cx="578.3488090734977" cy="16.612034987966105" r="1.2529232810597957" fill="white" opacity="0.6436617449488375"  style="animation-delay: 2.1954087247382716s" />
<circle cx="479.41391727980954" cy="184.58960105494012" r="1.7977222187918982" fill="white" opacity="0.5787592071594738"  style="animation-delay: 1.8606262934609885s" />
<circle cx="634.0159517143652" cy="67.33982000175236" r="1.8798530341669326" fill="white" opacity="0.48239734681596763"  style="animation-delay: 4.93019385350882s" />
<circle cx="793.0337297892274" cy="67.53493173510425" r="0.725092867764034" fill="white" opacity="0.3133781705727155"  style="animation-delay: 3.763130055316929s" />
<circle cx="713.772023512584" cy="139.14975140675105" r="1.5845311764080736" fill="white" opacity="0.6835882648958256"  style="animation-delay: 1.5877007053400294s" />
<circle cx="619.9510884672233" cy="196.89315363560004" r="1.9849445421980036" fill="white" opacity="0.6093836891690285"  style="animation-delay: 1.214533582430637s" />
<circle cx="706.3986741775054" cy="116.13453513233516" r="0.6232152085369199" fill="white" opacity="0.38654998137694035"  style="animation-delay: 0.3748021956961345s" />
<circle cx="656.4256598920132" cy="29.7495580434056" r="1.1940254287841625" fill="white" opacity="0.4103317417952436"  style="animation-delay: 2.543939060897362s" />
<circle cx="657.6776892734655" cy="170.89377743734363" r="1.878041188158935" fill="white" opacity="0.7532881372899638" class="shimmer" style="animation-delay: 4.229587202305502s" />
<circle cx="792.1260647032199" cy="176.3717118845609" r="0.840716388972306" fill="white" opacity="0.49835473148947346"  style="animation-delay: 0.7457501832113422s" />
<circle cx="292.9565541902084" cy="17.85181586460758" r="0.9206354706675265" fill="white" opacity="0.6941296472207723" class="shimmer" style="animation-delay: 3.8654397313344724s" />
<circle cx="256.6916816029538" cy="85.10570480798063" r="1.1291618945575541" fill="white" opacity="0.4260717384569796" class="shimmer" style="animation-delay: 3.8895525919618015s" />
<circle cx="760.3472191472652" cy="155.92439062887675" r="1.7786916374754527" fill="white" opacity="0.5944942593300666"  style="animation-delay: 3.3195607349836354s" />
<circle cx="44.884890849341375" cy="174.35077359033957" r="1.301761689805943" fill="white" opacity="0.49284372457679565"  style="animation-delay: 1.140879022346969s" />
<circle cx="798.5660222816948" cy="77.68851877904983" r="1.7274625842872342" fill="white" opacity="0.4255989778212827" class="shimmer" style="animation-delay: 3.999413372064126s" />
<circle cx="764.3503636533565" cy="158.7126004933074" r="0.7290179305542578" fill="white" opacity="0.3593192713542391"  style="animation-delay: 4.999001553752892s" />
<circle cx="315.3662224406407" cy="193.2319980399079" r="1.2164435828848768" fill="white" opacity="0.7177261250997173"  style="animation-delay: 0.13571646715225372s" />
<circle cx="395.75459275902693" cy="65.27088096959494" r="1.8844457427563985" fill="white" opacity="0.4623131829645403" class="shimmer" style="animation-delay: 4.415171953763446s" />
<circle cx="658.96686456829" cy="131.9121502372512" r="1.8989990200645643" fill="white" opacity="0.6080085588479949"  style="animation-delay: 1.8932906190395327s" />
<circle cx="378.55096030749917" cy="199.08151394859473" r="1.3449623750785076" fill="white" opacity="0.5418675753771274"  style="animation-delay: 1.0642773855589471s" />
<circle cx="799.6906944742303" cy="26.584384926656046" r="0.9658120106568554" fill="white" opacity="0.6253556246411291"  style="animation-delay: 3.6389365100392688s" />
<circle cx="697.3630681207517" cy="41.521056026277" r="1.7580383248021325" fill="white" opacity="0.47829766863449547" class="shimmer" style="animation-delay: 4.718452898355316s" />
<circle cx="719.5250797599073" cy="27.352385656589682" r="1.173326501513284" fill="white" opacity="0.5449631941497852"  style="animation-delay: 4.35967431932893s" />
<circle cx="544.8623702042729" cy="37.88915286550538" r="1.1850898117652553" fill="white" opacity="0.643240970261987"  style="animation-delay: 3.512899956804525s" />
<circle cx="92.93279717103111" cy="183.18303265568255" r="1.4482247834545556" fill="white" opacity="0.7665913919820477" class="shimmer" style="animation-delay: 1.7598601684409443s" />
<circle cx="183.96621276787357" cy="36.877663427900444" r="1.9704785229024462" fill="white" opacity="0.3168474354579182" class="shimmer" style="animation-delay: 0.3148817893207545s" />
<circle cx="772.0934807073963" cy="44.51088607018243" r="1.709863086420607" fill="#9d4edd" opacity="0.8" filter="url(#glow)" class="shimmer" style="animation-delay: 1.8445056704288858s" />
<circle cx="357.84392542993453" cy="13.478731983750336" r="1.0427323344423463" fill="#7b2cbf" opacity="0.8" filter="url(#glow)" class="shimmer" style="animation-delay: 2.521365507072704s" />
<circle cx="364.25809053370256" cy="0.443259176055788" r="2.5011357554620868" fill="#c77dff" opacity="0.8" filter="url(#glow)" class="shimmer" style="animation-delay: 2.676979272006675s" />
<circle cx="322.2145270671353" cy="170.8286845929995" r="1.5121953452370427" fill="#e0aaff" opacity="0.8" filter="url(#glow)" class="shimmer" style="animation-delay: 1.0238889053344076s" />
<circle cx="619.2920105807423" cy="186.68903107950067" r="2.6737916459278153" fill="#7b2cbf" opacity="0.8" filter="url(#glow)" class="shimmer" style="animation-delay: 1.3858641340882427s" />
<circle cx="510.08839970520086" cy="54.461850301136884" r="1.0490297980526098" fill="#c77dff" opacity="0.8" filter="url(#glow)" class="shimmer" style="animation-delay: 2.554277447726748s" />
<circle cx="344.0340047585023" cy="12.461894012662755" r="2.0399174438533163" fill="#c77dff" opacity="0.8" filter="url(#glow)" class="shimmer" style="animation-delay: 2.7761971148109637s" />
<circle cx="543.0449419967084" cy="152.73467326804834" r="1.6931350743351121" fill="#e0aaff" opacity="0.8" filter="url(#glow)" class="shimmer" style="animation-delay: 1.1756797260874596s" />
<line x1="301.14691894369986" y1="152.4368289379084" x2="520.4572093438267" y2="34.04541060128486" stroke="#e0aaff" stroke-width="0.5" opacity="0.3" />
<line x1="457.2883813299172" y1="138.8571031416198" x2="486.5179012746804" y2="151.69566790833528" stroke="#e0aaff" stroke-width="0.5" opacity="0.3" />
<line x1="486.5179012746804" y1="151.69566790833528" x2="628.8575054131423" y2="127.06077849635219" stroke="#e0aaff" stroke-width="0.5" opacity="0.3" />
<line x1="628.8575054131423" y1="127.06077849635219" x2="511.806530093666" y2="121.27471503307278" stroke="#e0aaff" stroke-width="0.5" opacity="0.3" />

  
    <text x="400" y="120" text-anchor="middle" class="name-text" fill="url(#textGrad)" filter="url(#textGlow)">
      JOEL HOOKS
    </text>
  
</svg>
