<svg xmlns="http://www.w3.org/2000/svg" viewBox="0 0 800 200" width="800" height="200">
  <rect width="800" height="200" fill="#05010d"/>
  
    <defs>
      <linearGradient id="grad1" x1="0%" y1="0%" x2="100%" y2="100%">
        <stop offset="0%" style="stop-color:#4a0080;stop-opacity:0.8" />
        <stop offset="100%" style="stop-color:#7b2cbf;stop-opacity:0.8" />
      </linearGradient>
      <linearGradient id="grad2" x1="100%" y1="0%" x2="0%" y2="100%">
        <stop offset="0%" style="stop-color:#9d4edd;stop-opacity:0.7" />
        <stop offset="100%" style="stop-color:#c77dff;stop-opacity:0.7" />
      </linearGradient>
      <linearGradient id="textGrad" x1="0%" y1="0%" x2="100%" y2="0%">
        <stop offset="0%" style="stop-color:#4a0080" />
        <stop offset="25%" style="stop-color:#7b2cbf" />
        <stop offset="50%" style="stop-color:#9d4edd" />
        <stop offset="75%" style="stop-color:#c77dff" />
        <stop offset="100%" style="stop-color:#e0aaff" />
      </linearGradient>
      <filter id="glow">
        <feGaussianBlur stdDeviation="5" result="coloredBlur"/>
        <feMerge>
          <feMergeNode in="coloredBlur"/>
          <feMergeNode in="SourceGraphic"/>
        </feMerge>
      </filter>
      <filter id="textGlow">
        <feGaussianBlur stdDeviation="2" result="coloredBlur"/>
        <feMerge>
          <feMergeNode in="coloredBlur"/>
          <feMergeNode in="SourceGraphic"/>
        </feMerge>
      </filter>
    </defs>
  
  
    <style>
      @keyframes float {
        0%, 100% { transform: translateY(0px); }
        50% { transform: translateY(-8px); }
      }
      @keyframes pulse {
        0%, 100% { opacity: 0.4; }
        50% { opacity: 0.9; }
      }
      @keyframes drift {
        0% { transform: translateX(0px); }
        50% { transform: translateX(10px); }
        100% { transform: translateX(0px); }
      }
      @keyframes shimmer {
        0% { opacity: 0.3; }
        50% { opacity: 1; }
        100% { opacity: 0.3; }
      }
      @keyframes glitch {
        0%, 100% { transform: translateX(0); }
        20% { transform: translateX(-2px); }
        40% { transform: translateX(2px); }
        60% { transform: translateX(-1px); }
        80% { transform: translateX(1px); }
      }
      @keyframes dataStream {
        0% { stroke-dashoffset: 0; }
        100% { stroke-dashoffset: -20; }
      }
      .float { animation: float 8s ease-in-out infinite; }
      .pulse { animation: pulse 8s ease-in-out infinite; }
      .drift { animation: drift 8s ease-in-out infinite; }
      .shimmer { animation: shimmer 3s ease-in-out infinite; }
      .glitch { animation: glitch 0.5s ease-in-out infinite; }
      .dataStream { animation: dataStream 2s linear infinite; }
      .name-text { 
        font-family: -apple-system, BlinkMacSystemFont, 'Segoe UI', Helvetica, Arial, sans-serif;
        font-weight: 700;
        font-size: 64px;
        letter-spacing: -2px;
      }
    </style>
  
  <path d="M 274.3413660854744 7.864733023854198 C 272.5115093362193 30.910246373916053, 294.3069684393325 54.26773140369997, 288.40738106230816 73.47334049437671 C 282.50779368528384 92.67894958505346, 257.74717367333017 121.59385878069607, 238.94384182332854 123.09838756791468 C 220.1405099733269 124.6029163551333, 191.80778314249494 93.10895786672258, 175.58738996229835 82.50051321768841 C 159.36699678210175 71.89206856865424, 159.77999180162672 66.03004580604278, 141.62148274214888 59.447719673709706 C 123.46297368267105 52.86539354137663, 79.05970367277381 57.43891713203112, 66.63633560543136 43.00655642368996 C 54.212967538088904 28.574195715348793, 57.87670754916682 -8.892033758667303, 67.08127433809419 -27.146444576337288 C 76.28584112702157 -45.40085539400727, 105.2985459374324 -49.34980284676774, 121.8637363389956 -66.51990848232995 C 138.4289267405588 -83.69001411789216, 150.59833385535808 -131.32779495096912, 166.4724167474734 -130.16707838971058 C 182.34649963958873 -129.00636182845204, 194.95588288995998 -70.45016557873144, 217.10823369168753 -59.55560911477875 C 239.26058449341508 -48.66105265082605, 289.8476661588743 -76.03646329576657, 299.38652155783876 -64.7997396059944 C 308.92537695680323 -53.56301591622225, 276.1712228347295 -15.180780326207655, 274.3413660854744 7.864733023854198 Z" fill="#4a0080" opacity="0.19844052816767394" filter="url(#glow)" class="float" />
<path d="M 418.0006606607102 95.59990504253237 C 416.78971349824695 108.73031164231318, 413.9609518437631 117.81249760957795, 406.0013344179831 131.35828335448508 C 398.04171699220313 144.90406909939222, 382.15027097748384 176.88676407783925, 370.2429561060304 176.87461951197514 C 358.335641234577 176.86247494611104, 353.2542131644843 144.83120170420753, 334.5574451892624 131.2854159593004 C 315.8606772140405 117.73963021439327, 264.21907613377374 113.65180322719647, 258.062348254699 95.59990504253238 C 251.90562037562424 77.5480068578683, 278.920309939592 33.10342838432366, 297.61707791481393 22.974026851315926 C 316.31384589003585 12.844625318308198, 350.967966193039 29.889859693738636, 370.2429561060304 34.82349584448602 C 389.51794601902185 39.7571319952334, 405.3073999669826 42.44644222279249, 413.26701739276257 52.575843755800214 C 421.22663481854255 62.70524528880794, 419.21160782317344 82.46949844275156, 418.0006606607102 95.59990504253237 Z" fill="#7b2cbf" opacity="0.24543400299379584" filter="url(#glow)" class="float" />
<path d="M 383.45801368457285 112.01908988907734 C 384.5046140415383 139.2032240672095, 389.0802989105822 173.5513527619475, 373.2663152347255 196.71129349437012 C 357.45233155886876 219.87123422679275, 320.58410576735736 247.19947468078607, 288.57411162943265 250.97873428361316 C 256.56411749150794 254.75799388644026, 200.64266799211413 242.54679184375533, 181.2063504071773 219.3868511113327 C 161.77003282224047 196.22691037891008, 169.3098994400079 145.16203695002542, 171.9562061198116 112.01908988907735 C 174.6025127996153 78.87614282812928, 177.64787290106267 35.65604127194759, 197.0841904859995 20.529168745644228 C 216.52050807093633 5.4022962193408635, 260.2570245282771 19.078301451268345, 288.57411162943265 21.25785473125717 C 316.8911987305882 23.437408011245992, 351.1727294170761 18.47961589927381, 366.9867130929328 33.60648842557717 C 382.8006967687895 48.73336095188053, 382.4114133276074 84.83495571094518, 383.45801368457285 112.01908988907734 Z" fill="#c77dff" opacity="0.17205662677175815" filter="url(#glow)" class="float" />
<path d="M 502.636166490268 10.77966617248034 C 505.29721066099336 31.183572998731645, 543.1846133605939 60.97189346213054, 539.405549945733 77.7914719280324 C 535.6264865308722 94.61105039393425, 498.312636287181 113.69875552110906, 479.96178600110323 111.69713696789145 C 461.61093571502545 109.69551841467384, 443.0018798843039 76.61723015352932, 429.30044822926624 65.78176060872676 C 415.5990165742286 54.94629106392419, 403.60074886768064 55.851335438450484, 397.75319607087715 46.684319699076084 C 391.90564327407367 37.517303959701685, 400.1091023171212 27.03010450959675, 394.21513144844516 10.779666172480347 C 388.3211605797691 -5.470772164636056, 358.4494477034576 -35.780214241760234, 362.38937085882105 -50.81831032362232 C 366.3292940141845 -65.8564064054844, 397.4190602455953 -70.30976813564861, 417.8546703806257 -79.44891031869219 C 438.2902805156561 -88.58805250173576, 467.405595912211 -111.45598697008658, 485.0030316690036 -105.65316342188379 C 502.6004674257961 -99.850339873681, 520.500429117837 -64.03744062853613, 523.439284921381 -44.63196902947545 C 526.3781407249251 -25.22649743041476, 499.97512231954266 -9.624240653770965, 502.636166490268 10.77966617248034 Z" fill="#7b2cbf" opacity="0.22124108835404638" filter="url(#glow)" class="float" />
<path d="M 317.2063482792172 94.62724777278268 L 317.2063482792172 94.62724777278268 L 317.57548968836375 94.659543461321 L 317.9361921990488 94.75593894755501 L 318.28012398188974 94.91496510516595 L 318.5991662047331 95.13419203942286 L 318.8855166901114 95.41025686211461 L 319.13179019446966 95.73890218086268 L 319.3311142347009 96.11502491174375 L 319.4772194311596 96.53273491882867 L 319.56452339008507 96.98542288365053 L 319.58820721177466 97.46583671271068 L 319.54428378329885 97.96616570282855 L 319.4296570953772 98.47813160328761 L 319.2421719114802 98.9930856411076 L 318.9806532124578 99.50211051208822 L 318.64493494113356 99.99612628614547 L 318.2358776773959 100.46599913143537 L 317.7553749843684 100.90265172827381 L 317.2063482792172 101.29717422126267 L 316.59273019698935 101.64093454656688 L 315.91943653149383 101.92568697109854 L 315.1923269525343 102.14367769149058 L 314.41815481269623 102.28774636311995 L 313.60450646829037 102.351422462896 L 312.7597306468972 102.32901543379253 L 311.8928584972134 102.21569761379601 L 311.01351505456773 102.00757901659547 L 310.1318229466136 101.70177310538624 L 309.2582992474188 101.29645278394365 L 308.4037464636417 100.7908959199071 L 307.5791387029549 100.18551981318267 L 306.79550413167317 99.48190412664061 L 306.0638048750902 98.6828019059041 L 305.39481554981904 97.79213842899868 L 304.7990016420802 96.81499774391237 L 304.2863989590884 95.75759687162342 L 303.8664953822572 94.62724777278268 L 303.54811614079534 93.43230729686533 L 303.33931380241705 92.18211545210832 L 303.24726414447395 90.88692245180013 L 303.2781690240585 89.55780510638091 L 303.4371673098848 88.2065732402609 L 303.72825487244995 86.8456669162227 L 304.15421455267426 85.48804534773613 L 304.716556943534 84.14706846952973 L 305.41547272487793 82.83637221844342 L 306.24979718945275 81.5697386491139 L 307.21698748905004 80.36096207167762 L 308.3131130145772 79.22371245076297 L 309.5328592037643 78.17139734601953 L 310.869544946215 77.21702370383434 L 312.3151536287016 76.3730608273492 L 313.8603777351365 75.65130585716145 L 315.4946767866869 75.06275308801621 L 317.2063482792172 74.61746842734271 L 318.98261114882405 74.32447026972314 L 320.80970117284255 74.19161801749827 L 322.6729775944994 74.2255094220041 L 324.55704014549974 74.43138785280259 L 326.4458555333339 74.81306052423113 L 328.3228923600172 75.37282862025805 L 330.1712633473065 76.11143016071016 L 331.97387366107364 77.0279963452291 L 333.71357405529216 78.1200219967077 L 335.37331749475635 79.38335060441474 L 336.93631786585183 80.81217433957278 L 338.3862093469943 82.3990492839027 L 339.7072049851995 84.13492597573487 L 340.88425301298696 86.00919523989968 L 341.903189440686 88.00974912796741 L 342.7508854733227 90.12305665575094 L 343.41538832862136 92.33425388656289 L 343.88605407313713 94.62724777278268 L 344.1536711469144 96.9848330360791 L 344.2105733129859 99.38882123935905 L 344.05074084603115 101.82018108236448 L 343.6698888640187 104.25918883894605 L 343.0655418069879 106.68558774849433 L 342.2370931774992 109.07875507782263 L 341.18584977681934 111.41787548391471 L 339.91505979864115 113.68211923324259 L 338.4299242770279 115.85082377059332 L 336.7375915261886 117.90367708019225 L 334.84713435546985 119.82090124494692 L 332.76950999233713 121.58343458631717 L 330.51750279785995 123.17311075798406 L 328.105650011981 124.57283317137383 L 325.5501509183321 125.76674315028684 L 322.8687599691999 126.74038024537246 L 320.08066455912655 127.4808331868245 L 317.2063482792172 127.97688001518262 L 314.2674406222313 128.21911600511757 L 311.28655423968985 128.20006808503564 L 308.28711097533574 127.91429455563195 L 305.29315801317307 127.35846902240559 L 302.32917558191065 126.53144757977249 L 299.41987774993726 125.4343184168221 L 296.59000792504247 124.07043315591442 L 293.8641307401538 122.44541938407708 L 291.2664220596708 120.56717399232905 L 288.82045887993723 118.4458370983576 L 286.5490109215234 116.09374649207811 L 284.4738357199253 113.52537271014263 L 282.6154790147967 110.75723501302033 L 280.99308221580463 107.80779870542727 L 279.6241986856777 104.69735440619723 L 278.52462052814315 101.44788003571642 L 277.7082175005377 98.08288644638152 L 277.18678958833726 94.6272477727827 L 276.9699346822446 91.10701772210726 L 277.06493268848 87.54923316030431 L 277.4766472803326 83.98170647460154 L 278.20744636477286 80.43280830685777 L 279.25714219300824 76.93124235388122 L 280.6229518894204 73.50581401926269 L 282.29947901055584 70.18519477556521 L 284.2787165760524 66.99768415511585 L 286.55007183793515 63.97097133150058 L 289.10041287503884 61.1318982816323 L 291.91413691687904 58.50622652955927 L 294.97326011761726 56.11840946773342 L 298.25752831738464 53.99137222914304 L 301.74454814669184 52.14630104454871 L 305.409937651503 50.60244396320784 L 309.22749544333243 49.37692474322436 L 313.16938721192884 48.48457162946552 L 317.2063482792172 47.937762633422764 L 321.3079007235821 47.74628881117245 L 325.4425834646466 47.917236903561175 L 329.5781935716979 48.45489255786271 L 333.6820369450229 49.36066519351696 L 337.7211864197136 50.633035407354626 L 341.66274525697713 52.267525637228474 L 345.4741139194775 54.256694618591794 L 349.1232579754875 56.59015597774748 L 352.578974942235 59.25462110976491 L 355.81115786223796 62.23396629000084 L 358.7910534079702 65.50932376740175 L 361.49151233002385 69.05919638694273 L 363.88723010207593 72.85959508935517 L 365.95497567227255 76.88419844037641 L 367.6738063048274 81.10453315076884 L 369.0252665872598 85.49017436394692 L 369.993569787172 90.00896431180487 L 370.56575986705707 94.62724777278265 L 370.73185260546506 99.31012261083714 L 370.48495442692297 104.02170353116315 L 369.8213577101725 108.72539705956302 L 368.7406115233043 113.38418563846916 L 367.2455669238643 117.96091863487408 L 365.3423961605288 122.41860797478257 L 363.04058531893776 126.72072605608562 L 360.3529001661227 130.83150354765652 L 357.29532516397074 134.71622465753612 L 353.88697584060253 138.34151744767385 L 350.1499849276408 141.67563678706534 L 346.10936288929724 144.68873756934667 L 341.79283368423967 147.35313587486056 L 337.2306468115042 149.64355583065947 L 332.4553668955308 151.53736001442817 L 327.50164226100395 153.01476135930955 L 322.4059541338846 154.05901464537516 L 317.2063482792173 154.65658580910258 L 311.9421510474732 154.79729746366826 L 306.6536719478858 154.47444919897274 L 301.3818949981371 153.6849114197733 L 296.1681612136499 152.42919168169124 L 291.053844695531 150.711472696649 L 286.0800248529772 148.53962139985163 L 281.28715735287153 145.92516869803282 L 276.71474642574 142.88325975155868 L 272.401021172728 139.43257487927187 L 268.3826185124557 135.59522141277156 L 264.694275379405 131.39659706424902 L 261.36853273689576 126.86522560710262 L 258.43545389792024 122.03256589940017 L 255.922359556519 116.93279550495046 L 253.85358182153632 111.60257038339581 L 252.25023941420608 106.0807623275206 L 251.13003604198704 100.40817602113964 L 250.50708379441733 94.62724777278272 L 250.39175322369394 88.78172814734931 L 250.79055157454286 82.91635086850029 L 251.7060304161912 77.07649049740309 L 253.13672370548724 71.30781150733463 L 255.0771170761318 65.65591146750143 L 257.51764890639083 60.16596112230281 L 260.44474346843754 54.882344203394176 L 263.84087620857076 49.84829984070197 L 267.68467095099214 45.10557044455794 L 271.9510285606248 40.6940579141508 L 276.6112863447081 36.651490987440845 L 281.63340722065715 33.01310648470394 L 286.98219743100486 29.811347112266574 L 292.6195513471685 27.075578385263142 L 298.50472167430445 24.831827099066473 L 304.5946131515283 23.102543629287283 L 310.8440976371707 21.906390170914847" fill="none" stroke="#c77dff" stroke-width="1" opacity="0.3" class="drift" />
<path d="M 254.79824504362512 91.70853989737006 L 254.79824504362512 91.70853989737006 L 255.15345889507643 91.73961708249944 L 255.5005522443293 91.83237560560003 L 255.83150761859065 91.98540176990137 L 256.1385125059962 92.19635735962864 L 256.4140591021133 92.4620063669976 L 256.6510408056717 92.77825202934106 L 256.84284442960296 93.14018380005068 L 256.98343713544733 93.54213377566961 L 257.06744715092776 93.9777420046727 L 257.09023739149956 94.44003001214786 L 257.04797117640896 94.92148178962093 L 256.93766930756715 95.41413142146325 L 256.7572578646567 95.90965644943927 L 256.5056061615301 96.39947601566885 L 256.1825544062817 96.87485277219771 L 255.78893070946495 97.32699750300345 L 255.32655719082442 97.74717537204232 L 254.79824504362512 98.12681268919607 L 254.20777852616706 98.45760307494496 L 253.5598879613253 98.73161190441179 L 252.8602119359059 98.94137792212878 L 252.11524900120298 99.08001094041101 L 251.33229928333844 99.14128456641559 L 250.5193965157411 99.11972294555646 L 249.68523110548006 99.01068056157658 L 248.83906493915157 98.81041419579235 L 247.99063872171718 98.51614621927799 L 247.15007272224727 98.1261184714185 L 246.32776187314556 97.63963606561833 L 245.53426623339212 97.05710055722507 L 244.78019788099851 96.3800320090608 L 244.07610534465644 95.61107959543864 L 243.43235671900428 94.75402049521455 L 242.85902263165417 93.81374693727973 L 242.36576024282928 92.79624137689805 L 241.9616994599731 91.70853989737006 L 241.65533253992663 90.55868404758333 L 241.4544082302458 89.35566144100042 L 241.3658315690732 88.10933555446294 L 241.3955704199143 86.83036527478434 L 241.5485697640222 85.53011484642425 L 241.82867470929892 84.22055497357304 L 242.2385631011899 82.91415592376056 L 242.77968853860278 81.62377356672252 L 243.45223450711188 80.36252936085684 L 244.2550802434027 79.14368536939216 L 245.1857788399124 77.9805154486618 L 246.2405479878571 76.88617380099727 L 247.41427364127523 75.8735621241861 L 248.70052676539296 74.95519661773153 L 250.09159321059275 74.14307612295603 L 251.5785166296456 73.44855267906154 L 253.15115423176843 72.88220577045064 L 254.79824504362512 72.45372152189202 L 256.5074902257405 72.17177806754802 L 258.26564487406455 72.04393827765318 L 260.05862062172014 72.07655097302498 L 261.8715982463744 72.27466169298935 L 263.68914938523005 72.64193400720978 L 265.49536636333517 73.18058227690406 L 267.2739990526991 73.89131667670615 L 269.00859760044665 74.77330118574767 L 270.68265979474364 75.82412514625155 L 272.2797817782031 77.03978887097364 L 273.78381077056207 78.41470365819289 L 275.1789984261377 79.94170644568902 L 276.45015342736644 81.61208920436104 L 277.5827919039335 83.41564303897434 L 278.56328426783233 85.34071682914978 L 279.3789970682712 87.3742901093207 L 280.0184284966681 89.5020597531847 L 280.47133621092917 91.70853989737006 L 280.7288561995707 93.97717441181418 L 280.78361146967956 96.29046110187934 L 280.6298094177634 98.63008671065296 L 280.2633268286757 100.97707168028293 L 279.68178154434275 103.31192352963414 L 278.8845899502309 105.61479761299307 L 277.8730095425177 107.86566394190845 L 276.65016596184756 110.04447868036559 L 275.22106400934894 112.13135886309382 L 273.59258229619553 114.10675883854805 L 271.7734513182667 115.95164690253569 L 269.7742148912191 117.64768056602246 L 267.6071750272933 119.17737889166877 L 265.2863204821844 120.52429033834834 L 262.8272393470333 121.67315457137046 L 260.2470162057443 122.61005672835371 L 257.5641145201392 123.32257267653664 L 254.79824504362512 123.79990385650012 L 251.97022119685235 124.03300037943927 L 249.101802465046 124.01467112976206 L 246.21552699515433 123.73967972130151 L 243.3345346805487 123.20482526309053 L 240.4823821207019 122.4090070086451 L 237.6828509320891 121.35327209011567 L 234.9597509636223 120.04084567449137 L 232.33672003445562 118.47714302219256 L 229.83702186329603 116.66976307769912 L 227.4833438958471 114.62846337611451 L 225.29759676023082 112.36511620747615 L 223.30071708883293 109.89364614087708 L 221.51247543876903 107.22994917169733 L 219.95129102197694 104.39179391609292 L 218.63405491983153 101.39870543596614 L 217.57596340630388 98.27183243355906 L 216.79036293833497 95.03379870621279 L 216.28860829266904 91.70853989737007 L 216.07993523543234 88.32112671826862 L 216.17134900489555 84.89757594472113 L 216.5675297699005 81.46465061371131 L 217.27075609723477 78.04965095413009 L 218.2808473217927 74.68019768378774 L 219.59512556473976 71.38400938992099 L 221.20839798827512 68.18867578190282 L 223.11295971220258 65.12142866202657 L 225.29861764869077 62.20891250243567 L 227.7527353387067 59.47695654299197 L 230.46029869805457 56.950350335747075 L 233.40400240420507 54.65262465643807 L 236.5643564786387 52.6058396819566 L 239.91981244473868 50.83038229505202 L 243.44690826984115 49.34477432378329 L 247.12043113336628 48.16549345371127 L 250.9135969024537 47.30680846595632 L 254.7982450436251 46.78063035458798 L 258.74504755505524 46.596380763053695 L 262.72373037034384 46.76087905230291 L 266.7033055624717 47.278249173852224 L 270.6523125670287 48.14984737030984 L 274.5390665478666 49.374211564980264 L 278.33191194698713 50.94703313234484 L 281.99947919455684 52.8611515637914 L 285.51094250514257 55.10657235934746 L 288.83627665316476 57.670508287830415 L 291.94651060460325 60.53744396627768 L 294.8139758834768 63.68922351633506 L 297.4125475706969 67.10516086203702 L 299.71787586959596 70.76217204172451 L 301.707606226613 74.63492871831997 L 303.3615860670051 78.69603188839818 L 304.66205629362145 82.9162046130414 L 305.59382580116244 87.26450242387004 L 306.1444273782332 91.70853989737003 L 306.30425350406506 96.21473174112886 L 306.0666706950298 100.74854659815873 L 305.42811121693614 105.27477165140452 L 304.3881411513552 109.75778600093716 L 302.94950398657227 114.16184069227072 L 301.11813909479014 118.45134319664506 L 298.9031746554325 122.59114408376617 L 296.31689478824774 126.54682358506159 L 293.3746808677701 130.28497572151494 L 290.0949272008915 133.77348766494825 L 286.4989314601245 136.9818120154505 L 282.61076047487126 139.8812297105816 L 278.4570921899298 142.44510133389826 L 274.0670348028387 144.64910466102785 L 269.471924287785 146.47145637054317 L 264.7051017020236 147.89311595370398 L 259.8016718494539 148.89796998103094 L 254.79824504362526 149.47299502380417 L 249.73266386753764 149.6083976839336 L 244.6437169687667 149.29773035511232 L 239.57084205440268 148.53798152047426 L 234.55382035989444 147.32963958577002 L 229.6324649580654 145.67672945087463 L 224.84630534843703 143.58682123467483 L 220.23427082176457 141.07101078740615 L 215.83437512975968 138.14387184859277 L 211.68340500487488 134.82337993612026 L 207.81661506944695 131.13080828081053 L 204.26743164731602 127.09059634933388 L 201.06716794427373 122.73019172452912 L 198.2447529965396 118.07986633433399 L 195.82647669929747 113.17250823674723 L 193.8357531206588 108.04339037671775 L 192.29290418095366 102.72991792983849 L 191.21496563384065 97.27135603552753 L 190.615517125365 91.7085398973701 L 190.504537930938 86.08356938895403 L 190.88828977954526 80.43949044844184 L 191.7692279707277 74.81996567295982 L 193.14594177455527 69.26893663347582 L 195.01312487956324 63.830280521151124 L 197.36157642018048 58.54746380626907 L 200.17823287536038 53.46319564004498 L 203.44623088580235 48.61908375733064 L 207.14500079026945 44.0552956440147 L 211.25039043401065 39.81022771659187 L 215.73481855619684 35.92018522283227 L 220.56745682055293 32.41907551187894 L 225.71443931600214 29.338117239727104 L 231.13909812408426 26.705567972372577 L 236.80222332908951 24.546472524610564 L 242.66234563708684 22.88243422836102 L 248.67603957313895 21.731411161462006 L 254.7982450436252 21.107539187283933 L 260.98260488436995 21.020983458559385 L 267.181815866623 21.477819826952626 L 273.34799050322323 22.479947374679455 L 279.4330268876828 24.025033047630288 L 285.38898371050306 26.106489122750745 L 291.1684575306392 28.7134839877857 L 296.72495933641454 31.83098645087656 L 302.0132874098386 35.43984353294732 L 306.9898935115858 39.51689142940916" fill="none" stroke="#9d4edd" stroke-width="1" opacity="0.3" class="drift" />
<circle cx="267.2455560832017" cy="94.31529857589621" r="1.1165011404374119" fill="white" opacity="0.5843446055781039"  style="animation-delay: 4.409521420492379s" />
<circle cx="282.10517544039993" cy="158.52180583543398" r="0.6085135057815358" fill="white" opacity="0.7854203580094781" class="shimmer" style="animation-delay: 4.592316029188968s" />
<circle cx="38.53093385276978" cy="56.294219147135436" r="0.9401669608917649" fill="white" opacity="0.6552515407646895"  style="animation-delay: 0.6965117104665663s" />
<circle cx="778.0284340297562" cy="196.44217790447334" r="0.5025615123317526" fill="white" opacity="0.359209346796219"  style="animation-delay: 2.4771758882004145s" />
<circle cx="552.2746861883263" cy="73.70673569052909" r="1.141721101991957" fill="white" opacity="0.48236665803432394" class="shimmer" style="animation-delay: 4.696529092762857s" />
<circle cx="349.06241990696606" cy="36.58816079262621" r="0.5423675074922529" fill="white" opacity="0.42771977710995307"  style="animation-delay: 2.2687233860684577s" />
<circle cx="463.4163502718996" cy="76.04838620916911" r="1.0224450837407155" fill="white" opacity="0.40371513672796105"  style="animation-delay: 1.6433526885774974s" />
<circle cx="553.6989987228661" cy="148.70198623761598" r="1.0100247881718423" fill="white" opacity="0.4853629178857943" class="shimmer" style="animation-delay: 4.064300770779964s" />
<circle cx="212.4764252660489" cy="93.38168841151999" r="1.2923277080410756" fill="white" opacity="0.4909573219274627" class="shimmer" style="animation-delay: 3.329312842842489s" />
<circle cx="489.0713062836596" cy="47.08738426589285" r="1.9882780233304933" fill="white" opacity="0.6766483853999412"  style="animation-delay: 4.4501562772038525s" />
<circle cx="727.1832271301722" cy="133.32511501365013" r="1.0503320917306573" fill="white" opacity="0.5655838473044652"  style="animation-delay: 3.8583946481635625s" />
<circle cx="414.92164384123777" cy="95.59825017027408" r="1.833542307641166" fill="white" opacity="0.5452935655249611" class="shimmer" style="animation-delay: 1.0932308196010199s" />
<circle cx="130.69366355834012" cy="192.3706747676418" r="1.3209763159621395" fill="white" opacity="0.5401423980596951"  style="animation-delay: 0.6780357953445759s" />
<circle cx="661.6958185956058" cy="45.75674045802409" r="1.5073027481146317" fill="white" opacity="0.6578130872879082"  style="animation-delay: 0.4810588078144462s" />
<circle cx="199.93463173869674" cy="18.994289547821765" r="1.1391602680667043" fill="white" opacity="0.5814756728080392" class="shimmer" style="animation-delay: 0.00048712892555591303s" />
<circle cx="325.7391900394573" cy="125.96110785387525" r="1.3545402312777006" fill="white" opacity="0.48509911130454125"  style="animation-delay: 4.454707913845889s" />
<circle cx="793.6967161164783" cy="135.25101439449298" r="0.7978520483207788" fill="white" opacity="0.5016676873346131"  style="animation-delay: 4.078375538288109s" />
<circle cx="205.75694675668393" cy="84.04352614476234" r="1.388714326946907" fill="white" opacity="0.35441005290286226" class="shimmer" style="animation-delay: 2.620006288076823s" />
<circle cx="765.6989488649751" cy="92.6244979425849" r="1.7949959700042837" fill="white" opacity="0.600348886084912"  style="animation-delay: 2.3202923145479515s" />
<circle cx="94.6700994870591" cy="50.38042450152442" r="1.1682859968114436" fill="white" opacity="0.37286313260902165" class="shimmer" style="animation-delay: 4.805433171932098s" />
<circle cx="318.94169960997283" cy="13.22384251205393" r="1.3907807349872616" fill="white" opacity="0.6757245257882543" class="shimmer" style="animation-delay: 2.175762322586089s" />
<circle cx="262.6754742913908" cy="170.72090822538178" r="1.5995210184547073" fill="white" opacity="0.5093582261026637" class="shimmer" style="animation-delay: 4.980300318211567s" />
<circle cx="54.2236822053459" cy="183.0245500324054" r="0.8044131609504226" fill="white" opacity="0.5992030798924943"  style="animation-delay: 2.7063024286000346s" />
<circle cx="746.0950841679474" cy="95.37287040290856" r="1.5526127494852484" fill="white" opacity="0.4274728470412191"  style="animation-delay: 2.9341354051294233s" />
<circle cx="98.32666219564459" cy="1.6431222984587102" r="1.721590066141129" fill="white" opacity="0.5789602274222854"  style="animation-delay: 0.618059156558235s" />
<circle cx="268.45424345422464" cy="156.27697727548173" r="1.16372172673758" fill="white" opacity="0.4774280833554521"  style="animation-delay: 0.08614432597981114s" />
<circle cx="777.0614289070577" cy="29.49106334639957" r="1.0655914677045182" fill="white" opacity="0.5268672119196185"  style="animation-delay: 2.871551970562388s" />
<circle cx="740.6591453171941" cy="46.23537707761067" r="1.239127336092375" fill="white" opacity="0.59611582107495" class="shimmer" style="animation-delay: 0.13538863410115787s" />
<circle cx="159.77732029616067" cy="174.4145134981787" r="1.865950886276301" fill="white" opacity="0.5623208472241399" class="shimmer" style="animation-delay: 0.32434193976488834s" />
<circle cx="543.4826117933818" cy="179.48466174310713" r="0.7234522279762462" fill="white" opacity="0.5218204786632596"  style="animation-delay: 0.5076397459040571s" />
<circle cx="710.3458922828698" cy="187.21773820645075" r="0.5906341697150108" fill="white" opacity="0.551967534766665"  style="animation-delay: 4.110664836504482s" />
<circle cx="321.2837419371921" cy="26.483430468424764" r="0.913797439341666" fill="white" opacity="0.7294467287312274"  style="animation-delay: 2.0079801396786356s" />
<circle cx="2.1802654901630802" cy="172.4707062121133" r="0.8561815997019169" fill="white" opacity="0.7686496555810545"  style="animation-delay: 4.25335192365967s" />
<circle cx="337.63640904275184" cy="34.6333169939892" r="0.8886506571755208" fill="white" opacity="0.6818788859744416"  style="animation-delay: 4.25948922997896s" />
<circle cx="700.0065779558907" cy="121.41193463364411" r="1.2063354280963714" fill="white" opacity="0.6726524305013395"  style="animation-delay: 2.4046619663335056s" />
<circle cx="236.98087261176343" cy="94.0806694937597" r="0.6683038205386402" fill="white" opacity="0.45924390515552244"  style="animation-delay: 2.039954700608333s" />
<circle cx="72.55698993931397" cy="28.33863152335625" r="0.9176028586497262" fill="white" opacity="0.34853129278436606"  style="animation-delay: 3.2789391930023815s" />
<circle cx="702.0273564833291" cy="129.94773099881743" r="1.4827956938794733" fill="white" opacity="0.515106134517999" class="shimmer" style="animation-delay: 4.0960880437237135s" />
<circle cx="424.1288394240165" cy="199.03480194154605" r="1.35466925658933" fill="white" opacity="0.7553780990817351" class="shimmer" style="animation-delay: 1.7868384357982392s" />
<circle cx="539.0197866246726" cy="50.904934681622784" r="1.1088813916379539" fill="white" opacity="0.572853910030972"  style="animation-delay: 1.649408824032853s" />
<circle cx="19.314179544699783" cy="32.680642189356405" r="1.579820966164227" fill="#9d4edd" opacity="0.8" filter="url(#glow)" class="shimmer" style="animation-delay: 2.304977459531265s" />
<circle cx="555.9272667873529" cy="33.29852519526608" r="1.63403839834307" fill="#9d4edd" opacity="0.8" filter="url(#glow)" class="shimmer" style="animation-delay: 1.8775730965278643s" />
<circle cx="724.9748396667592" cy="49.603735723850264" r="1.3197290752408861" fill="#e0aaff" opacity="0.8" filter="url(#glow)" class="shimmer" style="animation-delay: 2.6343731283394325s" />
<circle cx="544.6320221646481" cy="134.74943367694667" r="1.1868787015312918" fill="#9d4edd" opacity="0.8" filter="url(#glow)" class="shimmer" style="animation-delay: 2.138907989486593s" />
<circle cx="173.27557571183797" cy="134.14657509527342" r="2.799606199022191" fill="#7b2cbf" opacity="0.8" filter="url(#glow)" class="shimmer" style="animation-delay: 2.4797667834651267s" />
<circle cx="126.00533369451057" cy="108.49641423316223" r="2.519899934755873" fill="#e0aaff" opacity="0.8" filter="url(#glow)" class="shimmer" style="animation-delay: 1.343952792264372s" />
<circle cx="471.1130343334849" cy="196.95961703155908" r="1.3103326087689533" fill="#4a0080" opacity="0.8" filter="url(#glow)" class="shimmer" style="animation-delay: 2.3365555746233078s" />
<circle cx="412.6849465081127" cy="99.13461781461118" r="2.548873242610397" fill="#c77dff" opacity="0.8" filter="url(#glow)" class="shimmer" style="animation-delay: 2.0483206899943514s" />
<line x1="89.7548364394265" y1="95.42676187253714" x2="277.73812006793423" y2="158.08513797837747" stroke="#e0aaff" stroke-width="0.5" opacity="0.3" />
<line x1="277.73812006793423" y1="158.08513797837747" x2="469.53589769445415" y2="69.03092008250604" stroke="#e0aaff" stroke-width="0.5" opacity="0.3" />
<line x1="63.295686080280646" y1="152.07112857098593" x2="492.29545999254185" y2="138.8406207191021" stroke="#e0aaff" stroke-width="0.5" opacity="0.3" />
<line x1="492.29545999254185" y1="138.8406207191021" x2="181.05100393764798" y2="151.34176600025904" stroke="#e0aaff" stroke-width="0.5" opacity="0.3" />

  
    <text x="400" y="120" text-anchor="middle" class="name-text" fill="url(#textGrad)" filter="url(#textGlow)">
      JOEL HOOKS
    </text>
  
</svg>
