<svg xmlns="http://www.w3.org/2000/svg" viewBox="0 0 800 200" width="800" height="200">
  <rect width="800" height="200" fill="#05010d"/>
  
    <defs>
      <linearGradient id="grad1" x1="0%" y1="0%" x2="100%" y2="100%">
        <stop offset="0%" style="stop-color:#4a0080;stop-opacity:0.8" />
        <stop offset="100%" style="stop-color:#7b2cbf;stop-opacity:0.8" />
      </linearGradient>
      <linearGradient id="grad2" x1="100%" y1="0%" x2="0%" y2="100%">
        <stop offset="0%" style="stop-color:#9d4edd;stop-opacity:0.7" />
        <stop offset="100%" style="stop-color:#c77dff;stop-opacity:0.7" />
      </linearGradient>
      <linearGradient id="textGrad" x1="0%" y1="0%" x2="100%" y2="0%">
        <stop offset="0%" style="stop-color:#4a0080" />
        <stop offset="25%" style="stop-color:#7b2cbf" />
        <stop offset="50%" style="stop-color:#9d4edd" />
        <stop offset="75%" style="stop-color:#c77dff" />
        <stop offset="100%" style="stop-color:#e0aaff" />
      </linearGradient>
      <filter id="glow">
        <feGaussianBlur stdDeviation="5" result="coloredBlur"/>
        <feMerge>
          <feMergeNode in="coloredBlur"/>
          <feMergeNode in="SourceGraphic"/>
        </feMerge>
      </filter>
      <filter id="textGlow">
        <feGaussianBlur stdDeviation="2" result="coloredBlur"/>
        <feMerge>
          <feMergeNode in="coloredBlur"/>
          <feMergeNode in="SourceGraphic"/>
        </feMerge>
      </filter>
    </defs>
  
  
    <style>
      @keyframes float {
        0%, 100% { transform: translateY(0px); }
        50% { transform: translateY(-8px); }
      }
      @keyframes pulse {
        0%, 100% { opacity: 0.4; }
        50% { opacity: 0.9; }
      }
      @keyframes drift {
        0% { transform: translateX(0px); }
        50% { transform: translateX(10px); }
        100% { transform: translateX(0px); }
      }
      @keyframes shimmer {
        0% { opacity: 0.3; }
        50% { opacity: 1; }
        100% { opacity: 0.3; }
      }
      @keyframes glitch {
        0%, 100% { transform: translateX(0); }
        20% { transform: translateX(-2px); }
        40% { transform: translateX(2px); }
        60% { transform: translateX(-1px); }
        80% { transform: translateX(1px); }
      }
      @keyframes dataStream {
        0% { stroke-dashoffset: 0; }
        100% { stroke-dashoffset: -20; }
      }
      .float { animation: float 8s ease-in-out infinite; }
      .pulse { animation: pulse 8s ease-in-out infinite; }
      .drift { animation: drift 8s ease-in-out infinite; }
      .shimmer { animation: shimmer 3s ease-in-out infinite; }
      .glitch { animation: glitch 0.5s ease-in-out infinite; }
      .dataStream { animation: dataStream 2s linear infinite; }
      .name-text { 
        font-family: -apple-system, BlinkMacSystemFont, 'Segoe UI', Helvetica, Arial, sans-serif;
        font-weight: 700;
        font-size: 64px;
        letter-spacing: -2px;
      }
    </style>
  
  <path d="M 711.0253432710606 199.88745934928204 C 712.4879184098222 225.1288397471416, 696.4995689069601 261.870196168139, 678.4725864545873 278.7994696590018 C 660.4456040022144 295.72874314986456, 626.3602419789745 298.01218103983996, 602.8634485568236 301.46310029445874 C 579.3666551346728 304.9140195490775, 556.6430846716181 306.5165140844425, 537.4918259216819 299.5049851867144 C 518.3405671717456 292.4934562889863, 498.2122962528255 275.99684788099546, 487.95589605720636 259.39392690809007 C 477.6994958615872 242.79100593518467, 475.9580114470959 219.72628096753186, 475.9534247479668 199.88745934928204 C 475.9488380488377 180.04863773103222, 479.4489765227081 162.4329644512331, 487.9283758624316 140.36099719859118 C 496.4077752021551 118.28902994594928, 505.3045039736437 81.7563353067339, 526.8298207863077 67.45565583343063 C 548.3551375989716 53.15497636012735, 593.2690575991303 44.57433178570256, 617.0802767384153 54.55692035877152 C 640.8914958777002 64.53950893184047, 654.0396245332431 103.12943077342595, 669.6971356220173 127.35118727184437 C 685.3546467107915 151.57294377026278, 709.562768132299 174.64607895142248, 711.0253432710606 199.88745934928204 Z" fill="#4a0080" opacity="0.14142593046641336" filter="url(#glow)" class="float" />
<path d="M 470.2625026644912 176.70435524160055 C 473.6679388625254 192.67968257722572, 437.4850914826218 224.53736006514626, 419.3011511260523 234.84664584257848 C 401.11721076948277 245.1559316200107, 385.16321504959734 233.93647891533018, 361.1588605250743 238.5600699061939 C 337.1545060005513 243.1836608970576, 285.6544142070189 272.89747756519296, 275.27502397891413 262.5881917877607 C 264.8956337508094 252.27890601032848, 293.1897531947486 199.63953479529016, 298.88251915644577 176.70435524160055 C 304.5752851181429 153.76917568791094, 299.0522295209921 141.7423204996746, 309.43161974909685 124.97711446562309 C 319.8110099772016 108.21190843157157, 346.25270816028257 73.77685781009076, 361.1588605250743 76.1131190372915 C 376.06501288986607 78.44938026449223, 380.6845935812778 122.22947579477602, 398.8685339378473 138.99468182882754 C 417.0524742944168 155.75988786287905, 466.857066466457 160.72902790597539, 470.2625026644912 176.70435524160055 Z" fill="#4a0080" opacity="0.2470876541494611" filter="url(#glow)" class="float" />
<path d="M 851.8787132934572 43.23213599537148 C 856.7054989328545 54.76215809446898, 841.5081604276616 88.4260156456263, 829.6199652114054 92.30255921085613 C 817.7317699951493 96.17910277608597, 797.5259491130687 65.87179800809753, 780.5495419959208 66.4913973867505 C 763.5731348787729 67.11099676540348, 740.6139436536405 99.89669904800382, 727.7615225085183 96.02015548277399 C 714.9091013633961 92.14361191754415, 703.3678178457444 60.76094521172883, 703.4350151251879 43.232135995371486 C 703.5022124046313 25.70332677901414, 715.3122850400571 -4.061103990231061, 728.1647061851792 -9.152699815370084 C 741.0171273303013 -14.244295640509108, 768.4671177976138 7.3033733059304735, 780.5495419959208 12.682561044537344 C 792.6319661942277 18.061748783144214, 788.7710561587651 18.030830791132114, 800.6592513750211 23.122426616271138 C 812.5474465912771 28.21402244141016, 847.0519276540598 31.70211389627398, 851.8787132934572 43.23213599537148 Z" fill="#4a0080" opacity="0.24596398935196193" filter="url(#glow)" class="float" />
<path d="M 605.2831446817651 8.641300995729884 C 604.6188137843955 24.894528461283826, 573.152549571284 33.24099218469043, 564.4890013502102 56.12016476139179 C 555.8254531291363 78.99933733809316, 567.4929666571354 140.76757169147018, 553.3018553553221 145.91633645593805 C 539.1107440535088 151.06510122040592, 498.33833237084684 100.02766492184247, 479.34233353933075 87.01275334819908 C 460.34633470781466 73.9978417745557, 454.53364495664624 75.87193175329547, 439.32586236622564 67.82686701407769 C 424.11807977580503 59.781802274859906, 398.91585273781595 54.29347975704686, 388.0956379968071 38.742364912892384 C 377.2754232557983 23.191250068737908, 372.1564516500155 -3.339383361536168, 374.40457392017277 -25.479822050849172 C 376.65269619033 -47.62026074016218, 385.58372944768587 -76.36909813147, 401.58437161775043 -94.10026722298564 C 417.585013787815 -111.83143631450127, 448.8437732192116 -134.26041192840793, 470.4084269405602 -131.86683659994304 C 491.97308066190885 -129.47326127147815, 514.6278673135312 -94.8167546801982, 530.9722939458424 -79.73881525219633 C 547.3167205781535 -64.66087582419446, 556.0898449451072 -56.12921940658623, 568.4749867344276 -41.39920003193186 C 580.860128523748 -26.669180657277494, 605.9474755791347 -7.611926469824061, 605.2831446817651 8.641300995729884 Z" fill="#c77dff" opacity="0.20547835466391895" filter="url(#glow)" class="float" />
<path d="M 539.1567700862324 143.03159571477076 L 539.1567700862324 143.03159571477076 L 539.7972561865167 143.08763098769157 L 540.4231002091788 143.25488388193006 L 541.0198458489186 143.53080536082052 L 541.5734063654896 143.91117938746822 L 542.0702444366194 144.39017111619435 L 542.4975461494628 144.96039367417907 L 542.8433872663286 145.6129928547675 L 543.0968899761097 146.33774886116103 L 543.2483684361416 147.12319406467998 L 543.2894615192203 147.95674557711732 L 543.2132513062273 148.82485128349325 L 543.014366005049 149.71314784123155 L 542.6890661299337 150.6066290257768 L 542.2353129406736 151.48982269217106 L 541.6528183164812 152.34697452820154 L 540.9430754235068 153.16223669834113 L 540.109369725886 153.91985941960303 L 539.1567700862324 154.6043834712207 L 538.0920999007373 155.20083162017153 L 536.9238884146395 155.69489694423373 L 535.6623025638842 156.07312605357384 L 534.3190598863964 156.32309525068553 L 532.9073232396839 156.4335777265507 L 531.4415782485992 156.39469996769233 L 529.9374945862442 156.1980856436855 L 528.411772360464 155.83698535687185 L 526.8819750365049 155.3063907644984 L 525.366350471662 154.6031317271367 L 523.8836417686914 153.7259552947572 L 522.4528897700804 152.6755855118124 L 521.0932291138333 151.45476320359703 L 519.8236798521746 150.06826509635042 L 518.6629366966847 148.52290182131804 L 517.6291579961454 146.82749455647885 L 516.7397565762836 144.99283026699877 L 516.0111945733325 143.03159571477076 L 515.4587843757151 140.95829061670116 L 515.0964977502528 138.78912053874407 L 514.9367851713124 136.54187031612398 L 514.9904072936602 134.2357589877962 L 515.2662804130595 131.8912774230973 L 515.7713376436196 129.53000999891248 L 516.5104074084991 127.17444185479087 L 517.4861106919075 124.84775340962426 L 518.6987783366864 122.57360396522473 L 520.1463894944884 120.37590634797652 L 521.8245321462545 118.27859464841112 L 523.7263864109658 116.30538720892763 L 525.8427311522812 114.47954708097873 L 528.1619741775141 112.8236422240554 L 530.6702061033866 111.35930774910611 L 533.3512777400906 110.10701251816705 L 536.18690062143 109.08583239970548 L 539.1567700862324 108.31323244542091 L 542.2387100968764 107.80486019913698 L 545.4088387666928 107.57435227227445 L 548.6417533611777 107.6331562237338 L 551.9107333403456 107.99036966554094 L 555.1879598230308 108.65259838020484 L 558.4447496803157 109.62383508246684 L 561.6518023062039 110.90536028821886 L 564.779456970757 112.495666568222 L 567.7979585355969 114.39040726540631 L 570.6777292052504 116.58237054364857 L 573.3896439014106 119.06147941480114 L 575.9053067817667 121.81481816127916 L 578.1973263814175 124.82668533569462 L 580.2395868336054 128.07867327891398 L 582.007512628014 131.54977385562643 L 583.4783243893528 135.21650986419522 L 584.6312832064142 139.05309133739397 L 585.4479211120322 143.03159571477076 L 585.9122554069827 147.12217063798917 L 586.0109846352454 151.29325789966484 L 585.7336641533864 155.51183686601456 L 585.0728593921198 159.74368549602247 L 584.0242750821914 163.95365689669407 L 582.5868589082276 168.10596918707895 L 580.762878261603 172.16450629473383 L 578.557968985005 176.09312717867348 L 575.9811552354154 179.85598086395356 L 573.0448398367328 183.41782458601264 L 569.7647647461936 186.7443422787676 L 566.1599415179489 189.80246059999627 L 562.2525519104335 192.5606596713488 L 558.0678190492278 194.98927571880114 L 553.6338498216753 197.06079283266928 L 548.9814494412416 198.7501211244078 L 544.1439093761837 200.03485864006905 L 539.1567700862324 200.89553449702052 L 534.0575602504397 201.31583084063755 L 528.8855143969047 201.2827813703004 L 523.6812710586901 200.78694435804158 L 518.4865537778422 199.82254827731563 L 513.3438374591842 198.38760837212268 L 508.2960027356993 196.48401272645708 L 503.38598114627786 194.11757663895986 L 498.65639404295166 191.29806436576723 L 494.14918823723116 188.039177563772 L 489.90527146276673 184.35851004464922 L 485.96415077341703 180.2774687347236 L 482.3635770113157 175.82116102471227 L 479.1391984682614 171.01824898409672 L 476.3242268255445 165.90077120490463 L 473.949118392217 160.50393332651214 L 472.0412735700787 154.86586857421366 L 470.6247573558176 149.02736991729637 L 469.7200435475327 143.0315957147708 L 469.3437851552491 136.9237509664036 L 469.5086133241861 130.75074652100932 L 470.2229668668447 124.56083881092981" fill="none" stroke="#7b2cbf" stroke-width="1" opacity="0.3" class="drift" />
<path d="M 324.13590656260664 91.7554671109688 L 324.13590656260664 91.7554671109688 L 324.35718476393134 91.77482644507012 L 324.57340435024713 91.83260977493008 L 324.7795708880555 91.92793644716954 L 324.9708176229602 92.05934988519715 L 325.1424676161146 92.2248342386201 L 325.2900938556208 92.42183745528575 L 325.4095766988085 92.64730054152993 L 325.49715802746874 92.89769271307411 L 325.549491530351 93.16905207871321 L 325.5636885652383 93.45703144204641 L 325.53735909634554 93.75694875357172 L 325.46864725124055 94.06384169699707 L 325.35626109450004 94.37252585008939 L 325.19949627240584 94.67765582220645 L 324.9982532436104 94.97378873821324 L 324.7530478742969 95.25544941209283 L 324.46501524232906 95.51719653348884 L 324.13590656260664 95.75368917687055 L 323.76807921468156 95.95975293613826 L 323.3644799229938 96.13044498737383 L 322.92862120920137 96.26111738911102 L 322.4645513043507 96.34747794291368 L 321.9768177754106 96.38564795710523 L 321.4704251853388 96.37221628302535 L 320.9507871677455 96.30428902597544 L 320.4236733557644 96.17953437177061 L 319.8951516593734 95.99622201420202 L 319.3715264355893 95.75325671833741 L 318.8592731411989 95.45020560900775 L 318.36497009753595 95.08731883255359 L 317.89522803085754 94.6655433024069 L 317.45661807977774 94.18652930479558 L 317.05559898266887 93.65262980917709 L 316.69844417271804 93.06689239831061 L 316.39116951624186 92.43304380451497 L 316.1394624308031 91.7554671109688 L 315.94861311359244 91.03917174921999 L 315.82344859743705 90.28975649570441 L 315.7682703317711 89.513365740359 L 315.7867959590705 88.7166393686853 L 315.88210592384166 87.90665666422807 L 316.0565955115077 87.09087470075008 L 316.3119328687952 86.27706175180758 L 316.6490235058651 85.47322629938954 L 317.0679817238846 84.68754227224674 L 317.56810935050106 83.92827118801173 L 318.1478821002676 83.20368191075632 L 318.80494380807096 82.52196876685568 L 319.5361087116238 81.89116878659115 L 320.33737188475226 81.3190788565486 L 321.2039278471938 80.81317357833767 L 322.13019729961326 80.3805246323157 L 323.1098618552367 80.02772244075925 L 324.13590656260664 79.76080091326352 L 325.2006699381792 79.58516603810982 L 326.29590115352255 79.50552905703468 L 327.41282395042094 79.52584492743989 L 328.54220678891767 79.64925673584136 L 329.6744386688921 79.8780466795753 L 330.79961000577623 80.2135941808274 L 331.9075978860679 80.6563416383526 L 332.98815497892286 81.20576825828753 L 334.0310013368175 81.86037233675793 L 335.02591828150344 82.61766229412625 L 335.9628435416239 83.47415668432973 L 336.8319667857622 84.42539332348224 L 337.6238246796128 85.46594760044127 L 338.3293945886181 86.58945994908687 L 338.9401860479311 87.78867237835146 L 339.44832913002426 89.05547387232387 L 339.84665885666095 90.38095438977514 L 340.12879482621366 91.7554671109688 L 340.28921525931037 93.1686985003651 L 340.3233247053053 94.60974567753627 L 340.2275146988289 96.06720051598762 L 339.9992167093253 97.52923982130743 L 339.63694678662864 98.98372087679894 L 339.14034137179044 100.41828158708925 L 338.5101838140276 101.8204443987301 L 337.7484212112276 103.17772313202198 L 336.8581712723063 104.47773182066847 L 335.8437189841861 105.7082946258053 L 334.71050295354576 106.85755586879083 L 333.46509138304407 107.91408921316676 L 332.1151477326789 108.86700502060349 L 330.66938620851613 109.70605490857153 L 329.1375173124285 110.4217325489866 L 327.5301837769031 111.00536976715097 L 325.85888729762405 111.44922702886785 L 324.13590656260664 111.74657744047758 L 322.37420715938663 111.89178343151727 L 320.5873440203876 111.88036534243199 L 318.7893571403833 111.70906119988439 L 316.99466136824043 111.37587702927877 L 315.2179311372318 110.88012712761935 L 313.4739810535353 110.22246379919504 L 311.7776433105453 109.40489614119456 L 310.1436429368165 108.43079755552951 L 308.5864719174181 107.30490175615729 L 307.1202632518304 106.0332871372853 L 305.75866602597984 104.62334946620797 L 304.51472258136624 103.08376296435709 L 303.4007488603434 101.42442994058572 L 302.42821899341266 99.65641924090586 L 301.6076551718955 97.79189387799516 L 300.9485238176599 95.8440283009168 L 300.45913902086284 93.82691585980994 L 300.1465741671961 91.75546711096881 L 300.0165826182134 89.64529969392503 L 300.0735282423789 87.51262059309823 L 300.3203265209977 85.3741016715409 L 300.7583968727054 83.24674943257504 L 301.38762675332754 81.14777002604926 L 302.206347995338 79.09443056894655 L 303.2113257535761 77.1039178946074 L 304.3977603221062 75.19319588044169 L 305.7593019819293 73.37886253029147 L 307.2880789315532 71.67700800425285 L 308.9747382430674 70.10307479553722 L 310.80849967626745 68.67172125068599 L 312.777222073445 67.39668961607705 L 314.86748194864197 66.29067977018352 L 317.06466377837575 65.36522976756432 L 319.3530613970071 64.63060427725755 L 321.7159897999417 64.09569194538022 L 324.13590656260664 63.76791264965651 L 326.59454199347414 63.65313554273081 L 329.0730370561287 63.755608701976534 L 331.552088019239 64.07790111666654 L 334.01209672502796 64.62085764947628 L 336.4333253070709 65.38356750906121 L 338.7960541375797 66.3633466646577 L 341.0807417432681 67.5557345231335 L 343.2681853978707 68.95450507452864 L 345.3396810787728 70.55169259480266 L 347.2771814652623 72.33763187517839 L 349.063450656843 74.30101282712951 L 350.6822143019319 76.42894919167874 L 352.1183038501269 78.70706096226243 L 353.35779367498316 81.11957001297654 L 354.3881298587045 83.64940830953338 L 355.19824948508244 86.27833796971767 L 355.77868935204 88.9870823344802 L 356.1216830898207 91.75546711096878 L 356.2212457546894 94.56257055566005 L 356.07324506036343 97.3868815801425 L 355.67545850960227 100.20646458480569 L 355.0276157956904 102.99912975741768 L 354.1314259571427 105.74260751497779 L 352.99058888796014 108.41472571889274 L 351.6107909292467 110.99358825593026 L 349.9996843949865 113.45775355096985 L 348.1668510142616 115.78641156262373 L 346.123749403134 117.95955780956419 L 343.8836468107459 119.95816298400995 L 341.46153551484764 121.7643367293364 L 338.8740343708577 123.36148419111758 L 336.1392761446264 124.7344539949366 L 333.2767813812466 125.86967635975994 L 330.3073196795093 126.75529012220912 L 327.25275935291904 127.38125752424688 L 324.1359065626067 127.7394657040846 L 320.98033510409164 127.82381392689629 L 317.81020811778143 127.63028569749014 L 314.65009307156515 127.15700501065773 L 311.5247714321302 126.40427611564385 L 308.459044499053 125.37460629813344 L 305.47753692173177 124.0727113153647 L 302.6044994533451 122.50550325641369 L 299.86361251786866 120.6820607392884 L 297.2777921754629 118.61358149811257 L 294.86900006807156 116.31331755623319 L 292.6580589107607 113.79649332340813 L 290.6644750651966 111.08020709616062 L 288.90626968982934 108.18331657876463 L 287.3998199070476 105.12630917701615 L 286.15971136112216 101.93115794681326 L 285.1986034626018 98.6211642035231 L 284.5271085254838 95.22078791510494 L 284.15368590358906 91.75546711096882 L 284.0845521228344 88.25142763863013 L 284.32360788732075 84.73548469049204 L 284.8723827102243 81.23483760272288 L 285.72999778634033 77.7768594964648 L 286.89314758281347 74.38888338787038 L 288.3561004791683 71.0979864371431 L 290.110718638357 67.93077403740719 L 292.1464971383473 64.91316546149386 L 294.45062223997394 62.0701827883363 L 297.0080485126053 59.42574482049402 L 299.80159438586725 57.002467680318084 L 302.8120555444639 54.82147373451635 L 306.0183354352661 52.90221044556297 L 309.3975920125316 51.262280683818474" fill="none" stroke="#4a0080" stroke-width="1" opacity="0.3" class="drift" />
<circle cx="69.40832018989376" cy="7.185202171647376" r="0.8752457567384442" fill="white" opacity="0.4621234907001767" class="shimmer" style="animation-delay: 0.43024928415954955s" />
<circle cx="656.6794958511821" cy="193.83524025324513" r="1.6424010829666957" fill="white" opacity="0.43387257048519795"  style="animation-delay: 4.02051986938652s" />
<circle cx="50.24639117670908" cy="167.95144185592758" r="0.8864847769324279" fill="white" opacity="0.40536268288950855"  style="animation-delay: 2.236902299999144s" />
<circle cx="58.545239935821236" cy="198.97169159548164" r="1.4741141718171618" fill="white" opacity="0.3520723565572896"  style="animation-delay: 1.5670227130327186s" />
<circle cx="726.8397934806668" cy="66.22440632555318" r="0.8521303238512092" fill="white" opacity="0.4547640496908632"  style="animation-delay: 4.100982569838089s" />
<circle cx="213.91209167013142" cy="43.78291792282902" r="1.3862079237178873" fill="white" opacity="0.36647792419986575" class="shimmer" style="animation-delay: 0.1540505479020493s" />
<circle cx="431.8938910479263" cy="159.05969797731353" r="1.9059974576906145" fill="white" opacity="0.47023062319391723"  style="animation-delay: 4.741110769530241s" />
<circle cx="780.9345589727084" cy="60.73864166622265" r="1.2554425965356981" fill="white" opacity="0.3058132660045945" class="shimmer" style="animation-delay: 4.700487915187049s" />
<circle cx="662.2251636273045" cy="92.24267800501207" r="1.5091444918099066" fill="white" opacity="0.7044037578052549"  style="animation-delay: 3.961218196903604s" />
<circle cx="147.1927802143128" cy="77.29989357599307" r="0.8396231212001061" fill="white" opacity="0.7516910971305768" class="shimmer" style="animation-delay: 0.5678577696813625s" />
<circle cx="175.27129734124216" cy="124.07142480754487" r="1.3780781982987005" fill="white" opacity="0.6344503326739241"  style="animation-delay: 1.6940008001330975s" />
<circle cx="639.9661247806829" cy="93.46303770440691" r="1.3731842365314324" fill="white" opacity="0.5176319134370979"  style="animation-delay: 0.9189290665182703s" />
<circle cx="765.4685693136919" cy="153.09355482837478" r="0.9370390457770561" fill="white" opacity="0.4874397777517047" class="shimmer" style="animation-delay: 1.9227287442358243s" />
<circle cx="30.71100277926959" cy="42.53393093385691" r="1.2451137755072872" fill="white" opacity="0.45333221240923144"  style="animation-delay: 4.663432958391303s" />
<circle cx="520.2009224151833" cy="91.65845493582823" r="1.784665471019145" fill="white" opacity="0.5788685398983897" class="shimmer" style="animation-delay: 3.8386307028967916s" />
<circle cx="76.52342997390366" cy="82.96701226197594" r="0.7700759817496733" fill="white" opacity="0.6363783474923415" class="shimmer" style="animation-delay: 1.1267126494967572s" />
<circle cx="341.0579654082145" cy="144.67806645090232" r="0.9031228839004138" fill="white" opacity="0.7999514907192669"  style="animation-delay: 0.05094669860152945s" />
<circle cx="195.7766308508992" cy="65.92324751996657" r="1.9331846747352417" fill="white" opacity="0.67222459634325"  style="animation-delay: 2.314134815065797s" />
<circle cx="229.85930494267225" cy="79.99378084842262" r="1.3211961340623803" fill="white" opacity="0.4349681257319042"  style="animation-delay: 1.3321356058367717s" />
<circle cx="15.458776750126013" cy="150.788414642935" r="0.7563263650352791" fill="white" opacity="0.7922148354665259"  style="animation-delay: 1.0240891651369888s" />
<circle cx="309.5456207833086" cy="189.58628276930526" r="1.5304114062963876" fill="white" opacity="0.7713199827734485"  style="animation-delay: 1.6086035092455686s" />
<circle cx="313.5701922167407" cy="191.69313342644134" r="0.9067945175765689" fill="white" opacity="0.4796429326319331"  style="animation-delay: 2.172190776971712s" />
<circle cx="324.3592571567577" cy="74.51046329343663" r="1.9615606827843217" fill="white" opacity="0.4421121353706852"  style="animation-delay: 4.072190422520584s" />
<circle cx="691.3283607052715" cy="65.33831049622027" r="1.945082927284946" fill="white" opacity="0.5078074238034769"  style="animation-delay: 3.3968349227511063s" />
<circle cx="637.3654412045382" cy="18.947899189856045" r="1.721557560242799" fill="white" opacity="0.7870776123256797"  style="animation-delay: 1.1063263735842555s" />
<circle cx="200.1033312859148" cy="169.42197386549265" r="1.723255625040514" fill="white" opacity="0.6999082287537839"  style="animation-delay: 2.160297049501363s" />
<circle cx="584.4541644176983" cy="138.85181882926938" r="1.3271212928828984" fill="white" opacity="0.7705000409660283"  style="animation-delay: 3.91775821576322s" />
<circle cx="354.01318417193613" cy="190.61206077660108" r="1.349043084072071" fill="white" opacity="0.7540107642580307" class="shimmer" style="animation-delay: 0.7770598672075124s" />
<circle cx="692.4627371771214" cy="103.14127191475389" r="1.6037488396735493" fill="white" opacity="0.5035148450955613"  style="animation-delay: 4.546964074229496s" />
<circle cx="132.18018215064671" cy="14.08485924146996" r="0.6341827241793595" fill="white" opacity="0.5207474294897949"  style="animation-delay: 4.959684399333134s" />
<circle cx="408.6749129648382" cy="13.837467005680848" r="1.1825728242219216" fill="white" opacity="0.5950976481357209"  style="animation-delay: 4.97999588548123s" />
<circle cx="605.0515802389965" cy="13.576249593705603" r="1.2110115282562233" fill="white" opacity="0.6668580885765549"  style="animation-delay: 4.176460374663765s" />
<circle cx="177.63636963017433" cy="111.13923520321043" r="0.578385186351736" fill="white" opacity="0.6581762890823131"  style="animation-delay: 0.47794454461626334s" />
<circle cx="511.46698470887327" cy="138.49721053465208" r="1.961600766254973" fill="white" opacity="0.6176007035634568" class="shimmer" style="animation-delay: 4.673607677162323s" />
<circle cx="459.35410230163853" cy="17.42583326759832" r="1.9192006819805751" fill="white" opacity="0.6732207576601286"  style="animation-delay: 1.8274539242301413s" />
<circle cx="486.51833279565705" cy="135.96032636423953" r="1.0135892718534985" fill="white" opacity="0.48035603598508875"  style="animation-delay: 1.5013213252690716s" />
<circle cx="209.81105106483682" cy="129.57293187785757" r="1.1344492808518434" fill="white" opacity="0.5393152027493431" class="shimmer" style="animation-delay: 0.35207847016132776s" />
<circle cx="487.71438172696725" cy="74.36093848431847" r="1.2522253864688428" fill="white" opacity="0.46631013980694397" class="shimmer" style="animation-delay: 0.8575967163702314s" />
<circle cx="502.9227130602152" cy="116.00461299385248" r="0.6589327190657566" fill="white" opacity="0.3123250413201987" class="shimmer" style="animation-delay: 2.437916115539418s" />
<circle cx="407.239339052469" cy="108.3617795436246" r="1.5070993250759988" fill="white" opacity="0.35886873107976974" class="shimmer" style="animation-delay: 4.856553212684885s" />
<circle cx="651.5743456829209" cy="118.91710013805627" r="2.409300562772508" fill="#4a0080" opacity="0.8" filter="url(#glow)" class="shimmer" style="animation-delay: 2.9402641123721613s" />
<circle cx="727.670862786691" cy="186.4735838558323" r="2.2113980329393397" fill="#e0aaff" opacity="0.8" filter="url(#glow)" class="shimmer" style="animation-delay: 1.100227417945648s" />
<circle cx="365.28299852268054" cy="6.485894443344975" r="2.8249403435954226" fill="#c77dff" opacity="0.8" filter="url(#glow)" class="shimmer" style="animation-delay: 0.2925539963582804s" />
<circle cx="62.72284919830575" cy="39.018255200505706" r="1.9563778336497144" fill="#7b2cbf" opacity="0.8" filter="url(#glow)" class="shimmer" style="animation-delay: 1.7093367109612312s" />
<circle cx="405.0583025075145" cy="133.85655238142036" r="1.8526275827700682" fill="#e0aaff" opacity="0.8" filter="url(#glow)" class="shimmer" style="animation-delay: 0.39541543265611945s" />
<circle cx="163.82407792864092" cy="30.328111630086863" r="2.115968849879293" fill="#e0aaff" opacity="0.8" filter="url(#glow)" class="shimmer" style="animation-delay: 1.651920982059735s" />
<circle cx="335.80810996766706" cy="131.1371863211641" r="2.729912059162567" fill="#7b2cbf" opacity="0.8" filter="url(#glow)" class="shimmer" style="animation-delay: 0.90589350306351s" />
<circle cx="724.1241391480382" cy="184.99105630771697" r="1.524903841556469" fill="#9d4edd" opacity="0.8" filter="url(#glow)" class="shimmer" style="animation-delay: 2.7641347043843822s" />
<line x1="224.48653210917968" y1="30.771595168459097" x2="680.2487245760785" y2="114.9031028739776" stroke="#e0aaff" stroke-width="0.5" opacity="0.3" />
<line x1="680.2487245760785" y1="114.9031028739776" x2="571.0629743470627" y2="145.66451247933293" stroke="#e0aaff" stroke-width="0.5" opacity="0.3" />
<line x1="571.0629743470627" y1="145.66451247933293" x2="301.9804995554175" y2="127.1060483486291" stroke="#e0aaff" stroke-width="0.5" opacity="0.3" />

  
    <text x="400" y="120" text-anchor="middle" class="name-text" fill="url(#textGrad)" filter="url(#textGlow)">
      JOEL HOOKS
    </text>
  
</svg>
