<svg xmlns="http://www.w3.org/2000/svg" viewBox="0 0 800 200" width="800" height="200">
  <rect width="800" height="200" fill="#05010d"/>
  
    <defs>
      <linearGradient id="grad1" x1="0%" y1="0%" x2="100%" y2="100%">
        <stop offset="0%" style="stop-color:#4a0080;stop-opacity:0.8" />
        <stop offset="100%" style="stop-color:#7b2cbf;stop-opacity:0.8" />
      </linearGradient>
      <linearGradient id="grad2" x1="100%" y1="0%" x2="0%" y2="100%">
        <stop offset="0%" style="stop-color:#9d4edd;stop-opacity:0.7" />
        <stop offset="100%" style="stop-color:#c77dff;stop-opacity:0.7" />
      </linearGradient>
      <linearGradient id="textGrad" x1="0%" y1="0%" x2="100%" y2="0%">
        <stop offset="0%" style="stop-color:#4a0080" />
        <stop offset="25%" style="stop-color:#7b2cbf" />
        <stop offset="50%" style="stop-color:#9d4edd" />
        <stop offset="75%" style="stop-color:#c77dff" />
        <stop offset="100%" style="stop-color:#e0aaff" />
      </linearGradient>
      <filter id="glow">
        <feGaussianBlur stdDeviation="5" result="coloredBlur"/>
        <feMerge>
          <feMergeNode in="coloredBlur"/>
          <feMergeNode in="SourceGraphic"/>
        </feMerge>
      </filter>
      <filter id="textGlow">
        <feGaussianBlur stdDeviation="2" result="coloredBlur"/>
        <feMerge>
          <feMergeNode in="coloredBlur"/>
          <feMergeNode in="SourceGraphic"/>
        </feMerge>
      </filter>
    </defs>
  
  
    <style>
      @keyframes float {
        0%, 100% { transform: translateY(0px); }
        50% { transform: translateY(-8px); }
      }
      @keyframes pulse {
        0%, 100% { opacity: 0.4; }
        50% { opacity: 0.9; }
      }
      @keyframes drift {
        0% { transform: translateX(0px); }
        50% { transform: translateX(10px); }
        100% { transform: translateX(0px); }
      }
      @keyframes shimmer {
        0% { opacity: 0.3; }
        50% { opacity: 1; }
        100% { opacity: 0.3; }
      }
      @keyframes glitch {
        0%, 100% { transform: translateX(0); }
        20% { transform: translateX(-2px); }
        40% { transform: translateX(2px); }
        60% { transform: translateX(-1px); }
        80% { transform: translateX(1px); }
      }
      @keyframes dataStream {
        0% { stroke-dashoffset: 0; }
        100% { stroke-dashoffset: -20; }
      }
      .float { animation: float 8s ease-in-out infinite; }
      .pulse { animation: pulse 8s ease-in-out infinite; }
      .drift { animation: drift 8s ease-in-out infinite; }
      .shimmer { animation: shimmer 3s ease-in-out infinite; }
      .glitch { animation: glitch 0.5s ease-in-out infinite; }
      .dataStream { animation: dataStream 2s linear infinite; }
      .name-text { 
        font-family: -apple-system, BlinkMacSystemFont, 'Segoe UI', Helvetica, Arial, sans-serif;
        font-weight: 700;
        font-size: 64px;
        letter-spacing: -2px;
      }
    </style>
  
  <path d="M 140.4656540060489 85.47631531494994 C 145.79197834927197 103.01822014895771, 158.8431591345541 136.9705699583009, 149.1931564094824 148.37109223836686 C 139.54315368441073 159.7716145184328, 100.82723973354916 150.79538872442149, 82.56563765561884 153.87944899534574 C 64.30403557768852 156.96350926627, 53.603010246856 168.1513687677765, 39.6235439419005 166.8754538639124 C 25.644077636945 165.59953896004833, 5.085110396888068 157.33962868586502, -1.3111601741141428 146.22395957216133 C -7.707430745116354 135.10829045845765, 0.11657249793603808 112.550431810392, 1.245920515887235 100.18143918169035 C 2.3752685338384323 87.8124465529887, 3.6607343619205865 82.01147670574514, 5.464927933593039 72.01000379995146 C 7.269121505265491 62.00853089415779, 6.667112350010535 53.50570427402704, 12.071081945921946 40.17260174692833 C 17.47505154183336 26.83949921982962, 26.530330330367065 -4.99417227592779, 37.88874550906151 -7.988611362640782 C 49.24716068775595 -10.983050449353774, 66.99716221124153 13.6879214604902, 80.22157301808862 22.205967226650372 C 93.44598382493571 30.724012992810543, 107.194530185484 32.574605219603654, 117.23521035014404 43.11966323432025 C 127.27589051480409 53.664721249036845, 135.13932966282584 67.93441048094218, 140.4656540060489 85.47631531494994 Z" fill="#e0aaff" opacity="0.1326159164684153" filter="url(#glow)" class="float" />
<path d="M 851.8900043555392 59.434212441936474 C 843.2460445419313 75.17817097360017, 815.660859257623 78.50826908314687, 803.6975048674814 84.90665756239875 C 791.7341504773398 91.30504604165063, 789.4608259078789 94.63690982563669, 780.1098780146895 97.82454331744778 C 770.7589301215 101.01217680925886, 761.2744000970093 105.86142852238814, 747.5918175083448 104.03245851326523 C 733.9092349196802 102.20348850414231, 698.9248438824076 96.1771118202351, 698.0143824827022 86.85072326271033 C 697.1039210829969 77.52433470518557, 738.6738850104317 68.4038396098913, 742.1290491101126 48.07412716811663 C 745.5842132097936 27.744414726341958, 711.4125304928733 -24.935925037144294, 718.7453670807879 -35.12755138793771 C 726.0782036687025 -45.31917773873112, 763.3234191928769 -17.337373896702903, 786.1260686376004 -13.075630936643854 C 808.9287180823238 -8.813887976584805, 844.6006077961388 -21.642067524013463, 855.5612637491286 -9.557093627583406 C 866.5219197021183 2.5278802688466495, 860.5339641691471 43.69025391027278, 851.8900043555392 59.434212441936474 Z" fill="#9d4edd" opacity="0.17421849175289128" filter="url(#glow)" class="float" />
<path d="M 59.96419423183934 89.95807290235409 C 52.49901227920842 106.16168087453511, 39.77868048241422 108.07916436698108, 30.498522120799134 116.17335096100439 C 21.21836375918405 124.2675375550277, 19.50987122877109 132.03499131942178, 4.2832440621488415 138.52319246649392 C -10.943383104473408 145.01139361356607, -53.302934322358645 163.1967444374606, -60.86124087893435 155.1025578434373 C -68.41954743551005 147.00837124941398, -39.29983409224942 113.43966240110447, -41.066595277305396 89.95807290235409 C -42.83335646236137 66.47648340360371, -79.02011454584593 30.416835170103052, -71.46180798927023 14.213020850935052 C -63.903501432694526 -1.9907934682329476, -20.175326242160327 -8.0545933921511, 4.283244062148821 -7.264813012653903 C 28.74181436645797 -6.475032633156705, 66.00945547496957 2.7478888087502362, 75.28961383658466 18.951703127918236 C 84.56977219819976 35.15551744708624, 67.42937618447027 73.75446493017307, 59.96419423183934 89.95807290235409 Z" fill="#9d4edd" opacity="0.22525958337342855" filter="url(#glow)" class="float" />
<path d="M 619.2882415997348 101.88114587340209 C 615.1028194643908 125.24235424308323, 613.0299711158035 141.64525466672083, 600.2728452784149 159.40850457641355 C 587.5157194410264 177.17175448610627, 564.5986399909688 205.78327815033026, 542.7454865754034 208.46064533155845 C 520.8923331598381 211.13801251278664, 489.20711394022703 193.2359575734755, 469.15392478502275 175.47270766378278 C 449.1007356298185 157.70945775409007, 421.9433436304136 125.92865845643165, 422.4263516441776 101.8811458734021 C 422.9093596579416 77.83363329037256, 451.99878371240254 53.48491842667447, 472.0519728676068 31.187632165605493 C 492.1051620228111 8.89034590453652, 517.1899190382582 -29.91150872513195, 542.7454865754034 -31.902571693011737 C 568.3010541125487 -33.89363466089152, 612.6282522530902 -3.056031902742202, 625.3853780904788 19.24125435832677 C 638.1425039278673 41.53854061939575, 623.4736637350787 78.51993750372095, 619.2882415997348 101.88114587340209 Z" fill="#7b2cbf" opacity="0.22368186446777094" filter="url(#glow)" class="float" />
<path d="M 589.7592225153414 97.54057500242303 L 589.7592225153414 97.54057500242303 L 590.0312648229817 97.56437562034098 L 590.2970880033323 97.63541519994774 L 590.5505518346896 97.75261105448944 L 590.7856730657041 97.91417244970123 L 590.9967018067397 98.11762107281022 L 591.1781954316115 98.3598193976043 L 591.3250891978732 98.63700665736319 L 591.4327628259681 98.94484205983014 L 591.4971023171867 99.27845480426828 L 591.5145563371003 99.6325003907063 L 591.4821865445331 100.0012226464015 L 591.397711305704 100.37852083496303 L 591.2595422983482 100.75802116005835 L 591.0668135808152 101.13315192869263 L 590.8194027756734 101.49722159916384 L 590.5179440955392 101.84349890635005 L 590.1638330199468 102.1652942323085 L 589.7592225153414 102.45604137351067 L 589.3070107749002 102.70937884758914 L 588.8108205400943 102.9192298823318 L 588.2749701508766 103.07988023786015 L 587.7044365553113 103.18605302941812 L 587.1048105915603 103.23297974285475 L 586.4822449346163 103.21646666750304 L 585.8433951762694 103.13295601146503 L 585.1953545787683 102.97958101195955 L 584.5455831098056 102.75421440795878 L 583.9018314281483 102.45550970334791 L 583.2720605448527 102.08293471574659 L 582.6643579339914 101.6367969783294 L 582.0868509086725 101.11826063882367 L 581.5476181124395 100.52935458064863 L 581.0546000025116 99.87297157515353 L 580.6155092194965 99.1528583603432 L 580.2377417479302 98.37359662955163 L 579.9282897731662 97.54057500242303 L 579.6936571326495 96.65995213945851 L 579.5397782435148 95.73861124945341 L 579.4719413638153 94.7841063255597 L 579.494717011714 93.80460052964102 L 579.6118923258762 92.80879722524797 L 579.8264121014514 91.80586423615411 L 580.1403271797892 90.80535197921914 L 580.554750806895 89.81710618668393 L 581.0698235061152 88.85117599319676 L 581.6846869352505 87.91771821631994 L 582.397467117886 87.02689870542407 L 583.2052673538913 86.18879167226301 L 584.1041710255469 85.41327794672067 L 585.089254424364 84.70994312288872 L 586.1546096302125 84.08797657350429 L 587.2933773796988 83.55607231466021 L 588.4977897656895 83.12233269748599 L 589.7592225153414 82.79417588916007 L 591.0682565008292 82.57824808220533 L 592.4147480460335 82.48034133867844 L 593.7879075046033 82.50531793480798 L 595.1763855008753 82.65704202216322 L 596.5683661459104 82.93831936392428 L 597.9516664671542 83.350845839723 L 599.3138412226772 83.89516534036055 L 600.6422922102465 84.5706375950667 L 601.9243811282582 85.37541638950626 L 603.1475450003544 86.30643854316614 L 604.2994131388506 87.35942392083574 L 605.3679245943115 88.52888665542899 L 606.3414450200773 89.80815765923451 L 607.2088818715081 91.18941839869362 L 607.9597968603491 92.6637458048956 L 608.5845145950221 94.22116808905793 L 609.0742263578043 95.85073113024787 L 609.4210879996921 97.54057500242303 L 609.6183109730849 99.27802011043411 L 609.6602455710039 101.04966231083753 L 609.5424554990454 102.84147630408326 L 609.2617829722336 104.63892650070883 L 608.8164036028737 106.42708448638594 L 608.2058704268514 108.19075213977958 L 607.4311465039142 109.91458939389064 L 606.4946256216076 111.58324557649412 L 605.4001407319487 113.18149321903029 L 604.1529598537643 114.6943631863459 L 602.7597692810606 116.10727995244245 L 601.2286440478792 117.40619583020307 L 599.5690057119239 118.57772295619242 L 597.7915676318228 119.60926183522203 L 595.9082680252673 120.4891252635197 L 593.9321912064289 121.20665647402164 L 591.8774775100399 121.75234038241165 L 589.7592225153414 122.11790685786127 L 587.5933662848071 122.29642499769228 L 585.3965734292045 122.2823874500034 L 583.1861049012828 122.07178390221601 L 580.9796825043037 121.66216293594752 L 578.7953471779846 121.05268153898882 L 576.6513121924411 120.24414166274309 L 574.565812439742 119.239013317506 L 572.5569510621044 118.04144380759918 L 570.6425446950436 116.6572528227208 L 568.8399686325087 115.09391322001193 L 567.1660032388118 113.36051745227407 L 565.6366829387514 111.46772972050469 L 564.2671491125385 109.42772405239937 L 563.07150820591 107.25410863165624 L 562.0626963381558 104.96183682474737 L 561.2523516518249 102.567105471233 L 560.650695597827 100.08724111964476 L 560.2664242888155 97.54057500242304 L 560.1066109825464 94.9463076493654 L 560.1766206758432 92.32436413856362 L 560.4800376994594 89.69524107596584 L 561.0186071051846 87.07984647863344 L 561.7921905297421 84.4993338116723 L 562.7987371062114 81.97493149397879 L 564.0342698737483 79.52776924269172 L 565.4928880112553 77.17870267001996 L 567.1667850913532 74.94813757843473 L 569.0462834185865 72.85585542068034 L 571.1198843813586 70.92084139938314 L 573.374334611716 69.16111667702296 L 575.7947076119711 67.59357615058659 L 578.3645003733563 66.23383321635932 L 581.0657443806186 65.09607290914843 L 583.879130268809 64.1929147469886 L 586.7841452755964 63.53528654738284 L 589.7592225153414 63.13231040480949 L 592.7819009909223 62.99120193210219 L 595.8289951569233 63.11718377100685 L 598.8767727541971 63.51341427045211 L 601.9011395518829 64.18093211563382 L 604.877829559486 65.11861756779018 L 607.7825992093294 66.32317084448293 L 610.5914239592047 67.7891080343196 L 613.2806957269105 69.50877479942706 L 615.8274195430203 71.47237797474423 L 618.209407795994 73.66803502650217 L 620.4054704448915 76.08184118430825 L 622.3955995895515 78.69795391325371 L 624.1611468162114 81.49869424565883 L 625.6849917780374 84.46466434768594 L 626.951700524705 87.57488055530176 L 627.9476721626937 90.80692097816814 L 628.6612725079074 94.1370866401548 L 629.0829534840426 97.54057500242301 L 629.205357123188 100.9916646005272 L 629.0234031386755 104.46390942172738 L 628.5343591634013 107.93034155367707 L 627.737892878763 111.36368055171641 L 626.6361053990078 114.73654789996166 L 625.2335454220915 118.02168488195485 L 623.5372038099551 121.19217213041804 L 621.5564884172472 124.22164909315813 L 619.3031791467108 127.0845316337923 L 616.7913633704283 129.75622598198552 L 614.037352017588 132.21333725848342 L 611.0595767900546 134.43387082544308 L 607.8784691254996 136.3974247523265 L 604.5163216828304 138.08537174175143 L 600.9971332748612 139.4810289278755 L 597.3464383173188 140.56981404169323 L 593.591122000133 141.3393865325148 L 589.7592225153415 141.77977234221186 L 585.879721794714 141.88347114779543 L 581.9823263183147 141.645545017675 L 578.0972396516888 141.06368756657184 L 574.2549284532962 140.13827284247694 L 570.485883764409 138.87238333512292 L 566.8203794502657 137.2718166579831 L 563.2882297032146 135.34507062354697 L 559.9185475454404 133.10330660323882 L 556.7395062802816 130.56029123748283 L 553.7781058368691 127.73231673667595 L 551.0599459327708 124.63810018880147 L 548.6090079435113 121.29866246268 L 546.4474473164045 117.73718746597517 L 544.5953982993807 113.97886268266386 L 543.0707926737999 110.05070207434122 L 541.8891940841534 105.98135258212291 L 541.0636494477238 101.80088560973789 L 540.604558804465 97.54057500242305 L 540.5195648324432 93.23266315927239 L 540.8134631081715 88.91011702767386 L 541.4881340351036 84.60637582637209 L 542.5424971986552 80.35509242762585 L 543.9724887336081 76.18987039809653 L 545.7710621109713 72.14399875180357 L 547.9282125677073 68.25018650616421 L 550.4310252156157 64.540299153356 L 553.263746676591 61.04509916367282 L 556.4078799019226 57.79399262504079 L 559.8423016448311 54.814784093342155 L 563.5434018695406 52.13344168178297 L 567.4852441983954 49.773874354452516 L 571.6397463223486 47.757723309829956 L 575.9768791310248 46.10416924479258 L 580.4648831579191 44.829757179317035 L 585.0705007855033 43.94824039727969 L 589.7592225153415 43.470444920458895 L 594.4955454810155 43.404155781999044 L 599.243242267813 43.75402620333523 L 603.9656380037908 44.52151060609624 L 608.6258936028904 45.70482220910437 L 613.1872929730617 47.29891577165609 L 617.6135319515048 49.29549584924293 L 621.869006695732 51.683050728278594 L 625.9190992435745 54.4469120037875 L 629.7304579577822 57.56933955998213 L 633.2712705916337 61.029631509838175 L 636.5115277509325 64.80425844778077 L 639.4232745847916 68.8670211710784 L 641.9808486123454 73.18923083208301 L 644.1611016845669 77.73991029667837 L 645.9436041890608 82.48601530570781" fill="none" stroke="#9d4edd" stroke-width="1" opacity="0.3" class="drift" />
<path d="M 314.6774896229866 128.30389635071091 L 314.6774896229866 128.30389635071091 L 315.0780964266231 128.33894490456046 L 315.4695450051049 128.44355708479372 L 315.84279332886103 128.61613853763697 L 316.18903052130673 128.85405224557542 L 316.49978935200085 129.15364866980403 L 316.7670550636137 129.5103075203463 L 316.9833693666597 129.9184907294359 L 317.14192848329554 130.3718060894551 L 317.2366741798317 130.86308090755603 L 317.26237679641685 131.38444492609707 L 317.214709360983 131.9274216621972 L 317.0903119622574 132.48302723196505 L 316.8868456526287 133.0418756461479 L 316.6030352550124 133.5942894948312 L 316.2387005576168 134.13041488008298 L 315.7947754956491 134.6403394076573 L 315.27331503842896 135.114212012531 L 314.6774896229866 135.54236336852318 L 314.01156709984525 135.91542561980393 L 313.28088228215853 136.2244501718939 L 312.4917943145043 136.46102229183182 L 311.65163220123185 136.61737129147136 L 310.7686289551583 136.68647510417637 L 309.85184494444513 136.6621581132192 L 308.91108112754034 136.53918114954337 L 307.956782972068 136.31332264671494 L 306.9999359524513 135.98145002124625 L 306.0519536119054 135.54158043631554 L 305.124559256341 134.99293020542865 L 304.22966241985125 134.3359521988878 L 303.37923130309844 133.57236072908822 L 302.58516243642595 132.70514350962696 L 301.8591488583681 131.7385604068974 L 301.21254812697555 130.67812883011865 L 300.65625149571 129.53059573544508 L 300.2005555873621 128.30389635071091 L 299.85503788843704 127.00709985827766 L 299.62843736273896 125.65034240313754 L 299.5285414466193 124.24474792067235 L 299.5620806397858 122.80233740206586 L 299.73463184506994 121.3359273341474 L 300.0505315385971 119.85901816326327 L 300.5127997689948 118.38567373854326 L 301.1230758912875 116.93039278761793 L 301.88156683876105 115.50797356648536 L 302.7870086252076 114.13337290393459 L 303.83664165154755 112.82156092890592 L 305.0262002659036 111.58737282569436 L 306.3499168958741 110.4453590063715 L 307.8005409371803 109.4096351217099 L 309.36937244524387 108.49373335084589 L 311.0463105368336 107.71045641563518 L 312.8199162689606 107.07173575797773 L 314.6774896229866 106.58849529727411 L 316.6051600847117 106.27052215070479 L 318.58799017730524 106.12634565139858 L 320.61009117458144 106.16312593909706 L 322.65475009852196 106.38655332506973 L 324.70456698828536 106.80075954834304 L 326.7416013193404 107.40824194444022 L 328.74752635187565 108.20980144155975 L 330.703790098254 109.20449518331672 L 332.5917815209024 110.38960445279514 L 334.3930005054581 111.76061844075748 L 336.089230099951 113.3112342625505 L 337.66270946988436 115.03337348472175 L 339.0963059917773 116.9172152748632 L 340.37368489442804 118.95124613801431 L 341.4794748580981 121.12232605141192 L 342.399427997127 123.41577065781257 L 343.1205726811763 125.81544902739304 L 343.6313576942357 128.30389635071091 L 343.9217862884493 130.86244078172788 L 343.98353876136366 133.47134351177482 L 343.810082269847 136.10995102386198 L 343.3967666910682 138.75685835313655 L 342.7409054498057 141.39008206474486 L 341.84184035113856 143.9872415559708 L 340.70098958729716 146.52574719632125 L 339.3218782260759 148.9829937381527 L 337.71015063459265 151.33655736231688 L 335.8735644451145 153.5643946688774 L 333.8219658278684 155.64504188283462 L 331.5672459978819 157.55781251948991 L 329.12327904756955 159.28299174395275 L 326.50584136257356 160.80202566459266 L 323.7325130438419 162.0977038210689 L 320.8225619226302 163.15433316391602 L 317.7968109155964 163.9579018743572 L 314.6774896229866 164.49623143977226 L 311.48807122267783 164.75911548163015 L 308.25309585517743 164.7384439281526 L 304.9979818282793 164.42831123281775 L 301.74882609367074 163.82510746123285 L 298.53219556021753 162.92759120198122 L 295.3749109088206 161.73694340074405 L 292.303824660655 160.25680137018082 L 289.3455953233705 158.4932723894953 L 286.5264594976904 156.4549264760071 L 283.8720038691251 154.15276808501318 L 281.4069390357036 151.60018667231407 L 279.1548771323264 148.81288623451232 L 277.13811520529356 145.80879412402902 L 275.3774262666645 142.60794961718807 L 273.89185991738213 139.23237289312243 L 272.69855437071686 135.7059152570998 L 271.8125616338838 132.0540916126125 L 271.246687516113 128.30389635071094 L 271.01134802661085 124.48360398111026 L 271.1144436064803 120.62255597615645 L 271.5612525056333 116.75093543444726 L 272.35434447002433 112.89953129450478 L 273.49351574726506 109.09949393920661 L 274.97574625107234 105.3820841276387 L 276.79517954835734 101.77841727165793 L 278.94312614850713 98.31920513892038 L 281.4080903840002 95.03449711172446 L 284.17582097651 91.9534231611542 L 287.22938518466214 89.10394070826851 L 290.5492662302791 86.51258753816951 L 294.1134835009333 84.20424290856663 L 297.8977348296192 82.20189895194842 L 301.8755599590188 80.52644440985995 L 306.0185241098525 79.19646265937646 L 310.29642039179316 78.22804589615154 L 314.6774896229866 77.63462722602505 L 319.12865596187913 77.42683228887859 L 323.61577660428634 77.61235189513987 L 328.10390366080645 78.19583699811112 L 332.55755620608306 79.17881715530824 L 336.94100038322614 80.55964345053816 L 341.2185353549649 82.33345665691536 L 345.354782818761 84.49218122092233 L 349.31497774695157 87.02454544053633 L 353.0652579756633 89.91612799803428 L 356.5729502482384 93.14943079205992 L 359.80685032058835 96.70397779566505 L 362.73749475740925 100.55643944909723 L 365.3374220895821 104.68078187992239 L 367.58142106418944 109.0484400304531 L 369.44676379908407 113.62851356518685 L 370.91342175338576 118.38798423083146 L 371.9642625430025 123.29195315022571 L 372.5852257654848 128.3038963507109 L 372.7654761502755 133.38593665889528 L 372.49753251762235 138.49912993875603 L 371.77737121083294 143.60376351008702 L 370.60450286082965 148.6596644606976 L 368.98202154761054 153.62651545968572 L 366.9166256386634 158.4641755915953 L 364.4186098079346 163.13300366320658 L 361.5018279688562 167.59418138685032 L 358.18362708935354 171.81003381707774 L 354.48475209381206 175.74434441165778 L 350.42922229475374 179.36266210347208 L 346.04418003350656 182.6325978070147 L 341.3597124425104 185.52410784175763 L 336.4086474701346 188.00976183435415 L 331.2263255300671 190.06499276205483 L 325.85034834961135 191.6683269201747 L 320.3203067927638 192.80159173618338 L 314.6774896229868 193.45009951102134 L 308.9645753455104 193.60280534345634 L 303.22530942819634 193.25243768441135 L 297.5041693420542 192.39560017380367 L 291.8460199861097 191.03284363099434 L 286.29576216527676 189.1687072997861 L 280.897976873196 186.81172868826886 L 275.6965681937696 183.97442159081828 L 270.7344076746729 180.6732221322757 L 266.05298304292955 176.928402930768 L 261.6920541263447 172.76395573371082 L 257.6893188150661 168.20744313919937 L 254.0800918448016 163.2898202701369 L 250.89699910748877 158.04522751896997 L 248.16969009690303 152.5107557247492 L 245.92457097639624 146.7261853793475 L 244.18456061445818 140.73370168408107 L 242.9688717720576 134.57758748977994 L 242.29281944486394 128.30389635071097 L 242.16765816478465 121.960108103943 L 242.60044985022154 115.59476954917537 L 243.59396356464737 109.25712294822232 L 245.14660830026284 102.9967251869437 L 247.25239964946024 96.86306054426571 L 249.9009609635474 90.90515009201428 L 253.07755932771994 85.17116080477248 L 256.76317640572677 79.70801749022282 L 260.93461392923916 74.56102065696378 L 265.5646333278123 69.77347341837395 L 270.62212871777683 65.38632048763102" fill="none" stroke="#9d4edd" stroke-width="1" opacity="0.3" class="drift" />
<circle cx="575.2093302321728" cy="182.76907964960154" r="0.9284728938379412" fill="white" opacity="0.7520066614171708" class="shimmer" style="animation-delay: 3.951589407353897s" />
<circle cx="552.133809614978" cy="94.68083417075607" r="0.8932636155578738" fill="white" opacity="0.5094521524035462"  style="animation-delay: 3.5108095046182797s" />
<circle cx="53.50244413597309" cy="110.44187988291476" r="1.3211772556431987" fill="white" opacity="0.32588595351480293" class="shimmer" style="animation-delay: 2.6688857359618554s" />
<circle cx="276.4604440229242" cy="114.61051128636544" r="1.7909203925522978" fill="white" opacity="0.7829085515140599"  style="animation-delay: 2.87194273649411s" />
<circle cx="564.9420563085471" cy="69.32653184042601" r="0.5224205737367881" fill="white" opacity="0.5095379223112628"  style="animation-delay: 2.4077323150074417s" />
<circle cx="188.40095262263895" cy="196.01344446814957" r="1.8499375810925263" fill="white" opacity="0.3160321220725962"  style="animation-delay: 4.349866749634823s" />
<circle cx="219.71126228614892" cy="5.087986447089632" r="1.6347586820410682" fill="white" opacity="0.37873526461296664"  style="animation-delay: 2.7801065273590906s" />
<circle cx="659.842248724461" cy="166.72297791475467" r="1.6836516495760716" fill="white" opacity="0.6122122520261464"  style="animation-delay: 2.864619035876151s" />
<circle cx="4.55074758156222" cy="137.5238451962897" r="1.1258111938878925" fill="white" opacity="0.34935233991740017"  style="animation-delay: 1.7659037869548333s" />
<circle cx="599.1310106915427" cy="58.50004397361164" r="1.6065060414057641" fill="white" opacity="0.5048386802355809" class="shimmer" style="animation-delay: 4.409557218873986s" />
<circle cx="793.3933693084504" cy="149.95884036933273" r="0.731148909815782" fill="white" opacity="0.6177626871886728" class="shimmer" style="animation-delay: 3.988797567071268s" />
<circle cx="574.5898102736593" cy="7.757745872960875" r="1.9419649151323828" fill="white" opacity="0.3109435304017922"  style="animation-delay: 4.3492989651940706s" />
<circle cx="642.7400673163664" cy="47.20039809209933" r="1.2789429052838746" fill="white" opacity="0.46874006859437084"  style="animation-delay: 4.044787808707506s" />
<circle cx="227.86606013585083" cy="141.05375292170316" r="1.3509906102114648" fill="white" opacity="0.5532951131477495" class="shimmer" style="animation-delay: 1.6318768670845218s" />
<circle cx="592.4357830409255" cy="1.7861586356019643" r="0.904574569420345" fill="white" opacity="0.5681332849934515" class="shimmer" style="animation-delay: 3.385720183879195s" />
<circle cx="223.69407546446604" cy="42.806312071837425" r="0.600220270643928" fill="white" opacity="0.3180667972648277"  style="animation-delay: 2.6331651785452492s" />
<circle cx="413.3778616186465" cy="50.47660489023511" r="0.8683908539949644" fill="white" opacity="0.5924217310679298"  style="animation-delay: 0.22643372150079388s" />
<circle cx="642.6212622033054" cy="108.94621138267611" r="0.7346375762890921" fill="white" opacity="0.33343654720940136"  style="animation-delay: 1.7017080353497227s" />
<circle cx="289.3366912968176" cy="5.833531613955145" r="1.6895020424088432" fill="white" opacity="0.7098318622734812" class="shimmer" style="animation-delay: 0.9702917001882871s" />
<circle cx="190.33115976367566" cy="128.230182212546" r="1.9378023317459188" fill="white" opacity="0.6821440710019326"  style="animation-delay: 0.8460231157564868s" />
<circle cx="143.8680436247651" cy="112.6876520665192" r="1.0552365070321275" fill="white" opacity="0.3268918023889498" class="shimmer" style="animation-delay: 3.735937742309309s" />
<circle cx="457.0653083763256" cy="40.85145232357688" r="1.2357418878936044" fill="white" opacity="0.5178132342174739" class="shimmer" style="animation-delay: 3.3331355327440217s" />
<circle cx="56.30300907805985" cy="4.685348023239211" r="0.9907618641590434" fill="white" opacity="0.7149930489054857"  style="animation-delay: 4.3602606884355275s" />
<circle cx="102.3400470505342" cy="118.1225635763956" r="1.391254279475858" fill="white" opacity="0.42258380500973486"  style="animation-delay: 1.5275634444334607s" />
<circle cx="604.0090269366068" cy="144.90910079545193" r="1.6463676809237415" fill="white" opacity="0.434799487708668"  style="animation-delay: 4.416344311337918s" />
<circle cx="49.84060858147714" cy="144.82243849780252" r="1.5758063205633714" fill="white" opacity="0.6724308416531024"  style="animation-delay: 0.09966857363151949s" />
<circle cx="329.3736289534825" cy="165.45686123025797" r="1.753855902230264" fill="white" opacity="0.5255455395315167"  style="animation-delay: 2.3127738377619025s" />
<circle cx="55.39408499995471" cy="159.35763531975286" r="1.1631532316778872" fill="white" opacity="0.38441004217124414" class="shimmer" style="animation-delay: 1.7684266930422599s" />
<circle cx="508.9081598055442" cy="12.329053094926357" r="1.6486455340113302" fill="white" opacity="0.5499937131653556"  style="animation-delay: 4.602690734619604s" />
<circle cx="369.00881612996005" cy="102.72071648163377" r="0.5371829181993263" fill="white" opacity="0.7513181721408664"  style="animation-delay: 4.92609832203806s" />
<circle cx="485.5639935545545" cy="27.098900636262748" r="1.9442394336507784" fill="white" opacity="0.4506968030863214"  style="animation-delay: 2.895730889543607s" />
<circle cx="718.915573195334" cy="89.05909095834627" r="1.9909331343394006" fill="white" opacity="0.5735211459258103"  style="animation-delay: 2.4730782779152727s" />
<circle cx="342.4237843704157" cy="79.48349627598357" r="1.0967703037655134" fill="white" opacity="0.5321030771646282"  style="animation-delay: 4.122319080491562s" />
<circle cx="511.413958065371" cy="46.766931882179684" r="1.8622732944935154" fill="white" opacity="0.3957906182980326"  style="animation-delay: 0.11688949853458808s" />
<circle cx="376.8163011929529" cy="87.76278619150193" r="1.7181521853104667" fill="white" opacity="0.5881393811339695" class="shimmer" style="animation-delay: 2.1566480471544214s" />
<circle cx="616.3410398502142" cy="67.92201973796077" r="1.9693356294102813" fill="white" opacity="0.33521181080544443" class="shimmer" style="animation-delay: 2.0864741312131017s" />
<circle cx="332.93066708874585" cy="155.66594070802316" r="1.9298077256866626" fill="white" opacity="0.4748941583717579" class="shimmer" style="animation-delay: 4.637824918665103s" />
<circle cx="14.284867207158314" cy="50.41689066501762" r="1.8750957278798748" fill="white" opacity="0.5407190310319452" class="shimmer" style="animation-delay: 3.7706506402050555s" />
<circle cx="719.9005471298265" cy="8.017496492475784" r="1.8012991301104067" fill="white" opacity="0.522459613831054"  style="animation-delay: 3.5201642388007937s" />
<circle cx="482.04683050918595" cy="36.78438676858566" r="0.5323731346224335" fill="white" opacity="0.3305490360651662" class="shimmer" style="animation-delay: 4.701998354672324s" />
<circle cx="132.62127243541465" cy="199.86718046504123" r="2.726234206294906" fill="#4a0080" opacity="0.8" filter="url(#glow)" class="shimmer" style="animation-delay: 2.12196003473396s" />
<circle cx="644.4163665289074" cy="82.3819177540594" r="1.922381596016585" fill="#7b2cbf" opacity="0.8" filter="url(#glow)" class="shimmer" style="animation-delay: 2.83093209550277s" />
<circle cx="715.3009761743467" cy="29.623560664489723" r="1.1303858326223795" fill="#7b2cbf" opacity="0.8" filter="url(#glow)" class="shimmer" style="animation-delay: 1.2104434648667524s" />
<circle cx="243.41520215348993" cy="83.12209255945997" r="1.6592413074248422" fill="#e0aaff" opacity="0.8" filter="url(#glow)" class="shimmer" style="animation-delay: 1.9238462972789192s" />
<circle cx="171.55277991159767" cy="49.73141377895294" r="2.4883713049368916" fill="#9d4edd" opacity="0.8" filter="url(#glow)" class="shimmer" style="animation-delay: 2.2180679592930996s" />
<circle cx="105.25103426409252" cy="109.44526353816482" r="1.3083087306579824" fill="#9d4edd" opacity="0.8" filter="url(#glow)" class="shimmer" style="animation-delay: 0.7124464121989855s" />
<circle cx="135.62417135537254" cy="168.2989776839495" r="1.2056596040240986" fill="#7b2cbf" opacity="0.8" filter="url(#glow)" class="shimmer" style="animation-delay: 0.4936460239532001s" />
<circle cx="230.01814180315048" cy="139.5585016487485" r="1.4866020134107538" fill="#e0aaff" opacity="0.8" filter="url(#glow)" class="shimmer" style="animation-delay: 2.8351850839940216s" />
<line x1="268.845305792552" y1="36.74778966799117" x2="483.2700766271296" y2="127.62852166203669" stroke="#e0aaff" stroke-width="0.5" opacity="0.3" />

  
    <text x="400" y="120" text-anchor="middle" class="name-text" fill="url(#textGrad)" filter="url(#textGlow)">
      JOEL HOOKS
    </text>
  
</svg>
