<svg xmlns="http://www.w3.org/2000/svg" viewBox="0 0 800 200" width="800" height="200">
  <rect width="800" height="200" fill="#05010d"/>
  
    <defs>
      <linearGradient id="grad1" x1="0%" y1="0%" x2="100%" y2="100%">
        <stop offset="0%" style="stop-color:#4a0080;stop-opacity:0.8" />
        <stop offset="100%" style="stop-color:#7b2cbf;stop-opacity:0.8" />
      </linearGradient>
      <linearGradient id="grad2" x1="100%" y1="0%" x2="0%" y2="100%">
        <stop offset="0%" style="stop-color:#9d4edd;stop-opacity:0.7" />
        <stop offset="100%" style="stop-color:#c77dff;stop-opacity:0.7" />
      </linearGradient>
      <linearGradient id="textGrad" x1="0%" y1="0%" x2="100%" y2="0%">
        <stop offset="0%" style="stop-color:#4a0080" />
        <stop offset="25%" style="stop-color:#7b2cbf" />
        <stop offset="50%" style="stop-color:#9d4edd" />
        <stop offset="75%" style="stop-color:#c77dff" />
        <stop offset="100%" style="stop-color:#e0aaff" />
      </linearGradient>
      <filter id="glow">
        <feGaussianBlur stdDeviation="5" result="coloredBlur"/>
        <feMerge>
          <feMergeNode in="coloredBlur"/>
          <feMergeNode in="SourceGraphic"/>
        </feMerge>
      </filter>
      <filter id="textGlow">
        <feGaussianBlur stdDeviation="2" result="coloredBlur"/>
        <feMerge>
          <feMergeNode in="coloredBlur"/>
          <feMergeNode in="SourceGraphic"/>
        </feMerge>
      </filter>
    </defs>
  
  
    <style>
      @keyframes float {
        0%, 100% { transform: translateY(0px); }
        50% { transform: translateY(-8px); }
      }
      @keyframes pulse {
        0%, 100% { opacity: 0.4; }
        50% { opacity: 0.9; }
      }
      @keyframes drift {
        0% { transform: translateX(0px); }
        50% { transform: translateX(10px); }
        100% { transform: translateX(0px); }
      }
      @keyframes shimmer {
        0% { opacity: 0.3; }
        50% { opacity: 1; }
        100% { opacity: 0.3; }
      }
      @keyframes glitch {
        0%, 100% { transform: translateX(0); }
        20% { transform: translateX(-2px); }
        40% { transform: translateX(2px); }
        60% { transform: translateX(-1px); }
        80% { transform: translateX(1px); }
      }
      @keyframes dataStream {
        0% { stroke-dashoffset: 0; }
        100% { stroke-dashoffset: -20; }
      }
      .float { animation: float 8s ease-in-out infinite; }
      .pulse { animation: pulse 8s ease-in-out infinite; }
      .drift { animation: drift 8s ease-in-out infinite; }
      .shimmer { animation: shimmer 3s ease-in-out infinite; }
      .glitch { animation: glitch 0.5s ease-in-out infinite; }
      .dataStream { animation: dataStream 2s linear infinite; }
      .name-text { 
        font-family: -apple-system, BlinkMacSystemFont, 'Segoe UI', Helvetica, Arial, sans-serif;
        font-weight: 700;
        font-size: 64px;
        letter-spacing: -2px;
      }
    </style>
  
  <path d="M 381.9550939979117 27.475441957151947 C 374.3604216298617 51.275692520497074, 364.33377913341303 61.3902953769333, 353.87297464476956 82.32263626222078 C 343.4121701561261 103.25497714750827, 336.1296024643071 148.79951320905343, 319.1902670660508 153.06948726887683 C 302.25093166779453 157.33946132870022, 269.7100426566519 121.12134087668599, 252.2369622552319 107.94248062116117 C 234.76388185381188 94.76362036563634, 233.69886006710436 87.40749884639605, 214.35178465753074 73.99632573572785 C 195.00470924795712 60.58515262505965, 137.77412672309939 44.15912379199162, 136.15450979779027 27.475441957151965 C 134.53489287248115 10.791760122312308, 188.3530522139052 -3.258277425953864, 204.63408310567604 -26.10576527331008 C 220.9151139974469 -48.9532531206663, 214.27277218717992 -96.14475133501128, 233.8406951484153 -109.60948512698532 C 253.4086181096507 -123.07421891895936, 294.4415685889793 -115.08260436001027, 322.04162087308833 -106.89416802515437 C 349.6416731571974 -98.70573169029848, 389.45542999893235 -82.87380211490101, 399.44100885306955 -60.47886711784996 C 409.42658770720675 -38.083932120798906, 389.5497663659617 3.67519139380682, 381.9550939979117 27.475441957151947 Z" fill="#c77dff" opacity="0.21270026350115298" filter="url(#glow)" class="float" />
<path d="M 475.46685604387886 191.07018220566405 C 466.5720464356828 207.66216654800135, 448.10500469475727 207.58962605550545, 439.67500268523685 221.45876285608057 C 431.2450006757164 235.3278996566557, 434.351820343976 271.674246765633, 424.8868439867564 274.2850030091148 C 415.4218676295368 276.89575925259663, 395.45252873556854 245.1357571092578, 382.8851445419192 237.1233003169716 C 370.31776034826987 229.1108435246854, 365.08715858015245 233.88578194061557, 349.48253882486034 226.21026225539765 C 333.87791906956824 218.53474257017973, 293.2771575375169 205.7040481280258, 289.2574260101667 191.07018220566405 C 285.23769448281644 176.43631628330232, 313.13639975241426 156.47552314157846, 325.364149660759 138.40706672122718 C 337.5918995691037 120.3386103008759, 347.2324782384615 84.07150531407184, 362.6239254602351 82.65944368355633 C 378.0153726820087 81.24738205304082, 395.97617717903756 123.39346141838402, 417.71283299140055 129.9346969381341 C 439.44948880376353 136.47593245788417, 483.4181898256667 111.71760925746845, 493.04386033441307 121.90685680205678 C 502.66953084315946 132.09610434664512, 484.3616656520749 174.47819786332676, 475.46685604387886 191.07018220566405 Z" fill="#e0aaff" opacity="0.1470640656295638" filter="url(#glow)" class="float" />
<path d="M 222.43482714349608 48.16857214414565 C 218.62105972431777 59.12974016151581, 204.32783642248623 59.88492197253576, 198.95468692188166 72.73948353039324 C 193.5815374212771 85.59404508825074, 198.71071053605235 120.53263575787952, 190.19593013986866 125.29594149129059 C 181.68114974368498 130.05924722470166, 166.8898377478142 103.38680596964207, 147.8660045447796 101.31931793085971 C 128.842171341745 99.25182989207735, 89.39874917440147 121.74947088971543, 76.052930921661 112.89101325859642 C 62.70711266892054 104.03255562747741, 58.8660133465946 63.25826777458859, 67.79109502833681 48.168572144145664 C 76.71617671007903 33.07887651370274, 115.79348116933777 29.782877730156354, 129.60342101211427 22.35283947593886 C 143.41336085489078 14.922801221721368, 140.42332427019096 12.53625157719483, 150.65073408499583 3.5883426188406986 C 160.8781438998007 -5.359566339513433, 179.1034536756176 -31.898636408741194, 190.96787990094356 -31.33461427418593 C 202.83230612626951 -30.77059213963067, 216.59280022985942 -6.278055643549656, 221.83729143695152 6.972475426172274 C 227.0817826440436 20.223006495894204, 226.24859456267438 37.20740412677549, 222.43482714349608 48.16857214414565 Z" fill="#9d4edd" opacity="0.1808308103484035" filter="url(#glow)" class="float" />
<path d="M 797.6578314660115 194.9657360260118 C 793.2412030770399 210.8668673105796, 747.7652498534404 214.1283534374931, 734.6797969773186 233.04252481476414 C 721.5943441011967 251.95669619203517, 733.8988154891069 296.2723164921165, 719.1451142092806 308.450764289638 C 704.3914129294542 320.62921208715954, 664.013217356829 316.5195400115578, 646.1575892983604 306.1132115998932 C 628.3019612398919 295.7068831882286, 625.7381964844542 264.537373081964, 612.0113458584691 246.01279381965043 C 598.284495232484 227.48821455733687, 563.3386792529471 211.6488062183128, 563.7964855424497 194.96573602601183 C 564.2542918319522 178.28266583371084, 597.2146603869796 152.6924415541505, 614.758183595484 145.9143726658445 C 632.3017068039883 139.1363037775385, 653.3079202059516 159.96388373009256, 669.0576247934757 154.29732269617583 C 684.8073293809998 148.6307616622591, 693.9027540343498 114.69193739381384, 709.2564111206285 111.91500646234408 C 724.6100682069073 109.13807553087432, 746.4459972535846 123.79394884674593, 761.1795673111484 137.63573710735722 C 775.9131373687122 151.4775253679685, 802.0744598549832 179.064604741444, 797.6578314660115 194.9657360260118 Z" fill="#4a0080" opacity="0.15624445599904033" filter="url(#glow)" class="float" />
<path d="M 435.5680622626318 90.73208237954147 L 435.5680622626318 90.73208237954147 L 435.7856356776738 90.75111758684226 L 435.9982351723915 90.80793346990197 L 436.2009499334019 90.90166411982392 L 436.38899468873586 91.03087734698727 L 436.5577708039561 91.19359105170238 L 436.70292538713187 91.38729590996493 L 436.82040776938027 91.60898414380979 L 436.9065227533979 91.85518408368861 L 436.95798005409466 92.1220001710043 L 436.9719393928158 92.40515799299902 L 436.9460507493392 92.70005389014618 L 436.8784893234788 93.00180862854151 L 436.7679848102502 93.30532458698458 L 436.6138446486921 93.60534587090555 L 436.4159709640441 93.89652073339181 L 436.17487098551584 94.17346565761898 L 435.89166078674526 94.43083043525453 L 435.5680622626318 94.66336356208228 L 435.2063933239168 94.86597726533842 L 434.80955135902684 95.03381147713836 L 434.38099008065467 95.16229607493193 L 433.9246899416799 95.2472107231136 L 433.4451223706916 95.28474166963314 L 432.94720814093796 95.27153487754157 L 432.4362702473878 95.20474490364307 L 431.9179817241536 95.0820789745311 L 431.3983088882433 94.90183575392999 L 430.8834505449507 94.66293834405649 L 430.37977373467396 94.36496111722452 L 429.8937466401317 94.00815003165881 L 429.43186930642133 93.59343614693918 L 429.00060285379965 93.12244211910789 L 428.6062978841611 92.59748152264847 L 428.2551227967171 92.02155091566998 L 427.95299273616376 91.39831463506916 L 427.70549989755017 90.73208237954147 L 427.51784590607986 90.0277797094122 L 427.39477697719775 89.29091166269195 L 427.34052254262093 88.52751975586958 L 427.3587380015916 87.74413270508343 L 427.45245222377275 86.9477112678219 L 427.62402039113164 86.14558766657719 L 427.8750827211771 85.34540011332177 L 428.2065295634186 84.55502300673216 L 428.61847330531765 83.78249342222726 L 429.11022746378575 83.03593455763672 L 429.68029327397306 82.32347683423045 L 430.3263540192441 81.65317738354126 L 431.0452772754548 81.03293867456357 L 431.83312516955925 80.47042705324118 L 432.6851726778301 79.97299197645032 L 433.5959339132588 79.54758672578956 L 434.5591962756899 79.20069138231838 L 435.5680622626318 78.93823883191902 L 436.61499866417535 78.7655445522345 L 437.69189279272587 78.68724090627019 L 438.7901153279985 78.7072166349102 L 439.900589290596 78.82856220103312 L 441.0138645941307 79.05352159191501 L 442.1201975668665 79.38345113454122 L 443.2096347798272 79.81878582073355 L 444.2721004697722 80.35901357610463 L 445.29748680287173 81.00265783930158 L 446.2757461887602 81.74726874636428 L 447.196984825296 82.58942313990704 L 448.0515566321321 83.5247335448833 L 448.83015671637713 84.5478661725851 L 449.5239135064002 85.65256793296281 L 450.1244786903434 86.83170235304503 L 450.62411410422095 88.07729421692392 L 451.0157747306099 89.38058266118531 L 451.2931869927951 90.73208237954147 L 451.4509215606938 92.12165251249921 L 451.4844599237403 93.53857272287999 L 451.3902540318835 94.97162588660281 L 451.1657783586083 96.40918676101174 L 450.80957379902566 97.83931593081968 L 450.32128288113216 99.24985827504656 L 449.7016758387929 100.62854514771254 L 448.9526671702923 101.96309942101294 L 448.0773223857974 103.24134250270701 L 447.0798547301401 104.4513024098934 L 445.96561175324194 105.58132195955879 L 444.7410516885604 106.62016612254183 L 443.4137096893675 107.55712758205414 L 441.9921540627166 108.38212954077795 L 440.485932730823 109.08582483187342 L 438.9055102384939 109.65969040896776 L 437.2621957124022 110.09611631827457 L 435.5680622626318 110.38848829224554 L 433.83585839825986 110.53126314835846 L 432.0789121060488 110.52003622848714 L 430.3110283138758 110.35160017341356 L 428.54638052765546 110.02399439298603 L 426.7993974915743 109.5365446647027 L 425.08464577585636 108.88989237154188 L 423.41670924348506 108.0860129730557 L 421.8100663868293 107.12822339142551 L 420.2789665565406 106.0211780856327 L 418.8373061280563 104.77085368138084 L 417.49850566526135 103.3845221211273 L 416.2753891461314 101.87071239674044 L 415.18006631135177 100.23916102605646 L 414.2238191839272 98.50075153313234 L 413.4169937856795 96.66744328942735 L 412.7688980453683 94.75219016864801 L 412.28770685314373 92.7688495607261 L 411.9803751673869 90.73208237954148 L 411.8525600230598 88.65724478375526 L 411.90855222584895 86.56027240971393 L 412.1512184441393 84.45755798909065 L 412.58195433171915 82.365823291059 L 413.2006492287032 80.30198638870463 L 414.00566289713134 78.28302530149553 L 414.9938146517644 76.32583910941904 L 416.16038514652416 74.44710766940784 L 417.4991309736149 72.66315109052454 L 419.0023121264614 70.98979014074233 L 420.6607322700703 69.44220876481785 L 422.46379165416243 68.03481988954096 L 424.3995523963375 66.781135679494 L 426.4548157555348 65.69364338336875 L 428.61521091105124 64.7836878779687 L 430.86529466028077 64.06136197444077 L 433.18866135003293 63.53540549929835 L 435.5680622626318 63.21311410175575 L 437.98553358983224 63.100258669214455 L 440.42253204570386 63.2010161549214 L 442.8600770947773 63.51791253642857 L 445.2788987046204 64.0517785311607 L 447.659589473248 64.80171859684543 L 449.9827599319481 65.7650936405409 L 452.22919578373 66.93751775132094 L 454.3800158070965 68.31286915921022 L 456.4168291345744 69.88331550759887 L 458.3218906056546 71.63935340903996 L 460.0782528947086 73.56986213600425 L 461.6699141261324 75.66217117980167 L 463.0819597114467 77.90214129346782 L 464.3006971762726 80.2742585189383 L 465.313782788825 82.76174058626613 L 466.1103388555697 85.3466549639459 L 466.68106061362994 88.0100477355284 L 467.01831172295834 90.73208237954145 L 467.11620744371385 93.49218743815614 L 466.9706846750891 96.26921197585807 L 466.5795581303651 99.04158765338168 L 465.94256202848067 101.78749617503615 L 465.0613767940952 104.48504080993698 L 463.93964037513246 107.11242064012816 L 462.58294390820555 109.64810615161527 L 460.99881158718665 112.0710147583373 L 459.19666471750014 114.36068483440972 L 457.18777006746444 116.49744682678781 L 454.9851727571447 118.46259002897142 L 452.6036140536421 120.2385236165421 L 450.0594345684848 121.8089305771237 L 447.37046347674107 123.15891321065038 L 444.55589449760197 124.27512893035501 L 441.6361494914719 125.14591516031655 L 438.6327306380592 125.7614022012946 L 435.5680622626319 126.11361302240881 L 432.4653234726029 126.19654903137848 L 429.3482728530708 126.00626097983593 L 426.24106654709686 125.54090427189516 L 423.168071113631 124.80077806285846 L 420.15367261245706 123.78834765977228 L 417.22208341077464 122.50824986554217 L 414.39714823958235 120.96728104246833 L 411.70215104950495 119.17436780831991 L 409.15962422483784 117.14052041733542 L 406.7911617111619 114.8787690187052 L 404.61723759584874 112.40408312503001 L 402.6570316521311 109.73327476182209 L 400.9282633162822 106.88488590517382 L 399.4470355140548 103.87906094715682 L 398.2276896871979 100.73740505620626 L 397.28267329401956 97.48282942162612 L 396.6224209701237 94.13938448638307 L 396.25525043722365 90.7320823795415 L 396.1872741400398 87.2867098580984 L 396.42232747450015 83.82963315673592 L 396.9619143456577 80.38759622231183 L 397.8051706618467 76.98751387703456 L 398.9488462336336 73.65626150958731 L 400.387305403131 70.42046293641395 L 402.11254658235185 67.30627810551624 L 404.1142407296298 64.33919233208353" fill="none" stroke="#7b2cbf" stroke-width="1" opacity="0.3" class="drift" />
<path d="M 472.36838780971254 147.36126823922342 L 472.36838780971254 147.36126823922342 L 472.6170390646337 147.3830224052005 L 472.86000593237793 147.44795377845458 L 473.0916761468044 147.555072765042 L 473.3065809153217 147.70274260365895 L 473.4994647418781 147.88869807465468 L 473.66535297439606 148.110071426183 L 473.7996163529047 148.36342525406747 L 473.8980318640063 148.64479200101385 L 473.9568392435322 148.9497196730431 L 473.9727925119506 149.27332330709066 L 473.94320597589603 149.61034166423963 L 473.8659941836317 149.95519856859042 L 473.7397053818338 150.30206826285388 L 473.56354808523685 150.64494410885558 L 473.3374104388056 150.97770992468256 L 473.0618721235617 151.29421322054637 L 472.7382086313231 151.58833957288235 L 472.36838780971254 151.85408736098094 L 471.9550586561478 152.08564208272458 L 471.50153241740105 152.27744946587708 L 471.0117561289823 152.42428659886622 L 470.49027880531725 152.521330320074 L 469.94221056672876 152.564222127185 L 469.3731750618742 152.54912889795742 L 468.789255613841 152.4727987506239 L 468.1969355838936 152.33261141567826 L 467.60303350825353 152.1266225406824 L 467.0146336196843 151.85360140548997 L 466.43901241648797 151.51306158643442 L 465.88356198629504 151.10528417402136 L 465.3557108302861 150.63133321889723 L 464.862842964839 150.09306315470752 L 464.4122161017024 149.49311802322808 L 464.0108797244013 148.83492240615294 L 463.66559388747356 148.12266404842165 L 463.3827495661975 147.36126823922342 L 463.1682913776313 146.55636409807101 L 463.02764347907055 145.71424299383162 L 462.9656394275188 144.84180940358158 L 462.9864567536206 143.9465245948683 L 463.093556965955 143.0363435886871 L 463.289631656928 142.11964593050632 L 463.5765553301037 141.20516086232436 L 463.95534551109665 140.301887549376 L 464.4261306406142 139.4190110701251 L 464.9881261794175 138.5658149270341 L 465.63961928147404 137.75159087779053 L 466.37796231403587 136.9855469217554 L 467.1995754224862 136.27671430400096 L 468.0999582542686 135.6338544191085 L 469.0737108707963 135.06536650866238 L 470.1145637897027 134.57919704992386 L 471.21541701292665 134.18275172840438 L 472.36838780971254 133.88281087395086 L 473.5648669384526 133.68544921856216 L 474.79558290818466 133.59596080459315 L 476.05067380026605 133.61878983447872 L 477.3197660940275 133.75746820789013 L 478.5920598678014 134.01456043966985 L 479.85641967930843 134.3916165923884 L 481.10147036763914 134.88913379140624 L 482.3156969635885 135.50652681844653 L 483.4875478464502 136.24210820248575 L 484.60554024406287 137.0930781448999 L 485.6583671393538 138.05552452995738 L 486.6350046212311 139.12443318266796 L 487.524818700731 140.29370844444452 L 488.3176706050688 141.5562040438197 L 489.00401956282457 142.9037641453955 L 489.5750221030004 144.32727436613322 L 490.02262690911164 145.81672245484987 L 490.3396642967426 147.36126823922342 L 490.5199294189539 148.94932235555115 L 490.55825834833115 150.5686331907759 L 490.4505962370082 152.2063813846885 L 490.19405681628723 153.84928116349818 L 489.7869725650621 155.48368770486485 L 489.22893495059805 157.09570966969804 L 488.52082422573807 158.67132597817752 L 487.6648283526505 160.19650585712782 L 486.6644507140895 161.6573311436004 L 485.5245063680646 163.0401197957348 L 484.2511067000061 164.33154953707302 L 482.85163242714674 165.51878054479243 L 481.334695012044 166.58957608603788 L 479.7100866450761 167.53242000982107 L 477.9887190584521 168.3366300148864 L 476.1825515358831 168.9924656364996 L 474.30450858167376 169.4912299272026 L 472.36838780971254 169.82536384801102 L 470.38875870579716 169.9885324370448 L 468.38085300507976 169.97570188183033 L 466.3604475093358 169.78320668907006 L 464.343740245478 169.40880622103947 L 462.3472209365186 168.851729950369 L 460.3875368183592 168.11271087415946 L 458.48135488973094 167.1940066234573 L 456.64522172777964 166.09940790432242 L 454.8954220376962 164.83423401123974 L 453.2478371310401 163.40531526160396 L 451.7178045436546 161.8209623105445 L 450.31998001009305 160.09092241753638 L 449.06820300710206 158.2263228491074 L 447.97536706387353 156.23960171454678 L 447.0532960114986 154.14442664287458 L 446.3126273084481 151.95560181847426 L 445.76270353315334 149.6889639987723 L 445.4114730791674 147.36126823922342 L 445.2654010233111 144.9900641477204 L 445.3293910631173 142.5935635815103 L 445.606719337315 140.19050078393502 L 446.09898085265513 137.79998603502906 L 446.806049142771 135.44135395847695 L 447.726049680726 133.13400768699125 L 448.85534745727034 130.89726013821434 L 450.1885490224525 128.75017369326204 L 451.7185191700569 126.71139959956776 L 453.43641232330356 124.79901843838996 L 455.33171855736396 123.03038300495716 L 457.39232407052083 121.4219649455534 L 459.60458579227605 119.98920648081695 L 461.9534196944294 118.74637851814303 L 464.4224022511498 117.70644641845854 L 466.99388437738133 116.88094463397064 L 469.649117062576 116.27986137408415 L 472.36838780971254 115.91153438692078 L 475.13116688880325 115.78255886424193 L 477.916262320506 115.89770838863991 L 480.7019824199125 116.25986974427488 L 483.4663046538667 116.86999230692464 L 486.18704949801156 117.72705261648582 L 488.8420579228234 118.82803461618637 L 491.4093710917492 120.16792591857288 L 493.8674108197024 121.73973032980236 L 496.19515931700755 123.53449673192844 L 498.372336732707 125.54136428878593 L 500.37957501218716 127.7476238058473 L 502.19858659743306 130.13879493915294 L 503.81232652391503 132.69871881423435 L 505.2051465060343 135.40966548398038 L 506.3629396530284 138.25245552574899 L 507.2732745189536 141.2065949538119 L 507.92551726343186 144.2504225044993 L 508.3109407837727 147.3612682392234 L 508.4228197732741 150.51562230590176 L 508.25651076428437 153.68931260309725 L 507.80951632721207 156.857690004335 L 507.0815327172527 159.9958197233374 L 506.0744803882461 163.078677335075 L 504.7925169268001 166.08134791321305 L 503.2420320985715 168.97922670228755 L 501.4316248412946 171.74821971324184 L 499.3720621846469 174.3649426141577 L 497.07622022417854 176.80691628437896 L 494.55900742411615 179.0527574099064 L 491.83727067066184 181.08236252099442 L 488.92968464225413 182.87708390922188 L 485.85662520491536 184.41989591078652 L 482.64002767809865 185.6955501050902 L 479.3032309482044 186.6907180524528 L 475.8708085320244 187.3941202815228 L 472.36838780971266 187.7966403350411 L 468.8224587554466 187.89142279136502 L 465.26017359275846 187.67395429778355 L 461.70913888968926 187.14212677927387 L 458.19720168563873 186.29628212200492 L 454.7522313063085 185.13923777355302 L 451.4018985748441 183.67629285036145 L 448.1734541656209 181.9152144962907 L 445.0935078716657 179.86620439296658 L 442.18781056713885 177.54184548179705 L 439.481040642396 174.95702911771798 L 436.9965966708212 172.12886303465453 L 434.756398033891 169.07656066105145 L 432.7806951839181 165.8213124793176 L 431.0878911629081 162.38614027438604 L 429.6943759212948 158.7957352625211" fill="none" stroke="#9d4edd" stroke-width="1" opacity="0.3" class="drift" />
<circle cx="2.1909862470305796" cy="130.29301506339425" r="0.526129835753341" fill="white" opacity="0.6732000056477436"  style="animation-delay: 1.2989940445556791s" />
<circle cx="764.0960727185316" cy="54.97009608522836" r="1.9190472221992896" fill="white" opacity="0.3877726999170317"  style="animation-delay: 1.7448175718418335s" />
<circle cx="717.3683703583076" cy="177.63582165520054" r="0.9792607439004368" fill="white" opacity="0.43531682508119146"  style="animation-delay: 4.866460679769451s" />
<circle cx="314.52873676315056" cy="58.912535654835985" r="1.3621518739465006" fill="white" opacity="0.778618248710788" class="shimmer" style="animation-delay: 4.920175573072205s" />
<circle cx="90.33098891836585" cy="116.0225260582179" r="1.987270318236059" fill="white" opacity="0.3784503627072245"  style="animation-delay: 4.787659437539835s" />
<circle cx="749.2739866698843" cy="191.305278076717" r="0.5421044427510557" fill="white" opacity="0.3450894018705107"  style="animation-delay: 4.583975262818071s" />
<circle cx="198.55344376974637" cy="80.58001269763069" r="1.3653242217943231" fill="white" opacity="0.39870165508129324"  style="animation-delay: 1.9880759966897155s" />
<circle cx="592.5475995497294" cy="5.914613583113448" r="1.8316052583764257" fill="white" opacity="0.535369458139547"  style="animation-delay: 4.150666619959216s" />
<circle cx="466.98143237525846" cy="106.4645716611027" r="0.7734825374954808" fill="white" opacity="0.5206207973489123"  style="animation-delay: 0.935419535027675s" />
<circle cx="515.5295285890674" cy="68.71063382706497" r="0.8077061973981874" fill="white" opacity="0.6434581243122068" class="shimmer" style="animation-delay: 3.8070421412652253s" />
<circle cx="189.1755408540341" cy="22.82407016770369" r="1.2513637478811606" fill="white" opacity="0.49487141703476795"  style="animation-delay: 1.0048165367275042s" />
<circle cx="564.2229930402605" cy="72.71437299649715" r="1.2243392295218545" fill="white" opacity="0.39417242538759184"  style="animation-delay: 4.25847217134887s" />
<circle cx="49.12556615865711" cy="135.92542338177594" r="1.762266240893796" fill="white" opacity="0.5949933596004437"  style="animation-delay: 1.519822354244711s" />
<circle cx="636.1153667199483" cy="148.99998241093732" r="1.5204220752204731" fill="white" opacity="0.4939411213732899" class="shimmer" style="animation-delay: 1.9537281233779369s" />
<circle cx="160.97681104527197" cy="14.853603069716659" r="0.8331330588703938" fill="white" opacity="0.7727948165571106"  style="animation-delay: 2.0957795187464203s" />
<circle cx="109.93592532228931" cy="151.6784796746314" r="0.7851974640433366" fill="white" opacity="0.5765915433963118"  style="animation-delay: 0.45358849378026256s" />
<circle cx="618.2572720394184" cy="72.45696916370225" r="1.2914036725241957" fill="white" opacity="0.7874579030754676" class="shimmer" style="animation-delay: 0.019108653145459842s" />
<circle cx="721.1213229869685" cy="67.60064817468457" r="1.6927596599554446" fill="white" opacity="0.6186152605515978"  style="animation-delay: 0.1267330394877142s" />
<circle cx="741.2805827006288" cy="93.34558511169418" r="0.7685498685631057" fill="white" opacity="0.6343212557172511"  style="animation-delay: 3.0788161509394065s" />
<circle cx="746.673092388492" cy="192.43530082634317" r="1.0467855226720066" fill="white" opacity="0.45407529419913456" class="shimmer" style="animation-delay: 1.8820491848958854s" />
<circle cx="295.93157173976846" cy="149.37874096017597" r="1.6202840274546555" fill="white" opacity="0.3545494157834424" class="shimmer" style="animation-delay: 4.290452712050296s" />
<circle cx="256.8869182643196" cy="177.99640691751972" r="1.5515462774258197" fill="white" opacity="0.7522930883246326"  style="animation-delay: 1.0361083246717018s" />
<circle cx="701.8970675847308" cy="128.83418663372314" r="1.3744163782930328" fill="white" opacity="0.5739125402844596" class="shimmer" style="animation-delay: 4.808662965548884s" />
<circle cx="621.2720620518581" cy="53.77744326226925" r="1.736817952983424" fill="white" opacity="0.748195433753932"  style="animation-delay: 2.8600370029278235s" />
<circle cx="300.54551036195676" cy="36.14506386505965" r="0.6406508095652583" fill="white" opacity="0.5341925384076456"  style="animation-delay: 3.3362647885003893s" />
<circle cx="720.1596480941113" cy="13.190826424426438" r="1.169501457009551" fill="white" opacity="0.47222759515210105" class="shimmer" style="animation-delay: 3.5080160607597333s" />
<circle cx="10.500613201586617" cy="76.33094354103874" r="1.1957745098082013" fill="white" opacity="0.467195442413416"  style="animation-delay: 4.233825586997248s" />
<circle cx="117.92198750672789" cy="92.26330624700792" r="1.1322494542210815" fill="white" opacity="0.45189670566504975" class="shimmer" style="animation-delay: 3.032836410157964s" />
<circle cx="140.62080178021824" cy="196.1193632976218" r="0.6430566568967591" fill="white" opacity="0.33413067026488136"  style="animation-delay: 4.815290156882639s" />
<circle cx="441.21097727198037" cy="146.0936487904095" r="1.5585412108840542" fill="white" opacity="0.30938374146874353" class="shimmer" style="animation-delay: 3.808636351171959s" />
<circle cx="312.4668732988905" cy="198.51701864996514" r="0.9857497858364842" fill="white" opacity="0.3037939778654099"  style="animation-delay: 3.1664589469750393s" />
<circle cx="24.20545977161872" cy="8.187977956134596" r="0.9158661891031952" fill="white" opacity="0.5018412208258656" class="shimmer" style="animation-delay: 1.885581547661106s" />
<circle cx="282.05455452680894" cy="118.64103498776237" r="1.3482561763480059" fill="white" opacity="0.470833201382685"  style="animation-delay: 0.1872695151576409s" />
<circle cx="470.3352720943588" cy="152.01121247521132" r="1.4496595193679584" fill="white" opacity="0.7197419440993709"  style="animation-delay: 1.9524529653314904s" />
<circle cx="743.8770633502464" cy="95.19009479954063" r="1.6060716810846176" fill="white" opacity="0.7952166744623237"  style="animation-delay: 0.875695080459622s" />
<circle cx="429.52407306597246" cy="56.32588693405651" r="1.4770025740211246" fill="white" opacity="0.7531761337082308"  style="animation-delay: 4.908444724068827s" />
<circle cx="586.469236346252" cy="154.57543183551857" r="1.1952534379767163" fill="white" opacity="0.5396816843886989"  style="animation-delay: 3.0609902971569913s" />
<circle cx="522.0207456572919" cy="94.09669076683952" r="0.8652072333592327" fill="white" opacity="0.7996933133789919"  style="animation-delay: 1.8977653828935304s" />
<circle cx="145.12621780939253" cy="109.07525464690298" r="1.050214583081702" fill="white" opacity="0.4777280220008145"  style="animation-delay: 2.2700359015780966s" />
<circle cx="361.8035662921077" cy="140.16722930495956" r="1.2159818522309198" fill="white" opacity="0.5998181018169988" class="shimmer" style="animation-delay: 3.9948646554438874s" />
<circle cx="639.1506767128527" cy="121.97383904646028" r="1.8831684903010486" fill="#7b2cbf" opacity="0.8" filter="url(#glow)" class="shimmer" style="animation-delay: 1.6429651927460172s" />
<circle cx="702.2455597139267" cy="196.52126081114636" r="1.39322427793654" fill="#c77dff" opacity="0.8" filter="url(#glow)" class="shimmer" style="animation-delay: 1.2643317927891293s" />
<circle cx="656.0249378918971" cy="16.444174852994784" r="2.5526878855885853" fill="#4a0080" opacity="0.8" filter="url(#glow)" class="shimmer" style="animation-delay: 2.3355778923387196s" />
<circle cx="285.7063996296292" cy="79.83059827775887" r="1.7295614184173607" fill="#9d4edd" opacity="0.8" filter="url(#glow)" class="shimmer" style="animation-delay: 1.6431753586391924s" />
<circle cx="287.73453855280326" cy="37.37056254812781" r="2.6222843494091674" fill="#7b2cbf" opacity="0.8" filter="url(#glow)" class="shimmer" style="animation-delay: 0.8114278496149787s" />
<circle cx="731.4869471636367" cy="119.7064926934154" r="2.175687049831441" fill="#e0aaff" opacity="0.8" filter="url(#glow)" class="shimmer" style="animation-delay: 1.1966021360450523s" />
<circle cx="346.79526610618564" cy="146.0455106649291" r="2.1795581010626117" fill="#c77dff" opacity="0.8" filter="url(#glow)" class="shimmer" style="animation-delay: 1.254159583375376s" />
<circle cx="728.843224360884" cy="56.15646297747831" r="1.0193881212056781" fill="#9d4edd" opacity="0.8" filter="url(#glow)" class="shimmer" style="animation-delay: 1.2185425454570238s" />
<line x1="82.57377911972668" y1="123.71181927664045" x2="168.79507090682557" y2="110.61157590810069" stroke="#e0aaff" stroke-width="0.5" opacity="0.3" />

  
    <text x="400" y="120" text-anchor="middle" class="name-text" fill="url(#textGrad)" filter="url(#textGlow)">
      JOEL HOOKS
    </text>
  
</svg>
