<svg xmlns="http://www.w3.org/2000/svg" viewBox="0 0 800 200" width="800" height="200">
  <rect width="800" height="200" fill="#1a0a0a"/>
  
    <defs>
      <linearGradient id="grad1" x1="0%" y1="0%" x2="100%" y2="100%">
        <stop offset="0%" style="stop-color:#ff4500;stop-opacity:0.8" />
        <stop offset="100%" style="stop-color:#ff6b35;stop-opacity:0.8" />
      </linearGradient>
      <linearGradient id="grad2" x1="100%" y1="0%" x2="0%" y2="100%">
        <stop offset="0%" style="stop-color:#f7c59f;stop-opacity:0.7" />
        <stop offset="100%" style="stop-color:#efa48b;stop-opacity:0.7" />
      </linearGradient>
      <linearGradient id="textGrad" x1="0%" y1="0%" x2="100%" y2="0%">
        <stop offset="0%" style="stop-color:#ff4500" />
        <stop offset="25%" style="stop-color:#ff6b35" />
        <stop offset="50%" style="stop-color:#f7c59f" />
        <stop offset="75%" style="stop-color:#efa48b" />
        <stop offset="100%" style="stop-color:#d4a5a5" />
      </linearGradient>
      <filter id="glow">
        <feGaussianBlur stdDeviation="3" result="coloredBlur"/>
        <feMerge>
          <feMergeNode in="coloredBlur"/>
          <feMergeNode in="SourceGraphic"/>
        </feMerge>
      </filter>
      <filter id="textGlow">
        <feGaussianBlur stdDeviation="2" result="coloredBlur"/>
        <feMerge>
          <feMergeNode in="coloredBlur"/>
          <feMergeNode in="SourceGraphic"/>
        </feMerge>
      </filter>
    </defs>
  
  
    <style>
      @keyframes float {
        0%, 100% { transform: translateY(0px); }
        50% { transform: translateY(-8px); }
      }
      @keyframes pulse {
        0%, 100% { opacity: 0.4; }
        50% { opacity: 0.9; }
      }
      @keyframes drift {
        0% { transform: translateX(0px); }
        50% { transform: translateX(10px); }
        100% { transform: translateX(0px); }
      }
      @keyframes shimmer {
        0% { opacity: 0.3; }
        50% { opacity: 1; }
        100% { opacity: 0.3; }
      }
      @keyframes glitch {
        0%, 100% { transform: translateX(0); }
        20% { transform: translateX(-2px); }
        40% { transform: translateX(2px); }
        60% { transform: translateX(-1px); }
        80% { transform: translateX(1px); }
      }
      @keyframes dataStream {
        0% { stroke-dashoffset: 0; }
        100% { stroke-dashoffset: -20; }
      }
      .float { animation: float 8s ease-in-out infinite; }
      .pulse { animation: pulse 8s ease-in-out infinite; }
      .drift { animation: drift 8s ease-in-out infinite; }
      .shimmer { animation: shimmer 3s ease-in-out infinite; }
      .glitch { animation: glitch 0.5s ease-in-out infinite; }
      .dataStream { animation: dataStream 2s linear infinite; }
      .name-text { 
        font-family: -apple-system, BlinkMacSystemFont, 'Segoe UI', Helvetica, Arial, sans-serif;
        font-weight: 700;
        font-size: 64px;
        letter-spacing: -2px;
      }
    </style>
  
  <rect x="0" y="160" width="800" height="50" fill="#ff4500" opacity="0.3" />
<rect x="0" y="170" width="800" height="40" fill="#ff6b35" opacity="0.25" />
<rect x="0" y="180" width="800" height="30" fill="#f7c59f" opacity="0.19999999999999998" />
<rect x="0" y="190" width="800" height="20" fill="#efa48b" opacity="0.14999999999999997" />
<rect x="0" y="200" width="800" height="10" fill="#d4a5a5" opacity="0.09999999999999998" />
<line x1="431.75998431516325" y1="170" x2="431.75998431516325" y2="300.85640086888077" stroke="#ff4500" stroke-width="2.506441563623487" opacity="0.2687709958441602" class="pulse" />
<line x1="431.75998431516325" y1="170" x2="462.19771673955967" y2="283.59516387503413" stroke="#ff4500" stroke-width="2.0005764528769294" opacity="0.13823810158330913" class="pulse" />
<line x1="431.75998431516325" y1="170" x2="496.0584835637936" y2="281.368267549057" stroke="#ff4500" stroke-width="1.5238699338163069" opacity="0.27606985754433555" class="pulse" />
<line x1="431.75998431516325" y1="170" x2="512.5169522354462" y2="250.75696792028293" stroke="#ff4500" stroke-width="1.327629020129319" opacity="0.248254797718831" class="pulse" />
<line x1="431.75998431516325" y1="170" x2="524.0287817867469" y2="223.2714150580219" stroke="#ff4500" stroke-width="2.7862272788386266" opacity="0.19373783937680655" class="pulse" />
<line x1="431.75998431516325" y1="170" x2="519.8089056909461" y2="193.59263737707244" stroke="#ff4500" stroke-width="1.2931045244469592" opacity="0.19735919105052313" class="pulse" />
<line x1="431.75998431516325" y1="170" x2="518.9913936779748" y2="170" stroke="#ff4500" stroke-width="2.394742209850658" opacity="0.2584792467003463" class="pulse" />
<line x1="431.75998431516325" y1="170" x2="568.6716355963885" y2="133.31463360478423" stroke="#ff4500" stroke-width="2.7680997338882465" opacity="0.28523635701535643" class="pulse" />
<line x1="431.75998431516325" y1="170" x2="538.4716368368024" y2="108.38999869096185" stroke="#ff4500" stroke-width="1.8185849448880074" opacity="0.12951709805092232" class="pulse" />
<line x1="431.75998431516325" y1="170" x2="531.7626738898232" y2="69.99731042534012" stroke="#ff4500" stroke-width="2.947753008587114" opacity="0.1292490538778531" class="pulse" />
<line x1="431.75998431516325" y1="170" x2="494.2689752574059" y2="61.7312517581731" stroke="#ff4500" stroke-width="2.791495655302022" opacity="0.15580637515600837" class="pulse" />
<line x1="431.75998431516325" y1="170" x2="469.86538220525705" y2="27.788719031542257" stroke="#ff4500" stroke-width="2.7989333467019635" opacity="0.26169533407358225" class="pulse" />
<path d="M 525.4773157489785 30.15913832848397 C 525.783555302177 42.185417437279774, 527.055376368478 57.633850677412184, 519.9714772951814 67.15669431446682 C 512.8875782218848 76.67953795152145, 493.7579636047592 88.84467651724545, 482.9739213091986 87.29620015081179 C 472.189879013638 85.74772378437812, 466.7413250034495 67.38867975291947, 455.26722352181775 57.86583611586484 C 443.793122040186 48.3429924788102, 416.0610025988612 41.32639443706407, 414.12931241940805 30.159138328483976 C 412.1976222399549 18.991882219903886, 432.20298096346716 0.042477198164295515, 443.6770824450989 -9.137700535615721 C 455.15118392673065 -18.317878269395738, 470.5644283873833 -25.611381440414075, 482.9739213091986 -24.921928074196124 C 495.3834142310139 -24.232474707978174, 511.05014090269395 -14.18115807208804, 518.1340399759906 -5.000980338308025 C 525.2179390492872 4.17919739547199, 525.1710761957801 18.132859219688164, 525.4773157489785 30.15913832848397 Z" fill="#f7c59f" opacity="0.22843257286374852" class="drift" />
<path d="M 241.55297166755744 20.133895208064814 C 240.67870151134926 31.242817803979925, 230.06265213603155 44.43401547848881, 221.6237967659022 50.8378525271856 C 213.18494139577285 57.2416895758824, 203.0341247522142 56.67728463451972, 190.9198394467814 58.55691750024559 C 178.80555414134858 60.436550365971456, 157.77729766913166 68.51948677023762, 148.9380849333054 62.11564972154082 C 140.09887219747912 55.711812672844026, 136.5729476899567 32.81619803735633, 137.88456303182386 20.13389520806482 C 139.19617837369103 7.451592378773315, 147.9685642486821 -8.649767127622477, 156.80777698450837 -13.97816725420821 C 165.64698972033463 -19.306567380793943, 179.2428993270076 -11.530252919100098, 190.9198394467814 -11.836505551449573 C 202.5967795665552 -12.142758183799048, 218.43056233302192 -21.144083174890792, 226.86941770315127 -15.815683048305061 C 235.30827307328062 -10.48728292171933, 242.42724182376563 9.024972612149703, 241.55297166755744 20.133895208064814 Z" fill="#f7c59f" opacity="0.14846499476939454" class="drift" />
<path d="M 125.03257194789887 33.83876354653839 C 126.10749397120703 48.159803553328544, 131.0936238828979 69.35475981565465, 123.06825705183871 80.02664963683334 C 115.04289022077953 90.69853945801204, 91.81976070260217 98.32667476265047, 76.88037096154375 97.87010247361057 C 61.940981220485334 97.41353018457067, 39.778158593134954 87.95910572377261, 33.43191860548823 77.28721590259391 C 27.085678617841506 66.61532608141522, 36.60821108663539 46.12686104952889, 38.802931035663406 33.838763546538395 C 40.99765098469142 21.5506660435479, 40.253998312009564 13.065648190797136, 46.60023829965628 3.5586308846509347 C 52.946478287303 -5.948386421495266, 65.21062319282149 -21.62697007557906, 76.88037096154373 -23.203340290338815 C 88.55011873026598 -24.77971050509857, 108.59335808093053 -15.406607710053796, 116.61872491198972 -5.899590403907595 C 124.6440917430489 3.607426902238606, 123.95764992459071 19.517723539748232, 125.03257194789887 33.83876354653839 Z" fill="#f7c59f" opacity="0.16945876083050943" class="drift" />
<path d="M 435.68219603814924 31.99292018522451 C 433.6828465339105 38.114711220531646, 419.5360374660417 37.06631825363238, 413.83334083297916 44.36024477842962 C 408.1306441999166 51.65417130322685, 407.33279313344536 74.01214397140497, 401.46601623977404 75.75647933400793 C 395.5992393461027 77.5008146966109, 383.04561174975413 62.12018347884468, 378.6326794709511 54.826256954047444 C 374.219747192148 47.53233042925021, 376.26450804411024 40.88011791865331, 374.98842256695576 31.992920185224513 C 373.7123370898013 23.105722451795714, 366.5632343292211 5.2570481945439145, 370.97616660802413 1.5030705534746325 C 375.3890988868272 -2.250907087594649, 392.3238043647094 8.447983003290128, 401.46601623977404 9.469054338808824 C 410.60822811483865 10.49012567432752, 420.1267412253492 3.875520925517534, 425.8294378584117 7.629498566586815 C 431.53213449147427 11.383476207656095, 437.681545542388 25.871129149917376, 435.68219603814924 31.99292018522451 Z" fill="#f7c59f" opacity="0.11786997840243517" class="drift" />
<path d="M 324.377151510294 41.519588334552914 L 334.66755457516575 36.37438680211705 L 344.9579576400375 41.519588334552914" fill="none" stroke="#d4a5a5" stroke-width="1.5" opacity="0.4" class="float" style="animation-delay: 0.9366934755161569s" />
<path d="M 563.1546969312243 83.89090315844217 L 574.5404761641765 78.19801354196605 L 585.9262553971288 83.89090315844217" fill="none" stroke="#d4a5a5" stroke-width="1.5" opacity="0.4" class="float" style="animation-delay: 0.6318269281299076s" />
<path d="M 291.7263154394955 77.09061799181697 L 298.2649884465366 73.82128148829642 L 304.8036614535777 77.09061799181697" fill="none" stroke="#d4a5a5" stroke-width="1.5" opacity="0.4" class="float" style="animation-delay: 0.6030968184112144s" />
<path d="M 160.84658042817824 51.95088872060712 L 168.14448685300007 48.301935508196195 L 175.4423932778219 51.95088872060712" fill="none" stroke="#d4a5a5" stroke-width="1.5" opacity="0.4" class="float" style="animation-delay: 0.1564497224534087s" />
<path d="M 192.91424316615522 39.35194580386757 L 200.4301311580303 35.594001807930034 L 207.94601914990537 39.35194580386757" fill="none" stroke="#d4a5a5" stroke-width="1.5" opacity="0.4" class="float" style="animation-delay: 1.2732422754751496s" />

  
    <text x="400" y="120" text-anchor="middle" class="name-text" fill="url(#textGrad)" filter="url(#textGlow)">
      JOEL HOOKS
    </text>
  
</svg>
