<svg xmlns="http://www.w3.org/2000/svg" viewBox="0 0 800 200" width="800" height="200">
  <rect width="800" height="200" fill="#1a0a0a"/>
  
    <defs>
      <linearGradient id="grad1" x1="0%" y1="0%" x2="100%" y2="100%">
        <stop offset="0%" style="stop-color:#ff4500;stop-opacity:0.8" />
        <stop offset="100%" style="stop-color:#ff6b35;stop-opacity:0.8" />
      </linearGradient>
      <linearGradient id="grad2" x1="100%" y1="0%" x2="0%" y2="100%">
        <stop offset="0%" style="stop-color:#f7c59f;stop-opacity:0.7" />
        <stop offset="100%" style="stop-color:#efa48b;stop-opacity:0.7" />
      </linearGradient>
      <linearGradient id="textGrad" x1="0%" y1="0%" x2="100%" y2="0%">
        <stop offset="0%" style="stop-color:#ff4500" />
        <stop offset="25%" style="stop-color:#ff6b35" />
        <stop offset="50%" style="stop-color:#f7c59f" />
        <stop offset="75%" style="stop-color:#efa48b" />
        <stop offset="100%" style="stop-color:#d4a5a5" />
      </linearGradient>
      <filter id="glow">
        <feGaussianBlur stdDeviation="3" result="coloredBlur"/>
        <feMerge>
          <feMergeNode in="coloredBlur"/>
          <feMergeNode in="SourceGraphic"/>
        </feMerge>
      </filter>
      <filter id="textGlow">
        <feGaussianBlur stdDeviation="2" result="coloredBlur"/>
        <feMerge>
          <feMergeNode in="coloredBlur"/>
          <feMergeNode in="SourceGraphic"/>
        </feMerge>
      </filter>
    </defs>
  
  
    <style>
      @keyframes float {
        0%, 100% { transform: translateY(0px); }
        50% { transform: translateY(-8px); }
      }
      @keyframes pulse {
        0%, 100% { opacity: 0.4; }
        50% { opacity: 0.9; }
      }
      @keyframes drift {
        0% { transform: translateX(0px); }
        50% { transform: translateX(10px); }
        100% { transform: translateX(0px); }
      }
      @keyframes shimmer {
        0% { opacity: 0.3; }
        50% { opacity: 1; }
        100% { opacity: 0.3; }
      }
      @keyframes glitch {
        0%, 100% { transform: translateX(0); }
        20% { transform: translateX(-2px); }
        40% { transform: translateX(2px); }
        60% { transform: translateX(-1px); }
        80% { transform: translateX(1px); }
      }
      @keyframes dataStream {
        0% { stroke-dashoffset: 0; }
        100% { stroke-dashoffset: -20; }
      }
      .float { animation: float 8s ease-in-out infinite; }
      .pulse { animation: pulse 8s ease-in-out infinite; }
      .drift { animation: drift 8s ease-in-out infinite; }
      .shimmer { animation: shimmer 3s ease-in-out infinite; }
      .glitch { animation: glitch 0.5s ease-in-out infinite; }
      .dataStream { animation: dataStream 2s linear infinite; }
      .name-text { 
        font-family: -apple-system, BlinkMacSystemFont, 'Segoe UI', Helvetica, Arial, sans-serif;
        font-weight: 700;
        font-size: 64px;
        letter-spacing: -2px;
      }
    </style>
  
  <rect x="0" y="160" width="800" height="50" fill="#ff4500" opacity="0.3" />
<rect x="0" y="170" width="800" height="40" fill="#ff6b35" opacity="0.25" />
<rect x="0" y="180" width="800" height="30" fill="#f7c59f" opacity="0.19999999999999998" />
<rect x="0" y="190" width="800" height="20" fill="#efa48b" opacity="0.14999999999999997" />
<rect x="0" y="200" width="800" height="10" fill="#d4a5a5" opacity="0.09999999999999998" />
<line x1="508.42930008438094" y1="170" x2="508.42930008438094" y2="274.151421485741" stroke="#ff4500" stroke-width="2.0074281823990154" opacity="0.13860087187822434" class="pulse" />
<line x1="508.42930008438094" y1="170" x2="531.9066667376384" y2="257.6187251778801" stroke="#ff4500" stroke-width="1.4951365377148633" opacity="0.29440436070884823" class="pulse" />
<line x1="508.42930008438094" y1="170" x2="549.9760260744072" y2="241.9610403028678" stroke="#ff4500" stroke-width="1.9750293635733627" opacity="0.20736165036854382" class="pulse" />
<line x1="508.42930008438094" y1="170" x2="611.1448271892448" y2="272.7155271048639" stroke="#ff4500" stroke-width="2.205189225744333" opacity="0.21788329799154887" class="pulse" />
<line x1="508.42930008438094" y1="170" x2="599.8367739654577" y2="222.7741296511834" stroke="#ff4500" stroke-width="1.3781499824678924" opacity="0.22679030441309783" class="pulse" />
<line x1="508.42930008438094" y1="170" x2="586.8256969836455" y2="191.00625123866772" stroke="#ff4500" stroke-width="1.8381981376995506" opacity="0.1309579678657336" class="pulse" />
<line x1="508.42930008438094" y1="170" x2="602.694383518815" y2="170" stroke="#ff4500" stroke-width="2.737770510736996" opacity="0.25760152675158027" class="pulse" />
<line x1="508.42930008438094" y1="170" x2="612.7263113329063" y2="142.05370006297792" stroke="#ff4500" stroke-width="1.850258055375559" opacity="0.20472446796828922" class="pulse" />
<line x1="508.42930008438094" y1="170" x2="602.5690815306717" y2="115.6483718405315" stroke="#ff4500" stroke-width="2.9879222069888747" opacity="0.13722028072549955" class="pulse" />
<line x1="508.42930008438094" y1="170" x2="580.6306975074468" y2="97.79860257693412" stroke="#ff4500" stroke-width="1.0085440859320887" opacity="0.213095587590457" class="pulse" />
<line x1="508.42930008438094" y1="170" x2="551.8504587206612" y2="94.79234711845447" stroke="#ff4500" stroke-width="2.8182369186448666" opacity="0.17896813346677914" class="pulse" />
<line x1="508.42930008438094" y1="170" x2="540.0860379041468" y2="51.855446054746665" stroke="#ff4500" stroke-width="1.588302542356041" opacity="0.11441811951972079" class="pulse" />
<path d="M 160.2302108840572 32.476536207277405 C 162.6978056594964 42.838803316031346, 160.6859024547029 65.13208789734064, 153.07912363831616 70.96612185985686 C 145.47234482192943 76.80015582237307, 124.90310182931897 69.99703802298555, 114.5895379857367 67.48073998237467 C 104.27597414215442 64.9644419417638, 97.52040449444607 61.702367578707765, 91.19774057682255 55.868333616191556 C 84.87507665919904 50.03429965367535, 76.51164577345995 40.1318933037131, 76.65355447999565 32.47653620727741 C 76.79546318653135 24.821179110841726, 85.72652889841322 15.845294063315528, 92.04919281603672 9.936191037577437 C 98.37185673366022 4.0270880118393455, 106.88547762412934 -2.78746997544377, 114.5895379857367 -2.9780819471511393 C 122.29359834734406 -3.1686939188585086, 130.66677616929414 2.8834161815951305, 138.27355498568087 8.792519207333221 C 145.8803338020676 14.701622233071312, 157.76261610861798 22.114269098523465, 160.2302108840572 32.476536207277405 Z" fill="#f7c59f" opacity="0.19067213916870082" class="drift" />
<path d="M 280.5566321207401 72.52250389616754 C 279.9224719480994 85.57810150391748, 270.3019919281761 97.61472819603065, 260.79820142859774 109.78681620149527 C 251.2944109290194 121.95890420695989, 236.2938711211693 145.21648736616515, 223.53388912327003 145.5550319289552 C 210.77390712537076 145.89357649174525, 192.6289159508925 123.99017158370015, 184.23830944120203 111.81808357823553 C 175.84770293151158 99.64599557277091, 172.4506249816701 84.88140537339967, 173.1902500651273 72.52250389616754 C 173.92987514858447 60.16360241893539, 180.2854534322547 47.090589962452995, 188.67605994194517 37.664674714842675 C 197.06666645163563 28.238759467232356, 210.87937203618725 17.00225310381347, 223.53388912327003 15.967012410505632 C 236.1884062103528 14.931771717197792, 255.09937196486354 22.027315307385322, 264.6031624644419 31.453230554995642 C 274.10695296402025 40.87914580260596, 281.1907922933808 59.4669062884176, 280.5566321207401 72.52250389616754 Z" fill="#f7c59f" opacity="0.21141983204336123" class="drift" />
<path d="M 243.05435922935234 58.41798926890112 C 244.02332754189496 74.18430619796268, 238.27776015784465 101.25506867006213, 227.28126919858062 108.62384499371367 C 216.28477823931658 115.99262131736522, 190.74020515934743 105.70114076683525, 177.07541347376807 102.63064721081042 C 163.4106217881887 99.5601536547856, 155.89594497582215 97.56965998121625, 145.2925190851045 90.2008836575647 C 134.68909319438683 82.83210733391316, 115.70975041644274 71.2671796854362, 113.4548581294622 58.417989268901124 C 111.19996584248165 45.568798852366044, 121.15973947250352 24.536505845444815, 131.76316536322116 13.10574115835422 C 142.3665912539388 1.6749764712636246, 162.12469781375077 -10.319965897140808, 177.07541347376807 -10.166598853642462 C 192.02612913378536 -10.013231810144116, 210.47096836406084 2.5951787322536983, 221.46745932332487 14.025943419344294 C 232.4639502825889 25.45670810643489, 242.08539091680973 42.65167233983955, 243.05435922935234 58.41798926890112 Z" fill="#f7c59f" opacity="0.1115256737213242" class="drift" />
<path d="M 575.1197551954335 34.09858844026476 C 577.3738531204569 48.22907215578539, 569.7200674393167 76.2619808104932, 558.809380903767 83.25233336189686 C 547.8986943682172 90.24268591330052, 523.5274999408068 78.55342143055876, 509.6556359821348 76.04070374868675 C 495.7837720234628 73.52798606681475, 486.11504238703 75.16637982206849, 475.57819715173474 68.17602727066483 C 465.0413519164395 61.18567471926117, 447.501733077281 46.52490322398243, 446.43456457036336 34.09858844026477 C 445.3673960634457 21.672273656547112, 458.6383408749337 1.6715994995616104, 469.17518611022894 -6.381861431641113 C 479.71203134552417 -14.435322362843836, 496.97070144156856 -15.0307258970206, 509.6556359821348 -14.222177146951566 C 522.3405705227011 -13.413628396882531, 534.3741068180767 -9.584029862429624, 545.2847933536265 -1.5305689312269024 C 556.1954798891762 6.522891999975819, 572.8656572704101 19.968104724744137, 575.1197551954335 34.09858844026476 Z" fill="#f7c59f" opacity="0.10932128641000799" class="drift" />
<path d="M 580.3106506280997 54.641482703091384 L 591.7949915575844 48.89931223834907 L 603.279332487069 54.641482703091384" fill="none" stroke="#d4a5a5" stroke-width="1.5" opacity="0.4" class="float" style="animation-delay: 2.4286198672040866s" />
<path d="M 118.76007160007256 38.131705076965744 L 129.0716734054635 32.97590417427027 L 139.38327521085446 38.131705076965744" fill="none" stroke="#d4a5a5" stroke-width="1.5" opacity="0.4" class="float" style="animation-delay: 0.42858689496359403s" />
<path d="M 611.8779936786631 25.366748078711336 L 619.2264140102667 21.692537912909522 L 626.5748343418703 25.366748078711336" fill="none" stroke="#d4a5a5" stroke-width="1.5" opacity="0.4" class="float" style="animation-delay: 0.7407018289901384s" />
<path d="M 224.0045274697176 80.73524180862597 L 234.56540273701617 75.45480417497669 L 245.12627800431474 80.73524180862597" fill="none" stroke="#d4a5a5" stroke-width="1.5" opacity="0.4" class="float" style="animation-delay: 2.6224558242407126s" />
<path d="M 330.8542155874655 60.53203605663585 L 339.3374374568026 56.290425121967296 L 347.8206593261397 60.53203605663585" fill="none" stroke="#d4a5a5" stroke-width="1.5" opacity="0.4" class="float" style="animation-delay: 0.548038528448346s" />

  
    <text x="400" y="120" text-anchor="middle" class="name-text" fill="url(#textGrad)" filter="url(#textGlow)">
      JOEL HOOKS
    </text>
  
</svg>
