<svg xmlns="http://www.w3.org/2000/svg" viewBox="0 0 800 200" width="800" height="200">
  <rect width="800" height="200" fill="#0d1117"/>
  
    <defs>
      <linearGradient id="grad1" x1="0%" y1="0%" x2="100%" y2="100%">
        <stop offset="0%" style="stop-color:#ff006e;stop-opacity:0.8" />
        <stop offset="100%" style="stop-color:#00f5ff;stop-opacity:0.8" />
      </linearGradient>
      <linearGradient id="grad2" x1="100%" y1="0%" x2="0%" y2="100%">
        <stop offset="0%" style="stop-color:#ff00ff;stop-opacity:0.7" />
        <stop offset="100%" style="stop-color:#7d00ff;stop-opacity:0.7" />
      </linearGradient>
      <linearGradient id="grad3" x1="0%" y1="100%" x2="100%" y2="0%">
        <stop offset="0%" style="stop-color:#7d00ff;stop-opacity:0.6" />
        <stop offset="100%" style="stop-color:#ff006e;stop-opacity:0.6" />
      </linearGradient>
      <linearGradient id="textGrad" x1="0%" y1="0%" x2="100%" y2="0%">
        <stop offset="0%" style="stop-color:#ff006e" />
        <stop offset="25%" style="stop-color:#00f5ff" />
        <stop offset="50%" style="stop-color:#ff00ff" />
        <stop offset="75%" style="stop-color:#7d00ff" />
        <stop offset="100%" style="stop-color:#ff006e" />
      </linearGradient>
      <filter id="glow">
        <feGaussianBlur stdDeviation="3" result="coloredBlur"/>
        <feMerge>
          <feMergeNode in="coloredBlur"/>
          <feMergeNode in="SourceGraphic"/>
        </feMerge>
      </filter>
      <filter id="textGlow">
        <feGaussianBlur stdDeviation="2" result="coloredBlur"/>
        <feMerge>
          <feMergeNode in="coloredBlur"/>
          <feMergeNode in="SourceGraphic"/>
        </feMerge>
      </filter>
    </defs>
  
  
    <style>
      @keyframes float {
        0%, 100% { transform: translateY(0px); }
        50% { transform: translateY(-8px); }
      }
      @keyframes pulse {
        0%, 100% { opacity: 0.4; }
        50% { opacity: 0.9; }
      }
      @keyframes drift {
        0% { transform: translateX(0px); }
        50% { transform: translateX(10px); }
        100% { transform: translateX(0px); }
      }
      @keyframes shimmer {
        0% { opacity: 0.6; }
        50% { opacity: 1; }
        100% { opacity: 0.6; }
      }
      .float { animation: float 6s ease-in-out infinite; }
      .float-delay { animation: float 6s ease-in-out infinite; animation-delay: -3s; }
      .pulse { animation: pulse 4s ease-in-out infinite; }
      .drift { animation: drift 8s ease-in-out infinite; }
      .shimmer { animation: shimmer 3s ease-in-out infinite; }
      .name-text { 
        font-family: -apple-system, BlinkMacSystemFont, 'Segoe UI', Helvetica, Arial, sans-serif;
        font-weight: 700;
        font-size: 64px;
        letter-spacing: -2px;
      }
    </style>
  
  <path class="float" d="M 437.3917514757008 64.5637360760556 C 435.4428157998856 79.30619224828274, 407.02359722387257 91.57985178060639, 394.1813890594627 103.8850509724426 C 381.3391808950528 116.19025016427881, 375.1204478078367 132.87310074890036, 360.3385024892416 138.39493122707285 C 345.5565571706465 143.91676170524534, 316.13688992932015 146.23569933578898, 305.48971714789207 137.01603384147745 C 294.842544366464 127.79636834716592, 297.1955391475656 97.95918649253016, 296.455465800673 83.07693826120368 C 295.71539245378034 68.1946900298772, 298.90207643318 61.77236424455158, 301.0492770665362 47.722544453518495 C 303.1964776998924 33.67272466248541, 299.3755149522113 8.739226887890396, 309.3386696008103 -1.2219804849948446 C 319.3018242494093 -11.183187857880085, 344.7388160392064 -14.820082187805388, 360.8282049581304 -12.04469978379295 C 376.9175938770544 -9.269317379780512, 393.1144120280923 2.662241295771688, 405.87500311435406 15.430313939079781 C 418.6355942006158 28.198386582387876, 439.340687151516 49.82127990382847, 437.3917514757008 64.5637360760556 Z" fill="url(#grad3)" opacity="0.42559322199941607" />
<path class="float-delay" d="M 203.48019325388015 50.03828828315877 C 204.13230630697413 58.6906558494297, 190.48279537068953 69.48535067624229, 183.02997110068048 77.63695444898275 C 175.57714683067144 85.7885582217232, 168.5894929730801 96.02289131359312, 158.76324763382584 98.94791091960155 C 148.93700229457158 101.87293052560999, 131.1881919516781 101.27192722314038, 124.072499065155 95.18707208503336 C 116.9568061786319 89.10221694692635, 121.62942203376716 73.56862083799064, 116.06909031468719 62.438780090959426 C 110.50875859560722 51.308939343928216, 88.4328113053243 36.36487093643291, 90.71050875067523 28.408027602846097 C 92.98820619602617 20.451184269259283, 118.66731400406702 17.689429516497057, 129.73527498679277 14.69772008943854 C 140.8032359695185 11.706010662380024, 148.8879383478091 8.620266213508565, 157.11827464702972 10.457771040494997 C 165.34861094625035 12.295275867481429, 171.39030634764146 19.125996177579843, 179.11729278211652 25.722749051357138 C 186.8442792165916 32.31950192513443, 202.82808020078616 41.38592071688784, 203.48019325388015 50.03828828315877 Z" fill="url(#grad3)" opacity="0.4629328451379693" />
<path class="float" d="M 491.9812482318452 164.72311706270165 C 491.05356418617316 186.33298975774503, 466.1413095683734 210.8894600912702, 447.03406735095996 226.0628981503662 C 427.9268251335465 241.23633620946222, 398.8150244879266 259.5703386378593, 377.3377949273644 255.76374541727768 C 355.86056536680223 251.95715219669603, 327.29503355128577 224.45863678567233, 318.1706899875867 203.2233388268763 C 309.0463464238876 181.98804086808028, 312.3795466817642 148.40425601189514, 322.59173354516975 128.35195766450155 C 332.80392040857527 108.29965931710795, 357.7757381547161 88.234264689914, 379.44381116801986 82.90954874251472 C 401.1118841813236 77.58483279511543, 433.8439321143545 82.76806726007473, 452.6001716249921 96.40366198010588 C 471.3564111356296 110.03925670013703, 492.90893227751724 143.11324436765827, 491.9812482318452 164.72311706270165 Z" fill="url(#grad3)" opacity="0.450005918895936" />
<path class="float-delay" d="M 757.407116647967 102.18425729258772 C 756.4036283501441 120.09352339642221, 726.2183586301218 136.85671313405496, 704.7893775882951 150.6977774542013 C 683.3603965464685 164.53884177434762, 649.1744088441467 193.31622990706794, 628.8332303970068 185.23064321346567 C 608.4920519498669 177.1450565198634, 581.139058822418 127.0894787959211, 582.742306905456 102.18425729258773 C 584.345554988494 77.27903578925437, 617.1080521502722 45.622993603697715, 638.452718895235 35.79931419346548 C 659.7973856401977 25.97563478323324, 690.9845744164435 32.178023648007276, 710.8103073752321 43.24218083119432 C 730.6360403340208 54.30633801438136, 758.4106049457898 84.27499118875322, 757.407116647967 102.18425729258772 Z" fill="url(#grad2)" opacity="0.4302686095684753" />
<path class="float" d="M 511.98974569739795 150.77967585820676 C 511.5268263424259 175.36854252458116, 508.9903617813304 207.15072373949639, 489.76492097814014 222.140876329474 C 470.53948017494986 237.1310289194516, 416.1940759913746 252.61412480995028, 396.6371008782563 240.7205913980724 C 377.08012576513806 228.82705798619452, 370.8606605907208 178.05380804043781, 372.4230702994305 150.77967585820676 C 373.9854800081402 123.5055436759757, 385.99166466242434 89.77113155918256, 406.0115591305147 77.07579830468605 C 426.031453598605 64.38046505018953, 474.8794060134919 62.323696738974185, 492.5424371079725 74.60767633122764 C 510.20546820245306 86.8916559234811, 512.45266505237 126.19080919183237, 511.98974569739795 150.77967585820676 Z" fill="url(#grad2)" opacity="0.37929309551387336" />
<path class="pulse" d="M -50 128.62078614976187 C -43.333333333333336 122.88028419776927, -36.666666666666664 112.62422581406098, -30 133.68715717584786 C -23.333333333333332 127.93997472879649, -16.666666666666664 148.53484836002747, -10 138.77684873217999 C -3.333333333333333 130.8350480719461, 3.333333333333334 151.55434620423895, 10 143.499171086504 C 16.666666666666668 126.90754081229315, 23.333333333333336 154.34106850665322, 30 135.1247283698511 C 36.666666666666664 145.56177666878494, 43.333333333333336 144.70352124372158, 50 136.38626643155067 C 56.666666666666664 140.9007123386853, 63.333333333333336 146.58804156761155, 70 129.47215393582974 C 76.66666666666667 119.75351948002809, 83.33333333333333 138.49845251446996, 90 132.09722041997694 C 96.66666666666667 125.76844542946338, 103.33333333333333 144.87821241668908, 110 126.43401001605405 C 116.66666666666667 137.43522053324608, 123.33333333333333 114.38173506810304, 130 130.8972266082044 C 136.66666666666666 125.63930693758492, 143.33333333333334 132.34067319543965, 150 125.72340363015601 C 156.66666666666666 137.38234630809723, 163.33333333333334 118.96502333176805, 170 129.84641727527094 C 176.66666666666666 125.99625531181634, 183.33333333333334 120.81321792679003, 190 129.06037321146243 C 196.66666666666666 113.01656099173591, 203.33333333333334 122.36900792990383, 210 128.66427672606008 C 216.66666666666666 134.60359899870664, 223.33333333333334 132.69940815573725, 230 135.11404402592234 C 236.66666666666666 144.12226316780288, 243.33333333333334 120.69312466765233, 250 132.99767501628995 C 256.6666666666667 147.7743971764554, 263.3333333333333 121.77887574122084, 270 135.9332796610392 C 276.6666666666667 151.84557450280414, 283.3333333333333 148.81929489697575, 290 142.9552212910905 C 296.6666666666667 146.03916434831766, 303.3333333333333 148.95794447873143, 310 143.79293247940294 C 316.6666666666667 151.80452784112774, 323.3333333333333 157.3224940306116, 330 139.94884157772427 C 336.6666666666667 147.7932425157386, 343.3333333333333 154.97467424338743, 350 146.14272221903497 C 356.6666666666667 155.28921809375382, 363.3333333333333 131.55981192582288, 370 151.06066904642935 C 376.6666666666667 146.7993236423107, 383.3333333333333 155.95156650363077, 390 146.0477784727769 C 396.6666666666667 144.17245669419972, 403.3333333333333 153.78039890769566, 410 141.20093065153202 C 416.6666666666667 125.11720087215377, 423.3333333333333 148.41843326547996, 430 148.9345331636824 C 436.6666666666667 149.19194169157828, 443.3333333333333 146.81126355669963, 450 141.97731202645372 C 456.6666666666667 145.41024758456953, 463.3333333333333 138.04434811357555, 470 141.77768614769406 C 476.6666666666667 148.13138708459806, 483.3333333333333 134.2731514633938, 490 137.08614704723814 C 496.6666666666667 144.92474654805798, 503.3333333333333 146.31384220091192, 510 138.0013817785482 C 516.6666666666666 121.54176626802422, 523.3333333333334 150.3545258322555, 530 145.5749766816914 C 536.6666666666666 148.87161846337824, 543.3333333333334 136.13320882627514, 550 138.6098375533408 C 556.6666666666666 129.76902668141162, 563.3333333333334 140.1055678774221, 570 139.7175307524034 C 576.6666666666666 140.5779517965061, 583.3333333333334 123.311408107435, 590 132.20450951274537 C 596.6666666666666 121.80153693152418, 603.3333333333334 134.19268541627414, 610 131.20680602170023 C 616.6666666666666 122.4749079357913, 623.3333333333334 134.64323751830153, 630 130.09405714828824 C 636.6666666666666 124.21401765857414, 643.3333333333334 142.3345604427122, 650 126.33048505340197 C 656.6666666666666 142.38896686618835, 663.3333333333334 127.89958840072015, 670 125.83258286962347 C 676.6666666666666 137.10054747964688, 683.3333333333334 130.72744145824734, 690 133.16456602344124 C 696.6666666666666 143.90682771592162, 703.3333333333334 132.5948696469632, 710 130.1205479576387 C 716.6666666666666 131.11593373366082, 723.3333333333334 119.69361082145124, 730 129.28742164407132 C 736.6666666666666 123.11747355325944, 743.3333333333334 133.25360753875177, 750 133.98954315190645 C 756.6666666666666 121.35223514146028, 763.3333333333334 136.5938801930338, 770 134.09464924149265 C 776.6666666666666 124.00559606301088, 783.3333333333334 147.24157655427982, 790 132.4817501745121 C 796.6666666666666 123.47778366547394, 803.3333333333334 119.82557261173594, 810 135.40858452129038 C 816.6666666666666 134.5251451893073, 823.3333333333334 150.4821025322827, 830 141.60964155901144 C 836.6666666666666 149.08611130131328, 843.3333333333334 134.89701415082658, 850 145.11462414726947" fill="none" stroke="#00ff9f" stroke-width="1.1818943864728415" opacity="0.3545786174377426" stroke-linecap="round" filter="url(#glow)" />
<path class="drift" d="M -50 168.19626664623604 C -43.333333333333336 148.0854474904487, -36.666666666666664 145.07672099729228, -30 171.71429411898495 C -23.333333333333332 166.52541854589035, -16.666666666666664 164.36554117388246, -10 159.09276352646896 C -3.333333333333333 171.90545241831248, 3.333333333333334 169.230801612741, 10 149.00432380185782 C 16.666666666666668 119.39314521109546, 23.333333333333336 121.02463337240789, 30 134.0433700584079 C 36.666666666666664 144.54101233551376, 43.333333333333336 106.54038171520199, 50 132.5433682886744 C 56.666666666666664 135.30291754126657, 63.333333333333336 131.1601619500912, 70 127.08847120048064 C 76.66666666666667 107.78262128338805, 83.33333333333333 109.94334456033873, 90 112.78495799464659 C 96.66666666666667 90.41151128857693, 103.33333333333333 98.61327879998382, 110 109.48450285856103 C 116.66666666666667 137.1544098580129, 123.33333333333333 106.05555486992033, 130 122.16281510522765 C 136.66666666666666 109.08034027744091, 143.33333333333334 135.0206406387511, 150 118.04443545241861 C 156.66666666666666 137.92319127142264, 163.33333333333334 89.87892673566746, 170 110.59723478809866 C 176.66666666666666 131.43934045364438, 183.33333333333334 132.479702567642, 190 117.63324735568816 C 196.66666666666666 92.88372319462265, 203.33333333333334 101.91517622734374, 210 132.9055235535079 C 216.66666666666666 121.02377477546302, 223.33333333333334 142.90002665613676, 230 119.93592322546432 C 236.66666666666666 109.56229178504088, 243.33333333333334 150.83514775313515, 250 119.32922202049393 C 256.6666666666667 133.73782716247777, 263.3333333333333 125.52089052180912, 270 115.75101415433912 C 276.6666666666667 133.15289180638584, 283.3333333333333 111.4758840958782, 290 115.37289044136347 C 296.6666666666667 145.85570352192582, 303.3333333333333 91.9906768792485, 310 115.27589394726228 C 316.6666666666667 109.92381436621245, 323.3333333333333 121.69161809582184, 330 117.08099084153261 C 336.6666666666667 129.5422111167311, 343.3333333333333 96.21776624608448, 350 125.24712352650045 C 356.6666666666667 109.33103503454797, 363.3333333333333 121.12520285008257, 370 117.73234890645753 C 376.6666666666667 142.07386133799181, 383.3333333333333 115.44609830683905, 390 130.9311441579648 C 396.6666666666667 107.1181596962391, 403.3333333333333 136.57104019558676, 410 121.10237245687512 C 416.6666666666667 127.38093146393817, 423.3333333333333 94.3107556469447, 430 130.46649129715064 C 436.6666666666667 110.64316256385013, 443.3333333333333 160.62155183760765, 450 123.2307245337407 C 456.6666666666667 99.43611986109008, 463.3333333333333 153.07416550747314, 470 111.64703815796392 C 476.6666666666667 86.77526785220716, 483.3333333333333 107.24078232176169, 490 101.85652546345639 C 496.6666666666667 127.7983423918292, 503.3333333333333 96.48432074595848, 510 95.7347466646274 C 516.6666666666666 122.49190188961214, 523.3333333333334 72.51292570680513, 530 97.03705993384821 C 536.6666666666666 113.05800668447262, 543.3333333333334 81.91058585168042, 550 105.09678892377985 C 556.6666666666666 128.34189964049062, 563.3333333333334 110.39898953597688, 570 106.39082351847705 C 576.6666666666666 136.88288124132117, 583.3333333333334 117.20610077411803, 590 94.51727434384101 C 596.6666666666666 77.71628582961193, 603.3333333333334 77.98685225869855, 610 94.99498393337213 C 616.6666666666666 112.26948056304587, 623.3333333333334 87.62882829277359, 630 90.64740117315966 C 636.6666666666666 69.98377603312852, 643.3333333333334 93.93108378300171, 650 86.88274893836628 C 656.6666666666666 100.23521603475513, 663.3333333333334 96.34214002196055, 670 93.35374876107907 C 676.6666666666666 77.07859741093077, 683.3333333333334 69.42464526102775, 690 88.87994170862342 C 696.6666666666666 58.46052791919212, 703.3333333333334 79.76421592330196, 710 95.08605642179565 C 716.6666666666666 96.39844791150061, 723.3333333333334 90.03352319838842, 730 99.25614424037046 C 736.6666666666666 126.99370046305117, 743.3333333333334 107.41051114449778, 750 103.00099895099832 C 756.6666666666666 73.9307126795949, 763.3333333333334 123.83784886023372, 770 117.96911355224962 C 776.6666666666666 135.6344353949747, 783.3333333333334 135.53512226947265, 790 121.5420290267779 C 796.6666666666666 97.56140032887876, 803.3333333333334 95.38390502014077, 810 130.97670810850798 C 816.6666666666666 134.54072009083146, 823.3333333333334 135.80772515581646, 830 123.37484116529734 C 836.6666666666666 129.31232893758926, 843.3333333333334 143.56753384795488, 850 127.38507214723148" fill="none" stroke="#7d00ff" stroke-width="2.5531434712185814" opacity="0.48890504368523013" stroke-linecap="round" filter="url(#glow)" />
<path class="pulse" d="M -50 66.08405599492914 C -43.333333333333336 66.62117054176628, -36.666666666666664 53.973687240874796, -30 65.65254089496999 C -23.333333333333332 80.1064649181694, -16.666666666666664 50.68659498356679, -10 68.94252424820074 C -3.333333333333333 82.52672746684709, 3.333333333333334 57.77942655974232, 10 68.33737327428038 C 16.666666666666668 67.87560460217921, 23.333333333333336 70.21639164635636, 30 74.12606034785009 C 36.666666666666664 81.83881234848035, 43.333333333333336 64.64676347573388, 50 75.5950339463456 C 56.666666666666664 68.3758415983548, 63.333333333333336 82.26469154309967, 70 72.09747062129958 C 76.66666666666667 76.4723326152459, 83.33333333333333 82.14239169061257, 90 68.9157927219356 C 96.66666666666667 63.64517290745143, 103.33333333333333 66.82933884723455, 110 70.40204342163011 C 116.66666666666667 67.50785060013368, 123.33333333333333 81.03772799788588, 130 76.90642267268372 C 136.66666666666666 69.36620332868415, 143.33333333333334 80.32327862859864, 150 77.9525457829798 C 156.66666666666666 86.47084259003674, 163.33333333333334 89.68717845913254, 170 82.47092841591825 C 176.66666666666666 72.03332454718067, 183.33333333333334 87.63215754033199, 190 77.17765731081718 C 196.66666666666666 80.34398916631086, 203.33333333333334 84.94028837401163, 210 79.50489671787855 C 216.66666666666666 91.36506644407862, 223.33333333333334 66.16551171642584, 230 79.57845528466719 C 236.66666666666666 93.29726456909302, 243.33333333333334 75.22334722255943, 250 83.13070792159587 C 256.6666666666667 71.71080137873903, 263.3333333333333 82.38599726576928, 270 76.19240949779656 C 276.6666666666667 72.24101181143824, 283.3333333333333 63.66535629705684, 290 78.28852586979426 C 296.6666666666667 64.35370471645635, 303.3333333333333 63.22580320892527, 310 75.75930312305792 C 316.6666666666667 79.72486388593889, 323.3333333333333 60.614986201626884, 330 82.66821191366067 C 336.6666666666667 79.86267157072768, 343.3333333333333 89.4837533601254, 350 75.40416139683562 C 356.6666666666667 75.06624838330687, 363.3333333333333 75.49183526737141, 370 71.7245635563829 C 376.6666666666667 63.04522134457977, 383.3333333333333 70.59825249644453, 390 65.31320252218916 C 396.6666666666667 75.64379810833242, 403.3333333333333 59.39891125860855, 410 58.78978081972985 C 416.6666666666667 44.47260474905539, 423.3333333333333 66.1363831637278, 430 63.2125140619153 C 436.6666666666667 53.65968709044871, 443.3333333333333 65.79934760886611, 450 69.40729685657902 C 456.6666666666667 71.81820583086107, 463.3333333333333 56.18680242805793, 470 64.10081470480428 C 476.6666666666667 59.92705634459304, 483.3333333333333 71.54011764916272, 490 64.22494120499707 C 496.6666666666667 75.81198826933884, 503.3333333333333 75.13863092872506, 510 57.69919090604576 C 516.6666666666666 44.89928807583446, 523.3333333333334 51.019224398309845, 530 63.71183991743513 C 536.6666666666666 68.2586167063855, 543.3333333333334 78.30821352111528, 550 67.52324833302019 C 556.6666666666666 79.1676231093947, 563.3333333333334 74.50971858894835, 570 60.421935492202074 C 576.6666666666666 46.23876643826888, 583.3333333333334 64.02054954059254, 590 60.37757941100914 C 596.6666666666666 62.295326858523794, 603.3333333333334 73.4677100157087, 610 58.964324131982806 C 616.6666666666666 65.84564448581352, 623.3333333333334 64.16936554352108, 630 59.747034746144536 C 636.6666666666666 59.86608686602681, 643.3333333333334 46.393056368990756, 650 53.509437579562565 C 656.6666666666666 41.65241858713618, 663.3333333333334 66.48945053515206, 670 57.51704935267587 C 676.6666666666666 43.07830245511903, 683.3333333333334 46.45457044213964, 690 56.45257074973003 C 696.6666666666666 57.054412457297104, 703.3333333333334 65.33411147197484, 710 51.116897421471506 C 716.6666666666666 45.3812906027501, 723.3333333333334 45.21990696712873, 730 50.82111417306417 C 736.6666666666666 44.08991316328782, 743.3333333333334 48.9526993490665, 750 51.31225339736858 C 756.6666666666666 51.556362850792254, 763.3333333333334 65.92607063583608, 770 43.73894316037035 C 776.6666666666666 52.5621694412327, 783.3333333333334 54.83442858156519, 790 48.70548077859304 C 796.6666666666666 42.338611255112085, 803.3333333333334 51.653850417010176, 810 48.72752034948268 C 816.6666666666666 62.75346864159803, 823.3333333333334 50.602674545645286, 830 42.1301477917677 C 836.6666666666666 51.37143283922462, 843.3333333333334 56.088630972350444, 850 39.73143170112087" fill="none" stroke="#00f5ff" stroke-width="1.0994925579854447" opacity="0.5497704691787708" stroke-linecap="round" filter="url(#glow)" />
<path class="drift" d="M -50 157.60918220032585 C -43.333333333333336 150.17689559634354, -36.666666666666664 182.19575233888972, -30 162.78805590842796 C -23.333333333333332 188.71885409887815, -16.666666666666664 164.7632537231606, -10 172.07493731240316 C -3.333333333333333 195.57597849955914, 3.333333333333334 166.61926798411423, 10 185.45346978378905 C 16.666666666666668 186.41247055851386, 23.333333333333336 165.11866890176276, 30 184.88491913801448 C 36.666666666666664 201.0296249037709, 43.333333333333336 180.07063535881113, 50 192.37553887077303 C 56.666666666666664 194.3968692961455, 63.333333333333336 212.5438136941016, 70 206.84679418070314 C 76.66666666666667 235.5255464617452, 83.33333333333333 216.49932980453744, 90 198.50749764292175 C 96.66666666666667 210.80329400552878, 103.33333333333333 215.42392253307668, 110 205.7933214655617 C 116.66666666666667 218.35370390672156, 123.33333333333333 181.41495057929524, 130 212.6761750781866 C 136.66666666666666 231.06757590815113, 143.33333333333334 180.92585984675702, 150 209.68048451157972 C 156.66666666666666 188.5106656333223, 163.33333333333334 208.3855243863433, 170 199.0322302480942 C 176.66666666666666 183.7877039076376, 183.33333333333334 187.64612150835316, 190 184.04628216618022 C 196.66666666666666 206.20077052533503, 203.33333333333334 212.78933349630753, 210 193.9190192978759 C 216.66666666666666 174.81625902690087, 223.33333333333334 223.67338403054262, 230 194.04701617163627 C 236.66666666666666 195.99574648774293, 243.33333333333334 165.8077329777207, 250 196.95695442931387 C 256.6666666666667 184.38042463046966, 263.3333333333333 222.43300237564458, 270 188.62662478819226 C 276.6666666666667 184.4251010147322, 283.3333333333333 191.74804556852234, 290 173.4655742193634 C 296.6666666666667 187.32937443212157, 303.3333333333333 200.39252168215953, 310 180.77041344385648 C 316.6666666666667 195.5699766772549, 323.3333333333333 194.38905961354283, 330 180.6447207757532 C 336.6666666666667 177.88952329019963, 343.3333333333333 149.25363642301647, 350 196.35782473550847 C 356.6666666666667 222.3780525778375, 363.3333333333333 169.69777433905222, 370 204.5100239035978 C 376.6666666666667 182.6193601194848, 383.3333333333333 225.73336262844253, 390 202.39912363762167 C 396.6666666666667 185.9506933742067, 403.3333333333333 185.85541571448726, 410 201.0411567069948 C 416.6666666666667 197.60546649179045, 423.3333333333333 222.2904056566527, 430 185.36259827394264 C 436.6666666666667 197.65603026213157, 443.3333333333333 157.44754133664924, 450 172.75893425920168 C 456.6666666666667 193.36544621096198, 463.3333333333333 181.71076454223464, 470 182.47311678522485 C 476.6666666666667 179.71926113690378, 483.3333333333333 166.44289181946542, 490 169.07344788258123 C 496.6666666666667 171.53111597725456, 503.3333333333333 194.64961344833844, 510 160.04899084007104 C 516.6666666666666 174.97857360404117, 523.3333333333334 136.36939571594266, 530 171.35315443914405 C 536.6666666666666 150.45382021289907, 543.3333333333334 196.24260462534545, 550 183.72842500640348 C 556.6666666666666 202.7510474791923, 563.3333333333334 180.78087517378535, 570 176.90548201926893 C 576.6666666666666 163.99291215669516, 583.3333333333334 195.1883556674015, 590 171.777484016921 C 596.6666666666666 149.4663077358873, 603.3333333333334 168.99562968153108, 610 157.43147818003771 C 616.6666666666666 175.5123924613875, 623.3333333333334 132.66648170891958, 630 168.24776809464703 C 636.6666666666666 182.2820458734339, 643.3333333333334 173.99776259239775, 650 161.51132780564606 C 656.6666666666666 137.1155773489186, 663.3333333333334 190.60364277172215, 670 172.93318212970257 C 676.6666666666666 155.07036163926932, 683.3333333333334 202.19654712630074, 690 159.91143888597648 C 696.6666666666666 166.70342767858972, 703.3333333333334 154.48785624118918, 710 148.61401987171232 C 716.6666666666666 153.8478227873811, 723.3333333333334 140.48298317731368, 730 161.46743272843617 C 736.6666666666666 130.21746980096378, 743.3333333333334 185.29445801308833, 750 164.40908244925248 C 756.6666666666666 155.072458113681, 763.3333333333334 161.3534769072694, 770 166.63275955297706 C 776.6666666666666 188.12513010945116, 783.3333333333334 169.4155939538163, 790 164.21389103287117 C 796.6666666666666 175.18584606494207, 803.3333333333334 151.3197337300696, 810 154.26086009251364 C 816.6666666666666 181.96887785418235, 823.3333333333334 141.54199495943485, 830 146.99293480990272 C 836.6666666666666 116.25995629108145, 843.3333333333334 175.24523344551648, 850 160.7185390366596" fill="none" stroke="#7d00ff" stroke-width="2.860731304512105" opacity="0.5802661928112974" stroke-linecap="round" filter="url(#glow)" />
<path class="pulse" d="M -50 129.02173739438535 C -43.333333333333336 137.2459329349107, -36.666666666666664 137.73391262743178, -30 142.88356165103247 C -23.333333333333332 128.14972021794284, -16.666666666666664 126.48032858852085, -10 141.27657228477545 C -3.333333333333333 110.43201631992275, 3.333333333333334 129.0981692433159, 10 132.58061951217252 C 16.666666666666668 118.97665032529092, 23.333333333333336 132.60834549660734, 30 129.94063698635776 C 36.666666666666664 157.62453146666616, 43.333333333333336 119.4318807947135, 50 125.24997571631687 C 56.666666666666664 110.12827898165037, 63.333333333333336 141.43980337849626, 70 112.27692713898401 C 76.66666666666667 85.1573707115754, 83.33333333333333 109.61428631663279, 90 96.97453789777491 C 96.66666666666667 124.74755079080512, 103.33333333333333 122.96452248699156, 110 86.48846040617406 C 116.66666666666667 58.569598426889115, 123.33333333333333 69.70475858959043, 130 72.01965375325355 C 136.66666666666666 51.4669085284325, 143.33333333333334 100.98540691397929, 150 67.42745944680135 C 156.66666666666666 73.98825910937852, 163.33333333333334 42.41692425381248, 170 69.75059780083465 C 176.66666666666666 53.37949734421512, 183.33333333333334 55.502514108504556, 190 59.663153182244784 C 196.66666666666666 64.15339496801504, 203.33333333333334 65.26533334163103, 210 52.753642807734316 C 216.66666666666666 35.9620679477095, 223.33333333333334 77.67200459113408, 230 44.416730150200394 C 236.66666666666666 40.62270409391637, 243.33333333333334 52.17119538742516, 250 53.97697766637556 C 256.6666666666667 56.29553360085079, 263.3333333333333 56.21716342200207, 270 45.50899727037266 C 276.6666666666667 73.08740437548026, 283.3333333333333 19.92718964425098, 290 57.67824005671038 C 296.6666666666667 51.20960799907024, 303.3333333333333 51.36622986278417, 310 43.43720333212042 C 316.6666666666667 61.80642066810442, 323.3333333333333 61.03644260921567, 330 53.021908077889165 C 336.6666666666667 78.44313259543007, 343.3333333333333 76.82627078048357, 350 64.31858480818927 C 356.6666666666667 70.755837393877, 363.3333333333333 59.98128687427449, 370 70.10002734468951 C 376.6666666666667 38.672143660801225, 383.3333333333333 41.200986602445774, 390 55.00005582738142 C 396.6666666666667 63.50162923859115, 403.3333333333333 52.99081944535751, 410 60.96960400694218 C 416.6666666666667 82.68219980776297, 423.3333333333333 76.43476616381129, 430 47.8133869338149 C 436.6666666666667 31.231308460724374, 443.3333333333333 67.0731884064877, 450 49.61563662526877 C 456.6666666666667 35.11827991810089, 463.3333333333333 48.47573814182245, 470 43.145141095422936 C 476.6666666666667 31.935180747258098, 483.3333333333333 65.31089674690918, 490 57.92194418089823 C 496.6666666666667 33.12274905562063, 503.3333333333333 62.051991692344785, 510 46.74477891083831 C 516.6666666666666 55.762474751239836, 523.3333333333334 30.361237346981646, 530 53.66409074029573 C 536.6666666666666 47.81101387673071, 543.3333333333334 76.07159123027172, 550 62.59631949446425 C 556.6666666666666 85.66165464535227, 563.3333333333334 93.08157230934299, 570 75.78279286160455 C 576.6666666666666 81.54778593590235, 583.3333333333334 81.92549290328877, 590 74.4743291697102 C 596.6666666666666 92.49081131011735, 603.3333333333334 82.88696322327222, 610 87.33379295341162 C 616.6666666666666 98.30625986549445, 623.3333333333334 85.22974884401803, 630 74.21123932223192 C 636.6666666666666 97.40529429379387, 643.3333333333334 52.48720806143428, 650 87.46327823098622 C 656.6666666666666 61.06643673692985, 663.3333333333334 112.64087035842888, 670 86.03469373280214 C 676.6666666666666 109.52852263637352, 683.3333333333334 108.9248498964375, 690 98.73963300596716 C 696.6666666666666 74.98763890471724, 703.3333333333334 118.41511743515638, 710 98.10659180498058 C 716.6666666666666 76.40334330280209, 723.3333333333334 70.88241369357252, 730 109.04542713669079 C 736.6666666666666 122.09171123025195, 743.3333333333334 105.25070660976282, 750 102.51137097462079 C 756.6666666666666 104.56730738744434, 763.3333333333334 85.08282074959536, 770 102.13728283237513 C 776.6666666666666 118.76419741767047, 783.3333333333334 127.70397934968048, 790 100.0038533928695 C 796.6666666666666 89.07459156861718, 803.3333333333334 125.52275446438986, 810 94.71157756274388 C 816.6666666666666 65.80888305053386, 823.3333333333334 114.64912805828388, 830 107.6825580206776 C 836.6666666666666 128.13542781737894, 843.3333333333334 131.10233628654032, 850 120.31697281584783" fill="none" stroke="#ff006e" stroke-width="2.0917761942574726" opacity="0.5630375600240536" stroke-linecap="round" filter="url(#glow)" />
<path class="drift" d="M -50 78.36206280185729 C -43.333333333333336 86.70506053303623, -36.666666666666664 72.52178674219219, -30 70.67574819264692 C -23.333333333333332 86.96508661181798, -16.666666666666664 64.1868466872017, -10 70.25258845349225 C -3.333333333333333 86.55479184106659, 3.333333333333334 58.3810628159205, 10 66.71397849101864 C 16.666666666666668 58.05993661537781, 23.333333333333336 46.626363407347554, 30 73.8533000299965 C 36.666666666666664 77.18855109662587, 43.333333333333336 76.41907939741216, 50 77.23182140888476 C 56.666666666666664 64.42059822298239, 63.333333333333336 81.31168277161947, 70 78.30205069310851 C 76.66666666666667 64.32861961321686, 83.33333333333333 63.45204587800795, 90 78.190970419454 C 96.66666666666667 83.0415543469681, 103.33333333333333 97.64295589852588, 110 77.98806813990028 C 116.66666666666667 63.9402082784364, 123.33333333333333 87.45081209458434, 130 78.21434619099102 C 136.66666666666666 78.91115271494486, 143.33333333333334 65.01092295506206, 150 88.27579986218218 C 156.66666666666666 87.06303663456201, 163.33333333333334 102.1127648541267, 170 87.4165086303811 C 176.66666666666666 98.9465844618343, 183.33333333333334 69.93534571202404, 190 80.23586041814245 C 196.66666666666666 80.34922867845486, 203.33333333333334 69.60528109469035, 210 87.36355035891219 C 216.66666666666666 91.6345502674739, 223.33333333333334 90.87390848489069, 230 86.80283722608665 C 236.66666666666666 78.38983367598183, 243.33333333333334 78.77895200331434, 250 79.73040082829557 C 256.6666666666667 78.96998361134996, 263.3333333333333 96.12278323071392, 270 79.35085284314064 C 276.6666666666667 84.36620227862008, 283.3333333333333 85.97852555819802, 290 78.81467318954742 C 296.6666666666667 83.86744908074479, 303.3333333333333 73.25420702471925, 310 84.014492037347 C 316.6666666666667 103.41378170775268, 323.3333333333333 70.17552904918239, 330 84.38925018515171 C 336.6666666666667 103.89048238419439, 343.3333333333333 67.46068080711545, 350 84.93443315155048 C 356.6666666666667 98.16665881652702, 363.3333333333333 91.60372071573454, 370 79.06432080778353 C 376.6666666666667 73.81062152928114, 383.3333333333333 72.91261274390956, 390 84.82945099523417 C 396.6666666666667 98.53485547043284, 403.3333333333333 85.91520764974643, 410 83.40802829887214 C 416.6666666666667 93.98846669943657, 423.3333333333333 77.63516016987177, 430 75.32546205142266 C 436.6666666666667 58.58059220257594, 443.3333333333333 67.54458277752681, 450 66.68282040935051 C 456.6666666666667 68.91537455282061, 463.3333333333333 86.046940168487, 470 57.47100906578818 C 476.6666666666667 40.93727205153417, 483.3333333333333 47.89840127580304, 490 52.00592952914817 C 496.6666666666667 54.8345124591157, 503.3333333333333 53.59277851632561, 510 49.22930611634446 C 516.6666666666666 29.894305040896484, 523.3333333333334 61.89830460674398, 530 40.5580504052339 C 536.6666666666666 39.181446277606646, 543.3333333333334 44.950974486176406, 550 34.62646553444073 C 556.6666666666666 51.94475330272341, 563.3333333333334 19.029706535457766, 570 35.465891565121424 C 576.6666666666666 38.60649039052704, 583.3333333333334 21.46299217784064, 590 25.6598911377071 C 596.6666666666666 23.94179644027765, 603.3333333333334 21.962054413191293, 610 26.62807748729142 C 616.6666666666666 36.92104637518386, 623.3333333333334 24.499898961449, 630 33.04516512600813 C 636.6666666666666 38.627752020266705, 643.3333333333334 51.31164325748509, 650 28.00477986727452 C 656.6666666666666 32.363529931621116, 663.3333333333334 12.551094612115374, 670 18.355812970347763 C 676.6666666666666 23.012533299121408, 683.3333333333334 9.292152403810846, 690 19.93041069769182 C 696.6666666666666 32.01375757250668, 703.3333333333334 13.674961089185162, 710 21.928284896523017 C 716.6666666666666 33.2598958256615, 723.3333333333334 5.101301980997551, 730 14.352606687543327 C 736.6666666666666 -5.1586563512686805, 743.3333333333334 -4.330783262279999, 750 6.390271478070948 C 756.6666666666666 -0.19182560136831128, 763.3333333333334 -5.293608402425841, 770 0.44484769542850877 C 776.6666666666666 2.690634956726049, 783.3333333333334 -4.884286421993458, 790 0.1377614149681765 C 796.6666666666666 6.015739642920357, 803.3333333333334 17.453594156713123, 810 5.730329526270205 C 816.6666666666666 19.98189984631491, 823.3333333333334 20.61550093608085, 830 14.713294670081797 C 836.6666666666666 1.3454479874596963, 843.3333333333334 15.879302657617206, 850 23.247841509169255" fill="none" stroke="#00f5ff" stroke-width="2.0574279382929124" opacity="0.4763749572341106" stroke-linecap="round" filter="url(#glow)" />
<circle cx="380.02981255484036" cy="29.66718179108101" r="2.3731619334180865" fill="#7d00ff" opacity="0.7" class="shimmer" style="animation-delay: 3.4435250300053557s" />
<circle cx="71.44168853931951" cy="141.92069760420284" r="4.292506310711808" fill="#00f5ff" opacity="0.7" class="shimmer" style="animation-delay: 2.536938825019239s" />
<circle cx="793.6888918042965" cy="58.81953434367389" r="3.5280956467543296" fill="#00f5ff" opacity="0.7" class="shimmer" style="animation-delay: 0.088905981394654s" />
<circle cx="765.2885252497315" cy="88.3708358079939" r="5.526712604426356" fill="#00f5ff" opacity="0.7" class="shimmer" style="animation-delay: 0.32948337698803876s" />
<circle cx="434.0798207641184" cy="6.6136024452051245" r="4.081844344125948" fill="#ff006e" opacity="0.7" class="shimmer" style="animation-delay: 3.8813144234974555s" />
<circle cx="378.69803397840656" cy="123.13065797304925" r="2.4220342630827885" fill="#00f5ff" opacity="0.7" class="shimmer" style="animation-delay: 1.3549044048326238s" />
<circle cx="594.8749416047008" cy="68.69518151674244" r="4.453892925279856" fill="#ff00ff" opacity="0.7" class="shimmer" style="animation-delay: 1.1360089123595216s" />
<circle cx="249.66674380959742" cy="99.20409858891178" r="5.295272774951818" fill="#ff006e" opacity="0.7" class="shimmer" style="animation-delay: 3.7354236507736793s" />
<circle cx="369.98076833782784" cy="122.44913631932928" r="4.281910167674727" fill="#00ff9f" opacity="0.7" class="shimmer" style="animation-delay: 3.229557765323486s" />
<circle cx="29.05112414490958" cy="44.7785376264295" r="5.9963816699925685" fill="#ff00ff" opacity="0.7" class="shimmer" style="animation-delay: 0.03021455517503213s" />
<circle cx="262.91467256351166" cy="166.7159677176281" r="3.832599462423194" fill="#7d00ff" opacity="0.7" class="shimmer" style="animation-delay: 3.7285032381015055s" />
<circle cx="537.0799881423826" cy="194.80079972205755" r="3.823964667028007" fill="#00ff9f" opacity="0.7" class="shimmer" style="animation-delay: 2.496061874278382s" />
<circle cx="735.6769297434463" cy="13.36875909811912" r="2.7003258888459287" fill="#00ff9f" opacity="0.7" class="shimmer" style="animation-delay: 2.0609142750595444s" />
<circle cx="676.9330539444086" cy="12.805349669538568" r="3.7252305272276285" fill="#ff006e" opacity="0.7" class="shimmer" style="animation-delay: 3.0920504078474416s" />
<circle cx="436.9757979501582" cy="191.03590796864225" r="4.282407725705626" fill="#00ff9f" opacity="0.7" class="shimmer" style="animation-delay: 2.5538863719960476s" />
<circle cx="358.16669804390403" cy="195.91048165903183" r="0.6330409843072502" fill="white" opacity="0.24017433279759923" />
<circle cx="179.37805922525686" cy="76.90174648272303" r="1.1211679894722448" fill="white" opacity="0.39807542602364143" />
<circle cx="734.6311129970338" cy="163.57161442743995" r="0.5101207759517334" fill="white" opacity="0.3696418106476629" />
<circle cx="175.26882678645634" cy="66.51593575818526" r="0.9792727341489071" fill="white" opacity="0.2783302210479315" />
<circle cx="295.9834722568015" cy="111.89707097511285" r="0.7177561401370891" fill="white" opacity="0.26478366854735835" />
<circle cx="292.1058771410879" cy="66.43837671512527" r="0.5173963364355028" fill="white" opacity="0.22192591121942798" />
<circle cx="98.54005066829608" cy="53.70326215188985" r="1.2030104290702954" fill="white" opacity="0.3897017779517662" />
<circle cx="563.9988850670607" cy="120.91881891543461" r="1.396575903159009" fill="white" opacity="0.24009489824654076" />
<circle cx="216.4177881619528" cy="169.91502647175972" r="1.2171781266324757" fill="white" opacity="0.3081797542880087" />
<circle cx="187.51451163566628" cy="194.19256201132092" r="0.7682486177575918" fill="white" opacity="0.3001298888474834" />
<circle cx="678.3614173581094" cy="112.87213498592882" r="1.1787285617563314" fill="white" opacity="0.22490144495852618" />
<circle cx="127.71737936015164" cy="61.397103497718454" r="0.6865140544092609" fill="white" opacity="0.39577199231245463" />
<circle cx="512.3077839219119" cy="58.6660879942428" r="1.2123725855372816" fill="white" opacity="0.30042568455144836" />
<circle cx="524.6296449426347" cy="98.92128142164651" r="0.9245050800147847" fill="white" opacity="0.33583103041996143" />
<circle cx="582.3812874891116" cy="116.2335292267763" r="1.031330543858728" fill="white" opacity="0.18381494413874774" />
<circle cx="20.531527774444314" cy="129.7690989606909" r="1.4185177440102068" fill="white" opacity="0.30474333838774714" />
<circle cx="443.6467143259522" cy="104.49444262856757" r="0.6492334818523966" fill="white" opacity="0.20776806464714156" />
<circle cx="725.2038914755417" cy="156.48896950045992" r="1.2185759058529222" fill="white" opacity="0.28850948056621883" />
<circle cx="726.1111089885295" cy="84.30094853170917" r="1.0889599423297533" fill="white" opacity="0.3788846698654237" />
<circle cx="305.9827913712542" cy="190.33039734552122" r="0.7054199757463131" fill="white" opacity="0.3959302913468169" />
<circle cx="775.6679741514674" cy="49.51921072858401" r="1.153110072203329" fill="white" opacity="0.18273328321885632" />
<circle cx="773.4107441434389" cy="124.48054046134338" r="1.0000383742930237" fill="white" opacity="0.33306135061865005" />
<circle cx="769.1881944732163" cy="33.627305027520336" r="1.3409136582330052" fill="white" opacity="0.3198649918823925" />
<circle cx="604.1842206875156" cy="87.2311594896213" r="1.4607619471007967" fill="white" opacity="0.3325130619942852" />
<circle cx="168.91197901810315" cy="153.3505745815494" r="0.6229593666477389" fill="white" opacity="0.23264519455552093" />

  
    <text x="400" y="120" text-anchor="middle" class="name-text" fill="url(#textGrad)" filter="url(#textGlow)">
      JOEL HOOKS
    </text>
  
</svg>
