<svg xmlns="http://www.w3.org/2000/svg" viewBox="0 0 800 200" width="800" height="200">
  <rect width="800" height="200" fill="#1a0a0a"/>
  
    <defs>
      <linearGradient id="grad1" x1="0%" y1="0%" x2="100%" y2="100%">
        <stop offset="0%" style="stop-color:#ff4500;stop-opacity:0.8" />
        <stop offset="100%" style="stop-color:#ff6b35;stop-opacity:0.8" />
      </linearGradient>
      <linearGradient id="grad2" x1="100%" y1="0%" x2="0%" y2="100%">
        <stop offset="0%" style="stop-color:#f7c59f;stop-opacity:0.7" />
        <stop offset="100%" style="stop-color:#efa48b;stop-opacity:0.7" />
      </linearGradient>
      <linearGradient id="textGrad" x1="0%" y1="0%" x2="100%" y2="0%">
        <stop offset="0%" style="stop-color:#ff4500" />
        <stop offset="25%" style="stop-color:#ff6b35" />
        <stop offset="50%" style="stop-color:#f7c59f" />
        <stop offset="75%" style="stop-color:#efa48b" />
        <stop offset="100%" style="stop-color:#d4a5a5" />
      </linearGradient>
      <filter id="glow">
        <feGaussianBlur stdDeviation="3" result="coloredBlur"/>
        <feMerge>
          <feMergeNode in="coloredBlur"/>
          <feMergeNode in="SourceGraphic"/>
        </feMerge>
      </filter>
      <filter id="textGlow">
        <feGaussianBlur stdDeviation="2" result="coloredBlur"/>
        <feMerge>
          <feMergeNode in="coloredBlur"/>
          <feMergeNode in="SourceGraphic"/>
        </feMerge>
      </filter>
    </defs>
  
  
    <style>
      @keyframes float {
        0%, 100% { transform: translateY(0px); }
        50% { transform: translateY(-8px); }
      }
      @keyframes pulse {
        0%, 100% { opacity: 0.4; }
        50% { opacity: 0.9; }
      }
      @keyframes drift {
        0% { transform: translateX(0px); }
        50% { transform: translateX(10px); }
        100% { transform: translateX(0px); }
      }
      @keyframes shimmer {
        0% { opacity: 0.3; }
        50% { opacity: 1; }
        100% { opacity: 0.3; }
      }
      @keyframes glitch {
        0%, 100% { transform: translateX(0); }
        20% { transform: translateX(-2px); }
        40% { transform: translateX(2px); }
        60% { transform: translateX(-1px); }
        80% { transform: translateX(1px); }
      }
      @keyframes dataStream {
        0% { stroke-dashoffset: 0; }
        100% { stroke-dashoffset: -20; }
      }
      .float { animation: float 8s ease-in-out infinite; }
      .pulse { animation: pulse 8s ease-in-out infinite; }
      .drift { animation: drift 8s ease-in-out infinite; }
      .shimmer { animation: shimmer 3s ease-in-out infinite; }
      .glitch { animation: glitch 0.5s ease-in-out infinite; }
      .dataStream { animation: dataStream 2s linear infinite; }
      .name-text { 
        font-family: -apple-system, BlinkMacSystemFont, 'Segoe UI', Helvetica, Arial, sans-serif;
        font-weight: 700;
        font-size: 64px;
        letter-spacing: -2px;
      }
    </style>
  
  <rect x="0" y="160" width="800" height="50" fill="#ff4500" opacity="0.3" />
<rect x="0" y="170" width="800" height="40" fill="#ff6b35" opacity="0.25" />
<rect x="0" y="180" width="800" height="30" fill="#f7c59f" opacity="0.19999999999999998" />
<rect x="0" y="190" width="800" height="20" fill="#efa48b" opacity="0.14999999999999997" />
<rect x="0" y="200" width="800" height="10" fill="#d4a5a5" opacity="0.09999999999999998" />
<line x1="459.96498093696056" y1="170" x2="459.96498093696056" y2="262.40712804074485" stroke="#ff4500" stroke-width="2.097956432199408" opacity="0.21797781501248725" class="pulse" />
<line x1="459.96498093696056" y1="170" x2="487.5009643313529" y2="272.7656890642452" stroke="#ff4500" stroke-width="2.5216095943668955" opacity="0.12172149955662658" class="pulse" />
<line x1="459.96498093696056" y1="170" x2="525.2190735544357" y2="283.0234038152722" stroke="#ff4500" stroke-width="1.5720162189573719" opacity="0.25402794374658644" class="pulse" />
<line x1="459.96498093696056" y1="170" x2="563.2527878112496" y2="273.28780687428906" stroke="#ff4500" stroke-width="2.328955798050882" opacity="0.24138140522895513" class="pulse" />
<line x1="459.96498093696056" y1="170" x2="559.0107154875975" y2="227.18408150489446" stroke="#ff4500" stroke-width="2.082875314970396" opacity="0.17838922920534914" class="pulse" />
<line x1="459.96498093696056" y1="170" x2="601.7762266275745" y2="207.99820876045158" stroke="#ff4500" stroke-width="2.506132201083624" opacity="0.18346584721221335" class="pulse" />
<line x1="459.96498093696056" y1="170" x2="589.2351433110832" y2="170" stroke="#ff4500" stroke-width="1.9849542686301986" opacity="0.29961946510082116" class="pulse" />
<line x1="459.96498093696056" y1="170" x2="570.1106565910433" y2="140.48655515870817" stroke="#ff4500" stroke-width="2.4113858261834493" opacity="0.17337449986645903" class="pulse" />
<line x1="459.96498093696056" y1="170" x2="563.9737031049024" y2="109.95053625826982" stroke="#ff4500" stroke-width="2.978957461195083" opacity="0.2639441190472015" class="pulse" />
<line x1="459.96498093696056" y1="170" x2="526.0031892782025" y2="103.961791658758" stroke="#ff4500" stroke-width="1.1788964194904308" opacity="0.17404903106670724" class="pulse" />
<line x1="459.96498093696056" y1="170" x2="506.9047487513415" y2="88.69793725000592" stroke="#ff4500" stroke-width="2.228918777105888" opacity="0.19401063545171743" class="pulse" />
<line x1="459.96498093696056" y1="170" x2="486.0626676293359" y2="72.60210730404103" stroke="#ff4500" stroke-width="1.741749624335228" opacity="0.26733021186026273" class="pulse" />
<path d="M 305.63348287743327 30.990195372446475 C 306.6657472601403 36.902236993863404, 311.46538483980953 45.74818099788298, 308.46518162981044 51.82311338481828 C 305.46497841981136 57.89804577175357, 294.5312395427538 67.48511977286704, 287.63226361743864 67.43978969405823 C 280.7332876921235 67.39445961524943, 271.07605612495854 57.62606529890072, 267.0713260779197 51.551132911965425 C 263.0665960308809 45.47620052503013, 264.95191961734326 39.1918775010905, 263.6038833352055 30.99019537244648 C 262.2558470530678 22.788513243802456, 254.97837833805457 7.711110244935174, 258.98310838509343 2.341040140101267 C 262.98783843213226 -3.02902996473264, 280.4175157926928 -3.565195842592875, 287.63226361743864 -1.2302252565569667 C 294.84701144218445 1.1047453294789418, 299.2713921235693 10.980793551482812, 302.27159533356837 16.35086365631672 C 305.27179854356746 21.720933761150626, 304.60121849472625 25.07815375102955, 305.63348287743327 30.990195372446475 Z" fill="#f7c59f" opacity="0.2434577227393985" class="drift" />
<path d="M 313.77269019063544 34.625825432705525 C 313.3747937276761 45.92925140975476, 309.2987706792272 61.798678928903094, 301.8606690684916 67.34241397497524 C 294.422567457756 72.88614902104739, 281.0959221023833 66.84192364706685, 269.14408052622184 67.88823570913841 C 257.19223895006036 68.93454777120998, 236.19564930180974 79.16402139347677, 230.14961961152275 73.62028634740463 C 224.10358992123577 68.07655130133249, 232.88068481402368 47.63676150046226, 232.86790238449998 34.62582543270553 C 232.8551199549763 21.6148893649488, 224.02689534409356 1.2568768061542377, 230.07292503438055 -4.445330059135742 C 236.11895472466753 -10.147536924425722, 256.78156005757734 -0.2486137876702692, 269.14408052622184 0.41258424096565705 C 281.50660099486635 1.0737822696015833, 296.8099462355119 -6.180348752610162, 304.2480478462475 -0.47814188732018437 C 311.6861494569831 5.224064977969793, 314.1705866535948 23.32239945565629, 313.77269019063544 34.625825432705525 Z" fill="#f7c59f" opacity="0.12262961209652534" class="drift" />
<path d="M 341.9287927977505 42.23951206550509 C 341.32276455392065 52.72648290916125, 342.1267138592797 65.93743377213178, 336.2377325116897 71.88233986498405 C 330.3487511640998 77.82724595783631, 317.29681689479685 77.08797903985885, 306.59490471221073 77.90894862261868 C 295.8929925296246 78.72991820537851, 278.64204538013126 82.75306345439525, 272.0262594161729 76.80815736154298 C 265.4104734522145 70.86325126869072, 268.20032152280146 55.06252642519204, 266.90018892846047 42.239512065505096 C 265.6000563341195 29.416497705818152, 257.6096778861685 8.051263022116439, 264.2254638501269 -0.12992879657869594 C 270.8412498140853 -8.31112061527383, 293.98683169145374 -8.362712779936684, 306.59490471221073 -6.847638846665717 C 319.2029777329677 -5.332564913394749, 333.98492062707874 0.7793229843519764, 339.8739019746687 8.960514803047111 C 345.76288332225863 17.141706621742244, 342.5348210415803 31.752541221848933, 341.9287927977505 42.23951206550509 Z" fill="#f7c59f" opacity="0.1936726010266232" class="drift" />
<path d="M 656.4484821589767 49.468659213531865 C 659.5164317920471 58.551690860129604, 657.1750287712669 80.41504270787306, 650.029749325924 85.92160305253634 C 642.884469880581 91.42816339719963, 624.6614765669575 83.57433148114175, 613.5768054869195 82.5080212815116 C 602.4921344068815 81.44171108188145, 592.1688942388041 85.03030219941871, 583.521722845696 79.52374185475543 C 574.8745514525879 74.01718151009214, 560.614875547196 58.40811851286494, 561.6937771282708 49.46865921353187 C 562.7726787093455 40.529199914198806, 581.3479609390365 31.852484593909114, 589.9951323321446 25.88698605875702 C 598.6423037252528 19.921487523604927, 606.6389856210267 12.75293015025383, 613.5768054869195 13.675668002619311 C 620.5146253528123 14.598405854984792, 624.4767720821585 25.457914637797813, 631.6220515275014 31.423413172949907 C 638.7673309728443 37.388911708102, 653.3805325259063 40.385627566934126, 656.4484821589767 49.468659213531865 Z" fill="#f7c59f" opacity="0.22049496136874072" class="drift" />
<path d="M 508.45168191425404 45.50439008269883 L 514.0308505949679 42.714805742341916 L 519.6100192756817 45.50439008269883" fill="none" stroke="#d4a5a5" stroke-width="1.5" opacity="0.4" class="float" style="animation-delay: 0.9586884286804411s" />
<path d="M 443.99791955352 54.6285687589516 L 454.50265265002906 49.37620221069707 L 465.00738574653815 54.6285687589516" fill="none" stroke="#d4a5a5" stroke-width="1.5" opacity="0.4" class="float" style="animation-delay: 0.4245835173490091s" />
<path d="M 148.765132240743 50.76302694011622 L 158.5723107731239 45.85943767392577 L 168.3794893055048 50.76302694011622" fill="none" stroke="#d4a5a5" stroke-width="1.5" opacity="0.4" class="float" style="animation-delay: 0.5703252347112637s" />
<path d="M 389.5398242544904 44.28272380141663 L 399.75457358507083 39.1753491361264 L 409.9693229156513 44.28272380141663" fill="none" stroke="#d4a5a5" stroke-width="1.5" opacity="0.4" class="float" style="animation-delay: 0.4232342701470002s" />
<path d="M 242.81600364698727 49.67006335698777 L 252.44645720434417 44.85483657830932 L 262.0769107617011 49.67006335698777" fill="none" stroke="#d4a5a5" stroke-width="1.5" opacity="0.4" class="float" style="animation-delay: 2.945433218098392s" />

  
    <text x="400" y="120" text-anchor="middle" class="name-text" fill="url(#textGrad)" filter="url(#textGlow)">
      JOEL HOOKS
    </text>
  
</svg>
