<svg xmlns="http://www.w3.org/2000/svg" viewBox="0 0 800 200" width="800" height="200">
  <rect width="800" height="200" fill="#05010d"/>
  
    <defs>
      <linearGradient id="grad1" x1="0%" y1="0%" x2="100%" y2="100%">
        <stop offset="0%" style="stop-color:#4a0080;stop-opacity:0.8" />
        <stop offset="100%" style="stop-color:#7b2cbf;stop-opacity:0.8" />
      </linearGradient>
      <linearGradient id="grad2" x1="100%" y1="0%" x2="0%" y2="100%">
        <stop offset="0%" style="stop-color:#9d4edd;stop-opacity:0.7" />
        <stop offset="100%" style="stop-color:#c77dff;stop-opacity:0.7" />
      </linearGradient>
      <linearGradient id="textGrad" x1="0%" y1="0%" x2="100%" y2="0%">
        <stop offset="0%" style="stop-color:#4a0080" />
        <stop offset="25%" style="stop-color:#7b2cbf" />
        <stop offset="50%" style="stop-color:#9d4edd" />
        <stop offset="75%" style="stop-color:#c77dff" />
        <stop offset="100%" style="stop-color:#e0aaff" />
      </linearGradient>
      <filter id="glow">
        <feGaussianBlur stdDeviation="5" result="coloredBlur"/>
        <feMerge>
          <feMergeNode in="coloredBlur"/>
          <feMergeNode in="SourceGraphic"/>
        </feMerge>
      </filter>
      <filter id="textGlow">
        <feGaussianBlur stdDeviation="2" result="coloredBlur"/>
        <feMerge>
          <feMergeNode in="coloredBlur"/>
          <feMergeNode in="SourceGraphic"/>
        </feMerge>
      </filter>
    </defs>
  
  
    <style>
      @keyframes float {
        0%, 100% { transform: translateY(0px); }
        50% { transform: translateY(-8px); }
      }
      @keyframes pulse {
        0%, 100% { opacity: 0.4; }
        50% { opacity: 0.9; }
      }
      @keyframes drift {
        0% { transform: translateX(0px); }
        50% { transform: translateX(10px); }
        100% { transform: translateX(0px); }
      }
      @keyframes shimmer {
        0% { opacity: 0.3; }
        50% { opacity: 1; }
        100% { opacity: 0.3; }
      }
      @keyframes glitch {
        0%, 100% { transform: translateX(0); }
        20% { transform: translateX(-2px); }
        40% { transform: translateX(2px); }
        60% { transform: translateX(-1px); }
        80% { transform: translateX(1px); }
      }
      @keyframes dataStream {
        0% { stroke-dashoffset: 0; }
        100% { stroke-dashoffset: -20; }
      }
      .float { animation: float 8s ease-in-out infinite; }
      .pulse { animation: pulse 8s ease-in-out infinite; }
      .drift { animation: drift 8s ease-in-out infinite; }
      .shimmer { animation: shimmer 3s ease-in-out infinite; }
      .glitch { animation: glitch 0.5s ease-in-out infinite; }
      .dataStream { animation: dataStream 2s linear infinite; }
      .name-text { 
        font-family: -apple-system, BlinkMacSystemFont, 'Segoe UI', Helvetica, Arial, sans-serif;
        font-weight: 700;
        font-size: 64px;
        letter-spacing: -2px;
      }
    </style>
  
  <path d="M 470.97437911099985 38.56236121802574 C 475.7908367761452 53.553134722403335, 477.75417377803825 89.47886932985958, 465.61602109347814 94.03276571535503 C 453.477868408918 98.58666210085048, 412.9733139266871 68.65810830134913, 398.1454630036391 65.88573953099845 C 383.3176120805911 63.11337076064776, 391.3687967524262 72.33285889123549, 376.64891555519023 77.39855309325091 C 361.92903435795427 82.46424729526633, 312.6501486023724 102.75260338896187, 309.8261758202234 96.27990474309101 C 307.0022030380744 89.80720609722015, 356.850503211184 55.72757178310586, 359.70507886229626 38.56236121802575 C 362.55965451340853 21.397150652945637, 323.78393555405455 -1.3026810341048325, 326.95362972689685 -6.711358647389652 C 330.12332389973915 -12.120036260674471, 364.54697769063273 10.230977532566413, 378.7232438993499 6.110295538316834 C 392.89951010806703 1.9896135440672547, 402.3455551119902 -31.0984221380159, 412.0112269791996 -31.435450612887124 C 421.67689884640896 -31.77247908775835, 426.8900830806393 -7.578177282729321, 436.717275102606 4.08812468908949 C 446.5444671245727 15.754426660908301, 466.15792144585447 23.57158771364815, 470.97437911099985 38.56236121802574 Z" fill="#9d4edd" opacity="0.24309519125486034" filter="url(#glow)" class="float" />
<path d="M 767.4062100754711 181.2507623358187 C 767.6002446045032 192.30698372095287, 771.9160108153301 200.86508327011674, 770.0123461385837 214.7935217513178 C 768.1086814618373 228.72196023251885, 766.8682081671487 255.21442182967255, 755.9842220149925 264.8213932230251 C 745.1002358628363 274.4283646163777, 720.6698825648373 275.2841648552837, 704.7084292256463 272.43535011143314 C 688.7469758864554 269.5865353675826, 667.3288449724132 260.19567837651925, 660.2155019798465 247.72850475992192 C 653.1021589872798 235.26133114332458, 664.1243804669949 212.14635140012848, 662.0283712702462 197.63230841184907 C 659.9323620734975 183.11826542356965, 651.7838789944083 178.88836418606974, 647.6394467993543 160.64424683024535 C 643.4950146043004 142.40012947442096, 627.0730129671092 95.91562876206864, 637.1617780999228 88.16760427690272 C 647.2505432327364 80.41957979173681, 687.9658764411344 113.45185671052249, 708.1720375962362 114.15609991924988 C 728.3781987513381 114.86034312797727, 748.2860614691751 86.67638127572329, 758.3987450305342 92.3930635292671 C 768.5114285918933 98.1097457828109, 767.3468947902347 133.6465769727542, 768.8481389643908 148.45619344051278 C 770.349383138547 163.26580990827136, 767.212175546439 170.19454095068454, 767.4062100754711 181.2507623358187 Z" fill="#7b2cbf" opacity="0.1362482729721713" filter="url(#glow)" class="float" />
<path d="M 265.9564137585387 183.39998515961392 C 272.19713132404604 194.79301562042778, 268.55527989385166 215.83528507332406, 261.90547739321363 231.18151669188904 C 255.25567489257563 246.52774831045403, 241.75880715726763 268.85191545203674, 226.05759875471063 275.4773748710038 C 210.35639035215362 282.1028342899709, 186.18587425354573 276.47119669615483, 167.69822697787163 270.93427320569157 C 149.21057970219752 265.3973497152283, 127.50722838703558 256.8448819359039, 115.13171510066597 242.25583392822432 C 102.75620181429636 227.66678592054473, 92.98920917071189 202.68734300406345, 93.44514725965401 183.39998515961392 C 93.90108534859613 164.1126273151644, 103.34246040797167 134.5056543896389, 117.8673436343187 126.53168686152719 C 132.39222686066572 118.55771933341548, 162.51064940069062 141.58467236654073, 180.59444661773617 135.55617999094363 C 198.6782438347817 129.52768761534654, 219.05900603951972 85.81620695193418, 226.37012693659193 90.36073260794454 C 233.68124783366414 94.9052582639549, 217.86345752984508 147.3167918350609, 224.46117200016954 162.82333392700582 C 231.058886470494 178.32987601895073, 259.71569619303136 172.00695469880006, 265.9564137585387 183.39998515961392 Z" fill="#4a0080" opacity="0.1939669319033122" filter="url(#glow)" class="float" />
<path d="M 270.7320509440275 62.63639440924478 C 271.1513193758174 75.35840880063064, 239.85398706449803 87.80835251010157, 225.79360459468666 102.06024287877216 C 211.73322212487528 116.31213324744274, 205.3194027813134 142.33937278828995, 186.36975612515928 148.14773662126828 C 167.42010946900515 153.9561004542466, 122.52149887407764 151.16231624531275, 112.0957246577619 136.91042587664217 C 101.66995044144618 122.65853550797158, 121.82177472317532 85.4010687942877, 123.81511082726487 62.63639440924479 C 125.80844693135442 39.87172002420188, 113.62996706598345 13.147759458250496, 124.05574128229918 0.3223795663846971 C 134.48151549861493 -12.503000325481102, 169.83271400488465 -18.550181102628716, 186.36975612515928 -14.315884941949996 C 202.90679824543392 -10.081588781271275, 209.21761153413564 12.902776638591218, 223.27799400394701 25.728156530457014 C 237.3383764737584 38.55353642232281, 270.31278251223756 49.914380017858925, 270.7320509440275 62.63639440924478 Z" fill="#c77dff" opacity="0.23251474012475018" filter="url(#glow)" class="float" />
<path d="M 389.1715707057948 111.23738038560268 L 389.1715707057948 111.23738038560268 L 389.4541034227433 111.26209879541085 L 389.7301771923851 111.3358777807873 L 389.99341501573207 111.45759290475448 L 390.23760291719134 111.62538437931998 L 390.4567692817032 111.83667832379867 L 390.6452616062561 112.0882162236863 L 390.7978198434094 112.37609229076746 L 390.9096455478493 112.69579834452912 L 390.97646607815125 113.04227575795909 L 390.99459315445284 113.40997393817082 L 390.9609751281966 113.79291474471133 L 390.8732423819621 114.18476218652526 L 390.7297453451044 114.57889668296454 L 390.52958468380535 114.96849312549045 L 390.27263330155387 115.34660193528909 L 389.9595498672718 115.70623227832479 L 389.59178367253367 116.04043657372637 L 389.1715707057948 116.34239541410444 L 388.7019209194396 116.60550200762327 L 388.18659675394855 116.82344525150532 L 387.63008307173214 116.99029055516364 L 387.0375487403496 117.10055754828346 L 386.4148001900933 117.14929383478137 L 385.7682273534603 117.13214398744785 L 385.1047424730634 117.04541301994053 L 384.4317123392838 116.88612362227984 L 383.75688458872554 116.65206650267193 L 383.088308758604 116.34184324184525 L 382.4342528499629 115.95490113557106 L 381.80311620348834 115.49155957602082 L 381.2033395351627 114.95302760241782 L 380.6433130146228 114.3414123353411 L 380.1312832964847 113.65971809627257 L 379.6752604337603 112.91183610374131 L 379.28292561259894 112.10252472888857 L 378.96154064879124 111.23738038560268 L 378.71786017870204 110.32279922270045 L 378.55804746057976 109.3659298770948 L 378.4875946766102 108.37461763662918 L 378.51124859182977 107.35734044842964 L 378.63294238334583 106.32313729239556 L 378.85573440256576 105.28152951901728 L 379.1817545747337 104.24243582530474 L 379.61215907449497 103.2160816115072 L 380.1470938440127 102.21290352382059 L 380.7856674419677 101.24345004378924 L 381.52593362825985 100.31827903304752 L 382.36488400112574 99.44785318191235 L 383.2984509114741 98.64243434170025 L 384.32152078432847 97.91197774314635 L 385.4279578802141 97.26602711666891 L 386.6106384309946 96.71361173425579 L 387.8614949859619 96.2631463873347 L 389.1715707057948 95.92233530009736 L 390.5310832452441 95.6980809534378 L 391.9294977709643 95.59639876107526 L 393.35560856967913 95.62233849679434 L 394.7976286146957 95.77991332035333 L 396.2432863765075 96.07203718988343 L 397.6799290866311 96.50047138098977 L 399.0946315936593 97.06578075781833 L 400.4743098874748 97.7673003596802 L 401.8058383122897 98.60311277910773 L 403.0761694422309 99.57003671419108 L 404.27245555507324 100.66362698050114 L 405.382170610869 101.87818616668275 L 406.3932316229675 103.20678801377639 L 407.2941182995354 104.6413124924085 L 408.07398983435223 106.1724924451111 L 408.7227977364541 107.78997155414078 L 409.23139360913495 109.48237328922272 L 409.5916308198019 111.23738038560268 L 409.79645904303186 113.04182430159898 L 409.8400107096346 114.8817840074338 L 409.7176784542268 116.74269336439785 L 409.4261827223284 118.60945626623146 L 408.96362877478435 120.46656863382093 L 408.3295524117916 122.29824628068982 L 407.5249538303024 124.08855760103378 L 406.5523191263399 125.82155997486718 L 405.4156290570026 127.48143873681043 L 404.12035478479095 129.0526475166614 L 402.67344043846293 130.52004873160433 L 401.0832724389656 131.86905299206074 L 399.3596356551267 133.08575617604566 L 397.5136565707169 134.15707293062755 L 395.55773376119726 135.07086537378382 L 393.5054560939183 135.81606579557433 L 391.3715091787218 136.38279219401494 L 389.1715707057948 136.76245552811153 L 386.92219541325153 136.94785762791184 L 384.64069052730207 136.93327876875486 L 382.34498261208876 136.71455399365837 L 380.05347685343816 136.28913735342059 L 377.784909880071 135.6561533278625 L 375.5581972964568 134.81643479298336 L 373.39227716279714 133.77254700683355 L 371.30595070894583 132.52879720077047 L 369.3177216098742 131.09122948152327 L 367.4456351801134 129.46760487218333 L 365.7071188630699 127.66736644583742 L 364.11882539795283 125.70158963302435 L 362.69648004208153 123.58291791244008 L 361.45473320948565 121.32548422225258 L 360.40701985799 118.94481855591594 L 359.5654269165108 116.4577423303878 L 358.9405699923104 113.8822502350767 L 358.54148053478417 111.23738038560269 L 358.37550455841347 108.54307371651235 L 358.44821394333025 105.82002365044832 L 358.7633312381154 103.08951717698577 L 359.32266878669265 100.37326856151819 L 360.1260828902647 97.69324698237331 L 361.1714435970303 95.07149946201372 L 362.4546205878407 92.52997051503844 L 363.9694854960043 90.09031998116917 L 365.70793086516136 87.77374054496921 L 367.65990581162964 85.60077646529861 L 369.8134683179935 83.59114504615454 L 372.15485394412224 81.76356237637685 L 374.6685606014518 80.13557484861911 L 377.337448897417 78.72339793800924 L 380.1428574205707 77.54176367817416 L 383.06473220434805 76.60377821700627 L 386.08176947977375 75.92079076704611 L 389.1715707057948 75.50227518609029 L 392.31080875143215 75.35572533314921 L 395.4754039976108 75.48656524382574 L 398.6407090293225 75.89807505829961 L 401.78170050160713 76.59133351521622 L 404.87317668652975 77.5651776968023 L 407.8899591436346 78.81618057545424 L 410.80709690392564 80.33864677092534 L 413.6000715178128 82.12462678118956 L 416.2450012911411 84.1639498002564 L 418.7188430207215 86.44427508385303 L 420.9995895419662 88.95116167023477 L 423.0664614164045 91.66815610967923 L 424.90009111604866 94.57689770375414 L 426.4826981046725 97.65724060549697 L 427.798253272847 100.8873919854677 L 428.8326312537036 104.2440653274943 L 429.5737492294235 107.70264778303466 L 430.01169093380895 111.23738038560266 L 430.13881466332043 114.82154980778705 L 429.9498442268841 118.42769023408034 L 429.44194189272156 122.02779382404123 L 428.61476252746553 125.5935281531429 L 427.47048826786545 129.09645894384323 L 426.0138432173271 132.50827633769336 L 424.25208781719545 135.80102291130007 L 422.19499270483055 138.94732160520525 L 419.85479203585396 141.92060171566177 L 417.246116415129 144.69532109515205 L 414.3859057487292 147.24718271849736 L 411.2933024959692 149.5533437975962 L 407.9895259651489 151.5926156691268 L 404.49772845762834 153.34565273576467 L 400.8428342208407 154.79512881227853 L 397.0513623205648 155.92589931282384 L 393.1512346849099 156.72514781430354 L 389.1715707057949 157.18251564211863" fill="none" stroke="#4a0080" stroke-width="1" opacity="0.3" class="drift" />
<path d="M 364.81877788251904 114.92037750819844 L 364.81877788251904 114.92037750819844 L 365.14232347682105 114.94868407983363 L 365.4584725332372 115.03317293453493 L 365.75992235794234 115.17255641034913 L 366.03955694522944 115.36470474964042 L 366.29053783134736 115.60667044330289 L 366.50639198738105 115.89472196592875 L 366.68109580943235 116.22438655916623 L 366.8091543025939 116.59050162818721 L 366.8856746023369 116.98727422801632 L 366.906433032505 117.40834803329201 L 366.8679349626113 117.84687710763367 L 366.76746679797964 118.29560571792251 L 366.6031395137906 118.746953375152 L 366.37392322756597 119.19310422768491 L 366.0796723932725 119.62609988531503 L 365.721141293211 120.03793471394393 L 365.29998960031713 120.42065261133247 L 364.81877788251904 120.76644425458026 L 364.28095302145056 121.06774379993648 L 363.6908236191541 121.31732401538031 L 363.0535255674642 121.50838883616167 L 362.3749780545881 121.63466235310575 L 361.6618303810386 121.6904732728086 L 360.9214000515978 121.67083392764658 L 360.1616027004912 121.57151296146034 L 359.39087449255555 121.38910087344175 L 358.6180877230654 121.12106766765208 L 357.852460412257 120.76581192815915 L 357.1034607567352 120.32270071935073 L 356.3807073582089 119.79209979684997 L 355.6938661997836 119.17539370584599 L 355.0525453808357 118.47499543973433 L 354.46618865286257 117.69434543185605 L 353.94396882030986 116.83789975591884 L 353.49468208194895 115.91110751542985 L 353.12664438975537 114.92037750819844 L 352.84759089334494 113.87303435769667 L 352.6645795188735 112.77726440780506 L 352.5838997020159 111.64205178023947 L 352.61098725541484 110.47710509377858 L 352.750346302127 109.29277544034201 L 353.0054791484848 108.09996630408631 L 353.37882490290855 106.91003619511056 L 353.8717075721073 105.73469484826019 L 354.4842942834296 104.58589390910903 L 355.2155641925836 103.47571309276798 L 356.0632885403067 102.41624285606608 L 357.0240222206766 101.41946466930217 L 358.0931071184955 100.49713000968116 L 359.2646873644942 99.6606392243182 L 360.5317365459573 98.92092142600202 L 361.8860967977702 98.2883165895256 L 363.3185295858543 97.77246101019233 L 364.81877788251904 97.38217726905296 L 366.3756393224541 97.12536982158832 L 367.9770498199409 97.00892728808923 L 369.61017702338216 97.0386324751554 L 371.26152288342786 97.21908109889736 L 372.91703451675147 97.55361011202456 L 374.56222245982207 98.0442364595781 L 376.18228532666694 98.69160700223941 L 377.76223981243203 99.49496025261826 L 379.28705492124425 100.45210046947325 L 380.7417892431179 101.55938454828825 L 382.111730061 102.81172203492605 L 383.3825330360014 104.20258847316508 L 384.5403611968182 105.7240521777989 L 385.57202194859616 107.36681440368469 L 386.46510081725535 109.12026275873255 L 387.2080906576556 110.97253758642114 L 387.7905150779612 112.91061092210045 L 388.20304486804633 114.92037750819844 L 388.4376062665652 116.9867572375668 L 388.48747995909196 119.09380828264871 L 388.347389768102 121.2248500619657 L 388.013580074017 123.36259509559619 L 387.4838810944748 125.48928870880687 L 386.7577612457255 127.58685545869238 L 385.8363659148267 129.63705108340642 L 384.7225420832677 131.62161870808617 L 383.42084836088003 133.52244798655937 L 381.937550112404 135.32173581396577 L 380.2805994868515 137.00214721302794 L 378.4596002907433 138.5469749762669 L 376.4857577792946 139.94029663827945 L 374.37181357352176 141.16712735647246 L 372.13196604488905 142.21356729547466 L 369.78177664132477 143.06694213979864 L 367.33806275805034 143.71593540107662 L 364.81877788251904 144.15071124010757 L 362.2428798637174 144.36302658968063 L 359.63018827104037 144.346331441235 L 357.00123191584765 144.09585624632132 L 354.3770877086324 143.6086854818933 L 351.7792121155347 142.88381653593606 L 349.2292665588342 141.922203185991 L 346.74893817625104 140.72678306685464 L 344.3597574126566 139.30248865411554 L 342.08291396452233 137.65624142619515 L 339.93907263158326 135.79692900805813 L 337.948190651341 133.73536524359093 L 336.12933809986447 131.4842332896136 L 334.5005229366562 129.05801197134997 L 333.0785222520481 126.47288578569008 L 331.8787212427029 123.74663908347262 L 330.9149613944552 120.89853510403262 L 330.1993992922048 117.94918067316303 L 329.7423774042281 114.92037750819846 L 329.5523081036008 111.83496119996352 L 329.6355720930188 108.7166290596913 L 329.99643229185625 105.58975812862285 L 330.6369641266273 102.47921474782285 L 331.5570030389996 99.41015717483806 L 332.7541098901404 96.40783281132263 L 334.2235547975143 93.49737167087042 L 335.9583197914335 90.70357776836127 L 337.94912052488655 88.05072015056595 L 340.18444711268467 85.5623253120942 L 342.6506240160665 83.26097275067183 L 345.33188872791294 81.16809541095776 L 348.21048885299155 79.3037867465537 L 351.26679701853845 77.68661609553065 L 354.4794428943407 76.33345401584239 L 357.8254614496564 75.25930916367089 L 361.28045642812117 74.4771782204482 L 364.81877788251904 73.99791028352566 L 368.41371248018726 73.83008703184419 L 372.0376851680546 73.97991986223451 L 375.6624706749987 74.45116506499573 L 379.25941322938354 75.2450579701098 L 382.7996527822554 76.3602668488971 L 386.2543559525857 77.79286720123369 L 389.59494985090714 79.53633689684514 L 392.79335689233096 81.58157247194445 L 395.8222286797873 83.91692671093021 L 398.65517702379174 86.52826746838932 L 401.2670001663942 89.39905751068584 L 403.63390229434583 92.51045498040145 L 405.7337044599456 95.84143391229493 L 407.5460450773837 99.36892405772883 L 409.052568227415 103.06796910711597 L 410.23709808351026 106.91190223830736 L 411.08579786770537 110.87253776436734 L 411.5873118535737 114.92037750819841 L 411.7328890563093 119.02483039529994 L 411.51648738494663 123.15444363076254 L 410.93485717826167 127.27714371358226 L 409.98760320280456 131.3604854415519 L 408.6772243576022 135.37190697431086 L 407.0091305040699 139.278988951456 L 404.99163602022094 143.04971560764653 L 402.63592986394144 146.65273578798514 L 399.9560221194231 150.0576217451024 L 396.9686671923029 153.23512359463956 L 393.6932640110916 156.15741731842223 L 390.15173378350704 158.79834423461128 L 386.36837604479854 161.1336399014069 L 382.3697039194775 163.14115048526 L 378.18425969650576 164.8010347056343 L 373.8424119894386 166.09594956565334 L 369.37613591578355 167.01121819082078 L 364.81877788251916 167.5349782256349 L 360.20480670598425 167.65830937942476 L 355.56955292292656 167.37533886708974 L 350.948938264231 166.68332365648095 L 346.3791973626767 165.58270861068087 L 341.8965938500307 164.0771597990635 L 337.5371330660705 162.17357244433538 L 333.3362736520109 159.88205317224893 L 329.3286403327577 157.21587643478932 L 325.54774020597927 154.19141518473822 L 322.02568485090956 150.82804608795712 L 318.7929205459467 147.14802976783108 L 315.8779688415201 143.17636678237727 L 313.30717967352876 138.94063023685402 L 311.1044991232606 134.47077613164583 L 309.29125383254325 129.7989327350892 L 307.88595396860046 124.95917045214652 L 306.9041165024607 119.98725383089622 L 306.3581104187008 114.92037750819848 L 306.2570253138567 109.79688804223046 L 306.6065646671641 104.65599371157755 L 307.4089648816966 99.53746447700635 L 308.6629409978397 94.48132440186713 L 310.3636597758721 89.52753890933403 L 312.502740631796 84.71569931855907 L 315.0682846921201 80.0847071466302 L 318.0449320107597 75.67246068846235 L 321.4139467663434 71.51554639202304 L 325.1533300327856 67.6489375314205 L 329.23795949182636 64.10570264527752 L 333.6397552351492 60.91672615261343 L 338.32787058748755 58.11044348342626" fill="none" stroke="#e0aaff" stroke-width="1" opacity="0.3" class="drift" />
<circle cx="341.03912817036974" cy="44.515145152586435" r="0.7456383976734241" fill="white" opacity="0.7471100766411929"  style="animation-delay: 2.3848498032387164s" />
<circle cx="151.93526090578527" cy="100.09583929622683" r="0.7902937836768408" fill="white" opacity="0.7388908372606435"  style="animation-delay: 0.8623334698667584s" />
<circle cx="109.35239137439581" cy="133.13175781530765" r="1.97031142362571" fill="white" opacity="0.6474560566506005"  style="animation-delay: 4.025795694730322s" />
<circle cx="88.24838540510527" cy="150.29101543935215" r="0.5620705794725106" fill="white" opacity="0.7553838909338388"  style="animation-delay: 4.287588130086494s" />
<circle cx="281.3982399681212" cy="59.16490053678838" r="1.7354384833693008" fill="white" opacity="0.3918601852163595" class="shimmer" style="animation-delay: 3.1499274652827127s" />
<circle cx="122.91533094180932" cy="18.384470195442404" r="1.058469611853817" fill="white" opacity="0.6789644301669122"  style="animation-delay: 1.5895814257177276s" />
<circle cx="299.6551321915838" cy="174.07826933221207" r="1.825873384818603" fill="white" opacity="0.5058700528769287" class="shimmer" style="animation-delay: 4.350595113038292s" />
<circle cx="706.3383421405273" cy="15.640191060001607" r="1.625387527566981" fill="white" opacity="0.5442806666858708"  style="animation-delay: 3.076214119553251s" />
<circle cx="257.82772976032044" cy="114.6597949563982" r="1.6739994940240925" fill="white" opacity="0.3063107324092758"  style="animation-delay: 3.326134624359738s" />
<circle cx="646.3593613676153" cy="171.42411704832648" r="0.6118302391891344" fill="white" opacity="0.34020043973932707"  style="animation-delay: 3.4335349713994914s" />
<circle cx="205.40427971251933" cy="122.59107703444508" r="1.922818753528941" fill="white" opacity="0.4969574173606673" class="shimmer" style="animation-delay: 2.6670899058212094s" />
<circle cx="382.7665888322702" cy="54.989211686389524" r="1.3703742608789153" fill="white" opacity="0.47950561216862014"  style="animation-delay: 3.4402467522266322s" />
<circle cx="331.3797480528393" cy="74.64805893919441" r="1.2791289138806374" fill="white" opacity="0.546731105294217" class="shimmer" style="animation-delay: 3.4188551638208677s" />
<circle cx="361.0375057211829" cy="92.87282623238298" r="1.382986350815048" fill="white" opacity="0.4989491063000531" class="shimmer" style="animation-delay: 3.327785800095305s" />
<circle cx="593.4803434950675" cy="167.46053116562604" r="1.8164043206040743" fill="white" opacity="0.455769184104963"  style="animation-delay: 2.572238064426615s" />
<circle cx="103.88430852395345" cy="145.8313249192402" r="1.9717832287296004" fill="white" opacity="0.43251365474713693"  style="animation-delay: 0.8453636734216385s" />
<circle cx="739.3035426779926" cy="164.14210998976162" r="1.8378019669419658" fill="white" opacity="0.4711203233110059"  style="animation-delay: 1.4433920708940573s" />
<circle cx="672.6097856764675" cy="129.45979195056995" r="1.2532576224963785" fill="white" opacity="0.5369469693418252"  style="animation-delay: 4.190464714110492s" />
<circle cx="365.69908665565407" cy="38.60899385777983" r="1.9808639982986076" fill="white" opacity="0.6769510542740442"  style="animation-delay: 1.4953565282543935s" />
<circle cx="761.5281580953801" cy="148.53634844756516" r="1.6431257528232912" fill="white" opacity="0.5582357929531903"  style="animation-delay: 1.1437595966153502s" />
<circle cx="465.6888171061041" cy="66.96104949800498" r="0.8912659006625202" fill="white" opacity="0.6305271659075702"  style="animation-delay: 4.76246183988609s" />
<circle cx="430.9198212003112" cy="97.5069290948662" r="1.9176976714798908" fill="white" opacity="0.6181633040639869"  style="animation-delay: 1.911043472514975s" />
<circle cx="464.2246573043396" cy="158.48258133584855" r="1.120085278190405" fill="white" opacity="0.5101140457415898" class="shimmer" style="animation-delay: 3.3255264010611607s" />
<circle cx="390.52865399314794" cy="38.92407188487397" r="0.9548161034771939" fill="white" opacity="0.5454133566418267" class="shimmer" style="animation-delay: 2.6956588853187355s" />
<circle cx="606.0274326473749" cy="20.212896374220122" r="0.7524732857536078" fill="white" opacity="0.3771219154632464"  style="animation-delay: 4.779749417427156s" />
<circle cx="654.4546137231144" cy="164.29769914568425" r="1.2770281786136755" fill="white" opacity="0.5528802330898488"  style="animation-delay: 2.0751074801843905s" />
<circle cx="417.1272688490303" cy="27.31749542976378" r="0.6324663803161802" fill="white" opacity="0.635375322766659"  style="animation-delay: 0.07090162036169967s" />
<circle cx="332.3053129965366" cy="192.48625334255394" r="1.8815442565809637" fill="white" opacity="0.6554167960638186"  style="animation-delay: 3.1922811716723007s" />
<circle cx="247.4521017278862" cy="13.239001918113491" r="1.1474845754172103" fill="white" opacity="0.7956185090424603"  style="animation-delay: 4.181054530650795s" />
<circle cx="628.2955061145765" cy="128.1102594829377" r="1.4301918662704836" fill="white" opacity="0.6985744571227706"  style="animation-delay: 3.9651069595046637s" />
<circle cx="304.129066412519" cy="109.82072714374537" r="1.5106107428619735" fill="white" opacity="0.7918110086824652" class="shimmer" style="animation-delay: 4.618652328148821s" />
<circle cx="730.3122513055803" cy="90.80217945764883" r="0.7960927516716715" fill="white" opacity="0.4287730903064895"  style="animation-delay: 4.212067179255948s" />
<circle cx="493.4020085810902" cy="30.172095898151774" r="0.5576325710896707" fill="white" opacity="0.44779769368365036"  style="animation-delay: 3.382540606418325s" />
<circle cx="770.7067549748785" cy="21.479398100060678" r="1.9332950887728066" fill="white" opacity="0.3877666754718419"  style="animation-delay: 2.250218986295484s" />
<circle cx="175.31894734692168" cy="195.7178042884547" r="0.507922666916791" fill="white" opacity="0.7271051169492146"  style="animation-delay: 3.233151681666394s" />
<circle cx="97.81173482855472" cy="65.11993199785397" r="1.9396826133370175" fill="white" opacity="0.510156022717003"  style="animation-delay: 1.245995291683234s" />
<circle cx="739.4207689203583" cy="136.09131550359228" r="1.8517957283941695" fill="white" opacity="0.48450088980608924" class="shimmer" style="animation-delay: 2.446551835702413s" />
<circle cx="358.0865210445385" cy="100.4726781800513" r="0.582832512576474" fill="white" opacity="0.6169213298240119"  style="animation-delay: 1.8648647043282396s" />
<circle cx="442.34032061121286" cy="188.80009980559635" r="0.7862464727284866" fill="white" opacity="0.6227307182099275"  style="animation-delay: 2.7246119162952622s" />
<circle cx="427.4097109119637" cy="122.08866169800876" r="1.61349397888847" fill="white" opacity="0.43268546155450177"  style="animation-delay: 2.2363510227430607s" />
<circle cx="478.8384110979472" cy="117.05051645743154" r="2.957599631030292" fill="#7b2cbf" opacity="0.8" filter="url(#glow)" class="shimmer" style="animation-delay: 2.1781071748837664s" />
<circle cx="451.683472534207" cy="93.25892641926315" r="1.3366214397303282" fill="#4a0080" opacity="0.8" filter="url(#glow)" class="shimmer" style="animation-delay: 2.3505548767664846s" />
<circle cx="201.90675074285275" cy="68.5632437271543" r="1.6434565233148244" fill="#e0aaff" opacity="0.8" filter="url(#glow)" class="shimmer" style="animation-delay: 2.06037534089804s" />
<circle cx="601.5931692327014" cy="45.03527497510342" r="2.2787252315704856" fill="#4a0080" opacity="0.8" filter="url(#glow)" class="shimmer" style="animation-delay: 2.939883223453175s" />
<circle cx="443.2554607682347" cy="65.45553549713885" r="2.718747144450441" fill="#c77dff" opacity="0.8" filter="url(#glow)" class="shimmer" style="animation-delay: 0.7132827579487673s" />
<circle cx="175.33300136226177" cy="185.63077239009326" r="2.8806803573186657" fill="#7b2cbf" opacity="0.8" filter="url(#glow)" class="shimmer" style="animation-delay: 1.502308513606443s" />
<circle cx="573.3470282207987" cy="92.12260866784092" r="2.2735482170898496" fill="#4a0080" opacity="0.8" filter="url(#glow)" class="shimmer" style="animation-delay: 1.834182219788109s" />
<circle cx="782.5800358312208" cy="34.074385227693504" r="2.5247447666304845" fill="#9d4edd" opacity="0.8" filter="url(#glow)" class="shimmer" style="animation-delay: 2.1619137256934406s" />
<line x1="504.7428460523842" y1="124.07406061261443" x2="528.7353101007761" y2="62.180530023935574" stroke="#e0aaff" stroke-width="0.5" opacity="0.3" />
<line x1="50.34189670296074" y1="163.42352696573678" x2="125.51999510978015" y2="141.12293950592755" stroke="#e0aaff" stroke-width="0.5" opacity="0.3" />
<line x1="125.51999510978015" y1="141.12293950592755" x2="269.422620721797" y2="126.49875685859477" stroke="#e0aaff" stroke-width="0.5" opacity="0.3" />

  
    <text x="400" y="120" text-anchor="middle" class="name-text" fill="url(#textGrad)" filter="url(#textGlow)">
      JOEL HOOKS
    </text>
  
</svg>
