<svg xmlns="http://www.w3.org/2000/svg" viewBox="0 0 800 200" width="800" height="200">
  <rect width="800" height="200" fill="#1a0a0a"/>
  
    <defs>
      <linearGradient id="grad1" x1="0%" y1="0%" x2="100%" y2="100%">
        <stop offset="0%" style="stop-color:#ff4500;stop-opacity:0.8" />
        <stop offset="100%" style="stop-color:#ff6b35;stop-opacity:0.8" />
      </linearGradient>
      <linearGradient id="grad2" x1="100%" y1="0%" x2="0%" y2="100%">
        <stop offset="0%" style="stop-color:#f7c59f;stop-opacity:0.7" />
        <stop offset="100%" style="stop-color:#efa48b;stop-opacity:0.7" />
      </linearGradient>
      <linearGradient id="textGrad" x1="0%" y1="0%" x2="100%" y2="0%">
        <stop offset="0%" style="stop-color:#ff4500" />
        <stop offset="25%" style="stop-color:#ff6b35" />
        <stop offset="50%" style="stop-color:#f7c59f" />
        <stop offset="75%" style="stop-color:#efa48b" />
        <stop offset="100%" style="stop-color:#d4a5a5" />
      </linearGradient>
      <filter id="glow">
        <feGaussianBlur stdDeviation="3" result="coloredBlur"/>
        <feMerge>
          <feMergeNode in="coloredBlur"/>
          <feMergeNode in="SourceGraphic"/>
        </feMerge>
      </filter>
      <filter id="textGlow">
        <feGaussianBlur stdDeviation="2" result="coloredBlur"/>
        <feMerge>
          <feMergeNode in="coloredBlur"/>
          <feMergeNode in="SourceGraphic"/>
        </feMerge>
      </filter>
    </defs>
  
  
    <style>
      @keyframes float {
        0%, 100% { transform: translateY(0px); }
        50% { transform: translateY(-8px); }
      }
      @keyframes pulse {
        0%, 100% { opacity: 0.4; }
        50% { opacity: 0.9; }
      }
      @keyframes drift {
        0% { transform: translateX(0px); }
        50% { transform: translateX(10px); }
        100% { transform: translateX(0px); }
      }
      @keyframes shimmer {
        0% { opacity: 0.3; }
        50% { opacity: 1; }
        100% { opacity: 0.3; }
      }
      @keyframes glitch {
        0%, 100% { transform: translateX(0); }
        20% { transform: translateX(-2px); }
        40% { transform: translateX(2px); }
        60% { transform: translateX(-1px); }
        80% { transform: translateX(1px); }
      }
      @keyframes dataStream {
        0% { stroke-dashoffset: 0; }
        100% { stroke-dashoffset: -20; }
      }
      .float { animation: float 8s ease-in-out infinite; }
      .pulse { animation: pulse 8s ease-in-out infinite; }
      .drift { animation: drift 8s ease-in-out infinite; }
      .shimmer { animation: shimmer 3s ease-in-out infinite; }
      .glitch { animation: glitch 0.5s ease-in-out infinite; }
      .dataStream { animation: dataStream 2s linear infinite; }
      .name-text { 
        font-family: -apple-system, BlinkMacSystemFont, 'Segoe UI', Helvetica, Arial, sans-serif;
        font-weight: 700;
        font-size: 64px;
        letter-spacing: -2px;
      }
    </style>
  
  <rect x="0" y="160" width="800" height="50" fill="#ff4500" opacity="0.3" />
<rect x="0" y="170" width="800" height="40" fill="#ff6b35" opacity="0.25" />
<rect x="0" y="180" width="800" height="30" fill="#f7c59f" opacity="0.19999999999999998" />
<rect x="0" y="190" width="800" height="20" fill="#efa48b" opacity="0.14999999999999997" />
<rect x="0" y="200" width="800" height="10" fill="#d4a5a5" opacity="0.09999999999999998" />
<line x1="550.6416075355804" y1="170" x2="550.6416075355804" y2="305.6077535798531" stroke="#ff4500" stroke-width="2.9215816912785284" opacity="0.265897176689308" class="pulse" />
<line x1="550.6416075355804" y1="170" x2="572.1814100756386" y2="250.38763746449825" stroke="#ff4500" stroke-width="1.5665959334826223" opacity="0.19361820710878225" class="pulse" />
<line x1="550.6416075355804" y1="170" x2="619.5709409093122" y2="289.3891075351564" stroke="#ff4500" stroke-width="1.005617295349977" opacity="0.22839049021364688" class="pulse" />
<line x1="550.6416075355804" y1="170" x2="613.0083973984342" y2="232.36678986285378" stroke="#ff4500" stroke-width="2.932503296964339" opacity="0.12358870399792098" class="pulse" />
<line x1="550.6416075355804" y1="170" x2="641.4146540194976" y2="222.40784282265196" stroke="#ff4500" stroke-width="2.434455621451704" opacity="0.24549032071632929" class="pulse" />
<line x1="550.6416075355804" y1="170" x2="694.5921396710058" y2="208.57142883571765" stroke="#ff4500" stroke-width="2.6209398593712656" opacity="0.20992907879331457" class="pulse" />
<line x1="550.6416075355804" y1="170" x2="695.5882932859394" y2="170" stroke="#ff4500" stroke-width="1.6844473394256583" opacity="0.16634824117196834" class="pulse" />
<line x1="550.6416075355804" y1="170" x2="669.454800956866" y2="138.16410077260372" stroke="#ff4500" stroke-width="2.8328457206377253" opacity="0.15241270556946454" class="pulse" />
<line x1="550.6416075355804" y1="170" x2="633.9262091987824" y2="121.91561281039958" stroke="#ff4500" stroke-width="2.7127660839356067" opacity="0.2087926010932627" class="pulse" />
<line x1="550.6416075355804" y1="170" x2="641.8254293908926" y2="78.81617814468777" stroke="#ff4500" stroke-width="1.4050963033099468" opacity="0.2252651721744882" class="pulse" />
<line x1="550.6416075355804" y1="170" x2="607.0596022983376" y2="72.28116660974989" stroke="#ff4500" stroke-width="1.3465354331717698" opacity="0.19978919438599158" class="pulse" />
<line x1="550.6416075355804" y1="170" x2="582.859149027586" y2="49.762498256876924" stroke="#ff4500" stroke-width="1.8155490657806648" opacity="0.22198296402727258" class="pulse" />
<path d="M 449.6783269515539 65.18371232085101 C 450.3072839513218 75.92561148058756, 453.77581400338016 93.98230861331095, 447.77279771804274 99.2962807993643 C 441.7697814327053 104.61025298541765, 422.62119649157637 99.47743434462859, 413.66022923952943 97.06754543717108 C 404.6992619874825 94.65765652971356, 401.9706079075672 90.15091954067255, 394.00699420576126 84.8369473546192 C 386.0433805039553 79.52297516856585, 369.2044259195082 75.06066955625508, 365.8785470286935 65.18371232085101 C 362.5526681378788 55.306755085446945, 366.0881071590672 34.84303589216703, 374.05172086087316 25.57520394219479 C 382.01533456267913 16.30737199222255, 402.0023400964357 8.031773637892522, 413.66022923952943 9.576720621017557 C 425.31811838262314 11.121667604142592, 437.996039434098 25.577053890972763, 443.99905571943543 34.844885840945004 C 450.00207200477286 44.112717790917245, 449.04936995178605 54.44181316111447, 449.6783269515539 65.18371232085101 Z" fill="#f7c59f" opacity="0.10529311573530405" class="drift" />
<path d="M 703.5232782013468 69.63817771030078 C 702.1566843858236 75.95321152825679, 695.0031369758026 77.75663127263898, 690.330044729234 84.48349771759943 C 685.6569524826655 91.21036416255988, 681.8292468478801 108.60329425655166, 675.4847247219353 109.9993763800635 C 669.1402025959906 111.39545850357533, 657.7981476435529 99.58685690363083, 652.2629119735657 92.85999045867038 C 646.7276763035785 86.13312401370993, 643.2522658273506 78.35773708509585, 642.273310702012 69.63817771030078 C 641.2943555766735 60.91861833550572, 640.8539455515473 46.108080208828774, 646.3891812215345 40.54263420990001 C 651.9244168915217 34.97718821097124, 666.794653655129 35.237058283400955, 675.4847247219353 36.245501716728185 C 684.1747957887417 37.253945150055415, 693.8565153758042 41.027848810934614, 698.5296076223727 46.59329480986338 C 703.2026998689413 52.158740808792146, 704.88987201687 63.323143892344774, 703.5232782013468 69.63817771030078 Z" fill="#f7c59f" opacity="0.19264481148874957" class="drift" />
<path d="M 158.91490272639646 56.57135552439859 C 158.69656610093705 71.08882210953452, 160.08227114534893 91.5992303616791, 151.73626685333352 99.46874540342816 C 143.3902625613181 107.33826044517721, 123.30354038659581 103.62291232227753, 108.83887697430394 103.78844577489288 C 94.37421356201207 103.95397922750823, 75.31936221597745 108.33146116086934, 64.94828637958226 100.46194611912028 C 54.577210543187064 92.59243107737123, 45.149646111779695 69.73877654515273, 46.612421955932795 56.5713555243986 C 48.075197800085895 43.403934503644464, 63.35386560810565 29.92734592094174, 73.72494144450084 21.45741999459549 C 84.09601728089604 12.987494068249243, 95.61865278070574 7.2673789833182605, 108.83887697430393 5.751799966321109 C 122.05910116790211 4.236220949323957, 144.7002823140745 3.8940199662663293, 153.04628660608995 12.363945892612577 C 161.3922908981054 20.833871818958826, 159.13323935185588 42.05388893926266, 158.91490272639646 56.57135552439859 Z" fill="#f7c59f" opacity="0.1911470279064415" class="drift" />
<path d="M 494.15691021371106 61.34682233288045 C 494.2139115082398 65.87706022113736, 478.7442838205683 71.18046750964066, 472.9094150322683 75.10853988123739 C 467.07454624396837 79.03661225283412, 464.4147181015379 84.23547512761986, 459.1476974839114 84.91525656246077 C 453.88067686628483 85.59503799730167, 445.73449095453464 83.11530086187952, 441.307291326509 79.1872284902828 C 436.8800916984834 75.2591561186861, 434.26382581670174 68.97295048629186, 432.5844997157578 61.34682233288045 C 430.9051736148138 53.720694179469035, 426.8041350928196 40.0604561626688, 431.2313347208452 33.4304595698143 C 435.65853434887083 26.800462976959807, 452.2583520598696 19.150733945439875, 459.1476974839114 21.56684277575348 C 466.03704290795315 23.982951606067083, 466.7325384767959 41.297115958841424, 472.5674072650959 47.92711255169592 C 478.40227605339584 54.55710914455042, 494.0999089191823 56.81658444462354, 494.15691021371106 61.34682233288045 Z" fill="#f7c59f" opacity="0.24908716003174103" class="drift" />
<path d="M 586.9835986658226 82.91079657227188 L 594.0567781582912 79.3742068260376 L 601.1299576507598 82.91079657227188" fill="none" stroke="#d4a5a5" stroke-width="1.5" opacity="0.4" class="float" style="animation-delay: 0.34970736595407614s" />
<path d="M 95.85708805449829 37.75291532714241 L 107.62191813236606 31.870500288208525 L 119.38674821023383 37.75291532714241" fill="none" stroke="#d4a5a5" stroke-width="1.5" opacity="0.4" class="float" style="animation-delay: 1.707047699591647s" />
<path d="M 611.1060125374868 59.57051928836689 L 616.9588760976194 56.644087508300565 L 622.811739657752 59.57051928836689" fill="none" stroke="#d4a5a5" stroke-width="1.5" opacity="0.4" class="float" style="animation-delay: 1.3824319708412087s" />
<path d="M 536.3703927464074 44.94575941663132 L 546.1544527639019 40.05372940788408 L 555.9385127813963 44.94575941663132" fill="none" stroke="#d4a5a5" stroke-width="1.5" opacity="0.4" class="float" style="animation-delay: 1.349085879251999s" />
<path d="M 641.6498577356056 27.936140344165 L 646.7374588768038 25.392339773565915 L 651.825060018002 27.936140344165" fill="none" stroke="#d4a5a5" stroke-width="1.5" opacity="0.4" class="float" style="animation-delay: 0.43075103445928975s" />

  
    <text x="400" y="120" text-anchor="middle" class="name-text" fill="url(#textGrad)" filter="url(#textGlow)">
      JOEL HOOKS
    </text>
  
</svg>
