<svg xmlns="http://www.w3.org/2000/svg" viewBox="0 0 800 200" width="800" height="200">
  <rect width="800" height="200" fill="#1a0a0a"/>
  
    <defs>
      <linearGradient id="grad1" x1="0%" y1="0%" x2="100%" y2="100%">
        <stop offset="0%" style="stop-color:#ff4500;stop-opacity:0.8" />
        <stop offset="100%" style="stop-color:#ff6b35;stop-opacity:0.8" />
      </linearGradient>
      <linearGradient id="grad2" x1="100%" y1="0%" x2="0%" y2="100%">
        <stop offset="0%" style="stop-color:#f7c59f;stop-opacity:0.7" />
        <stop offset="100%" style="stop-color:#efa48b;stop-opacity:0.7" />
      </linearGradient>
      <linearGradient id="textGrad" x1="0%" y1="0%" x2="100%" y2="0%">
        <stop offset="0%" style="stop-color:#ff4500" />
        <stop offset="25%" style="stop-color:#ff6b35" />
        <stop offset="50%" style="stop-color:#f7c59f" />
        <stop offset="75%" style="stop-color:#efa48b" />
        <stop offset="100%" style="stop-color:#d4a5a5" />
      </linearGradient>
      <filter id="glow">
        <feGaussianBlur stdDeviation="3" result="coloredBlur"/>
        <feMerge>
          <feMergeNode in="coloredBlur"/>
          <feMergeNode in="SourceGraphic"/>
        </feMerge>
      </filter>
      <filter id="textGlow">
        <feGaussianBlur stdDeviation="2" result="coloredBlur"/>
        <feMerge>
          <feMergeNode in="coloredBlur"/>
          <feMergeNode in="SourceGraphic"/>
        </feMerge>
      </filter>
    </defs>
  
  
    <style>
      @keyframes float {
        0%, 100% { transform: translateY(0px); }
        50% { transform: translateY(-8px); }
      }
      @keyframes pulse {
        0%, 100% { opacity: 0.4; }
        50% { opacity: 0.9; }
      }
      @keyframes drift {
        0% { transform: translateX(0px); }
        50% { transform: translateX(10px); }
        100% { transform: translateX(0px); }
      }
      @keyframes shimmer {
        0% { opacity: 0.3; }
        50% { opacity: 1; }
        100% { opacity: 0.3; }
      }
      @keyframes glitch {
        0%, 100% { transform: translateX(0); }
        20% { transform: translateX(-2px); }
        40% { transform: translateX(2px); }
        60% { transform: translateX(-1px); }
        80% { transform: translateX(1px); }
      }
      @keyframes dataStream {
        0% { stroke-dashoffset: 0; }
        100% { stroke-dashoffset: -20; }
      }
      .float { animation: float 8s ease-in-out infinite; }
      .pulse { animation: pulse 8s ease-in-out infinite; }
      .drift { animation: drift 8s ease-in-out infinite; }
      .shimmer { animation: shimmer 3s ease-in-out infinite; }
      .glitch { animation: glitch 0.5s ease-in-out infinite; }
      .dataStream { animation: dataStream 2s linear infinite; }
      .name-text { 
        font-family: -apple-system, BlinkMacSystemFont, 'Segoe UI', Helvetica, Arial, sans-serif;
        font-weight: 700;
        font-size: 64px;
        letter-spacing: -2px;
      }
    </style>
  
  <rect x="0" y="160" width="800" height="50" fill="#ff4500" opacity="0.3" />
<rect x="0" y="170" width="800" height="40" fill="#ff6b35" opacity="0.25" />
<rect x="0" y="180" width="800" height="30" fill="#f7c59f" opacity="0.19999999999999998" />
<rect x="0" y="190" width="800" height="20" fill="#efa48b" opacity="0.14999999999999997" />
<rect x="0" y="200" width="800" height="10" fill="#d4a5a5" opacity="0.09999999999999998" />
<line x1="269.02245033871316" y1="170" x2="269.02245033871316" y2="293.73052419768027" stroke="#ff4500" stroke-width="1.6624896191869127" opacity="0.24800380378154463" class="pulse" />
<line x1="269.02245033871316" y1="170" x2="294.2060192020913" y2="263.9863585140368" stroke="#ff4500" stroke-width="2.7588172881777178" opacity="0.18921455557835032" class="pulse" />
<line x1="269.02245033871316" y1="170" x2="313.48827644153505" y2="247.01707001060998" stroke="#ff4500" stroke-width="2.1550971877361884" opacity="0.1953494736446102" class="pulse" />
<line x1="269.02245033871316" y1="170" x2="372.3234780303993" y2="273.30102769168616" stroke="#ff4500" stroke-width="2.56413537593782" opacity="0.23197597427478822" class="pulse" />
<line x1="269.02245033871316" y1="170" x2="340.454126371831" y2="211.24109738638674" stroke="#ff4500" stroke-width="2.7903962776395232" opacity="0.13554248225652255" class="pulse" />
<line x1="269.02245033871316" y1="170" x2="398.05177984180887" y2="204.57330464028377" stroke="#ff4500" stroke-width="1.178358786151919" opacity="0.18592092328271975" class="pulse" />
<line x1="269.02245033871316" y1="170" x2="401.65681365877094" y2="170" stroke="#ff4500" stroke-width="2.607676834156652" opacity="0.2699663121468247" class="pulse" />
<line x1="269.02245033871316" y1="170" x2="383.6222115945473" y2="139.2930865186998" stroke="#ff4500" stroke-width="1.9571404888963362" opacity="0.20430158249236352" class="pulse" />
<line x1="269.02245033871316" y1="170" x2="379.83789361997196" y2="106.02067399119755" stroke="#ff4500" stroke-width="2.557366830944698" opacity="0.24330107861873232" class="pulse" />
<line x1="269.02245033871316" y1="170" x2="357.6545870331949" y2="81.36786330551827" stroke="#ff4500" stroke-width="1.3514509781003468" opacity="0.25493915821261315" class="pulse" />
<line x1="269.02245033871316" y1="170" x2="334.79509185224526" y2="56.078443150548566" stroke="#ff4500" stroke-width="2.267958127529976" opacity="0.22627848977453077" class="pulse" />
<line x1="269.02245033871316" y1="170" x2="299.97645695283484" y2="54.478074618275016" stroke="#ff4500" stroke-width="1.8737827229379667" opacity="0.18961633570832967" class="pulse" />
<path d="M 164.39154953608173 49.16227865969047 C 162.5610442915032 58.55942082112158, 163.6534278485334 67.04427924876856, 158.96582136091217 71.86218941024825 C 154.27821487329095 76.68009957172794, 145.07955380802477 76.82273334775087, 136.2659106103544 78.06973962856864 C 127.45226741268405 79.31674590938641, 110.85524919699873 84.16213725663457, 106.08396217489002 79.34422709515486 C 101.31267515278131 74.52631693367516, 105.17431267851518 56.75905233899162, 107.63818847770216 49.16227865969047 C 110.10206427688914 41.56550498038932, 116.09592994790317 39.20857986398404, 120.86721697001188 33.76358501934794 C 125.63850399212059 28.31859017471184, 128.0856379672925 19.53968435482159, 136.2659106103544 16.492309591873862 C 144.4461832534163 13.444934828926138, 165.26124634076206 10.034341597025492, 169.94885282838328 15.479336441661594 C 174.6364593160045 20.924331286297697, 166.22205478066024 39.765136498259366, 164.39154953608173 49.16227865969047 Z" fill="#f7c59f" opacity="0.2488281158854346" class="drift" />
<path d="M 415.2561403402152 29.933526543763517 C 415.0444443431448 36.50040789484748, 412.9640573558627 40.88691264730894, 408.69252954658407 48.99908260580417 C 404.42100173730546 57.1112525642994, 396.52926689859345 78.05943823469843, 389.62697348454344 78.60654629473488 C 382.72468007049343 79.15365435477133, 375.2863623571259 60.393900924518135, 367.278769062284 52.281730966022906 C 359.2711757674422 44.169561007527676, 343.33912288008713 39.14063718244493, 341.5814137154922 29.933526543763524 C 339.8237045508973 20.72641590508212, 348.72492077987255 5.892374863231472, 356.7325140747144 -2.960932866065516 C 364.74010736955626 -11.814240595362504, 380.7552749088281 -25.279441059579387, 389.62697348454344 -23.186319832018402 C 398.4986720602588 -21.093198604457417, 405.69117771972793 0.7444867700034088, 409.96270552900654 9.597794499300395 C 414.23423333828515 18.45110222859738, 415.46783633728563 23.366645192679556, 415.2561403402152 29.933526543763517 Z" fill="#f7c59f" opacity="0.15317192678532346" class="drift" />
<path d="M 157.82820558715275 79.87601541228696 C 156.49113668937824 87.01494949783246, 137.8451563492184 91.7317378711393, 130.36742738896893 97.28161097559989 C 122.88969842871947 102.83148408006048, 119.1254658933201 112.81348515915737, 112.96183182565599 113.17525403905049 C 106.79819775799189 113.5370229189436, 99.19183781181849 105.00209735941922, 93.38562298298433 99.45222425495864 C 87.57940815415017 93.90235115049805, 77.76490166222142 86.04177716941454, 78.12454285265106 79.87601541228696 C 78.4841840430807 73.71025365515938, 89.737255296728 66.58861045611611, 95.54347012556215 62.45765371219312 C 101.34968495439631 58.32669696827013, 105.820770050647 56.42521615706003, 112.96183182565599 55.090274948748984 C 120.10289360066498 53.75533374043794, 130.91211181536661 50.31704971840386, 138.38984077561608 54.44800646232685 C 145.86756973586554 58.578963206249846, 159.16527448492727 72.73708132674146, 157.82820558715275 79.87601541228696 Z" fill="#f7c59f" opacity="0.13113920093767595" class="drift" />
<path d="M 385.93543207975966 55.44313749823333 C 386.5941916321137 64.52551068606095, 366.7172405308155 75.50362001321905, 357.0289225769177 84.6665357187783 C 347.3406046230199 93.82945142433756, 336.9478213163782 111.01946751176499, 327.8055243563727 110.42063173158886 C 318.6632273963672 109.82179595141272, 309.17191502677576 90.23643674328078, 302.17514081688455 81.07352103772152 C 295.17836660699334 71.91060533216226, 288.85631946542117 67.01803904645843, 285.8248790970255 55.443137498233334 C 282.7934387286298 43.868235950008234, 276.98972439661907 22.093803911518755, 283.9864986065103 11.624111748370915 C 290.9832728164015 1.1544195852230743, 316.2905465803255 -10.466379621227308, 327.8055243563727 -7.375015480653708 C 339.3205021324199 -4.283651340080109, 343.3880473088957 19.70260442866467, 353.0763652627935 30.17229659181251 C 362.7646832166913 40.64198875496035, 385.27667252740565 46.36076431040569, 385.93543207975966 55.44313749823333 Z" fill="#f7c59f" opacity="0.12955525745169638" class="drift" />
<path d="M 427.90887169318654 69.63772161358932 L 437.3316861862577 64.92631436705375 L 446.7545006793288 69.63772161358932" fill="none" stroke="#d4a5a5" stroke-width="1.5" opacity="0.4" class="float" style="animation-delay: 2.1805392410754356s" />
<path d="M 467.56478155908076 70.05400007445328 L 475.46580440515663 66.10348865141533 L 483.3668272512325 70.05400007445328" fill="none" stroke="#d4a5a5" stroke-width="1.5" opacity="0.4" class="float" style="animation-delay: 0.5351949376418597s" />
<path d="M 412.4441452925856 63.01109143256979 L 418.25290060883344 60.106713774445865 L 424.0616559250813 63.01109143256979" fill="none" stroke="#d4a5a5" stroke-width="1.5" opacity="0.4" class="float" style="animation-delay: 2.4818374141118067s" />
<path d="M 92.83854649264755 38.096459453329174 L 100.60979174140827 34.210836828948814 L 108.381036990169 38.096459453329174" fill="none" stroke="#d4a5a5" stroke-width="1.5" opacity="0.4" class="float" style="animation-delay: 1.0553187187260462s" />
<path d="M 453.2634603915014 48.850000749418136 L 462.37381264805555 44.29482462114105 L 471.4841649046097 48.850000749418136" fill="none" stroke="#d4a5a5" stroke-width="1.5" opacity="0.4" class="float" style="animation-delay: 2.7904630152885828s" />

  
    <text x="400" y="120" text-anchor="middle" class="name-text" fill="url(#textGrad)" filter="url(#textGlow)">
      JOEL HOOKS
    </text>
  
</svg>
