<svg xmlns="http://www.w3.org/2000/svg" viewBox="0 0 800 200" width="800" height="200">
  <rect width="800" height="200" fill="#05010d"/>
  
    <defs>
      <linearGradient id="grad1" x1="0%" y1="0%" x2="100%" y2="100%">
        <stop offset="0%" style="stop-color:#4a0080;stop-opacity:0.8" />
        <stop offset="100%" style="stop-color:#7b2cbf;stop-opacity:0.8" />
      </linearGradient>
      <linearGradient id="grad2" x1="100%" y1="0%" x2="0%" y2="100%">
        <stop offset="0%" style="stop-color:#9d4edd;stop-opacity:0.7" />
        <stop offset="100%" style="stop-color:#c77dff;stop-opacity:0.7" />
      </linearGradient>
      <linearGradient id="textGrad" x1="0%" y1="0%" x2="100%" y2="0%">
        <stop offset="0%" style="stop-color:#4a0080" />
        <stop offset="25%" style="stop-color:#7b2cbf" />
        <stop offset="50%" style="stop-color:#9d4edd" />
        <stop offset="75%" style="stop-color:#c77dff" />
        <stop offset="100%" style="stop-color:#e0aaff" />
      </linearGradient>
      <filter id="glow">
        <feGaussianBlur stdDeviation="5" result="coloredBlur"/>
        <feMerge>
          <feMergeNode in="coloredBlur"/>
          <feMergeNode in="SourceGraphic"/>
        </feMerge>
      </filter>
      <filter id="textGlow">
        <feGaussianBlur stdDeviation="2" result="coloredBlur"/>
        <feMerge>
          <feMergeNode in="coloredBlur"/>
          <feMergeNode in="SourceGraphic"/>
        </feMerge>
      </filter>
    </defs>
  
  
    <style>
      @keyframes float {
        0%, 100% { transform: translateY(0px); }
        50% { transform: translateY(-8px); }
      }
      @keyframes pulse {
        0%, 100% { opacity: 0.4; }
        50% { opacity: 0.9; }
      }
      @keyframes drift {
        0% { transform: translateX(0px); }
        50% { transform: translateX(10px); }
        100% { transform: translateX(0px); }
      }
      @keyframes shimmer {
        0% { opacity: 0.3; }
        50% { opacity: 1; }
        100% { opacity: 0.3; }
      }
      @keyframes glitch {
        0%, 100% { transform: translateX(0); }
        20% { transform: translateX(-2px); }
        40% { transform: translateX(2px); }
        60% { transform: translateX(-1px); }
        80% { transform: translateX(1px); }
      }
      @keyframes dataStream {
        0% { stroke-dashoffset: 0; }
        100% { stroke-dashoffset: -20; }
      }
      .float { animation: float 8s ease-in-out infinite; }
      .pulse { animation: pulse 8s ease-in-out infinite; }
      .drift { animation: drift 8s ease-in-out infinite; }
      .shimmer { animation: shimmer 3s ease-in-out infinite; }
      .glitch { animation: glitch 0.5s ease-in-out infinite; }
      .dataStream { animation: dataStream 2s linear infinite; }
      .name-text { 
        font-family: -apple-system, BlinkMacSystemFont, 'Segoe UI', Helvetica, Arial, sans-serif;
        font-weight: 700;
        font-size: 64px;
        letter-spacing: -2px;
      }
    </style>
  
  <path d="M 733.1982289124061 166.56128356235814 C 740.0680424988811 193.22291355933882, 721.3851443747197 243.82765361302842, 698.903661317109 267.15561431272545 C 676.4221782594983 290.4835750124225, 630.7349036459561 307.6349182647816, 598.3093305667417 306.52904776054027 C 565.8837574875272 305.4231772562989, 520.1261884337224 283.84835198697454, 504.3502228418223 260.5203912872775 C 488.5742572499222 237.19243058758047, 504.4048125007771 198.6322616227673, 503.65353701534104 166.56128356235814 C 502.902261529905 134.490305501949, 484.066604337306 85.96339144546721, 499.8425699292061 68.0945229248226 C 515.6185355211062 50.225654404177995, 572.0022955885663 52.83285387082071, 598.3093305667417 59.34807243849052 C 624.616365544917 65.86329100616032, 635.2032967406476 89.31696581019682, 657.6847797982583 107.18583433084143 C 680.166262855869 125.05470285148604, 726.328415325931 139.89965356537746, 733.1982289124061 166.56128356235814 Z" fill="#9d4edd" opacity="0.13567404058396884" filter="url(#glow)" class="float" />
<path d="M 243.39604763002754 131.56985418053694 C 241.33333044443444 147.9318720274792, 241.24285287647984 165.81625501548888, 232.23263352896083 174.4677561645844 C 223.22241418144182 183.1192573136799, 202.08822209763554 185.02467118373696, 189.33473154491338 183.47886107510996 C 176.58124099219123 181.93305096648297, 161.6360765223296 173.84439666191793, 155.7116902126279 165.19289551282242 C 149.7873039029262 156.5413943637269, 152.18900720651672 141.17812814444565, 153.78841368670317 131.56985418053694 C 155.3878201668896 121.96158021662822, 159.38374278404487 115.54072136487113, 165.30812909374657 107.54325172937014 C 171.23251540344828 99.54578209386915, 176.11793028678457 88.79297014193753, 189.33473154491338 83.58503636753099 C 202.5515328030422 78.37710259312445, 235.59871729500037 68.29817944742994, 244.60893664251938 76.29564908293094 C 253.6191559900384 84.29311871843193, 245.45876481562064 115.2078363335947, 243.39604763002754 131.56985418053694 Z" fill="#e0aaff" opacity="0.2314160925359574" filter="url(#glow)" class="float" />
<path d="M 850.8940822568948 3.6427526472176286 C 858.1362286194759 18.563022130975558, 880.9183076425786 53.1726148157899, 873.686365446224 62.36629567300881 C 866.4544232498695 71.55997653022771, 824.5528000210609 55.92605570376338, 807.5024290787671 58.80483779053107 C 790.4520581364734 61.68361987729875, 783.0655182634482 80.19709777471293, 771.3841397924616 79.6389881936149 C 759.702761321475 79.08087861251688, 749.6313849873476 64.00019447071968, 737.4141582528472 55.456180303942936 C 725.1969315183468 46.9121661371662, 708.7964495861532 42.35401720517101, 698.080779385459 28.3749031929545 C 687.3651091847647 14.395789180737987, 669.5689847338615 -12.193632471797923, 673.1201370486814 -28.41850376935613 C 676.6712893635013 -44.64337506691433, 702.3783780063029 -66.04735579531953, 719.3876932743781 -68.97432459239472 C 736.3970085424532 -71.90129338946991, 758.8000927523135 -45.18857707156457, 775.1760286571325 -45.9803165518073 C 791.5519645619515 -46.772056032050024, 808.4670656010246 -76.86226069422918, 817.6433087032921 -73.72476147385109 C 826.8195518055595 -70.587262253473, 824.6916916784702 -40.04990691638356, 830.2334872707373 -27.155321229538778 C 835.7752828630045 -14.260735542693991, 843.6519358943136 -11.2775168365403, 850.8940822568948 3.6427526472176286 Z" fill="#9d4edd" opacity="0.16582449950257733" filter="url(#glow)" class="float" />
<path d="M 878.3960281063339 119.80528850662915 C 875.4270746613793 141.65037687843386, 835.550222849691 166.13046075734943, 815.6890586934003 178.86934079776069 C 795.8278945371096 191.60822083817195, 778.3555515663784 188.91712753340698, 759.22904316859 196.23856874909666 C 740.1025347708016 203.56000996478633, 721.5253009488829 223.58075379777878, 700.9300083066702 222.79798809189867 C 680.3347156644575 222.01522238601856, 646.2586178956532 208.7074244446943, 635.6572873153134 191.54197451381606 C 625.0559567349736 174.3765245829378, 634.3261729011873 141.54090334570262, 637.3220248246315 119.80528850662917 C 640.3178767480757 98.06967366755572, 641.0036836749875 72.0540872013071, 653.6323988559784 61.128285479375336 C 666.2611140369693 50.202483757443574, 693.0566824244721 64.71384345139693, 713.0943159105766 54.25047817503858 C 733.1319493966811 43.78711289868023, 753.7901225305134 -0.576628244090396, 773.8581997726052 -1.651906178774766 C 793.926277014697 -2.7271841134591357, 816.079807974173 27.555944786031706, 833.5027793631278 47.79881056693236 C 850.9257507520826 68.04167634783302, 881.3649815512886 97.96020013482443, 878.3960281063339 119.80528850662915 Z" fill="#7b2cbf" opacity="0.22354870277551608" filter="url(#glow)" class="float" />
<path d="M 630.2097376011286 138.76551184204064 L 630.2097376011286 138.76551184204064 L 630.558675986944 138.79603999506853 L 630.8996373332448 138.88715977879625 L 631.2247458097296 139.03748247184623 L 631.5263269260375 139.2447111670601 L 631.7970055160564 139.50566702631517 L 632.0298005288904 139.81632566332598 L 632.2182156108323 140.17186328476362 L 632.3563245039239 140.5667121204662 L 632.4388503375149 140.99462457842688 L 632.4612379491606 141.44874547053485 L 632.4197184396933 141.92169157157505 L 632.3113652436994 142.4056376975643 L 632.1341410802423 142.89240842085277 L 631.8869352386968 143.37357447922182 L 631.5695907501566 143.84055288504575 L 631.1829210951736 144.2847096989697 L 630.7287162026025 144.69746440090125 L 630.2097376011286 145.0703947697527 L 629.6297026935989 145.39534117253191 L 628.9932582335724 145.66450916320193 L 628.3059431924894 145.8705693022478 L 627.5741413135215 146.00675312903965 L 626.8050237534658 146.06694425070827 L 626.0064823159872 146.04576355308794 L 625.187053877118 145.93864759098247 L 624.3558366962455 145.74191927612554 L 623.5223993919699 145.4528500511994 L 622.6966834413448 145.0697128165301 L 621.8889001323561 144.59182496189297 L 621.1094229623195 144.01958094846736 L 620.3686765285765 143.3544739845427 L 619.6770230018573 142.59910644219647 L 619.0446473065174 141.75718876990229 L 618.4814421551544 140.8335267668861 L 617.9968940975921 139.83399719801633 L 617.5999717457045 138.76551184204064 L 617.2990173259614 137.63597018000922 L 617.1016426909222 136.45420104368392 L 617.0146308893153 135.22989365456777 L 617.0438443520395 133.97351859184587 L 617.1941406987211 132.69623933098953 L 617.4692971067958 131.4098150930432 L 617.8719441129487 130.12649583674238 L 618.4035096357542 128.85891031070003 L 619.0641739191973 127.61994816010937 L 619.8528360001816 126.42263715096733 L 620.7670921999886 125.28001663403 L 621.8032270308458 124.20500841994605 L 622.9562167952382 123.21028627574871 L 624.2197460383851 122.30814528067926 L 625.5862368944333 121.51037229582326 L 627.0468912454826 120.82811880702126 L 628.5917454906512 120.27177739382815 L 630.2097376011286 119.85086305890438 L 631.8887860176618 119.57390062219748 L 633.6158798302858 119.448319342789 L 635.3771795674351 119.48035587862121 L 637.158127813911 119.67496663086143 L 638.943568775568 120.03575044589321 L 640.7178758139821 120.5648825644224 L 642.4650858877145 121.26306061462257 L 644.1690397589267 122.1294633453766 L 645.8135267558324 123.16172268733686 L 647.3824328234915 124.35590961463612 L 648.8598905483774 125.70653415961301 L 650.2304298065087 127.20655980790181 L 651.4791276611604 128.84743237276197 L 652.5917561245801 130.61912331670953 L 653.5549263989521 132.51018735651172 L 654.3562282251931 134.50783405559406 L 654.984362994017 136.59801297706142 L 655.4292693119769 138.76551184204064 L 655.6822397656478 140.99406701307564 L 655.7360276894254 143.26648550199843 L 655.5849428161541 145.56477758718074 L 655.2249347743979 147.87029901741073 L 654.6536634910159 150.16390167986833 L 653.8705556620323 152.42609151875013 L 652.8768465677848 154.6371924099142 L 651.6756066290822 156.7775146262963 L 650.2717522286049 158.8275264695169 L 648.6720404549907 160.76802759569304 L 646.885047564844 162.58032252852752 L 644.9211310991235 164.24639283070618 L 642.7923757337956 165.74906639581235 L 640.5125230890474 167.07218232758223 L 638.0968858654911 168.2007498914703 L 635.5622468183757 169.12110005515035 L 632.9267432206096 169.821028179605 L 630.2097376011286 170.28992648060105 L 627.4316756755919 170.51890495123567 L 624.6139325103703 170.5008995193826 L 621.7786480771549 170.23076630867234 L 618.9485534631709 169.70536097740006 L 616.1467890999127 168.92360222566788 L 613.3967164605631 167.88651868622983 L 610.7217247519674 166.59727854793496 L 608.1450341904155 165.0612014012838 L 605.6894975008798 163.2857519422894 L 603.3774013161867 161.28051532236023 L 601.2302691754037 159.05715408704359 L 599.2686678291776 156.62934680389154 L 597.5120185536169 154.01270863809586 L 595.9784151534969 151.22469429254704 L 594.6844503000929 148.2844838852368 L 593.6450517989737 145.2128524900883 L 592.8733303188883 142.03202421602342 L 592.3804400348561 138.76551184204064 L 592.1754535472576 135.4379431620021 L 592.2652523347415 132.0748753204818 L 592.6544338828908 128.70259853923324 L 593.3452365036791 125.34793074149529 L 594.3374827237615 122.03800467743639 L 595.6285419736539 118.800049237619 L 597.2133131559962 115.66116671159182 L 599.0842275105958 112.64810780486998 L 601.2312720281074 109.78704626901931 L 603.6420334943515 107.1033550258091 L 606.301763074838 104.62138567707757 L 609.1934611754217 102.36425328680416 L 612.2979821416851 100.35362830078913 L 615.5941581880345 98.60953743231885 L 619.0589417790989 97.15017528939872 L 622.6675655222804 95.99172845084058 L 626.3937184726441 95.14821361512438 L 630.2097376011286 94.63133134805605 L 634.0868130356689 94.45033684349372 L 637.995205553488 94.61192898660832 L 641.9044746827695 95.12015887219667 L 645.7837156642616 95.97635878250102 L 649.6018034291211 97.17909247093361 L 653.3276416694063 98.7241274312805 L 656.9304150128652 100.60442965767012 L 660.3798422647568 102.81018122021835 L 663.6464286469225 105.32882079624684 L 666.7017149486497 108.14510710880606 L 669.5185215053298 111.24120503446237 L 672.0711849396506 114.59679395247765 L 674.33578563612 118.18919771920882 L 676.2903639729404 121.99353546635884 L 677.9151234053767 125.98289224117721 L 679.1926185813738 130.1285083323919 L 680.1079267727208 134.39998595905436 L 680.6488010228253 138.7655118420406 L 680.8058035443514 143.1920940310827 L 680.5724180456061 147.64581122520065 L 679.9451398225788 152.09207270251522 L 678.9235426227583 156.49588686776127 L 677.5103214659755 160.82213633342155 L 675.7113107951742 165.03585737417427 L 673.5354775247373 169.10252153506474 L 670.9948887542404 172.98831713212638 L 668.1046541196949 176.66042836060691 L 664.8828429608208 180.0873097208513 L 661.3503766899945 183.23895348547998 L 657.5308969545478 186.08714796384803 L 653.4506103873488 188.60572437077195 L 649.138110939398 190.77079017594264 L 644.6241809808257 192.5609468978948 L 639.9415725415779 193.95749041133104 L 635.1247702386167 194.94459195830876 L 630.2097376011287 195.5094581914494 L 625.2336486575848 195.64246872993945 L 620.2346067871681 195.3372898755633 L 615.2513529618203 194.59096331509687 L 610.3229656128203 193.40396882576047 L 605.4885544463596 191.78026020062745 L 600.7869506051388 189.7272738193717 L 596.2563956268168 187.25590950488746 L 591.9342316845854 184.38048352644205 L 587.8565956097898 181.11865383337945 L 584.0581191910285 177.49131782819035 L 580.5716382184511 173.52248321219415 L 577.4279126960357 169.2391126593157 L 574.6553605786575 164.67094329164917 L 572.2798073051365 159.85028214289767 L 570.3242532936683 154.81177900057133 L 568.8086614427931 149.5921782132906 L 567.7497665401845 144.23005123403055 L 567.1609083240078 138.76551184204067 L 567.0518897685539 133.23991614399515 L 567.4288619785608 127.69554959727964 L 568.2942368764662 122.17530342389882 L 569.6466286553186 116.72234289114473 L 571.480824748802 111.37977002388314 L 573.787786840512 106.19028338219493 L 576.5546821990438 101.19583758644116 L 579.7649453854376 96.43730529903993 L 583.3983701370171 91.95414437792945 L 587.4312309885214 87.78407290065095 L 591.8364339496875 83.96275472012505" fill="none" stroke="#c77dff" stroke-width="1" opacity="0.3" class="drift" />
<path d="M 533.2366047954836 62.65985197851267 L 533.2366047954836 62.65985197851267 L 533.5394806209922 62.68635017970073 L 533.8354324377752 62.76544144864272 L 534.1176240859229 62.895920385902116 L 534.3793941670394 63.075793293794774 L 534.6143410938669 63.30230096536694 L 534.8164053681131 63.571950264386246 L 534.9799482049038 63.88055417547695 L 535.099825658075 64.22327991711498 L 535.1714574446331 64.59470462766217 L 535.1908897187365 64.988878056752 L 535.1548511049989 65.39939162188737 L 535.0608013672307 65.81945312377171 L 534.9069721613047 66.24196635430935 L 534.6923993989709 66.6596147789581 L 534.4169468324308 67.06494843070907 L 534.081320556524 67.45047311684571 L 533.6870742156806 67.80874101215903 L 533.2366047954836 68.13244169375415 L 532.7331389729104 68.41449266317625 L 532.180710094183 68.64812840142898 L 531.5841259437575 68.82698701158763 L 530.948927561432 68.94519352206979 L 530.2813394559539 68.99743895107605 L 529.5882116519892 68.97905426903075 L 528.8769540920397 68.8860784407279 L 528.155463995026 68.71531978193494 L 527.432046848035 68.46440992596118 L 526.7153317764134 68.13184976362078 L 526.0141820993139 67.71704679450757 L 525.3376019323359 67.22034340788056 L 524.6946397455068 66.64303569700917 L 524.0942898230369 65.98738250076951 L 523.5453926006514 65.25660445979658 L 523.0565348765258 64.45487297072356 L 522.6359509026822 63.587289020094744 L 522.2914253650006 62.65985197851267 L 522.0301992516651 61.67941853455448 L 521.8588795919426 60.65365204604168 L 521.7833540197729 59.59096268244988 L 521.8087110799252 58.500438825691624 L 521.9391671487401 57.39177028630763 L 522.1780007870769 56.27516397739761 L 522.5274952804733 55.16125276858921 L 522.9888900512304 54.06099831619994 L 523.5623415497361 52.98558873276516 L 524.2468941485203 51.94633201861173 L 525.040461473009 50.954546229548036 L 525.9398185084949 50.02144739747649 L 526.9406047243117 49.15803625435592 L 528.0373383544572 48.3749848340647 L 529.223441869863 47.682524041044914 L 530.4912785721023 47.09033327893027 L 531.8322001325164 46.60743322655635 L 533.2366047954836 46.24208283278824 L 534.6940058608268 46.00168157553914 L 536.193109959125 45.892677994347004 L 537.721904535883 45.920485460166354 L 539.2677538670741 46.08940609095302 L 540.817502840364 46.40256365758923 L 542.3575876542194 46.861846252217454 L 543.8741525118867 47.467859410707504 L 545.3531713196516 48.21989029342879 L 546.7805733395301 49.11588343446615 L 548.1423716962153 50.15242846969415 L 549.4247935972431 51.32476014955858 L 550.6144110944083 52.62677083390329 L 551.6982711938203 54.051035554665404 L 552.6640241119328 55.58884961871689 L 553.500048475587 57.230278608555416 L 554.1955722756907 58.96422052396083 L 554.7407884065949 60.77847969416046 L 555.1269636564494 62.65985197851266 L 555.3465400576121 64.59422066524101 L 555.3932275602739 66.56666237332458 L 555.2620870564656 68.56156216324881 L 554.9496028550445 70.56273696887266 L 554.453743790587 72.55356637606847 L 553.7740122396674 74.51712969486918 L 552.9114804160837 76.43634820139532 L 551.8688134213983 78.29413136453582 L 550.6502786378292 80.07352582085817 L 549.2617411661573 81.75786582007521 L 547.7106451309172 83.33092383306723 L 546.0059807977136 84.77705999532597 L 544.1582375720062 86.08136905102948 L 542.1793430740488 87.22982346696318 L 540.0825886097775 88.20941140125178 L 537.8825414812059 89.00826823934443 L 535.5949447012209 89.61580044877893 L 533.2366047954836 90.02280055472005 L 530.8252684873702 90.22155209979616 L 528.3794891695012 90.2059235239277 L 525.9184841664107 89.97144998213035 L 523.4619838863541 89.51540221007487 L 521.0300740452524 88.83684164779618 L 518.6430322215064 87.93666114058504 L 516.3211600661214 86.81761065190778 L 514.0846125476053 85.48430754525818 L 511.95322565483906 83.94323111915719 L 509.94634401309025 82.20270121104163 L 508.08264988813403 80.27284082042597 L 506.3799950607817 78.16552283836351 L 504.8552370487867 75.89430110771069 L 503.5240811350318 73.47432617584738 L 502.40092963010875 70.92224623714327 L 501.49873975402716 68.25609389540543 L 500.8288914660624 65.49515950563502 L 500.4010665040347 62.659851978512684 L 500.2231398150451 59.77154804901423 L 500.3010844694439 56.85243112135983 L 500.6388910492302 53.925320905103135 L 501.2385023919201 51.01349515061377 L 502.09976445202 48.14050487560613 L 503.22039391552266 45.329984546914645 L 504.5959630692935 42.60545874267086 L 506.21990228790725 39.99014686877914 L 508.0835203565401 37.506767539569125 L 510.17604270109945 35.17734425528851 L 512.4846674470907 33.0230140183682 L 514.994639078012 31.06384052592223 L 517.6893393136102 29.318633557635778 L 520.5503946793793 27.80477614605961 L 523.5578000925163 26.538061070502195 L 526.6900576474203 25.532538156431556 L 529.9243296469762 24.800373789936458 L 533.2366047954836 24.351723971822338 L 536.601876346367 24.194622138919243 L 539.9943308838069 24.334882871848293 L 543.3875463132297 24.776022489623628 L 546.7546975421519 25.519197402947924 L 550.0687682510655 26.563160960869084 L 553.3027670847023 27.90423938066317 L 556.429946537805 29.536327199527648 L 559.4240227670723 31.450902530105548 L 562.2593945327261 33.637062241270144 L 564.9113594595385 36.081577022273336 L 567.356325808423 38.76896612364017 L 569.5720179659626 41.68159140342035 L 571.5376738905405 44.79977014396389 L 573.2342327999379 48.10190594363894 L 574.6445114461297 51.56463683120871 L 575.7533673981893 55.16299959927897 L 576.5478478432148 58.87060920862026 L 577.0173225174153 62.65985197851265 L 577.153599494232 66.50209115078123 L 576.9510226827726 70.3678832980065 L 576.4065500270083 74.22720394059547 L 575.5198115430496 78.0496806439505 L 574.2931464873071 81.80483178677002 L 572.7316191112217 85.4623091253521 L 570.8430126272636 88.99214222731365 L 568.6378011847214 92.36498281195665 L 566.1290998310252 95.55234701405416 L 563.3325926135781 98.52685358339843 L 560.2664391568356 101.2624560442471 L 556.9511602281967 103.7346668668802 L 553.4095029827077 105.92077174774963 L 549.6662867491267 107.80003215496826 L 545.7482303871243 109.35387437179448 L 541.6837624058877 110.56606336184313 L 537.5028151867612 111.42285988539882 L 533.2366047954837 111.91315941568595 L 528.91739800183 112.02861153641605 L 524.5782682448194 111.76371864642641 L 520.252842389064 111.11591295267306 L 515.9750402112763 110.08561089807998 L 511.7788086345509 108.67624434451633 L 507.6978527910233 106.89426801213926 L 503.765366040203 104.74914286308766 L 500.01376110018447 102.25329530858141 L 496.474404461643 99.4220523123532 L 493.17735624976706 96.27355265846249 L 490.1511176769542 92.8286348463443 L 487.42238818922743 89.11070226884647 L 485.01583435206663 85.14556651841231 L 482.9538724470267 80.96126985092528" fill="none" stroke="#9d4edd" stroke-width="1" opacity="0.3" class="drift" />
<circle cx="480.3331121480552" cy="62.17463829867058" r="1.9326901677782748" fill="white" opacity="0.6964724793462025"  style="animation-delay: 3.2603569302897473s" />
<circle cx="360.2544901316646" cy="47.61452463720182" r="1.0417348880839024" fill="white" opacity="0.5106794810781237"  style="animation-delay: 3.1679355153499844s" />
<circle cx="31.49430899726795" cy="19.319145438537568" r="0.8455019875071188" fill="white" opacity="0.6522759473802768"  style="animation-delay: 2.3019170156358837s" />
<circle cx="334.23115441470975" cy="39.23218670244819" r="0.9876638734545804" fill="white" opacity="0.6623662456103914"  style="animation-delay: 3.629564151610152s" />
<circle cx="64.85138707483867" cy="40.60670425519071" r="1.632549327647403" fill="white" opacity="0.4735695399690784"  style="animation-delay: 0.9439339317255968s" />
<circle cx="207.27035211447156" cy="178.96632171044308" r="1.8711308184482411" fill="white" opacity="0.5702758432508244"  style="animation-delay: 1.4150062619076575s" />
<circle cx="439.65266296202543" cy="152.85179683870345" r="1.9030657934860544" fill="white" opacity="0.5442578364612345" class="shimmer" style="animation-delay: 2.4371253904952086s" />
<circle cx="472.0244969306858" cy="28.316159542388597" r="1.1746423990007453" fill="white" opacity="0.657276491207818"  style="animation-delay: 1.376166287885776s" />
<circle cx="537.5763284499416" cy="16.01397973024561" r="0.9497830192982863" fill="white" opacity="0.5963187218053585" class="shimmer" style="animation-delay: 1.642937165504631s" />
<circle cx="672.6409035145925" cy="58.44063255258658" r="0.6480075331699455" fill="white" opacity="0.6034646700479152" class="shimmer" style="animation-delay: 2.702665781783348s" />
<circle cx="751.0173683702666" cy="65.12432484050122" r="0.538622852617244" fill="white" opacity="0.48259032710538147"  style="animation-delay: 3.1859976028779258s" />
<circle cx="100.40558511790269" cy="54.75241590019713" r="1.7617834853637753" fill="white" opacity="0.41335621385736204"  style="animation-delay: 0.43959404932430446s" />
<circle cx="423.0934783522375" cy="40.03433313780831" r="1.7568535303214177" fill="white" opacity="0.45794573537413324"  style="animation-delay: 0.915858930944855s" />
<circle cx="795.2763081632718" cy="133.93989763292936" r="0.8619606034754191" fill="white" opacity="0.4519803130680476" class="shimmer" style="animation-delay: 1.8160235404487601s" />
<circle cx="95.53442586984798" cy="73.54691292100419" r="1.3033376552654654" fill="white" opacity="0.3259330166094521"  style="animation-delay: 4.921062367121978s" />
<circle cx="455.6273845938181" cy="147.61902902186975" r="0.9555317837548898" fill="white" opacity="0.5813358408353373" class="shimmer" style="animation-delay: 3.1161975712721315s" />
<circle cx="117.02987363795536" cy="189.81655314883346" r="1.109141413432443" fill="white" opacity="0.6247138456965897"  style="animation-delay: 2.0265253351406254s" />
<circle cx="66.47165595757905" cy="71.2135115290239" r="1.744638073749214" fill="white" opacity="0.5217047934305579"  style="animation-delay: 0.7500897514752358s" />
<circle cx="515.1927900389976" cy="131.80759344757473" r="0.9554301960020036" fill="white" opacity="0.43445826621151423"  style="animation-delay: 2.8027115082256526s" />
<circle cx="173.70233395750762" cy="111.79307028142583" r="0.7289867323810609" fill="white" opacity="0.5237827688714995"  style="animation-delay: 1.0135476600261895s" />
<circle cx="613.6395824451288" cy="142.73709574006293" r="0.5571059254058284" fill="white" opacity="0.7960161634293479"  style="animation-delay: 3.843900927524093s" />
<circle cx="715.1562563646993" cy="90.6407911397339" r="1.5481976509705482" fill="white" opacity="0.7844712321327318" class="shimmer" style="animation-delay: 4.413368000662782s" />
<circle cx="259.1310780821967" cy="13.272682195943597" r="0.6785218168988405" fill="white" opacity="0.7358689873272768" class="shimmer" style="animation-delay: 4.423216492663677s" />
<circle cx="133.55246479806766" cy="199.2141774118886" r="0.8215605411476786" fill="white" opacity="0.554849663254982"  style="animation-delay: 0.6887339351085131s" />
<circle cx="731.4129155914097" cy="117.29677612226675" r="1.0015382462028373" fill="white" opacity="0.5909401765861966" class="shimmer" style="animation-delay: 3.0210845933711603s" />
<circle cx="112.27313790953292" cy="156.19889485515696" r="1.9816109711795202" fill="white" opacity="0.7913859573296038"  style="animation-delay: 3.4454948193697357s" />
<circle cx="630.9913166170206" cy="104.3308492783014" r="1.4776658863277334" fill="white" opacity="0.38920356835350484"  style="animation-delay: 2.081676285139439s" />
<circle cx="692.367134508738" cy="199.1702387029428" r="1.3279517317664555" fill="white" opacity="0.6345842838120852" class="shimmer" style="animation-delay: 3.467089497612349s" />
<circle cx="311.8474457528677" cy="117.25278537353833" r="0.9313211563943659" fill="white" opacity="0.6169452602522671" class="shimmer" style="animation-delay: 4.885136869028644s" />
<circle cx="638.5235384268773" cy="106.50514942760485" r="0.7109264861789418" fill="white" opacity="0.535145297254227"  style="animation-delay: 0.18977365408383795s" />
<circle cx="351.7747883725674" cy="3.3150074161266474" r="1.9317087239814832" fill="white" opacity="0.761535727118549" class="shimmer" style="animation-delay: 1.0710300493199354s" />
<circle cx="569.6737694839429" cy="171.40496633660752" r="0.5540979011583076" fill="white" opacity="0.5604927242332003"  style="animation-delay: 2.7428741525523694s" />
<circle cx="699.3361320254854" cy="171.6197378971759" r="0.8799633863885481" fill="white" opacity="0.421657234092974" class="shimmer" style="animation-delay: 4.796413193790956s" />
<circle cx="753.2442312046827" cy="44.418006786393164" r="1.9077257916157881" fill="white" opacity="0.3036738841568421"  style="animation-delay: 2.5561094256671s" />
<circle cx="132.40601173614567" cy="107.26108865741341" r="1.3869049914304712" fill="white" opacity="0.4505322614336415"  style="animation-delay: 1.5696373694770505s" />
<circle cx="678.1550185018584" cy="195.13548469194996" r="1.9109146856108186" fill="white" opacity="0.4802625034300741"  style="animation-delay: 2.0350411070766783s" />
<circle cx="794.94245428846" cy="148.04273053848652" r="0.7150186428408957" fill="white" opacity="0.6158816294982716" class="shimmer" style="animation-delay: 1.8099195789804445s" />
<circle cx="451.27310062809266" cy="129.80962795366233" r="1.2219209019969126" fill="white" opacity="0.3238988177476702" class="shimmer" style="animation-delay: 4.069405821611643s" />
<circle cx="483.33523526716726" cy="145.23990034077502" r="1.0919456972745936" fill="white" opacity="0.33632471482944654" class="shimmer" style="animation-delay: 0.23348270166398843s" />
<circle cx="402.5910950166084" cy="84.88716851264928" r="1.394987247513486" fill="white" opacity="0.3191127835383501" class="shimmer" style="animation-delay: 1.888189735270056s" />
<circle cx="36.87166074736066" cy="160.41368601874143" r="2.3232179729076585" fill="#c77dff" opacity="0.8" filter="url(#glow)" class="shimmer" style="animation-delay: 0.6326838735520359s" />
<circle cx="42.74835042984062" cy="77.11163413593711" r="2.544791857382898" fill="#4a0080" opacity="0.8" filter="url(#glow)" class="shimmer" style="animation-delay: 1.4321754196523622s" />
<circle cx="498.9238682514888" cy="133.50063110137978" r="2.6367051342721797" fill="#4a0080" opacity="0.8" filter="url(#glow)" class="shimmer" style="animation-delay: 1.7940918383305546s" />
<circle cx="45.36893294738018" cy="52.84850189681527" r="2.763816040843793" fill="#9d4edd" opacity="0.8" filter="url(#glow)" class="shimmer" style="animation-delay: 2.382306815758799s" />
<circle cx="581.391614684695" cy="44.32564470818172" r="2.7802773428533225" fill="#e0aaff" opacity="0.8" filter="url(#glow)" class="shimmer" style="animation-delay: 2.082791708819051s" />
<circle cx="465.43777506600554" cy="80.21872675960667" r="2.9142358371588575" fill="#c77dff" opacity="0.8" filter="url(#glow)" class="shimmer" style="animation-delay: 1.8393530679874677s" />
<circle cx="571.1584776211575" cy="136.41678138413158" r="2.140105137334948" fill="#c77dff" opacity="0.8" filter="url(#glow)" class="shimmer" style="animation-delay: 0.7963490367042447s" />
<circle cx="607.4225542140163" cy="196.2678308299568" r="1.874663433692617" fill="#9d4edd" opacity="0.8" filter="url(#glow)" class="shimmer" style="animation-delay: 2.2976135650959773s" />
<line x1="537.5049779774531" y1="121.80859025632994" x2="661.6822901513389" y2="66.7813697224455" stroke="#e0aaff" stroke-width="0.5" opacity="0.3" />
<line x1="536.5136532030169" y1="101.11735601489298" x2="381.32302815081243" y2="165.79509757510405" stroke="#e0aaff" stroke-width="0.5" opacity="0.3" />
<line x1="346.28397807052966" y1="163.72207555866356" x2="59.60674581767995" y2="88.3689863996726" stroke="#e0aaff" stroke-width="0.5" opacity="0.3" />

  
    <text x="400" y="120" text-anchor="middle" class="name-text" fill="url(#textGrad)" filter="url(#textGlow)">
      JOEL HOOKS
    </text>
  
</svg>
