<svg xmlns="http://www.w3.org/2000/svg" viewBox="0 0 800 200" width="800" height="200">
  <rect width="800" height="200" fill="#0d1117"/>
  
    <defs>
      <linearGradient id="grad1" x1="0%" y1="0%" x2="100%" y2="100%">
        <stop offset="0%" style="stop-color:#8e44ad;stop-opacity:0.8" />
        <stop offset="100%" style="stop-color:#3498db;stop-opacity:0.8" />
      </linearGradient>
      <linearGradient id="grad2" x1="100%" y1="0%" x2="0%" y2="100%">
        <stop offset="0%" style="stop-color:#e74c3c;stop-opacity:0.7" />
        <stop offset="100%" style="stop-color:#f39c12;stop-opacity:0.7" />
      </linearGradient>
      <linearGradient id="grad3" x1="0%" y1="100%" x2="100%" y2="0%">
        <stop offset="0%" style="stop-color:#f39c12;stop-opacity:0.6" />
        <stop offset="100%" style="stop-color:#8e44ad;stop-opacity:0.6" />
      </linearGradient>
      <linearGradient id="textGrad" x1="0%" y1="0%" x2="100%" y2="0%">
        <stop offset="0%" style="stop-color:#8e44ad" />
        <stop offset="25%" style="stop-color:#3498db" />
        <stop offset="50%" style="stop-color:#e74c3c" />
        <stop offset="75%" style="stop-color:#f39c12" />
        <stop offset="100%" style="stop-color:#8e44ad" />
      </linearGradient>
      <filter id="glow">
        <feGaussianBlur stdDeviation="3" result="coloredBlur"/>
        <feMerge>
          <feMergeNode in="coloredBlur"/>
          <feMergeNode in="SourceGraphic"/>
        </feMerge>
      </filter>
      <filter id="textGlow">
        <feGaussianBlur stdDeviation="2" result="coloredBlur"/>
        <feMerge>
          <feMergeNode in="coloredBlur"/>
          <feMergeNode in="SourceGraphic"/>
        </feMerge>
      </filter>
    </defs>
  
  
    <style>
      @keyframes float {
        0%, 100% { transform: translateY(0px); }
        50% { transform: translateY(-8px); }
      }
      @keyframes pulse {
        0%, 100% { opacity: 0.4; }
        50% { opacity: 0.9; }
      }
      @keyframes drift {
        0% { transform: translateX(0px); }
        50% { transform: translateX(10px); }
        100% { transform: translateX(0px); }
      }
      @keyframes shimmer {
        0% { opacity: 0.6; }
        50% { opacity: 1; }
        100% { opacity: 0.6; }
      }
      .float { animation: float 6s ease-in-out infinite; }
      .float-delay { animation: float 6s ease-in-out infinite; animation-delay: -3s; }
      .pulse { animation: pulse 4s ease-in-out infinite; }
      .drift { animation: drift 8s ease-in-out infinite; }
      .shimmer { animation: shimmer 3s ease-in-out infinite; }
      .name-text { 
        font-family: -apple-system, BlinkMacSystemFont, 'Segoe UI', Helvetica, Arial, sans-serif;
        font-weight: 700;
        font-size: 64px;
        letter-spacing: -2px;
      }
    </style>
  
  <path class="float" d="M 161.03826783150254 136.47468842309172 C 163.60600242131295 161.30273316932082, 167.71242186396074 204.0513402935806, 151.08921890100157 220.61833466157964 C 134.4660159380424 237.18532902957867, 86.67862925338754 243.06423008528407, 61.29905005374761 235.87665463108596 C 35.91947085410767 228.68907917688784, 9.657061642202287 201.10368828626426, -1.1882562968380341 177.49288193639097 C -12.033574235878355 153.8820755865177, -15.39302450078226 112.33302826591893, -3.7728575804943176 94.21181653184627 C 7.847309339793625 76.09060479777361, 45.29013373445072 72.52590325656193, 68.53274522488962 68.76561153195506 C 91.77535671532853 65.00531980734819, 120.26522426103693 60.36522003568223, 135.6828113621391 71.650066184205 C 151.10039846324125 82.93491233272778, 158.47053324169212 111.64664367686261, 161.03826783150254 136.47468842309172 Z" fill="url(#grad1)" opacity="0.40830856976799057" />
<path class="float-delay" d="M 471.9587079530152 68.2742827833858 C 471.7900462635437 96.58009986183635, 458.99124454015555 141.42634296789214, 439.14940625904654 152.31534217237214 C 419.30756797793754 163.20434137685214, 372.3935943560293 147.61512124176352, 352.9076782663611 133.6082780102658 C 333.4217621766928 119.60143477876807, 323.34077140192693 91.96942186059799, 322.23390972103715 68.27428278338581 C 321.1270480401474 44.57914370617364, 326.6119304018826 5.736417393945551, 346.26650818102235 -8.562556453007275 C 365.9210859601621 -22.8615302999601, 419.2126764338768 -30.325700171063325, 440.16137639587566 -17.519560298331143 C 461.1100763578745 -4.713420425598963, 472.12736964248677 39.968465704935255, 471.9587079530152 68.2742827833858 Z" fill="url(#grad1)" opacity="0.3875637449681065" />
<path class="float" d="M 274.27314146113275 115.30518173082969 C 273.9701321196388 124.84557627552869, 274.553858936249 135.81117296799346, 269.5256459237145 143.1636002848541 C 264.49743291117994 150.51602760171477, 252.27626143346205 159.4919281455791, 244.10386338592554 159.4197456319937 C 235.93146533838902 159.3475631184083, 227.48731258169462 148.00843917107403, 220.4912576384953 142.73050520334166 C 213.495202695296 137.4525712356093, 205.65334775571884 134.56683896256257, 202.1275337267297 127.75214182559955 C 198.60171969774055 120.93744468863653, 197.43029261293788 110.48742456965701, 199.33637346456044 101.84232238156358 C 201.242454316183 93.19722019347014, 206.14478720888116 80.75185761724555, 213.56401883646512 75.88152869703896 C 220.9832504640491 71.01119977683237, 234.2218160406955 70.94706480705382, 243.85176323006434 72.62034886032401 C 253.48171041943317 74.29363291359421, 266.27347226750015 78.80709420490919, 271.3437019726782 85.92123301666014 C 276.4139316778563 93.03537182841109, 274.5761508026267 105.76478718613069, 274.27314146113275 115.30518173082969 Z" fill="url(#grad1)" opacity="0.4300187138133846" />
<path class="float-delay" d="M 613.223831396643 72.95958158703687 C 612.9596560898976 87.0567476005076, 622.0344194365431 106.32357933196856, 615.6231136230291 114.5860714200804 C 609.2118078095151 122.84856350819224, 589.4132274708153 118.40595955170092, 574.7559965155592 122.53453411570791 C 560.0987655603031 126.66310867971491, 538.5273269880961 144.20207604513257, 527.6797278914929 139.35751880412238 C 516.8321287948897 134.51296156311219, 511.16647261059006 107.40349714902406, 509.6704019359399 93.46719066964678 C 508.1743312612897 79.5308841902695, 513.6798113943977 66.72183808521291, 518.7033038435918 55.739679927858674 C 523.7267962927859 44.75752177050444, 530.670680529813 31.824330914180763, 539.8113566311044 27.574241725521375 C 548.9520327323959 23.324152536861988, 560.6478923126078 29.83433919361325, 573.5473604513406 30.239144795902348 C 586.4468285900734 30.643950398191446, 610.5954203059512 22.88300254073354, 617.2081654635016 30.003075339255957 C 623.820910621052 37.12314813777838, 613.4880067033885 58.862415573566125, 613.223831396643 72.95958158703687 Z" fill="url(#grad3)" opacity="0.2150366243581232" />
<path class="float" d="M 256.0634835064824 168.39253278199956 C 252.1529726624368 187.6676649671248, 251.3034296083934 196.72642805180203, 241.1326460241278 214.48639680523863 C 230.96186243986222 232.24636555867522, 210.02856982611814 275.3271788184694, 195.03878200088874 274.9523453026191 C 180.04899417565935 274.5775117867688, 164.2831689909299 229.9973644635734, 151.1939190727515 212.2373957101368 C 138.1046691545731 194.4774269567002, 119.29456584711205 185.7987704466724, 116.50328249181831 168.39253278199956 C 113.71199913652457 150.98629511732673, 121.35696902281067 122.37551677865667, 134.44621894098907 107.79996972209992 C 147.53546885916748 93.22442266554316, 173.34719997632004 82.43331144726116, 195.03878200088872 80.93925044265902 C 216.7303640254574 79.44518943805687, 254.42492750413555 84.26005663793033, 264.5957110884012 98.83560369448709 C 274.7664946726668 113.41115075104385, 259.97399435052796 149.11740059687432, 256.0634835064824 168.39253278199956 Z" fill="url(#grad2)" opacity="0.24514369821744458" />
<path class="pulse" d="M -50 63.77638596287615 C -43.333333333333336 69.84830357674412, -36.666666666666664 82.26460539576186, -30 54.363734182750775 C -23.333333333333332 74.68526761952928, -16.666666666666664 52.12916992444119, -10 57.992228819346856 C -3.333333333333333 47.3048455741524, 3.333333333333334 51.033207606517735, 10 54.394015779991676 C 16.666666666666668 58.741304242711024, 23.333333333333336 74.96259315136666, 30 51.88726466223153 C 36.666666666666664 73.75505283543816, 43.333333333333336 43.087926986154734, 50 42.22644289459231 C 56.666666666666664 25.55604748610221, 63.333333333333336 57.559286095615946, 70 49.33061077468447 C 76.66666666666667 46.782642827540045, 83.33333333333333 39.04508437174039, 90 46.827254582091314 C 96.66666666666667 47.717070505293684, 103.33333333333333 44.012915206098576, 110 47.43343008255502 C 116.66666666666667 64.4826905521889, 123.33333333333333 30.282954982388926, 130 42.9396091482588 C 136.66666666666666 27.12219614679859, 143.33333333333334 23.821927480797708, 150 39.42402069078201 C 156.66666666666666 51.79410942089305, 163.33333333333334 30.71054960823183, 170 35.056793788504116 C 176.66666666666666 46.97820111181478, 183.33333333333334 25.9596704977777, 190 27.52527851281 C 196.66666666666666 16.303899712951264, 203.33333333333334 9.966079071745103, 210 28.81056274853384 C 216.66666666666666 29.935030248401585, 223.33333333333334 23.07108999815004, 230 20.554567413193567 C 236.66666666666666 4.399104703468261, 243.33333333333334 32.32608874408248, 250 29.88747723529631 C 256.6666666666667 19.505477900258406, 263.3333333333333 17.147476334978766, 270 31.702493403545034 C 276.6666666666667 38.96812303018697, 283.3333333333333 30.260034557749048, 290 32.94271590119717 C 296.6666666666667 22.512545815135702, 303.3333333333333 30.747699446746882, 310 42.73242782539109 C 316.6666666666667 53.552394196462174, 323.3333333333333 31.2302584894711, 330 49.526692934164984 C 336.6666666666667 57.3162151547097, 343.3333333333333 27.976080392837925, 350 59.24487800399815 C 356.6666666666667 77.46168048775606, 363.3333333333333 51.958822482356084, 370 49.9409289498941 C 376.6666666666667 45.83445934817259, 383.3333333333333 35.46633869938808, 390 53.31142528373351 C 396.6666666666667 67.65457090700814, 403.3333333333333 69.67877555092478, 410 43.76616011920586 C 416.6666666666667 34.82003221182269, 423.3333333333333 26.378485544027708, 430 45.3017117325481 C 436.6666666666667 24.106274647592002, 443.3333333333333 30.21835334990533, 450 46.177507128543226 C 456.6666666666667 28.151393821844376, 463.3333333333333 47.173028340491456, 470 37.44878170544997 C 476.6666666666667 28.857468751161846, 483.3333333333333 54.31162626804843, 490 42.970864061779146 C 496.6666666666667 60.45213059426794, 503.3333333333333 48.65816502229195, 510 51.96969609534134 C 516.6666666666666 62.78245399493305, 523.3333333333334 64.9705114649477, 530 48.66902739543784 C 536.6666666666666 61.7971916183005, 543.3333333333334 44.81934530757114, 550 42.416974356212314 C 556.6666666666666 30.70210097851374, 563.3333333333334 47.34821933197858, 570 31.852129854908554 C 576.6666666666666 29.80064751565934, 583.3333333333334 17.10135460562152, 590 35.574281098047535 C 596.6666666666666 35.01949788705794, 603.3333333333334 38.92581161929492, 610 41.192299313958216 C 616.6666666666666 40.634559965105986, 623.3333333333334 52.878652737369066, 630 44.07248622179374 C 636.6666666666666 65.33674940133332, 643.3333333333334 65.3363726310284, 650 51.07750591614806 C 656.6666666666666 59.91641372285434, 663.3333333333334 40.206129384661544, 670 55.575793887035175 C 676.6666666666666 42.84392719300887, 683.3333333333334 58.494672137993305, 690 48.781976899631815 C 696.6666666666666 55.035253653753976, 703.3333333333334 36.89277060604243, 710 52.46105416308572 C 716.6666666666666 73.90722413269759, 723.3333333333334 46.37151361777215, 730 41.57369699383679 C 736.6666666666666 62.348396160983754, 743.3333333333334 59.514340287387995, 750 39.48254366554845 C 756.6666666666666 31.07792824231401, 763.3333333333334 46.97804397465223, 770 40.578359149939914 C 776.6666666666666 38.2623547970287, 783.3333333333334 42.636678838167725, 790 49.43438662051229 C 796.6666666666666 50.72028630931685, 803.3333333333334 51.36816401352013, 810 40.489190537366525 C 816.6666666666666 36.950760351471345, 823.3333333333334 36.00577842070777, 830 43.71344981310461 C 836.6666666666666 23.687890003975557, 843.3333333333334 25.642969199663888, 850 46.18686273644684" fill="none" stroke="#3498db" stroke-width="1.6055848424938661" opacity="0.4664444445939102" stroke-linecap="round" filter="url(#glow)" />
<path class="drift" d="M -50 30.254090688368898 C -43.333333333333336 17.94325168225076, -36.666666666666664 48.18008893947453, -30 28.766768911505856 C -23.333333333333332 29.465583707517478, -16.666666666666664 47.27204351082791, -10 21.243788771993977 C -3.333333333333333 15.03590108630601, 3.333333333333334 4.566248027389559, 10 24.62201694848379 C 16.666666666666668 33.91625961321468, 23.333333333333336 18.94748630669119, 30 29.178215263907127 C 36.666666666666664 19.442555832666784, 43.333333333333336 27.198839405513127, 50 37.879654994806856 C 56.666666666666664 31.75118499859194, 63.333333333333336 51.89847543166781, 70 34.16448307951771 C 76.66666666666667 15.763794041132655, 83.33333333333333 25.574526635861595, 90 28.692179553563577 C 96.66666666666667 46.18299296090404, 103.33333333333333 31.28633003151321, 110 34.60724917253651 C 116.66666666666667 38.79649482757355, 123.33333333333333 22.930700948758783, 130 31.16908052842047 C 136.66666666666666 40.31258615781005, 143.33333333333334 29.98771472085581, 150 33.84433935197511 C 156.66666666666666 48.196777557743616, 163.33333333333334 38.89854357032769, 170 35.541158016147904 C 176.66666666666666 19.61966904840598, 183.33333333333334 36.22125459447864, 190 38.61682895863321 C 196.66666666666666 46.807071220509954, 203.33333333333334 30.467259454706102, 210 44.529624445849926 C 216.66666666666666 42.03526981685073, 223.33333333333334 45.61486486590271, 230 39.15086052797992 C 236.66666666666666 57.71231215490837, 243.33333333333334 43.08448914391262, 250 37.46643541135717 C 256.6666666666667 50.750488817286545, 263.3333333333333 41.064706848649394, 270 31.133234264702928 C 276.6666666666667 30.740173456309147, 283.3333333333333 38.78626129031538, 290 40.150643283843394 C 296.6666666666667 55.537071599607934, 303.3333333333333 57.51791195669523, 310 42.11732573449511 C 316.6666666666667 54.27891841024818, 323.3333333333333 37.49086771100563, 330 38.03518298795514 C 336.6666666666667 48.82642878899678, 343.3333333333333 25.511265058997072, 350 37.79435409476641 C 356.6666666666667 39.519718809050936, 363.3333333333333 51.764023425916285, 370 44.519041987059396 C 376.6666666666667 36.96005617584953, 383.3333333333333 58.43952126140438, 390 46.51948145473152 C 396.6666666666667 54.71361471453152, 403.3333333333333 32.69994305769422, 410 53.98838713964453 C 416.6666666666667 68.88623534827035, 423.3333333333333 47.11259854573204, 430 48.49812972340159 C 436.6666666666667 54.080266266351494, 443.3333333333333 57.946073319083, 450 51.4886825379967 C 456.6666666666667 59.950280686997985, 463.3333333333333 66.69804320332776, 470 60.986460332175724 C 476.6666666666667 69.059795368062, 483.3333333333333 50.990031340928944, 490 60.84957413731014 C 496.6666666666667 60.94281547514143, 503.3333333333333 78.59178735995596, 510 63.776452538486296 C 516.6666666666666 73.7789734962822, 523.3333333333334 45.26493772246236, 530 55.711188664952246 C 536.6666666666666 59.349715299146155, 543.3333333333334 60.992447211158044, 550 60.71742929142674 C 556.6666666666666 61.04599552765412, 563.3333333333334 41.95462588338191, 570 65.23621000912598 C 576.6666666666666 61.01654452957247, 583.3333333333334 82.51154152924846, 590 67.06003649938933 C 596.6666666666666 54.77774722563905, 603.3333333333334 50.35395753996545, 610 68.278887684316 C 616.6666666666666 54.8812888189459, 623.3333333333334 61.329853867306895, 630 71.97468644881215 C 636.6666666666666 57.28097446940758, 643.3333333333334 58.510186354040684, 650 77.73862823623956 C 656.6666666666666 62.22479865146128, 663.3333333333334 72.8307621351891, 670 85.41201419878988 C 676.6666666666666 86.36120086532662, 683.3333333333334 97.35857304641368, 690 76.53445846151703 C 696.6666666666666 75.82183610941702, 703.3333333333334 80.2664253339583, 710 67.27763298505184 C 716.6666666666666 82.63713503837599, 723.3333333333334 71.32211883112906, 730 65.58525078302358 C 736.6666666666666 58.62860096108544, 743.3333333333334 59.94234704192934, 750 64.90564790727407 C 756.6666666666666 51.4321035376916, 763.3333333333334 64.48194269554516, 770 73.82286424495486 C 776.6666666666666 85.0396462679231, 783.3333333333334 56.1062049741683, 790 79.31593631881236 C 796.6666666666666 66.77422280213858, 803.3333333333334 65.51693830679558, 810 87.0011737211819 C 816.6666666666666 106.0528580427362, 823.3333333333334 85.23609484580842, 830 87.63660968601071 C 836.6666666666666 94.91535568315518, 843.3333333333334 73.77378118680592, 850 85.38142128649791" fill="none" stroke="#f39c12" stroke-width="2.102784936264022" opacity="0.3767040750478652" stroke-linecap="round" filter="url(#glow)" />
<path class="pulse" d="M -50 110.87195066903791 C -43.333333333333336 101.5118751833182, -36.666666666666664 87.45836382815109, -30 98.58968732095117 C -23.333333333333332 97.1815742299543, -16.666666666666664 125.57131636802492, -10 106.31851671178465 C -3.333333333333333 117.53522476089819, 3.333333333333334 92.49063013125215, 10 116.12471318355303 C 16.666666666666668 112.48719331378635, 23.333333333333336 129.98172785952607, 30 121.07776276997825 C 36.666666666666664 146.63718648068175, 43.333333333333336 123.82989614163318, 50 111.82945489289241 C 56.666666666666664 128.54654113521062, 63.333333333333336 92.31200194474452, 70 119.0720512307688 C 76.66666666666667 117.77254438515428, 83.33333333333333 95.08721017520321, 90 108.96205011056536 C 96.66666666666667 132.6751669993722, 103.33333333333333 115.28781921995136, 110 95.36416306520807 C 116.66666666666667 111.69194696304851, 123.33333333333333 84.49460260618355, 130 94.1819758532906 C 136.66666666666666 93.42148348623314, 143.33333333333334 81.6125242141581, 150 99.72550017664253 C 156.66666666666666 92.14603801484564, 163.33333333333334 70.61452732588226, 170 114.41540505538902 C 176.66666666666666 125.7120669261885, 183.33333333333334 93.95650830949765, 190 118.4087353341529 C 196.66666666666666 147.7218544907258, 203.33333333333334 93.38467385924127, 210 130.67324305008944 C 216.66666666666666 157.47780544631968, 223.33333333333334 119.561499623582, 230 140.57722330744818 C 236.66666666666666 135.41268507919744, 243.33333333333334 125.247646746222, 250 128.7682059992007 C 256.6666666666667 122.28901682118536, 263.3333333333333 157.98756685573693, 270 117.35419322954797 C 276.6666666666667 142.3712572207764, 283.3333333333333 110.95629829042733, 290 120.69095975154124 C 296.6666666666667 132.6935723179356, 303.3333333333333 110.58288523666276, 310 114.09699103246798 C 316.6666666666667 87.95272176825516, 323.3333333333333 103.11370940624957, 330 106.52746289334401 C 336.6666666666667 103.01571361321666, 343.3333333333333 134.1355382791092, 350 106.01232886635096 C 356.6666666666667 118.81593061263133, 363.3333333333333 130.15133281280657, 370 110.46422198488332 C 376.6666666666667 127.41647576821279, 383.3333333333333 89.98469702450082, 390 117.48287257356986 C 396.6666666666667 130.13264146578425, 403.3333333333333 131.94452775672923, 410 124.37070782263618 C 416.6666666666667 128.51495779979302, 423.3333333333333 110.03299326694832, 430 112.68580081303715 C 436.6666666666667 102.71147015749698, 443.3333333333333 86.70997719252617, 450 126.7079762045185 C 456.6666666666667 110.40709612787316, 463.3333333333333 143.3830241696263, 470 131.90211259411427 C 476.6666666666667 149.96810837155368, 483.3333333333333 154.401184735832, 490 122.95500361201874 C 496.6666666666667 143.37369719442424, 503.3333333333333 143.74550335933867, 510 108.73039868290189 C 516.6666666666666 115.37759307496395, 523.3333333333334 91.40236629138758, 530 122.64344238734326 C 536.6666666666666 120.8786023523182, 543.3333333333334 112.49859707066767, 550 123.81742482840563 C 556.6666666666666 152.7382639487515, 563.3333333333334 108.61328495188425, 570 109.39538212140434 C 576.6666666666666 120.73095769803408, 583.3333333333334 100.09713635753062, 590 120.4786281537978 C 596.6666666666666 135.26793857643665, 603.3333333333334 141.10125963790534, 610 113.36398768276179 C 616.6666666666666 130.7530365841152, 623.3333333333334 124.09652121220363, 630 123.51387863807022 C 636.6666666666666 110.12520869836267, 643.3333333333334 120.13926581881559, 650 120.04496019512976 C 656.6666666666666 119.12970724756974, 663.3333333333334 126.39583235660788, 670 118.05033928167498 C 676.6666666666666 146.63820701028823, 683.3333333333334 115.99331322357594, 690 129.94139701856753 C 696.6666666666666 145.5139553638013, 703.3333333333334 142.37309748473382, 710 135.3421459033315 C 716.6666666666666 116.7283787982279, 723.3333333333334 151.3290088281202, 730 122.35285392361543 C 736.6666666666666 111.20941115206091, 743.3333333333334 95.62454891942093, 750 133.11713856066825 C 756.6666666666666 107.12703772481856, 763.3333333333334 148.7738224347112, 770 137.65338220037768 C 776.6666666666666 143.28463046138313, 783.3333333333334 134.7567810521909, 790 144.39520683308834 C 796.6666666666666 150.04519928779357, 803.3333333333334 165.77505386299026, 810 144.80218385308436 C 816.6666666666666 133.28974683707844, 823.3333333333334 161.82122654993282, 830 146.3144042518829 C 836.6666666666666 135.70207642115554, 843.3333333333334 151.03447909365642, 850 145.70843746297106" fill="none" stroke="#f39c12" stroke-width="2.1412592651124407" opacity="0.42416075613119875" stroke-linecap="round" filter="url(#glow)" />
<path class="drift" d="M -50 96.55789032837724 C -43.333333333333336 109.60031431057058, -36.666666666666664 86.52599362657017, -30 87.99464676608598 C -23.333333333333332 86.04851539653916, -16.666666666666664 90.75410839575535, -10 90.81945603903077 C -3.333333333333333 113.17140895934293, 3.333333333333334 79.54776454816142, 10 94.76382264795782 C 16.666666666666668 108.47778223369968, 23.333333333333336 66.48717329490742, 30 90.47246892684646 C 36.666666666666664 99.36114120191522, 43.333333333333336 91.70449812678629, 50 95.4720236487086 C 56.666666666666664 121.84209803552403, 63.333333333333336 113.75595996606123, 70 81.47729866707058 C 76.66666666666667 52.85922014650417, 83.33333333333333 53.188325963273925, 90 73.32789628254268 C 96.66666666666667 87.55626376684283, 103.33333333333333 64.06805039843198, 110 80.60725630287612 C 116.66666666666667 98.9542531464343, 123.33333333333333 55.06038994230206, 130 79.4931752621716 C 136.66666666666666 81.34296037556756, 143.33333333333334 62.019757163758314, 150 75.32631096398262 C 156.66666666666666 99.33595643030361, 163.33333333333334 47.483229887000725, 170 79.03551135530596 C 176.66666666666666 92.23324743134279, 183.33333333333334 100.66486116721086, 190 84.50491982277204 C 196.66666666666666 54.91963703338966, 203.33333333333334 68.39539006985837, 210 96.84114317427725 C 216.66666666666666 123.93127469586219, 223.33333333333334 103.44465838701755, 230 101.02399699417857 C 236.66666666666666 80.62782489224769, 243.33333333333334 127.61279951152804, 250 90.8709993155561 C 256.6666666666667 106.94278089350368, 263.3333333333333 99.95418370430488, 270 97.89262861255733 C 276.6666666666667 121.8151978938379, 283.3333333333333 124.77958839158356, 290 103.73371131514949 C 296.6666666666667 133.11667601362578, 303.3333333333333 121.42584093849219, 310 101.87811190443517 C 316.6666666666667 106.43947230205416, 323.3333333333333 126.47220338829621, 330 94.7600415028586 C 336.6666666666667 96.0270983562716, 343.3333333333333 65.34942879909215, 350 83.72356012425325 C 356.6666666666667 68.4983727312902, 363.3333333333333 81.55848801989461, 370 72.05209615698983 C 376.6666666666667 46.0143110737411, 383.3333333333333 66.7527672327068, 390 72.71829063450404 C 396.6666666666667 44.31769871628876, 403.3333333333333 75.38396175307628, 410 76.32883126241354 C 416.6666666666667 103.34121918821376, 423.3333333333333 63.95501061060111, 430 73.77194171422298 C 436.6666666666667 65.63085244553433, 443.3333333333333 83.6861937921545, 450 59.38624005916854 C 456.6666666666667 83.87484731512494, 463.3333333333333 79.22831188306736, 470 64.4623942875351 C 476.6666666666667 90.573577329534, 483.3333333333333 47.54543183210668, 490 60.25417859165632 C 496.6666666666667 77.78012308785902, 503.3333333333333 85.92753879881718, 510 45.96815176486676 C 516.6666666666666 40.32940730557645, 523.3333333333334 65.77141893449385, 530 57.717094546159515 C 536.6666666666666 81.81171322380229, 543.3333333333334 80.36953041136384, 550 67.34541267637016 C 556.6666666666666 79.64445315005648, 563.3333333333334 70.42399117070377, 570 75.16685891031362 C 576.6666666666666 78.29920471683124, 583.3333333333334 48.743646593319774, 590 73.58068364028578 C 596.6666666666666 46.50190289091614, 603.3333333333334 98.78996391936064, 610 60.96150509839793 C 616.6666666666666 52.021056629039045, 623.3333333333334 32.33462317947664, 630 59.134996268566624 C 636.6666666666666 76.62341460287834, 643.3333333333334 88.42371255727073, 650 53.68212715390053 C 656.6666666666666 73.04533574532232, 663.3333333333334 33.416733791154094, 670 49.194518849402186 C 676.6666666666666 50.95702729093467, 683.3333333333334 36.80863337382377, 690 53.623633596795315 C 696.6666666666666 58.18185538482631, 703.3333333333334 25.333869785354672, 710 66.68656369425072 C 716.6666666666666 49.59809790585315, 723.3333333333334 75.95000480581176, 730 55.60494066218696 C 736.6666666666666 71.41911449429459, 743.3333333333334 51.670315254688504, 750 53.28276499295536 C 756.6666666666666 46.44842911378118, 763.3333333333334 36.10918281158459, 770 42.83349462000203 C 776.6666666666666 36.57178099652793, 783.3333333333334 65.87447458138051, 790 42.124181012704476 C 796.6666666666666 26.467824397577168, 803.3333333333334 23.61434125708107, 810 51.713649638345224 C 816.6666666666666 49.13668918857807, 823.3333333333334 80.02376883732242, 830 63.335379926841895 C 836.6666666666666 90.5345039026059, 843.3333333333334 40.283645485973544, 850 77.83050726195603" fill="none" stroke="#3498db" stroke-width="1.6561817843018733" opacity="0.3496557431400047" stroke-linecap="round" filter="url(#glow)" />
<path class="pulse" d="M -50 112.56482254244824 C -43.333333333333336 91.48573455512295, -36.666666666666664 106.24077533701382, -30 126.57011120570263 C -23.333333333333332 116.6000731458511, -16.666666666666664 132.2882883378767, -10 115.72231307952161 C -3.333333333333333 132.50020701029203, 3.333333333333334 109.29794195979639, 10 131.67988860470382 C 16.666666666666668 164.76435559251934, 23.333333333333336 125.89427904064064, 30 125.50473143930434 C 36.666666666666664 131.72796777904128, 43.333333333333336 142.81222543980869, 50 119.09096863474412 C 56.666666666666664 138.56027923478223, 63.333333333333336 91.12479158115875, 70 127.03532115127668 C 76.66666666666667 157.6087693293298, 83.33333333333333 156.5483341806146, 90 117.75134328531126 C 96.66666666666667 124.0696071427395, 103.33333333333333 144.18324739099472, 110 132.43630858641515 C 116.66666666666667 135.09854818513213, 123.33333333333333 126.3354064024902, 130 129.17098598136053 C 136.66666666666666 106.94625163488179, 143.33333333333334 110.76701783942244, 150 116.58389664979401 C 156.66666666666666 89.27918984091687, 163.33333333333334 137.19893849380895, 170 102.91364957207554 C 176.66666666666666 86.48034138554463, 183.33333333333334 96.8376570826104, 190 96.28215778649711 C 196.66666666666666 76.39477837877692, 203.33333333333334 122.31271037580622, 210 100.05425270941502 C 216.66666666666666 131.31452328237773, 223.33333333333334 77.40030010730243, 230 104.173569758018 C 236.66666666666666 87.42023601129787, 243.33333333333334 97.33362179501049, 250 117.05189889214422 C 256.6666666666667 111.62068360361658, 263.3333333333333 145.00948512242653, 270 114.6463587939005 C 276.6666666666667 99.98220659407735, 283.3333333333333 142.24847088530782, 290 103.64670792153377 C 296.6666666666667 129.14699786103432, 303.3333333333333 120.80551927666832, 310 115.95154296010307 C 316.6666666666667 120.22099658737743, 323.3333333333333 85.08985213265763, 330 117.33945744996461 C 336.6666666666667 97.44048801439226, 343.3333333333333 93.77360052392929, 350 121.92018368204745 C 356.6666666666667 120.74459357915977, 363.3333333333333 90.4180490222718, 370 119.70085334200712 C 376.6666666666667 116.84903822821254, 383.3333333333333 138.6456709242328, 390 122.10989797368191 C 396.6666666666667 137.15963496508482, 403.3333333333333 113.7495554670079, 410 133.1013162415073 C 416.6666666666667 112.7270971492105, 423.3333333333333 140.12915316347852, 430 121.71081948830256 C 436.6666666666667 88.81443125975308, 443.3333333333333 141.99855381717722, 450 111.9879721003114 C 456.6666666666667 122.61301170739529, 463.3333333333333 137.76774642863148, 470 113.13388219091547 C 476.6666666666667 145.40547760049154, 483.3333333333333 84.13663308367013, 490 126.29757943488542 C 496.6666666666667 123.83972985932603, 503.3333333333333 135.4531783979988, 510 134.00186280480779 C 516.6666666666666 124.92247887670524, 523.3333333333334 124.72777084553628, 530 141.6793371540579 C 536.6666666666666 110.62715917449975, 543.3333333333334 109.79839002467956, 550 152.01985334182058 C 556.6666666666666 177.43709172293174, 563.3333333333334 132.50026565120447, 570 139.38476429687813 C 576.6666666666666 133.8571387289132, 583.3333333333334 170.77439496561342, 590 138.92077524258596 C 596.6666666666666 153.31167891924576, 603.3333333333334 131.9459367888076, 610 147.61554487123257 C 616.6666666666666 165.35469834424038, 623.3333333333334 145.51924525356924, 630 136.03911893891174 C 636.6666666666666 130.68980713529493, 643.3333333333334 147.38677653869377, 650 138.8558912392075 C 656.6666666666666 130.02658236108624, 663.3333333333334 115.89938375743225, 670 138.08367724669552 C 676.6666666666666 128.98703878460628, 683.3333333333334 107.25985552395152, 690 140.5095735087308 C 696.6666666666666 152.69551835860563, 703.3333333333334 144.36512812246852, 710 145.0567283081897 C 716.6666666666666 114.15819735614102, 723.3333333333334 169.0023317769272, 730 132.39640334581617 C 736.6666666666666 130.78610209522427, 743.3333333333334 102.30332382459295, 750 122.38627628238567 C 756.6666666666666 125.4760656337389, 763.3333333333334 149.304624791613, 770 135.89490028717304 C 776.6666666666666 127.08113411515617, 783.3333333333334 117.03931460716129, 790 130.90464050834152 C 796.6666666666666 127.1843582061045, 803.3333333333334 118.30469649212594, 810 123.13711903117007 C 816.6666666666666 148.6883026501468, 823.3333333333334 150.8999289860829, 830 113.39600898429323 C 836.6666666666666 119.65369984740032, 843.3333333333334 81.36370954455631, 850 100.11249920576408" fill="none" stroke="#3498db" stroke-width="2.956133101313299" opacity="0.5347073303727158" stroke-linecap="round" filter="url(#glow)" />
<path class="drift" d="M -50 114.29399632150745 C -43.333333333333336 120.46905165987194, -36.666666666666664 101.51670830836252, -30 119.3613930513256 C -23.333333333333332 116.78821465243436, -16.666666666666664 125.97272426726295, -10 117.04731275610615 C -3.333333333333333 123.63897959703677, 3.333333333333334 133.755231210536, 10 115.11396141117407 C 16.666666666666668 110.29070434912236, 23.333333333333336 126.71103984034004, 30 122.32168429912862 C 36.666666666666664 110.17786760935554, 43.333333333333336 136.42333621977542, 50 121.19348305324446 C 56.666666666666664 115.3980817554266, 63.333333333333336 142.11497822145353, 70 125.77090947943569 C 76.66666666666667 121.98908770607119, 83.33333333333333 148.39094747543305, 90 122.91101977607377 C 96.66666666666667 118.36782293969306, 103.33333333333333 124.33168797159763, 110 118.6914928510202 C 116.66666666666667 119.00271547956793, 123.33333333333333 117.05676297892344, 130 111.39535009619169 C 136.66666666666666 102.77988283169572, 143.33333333333334 106.86119407606239, 150 110.35105709477222 C 156.66666666666666 129.47253532091256, 163.33333333333334 112.11425805460391, 170 115.80747361189259 C 176.66666666666666 111.97145348102069, 183.33333333333334 123.6374729555191, 190 116.1906998739569 C 196.66666666666666 96.38169064761891, 203.33333333333334 107.45755722307769, 210 104.76402091377331 C 216.66666666666666 107.2999765189683, 223.33333333333334 90.87116812045996, 230 111.37550935972021 C 236.66666666666666 92.2147786208983, 243.33333333333334 104.90991797252548, 250 112.38374166031774 C 256.6666666666667 103.8672582635872, 263.3333333333333 125.5401791346007, 270 104.86743249787168 C 276.6666666666667 105.07649649926098, 283.3333333333333 113.80971869143832, 290 100.86489072042423 C 296.6666666666667 88.74590649761566, 303.3333333333333 122.85416961490876, 310 103.41957657375727 C 316.6666666666667 118.67197544356176, 323.3333333333333 110.70221208395114, 330 104.99513975927114 C 336.6666666666667 106.01454360715951, 343.3333333333333 115.8168295071334, 350 97.5116690314829 C 356.6666666666667 84.73101780304935, 363.3333333333333 97.9646872379967, 370 100.6753714669328 C 376.6666666666667 84.4875126143033, 383.3333333333333 78.0495231013979, 390 90.91059620854207 C 396.6666666666667 81.56249386810242, 403.3333333333333 99.62288871343074, 410 99.44924183038863 C 416.6666666666667 104.67210909220219, 423.3333333333333 82.14424813541243, 430 104.82325476164081 C 436.6666666666667 109.02894005658369, 443.3333333333333 99.77689169593914, 450 111.35124341078107 C 456.6666666666667 101.2602880357299, 463.3333333333333 109.56255904284441, 470 118.9008610633335 C 476.6666666666667 129.45574887904775, 483.3333333333333 109.21838966137611, 490 119.97559717446723 C 496.6666666666667 125.32863143351679, 503.3333333333333 100.29437667619798, 510 120.13018137244651 C 516.6666666666666 140.21707514254894, 523.3333333333334 130.60263834835027, 530 127.2764005472695 C 536.6666666666666 141.74282034940364, 543.3333333333334 118.0600952388325, 550 121.48006263921103 C 556.6666666666666 124.80351539160523, 563.3333333333334 126.10024675174218, 570 111.0847737415482 C 576.6666666666666 120.54916624090347, 583.3333333333334 113.04912678312382, 590 120.61817256392072 C 596.6666666666666 139.25007400876433, 603.3333333333334 137.73547856982913, 610 117.59690602247716 C 616.6666666666666 119.90133110759075, 623.3333333333334 118.03082511243252, 630 117.49526695012523 C 636.6666666666666 125.05561688568459, 643.3333333333334 133.3010006795842, 650 127.43447288417683 C 656.6666666666666 147.25003372553772, 663.3333333333334 127.05588217849886, 670 132.97337949013422 C 676.6666666666666 145.2768911357807, 683.3333333333334 142.42705358788794, 690 128.77977698846945 C 696.6666666666666 109.45452105426483, 703.3333333333334 119.26004510305968, 710 125.55125720804848 C 716.6666666666666 135.11588416474322, 723.3333333333334 112.59973215573754, 730 130.4818126453755 C 736.6666666666666 136.7969999431744, 743.3333333333334 145.58739624907304, 750 132.3435686014919 C 756.6666666666666 153.53971234442088, 763.3333333333334 124.49286068984293, 770 133.50641339020495 C 776.6666666666666 136.96280650574255, 783.3333333333334 153.64129159377222, 790 143.7056311001492 C 796.6666666666666 164.77600607245654, 803.3333333333334 159.07141920187277, 810 133.99861191340415 C 816.6666666666666 124.75279509746183, 823.3333333333334 123.68856151399326, 830 126.9229309937501 C 836.6666666666666 105.95006610914156, 843.3333333333334 126.43740888169125, 850 121.35291048352562" fill="none" stroke="#8e44ad" stroke-width="2.8993193392668832" opacity="0.5879534136079616" stroke-linecap="round" filter="url(#glow)" />
<circle cx="220.78278065020243" cy="43.535864786611135" r="4.154219137052308" fill="#e74c3c" opacity="0.7" class="shimmer" style="animation-delay: 3.770799145368894s" />
<circle cx="502.0550553952541" cy="24.295838074599054" r="4.448799675391644" fill="#9b59b6" opacity="0.7" class="shimmer" style="animation-delay: 3.338618628157942s" />
<circle cx="324.11558654664884" cy="16.041508929725488" r="4.90890397332776" fill="#9b59b6" opacity="0.7" class="shimmer" style="animation-delay: 0.47458998078825054s" />
<circle cx="235.23660996348568" cy="53.8440721061098" r="2.0059790905562727" fill="#f39c12" opacity="0.7" class="shimmer" style="animation-delay: 0.4254936458128169s" />
<circle cx="699.3080161684038" cy="33.59536975512491" r="2.8506306460410036" fill="#3498db" opacity="0.7" class="shimmer" style="animation-delay: 3.2128261335272077s" />
<circle cx="125.24889633621842" cy="32.74600025063905" r="2.300303494139227" fill="#3498db" opacity="0.7" class="shimmer" style="animation-delay: 0.5597279066281562s" />
<circle cx="226.52503436087306" cy="51.370481628457476" r="5.142892242590145" fill="#e74c3c" opacity="0.7" class="shimmer" style="animation-delay: 3.2989051516215033s" />
<circle cx="180.79275848229966" cy="92.36272841329716" r="2.0056554372381106" fill="#f39c12" opacity="0.7" class="shimmer" style="animation-delay: 1.1927222955749137s" />
<circle cx="413.0977120176903" cy="78.91842549684078" r="4.008001509474637" fill="#3498db" opacity="0.7" class="shimmer" style="animation-delay: 2.4755841082629493s" />
<circle cx="342.8382653187038" cy="120.95933938734755" r="2.4326929689267747" fill="#9b59b6" opacity="0.7" class="shimmer" style="animation-delay: 1.8729160296104403s" />
<circle cx="183.76817048620887" cy="130.54688193310523" r="5.89932555770116" fill="#8e44ad" opacity="0.7" class="shimmer" style="animation-delay: 1.2245867385430431s" />
<circle cx="627.5084221366453" cy="158.11801673499346" r="5.492501670816783" fill="#e74c3c" opacity="0.7" class="shimmer" style="animation-delay: 3.709329254515885s" />
<circle cx="472.7725070130319" cy="199.50789263917082" r="3.717785846261709" fill="#e74c3c" opacity="0.7" class="shimmer" style="animation-delay: 1.0249732654023225s" />
<circle cx="407.6395348709118" cy="130.94581109064444" r="4.766000071392726" fill="#f39c12" opacity="0.7" class="shimmer" style="animation-delay: 3.709250917094905s" />
<circle cx="391.67511123610603" cy="67.14164668334499" r="5.737682237411836" fill="#e74c3c" opacity="0.7" class="shimmer" style="animation-delay: 2.4145340939644413s" />
<circle cx="593.8623727005395" cy="146.51843598320218" r="1.3999727833552433" fill="white" opacity="0.3467275613703398" />
<circle cx="452.6867627317197" cy="144.31044767603024" r="0.7947572931272928" fill="white" opacity="0.2939144127783262" />
<circle cx="748.314401273071" cy="124.62959025761968" r="0.5481963738090274" fill="white" opacity="0.39088374961613837" />
<circle cx="330.4491591679511" cy="66.51703810216235" r="0.5984822687097777" fill="white" opacity="0.19540229989639687" />
<circle cx="246.4608645384704" cy="127.46562394467836" r="1.3138537693907029" fill="white" opacity="0.1878119151315645" />
<circle cx="129.89739158924783" cy="53.254754376973914" r="0.8361307660655481" fill="white" opacity="0.2740071483032871" />
<circle cx="736.3978159885919" cy="59.28933310702922" r="1.152960661533868" fill="white" opacity="0.20533900349166087" />
<circle cx="151.52823328949802" cy="198.56829559326948" r="0.8098641042684891" fill="white" opacity="0.2645546664720665" />
<circle cx="269.79746084436584" cy="152.80635064104194" r="0.5204930980637024" fill="white" opacity="0.3414393904882269" />
<circle cx="300.8420591986736" cy="29.514181757685478" r="0.6443542695916042" fill="white" opacity="0.1980181658935555" />
<circle cx="430.88311865914494" cy="75.26099315128442" r="1.0061573275152562" fill="white" opacity="0.2697630347912099" />
<circle cx="160.36622836528488" cy="115.17781863196018" r="0.7276013616792707" fill="white" opacity="0.3780549184279376" />
<circle cx="280.07769970673434" cy="12.184780789586025" r="0.5487397138447097" fill="white" opacity="0.3913290428214442" />
<circle cx="476.1809717922123" cy="175.5903377892731" r="0.8472784907913673" fill="white" opacity="0.280363978136389" />
<circle cx="6.597888290783693" cy="178.56884933550913" r="1.414454466002639" fill="white" opacity="0.2872908803301638" />
<circle cx="571.0102856935114" cy="27.311327387610127" r="1.1228026203534516" fill="white" opacity="0.29084956581069465" />
<circle cx="724.7154149190923" cy="144.74448697568187" r="0.7613136900038955" fill="white" opacity="0.21520795000189327" />
<circle cx="25.968936248383123" cy="167.70092510947606" r="1.2997437801008138" fill="white" opacity="0.20622357543626033" />
<circle cx="46.46386948955428" cy="37.884355261150084" r="0.8092381290799029" fill="white" opacity="0.3978455159129004" />
<circle cx="511.2929409315855" cy="55.843045671872545" r="1.1386208867686702" fill="white" opacity="0.27844298494789954" />
<circle cx="129.06113032735237" cy="44.28068570834762" r="1.3105027520146453" fill="white" opacity="0.3546737417428997" />
<circle cx="136.77999570199316" cy="68.91311727447977" r="0.9884039233298043" fill="white" opacity="0.21239575460212148" />
<circle cx="444.9343489679608" cy="79.06198098461186" r="0.7806818096591204" fill="white" opacity="0.2584515245039466" />
<circle cx="710.5884357186035" cy="101.97298665599574" r="0.9363479680929832" fill="white" opacity="0.38907316033634043" />
<circle cx="642.7149142377004" cy="56.39148813604176" r="0.5578543596395884" fill="white" opacity="0.37599091026307463" />

  
    <text x="400" y="120" text-anchor="middle" class="name-text" fill="url(#textGrad)" filter="url(#textGlow)">
      JOEL HOOKS
    </text>
  
</svg>
