<svg xmlns="http://www.w3.org/2000/svg" viewBox="0 0 800 200" width="800" height="200">
  <rect width="800" height="200" fill="#05010d"/>
  
    <defs>
      <linearGradient id="grad1" x1="0%" y1="0%" x2="100%" y2="100%">
        <stop offset="0%" style="stop-color:#4a0080;stop-opacity:0.8" />
        <stop offset="100%" style="stop-color:#7b2cbf;stop-opacity:0.8" />
      </linearGradient>
      <linearGradient id="grad2" x1="100%" y1="0%" x2="0%" y2="100%">
        <stop offset="0%" style="stop-color:#9d4edd;stop-opacity:0.7" />
        <stop offset="100%" style="stop-color:#c77dff;stop-opacity:0.7" />
      </linearGradient>
      <linearGradient id="textGrad" x1="0%" y1="0%" x2="100%" y2="0%">
        <stop offset="0%" style="stop-color:#4a0080" />
        <stop offset="25%" style="stop-color:#7b2cbf" />
        <stop offset="50%" style="stop-color:#9d4edd" />
        <stop offset="75%" style="stop-color:#c77dff" />
        <stop offset="100%" style="stop-color:#e0aaff" />
      </linearGradient>
      <filter id="glow">
        <feGaussianBlur stdDeviation="5" result="coloredBlur"/>
        <feMerge>
          <feMergeNode in="coloredBlur"/>
          <feMergeNode in="SourceGraphic"/>
        </feMerge>
      </filter>
      <filter id="textGlow">
        <feGaussianBlur stdDeviation="2" result="coloredBlur"/>
        <feMerge>
          <feMergeNode in="coloredBlur"/>
          <feMergeNode in="SourceGraphic"/>
        </feMerge>
      </filter>
    </defs>
  
  
    <style>
      @keyframes float {
        0%, 100% { transform: translateY(0px); }
        50% { transform: translateY(-8px); }
      }
      @keyframes pulse {
        0%, 100% { opacity: 0.4; }
        50% { opacity: 0.9; }
      }
      @keyframes drift {
        0% { transform: translateX(0px); }
        50% { transform: translateX(10px); }
        100% { transform: translateX(0px); }
      }
      @keyframes shimmer {
        0% { opacity: 0.3; }
        50% { opacity: 1; }
        100% { opacity: 0.3; }
      }
      @keyframes glitch {
        0%, 100% { transform: translateX(0); }
        20% { transform: translateX(-2px); }
        40% { transform: translateX(2px); }
        60% { transform: translateX(-1px); }
        80% { transform: translateX(1px); }
      }
      @keyframes dataStream {
        0% { stroke-dashoffset: 0; }
        100% { stroke-dashoffset: -20; }
      }
      .float { animation: float 8s ease-in-out infinite; }
      .pulse { animation: pulse 8s ease-in-out infinite; }
      .drift { animation: drift 8s ease-in-out infinite; }
      .shimmer { animation: shimmer 3s ease-in-out infinite; }
      .glitch { animation: glitch 0.5s ease-in-out infinite; }
      .dataStream { animation: dataStream 2s linear infinite; }
      .name-text { 
        font-family: -apple-system, BlinkMacSystemFont, 'Segoe UI', Helvetica, Arial, sans-serif;
        font-weight: 700;
        font-size: 64px;
        letter-spacing: -2px;
      }
    </style>
  
  <path d="M 136.67976414748537 103.77534364137571 C 139.0032014488733 115.67846259978236, 106.9123769356107 131.0525532644623, 94.07522288511619 145.33348666457013 C 81.23806883462169 159.61442006467797, 71.07928057534232 190.90028603596593, 59.65683984451836 189.46094404202267 C 48.2343991136944 188.02160204807942, 41.51888269050795 146.07925947618108, 25.540578500172444 136.69743470091055 C 9.562274309836937 127.31560992564, -31.28197842742799 141.60478240379067, -36.21298529749469 133.16999539039944 C -41.143992167561386 124.73520837700822, -15.361611801031708 94.70140960901426, -4.0454627202277464 86.08871262056323 C 7.2706863605762155 77.4760156321122, 22.686384314113678 83.64218919081848, 31.683909187329082 81.49381345969326 C 40.68143406054449 79.34543772856803, 41.86457153748811 74.46163165807236, 49.93968651906468 73.19845823381186 C 58.01480150064125 71.93528480955136, 65.67791947205173 68.81862534620294, 80.1345990767885 73.91477291413024 C 94.59127868152528 79.01092048205754, 134.35632684609743 91.87222468296906, 136.67976414748537 103.77534364137571 Z" fill="#c77dff" opacity="0.14648198038637786" filter="url(#glow)" class="float" />
<path d="M 762.7247474777844 170.56468261746392 C 766.9320272816573 196.5279394236036, 788.5367606248279 244.05699134420223, 775.5968412882291 261.0762924475016 C 762.6569219516304 278.09559355080097, 710.1022892477013 277.8339680577629, 685.0852314581914 272.6804892372602 C 660.0681736686815 267.5270104167575, 639.8365416297966 247.17472062778464, 625.4944945511701 230.15541952448527 C 611.1524474725436 213.1361184211859, 599.2144194854249 190.60973208546366, 599.0329489864322 170.56468261746392 C 598.8514784874395 150.51963314946417, 610.0636244785878 127.93020060383846, 624.4056715572143 109.88512271648679 C 638.7477186358408 91.84004482913512, 664.0939829735619 63.05894381099117, 685.0852314581914 62.29421529335394 C 706.0764799428209 61.52948677571672, 737.413243128393 87.2516737233118, 750.3531624649918 105.29675161066346 C 763.2930818015906 123.34182949801513, 758.5174676739115 144.60142581132422, 762.7247474777844 170.56468261746392 Z" fill="#4a0080" opacity="0.2132559989488872" filter="url(#glow)" class="float" />
<path d="M 203.9967256181415 129.20752294222387 C 208.03530340029192 153.24088676341975, 226.9115777861183 193.78479240527415, 214.6513832577059 213.4233477522627 C 202.3911887292935 233.06190309925128, 157.90539572931777 247.64095934585083, 130.43555844766706 247.03885502415525 C 102.96572116601635 246.43675070245968, 75.05352543254207 229.44927716907787, 49.832359567801646 209.8107218220893 C 24.611193703061222 190.17216647510074, -24.96914905098446 151.99754359197004, -20.891436740775475 129.2075229422239 C -16.81372443056649 106.41750229247775, 49.07746756431513 91.61106955881763, 74.29863342905554 73.07059792361238 C 99.51979929379596 54.53012628840713, 111.08201125837572 18.605931980746558, 130.43555844766703 17.9646931309924 C 149.78910563695837 17.323454281238245, 178.15972203639103 50.6826931898822, 190.41991656480346 69.22316482508745 C 202.68011109321588 87.7636364602927, 199.9581478359911 105.174159121028, 203.9967256181415 129.20752294222387 Z" fill="#c77dff" opacity="0.10871273938258338" filter="url(#glow)" class="float" />
<path d="M 790.141358693789 127.47903529530026 C 796.2467419990435 152.3176919784803, 837.1385273575637 200.07461061020837, 827.9715370972579 220.31115526060393 C 818.804546836952 240.54769991099948, 760.9910136518796 253.99074666618264, 735.1394171319541 248.89830319767356 C 709.2878206120287 243.80585972916447, 682.2053428860436 209.99303909994492, 672.8619579777051 189.75649444954936 C 663.5185730693665 169.5199497991538, 681.0884642885698 150.24754495336313, 679.0791076819232 127.47903529530026 C 677.0697510752767 104.7105256372374, 651.4624334294874 63.09599261050768, 660.8058183378259 53.14543650117214 C 670.1492032461645 43.194880391836605, 713.3838473106366 64.75340219589513, 735.1394171319541 67.77569863928706 C 756.8949869532717 70.79799508267898, 782.1722470054249 61.328659052188144, 791.3392372657307 71.27921516152368 C 800.5062275260366 81.22977127085922, 784.0359753885346 102.64037861212022, 790.141358693789 127.47903529530026 Z" fill="#e0aaff" opacity="0.22616759505182696" filter="url(#glow)" class="float" />
<path d="M 652.8687871413721 105.58082698809726 L 652.8687871413721 105.58082698809726 L 653.2506097670818 105.61423213932456 L 653.6237035905252 105.7139391262636 L 653.9794505566891 105.87842835329425 L 654.3094529249412 106.10518645084221 L 654.6056404874614 106.39073500447084 L 654.8603742933874 106.7306703664279 L 655.066545767306 107.11971414514164 L 655.217670155845 107.55177385922005 L 655.3079732917322 108.02001313845739 L 655.3324707302755 108.51693075618839 L 655.2870383881561 109.03444768599351 L 655.1684738980333 109.56400129212788 L 654.9745479839434 110.09664568792948 L 654.7040452609795 110.62315723058919 L 654.356793967357 111.13414406468245 L 653.9336842467028 111.62015858132267 L 653.4366747122361 112.07181162516095 L 652.8687871413721 112.4798872580811 L 652.2340892680535 112.8354568765802 L 651.5376657597087 113.12999147962903 L 650.7855775849931 113.35547089531653 L 649.9848100962748 113.50448879772743 L 649.1432102660536 113.5703523801081 L 648.2694136280495 113.54717559615851 L 647.3727615804993 113.42996493786147 L 646.463209810223 113.21469678513421 L 645.5512286902916 112.89838543917766 L 644.6476965907169 112.47914103702703 L 643.7637871196456 111.95621663870972 L 642.9108513812955 111.33004387975046 L 642.1002963956183 110.60225668961347 L 641.3434608728192 109.7757026900569 L 640.6514895728847 108.85444200526419 L 640.0352075057681 107.84373333692496 L 639.5049952415351 106.75000728105258 L 639.0706666014044 105.58082698809726 L 638.7413499901159 104.34483639268737 L 638.5253746074617 103.0516963629369 L 638.4301627422506 101.71200924053636 L 638.4621293056808 100.3372323606477 L 638.6265897034397 98.9395812538339 L 638.9276770772649 97.53192333978276 L 639.3682698677776 96.12766302339604 L 639.9499305617711 94.7406191969219 L 640.6728563895714 93.38489623629658 L 641.535842632416 92.07474965487805 L 642.5362590869312 90.82444764254055 L 643.6700401147269 89.64812977197477 L 644.931688580911 88.55966419642198 L 646.3142938570601 87.57250469348321 L 647.8095639330232 86.69954892770761 L 649.4078715490474 85.95299931011468 L 651.0983141263255 85.34422782548694 L 652.8687871413721 84.88364617814572 L 654.7060704588732 84.58058257406769 L 656.5959270100294 84.44316641180832 L 658.5232130801149 84.47822209707354 L 660.471999351174 84.69117312634496 L 662.4257017345803 85.08595750424335 L 664.3672209246785 85.66495546794414 L 666.2790895099017 86.42893039067259 L 668.1436253925738 87.37698362593223 L 669.943090193893 88.50652393557631 L 671.6598512571553 89.8132520191149 L 673.276545810759 91.29116052982795 L 674.7762458135405 92.9325498264602 L 676.1426219789689 94.72805956869125 L 677.3601054620472 96.66671612143301 L 678.414045693664 98.73599558856642 L 679.2908628617332 100.9219021522755 L 679.9781935667557 103.20906125095934 L 680.4650282213074 105.58082698809726 L 680.741838818175 108.01940302768978 L 680.8006957600396 110.50597610025164 L 680.6353725242981 113.02086111802207 L 680.2414370291855 115.54365678025142 L 679.6163286711475 118.05341044025042 L 678.7594201175712 120.52879090639557 L 677.672063062627 122.94826776045532 L 676.3576172861011 125.29029569932518 L 674.8214624946133 127.53350234133845 L 673.0709925703807 129.65687788644453 L 671.1155920034698 131.63996498131442 L 668.966594438001 133.46304711631163 L 666.637223419723 135.1073338716156 L 664.1425155903887 136.5551413348334 L 661.4992267320848 137.79006603229135 L 658.7257212206908 138.797150750837 L 655.8418456006013 139.5630406762542 L 652.8687871413721 140.07612833801647 L 649.8289183796883 140.32668592767345 L 646.7456287857207 140.30698364914338 L 643.6431448202653 140.01139286292545 L 640.5463397668657 139.43647290197165 L 637.4805348302741 138.58104056379423 L 634.4712930880819 137.44622142034228 L 631.5442079651856 136.0354822331824 L 628.7246879701179 134.3546439153904 L 626.0377394874106 132.41187464205873 L 623.5077494604608 130.21766287713223 L 621.1582698243247 127.78477025402344 L 619.0118055571118 125.12816441971813 L 617.0896082119322 122.26493212539303 L 615.4114767685749 119.2141730194661 L 613.9955676052757 115.99687476999202 L 612.8582153362537 112.63577031091302 L 612.0137661904419 109.15517816941778 L 611.474425521469 105.58082698809727 L 611.2501209390226 101.93966550432218 L 611.3483824379474 98.25965938894886 L 611.7742407746417 94.56957647580847 L 612.5301452014367 90.89876203123853 L 613.6159015197536 87.27690581805436 L 615.0286312530811 83.73380279981505 L 616.7627525724567 80.2991094080824 L 618.8099834315149 77.00209735681679 L 621.1593671866904 73.8714070334155 L 623.7973207923109 70.93480252462189 L 626.7077054716175 68.21893034721967 L 629.8719195747593 65.74908394779101 L 633.2690131451315 63.54897601273586 L 636.8758235276509 61.64052058923899 L 640.6671311682953 60.04362696009871 L 644.6158345750594 58.77600714060033 L 648.6931432379603 57.852998774393704 L 652.8687871413721 57.28740509821035 L 657.1112413472384 57.08935352297444 L 661.3879639840175 57.26617424229397 L 665.6656458448427 57.82230012946463 L 669.9104696805831 58.759189022100735 L 674.0883771703599 60.07526932055721 L 678.1653414646462 61.76590964376036 L 682.1076431252154 63.82341309535169 L 685.8821472326788 66.23703649567604 L 689.4565793967741 68.99303473269525 L 692.7997983874116 72.07473017900978 L 695.8820631060798 75.46260691451423 L 698.6752916377243 79.13442928649253 L 701.153310162655 83.0653841329117 L 703.2920895662913 87.22824579202371 L 705.0699676612728 91.59356282383858 L 706.4678550312476 96.12986517828746 L 707.469422617849 100.80389036259422 L 708.0612693012429 105.58082698809723 L 708.2330678692682 110.42457391605492 L 707.9776879295539 115.29801307423978 L 707.2912944919069 120.16329388274987 L 706.1734211334297 124.98212710966058 L 704.6270168548336 129.71608587603004 L 702.6584659417549 134.32691144636323 L 700.277580357948 138.77682137576895 L 697.4975644163572 143.02881753943035 L 694.3349516974945 147.0469915442195 L 690.8095144104858 150.79682501670072 L 686.9441456187834 154.24548227663536 L 682.7647149779689 157.36209294049533 L 678.2998988555025 160.1180220553017 L 673.5809859197979 162.48712543907763 L 668.6416594968128 164.44598799990024 L 663.5177581946789 165.97414292035137 L 658.2470164889666 167.05426972734745 L 652.8687871413722 167.67236941795187 L 647.4237474913231 167.81791497876668 L 641.9535918117326 167.4839758186577 L 636.5007120555374 166.66731483053434 L 631.1078694374564 165.3684570062159 L 625.8178593944946 163.59172874748037 L 620.673172548114 161.34526724452599 L 615.715654349872 158.64099952850336" fill="none" stroke="#7b2cbf" stroke-width="1" opacity="0.3" class="drift" />
<path d="M 398.74620238774406 95.7439888035599 L 398.74620238774406 95.7439888035599 L 399.15181194515543 95.77947504165117 L 399.54814891004486 95.88539361252685 L 399.9260583365174 96.06013025221878 L 400.2766193182892 96.30101501229537 L 400.5912588866524 96.60435277872949 L 400.8618621964676 96.9654655636401 L 401.0808778195768 97.37874614020221 L 401.2414170129665 97.83772247529218 L 401.3373458880875 98.33513230390334 L 401.36336947740944 98.86300708508792 L 401.3151067738963 99.41276448215424 L 401.1891559079045 99.97530842100693 L 400.98314872318497 100.54113570072147 L 400.6957941183182 101.10044806046781 L 400.32690963103846 101.64326854742669 L 399.8774408594797 102.15956098196635 L 399.34946843529553 102.63935127955355 L 398.74620238774406 103.07284936404108 L 398.07196386401006 103.45057039437633 L 397.3321542980745 103.76345402656796 L 396.5332122471319 104.00298044497339 L 395.682558239699 104.16128192155804 L 394.78852810196395 104.23124869853807 L 393.8602953474233 104.20662803845397 L 392.90778332830723 104.08211534581979 L 391.94156795461413 103.85343633553276 L 390.97277188671376 103.51741930459022 L 390.0129511994656 103.0720566546229 L 389.0739755987226 102.51655491250663 L 388.1679033441265 101.85137260396087 L 387.30685209451264 101.07824544961136 L 386.50286694338314 100.20019847344365 L 385.76778695123716 99.22154473880755 L 385.11311150863037 98.14787055599813 L 384.54986787834537 96.98600713675415 L 384.08848126678174 95.7439888035599 L 383.7386487635226 94.43099799418313 L 383.5092184640288 93.05729743318776 L 383.4080750536904 91.63414997099451 L 383.4420330822929 90.17372671620521 L 383.61673909669605 88.68900420716928 L 383.93658372667943 87.19365148299853 L 384.40462473505704 85.70190802132856 L 385.02252194902076 84.22845360903233 L 385.7904848860269 82.78827130184271 L 386.70723377528344 81.39650470853101 L 387.7699745560028 80.06831090411133 L 388.9743883071025 78.81871033377178 L 390.3146354310821 77.66243511425859 L 391.7833747785507 76.61377717174594 L 393.37179776054313 75.68643767441284 L 395.06967735460324 74.89337922373895 L 396.86543176890706 74.24668226075617 L 398.74620238774406 73.7574071221164 L 400.6979454827636 73.4354631459334 L 402.70553703881876 73.28948617913734 L 404.75288991226273 73.32672577686614 L 406.82308241440836 73.55294331065569 L 408.8984972947452 73.972322116442 L 410.960969988546 74.58739071632473 L 412.99194489276994 75.39896004044579 L 414.97263834366925 76.40607545808618 L 416.8842068901481 77.60598430115583 L 418.7079193895234 78.99411942970161 L 420.42533139761974 80.56409924902412 L 422.0184602837027 82.30774444267774 L 423.46995947311524 84.2151115362874 L 424.7632902070111 86.27454325505693 L 425.88288920953124 88.47273548440573 L 426.81433066827225 90.79482048971646 L 427.5444809639528 93.22446589908014 L 428.06164462966876 95.74398880355989 L 428.3557000787756 98.3344841842222 L 428.4182237128739 100.97596673533721 L 428.242601107078 103.64752502003181 L 427.8241240681013 106.32748676953382 L 427.1600724709318 108.99359402117157 L 426.2497799011498 111.62318668460242 L 425.0946822612853 114.19339303138028 L 423.69834863996823 116.68132552088274 L 422.06649389083503 119.06428030665082 L 420.206972523 121.31993871208967 L 418.12975366507436 123.4265689238627 L 415.8468770288668 125.36322612568915 L 413.3723899656271 127.10994928500095 L 410.7222658755567 128.64795281027992 L 407.91430439885147 129.95981131798723 L 404.9680139822901 131.02963578479535 L 401.9044775778666 131.8432394131737 L 398.74620238774406 132.38829160596575 L 395.51695472143905 132.6544585279965 L 392.2415811752642 132.63352882939697 L 388.9458174793189 132.31952321553393 L 385.6560864824606 131.70878667137018 L 382.3992868595219 130.80006228281758 L 379.20257422646097 129.5945457431362 L 376.0931364371292 128.09591978752826 L 373.09796490902363 126.31036796253454 L 370.2436238839662 124.2465673073377 L 367.55601957246387 121.91565970021351 L 365.06017115701417 119.33120180368475 L 362.77998563944425 116.5090937249232 L 360.73803851023314 113.46748669205343 L 358.955362193571 110.22667023068209 L 357.4512441806766 106.80893950662059 L 356.2430367058014 103.23844367880851 L 355.34597974472524 99.54101627932518 L 354.77303902485704 95.74398880355992 L 354.53476062990245 91.87598885161214 L 354.63914366119974 87.96672431037742 L 355.0915322831299 84.0467552031814 L 355.8945283324807 80.14725495896681 L 357.04792551241655 76.29976296472722 L 358.54866602199724 72.53593036203617 L 360.3908202933486 68.88726113015052 L 362.565590322019 65.3848505634418 L 365.0613368832794 62.05912329909519 L 367.8636307296929 58.93957308152925 L 370.95532766482467 56.054506462402905 L 374.3166671861402 53.43079262908955 L 377.92539418864004 51.09362152997911 L 381.75690302131227 49.0662724219338 L 385.7844029927301 47.3698949038523 L 389.97910423179286 46.02330442090995 L 394.31042262633605 45.04279412713602 L 398.74620238774406 44.441964880191726 L 403.2529546253346 44.231575012313236 L 407.79611016162914 44.41941137630833 L 412.34028468007574 45.01018300630559 L 416.8495541716468 46.00543856084355 L 421.28773853718724 47.40350853216249 L 425.6186911095083 49.199473011642496 L 429.806591783948 51.38515559873734 L 433.8162413892598 53.94914383108438 L 437.61335489289564 56.87683629840835 L 441.1648510165252 60.15051638411107 L 444.4391358393282 63.749452357845996 L 447.406377988385 67.65002332171542 L 450.03877305739474 71.82587029384533 L 452.31079495682314 76.24807149781839 L 454.1994319800918 80.88534071659268 L 455.6844054711013 85.7042473669061 L 456.748369097573 90.6694567565092 L 457.3770868715934 95.74398880355987 L 457.55958821239574 100.88949332679317 L 457.2882985157029 106.06653985814766 L 456.5591438776385 111.23491978784482 L 455.37162881791346 116.3539585267722 L 453.7288860552113 121.38283526361369 L 451.63769760583205 126.28090780556471 L 449.1084867029938 131.0080399225583 L 446.15528026696995 135.52492856647333 L 442.79564189358257 139.79342830939828 L 439.05057556859055 143.77687033909143 L 434.9444005562524 147.4403733655712 L 430.50459814982923 150.7511438303713 L 425.76163120806916 153.67876286928043" fill="none" stroke="#7b2cbf" stroke-width="1" opacity="0.3" class="drift" />
<circle cx="459.7498620974752" cy="135.12018732932142" r="0.8662195215589933" fill="white" opacity="0.5887671203352487" class="shimmer" style="animation-delay: 2.811285202768452s" />
<circle cx="445.0458117810879" cy="49.877530178460994" r="1.6173410520771252" fill="white" opacity="0.7791328623411744" class="shimmer" style="animation-delay: 2.795818875653371s" />
<circle cx="357.7504188046726" cy="157.39951619448735" r="1.433527852628055" fill="white" opacity="0.3349938456716656" class="shimmer" style="animation-delay: 1.0568963921682173s" />
<circle cx="576.850950487958" cy="108.30888786940358" r="1.1093646887164463" fill="white" opacity="0.334426469848719"  style="animation-delay: 4.092777307219962s" />
<circle cx="17.401482813004066" cy="80.26940102121381" r="1.9106596549528048" fill="white" opacity="0.589668159296765"  style="animation-delay: 4.051812573854442s" />
<circle cx="499.28424543754966" cy="157.92464265327934" r="1.2174036835005508" fill="white" opacity="0.7035947937269627"  style="animation-delay: 2.5614446370898136s" />
<circle cx="665.2153586400352" cy="147.4594335321041" r="0.5901619915465821" fill="white" opacity="0.7389732621680489" class="shimmer" style="animation-delay: 1.921566319266289s" />
<circle cx="282.6049658673476" cy="188.7321659943958" r="0.6278402941571378" fill="white" opacity="0.5336743690595325"  style="animation-delay: 0.9428712552570861s" />
<circle cx="300.1093059466937" cy="68.78519135250735" r="0.8087195842762147" fill="white" opacity="0.400708285236205"  style="animation-delay: 0.6256733537740944s" />
<circle cx="68.24989553986072" cy="119.02531809390501" r="1.0222053224479817" fill="white" opacity="0.3019362560669227"  style="animation-delay: 3.1274044641324936s" />
<circle cx="153.68852833946445" cy="178.16648431429303" r="1.0750432100826068" fill="white" opacity="0.7832661211570795"  style="animation-delay: 4.102634586235202s" />
<circle cx="652.5336227135656" cy="199.93317100874046" r="1.8375408878006656" fill="white" opacity="0.35745742226454885"  style="animation-delay: 0.1788851453531426s" />
<circle cx="679.1213799532919" cy="75.45835235483764" r="1.4073484189212264" fill="white" opacity="0.4559230982705778"  style="animation-delay: 2.542684318531415s" />
<circle cx="511.82359985931606" cy="18.74111202593074" r="0.7318305808432178" fill="white" opacity="0.7063450228231083" class="shimmer" style="animation-delay: 3.4840873677685646s" />
<circle cx="585.8819816575732" cy="48.160128736632004" r="1.4833446971956152" fill="white" opacity="0.5962739898134308"  style="animation-delay: 1.8358571892475484s" />
<circle cx="320.78358415925317" cy="145.18255019104828" r="1.4195991630034537" fill="white" opacity="0.41535689537024917"  style="animation-delay: 0.09362225596472928s" />
<circle cx="318.57865831520036" cy="120.43294861125831" r="1.9519151505897403" fill="white" opacity="0.34347201337483085" class="shimmer" style="animation-delay: 0.6390402019237562s" />
<circle cx="494.3732890459019" cy="51.08566283339657" r="1.688380256417068" fill="white" opacity="0.525363625705991"  style="animation-delay: 3.0482187421659557s" />
<circle cx="659.5417248065091" cy="189.48022700676913" r="1.8489915931688021" fill="white" opacity="0.3942886717660328" class="shimmer" style="animation-delay: 4.929212005266405s" />
<circle cx="239.04738439026173" cy="150.35813901774176" r="1.2239017427210706" fill="white" opacity="0.33865689221503154"  style="animation-delay: 4.365116737625484s" />
<circle cx="635.46123799784" cy="113.76758867186024" r="1.1491561299561273" fill="white" opacity="0.3339179944438961" class="shimmer" style="animation-delay: 3.9561702630340023s" />
<circle cx="341.89688814185" cy="136.7547520370835" r="1.1663606230998873" fill="white" opacity="0.6783476519920892" class="shimmer" style="animation-delay: 1.0305923285957819s" />
<circle cx="345.4054459769454" cy="197.13260290153477" r="0.6382057405588184" fill="white" opacity="0.44501156178340145"  style="animation-delay: 0.5620653932393616s" />
<circle cx="208.56953422736098" cy="29.39804753699411" r="1.2745008863459395" fill="white" opacity="0.6870914748737402"  style="animation-delay: 0.6750380609189455s" />
<circle cx="43.66768944047852" cy="85.40752550065234" r="1.2040063910325767" fill="white" opacity="0.42101604459332015"  style="animation-delay: 4.727412974428584s" />
<circle cx="599.4052351246193" cy="60.4623079882225" r="1.5264219102859373" fill="white" opacity="0.6060514928415794"  style="animation-delay: 2.8708000421893667s" />
<circle cx="231.57055539293162" cy="28.618573796011624" r="0.6151884475786621" fill="white" opacity="0.6083158707037502"  style="animation-delay: 1.1878340574494195s" />
<circle cx="505.9965136953156" cy="76.18350952163975" r="0.9698684031690619" fill="white" opacity="0.40952717413919887"  style="animation-delay: 0.87775256997216s" />
<circle cx="688.3505615037681" cy="128.53933164840566" r="1.9996728649381388" fill="white" opacity="0.3711568884253433"  style="animation-delay: 0.42274808271789976s" />
<circle cx="389.1754438212937" cy="25.113517887549584" r="1.3065307436304674" fill="white" opacity="0.7669635049715902" class="shimmer" style="animation-delay: 1.1929322103117834s" />
<circle cx="306.4854324139958" cy="151.94231546304806" r="0.7052741968581985" fill="white" opacity="0.7298223818044607"  style="animation-delay: 0.165269886044479s" />
<circle cx="86.687833016242" cy="36.95493308119309" r="0.5605854320323345" fill="white" opacity="0.6828472977838136"  style="animation-delay: 2.779550727724981s" />
<circle cx="763.2239097493281" cy="192.9196488595067" r="0.5864409888710521" fill="white" opacity="0.7955005593096984"  style="animation-delay: 3.160041734600776s" />
<circle cx="707.9434152516352" cy="85.97684328458426" r="1.3134928985821486" fill="white" opacity="0.7915086481514026"  style="animation-delay: 4.427040615107739s" />
<circle cx="583.3361281663608" cy="48.17188732855149" r="0.9537379963648245" fill="white" opacity="0.43945028561693417"  style="animation-delay: 1.264183888974395s" />
<circle cx="120.6157808296986" cy="142.02353543779475" r="1.8196231329799541" fill="white" opacity="0.5244270567380962"  style="animation-delay: 3.8303077597535538s" />
<circle cx="289.6994509747902" cy="163.1113358193703" r="0.8221797457664005" fill="white" opacity="0.3915509276765075"  style="animation-delay: 2.7086788697760755s" />
<circle cx="655.8882197641625" cy="101.67944071984438" r="1.6568236211303609" fill="white" opacity="0.7784680776405901"  style="animation-delay: 1.202274973670605s" />
<circle cx="622.7295928428665" cy="186.31031705958776" r="1.2424449936056683" fill="white" opacity="0.42711123555651415"  style="animation-delay: 3.2674905618938235s" />
<circle cx="584.2700349749637" cy="12.889982551502976" r="1.9882518067924404" fill="white" opacity="0.7558941176653413"  style="animation-delay: 0.35637675331699814s" />
<circle cx="753.2811203409118" cy="181.03461307866593" r="2.361237936218999" fill="#4a0080" opacity="0.8" filter="url(#glow)" class="shimmer" style="animation-delay: 1.7211574738333129s" />
<circle cx="70.13412954779312" cy="68.5232359085866" r="1.987625896634034" fill="#9d4edd" opacity="0.8" filter="url(#glow)" class="shimmer" style="animation-delay: 2.5380192297408124s" />
<circle cx="12.029969260305862" cy="117.49687913673448" r="2.3048861944476373" fill="#4a0080" opacity="0.8" filter="url(#glow)" class="shimmer" style="animation-delay: 0.11800564955779125s" />
<circle cx="506.0840311237433" cy="36.29502110081098" r="2.0409069161231583" fill="#4a0080" opacity="0.8" filter="url(#glow)" class="shimmer" style="animation-delay: 2.98901523008357s" />
<circle cx="719.9152201581726" cy="160.45438835235748" r="1.243881035631348" fill="#4a0080" opacity="0.8" filter="url(#glow)" class="shimmer" style="animation-delay: 0.05450935657921008s" />
<circle cx="659.4633078180171" cy="193.46587956076777" r="2.255764130594554" fill="#c77dff" opacity="0.8" filter="url(#glow)" class="shimmer" style="animation-delay: 2.5347239489601687s" />
<circle cx="767.3021825771564" cy="138.34563762340122" r="2.898560933391609" fill="#4a0080" opacity="0.8" filter="url(#glow)" class="shimmer" style="animation-delay: 1.4950663961626272s" />
<circle cx="311.7167668245317" cy="159.82603586459524" r="2.8846417349695175" fill="#7b2cbf" opacity="0.8" filter="url(#glow)" class="shimmer" style="animation-delay: 1.8537169135614644s" />
<line x1="410.9822013807028" y1="37.4089859672603" x2="710.5017218817075" y2="81.46023376612717" stroke="#e0aaff" stroke-width="0.5" opacity="0.3" />
<line x1="710.5017218817075" y1="81.46023376612717" x2="506.4669759151807" y2="119.01063791910641" stroke="#e0aaff" stroke-width="0.5" opacity="0.3" />
<line x1="506.4669759151807" y1="119.01063791910641" x2="604.75884264552" y2="95.35723892482228" stroke="#e0aaff" stroke-width="0.5" opacity="0.3" />

  
    <text x="400" y="120" text-anchor="middle" class="name-text" fill="url(#textGrad)" filter="url(#textGlow)">
      JOEL HOOKS
    </text>
  
</svg>
