<svg xmlns="http://www.w3.org/2000/svg" viewBox="0 0 800 200" width="800" height="200">
  <rect width="800" height="200" fill="#05010d"/>
  
    <defs>
      <linearGradient id="grad1" x1="0%" y1="0%" x2="100%" y2="100%">
        <stop offset="0%" style="stop-color:#4a0080;stop-opacity:0.8" />
        <stop offset="100%" style="stop-color:#7b2cbf;stop-opacity:0.8" />
      </linearGradient>
      <linearGradient id="grad2" x1="100%" y1="0%" x2="0%" y2="100%">
        <stop offset="0%" style="stop-color:#9d4edd;stop-opacity:0.7" />
        <stop offset="100%" style="stop-color:#c77dff;stop-opacity:0.7" />
      </linearGradient>
      <linearGradient id="textGrad" x1="0%" y1="0%" x2="100%" y2="0%">
        <stop offset="0%" style="stop-color:#4a0080" />
        <stop offset="25%" style="stop-color:#7b2cbf" />
        <stop offset="50%" style="stop-color:#9d4edd" />
        <stop offset="75%" style="stop-color:#c77dff" />
        <stop offset="100%" style="stop-color:#e0aaff" />
      </linearGradient>
      <filter id="glow">
        <feGaussianBlur stdDeviation="5" result="coloredBlur"/>
        <feMerge>
          <feMergeNode in="coloredBlur"/>
          <feMergeNode in="SourceGraphic"/>
        </feMerge>
      </filter>
      <filter id="textGlow">
        <feGaussianBlur stdDeviation="2" result="coloredBlur"/>
        <feMerge>
          <feMergeNode in="coloredBlur"/>
          <feMergeNode in="SourceGraphic"/>
        </feMerge>
      </filter>
    </defs>
  
  
    <style>
      @keyframes float {
        0%, 100% { transform: translateY(0px); }
        50% { transform: translateY(-8px); }
      }
      @keyframes pulse {
        0%, 100% { opacity: 0.4; }
        50% { opacity: 0.9; }
      }
      @keyframes drift {
        0% { transform: translateX(0px); }
        50% { transform: translateX(10px); }
        100% { transform: translateX(0px); }
      }
      @keyframes shimmer {
        0% { opacity: 0.3; }
        50% { opacity: 1; }
        100% { opacity: 0.3; }
      }
      @keyframes glitch {
        0%, 100% { transform: translateX(0); }
        20% { transform: translateX(-2px); }
        40% { transform: translateX(2px); }
        60% { transform: translateX(-1px); }
        80% { transform: translateX(1px); }
      }
      @keyframes dataStream {
        0% { stroke-dashoffset: 0; }
        100% { stroke-dashoffset: -20; }
      }
      .float { animation: float 8s ease-in-out infinite; }
      .pulse { animation: pulse 8s ease-in-out infinite; }
      .drift { animation: drift 8s ease-in-out infinite; }
      .shimmer { animation: shimmer 3s ease-in-out infinite; }
      .glitch { animation: glitch 0.5s ease-in-out infinite; }
      .dataStream { animation: dataStream 2s linear infinite; }
      .name-text { 
        font-family: -apple-system, BlinkMacSystemFont, 'Segoe UI', Helvetica, Arial, sans-serif;
        font-weight: 700;
        font-size: 64px;
        letter-spacing: -2px;
      }
    </style>
  
  <path d="M 143.04525426474245 55.7602536795359 C 151.88806189794903 68.70576748687651, 153.25558068585616 101.79764977551508, 144.00855264904618 113.87082253904276 C 134.7615246122362 125.94399530257044, 103.35159279112496 130.3190777613938, 87.56308604388259 128.19929026070196 C 71.77457929664023 126.07950276001012, 66.05764070185927 103.88388276771641, 49.27751216559199 101.15209753489174 C 32.497383629324716 98.42031230206706, -6.899161763233239 119.3738861729799, -13.117685173721085 111.80857886375392 C -19.336208584208933 104.24327155452795, 7.93201873758445 71.51189973882643, 11.966371702664915 55.76025367953591 C 16.00072466774538 40.00860762024539, 6.298849954769826 29.261837234481696, 11.088432616761708 17.29870250801082 C 15.87801527875359 5.335567781539941, 30.58895627055302 -18.452607780049878, 40.703867674616205 -16.018554679289373 C 50.81877907867939 -13.584501578528869, 63.40326117860907 23.200305383525773, 71.77790104114082 31.90302111257385 C 80.15254090367257 40.605736841621926, 79.07381464587309 32.22153426717206, 90.9517068498067 36.19773969499907 C 102.82959905374031 40.17394512282608, 134.20244663153588 42.81473987219528, 143.04525426474245 55.7602536795359 Z" fill="#c77dff" opacity="0.180141351305677" filter="url(#glow)" class="float" />
<path d="M 363.51179694324674 174.39615764620467 C 368.8775780237082 190.2423598758809, 349.04392667335264 219.76338951495234, 334.91750564342516 235.44203911201308 C 320.7910846134977 251.12068870907382, 299.1926367835624 264.2419403224274, 278.75327076368194 268.468055228569 C 258.31390474380146 272.69417013471065, 227.13567805259936 272.07705095931414, 212.2813095241424 260.7987285488627 C 197.4269409956854 249.52040613841126, 199.0270184815727 221.6459362326034, 189.62705959294016 200.79812076586032 C 180.22710070430762 179.95030529911725, 152.47882977549568 155.15861502858067, 155.88155619234715 135.7118357484043 C 159.2842826091986 116.26505646822793, 191.04855904171373 84.93388634299477, 210.043418094049 84.11744508480207 C 229.03827714638427 83.30100382660937, 254.40414366192428 121.4386247577225, 269.85071050635884 130.8131881992481 C 285.2972773507934 140.18775164077368, 287.11263808784173 133.10099749279624, 302.7228191606564 140.36482573395568 C 318.33300023347107 147.62865397511513, 358.14601586278525 158.54995541652843, 363.51179694324674 174.39615764620467 Z" fill="#c77dff" opacity="0.11236724643829106" filter="url(#glow)" class="float" />
<path d="M 603.2312800005102 107.36949942675413 C 611.9451909794243 124.24820060804565, 619.7538003333672 167.10605581982207, 607.7027371038153 184.1473359073709 C 595.6516738742633 201.1886159949197, 556.1640541212914 209.97063861415972, 530.9249006231985 209.61717995204705 C 505.68574712510554 209.26372128993438, 462.4895981415641 199.0678640222437, 456.2678161152577 182.02658393469488 C 450.0460340889513 164.98530384714607, 487.7421834855894 126.40316928296365, 493.59420846536017 107.36949942675413 C 499.44623344513093 88.33582957054462, 485.15818396757584 82.28848653228896, 491.3799659938822 67.82456479743783 C 497.60174802018855 53.360643062586696, 520.2516830837903 18.077541680616683, 530.9249006231985 20.585969017647344 C 541.5981181626066 23.094396354678004, 543.3682080007788 68.41120708477067, 555.4192712303308 82.87512881962179 C 567.4703344598827 97.33905055447292, 594.5173690215961 90.49079824546261, 603.2312800005102 107.36949942675413 Z" fill="#c77dff" opacity="0.20965003065986493" filter="url(#glow)" class="float" />
<path d="M 329.614421741927 25.25600500383036 C 324.7961519535714 42.67511317299032, 268.26567308858284 48.29671218667184, 253.54455690038338 68.2237875999744 C 238.82344071218395 88.15086301327696, 256.0925367163543 126.51265377534556, 241.28772461273036 144.8184574836457 C 226.48291250910643 163.12426119194583, 188.5515359434772 180.98005644759525, 164.71568427863974 178.0586098497752 C 140.87983261380228 175.13716325195514, 114.44825714151742 146.9321339661065, 98.27261462370556 127.28977789672533 C 82.09697210589371 107.64742182734415, 75.41537629991211 83.81347090859248, 67.66182917176859 60.204473433488076 C 59.908282043625064 36.59547595838367, 46.98079317799475 8.848459747919723, 51.75133185484444 -14.364206953901046 C 56.52187053169413 -37.57687365572181, 75.57354568003267 -73.31216128899837, 96.28506123286672 -79.07152677743656 C 116.99657678570078 -84.83089226587475, 154.2085833152748 -51.538565516292934, 176.0204251718488 -48.92039988453018 C 197.83226702842282 -46.30223425276742, 209.41715396253275 -65.46745606511747, 227.15611237231082 -63.362532986859996 C 244.89507078208888 -61.257609908602525, 265.3777907355812 -51.06061774676707, 282.4541756305172 -36.29086141498534 C 299.53056052545327 -21.521105083203615, 334.4326915302826 7.8368968346704015, 329.614421741927 25.25600500383036 Z" fill="#9d4edd" opacity="0.10476539088726797" filter="url(#glow)" class="float" />
<path d="M 415.9838919066395 109.84763189267574 L 415.9838919066395 109.84763189267574 L 416.3639169047601 109.88087977186775 L 416.7352541959681 109.98011733657125 L 417.0893262992034 110.14383214544883 L 417.41777501054344 110.369522661914 L 417.7125681168474 110.65372684796604 L 417.9661026315671 110.99206178830325 L 418.1713034465865 111.37927394211353 L 418.3217163388653 111.80929951151366 L 418.41159432601194 112.2753343120482 L 418.4359764301869 112.76991243295801 L 418.3907579843274 113.28499288402101 L 418.2727516978945 113.81205334253092 L 418.0797387903943 114.34219003921632 L 417.8105095989734 114.86622275633952 L 417.4648931705049 115.37480385549529 L 417.0437754578036 115.85853020730464 L 416.5491058529037 116.308056860726 L 415.9838919066395 116.71421126644077 L 415.35218220199124 117.0681068569672 L 414.65903746768436 117.36125478596188 L 413.91049013722784 117.58567264062312 L 413.11349267582904 117.7339889641474 L 412.27585511230404 117.79954245963215 L 411.40617232412944 117.77647479238608 L 410.51374173007594 117.65981596391498 L 409.6084721454163 117.44556129740965 L 408.7007846485221 117.13073915079313 L 407.80150639384914 116.71346855860845 L 406.921758384002 116.19300609748944 L 406.07283828200156 115.56978137081326 L 405.26609940335044 114.84542061547566 L 404.512827075408 114.02275804658187 L 403.8241135884365 113.10583467317971 L 403.21073298805305 112.09988443889948 L 402.6830169724184 111.01130766439621 L 402.2507331591094 109.84763189267574 L 401.9229669761771 108.61746036257124 L 401.70800840939586 107.33040845866095 L 401.61324480330865 105.99702860662559 L 401.6450608676001 104.62872420029308 L 401.80874698293457 103.23765325929519 L 402.10841683214636 101.83662262328319 L 402.546935304108 100.43897358898646 L 403.1258575293975 99.05845998906717 L 403.84537980977717 97.70911979581341 L 404.7043030983214 96.40514140737727 L 405.7000095747 95.16072583874596 L 406.82845274161946 93.98994609325504 L 408.08416134479444 92.90660503263817 L 409.46025729116116 91.9240930938765 L 410.94848760949696 91.05524721908925 L 412.5392703653561 90.31221237013179 L 414.22175430946277 89.70630699228374 L 415.9838919066395 89.24789377138063 L 417.8125252622002 88.94625699604254 L 419.6934843357139 88.80948779147457 L 421.61169670932816 88.84437843396144 L 423.55130806059435 89.0563268860686 L 425.49581237906517 89.44925261222234 L 427.42819086291456 90.02552464339986 L 429.3310583374545 90.78590275885199 L 431.18681595263337 91.72949254292563 L 432.97780884224676 92.85371495706846 L 434.68648736444607 94.15429094197236 L 436.2955704918615 95.62524143361053 L 437.78820988084294 97.25890304077316 L 439.1481531234255 99.04595949178555 L 440.35990467300644 100.97548881562521 L 441.4088829356094 103.0350260788947 L 442.28157203314095 105.2106413563327 L 442.9656667732024 107.48703247004278 L 443.4502094016996 109.84763189267574 L 443.7257167694436 112.27472707369273 L 443.7842966117982 114.74959331680975 L 443.61975172073727 117.25263821200294 L 443.22767088081434 119.7635565082028 L 442.6055055438414 122.26149420414653 L 441.75263133069814 124.72522053583329 L 440.6703935717555 127.13330645061652 L 439.3621362288977 129.46430808105492 L 437.8332136809917 131.6969536670279 L 436.09098499972816 133.8103323229904 L 434.14479049283045 135.78408300919 L 432.00591044542455 137.59858204166196 L 429.6875061465748 139.2351274662103 L 427.20454344526223 140.67611862661042 L 424.57369923705903 141.90522927702915 L 421.81325143804213 142.9075726231347 L 418.94295315472874 143.66985672540946 L 415.9838919066395 144.1805287615009 L 412.9583349001663 144.42990672165067 L 409.88956148744586 144.41029720179193 L 406.8016840706738 144.116098062157 L 403.71945882954026 143.54388483441832 L 400.6680877561236 142.69247988662613 L 397.67301357659943 141.56300349151715 L 394.759709221573 140.158906089084 L 391.953463575875 138.48598118744206 L 389.27916529354235 136.55235850577284 L 386.7610865038167 134.36847712814978 L 384.42266825883297 131.94703860599247 L 382.2863095828705 129.30294011834332 L 380.3731619763564 126.45318797165613 L 378.7029312051371 123.41679189287066 L 377.2936881669026 120.21464073973384 L 376.161690572223 116.869360419138 L 375.3212171077349 113.40515496622118 L 374.7844156640493 109.84763189267575 L 374.56116711149366 106.22361306074629 L 374.65896599356574 102.56093247842246 L 375.0828193817748 98.88822254007141 L 375.8351649973292 95.23469035400431 L 376.9158095559406 91.62988590311474 L 378.32188813301536 88.10346387575309 L 380.0478451789389 84.68494108048351 L 382.08543763936507 81.40345141952594 L 384.42376045479745 78.28750044083365 L 387.0492945287802 75.36472151734486 L 389.945977066197 72.66163571357698 L 393.0952939940894 70.20341739412399 L 396.47639398861395 68.01366760564417 L 400.0662234448724 66.11419722360559 L 403.83968154294286 64.5248217975554 L 407.76979438511756 63.263169954301716 L 411.8279070076378 62.34450712760028 L 415.9838919066395 61.78157627632049 L 420.2063725640252 61.584457131359066 L 424.4629603159524 61.76044537564449 L 428.72050277588227 62.31395301242756 L 432.9453419068831 63.2464310157977 L 437.1035797352456 64.55631518522834 L 441.1613496104446 66.2389959442688 L 445.08509084595755 68.28681263368298 L 448.8418245221746 70.6890726528932 L 452.3994281972265 73.43209560208875 L 455.7269072544785 76.49928237243111" fill="none" stroke="#c77dff" stroke-width="1" opacity="0.3" class="drift" />
<path d="M 672.5217697921034 80.05856803036653 L 672.5217697921034 80.05856803036653 L 672.9273324943571 80.09405016916266 L 673.3236236752389 80.19995650454916 L 673.7014894464141 80.37467295903421 L 674.0520099321232 80.61552989261304 L 674.3666131539892 80.91883261811024 L 674.6371852042827 81.27990368803606 L 674.8561755271705 81.69313652330048 L 675.0166961754122 82.15205983841543 L 675.1126139690326 82.64941220729571 L 675.1386345521646 83.17722600950256 L 675.0903774238568 83.72691989975768 L 674.9644411074426 84.2893988547249 L 674.7584577202371 84.85516077126938 L 674.4711363099663 85.41440852043543 L 674.1022944354419 85.95716630192027 L 673.6528775855645 86.47339909545038 L 673.1249661516376 86.95313396867765 L 672.5217697921034 87.38658197638374 L 671.847609154977 87.76425937318483 L 671.1078850502771 88.07710686172133 L 670.3090352914296 88.31660561054176 L 669.4584795497476 88.47488880047482 L 668.5645526884823 88.5448474950408 L 667.6364271614253 88.52022967908326 L 666.6840251744821 88.39573136989185 L 665.7179214159445 88.1670787761202 L 664.7492372613159 87.83110056115406 L 663.7895274505225 87.38578935853768 L 662.8506603182541 86.8303517868072 L 661.9446927312075 86.1652463187142 L 661.083740948412 85.3922084743776 L 660.279848671946 84.51426292833862 L 659.5448535946853 83.5357222457111 L 658.8902537788002 82.46217209147137 L 658.3270752132277 81.30044288823106 L 657.865741900069 80.05856803036653 L 657.5159498087204 78.74572889490975 L 657.2865460125294 77.37218702089642 L 657.1854142860637 75.94920395768659 L 657.2193683919065 74.48894940790142 L 657.3940542246406 73.00439841086802 L 657.7138619068492 71.5092184266798 L 658.1818488481199 70.01764728805796 L 658.7996746839049 68.54436308609759 L 659.5675489074575 67.10434714572065 L 660.4841918958223 65.71274132634079 L 661.5468099109754 64.38470095205892 L 662.7510845307471 63.135244732933074 L 664.091176832215 61.979103083886564 L 665.559746514022 60.930566280120445 L 667.1479860047527 60.00333390708383 L 668.8456694633549 59.210367068844036 L 670.6412164359086 58.563744810925996 L 672.5217697921034 58.07452619231492 L 674.4732874258906 57.75261940641881 L 676.4806470692173 57.60665930257307 L 678.5277634367895 57.64389459846234 L 680.5977167946778 57.87008600008106 L 682.6728919274793 58.28941636011514 L 684.7351263687988 58.90441390857471 L 686.7658666590993 59.71588948192474 L 688.7463313044824 60.722888559723145 L 690.6576790306077 61.92265879186228 L 692.481180858574 63.31063356597534 L 694.1983944748692 64.88043202455123 L 695.7913393260744 66.62387579600164 L 697.2426708413719 68.53102255460065 L 698.5358521724381 70.59021637217583 L 699.6553218412506 72.7881546710097 L 700.5866557018453 75.10997143397418 L 701.3167216521086 77.53933617584134 L 701.8338255761722 80.05856803036652 L 702.1278470566159 82.64876416248399 L 702.1903634681162 85.2899415751241 L 702.0147611498721 87.96119124705871 L 701.5963324524774 90.64084341305026 L 700.9323575651434 93.30664268161983 L 700.0221701504328 95.93593158007045 L 698.8672059450034 98.50584102204974 L 697.4710336251917 100.99348611085551 L 695.8393673844661 103.3761656227291 L 693.9800608246046 105.63156345928196 L 691.903081922606 107.73795031759059 L 689.6204689994769 109.67438380087508 L 687.1462677837467 111.42090518242361 L 684.4964498304034 112.95873104078979 L 681.6888127234664 114.2704380053782 L 678.7428626561396 115.34013888832767 L 675.679680144959 116.15364853093647 L 672.5217697921034 116.69863776045254 L 669.2928951616557 116.96477393544367 L 666.0178999797022 116.94384665459864 L 662.7225170034052 116.62987731399969 L 659.4331660293104 116.01921132082919 L 656.1767426249728 115.11059190619505 L 652.9803992693909 113.90521462523347 L 649.8713206757329 112.4067617877248 L 646.8764951435045 110.62141622589965 L 644.0224838458824 108.55785397658747 L 641.3351900007432 106.22721563097781 L 638.8396299004212 103.64305628555651 L 636.5597077850573 100.8212742107486 L 634.5179965372578 97.78001853788717 L 632.7355261515916 94.53957644877583 L 631.2315818912273 91.1222405337356 L 630.0235139859229 87.55215716204633 L 629.1265606509688 83.85515688155238 L 628.5536861160002 80.05856803036654 L 628.3154352464616 76.19101490158846 L 628.419806219652 72.28220195032148 L 628.8721425826059 68.36268566966203 L 629.6750458715522 64.46363588746424 L 630.8283098134864 60.61658834735849 L 632.3288769606991 56.85319053464536 L 634.1708184302869 53.20494278930873 L 636.3453372341255 49.70293681365753 L 638.8407954920242 46.37759373028721 L 641.6427656233822 43.25840387656138 L 644.7341054122262 40.37367053422604 L 648.0950566387128 37.75025978678289 L 651.7033667687055 35.413358672732315 L 655.5344329935848 33.386243759766074 L 659.5614677167282 31.690062203625914 L 663.7556843927799 30.34362727596674 L 668.0865024425873 29.363230248667172 L 672.5217697921034 28.76247040824611 L 677.0280014192118 28.552104844159977 L 681.5706321397922 28.739919509695767 L 686.114281724814 29.330622895004403 L 690.623030315115 30.32576347972669 L 695.0607019909888 31.723671948960877 L 699.3911542608331 33.519428962424506 L 703.5785711578486 35.70485906409183 L 707.5877575769224 38.268551109943694 L 711.3844324460412 41.19590537642889 L 714.9355183083535 44.46920729353526 L 718.2094248927021 48.0677275258019 L 721.1763242722246 51.96784790396726 L 723.8084152525262 56.1432124910911 L 726.0801746927924 60.564902851738516 L 727.9685935447086 65.20163638298519 L 729.4533954947226 70.01998636339924 L 730.5172362143675 74.98462218252013 L 731.1458813602411 80.0585680303665 L 731.3283616188747 85.20347815580524 L 731.0571032609935 90.37992664569914 L 730.3280328533301 95.54770953508319 L 729.1406549728318 100.66615693348741 L 727.4981019762976 105.69445274512944 L 725.407155096583 110.59195947210482 L 722.8782363628364 115.31854552079895" fill="none" stroke="#e0aaff" stroke-width="1" opacity="0.3" class="drift" />
<circle cx="782.7689479882328" cy="84.28855835970582" r="0.5272316782929338" fill="white" opacity="0.7093532431197505"  style="animation-delay: 2.671346244947385s" />
<circle cx="478.51731793988426" cy="113.81727459750088" r="0.8404660578217698" fill="white" opacity="0.37976626933727115" class="shimmer" style="animation-delay: 0.5540405409416471s" />
<circle cx="13.180655516296191" cy="28.678017563316473" r="1.378721125510451" fill="white" opacity="0.5644628474335485"  style="animation-delay: 0.9597503869706314s" />
<circle cx="599.3069684182867" cy="120.41113570032356" r="1.967571176283833" fill="white" opacity="0.7169581851434634"  style="animation-delay: 0.0003572985410837948s" />
<circle cx="471.40925066573675" cy="155.45604975447353" r="1.8992434881650637" fill="white" opacity="0.4608341118247136"  style="animation-delay: 0.15015321583539798s" />
<circle cx="482.82507040113796" cy="50.82804823688609" r="0.6708203749699188" fill="white" opacity="0.4472671609150564"  style="animation-delay: 0.5553596995010868s" />
<circle cx="291.554168713046" cy="88.17739952317409" r="1.682576458151261" fill="white" opacity="0.676368111731734"  style="animation-delay: 0.14416267534427263s" />
<circle cx="130.16166033407703" cy="6.424716766220673" r="1.1413525284149744" fill="white" opacity="0.3684409488971265" class="shimmer" style="animation-delay: 3.3976366131611546s" />
<circle cx="649.9638799614122" cy="173.38392137564026" r="0.678452917657845" fill="white" opacity="0.4051050414019793" class="shimmer" style="animation-delay: 4.851650068053224s" />
<circle cx="206.4499436526159" cy="130.34749046920183" r="1.8578210136463436" fill="white" opacity="0.4714934616806841"  style="animation-delay: 4.899596432249178s" />
<circle cx="392.7210631749583" cy="155.44427051497826" r="1.8361163805414193" fill="white" opacity="0.7766728628762654"  style="animation-delay: 0.9599329573431215s" />
<circle cx="420.2331793750869" cy="123.74866392716206" r="1.4096453509795803" fill="white" opacity="0.7125117927888538"  style="animation-delay: 2.9203846993109406s" />
<circle cx="157.05112999301906" cy="6.280176323344655" r="1.7664528878570989" fill="white" opacity="0.7279241995905243" class="shimmer" style="animation-delay: 3.571416634585315s" />
<circle cx="781.8581193485626" cy="109.1288036921032" r="1.6884490367663774" fill="white" opacity="0.7622279161940753"  style="animation-delay: 3.986070495084457s" />
<circle cx="89.7994265008725" cy="15.936559885484058" r="1.6508898972717532" fill="white" opacity="0.704571606071257"  style="animation-delay: 1.3554428377615835s" />
<circle cx="455.1564320516377" cy="127.60873954643431" r="0.8818584893752054" fill="white" opacity="0.678855471892337"  style="animation-delay: 2.0063222621918033s" />
<circle cx="550.1339045509203" cy="136.47502586389604" r="1.8394216854146812" fill="white" opacity="0.30976447930308465"  style="animation-delay: 1.777727885288779s" />
<circle cx="466.67764584529436" cy="178.4642020460328" r="1.5191750280463356" fill="white" opacity="0.5139826795022988"  style="animation-delay: 3.5492835801263443s" />
<circle cx="641.2401277630133" cy="93.39790484221338" r="1.0156425033301846" fill="white" opacity="0.545969867379092" class="shimmer" style="animation-delay: 2.544192826482947s" />
<circle cx="596.8884709023357" cy="117.7889983661371" r="1.2852602636574662" fill="white" opacity="0.7162582242109727"  style="animation-delay: 2.8361936894928474s" />
<circle cx="94.09337234845142" cy="1.6642701854626019" r="1.6009204964171309" fill="white" opacity="0.3485628949687108"  style="animation-delay: 0.47353241226581133s" />
<circle cx="457.1750233536708" cy="115.457274926358" r="1.5081189295006396" fill="white" opacity="0.3024254923079775"  style="animation-delay: 2.00899409351051s" />
<circle cx="323.8888741549685" cy="61.94310916515584" r="1.6626562353930914" fill="white" opacity="0.6393199799681688" class="shimmer" style="animation-delay: 0.8633950039622218s" />
<circle cx="340.57950282574865" cy="177.23967154349793" r="1.548831922792862" fill="white" opacity="0.36232367731969467"  style="animation-delay: 2.9798137403462133s" />
<circle cx="47.345689077592645" cy="128.33791262892674" r="1.596880626152847" fill="white" opacity="0.7364952581281692"  style="animation-delay: 2.7376920301796304s" />
<circle cx="628.2921412416546" cy="37.484465060699314" r="1.6911524257659436" fill="white" opacity="0.6672965328937861"  style="animation-delay: 3.636348968892399s" />
<circle cx="98.10105311391854" cy="21.39343602186088" r="1.6656778028468238" fill="white" opacity="0.6109518173730171"  style="animation-delay: 4.049315917341927s" />
<circle cx="220.65773866235202" cy="52.43060093608953" r="1.2869959798273216" fill="white" opacity="0.6828473984438284"  style="animation-delay: 0.07541595522504663s" />
<circle cx="342.3984208286793" cy="137.91489291870408" r="1.6334917147628734" fill="white" opacity="0.7449284115424317"  style="animation-delay: 4.048151445042062s" />
<circle cx="297.9131176534482" cy="197.73660721729144" r="1.3965343055091493" fill="white" opacity="0.7427817912412642" class="shimmer" style="animation-delay: 0.8426531835311901s" />
<circle cx="214.4202757826106" cy="122.2350824436373" r="0.8463940424597504" fill="white" opacity="0.595054506200237"  style="animation-delay: 2.6616139743385645s" />
<circle cx="210.36075205759008" cy="197.35291521444904" r="0.9321925570659766" fill="white" opacity="0.3081125051193144"  style="animation-delay: 2.355417873396699s" />
<circle cx="70.19771739302847" cy="87.9959373082833" r="1.5060050134048097" fill="white" opacity="0.7378519646452788" class="shimmer" style="animation-delay: 2.3220676974495125s" />
<circle cx="132.17780459911933" cy="147.6936073638578" r="1.9554485858987922" fill="white" opacity="0.3079162353152299"  style="animation-delay: 3.9833338939836693s" />
<circle cx="621.1259876334323" cy="198.5954987828307" r="1.9313144921645478" fill="white" opacity="0.6840856083323235"  style="animation-delay: 4.468742101866549s" />
<circle cx="387.0314939702586" cy="173.34700254404524" r="0.6726914760144965" fill="white" opacity="0.4783496574817497" class="shimmer" style="animation-delay: 4.399908348244289s" />
<circle cx="379.6771777468466" cy="168.9881146387386" r="1.1387957568770466" fill="white" opacity="0.3105864704030506" class="shimmer" style="animation-delay: 2.400221581994515s" />
<circle cx="789.8809922110271" cy="22.642459986710417" r="0.7166298214016282" fill="white" opacity="0.5392164061568172"  style="animation-delay: 1.9138581028708057s" />
<circle cx="691.8913628446765" cy="24.344578730066637" r="1.8278236618445725" fill="white" opacity="0.5070337892935637"  style="animation-delay: 0.4003908769212372s" />
<circle cx="321.3930220705981" cy="9.75261909298002" r="1.225748730007123" fill="white" opacity="0.7012657000321783" class="shimmer" style="animation-delay: 0.5680872230658229s" />
<circle cx="569.4738769432557" cy="134.5231778096136" r="1.152607449808499" fill="#e0aaff" opacity="0.8" filter="url(#glow)" class="shimmer" style="animation-delay: 1.869455465753668s" />
<circle cx="753.4572338126455" cy="7.849106619730817" r="2.6164431545855185" fill="#e0aaff" opacity="0.8" filter="url(#glow)" class="shimmer" style="animation-delay: 0.683365372044094s" />
<circle cx="378.63222531416574" cy="46.16960216123718" r="1.76938393739094" fill="#e0aaff" opacity="0.8" filter="url(#glow)" class="shimmer" style="animation-delay: 0.04873885932439759s" />
<circle cx="203.36004237337465" cy="83.46806018854033" r="1.4484682256695107" fill="#9d4edd" opacity="0.8" filter="url(#glow)" class="shimmer" style="animation-delay: 2.890733727858124s" />
<circle cx="549.4242479847445" cy="188.80955360980195" r="2.55999865553143" fill="#7b2cbf" opacity="0.8" filter="url(#glow)" class="shimmer" style="animation-delay: 1.8565614465721945s" />
<circle cx="111.20261752031641" cy="153.19203081787091" r="1.3742122132320769" fill="#4a0080" opacity="0.8" filter="url(#glow)" class="shimmer" style="animation-delay: 0.09588504031965694s" />
<circle cx="586.8809302559495" cy="24.862162414276632" r="2.4876148947146857" fill="#e0aaff" opacity="0.8" filter="url(#glow)" class="shimmer" style="animation-delay: 1.4524669881810008s" />
<circle cx="506.55184265927795" cy="191.32969799088175" r="2.610420130994558" fill="#e0aaff" opacity="0.8" filter="url(#glow)" class="shimmer" style="animation-delay: 2.2352280608095425s" />
<line x1="58.139906069050525" y1="122.51633783739591" x2="410.11748438556316" y2="148.71040978337427" stroke="#e0aaff" stroke-width="0.5" opacity="0.3" />
<line x1="410.11748438556316" y1="148.71040978337427" x2="261.59054815154747" y2="68.73584690105557" stroke="#e0aaff" stroke-width="0.5" opacity="0.3" />
<line x1="261.59054815154747" y1="68.73584690105557" x2="458.3153885003315" y2="69.43809570023518" stroke="#e0aaff" stroke-width="0.5" opacity="0.3" />
<line x1="458.3153885003315" y1="69.43809570023518" x2="357.8313678954381" y2="124.37027704621154" stroke="#e0aaff" stroke-width="0.5" opacity="0.3" />
<line x1="357.8313678954381" y1="124.37027704621154" x2="697.0896760202774" y2="91.0296876521139" stroke="#e0aaff" stroke-width="0.5" opacity="0.3" />

  
    <text x="400" y="120" text-anchor="middle" class="name-text" fill="url(#textGrad)" filter="url(#textGlow)">
      JOEL HOOKS
    </text>
  
</svg>
