<svg xmlns="http://www.w3.org/2000/svg" viewBox="0 0 800 200" width="800" height="200">
  <rect width="800" height="200" fill="#05010d"/>
  
    <defs>
      <linearGradient id="grad1" x1="0%" y1="0%" x2="100%" y2="100%">
        <stop offset="0%" style="stop-color:#4a0080;stop-opacity:0.8" />
        <stop offset="100%" style="stop-color:#7b2cbf;stop-opacity:0.8" />
      </linearGradient>
      <linearGradient id="grad2" x1="100%" y1="0%" x2="0%" y2="100%">
        <stop offset="0%" style="stop-color:#9d4edd;stop-opacity:0.7" />
        <stop offset="100%" style="stop-color:#c77dff;stop-opacity:0.7" />
      </linearGradient>
      <linearGradient id="textGrad" x1="0%" y1="0%" x2="100%" y2="0%">
        <stop offset="0%" style="stop-color:#4a0080" />
        <stop offset="25%" style="stop-color:#7b2cbf" />
        <stop offset="50%" style="stop-color:#9d4edd" />
        <stop offset="75%" style="stop-color:#c77dff" />
        <stop offset="100%" style="stop-color:#e0aaff" />
      </linearGradient>
      <filter id="glow">
        <feGaussianBlur stdDeviation="5" result="coloredBlur"/>
        <feMerge>
          <feMergeNode in="coloredBlur"/>
          <feMergeNode in="SourceGraphic"/>
        </feMerge>
      </filter>
      <filter id="textGlow">
        <feGaussianBlur stdDeviation="2" result="coloredBlur"/>
        <feMerge>
          <feMergeNode in="coloredBlur"/>
          <feMergeNode in="SourceGraphic"/>
        </feMerge>
      </filter>
    </defs>
  
  
    <style>
      @keyframes float {
        0%, 100% { transform: translateY(0px); }
        50% { transform: translateY(-8px); }
      }
      @keyframes pulse {
        0%, 100% { opacity: 0.4; }
        50% { opacity: 0.9; }
      }
      @keyframes drift {
        0% { transform: translateX(0px); }
        50% { transform: translateX(10px); }
        100% { transform: translateX(0px); }
      }
      @keyframes shimmer {
        0% { opacity: 0.3; }
        50% { opacity: 1; }
        100% { opacity: 0.3; }
      }
      @keyframes glitch {
        0%, 100% { transform: translateX(0); }
        20% { transform: translateX(-2px); }
        40% { transform: translateX(2px); }
        60% { transform: translateX(-1px); }
        80% { transform: translateX(1px); }
      }
      @keyframes dataStream {
        0% { stroke-dashoffset: 0; }
        100% { stroke-dashoffset: -20; }
      }
      .float { animation: float 8s ease-in-out infinite; }
      .pulse { animation: pulse 8s ease-in-out infinite; }
      .drift { animation: drift 8s ease-in-out infinite; }
      .shimmer { animation: shimmer 3s ease-in-out infinite; }
      .glitch { animation: glitch 0.5s ease-in-out infinite; }
      .dataStream { animation: dataStream 2s linear infinite; }
      .name-text { 
        font-family: -apple-system, BlinkMacSystemFont, 'Segoe UI', Helvetica, Arial, sans-serif;
        font-weight: 700;
        font-size: 64px;
        letter-spacing: -2px;
      }
    </style>
  
  <path d="M 486.04700889349806 129.56581476707765 C 482.9180806600342 157.66466091699425, 460.1048313713071 190.88536727511405, 439.93444511699727 204.47556851643583 C 419.7640588626874 218.0657697577576, 389.16798524703484 211.93364625206533, 365.0246913676391 211.10702221500833 C 340.88139748824335 210.28039817795133, 315.3614997348749 213.10602553541557, 295.07468184062293 199.5158242940938 C 274.787863946371 185.925623052772, 248.02651801656305 157.60521862385212, 243.30378400212732 129.56581476707768 C 238.58104998769159 101.52641091030326, 246.45145985975665 50.267517034420806, 266.7382777540086 31.279401153447196 C 287.02509564826056 12.291285272473583, 333.0297352403438 14.869937737321164, 365.0246913676391 15.637119481236013 C 397.01964749493436 16.404301225150864, 438.53762826347054 16.894375735962686, 458.7080145177804 35.88249161693629 C 478.87840077209023 54.8706074979099, 489.1759371269619 101.46696861716107, 486.04700889349806 129.56581476707765 Z" fill="#c77dff" opacity="0.23079341337357212" filter="url(#glow)" class="float" />
<path d="M 689.761781829564 196.67135715988877 C 685.645824326907 211.54822075089487, 660.0925105393833 223.5019036215225, 648.1449058433286 233.36645212098443 C 636.197301147274 243.23100062044637, 629.3996919288601 249.4059017685697, 618.076153653236 255.8586481566603 C 606.752615377612 262.31139454475095, 592.1814047891171 273.32347697571845, 580.2036761895844 272.0829304495282 C 568.2259475900516 270.84238392333793, 562.4930372059849 255.67215958542872, 546.2097820560397 248.41536899951862 C 529.9265269060944 241.15857841360852, 490.82818749289106 241.80454273816002, 482.5041452899129 228.54218693406767 C 474.18010308693476 215.27983112997532, 490.279917879826 188.12264849883277, 496.2655288381709 168.8412341749646 C 502.2511397965158 149.55981985109642, 504.93424646818465 124.30413090483744, 518.4178110399824 112.85370099085863 C 531.9013756117802 101.40327107687982, 559.3467605603516 98.68407006634541, 577.1669162689576 100.13865469109174 C 594.9870719775636 101.59323931583808, 609.3931228598997 114.25343942536065, 625.3387452916186 121.58120873933666 C 641.2843677233375 128.90897805331267, 662.1034781029464 131.5902458381891, 672.8406508592707 144.10527057494778 C 683.577823615595 156.62029531170646, 693.877739332221 181.79449356888267, 689.761781829564 196.67135715988877 Z" fill="#7b2cbf" opacity="0.21639886102377368" filter="url(#glow)" class="float" />
<path d="M 839.1526853691839 199.6212434973331 C 843.0590298143583 212.90970535998673, 827.2008369828297 234.7178797820954, 814.4935835208621 251.20566242081688 C 801.7863300588945 267.69344505953836, 777.9278504731224 300.7240597617458, 762.9091645973783 298.547939329662 C 747.8904787216343 296.3718188975781, 736.9443666701645 254.63672246703524, 724.3814682663976 238.14893982831376 C 711.8185698626307 221.66115718959227, 687.5423744433256 212.4744092095422, 687.5317741747767 199.6212434973331 C 687.5211739062279 186.768077785124, 711.7549682513375 172.93116270519255, 724.3178666551044 161.02994555505916 C 736.8807650588712 149.12872840492577, 751.7862228982597 126.47311631489335, 762.9091645973783 128.21394059653267 C 774.032106296497 129.954764878172, 778.3482633878486 159.57367409476166, 791.0555168498163 171.47489124489508 C 803.7627703117839 183.3761083950285, 835.2463409240096 186.33278163467946, 839.1526853691839 199.6212434973331 Z" fill="#7b2cbf" opacity="0.15952639369800936" filter="url(#glow)" class="float" />
<path d="M 286.869766059427 134.517062751687 C 285.8494221416467 150.4436198081705, 273.8496064636893 172.5881845586594, 261.98023971070563 179.72822330588716 C 250.1108729577219 186.8682620531149, 230.17651547907715 175.29198027377004, 215.65356554152467 177.35729523505353 C 201.1306156039722 179.42261019633702, 186.4491160810304 195.49393541884322, 174.8425400853908 192.12011307358813 C 163.23596408975118 188.74629072833304, 150.90469910382853 170.51233320347245, 146.01410956768697 157.11436116352294 C 141.1235200315454 143.71638912357344, 141.08205017233874 125.77067019825115, 145.49900286854142 111.732280833891 C 149.9159555647441 97.69389146953084, 160.6603365740235 77.15137096068743, 172.51582574490303 72.88402497736203 C 184.37131491578256 68.61667899403663, 200.7008583150713 84.24739560233455, 216.6319378938187 86.12820493393858 C 232.56301747256612 88.0090142655426, 256.3959985231194 76.10407133069481, 268.10230321738743 84.16888096698621 C 279.8086079116555 92.23369060327761, 287.89010997720726 118.59050569520352, 286.869766059427 134.517062751687 Z" fill="#4a0080" opacity="0.2466178531330066" filter="url(#glow)" class="float" />
<path d="M 206.5296146280485 88.6934483554387 L 206.5296146280485 88.6934483554387 L 206.90309596751663 88.72612373868064 L 207.2680391938852 88.82365252961364 L 207.6160145219257 88.98454832966036 L 207.93880766780956 89.20635267624684 L 208.22852472524752 89.48566314427947 L 208.47769362368103 89.8181722879698 L 208.67936108143357 90.19871702733852 L 208.82718401087084 90.62133797716913 L 208.91551438701512 91.07934811440533 L 208.93947665521154 91.56541008396661 L 208.89503682674822 92.07162135361526 L 208.7790624931107 92.58960634670377 L 208.5893730790345 93.11061460815618 L 208.32477975087696 93.62562399460235 L 207.98511449915677 94.12544782482466 L 207.571248021448 94.60084488213207 L 207.08509614316145 95.04263112639686 L 206.5296146280485 95.4417919506253 L 205.9087823464517 95.78959380533311 L 205.2275728862991 96.07769401380541 L 204.49191480849694 96.29824761257905 L 203.7086408636038 96.44401007412444 L 202.885426599381 96.50843480255425 L 202.03071889792412 96.48576433796885 L 201.15365508554916 96.37111426038541 L 200.26397335742462 96.16054884961127 L 199.37191535114863 95.85114763233858 L 198.48812178817036 95.44106203149519 L 197.62352217831034 94.92956142473795 L 196.78921964988584 94.3170680180942 L 195.9963720254145 93.60518004625143 L 195.25607030996017 92.79668292190374 L 194.5792157953994 91.89554807187687 L 193.9763970088251 90.90691931641267 L 193.45776774666408 89.83708676890654 L 193.0329274376753 88.6934483554387 L 192.71080506772782 87.48445917548699 L 192.49954787715177 86.21956904611486 L 192.406416007645 84.90914869055725 L 192.43768423043807 83.56440514735742 L 192.59855183101644 82.19728708694446 L 192.89306165862075 80.82038082772101 L 193.32402927154018 79.44679794233981 L 193.8929830225257 78.09005543592136 L 194.60011583321537 76.76394956060558 L 195.44424930309856 75.48242440421032 L 196.42281068814972 74.2594364541389 L 197.5318231677997 73.10881639037844 L 198.76590969740903 72.04412940288819 L 200.1183106179469 71.07853535842567 L 201.58091506628043 70.22465015952642 L 203.14430609950008 69.49440964368526 L 204.79781931622577 68.898937363628 L 206.5296146280485 68.44841756987891 L 208.32676070635512 68.15197468469174 L 210.1753315049468 68.01756051201191 L 212.0605141382599 68.05185037177205 L 213.96672727976636 68.26014927890358 L 215.8777491363695 68.64630920849012 L 217.7768539533595 69.21265839911337 L 219.64695591174694 69.95994354736875 L 221.4707591964593 70.88728563856566 L 223.23091294081487 71.99215004267234 L 224.91016969062713 73.27033138159528 L 226.49154598090993 74.71595354494038 L 227.95848358000637 76.3214850975966 L 229.29500993051553 78.07777018497248 L 230.48589630398624 79.97407490170052 L 231.51681218722393 81.99814894834073 L 232.374474432332 84.1363022593158 L 233.0467897302855 86.37349614526109 L 233.5229890087949 88.6934483554387 L 233.79375240922175 91.07875133210021 L 233.85132356400533 93.51100279991145 L 233.68961197497833 95.97094771097997 L 233.30428238350834 98.43863045079316 L 232.6928301249136 100.89355610358643 L 231.85464157127146 103.31485947834298 L 230.7910388876801 105.68148050973667 L 229.5053084562718 107.97234457274297 L 228.00271245874816 110.1665461861383 L 226.2904832507854 112.24353452936757 L 224.37780030914638 114.18329915986175 L 222.2757496834839 115.9665542942942 L 219.99726603834148 117.57492000782224 L 217.5570575254233 118.99109871030112 L 214.97151388047638 120.1990452778773 L 212.25859829174584 121.18412925225223 L 209.43772373658106 121.93328756810197 L 206.5296146280485 122.4351663313717 L 203.55615475303213 122.68025024703823 L 200.5402226160013 122.66097838392557 L 197.50551542717733 122.37184506563167 L 194.47636308905751 121.80948478982322 L 191.47753364007406 120.97274020222034 L 188.53403170755095 119.86271228555927 L 185.67089160315103 118.48279206663193 L 182.9129667618508 116.83867329501226 L 180.28471727941562 114.93834570407157 L 177.80999734276944 112.79206862706909 L 175.51184437206385 110.41232490713614 L 173.4122717022954 107.8137552084674 L 171.53206662574843 105.0130730055584 L 169.89059559426138 102.02896069645004 L 168.50561834234676 98.8819474531965 L 167.39311263870493 95.5942695867105 L 166.56711130495896 92.18971436232611 L 166.03955305692892 88.69344835543872 L 165.8201486260227 85.13183158206745 L 165.9162635070316 81.53221877581706 L 166.3328185545924 77.92274930923756 L 167.07220951473928 74.33212737281113 L 168.13424643135036 70.78939412763752 L 169.51611371103036 67.32369363734779 L 171.21235146529364 63.964034459941715 L 173.21485857712472 60.73904884034755 L 175.5129177614824 57.67675148887257 L 178.09324270752472 54.804299958809345 L 180.9400472057515 52.14775864789243" fill="none" stroke="#4a0080" stroke-width="1" opacity="0.3" class="drift" />
<path d="M 442.6900085941706 70.00312486004654 L 442.6900085941706 70.00312486004654 L 442.9297793102998 70.02410207955334 L 443.16406865620803 70.08671443946007 L 443.38746480691907 70.19000768900855 L 443.5946942868722 70.33240352355642 L 443.7806892991951 70.51171762540137 L 443.94065286069355 70.72518466398404 L 444.0701210446573 70.96949000145442 L 444.16502166191964 71.24080778117646 L 444.2217287455299 71.53484501140585 L 444.237112245583 71.84689119473288 L 444.20858238781153 72.17187299652568 L 444.1341282020456 72.50441339309248 L 444.01234978409315 72.83889469311029 L 443.84248391645514 73.16952478450209 L 443.6244227389807 73.4904059237888 L 443.3587252294788 73.79560535634587 L 443.0466213257862 74.07922703424352 L 442.6900085941706 74.33548368367154 L 442.29144142354136 74.55876846650199 L 441.85411280003535 74.74372548042071 L 441.3818287914365 74.88531834928571 L 440.8789759448663 74.97889616990525 L 440.3504818735384 75.02025610315934 L 439.8017693784206 75.00570192613843 L 439.23870451771387 74.93209789749913 L 438.6675391004984 74.79691733023101 L 438.09484814009267 74.59828531412445 L 437.5274628570489 74.33501508400123 L 436.9723998707256 74.00663758873634 L 436.4367872615557 73.61342387973404 L 435.9277882230186 73.15640000524647 L 435.4525230525579 72.63735416812555 L 435.0179902539376 72.05883597862874 L 434.6309875395345 71.42414771007647 L 434.2980335296474 70.73732754278456 L 434.0252909469206 70.00312486004654 L 433.8184920973889 69.22696773829493 L 433.68286741545967 68.41492285118956 L 433.6230778284407 67.57364808354032 L 433.64315166715477 66.71033822494776 L 433.7464268129695 65.83266418413696 L 433.9354987285098 64.94870623248404 L 434.21217496975214 64.06688184854099 L 434.5774367215507 63.19586879383203 L 435.03140783737405 62.344524103250016 L 435.5733317976736 61.5217997204894 L 436.20155693043193 60.736655549635664 L 436.9135301626706 59.997970727862764 L 437.7057994936933 59.31445395080623 L 438.57402530029714 58.69455370127673 L 439.5130005018163 58.14636924332285 L 440.5166795294189 57.677563247073714 L 441.57821596031016 57.29527690519713 L 442.6900085941706 57.00604838917154 L 443.8437556670446 56.815735472938655 L 445.0305168177493 56.72944312299888 L 446.2407823444489 56.751456817825954 L 447.4645492150638 56.885182315873564 L 448.69140322535753 57.13309254075719 L 449.91060663354557 57.49668219481683 L 451.111190540725 57.9764306486622 L 452.2820512329274 58.57177358499126 L 453.4120496536857 59.281083800531405 L 454.49011313616313 60.10166149100725 L 455.5053384915473 61.029734261259065 L 456.44709552592326 62.06046701673404 L 457.3051300414992 63.187981804291844 L 458.06966537009754 64.40538758037863 L 458.731501487385 65.70481979392015 L 459.2821107654802 67.07748958057314 L 459.71372943934625 68.5137422750637 L 460.0194438886706 70.00312486004654 L 460.1932708716047 71.53446188404298 L 460.230230889555 73.09593929834696 L 460.1264139128819 74.67519558409695 L 459.8790367555007 76.25941946673422 L 459.4864914515482 77.83545344651088 L 458.9483840589692 79.38990231123402 L 458.2655633925208 80.90924574164977 L 457.4401392716613 82.37995407134565 L 456.4754899564044 83.78860622228027 L 455.3762585357522 85.12200880447449 L 454.1483381280069 86.36731534438916 L 452.79884584929556 87.51214459136814 L 451.3360856052027 88.54469684546339 L 449.76949985963296 89.4538672531306 L 448.1096106340691 90.22935502975164 L 446.3679500883657 90.86176758969286 L 444.55698113027586 91.34271859554838 L 442.6900085941706 91.66491897817153 L 440.78108161905175 91.82226002780685 L 438.84488794114844 91.8098877137677 L 436.89664089634806 91.62426745524856 L 434.9519600016885 91.26323863853378 L 433.0267460524289 90.72605825551246 L 431.13705173117063 90.01343312441409 L 429.29894877751855 89.12754024536262 L 427.5283928103292 88.07203493997264 L 425.84108692921825 86.85204652499888 L 424.2523452473073 85.47416137417045 L 422.7769575228621 83.9463933289317 L 421.4290560632801 82.27814152698403 L 420.2219860706655 80.48013582635598 L 419.16818058392937 78.56437011130335 L 418.2790411479748 76.54402387371714 L 417.5648253061875 74.43337256896338 L 417.0345419683425 72.2476873472742 L 416.6958556524206 70.00312486004655 L 416.5550005360841 67.7166079338053 L 416.6167051821127 65.40569799230266 L 416.88412872247784 63.088460188451876 L 417.3588091985262 60.78332228177 L 418.0406246606164 58.508928363027465 L 418.9277675302341 56.28398858523403 L 420.01673262188865 54.127126108345664 L 421.3023191118091 52.056722503662854 L 422.77764662649963 50.090762892375565 L 424.4341855075044 48.246682110747784 L 426.26180119023655 46.54121320177221 L 428.2488125154206 44.99023952958711 L 430.3820636725838 43.608651798453124 L 432.6470093571193 42.41021123264821 L 435.0278126067279 41.407420137360006 L 437.507454670532 40.61140101372672 L 440.06785615582055 40.03178534389227 L 442.6900085941706 39.67661309467155 L 445.3541154715342 39.552243911633795 L 448.0397416766362 39.66328088965189 L 450.72597023953733 40.012507711863094 L 453.3915651582416 40.60083984724504 L 456.015139046467 41.42729038840407 L 458.57532428079554 42.48895099654115 L 461.05094628092036 43.78098830079874 L 463.42119752309657 45.29665597524963 L 465.66581086456017 47.02732258965697 L 467.7652307459048 48.962515200838055 L 469.7007808394108 51.089978521063685 L 471.45482672419894 53.39574936948405 L 473.0109321938523 55.86424598318234 L 474.35400783872603 58.47837163720078 L 475.47045059334783 61.219631898831736 L 476.34827299882716 64.06826472168623 L 476.97722100065107 67.00338247057412 L 477.3488791831706 70.00312486004653 L 477.45676243290956 73.04482168853258 L 477.296393122902 76.10516415723392 L 476.86536301884473 79.16038347918536 L 476.16337922412924 82.18643540991197 L 475.1922936039013 85.15918926762042 L 473.9561152572449 88.054619958484 L 472.4610057403843 90.84900148184508 L 470.71525688140287 93.51910036151487 L 468.7292511672788 96.0423674331547 L 466.5154048259214 98.3971264142161 L 464.08809386820224 100.56275769225265 L 461.46356349654565 102.51987578964378 L 458.6598214263122 104.2504989978165 L 455.6965158028107 105.73820972175912 L 452.5947985291576 106.96830413571448 L 449.3771749472526 107.92792982303985 L 446.06734093476547 108.60621015685325 L 442.6900085941707 108.99435427267153 L 439.27072181456214 109.08575158911171 L 435.83566308226153 108.8760499471147 L 432.41145300125964 108.3632165612114 L 429.0249440585107 107.54758110716232 L 425.7030102313194 106.43186040786557 L 422.4723340839206 105.02116432268974 L 419.3591930373232 103.32298259322613 L 416.38924652016004 101.34715254971427 L 413.5873257183438 99.10580773587333 L 410.97722763756565 96.61330766433969 L 408.58151517499863 93.88614906912703 L 406.4213248650044 90.94285917423403 L 404.5161839183124 87.80387164746557 L 402.8838381153009 84.49138605448115 L 401.5400920420119 81.02921176880557 L 400.49866307284054 77.44259742785037 L 399.77105040703765 73.75804715176383 L 399.3664203579206 70.00312486004657 L 399.2915089747792 66.20624812931577 L 399.55054294876567 62.39647313341578 L 400.145179616515 58.60327229336354 L 401.0744667298977 54.85630633859223 L 402.3348225082633 51.1851925419179 L 403.92003633195844 47.61927093798409 L 405.82129027402516 44.18737036815027 L 408.02720150206744 40.917576213493675 L 410.52388541562505 37.837001681501235 L 413.29503921733516 34.97156450100622 L 416.3220454500413 32.345770853908704 L 419.58409486817055 29.982508331311486 L 423.05832785147425 27.902849646100016 L 426.71999341394144 26.125868764019728 L 430.54262471163946 24.66847103139716 L 434.498229811645 23.54523878037974 L 438.5574963513309 22.768293782587406 L 442.69000859417065 22.347177800171558 L 446.8644752760238 22.288752350328934 L 451.048966535523 22.597118656304865 L 455.2111581346257 23.273558605900234 L 459.3185811014193 24.316497378616482 L 463.3388748675765 25.721488236050945 L 467.2400419280456 27.481219798265514 L 470.9907020211156 29.585545952935213 L 474.56034381326583 32.02153836550804 L 477.9195720754346 34.77356137878246 L 481.04034835564636 37.82336891066885" fill="none" stroke="#e0aaff" stroke-width="1" opacity="0.3" class="drift" />
<circle cx="56.27309195259507" cy="119.06469658945053" r="1.2286755374378024" fill="white" opacity="0.3943865097049631"  style="animation-delay: 4.252087757243347s" />
<circle cx="52.37521869928781" cy="2.1379183783383215" r="0.5209913378945658" fill="white" opacity="0.46218974573965926"  style="animation-delay: 4.95448327518398s" />
<circle cx="238.27666141755407" cy="167.15270023568235" r="1.2847371298020804" fill="white" opacity="0.7622056767875653"  style="animation-delay: 3.2364144026161368s" />
<circle cx="318.0318045770191" cy="55.20013634482801" r="1.7148423652748175" fill="white" opacity="0.5244573230947531"  style="animation-delay: 0.4958439810080695s" />
<circle cx="208.98439043524047" cy="123.56149607064188" r="1.1916542053862158" fill="white" opacity="0.5931386357957724" class="shimmer" style="animation-delay: 0.5659308263850515s" />
<circle cx="244.6192520334998" cy="187.3265442882044" r="1.497070261045061" fill="white" opacity="0.37226020146844124"  style="animation-delay: 1.4572369369612037s" />
<circle cx="501.0208897999716" cy="45.4601720906747" r="1.4325711764117455" fill="white" opacity="0.48680862500912997"  style="animation-delay: 1.206252588710397s" />
<circle cx="658.4665957174201" cy="107.88305749898109" r="1.7522764595480789" fill="white" opacity="0.5213185079502034" class="shimmer" style="animation-delay: 3.0483938009840594s" />
<circle cx="281.63754618222737" cy="105.68309438314247" r="1.1056316602197078" fill="white" opacity="0.44960754374135165"  style="animation-delay: 0.7534279356120965s" />
<circle cx="65.16146615647038" cy="182.98496831622626" r="1.706020629400339" fill="white" opacity="0.7516280495670293"  style="animation-delay: 2.568710554701851s" />
<circle cx="637.0774922455997" cy="74.23849323518708" r="1.439336098179624" fill="white" opacity="0.4575930023129559"  style="animation-delay: 2.0835358602759726s" />
<circle cx="376.3771304592865" cy="159.9085061299241" r="1.4457077535719374" fill="white" opacity="0.6590261684996075"  style="animation-delay: 1.8966384706448303s" />
<circle cx="114.13201775287175" cy="45.61227559905694" r="1.1790222095007725" fill="white" opacity="0.5261582059189305"  style="animation-delay: 2.9715859747656594s" />
<circle cx="50.72927319835081" cy="105.16376630503439" r="0.815241927805202" fill="white" opacity="0.6761974595413713" class="shimmer" style="animation-delay: 4.773444999542669s" />
<circle cx="362.99488575038623" cy="185.85079737718493" r="1.1243721157782223" fill="white" opacity="0.309376613009768"  style="animation-delay: 2.792951209209372s" />
<circle cx="51.755485959152736" cy="189.89590233007326" r="0.6702784289843309" fill="white" opacity="0.5473279437653038"  style="animation-delay: 0.25265232714289265s" />
<circle cx="277.028481255191" cy="65.8576250096941" r="1.7230236281047504" fill="white" opacity="0.42742554220858126"  style="animation-delay: 3.049713719903673s" />
<circle cx="759.5314197538778" cy="40.23869900582948" r="1.7617286610260248" fill="white" opacity="0.5247411160904805"  style="animation-delay: 2.65536632167973s" />
<circle cx="69.96277664737356" cy="153.96502805096114" r="0.5114576498878582" fill="white" opacity="0.7983798911508855" class="shimmer" style="animation-delay: 0.5217975709230438s" />
<circle cx="695.0612291576393" cy="89.47700768315676" r="1.9574548595021906" fill="white" opacity="0.7170019443141995"  style="animation-delay: 4.313409080124464s" />
<circle cx="767.8113925895511" cy="84.57718115716268" r="1.2101195900986257" fill="white" opacity="0.6804275985910557"  style="animation-delay: 3.5588778216963366s" />
<circle cx="365.9266478979122" cy="107.66444903612107" r="1.9437619522396203" fill="white" opacity="0.5229032762613417" class="shimmer" style="animation-delay: 4.218157101787574s" />
<circle cx="279.7270761267406" cy="184.395990007625" r="0.6418609044207307" fill="white" opacity="0.4551098001225204" class="shimmer" style="animation-delay: 1.028045234922077s" />
<circle cx="631.3790029888584" cy="127.58220116594407" r="0.8068842942179576" fill="white" opacity="0.5083674812652228"  style="animation-delay: 0.31908458473571044s" />
<circle cx="742.8898421128798" cy="4.912519049688235" r="1.7599405476136454" fill="white" opacity="0.37490252644937677"  style="animation-delay: 2.139520887141079s" />
<circle cx="748.8481180556493" cy="182.4279170174925" r="1.3821056899639454" fill="white" opacity="0.4096054486261483" class="shimmer" style="animation-delay: 0.4163407034741273s" />
<circle cx="240.27351203272573" cy="10.632522793467825" r="1.9364378519946865" fill="white" opacity="0.6583400783707276"  style="animation-delay: 1.8868258241768232s" />
<circle cx="553.6002541977498" cy="62.222233237659275" r="1.288989747044308" fill="white" opacity="0.6708317186058781" class="shimmer" style="animation-delay: 3.26327202383626s" />
<circle cx="559.0669304819263" cy="68.87982616612041" r="0.8272761458688329" fill="white" opacity="0.31510118689305894" class="shimmer" style="animation-delay: 3.5448696404956337s" />
<circle cx="293.90601395949466" cy="118.79981638765025" r="1.7830500804565848" fill="white" opacity="0.5398084721528307"  style="animation-delay: 4.9763731216119345s" />
<circle cx="613.8912441031092" cy="178.573772139761" r="0.707484784218914" fill="white" opacity="0.7918567360674689"  style="animation-delay: 1.1128262445839243s" />
<circle cx="88.5674648729447" cy="188.88318141992625" r="0.7094223747407035" fill="white" opacity="0.6375839285362515" class="shimmer" style="animation-delay: 3.3450269426389303s" />
<circle cx="240.9731188914769" cy="183.44555018135273" r="1.9880597625032186" fill="white" opacity="0.505245622932111"  style="animation-delay: 0.7085657109807297s" />
<circle cx="683.4766000116032" cy="3.368162619509585" r="0.6348222712873215" fill="white" opacity="0.5561973574356776" class="shimmer" style="animation-delay: 3.4501628581145702s" />
<circle cx="6.490344405919757" cy="178.08261674510405" r="1.1897022568127347" fill="white" opacity="0.6606898696545529"  style="animation-delay: 0.7701078265579842s" />
<circle cx="562.7822085617657" cy="87.87662712922364" r="1.9474643231789752" fill="white" opacity="0.5268580830946317"  style="animation-delay: 1.4033912108782398s" />
<circle cx="462.4478936306092" cy="57.840981907797854" r="0.9582290517469373" fill="white" opacity="0.6326289729514674" class="shimmer" style="animation-delay: 4.168651541369206s" />
<circle cx="753.0829965569043" cy="4.025057024106848" r="0.7933851683851524" fill="white" opacity="0.3600378727834144"  style="animation-delay: 1.7658675936035895s" />
<circle cx="11.16125854702048" cy="156.45739005125452" r="1.7126749789949307" fill="white" opacity="0.7372393982318244" class="shimmer" style="animation-delay: 1.9766834196340843s" />
<circle cx="255.28573220401486" cy="69.04321731045636" r="1.4578800797484628" fill="white" opacity="0.535882591341019" class="shimmer" style="animation-delay: 1.2357543123483783s" />
<circle cx="273.13738499008656" cy="186.0193615985882" r="1.0664076078607931" fill="#c77dff" opacity="0.8" filter="url(#glow)" class="shimmer" style="animation-delay: 1.70941937657508s" />
<circle cx="696.5490171822084" cy="17.705901858569018" r="2.9661100394061934" fill="#9d4edd" opacity="0.8" filter="url(#glow)" class="shimmer" style="animation-delay: 1.92102887226539s" />
<circle cx="786.821601441177" cy="44.69631622335157" r="2.1527303023711095" fill="#7b2cbf" opacity="0.8" filter="url(#glow)" class="shimmer" style="animation-delay: 1.1022872704594142s" />
<circle cx="491.79216183850514" cy="25.56285596520853" r="1.5866918479991337" fill="#4a0080" opacity="0.8" filter="url(#glow)" class="shimmer" style="animation-delay: 2.9224403818409037s" />
<circle cx="699.7277268003892" cy="19.61501236782528" r="1.57156743096033" fill="#9d4edd" opacity="0.8" filter="url(#glow)" class="shimmer" style="animation-delay: 0.33694808410071797s" />
<circle cx="106.39717978406651" cy="132.88415864656793" r="2.291704696885599" fill="#e0aaff" opacity="0.8" filter="url(#glow)" class="shimmer" style="animation-delay: 1.83050214036107s" />
<circle cx="653.6160957639952" cy="0.9851526793238197" r="1.3752014342902954" fill="#e0aaff" opacity="0.8" filter="url(#glow)" class="shimmer" style="animation-delay: 1.0463052924988205s" />
<circle cx="665.1767980233057" cy="165.43098374513866" r="1.6852777755558623" fill="#7b2cbf" opacity="0.8" filter="url(#glow)" class="shimmer" style="animation-delay: 1.4737381281229505s" />
<line x1="209.34469230673287" y1="45.790687794936304" x2="126.02337213686042" y2="132.90922670369457" stroke="#e0aaff" stroke-width="0.5" opacity="0.3" />
<line x1="126.02337213686042" y1="132.90922670369457" x2="63.096063871062526" y2="90.15679806773298" stroke="#e0aaff" stroke-width="0.5" opacity="0.3" />
<line x1="63.096063871062526" y1="90.15679806773298" x2="144.36558457028" y2="99.62839941220344" stroke="#e0aaff" stroke-width="0.5" opacity="0.3" />
<line x1="144.36558457028" y1="99.62839941220344" x2="406.5921797454422" y2="99.27374028729596" stroke="#e0aaff" stroke-width="0.5" opacity="0.3" />

  
    <text x="400" y="120" text-anchor="middle" class="name-text" fill="url(#textGrad)" filter="url(#textGlow)">
      JOEL HOOKS
    </text>
  
</svg>
