<svg xmlns="http://www.w3.org/2000/svg" viewBox="0 0 800 200" width="800" height="200">
  <rect width="800" height="200" fill="#1a0a0a"/>
  
    <defs>
      <linearGradient id="grad1" x1="0%" y1="0%" x2="100%" y2="100%">
        <stop offset="0%" style="stop-color:#ff4500;stop-opacity:0.8" />
        <stop offset="100%" style="stop-color:#ff6b35;stop-opacity:0.8" />
      </linearGradient>
      <linearGradient id="grad2" x1="100%" y1="0%" x2="0%" y2="100%">
        <stop offset="0%" style="stop-color:#f7c59f;stop-opacity:0.7" />
        <stop offset="100%" style="stop-color:#efa48b;stop-opacity:0.7" />
      </linearGradient>
      <linearGradient id="textGrad" x1="0%" y1="0%" x2="100%" y2="0%">
        <stop offset="0%" style="stop-color:#ff4500" />
        <stop offset="25%" style="stop-color:#ff6b35" />
        <stop offset="50%" style="stop-color:#f7c59f" />
        <stop offset="75%" style="stop-color:#efa48b" />
        <stop offset="100%" style="stop-color:#d4a5a5" />
      </linearGradient>
      <filter id="glow">
        <feGaussianBlur stdDeviation="3" result="coloredBlur"/>
        <feMerge>
          <feMergeNode in="coloredBlur"/>
          <feMergeNode in="SourceGraphic"/>
        </feMerge>
      </filter>
      <filter id="textGlow">
        <feGaussianBlur stdDeviation="2" result="coloredBlur"/>
        <feMerge>
          <feMergeNode in="coloredBlur"/>
          <feMergeNode in="SourceGraphic"/>
        </feMerge>
      </filter>
    </defs>
  
  
    <style>
      @keyframes float {
        0%, 100% { transform: translateY(0px); }
        50% { transform: translateY(-8px); }
      }
      @keyframes pulse {
        0%, 100% { opacity: 0.4; }
        50% { opacity: 0.9; }
      }
      @keyframes drift {
        0% { transform: translateX(0px); }
        50% { transform: translateX(10px); }
        100% { transform: translateX(0px); }
      }
      @keyframes shimmer {
        0% { opacity: 0.3; }
        50% { opacity: 1; }
        100% { opacity: 0.3; }
      }
      @keyframes glitch {
        0%, 100% { transform: translateX(0); }
        20% { transform: translateX(-2px); }
        40% { transform: translateX(2px); }
        60% { transform: translateX(-1px); }
        80% { transform: translateX(1px); }
      }
      @keyframes dataStream {
        0% { stroke-dashoffset: 0; }
        100% { stroke-dashoffset: -20; }
      }
      .float { animation: float 8s ease-in-out infinite; }
      .pulse { animation: pulse 8s ease-in-out infinite; }
      .drift { animation: drift 8s ease-in-out infinite; }
      .shimmer { animation: shimmer 3s ease-in-out infinite; }
      .glitch { animation: glitch 0.5s ease-in-out infinite; }
      .dataStream { animation: dataStream 2s linear infinite; }
      .name-text { 
        font-family: -apple-system, BlinkMacSystemFont, 'Segoe UI', Helvetica, Arial, sans-serif;
        font-weight: 700;
        font-size: 64px;
        letter-spacing: -2px;
      }
    </style>
  
  <rect x="0" y="160" width="800" height="50" fill="#ff4500" opacity="0.3" />
<rect x="0" y="170" width="800" height="40" fill="#ff6b35" opacity="0.25" />
<rect x="0" y="180" width="800" height="30" fill="#f7c59f" opacity="0.19999999999999998" />
<rect x="0" y="190" width="800" height="20" fill="#efa48b" opacity="0.14999999999999997" />
<rect x="0" y="200" width="800" height="10" fill="#d4a5a5" opacity="0.09999999999999998" />
<line x1="534.5648680325764" y1="170" x2="534.5648680325764" y2="253.46077246284733" stroke="#ff4500" stroke-width="1.187495456023869" opacity="0.11500203687613841" class="pulse" />
<line x1="534.5648680325764" y1="170" x2="556.0638250742303" y2="250.23519998919295" stroke="#ff4500" stroke-width="2.8726062697397463" opacity="0.29396035939100174" class="pulse" />
<line x1="534.5648680325764" y1="170" x2="595.9793707783497" y2="276.37303907725766" stroke="#ff4500" stroke-width="1.0374322833375476" opacity="0.1410718602102985" class="pulse" />
<line x1="534.5648680325764" y1="170" x2="623.2739878529236" y2="258.70911982034715" stroke="#ff4500" stroke-width="2.8237324914400115" opacity="0.17346818607794373" class="pulse" />
<line x1="534.5648680325764" y1="170" x2="654.1185376202835" y2="239.02434331907023" stroke="#ff4500" stroke-width="2.554525208405542" opacity="0.2707894511681738" class="pulse" />
<line x1="534.5648680325764" y1="170" x2="644.5704184680687" y2="199.47589840213132" stroke="#ff4500" stroke-width="1.5473427544289136" opacity="0.12573418888021287" class="pulse" />
<line x1="534.5648680325764" y1="170" x2="680.5806195666984" y2="170" stroke="#ff4500" stroke-width="2.3979180785384404" opacity="0.14135936419031184" class="pulse" />
<line x1="534.5648680325764" y1="170" x2="653.6612321609623" y2="138.0882254103161" stroke="#ff4500" stroke-width="2.1271176887018135" opacity="0.1801411487663241" class="pulse" />
<line x1="534.5648680325764" y1="170" x2="661.7244412287646" y2="96.5843861851429" stroke="#ff4500" stroke-width="1.964451530535431" opacity="0.21094868193377786" class="pulse" />
<line x1="534.5648680325764" y1="170" x2="624.2207725225926" y2="80.3440955099839" stroke="#ff4500" stroke-width="1.601626493157494" opacity="0.2174040660626098" class="pulse" />
<line x1="534.5648680325764" y1="170" x2="580.09105822382" y2="91.1463255137224" stroke="#ff4500" stroke-width="2.5084019892327216" opacity="0.2878184818724401" class="pulse" />
<line x1="534.5648680325764" y1="170" x2="569.7168485111389" y2="38.81102286733591" stroke="#ff4500" stroke-width="2.808807100925867" opacity="0.13724203147462172" class="pulse" />
<path d="M 218.30385070905646 28.711665659140735 C 219.28451313827466 37.247564705916, 201.53830804544918 50.912764488935494, 192.47526262713166 57.261350087121095 C 183.41221720881413 63.609935685306695, 172.87501312448057 67.37030579891852, 163.9255781991513 66.80317924825435 C 154.976143273822 66.23605269759018, 147.04801554648623 60.20717638132168, 138.77865307515594 53.85859078313608 C 130.50929060382566 47.51000518495048, 113.98525845890728 36.76982912154363, 114.30940337116951 28.711665659140742 C 114.63354828343174 20.653502196737854, 132.45416007739902 13.85861601790893, 140.7235225487293 5.509610008718756 C 148.9928850200596 -2.839396000471419, 156.28095061530243 -21.4717613622921, 163.9255781991513 -21.382370396000304 C 171.57020578300015 -21.29297942970851, 177.52824263350496 -2.3030502027206587, 186.5912880518225 6.0459558064695145 C 195.65433347014002 14.394961815659688, 217.32318827983826 20.17576661236547, 218.30385070905646 28.711665659140735 Z" fill="#f7c59f" opacity="0.23378502826437447" class="drift" />
<path d="M 540.5720329633206 28.900437603552014 C 542.958350116224 43.499090942883754, 546.3065640000913 69.91123529013666, 537.2624879121043 79.85534908025764 C 528.2184118241174 89.79946287037862, 501.33957483136953 90.51809244054226, 486.30757643539874 88.56512034427786 C 471.27557803942796 86.61214824801345, 454.66584420664475 78.08163029279223, 447.0704975362795 68.13751650267125 C 439.47515086591426 58.193402712550274, 442.328888654536 43.57285614458709, 440.73549641320733 28.90043760355202 C 439.14210417187866 14.228019062516951, 429.9147974179423 -9.598056249167737, 437.5101440883075 -19.896994743539167 C 445.1054907586728 -30.195933237910598, 472.06850295100276 -34.91993066064428, 486.30757643539874 -32.89319336267656 C 500.54664991979473 -30.86645606470884, 513.9005089066966 -18.03550945010425, 522.9445849946835 -7.736570955732823 C 531.9886610826704 2.562367538638606, 538.1857158104172 14.301784264220272, 540.5720329633206 28.900437603552014 Z" fill="#f7c59f" opacity="0.15356329467638263" class="drift" />
<path d="M 695.0584372132014 51.93657669270576 C 693.7933340513115 66.42672991595882, 690.5539754650853 81.56185414131237, 681.7180530786442 91.61172687679519 C 672.8821306922031 101.66159961227801, 656.3635533783726 111.14021268314798, 642.0429028945547 112.23581310560266 C 627.7222524107368 113.33141352805734, 603.9640606539417 108.23520214700608, 595.7941501757372 98.18532941152327 C 587.6242396975326 88.13545667604046, 591.8216308204896 66.15101839414065, 593.0234400253272 51.93657669270577 C 594.2252492301648 37.72213499127089, 594.8350949265583 23.87387109413355, 603.0050054047629 12.89867920291399 C 611.1749158829674 1.9234873116944282, 627.6589584536846 -12.543262710338754, 642.0429028945547 -13.914574654611606 C 656.4268473354248 -15.285886598884458, 680.4727496635425 -6.304384353942682, 689.3086720499836 4.670807537276879 C 698.1445944364247 15.64599942849644, 696.3235403750913 37.44642346945271, 695.0584372132014 51.93657669270576 Z" fill="#f7c59f" opacity="0.19179982874719778" class="drift" />
<path d="M 338.5669201184117 31.97770809416619 C 339.986733121134 37.589581653340005, 320.9127196253496 47.928966590151774, 313.16286758959956 53.072767779854544 C 305.4130155538495 58.216568969557315, 299.7879346454443 62.152075052745836, 292.0678079039112 62.84051523238279 C 284.34768116237814 63.52895541201975, 270.5701793751735 62.34721004737906, 266.84210714040114 57.203408857676294 C 263.1140349056288 52.05960766797353, 269.1919353993263 39.878835919385494, 269.699374495277 31.977708094166193 C 270.20681359122773 24.076580268946895, 266.15866948133316 16.11751264749145, 269.8867417161055 9.796641906360499 C 273.6148139508779 3.475771165229548, 286.27493326105116 -7.54833043902804, 292.0678079039112 -5.947516352619516 C 297.8606825467713 -4.346702266210992, 296.8941375375157 13.080655683680693, 304.64398957326574 19.401526424811642 C 312.3938416090158 25.722397165942592, 337.1471071156894 26.365834534992374, 338.5669201184117 31.97770809416619 Z" fill="#f7c59f" opacity="0.19131976021625102" class="drift" />
<path d="M 541.752352499942 30.35225269080543 L 553.476490353851 24.490183763850975 L 565.2006282077599 30.35225269080543" fill="none" stroke="#d4a5a5" stroke-width="1.5" opacity="0.4" class="float" style="animation-delay: 1.6067138088681505s" />
<path d="M 233.41274876527268 58.68338008533367 L 244.79302925379753 52.99323984107125 L 256.1733097423224 58.68338008533367" fill="none" stroke="#d4a5a5" stroke-width="1.5" opacity="0.4" class="float" style="animation-delay: 0.2778462574151237s" />
<path d="M 153.07767758113758 42.75279707066806 L 158.49112203146422 40.046074845504734 L 163.90456648179085 42.75279707066806" fill="none" stroke="#d4a5a5" stroke-width="1.5" opacity="0.4" class="float" style="animation-delay: 0.387189203278713s" />
<path d="M 510.3396634764658 30.675300939612363 L 519.3858701822207 26.152197586734882 L 528.4320768879757 30.675300939612363" fill="none" stroke="#d4a5a5" stroke-width="1.5" opacity="0.4" class="float" style="animation-delay: 1.4977612356227528s" />
<path d="M 545.9811518205995 27.879474542255615 L 554.4455683845478 23.647266260281494 L 562.909984948496 27.879474542255615" fill="none" stroke="#d4a5a5" stroke-width="1.5" opacity="0.4" class="float" style="animation-delay: 2.3466749391671997s" />

  
    <text x="400" y="120" text-anchor="middle" class="name-text" fill="url(#textGrad)" filter="url(#textGlow)">
      JOEL HOOKS
    </text>
  
</svg>
