<svg xmlns="http://www.w3.org/2000/svg" viewBox="0 0 800 200" width="800" height="200">
  <rect width="800" height="200" fill="#1a0a0a"/>
  
    <defs>
      <linearGradient id="grad1" x1="0%" y1="0%" x2="100%" y2="100%">
        <stop offset="0%" style="stop-color:#ff4500;stop-opacity:0.8" />
        <stop offset="100%" style="stop-color:#ff6b35;stop-opacity:0.8" />
      </linearGradient>
      <linearGradient id="grad2" x1="100%" y1="0%" x2="0%" y2="100%">
        <stop offset="0%" style="stop-color:#f7c59f;stop-opacity:0.7" />
        <stop offset="100%" style="stop-color:#efa48b;stop-opacity:0.7" />
      </linearGradient>
      <linearGradient id="textGrad" x1="0%" y1="0%" x2="100%" y2="0%">
        <stop offset="0%" style="stop-color:#ff4500" />
        <stop offset="25%" style="stop-color:#ff6b35" />
        <stop offset="50%" style="stop-color:#f7c59f" />
        <stop offset="75%" style="stop-color:#efa48b" />
        <stop offset="100%" style="stop-color:#d4a5a5" />
      </linearGradient>
      <filter id="glow">
        <feGaussianBlur stdDeviation="3" result="coloredBlur"/>
        <feMerge>
          <feMergeNode in="coloredBlur"/>
          <feMergeNode in="SourceGraphic"/>
        </feMerge>
      </filter>
      <filter id="textGlow">
        <feGaussianBlur stdDeviation="2" result="coloredBlur"/>
        <feMerge>
          <feMergeNode in="coloredBlur"/>
          <feMergeNode in="SourceGraphic"/>
        </feMerge>
      </filter>
    </defs>
  
  
    <style>
      @keyframes float {
        0%, 100% { transform: translateY(0px); }
        50% { transform: translateY(-8px); }
      }
      @keyframes pulse {
        0%, 100% { opacity: 0.4; }
        50% { opacity: 0.9; }
      }
      @keyframes drift {
        0% { transform: translateX(0px); }
        50% { transform: translateX(10px); }
        100% { transform: translateX(0px); }
      }
      @keyframes shimmer {
        0% { opacity: 0.3; }
        50% { opacity: 1; }
        100% { opacity: 0.3; }
      }
      @keyframes glitch {
        0%, 100% { transform: translateX(0); }
        20% { transform: translateX(-2px); }
        40% { transform: translateX(2px); }
        60% { transform: translateX(-1px); }
        80% { transform: translateX(1px); }
      }
      @keyframes dataStream {
        0% { stroke-dashoffset: 0; }
        100% { stroke-dashoffset: -20; }
      }
      .float { animation: float 8s ease-in-out infinite; }
      .pulse { animation: pulse 8s ease-in-out infinite; }
      .drift { animation: drift 8s ease-in-out infinite; }
      .shimmer { animation: shimmer 3s ease-in-out infinite; }
      .glitch { animation: glitch 0.5s ease-in-out infinite; }
      .dataStream { animation: dataStream 2s linear infinite; }
      .name-text { 
        font-family: -apple-system, BlinkMacSystemFont, 'Segoe UI', Helvetica, Arial, sans-serif;
        font-weight: 700;
        font-size: 64px;
        letter-spacing: -2px;
      }
    </style>
  
  <rect x="0" y="160" width="800" height="50" fill="#ff4500" opacity="0.3" />
<rect x="0" y="170" width="800" height="40" fill="#ff6b35" opacity="0.25" />
<rect x="0" y="180" width="800" height="30" fill="#f7c59f" opacity="0.19999999999999998" />
<rect x="0" y="190" width="800" height="20" fill="#efa48b" opacity="0.14999999999999997" />
<rect x="0" y="200" width="800" height="10" fill="#d4a5a5" opacity="0.09999999999999998" />
<line x1="553.8728788348644" y1="170" x2="553.8728788348644" y2="301.30813275478863" stroke="#ff4500" stroke-width="2.599676024630849" opacity="0.15878158177792323" class="pulse" />
<line x1="553.8728788348644" y1="170" x2="581.2005374427673" y2="271.9882103765904" stroke="#ff4500" stroke-width="1.475989142676537" opacity="0.15360539312319346" class="pulse" />
<line x1="553.8728788348644" y1="170" x2="626.2144008573844" y2="295.29919163986733" stroke="#ff4500" stroke-width="2.5140508207233765" opacity="0.12152865443381843" class="pulse" />
<line x1="553.8728788348644" y1="170" x2="623.25769815407" y2="239.38481931920555" stroke="#ff4500" stroke-width="1.1468506558293146" opacity="0.178240614070392" class="pulse" />
<line x1="553.8728788348644" y1="170" x2="659.0514080997484" y2="230.72485218404972" stroke="#ff4500" stroke-width="2.2212077229176903" opacity="0.23572470308160626" class="pulse" />
<line x1="553.8728788348644" y1="170" x2="692.9940091356959" y2="207.2773945142128" stroke="#ff4500" stroke-width="1.3663385896647617" opacity="0.1455215929575771" class="pulse" />
<line x1="553.8728788348644" y1="170" x2="643.7106725589292" y2="170" stroke="#ff4500" stroke-width="1.1020791723205634" opacity="0.16334842443342237" class="pulse" />
<line x1="553.8728788348644" y1="170" x2="661.4445997871462" y2="141.17624424241" stroke="#ff4500" stroke-width="1.9767332958495532" opacity="0.1804260828771304" class="pulse" />
<line x1="553.8728788348644" y1="170" x2="635.503059603536" y2="122.87079315920968" stroke="#ff4500" stroke-width="2.7889272479101024" opacity="0.18425633264988345" class="pulse" />
<line x1="553.8728788348644" y1="170" x2="654.1745364328762" y2="69.69834240198828" stroke="#ff4500" stroke-width="1.2859713262158747" opacity="0.13238763657928562" class="pulse" />
<line x1="553.8728788348644" y1="170" x2="623.3216497011925" y2="49.71120033631054" stroke="#ff4500" stroke-width="1.4109856584476965" opacity="0.1233433244866094" class="pulse" />
<line x1="553.8728788348644" y1="170" x2="581.5539951686393" y2="66.69266743212738" stroke="#ff4500" stroke-width="1.6299314944204264" opacity="0.2252181666401567" class="pulse" />
<path d="M 498.61995740224506 27.35156447908117 C 498.9809242974983 43.71506920637099, 491.3793244099433 68.55011074661257, 479.8965148379571 77.52497934671038 C 468.4137052659709 86.49984794680819, 443.85382321208783 83.79452446045117, 429.7230999703279 81.20077607966803 C 415.59237672856796 78.60702769888489, 405.02537276174087 70.93735766210936, 395.11217538739754 61.96248906201156 C 385.1989780130542 52.98762046191375, 372.24948022974115 40.894103845531006, 370.2439157242681 27.351564479081176 C 368.23835121879506 13.809025112631344, 373.16559098021594 -10.687184994997908, 383.07878835455926 -19.29274713668744 C 392.9919857289026 -27.89830927837697, 413.9477791183482 -24.054591390999157, 429.7230999703279 -24.28180837105601 C 445.4984208223076 -24.50902535111286, 466.2479038944514 -29.26161115871809, 477.7307134664376 -20.656049017028558 C 489.2135230384238 -12.050486875339027, 498.25899050699184 10.988059751791347, 498.61995740224506 27.35156447908117 Z" fill="#f7c59f" opacity="0.24972012743518127" class="drift" />
<path d="M 333.4131050190161 73.242201448131 C 331.81583421022475 84.36858054294721, 317.5243867069635 91.83671923628751, 308.6291780729381 101.82952630620558 C 299.73396943891265 111.82233337612365, 291.9073258488875 130.8626795196403, 280.0418532148635 133.19904386763943 C 268.1763805808395 135.53540821563857, 248.0555798133081 125.84051946411849, 237.4363422687941 115.84771239420041 C 226.8171047242801 105.85490532428234, 217.41613707402712 88.53374755640175, 216.3264279477795 73.24220144813101 C 215.2367188215319 57.95065533986028, 220.27884996679452 32.38576767779763, 230.89808751130852 24.098435744576015 C 241.5173250558225 15.8111038113544, 265.4894006458006 21.689407183345946, 280.0418532148635 23.51820984880132 C 294.5943057839265 25.347012514256694, 309.3175942916608 26.783919804086644, 318.2128029256862 35.07125173730826 C 327.10801155971166 43.358583670529875, 335.0103758278074 62.115822353314776, 333.4131050190161 73.242201448131 Z" fill="#f7c59f" opacity="0.15442764354339686" class="drift" />
<path d="M 738.9499067901993 51.3546812842734 C 736.6253606491372 60.521649397480225, 738.7875939847456 65.63639931845195, 734.6496782403681 71.88194720070764 C 730.5117624959905 78.12749508296334, 723.6446549235578 86.14814795032834, 714.1224123239339 88.82796857780757 C 704.6001697243099 91.5077892052868, 685.761896117053 94.20641884783872, 677.5162226426243 87.96087096558303 C 669.2705491681955 81.71532308332733, 662.8365105600603 61.744883594075596, 664.6483714773614 51.354681284273404 C 666.4602323946624 40.96447897447121, 680.1417146720016 31.785957180663495, 688.3873881464303 25.619657106769864 C 696.633061620859 19.453357032876234, 704.0874845005488 15.813467271795485, 714.1224123239339 14.356880840911622 C 724.1573401473189 12.900294410027758, 744.459039342363 10.713838447573053, 748.5969550867405 16.880138521466684 C 752.7348708311181 23.046438595360314, 741.2744529312614 42.18771317106657, 738.9499067901993 51.3546812842734 Z" fill="#f7c59f" opacity="0.2437713458614581" class="drift" />
<path d="M 531.272812673725 20.46276567849686 C 530.8979631205423 35.53336906733237, 539.8590344667616 57.20002406366217, 532.7588265239773 64.55002718545542 C 525.658618581193 71.90003030724867, 501.82592950123353 66.1041737606944, 488.67156501701874 64.56278440925635 C 475.51720053280394 63.02139505781832, 460.92863631891623 62.65169419862045, 453.8326396186884 55.3016910768272 C 446.7366429184606 47.95168795503395, 445.852042863268 31.832198858889953, 446.0955848156517 20.462765678496865 C 446.3391267680354 9.093332498103777, 448.1978946327627 -5.496998793920086, 455.29389133299054 -12.914908005531327 C 462.38988803321837 -20.33281721714257, 475.38589293200494 -21.88490873416619, 488.67156501701874 -24.044689591170577 C 501.95723710203254 -26.204470448174966, 527.907715900289 -33.291502359168895, 535.0079238430733 -25.873593147557653 C 542.1081317858576 -18.455683935946414, 531.6476622269076 5.392162289661348, 531.272812673725 20.46276567849686 Z" fill="#f7c59f" opacity="0.18507999947792927" class="drift" />
<path d="M 376.64324539636283 38.77305736151059 L 384.923486697312 34.632936711035995 L 393.2037279982612 38.77305736151059" fill="none" stroke="#d4a5a5" stroke-width="1.5" opacity="0.4" class="float" style="animation-delay: 0.622281248450034s" />
<path d="M 124.45551604709395 43.14028067838017 L 135.04937373666863 37.843351833592834 L 145.6432314262433 43.14028067838017" fill="none" stroke="#d4a5a5" stroke-width="1.5" opacity="0.4" class="float" style="animation-delay: 1.3712743376742744s" />
<path d="M 644.8929304058305 67.15441054349428 L 656.0679762370452 61.56688762788694 L 667.2430220682598 67.15441054349428" fill="none" stroke="#d4a5a5" stroke-width="1.5" opacity="0.4" class="float" style="animation-delay: 2.933744311569768s" />
<path d="M 48.05317587939307 39.29083362026027 L 54.942294574502526 35.84627427270554 L 61.83141326961198 39.29083362026027" fill="none" stroke="#d4a5a5" stroke-width="1.5" opacity="0.4" class="float" style="animation-delay: 0.36216512754841035s" />
<path d="M 253.25316345999147 26.017220521276624 L 261.87409897661763 21.706752762963536 L 270.4950344932438 26.017220521276624" fill="none" stroke="#d4a5a5" stroke-width="1.5" opacity="0.4" class="float" style="animation-delay: 0.10417826629178739s" />

  
    <text x="400" y="120" text-anchor="middle" class="name-text" fill="url(#textGrad)" filter="url(#textGlow)">
      JOEL HOOKS
    </text>
  
</svg>
