<svg xmlns="http://www.w3.org/2000/svg" viewBox="0 0 800 200" width="800" height="200">
  <rect width="800" height="200" fill="#1a0a0a"/>
  
    <defs>
      <linearGradient id="grad1" x1="0%" y1="0%" x2="100%" y2="100%">
        <stop offset="0%" style="stop-color:#ff4500;stop-opacity:0.8" />
        <stop offset="100%" style="stop-color:#ff6b35;stop-opacity:0.8" />
      </linearGradient>
      <linearGradient id="grad2" x1="100%" y1="0%" x2="0%" y2="100%">
        <stop offset="0%" style="stop-color:#f7c59f;stop-opacity:0.7" />
        <stop offset="100%" style="stop-color:#efa48b;stop-opacity:0.7" />
      </linearGradient>
      <linearGradient id="textGrad" x1="0%" y1="0%" x2="100%" y2="0%">
        <stop offset="0%" style="stop-color:#ff4500" />
        <stop offset="25%" style="stop-color:#ff6b35" />
        <stop offset="50%" style="stop-color:#f7c59f" />
        <stop offset="75%" style="stop-color:#efa48b" />
        <stop offset="100%" style="stop-color:#d4a5a5" />
      </linearGradient>
      <filter id="glow">
        <feGaussianBlur stdDeviation="3" result="coloredBlur"/>
        <feMerge>
          <feMergeNode in="coloredBlur"/>
          <feMergeNode in="SourceGraphic"/>
        </feMerge>
      </filter>
      <filter id="textGlow">
        <feGaussianBlur stdDeviation="2" result="coloredBlur"/>
        <feMerge>
          <feMergeNode in="coloredBlur"/>
          <feMergeNode in="SourceGraphic"/>
        </feMerge>
      </filter>
    </defs>
  
  
    <style>
      @keyframes float {
        0%, 100% { transform: translateY(0px); }
        50% { transform: translateY(-8px); }
      }
      @keyframes pulse {
        0%, 100% { opacity: 0.4; }
        50% { opacity: 0.9; }
      }
      @keyframes drift {
        0% { transform: translateX(0px); }
        50% { transform: translateX(10px); }
        100% { transform: translateX(0px); }
      }
      @keyframes shimmer {
        0% { opacity: 0.3; }
        50% { opacity: 1; }
        100% { opacity: 0.3; }
      }
      @keyframes glitch {
        0%, 100% { transform: translateX(0); }
        20% { transform: translateX(-2px); }
        40% { transform: translateX(2px); }
        60% { transform: translateX(-1px); }
        80% { transform: translateX(1px); }
      }
      @keyframes dataStream {
        0% { stroke-dashoffset: 0; }
        100% { stroke-dashoffset: -20; }
      }
      .float { animation: float 8s ease-in-out infinite; }
      .pulse { animation: pulse 8s ease-in-out infinite; }
      .drift { animation: drift 8s ease-in-out infinite; }
      .shimmer { animation: shimmer 3s ease-in-out infinite; }
      .glitch { animation: glitch 0.5s ease-in-out infinite; }
      .dataStream { animation: dataStream 2s linear infinite; }
      .name-text { 
        font-family: -apple-system, BlinkMacSystemFont, 'Segoe UI', Helvetica, Arial, sans-serif;
        font-weight: 700;
        font-size: 64px;
        letter-spacing: -2px;
      }
    </style>
  
  <rect x="0" y="160" width="800" height="50" fill="#ff4500" opacity="0.3" />
<rect x="0" y="170" width="800" height="40" fill="#ff6b35" opacity="0.25" />
<rect x="0" y="180" width="800" height="30" fill="#f7c59f" opacity="0.19999999999999998" />
<rect x="0" y="190" width="800" height="20" fill="#efa48b" opacity="0.14999999999999997" />
<rect x="0" y="200" width="800" height="10" fill="#d4a5a5" opacity="0.09999999999999998" />
<line x1="380.32648630819375" y1="170" x2="380.32648630819375" y2="305.0851230049884" stroke="#ff4500" stroke-width="1.3546654175276105" opacity="0.1404604874418689" class="pulse" />
<line x1="380.32648630819375" y1="170" x2="404.1074704200498" y2="258.7518409594352" stroke="#ff4500" stroke-width="1.4362900698566503" opacity="0.18194299827433227" class="pulse" />
<line x1="380.32648630819375" y1="170" x2="423.40589293699776" y2="244.61572104100807" stroke="#ff4500" stroke-width="1.4500346854314579" opacity="0.21195873323086806" class="pulse" />
<line x1="380.32648630819375" y1="170" x2="466.9245725958448" y2="256.59808628765103" stroke="#ff4500" stroke-width="2.6552764846760324" opacity="0.2507607586996906" class="pulse" />
<line x1="380.32648630819375" y1="170" x2="473.98473209981586" y2="224.07361341962115" stroke="#ff4500" stroke-width="1.7988099457807234" opacity="0.11761806218502957" class="pulse" />
<line x1="380.32648630819375" y1="170" x2="510.4690955966661" y2="204.8716070597253" stroke="#ff4500" stroke-width="1.4564687952368436" opacity="0.1426827137259211" class="pulse" />
<line x1="380.32648630819375" y1="170" x2="527.7195756689644" y2="170" stroke="#ff4500" stroke-width="1.187763416083976" opacity="0.25655477401901006" class="pulse" />
<line x1="380.32648630819375" y1="170" x2="516.2776904625952" y2="133.57198463678947" stroke="#ff4500" stroke-width="1.9301811171277379" opacity="0.21354706812944096" class="pulse" />
<line x1="380.32648630819375" y1="170" x2="510.22896789312415" y2="95.00076728854006" stroke="#ff4500" stroke-width="1.4740615655016645" opacity="0.21330819896835684" class="pulse" />
<line x1="380.32648630819375" y1="170" x2="456.89703089660605" y2="93.4294554115877" stroke="#ff4500" stroke-width="1.4998907535626458" opacity="0.18189051601751224" class="pulse" />
<line x1="380.32648630819375" y1="170" x2="435.68191183280925" y2="74.12159051677095" stroke="#ff4500" stroke-width="1.940842718744629" opacity="0.19639428736394166" class="pulse" />
<line x1="380.32648630819375" y1="170" x2="416.28893372471293" y2="35.786319077026405" stroke="#ff4500" stroke-width="1.1765415020628103" opacity="0.21953724250651718" class="pulse" />
<path d="M 430.9351553980286 55.17778959513692 C 430.9786613333365 62.0434844302855, 414.9672651417974 71.65127594899897, 407.6281666282772 75.90539190650642 C 400.289068114757 80.15950786401388, 394.43793841627405 80.0743120112718, 386.90056431690766 80.70248534018165 C 379.3631902175413 81.3306586690915, 367.0742714083094 83.92854783747299, 362.40392203207904 79.67443187996554 C 357.73357265584866 75.42031592245809, 359.03548978564464 63.50035874953223, 358.8784680595255 55.17778959513692 C 358.7214463334064 46.85522044074161, 356.791442299134 35.502587503705506, 361.4617916753644 29.739016953593662 C 366.1321410515948 23.975446403481822, 379.2496744267301 19.767665304128997, 386.90056431690766 20.596366294465874 C 394.5514542070852 21.42506728480275, 400.02803250290947 28.947652345503084, 407.36713101642965 34.711222895614924 C 414.70622952994984 40.47479344572677, 430.8916494627207 48.31209475998834, 430.9351553980286 55.17778959513692 Z" fill="#f7c59f" opacity="0.20667786789492903" class="drift" />
<path d="M 265.00857466559313 40.502395501349504 C 265.4519974287525 47.75454764955104, 271.7990339835633 59.42240489225134, 268.5397809003407 63.58912023543239 C 265.2805278171181 67.75583557861344, 254.3079670409425 64.34335159711209, 245.45305616625782 65.50268756043579 C 236.59814529157316 66.66202352375949, 221.6722338044314 74.7118513585556, 215.41031565223278 70.54513601537457 C 209.14839750003418 66.37842067219353, 206.74627614085747 49.381371227149074, 207.88154725306626 40.50239550134951 C 209.01681836527504 31.62341977554995, 215.9600241732869 21.895503927342556, 222.22194232548551 17.27128166057721 C 228.48386047768412 12.647059393811862, 238.17683916694136 12.289574286483107, 245.45305616625782 12.757061900757428 C 252.72927316557428 13.224549515031748, 262.6199912381616 15.451985079457788, 265.8792443213842 20.076207346223136 C 269.13849740460677 24.700429612988483, 264.56515190243374 33.250243353147965, 265.00857466559313 40.502395501349504 Z" fill="#f7c59f" opacity="0.12997318917736692" class="drift" />
<path d="M 311.19768277854655 22.161162712590997 C 308.12116619345073 34.7812930196846, 287.23593030271593 41.88652877309605, 276.7174115743511 50.79200387858435 C 266.1988928459863 59.69747898407265, 259.8763341761571 73.3478632997192, 248.08657040835772 75.59401334552078 C 236.29680664055834 77.84016339132236, 215.86653780351165 73.17437925888217, 205.97882896755485 64.26890415339388 C 196.09112013159805 55.36342904790558, 187.18710847075346 34.62386760432846, 188.76031739261697 22.161162712591004 C 190.33352631448048 9.698457820853546, 205.53037366277906 -3.365299349939943, 215.41808249873586 -10.507325197030863 C 225.30579133469266 -17.649351044121783, 234.79349897732604 -18.28741690879678, 248.08657040835772 -20.69099236995451 C 261.3796418393894 -23.094567831112244, 284.6579923565611 -32.07080381106818, 295.17651108492595 -24.928777963977264 C 305.6950298132908 -17.786752116886348, 314.27419936364237 9.541032405497393, 311.19768277854655 22.161162712590997 Z" fill="#f7c59f" opacity="0.10104473461840896" class="drift" />
<path d="M 608.9935114015202 30.42913623906862 C 609.9792405300628 38.19203501975594, 607.3140413799194 51.31130702439003, 601.7289706300613 56.67501996675846 C 596.1438998802032 62.03873290912689, 582.8023907554243 64.04073794945629, 575.4830869023715 62.61141389327919 C 568.1637830493187 61.1820898371021, 563.535050803219 53.46278857206435, 557.8131475117442 48.09907562969592 C 552.0912442202695 42.73536268732749, 543.5824034966182 38.749852379039325, 541.1516671535232 30.429136239068622 C 538.7209308104283 22.10842009909792, 537.5068261616998 3.148134607335283, 543.2287294531745 -1.825221210128312 C 548.9506327446493 -6.798577027591907, 566.7187758347663 -1.3981400811734215, 575.4830869023715 0.589001334287051 C 584.2473979699766 2.5761427497475236, 590.2295251089474 5.124271465170929, 595.8145958588055 10.097627282634523 C 601.3996666086637 15.070983100098118, 608.0077822729776 22.666237458381296, 608.9935114015202 30.42913623906862 Z" fill="#f7c59f" opacity="0.1155179381865397" class="drift" />
<path d="M 83.6121808808058 69.4843099996499 L 95.3284030004667 63.62619893981944 L 107.04462512012759 69.4843099996499" fill="none" stroke="#d4a5a5" stroke-width="1.5" opacity="0.4" class="float" style="animation-delay: 1.7498380619964038s" />
<path d="M 743.0113143537138 67.45213151303373 L 749.6141117800214 64.15073279987993 L 756.216909206329 67.45213151303373" fill="none" stroke="#d4a5a5" stroke-width="1.5" opacity="0.4" class="float" style="animation-delay: 0.026685304098729823s" />
<path d="M 301.43100942958273 64.23242827008998 L 311.4907482804408 59.202558844660935 L 321.5504871312989 64.23242827008998" fill="none" stroke="#d4a5a5" stroke-width="1.5" opacity="0.4" class="float" style="animation-delay: 2.169754619845119s" />
<path d="M 96.57410543510946 79.93030616505864 L 105.29182611868387 75.57144582327143 L 114.00954680225828 79.93030616505864" fill="none" stroke="#d4a5a5" stroke-width="1.5" opacity="0.4" class="float" style="animation-delay: 2.1772405474668917s" />
<path d="M 715.9249665840761 26.8819329689191 L 723.0897363534622 23.299548084226046 L 730.2545061228483 26.8819329689191" fill="none" stroke="#d4a5a5" stroke-width="1.5" opacity="0.4" class="float" style="animation-delay: 0.4266677126017766s" />

  
    <text x="400" y="120" text-anchor="middle" class="name-text" fill="url(#textGrad)" filter="url(#textGlow)">
      JOEL HOOKS
    </text>
  
</svg>
