<svg xmlns="http://www.w3.org/2000/svg" viewBox="0 0 800 200" width="800" height="200">
  <rect width="800" height="200" fill="#05010d"/>
  
    <defs>
      <linearGradient id="grad1" x1="0%" y1="0%" x2="100%" y2="100%">
        <stop offset="0%" style="stop-color:#4a0080;stop-opacity:0.8" />
        <stop offset="100%" style="stop-color:#7b2cbf;stop-opacity:0.8" />
      </linearGradient>
      <linearGradient id="grad2" x1="100%" y1="0%" x2="0%" y2="100%">
        <stop offset="0%" style="stop-color:#9d4edd;stop-opacity:0.7" />
        <stop offset="100%" style="stop-color:#c77dff;stop-opacity:0.7" />
      </linearGradient>
      <linearGradient id="textGrad" x1="0%" y1="0%" x2="100%" y2="0%">
        <stop offset="0%" style="stop-color:#4a0080" />
        <stop offset="25%" style="stop-color:#7b2cbf" />
        <stop offset="50%" style="stop-color:#9d4edd" />
        <stop offset="75%" style="stop-color:#c77dff" />
        <stop offset="100%" style="stop-color:#e0aaff" />
      </linearGradient>
      <filter id="glow">
        <feGaussianBlur stdDeviation="5" result="coloredBlur"/>
        <feMerge>
          <feMergeNode in="coloredBlur"/>
          <feMergeNode in="SourceGraphic"/>
        </feMerge>
      </filter>
      <filter id="textGlow">
        <feGaussianBlur stdDeviation="2" result="coloredBlur"/>
        <feMerge>
          <feMergeNode in="coloredBlur"/>
          <feMergeNode in="SourceGraphic"/>
        </feMerge>
      </filter>
    </defs>
  
  
    <style>
      @keyframes float {
        0%, 100% { transform: translateY(0px); }
        50% { transform: translateY(-8px); }
      }
      @keyframes pulse {
        0%, 100% { opacity: 0.4; }
        50% { opacity: 0.9; }
      }
      @keyframes drift {
        0% { transform: translateX(0px); }
        50% { transform: translateX(10px); }
        100% { transform: translateX(0px); }
      }
      @keyframes shimmer {
        0% { opacity: 0.3; }
        50% { opacity: 1; }
        100% { opacity: 0.3; }
      }
      @keyframes glitch {
        0%, 100% { transform: translateX(0); }
        20% { transform: translateX(-2px); }
        40% { transform: translateX(2px); }
        60% { transform: translateX(-1px); }
        80% { transform: translateX(1px); }
      }
      @keyframes dataStream {
        0% { stroke-dashoffset: 0; }
        100% { stroke-dashoffset: -20; }
      }
      .float { animation: float 8s ease-in-out infinite; }
      .pulse { animation: pulse 8s ease-in-out infinite; }
      .drift { animation: drift 8s ease-in-out infinite; }
      .shimmer { animation: shimmer 3s ease-in-out infinite; }
      .glitch { animation: glitch 0.5s ease-in-out infinite; }
      .dataStream { animation: dataStream 2s linear infinite; }
      .name-text { 
        font-family: -apple-system, BlinkMacSystemFont, 'Segoe UI', Helvetica, Arial, sans-serif;
        font-weight: 700;
        font-size: 64px;
        letter-spacing: -2px;
      }
    </style>
  
  <path d="M 167.77507587806804 117.79042031207308 C 173.58471334679427 132.96668552485409, 206.58045727969045 164.4501745102728, 202.20544917324332 174.52009782835214 C 197.8304410667962 184.59002114643147, 157.99057206251783 175.47001091328406, 141.52502723938525 178.2099602205491 C 125.05948241625266 180.94990952781416, 119.68490314737016 187.55726855255935, 103.4121802344478 190.95979367194252 C 87.13945732152544 194.3623187913257, 60.04102625851215 205.5624192553269, 43.888689761851055 198.6251109368481 C 27.736353265189962 191.68780261836932, 2.103389742696609 164.94574980130582, 6.498161254481246 149.3359437610698 C 10.892932766265883 133.7261377208338, 60.932631257821726 120.12687561718884, 70.25731883255888 104.96627469543198 C 79.58200640729603 89.80567377367511, 57.320680843690106 71.21335875185434, 62.44628670290418 58.37233823052861 C 67.57189256211825 45.531317709202874, 84.24897888972775 35.930952242477574, 101.01095398784334 27.920151567477546 C 117.77292908595892 19.90935089247752, 151.9620255627573 1.0504750164970016, 163.01813729159772 10.307534180528435 C 174.07424902043815 19.564593344559867, 166.55480126314083 65.54869219640871, 167.34762436088587 83.46250655166615 C 168.14044745863092 101.3763209069236, 161.9654384093418 102.61415509929208, 167.77507587806804 117.79042031207308 Z" fill="#4a0080" opacity="0.24007517759060026" filter="url(#glow)" class="float" />
<path d="M 760.8738703336101 159.27824783247897 C 761.2468369675768 186.93251378299894, 776.0615922308009 223.8697478258718, 763.517657170556 243.05397404735032 C 750.9737221103112 262.23820026882885, 711.5640033315634 267.6154293835645, 685.6102599721412 274.38360516135015 C 659.656516612719 281.1517809391358, 627.581132252564 293.00071301238563, 607.795197014023 283.6630287140641 C 588.009261775482 274.3253444157426, 575.4596897876937 239.0882961850187, 566.8946485408954 218.35749937142117 C 558.3296072940972 197.62670255782365, 561.093785465268 182.37797039025597, 556.4049495332331 159.27824783247897 C 551.7161136011982 136.17852527470197, 527.4147994346482 91.9284845736309, 538.7616329486865 79.75916402475912 C 550.1084664627248 67.58984347588733, 599.3227706618466 94.31207451067175, 624.4859506174625 86.26232453924831 C 649.6491305730785 78.21257456782487, 666.9417282241666 32.98298856205481, 689.7407126823821 31.460664196218502 C 712.5396971405976 29.938339830382198, 749.4243310915513 55.82544773818707, 761.2798573667559 77.12837834423048 C 773.1353836419605 98.43130895027389, 760.5009036996433 131.623981881959, 760.8738703336101 159.27824783247897 Z" fill="#e0aaff" opacity="0.245294955444264" filter="url(#glow)" class="float" />
<path d="M 647.6351105007143 141.6080231784923 C 645.6080755518548 161.4458394728099, 645.052222886245 176.3619018981698, 633.8491765560763 195.04036721486636 C 622.6461302259075 213.71883253156292, 601.3084765200217 250.59795242381017, 580.4168325197022 253.67881507867168 C 559.5251885193827 256.7596777335332, 523.5509635961419 232.20400846073193, 508.49931255415913 213.52554314403537 C 493.4476615121764 194.8470778273388, 489.01218316435325 164.48578673022075, 490.1069262678058 141.6080231784923 C 491.2016693712584 118.73025962676383, 500.01612013289173 97.63929663309061, 515.0677711748745 76.25896183366457 C 530.1194222168572 54.878627034238534, 558.5928966739757 13.366929779386718, 580.4168325197022 13.32601438193609 C 602.2407683654287 13.285098984485463, 634.8083399190649 54.63313464953477, 646.0113862492336 76.0134694489608 C 657.2144325794023 97.39380424838684, 649.6621454495738 121.7702068841747, 647.6351105007143 141.6080231784923 Z" fill="#7b2cbf" opacity="0.19281928380880714" filter="url(#glow)" class="float" />
<path d="M 589.5156525881155 166.72734834317174 C 594.2604519883109 188.46534250149745, 615.1664285433869 228.869331244416, 603.8514817305279 241.08922307514086 C 592.5365349176689 253.30911490586573, 543.229663728994 236.31271781899449, 521.625971710961 240.04669932752086 C 500.0222796929281 243.78068083604722, 492.0289935298269 261.61149588769655, 474.2293296223302 263.4931121262991 C 456.42966571483356 265.3747283649016, 425.5128660309291 263.64579895466557, 414.82798826598093 251.33639675913605 C 404.14311050103277 239.02699456360656, 413.52579464086364 208.32604988957272, 410.1200630326411 189.63669895312213 C 406.71433142441856 170.94734801667155, 391.2254472679813 154.36932197425747, 394.3935986166456 139.2002911404326 C 397.5617499653099 124.03126030660772, 415.5273167883817 108.10566548792231, 429.12897112462684 98.62251395017287 C 442.730625460872 89.13936241242344, 460.8982029072408 82.48981232391891, 476.0035246341164 82.30138191393596 C 491.108846360992 82.112951503953, 503.19770803667416 92.76528545506666, 519.7609014858806 97.4919314902751 C 536.324094935087 102.21857752548355, 563.7568934789825 99.12202198303719, 575.382685329355 110.66125812518662 C 587.0084771797275 122.20049426733605, 584.77085318792 144.98935418484604, 589.5156525881155 166.72734834317174 Z" fill="#4a0080" opacity="0.1439766118520207" filter="url(#glow)" class="float" />
<path d="M 563.8943436487232 100.63806843288859 L 563.8943436487232 100.63806843288859 L 564.4879817421104 100.69000503629711 L 565.0680487446667 100.84502430869846 L 565.6211457496682 101.10076366132517 L 566.1342163838098 101.45331543700453 L 566.594713504882 101.89727157666631 L 566.9907604667144 102.42578551627908 L 567.3113052234858 103.03065068531025 L 567.5462656156569 103.70239480843088 L 567.6866642662485 104.43038905041394 L 567.724751618151 105.20297089155574 L 567.6541157596715 106.00757947894404 L 567.4697778155041 106.83090206887091 L 567.1682718225453 107.65903005890131 L 566.747708163129 108.47762300569165 L 566.2078197909061 109.27207893761377 L 565.5499906552021 110.02770920043696 L 564.777265906668 110.72991602047121 L 563.8943436487232 111.36437093323148 L 562.9075481839612 111.91719220724563 L 561.8247848906245 112.37511939232405 L 560.6554770496671 112.72568313950384 L 559.4104851260855 112.95736847586484 L 558.1020091873456 113.05976977121878 L 556.7434753151613 113.02373570485325 L 555.3494070329315 112.84150262846916 L 553.9352829282108 112.50681482542319 L 552.5173817961471 112.01503028546462 L 551.1126167644552 111.36321074728662 L 549.7383599818497 110.55019490720692 L 548.4122595587673 109.576653849841 L 547.152050540539 108.44512792431053 L 545.9753617680304 107.16004446581616 L 544.8995205383278 105.72771594569106 L 543.9413570176829 104.15631832165629 L 543.1170103801708 102.45584955218698 L 542.4417386480374 100.63806843288859 L 541.9297341933963 98.71641410677317 L 541.5939468257958 96.70590679250115 L 541.4459163364377 94.62303046321296 L 541.4956162978573 92.48559839172913 L 541.7513108282216 90.31260265391118 L 542.219425922785 88.1240488491552 L 542.9044368323246 85.94077745372694 L 543.8087728305877 83.78427336740597 L 544.9327405610965 81.67646534526187 L 546.274466989355 79.63951712301969 L 547.8298628110349 77.69561214519712 L 549.5926069815993 75.86673388895927 L 551.5541528397014 74.17444384253295 L 553.7037560972739 72.6396592443062 L 556.0285247653012 71.28243271682298 L 558.5134908776666 70.12173593835638 L 561.1417036680714 69.17524948336631 L 563.8943436487232 68.45916093185988 L 566.750856836192 67.98797329659189 L 569.6891081713994 67.77432574646927 L 572.6855529890183 67.82882851493292 L 575.7154252084043 68.159913774133 L 578.7529407453004 68.77370413021548 L 581.771514482628 69.67390025297695 L 584.7439889912548 70.861688995672 L 587.6428730591759 72.33567318915223 L 590.4405879714005 74.09182411021118 L 593.109719384193 76.12345742855021 L 595.6232725572327 78.42123323183026 L 597.954928646626 80.97318051559326 L 600.0792997212502 83.76474630626696 L 601.9721801451952 86.7788693629175 L 603.610791970459 89.99607817884706 L 604.9740220067473 93.39461277954328 L 606.0426482792153 96.95056959088332 L 606.7995536500948 100.63806843288857 L 607.2299244659897 104.42944048171093 L 607.3214321986344 108.29543583785356 L 607.0643961723491 112.20544914380326 L 606.4519256153684 116.12776151109158 L 605.4800394335678 120.02979684706565 L 604.1477622826084 123.87839051696484 L 602.4571957067578 127.64006813879024 L 600.4135633180604 131.28133218831152 L 598.0252292064513 134.76895399061664 L 595.3036889980317 138.07026859395924 L 592.2635332131515 141.15346996221606 L 588.92238281619 143.9879038847649 L 585.3007970929447 146.54435598758712 L 581.4221542372161 148.79533223725028 L 577.3125052733842 150.71532936029462 L 573.0004021843572 152.28109265440463 L 568.516701352082 153.47185874435053 L 563.8943436487232 154.26958093460308 L 559.1681127385474 154.65913493112495 L 554.3743733614695 154.62850284629172 L 549.550791567189 154.1689335621847 L 544.7360390519984 153.2750777074235 L 539.9694839169463 151.94509569990464 L 535.2908703144755 150.18073752074724 L 530.7399895794516 147.98739311174123 L 526.3563455483301 145.37411252782675 L 522.1788168559444 142.35359522566733 L 518.2453190620516 138.94214812716734 L 514.5924694985778 135.15961236068696 L 511.25525774287337 131.0292588505268 L 508.2667246118532 126.57765319470985 L 505.6576525364718 121.83449053990319 L 503.45627011564693 116.83240142816919 L 501.6879735637152 111.60672985081143 L 500.37506765629144 106.19528499760077 L 499.5365286466658 100.63806843288862 L 499.187791469517 94.9769786613594 L 499.3405633718281 89.25549526334606 L 500.00266591375686 83.51834498073475" fill="none" stroke="#7b2cbf" stroke-width="1" opacity="0.3" class="drift" />
<path d="M 277.3900051154661 108.46966030845459 L 277.3900051154661 108.46966030845459 L 277.8479665694135 108.50972674400683 L 278.2954586202719 108.6293161911289 L 278.7221446961926 108.82660603331578 L 279.1179524723554 109.09858171274125 L 279.47320246970895 109.44107118818624 L 279.77873246263323 109.84879268536216 L 280.02601636254036 110.31541525446156 L 280.20727629854747 110.83363151910453 L 280.3155866830619 111.39524187605036 L 280.34496912877853 111.99124928730627 L 280.2904771734771 112.61196369671413 L 280.14826986928125 113.24711500278885 L 279.91567340276845 113.8859734294859 L 279.59123003046943 114.5174760575671 L 279.174733739772 115.1303582120868 L 278.6672521768606 115.7132883469011 L 278.07113451985424 116.25500502555914 L 277.3900051154661 116.74445456989996 L 276.62874283997354 117.1709279334538 L 275.79344628872303 117.52419535651272 L 274.89138504143784 117.79463737353969 L 273.93093739188953 117.97337077134567 L 272.9215150687005 118.05236813797151 L 271.87347560783587 118.0245696971231 L 270.79802316544124 117.88398619086263 L 269.70709868085385 117.62579165346897 L 268.6132604126788 117.2464050112419 L 267.52955597468144 116.74355954572937 L 266.4693870918728 116.11635937048347 L 265.4463683796305 115.3653221929924 L 264.4741815191607 114.49240776279085 L 263.5664262603518 113.50103154274787 L 262.73646972747525 112.39606328192762 L 261.99729553376727 111.1838103139178 L 261.36135422730973 109.87198555278302 L 260.8404165925754 108.46966030845459 L 260.44543131941504 106.9872021930217 L 260.1863885241557 105.43619853764277 L 260.07219056602236 103.82936588525921 L 260.11053154657327 102.180446265588 L 260.30778681067505 100.50409109465504 L 260.6689136852963 98.81573367010166 L 261.1973645977243 97.1314513544118 L 261.8950136085187 95.46781864987994 L 262.76209727748727 93.84175247047574 L 263.797170654229 92.27035100573686 L 264.9970790494193 90.77072764952749 L 266.3569461002056 89.3598415311176 L 267.8701784940959 88.05432623687506 L 269.52848756188286 86.87031834733853 L 271.321927792826 85.82328743610508 L 273.23895216593417 84.92786918350345 L 275.26648403119736 84.1977032492463 L 277.3900051154661 83.64527752411851 L 279.59365907083935 83.28178034135166 L 281.8603698303467 83.11696217389182 L 284.17197388782864 83.1590082746522 L 286.5093654776227 83.41442363355995 L 288.85265349629964 83.88793152838943 L 291.18132888454176 84.58238683678334 L 293.47444107352686 85.49870515537899 L 295.71078199800314 86.63580863957417 L 297.8690760886365 87.99058933528418 L 299.9281745801169 89.5578906232551 L 301.86725240972703 91.33050723838988 L 303.6660059343045 93.29920416247141 L 305.3048496623198 95.45275452005042 L 306.765110182584 97.7779964355814 L 308.0292154721743 100.25990863664735 L 309.08087778366956 102.88170441485383 L 309.9052683457263 105.62494338424551 L 310.4891821612476 108.46966030845458 L 310.8211912536209 111.39451010376817 L 310.8917847932812 114.37692796740393 L 310.69349463362715 117.39330342998419 L 310.22100489636256 120.41916698990111 L 309.4712443708054 123.42938785632207 L 308.4434606286388 126.39838120825286 L 307.1392749038755 129.30032327053323 L 305.5627169462796 132.10937241495395 L 303.7202392238281 134.7998944168165 L 301.620710024628 137.34668993503837 L 299.27538518954873 139.72522223804927 L 296.69785839217195 141.91184316879435 L 293.9039900709043 143.88401533058234 L 290.9118153076293 145.62052848157424 L 287.7414311364405 147.10170814952141 L 284.41486395313564 148.30961451991038 L 280.9559178796156 149.22822970976662 L 277.3900051154661 149.8436316156814 L 273.74395948021225 150.14415261766126 L 270.04583451244804 150.12052152952202 L 266.3246876447694 149.7659873109743 L 262.61035211472966 149.07642319535282 L 258.9331984005647 148.050410039068 L 255.3238870849452 146.68929786312862 L 251.81311514936962 144.9972447321978 L 248.43135778500445 142.98123230120112 L 245.20860787191262 140.65105755200807 L 242.17411532694933 138.01930044157885 L 239.35612855053768 135.10126738655518 L 236.781640213625 131.9149107158831 L 234.47613961806422 128.48072443092664 L 232.4633738363447 124.82161681990772 L 230.76511979004064 120.96276067859606 L 229.400969360758 116.93142209019285 L 228.38812954310222 112.75676891254435 L 227.74123954679396 108.4696603084546 L 227.47220663520758 104.1024188332604 L 227.5900623511464 99.68858676136776 L 228.10084062858778 95.2626684885907 L 229.0074791225661 90.8598609884282 L 230.3097449095786 86.51577442651926 L 232.00418551929076 82.2661451472109 L 234.08410605638912 78.14654333834017 L 236.5395729607866 74.19207775403056 L 239.3574447367211 70.43709992970953 L 242.52142975837958 66.91491035800473 L 246.0121710333476 63.65746910819239 L 249.80735757731492 60.695113365112086 L 253.8818618259601 58.056284335778585 L 258.20790228472305 55.76726592333137 L 262.7552303961576 53.85193749867048 L 267.4913403896591 52.331543010494165 L 272.381700671436 51.22447856503883 L 277.3900051154661 50.54610047833706 L 282.47844243060064 50.30855565714417 L 287.6079816066217 50.52063600088254 L 292.738671284497 51.187658337217584 L 297.8299507547825 52.31137120955278" fill="none" stroke="#7b2cbf" stroke-width="1" opacity="0.3" class="drift" />
<circle cx="764.7440506151561" cy="72.49970381630008" r="1.1470474792336927" fill="white" opacity="0.5431872921094629"  style="animation-delay: 3.5354533070467866s" />
<circle cx="266.55746579185904" cy="86.27191913633796" r="0.7832119544882344" fill="white" opacity="0.7201005000728149"  style="animation-delay: 4.574787054953017s" />
<circle cx="44.55787667538669" cy="120.9134935154292" r="0.7676032286907336" fill="white" opacity="0.6039426085260042"  style="animation-delay: 1.7522935555356933s" />
<circle cx="314.1317034784073" cy="185.61138665800038" r="1.4652403316009313" fill="white" opacity="0.5605391846621661"  style="animation-delay: 4.931003129450992s" />
<circle cx="767.8803967926746" cy="51.58253421903356" r="1.8520742627999192" fill="white" opacity="0.5701769984549145"  style="animation-delay: 4.535377515802753s" />
<circle cx="20.100630837531774" cy="168.11910210292095" r="1.110823522353044" fill="white" opacity="0.40406405788940497"  style="animation-delay: 4.3774620567077065s" />
<circle cx="389.31585920952773" cy="74.0642490307747" r="0.7367559146556385" fill="white" opacity="0.6711889951001393"  style="animation-delay: 3.4180667763400576s" />
<circle cx="606.5673660789116" cy="89.39767176828721" r="0.5334388691131211" fill="white" opacity="0.5095359376511646" class="shimmer" style="animation-delay: 2.2607534238387395s" />
<circle cx="284.15443986530244" cy="135.10056787640497" r="1.2138158491523368" fill="white" opacity="0.5986481891623552" class="shimmer" style="animation-delay: 1.288296813375267s" />
<circle cx="643.7807182232759" cy="22.659077026708108" r="1.5529691656454536" fill="white" opacity="0.5224474257831715"  style="animation-delay: 3.05933277536195s" />
<circle cx="61.84415763397695" cy="105.0062903207575" r="1.4213429153508526" fill="white" opacity="0.3405234604221074"  style="animation-delay: 1.1530515529446406s" />
<circle cx="114.35499605992464" cy="103.2725240740207" r="0.9467399580871841" fill="white" opacity="0.3478428751016977"  style="animation-delay: 0.7723738727265494s" />
<circle cx="20.07486581844269" cy="17.574625425155332" r="0.6887542345628053" fill="white" opacity="0.34192239830278776"  style="animation-delay: 2.8269252580313484s" />
<circle cx="428.1618165908169" cy="52.81577949816585" r="1.4839255382255043" fill="white" opacity="0.607049900984135" class="shimmer" style="animation-delay: 1.0692793588215888s" />
<circle cx="383.7083642426551" cy="116.95203425072131" r="1.7040209411854241" fill="white" opacity="0.7398295649017306"  style="animation-delay: 4.349818562263933s" />
<circle cx="195.7938198521777" cy="147.30857281137676" r="0.9314699402585525" fill="white" opacity="0.6704109815164736" class="shimmer" style="animation-delay: 4.870085556277967s" />
<circle cx="271.7652388041472" cy="86.30480187353137" r="0.5391127305145336" fill="white" opacity="0.7328013936024902"  style="animation-delay: 4.585921529940102s" />
<circle cx="8.573075353195492" cy="81.8714738565296" r="1.1739273845056224" fill="white" opacity="0.3027048265500745"  style="animation-delay: 2.9926399134240933s" />
<circle cx="412.1028048984835" cy="101.7070435718884" r="1.6023275985970282" fill="white" opacity="0.614756447351628" class="shimmer" style="animation-delay: 1.5953642365203402s" />
<circle cx="450.3433587340355" cy="131.19548320414776" r="1.3326221811033534" fill="white" opacity="0.3724941627580393"  style="animation-delay: 3.700883771521555s" />
<circle cx="465.3150605141333" cy="25.485540276593575" r="1.60085351364483" fill="white" opacity="0.6368243266774829"  style="animation-delay: 3.5552212373683956s" />
<circle cx="58.56781334031833" cy="3.5353094562195153" r="1.7704448953110494" fill="white" opacity="0.6713434717910527" class="shimmer" style="animation-delay: 2.3175001437783163s" />
<circle cx="310.40379249520987" cy="50.27495228337813" r="0.9454007328392822" fill="white" opacity="0.34336335207550556"  style="animation-delay: 1.9713839793892107s" />
<circle cx="414.32599659496407" cy="63.47498160532208" r="1.9136702676297617" fill="white" opacity="0.3251694649490408"  style="animation-delay: 0.5454465152554888s" />
<circle cx="714.8098899800498" cy="185.81822091106602" r="1.8459172710913367" fill="white" opacity="0.4528042228994113" class="shimmer" style="animation-delay: 2.2449105309988324s" />
<circle cx="150.09527683136685" cy="86.9498057044054" r="1.9569027404614305" fill="white" opacity="0.30584729235729663"  style="animation-delay: 1.3655549014056534s" />
<circle cx="237.0888757672388" cy="185.11440481762125" r="1.6343064429679264" fill="white" opacity="0.6603166720352858" class="shimmer" style="animation-delay: 3.046736104741503s" />
<circle cx="541.5013845116521" cy="85.72209728903198" r="1.7036339735495696" fill="white" opacity="0.7795058579322136"  style="animation-delay: 1.413942498624614s" />
<circle cx="691.2198427453243" cy="102.96173306365372" r="1.784032021091122" fill="white" opacity="0.4158659536399368" class="shimmer" style="animation-delay: 3.997309333860538s" />
<circle cx="16.650290287759617" cy="35.540935817739296" r="1.3359039396878187" fill="white" opacity="0.47154100806575033"  style="animation-delay: 3.4474162518024465s" />
<circle cx="466.95961438949263" cy="198.599610874891" r="0.6120110460645077" fill="white" opacity="0.5693886209027248"  style="animation-delay: 2.1726259043637617s" />
<circle cx="9.52328661816324" cy="36.10010761924727" r="1.5914494261361043" fill="white" opacity="0.6378794882795982"  style="animation-delay: 3.6217011023664822s" />
<circle cx="538.9602400002534" cy="109.2651991893216" r="0.5942514332083613" fill="white" opacity="0.4272221741998205" class="shimmer" style="animation-delay: 0.22453546270649438s" />
<circle cx="317.20277661971323" cy="90.91923484742628" r="1.6870432240891857" fill="white" opacity="0.4090890679947143"  style="animation-delay: 1.0769028375811096s" />
<circle cx="610.3092922670955" cy="35.76306939686798" r="1.0324826308642663" fill="white" opacity="0.5480809307036589"  style="animation-delay: 1.923050518884788s" />
<circle cx="93.67532749941354" cy="21.226630048331785" r="0.5329359196819072" fill="white" opacity="0.323119064892115"  style="animation-delay: 4.452269332923673s" />
<circle cx="651.7020436608707" cy="70.52930381349532" r="1.3082633041131737" fill="white" opacity="0.30903305284565025" class="shimmer" style="animation-delay: 3.8696540644705166s" />
<circle cx="171.60319847528226" cy="87.44496397134868" r="1.3363422470071584" fill="white" opacity="0.3773081803035531"  style="animation-delay: 2.3994988167696785s" />
<circle cx="751.569431203791" cy="15.85437339428002" r="1.8007208508531793" fill="white" opacity="0.7361487565387801" class="shimmer" style="animation-delay: 4.406775147320166s" />
<circle cx="522.3771668150448" cy="49.361526375177924" r="1.855709582110164" fill="white" opacity="0.6304876525389445" class="shimmer" style="animation-delay: 1.600663694054667s" />
<circle cx="143.21506808885653" cy="187.90496705499987" r="1.188345377607272" fill="#9d4edd" opacity="0.8" filter="url(#glow)" class="shimmer" style="animation-delay: 0.41244087368355764s" />
<circle cx="333.43339862538863" cy="3.1318114159572197" r="1.1859327494038037" fill="#7b2cbf" opacity="0.8" filter="url(#glow)" class="shimmer" style="animation-delay: 0.4913699730544012s" />
<circle cx="706.1294500952833" cy="172.15135286199077" r="1.3465347457379129" fill="#c77dff" opacity="0.8" filter="url(#glow)" class="shimmer" style="animation-delay: 2.7619851940338904s" />
<circle cx="244.3653341610837" cy="47.625031458851375" r="2.9503873692660703" fill="#7b2cbf" opacity="0.8" filter="url(#glow)" class="shimmer" style="animation-delay: 1.8617327965661676s" />
<circle cx="118.44576954906944" cy="122.31102359637927" r="2.449828864054567" fill="#c77dff" opacity="0.8" filter="url(#glow)" class="shimmer" style="animation-delay: 0.3186143918844744s" />
<circle cx="202.94490489932357" cy="156.14730381620237" r="2.4163368217619428" fill="#4a0080" opacity="0.8" filter="url(#glow)" class="shimmer" style="animation-delay: 0.7308445686506955s" />
<circle cx="17.693063897713834" cy="52.50967673587525" r="1.05642253314655" fill="#c77dff" opacity="0.8" filter="url(#glow)" class="shimmer" style="animation-delay: 1.692123882615572s" />
<circle cx="118.491978490027" cy="140.02285066133666" r="2.9759775197488163" fill="#e0aaff" opacity="0.8" filter="url(#glow)" class="shimmer" style="animation-delay: 1.6716741292131723s" />
<line x1="646.0535749050642" y1="64.9934813059538" x2="166.8490361940779" y2="58.46507289511456" stroke="#e0aaff" stroke-width="0.5" opacity="0.3" />
<line x1="166.8490361940779" y1="58.46507289511456" x2="79.35748753711947" y2="120.40071073859252" stroke="#e0aaff" stroke-width="0.5" opacity="0.3" />
<line x1="79.35748753711947" y1="120.40071073859252" x2="435.78429167729075" y2="155.47137644560564" stroke="#e0aaff" stroke-width="0.5" opacity="0.3" />
<line x1="733.7985754454655" y1="102.24765836893627" x2="481.66924988470794" y2="48.88089327950379" stroke="#e0aaff" stroke-width="0.5" opacity="0.3" />

  
    <text x="400" y="120" text-anchor="middle" class="name-text" fill="url(#textGrad)" filter="url(#textGlow)">
      JOEL HOOKS
    </text>
  
</svg>
