<svg xmlns="http://www.w3.org/2000/svg" viewBox="0 0 800 200" width="800" height="200">
  <rect width="800" height="200" fill="#05010d"/>
  
    <defs>
      <linearGradient id="grad1" x1="0%" y1="0%" x2="100%" y2="100%">
        <stop offset="0%" style="stop-color:#4a0080;stop-opacity:0.8" />
        <stop offset="100%" style="stop-color:#7b2cbf;stop-opacity:0.8" />
      </linearGradient>
      <linearGradient id="grad2" x1="100%" y1="0%" x2="0%" y2="100%">
        <stop offset="0%" style="stop-color:#9d4edd;stop-opacity:0.7" />
        <stop offset="100%" style="stop-color:#c77dff;stop-opacity:0.7" />
      </linearGradient>
      <linearGradient id="textGrad" x1="0%" y1="0%" x2="100%" y2="0%">
        <stop offset="0%" style="stop-color:#4a0080" />
        <stop offset="25%" style="stop-color:#7b2cbf" />
        <stop offset="50%" style="stop-color:#9d4edd" />
        <stop offset="75%" style="stop-color:#c77dff" />
        <stop offset="100%" style="stop-color:#e0aaff" />
      </linearGradient>
      <filter id="glow">
        <feGaussianBlur stdDeviation="5" result="coloredBlur"/>
        <feMerge>
          <feMergeNode in="coloredBlur"/>
          <feMergeNode in="SourceGraphic"/>
        </feMerge>
      </filter>
      <filter id="textGlow">
        <feGaussianBlur stdDeviation="2" result="coloredBlur"/>
        <feMerge>
          <feMergeNode in="coloredBlur"/>
          <feMergeNode in="SourceGraphic"/>
        </feMerge>
      </filter>
    </defs>
  
  
    <style>
      @keyframes float {
        0%, 100% { transform: translateY(0px); }
        50% { transform: translateY(-8px); }
      }
      @keyframes pulse {
        0%, 100% { opacity: 0.4; }
        50% { opacity: 0.9; }
      }
      @keyframes drift {
        0% { transform: translateX(0px); }
        50% { transform: translateX(10px); }
        100% { transform: translateX(0px); }
      }
      @keyframes shimmer {
        0% { opacity: 0.3; }
        50% { opacity: 1; }
        100% { opacity: 0.3; }
      }
      @keyframes glitch {
        0%, 100% { transform: translateX(0); }
        20% { transform: translateX(-2px); }
        40% { transform: translateX(2px); }
        60% { transform: translateX(-1px); }
        80% { transform: translateX(1px); }
      }
      @keyframes dataStream {
        0% { stroke-dashoffset: 0; }
        100% { stroke-dashoffset: -20; }
      }
      .float { animation: float 8s ease-in-out infinite; }
      .pulse { animation: pulse 8s ease-in-out infinite; }
      .drift { animation: drift 8s ease-in-out infinite; }
      .shimmer { animation: shimmer 3s ease-in-out infinite; }
      .glitch { animation: glitch 0.5s ease-in-out infinite; }
      .dataStream { animation: dataStream 2s linear infinite; }
      .name-text { 
        font-family: -apple-system, BlinkMacSystemFont, 'Segoe UI', Helvetica, Arial, sans-serif;
        font-weight: 700;
        font-size: 64px;
        letter-spacing: -2px;
      }
    </style>
  
  <path d="M 539.3926435512599 38.27935225216983 C 537.0824411490696 60.80433787726602, 577.5564870019876 92.35993707068066, 573.0603857583897 98.92370192088771 C 568.5642845147917 105.48746677109476, 530.0508965374157 80.24186412857418, 512.4160360896718 77.66194135341216 C 494.7811756419279 75.08201857825014, 478.46529813459244 90.00793012012264, 467.25122307192606 83.44416526991559 C 456.0371480092597 76.88040041970854, 440.88614381509404 49.08884802617228, 445.13158571367353 38.279352252169836 C 449.377027612253 27.469856478167394, 481.50979940073654 30.718929661031616, 492.7238744634029 18.58719062590094 C 503.9379495260693 6.455451590770268, 496.71641513831713 -25.375514882682488, 512.4160360896718 -34.51108195861421 C 528.1156570410265 -43.64664903454594, 582.4254989279331 -48.357950864820076, 586.921600171531 -36.226211829689404 C 591.417701415129 -24.094472794558733, 541.7028459534502 15.75436662707364, 539.3926435512599 38.27935225216983 Z" fill="#4a0080" opacity="0.1283295231458219" filter="url(#glow)" class="float" />
<path d="M 552.0601598784356 184.87933387910095 C 545.957588758722 211.98870815659473, 548.8157288214026 231.24654606848316, 535.5627607153278 247.8997433524415 C 522.3097926092531 264.55294063639985, 493.3734490416882 284.97422294093036, 472.54235124198726 284.7985175828511 C 451.7112534422863 284.62281222477185, 422.42419305357225 263.4987084879244, 410.5761739171222 246.845511203966 C 398.7281547806722 230.19231392000765, 405.2481760007368 209.32866589817237, 401.45423642328706 184.87933387910095 C 397.6602968458373 160.43000186002953, 375.96451731597364 120.70257691448758, 387.81253645242367 100.1495190895374 C 399.6605555888737 79.59646126458723, 441.814742745123 64.04532382974304, 472.54235124198726 61.560986929399945 C 503.2699597388515 59.07665002905684, 558.9252193275346 64.69043986252863, 572.1781874336093 85.24349768747881 C 585.431155539684 105.79655551242898, 558.1627309981492 157.76995960160718, 552.0601598784356 184.87933387910095 Z" fill="#c77dff" opacity="0.22003814426516813" filter="url(#glow)" class="float" />
<path d="M 409.26414278397004 148.15910030184364 C 405.0590219499393 167.57852756519654, 399.792822539502 186.26907427402418, 388.8899771678889 198.30998089897497 C 377.9871317962758 210.35088752392576, 359.13439826891863 212.89637752739034, 343.8470705542912 220.40454005154834 C 328.5597428396637 227.91270257570633, 312.27979913984603 244.30368757036265, 297.1660108801241 243.358956043923 C 282.0522226204021 242.41422451748335, 262.15148832720115 227.2940850684307, 253.16434099595932 214.73615089291047 C 244.1771936647175 202.17821671739026, 251.5162896488074 184.35993241925803, 243.24312689267316 168.01135099080165 C 234.96996413653892 151.66276956234526, 198.49189838991717 127.14889826902366, 203.52536445915393 116.64466232217221 C 208.5588305283907 106.14042637532076, 257.3173944736851 111.98520013261748, 273.4439233080937 104.98593530969293 C 289.5704521425023 97.98667048676839, 287.6109019100277 81.55227858985181, 300.28453746560547 74.6490733846249 C 312.95817302118326 67.74586817939799, 330.51304252381556 62.375980089292675, 349.48573664156027 63.56670407833144 C 368.458430759305 64.7574280673702, 404.15763448167206 67.6946846149388, 414.12070217207366 81.7934173188575 C 424.08376986247526 95.89215002277619, 413.4692636180008 128.73967303849074, 409.26414278397004 148.15910030184364 Z" fill="#4a0080" opacity="0.18565266662355817" filter="url(#glow)" class="float" />
<path d="M 630.7824019774259 22.995929349525255 C 629.5606386152474 45.42479126436699, 596.9656412309893 72.18653858040828, 578.07575015015 87.20697153428068 C 559.1858590693108 102.22740448815308, 539.277681792821 108.09218632447501, 517.4430554923908 113.11852707275965 C 495.6084291919606 118.14486782104429, 464.17779315028287 127.12196870005239, 447.06799234756886 117.36501602398855 C 429.95819154485486 107.6080633479247, 419.3956650801715 75.28850315101636, 414.7842506761069 54.57681101637658 C 410.17283627204233 33.865118881736805, 413.84358375177374 13.782898594826154, 419.39950592318127 -6.905136783850082 C 424.9554280945888 -27.59317216252632, 432.25621569695164 -62.21981452203731, 448.1197837045523 -69.55140125568083 C 463.9833517121529 -76.88298798932435, 491.69982286567364 -54.592190735863056, 514.5809139687851 -50.894657185711196 C 537.4620050718966 -47.197123635559336, 566.0394156551143 -59.68129771064241, 585.4063303232211 -47.36619995476967 C 604.7732449913279 -35.05110219889693, 632.0041653396045 0.5670674346835263, 630.7824019774259 22.995929349525255 Z" fill="#e0aaff" opacity="0.21094707543095748" filter="url(#glow)" class="float" />
<path d="M 631.2122635775627 67.63394413787015 L 631.2122635775627 67.63394413787015 L 631.5810445419365 67.66620829157702 L 631.9413948479346 67.76250965331496 L 632.2849908017133 67.92138053128019 L 632.603721498679 68.14039340339039 L 632.8897923797293 68.41618866509606 L 633.1358254125635 68.74451308111075 L 633.334954824648 69.12026855037102 L 633.480917358016 69.53757068831743 L 633.5681360697845 69.98981663009197 L 633.5917967656218 70.46976136343675 L 633.5479162257783 70.9696018118613 L 633.4334014640439 71.48106780787174 L 633.2460993483501 71.99551902350358 L 632.9848360068836 72.50404686177707 L 632.649445544613 72.99758025862343 L 632.2407877011212 73.46699430084573 L 631.7607541905795 73.90322053222611 L 631.2122635775627 74.29735779731377 L 630.5992446571321 74.64078246097387 L 629.9266084231145 74.92525684158961 L 629.2002088236924 75.14303470692474 L 628.4267926172013 75.2869627040096 L 627.6139387523235 75.35057662783697 L 626.7699878046003 75.32819147787335 L 625.9039621043453 75.21498430603185 L 625.025477288609 75.0070689243433 L 624.1446461008973 74.70156161453562 L 623.2719753459762 74.29663706443566 L 622.4182569824951 73.79157384680236 L 621.5944544025587 73.18678885407316 L 620.8115850041291 72.48386020667081 L 620.0806002086325 71.68553826203214 L 619.4122641119054 70.79574446538068 L 618.8170319812396 69.81955790043196 L 618.3049298244769 68.76318951761068 L 617.8854362586754 67.63394413787015 L 617.5673678957291 66.44017045071588 L 617.3587694404957 65.1911993444187 L 617.2668096636041 63.897271023539524 L 617.2976843664001 62.569451482667645 L 617.4565273997957 61.219539014617645 L 617.7473307325571 59.859961535185924 L 618.1728744883245 58.50366560393616 L 618.7346677850696 57.16399811041006 L 619.4329011164535 55.85458167676102 L 620.2664109124908 54.5891849002638 L 621.2326568079139 53.38158862172614 L 622.3277120316378 52.24544945786374 L 623.5462672107487 51.194161876636464 L 624.8816477585596 50.240720123916844 L 626.3258448895918 49.397581327308984 L 627.8695601759975 48.676531108199526 L 629.5022634310984 48.08855302605449 L 631.2122635775627 47.6437031595393 L 632.9867920314407 47.35099109730673 L 634.8120980100174 47.21826856745564 L 636.6735550523537 47.252126879007676 L 638.5557779276063 47.457804281684304 L 640.4427489988285 47.83910427230306 L 642.3179530099687 48.39832578786214 L 644.1645191722132 49.13620612755558 L 645.9653693435291 50.05187733935723 L 647.7033710231154 51.142836692317374 L 649.3614938211889 52.404931734291836 L 650.9229680147831 53.832360307504814 L 652.3714437625715 55.417685762223506 L 653.6911495265965 57.15186747304287 L 654.8670482365392 59.024306624025904 L 655.8849897330277 61.02290708943904 L 656.7318580405808 63.134151097301675 L 657.3957120481082 65.34318922468222 L 657.8659182153372 67.63394413787015 L 658.1332739768559 69.98922735847182 L 658.1901205813247 72.3908682093282 L 658.0304441813291 74.81985397312134 L 657.6499640787717 77.2564801827549 L 657.0462071309299 79.68050985714923 L 656.2185674325731 82.07134039999795 L 655.1683505089537 84.40817679323723 L 653.8988013820955 86.67020964234301 L 652.4151160075592 88.83679656786654 L 650.7244357196474 90.88764538751624 L 648.8358244686445 92.802997496167 L 646.7602287829311 94.56380982788136 L 644.5104205404033 96.15193377470408 L 642.100922786248 97.55028944186982 L 639.5479189864541 98.74303363823918 L 636.8691462571345 99.7157200342358 L 634.0837732574744 100.45544996714548 L 631.2122635775627 100.95101243508822 L 628.2762255902373 101.19301189589325 L 625.2982498671013 101.1739825749797 L 622.3017353818512 100.88848808654049 L 619.3107058378368 100.33320528410238 L 616.3496175602703 99.5069913790375 L 613.4431604857131 98.41093349788297 L 610.616053861479 97.0483799903376 L 607.8928383345834 95.42495294842283 L 605.2976661631226 93.5485415523102 L 602.8540913218967 91.42927601846128 L 600.5848612981894 89.07948208966862 L 598.511712382549 86.51361617296038 L 596.6551702529287 83.74818139872399 L 595.0343576285397 80.80162504139663 L 593.6668107322897 77.69421790722184 L 592.5683062478495 74.44791645644523 L 591.7527003895575 71.08620858450548 L 591.231781620901 67.63394413787016 L 591.0151384608097 64.1171513838211 L 591.1100437071057 60.56284078840547 L 591.5213562839884 56.99879758169831 L 592.2514417863073 53.45336470330318 L 593.3001126485951 49.9552178225645 L 594.6645887125475 46.53313421629866 L 596.3394788040188 43.21575736106999 L 598.3167837609901 40.03135915638451 L 600.585921178679 37.00760173898641 L 603.1337719584652 34.17130087618428 L 605.9447485650477 31.54819293742046 L 609.0008847127506 29.16270743785413 L 612.2819460186955 27.03774712543595 L 615.765560979195 25.194477543824064 L 619.4273714477507 23.652127947693238 L 623.2412016199843 22.427805374809445 L 627.1792443642037 21.5363235911351 L 631.2122635775627 20.99004852176484 L 635.3098110983354 20.79876166238735 L 639.4404565660307 20.969542834065543 L 643.5720284941947 21.506673499391916 L 647.6718647069707 22.41156170159153 L 651.7070701908816 23.682689521102517 L 655.6447803288559 25.315583767852516 L 659.4524274150795 27.302810443249875 L 663.0980082975547 29.633993315277692 L 666.55035096089 32.2958567545428 L 669.7793778452684 35.27229278026627 L 672.7563636990888 38.54445206463855 L 675.4541857825811 42.090858443336295 L 677.847564277797 45.88754628098971 L 679.913290816632 49.90821984466132 L 681.6304431126435 54.12443364759787 L 682.9805837739709 58.505792541288415 L 683.9479414830275 63.0201701577875 L 684.5195728531116 67.63394413787012 L 684.6855034117754 72.31224642536658 L 684.4388463147147 77.01922676534154 L 683.7758975609448 81.71832741496247 L 682.6962066588645 86.37256696211935 L 681.2026218821304 90.94483104920245 L 679.3013094525827 95.39816771888516 L 677.0017461932595 99.6960850361034 L 674.3166854061749 103.80284859636862 L 671.2620959453337 107.6837765056411 L 667.857074673673 111.30552941159576 L 664.1237327115108 114.63639318047274 L 660.0870561018185 117.6465518478909 L 655.7747417324564 120.30834852590459 L 651.2170095656126 122.59653202196259 L 646.4463924282953 124.48848701785491 L 641.4975048131478 125.96444576762588 L 636.4067923243691 127.00767940206487 L 631.2122635775628 127.60466707286268 L 625.9532065233426 127.74524133081263 L 620.6698913110881 127.4227083083698 L 615.40326194001 126.63394146615624 L 610.1946190584724 125.37944786419516 L 605.0852963682172 123.66340613023803 L 600.1163331668258 121.49367551789254 L 595.3281456186129 118.88177567464334 L 590.7601993805579 115.84283697250237 L 586.450686225348 112.39552149008479 L 582.4362072978173 108.5619149724869 L 578.7514656138836 104.36739033253478 L 575.4289703625395 99.84044349184762 L 572.4987555017282 95.01250259077727 L 569.9881150484471 89.91771182076116 L 567.9213573526739 84.59269134906302 L 566.3195805144594 79.07627501245862 L 565.2004709546381 73.4092276514003 L 564.5781269831265 67.63394413787019 L 564.4629090258903 61.794132316926444 L 564.8613179737155 55.93448223239223 L 565.7759029043726 50.100324139857264 L 567.2051992062145 44.33727792393872 L 569.1436978973948 38.69089663051125 L 571.5818466925379 33.20630689741154 L 574.5060831197131 27.927849118203717 L 577.8988997369106 22.898720202358966 L 581.7389412409042 18.160621801212002 L 586.0011330044395 13.753416852104856 L 590.6568403221816 9.714797253114703 L 595.6740573938633 6.079965417844605 L 601.0176248266423 2.8813323742354413 L 606.6494741998305 0.1482349637313547 L 612.5288980059095 -2.0933254319225227 L 618.6128430639709 -3.820920358580622 L 624.8562252973088 -5.015905843784267 L 631.2122635775628 -5.663606116009618 L 637.6328301652302 -5.753467772532048 L 644.0688151220438 -5.279182899324567 L 650.4705019360358 -4.238779880223845 L 656.7879514863351 -2.6346808785012996 L 662.9713913829347 -0.4737252300980117 L 668.9716076477432 2.2328417478429543 L 674.7403356579456 5.46941475894409 L 680.2306472515803 9.216109291198244 L 685.3973308986646 13.448876816768099 L 690.1972618693479 18.139653826240675" fill="none" stroke="#c77dff" stroke-width="1" opacity="0.3" class="drift" />
<path d="M 659.7151233736301 112.88614076913595 L 659.7151233736301 112.88614076913595 L 660.3791329677316 112.94423408109228 L 661.0279627163776 113.1176297665979 L 661.6466253693995 113.40368516908146 L 662.2205168149061 113.79802940688616 L 662.7356025377635 114.29461333466892 L 663.1785980013311 114.88577877777054 L 663.5371410197224 115.56234633610032 L 663.7999542663342 116.3137208646255 L 663.9569961611018 117.1280135566076 L 663.999598492992 117.99217938501604 L 663.9205892645741 118.8921684987096 L 663.7143993908993 119.81309002453787 L 663.3771520440159 120.73938659588256 L 662.9067336057559 121.65501781360173 L 662.3028453733577 122.54365074798291 L 661.5670353533258 123.38885551111588 L 660.7027096768878 124.17430386886153 L 659.7151233736301 124.8839688209435 L 658.6113504464598 125.50232305706454 L 657.4002333990106 126.01453419661085 L 656.0923125740115 126.4066547395217 L 654.699735866004 126.6658046961536 L 653.2361495721784 126.78034492414919 L 651.7165713390918 126.7400392799398 L 650.1572463487574 126.53620379089423 L 648.5754880632891 126.16184117042418 L 646.9895050112152 125.6117591315509 L 645.4182152491659 124.88267110334937 L 643.8810502683906 123.97327811798834 L 642.3977502351254 122.88433081230889 L 640.9881525560036 121.61867067544038 L 639.6719758434226 120.18124987113762 L 638.4686014201668 118.57912916853657 L 637.3968545469228 116.82145372598912 L 636.4747875800775 114.91940668760758 L 635.7194672700151 112.88614076913595 L 635.1467683918745 110.73668822675167 L 634.7711758614278 108.48784981735888 L 634.605597428628 106.15806356984432 L 634.6611889608707 103.76725439163386 L 634.947194227737 101.33666573176558 L 635.4708009797234 98.88867470869381 L 636.237014976206 96.44659228635481 L 637.2485534637577 94.03445024394345 L 638.5057594362719 91.67677683177772 L 640.0065378245653 89.39836313608754 L 641.7463145668694 87.2240222882304 L 643.7180193045534 85.17834374752826 L 645.912092231407 83.28544496062948 L 648.3165154017526 81.56872275318675 L 650.9168685745565 80.05060684105626 L 653.6964094396194 78.75231785770117 L 656.6361778399446 77.6936322817562 L 659.7151233736301 76.89265661371334 L 662.9102555312284 76.36561309355318 L 666.1968153025648 76.12663917220618 L 669.5484669725948 76.18760284951748 L 672.9375086210082 76.55793587063485 L 676.3350996469193 77.24448663236285 L 679.711503459976 78.25139449212632 L 683.0363433143197 79.57998699604576 L 686.2788691136741 81.22870135067939 L 689.4082328859316 83.19303125683442 L 692.3937705152628 85.46550000521958 L 695.2052872302016 88.03566050446676 L 697.8133442783408 90.89012267415544 L 700.1895441730165 94.01260839099407 L 702.306811875321 97.38403392738239 L 704.1396692763262 100.9826195703892 L 705.6645003697923 104.78402585796763 L 706.859804554837 108.76151562023638 L 707.7064355808603 112.88614076913593 L 708.18782374304 117.1269525419482 L 708.2901790552874 121.45123367522811 L 708.002673267865 125.8247507677737 L 707.3175987578729 130.21202488638994 L 706.2305025012831 134.57661827834374 L 704.7402935337427 138.8814348813856 L 702.8493225223863 143.08903216773385 L 700.5634323006709 147.16194172403138 L 697.8919784608751 151.06299585638072 L 694.847819352398 154.75565741935267 L 691.4472750962077 158.2043500013734 L 687.7100554945143 161.37478555694943 L 683.6591569876907 164.23428655940228 L 679.3207290852597 166.75209975656858 L 674.7239109720499 168.89969864644837 L 669.900639261956 170.65107185002555 L 664.8854281377437 171.98299464416988 L 659.7151233736301 172.87528102817365 L 654.4286319856039 173.3110138323729 L 649.0666294903805 173.27675053552053 L 643.6712469753194 172.76270263798716 L 638.2857403865003 171.7628866391205 L 632.9541446285037 170.27524488766895 L 627.7209152354768 168.30173481235138 L 622.630560517124 165.8483852935581 L 617.7272672038832 162.92531920476085 L 613.054522711442 159.54674143132405 L 608.6547372148293 155.73089196275532 L 604.5688687657267 151.49996394962196 L 600.8360547027138 146.87998691592395 L 597.4932525924838 141.9006756191152 L 594.5748939004558 136.5952453506414 L 592.1125535217013 131.00019476722883 L 590.1346382080131 125.15505763461934 L 588.6660968047692 119.10212514846349 L 587.7281550627849 112.88614076913598 L 587.3380776165661 106.5539697658958 L 587.5089595225181 100.1542459087287 L 588.2495495301627 93.73699797115196 L 589.5641070179039 87.35325891213013 L 591.4522942642172 81.05466078809081" fill="none" stroke="#7b2cbf" stroke-width="1" opacity="0.3" class="drift" />
<circle cx="795.6435746167649" cy="149.76096478089698" r="0.5713811458667015" fill="white" opacity="0.5524364596456557"  style="animation-delay: 3.2578037134712234s" />
<circle cx="401.57524624799964" cy="160.43746276466604" r="0.6097748349743629" fill="white" opacity="0.6236248847257695"  style="animation-delay: 4.398902905127907s" />
<circle cx="794.5402841258039" cy="32.78360874954598" r="1.0576978683905605" fill="white" opacity="0.3116878748609519"  style="animation-delay: 1.6020793034227387s" />
<circle cx="795.497480573605" cy="102.1106763022877" r="0.5646055577510279" fill="white" opacity="0.37142794355632686"  style="animation-delay: 0.16694607695861285s" />
<circle cx="674.5221122266796" cy="9.683366417288886" r="0.7880474179399252" fill="white" opacity="0.7214599107237443"  style="animation-delay: 1.493680794840222s" />
<circle cx="318.4678071538814" cy="138.2236146819438" r="1.6274545938467528" fill="white" opacity="0.30093609920578407" class="shimmer" style="animation-delay: 4.522072683516103s" />
<circle cx="283.4417094694626" cy="20.297947973939312" r="0.8499022971370427" fill="white" opacity="0.38693402570964636" class="shimmer" style="animation-delay: 0.8592891625858423s" />
<circle cx="728.8313799619361" cy="18.81823193442753" r="1.1415142316795555" fill="white" opacity="0.4548379286113284"  style="animation-delay: 4.830338223227253s" />
<circle cx="729.5295064884023" cy="58.997209896552725" r="1.6631310687841783" fill="white" opacity="0.48805118449818957" class="shimmer" style="animation-delay: 0.25290346958852794s" />
<circle cx="165.8116674830664" cy="6.959109109381378" r="1.6539539050446714" fill="white" opacity="0.3194683557408879"  style="animation-delay: 0.1968510692577108s" />
<circle cx="331.2468924040568" cy="146.12974756180122" r="0.959081461195343" fill="white" opacity="0.34370089229265094"  style="animation-delay: 1.517077863163061s" />
<circle cx="459.34503415913053" cy="64.1106975608801" r="0.9960126124785779" fill="white" opacity="0.40859384673057814"  style="animation-delay: 3.15303659424357s" />
<circle cx="547.6589417879312" cy="112.66688388783912" r="1.0844403557351656" fill="white" opacity="0.7795060520489234"  style="animation-delay: 1.6758267156135376s" />
<circle cx="223.3264830807659" cy="126.9282744078065" r="0.8673474535050796" fill="white" opacity="0.5895256200655505"  style="animation-delay: 3.5341032403346686s" />
<circle cx="226.45267573180678" cy="68.67932485678732" r="1.2994355428528135" fill="white" opacity="0.4964611473429455" class="shimmer" style="animation-delay: 2.2418748596357894s" />
<circle cx="644.5409626219625" cy="29.005637174383292" r="0.5135835845903952" fill="white" opacity="0.4870336863383527" class="shimmer" style="animation-delay: 0.7679281641585889s" />
<circle cx="196.34573693489585" cy="134.71879269542976" r="0.6746610808784812" fill="white" opacity="0.49704849437445436"  style="animation-delay: 0.3903461460423574s" />
<circle cx="193.96574834575517" cy="4.609683905213169" r="0.5573528163921965" fill="white" opacity="0.5718636815721008"  style="animation-delay: 0.7489613321719535s" />
<circle cx="32.33076601992284" cy="70.99758301634802" r="1.7659142376191883" fill="white" opacity="0.47888628058053745"  style="animation-delay: 3.1916283063609905s" />
<circle cx="560.5364127563699" cy="167.8820556808039" r="1.940504234557254" fill="white" opacity="0.5553991271524354"  style="animation-delay: 2.5969416733096073s" />
<circle cx="461.5555366612906" cy="137.84608219390066" r="1.3910012333498134" fill="white" opacity="0.31146610481008" class="shimmer" style="animation-delay: 0.669870328782527s" />
<circle cx="520.539904013729" cy="62.79861524204367" r="0.628651956350609" fill="white" opacity="0.6700004846290559"  style="animation-delay: 0.21080379319632359s" />
<circle cx="350.59516710918166" cy="142.43361471865984" r="1.999866108597773" fill="white" opacity="0.7221686433796874"  style="animation-delay: 2.9968147774666862s" />
<circle cx="147.94620801442625" cy="50.254677833870964" r="1.9029761854011258" fill="white" opacity="0.4478482021623876"  style="animation-delay: 2.8129001112646423s" />
<circle cx="387.282431256223" cy="42.5334898384699" r="1.1681851592751427" fill="white" opacity="0.644530361976261"  style="animation-delay: 0.46348521625243944s" />
<circle cx="221.69312282638245" cy="145.01943372460025" r="0.6322316373694187" fill="white" opacity="0.4654294113163309" class="shimmer" style="animation-delay: 1.3964585366983495s" />
<circle cx="394.5240430357531" cy="195.05667099036637" r="0.8778833355290039" fill="white" opacity="0.45686436476175424"  style="animation-delay: 4.513598652360317s" />
<circle cx="584.6593902900325" cy="142.36683642557466" r="0.6683994654330261" fill="white" opacity="0.44164577336289496" class="shimmer" style="animation-delay: 1.9598154837076764s" />
<circle cx="415.71489938825044" cy="105.39139282999854" r="1.054093485774412" fill="white" opacity="0.5680468782581609"  style="animation-delay: 4.623920279042272s" />
<circle cx="389.3941972765541" cy="66.42238545483737" r="1.4394686588433079" fill="white" opacity="0.5809985809892151" class="shimmer" style="animation-delay: 0.6881584995421508s" />
<circle cx="674.6359329767389" cy="58.03007470632488" r="1.4700239693024941" fill="white" opacity="0.5799398552490183"  style="animation-delay: 1.5541133615714398s" />
<circle cx="192.745380610177" cy="52.75905595319719" r="1.8606918906627763" fill="white" opacity="0.6692374593741914" class="shimmer" style="animation-delay: 4.1234443508349985s" />
<circle cx="175.30740128627187" cy="93.135895970524" r="1.250798727654443" fill="white" opacity="0.44097201842787975" class="shimmer" style="animation-delay: 1.2977837086901756s" />
<circle cx="616.8716248956634" cy="187.7109400291563" r="1.4918175240041571" fill="white" opacity="0.7933483793043159"  style="animation-delay: 3.7239237252901116s" />
<circle cx="182.3460073850123" cy="192.87048449493923" r="1.944548230193889" fill="white" opacity="0.6581423633777392"  style="animation-delay: 1.7528381319667874s" />
<circle cx="94.56681632763005" cy="21.266850528170387" r="1.643453557762105" fill="white" opacity="0.41265480820428785" class="shimmer" style="animation-delay: 3.8277626320313987s" />
<circle cx="208.2911226693591" cy="41.70214424257313" r="1.0125454892947199" fill="white" opacity="0.6402158775244058" class="shimmer" style="animation-delay: 1.1040795884260468s" />
<circle cx="47.510299651018606" cy="35.89113003244293" r="0.8402055079071112" fill="white" opacity="0.6027195488071004" class="shimmer" style="animation-delay: 2.8410791850687422s" />
<circle cx="152.3640853486924" cy="185.20193814532306" r="1.6064559899539959" fill="white" opacity="0.34304097833501074"  style="animation-delay: 4.4047263800716365s" />
<circle cx="481.7375591655809" cy="32.82857701675628" r="0.7410963650525557" fill="white" opacity="0.3940741960400424"  style="animation-delay: 1.9318934173466473s" />
<circle cx="481.2286180413052" cy="195.56860935557637" r="1.9943626196277968" fill="#4a0080" opacity="0.8" filter="url(#glow)" class="shimmer" style="animation-delay: 0.9003167875989997s" />
<circle cx="720.3686393914745" cy="54.70478351448658" r="1.3278254358713153" fill="#4a0080" opacity="0.8" filter="url(#glow)" class="shimmer" style="animation-delay: 2.2129751499180124s" />
<circle cx="320.3358570558759" cy="55.999865939025774" r="1.8317523704360634" fill="#c77dff" opacity="0.8" filter="url(#glow)" class="shimmer" style="animation-delay: 1.1077929483889248s" />
<circle cx="39.869212396244436" cy="4.57397322785944" r="1.1679971484416551" fill="#4a0080" opacity="0.8" filter="url(#glow)" class="shimmer" style="animation-delay: 2.569692491169697s" />
<circle cx="104.3293758947888" cy="152.68235740219467" r="2.139342654357594" fill="#4a0080" opacity="0.8" filter="url(#glow)" class="shimmer" style="animation-delay: 2.043023306387612s" />
<circle cx="748.7608231283351" cy="91.24303357907348" r="1.79066824763198" fill="#4a0080" opacity="0.8" filter="url(#glow)" class="shimmer" style="animation-delay: 0.40493894601221325s" />
<circle cx="341.01575175582593" cy="55.210591202665825" r="1.9332183273247354" fill="#9d4edd" opacity="0.8" filter="url(#glow)" class="shimmer" style="animation-delay: 1.500544136819635s" />
<circle cx="248.29556803616288" cy="88.91431677063028" r="2.9801031982613715" fill="#c77dff" opacity="0.8" filter="url(#glow)" class="shimmer" style="animation-delay: 1.226750217886823s" />
<line x1="126.91508431023296" y1="122.09912971047048" x2="162.8647004911049" y2="163.02192716422385" stroke="#e0aaff" stroke-width="0.5" opacity="0.3" />
<line x1="162.8647004911049" y1="163.02192716422385" x2="231.23091653301867" y2="81.0956775077779" stroke="#e0aaff" stroke-width="0.5" opacity="0.3" />
<line x1="231.23091653301867" y1="81.0956775077779" x2="525.7344948012092" y2="130.07332307159575" stroke="#e0aaff" stroke-width="0.5" opacity="0.3" />

  
    <text x="400" y="120" text-anchor="middle" class="name-text" fill="url(#textGrad)" filter="url(#textGlow)">
      JOEL HOOKS
    </text>
  
</svg>
