<svg xmlns="http://www.w3.org/2000/svg" viewBox="0 0 800 200" width="800" height="200">
  <rect width="800" height="200" fill="#05010d"/>
  
    <defs>
      <linearGradient id="grad1" x1="0%" y1="0%" x2="100%" y2="100%">
        <stop offset="0%" style="stop-color:#4a0080;stop-opacity:0.8" />
        <stop offset="100%" style="stop-color:#7b2cbf;stop-opacity:0.8" />
      </linearGradient>
      <linearGradient id="grad2" x1="100%" y1="0%" x2="0%" y2="100%">
        <stop offset="0%" style="stop-color:#9d4edd;stop-opacity:0.7" />
        <stop offset="100%" style="stop-color:#c77dff;stop-opacity:0.7" />
      </linearGradient>
      <linearGradient id="textGrad" x1="0%" y1="0%" x2="100%" y2="0%">
        <stop offset="0%" style="stop-color:#4a0080" />
        <stop offset="25%" style="stop-color:#7b2cbf" />
        <stop offset="50%" style="stop-color:#9d4edd" />
        <stop offset="75%" style="stop-color:#c77dff" />
        <stop offset="100%" style="stop-color:#e0aaff" />
      </linearGradient>
      <filter id="glow">
        <feGaussianBlur stdDeviation="5" result="coloredBlur"/>
        <feMerge>
          <feMergeNode in="coloredBlur"/>
          <feMergeNode in="SourceGraphic"/>
        </feMerge>
      </filter>
      <filter id="textGlow">
        <feGaussianBlur stdDeviation="2" result="coloredBlur"/>
        <feMerge>
          <feMergeNode in="coloredBlur"/>
          <feMergeNode in="SourceGraphic"/>
        </feMerge>
      </filter>
    </defs>
  
  
    <style>
      @keyframes float {
        0%, 100% { transform: translateY(0px); }
        50% { transform: translateY(-8px); }
      }
      @keyframes pulse {
        0%, 100% { opacity: 0.4; }
        50% { opacity: 0.9; }
      }
      @keyframes drift {
        0% { transform: translateX(0px); }
        50% { transform: translateX(10px); }
        100% { transform: translateX(0px); }
      }
      @keyframes shimmer {
        0% { opacity: 0.3; }
        50% { opacity: 1; }
        100% { opacity: 0.3; }
      }
      @keyframes glitch {
        0%, 100% { transform: translateX(0); }
        20% { transform: translateX(-2px); }
        40% { transform: translateX(2px); }
        60% { transform: translateX(-1px); }
        80% { transform: translateX(1px); }
      }
      @keyframes dataStream {
        0% { stroke-dashoffset: 0; }
        100% { stroke-dashoffset: -20; }
      }
      .float { animation: float 8s ease-in-out infinite; }
      .pulse { animation: pulse 8s ease-in-out infinite; }
      .drift { animation: drift 8s ease-in-out infinite; }
      .shimmer { animation: shimmer 3s ease-in-out infinite; }
      .glitch { animation: glitch 0.5s ease-in-out infinite; }
      .dataStream { animation: dataStream 2s linear infinite; }
      .name-text { 
        font-family: -apple-system, BlinkMacSystemFont, 'Segoe UI', Helvetica, Arial, sans-serif;
        font-weight: 700;
        font-size: 64px;
        letter-spacing: -2px;
      }
    </style>
  
  <path d="M 634.0923456406622 87.21440310330406 C 637.8872189914478 109.18783801132689, 660.18175826776 144.20803996507146, 651.5094981362403 160.45115887491028 C 642.8372380047206 176.6942777847491, 602.8556865415333 184.3335452097777, 582.0587848515441 184.673116562337 C 561.261883161555 185.01268791489628, 548.4681032147508 162.2032006046286, 526.7280879963052 162.48858699026601 C 504.98807277785966 162.77397337590344, 463.1694277055344 195.00988746535432, 451.6186935408707 186.38543487616153 C 440.067959376207 177.76098228696873, 455.7116150902822 130.9729960939183, 457.42368300832317 110.74187145510916 C 459.13575092636415 90.51074681630003, 463.9406132141984 86.69714769442135, 461.8911010491165 64.99868704330672 C 459.84158888403465 43.30022639219209, 434.1796631482188 -11.584977429868776, 445.1266100178321 -19.4488924515786 C 456.07355688744536 -27.312807473288427, 506.7858215586214 11.824921618887583, 527.572782266796 17.815196913047757 C 548.3597429749706 23.80547220720793, 552.9871283060912 14.693533894428171, 569.8483742668797 16.492759313382436 C 586.7096202276681 18.2919847323367, 618.0329294692297 16.82360879511974, 628.7402580315268 28.610549426773346 C 639.4475865938239 40.39749005842695, 630.2974722898766 65.24096819528124, 634.0923456406622 87.21440310330406 Z" fill="#7b2cbf" opacity="0.1928643556262745" filter="url(#glow)" class="float" />
<path d="M 781.0251987170791 195.27508510946535 C 788.3076595522855 218.91055763913124, 791.9155702839738 258.88568492887623, 779.2389326075305 282.0545552143956 C 766.5622949310872 305.2234254999149, 729.3916106065469 334.8426105013074, 704.9653726584191 334.28830682258126 C 680.5391347102914 333.73400314385515, 660.1265606676932 287.42703159174073, 632.6815049187642 278.72873314203883 C 605.2364491698352 270.03043469233694, 557.6176512293544 296.0074574631323, 540.2950381648449 282.09851612437006 C 522.9724251003354 268.1895747856078, 524.2519010822185 220.9512008243608, 528.7458265317076 195.27508510946538 C 533.2397519811967 169.59896939456996, 552.1579619995405 148.78932737295042, 567.2585908617797 128.04182183499748 C 582.3592197240189 107.29431629704455, 596.8100179850823 81.4867620006848, 619.3495997051426 70.79005188174779 C 641.889181425203 60.093341762810766, 683.1303198669502 52.28628309559994, 702.4960811821418 63.86156112137536 C 721.8618424973333 75.43683914715078, 722.4559813404694 118.3394660383853, 735.5441675962923 140.2417200364003 C 748.6323538521151 162.1439740344153, 773.7427378818727 171.63961257979946, 781.0251987170791 195.27508510946535 Z" fill="#7b2cbf" opacity="0.17445862328701656" filter="url(#glow)" class="float" />
<path d="M 498.0675014280741 52.76972514196423 C 502.8956316933232 75.93813893743261, 536.4136793058456 127.41910961791743, 527.2849884449694 136.75935732411665 C 518.1562975840932 146.09960503031587, 467.8446857374564 112.25842596523752, 443.29535626281694 108.81121137915954 C 418.74602678817746 105.36399679308157, 401.1864936596422 125.41631751384801, 379.9890115971324 116.07606980764879 C 358.79152953462255 106.73582210144957, 317.3074572709619 75.06883341372972, 316.11046388775793 52.769725141964244 C 314.91347050455397 30.470616870198768, 351.6095692353988 2.6533492265984897, 372.80705129790863 -17.71857982294408 C 394.00453336041846 -38.09050887248665, 422.37716367022256 -72.03975821766625, 443.29535626281694 -69.46184915529116 C 464.2135488554113 -66.88394009291608, 489.18751599259855 -22.623054498236172, 498.31620685347474 -2.2511254486936068 C 507.44489771435093 18.12080360084896, 493.23937116282497 29.60131134649585, 498.0675014280741 52.76972514196423 Z" fill="#e0aaff" opacity="0.1334398437667724" filter="url(#glow)" class="float" />
<path d="M 892.5721816073009 10.414476555278984 C 886.8894100409153 29.754027310962613, 852.3307402981304 45.45631866382963, 835.698166809264 54.12789424607334 C 819.0655933203975 62.79946982831705, 808.6753080817543 57.231084005643815, 792.7767406741023 62.443930048741265 C 776.8781732664502 67.65677609183871, 759.97073969587 87.47596605530465, 740.3067623633516 85.40497050465802 C 720.6427850308332 83.3339749540114, 684.6709910914757 68.73810799813745, 674.7928766789922 50.01795674486148 C 664.9147622665088 31.297805491585507, 671.6939943731516 -5.0891354919724705, 681.0380758884506 -26.915937014997805 C 690.3821574037497 -48.74273853802314, 711.3626479555421 -73.5498833731234, 730.8573657707866 -80.94285239329052 C 750.3520835860311 -88.33582141345765, 774.8501443737857 -74.44599148687763, 798.0063827799174 -71.27375113600061 C 821.1626211860491 -68.1015107851236, 854.0338297363467 -75.5241149032417, 869.7947962075772 -61.909410288028425 C 885.5557626788077 -48.29470567281516, 898.2549531736864 -8.925074200404644, 892.5721816073009 10.414476555278984 Z" fill="#9d4edd" opacity="0.14665659817391394" filter="url(#glow)" class="float" />
<path d="M 163.5610463854823 65.65646080167829 L 163.5610463854823 65.65646080167829 L 163.89456541052544 65.68563993543978 L 164.2204598962523 65.77273319507073 L 164.53120204019024 65.91641322588977 L 164.8194564827257 66.11448461957492 L 165.07817396154994 66.36390900879675 L 165.30068191387483 66.66083984228756 L 165.48077105564653 67.00066648701443 L 165.61277700639937 67.37806720896492 L 165.69165607697167 67.78707049316763 L 165.7130543945906 68.22112407782461 L 165.67336960529624 68.67317099765063 L 165.56980446670084 69.13573185846334 L 165.40041172399032 69.60099249945411 L 165.16412974812053 70.0608961420302 L 164.86080850653968 70.5072390752179 L 164.49122553262183 70.9317688878381 L 164.0570916594277 71.32628422741168 L 163.5610463854823 71.68273504533386 L 163.00664284401392 71.99332227749795 L 162.39832245155793 72.25059590937805 L 161.741379416002 72.44755038463374 L 161.0419153870508 72.57771633651701 L 160.3067846327374 72.63524765158935 L 159.54353022304528 72.6150029152484 L 158.76031179499614 72.51262033797906 L 157.96582556180076 72.32458531965871 L 157.16921731101428 72.04828987614631 L 156.37998921227262 71.6820832271815 L 155.60790132337343 71.22531292664227 L 154.8628687435197 70.67835600472459 L 154.15485541386306 70.04263968581276 L 153.4937656075351 69.32065134485138 L 152.88933418369518 68.51593746800452 L 152.35101670239274 67.63309148934975 L 151.88788050897242 66.67773048333056 L 151.50849789817119 65.65646080167829 L 151.22084245888612 64.57683285250303 L 151.03218968085278 63.447285327221955 L 150.94902287427934 62.27707928692912 L 150.97694541304827 61.07622262271193 L 151.12060026172782 59.855385503306906 L 151.38359768673465 58.62580751741346 L 151.768451983045 57.399197306042055 L 152.27652797043854 56.18762556160183 L 152.9079979280356 55.003412344231585 L 153.66180954358418 53.859009731405244 L 154.53566535536828 52.766880873432854 L 155.52601406060822 51.7393765745381 L 156.62805395572138 50.78861055621561 L 157.83574866177435 49.92633458613575 L 159.14185517388725 49.16381467164362 L 160.5379641572789 48.51170952165893 L 162.01455229612316 47.97995247439188 L 163.5610463854823 47.5776380707116 L 165.16589874236445 47.3129144243056 L 166.8166734004706 47.19288250011898 L 168.50014244550033 47.223503362227774 L 170.20239174498352 47.40951439164894 L 171.90893522948016 47.754355404080364 L 173.6048367915749 48.260105517753054 L 175.27483878626862 48.92743153310442 L 176.9034960419537 49.75554848957114 L 178.4753142259077 50.742192961252904 L 179.97489135281873 51.88360954338525 L 181.3870611798643 53.1745508664142 L 182.69703719780009 54.608291354976416 L 183.89055590478844 56.17665482629089 L 184.95401803862018 57.870055897435485 L 185.87462644376453 59.677555044814376 L 186.64051926243144 61.58692703294292 L 187.24089716354524 63.58474230461225 L 187.66614336010457 65.65646080167829 L 187.90793521363153 67.78653756626733 L 187.9593462839714 69.95853935719852 L 187.81493775318037 72.15527140696516 L 187.47083823310697 74.35891334171438 L 186.9248110569237 76.5511631913026 L 186.17630825458514 78.71338832959867 L 185.22651052019273 80.82678210761463 L 184.07835259465284 82.87252487454458 L 182.73653360888642 84.83194802508234 L 181.20751206017027 86.68669966607807 L 179.49948522589648 88.41891046219683 L 177.62235295401194 90.01135819917364 L 175.58766590649617 91.44762959482784 L 173.40855847026 92.71227789241145 L 171.09966668761507 93.79097478820803 L 168.67703169474962 94.67065527555721 L 166.15798929025527 95.33965403051774 L 163.5610463854823 95.78783201995611 L 160.9057452131864 96.00669208060401 L 158.21251628943014 95.98948229709717 L 155.5025212349266 95.73128609762387 L 152.7974866649114 95.22909808689828 L 150.11953045023157 94.4818847469631 L 147.49098173573418 93.4906292559587 L 144.93419617439594 92.25835980252529 L 142.47136789622112 90.79016090791221 L 140.12433977909956 89.09316740806103 L 137.91441362401918 87.17654089276121 L 135.86216185882725 85.05142854724252 L 133.9872424028094 82.73090449203572 L 132.3082183184893 80.22989386831861 L 130.84238385715383 77.56508006699083 L 129.60559847070505 74.75479564907991 L 128.6121303146736 71.81889765147754 L 127.87451070586636 68.77862811415811 L 127.40340092354893 65.6564608016783 L 127.20747265578007 62.47593522167552 L 127.29330329313365 59.26147916509419 L 127.66528716128921 56.03822110585369 L 128.325563662667 52.831793900572514 L 129.27396316635406 49.66813132080108 L 130.50797134602436 46.573259030102314 L 132.02271251849876 43.57308168544187 L 133.81095238218504 40.69316789602219 L 135.8631203961209 37.95853481231684 L 138.16735187800452 35.393434143151765 L 140.70954973476802 33.02114140888667 L 143.47346557329712 30.86375023382781 L 146.44079977321553 28.941973460841858 L 149.5913199396349 27.27495283575449 L 152.90299699281184 25.8800789586535 L 156.35215799515112 24.77282313393981 L 159.9136546652956 23.966582671285806 L 163.56104638548229 23.472541096089344 L 167.26679637319197 23.299544621199537 L 171.00247956259835 23.453996112399857 L 174.7390006265757 23.939767649237645 L 178.44682046712296 24.75813264126767 L 182.096189411986 25.9077183087066 L 185.657385278886 27.384479177042735 L 189.10095440686885 29.18169206855822 L 192.39795370753333 31.289972901317633 L 195.52019175782243 33.69731542933819 L 198.4404669410722 36.38915187780559 L 201.13280064441048 39.34843524581393 L 203.57266353851037 42.5557428676653 L 205.73719300016216 45.989400643785046 L 207.6053997890014 49.625627175295946 L 209.15836215675463 53.43869686373897 L 210.37940565015057 57.401120870815134 L 211.2542669666513 61.48384467378479 L 211.77124033472683 65.65646080167826 L 211.9213050167376 69.88743519709482 L 211.69823267169053 74.14434551932636 L 211.09867346617048 78.39412958804051 L 210.12221998348826 82.60334206385379 L 208.7714481522974 86.73841737380849 L 207.05193459529545 90.76593681690977 L 204.972249984739 94.65289772821481" fill="none" stroke="#4a0080" stroke-width="1" opacity="0.3" class="drift" />
<path d="M 627.0330146501622 98.36755430198731 L 627.0330146501622 98.36755430198731 L 627.5147240218131 98.40969841112097 L 627.9854210920138 98.5354892542863 L 628.4342332786123 98.74300970189998 L 628.8505659492041 99.02908887409043 L 629.2242376884502 99.38933838546669 L 629.5456111569889 99.81820257156865 L 629.8057181398298 100.30902218667296 L 629.99637743905 100.8541109251876 L 630.1103043357747 101.44484398759981 L 630.1412104291625 102.07175778809714 L 630.0838927546682 102.72465978575075 L 629.9343111893248 103.39274731564083 L 629.6896532672085 104.06473420153617 L 629.3483856525231 104.72898384863402 L 628.9102916497255 105.37364744423814 L 628.3764942685541 105.98680583680039 L 627.7494645054343 106.55661362005374 L 627.0330146501622 107.07144391947537 L 626.2322765766227 107.52003236335567 L 625.3536651271722 107.89161872050364 L 624.4048268507735 108.17608470113848 L 623.394574503595 108.36408644671783 L 622.332807866157 108.44718027811221 L 621.2304215718368 108.41794032929435 L 620.0992007762849 108.27006676508603 L 618.9517056247612 107.99848336587287 L 617.8011455933247 107.5994233588248 L 616.6612448890546 107.0705024831883 L 615.5461001929676 106.41077839568501 L 614.4700321160284 105.62079564989402 L 613.4474318127765 104.7026156195594 L 612.4926042578269 103.65983087881231 L 611.6196097372103 102.49756370102665 L 610.8421051386844 101.22244849107015 L 610.1731866423784 99.84259812166526 L 609.625235415186 98.36755430198731 L 609.2097678990764 96.80822226404206 L 608.9372922549811 95.17679020830649 L 608.81717248031 93.48663410312264 L 608.857501659743 91.75220858095605 L 609.0649857362004 89.98892481745649 L 609.4448391023749 88.2130164149179 L 610.0006932136324 86.44139443891832 L 610.7345193112789 84.69149287438576 L 611.6465662220996 82.98110587392483 L 612.7353140667606 81.3282182658821 L 613.9974445672727 79.75083087136173 L 615.4278284935114 78.26678224737324 L 617.0195306320643 76.89356852676471 L 618.7638324988731 75.6481630639634 L 620.6502728516468 74.5468376183345 L 622.6667058903884 73.60498681384485 L 624.7993768660784 72.83695760448609 L 627.0330146501622 72.25588544952313 L 629.3509406525133 71.87353886118416 L 631.735193314534 71.70017393014157 L 634.1666672485029 71.74440036143416 L 636.6252659456575 72.01306046587956 L 639.0900668352187 72.51112245018867 L 641.5394973459756 73.24158923371971 L 643.9515205024228 74.20542389202645 L 646.3038284799643 75.40149268810636 L 648.5740424494496 76.82652650269983 L 650.7399169612651 78.47510131638504 L 652.7795470542188 80.33963822990627 L 654.6715762252566 82.41042333659252 L 656.3954033632216 84.67564758336376 L 657.9313867338747 87.12146657623418 L 659.2610431045159 89.73208010399597 L 660.3672401149694 92.48983097152261 L 661.2343800373808 95.37532255349775 L 661.8485731201145 98.3675543019873 L 662.1977987806827 101.4440742687442 L 662.2720529986726 104.58114753704996 L 662.0634803614163 107.75393929980397 L 661.5664893319586 110.93671117194671 L 660.7778494397977 114.10302918756959 L 659.6967692389101 117.22598180654475 L 658.3249540335541 120.27840614343964 L 656.6666425390408 123.23312053399013 L 654.7286218206747 126.06316147249974 L 652.520220037965 128.74202288808792 L 650.0532767114349 131.24389567947503 L 647.342090424301 133.54390539756196 L 644.4033440693114 135.61834595288366 L 641.2560079503794 137.44490723138844 L 637.9212212476295 139.00289452704214 L 634.4221525513177 140.2734377434592 L 630.7838403630576 141.23968837892332 L 627.0330146501622 141.8870023894276 L 623.1979007189996 142.20310712222528 L 619.3080068444086 142.17825062716247 L 615.3938972528695 141.80533178394245 L 611.4869522057387 141.08000982947232 L 607.6191170640542 140.00079202945972 L 603.8226423368607 138.5690984112155 L 600.1298168195182 136.78930265881036 L 596.5726960159587 134.6687484658637 L 593.1828281084247 132.21774084372475 L 589.9909797890639 129.4495120919909 L 587.0268642992434 126.38016235245175 L 584.3188740341072 123.02857488487014 L 581.8938200614289 119.41630642166228 L 579.7766808750724 115.56745317666858 L 577.9903626544063 111.50849329893067 L 576.5554732320256 107.26810677383384 L 575.4901118835087 102.87697397928848 L 574.8096769452338 98.36755430198733 L 574.5266931402068 93.77384640641887 L 574.6506603483223 89.13113192554285 L 575.187925397506 84.47570450521856 L 576.1415782769885 79.84458628309983 L 577.5113739848529 75.27523401535363 L 579.2936810204537 70.80523717994176 L 581.481457319908 66.47201048215169 L 584.0642542112881 62.31248326558326 L 587.0282487371998 58.36278838902484 L 590.356304457958 54.65795316589129 L 594.028060610506 51.231594977637485 L 598.0200492585353 48.11562416545211 L 602.3058398299614 45.339956775417185 L 606.8562102010168 42.93223968120894 L 611.6393432537428 40.91759053553051 L 616.6210476076247 39.318354907186034 L 621.7650010084552 38.15388284561651 L 627.0330146501622 37.4403269795709 L 632.3853165101364 37.19046410231458 L 637.7808515972976 37.413542023482755 L 643.1775968464068 38.11515327863017 L 648.5328882435138 39.2971370831251" fill="none" stroke="#9d4edd" stroke-width="1" opacity="0.3" class="drift" />
<circle cx="442.4022451898809" cy="168.59579450207636" r="1.5332124675883176" fill="white" opacity="0.504842123925876"  style="animation-delay: 3.1085584322089055s" />
<circle cx="83.96395932544607" cy="104.40521243360533" r="0.5570278028773011" fill="white" opacity="0.7704177597783048"  style="animation-delay: 2.7640019951939854s" />
<circle cx="66.71318114941478" cy="63.23589758689052" r="1.0025079365008511" fill="white" opacity="0.7293207843128386"  style="animation-delay: 4.302398566134463s" />
<circle cx="315.98161555991805" cy="128.0056262905166" r="0.9330121682518278" fill="white" opacity="0.6548657154542978"  style="animation-delay: 1.694971838657593s" />
<circle cx="666.4704524876695" cy="166.8566307164874" r="1.187173627481845" fill="white" opacity="0.3226053935835455" class="shimmer" style="animation-delay: 1.4834485495837169s" />
<circle cx="228.17755095508278" cy="39.94815813698871" r="1.2275838894135522" fill="white" opacity="0.7851311064450941" class="shimmer" style="animation-delay: 2.0505185626494105s" />
<circle cx="452.5481225215257" cy="104.63117340178533" r="0.6262735729299491" fill="white" opacity="0.3230318095381411" class="shimmer" style="animation-delay: 4.569292275170838s" />
<circle cx="429.9646778711919" cy="72.47281639420184" r="1.905630987157036" fill="white" opacity="0.4927985590264273"  style="animation-delay: 2.8819343024829736s" />
<circle cx="523.0395638958208" cy="45.754553215261005" r="0.9783739087312258" fill="white" opacity="0.5448541745728279"  style="animation-delay: 2.8349480791623103s" />
<circle cx="667.4071527700443" cy="34.75553797680857" r="0.6450282270065878" fill="white" opacity="0.48381125060798186"  style="animation-delay: 3.3869789362328753s" />
<circle cx="424.2370086551663" cy="144.63330689244142" r="1.3418850945124696" fill="white" opacity="0.7524729081502888" class="shimmer" style="animation-delay: 3.6178752786359505s" />
<circle cx="478.39496415182623" cy="177.47897533934807" r="0.9977230756513802" fill="white" opacity="0.4499278675376079"  style="animation-delay: 2.9543858496542863s" />
<circle cx="751.157204757693" cy="123.32212876334548" r="1.7416306275791862" fill="white" opacity="0.7683242198924178"  style="animation-delay: 2.8767566963629565s" />
<circle cx="311.10249722798267" cy="176.82228261361078" r="1.4052366211431138" fill="white" opacity="0.6494299497986069"  style="animation-delay: 0.08000560285007285s" />
<circle cx="285.17255101153063" cy="117.38657440033604" r="1.323599861162596" fill="white" opacity="0.49712868854792097"  style="animation-delay: 0.15164143674044395s" />
<circle cx="651.7606451141539" cy="142.6994414956539" r="1.3106769186619043" fill="white" opacity="0.7353305500967064" class="shimmer" style="animation-delay: 1.5883013247044486s" />
<circle cx="593.8392824356703" cy="197.40994162648792" r="0.6773153596456918" fill="white" opacity="0.3586322434527995" class="shimmer" style="animation-delay: 1.8832759144566213s" />
<circle cx="716.1808592336733" cy="134.05597646152026" r="1.3720270728781436" fill="white" opacity="0.7490168191399527"  style="animation-delay: 3.011198731696405s" />
<circle cx="700.3664612185325" cy="74.91963262143612" r="1.8685305126162695" fill="white" opacity="0.6502563158383159"  style="animation-delay: 4.917618520322992s" />
<circle cx="452.0120472531396" cy="198.1132886347276" r="1.569130812264627" fill="white" opacity="0.40985156938978534"  style="animation-delay: 1.0730368051317907s" />
<circle cx="140.8800334901562" cy="112.2287649906705" r="1.6154350840452603" fill="white" opacity="0.3075172701879825"  style="animation-delay: 1.5974916192517197s" />
<circle cx="303.7325095880341" cy="135.2537063782042" r="0.9607043582169692" fill="white" opacity="0.7864039907064686"  style="animation-delay: 4.601376926415364s" />
<circle cx="253.74081271675504" cy="139.3127688174093" r="1.6420778270389174" fill="white" opacity="0.5689990736968211" class="shimmer" style="animation-delay: 0.43440894450454404s" />
<circle cx="621.7906331621909" cy="26.511810829105585" r="1.0701193555875488" fill="white" opacity="0.5444607375811554"  style="animation-delay: 3.6250205379118947s" />
<circle cx="761.5443434595344" cy="143.27142213419424" r="1.5916454782310812" fill="white" opacity="0.7412758056400153" class="shimmer" style="animation-delay: 1.2877306205107997s" />
<circle cx="361.3192392971101" cy="74.04519139925961" r="0.5848386533112464" fill="white" opacity="0.5815776433753892"  style="animation-delay: 4.122114882070635s" />
<circle cx="258.8239736701224" cy="46.22630429969652" r="0.7385403373968464" fill="white" opacity="0.683543254207637" class="shimmer" style="animation-delay: 1.6037091607540732s" />
<circle cx="276.714974199219" cy="111.36618890891894" r="1.9011618894051923" fill="white" opacity="0.46342476761333634"  style="animation-delay: 3.182891564413941s" />
<circle cx="356.88338406794793" cy="129.48378226446704" r="1.7317009608251515" fill="white" opacity="0.48156392062493586"  style="animation-delay: 3.668601188903172s" />
<circle cx="226.35390136637278" cy="18.83940507206838" r="1.5913427319836946" fill="white" opacity="0.44462078200527194" class="shimmer" style="animation-delay: 0.27907471405556383s" />
<circle cx="609.1242338196494" cy="64.83735128971237" r="1.3783785742657257" fill="white" opacity="0.49811406823631904"  style="animation-delay: 1.571329331808986s" />
<circle cx="263.98567013257565" cy="174.14409769026688" r="1.9569114648486616" fill="white" opacity="0.521493860273768" class="shimmer" style="animation-delay: 1.645542370982651s" />
<circle cx="798.0730869892818" cy="40.227570419584204" r="1.085244540120355" fill="white" opacity="0.3286215555391497"  style="animation-delay: 2.165785450513095s" />
<circle cx="697.8442903772324" cy="174.02919376536278" r="1.2844148010366148" fill="white" opacity="0.4210084520084671"  style="animation-delay: 3.708640839507548s" />
<circle cx="62.359578862443854" cy="67.53218103157855" r="1.6294121481016473" fill="white" opacity="0.4427548791354137" class="shimmer" style="animation-delay: 2.287633877384584s" />
<circle cx="467.5125754175282" cy="59.76225554634023" r="1.0628761755914082" fill="white" opacity="0.5713936958061767"  style="animation-delay: 3.1959762526244795s" />
<circle cx="444.4196370904949" cy="138.31090001520795" r="0.6932245714854727" fill="white" opacity="0.439012096249729"  style="animation-delay: 4.701947661555094s" />
<circle cx="111.44548215679305" cy="76.99596151747343" r="1.7015360380692979" fill="white" opacity="0.5341508531309369" class="shimmer" style="animation-delay: 3.7418919850931665s" />
<circle cx="88.71792110806692" cy="4.6376621443486865" r="1.9312353007116836" fill="white" opacity="0.7391844738153086" class="shimmer" style="animation-delay: 0.6454140383957718s" />
<circle cx="550.3218121090393" cy="195.15505813685462" r="1.721998441051232" fill="white" opacity="0.304923573770809"  style="animation-delay: 4.297770151943333s" />
<circle cx="162.38793636486372" cy="67.38814653240719" r="1.9012148593769536" fill="#7b2cbf" opacity="0.8" filter="url(#glow)" class="shimmer" style="animation-delay: 2.101655820903256s" />
<circle cx="61.9201648341436" cy="27.86716252338053" r="1.0012005145919183" fill="#7b2cbf" opacity="0.8" filter="url(#glow)" class="shimmer" style="animation-delay: 2.254388275651766s" />
<circle cx="107.65758763005718" cy="11.879418519774987" r="2.1453124879568186" fill="#4a0080" opacity="0.8" filter="url(#glow)" class="shimmer" style="animation-delay: 0.3897276556023026s" />
<circle cx="36.705218118552274" cy="199.1741377911863" r="1.581790148483925" fill="#c77dff" opacity="0.8" filter="url(#glow)" class="shimmer" style="animation-delay: 2.7763921098203856s" />
<circle cx="609.0472750158059" cy="2.427749064191387" r="2.622257722865095" fill="#4a0080" opacity="0.8" filter="url(#glow)" class="shimmer" style="animation-delay: 0.11888542796426615s" />
<circle cx="304.21728447948357" cy="158.00921034394509" r="2.089239627550091" fill="#e0aaff" opacity="0.8" filter="url(#glow)" class="shimmer" style="animation-delay: 1.2019579643806435s" />
<circle cx="451.7808956324002" cy="7.346892301528252" r="2.5753019604225598" fill="#c77dff" opacity="0.8" filter="url(#glow)" class="shimmer" style="animation-delay: 2.327641292658554s" />
<circle cx="306.7127591567138" cy="192.17086597316163" r="1.8643560348867858" fill="#9d4edd" opacity="0.8" filter="url(#glow)" class="shimmer" style="animation-delay: 2.3276803973736793s" />
<line x1="250.4141348753006" y1="47.512962366522025" x2="515.1554863525698" y2="30.446547973302295" stroke="#e0aaff" stroke-width="0.5" opacity="0.3" />
<line x1="174.99147301303623" y1="163.98323762386346" x2="607.1492732384087" y2="79.4401902466823" stroke="#e0aaff" stroke-width="0.5" opacity="0.3" />
<line x1="607.1492732384087" y1="79.4401902466823" x2="203.0543750435638" y2="118.21192884622063" stroke="#e0aaff" stroke-width="0.5" opacity="0.3" />

  
    <text x="400" y="120" text-anchor="middle" class="name-text" fill="url(#textGrad)" filter="url(#textGlow)">
      JOEL HOOKS
    </text>
  
</svg>
