<svg xmlns="http://www.w3.org/2000/svg" viewBox="0 0 800 200" width="800" height="200">
  <rect width="800" height="200" fill="#05010d"/>
  
    <defs>
      <linearGradient id="grad1" x1="0%" y1="0%" x2="100%" y2="100%">
        <stop offset="0%" style="stop-color:#4a0080;stop-opacity:0.8" />
        <stop offset="100%" style="stop-color:#7b2cbf;stop-opacity:0.8" />
      </linearGradient>
      <linearGradient id="grad2" x1="100%" y1="0%" x2="0%" y2="100%">
        <stop offset="0%" style="stop-color:#9d4edd;stop-opacity:0.7" />
        <stop offset="100%" style="stop-color:#c77dff;stop-opacity:0.7" />
      </linearGradient>
      <linearGradient id="textGrad" x1="0%" y1="0%" x2="100%" y2="0%">
        <stop offset="0%" style="stop-color:#4a0080" />
        <stop offset="25%" style="stop-color:#7b2cbf" />
        <stop offset="50%" style="stop-color:#9d4edd" />
        <stop offset="75%" style="stop-color:#c77dff" />
        <stop offset="100%" style="stop-color:#e0aaff" />
      </linearGradient>
      <filter id="glow">
        <feGaussianBlur stdDeviation="5" result="coloredBlur"/>
        <feMerge>
          <feMergeNode in="coloredBlur"/>
          <feMergeNode in="SourceGraphic"/>
        </feMerge>
      </filter>
      <filter id="textGlow">
        <feGaussianBlur stdDeviation="2" result="coloredBlur"/>
        <feMerge>
          <feMergeNode in="coloredBlur"/>
          <feMergeNode in="SourceGraphic"/>
        </feMerge>
      </filter>
    </defs>
  
  
    <style>
      @keyframes float {
        0%, 100% { transform: translateY(0px); }
        50% { transform: translateY(-8px); }
      }
      @keyframes pulse {
        0%, 100% { opacity: 0.4; }
        50% { opacity: 0.9; }
      }
      @keyframes drift {
        0% { transform: translateX(0px); }
        50% { transform: translateX(10px); }
        100% { transform: translateX(0px); }
      }
      @keyframes shimmer {
        0% { opacity: 0.3; }
        50% { opacity: 1; }
        100% { opacity: 0.3; }
      }
      @keyframes glitch {
        0%, 100% { transform: translateX(0); }
        20% { transform: translateX(-2px); }
        40% { transform: translateX(2px); }
        60% { transform: translateX(-1px); }
        80% { transform: translateX(1px); }
      }
      @keyframes dataStream {
        0% { stroke-dashoffset: 0; }
        100% { stroke-dashoffset: -20; }
      }
      .float { animation: float 8s ease-in-out infinite; }
      .pulse { animation: pulse 8s ease-in-out infinite; }
      .drift { animation: drift 8s ease-in-out infinite; }
      .shimmer { animation: shimmer 3s ease-in-out infinite; }
      .glitch { animation: glitch 0.5s ease-in-out infinite; }
      .dataStream { animation: dataStream 2s linear infinite; }
      .name-text { 
        font-family: -apple-system, BlinkMacSystemFont, 'Segoe UI', Helvetica, Arial, sans-serif;
        font-weight: 700;
        font-size: 64px;
        letter-spacing: -2px;
      }
    </style>
  
  <path d="M 225.53250724690798 58.86341483992275 C 230.2587642936573 78.1461632330911, 224.91097232692337 123.66810424663484, 210.38126207897585 130.89043115967567 C 195.85155183102833 138.1127580727165, 156.7734699220697 107.78715759523863, 138.35424575922292 102.19737631816776 C 119.93502159637615 96.60759504109689, 108.00148098178867 104.57407041029127, 99.86591710189523 97.35174349725044 C 91.7303532220018 90.12941658420961, 91.80054784877703 73.95254309461338, 89.5408624798623 58.863414839922754 C 87.28117711094757 43.774286585232126, 78.17224100851342 24.09325520135539, 86.30780488840685 6.816973969106684 C 94.44336876830027 -10.459307263142023, 122.40159327421068 -46.19043369216263, 138.3542457592229 -44.79427255356948 C 154.3068982442351 -43.39811141497633, 167.49400955053255 -2.0823404315831233, 182.02371979848007 15.19394080066558 C 196.5534300464276 32.47022203291428, 220.80625020015867 39.5806664467544, 225.53250724690798 58.86341483992275 Z" fill="#9d4edd" opacity="0.2081090164470653" filter="url(#glow)" class="float" />
<path d="M 441.9168661231794 59.62473206018575 C 441.3004532063778 69.36493831403038, 399.34928023283817 74.57275050567769, 386.9325018018811 87.29365526829633 C 374.515723370924 100.01456003091498, 380.2848701634972 127.79137893792783, 367.4161955374368 135.9501606358976 C 354.5475209113764 144.10894233386733, 320.8596175264917 145.72932560857737, 309.72045404551886 136.24634545611485 C 298.581290564546 126.76336530365234, 304.3587716835222 95.88098969792631, 300.58121465159974 79.05227972112252 C 296.80365761967727 62.223569744318716, 282.62571679715757 46.24861298168572, 287.055111853984 35.27408559529205 C 291.4845069108104 24.299558208898382, 314.32498285955865 18.68649011337437, 327.1575849925582 13.205115402760512 C 339.9901871255578 7.723740692146656, 353.47182560029285 -0.2220463921357534, 364.05072465198157 2.3858373316089114 C 374.6296237036703 4.993721055353577, 377.65328905749084 19.312601957132358, 390.6309793026905 28.8524177452285 C 403.60866954789014 38.39223353332464, 442.5332790399809 49.88452580634111, 441.9168661231794 59.62473206018575 Z" fill="#7b2cbf" opacity="0.12713807527373996" filter="url(#glow)" class="float" />
<path d="M 867.2433717295406 68.77757344330129 C 867.9260759927498 82.81257486516303, 839.7308596154674 97.19257640854866, 828.1461951976718 112.37061875270263 C 816.5615307798762 127.54866109685659, 811.4603572043713 155.64739862329296, 797.7353852227673 159.8458275082251 C 784.0104132411632 164.04425639315727, 763.5982649132391 143.38844556950147, 745.7963633080474 137.56119206229562 C 727.9944617028557 131.73393855508976, 703.0917996251053 136.346242901489, 690.9239755916168 124.88230646498997 C 678.7561515581283 113.41837002849091, 669.1284472195175 84.81929934702502, 672.7894191071161 68.7775734433013 C 676.4503909947148 52.73584753957759, 702.6267966156283 45.95830134322533, 712.889806917209 28.6319510426477 C 723.1528172187896 11.305600742070066, 721.3348680463109 -30.10447159770921, 734.3674809165994 -35.1805283601645 C 747.400093786888 -40.256585122619796, 776.1384026886373 -12.381245962366838, 791.0854841389402 -1.824389532084055 C 806.0325655892431 8.732466898198728, 811.3569883533165 16.39361639230131, 824.0499696184166 28.160610221532203 C 836.7429508835168 39.927604050763094, 866.5606674663314 54.74257202143956, 867.2433717295406 68.77757344330129 Z" fill="#4a0080" opacity="0.11111611780599184" filter="url(#glow)" class="float" />
<path d="M 695.4692627166837 40.34999876058305 C 700.4455091744148 64.63626018872976, 718.9190685924672 103.0288810723227, 708.7651967661849 124.05514708915626 C 698.6113249399026 145.08141310598984, 658.6930643627504 165.23831126454195, 634.5460317589899 166.50759486158444 C 610.3989991552294 167.77687845862692, 586.8892814879307 140.9457016998569, 563.8830011436216 131.67084867141125 C 540.8767207993126 122.3959956429656, 512.0733498067734 126.07861834271527, 496.50834969313524 110.85847669091058 C 480.943349579497 95.63833503910588, 475.1556069272194 67.24040662584447, 470.4930004617923 40.34999876058306 C 465.83039399636516 13.459590895321654, 452.7977887994516 -35.7867949523326, 468.53271090057245 -50.48397050065786 C 484.2676330016933 -65.18114604898312, 537.6932942152234 -43.3604343378466, 564.9025330685175 -47.833054529368525 C 592.1117719218116 -52.30567472089045, 612.7872798617904 -81.68146382473019, 631.7881440203371 -77.31969164978943 C 650.7890081788838 -72.95791947484868, 668.2941982370736 -41.27403654811944, 678.907718019798 -21.662421479724024 C 689.5212378025225 -2.0508064113286117, 690.4930162589526 16.063737332436332, 695.4692627166837 40.34999876058305 Z" fill="#4a0080" opacity="0.18982274284283707" filter="url(#glow)" class="float" />
<path d="M 295.2675948661878 89.45374112159377 L 295.2675948661878 89.45374112159377 L 295.78856783358964 89.49932035024489 L 296.29763089908363 89.63536426529521 L 296.78302526842504 89.8597994740588 L 297.23329275249154 90.16919664176831 L 297.63742206009056 90.5588096906146 L 297.98499032303516 91.02263012009925 L 298.26629833709376 91.55345589677776 L 298.47249806398946 92.14297421282804 L 298.5957110155044 92.78185727091038 L 298.62913623023064 93.45987011884587 L 298.56714665576266 94.16598943301747 L 298.40537286319875 94.88853203528849 L 298.14077314564196 95.61529182574095 L 297.7716891867987 96.33368372365685 L 297.29788662851297 97.03089313278 L 296.7205800157994 97.69402938476053 L 296.0424417532569 98.31028156742572 L 295.2675948661878 98.86707511262672 L 294.4015895218164 99.35222750222948 L 293.4513634291733 99.75410145055221 L 292.4251863989325 100.06175393725448 L 291.33258950522776 100.26507949626433 L 290.18427944869194 100.35494621354648 L 288.99203887216584 100.32332294898322 L 287.76861352624496 100.16339637482946 L 286.5275873196764 99.86967651444922 L 285.2832464182379 99.4380895695436 L 284.0504336738819 98.86605694091374 L 282.8443947724344 98.15255947592748 L 281.68061758195097 97.29818611412122 L 280.57466626399065 96.30516624952291 L 279.5420117757579 95.17738528299017 L 278.59786044157806 93.92038299870923 L 277.75698230695843 92.54133456451841 L 277.033541007122 91.04901412438316 L 276.4409268841219 89.45374112159377 L 275.9915950723182 87.76730966150214 L 275.69691024116673 86.00290139126622 L 275.56699963710355 84.17498253954824 L 275.61061600315037 82.29918591984826 L 275.8350118761851 80.39217885562297 L 276.24582666825626 78.47151813205532 L 276.84698783062237 76.55549321689207 L 277.64062727827854 74.66295911980525 L 278.6270141196047 72.8131603750107 L 279.80450459159067 71.0255477342341 L 281.1695099470952 69.31958924551068 L 282.71648287814384 67.71457746681486 L 284.43792288978364 66.22943462134668 L 286.3244008640059 64.88251754279702 L 288.36460287428207 63.69142428356058 L 290.54539312995007 62.67280426630181 L 292.85189574767816 61.842173849294134 L 295.2675948661878 61.21373914849491 L 297.77445244199964 60.80022791449038 L 300.3530428898284 60.612732200510116 L 302.98270356302356 60.66056347908609 L 305.64169990871875 60.951121770189545 L 308.3074039806336 61.489780233541154 L 310.9564848512427 62.279786553120125 L 313.56510933564834 63.32218230369868 L 316.1091513232534 64.61574133863073 L 318.5644079114041 66.15692807637747 L 320.9068204486012 67.93987639171955 L 323.11269852460055 69.95638963774235 L 325.1589448915088 72.19596213803334 L 327.0232792644848 74.64582229671463 L 328.6844589333514 77.2909972786264 L 330.12249411764446 80.11439901489781 L 331.3188560175423 83.09693109204301 L 332.25667555172123 86.21761588736386 L 332.9209308303196 89.45374112159375 L 333.298621486525 92.78102481312592 L 333.378928083334 96.17379743854738 L 333.1533549221189 99.60519993321978 L 332.61585470595884 103.04739600491024 L 331.76293365229037 106.47179708451455 L 330.59373580520355 109.84929810216514 L 329.11010546641256 113.15052215581315 L 327.3166268442046 116.34607203393652 L 325.22064021003735 119.40678646544325 L 322.8322340513391 122.30399889906099 L 320.16421291479804 125.00979656233623 L 317.23204084526463 127.49727751745687 L 314.0537605395419 129.74080341794075 L 310.64988854994067 131.71624567712416 L 307.043287087674 133.4012227864739 L 303.25901318905153 134.77532656901093 L 299.324146216138 135.82033522036107 L 295.2675948661878 136.52041107675853 L 291.1198850589354 136.86228115516482 L 286.91293025592114 136.83539863480263 L 282.67978593977153 136.4320835909484 L 278.45439014208586 135.64764144973165 L 274.27129205479207 134.48045780574628 L 270.16537089009995 132.9320684311516 L 266.1715472672096 131.00720350414826 L 262.3244894985679 128.7138052946644 L 258.658317223705 126.06301876407649 L 255.2063048936668 123.06915476202228 L 252.00058764311564 119.74962573496293 L 249.07187209978258 116.12485409618711 L 246.44915467179084 112.21815364342285 L 244.15944982229055 108.05558464613209 L 242.22753078788418 103.66578345787022 L 240.67568512270802 99.0797677377706 L 239.52348735418664 94.33071858726419 L 238.78759091999007 89.45374112159378 L 238.4815414193829 84.48560519862114 L 238.61561305691635 79.46446821801408 L 239.1966699834097 74.42958208038716 L 240.22805404968307 69.42098655670638 L 241.70950028398528 64.47919146172306 L 243.63708118608787 59.64485014998938 L 246.00318070130356 54.95842695785672 L 248.79649849806336 50.459861298696815 L 252.00208492507184 46.18823118047777 L 255.6014067704822 42.181418954018945 L 259.57244368805976 38.475782116191944 L 263.88981489607795 35.10583198464648 L 268.5249354958837 32.10392302914687 L 273.446201500864 29.4999555893297 L 278.6192024151211 27.321094629866693 L 284.0069599566979 25.5915070820514 L 289.5701912847971 24.332120196358787 L 295.2675948661878 23.56040318436311 L 301.05615690488065 23.290174261555038 L 306.8914760630805 23.53143501625972 L 312.72810402218454 24.29023382539218 L 318.51989927186065 25.56855981672222 L 324.22039137453345 27.36426864134132 L 329.7831528333085 29.671041070951716 L 335.16217559468373 32.47837517437993 L 340.31224914436183 35.77161255841555 L 345.189337105937 39.531998881844586 L 349.75094922881635 43.736778570611094 L 353.9565056539193 48.35932337870687 L 357.76769037367717 53.36929415596746 L 361.1487908566846 58.7328349028147 L 364.0670208868186 64.41279791548436 L 366.49282377133835 70.3689985557368 L 368.4001532017927 76.55849791879083 L 369.7667292046566 82.93591142448295 L 370.5742667944514 89.45374112159372" fill="none" stroke="#e0aaff" stroke-width="1" opacity="0.3" class="drift" />
<path d="M 499.3559713106733 54.32773181812347 L 499.3559713106733 54.32773181812347 L 499.8286782782958 54.36908831896015 L 500.29057874737066 54.492528325584 L 500.73100332751096 54.696170536602054 L 501.1395553836254 54.976903330989316 L 501.50624377529994 55.3304203354987 L 501.82161127015814 55.75126971245673 L 502.0768572552938 56.232916667155614 L 502.2639534267354 56.767818539181306 L 502.3757512057505 57.34751171320069 L 502.4060797119956 57.9627094632011 L 502.3498332162952 58.603409731098594 L 502.2030470993398 59.25901173709314 L 501.96296145584887 59.91844022615279 L 501.6280716057037 60.57027607345585 L 501.19816490306624 61.20289190231178 L 500.6743433703575 61.80459131170254 L 500.0590318248969 62.36375026770591 L 499.3559713106733 62.86895918412308 L 498.5701977947763 63.3091642029509 L 497.708006236068 63.673806185097305 L 496.77690028132315 63.952955935987106 L 495.78552798991115 64.13744421936008 L 494.7436041307472 64.2189851554061 L 493.6618197333402 64.19029165606281 L 492.55173970698706 64.04518162033966 L 491.4256894672353 63.778673695325324 L 490.29663162544165 63.38707150335512 L 489.1780339044559 62.868035341825916 L 488.0837295401025 62.2206404783995 L 487.0277715132491 61.445421289789806 L 486.024282029988 60.54440062584993 L 485.0872987270564 59.52110392105024 L 484.230619125459 58.38055772138796 L 483.46764488681777 57.129272444952434 L 482.8112274438859 55.77520934740743 L 482.27351657867405 54.32773181812347 L 481.86581350864094 52.79754128716615 L 481.598430013423 51.19659817637344 L 481.4805550917837 49.53802847790181 L 481.52013058115216 47.836016689465005 L 481.72373710073464 46.10568597564654 L 482.0964915942794 44.362966557790585 L 482.6419576508614 42.624453459783155 L 483.3620696723317 40.907254852305336 L 484.2570718352872 39.22883234273738 L 485.3254726645907 37.606834650766345 L 486.5640158957432 36.05892618995703 L 487.9676681560071 34.60261214224478 L 489.52962384039597 33.25506166478219 L 491.2413273998502 32.0329309062221 L 493.0925130965373 30.9521875318832 L 495.0712621166996 30.027938463991486 L 497.164076766329 29.274262534131157 L 499.3559713106733 28.70404972012464 L 501.63057885669093 28.32884859888616 L 503.970273519568 28.15872359059671 L 506.3563069617665 28.20212349820788 L 508.76895824722806 28.465762760317872 L 511.1876958157011 28.95451673552887 L 513.591350254006 29.671332223275105 L 515.9582964236677 30.61715430071595 L 518.2666433988716 31.790870418642115 L 520.4944305762139 33.18927255258293 L 522.6198282391701 34.80703804966072 L 524.6213407964353 36.636729648539244 L 526.4780108650065 38.668814980457505 L 528.1696223366705 40.89170568529529 L 529.6769005508592 43.29181609940408 L 530.9817076979396 45.85364129311591 L 532.0672315950817 48.559854057004976 L 532.9181660118705 51.39142025871887 L 533.5208807746717 54.32773181812346 L 533.8635799471156 57.34675637920145 L 533.9364464684764 60.42520259416297 L 533.7317717316148 63.53869978008819 L 533.2440686967634 66.66199056257456 L 532.4701672659239 69.7691349857021 L 531.4092907839762 72.83372444445592 L 530.0631126856765 75.82910368577197 L 528.4357924712943 78.72859902870188 L 526.5339903663682 81.5057508738184 L 524.3668602015161 84.13454850776009 L 521.9460202349115 86.58966516148122 L 519.285501831339 88.84669125091119 L 516.4016761060523 90.8823637167767 L 513.313158837289 92.67478938659383 L 510.04069414655237 94.20366030641568 L 506.6070176389365 95.45045903280837 L 503.03669988513826 96.39865193652565 L 499.3559713106733 97.03386864812151 L 495.592529734535 97.34406587177065 L 491.775331967489 97.31967390620312 L 487.934371037837 96.95372434009101 L 484.10044075832593 96.24195753249805 L 480.30488948054386 95.18290864603006 L 476.57936500134105 93.77797116988089 L 472.95555268837074 92.03143705072233 L 469.46490897771474 89.95051273988435 L 466.1383924648239 87.54531066397286 L 463.00619485989694 84.82881583134655 L 460.0974741097199 81.81682749701591 L 457.44009199943105 78.52787602178901 L 455.0603585393641 74.98311527605331 L 452.9827854139184 71.20619115263548 L 451.2298507213551 67.2230869648741 L 449.8217771657119 63.061946713531434 L 448.77632577506614 58.75287740764872 L 448.10860711467564 54.32773181812349 L 447.83091183982117 49.819873226924884 L 447.95256229231717 45.263923907794485 L 448.4797866876798 40.69549923441559 L 449.4156172680142 36.1509294578798 L 450.7598136101107 31.666971325443185 L 452.50881208046144 27.280511825791333 L 454.65570222047876 23.02826644116685 L 457.1902306277727 18.946474362784798 L 460.09883267466944 15.070593182119602 L 463.3646921750701 11.434995606207345 L 466.96782887712675 8.072670759574422 L 470.88521342400793 5.014932628426735 L 475.0909091901926 2.291138174158256 L 479.55624016826494 -0.07158240691588702 L 484.2499838530511 -2.0485808722206897 L 489.13858784812055 -3.6179292571143407 L 494.1864087060877 -4.760639134688589 L 499.3559713106733 -5.4608597438738045 L 504.60824691693216 -5.706053069933574" fill="none" stroke="#7b2cbf" stroke-width="1" opacity="0.3" class="drift" />
<circle cx="377.6822283816454" cy="92.91308898375017" r="1.1155688291570782" fill="white" opacity="0.46876228075078336"  style="animation-delay: 3.382236344572128s" />
<circle cx="562.5736531886253" cy="5.96726225302846" r="0.5806598801021682" fill="white" opacity="0.7591165371240713" class="shimmer" style="animation-delay: 3.8215611093412685s" />
<circle cx="151.71061463854443" cy="36.95113327468271" r="1.139045139877295" fill="white" opacity="0.3012769181665465"  style="animation-delay: 1.2746054249980487s" />
<circle cx="322.2896720341222" cy="133.026517568681" r="1.8341983883830817" fill="white" opacity="0.7417447271838518" class="shimmer" style="animation-delay: 1.2652051986893798s" />
<circle cx="232.7595623456201" cy="197.22587976651957" r="0.6510596311243654" fill="white" opacity="0.7309724033353873" class="shimmer" style="animation-delay: 0.9343929213088897s" />
<circle cx="545.3801505193006" cy="83.89560973169763" r="0.750660646097071" fill="white" opacity="0.6253511438985169" class="shimmer" style="animation-delay: 3.436357937647557s" />
<circle cx="618.6453627684502" cy="131.66217231239577" r="1.1232398798535481" fill="white" opacity="0.40715377597732333"  style="animation-delay: 4.618501396301963s" />
<circle cx="724.0257490820915" cy="66.10415869896542" r="1.7600271209249407" fill="white" opacity="0.7584986248312138"  style="animation-delay: 0.0904432806714428s" />
<circle cx="440.05559782970244" cy="29.411594368134473" r="1.587070000087675" fill="white" opacity="0.6184731869377158"  style="animation-delay: 2.6779432643382295s" />
<circle cx="231.63427116498684" cy="138.31914533480924" r="0.7346677122116881" fill="white" opacity="0.7027347705876126" class="shimmer" style="animation-delay: 4.101890788098816s" />
<circle cx="773.9446564090488" cy="104.7392043973189" r="0.512689611577548" fill="white" opacity="0.34368912649945876" class="shimmer" style="animation-delay: 3.0805203087501134s" />
<circle cx="353.6672572761466" cy="103.13359280924543" r="0.7487709294206385" fill="white" opacity="0.33001628849429326" class="shimmer" style="animation-delay: 3.739683228505022s" />
<circle cx="276.80262651628453" cy="35.021109433968476" r="1.0240160542418215" fill="white" opacity="0.3539225010366052"  style="animation-delay: 3.6371383470991514s" />
<circle cx="183.48766381981267" cy="121.08793504945142" r="1.3360930413267198" fill="white" opacity="0.3192471732628132"  style="animation-delay: 1.228553233409897s" />
<circle cx="470.4931861530991" cy="94.25122298280311" r="0.6490145860699528" fill="white" opacity="0.3925743617085679"  style="animation-delay: 1.3366987250851736s" />
<circle cx="737.3203757756762" cy="85.26620293468147" r="0.969550878951683" fill="white" opacity="0.7228339219166413"  style="animation-delay: 2.9734937901405765s" />
<circle cx="521.3017368961365" cy="5.140762821152656" r="0.9093295747540926" fill="white" opacity="0.5799528039365163"  style="animation-delay: 4.951503912556607s" />
<circle cx="336.2032984446845" cy="104.89382895840879" r="1.701406323020108" fill="white" opacity="0.7649827166423644"  style="animation-delay: 4.785248192822439s" />
<circle cx="481.5248016348775" cy="143.72076623910118" r="1.6578287914017733" fill="white" opacity="0.5574145572599423" class="shimmer" style="animation-delay: 4.06706911820555s" />
<circle cx="585.7860477692735" cy="91.67065900943076" r="0.8381521642966486" fill="white" opacity="0.4808974832298731"  style="animation-delay: 1.9199427906789635s" />
<circle cx="495.9532504202533" cy="61.041430399049986" r="0.8642731188373707" fill="white" opacity="0.6927500753769833"  style="animation-delay: 0.10175757604924618s" />
<circle cx="702.9464888652809" cy="15.080021930669796" r="1.9707762660089023" fill="white" opacity="0.45588434481323087" class="shimmer" style="animation-delay: 4.360931791985319s" />
<circle cx="740.372322680996" cy="25.654627706646018" r="0.6790381353600105" fill="white" opacity="0.34603716999844875"  style="animation-delay: 0.9739486240938655s" />
<circle cx="629.7985970138635" cy="76.25965120100165" r="1.579702329112644" fill="white" opacity="0.6250528640348336"  style="animation-delay: 4.226010135862354s" />
<circle cx="63.02875656558182" cy="108.77798267474729" r="0.713143837264786" fill="white" opacity="0.6232043795939877"  style="animation-delay: 3.7405307116972675s" />
<circle cx="211.16059773286685" cy="31.71233725975826" r="1.193408986545954" fill="white" opacity="0.40653402622042306"  style="animation-delay: 0.018339250535960305s" />
<circle cx="648.7138725547545" cy="113.43811436882247" r="0.9628207201706412" fill="white" opacity="0.3745998866014076"  style="animation-delay: 3.9459824137977275s" />
<circle cx="154.1575303036586" cy="150.72355826313196" r="1.0496362460218243" fill="white" opacity="0.43651956430694167"  style="animation-delay: 1.0417481498549364s" />
<circle cx="81.69578708365357" cy="97.35518283548208" r="1.6355653382755597" fill="white" opacity="0.41721795324469774"  style="animation-delay: 0.7541847528774659s" />
<circle cx="430.41530368673" cy="160.67338907741413" r="0.8594763530137522" fill="white" opacity="0.4969910862816465"  style="animation-delay: 4.393591202139318s" />
<circle cx="617.1718840739405" cy="33.49559449809733" r="1.3007589106218682" fill="white" opacity="0.32957842757855366"  style="animation-delay: 1.0853856533426587s" />
<circle cx="207.95912527630716" cy="140.72579753097045" r="0.7899499739180005" fill="white" opacity="0.5728349540289526"  style="animation-delay: 1.233819114470387s" />
<circle cx="267.64468001168547" cy="47.34462109310837" r="1.170078594733821" fill="white" opacity="0.7465137330847269" class="shimmer" style="animation-delay: 1.1680418654755764s" />
<circle cx="348.1268585518723" cy="156.49434597997382" r="1.072653015064167" fill="white" opacity="0.5778119508255717" class="shimmer" style="animation-delay: 0.8073975607704142s" />
<circle cx="34.948031705087246" cy="187.5235038343524" r="1.2470748755105383" fill="white" opacity="0.6464989291114167"  style="animation-delay: 3.054365821331694s" />
<circle cx="341.7976619361518" cy="22.560713988410086" r="1.6241182338104636" fill="white" opacity="0.6105509304456507"  style="animation-delay: 0.7267424858332883s" />
<circle cx="707.6692909949916" cy="118.33263190586175" r="1.1144964307509384" fill="white" opacity="0.5314672357995043" class="shimmer" style="animation-delay: 4.264791303703981s" />
<circle cx="559.4041943020159" cy="88.04373982530427" r="0.995953963427342" fill="white" opacity="0.6035737055705139"  style="animation-delay: 2.7793577213073197s" />
<circle cx="725.2054204047622" cy="175.30447302805933" r="0.7236154403225895" fill="white" opacity="0.7158837713070514"  style="animation-delay: 4.95864095045388s" />
<circle cx="502.295545376956" cy="134.11538516780928" r="1.5141538945133497" fill="white" opacity="0.48351074713263237"  style="animation-delay: 2.938457303696016s" />
<circle cx="774.8744236105262" cy="3.416595407533185" r="2.940740119434614" fill="#9d4edd" opacity="0.8" filter="url(#glow)" class="shimmer" style="animation-delay: 1.3909049084277623s" />
<circle cx="45.957942786622574" cy="130.67779236019464" r="2.9433544439348527" fill="#4a0080" opacity="0.8" filter="url(#glow)" class="shimmer" style="animation-delay: 2.027203102568947s" />
<circle cx="791.347341551576" cy="86.68304078297137" r="2.398750097276538" fill="#c77dff" opacity="0.8" filter="url(#glow)" class="shimmer" style="animation-delay: 0.8772841313294524s" />
<circle cx="782.9215480839146" cy="172.32121050112758" r="1.7780137709896668" fill="#c77dff" opacity="0.8" filter="url(#glow)" class="shimmer" style="animation-delay: 2.0631795362788923s" />
<circle cx="382.00426350278286" cy="167.37084650063002" r="1.376960184664131" fill="#4a0080" opacity="0.8" filter="url(#glow)" class="shimmer" style="animation-delay: 0.926641878649636s" />
<circle cx="559.7897524393602" cy="37.62900345939024" r="2.811281774963975" fill="#7b2cbf" opacity="0.8" filter="url(#glow)" class="shimmer" style="animation-delay: 1.5219867341560296s" />
<circle cx="248.80599570101313" cy="108.96325754259087" r="2.3996699972166744" fill="#9d4edd" opacity="0.8" filter="url(#glow)" class="shimmer" style="animation-delay: 2.575934852136272s" />
<circle cx="717.6428502812536" cy="16.29233757843447" r="1.812748098250164" fill="#e0aaff" opacity="0.8" filter="url(#glow)" class="shimmer" style="animation-delay: 2.2146034448942515s" />
<line x1="715.4565345434945" y1="58.29414699938282" x2="206.38416803891346" y2="90.1516004285261" stroke="#e0aaff" stroke-width="0.5" opacity="0.3" />
<line x1="206.38416803891346" y1="90.1516004285261" x2="560.9725536081841" y2="88.20226234514318" stroke="#e0aaff" stroke-width="0.5" opacity="0.3" />
<line x1="560.9725536081841" y1="88.20226234514318" x2="261.05611693451385" y2="97.3212063911599" stroke="#e0aaff" stroke-width="0.5" opacity="0.3" />
<line x1="417.14697867108947" y1="80.46954013052078" x2="746.6247678496105" y2="93.8836523568652" stroke="#e0aaff" stroke-width="0.5" opacity="0.3" />

  
    <text x="400" y="120" text-anchor="middle" class="name-text" fill="url(#textGrad)" filter="url(#textGlow)">
      JOEL HOOKS
    </text>
  
</svg>
