<svg xmlns="http://www.w3.org/2000/svg" viewBox="0 0 800 200" width="800" height="200">
  <rect width="800" height="200" fill="#1a0a0a"/>
  
    <defs>
      <linearGradient id="grad1" x1="0%" y1="0%" x2="100%" y2="100%">
        <stop offset="0%" style="stop-color:#ff4500;stop-opacity:0.8" />
        <stop offset="100%" style="stop-color:#ff6b35;stop-opacity:0.8" />
      </linearGradient>
      <linearGradient id="grad2" x1="100%" y1="0%" x2="0%" y2="100%">
        <stop offset="0%" style="stop-color:#f7c59f;stop-opacity:0.7" />
        <stop offset="100%" style="stop-color:#efa48b;stop-opacity:0.7" />
      </linearGradient>
      <linearGradient id="textGrad" x1="0%" y1="0%" x2="100%" y2="0%">
        <stop offset="0%" style="stop-color:#ff4500" />
        <stop offset="25%" style="stop-color:#ff6b35" />
        <stop offset="50%" style="stop-color:#f7c59f" />
        <stop offset="75%" style="stop-color:#efa48b" />
        <stop offset="100%" style="stop-color:#d4a5a5" />
      </linearGradient>
      <filter id="glow">
        <feGaussianBlur stdDeviation="3" result="coloredBlur"/>
        <feMerge>
          <feMergeNode in="coloredBlur"/>
          <feMergeNode in="SourceGraphic"/>
        </feMerge>
      </filter>
      <filter id="textGlow">
        <feGaussianBlur stdDeviation="2" result="coloredBlur"/>
        <feMerge>
          <feMergeNode in="coloredBlur"/>
          <feMergeNode in="SourceGraphic"/>
        </feMerge>
      </filter>
    </defs>
  
  
    <style>
      @keyframes float {
        0%, 100% { transform: translateY(0px); }
        50% { transform: translateY(-8px); }
      }
      @keyframes pulse {
        0%, 100% { opacity: 0.4; }
        50% { opacity: 0.9; }
      }
      @keyframes drift {
        0% { transform: translateX(0px); }
        50% { transform: translateX(10px); }
        100% { transform: translateX(0px); }
      }
      @keyframes shimmer {
        0% { opacity: 0.3; }
        50% { opacity: 1; }
        100% { opacity: 0.3; }
      }
      @keyframes glitch {
        0%, 100% { transform: translateX(0); }
        20% { transform: translateX(-2px); }
        40% { transform: translateX(2px); }
        60% { transform: translateX(-1px); }
        80% { transform: translateX(1px); }
      }
      @keyframes dataStream {
        0% { stroke-dashoffset: 0; }
        100% { stroke-dashoffset: -20; }
      }
      .float { animation: float 8s ease-in-out infinite; }
      .pulse { animation: pulse 8s ease-in-out infinite; }
      .drift { animation: drift 8s ease-in-out infinite; }
      .shimmer { animation: shimmer 3s ease-in-out infinite; }
      .glitch { animation: glitch 0.5s ease-in-out infinite; }
      .dataStream { animation: dataStream 2s linear infinite; }
      .name-text { 
        font-family: -apple-system, BlinkMacSystemFont, 'Segoe UI', Helvetica, Arial, sans-serif;
        font-weight: 700;
        font-size: 64px;
        letter-spacing: -2px;
      }
    </style>
  
  <rect x="0" y="160" width="800" height="50" fill="#ff4500" opacity="0.3" />
<rect x="0" y="170" width="800" height="40" fill="#ff6b35" opacity="0.25" />
<rect x="0" y="180" width="800" height="30" fill="#f7c59f" opacity="0.19999999999999998" />
<rect x="0" y="190" width="800" height="20" fill="#efa48b" opacity="0.14999999999999997" />
<rect x="0" y="200" width="800" height="10" fill="#d4a5a5" opacity="0.09999999999999998" />
<line x1="255.8706457021754" y1="170" x2="255.8706457021754" y2="300.26845732033837" stroke="#ff4500" stroke-width="1.691347572118568" opacity="0.29423752047273444" class="pulse" />
<line x1="255.8706457021754" y1="170" x2="293.2288678097274" y2="309.4227829858267" stroke="#ff4500" stroke-width="1.1774079849981458" opacity="0.20985702140213292" class="pulse" />
<line x1="255.8706457021754" y1="170" x2="305.1130420285412" y2="255.2903323237086" stroke="#ff4500" stroke-width="1.8717993801236545" opacity="0.20247525415830364" class="pulse" />
<line x1="255.8706457021754" y1="170" x2="337.9440021060766" y2="252.0733564039012" stroke="#ff4500" stroke-width="1.5733137816437095" opacity="0.19733602312489384" class="pulse" />
<line x1="255.8706457021754" y1="170" x2="348.5956372809575" y2="223.53479884861562" stroke="#ff4500" stroke-width="1.1598701571307823" opacity="0.16828546840043787" class="pulse" />
<line x1="255.8706457021754" y1="170" x2="388.27280142850225" y2="205.47705070300907" stroke="#ff4500" stroke-width="1.9895267425687746" opacity="0.14494804363681185" class="pulse" />
<line x1="255.8706457021754" y1="170" x2="367.5898730137326" y2="170" stroke="#ff4500" stroke-width="1.5452427940991171" opacity="0.14621143442800327" class="pulse" />
<line x1="255.8706457021754" y1="170" x2="399.36861198472707" y2="131.54983581908184" stroke="#ff4500" stroke-width="1.743450789437003" opacity="0.24850545185787615" class="pulse" />
<line x1="255.8706457021754" y1="170" x2="336.7142720650238" y2="123.324910557144" stroke="#ff4500" stroke-width="2.7089651417756544" opacity="0.16207007515436836" class="pulse" />
<line x1="255.8706457021754" y1="170" x2="337.3873295010626" y2="88.4833162011128" stroke="#ff4500" stroke-width="1.5397349702451124" opacity="0.2585788263842733" class="pulse" />
<line x1="255.8706457021754" y1="170" x2="326.97150115351053" y2="46.849705896677065" stroke="#ff4500" stroke-width="1.8183448922338061" opacity="0.10442050829743255" class="pulse" />
<line x1="255.8706457021754" y1="170" x2="283.13716671782714" y2="68.23995822394333" stroke="#ff4500" stroke-width="1.048691361349531" opacity="0.2405206659180497" class="pulse" />
<path d="M 433.6189469634524 44.41117497280686 C 435.1169081162855 52.9324222792515, 424.9755146731084 67.80325297156664, 417.235303139473 74.4688003506401 C 409.49509160583756 81.13434772971355, 398.1420663602823 83.45927910788285, 387.17767776163976 84.40445924724762 C 376.2132891629972 85.34963938661238, 357.5383855197802 86.80542856590218, 351.44897154761793 80.13988118682872 C 345.35955757545565 73.47433380775526, 347.87498430408954 53.55453408623755, 350.64119392866615 44.41117497280687 C 353.4074035532428 35.267815859376185, 361.95681532291525 33.71340825945319, 368.0462292950775 25.279726506244614 C 374.1356432672398 16.84604475303604, 380.47745994040696 -5.867847214065864, 387.17767776163976 -6.190915546444586 C 393.87789558287255 -6.513983878823308, 400.5073246888389 14.90763475876371, 408.2475362224743 23.341316511972284 C 415.98774775610974 31.77499826518086, 432.1209858106193 35.889927666362226, 433.6189469634524 44.41117497280686 Z" fill="#f7c59f" opacity="0.10219833531554408" class="drift" />
<path d="M 296.11130866768656 52.33064493712262 C 295.5472220611674 64.03823205658774, 301.52895209906285 79.74479209141981, 295.92638047757055 85.76114647596059 C 290.32380885607824 91.77750086050136, 273.97818407225367 88.0899666237922, 262.4958789387326 88.42877124436731 C 251.01357380521148 88.76757586494243, 236.7511773947027 93.81032858395209, 227.0325496764439 87.79397419941131 C 217.3139219581851 81.77761981487053, 203.26394752737258 63.231589589411676, 204.18411262917977 52.33064493712263 C 205.10427773098695 41.42970028483358, 222.83491256902818 28.900435631928282, 232.55354028728698 22.38830628567703 C 242.27216800554578 15.876176939425775, 251.36965230049952 14.403315947366307, 262.4958789387326 13.257868859615108 C 273.6221055769656 12.11242177186391, 293.708328495193 9.003494412918581, 299.31090011668533 15.515623759169834 C 304.9134717381777 22.027753105421088, 296.6753952742057 40.6230578176575, 296.11130866768656 52.33064493712262 Z" fill="#f7c59f" opacity="0.18764166266906357" class="drift" />
<path d="M 193.1061317945912 68.90796728088083 C 193.47167917048873 77.11772480194136, 190.81289926553532 91.20089875176491, 185.20906982154932 94.63388197175502 C 179.60524037756332 98.06686519174512, 167.05400615651712 90.51032047193753, 159.48315513067513 89.50586660082148 C 151.91230410483314 88.50141272970542, 144.6624352519142 92.04014196504876, 139.7839636664973 88.60715874505865 C 134.9054920810804 85.17417552506855, 129.95172172673136 75.21376054416437, 130.21232561817376 68.90796728088083 C 130.47292950961616 62.60217401759728, 136.46911542973479 55.43519026374356, 141.34758701515167 50.77239916535737 C 146.22605860056856 46.109608066971184, 152.53845537217305 41.83073107722465, 159.48315513067513 40.93122069056372 C 166.4278548891772 40.03171030390279, 177.41195612217814 40.71254574700563, 183.01578556616414 45.375336845391814 C 188.61961501015014 50.038127943778, 192.74058441869366 60.698209759820294, 193.1061317945912 68.90796728088083 Z" fill="#f7c59f" opacity="0.1341029988328676" class="drift" />
<path d="M 486.2028686329578 59.14929443161768 C 488.44884362575567 72.66710284439404, 494.00286092043007 97.10043910025546, 486.10458933457994 106.44064464834042 C 478.2063177487298 115.78085019642539, 452.5558493629888 117.21170088057016, 438.8132391178572 115.19052772012748 C 425.07062887272565 113.16935455968479, 414.47435605552766 103.65381123376925, 403.6489278637906 94.31360568568428 C 392.8234996720536 84.97340013759931, 372.98985306034416 69.99991460921594, 373.8606699674348 59.14929443161769 C 374.7314868745254 48.29867425401945, 398.04840111459725 39.467850335093146, 408.87382930633436 29.20988462009484 C 419.69925749807146 18.951918905096534, 428.1874207726142 -1.7524847836367314, 438.8132391178572 -2.398499858372155 C 449.43905746310026 -3.0445149331075783, 464.7304677919425 15.075828456683993, 472.6287393777926 25.3337941716823 C 480.52701096364274 35.591759886680606, 483.95689364015993 45.63148601884133, 486.2028686329578 59.14929443161768 Z" fill="#f7c59f" opacity="0.2260647239181363" class="drift" />
<path d="M 427.55856921824414 60.591972900639156 L 435.0566289730328 56.84294302324484 L 442.55468872782143 60.591972900639156" fill="none" stroke="#d4a5a5" stroke-width="1.5" opacity="0.4" class="float" style="animation-delay: 2.5495112387979333s" />
<path d="M 438.89745820872366 53.55582331772223 L 445.75389032382924 50.127607260169434 L 452.6103224389348 53.55582331772223" fill="none" stroke="#d4a5a5" stroke-width="1.5" opacity="0.4" class="float" style="animation-delay: 2.591533584001425s" />
<path d="M 466.6773711723802 42.258569661248245 L 474.3691106154275 38.41269993972462 L 482.0608500584747 42.258569661248245" fill="none" stroke="#d4a5a5" stroke-width="1.5" opacity="0.4" class="float" style="animation-delay: 1.8383669929512465s" />
<path d="M 466.2150561769933 41.92248840102804 L 473.8825652585418 38.0887338602538 L 481.55007434009025 41.92248840102804" fill="none" stroke="#d4a5a5" stroke-width="1.5" opacity="0.4" class="float" style="animation-delay: 1.491527197744682s" />
<path d="M 64.72774674670553 56.2642748821769 L 69.7774971640964 53.739399673481465 L 74.82724758148727 56.2642748821769" fill="none" stroke="#d4a5a5" stroke-width="1.5" opacity="0.4" class="float" style="animation-delay: 0.3096083090272135s" />

  
    <text x="400" y="120" text-anchor="middle" class="name-text" fill="url(#textGrad)" filter="url(#textGlow)">
      JOEL HOOKS
    </text>
  
</svg>
