<svg xmlns="http://www.w3.org/2000/svg" viewBox="0 0 800 200" width="800" height="200">
  <rect width="800" height="200" fill="#1a0a0a"/>
  
    <defs>
      <linearGradient id="grad1" x1="0%" y1="0%" x2="100%" y2="100%">
        <stop offset="0%" style="stop-color:#ff4500;stop-opacity:0.8" />
        <stop offset="100%" style="stop-color:#ff6b35;stop-opacity:0.8" />
      </linearGradient>
      <linearGradient id="grad2" x1="100%" y1="0%" x2="0%" y2="100%">
        <stop offset="0%" style="stop-color:#f7c59f;stop-opacity:0.7" />
        <stop offset="100%" style="stop-color:#efa48b;stop-opacity:0.7" />
      </linearGradient>
      <linearGradient id="textGrad" x1="0%" y1="0%" x2="100%" y2="0%">
        <stop offset="0%" style="stop-color:#ff4500" />
        <stop offset="25%" style="stop-color:#ff6b35" />
        <stop offset="50%" style="stop-color:#f7c59f" />
        <stop offset="75%" style="stop-color:#efa48b" />
        <stop offset="100%" style="stop-color:#d4a5a5" />
      </linearGradient>
      <filter id="glow">
        <feGaussianBlur stdDeviation="3" result="coloredBlur"/>
        <feMerge>
          <feMergeNode in="coloredBlur"/>
          <feMergeNode in="SourceGraphic"/>
        </feMerge>
      </filter>
      <filter id="textGlow">
        <feGaussianBlur stdDeviation="2" result="coloredBlur"/>
        <feMerge>
          <feMergeNode in="coloredBlur"/>
          <feMergeNode in="SourceGraphic"/>
        </feMerge>
      </filter>
    </defs>
  
  
    <style>
      @keyframes float {
        0%, 100% { transform: translateY(0px); }
        50% { transform: translateY(-8px); }
      }
      @keyframes pulse {
        0%, 100% { opacity: 0.4; }
        50% { opacity: 0.9; }
      }
      @keyframes drift {
        0% { transform: translateX(0px); }
        50% { transform: translateX(10px); }
        100% { transform: translateX(0px); }
      }
      @keyframes shimmer {
        0% { opacity: 0.3; }
        50% { opacity: 1; }
        100% { opacity: 0.3; }
      }
      @keyframes glitch {
        0%, 100% { transform: translateX(0); }
        20% { transform: translateX(-2px); }
        40% { transform: translateX(2px); }
        60% { transform: translateX(-1px); }
        80% { transform: translateX(1px); }
      }
      @keyframes dataStream {
        0% { stroke-dashoffset: 0; }
        100% { stroke-dashoffset: -20; }
      }
      .float { animation: float 8s ease-in-out infinite; }
      .pulse { animation: pulse 8s ease-in-out infinite; }
      .drift { animation: drift 8s ease-in-out infinite; }
      .shimmer { animation: shimmer 3s ease-in-out infinite; }
      .glitch { animation: glitch 0.5s ease-in-out infinite; }
      .dataStream { animation: dataStream 2s linear infinite; }
      .name-text { 
        font-family: -apple-system, BlinkMacSystemFont, 'Segoe UI', Helvetica, Arial, sans-serif;
        font-weight: 700;
        font-size: 64px;
        letter-spacing: -2px;
      }
    </style>
  
  <rect x="0" y="160" width="800" height="50" fill="#ff4500" opacity="0.3" />
<rect x="0" y="170" width="800" height="40" fill="#ff6b35" opacity="0.25" />
<rect x="0" y="180" width="800" height="30" fill="#f7c59f" opacity="0.19999999999999998" />
<rect x="0" y="190" width="800" height="20" fill="#efa48b" opacity="0.14999999999999997" />
<rect x="0" y="200" width="800" height="10" fill="#d4a5a5" opacity="0.09999999999999998" />
<line x1="330.04612182838315" y1="170" x2="330.04612182838315" y2="298.9866794495385" stroke="#ff4500" stroke-width="1.7868119772536488" opacity="0.1463662844885642" class="pulse" />
<line x1="330.04612182838315" y1="170" x2="353.502694117236" y2="257.54111955341097" stroke="#ff4500" stroke-width="2.3167087333851915" opacity="0.25002547040296863" class="pulse" />
<line x1="330.04612182838315" y1="170" x2="393.19442265477966" y2="279.3760654429625" stroke="#ff4500" stroke-width="2.384875737231655" opacity="0.1973247621676888" class="pulse" />
<line x1="330.04612182838315" y1="170" x2="421.9610500151564" y2="261.91492818677324" stroke="#ff4500" stroke-width="1.3758509105808625" opacity="0.2797650904210466" class="pulse" />
<line x1="330.04612182838315" y1="170" x2="434.9561537380937" y2="230.56983516376363" stroke="#ff4500" stroke-width="1.3707655361805693" opacity="0.20978172323813005" class="pulse" />
<line x1="330.04612182838315" y1="170" x2="448.1386958972673" y2="201.6428098538701" stroke="#ff4500" stroke-width="2.2163425812026976" opacity="0.26546859321758576" class="pulse" />
<line x1="330.04612182838315" y1="170" x2="433.63203480315974" y2="170" stroke="#ff4500" stroke-width="2.868499616771453" opacity="0.10424327217224785" class="pulse" />
<line x1="330.04612182838315" y1="170" x2="464.1594712741553" y2="134.0644363217724" stroke="#ff4500" stroke-width="1.669963724549647" opacity="0.242654543036702" class="pulse" />
<line x1="330.04612182838315" y1="170" x2="417.8839006401691" y2="119.2868347579966" stroke="#ff4500" stroke-width="2.339200574586071" opacity="0.15161475307556885" class="pulse" />
<line x1="330.04612182838315" y1="170" x2="424.9656009992342" y2="75.080520829149" stroke="#ff4500" stroke-width="2.6525534017061667" opacity="0.27716045296859554" class="pulse" />
<line x1="330.04612182838315" y1="170" x2="383.8801389312636" y2="76.75674720227926" stroke="#ff4500" stroke-width="1.170533316414542" opacity="0.2807071111825974" class="pulse" />
<line x1="330.04612182838315" y1="170" x2="362.8821314777378" y2="47.4543436707866" stroke="#ff4500" stroke-width="2.5984183556337914" opacity="0.2498729430288901" class="pulse" />
<path d="M 585.1867096332832 51.181348840904704 C 587.1818207529761 60.034323364297705, 579.9516067677264 76.97515579109103, 572.3957348087635 83.72560577016276 C 564.8398628498005 90.47605574923449, 550.0488261822521 92.33478605567444, 539.8514778795054 91.6840487153351 C 529.6541295767587 91.03331137499575, 514.710149221575 86.57163170719842, 511.2116449922834 79.82118172812669 C 507.7131407629919 73.07073174905496, 517.166101470045 59.03360876960067, 518.8604525037563 51.181348840904704 C 520.5548035374676 43.32908891220874, 517.8792469652601 36.12583069507682, 521.3777511945516 32.707622155950915 C 524.8762554238431 29.28941361682501, 533.3435917301631 31.022074860506955, 539.8514778795054 30.672097606149258 C 546.3593640288477 30.32212035179156, 552.8691961316424 27.18955009067883, 560.4250680906054 30.607758629804735 C 567.9809400495683 34.02596716893064, 583.1915985135902 42.3283743175117, 585.1867096332832 51.181348840904704 Z" fill="#f7c59f" opacity="0.24761742398662234" class="drift" />
<path d="M 242.24101355049305 41.06504401385928 C 240.86832330244863 51.530277880477804, 252.19278490748937 61.48129664825337, 248.72761300774417 68.34267486958154 C 245.26244110799897 75.20405309090971, 228.79719632535355 83.97864278707074, 221.4499821520219 82.2333133418283 C 214.10276797869025 80.48798389658587, 209.726989041989 64.73207641945513, 204.64432796775424 57.87069819812695 C 199.5616668935195 51.00931997679878, 194.06829923417118 49.78121226950623, 190.95401570661346 41.065044013859286 C 187.83973217905574 32.348875758212344, 180.87596572817318 10.688449233303677, 185.95862680240793 5.573688664245317 C 191.04128787664268 0.4589280951869572, 209.6157942030881 10.380216765238282, 221.4499821520219 10.376480599509126 C 233.28417010095572 10.37274443377997, 253.49858259626558 0.43651110081202216, 256.9637544960108 5.551271669870381 C 260.428926395756 10.66603223892874, 243.61370379853747 30.599810147240753, 242.24101355049305 41.06504401385928 Z" fill="#f7c59f" opacity="0.20951066151439152" class="drift" />
<path d="M 564.754792444869 73.65797723895993 C 564.1176254277931 86.0272565981892, 567.0895955236359 98.38639141030302, 560.5172887340973 108.85431426541992 C 553.9449819445587 119.32223712053681, 538.5616626237694 134.95691579568256, 525.3209517076373 136.46551436966135 C 512.0802407915052 137.97411294364014, 489.9276971381671 128.37382856440945, 481.07302323730465 117.90590570929255 C 472.2183493364422 107.43798285417566, 472.07142131437297 88.28579974098123, 472.19290830246257 73.65797723895993 C 472.31439529055217 59.03015473693863, 472.94727126497963 40.03288499361222, 481.8019451658421 30.138970697164723 C 490.65661906670454 20.245056400717225, 511.5645607625188 13.544546891461676, 525.3209517076373 14.29449146027494 C 539.0773426527558 15.044436029088205, 557.7679840470142 24.744723813596806, 564.3402908365529 34.638638110044305 C 570.9125976260915 44.5325524064918, 565.391959461945 61.28869787973066, 564.754792444869 73.65797723895993 Z" fill="#f7c59f" opacity="0.143688108169414" class="drift" />
<path d="M 431.3694926897702 22.5029746583594 C 430.701670387833 33.541620949186445, 419.5588334706004 45.842854255921765, 410.97420723343254 53.615446625029016 C 402.38958099626467 61.38803899413627, 390.85888364774183 68.51220448091388, 379.86173526676293 69.13852887300291 C 368.86458688578404 69.76485326509194, 352.9639357665215 65.14598534667049, 344.9913169475591 57.373392977563235 C 337.01869812859667 49.600800608455984, 330.80910570115515 32.90953077959393, 332.02602235298855 22.502974658359406 C 333.24293900482195 12.096418537124885, 344.3201980395972 2.6204764287724984, 352.2928168585596 -5.065943749843893 C 360.265435677522 -12.752363928460284, 369.41368123568026 -22.357131851657382, 379.86173526676293 -23.61554641333894 C 390.3097892978456 -24.8739609750205, 406.3965148078877 -20.302851298549637, 414.98114104505555 -12.616431119933246 C 423.5657672822234 -4.930010941316856, 432.0373149917074 11.464328367532355, 431.3694926897702 22.5029746583594 Z" fill="#f7c59f" opacity="0.12947029434202645" class="drift" />
<path d="M 285.11954065351887 38.065424028594336 L 297.043683260721 32.10335272499326 L 308.9678258679232 38.065424028594336" fill="none" stroke="#d4a5a5" stroke-width="1.5" opacity="0.4" class="float" style="animation-delay: 0.6468186290092126s" />
<path d="M 566.0517847141354 74.1460714111387 L 574.9986198622597 69.6726538370765 L 583.9454550103841 74.1460714111387" fill="none" stroke="#d4a5a5" stroke-width="1.5" opacity="0.4" class="float" style="animation-delay: 2.007450667620362s" />
<path d="M 416.48431227327677 27.20512476753567 L 426.29964210158016 22.297459853383966 L 436.11497192988355 27.20512476753567" fill="none" stroke="#d4a5a5" stroke-width="1.5" opacity="0.4" class="float" style="animation-delay: 1.3106409916664747s" />
<path d="M 620.5172058189767 58.22002889035025 L 631.0954965255183 52.93088353707942 L 641.67378723206 58.22002889035025" fill="none" stroke="#d4a5a5" stroke-width="1.5" opacity="0.4" class="float" style="animation-delay: 0.18027888967466033s" />
<path d="M 122.99698300081657 40.00293436624132 L 131.73467021936605 35.63409075696658 L 140.47235743791552 40.00293436624132" fill="none" stroke="#d4a5a5" stroke-width="1.5" opacity="0.4" class="float" style="animation-delay: 1.2555644378966109s" />

  
    <text x="400" y="120" text-anchor="middle" class="name-text" fill="url(#textGrad)" filter="url(#textGlow)">
      JOEL HOOKS
    </text>
  
</svg>
