<svg xmlns="http://www.w3.org/2000/svg" viewBox="0 0 800 200" width="800" height="200">
  <rect width="800" height="200" fill="#1a0a0a"/>
  
    <defs>
      <linearGradient id="grad1" x1="0%" y1="0%" x2="100%" y2="100%">
        <stop offset="0%" style="stop-color:#ff4500;stop-opacity:0.8" />
        <stop offset="100%" style="stop-color:#ff6b35;stop-opacity:0.8" />
      </linearGradient>
      <linearGradient id="grad2" x1="100%" y1="0%" x2="0%" y2="100%">
        <stop offset="0%" style="stop-color:#f7c59f;stop-opacity:0.7" />
        <stop offset="100%" style="stop-color:#efa48b;stop-opacity:0.7" />
      </linearGradient>
      <linearGradient id="textGrad" x1="0%" y1="0%" x2="100%" y2="0%">
        <stop offset="0%" style="stop-color:#ff4500" />
        <stop offset="25%" style="stop-color:#ff6b35" />
        <stop offset="50%" style="stop-color:#f7c59f" />
        <stop offset="75%" style="stop-color:#efa48b" />
        <stop offset="100%" style="stop-color:#d4a5a5" />
      </linearGradient>
      <filter id="glow">
        <feGaussianBlur stdDeviation="3" result="coloredBlur"/>
        <feMerge>
          <feMergeNode in="coloredBlur"/>
          <feMergeNode in="SourceGraphic"/>
        </feMerge>
      </filter>
      <filter id="textGlow">
        <feGaussianBlur stdDeviation="2" result="coloredBlur"/>
        <feMerge>
          <feMergeNode in="coloredBlur"/>
          <feMergeNode in="SourceGraphic"/>
        </feMerge>
      </filter>
    </defs>
  
  
    <style>
      @keyframes float {
        0%, 100% { transform: translateY(0px); }
        50% { transform: translateY(-8px); }
      }
      @keyframes pulse {
        0%, 100% { opacity: 0.4; }
        50% { opacity: 0.9; }
      }
      @keyframes drift {
        0% { transform: translateX(0px); }
        50% { transform: translateX(10px); }
        100% { transform: translateX(0px); }
      }
      @keyframes shimmer {
        0% { opacity: 0.3; }
        50% { opacity: 1; }
        100% { opacity: 0.3; }
      }
      @keyframes glitch {
        0%, 100% { transform: translateX(0); }
        20% { transform: translateX(-2px); }
        40% { transform: translateX(2px); }
        60% { transform: translateX(-1px); }
        80% { transform: translateX(1px); }
      }
      @keyframes dataStream {
        0% { stroke-dashoffset: 0; }
        100% { stroke-dashoffset: -20; }
      }
      .float { animation: float 8s ease-in-out infinite; }
      .pulse { animation: pulse 8s ease-in-out infinite; }
      .drift { animation: drift 8s ease-in-out infinite; }
      .shimmer { animation: shimmer 3s ease-in-out infinite; }
      .glitch { animation: glitch 0.5s ease-in-out infinite; }
      .dataStream { animation: dataStream 2s linear infinite; }
      .name-text { 
        font-family: -apple-system, BlinkMacSystemFont, 'Segoe UI', Helvetica, Arial, sans-serif;
        font-weight: 700;
        font-size: 64px;
        letter-spacing: -2px;
      }
    </style>
  
  <rect x="0" y="160" width="800" height="50" fill="#ff4500" opacity="0.3" />
<rect x="0" y="170" width="800" height="40" fill="#ff6b35" opacity="0.25" />
<rect x="0" y="180" width="800" height="30" fill="#f7c59f" opacity="0.19999999999999998" />
<rect x="0" y="190" width="800" height="20" fill="#efa48b" opacity="0.14999999999999997" />
<rect x="0" y="200" width="800" height="10" fill="#d4a5a5" opacity="0.09999999999999998" />
<line x1="346.3480837315174" y1="170" x2="346.3480837315174" y2="262.258581841093" stroke="#ff4500" stroke-width="2.432377530817955" opacity="0.13652335900815832" class="pulse" />
<line x1="346.3480837315174" y1="170" x2="383.9913203530961" y2="310.4864716330692" stroke="#ff4500" stroke-width="1.5924683904646932" opacity="0.1813202333249623" class="pulse" />
<line x1="346.3480837315174" y1="170" x2="401.28682395339985" y2="265.15668936812824" stroke="#ff4500" stroke-width="2.056124808718759" opacity="0.127436084435992" class="pulse" />
<line x1="346.3480837315174" y1="170" x2="446.7271616764063" y2="270.3790779448889" stroke="#ff4500" stroke-width="2.419336665555037" opacity="0.24096977443344664" class="pulse" />
<line x1="346.3480837315174" y1="170" x2="437.82005602291514" y2="222.81136782574447" stroke="#ff4500" stroke-width="1.2698142037750713" opacity="0.27451061311963654" class="pulse" />
<line x1="346.3480837315174" y1="170" x2="450.7478733521197" y2="197.9738393188195" stroke="#ff4500" stroke-width="1.6593575305653765" opacity="0.20512656460984285" class="pulse" />
<line x1="346.3480837315174" y1="170" x2="491.2161843091159" y2="170" stroke="#ff4500" stroke-width="2.047392351219161" opacity="0.11286925033906368" class="pulse" />
<line x1="346.3480837315174" y1="170" x2="434.2215241136622" y2="146.4543826134599" stroke="#ff4500" stroke-width="1.5316704477458432" opacity="0.24324481147013186" class="pulse" />
<line x1="346.3480837315174" y1="170" x2="442.6716230530859" y2="114.38757864339493" stroke="#ff4500" stroke-width="2.8262198387313084" opacity="0.10963157635573523" class="pulse" />
<line x1="346.3480837315174" y1="170" x2="405.97309157934285" y2="110.37499215217458" stroke="#ff4500" stroke-width="2.308515225448566" opacity="0.23384537732985522" class="pulse" />
<line x1="346.3480837315174" y1="170" x2="415.3377986582387" y2="50.5063085472259" stroke="#ff4500" stroke-width="1.858519809991066" opacity="0.23726909368926855" class="pulse" />
<line x1="346.3480837315174" y1="170" x2="379.6785347853115" y2="45.609063228052946" stroke="#ff4500" stroke-width="1.010065105371896" opacity="0.10559732206454005" class="pulse" />
<path d="M 130.29459411345485 72.91989747994634 C 129.80408985231503 84.33858484065694, 120.83870854284052 99.37531683959917, 112.3906215689752 105.70444677865862 C 103.94253459510989 112.03357671771808, 89.10678480645261 112.32214767768413, 79.60607227026293 110.89467711430305 C 70.10535973407325 109.46720655092197, 61.52245857738998 103.46875333743164, 55.3863463518371 97.13962339837218 C 49.25023412628421 90.81049345931272, 44.099669701256964 82.30341023706633, 42.78939891694559 72.91989747994634 C 41.47912813263422 63.53638472282636, 41.38860942041598 48.730782196176236, 47.52472164596887 40.83854685565229 C 53.66083387152175 32.94631151512834, 68.30458468862203 26.174189477012217, 79.60607227026291 25.566485436802687 C 90.9075598519038 24.958781396593157, 106.88556016194883 29.30008727387116, 115.33364713581415 37.1923226143951 C 123.78173410967946 45.08455795491905, 130.78509837459467 61.50121011923576, 130.29459411345485 72.91989747994634 Z" fill="#f7c59f" opacity="0.11676575944017165" class="drift" />
<path d="M 354.690780867075 33.37350325471578 C 357.37529429273235 42.83968709043188, 357.09286403614755 65.22866348274529, 350.28286231313797 69.82559503883613 C 343.4728605901284 74.42252659492696, 323.212451778546 63.72410860310588, 313.8307705290176 60.95509259126077 C 304.44908927948927 58.18607657941566, 302.04067141956364 57.80843052385628, 293.99277481596795 53.21149896776545 C 285.94487821237226 48.61456741167462, 265.3893647799806 39.83214236493599, 265.5433909074436 33.373503254715786 C 265.6974170349066 26.91486414449558, 286.86903497715036 20.756740392670316, 294.91693158074605 14.459664306444228 C 302.96482818434174 8.16258822021814, 307.28762883260964 -4.170424548989961, 313.8307705290176 -4.408953262640743 C 320.3739122254256 -4.647481976291526, 327.3657800361843 6.731415938313444, 334.17578175919385 13.028492024539531 C 340.98578348220343 19.32556811076562, 352.0062674414176 23.907319418999677, 354.690780867075 33.37350325471578 Z" fill="#f7c59f" opacity="0.12993789614708284" class="drift" />
<path d="M 190.62348208425536 56.45481476526165 C 191.40947479385864 66.1188208410255, 204.4805832427668 80.38117243208698, 200.98200420324883 87.804811121363 C 197.48342516373086 95.22844981063902, 177.60263503764514 103.47601849578719, 169.63200784714746 100.99664690091774 C 161.66138065664978 98.51727530604829, 156.7159959879129 80.35222024142232, 153.1582410602628 72.9285815521463 C 149.60048613261273 65.50494286287028, 149.61025805748562 63.270850137128456, 148.28547828124704 56.45481476526165 C 146.96069850500845 49.63877939339485, 141.65180747518122 39.14864071553379, 145.2095624028313 32.032369320945485 C 148.76731733048138 24.91609792635718, 161.1225935900145 14.125785506759406, 169.63200784714746 13.757186397731822 C 178.14142210428042 13.388587288704237, 192.76746890611116 22.70450327219167, 196.26604794562914 29.820774666779975 C 199.76462698514712 36.93704606136828, 189.83748937465208 46.790808689497815, 190.62348208425536 56.45481476526165 Z" fill="#f7c59f" opacity="0.23905874599648036" class="drift" />
<path d="M 327.2856754010866 39.4223827413788 C 325.9162770505225 50.44421228064389, 317.0852492115136 59.787419614268224, 309.2537052603784 68.37967630748173 C 301.4221613092432 76.97193300069523, 291.3443998370917 89.58036594654459, 280.2964116942755 90.97592290065982 C 269.24842355145927 92.37147985477506, 250.9477146200068 85.34527472538667, 242.96577640348113 76.75301803217317 C 234.98383818695547 68.16076133895967, 230.44514389750728 49.90628934069601, 232.40478239512152 39.422382741378804 C 234.36442089273575 28.938476142061596, 246.74166917264094 21.419102433894068, 254.7236073891666 13.849578436269908 C 262.70554560569224 6.280054438645748, 269.83866369850944 -4.061281350303042, 280.2964116942755 -5.99476124436616 C 290.75415969004155 -7.928241138429278, 309.63855141262786 -5.320824925732957, 317.47009536376305 2.2486990718912025 C 325.30163931489824 9.818223069515362, 328.6550737516507 28.400553202113706, 327.2856754010866 39.4223827413788 Z" fill="#f7c59f" opacity="0.13688541439807586" class="drift" />
<path d="M 463.2781855314168 72.17610926848553 L 472.07367615355054 67.77836395741866 L 480.8691667756843 72.17610926848553" fill="none" stroke="#d4a5a5" stroke-width="1.5" opacity="0.4" class="float" style="animation-delay: 2.153934346767702s" />
<path d="M 572.3772324500245 76.47609038653053 L 582.1890829797505 71.57016512166751 L 592.0009335094766 76.47609038653053" fill="none" stroke="#d4a5a5" stroke-width="1.5" opacity="0.4" class="float" style="animation-delay: 2.757716988169878s" />
<path d="M 126.36253062454132 33.00274214299097 L 136.59046278358298 27.88877606347014 L 146.81839494262462 33.00274214299097" fill="none" stroke="#d4a5a5" stroke-width="1.5" opacity="0.4" class="float" style="animation-delay: 2.8365981903764577s" />
<path d="M 101.45747265016618 55.51754241226139 L 109.14524105996327 51.67365820736285 L 116.83300946976036 55.51754241226139" fill="none" stroke="#d4a5a5" stroke-width="1.5" opacity="0.4" class="float" style="animation-delay: 1.208960476712815s" />
<path d="M 602.6694379389298 71.06959878988629 L 608.8813483320315 67.96364359333543 L 615.0932587251332 71.06959878988629" fill="none" stroke="#d4a5a5" stroke-width="1.5" opacity="0.4" class="float" style="animation-delay: 0.2546038478253869s" />

  
    <text x="400" y="120" text-anchor="middle" class="name-text" fill="url(#textGrad)" filter="url(#textGlow)">
      JOEL HOOKS
    </text>
  
</svg>
