<svg xmlns="http://www.w3.org/2000/svg" viewBox="0 0 800 200" width="800" height="200">
  <rect width="800" height="200" fill="#1a0a0a"/>
  
    <defs>
      <linearGradient id="grad1" x1="0%" y1="0%" x2="100%" y2="100%">
        <stop offset="0%" style="stop-color:#ff4500;stop-opacity:0.8" />
        <stop offset="100%" style="stop-color:#ff6b35;stop-opacity:0.8" />
      </linearGradient>
      <linearGradient id="grad2" x1="100%" y1="0%" x2="0%" y2="100%">
        <stop offset="0%" style="stop-color:#f7c59f;stop-opacity:0.7" />
        <stop offset="100%" style="stop-color:#efa48b;stop-opacity:0.7" />
      </linearGradient>
      <linearGradient id="textGrad" x1="0%" y1="0%" x2="100%" y2="0%">
        <stop offset="0%" style="stop-color:#ff4500" />
        <stop offset="25%" style="stop-color:#ff6b35" />
        <stop offset="50%" style="stop-color:#f7c59f" />
        <stop offset="75%" style="stop-color:#efa48b" />
        <stop offset="100%" style="stop-color:#d4a5a5" />
      </linearGradient>
      <filter id="glow">
        <feGaussianBlur stdDeviation="3" result="coloredBlur"/>
        <feMerge>
          <feMergeNode in="coloredBlur"/>
          <feMergeNode in="SourceGraphic"/>
        </feMerge>
      </filter>
      <filter id="textGlow">
        <feGaussianBlur stdDeviation="2" result="coloredBlur"/>
        <feMerge>
          <feMergeNode in="coloredBlur"/>
          <feMergeNode in="SourceGraphic"/>
        </feMerge>
      </filter>
    </defs>
  
  
    <style>
      @keyframes float {
        0%, 100% { transform: translateY(0px); }
        50% { transform: translateY(-8px); }
      }
      @keyframes pulse {
        0%, 100% { opacity: 0.4; }
        50% { opacity: 0.9; }
      }
      @keyframes drift {
        0% { transform: translateX(0px); }
        50% { transform: translateX(10px); }
        100% { transform: translateX(0px); }
      }
      @keyframes shimmer {
        0% { opacity: 0.3; }
        50% { opacity: 1; }
        100% { opacity: 0.3; }
      }
      @keyframes glitch {
        0%, 100% { transform: translateX(0); }
        20% { transform: translateX(-2px); }
        40% { transform: translateX(2px); }
        60% { transform: translateX(-1px); }
        80% { transform: translateX(1px); }
      }
      @keyframes dataStream {
        0% { stroke-dashoffset: 0; }
        100% { stroke-dashoffset: -20; }
      }
      .float { animation: float 8s ease-in-out infinite; }
      .pulse { animation: pulse 8s ease-in-out infinite; }
      .drift { animation: drift 8s ease-in-out infinite; }
      .shimmer { animation: shimmer 3s ease-in-out infinite; }
      .glitch { animation: glitch 0.5s ease-in-out infinite; }
      .dataStream { animation: dataStream 2s linear infinite; }
      .name-text { 
        font-family: -apple-system, BlinkMacSystemFont, 'Segoe UI', Helvetica, Arial, sans-serif;
        font-weight: 700;
        font-size: 64px;
        letter-spacing: -2px;
      }
    </style>
  
  <rect x="0" y="160" width="800" height="50" fill="#ff4500" opacity="0.3" />
<rect x="0" y="170" width="800" height="40" fill="#ff6b35" opacity="0.25" />
<rect x="0" y="180" width="800" height="30" fill="#f7c59f" opacity="0.19999999999999998" />
<rect x="0" y="190" width="800" height="20" fill="#efa48b" opacity="0.14999999999999997" />
<rect x="0" y="200" width="800" height="10" fill="#d4a5a5" opacity="0.09999999999999998" />
<line x1="311.05156413198347" y1="170" x2="311.05156413198347" y2="300.9356218461082" stroke="#ff4500" stroke-width="1.3497642710187336" opacity="0.2985511400413183" class="pulse" />
<line x1="311.05156413198347" y1="170" x2="337.8799343080699" y2="270.1248405814201" stroke="#ff4500" stroke-width="2.9339457444543076" opacity="0.1572463013499442" class="pulse" />
<line x1="311.05156413198347" y1="170" x2="367.64882225833395" y2="268.02932664392955" stroke="#ff4500" stroke-width="2.5908274608807975" opacity="0.2086005741526511" class="pulse" />
<line x1="311.05156413198347" y1="170" x2="412.68175164091616" y2="271.6301875089327" stroke="#ff4500" stroke-width="1.9509294291086143" opacity="0.20496211265542147" class="pulse" />
<line x1="311.05156413198347" y1="170" x2="393.5041669742686" y2="217.60403244637865" stroke="#ff4500" stroke-width="1.5915174432495096" opacity="0.12450157138100143" class="pulse" />
<line x1="311.05156413198347" y1="170" x2="398.77451610869025" y2="193.50529413983276" stroke="#ff4500" stroke-width="2.4884940444823553" opacity="0.29164200837416215" class="pulse" />
<line x1="311.05156413198347" y1="170" x2="442.8098078602134" y2="170" stroke="#ff4500" stroke-width="1.6528806943295984" opacity="0.10377387796069604" class="pulse" />
<line x1="311.05156413198347" y1="170" x2="436.1294930962813" y2="136.4854699430591" stroke="#ff4500" stroke-width="2.039111902164141" opacity="0.296521754046118" class="pulse" />
<line x1="311.05156413198347" y1="170" x2="396.47727657216444" y2="120.67944192694597" stroke="#ff4500" stroke-width="1.4111222133492332" opacity="0.2060338011982379" class="pulse" />
<line x1="311.05156413198347" y1="170" x2="405.15488543021286" y2="75.89667870177064" stroke="#ff4500" stroke-width="1.1908000390547966" opacity="0.11794733523480101" class="pulse" />
<line x1="311.05156413198347" y1="170" x2="385.81806805386304" y2="40.50061650300697" stroke="#ff4500" stroke-width="1.0247397232776305" opacity="0.2818620940352256" class="pulse" />
<line x1="311.05156413198347" y1="170" x2="341.83023502037565" y2="55.132436455079414" stroke="#ff4500" stroke-width="1.2525089446540818" opacity="0.14978140757868688" class="pulse" />
<path d="M 771.5055281220535 57.3571801919386 C 771.7758281491374 73.5924261552953, 782.9630895476666 99.77854770000886, 775.351274238525 106.87381816326034 C 767.7394589293833 113.96908862651182, 739.6642685982843 102.60471663080705, 725.8346362672032 99.92880297144747 C 712.0050039361222 97.25288931208789, 701.162679250936 97.91360667035433, 692.373480252039 90.81833620710285 C 683.5842812531421 83.72306574385136, 672.514128622392 67.92558521223073, 673.0994422738213 57.35718019193861 C 673.6847559252506 46.7887751716465, 687.0961631617179 35.50663116367984, 695.8853621606148 27.407906085350167 C 704.6745611595118 19.30918100702049, 712.8606176146354 11.755757005665561, 725.8346362672032 8.764829721960567 C 738.808654919771 5.773902438255572, 766.1176587668799 1.3636173047905213, 773.7294740760216 9.462342383120195 C 781.3412893851632 17.561067461449866, 771.2352280949697 41.121934228581914, 771.5055281220535 57.3571801919386 Z" fill="#f7c59f" opacity="0.15257788962254237" class="drift" />
<path d="M 300.99130093361543 22.671066179994316 C 301.16645913282883 32.13857985867081, 295.58955779667485 43.463600701423566, 288.7236060425528 51.59908181366397 C 281.8576542884307 59.73456292590438, 269.13674017594434 71.78547496426545, 259.79559040888313 71.48395285343676 C 250.45444064182192 71.18243074260808, 241.3196736207943 57.925430260932295, 232.67670744018557 49.78994914869189 C 224.03374125957683 41.65446803645148, 211.1943594338072 34.9672599448034, 207.93779332523064 22.671066179994323 C 204.6812272166541 10.374872415185246, 204.49434460811747 -14.705312276940472, 213.1373107887262 -23.987213440162574 C 221.78027696933495 -33.26911460338468, 247.37303273245877 -36.15054299629955, 259.79559040888313 -33.020340799338285 C 272.21814808530746 -29.890138602377018, 280.8067050931503 -14.48790142161707, 287.6726568472724 -5.206000258394969 C 294.53860860139446 4.075900904827131, 300.81614273440204 13.203552501317827, 300.99130093361543 22.671066179994316 Z" fill="#f7c59f" opacity="0.10123620392758709" class="drift" />
<path d="M 738.1048213492584 73.52582014459831 C 738.5507006500209 81.16216676535485, 725.3285492185016 88.19784794082958, 717.9239592394388 97.77249790915562 C 710.5193692603759 107.34714787748166, 702.7515660298902 129.98166132106493, 693.6772814748815 130.97371995455455 C 684.6029969198728 131.96577858804417, 672.702342907549 113.29949967841942, 663.4782519093865 103.72484971009338 C 654.254160911224 94.15019974176734, 638.6181680808197 83.87759592801018, 638.3327354859061 73.52582014459831 C 638.0473028909926 63.174044361186446, 652.5415653417429 47.407644777741055, 661.7656563399054 41.61419500962218 C 670.9897473380679 35.8207452415033, 684.7634436257218 37.04175100671939, 693.6772814748815 38.76512153588508 C 702.5911193240412 40.48849206505077, 707.8440934558006 46.16096841649747, 715.2486834348634 51.954418184616344 C 722.6532734139263 57.74786795273522, 737.6589420484959 65.88947352384177, 738.1048213492584 73.52582014459831 Z" fill="#f7c59f" opacity="0.1635375664212987" class="drift" />
<path d="M 196.14276367818943 31.380995344862423 C 199.30308512283125 42.41987783526018, 205.57536327545316 65.265006119489, 198.94236083388216 73.9786071499811 C 192.30935839231117 82.6922081804732, 167.02845486712744 87.17809962449064, 156.3447490287635 83.66260152781503 C 145.66104319039954 80.14710343113941, 144.12974868819168 61.59921960041952, 134.8401258036985 52.885618569927416 C 125.55050291920531 44.172017539435316, 101.11738718122386 39.05957854597025, 100.60701172180437 31.38099534486243 C 100.09663626238488 23.702412143754614, 122.48825016268839 15.569733425583996, 131.77787304718157 6.814119363280508 C 141.06749593167476 -1.9414946990229804, 148.31098917562187 -21.307887836344175, 156.3447490287635 -21.152689028958495 C 164.3785088819051 -20.997490221572814, 173.3474297244603 -1.0103018547089029, 179.9804321660313 7.7453122075945835 C 186.6134346076023 16.50092626989807, 192.9824422335476 20.34211285446467, 196.14276367818943 31.380995344862423 Z" fill="#f7c59f" opacity="0.23474619246394557" class="drift" />
<path d="M 700.9474667914532 62.135610401170034 L 708.3927439197166 58.41297183703829 L 715.8380210479801 62.135610401170034" fill="none" stroke="#d4a5a5" stroke-width="1.5" opacity="0.4" class="float" style="animation-delay: 1.1893986314038272s" />
<path d="M 588.4792953613504 81.15223143948384 L 598.9085875802102 75.93758533005392 L 609.33787979907 81.15223143948384" fill="none" stroke="#d4a5a5" stroke-width="1.5" opacity="0.4" class="float" style="animation-delay: 2.3085636825148734s" />
<path d="M 250.92488008928933 57.06533606368734 L 262.06220611435265 51.49667305115568 L 273.19953213941596 57.06533606368734" fill="none" stroke="#d4a5a5" stroke-width="1.5" opacity="0.4" class="float" style="animation-delay: 2.9924446101688806s" />
<path d="M 193.3055065161206 79.88014519659075 L 203.6488898877206 74.70845351079075 L 213.9922732593206 79.88014519659075" fill="none" stroke="#d4a5a5" stroke-width="1.5" opacity="0.4" class="float" style="animation-delay: 1.1283442820099732s" />
<path d="M 229.8778916255373 64.31223596634379 L 239.0460406430908 59.72816145756704 L 248.2141896606443 64.31223596634379" fill="none" stroke="#d4a5a5" stroke-width="1.5" opacity="0.4" class="float" style="animation-delay: 2.1579510706428136s" />

  
    <text x="400" y="120" text-anchor="middle" class="name-text" fill="url(#textGrad)" filter="url(#textGlow)">
      JOEL HOOKS
    </text>
  
</svg>
