<svg xmlns="http://www.w3.org/2000/svg" viewBox="0 0 800 200" width="800" height="200">
  <rect width="800" height="200" fill="#1a0a0a"/>
  
    <defs>
      <linearGradient id="grad1" x1="0%" y1="0%" x2="100%" y2="100%">
        <stop offset="0%" style="stop-color:#ff4500;stop-opacity:0.8" />
        <stop offset="100%" style="stop-color:#ff6b35;stop-opacity:0.8" />
      </linearGradient>
      <linearGradient id="grad2" x1="100%" y1="0%" x2="0%" y2="100%">
        <stop offset="0%" style="stop-color:#f7c59f;stop-opacity:0.7" />
        <stop offset="100%" style="stop-color:#efa48b;stop-opacity:0.7" />
      </linearGradient>
      <linearGradient id="textGrad" x1="0%" y1="0%" x2="100%" y2="0%">
        <stop offset="0%" style="stop-color:#ff4500" />
        <stop offset="25%" style="stop-color:#ff6b35" />
        <stop offset="50%" style="stop-color:#f7c59f" />
        <stop offset="75%" style="stop-color:#efa48b" />
        <stop offset="100%" style="stop-color:#d4a5a5" />
      </linearGradient>
      <filter id="glow">
        <feGaussianBlur stdDeviation="3" result="coloredBlur"/>
        <feMerge>
          <feMergeNode in="coloredBlur"/>
          <feMergeNode in="SourceGraphic"/>
        </feMerge>
      </filter>
      <filter id="textGlow">
        <feGaussianBlur stdDeviation="2" result="coloredBlur"/>
        <feMerge>
          <feMergeNode in="coloredBlur"/>
          <feMergeNode in="SourceGraphic"/>
        </feMerge>
      </filter>
    </defs>
  
  
    <style>
      @keyframes float {
        0%, 100% { transform: translateY(0px); }
        50% { transform: translateY(-8px); }
      }
      @keyframes pulse {
        0%, 100% { opacity: 0.4; }
        50% { opacity: 0.9; }
      }
      @keyframes drift {
        0% { transform: translateX(0px); }
        50% { transform: translateX(10px); }
        100% { transform: translateX(0px); }
      }
      @keyframes shimmer {
        0% { opacity: 0.3; }
        50% { opacity: 1; }
        100% { opacity: 0.3; }
      }
      @keyframes glitch {
        0%, 100% { transform: translateX(0); }
        20% { transform: translateX(-2px); }
        40% { transform: translateX(2px); }
        60% { transform: translateX(-1px); }
        80% { transform: translateX(1px); }
      }
      @keyframes dataStream {
        0% { stroke-dashoffset: 0; }
        100% { stroke-dashoffset: -20; }
      }
      .float { animation: float 8s ease-in-out infinite; }
      .pulse { animation: pulse 8s ease-in-out infinite; }
      .drift { animation: drift 8s ease-in-out infinite; }
      .shimmer { animation: shimmer 3s ease-in-out infinite; }
      .glitch { animation: glitch 0.5s ease-in-out infinite; }
      .dataStream { animation: dataStream 2s linear infinite; }
      .name-text { 
        font-family: -apple-system, BlinkMacSystemFont, 'Segoe UI', Helvetica, Arial, sans-serif;
        font-weight: 700;
        font-size: 64px;
        letter-spacing: -2px;
      }
    </style>
  
  <rect x="0" y="160" width="800" height="50" fill="#ff4500" opacity="0.3" />
<rect x="0" y="170" width="800" height="40" fill="#ff6b35" opacity="0.25" />
<rect x="0" y="180" width="800" height="30" fill="#f7c59f" opacity="0.19999999999999998" />
<rect x="0" y="190" width="800" height="20" fill="#efa48b" opacity="0.14999999999999997" />
<rect x="0" y="200" width="800" height="10" fill="#d4a5a5" opacity="0.09999999999999998" />
<line x1="467.868076955915" y1="170" x2="467.868076955915" y2="258.41564834838056" stroke="#ff4500" stroke-width="1.1330386936120438" opacity="0.285200092458324" class="pulse" />
<line x1="467.868076955915" y1="170" x2="499.0402335871227" y2="286.33607232916233" stroke="#ff4500" stroke-width="1.5230808817986796" opacity="0.10277263695524766" class="pulse" />
<line x1="467.868076955915" y1="170" x2="527.0527358468852" y2="272.51083622779356" stroke="#ff4500" stroke-width="2.2183294484148894" opacity="0.24766418138855364" class="pulse" />
<line x1="467.868076955915" y1="170" x2="549.8524246792448" y2="251.98434772332973" stroke="#ff4500" stroke-width="1.4489681786161985" opacity="0.13283144384716566" class="pulse" />
<line x1="467.868076955915" y1="170" x2="579.1971009736749" y2="234.27584198527194" stroke="#ff4500" stroke-width="1.3942975196454035" opacity="0.22745137520402584" class="pulse" />
<line x1="467.868076955915" y1="170" x2="563.1290691651408" y2="195.52510593264955" stroke="#ff4500" stroke-width="1.5626720630079833" opacity="0.2659593545314256" class="pulse" />
<line x1="467.868076955915" y1="170" x2="606.6081003821533" y2="170" stroke="#ff4500" stroke-width="1.254668744424237" opacity="0.198466122920196" class="pulse" />
<line x1="467.868076955915" y1="170" x2="566.1807620546622" y2="143.65719542205545" stroke="#ff4500" stroke-width="2.541511525394698" opacity="0.10663493895320286" class="pulse" />
<line x1="467.868076955915" y1="170" x2="549.9044461286612" y2="122.6362801747755" stroke="#ff4500" stroke-width="2.5066254115485522" opacity="0.13287448576341349" class="pulse" />
<line x1="467.868076955915" y1="170" x2="572.3285055621138" y2="65.53957139380114" stroke="#ff4500" stroke-width="2.3074053479323253" opacity="0.2709114918657313" class="pulse" />
<line x1="467.868076955915" y1="170" x2="533.1863957868746" y2="56.86535311979502" stroke="#ff4500" stroke-width="2.8581837547970728" opacity="0.22410573458086736" class="pulse" />
<line x1="467.868076955915" y1="170" x2="502.3267864250213" y2="41.39834549804078" stroke="#ff4500" stroke-width="2.6669823022710313" opacity="0.2754330865601448" class="pulse" />
<path d="M 685.7004025248567 49.70850674181624 C 686.4796355168613 60.08054484361516, 680.7798551069924 75.26109288667274, 673.1049829671374 83.16232002322667 C 665.4301108272824 91.0635471597806, 651.6932607957328 96.22504954493732, 639.6511696857269 97.11586956113979 C 627.609078575721 98.00668957734226, 608.7475344753622 96.40846725699541, 600.8524363071017 88.50724012044148 C 592.9573381388412 80.60601298388755, 591.5290631851212 61.88990037698183, 592.280580676164 49.708506741816244 C 593.0320981672069 37.52711310665066, 597.4664430850981 21.7542697589017, 605.3615412533586 15.418878309447983 C 613.2566394216191 9.083486859994267, 629.1398290587683 10.77762252792976, 639.6511696857269 11.696158045093952 C 650.1625103126855 12.614693562258145, 660.754712875255 14.594699962979426, 668.42958501511 20.93009141243314 C 676.104457154965 27.265482861886852, 684.9211695328521 39.336468640017316, 685.7004025248567 49.70850674181624 Z" fill="#f7c59f" opacity="0.14642090900889354" class="drift" />
<path d="M 621.2047602313337 30.948804896763473 C 619.0024373249444 40.26217066098595, 601.3968570942534 43.712936061472774, 593.1686507521375 52.281933470262715 C 584.9404444100217 60.850930879052655, 580.938132834548 80.3712215514264, 571.8355221786383 82.36278934950312 C 562.7329115227285 84.35435714757983, 545.4855993198254 72.80033766751298, 538.5529868166786 64.23134025872304 C 531.6203743135319 55.6623428499331, 531.113832232546 42.916968423537895, 530.239847159758 30.948804896763477 C 529.3658620869701 18.98064136998906, 526.3764638768046 1.6581103427432389, 533.3090763799513 -7.577640901923491 C 540.241688883098 -16.81339214659022, 559.6566035435512 -25.12893253571213, 571.8355221786383 -24.465702571236907 C 584.0144408137253 -23.802472606761683, 598.154381848358 -12.834012359738882, 606.3825881904738 -3.5982611150721517 C 614.6107945325897 5.637490129594578, 623.407083137723 21.635439132540995, 621.2047602313337 30.948804896763473 Z" fill="#f7c59f" opacity="0.17426404254538025" class="drift" />
<path d="M 604.9499373952874 67.35426760587882 C 603.4343946045967 75.66230725048378, 608.2228184289578 83.36911510405902, 604.8018965233433 87.7317581676215 C 601.3809746177288 92.094401231184, 592.1291648266133 92.61786397615529, 584.4244059616007 93.53012598725374 C 576.719647096588 94.44238799835219, 562.0412545998712 97.56797329777466, 558.5733433332673 93.20533023421217 C 555.1054320666634 88.84268717064968, 564.3389878311227 76.69333795113543, 563.6169383619772 67.35426760587882 C 562.8948888928317 58.01519726062221, 550.7731352517904 42.73027851968527, 554.2410465183943 37.170908162672504 C 557.7089577849982 31.611537805659733, 574.4820548367518 33.879276774249, 584.4244059616007 33.9980454638022 C 594.3667570864495 34.1168141533554, 610.4742313618733 32.32414994297895, 613.8951532674878 37.883520299991716 C 617.3160751731023 43.44289065700448, 606.4654801859781 59.04622796127385, 604.9499373952874 67.35426760587882 Z" fill="#f7c59f" opacity="0.19782322831193655" class="drift" />
<path d="M 373.9526182194281 42.557275342588504 C 371.7760964072195 51.43225202181552, 366.9157084069356 57.01741090839797, 361.48925352422606 62.652639943643734 C 356.0627986415165 68.2878689788895, 349.81874462694486 74.64224871730745, 341.39388892317083 76.3686495540631 C 332.9690332193968 78.09505039081874, 318.6772656673079 78.64627399942339, 310.9401193015817 73.01104496417761 C 303.20297293585554 67.37581592893184, 294.2327870178799 51.97030817218425, 294.97101072881384 42.55727534258851 C 295.7092344397478 33.144242512992776, 307.63231520145933 25.306310405930112, 315.3694615671855 16.53284798660319 C 323.1066079329117 7.759385567276267, 331.53073511812215 -8.895154486986105, 341.39388892317083 -10.083499173373035 C 351.2570427282195 -11.271843859759965, 369.12192951476817 0.6293174489546889, 374.5483843974777 9.402779868281613 C 379.97483928018727 18.176242287608538, 376.12914003163667 33.682298663361486, 373.9526182194281 42.557275342588504 Z" fill="#f7c59f" opacity="0.1758127797732803" class="drift" />
<path d="M 698.0367567979708 58.77967783559677 L 709.0424388582477 53.27683680545832 L 720.0481209185245 58.77967783559677" fill="none" stroke="#d4a5a5" stroke-width="1.5" opacity="0.4" class="float" style="animation-delay: 1.7852864759138822s" />
<path d="M 467.1827167726215 60.10398348196388 L 472.41778310989633 57.486450313326486 L 477.65284944717115 60.10398348196388" fill="none" stroke="#d4a5a5" stroke-width="1.5" opacity="0.4" class="float" style="animation-delay: 0.7005234984893984s" />
<path d="M 325.33584992641806 42.907394480464816 L 331.6190402689756 39.76579930918605 L 337.9022306115331 42.907394480464816" fill="none" stroke="#d4a5a5" stroke-width="1.5" opacity="0.4" class="float" style="animation-delay: 1.9942724042357052s" />
<path d="M 195.85138838887872 38.62795086910553 L 206.6097877298408 33.24875119862448 L 217.3681870708029 38.62795086910553" fill="none" stroke="#d4a5a5" stroke-width="1.5" opacity="0.4" class="float" style="animation-delay: 1.2695658890655483s" />
<path d="M 591.3105494387183 65.31289456750808 L 603.1486295068735 59.393854533430535 L 614.9867095750286 65.31289456750808" fill="none" stroke="#d4a5a5" stroke-width="1.5" opacity="0.4" class="float" style="animation-delay: 2.636924993735635s" />

  
    <text x="400" y="120" text-anchor="middle" class="name-text" fill="url(#textGrad)" filter="url(#textGlow)">
      JOEL HOOKS
    </text>
  
</svg>
