<svg xmlns="http://www.w3.org/2000/svg" viewBox="0 0 800 200" width="800" height="200">
  <rect width="800" height="200" fill="#05010d"/>
  
    <defs>
      <linearGradient id="grad1" x1="0%" y1="0%" x2="100%" y2="100%">
        <stop offset="0%" style="stop-color:#4a0080;stop-opacity:0.8" />
        <stop offset="100%" style="stop-color:#7b2cbf;stop-opacity:0.8" />
      </linearGradient>
      <linearGradient id="grad2" x1="100%" y1="0%" x2="0%" y2="100%">
        <stop offset="0%" style="stop-color:#9d4edd;stop-opacity:0.7" />
        <stop offset="100%" style="stop-color:#c77dff;stop-opacity:0.7" />
      </linearGradient>
      <linearGradient id="textGrad" x1="0%" y1="0%" x2="100%" y2="0%">
        <stop offset="0%" style="stop-color:#4a0080" />
        <stop offset="25%" style="stop-color:#7b2cbf" />
        <stop offset="50%" style="stop-color:#9d4edd" />
        <stop offset="75%" style="stop-color:#c77dff" />
        <stop offset="100%" style="stop-color:#e0aaff" />
      </linearGradient>
      <filter id="glow">
        <feGaussianBlur stdDeviation="5" result="coloredBlur"/>
        <feMerge>
          <feMergeNode in="coloredBlur"/>
          <feMergeNode in="SourceGraphic"/>
        </feMerge>
      </filter>
      <filter id="textGlow">
        <feGaussianBlur stdDeviation="2" result="coloredBlur"/>
        <feMerge>
          <feMergeNode in="coloredBlur"/>
          <feMergeNode in="SourceGraphic"/>
        </feMerge>
      </filter>
    </defs>
  
  
    <style>
      @keyframes float {
        0%, 100% { transform: translateY(0px); }
        50% { transform: translateY(-8px); }
      }
      @keyframes pulse {
        0%, 100% { opacity: 0.4; }
        50% { opacity: 0.9; }
      }
      @keyframes drift {
        0% { transform: translateX(0px); }
        50% { transform: translateX(10px); }
        100% { transform: translateX(0px); }
      }
      @keyframes shimmer {
        0% { opacity: 0.3; }
        50% { opacity: 1; }
        100% { opacity: 0.3; }
      }
      @keyframes glitch {
        0%, 100% { transform: translateX(0); }
        20% { transform: translateX(-2px); }
        40% { transform: translateX(2px); }
        60% { transform: translateX(-1px); }
        80% { transform: translateX(1px); }
      }
      @keyframes dataStream {
        0% { stroke-dashoffset: 0; }
        100% { stroke-dashoffset: -20; }
      }
      .float { animation: float 8s ease-in-out infinite; }
      .pulse { animation: pulse 8s ease-in-out infinite; }
      .drift { animation: drift 8s ease-in-out infinite; }
      .shimmer { animation: shimmer 3s ease-in-out infinite; }
      .glitch { animation: glitch 0.5s ease-in-out infinite; }
      .dataStream { animation: dataStream 2s linear infinite; }
      .name-text { 
        font-family: -apple-system, BlinkMacSystemFont, 'Segoe UI', Helvetica, Arial, sans-serif;
        font-weight: 700;
        font-size: 64px;
        letter-spacing: -2px;
      }
    </style>
  
  <path d="M 703.3160228676414 66.57540837004024 C 704.7872618011146 94.87683050988531, 703.6865182692426 135.89772157377234, 685.8970207055719 155.89339158999485 C 668.1075231419012 175.88906160621735, 622.5127591874137 190.38836783889698, 596.5790374856173 186.54942846737526 C 570.6453157838208 182.71048909585355, 551.2902244081207 152.8554253770871, 530.2946904947929 132.8597553608646 C 509.2991565814651 112.86408534464209, 466.2214567232411 84.28581341790559, 470.60583400565054 66.57540837004025 C 474.99021128806 48.865003322174914, 535.6054202759218 47.05683744575997, 556.6009541892496 26.597325073672565 C 577.5964881025774 6.137812701585158, 576.5009319997034 -49.429588142026155, 596.5790374856173 -56.18166586248418 C 616.6571429715311 -62.933743582942206, 659.2800895410624 -34.37465362116298, 677.069587104733 -13.915141249075575 C 694.8590846684037 6.544371123011828, 701.8447839341683 38.27398623019516, 703.3160228676414 66.57540837004024 Z" fill="#4a0080" opacity="0.1538058027720401" filter="url(#glow)" class="float" />
<path d="M 782.0943043190142 21.96301578638358 C 785.5927806938407 35.92469235110806, 776.7372047559514 65.03046584406528, 765.196613811313 72.65475618795494 C 753.6560228666746 80.27904653184461, 727.3062509627891 68.55919474870238, 712.8507586511838 67.70875784972162 C 698.3952663395785 66.85832095074086, 694.4532889352515 69.84598609832112, 678.4636599416814 67.55213479407038 C 662.4740309481112 65.25828348981965, 621.8016241285551 64.91982585847018, 616.912984689763 53.94565002421723 C 612.0243452509709 42.97147418996428, 643.7008087742372 22.997061681490788, 649.1318233089289 1.7070797885527185 C 654.5628378436206 -19.58290210438535, 638.4223092385766 -66.95450422769773, 649.4990718979134 -73.79424133341118 C 660.5758345572501 -80.63397843912463, 699.8079519875424 -49.77783253456458, 715.5923992649492 -39.33134284572804 C 731.376846542356 -28.884853156891495, 733.12210472001 -21.33102963907719, 744.2057555623542 -11.11530320039192 C 755.2894064046983 -0.8995767617066512, 778.5958279441877 8.001339221659101, 782.0943043190142 21.96301578638358 Z" fill="#e0aaff" opacity="0.2164317979903173" filter="url(#glow)" class="float" />
<path d="M 403.83450912938713 109.03072768927164 C 408.41671825880826 121.26574468802478, 383.792287727709 139.00810982075998, 374.1400450963116 154.57019967564133 C 364.48780246491424 170.13228953052268, 359.71240098024873 196.21353247663163, 345.92105334100296 202.4032668185598 C 332.1297057017572 208.593001160488, 308.75602675331515 195.43337209652228, 291.3919592608368 191.70860572721045 C 274.0278917683585 187.98383935789863, 248.5618732624235 191.24851116732444, 241.73664838613303 180.05466860268888 C 234.91142350984256 168.86082603805332, 248.7313806567705 138.8927548687756, 250.440610003094 124.54555033939707 C 252.1498393494175 110.19834581001854, 248.9570111333091 103.21782539127904, 251.99202446407406 93.97144142641767 C 255.02703779483903 84.7250574615563, 261.77840034774886 78.21128179335186, 268.65068998768385 69.06724655022887 C 275.52297962761884 59.92321130710589, 283.99349974016985 40.02482568630786, 293.2257623036842 39.10722996767976 C 302.4580248671985 38.18963424905166, 315.14076069941973 56.55286095255315, 324.04426536876986 63.56167223846027 C 332.94777003812 70.57048352436739, 333.34841635968206 73.5819217746539, 346.64679031978494 81.16009768312247 C 359.9451642798878 88.73827359159104, 399.252299999966 96.7957106905185, 403.83450912938713 109.03072768927164 Z" fill="#9d4edd" opacity="0.1505598712939236" filter="url(#glow)" class="float" />
<path d="M 198.05804684077745 52.28090859208092 C 195.79375011718204 61.23729045546458, 168.12604753521492 67.30132051719563, 158.79734818553234 74.21473058508613 C 149.46864883584976 81.12814065297663, 150.1770243387565 88.00046105331732, 142.08585074268194 93.76136899942391 C 133.9946771466074 99.52227694553049, 121.45368872484151 109.18588949737789, 110.25030660908496 108.78017826172561 C 99.0469244933284 108.37446702607333, 85.33097627507854 100.74364653045106, 74.86555804814259 91.32710158551028 C 64.40013982120664 81.9105566405695, 47.91979259805855 65.63196552650125, 47.45779724746926 52.28090859208093 C 46.99580189687997 38.92985165766061, 64.48169311771777 29.41955307056485, 72.09358594460684 11.220759978988383 C 79.70547877149592 -6.978033112588083, 77.87556952474792 -45.79843170975017, 93.1291542088037 -56.91184995737788 C 108.38273889285948 -68.0252682050056, 150.40609832922473 -68.35779773380492, 163.61509404894156 -55.45974950677791 C 176.82408976865838 -42.561701279750906, 166.6426363951321 2.5196630549743375, 172.38312852710473 20.47643940478414 C 178.12362065907737 38.433215754593945, 200.32234356437286 43.32452672869726, 198.05804684077745 52.28090859208092 Z" fill="#4a0080" opacity="0.1642298642869513" filter="url(#glow)" class="float" />
<path d="M 379.72858552838204 93.03232021616074 L 379.72858552838204 93.03232021616074 L 380.1009424042232 93.06489722158277 L 380.4647868731958 93.16213237648527 L 380.81171453015315 93.32254375748404 L 381.1335358225246 93.54368030385217 L 381.42238061069827 93.82214983439007 L 381.67079932074574 94.15365787200574 L 381.8718596056706 94.53305688152763 L 382.01923747536904 94.95440542003304 L 382.1073019097255 95.41103659750422 L 382.1311920332224 95.89563514989447 L 382.08688600253004 96.40032233761414 L 381.97126084007203 96.91674780088819 L 381.78214253577835 97.43618743018297 L 381.51834583530206 97.94964624565966 L 381.17970323499856 98.44796522501638 L 380.76708281097825 98.92193097467108 L 380.28239462055654 99.36238710546009 L 379.72858552838204 99.76034615123073 L 379.10962242536345 100.10710085714236 L 378.4304639251368 100.39433366429867 L 377.69702073911895 100.61422322855863 L 376.91610504607917 100.75954683394477 L 376.09536928452707 100.82377759481545 L 375.24323490500205 100.80117538561562 L 374.3688117235003 100.68687049219122 L 373.48180861579704 100.47693904386847 L 372.59243638435163 100.16846936019117 L 371.7113037139276 99.75961842971381 L 370.8493072081867 99.24965782982358 L 370.0175165665634 98.63900849538574 L 369.22705601802136 97.92926384918265 L 368.48898317524163 97.12320091769222 L 367.81416650889963 96.22477917071706 L 367.21316266654753 95.23912694167771 L 366.69609487394223 94.17251540593178 L 366.2725336582421 93.03232021616074 L 365.95138112225993 91.82697101554565 L 365.74075997692 90.56588916999472 L 365.6479085053574 89.25941417895783 L 365.67908258695655 87.9187193392464 L 365.83946585338884 86.55571734668015 L 366.133088981836 85.18295662524575 L 366.5627590536096 83.81350927176413 L 367.1299998199536 82.46085159486307 L 367.83500362166467 81.13873830944337 L 368.6765956061163 79.86107152098555 L 369.65221077520437 78.64176569722346 L 370.75788428162207 77.49460987725098 L 371.9882552697345 76.43312840946157 L 373.3365844322391 75.47044153937885 L 374.7947853258859 74.61912718605159 L 376.3534693599443 73.89108525100212 L 378.00200424101445 73.29740579658043 L 379.72858552838204 72.84824241095077 L 381.52032082659366 72.55269204489815 L 383.3633260174688 72.41868256137454 L 385.2428328135248 72.45286918250933 L 387.1433067999078 72.66054095109374 L 389.04857502348824 73.04553824482909 L 390.941962086832 73.61018229252353 L 392.8064336122935 74.3552175426464 L 394.6247458583924 75.27976762701155 L 396.3796001977864 76.38130554675641 L 398.05380110427797 77.65563858518232 L 399.63041624606126 79.09690832346818 L 401.09293724438294 80.69760600186575 L 402.4254396314197 82.44860333188757 L 403.61274052880543 84.33919872540636 L 404.640552569118 86.35717876572481 L 405.49563259686477 88.48889460480225 L 406.1659237131028 90.71935283119663 L 406.640689268662 93.03232021616074 L 406.9106374647851 95.41044161196892 L 406.9680352864924 97.83537014816825 L 406.8068105726602 100.28790874924326 L 406.4226411170905 102.748161882298 L 405.81302979605215 105.19569633689258 L 404.97736482911046 107.6097097421457 L 403.91696440063834 109.96920543958707 L 402.63510499825196 112.25317225488376 L 401.13703296047333 114.440767648252 L 399.4299588680732 116.5115026727774 L 397.52303456058945 118.4454271325819 L 395.427312710212 120.22331330925284 L 393.15568903828085 121.82683661553685 L 390.7228274137479 123.23875154022558 L 388.14506822675776 124.44306126752342 L 385.4403205826613 125.42517938796763 L 382.6279390109427 126.17208216602202 L 379.72858552838204 126.6724498915107 L 376.7640780349774 126.91679591770429 L 373.7572261534538 126.89758207759522 L 370.7316557473597 126.60931927106569 L 367.71162346763333 126.04865212851071 L 364.7218227820246 125.21442678016935 L 361.7871830348621 124.10774089398029 L 358.9326631654409 122.73197528715897 L 356.1830417809464 121.09280656675142 L 353.5627053336038 119.19820041093897 L 351.09543619104466 117.05838526456458 L 348.804202413219 114.68580638788305 L 346.71095105819876 112.09506036552571 L 344.8364068326675 109.30281035168514 L 343.1998778806757 106.32768249613804 L 341.8190704663926 103.1901441624763 L 340.709914253251 99.91236471336072 L 339.8863998133803 96.51805979631791 L 339.3604299179621 93.03232021616076 L 339.141686061698 89.48142662515954 L 339.2375115636234 85.89265139831174 L 339.65281246285036 82.29404918719854 L 340.3899772923906 78.71423776080061 L 341.44881666803497 75.1821708441777 L 342.82652347347135 71.72690475510575 L 344.51765425864187 68.37736071370473 L 346.5141322970706 65.16208476001238 L 348.8052725709169 62.10900725869554 L 351.37782877126557 59.245203998102596 L 354.21606221714484 56.59666090225575 L 357.3018324114821 54.18804436888632 L 360.614708767232 52.04247922410768 L 364.1321028537933 50.181336244812925 L 367.82942033412667 48.62403114354454 L 371.68023158826134 47.38783683770558 L 375.6564598506283 46.4877107360185 L 379.72858552838204 45.93613867067081 L 383.8658652169798 45.74299698433623 L 388.0365637891518 45.91543414807799 L 392.208197805284 46.457773140002274 L 396.34778837835364 47.37143565652781 L 400.4221215259907 48.65488905947519 L 404.39801395697197 50.303616784158855 L 408.242582170353 52.31011274767866 L 411.9235126932431 54.66390010412859 L 415.4093312485342 57.35157449600862 L 418.66966862716095 60.3568717503316 L 421.67552104102896 63.660759765408685 L 424.39950275274765 67.24155413172579 L 426.8160888167736 71.07505682938509 L 428.90184582337133 75.13471714696044 L 430.635648611625 79.39181377396557 L 431.9988810101613 83.81565683311926 L 432.9756187736648 88.37380844081059 L 433.552793008942 93.03232021616071 L 433.72033252534703 97.755986002355 L 433.4712836997889 102.50860791985131 L 432.8019066151673 107.25327374100247 L 431.71174641165646 111.95264346074376 L 430.20367898140603 116.5692428393951 L 428.2839303374751 121.06576161228564 L 425.9620691956061 125.40535399764646 L 423.2509725211349 129.55193908973453 L 420.1667640112212 133.4704986989998 L 416.72872570292384 137.12737019566035 L 412.95918311864887 140.49053192754965 L 408.88336458035207 143.52987881761743 L 404.5292355407833 146.21748580089073 L 399.92730899219373 148.52785683479152 L 395.11043321851713 150.43815731003042 L 390.11355835434426 151.92842780126418 L 384.97348340132885 152.98177722658394 L 379.72858552838215 153.58455363179064 L 374.41853364459126 153.7264909782662 L 369.08398838177084 153.40083049089176 L 363.7662907556004 152.6044153135727 L 358.50714188918755 151.33775742307665 L 353.34827627952217 149.60507596552324 L 348.331131164722 147.41430640234492 L 343.49651460738147 144.77708008212676 L 338.8842749460957 141.70867408963437 L 334.532974282856 138.22793146168678 L 330.4795686681618 134.35715209941534 L 326.7590976182512 130.12195494594243 L 323.40438554983416 125.5511122356657 L 320.44575764731366 120.67635685418774 L 317.9107725861098 115.53216407458386 L 315.82397442388555 110.15550915423555 L 314.2066658399545 104.58560248504385 L 313.0767047528184 98.86360418670407 L 312.44832617768213 93.03232021616078 L 312.3319910011361 87.13588223477356 L 312.73426315032685 81.21941362662878 L 313.65771642034326 75.32868419543941 L 315.1008719978247 69.50975618235483 L 317.0581674826811 63.80862434167513" fill="none" stroke="#9d4edd" stroke-width="1" opacity="0.3" class="drift" />
<path d="M 439.3870361103316 75.01625250184472 L 439.3870361103316 75.01625250184472 L 439.62180890281087 75.03679245969097 L 439.8512145820154 75.0980996902666 L 440.0699541302732 75.19923983378472 L 440.27286399548956 75.33866748472518 L 440.4549820169694 75.51424385660519 L 440.61161120269395 75.72326126106302 L 440.7383806747007 75.96247415253467 L 440.83130312695994 76.22813642281905 L 440.88682817433624 76.51604456584936 L 440.90189101154954 76.82158627263013 L 440.8739558471301 77.13979396013899 L 440.8010536287682 77.46540268656936 L 440.68181363270884 77.79291185910293 L 440.51548855041324 78.11665009989743 L 440.3019727700316 78.43084260155244 L 440.0418136177066 78.72968027531523 L 439.736215393718 79.00738997399165 L 439.3870361103316 79.25830505715452 L 438.9967769112527 79.4769355589501 L 438.56856422611287 79.65803721868286 L 438.10612478675165 79.79667864143553 L 437.6137537044891 79.88830587021326 L 437.0962758784334 79.92880367237848 L 436.55900107345843 79.91455287129402 L 436.00767307215324 79.84248308887716 L 435.448413367165 79.71012030588678 L 434.8876599183177 79.51562869385863 L 434.3321015521325 79.2578462252549 L 433.788608629374 78.93631362613165 L 433.26416064852 78.5512962979362 L 432.76577148917744 78.10379890135968 L 432.3004130290683 77.59557236488841 L 431.87493789097465 77.0291131531847 L 431.49600209170677 76.40765470501663 L 431.16998837355857 75.73515102646371 L 430.90293099971205 75.01625250184472 L 430.70044278860007 74.2562740615332 L 430.5676451483391 73.46115592182906 L 430.50910185109154 72.63741718662475 L 430.5287572587525 71.7921026730401 L 430.62987967590186 70.93272339280881 L 430.8150104637954 70.06719118731662 L 431.08591950063584 69.20374807617789 L 431.44356751887585 68.35089093648587 L 431.88807579030845 67.51729218182153 L 432.4187035647292 66.71171715623186 L 433.03383359855627 65.94293899822374 L 433.73096603658524 65.21965176294613 L 434.50672083367897 64.55038261679454 L 435.3568488243259 63.94340393737078 L 436.27625146735164 63.40664616283847 L 437.2590092113628 62.94761223806554 L 438.29841834448 62.57329450044548 L 439.3870361103316 62.29009483591534 L 440.51673379187577 62.10374891548702 L 441.6787573861442 62.019255294697906 L 442.86379541719157 62.04081012295538 L 444.0620533620983 62.17174816705494 L 445.2633340965053 62.414490803518994 L 446.4571237025146 62.77050157822148 L 447.63268192348687 63.24024986948557 L 448.77913649788275 63.82318312297521 L 449.8855805583641 64.51770805381224 L 450.9411722433582 65.32118113405002 L 451.93523563661597 66.2299086025809 L 452.8573621263172 67.23915615044342 L 453.6975112592778 68.34316834805432 L 454.44611015801615 69.53519779287689 L 455.0941505689871 70.80754386722477 L 455.6332826192651 72.15160090707901 L 456.05590437635703 73.55791549476046 L 456.3552463315708 75.01625250184472 L 456.5254499613155 76.51566942462149 L 456.56163956263276 78.04459847345414 L 456.4599866088702 79.59093580034467 L 456.217765928332 81.14213717657348 L 455.8334030725533 82.68531936515606 L 455.30651231104184 84.20736637168258 L 454.6379247653541 85.69503970248843 L 453.82970627661484 87.13509171158807 L 452.8851646863734 88.51438107788644 L 451.8088463003186 89.81998942228503 L 450.6065213970839 91.03933805079242 L 449.2851587393878 92.16030379491725 L 447.85288914125977 93.17133291468686 L 446.31895824226154 94.06155203273988 L 444.6936687365916 94.8208750801495 L 442.9883124008942 95.44010525593256 L 441.2150923586485 95.91103103249627 L 439.3870361103316 96.22651527839368 L 437.51789994632225 96.38057661745472 L 435.6220654429253 96.3684621993002 L 433.7144288201917 96.18671112003258 L 431.8102840126408 95.83320780305573 L 429.9252003698826 95.30722472796242 L 428.07489596283887 94.60945397964193 L 426.2751075221995 93.7420271795306 L 424.54145807839603 92.7085234555417 L 422.8893234062806 91.51396520589573 L 421.3336984024776 90.16480151402395 L 419.88906453872056 88.66887917608543 L 418.5692595401721 87.03540140855578 L 417.3873504335935 85.27487440991054 L 416.3555110962258 83.3990420567367 L 415.4849054123776 81.42080911974465 L 414.7855771110894 79.35415348820419 L 414.2663473150539 77.21402799139423 L 413.93472077847287 75.01625250184473 L 413.79680173009547 72.77739709660271 L 413.85722016772183 70.51465713864151 L 414.1190693724945 68.24572122006477 L 414.58385532591 65.98863298119183 L 415.2514586203179 63.76164788425796 L 416.1201093554475 61.58308607669703 L 417.18637540998236 59.471182526224155 L 418.4451643692209 57.44393564771686 L 419.88973927827135 55.51895566978441 L 421.51174827596014 53.713314006576944 L 423.3012680486025 52.04339490757033 L 425.2468609259657 50.524750654598236 L 427.3356453251281 49.17196156121061 L 429.5533791324776 47.998502004528305 L 431.8845555007917 47.01661368424141 L 434.31251042817524 46.23718725744821 L 436.8195413795495 45.66965344194086 L 439.3870361103316 45.32188461467617 L 441.99561075680623 45.2001078569824 L 444.6252561693317 45.30883031408058 L 447.2554913837515 45.650777644358314 L 449.86552305394656 46.22684623421247 L 452.4344096050561 47.036069747935045 L 454.94122881313416 48.07560046987357 L 457.36524747344066 49.340705778832145 L 459.68609178665173 50.82477997332028 L 461.8839170704012 52.51937154177516 L 463.9395753930131 54.414225845281 L 465.8347797272694 56.497343052627116 L 467.5522632346651 58.755051039823854 L 469.0759323148617 61.17209283950346 L 470.3910120908586 63.73172810102852 L 471.48418304758417 66.4158479006648 L 472.34370759988246 69.20510212389146 L 472.95954543486164 72.07903852983002 L 473.32345655280994 75.0162525018447 L 473.4290910198201 77.99454638955197 L 473.2720645432501 80.99109725664175 L 472.8500190874673 83.9826317669046 L 472.1626678611745 86.94560686842175 L 471.21182412813727 89.85639487370696 L 470.00141341938973 92.69147148230215 L 468.5374688560076 95.42760525244215 L 466.82810942626975 98.04204700035713 L 464.8835011984105 100.51271758992353 L 462.7158015890876 102.81839257193995 L 460.33908694703763 104.93888214144586 L 457.76926385000746 106.85520490326512 L 455.0239646498106 108.5497539702708 L 452.12242793410985 110.00645396558237 L 449.0853647031516 111.21090755874653 L 445.93481118408175 112.15053023654988 L 442.69396932357904 112.81467209100089 L 439.38703611033174 113.19472549963285 L 436.0390229813918 113.28421767595935 L 432.67556665973774 113.07888717991753 L 429.3227328536317 112.57674359862963 L 426.0068143207925 111.77810973589821 L 422.7541248613317 110.68564578354636 L 419.59079085221924 109.30435508798978 L 416.5425419722458 107.64157127018404 L 413.634502789627 105.70692660519663 L 410.8909868942435 103.51230171793283 L 408.33529525282273 101.071756802793 L 405.98952044806714 98.40144472603916 L 403.87435843182425 95.51950651917538 L 402.0089293780096 92.44594991846148 L 400.41060916338336 89.20251174858501 L 399.09487293378055 85.81250508630461 L 398.07515213047213 82.30065227139184 L 397.3627062565493 78.69290495632474 L 396.96651055723373 75.01625250184475 L 396.8931606715908 71.2985201316723 L 397.1467951871045 67.56815835545397 L 397.72903689389744 63.85402525350487 L 398.6389533930675 60.185163289343556 L 399.87303756473403 56.590572375707055 L 401.42520824709953 53.098980966077505 L 403.286831319329 49.738616976270364 L 405.446761219566 46.53698035894786 L 407.89140276623414 43.52061915774742 L 410.60479298719105 40.71491085692209 L 413.56870249864875 38.14385081691687 L 416.762755815346 35.82984954625039 L 420.1645698165772 33.793540505626666 L 423.74990944062915 32.05360007168587 L 427.49285953423174 30.626581205644356 L 431.3660116449876 29.5267622768309 L 435.34066441461897 28.76601238343624 L 439.3870361103317 28.353674393437004 L 443.47448772173675 28.296466798477773 L 447.5717549525192 28.598405333463234 L 451.64718735031147 29.26074516576125 L 455.66899274579475 30.28194430136996 L 459.6054851136069 31.657648692351103" fill="none" stroke="#e0aaff" stroke-width="1" opacity="0.3" class="drift" />
<circle cx="481.1334261237194" cy="55.025554284991514" r="0.8037256460878902" fill="white" opacity="0.4560041104037141" class="shimmer" style="animation-delay: 3.8483013931914654s" />
<circle cx="680.4064107783237" cy="56.193550990108676" r="0.7391099417126155" fill="white" opacity="0.7913313484632605" class="shimmer" style="animation-delay: 0.5388457199866359s" />
<circle cx="64.57891043278039" cy="35.79449978921616" r="1.233561682718732" fill="white" opacity="0.5008472881515373"  style="animation-delay: 4.378008123160574s" />
<circle cx="350.54959910830553" cy="29.213898389910796" r="1.4411853481384869" fill="white" opacity="0.559772040875731"  style="animation-delay: 2.2608586787225757s" />
<circle cx="238.8608674261471" cy="76.52331277414946" r="1.2443005423557918" fill="white" opacity="0.6340397183083057"  style="animation-delay: 4.587761211015603s" />
<circle cx="577.2686933546314" cy="122.46751325415524" r="1.0874047131982423" fill="white" opacity="0.49827065000239695"  style="animation-delay: 3.033421324907052s" />
<circle cx="524.5424602514051" cy="18.099669716259026" r="1.5695701882778639" fill="white" opacity="0.5328169526907671"  style="animation-delay: 1.4961455572007787s" />
<circle cx="743.4454762589644" cy="54.676649394030406" r="1.5248023320383954" fill="white" opacity="0.5562346770934352"  style="animation-delay: 2.6973591064882108s" />
<circle cx="222.9649836003567" cy="108.07800954971736" r="1.5613239054942865" fill="white" opacity="0.39766416120643705"  style="animation-delay: 3.555185034567916s" />
<circle cx="633.4152514910709" cy="19.497857655069595" r="1.271662724781411" fill="white" opacity="0.5205093042645415" class="shimmer" style="animation-delay: 4.270955555492753s" />
<circle cx="53.74915431262259" cy="102.40920265585332" r="0.9338823278663004" fill="white" opacity="0.7372081234407939"  style="animation-delay: 0.5060185779977211s" />
<circle cx="65.27012095800782" cy="159.6184195271522" r="1.2706553976764312" fill="white" opacity="0.5300668102189499"  style="animation-delay: 3.2150195325538933s" />
<circle cx="258.14509533212106" cy="17.508766093633767" r="1.2513183537842123" fill="white" opacity="0.3229062893815296"  style="animation-delay: 0.5961521655996005s" />
<circle cx="191.8897779078858" cy="135.36602395136305" r="1.8542447326964107" fill="white" opacity="0.6104212760627956" class="shimmer" style="animation-delay: 0.3651864663828486s" />
<circle cx="273.6913546128019" cy="193.92942759320735" r="0.8543578226793969" fill="white" opacity="0.5426640939300302"  style="animation-delay: 1.721453999768826s" />
<circle cx="239.99933332912633" cy="111.37668140006069" r="1.2898301365030678" fill="white" opacity="0.32890633764632454"  style="animation-delay: 3.228964203229372s" />
<circle cx="175.751836463499" cy="81.28566643167052" r="1.7896272923210057" fill="white" opacity="0.372313446666197"  style="animation-delay: 1.9134670068062387s" />
<circle cx="356.5211500628802" cy="190.10417170188077" r="0.5900191465330681" fill="white" opacity="0.3126727222743176" class="shimmer" style="animation-delay: 4.482427289229694s" />
<circle cx="227.82313045199345" cy="154.400358421448" r="0.6540679794645522" fill="white" opacity="0.6545959114416147"  style="animation-delay: 1.889774967906136s" />
<circle cx="159.73319050543466" cy="85.11074177722655" r="0.9347859177591193" fill="white" opacity="0.7859415003764716"  style="animation-delay: 3.20338934139314s" />
<circle cx="313.65230270066746" cy="45.2536338655686" r="1.8230533724415758" fill="white" opacity="0.4045079740336836"  style="animation-delay: 1.1425739552199454s" />
<circle cx="214.41986984665851" cy="154.2119200831202" r="0.7460795622491055" fill="white" opacity="0.3248150562995628"  style="animation-delay: 1.205218199276742s" />
<circle cx="306.28264658618036" cy="33.27268260809535" r="0.7126236126293664" fill="white" opacity="0.598721382502776"  style="animation-delay: 4.573396383989367s" />
<circle cx="306.85043965259473" cy="91.00084271129845" r="0.9497893488992764" fill="white" opacity="0.65971133271994"  style="animation-delay: 1.3602910643212485s" />
<circle cx="47.546953985847296" cy="97.895102935197" r="0.5459851252100831" fill="white" opacity="0.7983245540386084"  style="animation-delay: 3.2549947852113084s" />
<circle cx="343.9358918180787" cy="140.52435117465163" r="1.4366086586634186" fill="white" opacity="0.30001834164052527"  style="animation-delay: 1.6218062965987279s" />
<circle cx="701.5277577422205" cy="185.1764766916072" r="1.7572927818922564" fill="white" opacity="0.3790183133155138"  style="animation-delay: 4.003775913919577s" />
<circle cx="15.822971465385649" cy="149.95430615931502" r="1.4220181385034558" fill="white" opacity="0.6703413018106805"  style="animation-delay: 2.9105460922807413s" />
<circle cx="706.7664901524489" cy="95.90945373527715" r="1.8009763855109648" fill="white" opacity="0.47678189337018645"  style="animation-delay: 4.5220495644336145s" />
<circle cx="14.571259051011332" cy="191.387893989771" r="0.7707271341171407" fill="white" opacity="0.34134509114698625" class="shimmer" style="animation-delay: 4.575394546019973s" />
<circle cx="529.9454059407063" cy="64.88037266376207" r="0.731905376342003" fill="white" opacity="0.5531451513759353"  style="animation-delay: 0.8240182600993506s" />
<circle cx="174.44616425543308" cy="8.48074175620126" r="0.6029884530759707" fill="white" opacity="0.7074904805641353"  style="animation-delay: 1.273426189623158s" />
<circle cx="521.3334289414892" cy="92.53302976208838" r="0.8059465097629482" fill="white" opacity="0.5080517901611139"  style="animation-delay: 1.9451752427006308s" />
<circle cx="609.4558514954182" cy="2.965918495780251" r="1.9299162398807415" fill="white" opacity="0.5970605996179903" class="shimmer" style="animation-delay: 0.34582569721412715s" />
<circle cx="615.6830119552609" cy="103.64559442785173" r="1.200109162475996" fill="white" opacity="0.4645517749232118"  style="animation-delay: 0.689097642892238s" />
<circle cx="261.87411724315217" cy="100.14576769149528" r="0.9485875885621544" fill="white" opacity="0.45277426271805626" class="shimmer" style="animation-delay: 2.5790429267405113s" />
<circle cx="384.77732579479937" cy="131.6838107663504" r="1.0828564806211458" fill="white" opacity="0.702095645123366" class="shimmer" style="animation-delay: 3.7411419333686102s" />
<circle cx="228.3556205311628" cy="162.56585480184373" r="1.1364061163755825" fill="white" opacity="0.550313773672789" class="shimmer" style="animation-delay: 1.711413871190326s" />
<circle cx="226.1067032526313" cy="176.37243252421686" r="1.738640096266729" fill="white" opacity="0.6956127837403894"  style="animation-delay: 2.9004457032609245s" />
<circle cx="767.7322073400032" cy="101.26447386073912" r="1.6033615082171822" fill="white" opacity="0.7605766838434052" class="shimmer" style="animation-delay: 1.373254937146876s" />
<circle cx="211.52858070426498" cy="167.82223760967892" r="1.8953480496024784" fill="#e0aaff" opacity="0.8" filter="url(#glow)" class="shimmer" style="animation-delay: 0.002642377732759993s" />
<circle cx="689.447135357678" cy="4.196401869294464" r="2.4622515514408256" fill="#4a0080" opacity="0.8" filter="url(#glow)" class="shimmer" style="animation-delay: 2.733769419761048s" />
<circle cx="291.01626331886354" cy="157.17655394976342" r="2.455694241783646" fill="#4a0080" opacity="0.8" filter="url(#glow)" class="shimmer" style="animation-delay: 2.0541898566406527s" />
<circle cx="159.27445257456867" cy="197.15283828807202" r="2.3145786290140538" fill="#7b2cbf" opacity="0.8" filter="url(#glow)" class="shimmer" style="animation-delay: 2.6615553473641085s" />
<circle cx="776.2567970051499" cy="63.13918341515388" r="1.4720763162301438" fill="#e0aaff" opacity="0.8" filter="url(#glow)" class="shimmer" style="animation-delay: 1.5036397283204457s" />
<circle cx="28.693329645185095" cy="158.858496157166" r="2.99980884558163" fill="#e0aaff" opacity="0.8" filter="url(#glow)" class="shimmer" style="animation-delay: 1.424838538724077s" />
<circle cx="340.83707359634536" cy="105.98243653624357" r="1.5025450390898603" fill="#e0aaff" opacity="0.8" filter="url(#glow)" class="shimmer" style="animation-delay: 2.8950574184223052s" />
<circle cx="578.8505313674508" cy="106.55512272635019" r="2.6508147437904443" fill="#e0aaff" opacity="0.8" filter="url(#glow)" class="shimmer" style="animation-delay: 1.9198113345720833s" />
<line x1="609.6379950580139" y1="115.3341377321041" x2="453.19261973825854" y2="63.77353999060209" stroke="#e0aaff" stroke-width="0.5" opacity="0.3" />
<line x1="453.19261973825854" y1="63.77353999060209" x2="673.0106963776017" y2="70.98689573283055" stroke="#e0aaff" stroke-width="0.5" opacity="0.3" />
<line x1="673.0106963776017" y1="70.98689573283055" x2="129.65675500739763" y2="52.95674192843808" stroke="#e0aaff" stroke-width="0.5" opacity="0.3" />

  
    <text x="400" y="120" text-anchor="middle" class="name-text" fill="url(#textGrad)" filter="url(#textGlow)">
      JOEL HOOKS
    </text>
  
</svg>
