<svg xmlns="http://www.w3.org/2000/svg" viewBox="0 0 800 200" width="800" height="200">
  <rect width="800" height="200" fill="#05010d"/>
  
    <defs>
      <linearGradient id="grad1" x1="0%" y1="0%" x2="100%" y2="100%">
        <stop offset="0%" style="stop-color:#4a0080;stop-opacity:0.8" />
        <stop offset="100%" style="stop-color:#7b2cbf;stop-opacity:0.8" />
      </linearGradient>
      <linearGradient id="grad2" x1="100%" y1="0%" x2="0%" y2="100%">
        <stop offset="0%" style="stop-color:#9d4edd;stop-opacity:0.7" />
        <stop offset="100%" style="stop-color:#c77dff;stop-opacity:0.7" />
      </linearGradient>
      <linearGradient id="textGrad" x1="0%" y1="0%" x2="100%" y2="0%">
        <stop offset="0%" style="stop-color:#4a0080" />
        <stop offset="25%" style="stop-color:#7b2cbf" />
        <stop offset="50%" style="stop-color:#9d4edd" />
        <stop offset="75%" style="stop-color:#c77dff" />
        <stop offset="100%" style="stop-color:#e0aaff" />
      </linearGradient>
      <filter id="glow">
        <feGaussianBlur stdDeviation="5" result="coloredBlur"/>
        <feMerge>
          <feMergeNode in="coloredBlur"/>
          <feMergeNode in="SourceGraphic"/>
        </feMerge>
      </filter>
      <filter id="textGlow">
        <feGaussianBlur stdDeviation="2" result="coloredBlur"/>
        <feMerge>
          <feMergeNode in="coloredBlur"/>
          <feMergeNode in="SourceGraphic"/>
        </feMerge>
      </filter>
    </defs>
  
  
    <style>
      @keyframes float {
        0%, 100% { transform: translateY(0px); }
        50% { transform: translateY(-8px); }
      }
      @keyframes pulse {
        0%, 100% { opacity: 0.4; }
        50% { opacity: 0.9; }
      }
      @keyframes drift {
        0% { transform: translateX(0px); }
        50% { transform: translateX(10px); }
        100% { transform: translateX(0px); }
      }
      @keyframes shimmer {
        0% { opacity: 0.3; }
        50% { opacity: 1; }
        100% { opacity: 0.3; }
      }
      @keyframes glitch {
        0%, 100% { transform: translateX(0); }
        20% { transform: translateX(-2px); }
        40% { transform: translateX(2px); }
        60% { transform: translateX(-1px); }
        80% { transform: translateX(1px); }
      }
      @keyframes dataStream {
        0% { stroke-dashoffset: 0; }
        100% { stroke-dashoffset: -20; }
      }
      .float { animation: float 8s ease-in-out infinite; }
      .pulse { animation: pulse 8s ease-in-out infinite; }
      .drift { animation: drift 8s ease-in-out infinite; }
      .shimmer { animation: shimmer 3s ease-in-out infinite; }
      .glitch { animation: glitch 0.5s ease-in-out infinite; }
      .dataStream { animation: dataStream 2s linear infinite; }
      .name-text { 
        font-family: -apple-system, BlinkMacSystemFont, 'Segoe UI', Helvetica, Arial, sans-serif;
        font-weight: 700;
        font-size: 64px;
        letter-spacing: -2px;
      }
    </style>
  
  <path d="M 227.68523709501602 43.100260149631396 C 224.42550649805753 60.220732991202965, 238.11029496260994 74.88795954116912, 233.4498267615803 88.17697372210554 C 228.78935856055068 101.46598790304196, 212.68509100997395 121.49641690394024, 199.72242788883827 122.83434523524996 C 186.7597647677026 124.17227356655967, 170.8382891728336 98.99673165274345, 155.67384803476628 96.20454370996384 C 140.50940689669895 93.41235576718424, 114.47654255905294 112.87264022112831, 108.73578106043422 106.08121757857234 C 102.9950195618155 99.28979493601636, 123.89340468483097 69.40578691208799, 121.22927904305398 55.45600785462804 C 118.56515340127699 41.50622879716809, 91.6762825774239 31.295295118443235, 92.75102720977227 22.382543233812658 C 93.82577184212064 13.469791349182083, 118.42439343355875 15.958409692577385, 127.67774683714416 1.9794965468445866 C 136.93110024072956 -11.999416598888212, 137.8536082610695 -58.53679380662429, 148.27114763128475 -61.49093564058414 C 158.6886870015 -64.445077474544, 172.72680593976122 -23.569533175791257, 190.18298305843564 -15.74535445691454 C 207.63916017711006 -7.921175738037825, 246.75783467056786 -24.353465761748176, 253.00821034333126 -14.54586332732385 C 259.2585860160947 -4.738260892899527, 230.9449676919745 25.97978730805983, 227.68523709501602 43.100260149631396 Z" fill="#7b2cbf" opacity="0.208369382552406" filter="url(#glow)" class="float" />
<path d="M 619.1425727118768 77.78369049182055 C 609.2571055471142 88.73004791553655, 565.676495470914 85.49455005780432, 554.020894875335 91.56375079935316 C 542.365294279756 97.632951540902, 553.3593775386007 112.48446779779508, 549.2089691384026 114.1988949411136 C 545.0585607382045 115.91332208443211, 537.0913547697105 101.91701055685976, 529.118444474146 101.85031365926423 C 521.1455341785816 101.7836167616687, 507.3131991619682 115.89584205441498, 501.37150736501553 113.79871355554042 C 495.42981556806285 111.70158505666585, 500.3764873309549 98.8256850573514, 493.4682936924301 89.26754266601684 C 486.56010005390533 79.70940027468228, 456.9143940052743 62.415109763755616, 459.92234553386675 56.449859207533066 C 462.9302970624592 50.484608651310516, 500.5904276795412 58.154033338637205, 511.5160028639849 53.47603932868155 C 522.4415780484286 48.7980453187259, 519.0483603304457 30.717929151968487, 525.4757966405288 28.381895147799135 C 531.9032329506118 26.045861143629782, 535.4376371872529 39.87588345212242, 550.0806207244832 39.459835303665436 C 564.7236042617135 39.04378715520845, 601.8233725326785 19.49829705903135, 613.3336978639107 25.885606257057205 C 624.844023195143 32.27291545508306, 629.0280398766395 66.83733306810456, 619.1425727118768 77.78369049182055 Z" fill="#7b2cbf" opacity="0.21959614650585202" filter="url(#glow)" class="float" />
<path d="M 292.87175564258723 97.43578422355705 C 285.6654660385711 113.6958073840771, 286.54118714125 111.01084698269977, 281.5828264958041 128.0754688584573 C 276.6244658503582 145.14009073421482, 272.94218567970916 198.4613213014872, 263.1215917699118 199.8235154781022 C 253.30099786011442 201.1857096547172, 237.33749135144137 149.06598701582192, 222.65926303701997 136.24863391814733 C 207.98103472259857 123.43128082047274, 179.02538367985466 132.19366226217343, 175.05222188338337 122.9193968920546 C 171.07906008691208 113.64513152193577, 195.93184978241496 100.05915864784933, 198.82029225819232 80.6030416974343 C 201.7087347339697 61.146924747019284, 183.6583944342585 9.142392702922264, 192.38287673804757 6.18269518956447 C 201.10735904183665 3.2229976762066754, 229.09423818395115 58.78941749965878, 251.1671860809267 62.84485661728754 C 273.2401339779023 66.9002957349163, 317.8698025262909 24.750175294292113, 324.820564119901 30.515329895337032 C 331.7713257135111 36.28048449638195, 300.0780452466034 81.175761063037, 292.87175564258723 97.43578422355705 Z" fill="#e0aaff" opacity="0.21325740098132945" filter="url(#glow)" class="float" />
<path d="M 429.66214937222963 31.689823086501345 C 426.38366631205474 62.883938559219445, 441.0506934793543 100.3271279559752, 426.5790228532533 115.43672032413103 C 412.1073522271523 130.54631269228685, 369.9538881392977 123.14124718430546, 342.8321256156236 122.34737729543632 C 315.71036309194955 121.55350740656718, 284.08780539621864 125.78309335907201, 263.8484477112088 110.67350099091618 C 243.60909002619894 95.56390862276035, 221.25039287672652 57.872129092468256, 221.39597950556458 31.68982308650136 C 221.54156613440264 5.507517080534466, 244.48260979922725 -21.661304652112904, 264.7219674842371 -46.42033504488518 C 284.96132516924695 -71.17936543765745, 312.57746666061274 -112.64641969225023, 342.8321256156236 -116.8643592701323 C 373.0867845706345 -121.08229884801436, 431.7782505882015 -96.48700290494982, 446.2499212143025 -71.72797251217754 C 460.7215918404035 -46.96894211940527, 432.9406324324045 0.49570761378324946, 429.66214937222963 31.689823086501345 Z" fill="#4a0080" opacity="0.10074769104946935" filter="url(#glow)" class="float" />
<path d="M 622.6959702094731 126.32987156521015 L 622.6959702094731 126.32987156521015 L 622.9897741462083 126.35557607897378 L 623.2768614656034 126.43229836652354 L 623.5506007678416 126.55886913315197 L 623.8045301800765 126.73335439740882 L 624.0324398586052 126.95307759749217 L 624.2284518022702 127.2146502253397 L 624.3870961219127 127.5140106771621 L 624.5033829454264 127.84647092533368 L 624.5728691807533 128.20677053649038 L 624.5917194096276 128.58913748515178 L 624.5567602425405 128.9873551419009 L 624.4655275297322 129.3948347508043 L 624.3163058934064 129.80469265295358 L 624.1081601221684 130.20983146232214 L 623.8409580491822 130.60302435705293 L 623.5153846199802 130.97700161425186 L 623.1329469434547 131.32453848970945 L 622.6959702094731 131.63854352598736 L 622.2075844479642 131.91214636317997 L 621.6717021963392 132.1387841265123 L 621.0929872338804 132.31228547379004 L 620.4768146323804 132.426951403529 L 619.8292224609759 132.47763195121775 L 619.1568555689549 132.45979793639845 L 618.4669019525019 132.36960696678003 L 617.7670222890716 132.20396295705837 L 617.0652732956324 131.96056847905083 L 616.3700256336366 131.6379693256425 L 615.6898771436521 131.23559074329683 L 615.0335622454877 130.75376486585782 L 614.4098583848541 130.19374896535865 L 613.8274904446457 129.55773422279944 L 613.295034067419 128.84884481257012 L 612.8208188552595 128.07112718753774 L 612.4128324237392 127.22952954693694 L 612.0786262879187 126.32987156521015 L 611.8252245502687 125.37880455595612 L 611.6590363429991 124.38376234025579 L 611.5857729506819 123.35290318196658 L 611.6103705034388 122.29504324322353 L 611.73691908659 121.21958210049763 L 611.9685990598936 120.13642094430341 L 612.3076253187729 119.05587416321958 L 612.75520016173 117.98857508453077 L 613.311475353072 116.94537670880904 L 613.9755238887628 115.93724833347872 L 614.7453218863672 114.97516901025882 L 615.6177409284368 114.0700188228336 L 616.5885510931093 113.23246900371574 L 617.6524348069898 112.47287193266737 L 618.8030115544623 111.80115207294472 L 620.032873375325 111.22669890582462 L 621.3336309800011 110.75826291824171 L 622.6959702094731 110.40385568287853 L 624.1097184664724 110.17065504477121 L 625.563920646248 110.0649163935642 L 627.0469240003675 110.0918909562076 L 628.5464712763537 110.25575199146053 L 630.0498013904008 110.55952970545155 L 631.5437568107684 111.00505563723947 L 633.014896756483 111.59291718537969 L 634.4496152504304 112.32242286157214 L 635.8342630084346 113.19157876624858 L 637.1552720970994 114.19707668422194 L 638.3992822535547 115.33429409708486 L 639.5532677302409 116.59730630378526 L 640.604663507843 117.97891073263114 L 641.5414897097313 119.4706634178329 L 642.3524730519499 121.06292750254843 L 643.0271641740305 122.74493351924156 L 643.5560497176762 124.50485108799296 L 643.930658052582 126.32987156521015 L 644.1436575911466 128.2063010699546 L 644.1889466862909 130.1196632138055 L 644.0617341686869 132.05481076375548 L 643.7586096509381 133.99604537698474 L 643.2776028061072 135.9272444623532 L 642.618230915835 137.8319941468941 L 641.7815340784339 139.69372725723935 L 640.770097569006 141.4958651664454 L 639.5880609509951 143.22196230673217 L 638.2411136507393 144.8558521087314 L 636.7364768226178 146.3817930984221 L 635.0828714512866 147.78461386436913 L 633.2904727582674 149.0498556004556 L 631.3708511017444 150.16391093318373 L 629.3368996797857 151.11415775789825 L 627.2027494672622 151.88908683493952 L 624.9836719344355 152.4784219346477 L 622.6959702094731 152.8732313690962 L 620.3568594569834 153.06602980811823 L 617.9843373490572 153.05086934719995 L 615.5970456032769 152.82341887463537 L 613.2141236528046 152.3810308743906 L 610.8550555961149 151.72279489871977 L 608.5395116474006 150.84957704996327 L 606.2871853724246 149.76404492330124 L 604.1176280479599 148.470677580638 L 602.0500815253906 146.97576024929262 L 600.1033110100569 145.28736356675427 L 598.2954391871309 143.4153073233741 L 596.6437831319229 141.37110878741223 L 595.1646954373522 139.16791583021967 L 593.8734109737841 136.82042520237536 L 592.7839006665737 134.34478644317363 L 591.9087336345718 131.7584920348197 L 591.258948978801 129.08025453791777 L 590.8439384448099 126.32987156521017 L 590.6713411053305 123.52807956497531 L 590.7469511223114 120.69639749297383 L 591.0746395498365 117.856961551363 L 591.6562910325773 115.03235226364764 L 592.491756139088 112.24541523563664 L 593.5788199463288 109.51907702274897 L 594.9131873622517 106.87615758314237 L 596.4884855381504 104.33918084341906 L 598.2962835828303 101.93018493856722 L 600.3261296476511 99.67053370989908 L 602.5656053062899 97.58073105373765 L 605.0003970068824 95.68023970926876 L 607.6143842282484 93.9873060562137 L 610.3897438274139 92.51879246180577 L 613.3070699238588 91.2900186720994 L 616.3455085280431 90.31461368513698 L 619.4829059890203 89.60437947330345 L 622.6959702094731 89.1691678397697 L 625.9604434574532 89.01677159983295 L 629.25128549353 89.15283117287655 L 632.542865630971 89.58075755536225 L 635.8091622559296 90.30167252059891 L 639.0239682552618 91.31436675794953 L 642.1611007323228 92.6152765236746 L 645.1946133365602 94.1984792288585 L 648.0990094915421 96.05570823799246 L 650.8494547786764 98.1763869960068 L 653.4219867206791 100.5476824431102 L 655.7937202100759 103.15457751700757 L 657.9430468438057 105.97996238223087 L 659.849826455345 109.00474386777015 L 661.4955691805928 112.20797243825692 L 662.8636064527952 115.5669858719449 L 663.9392493947182 119.0575686719596 L 664.7099331626143 122.6541260970122 L 665.1653458956907 126.32987156521014 L 665.2975410360849 130.05702606093539 L 665.1010319069786 133.80702806108752" fill="none" stroke="#4a0080" stroke-width="1" opacity="0.3" class="drift" />
<path d="M 621.7368314050997 128.82735780222714 L 621.7368314050997 128.82735780222714 L 622.335327347377 128.87971941234267 L 622.9201411441097 129.0360072357497 L 623.4777642428741 129.2938393501856 L 623.9950334276787 129.64927612140562 L 624.4592988807588 130.0968652352049 L 624.8585867671804 130.62970410086865 L 625.1817546002137 131.2395189919995 L 625.4186377161674 131.9167601199102 L 625.5601852745473 132.65071167167477 L 625.5985843022036 133.42961569106174 L 625.5273704175991 134.2408085374064 L 625.3415240023827 135.07086852638872 L 625.0375507308419 135.90577323894087 L 624.6135455222243 136.73106488125347 L 624.069239144892 137.53202199109882 L 623.4060268732801 138.2938357143072 L 622.6269787770638 139.0017888209415 L 621.7368314050997 139.64143559407614 L 620.7419608129046 140.19878070549612 L 619.6503370698741 140.6604551923272 L 618.4714605693905 141.0138876666475 L 617.216280649618 141.2474689264114 L 615.897097213402 141.35070819025913 L 614.5274462105336 141.3143792505503 L 613.1219700130556 141.1306549276345 L 611.6962738726297 140.79322831319712 L 610.2667697967568 140.29741941057006 L 608.8505093163628 139.6402659141179 L 607.4650067396271 138.82059701699828 L 606.1280545946958 137.83908929543466 L 604.857533056013 136.69830388668925 L 603.671215224468 135.40270435565492 L 602.586570189582 133.95865482977015 L 601.6205658419296 132.3743981721106 L 600.7894734253937 130.66001415627073 L 600.1086758214017 128.82735780222714 L 599.592481540839 126.8899782279525 L 599.2539463639096 124.86301856529857 L 599.1047045140333 122.76309767876722 L 599.1548111793102 120.6081746104424 L 599.4125981046948 118.41739685180953 L 599.8845438705341 116.21093371173663 L 600.575160349399 114.00979620791131 L 601.4868966942274 111.83564505497024 L 602.6200620578614 109.71058845498894 L 603.972768078422 107.65697151358798 L 605.5408919880567 105.6971592064613 L 607.3180610159676 103.85331490558082 L 609.2956585619177 102.1471765407677 L 611.4628524153687 100.59983251999024 L 613.8066450898059 99.23149956006343 L 616.3119461335132 98.06130458796702 L 618.9616660689766 97.10707286152943 L 621.7368314050997 96.38512442668011 L 624.6167199614539 95.9100809769748 L 627.5790155437312 95.69468510994699 L 630.5999808163103 95.74963388451475 L 633.6546470331875 96.08342847483233 L 636.7170191142372 96.70224158944944 L 639.7602943915147 97.60980418141924 L 642.7570932016872 98.80731281623318 L 645.6796993671435 100.29335889145261 L 648.5003084912331 102.06388071609365 L 651.1912818936411 104.11213926076255 L 653.7254039311588 106.42871818291249 L 656.0761403879884 109.0015485171706 L 658.217895578932 111.81595820032516 L 660.1262657889419 114.8547463761931 L 661.7782866739094 118.09828219918265 L 663.1526722704499 121.52462762893765 L 664.2300433067891 125.10968348402444 L 664.9931425724957 128.82735780222714 L 665.4270351913437 132.64975534066093 L 665.5192917484699 136.54738684256168 L 665.260152349458 140.48939650118854 L 664.6426698340998 144.44380586661813 L 663.6628305302503 148.37777227008462 L 662.3196511121499 152.25785968456663 L 660.615250321387 156.05031980108646 L 658.5548945157765 159.72138097905787 L 656.1470162301284 163.23754262725586 L 653.4032051613513 166.56587249067087 L 650.3381712266861 169.67430425857958 L 646.9696795860807 172.5319328713582 L 643.3184577657216 175.1093048884323 L 639.4080752674369 177.3787012876746 L 635.2647962958949 179.3144100976829 L 630.9174064800922 180.89298631866737 L 626.3970147053819 182.0934966649082 L 621.7368314050997 182.8977467614722 L 616.9719248845864 183.29048854946282 L 612.1389574630622 183.25960579668737 L 607.2759034183875 182.79627577323157 L 602.4217509044056 181.89510533283254 L 597.6161901785223 180.55423983975058 L 592.8992906268358 178.77544359551982 L 588.3111692039687 176.56415064880775 L 583.891653013482 173.92948511280628 L 579.6799388411756 170.88425036615115 L 575.7142525167537 167.44488677326564 L 572.031511018454 163.63139782608533 L 568.6669902497263 159.46724487913266 L 565.6540014065216 154.97921092156895 L 563.0235788180469 150.19723410086743 L 560.8041820829978 145.1542119807731 L 559.0214152375694 139.8857777789226 L 557.6977655814269 134.43005008458897 L 556.8523646540057 128.82735780222717 L 556.5007736968723 123.1199422996343 L 556.6547957595494 117.3516389584866 L 557.3223164074493 111.5675405277642 L 558.507174772889 105.81364486522993 L 560.2090664552034 100.13648981692985 L 562.4234795255647 94.58277812803857 L 565.1416646282257 89.1989953988244 L 568.3506398946182 84.03102419582265 L 572.0332311022804 79.12375749940779 L 576.1681472192744 74.52071471397882 L 580.7300911789697 70.26366348528813 L 585.6899054322696 66.39225056061133 L 591.0147515270379 62.94364489127625 L 596.6683226701563 59.9521961135691 L 602.6110879388029 57.44911145347935 L 608.8005665267012 55.462153983606825 L 615.1916301406583 54.01536501756273 L 621.7368314050997 53.12881325928406 L 628.3867558897721 52.818373133008095 L 635.0903951505433 53.095534505586826 L 641.7955379673133 53.96724577793066" fill="none" stroke="#7b2cbf" stroke-width="1" opacity="0.3" class="drift" />
<circle cx="577.0970127024727" cy="31.33053480029968" r="0.6915427483652685" fill="white" opacity="0.7397829293401941" class="shimmer" style="animation-delay: 1.2090189371970705s" />
<circle cx="630.8392603238898" cy="50.84847707148184" r="0.9113347784024696" fill="white" opacity="0.73570474597516"  style="animation-delay: 2.0448389932953273s" />
<circle cx="153.298809624963" cy="76.2000613108067" r="1.6854874977150167" fill="white" opacity="0.7579527415626537"  style="animation-delay: 2.500773878932727s" />
<circle cx="441.454687413615" cy="71.5865454551694" r="1.170956488030519" fill="white" opacity="0.7552293169011055"  style="animation-delay: 3.256338388882395s" />
<circle cx="207.9196978859061" cy="8.529828382161897" r="1.2048405745256356" fill="white" opacity="0.3795735164174943"  style="animation-delay: 4.298616477681218s" />
<circle cx="505.82173670354393" cy="191.67641481126353" r="1.4251684164960172" fill="white" opacity="0.6689958900981103" class="shimmer" style="animation-delay: 4.060666305801535s" />
<circle cx="630.0680855607674" cy="22.375443098697765" r="0.882460399861752" fill="white" opacity="0.5605656593778328"  style="animation-delay: 3.1397168174632553s" />
<circle cx="137.84237269450816" cy="123.88668230837413" r="1.8160918928284808" fill="white" opacity="0.3561989662397869" class="shimmer" style="animation-delay: 2.6081003784733134s" />
<circle cx="394.87685228666294" cy="52.34937005043587" r="0.9231516346906216" fill="white" opacity="0.39197865501554513"  style="animation-delay: 1.087505660553637s" />
<circle cx="670.6689108085894" cy="103.4109891681688" r="1.0281512799371662" fill="white" opacity="0.4124761775797707"  style="animation-delay: 2.219221619783991s" />
<circle cx="766.2237872261993" cy="114.9934313840435" r="1.448208769663132" fill="white" opacity="0.3301948939671924" class="shimmer" style="animation-delay: 3.426869690295229s" />
<circle cx="733.1171313675135" cy="3.1644644101366026" r="1.0667757192967668" fill="white" opacity="0.6225887512363624" class="shimmer" style="animation-delay: 1.2903326987369257s" />
<circle cx="481.0472007228622" cy="60.547461220846934" r="0.6736003974062155" fill="white" opacity="0.3405584729547148"  style="animation-delay: 2.954206336393117s" />
<circle cx="6.5147882570951055" cy="21.917045987133797" r="1.7809629024879559" fill="white" opacity="0.5744779508808986"  style="animation-delay: 3.7219248585425104s" />
<circle cx="377.43266033802155" cy="5.038875354528205" r="1.6028647589610805" fill="white" opacity="0.4531992058228634" class="shimmer" style="animation-delay: 1.461449778028845s" />
<circle cx="501.1858600228429" cy="45.67496336679557" r="1.9847762115135317" fill="white" opacity="0.6830310027249269" class="shimmer" style="animation-delay: 1.6221621269324726s" />
<circle cx="476.6063748181343" cy="0.2791832981622111" r="1.0709586099213773" fill="white" opacity="0.4037907472358187"  style="animation-delay: 4.253587391507833s" />
<circle cx="188.85210175379007" cy="157.77388031909788" r="1.9855940398469272" fill="white" opacity="0.6546785601509519"  style="animation-delay: 2.022758895571809s" />
<circle cx="793.5838878079519" cy="195.55567206596578" r="0.6339763524310059" fill="white" opacity="0.3724685280964792"  style="animation-delay: 1.385181225192622s" />
<circle cx="765.6111326296717" cy="11.992543684362333" r="0.6943614221294772" fill="white" opacity="0.7619184610438834"  style="animation-delay: 4.1223798308063575s" />
<circle cx="780.3307317734307" cy="139.63686452199588" r="0.6483110168103929" fill="white" opacity="0.5346978144520469"  style="animation-delay: 3.42436156147952s" />
<circle cx="140.11373359236944" cy="0.6098154242032638" r="0.508998843094417" fill="white" opacity="0.3408686732699255"  style="animation-delay: 1.9412058167919577s" />
<circle cx="381.52885943651995" cy="86.0088697992801" r="1.7952723119351446" fill="white" opacity="0.5317445904999725"  style="animation-delay: 4.235678931964562s" />
<circle cx="212.96748308924867" cy="148.93291316465124" r="1.712212599160927" fill="white" opacity="0.30598894827959705"  style="animation-delay: 0.9555197482554789s" />
<circle cx="541.0446758828765" cy="67.62301430596031" r="1.5983120656092131" fill="white" opacity="0.6909414791203152" class="shimmer" style="animation-delay: 2.9747465259413284s" />
<circle cx="440.940176506569" cy="140.72436405978897" r="1.3560201528925946" fill="white" opacity="0.6269114070631852"  style="animation-delay: 0.3652577350758279s" />
<circle cx="756.6491395053582" cy="192.45472166397127" r="1.6789345386877614" fill="white" opacity="0.7034163623776806"  style="animation-delay: 4.378449530449937s" />
<circle cx="734.0853468659741" cy="71.19851875145677" r="0.8460669294736588" fill="white" opacity="0.5656983492571814"  style="animation-delay: 1.5794765657491783s" />
<circle cx="85.91878550508429" cy="54.47883737340597" r="1.2008707216095336" fill="white" opacity="0.43816940812883726"  style="animation-delay: 1.8659127717357316s" />
<circle cx="705.8575603777465" cy="85.56379860489338" r="0.6461239899499555" fill="white" opacity="0.32243656025689266"  style="animation-delay: 2.786947830542126s" />
<circle cx="780.9645161571385" cy="15.281424377042896" r="1.4704898317359496" fill="white" opacity="0.7008478505320297"  style="animation-delay: 3.5871374112027277s" />
<circle cx="567.5144013137744" cy="169.02184136361993" r="1.2885835622465631" fill="white" opacity="0.6478292464695763"  style="animation-delay: 4.408262970496488s" />
<circle cx="215.1498882047976" cy="79.27114368546175" r="1.3558744255547168" fill="white" opacity="0.7244713207166373"  style="animation-delay: 3.9720710037934257s" />
<circle cx="787.6395158492434" cy="136.45645622155178" r="0.628608395806734" fill="white" opacity="0.35614832776066035"  style="animation-delay: 0.704417635197937s" />
<circle cx="179.0319449818993" cy="49.816349390814764" r="1.8115814058353483" fill="white" opacity="0.7509489639760007"  style="animation-delay: 4.941570196867824s" />
<circle cx="327.8001260092504" cy="95.15199476606111" r="0.5049642449928224" fill="white" opacity="0.6031254106462345" class="shimmer" style="animation-delay: 3.1942402527492164s" />
<circle cx="316.13200812334713" cy="6.522650921840256" r="1.0738650647701338" fill="white" opacity="0.5737083895779902"  style="animation-delay: 1.4193403272269822s" />
<circle cx="748.9827316790656" cy="126.52614181405997" r="0.9130895199578853" fill="white" opacity="0.531873977407475" class="shimmer" style="animation-delay: 4.432246335021217s" />
<circle cx="215.93063522483914" cy="9.962169380531494" r="1.6718708077567648" fill="white" opacity="0.36927038355740643" class="shimmer" style="animation-delay: 2.4826744736363606s" />
<circle cx="198.84866617213444" cy="22.337826729493315" r="1.125827721766009" fill="white" opacity="0.6797864671371086"  style="animation-delay: 4.39376659205938s" />
<circle cx="150.80767377020425" cy="173.36421136870445" r="1.2314438672995496" fill="#c77dff" opacity="0.8" filter="url(#glow)" class="shimmer" style="animation-delay: 2.1450244863035697s" />
<circle cx="450.20005619629393" cy="110.92647878808006" r="1.0105733425466896" fill="#e0aaff" opacity="0.8" filter="url(#glow)" class="shimmer" style="animation-delay: 0.3941788208001906s" />
<circle cx="141.42188530582462" cy="40.02063869056705" r="2.8446030489987675" fill="#7b2cbf" opacity="0.8" filter="url(#glow)" class="shimmer" style="animation-delay: 1.6715795619795684s" />
<circle cx="199.68566054371735" cy="52.813457218770886" r="1.8778872602904926" fill="#e0aaff" opacity="0.8" filter="url(#glow)" class="shimmer" style="animation-delay: 2.867737517628229s" />
<circle cx="12.76714764918907" cy="103.27561987303157" r="2.104017985477394" fill="#4a0080" opacity="0.8" filter="url(#glow)" class="shimmer" style="animation-delay: 2.6706105173185186s" />
<circle cx="114.55601824303318" cy="132.44229394872224" r="2.8016599227642214" fill="#7b2cbf" opacity="0.8" filter="url(#glow)" class="shimmer" style="animation-delay: 2.4850932543509927s" />
<circle cx="215.15748509066964" cy="196.4525561444502" r="1.720241520192324" fill="#e0aaff" opacity="0.8" filter="url(#glow)" class="shimmer" style="animation-delay: 0.13893472920310268s" />
<circle cx="181.79033364357835" cy="198.84254480273515" r="2.372111658601209" fill="#c77dff" opacity="0.8" filter="url(#glow)" class="shimmer" style="animation-delay: 2.7868137199765455s" />
<line x1="260.76529589381647" y1="42.676120045718676" x2="98.43587954136126" y2="145.79328496073046" stroke="#e0aaff" stroke-width="0.5" opacity="0.3" />
<line x1="98.43587954136126" y1="145.79328496073046" x2="50.018922160960756" y2="48.11241301214586" stroke="#e0aaff" stroke-width="0.5" opacity="0.3" />

  
    <text x="400" y="120" text-anchor="middle" class="name-text" fill="url(#textGrad)" filter="url(#textGlow)">
      JOEL HOOKS
    </text>
  
</svg>
