<svg xmlns="http://www.w3.org/2000/svg" viewBox="0 0 800 200" width="800" height="200">
  <rect width="800" height="200" fill="#1a0a0a"/>
  
    <defs>
      <linearGradient id="grad1" x1="0%" y1="0%" x2="100%" y2="100%">
        <stop offset="0%" style="stop-color:#ff4500;stop-opacity:0.8" />
        <stop offset="100%" style="stop-color:#ff6b35;stop-opacity:0.8" />
      </linearGradient>
      <linearGradient id="grad2" x1="100%" y1="0%" x2="0%" y2="100%">
        <stop offset="0%" style="stop-color:#f7c59f;stop-opacity:0.7" />
        <stop offset="100%" style="stop-color:#efa48b;stop-opacity:0.7" />
      </linearGradient>
      <linearGradient id="textGrad" x1="0%" y1="0%" x2="100%" y2="0%">
        <stop offset="0%" style="stop-color:#ff4500" />
        <stop offset="25%" style="stop-color:#ff6b35" />
        <stop offset="50%" style="stop-color:#f7c59f" />
        <stop offset="75%" style="stop-color:#efa48b" />
        <stop offset="100%" style="stop-color:#d4a5a5" />
      </linearGradient>
      <filter id="glow">
        <feGaussianBlur stdDeviation="3" result="coloredBlur"/>
        <feMerge>
          <feMergeNode in="coloredBlur"/>
          <feMergeNode in="SourceGraphic"/>
        </feMerge>
      </filter>
      <filter id="textGlow">
        <feGaussianBlur stdDeviation="2" result="coloredBlur"/>
        <feMerge>
          <feMergeNode in="coloredBlur"/>
          <feMergeNode in="SourceGraphic"/>
        </feMerge>
      </filter>
    </defs>
  
  
    <style>
      @keyframes float {
        0%, 100% { transform: translateY(0px); }
        50% { transform: translateY(-8px); }
      }
      @keyframes pulse {
        0%, 100% { opacity: 0.4; }
        50% { opacity: 0.9; }
      }
      @keyframes drift {
        0% { transform: translateX(0px); }
        50% { transform: translateX(10px); }
        100% { transform: translateX(0px); }
      }
      @keyframes shimmer {
        0% { opacity: 0.3; }
        50% { opacity: 1; }
        100% { opacity: 0.3; }
      }
      @keyframes glitch {
        0%, 100% { transform: translateX(0); }
        20% { transform: translateX(-2px); }
        40% { transform: translateX(2px); }
        60% { transform: translateX(-1px); }
        80% { transform: translateX(1px); }
      }
      @keyframes dataStream {
        0% { stroke-dashoffset: 0; }
        100% { stroke-dashoffset: -20; }
      }
      .float { animation: float 8s ease-in-out infinite; }
      .pulse { animation: pulse 8s ease-in-out infinite; }
      .drift { animation: drift 8s ease-in-out infinite; }
      .shimmer { animation: shimmer 3s ease-in-out infinite; }
      .glitch { animation: glitch 0.5s ease-in-out infinite; }
      .dataStream { animation: dataStream 2s linear infinite; }
      .name-text { 
        font-family: -apple-system, BlinkMacSystemFont, 'Segoe UI', Helvetica, Arial, sans-serif;
        font-weight: 700;
        font-size: 64px;
        letter-spacing: -2px;
      }
    </style>
  
  <rect x="0" y="160" width="800" height="50" fill="#ff4500" opacity="0.3" />
<rect x="0" y="170" width="800" height="40" fill="#ff6b35" opacity="0.25" />
<rect x="0" y="180" width="800" height="30" fill="#f7c59f" opacity="0.19999999999999998" />
<rect x="0" y="190" width="800" height="20" fill="#efa48b" opacity="0.14999999999999997" />
<rect x="0" y="200" width="800" height="10" fill="#d4a5a5" opacity="0.09999999999999998" />
<line x1="415.1290465818278" y1="170" x2="415.1290465818278" y2="293.8655959471603" stroke="#ff4500" stroke-width="2.706317415573172" opacity="0.13500357482458733" class="pulse" />
<line x1="415.1290465818278" y1="170" x2="442.04253292168335" y2="270.44249842915167" stroke="#ff4500" stroke-width="2.236935828951396" opacity="0.1666368153528756" class="pulse" />
<line x1="415.1290465818278" y1="170" x2="475.1779840537884" y2="274.00781064196235" stroke="#ff4500" stroke-width="2.98368817011337" opacity="0.10343216463558283" class="pulse" />
<line x1="415.1290465818278" y1="170" x2="510.0469447882773" y2="264.9178982064495" stroke="#ff4500" stroke-width="2.1804915267604366" opacity="0.23919682236224496" class="pulse" />
<line x1="415.1290465818278" y1="170" x2="533.3844471272238" y2="238.27478733801138" stroke="#ff4500" stroke-width="2.506124433289204" opacity="0.13216116793243177" class="pulse" />
<line x1="415.1290465818278" y1="170" x2="558.8262844071822" y2="208.5035588298867" stroke="#ff4500" stroke-width="2.459171869391407" opacity="0.2573939212415369" class="pulse" />
<line x1="415.1290465818278" y1="170" x2="502.53545281939773" y2="170" stroke="#ff4500" stroke-width="2.9538450617954" opacity="0.23629740024482632" class="pulse" />
<line x1="415.1290465818278" y1="170" x2="510.0168483538679" y2="144.57489014361744" stroke="#ff4500" stroke-width="2.5334284682860266" opacity="0.25872443447507243" class="pulse" />
<line x1="415.1290465818278" y1="170" x2="532.4165480095348" y2="102.28402947813477" stroke="#ff4500" stroke-width="1.6017006156858349" opacity="0.22652194856728522" class="pulse" />
<line x1="415.1290465818278" y1="170" x2="516.2384707090866" y2="68.89057587274118" stroke="#ff4500" stroke-width="1.0853596453192034" opacity="0.2991879003376495" class="pulse" />
<line x1="415.1290465818278" y1="170" x2="477.04548331719803" y2="62.757585750714796" stroke="#ff4500" stroke-width="2.2650868886485114" opacity="0.28397278588962604" class="pulse" />
<line x1="415.1290465818278" y1="170" x2="453.4468009268939" y2="26.996193952270403" stroke="#ff4500" stroke-width="1.5496371593121117" opacity="0.20211403930534982" class="pulse" />
<path d="M 204.62639410380626 78.15901983462498 C 204.99485530334636 88.25351894406398, 207.12620978943096 103.40240285348023, 201.34839674116844 109.54790076156229 C 195.57058369290593 115.69339866964435, 179.4773530713367 115.97713033499087, 169.95951581423114 115.03200728311734 C 160.44167855712558 114.0868842312438, 152.78518815673473 110.02266035840309, 144.24137319853511 103.87716245032102 C 135.6975582403355 97.73166454223896, 121.18519514191213 89.22030311673569, 118.69662606503343 78.15901983462498 C 116.20805698815472 67.09773655251428, 120.76614377906327 45.01508547062835, 129.3099587372629 37.509462757656735 C 137.8537736954625 30.00384004468512, 158.321570679787 31.213376332250036, 169.95951581423114 33.12528355679529 C 181.5974609486753 35.03719078134054, 193.35981649566534 41.47528339195664, 199.13762954392786 48.98090610492825 C 204.91544259219037 56.48652881789987, 204.25793290426617 68.06452072518599, 204.62639410380626 78.15901983462498 Z" fill="#f7c59f" opacity="0.14240732335303072" class="drift" />
<path d="M 128.7792882282289 39.73564414548176 C 126.55773480104075 46.5471228158325, 127.62394011283813 48.35103917608762, 124.63891534386241 53.50541987496959 C 121.65389057488669 58.65980057385156, 118.22670697129647 67.8942862250143, 110.86913961437457 70.66192833877358 C 103.51157225745268 73.42957045253286, 83.84945508152565 75.26565325640723, 80.49351120233106 70.11127255752527 C 77.13756732313648 64.9568918586433, 89.29286640138038 48.42024367833621, 90.7334763392071 39.73564414548176 C 92.17408627703382 31.0510446126273, 85.78122695009678 22.021109114011455, 89.13717082929136 18.00367536039855 C 92.49311470848595 13.986241606785644, 102.73062876809126 16.525562875059904, 110.86913961437457 15.631041623804329 C 119.00765046065789 14.736520372548755, 134.98321113801552 8.6191140992522, 137.96823590699123 12.636547852865107 C 140.95326067596693 16.653981606478013, 131.00084165541702 32.92416547513101, 128.7792882282289 39.73564414548176 Z" fill="#f7c59f" opacity="0.18745500604547383" class="drift" />
<path d="M 669.1138970351483 73.72058916338054 C 667.6370921193911 85.33151436458245, 647.639566541666 96.96251224112875, 637.2642282717027 104.12295001971476 C 626.8888900017394 111.28338779830078, 617.4717348881512 116.20746864755858, 606.8618674153685 116.68321583489661 C 596.2519999425857 117.15896302223464, 582.9877720691323 114.13787092232897, 573.605023435006 106.97743314374296 C 564.2222748008797 99.81699536515694, 550.8934946346037 85.1343228474942, 550.5653756106109 73.72058916338054 C 550.2372565866181 62.30685547926687, 562.2535606569226 46.728512671353165, 571.6363092910489 38.495031039060954 C 581.0190579251752 30.261549406768744, 594.4470760028356 24.992638074053545, 606.8618674153685 24.319699369627266 C 619.2766588279013 23.646760665200986, 635.7497194962824 26.223917180211075, 646.1250577662457 34.457398812503286 C 656.500396036209 42.690880444795496, 670.5907019509054 62.10966396217862, 669.1138970351483 73.72058916338054 Z" fill="#f7c59f" opacity="0.1798651642176551" class="drift" />
<path d="M 524.5187232694586 36.085704015298425 C 524.4186910182015 46.00490355227841, 524.8248221054519 58.30954000902189, 518.9945415012168 65.54320587246683 C 513.1642608969817 72.77687173591177, 498.8545268421337 79.9893792836055, 489.5370396440483 79.48769919596805 C 480.21955244596296 78.9860191083306, 469.102091911946 69.766791210087, 463.0896183127047 62.533125346642066 C 457.07714471346344 55.29945948319713, 454.2416598271122 45.68097290425789, 453.4621980486006 36.08570401529843 C 452.68273627008904 26.490435126338973, 452.40037404239393 9.255847360615853, 458.4128476416352 4.9615120128853185 C 464.4253212408765 0.667176665154785, 479.3400584161942 10.141942489298298, 489.5370396440483 10.319691928915233 C 499.73402087190243 10.497441368532169, 513.7644544045247 1.7336733028563946, 519.5947350087598 6.028008650586926 C 525.4250156129949 10.322343998317457, 524.6187555207158 26.166504478318444, 524.5187232694586 36.085704015298425 Z" fill="#f7c59f" opacity="0.2494293941861665" class="drift" />
<path d="M 611.2673277342049 28.661989739806618 L 622.6937642181699 22.9487714978241 L 634.120200702135 28.661989739806618" fill="none" stroke="#d4a5a5" stroke-width="1.5" opacity="0.4" class="float" style="animation-delay: 2.967479147019416s" />
<path d="M 697.9887752688318 25.768179317127576 L 705.5277684054046 21.99868274884119 L 713.0667615419774 25.768179317127576" fill="none" stroke="#d4a5a5" stroke-width="1.5" opacity="0.4" class="float" style="animation-delay: 0.1581624799450576s" />
<path d="M 672.0833568968056 32.51503527207501 L 681.6880821444224 27.712672648266597 L 691.2928073920392 32.51503527207501" fill="none" stroke="#d4a5a5" stroke-width="1.5" opacity="0.4" class="float" style="animation-delay: 2.1200903305699654s" />
<path d="M 695.4742229575872 52.272659387149915 L 704.4573148164361 47.781113457725496 L 713.440406675285 52.272659387149915" fill="none" stroke="#d4a5a5" stroke-width="1.5" opacity="0.4" class="float" style="animation-delay: 2.5272904120535937s" />
<path d="M 192.3747798588377 70.55625616346285 L 201.3925206656533 66.04738576005505 L 210.4102614724689 70.55625616346285" fill="none" stroke="#d4a5a5" stroke-width="1.5" opacity="0.4" class="float" style="animation-delay: 1.1834668625351874s" />

  
    <text x="400" y="120" text-anchor="middle" class="name-text" fill="url(#textGrad)" filter="url(#textGlow)">
      JOEL HOOKS
    </text>
  
</svg>
