<svg xmlns="http://www.w3.org/2000/svg" viewBox="0 0 800 200" width="800" height="200">
  <rect width="800" height="200" fill="#05010d"/>
  
    <defs>
      <linearGradient id="grad1" x1="0%" y1="0%" x2="100%" y2="100%">
        <stop offset="0%" style="stop-color:#4a0080;stop-opacity:0.8" />
        <stop offset="100%" style="stop-color:#7b2cbf;stop-opacity:0.8" />
      </linearGradient>
      <linearGradient id="grad2" x1="100%" y1="0%" x2="0%" y2="100%">
        <stop offset="0%" style="stop-color:#9d4edd;stop-opacity:0.7" />
        <stop offset="100%" style="stop-color:#c77dff;stop-opacity:0.7" />
      </linearGradient>
      <linearGradient id="textGrad" x1="0%" y1="0%" x2="100%" y2="0%">
        <stop offset="0%" style="stop-color:#4a0080" />
        <stop offset="25%" style="stop-color:#7b2cbf" />
        <stop offset="50%" style="stop-color:#9d4edd" />
        <stop offset="75%" style="stop-color:#c77dff" />
        <stop offset="100%" style="stop-color:#e0aaff" />
      </linearGradient>
      <filter id="glow">
        <feGaussianBlur stdDeviation="5" result="coloredBlur"/>
        <feMerge>
          <feMergeNode in="coloredBlur"/>
          <feMergeNode in="SourceGraphic"/>
        </feMerge>
      </filter>
      <filter id="textGlow">
        <feGaussianBlur stdDeviation="2" result="coloredBlur"/>
        <feMerge>
          <feMergeNode in="coloredBlur"/>
          <feMergeNode in="SourceGraphic"/>
        </feMerge>
      </filter>
    </defs>
  
  
    <style>
      @keyframes float {
        0%, 100% { transform: translateY(0px); }
        50% { transform: translateY(-8px); }
      }
      @keyframes pulse {
        0%, 100% { opacity: 0.4; }
        50% { opacity: 0.9; }
      }
      @keyframes drift {
        0% { transform: translateX(0px); }
        50% { transform: translateX(10px); }
        100% { transform: translateX(0px); }
      }
      @keyframes shimmer {
        0% { opacity: 0.3; }
        50% { opacity: 1; }
        100% { opacity: 0.3; }
      }
      @keyframes glitch {
        0%, 100% { transform: translateX(0); }
        20% { transform: translateX(-2px); }
        40% { transform: translateX(2px); }
        60% { transform: translateX(-1px); }
        80% { transform: translateX(1px); }
      }
      @keyframes dataStream {
        0% { stroke-dashoffset: 0; }
        100% { stroke-dashoffset: -20; }
      }
      .float { animation: float 8s ease-in-out infinite; }
      .pulse { animation: pulse 8s ease-in-out infinite; }
      .drift { animation: drift 8s ease-in-out infinite; }
      .shimmer { animation: shimmer 3s ease-in-out infinite; }
      .glitch { animation: glitch 0.5s ease-in-out infinite; }
      .dataStream { animation: dataStream 2s linear infinite; }
      .name-text { 
        font-family: -apple-system, BlinkMacSystemFont, 'Segoe UI', Helvetica, Arial, sans-serif;
        font-weight: 700;
        font-size: 64px;
        letter-spacing: -2px;
      }
    </style>
  
  <path d="M 288.4855583276636 151.44312469241464 C 289.46138777633405 174.6226670888313, 270.67677808164626 206.24053559939696, 253.59383862199948 223.43820627307838 C 236.51089916235267 240.6358769467598, 212.52486935345286 245.4334283465609, 185.98792156978277 254.62914873450316 C 159.45097378611268 263.8248691224454, 112.57240988729188 290.2895553139563, 94.37215191997905 278.6125286007319 C 76.17189395266621 266.9355018875074, 88.93043114103597 214.63582517568608, 76.78637376590578 184.5669884551565 C 64.64231639077559 154.4981517346269, 17.15288216780232 122.44867753338457, 21.507807669197888 98.19950827755429 C 25.862733170593454 73.950339021724, 75.13409758785782 49.48544369654942, 102.91592677427917 39.07197292017479 C 130.69775596070053 28.658502143800156, 164.06162692844302 28.17052045690589, 188.198782787726 35.7186836193065 C 212.335938647009 43.266846781707116, 231.0243993399874 65.07354504906044, 247.73886192997702 84.36095189457846 C 264.4533245199666 103.64835874009648, 287.5097288789932 128.263582295998, 288.4855583276636 151.44312469241464 Z" fill="#7b2cbf" opacity="0.11916991312901146" filter="url(#glow)" class="float" />
<path d="M 524.1923773378559 188.53746336845703 C 530.1344898522028 204.42453412491795, 548.7692126367994 235.50773978585715, 541.9437968341086 247.65496714258308 C 535.1183810314179 259.802194499309, 502.0095239503724 247.36051869349748, 483.2398825217113 261.42082750881264 C 464.4702410930502 275.48113632412776, 444.10806550767956 333.5066765639353, 429.325948262142 332.016820034474 C 414.54383101660443 330.5269635050127, 404.1256721637314 272.57286765590743, 394.54717904848604 252.48168833204488 C 384.9686859332407 232.39050900818236, 378.6813605396519 226.84306040391152, 371.85498957066994 211.46974409129882 C 365.028618601688 196.09642777868612, 353.71723939765883 179.2339553106817, 353.5889532345943 160.24179045636862 C 353.4606670715298 141.24962560205554, 356.64504923532604 104.0738045668479, 371.08527259228305 97.51675496542036 C 385.52549594924005 90.95970536399282, 419.28695783805114 122.80538683362522, 440.2302933763363 120.8994928478034 C 461.1736289146215 118.99359886198158, 485.73514776004555 80.84254942448712, 496.74528582199395 86.08139105048946 C 507.75542388394234 91.3202326764918, 501.716606495383 135.25653055082282, 506.2911217480267 152.33254260381742 C 510.86563700067035 169.40855465681202, 518.2502648235089 172.6503926119961, 524.1923773378559 188.53746336845703 Z" fill="#c77dff" opacity="0.2497329842462074" filter="url(#glow)" class="float" />
<path d="M 545.9736308999499 165.71648920025072 C 551.1767094646018 193.77986406952317, 532.9526503740792 245.93556235579098, 510.771448955423 263.0043177218258 C 488.59024753676675 280.0730730878607, 444.1825628265724 263.60704969077267, 412.8864223880124 268.12902139645973 C 381.59028194945245 272.6509931021468, 340.6593674004774 301.87089079307236, 322.9946063240632 290.1361479559481 C 305.3298452476491 278.40140511882385, 310.2957673726937 224.05146898388867, 306.89785592952745 197.72056437371413 C 303.4999444863612 171.38965976353958, 296.64928099612814 152.54876374829647, 302.6071376650657 132.1507202949009 C 308.56499433400325 111.75267684150535, 324.2614056500565 86.82780185540679, 342.6449959431529 75.3323036533408 C 361.0285862362493 63.83680545127481, 390.0906824862511 59.96243694036328, 412.9086794236441 63.17773108250499 C 435.7266763610371 66.39302522464669, 457.37548565479335 77.53427548656677, 479.552977567511 94.62406850619105 C 501.73046948022863 111.71386152581533, 540.7705523352979 137.65311433097827, 545.9736308999499 165.71648920025072 Z" fill="#7b2cbf" opacity="0.1982262470347126" filter="url(#glow)" class="float" />
<path d="M 765.7382215464143 22.925387039395375 C 769.1756983832961 42.735954253862545, 754.8117621670115 79.4669435843617, 738.6776438603215 92.6695191934423 C 722.5435255536315 105.8720948025229, 684.7302807738595 109.59211567764292, 668.9335117062745 102.14084069387893 C 653.1367426386896 94.68956571011493, 650.9889290891799 61.16444489993891, 643.8970294548116 47.96186929085832 C 636.8051298204432 34.75929368177773, 630.1520900541735 35.04085727732519, 626.3821139000647 22.92538703939538 C 622.6121377459559 10.809916801465565, 614.1852728957904 -18.117638733228194, 621.2771725301586 -24.73095213672056 C 628.3690721645269 -31.344265540212927, 652.8042433214625 -16.51067138878545, 668.9335117062745 -16.754493381558817 C 685.0627800910866 -16.998315374332183, 701.9186645323407 -32.807197496853114, 718.0527828390307 -26.19388409336075 C 734.1869011457206 -19.580570689868384, 762.3007447095324 3.114819824928201, 765.7382215464143 22.925387039395375 Z" fill="#4a0080" opacity="0.19813331565484366" filter="url(#glow)" class="float" />
<path d="M 538.8891473819097 140.61554650556633 L 538.8891473819097 140.61554650556633 L 539.1703221474472 140.64014611002042 L 539.4450690096461 140.71357048769562 L 539.7070416196137 140.8347006060532 L 539.9500558683048 141.00168561589462 L 540.1681688423382 141.21196400750878 L 540.3557552066158 141.46229292795599 L 540.507580195331 141.74878536160992 L 540.6188684261829 142.0669547958556 L 540.6853677935611 142.41176691721785 L 540.7034077447712 142.77769781090788 L 540.6699512985496 143.15879806951418 L 540.5826402266889 143.54876215497842 L 540.4398328869601 143.94100230268072 L 540.2406342680586 144.32872620794961 L 539.984917884344 144.7050176940865 L 539.6733392389441 145.06291952745795 L 539.3073406576293 145.3955175197051 L 538.8891473819097 145.6960250399042 L 538.4217548972819 145.95786705078024 L 537.9089075606166 146.17476278293083 L 537.3550686785017 146.34080616949456 L 536.7653822751041 146.45054318074008 L 536.1456268729744 146.4990452235379 L 535.502161692351 146.48197780439054 L 534.8418657531826 146.39566369635693 L 534.1720704384695 146.23713989945438 L 533.5004861469552 146.00420774052085 L 532.8351237269533 145.69547552157874 L 532.1842114405925 145.31039319488977 L 531.5561082583794 144.84927861751459 L 530.9592143272523 144.31333501760952 L 530.4018794907478 143.7046593881925 L 529.8923107671653 143.02624161092183 L 529.43847971039 142.28195420176448 L 529.0480305880945 141.47653266145974 L 528.7281903132339 140.61554650556633 L 528.4856810570194 139.70536114076472 L 528.3266364549171 138.75309084510957 L 528.2565222917572 137.7665431992371 L 528.2800625179574 136.7541554022836 L 528.4011714063951 135.72492298963823 L 528.6228926089673 134.6883215488388 L 528.9473458137498 133.6542221041557 L 529.3756816384068 132.6328009089754 L 529.9080453236521 131.6344444473088 L 530.5435497127464 130.66965050099517 L 531.2802579199027 129.74892618688 L 532.1151760027924 128.88268390791794 L 533.0442558628737 128.08113619336598 L 534.0624085028062 127.35419042562597 L 535.163527673633 126.71134446459774 L 536.3405238465477 126.1615841844186 L 537.5853683458425 125.7132839320749 L 538.8891473819097 125.37411090255264 L 540.242125626885 125.15093440099974 L 541.6338188815301 125.0497409289457 L 543.0530752911601 125.07555598918967 L 544.4881644816696 125.2323734528355 L 545.9268739048306 125.52309327250877 L 547.3566116058062 125.94946825850583 L 548.7645145560037 126.51206056003727 L 550.1375616316514 127.2102084124487 L 551.4626902634702 128.04200362400576 L 552.7269157360956 129.00428018325226 L 553.9174520779652 130.09261427087586 L 555.0218334536762 131.3013358592802 L 556.028034951653 132.6235519795375 L 556.9245916506285 134.05118162998568 L 557.7007148491025 135.57500219436844 L 558.3464043526855 137.18470713104068 L 558.8525557350774 138.8689745893254 L 559.2110615192612 140.61554650556633 L 559.4149052661526 142.41131763071544 L 559.4582476081583 144.24243384435056 L 559.3365033245105 146.09439901773794 L 559.046408623419 147.95218960180352 L 558.5860778725101 149.80037603548004 L 557.9550491030883 151.62324999663176 L 557.1543177048079 153.40495645234398 L 556.1863578246421 155.1296294084589 L 555.0551310867733 156.78153021042988 L 553.7660823573746 158.34518720936705 L 552.3261223892837 159.8055355789911 L 550.7435972953647 161.14805605145102 L 549.0282449149313 162.35891133285264 L 547.1911382539676 163.42507896306373 L 545.2446162960288 164.33447939898332 L 543.202202595599 165.0760981259702 L 541.0785121783243 165.64010063841042 L 538.8891473819097 166.0179391772558 L 536.6505833765868 166.2024501694856 L 534.3800442039617 166.18794138144307 L 532.0953702668169 165.9702678743914 L 529.8148782891952 165.5468959358542 L 527.5572148450032 164.91695425370986 L 525.3412046236753 164.08127170086314 L 523.1856946624486 163.04240120583384 L 521.1093958258663 161.80462929791358 L 519.130722853743 160.37397103373291 L 517.2676343284942 158.75815013418207 L 515.5374739311156 156.96656428562386 L 513.9568143619068 155.01023568619036 L 512.5413052970804 152.90174704558078 L 511.3055267356337 150.65516337410145 L 510.26284906226846 148.2859400226066 L 509.42530111187773 145.81081755841942 L 508.8034474693892 143.24770418215476 L 508.4062761758823 140.61554650556633 L 508.24109793831406 137.93418962006973 L 508.31345785640485 135.22422748845463 L 508.62706058686035 132.5068447875523 L 509.18370976284325 129.8036514163747 L 509.98326237622314 127.136510961667 L 511.02359871249473 124.52736448016296 L 512.3006083042729 121.99805101342167 L 513.8081922399476 119.57012629637212 L 515.5382820304401 117.26468115409669 L 517.4808751001431 115.102161102536 L 519.6240868291686 113.10218867740312 L 521.9542189341166 111.28339001144533 L 524.4558438349023 109.66322716319407 L 527.1119045168973 108.25783767051186 L 529.9038292619482 107.08188275970092 L 532.8116604898928 106.14840558590636 L 535.8141968251475 105.46870081336957 L 538.8891473819097 105.05219676520105 L 542.01329714758 104.90635128229441 L 545.1626822381851 105.03656233043345 L 548.3127737028448 105.44609428429284 L 551.4386684675785 106.13602069772139 L 554.5152859328018 107.10518424233683 L 557.5175686744819 108.35017436203321 L 560.4206856467379 109.86532305056036 L 563.2002362442547 111.64271901398948 L 565.8324535566823 113.6722403307937 L 568.2944051345548 115.94160557064896 L 570.5641895874421 118.43644318014174 L 572.6211273501488 121.14037879060439 L 574.4459439818249 124.03513995156624 L 576.0209444057426 127.10067764407668 L 577.3301765539993 130.31530378268369 L 578.3595829511977 133.65584377438574 L 579.0971388537828 137.09780306863047 L 579.5329756566128 140.6155465055663 L 579.6594883848579 144.18248915141044 L 579.4714262066706 147.77129720100555 L 578.9659650294074 151.35409742942267 L 578.1427613785331 154.9026935877124 L 577.0039869026821 158.38878806345136 L 575.554342999561 161.78420706530753 L 573.8010552142849 165.06112754307802 L 571.7538472231013 168.19230402106223 L 569.4248943799854 171.15129350364194 L 566.8287569699778 173.91267660782626 L 563.9822934800177 176.45227308846802 L 560.9045543640406 178.7473499479236 L 557.6166569429025 180.77682036302457 L 554.1416422398764 182.52143171817784 L 550.5043147077135 183.96394110388013 L 546.731065952254 185.08927672448243 L 542.8496836990194 185.88468375711577 L 538.8891473819098 186.3398533146074 L 534.8794118558918 186.4470332881909 L 530.8511808473068 186.20111997995534 L 526.8356718551321 185.5997295792882 L 522.8643743032864 184.64324869096833 L 518.9688028170319 183.3348632838818 L 515.1802475549995 181.68056559733571 L 511.52952357171444 179.68913871531078 L 508.04672121326297 177.37211869637278 L 504.760959560531 174.743734326945 L 501.700144930035 171.82082474678543 L 498.89073642163874 168.6227353763579 L 496.3575204654342 165.17119275486615 L 494.12339626690846 161.49015907355215 L 492.2091739805196 157.6056673600104 L 490.6333873573716 153.54563843429136 L 489.41212251336555 149.33968091507447 L 488.5588643506839 145.01887570284978 L 488.0843620385307 140.61554650556636 L 487.9965148196087 136.16301809937482 L 488.3002792578926 131.69536413179975 L 488.99759888196354 127.24714637586763 L 490.0873570077291 122.8531474304658 L 491.5653533460512 118.54809893369567 L 493.4243048160221 114.36640741148724 L 495.65387079479603 110.34187992268755 L 498.2407028414884 106.50745168376883 L 501.1685187372278 102.89491786088476 L 504.4182004875397 99.53467170407687 L 507.96791573843456 96.45545116792619 L 511.7932618654408 93.68409611497277 L 515.8674318069311 91.24531813302214 L 520.1614005309883 89.16148491539778 L 524.6441308502634 87.45242105480409 L 529.2827971332378 86.13522698739413" fill="none" stroke="#4a0080" stroke-width="1" opacity="0.3" class="drift" />
<path d="M 678.2500801173859 142.05342741341272 L 678.2500801173859 142.05342741341272 L 678.7424541412737 142.09650455871756 L 679.2235720603472 142.22508030845913 L 679.6823205823619 142.4371950893702 L 680.1078705184003 142.72960782088745 L 680.4898150449002 143.09783296234988 L 680.8183034596739 143.53619185142173 L 681.0841689987722 144.0378778121157 L 681.2790493392292 144.59503437030878 L 681.3954984844412 145.19884578046805 L 681.427088813506 145.83963894071687 L 681.3685021724906 146.5069956555911 L 681.215608993404 147.1898740979886 L 680.9655345446225 147.87673822494997 L 680.6167115435475 148.55569381696333 L 680.1689184971732 149.21462973829227 L 679.623303277757 149.84136295710377 L 678.982391587568 150.4237858195063 L 678.2500801173859 150.95001404146686 L 677.4316143565941 151.40853386728202 L 676.5335511669219 151.78834684302655 L 675.5637063856836 152.07911066824408 L 674.5310878762749 152.27127461899224 L 673.4458145922749 152.35620807997864 L 672.3190223653498 152.32632078256447 L 671.1627572648753 152.1751734183636 L 669.9898575074737 151.89757738440352 L 668.81382501622 151.48968251457867 L 667.6486878409343 150.94905176254895 L 666.5088547516428 150.27472192232506 L 665.4089634059462 149.46724960345782 L 664.363723566797 148.52874181682313 L 663.3877569092703 147.4628706732106 L 662.4954350026509 146.2748718489449 L 661.7007170870424 144.9715266292015 L 661.0169892813109 143.56112749908178 L 660.4569068612776 142.05342741341272 L 660.0322412335352 140.45957303713402 L 659.7537332011196 138.79202240753116 L 659.6309540726991 137.0644476259656 L 659.6721761072413 135.29162333866537 L 659.8842537117683 133.48930191212798 L 660.2725167213704 131.67407634734957 L 660.8406769888703 129.86323210709443 L 661.5907493972477 128.07458915048437 L 662.5229882821093 126.32633557813614 L 663.6358401152336 124.63685438781363 L 664.9259131546659 123.02454492410504 L 666.3879646133137 121.50764067510923 L 668.0149057378017 120.10402512377229 L 669.7978250239518 118.83104740073203 L 671.7260296261089 117.70533950882225 L 673.7871048461795 116.74263689641678 L 675.9669914162299 115.95760414735625 L 678.2500801173859 115.36366752925034 L 680.6193231091515 114.97285609958054 L 683.056361178685 114.79565301049402 L 685.5416659605778 114.84085857887044 L 688.0546960257695 115.11546659870311 L 690.5740655948445 115.62455526874363 L 693.0777244974761 116.37119399053334 L 695.5431478775118 117.35636716133253 L 697.9475340333304 118.57891594412699 L 700.2680086867731 120.0354988440255 L 702.4818338921325 121.7205717582442 L 704.5666197302583 123.62638799688506 L 706.5005368825532 125.74301859531347 L 708.2625281460779 128.0583930576547 L 709.8325169346316 130.55836048634225 L 711.1916108118318 133.2267708663909 L 712.3222981210342 136.04557608678877 L 713.2086358134238 138.99495009676977 L 713.8364266296024 142.05342741341272 L 714.1933838611995 145.19805902066534 L 714.269282006957 148.40458453012943 L 714.0560917417837 151.64761931234946 L 713.5480977366606 154.90085515543265 L 712.7419980011066 158.13727286704503 L 711.636983567129 161.32936510752995 L 710.2347974930307 164.4493676273463 L 708.5397723358191 167.46949698237333 L 706.5588454208838 170.36219271691053 L 704.3015514255706 173.10036193730673 L 701.7799919877212 175.65762414984968 L 699.0087822495121 178.00855420544386 L 696.0049744493177 180.1289211811563 L 692.7879588780927 181.9959210352235 L 689.3793427201525 183.5884008977141 L 685.8028074994274 184.88707290371354 L 682.0839460495158 185.87471553943206 L 678.2500801173859 186.53636055368335 L 674.3300598946464 186.85946358720778 L 670.3540469452516 186.8340567896363 L 666.3532821627043 186.45288182766592 L 662.3598405417297 185.71150183725243 L 658.4063746875798 184.608391036185 L 654.5258491092416 183.14500089001973 L 650.7512674496447 181.32580191262224 L 647.1153948954092 179.1583003809934 L 643.6504780797774 176.65302945102118 L 640.3879648443444 173.82351437461355 L 637.3582262573843 170.68621173755574 L 634.5902832984909 167.26042285956606 L 632.1115406105907 163.56818172151827 L 629.94752969101 159.63411800775577 L 628.121663843229 155.4852960719242 L 626.6550071404326 151.15103085087182 L 625.5660595613851 146.66268196102956 L 624.8705603490612 142.05342741341275 L 624.5813115136094 137.35801857518626 L 624.7080232545098 132.61251818586086 L 625.2571829132772 127.85402340298624 L 626.2319488889812 123.12037600412023 L 627.632070755562 118.4498620074329 L 629.4538366139151 113.88090309124128 L 631.6900484946117 109.45174229186387 L 634.3300264006577 105.20012653841987 L 637.3596413456668 101.16298864169357 L 640.761377503169 97.37613139122374 L 644.5144233394352 93.8739164298465 L 648.5947913572055 90.68896056765396" fill="none" stroke="#4a0080" stroke-width="1" opacity="0.3" class="drift" />
<circle cx="341.116651045294" cy="2.916724530858339" r="1.3905645563033868" fill="white" opacity="0.3693362574073457" class="shimmer" style="animation-delay: 1.5117421918550722s" />
<circle cx="430.47637013673403" cy="191.067652424415" r="1.5890671195658899" fill="white" opacity="0.3407653102447768" class="shimmer" style="animation-delay: 0.845090134048545s" />
<circle cx="267.71892688759743" cy="167.32238910745858" r="1.139799463595569" fill="white" opacity="0.44871140226986145"  style="animation-delay: 4.427850765200554s" />
<circle cx="763.6466364534888" cy="165.85287476335645" r="1.0425088679233732" fill="white" opacity="0.5768401072663301"  style="animation-delay: 4.469303485647142s" />
<circle cx="131.11021541595545" cy="135.42142812730606" r="1.3134791356042412" fill="white" opacity="0.4983137188888798" class="shimmer" style="animation-delay: 3.814407776525365s" />
<circle cx="582.0648299643378" cy="155.32981752064825" r="1.6601835600350898" fill="white" opacity="0.4020666418194723" class="shimmer" style="animation-delay: 2.2886137188160625s" />
<circle cx="588.6736858858068" cy="196.02978710539992" r="1.0901959777284271" fill="white" opacity="0.55929434398243" class="shimmer" style="animation-delay: 0.5369122529208303s" />
<circle cx="3.0021307217799276" cy="91.63876611445501" r="1.8696091668865131" fill="white" opacity="0.3572320870738221" class="shimmer" style="animation-delay: 3.2906582009266394s" />
<circle cx="64.02450848026682" cy="81.97063998515866" r="1.4557237994507695" fill="white" opacity="0.4224579538594568"  style="animation-delay: 2.84418268235751s" />
<circle cx="735.6169954995684" cy="7.368122374697839" r="0.6481099261699913" fill="white" opacity="0.378554064371221"  style="animation-delay: 0.6205561942250959s" />
<circle cx="135.7329475036396" cy="141.54402031845223" r="1.7163729047309235" fill="white" opacity="0.3392069686871529"  style="animation-delay: 3.7278346555507316s" />
<circle cx="579.9922061490494" cy="27.508524473686524" r="1.1349341210060349" fill="white" opacity="0.5161042179214703"  style="animation-delay: 4.259223683755798s" />
<circle cx="123.285825463973" cy="3.1954997650406103" r="1.2334041658135302" fill="white" opacity="0.3435835077324772"  style="animation-delay: 0.47887774640456127s" />
<circle cx="682.4122267005694" cy="119.86566444047541" r="1.7688403621404614" fill="white" opacity="0.5305916709894227" class="shimmer" style="animation-delay: 3.996725272271815s" />
<circle cx="86.35259906823194" cy="157.81045248618048" r="1.8757043280028405" fill="white" opacity="0.36448272304076307"  style="animation-delay: 1.7607171145481604s" />
<circle cx="390.5999212878493" cy="4.738643839370793" r="0.780931591839656" fill="white" opacity="0.6624589179322238"  style="animation-delay: 3.139021401111818s" />
<circle cx="375.22538944834525" cy="17.00737004909323" r="1.6718668934148249" fill="white" opacity="0.6135455077225833" class="shimmer" style="animation-delay: 1.8058050771964795s" />
<circle cx="24.006269620330478" cy="114.8656316904149" r="1.237008794244237" fill="white" opacity="0.6436553867562105"  style="animation-delay: 2.860505749808685s" />
<circle cx="36.09163390082877" cy="109.00314026510233" r="1.2584561119902817" fill="white" opacity="0.39623717488475824"  style="animation-delay: 4.6974978950333215s" />
<circle cx="260.01725902611435" cy="60.39292653814869" r="1.1200831772296937" fill="white" opacity="0.30109125089958905"  style="animation-delay: 3.7288581995189274s" />
<circle cx="662.3588233713314" cy="194.26419843144274" r="1.6771932642706031" fill="white" opacity="0.6949180481804589"  style="animation-delay: 2.9200322760168462s" />
<circle cx="335.87305128070943" cy="188.7383236951612" r="1.7429628922659322" fill="white" opacity="0.5851446693900721" class="shimmer" style="animation-delay: 0.06544195771066352s" />
<circle cx="137.72237252819366" cy="30.41186422587714" r="0.5023855640956615" fill="white" opacity="0.7459511856201511" class="shimmer" style="animation-delay: 2.8308187733777492s" />
<circle cx="190.8944404531539" cy="64.53533167830305" r="1.6459152708622171" fill="white" opacity="0.3193129785998727" class="shimmer" style="animation-delay: 4.587096670182779s" />
<circle cx="362.8997411932962" cy="22.848713748725082" r="1.889446768148236" fill="white" opacity="0.4944007848978464"  style="animation-delay: 3.9598690413970914s" />
<circle cx="211.2102428927255" cy="25.916210563766562" r="0.980325198219081" fill="white" opacity="0.5958569360868948"  style="animation-delay: 0.36131798129404036s" />
<circle cx="38.686326664532444" cy="105.54925436321815" r="0.7969752059980321" fill="white" opacity="0.709112830240582"  style="animation-delay: 1.8015856966949628s" />
<circle cx="635.6161379013934" cy="138.32631468198588" r="0.6120847603006648" fill="white" opacity="0.7228410691297156"  style="animation-delay: 2.439177996884463s" />
<circle cx="581.0194125182231" cy="43.42915887006069" r="1.4642809929179923" fill="white" opacity="0.6982937780560614" class="shimmer" style="animation-delay: 1.8888303517097438s" />
<circle cx="679.2782254608189" cy="98.04162425758327" r="1.847057805703257" fill="white" opacity="0.45843860061031133"  style="animation-delay: 3.210889030122938s" />
<circle cx="505.52495298906433" cy="165.51754088052664" r="0.6810870931942099" fill="white" opacity="0.47999609666022564" class="shimmer" style="animation-delay: 0.9194697518426043s" />
<circle cx="56.680238655605386" cy="59.176360681300636" r="1.0523925478508676" fill="white" opacity="0.783847414051295"  style="animation-delay: 1.911141080829315s" />
<circle cx="395.41033838634405" cy="64.9236034876873" r="0.9558904844054934" fill="white" opacity="0.34439974094538933"  style="animation-delay: 4.581035776184114s" />
<circle cx="366.9174706076005" cy="103.41966408511433" r="0.6961583163011738" fill="white" opacity="0.5868402310733245"  style="animation-delay: 3.3303928569979546s" />
<circle cx="574.9994813107153" cy="151.94189241430269" r="0.9896006253913338" fill="white" opacity="0.4952852840902417"  style="animation-delay: 4.079680386649295s" />
<circle cx="222.00164351274515" cy="174.19596398965967" r="1.0099275961698329" fill="white" opacity="0.3068923286987784"  style="animation-delay: 1.267809871829224s" />
<circle cx="399.5384442445694" cy="48.86217133333726" r="0.5725863519102203" fill="white" opacity="0.3781522064990381"  style="animation-delay: 0.29980506803310325s" />
<circle cx="306.99236594196645" cy="49.16997734307014" r="0.6084866474678937" fill="white" opacity="0.642286093744993"  style="animation-delay: 1.73123594521282s" />
<circle cx="481.5739087662886" cy="172.66009149318003" r="1.853311174962898" fill="white" opacity="0.32729913143224526"  style="animation-delay: 0.2975824603247734s" />
<circle cx="261.22897316489605" cy="51.812389397795485" r="1.2384993022848436" fill="white" opacity="0.38014225383147254"  style="animation-delay: 0.1414815291002991s" />
<circle cx="196.61150606766444" cy="47.906470720008" r="1.5589607397253564" fill="#7b2cbf" opacity="0.8" filter="url(#glow)" class="shimmer" style="animation-delay: 0.6763354964116262s" />
<circle cx="638.2455430684204" cy="66.34024692537056" r="1.255906514905453" fill="#7b2cbf" opacity="0.8" filter="url(#glow)" class="shimmer" style="animation-delay: 0.7829119376100149s" />
<circle cx="312.4927010139244" cy="34.56595065621934" r="1.3923240881067596" fill="#c77dff" opacity="0.8" filter="url(#glow)" class="shimmer" style="animation-delay: 1.644115846491681s" />
<circle cx="530.079701111264" cy="161.91899577895046" r="2.9999197955360253" fill="#4a0080" opacity="0.8" filter="url(#glow)" class="shimmer" style="animation-delay: 0.35115193080313833s" />
<circle cx="333.2281478682663" cy="174.4200386182538" r="1.8917979670433858" fill="#e0aaff" opacity="0.8" filter="url(#glow)" class="shimmer" style="animation-delay: 0.510367029558634s" />
<circle cx="285.3976783624317" cy="55.02751382944986" r="2.2012592600603815" fill="#c77dff" opacity="0.8" filter="url(#glow)" class="shimmer" style="animation-delay: 2.34629659721885s" />
<circle cx="771.2271341174082" cy="165.7285909039761" r="2.6439645146251705" fill="#c77dff" opacity="0.8" filter="url(#glow)" class="shimmer" style="animation-delay: 1.7339233088041897s" />
<circle cx="512.8549146136714" cy="112.33245657138049" r="2.295050991757829" fill="#7b2cbf" opacity="0.8" filter="url(#glow)" class="shimmer" style="animation-delay: 0.979153906834908s" />
<line x1="691.660342716528" y1="166.98446474514765" x2="114.27108288680063" y2="154.67583509356285" stroke="#e0aaff" stroke-width="0.5" opacity="0.3" />
<line x1="114.27108288680063" y1="154.67583509356285" x2="390.49899275121686" y2="63.654302253818194" stroke="#e0aaff" stroke-width="0.5" opacity="0.3" />
<line x1="390.49899275121686" y1="63.654302253818194" x2="71.39570639049012" y2="62.317245088331404" stroke="#e0aaff" stroke-width="0.5" opacity="0.3" />
<line x1="71.39570639049012" y1="62.317245088331404" x2="212.36695301056469" y2="142.80793580884668" stroke="#e0aaff" stroke-width="0.5" opacity="0.3" />
<line x1="212.36695301056469" y1="142.80793580884668" x2="503.635659314029" y2="57.3661862656384" stroke="#e0aaff" stroke-width="0.5" opacity="0.3" />

  
    <text x="400" y="120" text-anchor="middle" class="name-text" fill="url(#textGrad)" filter="url(#textGlow)">
      JOEL HOOKS
    </text>
  
</svg>
