<svg xmlns="http://www.w3.org/2000/svg" viewBox="0 0 800 200" width="800" height="200">
  <rect width="800" height="200" fill="#05010d"/>
  
    <defs>
      <linearGradient id="grad1" x1="0%" y1="0%" x2="100%" y2="100%">
        <stop offset="0%" style="stop-color:#4a0080;stop-opacity:0.8" />
        <stop offset="100%" style="stop-color:#7b2cbf;stop-opacity:0.8" />
      </linearGradient>
      <linearGradient id="grad2" x1="100%" y1="0%" x2="0%" y2="100%">
        <stop offset="0%" style="stop-color:#9d4edd;stop-opacity:0.7" />
        <stop offset="100%" style="stop-color:#c77dff;stop-opacity:0.7" />
      </linearGradient>
      <linearGradient id="textGrad" x1="0%" y1="0%" x2="100%" y2="0%">
        <stop offset="0%" style="stop-color:#4a0080" />
        <stop offset="25%" style="stop-color:#7b2cbf" />
        <stop offset="50%" style="stop-color:#9d4edd" />
        <stop offset="75%" style="stop-color:#c77dff" />
        <stop offset="100%" style="stop-color:#e0aaff" />
      </linearGradient>
      <filter id="glow">
        <feGaussianBlur stdDeviation="5" result="coloredBlur"/>
        <feMerge>
          <feMergeNode in="coloredBlur"/>
          <feMergeNode in="SourceGraphic"/>
        </feMerge>
      </filter>
      <filter id="textGlow">
        <feGaussianBlur stdDeviation="2" result="coloredBlur"/>
        <feMerge>
          <feMergeNode in="coloredBlur"/>
          <feMergeNode in="SourceGraphic"/>
        </feMerge>
      </filter>
    </defs>
  
  
    <style>
      @keyframes float {
        0%, 100% { transform: translateY(0px); }
        50% { transform: translateY(-8px); }
      }
      @keyframes pulse {
        0%, 100% { opacity: 0.4; }
        50% { opacity: 0.9; }
      }
      @keyframes drift {
        0% { transform: translateX(0px); }
        50% { transform: translateX(10px); }
        100% { transform: translateX(0px); }
      }
      @keyframes shimmer {
        0% { opacity: 0.3; }
        50% { opacity: 1; }
        100% { opacity: 0.3; }
      }
      @keyframes glitch {
        0%, 100% { transform: translateX(0); }
        20% { transform: translateX(-2px); }
        40% { transform: translateX(2px); }
        60% { transform: translateX(-1px); }
        80% { transform: translateX(1px); }
      }
      @keyframes dataStream {
        0% { stroke-dashoffset: 0; }
        100% { stroke-dashoffset: -20; }
      }
      .float { animation: float 8s ease-in-out infinite; }
      .pulse { animation: pulse 8s ease-in-out infinite; }
      .drift { animation: drift 8s ease-in-out infinite; }
      .shimmer { animation: shimmer 3s ease-in-out infinite; }
      .glitch { animation: glitch 0.5s ease-in-out infinite; }
      .dataStream { animation: dataStream 2s linear infinite; }
      .name-text { 
        font-family: -apple-system, BlinkMacSystemFont, 'Segoe UI', Helvetica, Arial, sans-serif;
        font-weight: 700;
        font-size: 64px;
        letter-spacing: -2px;
      }
    </style>
  
  <path d="M 428.7330899585235 161.09414730887107 C 430.83455631635707 187.6554045979608, 432.49359538890945 224.95548278167072, 417.45936698623785 246.0679381135089 C 402.42513858356625 267.180393445347, 361.9797652608853 290.54454474531633, 338.52771954249397 287.76887929990005 C 315.07567382410264 284.99321385448377, 295.95057490426086 244.89185520215693, 276.7470926758898 229.41394544101126 C 257.54361044751874 213.9360356798656, 236.30190154279933 213.41064223289942, 223.30682617226756 194.9014207330261 C 210.3117508017358 176.39219923315278, 190.676277217722 136.77643047745957, 198.77664045269916 118.35861644177129 C 206.8770036876763 99.94080240608301, 249.11189767464623 95.5786013028113, 271.9090055821304 84.39453651889646 C 294.7061134896146 73.21047173498162, 313.4023606880866 50.86991809493657, 335.55928789760435 51.25422773828225 C 357.7162151071221 51.638537381627934, 389.32160182908353 68.39374111720575, 404.85056883923676 86.70039437897056 C 420.37953584939 105.00704764073537, 426.63162360069 134.53289001978135, 428.7330899585235 161.09414730887107 Z" fill="#e0aaff" opacity="0.22777767779963118" filter="url(#glow)" class="float" />
<path d="M 676.5133069692217 148.26066168396275 C 676.3056501192323 177.495439178236, 686.4759815215597 219.61963346322992, 671.052244045457 235.34202361681406 C 655.6285065693543 251.0644137703982, 613.5810066507627 242.01199871159446, 583.9708821126056 242.59500260546767 C 554.3607575744486 243.17800649934088, 510.7096732130062 254.56243713363753, 493.39149681651503 238.8400469800534 C 476.07332042002383 223.11765682646924, 476.5164198026392 174.9083861849738, 480.06182373365834 148.26066168396275 C 483.6072276646775 121.61293718295171, 497.3457440061388 94.3838394741236, 514.66392040263 78.95369997398713 C 531.9820967991212 63.52356047385065, 557.6985046554784 58.849881570279344, 583.9708821126056 55.679824683143906 C 610.2432595697329 52.50976779600847, 656.8744476692912 44.503219151038024, 672.2981851453939 59.9333586511745 C 687.7219226214966 75.36349815131098, 676.7209638192112 119.02588418968949, 676.5133069692217 148.26066168396275 Z" fill="#c77dff" opacity="0.2060240894502767" filter="url(#glow)" class="float" />
<path d="M 177.67818699326634 188.29759120202206 C 184.81128547266263 205.2519965945122, 208.5970766180911 238.54004433640088, 202.80361706277006 254.70830558468785 C 197.010157507449 270.87656683297485, 162.6193428404411 282.6260740065618, 142.91742966134 285.3071586917439 C 123.21551648223893 287.988243376926, 106.11262609864086 275.1443338409431, 84.59213798816354 270.7948136957803 C 63.07164987768623 266.4452935506175, 23.420333643243104 272.9595749030601, 13.79450099847611 259.21003782076707 C 4.168668353709116 245.46050073847402, 23.606955106951443 209.58820517019853, 26.837142119561577 188.29759120202206 C 30.06732913217171 167.0069772338456, 22.50801673423647 142.0096413430268, 33.17562307413691 131.46635401170818 C 43.843229414037346 120.92306668038957, 71.79170991788385 134.0756622650031, 90.84278015896419 125.03786721411038 C 109.89385040004453 116.00007216321765, 135.95500351604758 72.5822493704124, 147.48204452061893 77.23958370635182 C 159.00908552519027 81.89691804229125, 154.97233577428437 134.4722053138019, 160.00502618639229 152.98187322974695 C 165.0377165985002 171.491541145692, 170.54508851387004 171.34318580953192, 177.67818699326634 188.29759120202206 Z" fill="#4a0080" opacity="0.11297985618241624" filter="url(#glow)" class="float" />
<path d="M 845.62180216354 183.7939748528167 C 842.0837930471018 201.4787120469954, 828.3327545497247 215.37050687593776, 817.0122646929188 227.94196000123733 C 805.691774836113 240.5134131265369, 792.8436446020786 255.537374904837, 777.698863022705 259.22269360461405 C 762.5540814433315 262.9080123043911, 737.4058426116209 259.33300308146, 726.1435752166774 250.05387219989956 C 714.8813078217339 240.77474131833912, 720.0031402487369 220.50710325657337, 710.1252586530439 203.54790831525153 C 700.247377057351 186.5887133739297, 661.8595373950545 158.5691678568194, 666.8762856425194 148.29870255196857 C 671.8930338899843 138.02823724711774, 721.6668534660258 149.08240145582252, 740.2257481378333 141.92511648614658 C 758.7846428096408 134.76783151647064, 761.893891797745 108.70358934224316, 778.2296536733642 105.35499273391291 C 794.5654155489833 102.00639612558265, 827.0082946431854 108.76037314968109, 838.240319391548 121.83353683616505 C 849.4723441399107 134.906700522649, 849.1598112799782 166.10923765863797, 845.62180216354 183.7939748528167 Z" fill="#9d4edd" opacity="0.17189523865963008" filter="url(#glow)" class="float" />
<path d="M 306.1936830082593 117.51224406154863 L 306.1936830082593 117.51224406154863 L 306.43602372452546 117.53344612693267 L 306.6728243180989 117.59672960204534 L 306.89861495695754 117.70113000792121 L 307.10806564140324 117.84505212274297 L 307.29605425500847 118.02628821603764 L 307.4577323977602 118.24204331684595 L 307.58858829601985 118.48896725912716 L 307.6845061125603 118.76319317851818 L 307.7418210152362 119.06038206852551 L 307.75736940447126 119.3757729419249 L 307.7285337473113 119.70423808517238 L 307.65328151885393 120.04034284055041 L 307.53019780993077 120.3784093030965 L 307.3585112224395 120.71258327755237 L 307.1381127401222 121.03690380503969 L 306.869567332233 121.3453745402651 L 306.55411811978803 121.63203623807344 L 306.1936830082593 121.89103959333255 L 305.7908437659625 122.11671767060577 L 305.34882760329225 122.30365715994421 L 304.8714813836512 122.4467677024361 L 304.36323867169045 122.54134854384021 L 303.82907989760986 122.58315179659488 L 303.27448598707 122.56844161955219 L 302.70538587405025 122.4940486606935 L 302.1280983781083 122.35741915052694 L 301.5492689873287 122.15665808247928 L 300.9758021432058 121.89056597094206 L 300.4147896732513 121.55866873723112 L 299.87343606075484 121.16124033803524 L 299.3589812784144 120.69931781938054 L 298.87862194310793 120.17470855110336 L 298.439431572579 119.58998947164704 L 298.0482807409868 118.94849824999267 L 297.71175793894355 118.2543163499901 L 297.43609194469144 117.51224406154863 L 297.2270765064112 116.72776764233907 L 297.0899981213077 115.90701879211116 L 297.02956767518253 115.05672675870505 L 297.04985667682007 114.18416344960521 L 297.154238784916 113.29708199473868 L 297.3453372817531 112.40364927446738 L 297.62497909773015 111.51237299070908 L 297.9941559346037 110.63202391821609 L 298.4529929733749 109.7715540266642 L 299.0007255856844 108.94001121181778 L 299.6356843959463 108.14645141515628 L 300.35528896588073 107.3998489455415 L 301.15605029426695 106.70900584340663 L 302.03358224333005 106.08246114724956 L 302.9826219199254 105.52840093367902 L 303.99705895534487 105.05457000572011 L 305.0699735429051 104.66818609944187 L 306.1936830082593 104.37585746619685 L 307.35979660438164 104.18350466690954 L 308.55927814216716 104.09628738604098 L 309.7825159893384 104.1185370362826 L 311.01939989557724 104.25369588096171 L 312.25940403122974 104.50426334990826 L 313.4916755612325 104.87175016653973 L 314.7051280157294 105.35664083963515 L 315.8885386647733 105.95836500321575 L 317.0306490570975 106.67527801271044 L 318.12026784266743 107.50465112579222 L 319.146374966036 108.44267151260512 L 320.0982262927691 109.48445225327808 L 320.9654577146984 110.62405239139578 L 321.73818777170607 111.85450702124483 L 322.4071178283182 113.1678672949792 L 322.96362885264386 114.55525014416382 L 323.39987386315704 116.00689741928164 L 323.708865135395 117.51224406154863 L 323.8845552956894 119.0599948345837 L 323.92191147232296 120.63820905992684 L 323.8169817257146 122.23439272086321 L 323.56695303799387 123.83559722424113 L 323.1702002081968 125.4285240406795 L 322.6263250717709 126.9996343804138 L 321.9361855415571 128.5352630056492 L 321.1019140512695 130.02173523124412 L 320.1269250710513 131.4454861243406 L 319.0159114571972 132.79318088063405 L 317.77482949383335 134.0518353307096 L 316.4108725824218 135.2089355145611 L 314.93243363457265 136.25255525628475 L 313.34905632393765 137.17147067414302 L 311.67137545306423 137.95527057379678 L 309.9110467901145 138.5944616944892 L 308.0806668274391 139.08056780923732 L 306.1936830082593 139.40622172046827 L 304.2642950583115 139.56524924176966 L 302.30734814541074 139.5527443141683 L 300.33821867070924 139.3651344711932 L 298.3726935701923 139.00023594043088 L 296.426844072968 138.45729774978312 L 294.5168949235022 137.73703429356289 L 292.65909012752826 136.84164590623075 L 290.86955632538235 135.7748270892361 L 289.1641649315136 134.54176213829436 L 287.5583942044966 133.14910802366805 L 286.0671924277141 131.60496448375318 L 284.7048433867442 129.9188314016031 L 283.48483532522613 128.1015536440224 L 282.41973454651725 126.1652536526015 L 281.5210648038219 124.12325218458905 L 280.7991935867627 121.98997770787417 L 280.2632263677796 119.78086505764112 L 279.92090981755575 117.51224406154864 L 279.7785449352473 115.20121893468807 L 279.8409109670836 112.86553933422968 L 280.1112009064255 110.523464045763 L 280.5909692802294 108.1936183481071 L 281.28009283172776 105.89484617009684 L 282.1767446077424 103.64605821089951 L 283.2773818521929 101.46607724418706 L 284.57674799589455 99.37348186549016 L 286.0678889175598 97.38644997084911 L 287.74218353295845 95.52260327310861 L 289.5893886494242 93.79885416961906 L 291.5976979023129 92.23125627153081 L 293.75381446962507 90.83485989021837 L 296.0430371418319 89.6235737506589 L 298.4493592069834 88.61003416492196 L 300.95557949746336 87.80548285149601 L 303.5434248352541 87.21965452827797 L 306.1936830082593 86.86067533906113 L 308.88634531203263 86.73497309574564 L 311.6007576000486 86.84720023181688 L 314.3157787022804 87.20017026752552 L 317.00994499707537 87.79480848437105 L 319.66163985587156 88.63011739672 L 322.2492666248004 89.70315749252902 L 324.7514237622514 91.00904359409793 L 327.14708071749925 92.54095706450656 L 329.4157531129126 94.29017395689536 L 331.5376757813766 96.24610907306626 L 333.4939722115732 98.39637576608304 L 335.2668189667798 100.72686118971023 L 336.83960366788665 103.22181656675393 L 338.1970751682967 105.86396191974661 L 339.3254845970753 108.6346045820372 L 340.212716006868 111.51377068628231 L 340.84840543432097 114.48034871163068 L 341.22404726253075 117.51224406154861 L 341.33308686685325 120.5865435422347 L 341.1709986265471 123.67968851780839 L 340.7353484944717 126.76765543380519 L 340.02584043458455 129.82614232573923 L 339.04434616138496 132.8307598653214 L 337.7949177457816 135.7572254439816 L 336.28378278709437 138.5815587521712 L 334.5193219899786 141.28027728397012 L 332.5120291268664 143.83059018015564 L 330.27445350992315 146.21058881934323 L 327.82112524035534 148.39943257624685 L 325.16846364598973 150.37752818857174 L 322.33466945921447 152.126701209473 L 319.33960142543583 153.63035807073368 L 316.2046381660063 154.87363734255382 L 312.952526247996 155.8435488487133 L 309.60721553509006 156.52909938040122 L 306.1936830082594 156.92140384760398 L 302.73774635066053 157.01378081293356 L 299.26586868752923 156.80183146839244 L 295.80495595776716 156.28350123995028 L 292.3821484686942 155.45912333702154 L 289.02460824832616 154.3314437029714 L 285.7593038599343 152.90562696757354 L 282.61279438100627 151.18924315176798 L 279.6110142726564 149.1922350279453 L 276.7790608756985 146.92686619410944 L 274.1409862657875 144.40765007639402 L 271.7195951821768 141.65126023027517 L 269.5362507127335 138.67642246517096 L 267.6106893720379 135.50378946866434 L 265.9608471499266 132.15579875409966 L 264.6026980350648 128.65651489753105 L 263.55010643253866 125.03145716575577 L 262.81469479661575 121.30741376529215 L 262.40572769042 117.51224406154866 L 262.3300133640834 113.67467022703714 L 262.5918238128595 109.82405987634819 L 263.1928341376684 105.99020133282107 L 264.1320818836387 102.20307324660897 L 265.4059468785395 98.49261034545493 L 267.00815193373165 94.88846714733171 L 268.9297846066557 91.41978149766499 L 271.1593400571854 88.11493981276422 L 273.6827848617446 85.00134591503415 L 276.4836414802324 82.10519533439953 L 279.54309290290223 79.4512569240818 L 282.840106838745 77.06266359752019 L 286.3515786449832 74.96071393703014 L 290.0524920403337 73.16468635406828 L 293.91609649404137 71.69166739616486 L 297.9141000395818 70.55639569727191" fill="none" stroke="#4a0080" stroke-width="1" opacity="0.3" class="drift" />
<path d="M 216.32052601624827 98.68748780348537 L 216.32052601624827 98.68748780348537 L 216.9374439666199 98.74146113046854 L 217.5402586280804 98.90255957220138 L 218.11504564812367 99.16832788964818 L 218.6482366403062 99.53470518462767 L 219.12679241906847 99.99607131794352 L 219.53837058877534 100.54531123364424 L 219.8714856913144 101.17389653584537 L 220.11566018950012 101.87198348852928 L 220.26156465338605 102.62852644062315 L 220.30114562255318 103.43140552005018 L 220.22773973852827 104.267567292875 L 220.036172876566 105.12317694853948 L 219.72284315383945 105.98378045081792 L 219.28578685024632 106.83447498768817 L 218.72472644706232 107.66008596286238 L 218.04110016597633 108.4453486981424 L 217.2380725749621 109.17509295980308 L 216.32052601624827 109.83442838443861 L 215.29503280356812 110.40892886054634 L 214.16980832908817 110.88481392180665 L 212.9546454131086 111.24912522661317 L 211.66083041996563 111.48989623580407 L 210.3010418497408 111.59631325645834 L 208.88923229561277 111.55886609359361 L 207.44049482924825 111.36948664300728 L 205.97091503985553 111.02167386655388 L 204.49741010483493 110.51060371489869 L 203.0375564098668 109.83322270113909 L 201.60940736240286 108.98832398040541 L 200.23130315361297 107.97660495427974 L 198.92167431876294 106.80070559312587 L 197.69884102378472 105.46522685262376 L 196.58081006561883 103.97672875127628 L 195.58507161510207 102.34370787165753 L 194.7283977532412 100.5765542478962 L 194.02664485434178 98.68748780348537 L 193.49456185249795 96.69047470510822 L 193.1456063914378 94.60112419788119 L 192.99177080186803 92.43656668336885 L 193.0434197756688 90.21531399206239 L 193.3091415131225 87.95710298492858 L 193.79561400855886 85.68272379237325 L 194.50748801227058 83.41383416184533 L 195.4472880633631 81.1727615357438 L 196.61533283055937 78.98229461779648 L 198.00967582724573 76.86546630728722 L 199.6260673846882 74.8453299851842 L 201.45793857497725 72.94473122326889 L 203.49640757455842 71.18607705584729 L 205.73030875196952 69.59110500276107 L 208.14624455148052 68.18065406160355 L 210.728660029632 66.97443989585001 L 213.45993968614044 65.99083643378896 L 216.32052601624827 65.24666606062564 L 219.2890590003224 64.7570005330457 L 222.34253554029652 64.53497467218574 L 225.45648765334167 64.59161479785274 L 228.60517804281156 64.93568375464517 L 231.76181148685438 65.57354425020687 L 234.898760317837 66.50904207821478 L 237.98780211252833 67.74341063505192 L 241.00036757533866 69.27519796078352 L 243.9077964762127 71.10021734352092 L 246.68159940226306 73.211522323134 L 249.2937229990052 75.59940671728528 L 251.7168163140459 78.25143007173773 L 253.92449581403912 81.1524687097462 L 255.89160662523332 84.2847923240663 L 257.59447754938253 87.62816582174075 L 259.0111674303728 91.159975898425 L 260.121700492634 94.85538158768055 L 260.90828834006123 98.68748780348535 L 261.3555363933773 102.62754067325653 L 261.45063265403707 106.64514324597769 L 261.18351681313334 110.70848995755559 L 260.54702787334924 114.78461804518905 L 259.5370286196795 118.8396739261408 L 258.15250545910004 122.8391923955507 L 256.39564234913746 126.74838635440545 L 254.2718677487668 130.53244465392456 L 251.7898737504883 134.15683553772533 L 248.96160678794845 137.58761307931684 L 245.8022295570884 140.79172395069807 L 242.3300540384725 143.7373118188642 L 238.56644576203678 146.39401665142896 L 234.5356997108077 148.73326622073117 L 230.26488851496973 150.72855712787202 L 225.78368383975268 152.35572272409905 L 221.12415211775013 153.59318538656044 L 216.3205260162483 154.4221907082516 L 211.40895326078015 154.82702128730372 L 206.42722465531187 154.7951879477633 L 201.4144833452012 154.31759639162283 L 196.4109175594043 153.38868746884708 L 191.45743924154354 152.0065494570694 L 186.59535113370632 150.17300096391835 L 181.86600501068818 147.8936433008304 L 177.31045387446028 145.1778814258206 L 172.96910100773272 142.0389128120009 L 168.88134885060018 138.49368386653444 L 165.0852507045798 134.56281379896558 L 161.61716828328824 130.27048611618622 L 158.5114381181519 125.64430820132316 L 155.8000497907417 120.71513971318512 L 153.5123389006092 115.5168908191837 L 151.6746975891454 110.08629154543388 L 150.31030532648384 104.46263379068418 L 149.43888253052882 98.6874878034854 L 149.07646942574058 92.80439516232028 L 149.23523236548118 86.85854052410488 L 149.92329963685842 80.89640461546134 L 151.1446285426258 74.96540113150107 L 152.89890531251143 69.11350037673134 L 155.18147913823418 63.38884263046671 L 157.98333135444747 57.8393443432853 L 161.29108050409639 52.51230037034859 L 165.08702373345722 47.453985520694246 L 169.34921466185045 42.70925874802054 L 174.05157756612803 38.32117332736115 L 179.1640574130708 34.33059635294417 L 184.65280496636115 30.775840855236225 L 190.48039589140816 27.692313769718055 L 196.60608248357306 25.112182896593907 L 202.98607635585566 23.064065869893355 L 209.57386014335245 21.572744007031574 L 216.32052601624824 20.658903736812647" fill="none" stroke="#9d4edd" stroke-width="1" opacity="0.3" class="drift" />
<circle cx="738.7052790736636" cy="68.96102940744377" r="1.3306073950826647" fill="white" opacity="0.34718432881591094"  style="animation-delay: 4.326255315440371s" />
<circle cx="208.1800010868692" cy="162.4261693070562" r="1.4460668275565225" fill="white" opacity="0.6188190725051494"  style="animation-delay: 4.426847216836435s" />
<circle cx="469.62307388380304" cy="133.59832464532548" r="0.9518879244688115" fill="white" opacity="0.6854756092315522"  style="animation-delay: 0.7138120537023751s" />
<circle cx="38.20180218909801" cy="169.58134040653997" r="1.1137487424450598" fill="white" opacity="0.4840402054599107"  style="animation-delay: 3.9143335244402255s" />
<circle cx="189.90379966539325" cy="52.55379005455105" r="1.4893476083050912" fill="white" opacity="0.5914342355081048"  style="animation-delay: 0.1500813314425542s" />
<circle cx="593.6969933596304" cy="176.24855896499488" r="0.9445128606740963" fill="white" opacity="0.3024754448538857"  style="animation-delay: 1.3661313723409763s" />
<circle cx="430.9288789806361" cy="14.18914480545963" r="1.984145712943676" fill="white" opacity="0.4423279251029821" class="shimmer" style="animation-delay: 0.9487608686995574s" />
<circle cx="415.19002786487977" cy="47.24670725057059" r="1.1370417765202818" fill="white" opacity="0.34582692278055266"  style="animation-delay: 0.5670591424688343s" />
<circle cx="81.32286685843138" cy="170.93662896730652" r="1.4018885519900208" fill="white" opacity="0.35964447608281397" class="shimmer" style="animation-delay: 3.3466288089138816s" />
<circle cx="14.917439628366935" cy="15.86455663811992" r="0.7234443211911549" fill="white" opacity="0.7720532519781522" class="shimmer" style="animation-delay: 1.9075681682948564s" />
<circle cx="231.94569130812238" cy="186.16725856891384" r="1.890391579751217" fill="white" opacity="0.3456789214584887" class="shimmer" style="animation-delay: 0.02449918026862563s" />
<circle cx="469.08869751725763" cy="96.99377822544584" r="1.7712118980377236" fill="white" opacity="0.3030802019592614" class="shimmer" style="animation-delay: 1.3330237057594196s" />
<circle cx="79.31645985549648" cy="161.86524797867654" r="1.7824569432230097" fill="white" opacity="0.7149705403058935"  style="animation-delay: 4.593139483172396s" />
<circle cx="735.8567074483764" cy="65.7095272362791" r="1.4385351757365603" fill="white" opacity="0.3311536536050908"  style="animation-delay: 4.038227790863079s" />
<circle cx="566.5827231431683" cy="73.31700682083051" r="1.6784249778374734" fill="white" opacity="0.7508567764581864"  style="animation-delay: 3.580909949604675s" />
<circle cx="394.31545126641527" cy="53.92187950077707" r="1.904576628899215" fill="white" opacity="0.3125268885090436" class="shimmer" style="animation-delay: 3.794589930998086s" />
<circle cx="341.6905080764375" cy="173.34393141726827" r="1.4541243443093061" fill="white" opacity="0.314632459847954"  style="animation-delay: 0.8905324335472065s" />
<circle cx="693.0222478257834" cy="109.38543047489296" r="1.8376565651603092" fill="white" opacity="0.5787356989363222"  style="animation-delay: 4.725946231228722s" />
<circle cx="475.9607222150548" cy="8.183011761871928" r="1.7709445880317727" fill="white" opacity="0.4132802486473836" class="shimmer" style="animation-delay: 3.5270299745412084s" />
<circle cx="195.14758106175307" cy="114.71016632403712" r="1.2214807585330392" fill="white" opacity="0.6463368058631749"  style="animation-delay: 1.9925805826087473s" />
<circle cx="257.2234649589319" cy="188.05829420408435" r="1.2942995282734109" fill="white" opacity="0.7816866228340875" class="shimmer" style="animation-delay: 3.372029459175371s" />
<circle cx="159.30399028656944" cy="49.477496840503754" r="1.1687899526796353" fill="white" opacity="0.39166580287511027"  style="animation-delay: 3.138018946737647s" />
<circle cx="44.20962347879627" cy="107.63397582734959" r="1.569117282693941" fill="white" opacity="0.7273711410906549"  style="animation-delay: 2.534913880543045s" />
<circle cx="737.2227374240118" cy="174.95703006317265" r="1.4543422321641062" fill="white" opacity="0.7628162508405096"  style="animation-delay: 0.3333839928797222s" />
<circle cx="45.32870777014999" cy="154.01005397539586" r="0.828065988865187" fill="white" opacity="0.5583587140727932"  style="animation-delay: 2.373617137618634s" />
<circle cx="572.3745625123964" cy="56.07823221081034" r="1.845060244236405" fill="white" opacity="0.39238854965840514"  style="animation-delay: 3.700182437198132s" />
<circle cx="223.87646049786642" cy="149.47963408411002" r="1.8111841356307168" fill="white" opacity="0.5869173561544534"  style="animation-delay: 1.9433622273230577s" />
<circle cx="266.4457932661696" cy="199.86428702856105" r="1.880255148515067" fill="white" opacity="0.6414719964112072"  style="animation-delay: 3.8137008849716194s" />
<circle cx="191.62057070954023" cy="147.8691163788448" r="0.5650501030416464" fill="white" opacity="0.7370856043423153"  style="animation-delay: 3.3869852084943055s" />
<circle cx="243.7450645024585" cy="133.82864704870596" r="1.499703341290985" fill="white" opacity="0.7274322400298412"  style="animation-delay: 0.24884857716752085s" />
<circle cx="700.2521717703534" cy="35.20852939410979" r="1.6791312724041854" fill="white" opacity="0.517470716146891"  style="animation-delay: 4.430158951416459s" />
<circle cx="769.9435101605765" cy="78.17729568417846" r="1.3225927562972783" fill="white" opacity="0.3137480504156008"  style="animation-delay: 4.582473868719862s" />
<circle cx="535.2972294631438" cy="114.68751012290443" r="1.0510688551325096" fill="white" opacity="0.3286787060626026"  style="animation-delay: 1.132155506299919s" />
<circle cx="799.5138915280049" cy="188.8276151949493" r="1.449155036071037" fill="white" opacity="0.5968901060271221"  style="animation-delay: 0.21440134590535953s" />
<circle cx="491.5109692884709" cy="163.74378857635304" r="0.980875930847769" fill="white" opacity="0.7571254794627655"  style="animation-delay: 3.6216133903632466s" />
<circle cx="83.94863968181224" cy="102.34084439561148" r="1.690520881012037" fill="white" opacity="0.36279657059383713"  style="animation-delay: 1.3017297734834454s" />
<circle cx="36.96807970488045" cy="169.17404103758585" r="0.5945120627286319" fill="white" opacity="0.39394996176413516" class="shimmer" style="animation-delay: 2.194067047199085s" />
<circle cx="140.14219514276718" cy="92.47141283241204" r="1.4181810809859137" fill="white" opacity="0.6364187070844067"  style="animation-delay: 0.5024962632985885s" />
<circle cx="597.9961435758119" cy="124.16472957105293" r="0.6224114075204554" fill="white" opacity="0.6312109184167003"  style="animation-delay: 2.058513991476034s" />
<circle cx="63.16173850712623" cy="177.37556978581347" r="0.729440774823934" fill="white" opacity="0.5889686940761316"  style="animation-delay: 2.0744398224801897s" />
<circle cx="474.7025900090348" cy="52.61959420009754" r="1.816140350692458" fill="#e0aaff" opacity="0.8" filter="url(#glow)" class="shimmer" style="animation-delay: 2.776816068527489s" />
<circle cx="671.3013411579803" cy="19.35682621687547" r="2.7723513066733654" fill="#c77dff" opacity="0.8" filter="url(#glow)" class="shimmer" style="animation-delay: 2.180575745141055s" />
<circle cx="133.78721239265462" cy="72.12392804700531" r="2.854505922638065" fill="#c77dff" opacity="0.8" filter="url(#glow)" class="shimmer" style="animation-delay: 0.0033475624134833293s" />
<circle cx="214.00574430720633" cy="36.841521701128286" r="1.8940704102995052" fill="#7b2cbf" opacity="0.8" filter="url(#glow)" class="shimmer" style="animation-delay: 0.8592628342455406s" />
<circle cx="570.8732379947705" cy="52.93900335545789" r="1.752259870192879" fill="#c77dff" opacity="0.8" filter="url(#glow)" class="shimmer" style="animation-delay: 2.0723294399489376s" />
<circle cx="263.26772546632424" cy="7.642219692979513" r="2.213204092101434" fill="#e0aaff" opacity="0.8" filter="url(#glow)" class="shimmer" style="animation-delay: 1.6587970722045398s" />
<circle cx="196.33993446788995" cy="75.0177580271544" r="1.7690072625373494" fill="#e0aaff" opacity="0.8" filter="url(#glow)" class="shimmer" style="animation-delay: 0.19826836992996433s" />
<circle cx="242.57112909670653" cy="1.2899246833744105" r="1.7520988401852788" fill="#e0aaff" opacity="0.8" filter="url(#glow)" class="shimmer" style="animation-delay: 1.0544413742666165s" />
<line x1="314.2228184696425" y1="137.71433099861795" x2="320.80123962781767" y2="111.07500652077755" stroke="#e0aaff" stroke-width="0.5" opacity="0.3" />
<line x1="320.80123962781767" y1="111.07500652077755" x2="165.1728517096506" y2="54.203650940110165" stroke="#e0aaff" stroke-width="0.5" opacity="0.3" />
<line x1="453.9870154670893" y1="153.47137350217875" x2="648.1386615642167" y2="117.03251002860613" stroke="#e0aaff" stroke-width="0.5" opacity="0.3" />

  
    <text x="400" y="120" text-anchor="middle" class="name-text" fill="url(#textGrad)" filter="url(#textGlow)">
      JOEL HOOKS
    </text>
  
</svg>
