<svg xmlns="http://www.w3.org/2000/svg" viewBox="0 0 800 200" width="800" height="200">
  <rect width="800" height="200" fill="#1a0a0a"/>
  
    <defs>
      <linearGradient id="grad1" x1="0%" y1="0%" x2="100%" y2="100%">
        <stop offset="0%" style="stop-color:#ff4500;stop-opacity:0.8" />
        <stop offset="100%" style="stop-color:#ff6b35;stop-opacity:0.8" />
      </linearGradient>
      <linearGradient id="grad2" x1="100%" y1="0%" x2="0%" y2="100%">
        <stop offset="0%" style="stop-color:#f7c59f;stop-opacity:0.7" />
        <stop offset="100%" style="stop-color:#efa48b;stop-opacity:0.7" />
      </linearGradient>
      <linearGradient id="textGrad" x1="0%" y1="0%" x2="100%" y2="0%">
        <stop offset="0%" style="stop-color:#ff4500" />
        <stop offset="25%" style="stop-color:#ff6b35" />
        <stop offset="50%" style="stop-color:#f7c59f" />
        <stop offset="75%" style="stop-color:#efa48b" />
        <stop offset="100%" style="stop-color:#d4a5a5" />
      </linearGradient>
      <filter id="glow">
        <feGaussianBlur stdDeviation="3" result="coloredBlur"/>
        <feMerge>
          <feMergeNode in="coloredBlur"/>
          <feMergeNode in="SourceGraphic"/>
        </feMerge>
      </filter>
      <filter id="textGlow">
        <feGaussianBlur stdDeviation="2" result="coloredBlur"/>
        <feMerge>
          <feMergeNode in="coloredBlur"/>
          <feMergeNode in="SourceGraphic"/>
        </feMerge>
      </filter>
    </defs>
  
  
    <style>
      @keyframes float {
        0%, 100% { transform: translateY(0px); }
        50% { transform: translateY(-8px); }
      }
      @keyframes pulse {
        0%, 100% { opacity: 0.4; }
        50% { opacity: 0.9; }
      }
      @keyframes drift {
        0% { transform: translateX(0px); }
        50% { transform: translateX(10px); }
        100% { transform: translateX(0px); }
      }
      @keyframes shimmer {
        0% { opacity: 0.3; }
        50% { opacity: 1; }
        100% { opacity: 0.3; }
      }
      @keyframes glitch {
        0%, 100% { transform: translateX(0); }
        20% { transform: translateX(-2px); }
        40% { transform: translateX(2px); }
        60% { transform: translateX(-1px); }
        80% { transform: translateX(1px); }
      }
      @keyframes dataStream {
        0% { stroke-dashoffset: 0; }
        100% { stroke-dashoffset: -20; }
      }
      .float { animation: float 8s ease-in-out infinite; }
      .pulse { animation: pulse 8s ease-in-out infinite; }
      .drift { animation: drift 8s ease-in-out infinite; }
      .shimmer { animation: shimmer 3s ease-in-out infinite; }
      .glitch { animation: glitch 0.5s ease-in-out infinite; }
      .dataStream { animation: dataStream 2s linear infinite; }
      .name-text { 
        font-family: -apple-system, BlinkMacSystemFont, 'Segoe UI', Helvetica, Arial, sans-serif;
        font-weight: 700;
        font-size: 64px;
        letter-spacing: -2px;
      }
    </style>
  
  <rect x="0" y="160" width="800" height="50" fill="#ff4500" opacity="0.3" />
<rect x="0" y="170" width="800" height="40" fill="#ff6b35" opacity="0.25" />
<rect x="0" y="180" width="800" height="30" fill="#f7c59f" opacity="0.19999999999999998" />
<rect x="0" y="190" width="800" height="20" fill="#efa48b" opacity="0.14999999999999997" />
<rect x="0" y="200" width="800" height="10" fill="#d4a5a5" opacity="0.09999999999999998" />
<line x1="314.39524140242406" y1="170" x2="314.39524140242406" y2="288.03790402591864" stroke="#ff4500" stroke-width="2.8745630676057736" opacity="0.1989959026087645" class="pulse" />
<line x1="314.39524140242406" y1="170" x2="343.56036301680746" y2="278.8457156738041" stroke="#ff4500" stroke-width="2.9573795680968913" opacity="0.17316388642848776" class="pulse" />
<line x1="314.39524140242406" y1="170" x2="357.29702967846004" y2="244.3080770296571" stroke="#ff4500" stroke-width="2.309549554252432" opacity="0.23200650460260866" class="pulse" />
<line x1="314.39524140242406" y1="170" x2="407.37758786853493" y2="262.9823464661108" stroke="#ff4500" stroke-width="2.354983502835841" opacity="0.2830593343315475" class="pulse" />
<line x1="314.39524140242406" y1="170" x2="428.10694019255425" y2="235.6514799064913" stroke="#ff4500" stroke-width="2.229367208275638" opacity="0.2269584540528742" class="pulse" />
<line x1="314.39524140242406" y1="170" x2="414.9833475794618" y2="196.9525018183133" stroke="#ff4500" stroke-width="1.063484418106829" opacity="0.28200649549936885" class="pulse" />
<line x1="314.39524140242406" y1="170" x2="432.9428144420672" y2="170" stroke="#ff4500" stroke-width="1.6620331264094816" opacity="0.23188832854705255" class="pulse" />
<line x1="314.39524140242406" y1="170" x2="416.91137639919555" y2="142.53088441645514" stroke="#ff4500" stroke-width="1.2692739564982065" opacity="0.23123185281861483" class="pulse" />
<line x1="314.39524140242406" y1="170" x2="384.15389147305837" y2="129.72482460341442" stroke="#ff4500" stroke-width="1.733966343146757" opacity="0.17306432746856482" class="pulse" />
<line x1="314.39524140242406" y1="170" x2="382.65192486454634" y2="101.7433165378777" stroke="#ff4500" stroke-width="2.575802959752932" opacity="0.29048299845944986" class="pulse" />
<line x1="314.39524140242406" y1="170" x2="377.10470063483973" y2="61.38403049428696" stroke="#ff4500" stroke-width="1.3591364549465799" opacity="0.11361369141922212" class="pulse" />
<line x1="314.39524140242406" y1="170" x2="342.1905915747626" y2="66.26634094266429" stroke="#ff4500" stroke-width="2.985153089611034" opacity="0.26937962202117943" class="pulse" />
<path d="M 443.549786202307 79.75586635568885 C 444.27059996483547 88.96940587948104, 443.2635635384935 104.72676669279987, 437.24570703393834 109.55892621465082 C 431.2278505293832 114.39108573650178, 416.28492278350933 109.84090116458223, 407.44264717497634 108.74882348679458 C 398.60037156644336 107.65674580900692, 389.08276520665316 107.83861966977581, 384.19205338274037 103.00646014792486 C 379.3013415588276 98.1743006260739, 379.45164834578316 88.85933640071775, 378.09837623149957 79.75586635568885 C 376.745104117216 70.65239631065995, 371.1817088731262 56.4116865544242, 376.072420697039 48.3856398777515 C 380.9631325209518 40.3595932010788, 397.9679132146882 30.617578096628282, 407.44264717497634 31.599586295652642 C 416.91738113526446 32.581594494677, 426.9029679542124 46.251642395224955, 432.9208244587675 54.277689071897655 C 438.93868096332267 62.303735748570354, 442.82897243977857 70.54232683189666, 443.549786202307 79.75586635568885 Z" fill="#f7c59f" opacity="0.15432975656794337" class="drift" />
<path d="M 697.130930720952 59.32334533504165 C 697.3527592677854 66.29060595143656, 682.9478045263427 76.12396681298533, 675.7977257894839 80.8906128247263 C 668.6476470526252 85.65725883646728, 663.3849603949717 85.95780847354325, 654.2304582997992 87.92322140548748 C 645.0759562046268 89.88863433743171, 627.7141929310098 97.44973642813264, 620.8707132184493 92.68309041639166 C 614.0272335058887 87.91644440465069, 610.4461229533974 67.71980329111986, 613.1695800244358 59.32334533504166 C 615.8930370954743 50.92688737896346, 630.3679759321194 51.14760587810913, 637.21145564468 42.30434267992245 C 644.0549353572405 33.461079481735766, 648.0212418224985 6.799981738182503, 654.2304582997992 6.263766145921565 C 660.4396747771 5.727550553660627, 667.3166757716253 30.243785928170134, 674.4667545084841 39.08704912635682 C 681.6168332453428 47.9303123245435, 696.9091021741187 52.356084718646734, 697.130930720952 59.32334533504165 Z" fill="#f7c59f" opacity="0.13848960221323314" class="drift" />
<path d="M 264.79506014755634 52.10096331618803 C 264.334962124187 62.75897613460888, 260.7782711577815 75.41958577636711, 253.85616448279566 82.69470770134238 C 246.93405780780984 89.96982962631765, 235.52346346524365 93.6885662934887, 223.2624200976413 95.75169486603961 C 211.00137673003894 97.81482343859052, 190.18554034362967 102.34860106162313, 180.28990427718148 95.07347913664786 C 170.3942682107333 87.7983572116726, 164.55440726918079 67.09093882656998, 163.88860369895212 52.100963316188036 C 163.22280012872346 37.1109878058061, 166.3994467893613 14.3469874672831, 176.29508285580948 5.133626074356222 C 186.19071892225767 -4.0797353185706555, 209.87547513644088 -5.4480391607834076, 223.2624200976413 -3.17920504137323 C 236.6493650588417 -0.9103709219630525, 249.69464594802616 9.53326939789041, 256.616752623012 18.746630790817285 C 263.5388592979979 27.959992183744163, 265.2551581709257 41.44295049776718, 264.79506014755634 52.10096331618803 Z" fill="#f7c59f" opacity="0.16741201648038015" class="drift" />
<path d="M 349.1077397195585 27.968078105313058 C 349.4631585009514 36.009580854427526, 336.9584204284699 46.70214399770065, 329.4904036519477 53.15884269683523 C 322.0223868754255 59.61554139596981, 312.30710336365456 67.0977275273989, 304.29963906042553 66.70827030012053 C 296.2921747571965 66.31881307284216, 287.24714150225 57.278798032299605, 281.4456178325736 50.82209933316503 C 275.6440941628972 44.36540063403045, 269.9955524733183 36.09114061221488, 269.4904970423671 27.96807810531306 C 268.9854416114159 19.845015598411244, 272.6137615771902 9.971657045509929, 278.4152852468666 2.0837242917541303 C 284.21680891654296 -5.804208462001668, 296.1425381076383 -19.830535402287452, 304.29963906042553 -19.359518417221732 C 312.45674001321277 -18.888501432156012, 319.88987418706796 -2.978106551607354, 327.35789096359014 4.9098262021484445 C 334.8259077401123 12.797758955904243, 348.75232093816555 19.926575356198594, 349.1077397195585 27.968078105313058 Z" fill="#f7c59f" opacity="0.11319488753405013" class="drift" />
<path d="M 450.0012425706623 81.1099252222781 L 460.6643375613138 75.77837772695234 L 471.3274325519653 81.1099252222781" fill="none" stroke="#d4a5a5" stroke-width="1.5" opacity="0.4" class="float" style="animation-delay: 2.9485279975753524s" />
<path d="M 533.2917131300123 54.49254173643242 L 542.4438061264875 49.91649523819485 L 551.5958991229627 54.49254173643242" fill="none" stroke="#d4a5a5" stroke-width="1.5" opacity="0.4" class="float" style="animation-delay: 0.43727831893470204s" />
<path d="M 107.423994273456 48.74619825273569 L 115.36828903616785 44.774050871379764 L 123.3125837988797 48.74619825273569" fill="none" stroke="#d4a5a5" stroke-width="1.5" opacity="0.4" class="float" style="animation-delay: 1.1472152676202956s" />
<path d="M 710.1174869992536 54.77078386854487 L 717.6310176341141 51.01401855111465 L 725.1445482689745 54.77078386854487" fill="none" stroke="#d4a5a5" stroke-width="1.5" opacity="0.4" class="float" style="animation-delay: 2.382952838539358s" />
<path d="M 202.17782774718503 81.57761495725589 L 211.88318360185346 76.72493702992168 L 221.5885394565219 81.57761495725589" fill="none" stroke="#d4a5a5" stroke-width="1.5" opacity="0.4" class="float" style="animation-delay: 0.4780399075443498s" />

  
    <text x="400" y="120" text-anchor="middle" class="name-text" fill="url(#textGrad)" filter="url(#textGlow)">
      JOEL HOOKS
    </text>
  
</svg>
