<svg xmlns="http://www.w3.org/2000/svg" viewBox="0 0 800 200" width="800" height="200">
  <rect width="800" height="200" fill="#1a0a0a"/>
  
    <defs>
      <linearGradient id="grad1" x1="0%" y1="0%" x2="100%" y2="100%">
        <stop offset="0%" style="stop-color:#ff4500;stop-opacity:0.8" />
        <stop offset="100%" style="stop-color:#ff6b35;stop-opacity:0.8" />
      </linearGradient>
      <linearGradient id="grad2" x1="100%" y1="0%" x2="0%" y2="100%">
        <stop offset="0%" style="stop-color:#f7c59f;stop-opacity:0.7" />
        <stop offset="100%" style="stop-color:#efa48b;stop-opacity:0.7" />
      </linearGradient>
      <linearGradient id="textGrad" x1="0%" y1="0%" x2="100%" y2="0%">
        <stop offset="0%" style="stop-color:#ff4500" />
        <stop offset="25%" style="stop-color:#ff6b35" />
        <stop offset="50%" style="stop-color:#f7c59f" />
        <stop offset="75%" style="stop-color:#efa48b" />
        <stop offset="100%" style="stop-color:#d4a5a5" />
      </linearGradient>
      <filter id="glow">
        <feGaussianBlur stdDeviation="3" result="coloredBlur"/>
        <feMerge>
          <feMergeNode in="coloredBlur"/>
          <feMergeNode in="SourceGraphic"/>
        </feMerge>
      </filter>
      <filter id="textGlow">
        <feGaussianBlur stdDeviation="2" result="coloredBlur"/>
        <feMerge>
          <feMergeNode in="coloredBlur"/>
          <feMergeNode in="SourceGraphic"/>
        </feMerge>
      </filter>
    </defs>
  
  
    <style>
      @keyframes float {
        0%, 100% { transform: translateY(0px); }
        50% { transform: translateY(-8px); }
      }
      @keyframes pulse {
        0%, 100% { opacity: 0.4; }
        50% { opacity: 0.9; }
      }
      @keyframes drift {
        0% { transform: translateX(0px); }
        50% { transform: translateX(10px); }
        100% { transform: translateX(0px); }
      }
      @keyframes shimmer {
        0% { opacity: 0.3; }
        50% { opacity: 1; }
        100% { opacity: 0.3; }
      }
      @keyframes glitch {
        0%, 100% { transform: translateX(0); }
        20% { transform: translateX(-2px); }
        40% { transform: translateX(2px); }
        60% { transform: translateX(-1px); }
        80% { transform: translateX(1px); }
      }
      @keyframes dataStream {
        0% { stroke-dashoffset: 0; }
        100% { stroke-dashoffset: -20; }
      }
      .float { animation: float 8s ease-in-out infinite; }
      .pulse { animation: pulse 8s ease-in-out infinite; }
      .drift { animation: drift 8s ease-in-out infinite; }
      .shimmer { animation: shimmer 3s ease-in-out infinite; }
      .glitch { animation: glitch 0.5s ease-in-out infinite; }
      .dataStream { animation: dataStream 2s linear infinite; }
      .name-text { 
        font-family: -apple-system, BlinkMacSystemFont, 'Segoe UI', Helvetica, Arial, sans-serif;
        font-weight: 700;
        font-size: 64px;
        letter-spacing: -2px;
      }
    </style>
  
  <rect x="0" y="160" width="800" height="50" fill="#ff4500" opacity="0.3" />
<rect x="0" y="170" width="800" height="40" fill="#ff6b35" opacity="0.25" />
<rect x="0" y="180" width="800" height="30" fill="#f7c59f" opacity="0.19999999999999998" />
<rect x="0" y="190" width="800" height="20" fill="#efa48b" opacity="0.14999999999999997" />
<rect x="0" y="200" width="800" height="10" fill="#d4a5a5" opacity="0.09999999999999998" />
<line x1="414.2836014960592" y1="170" x2="414.2836014960592" y2="256.89442528991685" stroke="#ff4500" stroke-width="1.6478962308810976" opacity="0.2549674404330736" class="pulse" />
<line x1="414.2836014960592" y1="170" x2="445.66823600156215" y2="287.12905055151646" stroke="#ff4500" stroke-width="2.8545479158634364" opacity="0.24289667135314102" class="pulse" />
<line x1="414.2836014960592" y1="170" x2="463.7757376434784" y2="255.72289438244633" stroke="#ff4500" stroke-width="2.37244423866569" opacity="0.13611401961842978" class="pulse" />
<line x1="414.2836014960592" y1="170" x2="488.72615129947854" y2="244.44254980341933" stroke="#ff4500" stroke-width="1.8713131228558555" opacity="0.22979418242629104" class="pulse" />
<line x1="414.2836014960592" y1="170" x2="497.6578022221213" y2="218.13611723266186" stroke="#ff4500" stroke-width="1.8307716771615499" opacity="0.13587681019854755" class="pulse" />
<line x1="414.2836014960592" y1="170" x2="500.6992024635039" y2="193.15499049267697" stroke="#ff4500" stroke-width="1.4029989809681918" opacity="0.11236284066472423" class="pulse" />
<line x1="414.2836014960592" y1="170" x2="530.5170636536113" y2="170" stroke="#ff4500" stroke-width="1.099794275678644" opacity="0.2516654560710702" class="pulse" />
<line x1="414.2836014960592" y1="170" x2="558.1035103129809" y2="131.46357157698813" stroke="#ff4500" stroke-width="1.6291953114386923" opacity="0.23835120447189287" class="pulse" />
<line x1="414.2836014960592" y1="170" x2="511.1041417974143" y2="114.10063499392766" stroke="#ff4500" stroke-width="2.1138070335631087" opacity="0.18177544050542424" class="pulse" />
<line x1="414.2836014960592" y1="170" x2="515.0648481583162" y2="69.21875333774298" stroke="#ff4500" stroke-width="2.7925597219296177" opacity="0.18102510929384832" class="pulse" />
<line x1="414.2836014960592" y1="170" x2="486.6962986075605" y2="44.577529489783785" stroke="#ff4500" stroke-width="2.876988763820059" opacity="0.12309792048872158" class="pulse" />
<line x1="414.2836014960592" y1="170" x2="446.5696339059865" y2="49.506886671335835" stroke="#ff4500" stroke-width="1.804469787320842" opacity="0.23235727364085967" class="pulse" />
<path d="M 263.6463245787477 40.953751491093584 C 265.37761385634144 51.80068798207776, 256.04702079406275 72.27355494422066, 246.98022457597898 78.68842879682737 C 237.9134283578952 85.10330264943407, 221.13365748691177 80.13311015864517, 209.24554727024517 79.44299460673383 C 197.35743705357856 78.7528790548225, 182.87625019029434 80.9626093379661, 175.65156327597936 74.5477354853594 C 168.42687636166437 68.1328616327527, 166.01129282323342 52.265613194727095, 165.8974257843552 40.95375149109359 C 165.78355874547697 29.641889787460087, 167.74367412839499 14.829315124100612, 174.96836104270997 6.676565263558395 C 182.19304795702496 -1.4761845969838223, 198.9748592922941 -9.117788436720364, 209.24554727024517 -7.962747672159715 C 219.51623524819624 -6.807706907599066, 227.5256926923327 5.454059990380072, 236.59248891041645 13.60680985092229 C 245.6592851285002 21.759559711464505, 261.9150353011539 30.106815000109407, 263.6463245787477 40.953751491093584 Z" fill="#f7c59f" opacity="0.11353290339207124" class="drift" />
<path d="M 555.2775290025661 66.78974476686292 C 554.4796671707943 79.61209589760135, 546.0085663983205 93.5264724945091, 536.9400802980913 102.8632126637628 C 527.8715941978621 112.1999528330165, 512.9066466344211 122.7946408481221, 500.86661240119145 122.81018578238516 C 488.82657816796177 122.82573071664822, 474.71509701371747 112.29322243859487, 464.69987489871323 102.95648226934117 C 454.684652783709 93.61974210008746, 442.7100417884414 80.78008601163091, 440.77527971116615 66.78974476686294 C 438.8405176338909 52.79940352209497, 443.0760803200576 28.673170076591028, 453.09130243506183 19.014434800733355 C 463.10652455006607 9.355699524875684, 486.0939542589147 7.684887931950431, 500.86661240119145 8.837333111716909 C 515.6392705434681 9.989778291483386, 532.6587651884929 16.27037060347455, 541.7272512887221 25.92910587933222 C 550.7957373889512 35.58784115518989, 556.0753908343379 53.96739363612449, 555.2775290025661 66.78974476686292 Z" fill="#f7c59f" opacity="0.1725725378526078" class="drift" />
<path d="M 250.59004833960603 29.754145861013498 C 251.1118724758697 38.691881969305285, 250.16133351196888 51.90006063332027, 244.39985439970818 58.13282659467984 C 238.63837528744747 64.36559255603942, 225.64086099723445 66.99061454253373, 216.02117366604182 67.15074162917092 C 206.40148633484918 67.31086871580811, 191.82860288498645 65.3263550758626, 186.6817304125523 59.09358911450302 C 181.53485794011814 52.86082315314345, 185.1578908547538 39.551912302160204, 185.13993883143692 29.7541458610135 C 185.12198680812006 19.9563794198668, 181.42714580021698 8.502922113328308, 186.57401827265113 0.3069904676228141 C 191.72089074508528 -7.88894117808268, 206.90535844779598 -20.12134725943718, 216.02117366604182 -19.421444013219464 C 225.13698888428766 -18.72154076700175, 235.50743046986548 -3.6895217007763836, 241.26890958212618 4.506409944929111 C 247.0303886943869 12.702341590634605, 250.06822420334237 20.81640975272171, 250.59004833960603 29.754145861013498 Z" fill="#f7c59f" opacity="0.14849438829906889" class="drift" />
<path d="M 526.7274716931183 67.17029334414673 C 527.0962056389219 79.89133141453118, 524.1077186546962 98.60145546113867, 515.7299048372989 106.43960939271092 C 507.35209101990165 114.27776332428317, 489.9941454715005 113.7554322670025, 476.4605887887347 114.19921693358025 C 462.9270321059689 114.64300160015799, 442.9809510286678 116.94047132374958, 434.5285647407041 109.10231739217733 C 426.0761784527404 101.26416346060508, 424.7437856300067 80.1451492625443, 425.74627106095267 67.17029334414673 C 426.74875649189863 54.195437425749155, 432.09109103841615 38.384577591167506, 440.54347732637984 31.253181881791896 C 448.99586361434353 24.121786172416286, 464.29825148271846 24.57188590645767, 476.4605887887347 24.38191908789306 C 488.62292609475094 24.19195226932845, 505.1396873450799 22.981985261028633, 513.5175011624772 30.113380970404243 C 521.8953149798745 37.244776679779854, 526.3587377473148 54.44925527376228, 526.7274716931183 67.17029334414673 Z" fill="#f7c59f" opacity="0.13317416085280348" class="drift" />
<path d="M 68.64794440334063 30.880311604477367 L 75.37899794690586 27.51478483269475 L 82.11005149047108 30.880311604477367" fill="none" stroke="#d4a5a5" stroke-width="1.5" opacity="0.4" class="float" style="animation-delay: 1.3816392720522999s" />
<path d="M 347.2074082378033 41.65657945451501 L 352.40521418573945 39.05767648054692 L 357.6030201336756 41.65657945451501" fill="none" stroke="#d4a5a5" stroke-width="1.5" opacity="0.4" class="float" style="animation-delay: 0.9634090723021667s" />
<path d="M 638.586079164161 59.58667041798136 L 650.2698766877825 53.74477165617063 L 661.953674211404 59.58667041798136" fill="none" stroke="#d4a5a5" stroke-width="1.5" opacity="0.4" class="float" style="animation-delay: 1.177504464891566s" />
<path d="M 347.03180593557727 83.7755495417743 L 355.2032469185647 79.6898290502806 L 363.3746879015521 83.7755495417743" fill="none" stroke="#d4a5a5" stroke-width="1.5" opacity="0.4" class="float" style="animation-delay: 1.3354282332125686s" />
<path d="M 404.5602617812378 78.11339607354381 L 410.85526411268694 74.96589490781925 L 417.1502664441361 78.11339607354381" fill="none" stroke="#d4a5a5" stroke-width="1.5" opacity="0.4" class="float" style="animation-delay: 0.48552879977625096s" />

  
    <text x="400" y="120" text-anchor="middle" class="name-text" fill="url(#textGrad)" filter="url(#textGlow)">
      JOEL HOOKS
    </text>
  
</svg>
