<svg xmlns="http://www.w3.org/2000/svg" viewBox="0 0 800 200" width="800" height="200">
  <rect width="800" height="200" fill="#05010d"/>
  
    <defs>
      <linearGradient id="grad1" x1="0%" y1="0%" x2="100%" y2="100%">
        <stop offset="0%" style="stop-color:#4a0080;stop-opacity:0.8" />
        <stop offset="100%" style="stop-color:#7b2cbf;stop-opacity:0.8" />
      </linearGradient>
      <linearGradient id="grad2" x1="100%" y1="0%" x2="0%" y2="100%">
        <stop offset="0%" style="stop-color:#9d4edd;stop-opacity:0.7" />
        <stop offset="100%" style="stop-color:#c77dff;stop-opacity:0.7" />
      </linearGradient>
      <linearGradient id="textGrad" x1="0%" y1="0%" x2="100%" y2="0%">
        <stop offset="0%" style="stop-color:#4a0080" />
        <stop offset="25%" style="stop-color:#7b2cbf" />
        <stop offset="50%" style="stop-color:#9d4edd" />
        <stop offset="75%" style="stop-color:#c77dff" />
        <stop offset="100%" style="stop-color:#e0aaff" />
      </linearGradient>
      <filter id="glow">
        <feGaussianBlur stdDeviation="5" result="coloredBlur"/>
        <feMerge>
          <feMergeNode in="coloredBlur"/>
          <feMergeNode in="SourceGraphic"/>
        </feMerge>
      </filter>
      <filter id="textGlow">
        <feGaussianBlur stdDeviation="2" result="coloredBlur"/>
        <feMerge>
          <feMergeNode in="coloredBlur"/>
          <feMergeNode in="SourceGraphic"/>
        </feMerge>
      </filter>
    </defs>
  
  
    <style>
      @keyframes float {
        0%, 100% { transform: translateY(0px); }
        50% { transform: translateY(-8px); }
      }
      @keyframes pulse {
        0%, 100% { opacity: 0.4; }
        50% { opacity: 0.9; }
      }
      @keyframes drift {
        0% { transform: translateX(0px); }
        50% { transform: translateX(10px); }
        100% { transform: translateX(0px); }
      }
      @keyframes shimmer {
        0% { opacity: 0.3; }
        50% { opacity: 1; }
        100% { opacity: 0.3; }
      }
      @keyframes glitch {
        0%, 100% { transform: translateX(0); }
        20% { transform: translateX(-2px); }
        40% { transform: translateX(2px); }
        60% { transform: translateX(-1px); }
        80% { transform: translateX(1px); }
      }
      @keyframes dataStream {
        0% { stroke-dashoffset: 0; }
        100% { stroke-dashoffset: -20; }
      }
      .float { animation: float 8s ease-in-out infinite; }
      .pulse { animation: pulse 8s ease-in-out infinite; }
      .drift { animation: drift 8s ease-in-out infinite; }
      .shimmer { animation: shimmer 3s ease-in-out infinite; }
      .glitch { animation: glitch 0.5s ease-in-out infinite; }
      .dataStream { animation: dataStream 2s linear infinite; }
      .name-text { 
        font-family: -apple-system, BlinkMacSystemFont, 'Segoe UI', Helvetica, Arial, sans-serif;
        font-weight: 700;
        font-size: 64px;
        letter-spacing: -2px;
      }
    </style>
  
  <path d="M 448.51239260170075 10.72537093439525 C 448.5499042530031 28.731707755176554, 467.86973356459106 51.18400482967555, 462.3786642621855 64.81670322018269 C 456.88759495977996 78.44940161068983, 431.08120663326724 91.1925896401739, 415.56597678726735 92.52156127743808 C 400.05074694126745 93.85053291470226, 385.3011041467891 75.12730702932343, 369.28728518618607 72.79053304376774 C 353.27346622558304 70.45375905821204, 324.1655211067449 87.03351527666536, 319.4830630236492 78.50091736410391 C 314.8006049405535 69.96831945154247, 346.74140825137783 37.39417421196636, 341.192536687612 21.59494556839908 C 335.6436651238462 5.795716924831805, 283.20441308715857 -10.807971334974248, 286.1898336410541 -16.294454497299746 C 289.1752541949497 -21.780937659625245, 344.4684032733381 -10.957335897379018, 359.1050600109853 -11.323953405553919 C 373.74171674863254 -11.69057091372882, 368.8838016291394 -17.917394983158246, 374.00977406693755 -18.49415954634915 C 379.1357465047357 -19.07092410954005, 375.17025792320186 -10.663347758340002, 389.86089463777415 -14.784540784699335 C 404.55153135234644 -18.905733811058667, 452.37834469371694 -47.47296965768758, 462.15359435437136 -43.22131770450515 C 471.9288440150258 -38.969665751322715, 448.4748809503984 -7.280965886386053, 448.51239260170075 10.72537093439525 Z" fill="#4a0080" opacity="0.22150793392675458" filter="url(#glow)" class="float" />
<path d="M 928.7041778026947 93.01145684475726 C 930.8043853381046 118.26882204696801, 908.7940662835355 157.32692219468785, 888.9454830348241 173.3612227277272 C 869.0968997861127 189.39552326076657, 832.462052918926 189.01358866556743, 809.6126783104263 189.21726004299342 C 786.7633037019266 189.4209314204194, 777.7673088143852 175.57215383151342, 751.8492353838254 174.58325099228313 C 725.9311619532657 173.59434815305283, 668.550165583264 196.87914203219935, 654.1042377270677 183.28384300761172 C 639.6583098708714 169.6885439830241, 658.7745775859908 118.45304072684606, 665.1736682466479 93.01145684475728 C 671.5727589073051 67.5698729626685, 679.8768104088989 49.84319986024834, 692.4987816910109 30.63433971507908 C 705.1207529731229 11.425479569909818, 721.3667433506538 -16.542744435756955, 740.90549593932 -22.24170402625829 C 760.4442485279861 -27.940663616759625, 787.1581735758338 -10.902540418049096, 809.7312972230079 -3.5594178279289252 C 832.3044208701821 3.7837047621912463, 856.5154243924171 5.72188573568171, 876.3442378223649 21.81703151446274 C 896.1730512523127 37.91217729324377, 926.6039702672849 67.75409164254651, 928.7041778026947 93.01145684475726 Z" fill="#c77dff" opacity="0.19714096518676716" filter="url(#glow)" class="float" />
<path d="M 574.3678902596656 117.28507468555493 C 572.6171580547116 126.67343092824805, 566.9225722663691 132.03345182311713, 563.221662540186 142.07476160484694 C 559.5207528140029 152.11607138657675, 559.1817547324458 177.55818950352125, 552.1624319025673 177.5329333759337 C 545.1431090726887 177.50767724834617, 531.3700181352577 145.41110389394458, 521.1057255609151 141.9232248393217 C 510.8414329865724 138.43534578469882, 497.00229079874055 158.65192819476667, 490.5766764565112 156.60565904819634 C 484.1510621142819 154.55938990162602, 484.27691343463533 138.37289091396647, 482.55203950753906 129.64560995989973 C 480.8271655804428 120.91832900583299, 479.13564317871635 113.1389882176236, 480.2274328939336 104.24197332379585 C 481.31922260915087 95.34495842996809, 484.10989323075023 90.85554887737406, 489.1027777988428 76.26352059693318 C 494.09566236693536 61.67149231649229, 497.48368394532775 24.692058168456036, 510.18474030248916 16.689803641150533 C 522.8857966596506 8.68754911384503, 554.7188966972412 16.74085668184388, 565.3091159418113 28.24999343310016 C 575.8993351863814 39.75913018435644, 572.2162600502675 70.90544393994573, 573.7260557699099 85.74462414868819 C 575.2358514895523 100.58380435743065, 576.1186224646196 107.89671844286181, 574.3678902596656 117.28507468555493 Z" fill="#e0aaff" opacity="0.20174924378535614" filter="url(#glow)" class="float" />
<path d="M 548.6159584572788 97.03722698660435 C 545.8190745016951 114.52501731989338, 555.2444646469353 135.57642352128863, 546.858538377698 143.4044325675893 C 538.4726121084607 151.23244161389, 511.39241370767394 144.17584885691502, 498.300400841855 144.0052812644085 C 485.208387976036 143.83471367190197, 477.44042559759396 145.4207647256142, 468.3064611827843 142.38102701255005 C 459.1724967679746 139.3412892994859, 453.16356302973514 133.32415499034798, 443.496614352997 125.76685498602369 C 433.8296656762589 118.20955498169941, 415.3259492284809 110.26187054095195, 410.30476912235565 97.03722698660437 C 405.2835890162304 83.81258343225679, 405.14652441086685 58.42028209617487, 413.3695337162454 46.41899365993818 C 421.592543021624 34.41770522370149, 444.43121235716757 27.67260760104486, 459.6428249546271 25.0294963691842 C 474.8544375520866 22.386385137323543, 487.30637310824045 28.31896056899575, 504.6392093010026 30.560326268774233 C 521.9720454937648 32.80169196855272, 556.3103839184872 27.39820711488342, 563.6398421111999 38.477690567855106 C 570.9693003039125 49.55717402082679, 551.4128424128625 79.54943665331533, 548.6159584572788 97.03722698660435 Z" fill="#9d4edd" opacity="0.16813221756417235" filter="url(#glow)" class="float" />
<path d="M 411.61221394702756 72.48887760233728 L 411.61221394702756 72.48887760233728 L 411.8167274614617 72.50677021638812 L 412.0165656164278 72.56017571134706 L 412.2071123713883 72.64828015472328 L 412.38386969156386 72.76973732444901 L 412.54251497674073 72.92268409688202 L 412.67895661845404 73.10476177084144 L 412.78938709027017 73.31314311101377 L 412.87033300006107 73.5445648357148 L 412.91870156295175 73.79536521826147 L 412.93182298874945 74.06152641862914 L 412.9074883178049 74.3387211131471 L 412.84398228403586 74.62236294519029 L 412.74011083284387 74.90766027959155 L 412.5952229744186 75.1896727082143 L 412.4092267089576 75.46336972414093 L 412.18259881910575 75.72369095753925 L 411.91638838589176 75.965607347718 L 411.61221394702756 76.18418261336221 L 411.2722542800617 76.37463437658633 L 410.8992328569298 76.53239429633973 L 410.4963960803255 76.6531665728624 L 410.06748547541304 76.73298419728688 L 409.61670407212176 76.76826233901791 L 409.14867727301095 76.75584828804331 L 408.6684085588972 76.69306739963231 L 408.18123043855064 76.57776452469614 L 407.692751099255 76.40834045010982 L 407.2087972614103 76.18378291915857 L 406.7353537821653 75.90369185256847 L 406.27850058989503 75.56829844485806 L 405.84434756280586 75.17847786851465 L 405.43896799073724 74.73575537923116 L 405.0683312790595 74.24230567858334 L 404.7382355672234 73.70094545550342 L 404.4542409418319 73.1151190941165 L 404.2216039249777 72.48887760233728 L 404.0452139129636 71.82685088245641 L 403.9295322284229 71.1342135311516 L 403.87853443033805 70.41664442131922 L 403.89565650166463 69.68028038121993 L 403.9837455033795 68.93166434707045 L 404.145015247042 68.1776884228082 L 404.3810074956801 67.42553233475311 L 404.69255915534336 66.68259781876097 L 405.0797758674067 65.9564395227164 L 405.54201235510686 65.25469304739471 L 406.0778598173425 64.58500078342263 L 406.68514059899434 63.95493623092523 L 407.36091030048914 63.37192751114814 L 408.10146742063085 62.84318079563364 L 408.9023705564655 62.375604388204856 L 409.7584631127735 61.975734197930905 L 410.66390540233334 61.649661337326776 L 411.61221394702756 61.402962569262506 L 412.59630771982347 61.24063430845845 L 413.6085609993012 61.167030859130406 L 414.64086244236165 61.1858075394834 L 415.6846799176477 61.29986930656105 L 416.73113058265545 61.511325451721774 L 417.7710556320691 61.821450888072214 L 418.79509909406556 62.230654496937404 L 419.7937900057033 62.73845494132772 L 420.75762725849677 63.34346429086804 L 421.67716637129547 64.04337973531719 L 422.5431074199946 64.83498359319842 L 423.34638333271914 65.71415174879158 L 424.07824774518417 66.67587057543781 L 424.7303616041445 67.71426232643779 L 425.29487770732436 68.82261889745917 L 425.76452237603615 69.99344378699523 L 426.13267347185297 71.21850200472804 L 426.39343399112727 72.48887760233728 L 426.5417005007213 73.7950384280482 L 426.57322571483667 75.12690763569887 L 426.48467455604583 76.4739414119874 L 426.2736730932171 77.82521232246025 L 425.9388498046105 79.16949761832622 L 425.47986867557216 80.49537179289128 L 424.89745370647984 81.79130262882913 L 424.1934044773625 83.0457499361124 L 423.37060249034516 84.24726614565486 L 422.43300808914705 85.38459789593057 L 421.38564783562026 86.44678772935679 L 420.2345923060857 87.42327500230837 L 418.9869243542881 88.30399510746132 L 417.65069797242984 89.07947610986754 L 416.2348879662217 89.74093190879847 L 414.74933074345756 90.28035105594809 L 413.20465659755183 90.69058038697757 L 411.61221394702756 90.96540265746191 L 409.98398606840163 91.0996074158459 L 408.332500932578 91.08905439474857 L 406.6707348230614 90.93072875751994 L 405.0120104774018 90.62278759894014 L 403.3698905506776 90.16459716688769 L 401.7580672509611 89.5567603451614 L 400.19024904108187 88.80113401584202 L 398.68004533815304 87.90083600199758 L 397.2408501718616 86.86024137750323 L 395.8857257841089 85.68496801955621 L 394.62728716595564 84.38185137038386 L 393.47758853277696 82.9589084669079 L 392.44801273493607 81.42529138995884 L 391.549164589084 79.79123037724239 L 390.790769094402 78.06796693584747 L 390.1815754688146 76.26767737985524 L 389.72926790257236 74.40338730577658 L 389.440383880878 72.4888776023373 L 389.32024087370405 70.53858267079633 L 389.37287213001406 68.5674816067998 L 389.6009722456805 66.59098316405506 L 390.0058531000114 64.62480538320872 L 390.5874106755097 62.68485082562626 L 391.34410318992394 60.78707840075834 L 392.2729408794704 58.94737281693777 L 393.3694876780419 57.181412718363376 L 394.62787494001327 55.50453859532297 L 396.04082725470926 53.93162157009327 L 397.5997002995271 52.47693416721295 L 399.29453057694445 51.154024173807144 L 401.1140967790449 49.97559268327836 L 403.04599242261963 48.95337739398039 L 405.07670929920135 48.09804220354732 L 407.19173118842167 47.419074099522064 L 409.3756371906732 46.92468829806722 L 411.61221394702756 46.6217425251628 L 413.88457593148354 46.515661269198894 L 416.175292923653 46.61037076072157 L 418.4665236996258 46.90824535482585 L 420.74015491565893 47.410065904907796 L 422.9779441040996 48.114990623851995 L 425.1616656541189 49.02053883095412 L 427.2732586118809 50.12258788072772 L 429.2949751061009 51.41538346402626 L 431.20952818589024 52.89156336347463 L 433.00023784859695 54.54219463491958 L 434.6511740362043 56.356824075383024 L 436.1472953898372 58.32354172674174 L 437.4745825730539 60.42905705399362 L 438.62016500579773 62.65878732842651 L 439.5724398919819 64.99695764019503 L 440.321182474445 67.42671186264342 L 440.85764651111253 69.930233793068 L 441.174654035227 72.48887760233727 L 441.26667353998084 75.08330663970827 L 441.1298858132455 77.69363956005073 L 440.7622367407034 80.29960266925151 L 440.16347649487034 82.88068732047145 L 439.33518463248026 85.41631113977044 L 438.28078073269023 87.8859818149411 L 437.00552032268956 90.26946214664446 L 435.5164759546639 92.54693503651002 L 433.82250341773863 94.69916707304827 L 431.93419318954466 96.70766937323202 L 429.8638073534356 98.55485434556648 L 427.62520232813563 100.22418705942644 L 425.2337378757323 101.7003299353311 L 422.70617297044106 102.9692795115208 L 420.0605492234859 104.018494093456 L 417.3160626678094 104.83701115435693 L 414.4929248092119 105.41555342623712 L 411.6122139470276 105.7466227015616 L 408.69571785674157 105.82458045510546 L 405.76576900822624 105.64571449315741 L 402.84507356579724 105.20829094217748 L 399.9565354793906 104.5125910005934 L 397.1230770292334 103.56093199475747 L 394.36745722891123 102.35767240227946 L 391.7120895232665 100.90920063205172 L 389.17886023775543 99.22390747929903 L 386.7889492444682 97.31214230489664 L 384.56265430680753 95.18615311995384 L 382.5192205497459 92.86001088819918 L 380.67667647565884 90.34951848895776 L 379.05167790706633 87.67210491140311 L 377.6593611874307 84.84670537525362 L 376.51320690974444 81.8936281931116 L 375.62491537040574 78.83440930420713 L 375.0042948633128 75.69165551743667 L 374.6591638367783 72.48887760233731 L 374.5952678344445 69.25031445913633 L 374.81621203160523 66.000749682448 L 375.32341006102297 62.765321906791 L 376.1160496983581 59.56933038519752 L 377.19107584764 56.438037304182025 L 378.5431911328058 53.39646837870854 L 380.16487426326074 50.46921329912237 L 382.04641620074045 47.68022761796579 L 384.17597401261975 45.05263766792965 L 386.5396421543116 42.60855009279188 L 389.1215407817118 40.36886755100324 L 391.90392055489457 38.353112116689104 L 394.8672832576007 36.579257855408585 L 397.99051742460836 35.06357399232717 L 401.2510480419372 33.82048001888978" fill="none" stroke="#c77dff" stroke-width="1" opacity="0.3" class="drift" />
<path d="M 453.9732417229878 146.76243834776125 L 453.9732417229878 146.76243834776125 L 454.3445600094291 146.79492448838474 L 454.70738963207236 146.89188843196357 L 455.05334962759946 147.05185238854042 L 455.374273285995 147.27237213396333 L 455.6623124192858 147.5500649486102 L 455.9100382321271 147.88064833367835 L 456.11053771344064 148.25898911166172 L 456.25750451219295 148.6791624116953 L 456.34532331448526 149.13451993925872 L 456.36914680290533 149.61776683426774 L 456.32496435197424 150.12104633275857 L 456.209661694822 150.63603136603984 L 456.02107088519506 151.1540221581361 L 455.7580099746951 151.66604881828653 L 455.42031192688364 152.16297787081956 L 455.00884239660627 152.6356216204377 L 454.525506113587 153.07484921726314 L 453.9732417229878 153.47169826326387 L 453.35600505114155 153.81748579014572 L 452.67874088096465 154.1039174386068 L 451.9473434375336 154.3231936800429 L 451.1686058988763 154.46811194430097 L 450.35015935908257 154.53216355073215 L 449.50040177931936 154.50962438431844 L 448.6284175662004 154.39563831366425 L 447.74388851520206 154.1862924126781 L 446.8569969484953 153.87868312225373 L 445.9783219607696 153.47097257153047 L 445.11872976254034 152.9624343696346 L 444.2892591772913 152.35348827734677 L 443.50100340594 151.64572327302483 L 442.76498921893 150.8419086373779 L 442.0920547722595 149.9459927963321 L 441.4927272685503 148.96308977920054 L 440.9771016975427 147.8994532695832 L 440.5547218919826 146.76243834776125 L 440.2344651246601 145.56045114469234 L 440.0244314503812 144.3028867479173 L 439.9318389630361 143.00005581763207 L 439.96292609291555 141.66310048574044 L 440.122862013344 140.30390022079976 L 440.4156661590127 138.93496844634154 L 440.84413778163463 137.56934079808696 L 441.4097963823592 136.22045599612392 L 442.11283376550034 134.9020303902738 L 442.95207835536695 133.6279273098314 L 443.9249723082275 132.41202241186363 L 445.02756183565094 131.26806627464686 L 446.25450103466795 130.20954552404066 L 447.59906939546175 129.249543810171 L 449.05320302974195 128.40060396936295 L 450.6075395337277 127.67459271156278 L 452.2514762699431 127.082569166373 L 453.9732417229878 126.6346586012534 L 455.7599794572794 126.33993259349043 L 457.5978440806525 126.20629689339367 L 459.47210849779196 126.24038816013963 L 461.367281622918 126.44748068415655 L 463.26723561300554 126.8314041314446 L 465.1553415821588 127.39447325636824 L 467.01461266554895 128.13743043095795 L 468.8278532184768 129.05940173142102 L 470.5778128634702 130.1578672072788 L 472.24734403662933 131.42864583628875 L 473.81956163433557 132.86589554011405 L 475.27800332352007 134.46212850267312 L 476.60678905338125 136.20824189638512 L 477.7907782941105 138.09356398232586 L 478.8157235290561 140.1059154098404 L 479.66841854094724 142.23168540068028 L 480.3368400603192 144.45592236349384 L 480.81028138499823 146.76243834776125 L 481.07947663320175 149.13392661327563 L 481.13671435911635 151.5520914632468 L 480.9759393382794 153.99778936724042 L 480.59284142012496 156.4511802856008 L 479.9849304459773 158.89188800083528 L 479.15159634179867 161.29916816468355 L 478.0941536152412 163.65208268320936 L 476.8158696150397 165.92967898710185 L 475.32197604646524 168.11117267123865 L 473.61966337831194 170.17613193711446 L 471.7180579235219 172.10466223455916 L 469.6281815258272 173.87758947571146 L 467.36289393742015 175.4766401848276 L 464.9368181263326 176.88461695241648 L 462.36624890558363 178.0855675814995 L 459.66904542788956 179.0649463474817 L 456.8645082384779 179.80976584103584 L 453.9732417229878 180.30873792527433 L 451.0170029262507 180.5524024139184 L 448.0185378496814 180.53324216565085 L 445.0014064588336 180.24578339072283 L 441.98979774723887 179.68668007843095 L 439.00833630685753 178.85478157742364 L 436.08188194831416 177.75118249399006 L 433.2353239946528 176.37925421546487 L 430.49337193979557 174.74465751552486 L 427.88034421651537 172.85533585423363 L 425.4199568579229 170.72148914693705 L 423.13511386073975 168.3555279411823 L 421.04770106761964 165.77200810835197 L 419.17838537924854 162.98754632524987 L 417.54642108480004 160.02071678901538 L 416.16946506157956 156.8919297750321 L 415.0634025415063 153.6232928104838 L 414.24218507377003 150.2384553944741 L 413.71768222997207 146.76243834776128" fill="none" stroke="#9d4edd" stroke-width="1" opacity="0.3" class="drift" />
<circle cx="747.2989639841524" cy="181.51792254511605" r="1.7312317192522353" fill="white" opacity="0.3118186666743448"  style="animation-delay: 2.3355918923101013s" />
<circle cx="630.2045554656326" cy="182.66590460585107" r="1.6200675288940003" fill="white" opacity="0.4189791017361644"  style="animation-delay: 4.00968038650552s" />
<circle cx="707.2588994919222" cy="83.77352395472117" r="1.748791163053895" fill="white" opacity="0.37584060153775173" class="shimmer" style="animation-delay: 3.145556048237773s" />
<circle cx="447.36385678655336" cy="195.29795272912645" r="0.5376148415172753" fill="white" opacity="0.37265375782165894" class="shimmer" style="animation-delay: 0.5436413466708168s" />
<circle cx="740.3119869545145" cy="158.35710144666822" r="1.1315433329055544" fill="white" opacity="0.5887516329727474"  style="animation-delay: 2.8905454196394818s" />
<circle cx="441.67933966952455" cy="149.23004225532824" r="1.6025904220108087" fill="white" opacity="0.33589861943161775"  style="animation-delay: 3.959018930192512s" />
<circle cx="547.3727673208506" cy="14.15618579117357" r="1.9819121224851992" fill="white" opacity="0.5623319778581755"  style="animation-delay: 1.1997351052937222s" />
<circle cx="104.35920743046339" cy="75.813972671504" r="1.8816429979435088" fill="white" opacity="0.7450470283774582"  style="animation-delay: 2.6248319766544013s" />
<circle cx="344.9849172904475" cy="151.96237959986087" r="1.1820606909510156" fill="white" opacity="0.3902969034729085"  style="animation-delay: 2.5830081225107717s" />
<circle cx="7.55678715684116" cy="130.86407498149845" r="1.4134772853341924" fill="white" opacity="0.5629486781608881" class="shimmer" style="animation-delay: 0.8592787132047119s" />
<circle cx="163.93304808695427" cy="162.8734782286181" r="1.6995597170068364" fill="white" opacity="0.4231109536234597" class="shimmer" style="animation-delay: 2.8837158171068067s" />
<circle cx="608.5787229523934" cy="10.367545147392532" r="1.6115927898580948" fill="white" opacity="0.7356020481360601" class="shimmer" style="animation-delay: 0.020934404936243656s" />
<circle cx="53.22034920536627" cy="60.124215192677035" r="1.1887396260675542" fill="white" opacity="0.3457664577915965" class="shimmer" style="animation-delay: 0.6787239951938095s" />
<circle cx="789.0716348516314" cy="169.7115905102284" r="1.4457702372388943" fill="white" opacity="0.7214685889629457" class="shimmer" style="animation-delay: 0.35076453699723453s" />
<circle cx="67.54883067157974" cy="18.725349346638296" r="1.278554712452856" fill="white" opacity="0.6215979394085769"  style="animation-delay: 3.4762800790056536s" />
<circle cx="423.7216542525731" cy="73.18450024105334" r="1.4293942334986458" fill="white" opacity="0.6778958033683158" class="shimmer" style="animation-delay: 2.157015474937679s" />
<circle cx="223.8067539722218" cy="98.03486657995882" r="1.4283941941542437" fill="white" opacity="0.6105237680039464"  style="animation-delay: 0.9071438857524694s" />
<circle cx="76.5564594202969" cy="98.48097041384709" r="1.3556282439735168" fill="white" opacity="0.35287550086124014"  style="animation-delay: 3.635700705544931s" />
<circle cx="730.4854664815732" cy="195.40394935515226" r="1.3625107116068917" fill="white" opacity="0.541354669849909"  style="animation-delay: 4.258522476344028s" />
<circle cx="600.22176561453" cy="49.23670460184644" r="0.7819798694629992" fill="white" opacity="0.7961690370531445" class="shimmer" style="animation-delay: 4.6614019708813546s" />
<circle cx="15.39736550386106" cy="48.9299257189844" r="1.4472079173835253" fill="white" opacity="0.6389104223685382"  style="animation-delay: 0.6741916375568124s" />
<circle cx="344.954956095326" cy="8.55434593587261" r="1.9483398635042959" fill="white" opacity="0.4814802471561767" class="shimmer" style="animation-delay: 1.050060122597749s" />
<circle cx="11.219445893310542" cy="96.63177261976226" r="0.8279283604206374" fill="white" opacity="0.30760447761681947" class="shimmer" style="animation-delay: 2.031231910536173s" />
<circle cx="369.4388457154023" cy="14.073205344959039" r="1.3276628098546785" fill="white" opacity="0.41518370578694835"  style="animation-delay: 4.833768353267068s" />
<circle cx="472.0414498962141" cy="126.02497946914472" r="1.118599004916339" fill="white" opacity="0.610949499499617"  style="animation-delay: 4.835230384613708s" />
<circle cx="333.2223899738057" cy="38.03726858514436" r="1.8935428949336581" fill="white" opacity="0.7119183494007091"  style="animation-delay: 4.370244847023161s" />
<circle cx="745.1017272802744" cy="151.88104992537114" r="1.5284301961128335" fill="white" opacity="0.799527251053294" class="shimmer" style="animation-delay: 2.823728121983234s" />
<circle cx="248.88316428636978" cy="197.54708147811021" r="1.7062685182199018" fill="white" opacity="0.42405257277389546"  style="animation-delay: 4.901919942720136s" />
<circle cx="197.53513124279092" cy="31.304572323962798" r="0.6725504470517936" fill="white" opacity="0.32552392550792736"  style="animation-delay: 1.0827197211600337s" />
<circle cx="608.0445263258785" cy="36.80450570538771" r="1.168833605712248" fill="white" opacity="0.6246989022666967"  style="animation-delay: 2.015677689372107s" />
<circle cx="480.31472545710744" cy="101.52360195779369" r="0.959374845598051" fill="white" opacity="0.3095824829681441"  style="animation-delay: 2.1911206020674703s" />
<circle cx="32.59177157503341" cy="18.97307355383706" r="0.5208670620357733" fill="white" opacity="0.5863549521266198"  style="animation-delay: 3.268484041847276s" />
<circle cx="320.25492926897596" cy="78.63928429251517" r="1.8743633462793237" fill="white" opacity="0.6132635099199606" class="shimmer" style="animation-delay: 2.0625210209070066s" />
<circle cx="119.26650399086736" cy="176.32185649224175" r="0.9184078878849011" fill="white" opacity="0.7074273357389378" class="shimmer" style="animation-delay: 1.1788779900032498s" />
<circle cx="282.1162903784849" cy="61.60688780013004" r="1.8412958275068672" fill="white" opacity="0.6984375105905625"  style="animation-delay: 1.4295956507659102s" />
<circle cx="732.7151713103094" cy="28.983319393923466" r="1.5752297292073143" fill="white" opacity="0.7897511558896952"  style="animation-delay: 1.0387453043208073s" />
<circle cx="548.7361313654345" cy="131.26848216097505" r="1.7060277086848943" fill="white" opacity="0.4562822188093563"  style="animation-delay: 4.873893109370156s" />
<circle cx="558.1299882694601" cy="25.47465372289284" r="1.4103896683326549" fill="white" opacity="0.5387673596252491"  style="animation-delay: 4.713922727287302s" />
<circle cx="706.6020404824914" cy="46.70467754430789" r="1.570076841481289" fill="white" opacity="0.6063224933487257"  style="animation-delay: 2.482010375845134s" />
<circle cx="570.2596030105426" cy="59.12982251041381" r="1.3447610907978338" fill="white" opacity="0.6994139474049204"  style="animation-delay: 1.5438877384766547s" />
<circle cx="88.10096951572834" cy="121.7694708031369" r="2.4280202846468497" fill="#4a0080" opacity="0.8" filter="url(#glow)" class="shimmer" style="animation-delay: 1.6703036637121915s" />
<circle cx="45.88837851463996" cy="166.79187615860465" r="2.4241345949525144" fill="#e0aaff" opacity="0.8" filter="url(#glow)" class="shimmer" style="animation-delay: 2.565550270377403s" />
<circle cx="740.4714447709596" cy="198.57148604563983" r="1.74197060999134" fill="#9d4edd" opacity="0.8" filter="url(#glow)" class="shimmer" style="animation-delay: 1.2224633804305212s" />
<circle cx="129.12122417643968" cy="163.09255526959026" r="1.023157115461863" fill="#c77dff" opacity="0.8" filter="url(#glow)" class="shimmer" style="animation-delay: 2.6231308536177593s" />
<circle cx="679.3660787692056" cy="151.71064776442523" r="1.3477161450604624" fill="#7b2cbf" opacity="0.8" filter="url(#glow)" class="shimmer" style="animation-delay: 1.5181571012968689s" />
<circle cx="785.0570890443983" cy="159.53206331762377" r="2.8308460389876737" fill="#4a0080" opacity="0.8" filter="url(#glow)" class="shimmer" style="animation-delay: 2.2037298825217713s" />
<circle cx="278.3217357693834" cy="145.71908410594466" r="1.013670893541093" fill="#9d4edd" opacity="0.8" filter="url(#glow)" class="shimmer" style="animation-delay: 0.20304838488551047s" />
<circle cx="724.2462668855931" cy="72.6144234081771" r="2.40926338669274" fill="#9d4edd" opacity="0.8" filter="url(#glow)" class="shimmer" style="animation-delay: 2.9898033781467928s" />
<line x1="749.4111518276176" y1="136.72239543521664" x2="127.63805257990934" y2="85.94964041687544" stroke="#e0aaff" stroke-width="0.5" opacity="0.3" />

  
    <text x="400" y="120" text-anchor="middle" class="name-text" fill="url(#textGrad)" filter="url(#textGlow)">
      JOEL HOOKS
    </text>
  
</svg>
