<svg xmlns="http://www.w3.org/2000/svg" viewBox="0 0 800 200" width="800" height="200">
  <rect width="800" height="200" fill="#1a0a0a"/>
  
    <defs>
      <linearGradient id="grad1" x1="0%" y1="0%" x2="100%" y2="100%">
        <stop offset="0%" style="stop-color:#ff4500;stop-opacity:0.8" />
        <stop offset="100%" style="stop-color:#ff6b35;stop-opacity:0.8" />
      </linearGradient>
      <linearGradient id="grad2" x1="100%" y1="0%" x2="0%" y2="100%">
        <stop offset="0%" style="stop-color:#f7c59f;stop-opacity:0.7" />
        <stop offset="100%" style="stop-color:#efa48b;stop-opacity:0.7" />
      </linearGradient>
      <linearGradient id="textGrad" x1="0%" y1="0%" x2="100%" y2="0%">
        <stop offset="0%" style="stop-color:#ff4500" />
        <stop offset="25%" style="stop-color:#ff6b35" />
        <stop offset="50%" style="stop-color:#f7c59f" />
        <stop offset="75%" style="stop-color:#efa48b" />
        <stop offset="100%" style="stop-color:#d4a5a5" />
      </linearGradient>
      <filter id="glow">
        <feGaussianBlur stdDeviation="3" result="coloredBlur"/>
        <feMerge>
          <feMergeNode in="coloredBlur"/>
          <feMergeNode in="SourceGraphic"/>
        </feMerge>
      </filter>
      <filter id="textGlow">
        <feGaussianBlur stdDeviation="2" result="coloredBlur"/>
        <feMerge>
          <feMergeNode in="coloredBlur"/>
          <feMergeNode in="SourceGraphic"/>
        </feMerge>
      </filter>
    </defs>
  
  
    <style>
      @keyframes float {
        0%, 100% { transform: translateY(0px); }
        50% { transform: translateY(-8px); }
      }
      @keyframes pulse {
        0%, 100% { opacity: 0.4; }
        50% { opacity: 0.9; }
      }
      @keyframes drift {
        0% { transform: translateX(0px); }
        50% { transform: translateX(10px); }
        100% { transform: translateX(0px); }
      }
      @keyframes shimmer {
        0% { opacity: 0.3; }
        50% { opacity: 1; }
        100% { opacity: 0.3; }
      }
      @keyframes glitch {
        0%, 100% { transform: translateX(0); }
        20% { transform: translateX(-2px); }
        40% { transform: translateX(2px); }
        60% { transform: translateX(-1px); }
        80% { transform: translateX(1px); }
      }
      @keyframes dataStream {
        0% { stroke-dashoffset: 0; }
        100% { stroke-dashoffset: -20; }
      }
      .float { animation: float 8s ease-in-out infinite; }
      .pulse { animation: pulse 8s ease-in-out infinite; }
      .drift { animation: drift 8s ease-in-out infinite; }
      .shimmer { animation: shimmer 3s ease-in-out infinite; }
      .glitch { animation: glitch 0.5s ease-in-out infinite; }
      .dataStream { animation: dataStream 2s linear infinite; }
      .name-text { 
        font-family: -apple-system, BlinkMacSystemFont, 'Segoe UI', Helvetica, Arial, sans-serif;
        font-weight: 700;
        font-size: 64px;
        letter-spacing: -2px;
      }
    </style>
  
  <rect x="0" y="160" width="800" height="50" fill="#ff4500" opacity="0.3" />
<rect x="0" y="170" width="800" height="40" fill="#ff6b35" opacity="0.25" />
<rect x="0" y="180" width="800" height="30" fill="#f7c59f" opacity="0.19999999999999998" />
<rect x="0" y="190" width="800" height="20" fill="#efa48b" opacity="0.14999999999999997" />
<rect x="0" y="200" width="800" height="10" fill="#d4a5a5" opacity="0.09999999999999998" />
<line x1="463.10640935599463" y1="170" x2="463.10640935599463" y2="293.387829773467" stroke="#ff4500" stroke-width="1.5141213956465087" opacity="0.2430278875346071" class="pulse" />
<line x1="463.10640935599463" y1="170" x2="489.5527927062763" y2="268.69924633969487" stroke="#ff4500" stroke-width="1.403679808276637" opacity="0.11025811280883518" class="pulse" />
<line x1="463.10640935599463" y1="170" x2="512.1056035501149" y2="254.86909387415028" stroke="#ff4500" stroke-width="1.1874121083483682" opacity="0.1701377168214396" class="pulse" />
<line x1="463.10640935599463" y1="170" x2="553.05770476897" y2="259.9512954129753" stroke="#ff4500" stroke-width="1.6740631192473074" opacity="0.26801178883124477" class="pulse" />
<line x1="463.10640935599463" y1="170" x2="572.9986143953564" y2="233.44629416131704" stroke="#ff4500" stroke-width="1.0653515944049294" opacity="0.16894254638904277" class="pulse" />
<line x1="463.10640935599463" y1="170" x2="577.5226635919236" y2="200.6577429235112" stroke="#ff4500" stroke-width="2.1518071367803295" opacity="0.18603073226428257" class="pulse" />
<line x1="463.10640935599463" y1="170" x2="611.1867561209137" y2="170" stroke="#ff4500" stroke-width="2.9689949554595705" opacity="0.2834014875997116" class="pulse" />
<line x1="463.10640935599463" y1="170" x2="554.3334670952015" y2="145.5557835509121" stroke="#ff4500" stroke-width="2.955046925848035" opacity="0.17343760886381912" class="pulse" />
<line x1="463.10640935599463" y1="170" x2="590.2018985461835" y2="96.62138510325727" stroke="#ff4500" stroke-width="2.221115162981203" opacity="0.17897195941631416" class="pulse" />
<line x1="463.10640935599463" y1="170" x2="541.3575377920342" y2="91.74887156396039" stroke="#ff4500" stroke-width="2.1567274343631557" opacity="0.10272805461079303" class="pulse" />
<line x1="463.10640935599463" y1="170" x2="533.8653220793641" y2="47.441968074792285" stroke="#ff4500" stroke-width="1.1897375544593154" opacity="0.29171340594446826" class="pulse" />
<line x1="463.10640935599463" y1="170" x2="499.84850917686515" y2="32.87661669174403" stroke="#ff4500" stroke-width="2.0592805300091026" opacity="0.16471074147688675" class="pulse" />
<path d="M 324.74579159855074 27.694707932270475 C 323.26037220549614 39.00099680798301, 322.0050945945742 49.55273803282604, 315.5644335041841 57.15731638024429 C 309.123772413794 64.76189472766254, 295.39077726798337 73.85409528766476, 286.10182505621026 73.32217801677994 C 276.81287284443715 72.79026074589513, 266.85234859442176 61.57039110235358, 259.8307202335454 53.965812754935335 C 252.80909187266897 46.36123440751709, 245.1405442216609 37.62023220386778, 243.97205489095188 27.69470793227048 C 242.80356556024287 17.76918366067318, 245.7981558884149 3.5287099378571813, 252.8197842492913 -5.58733287464846 C 259.8414126101677 -14.703375687154102, 274.15896412067355 -26.15270160953297, 286.10182505621026 -27.001548942763378 C 298.044685991747 -27.850396275993788, 318.03628877212157 -19.796459686536565, 324.4769498625116 -10.680416874030925 C 330.91761095290167 -1.5643740615252835, 326.23121099160534 16.388419056557943, 324.74579159855074 27.694707932270475 Z" fill="#f7c59f" opacity="0.15623816722170383" class="drift" />
<path d="M 238.87921233734653 28.42423403615245 C 241.5677308217473 36.497338759758165, 233.71126491484083 53.33497382839336, 226.2207015055358 60.70910366017184 C 218.73013809623077 68.08323349195032, 204.63909288340318 72.72737523294303, 193.9358318815164 72.66901302682334 C 183.23257087962963 72.61065082070364, 168.58361024869646 67.73306025523217, 162.00113549421516 60.3589304234537 C 155.41866073973387 52.98480059167522, 152.52230440828768 37.15045388557856, 154.44098335462866 28.424234036152452 C 156.35966230096963 19.698014186726347, 166.93073441777975 15.790108285020537, 173.51320917226104 8.00161132689708 C 180.09568392674234 0.213114368773625, 187.83976831037137 -19.018225044528354, 193.9358318815164 -18.306747712588276 C 200.03189545266144 -17.5952703806482, 202.59902718982627 4.481978360414099, 210.0895905991313 12.270475318537553 C 217.58015400843632 20.058972276661006, 236.19069385294577 20.351129312546732, 238.87921233734653 28.42423403615245 Z" fill="#f7c59f" opacity="0.12611446803947682" class="drift" />
<path d="M 511.1218552744111 61.894581656586595 C 508.43426578224506 74.38685193434107, 489.6531336875341 81.3241022665372, 479.4765808988056 91.30862401335197 C 469.3000281100771 101.29314576016675, 460.36639836651636 121.30253309858756, 450.0625385420402 121.80171213747525 C 439.75867871756407 122.30089117636294, 425.5559310081883 104.28821999349285, 417.65342195194876 94.30369824667807 C 409.75091289570923 84.31917649986329, 401.92515587597256 71.97529219131991, 402.6474842046031 61.8945816565866 C 403.3698125332336 51.813871121853296, 414.08488286749235 45.162203171887825, 421.9873919237319 33.81943503827824 C 429.8899009799714 22.47666690466866, 437.79341755402857 -3.251288363162048, 450.0625385420402 -6.162027145070894 C 462.33165953005187 -9.07276592697974, 485.4255650630731 5.012234213215585, 495.6021178518016 16.355002346825167 C 505.7786706405301 27.697770480434748, 513.809444766577 49.40231137883213, 511.1218552744111 61.894581656586595 Z" fill="#f7c59f" opacity="0.15095480908640316" class="drift" />
<path d="M 206.6498756653879 62.620921865682824 C 205.0029298470348 72.58936314115373, 192.19392348701894 79.69527550947603, 184.30983577707445 87.58540823703629 C 176.42574806712997 95.47554096459655, 167.03154554980114 110.59701754408205, 159.34534940572098 109.96171823104439 C 151.65915326164082 109.32641891800672, 145.62236240468673 91.66374508637057, 138.19265891259352 83.77361235881031 C 130.7629554205003 75.88347963125005, 115.6644070729693 70.56909731653296, 114.76712845316166 62.62092186568283 C 113.86984983335402 54.6727464148327, 125.37928370165444 41.90060792800623, 132.80898719374767 36.08455965370952 C 140.23869068584088 30.268511379412807, 149.1149288234801 29.109598731485672, 159.34534940572098 27.724632219902567 C 169.57576998796185 26.339665708319462, 186.30742297724842 21.958712309914187, 194.1915106871929 27.774760584210895 C 202.07559839713738 33.59080885850761, 208.29682148374098 52.65248059021192, 206.6498756653879 62.620921865682824 Z" fill="#f7c59f" opacity="0.18390073253159056" class="drift" />
<path d="M 128.91825489688276 49.25609251930754 L 140.71494477536413 43.35774758006686 L 152.5116346538455 49.25609251930754" fill="none" stroke="#d4a5a5" stroke-width="1.5" opacity="0.4" class="float" style="animation-delay: 2.5589590986207567s" />
<path d="M 439.8500116549152 58.0559113759449 L 451.4062739921515 52.27778020732673 L 462.96253632938783 58.0559113759449" fill="none" stroke="#d4a5a5" stroke-width="1.5" opacity="0.4" class="float" style="animation-delay: 0.722526082537325s" />
<path d="M 373.5990861171433 60.77476564945857 L 383.2453333854277 55.95164201531637 L 392.89158065371214 60.77476564945857" fill="none" stroke="#d4a5a5" stroke-width="1.5" opacity="0.4" class="float" style="animation-delay: 2.6608832452925713s" />
<path d="M 731.2634807872588 67.1150037839446 L 738.6453252587768 63.42408154818563 L 746.0271697302948 67.1150037839446" fill="none" stroke="#d4a5a5" stroke-width="1.5" opacity="0.4" class="float" style="animation-delay: 2.4496054342007376s" />
<path d="M 528.156522159292 34.210134815522885 L 536.2054887703885 30.185651509974655 L 544.254455381485 34.210134815522885" fill="none" stroke="#d4a5a5" stroke-width="1.5" opacity="0.4" class="float" style="animation-delay: 2.0347112100548683s" />

  
    <text x="400" y="120" text-anchor="middle" class="name-text" fill="url(#textGrad)" filter="url(#textGlow)">
      JOEL HOOKS
    </text>
  
</svg>
