<svg xmlns="http://www.w3.org/2000/svg" viewBox="0 0 800 200" width="800" height="200">
  <rect width="800" height="200" fill="#05010d"/>
  
    <defs>
      <linearGradient id="grad1" x1="0%" y1="0%" x2="100%" y2="100%">
        <stop offset="0%" style="stop-color:#4a0080;stop-opacity:0.8" />
        <stop offset="100%" style="stop-color:#7b2cbf;stop-opacity:0.8" />
      </linearGradient>
      <linearGradient id="grad2" x1="100%" y1="0%" x2="0%" y2="100%">
        <stop offset="0%" style="stop-color:#9d4edd;stop-opacity:0.7" />
        <stop offset="100%" style="stop-color:#c77dff;stop-opacity:0.7" />
      </linearGradient>
      <linearGradient id="textGrad" x1="0%" y1="0%" x2="100%" y2="0%">
        <stop offset="0%" style="stop-color:#4a0080" />
        <stop offset="25%" style="stop-color:#7b2cbf" />
        <stop offset="50%" style="stop-color:#9d4edd" />
        <stop offset="75%" style="stop-color:#c77dff" />
        <stop offset="100%" style="stop-color:#e0aaff" />
      </linearGradient>
      <filter id="glow">
        <feGaussianBlur stdDeviation="5" result="coloredBlur"/>
        <feMerge>
          <feMergeNode in="coloredBlur"/>
          <feMergeNode in="SourceGraphic"/>
        </feMerge>
      </filter>
      <filter id="textGlow">
        <feGaussianBlur stdDeviation="2" result="coloredBlur"/>
        <feMerge>
          <feMergeNode in="coloredBlur"/>
          <feMergeNode in="SourceGraphic"/>
        </feMerge>
      </filter>
    </defs>
  
  
    <style>
      @keyframes float {
        0%, 100% { transform: translateY(0px); }
        50% { transform: translateY(-8px); }
      }
      @keyframes pulse {
        0%, 100% { opacity: 0.4; }
        50% { opacity: 0.9; }
      }
      @keyframes drift {
        0% { transform: translateX(0px); }
        50% { transform: translateX(10px); }
        100% { transform: translateX(0px); }
      }
      @keyframes shimmer {
        0% { opacity: 0.3; }
        50% { opacity: 1; }
        100% { opacity: 0.3; }
      }
      @keyframes glitch {
        0%, 100% { transform: translateX(0); }
        20% { transform: translateX(-2px); }
        40% { transform: translateX(2px); }
        60% { transform: translateX(-1px); }
        80% { transform: translateX(1px); }
      }
      @keyframes dataStream {
        0% { stroke-dashoffset: 0; }
        100% { stroke-dashoffset: -20; }
      }
      .float { animation: float 8s ease-in-out infinite; }
      .pulse { animation: pulse 8s ease-in-out infinite; }
      .drift { animation: drift 8s ease-in-out infinite; }
      .shimmer { animation: shimmer 3s ease-in-out infinite; }
      .glitch { animation: glitch 0.5s ease-in-out infinite; }
      .dataStream { animation: dataStream 2s linear infinite; }
      .name-text { 
        font-family: -apple-system, BlinkMacSystemFont, 'Segoe UI', Helvetica, Arial, sans-serif;
        font-weight: 700;
        font-size: 64px;
        letter-spacing: -2px;
      }
    </style>
  
  <path d="M 798.0795155784143 10.015874478644182 C 799.8903142859657 36.097202909748034, 791.6609892978693 68.30794047797731, 777.7881318887107 91.75104877250604 C 763.9152744795522 115.19415706703477, 738.4787949943949 147.3309672034636, 714.8423711234632 150.6745242458165 C 691.2059472525315 154.01808128816944, 655.6734296886617 124.87156282153309, 635.9695886631206 111.81239102662354 C 616.2657476375795 98.753219231714, 608.2979400683803 85.14016954561332, 596.6193249702163 72.31949347635926 C 584.9407098720524 59.498817407105186, 572.7137685655766 49.915563808591415, 565.8978980741366 34.88833461109915 C 559.0820275826966 19.86110541360688, 555.3460883355749 2.1582832032909494, 555.724102021576 -17.843881708594335 C 556.102115707577 -37.84604662047962, 554.155939866953 -77.22389578037179, 568.1659801901427 -85.12465486021254 C 582.1760205133324 -93.0254139400533, 619.4190257988494 -66.59767228793584, 639.7843439607142 -65.24843618763884 C 660.149662122579 -63.89920008734185, 669.1680565475506 -77.11449065401754, 690.357889161332 -77.0292382584306 C 711.5477217751134 -76.94398586284365, 748.9697352405556 -79.24444060362957, 766.9233396434026 -64.73692181411711 C 784.8769440462497 -50.22940302460465, 796.2687168708629 -16.065453952459674, 798.0795155784143 10.015874478644182 Z" fill="#9d4edd" opacity="0.14275010206820415" filter="url(#glow)" class="float" />
<path d="M 400.97757349253584 155.32042818471243 C 407.0091256676559 167.96397603587602, 374.40257627115574 195.2110029395306, 357.88251681110955 211.3457282635633 C 341.36245735106337 227.480453587596, 322.08156568386204 250.57953120358894, 301.8572167322587 252.12878012890872 C 281.6328677806553 253.6780290542285, 249.28663925078874 236.77594713951459, 236.53642310148928 220.64122181548186 C 223.78620695218981 204.50649649144913, 223.87476745763692 175.6128736828106, 225.35591983646188 155.32042818471243 C 226.83707221528684 135.02798268661425, 232.67312122513962 113.00995604747413, 245.4233373744391 98.88654882689286 C 258.1735535237386 84.76314160631159, 289.1455723346003 64.48033613961003, 301.8572167322587 70.57998486122484 C 314.5688611299171 76.67963358283966, 305.1731443003432 121.36103393600044, 321.6932037603894 135.4844411565817 C 338.2132632204356 149.60784837716298, 394.9460213174158 142.67688033354884, 400.97757349253584 155.32042818471243 Z" fill="#c77dff" opacity="0.16640509018170152" filter="url(#glow)" class="float" />
<path d="M 623.3688435087455 32.55071101714777 C 627.205394973919 60.85375178819125, 626.9697143768357 109.10075813091686, 608.9620295405098 127.1175800885377 C 590.9543447041839 145.13440204615853, 544.9882906147046 137.5643420249989, 515.3227344907901 140.65164276287274 C 485.65717836687566 143.7389435007466, 449.26231279935234 158.15615281591207, 430.96869279702275 145.64138451578083 C 412.67507279469316 133.1266162156496, 410.74943672169127 90.26069035755974, 405.56101447681243 65.56303296208532 C 400.3725922319336 40.86537556661089, 396.99591837421605 24.2175986034846, 399.8381593277496 -2.5445598570656855 C 402.6804002812832 -29.30671831761597, 403.16735040665344 -81.70986271351627, 422.614460198014 -95.0099178012164 C 442.06156998937456 -108.30997288891653, 489.2994413173372 -91.06309926051533, 516.5208180759129 -82.34489038326646 C 543.7421948344886 -73.62668150601759, 568.1347165106627 -61.84993143779226, 585.9427207494681 -42.70066453772322 C 603.7507249882735 -23.551397637654183, 619.5322920435719 4.247670246104285, 623.3688435087455 32.55071101714777 Z" fill="#c77dff" opacity="0.10437747498755157" filter="url(#glow)" class="float" />
<path d="M 404.5108956212723 78.70083076148613 C 405.17946357649004 87.15535030107881, 399.9888325741058 88.65228276383726, 396.25504791727104 105.7473747541846 C 392.5212632604363 122.84246674453195, 391.88066040580105 178.15753324814494, 382.10818768026377 181.2713827035702 C 372.3357149547265 184.38523215899545, 357.731690372434 135.30270874796648, 337.6202115640474 124.43047148673607 C 317.5087327556608 113.55823422550566, 274.91687979869357 130.16658999337326, 261.4393148299441 116.03795913618778 C 247.96174986119465 101.9093282790023, 248.53923696694446 61.26486821772504, 256.75482175155054 39.6586863436232 C 264.9704065361566 18.052504469521363, 290.26839442549 -5.437230285364519, 310.7328235375806 -13.599132108423277 C 331.1972526496712 -21.761033931482032, 365.9562603160301 -20.74928953223798, 379.5413964240941 -9.312724594729346 C 393.1265325321581 2.123840342779289, 388.08205698643496 40.351331623925944, 392.24364018596464 55.020257516628526 C 396.4052233854943 69.68918340933111, 403.8423276660546 70.24631122189345, 404.5108956212723 78.70083076148613 Z" fill="#e0aaff" opacity="0.16049555673070706" filter="url(#glow)" class="float" />
<path d="M 319.6516670327886 119.29809506656778 L 319.6516670327886 119.29809506656778 L 319.95006500410494 119.32420150627709 L 320.24164133439524 119.40212345386566 L 320.5196609326523 119.53067333107138 L 320.7775608856291 119.70788691594501 L 321.0090342500504 119.93104579490547 L 321.2081111140071 120.19670847583788 L 321.3692360589898 120.50074984610939 L 321.4873411892781 120.83840857423976 L 321.55791393886875 121.20434197264791 L 321.5770589173786 121.59268776217962 L 321.5415531149254 121.99713210774114 L 321.4488938513288 122.41098322900476 L 321.2973389264666 122.82724983144827 L 321.08593850560896 123.23872355150952 L 320.81455835530664 123.63806456588604 L 320.48389413117167 124.01788947942069 L 320.09547650784697 124.37086057894552 L 319.6516670327886 124.68977552218834 L 319.15564467831166 124.9676565215782 L 318.6113831598098 125.19783808263391 L 318.02361918126337 125.37405236561334 L 317.3978118612138 125.49051125719052 L 316.74009368243526 125.54198426597173 L 316.05721339570823 125.52387139144173 L 315.3564713915686 125.43227016014359 L 314.64564813285466 125.26403607515859 L 313.93292631454824 125.01683578480818 L 313.2268074850754 124.68919234341973 L 312.5360239242407 124.28052201038302 L 311.8694466266962 123.79116211291824 L 311.2359902857659 123.22238958226141 L 310.64451621006464 122.57642986158565 L 310.10373413428846 121.85645597610745 L 309.6221039054762 121.06657765063173 L 309.2077380367168 120.21182045639375 L 308.8683061215475 119.29809506656778 L 308.6109420940841 118.3321567973232 L 308.44215530226296 117.32155570790808 L 308.36774633456116 116.27457762802091 L 308.3927285043836 115.20017657279546 L 308.5212558512425 114.10789909419879 L 308.75655846425923 113.00780120167714 L 309.1008858718382 111.91035856366933 L 309.5554591720965 110.82637077437187 L 310.1204325023879 109.76686053616712 L 310.7948643636747 108.74296866675328 L 311.57669922729497 107.76584589064527 L 312.4627597586279 106.8465424168199 L 313.44874989507935 105.99589633740285 L 314.5292689155732 105.22442190606156 L 315.6978365362273 104.54219876888573 L 316.9469289630438 103.95876322479585 L 318.268025728195 103.48300258680187 L 319.6516670327886 103.12305369970612 L 321.08752121680084 102.88620664416919 L 322.56446187712925 102.77881462158263 L 324.07065405835715 102.80621096915843 L 325.5936488487585 102.97263420038057 L 327.1204856271733 103.2811619028794 L 328.63780112548955 103.73365425438293 L 330.1319443973655 104.33070783824282 L 331.5890967172465 105.07162035377434 L 332.9953953753496 105.95436672400685 L 334.3370602847044 106.9755870051919 L 335.6005222760857 108.1305863993957 L 336.77255192619197 109.41334756459676 L 337.8403877440958 110.81655530684282 L 338.7918625310771 112.33163362715483 L 339.6155267296526 113.94879498298485 L 340.3007675890201 115.65710151114199 L 340.8379229962486 117.44453784720653 L 341.21838885527086 119.29809506656778 L 341.4347189388813 121.20386516534768 L 341.4807161922333 123.14714539658931 L 341.35151452937987 125.11255167915792 L 341.0436502367581 127.08414020473522 L 340.55512217861923 129.0455362829681 L 339.8854400886289 130.98006938707897 L 339.0356603284882 132.87091329282308 L 338.0084085976834 134.70123014328763 L 336.80788918750983 136.45431722128896 L 335.4398804864265 138.1137551705849 L 333.91171656163914 139.66355637723944 L 332.2322547625699 141.08831220362657 L 330.4118294145293 142.37333776001714 L 328.46219179439913 143.50481290263846 L 326.3964367033932 144.46991816261365 L 324.22891607389533 145.25696433725875 L 321.9751401669175 145.85551451372186 L 319.6516670327886 146.25649734467055 L 317.2759810192411 146.45231045635452 L 314.8663612170862 146.43691294047198 L 312.4417408331769 146.20590596234095 L 310.02155857242366 145.75660060831947 L 307.6256031943727 145.08807219454062 L 305.27385248446717 144.20120036606357 L 302.98630794485496 143.0986944296419 L 300.78282656380685 141.78510348356392 L 298.68295106590716 140.26681103344924 L 296.70574007667017 138.55201391246763 L 294.8695996547424 136.65068545709673 L 293.1921176520744 134.57452302415933 L 291.689902357197 132.33688007032407 L 290.3784268589357 129.95268315037583 L 289.27188053756083 127.43833432419399 L 288.38302904763816 124.8115995933554 L 287.72308410194046 122.09148411546433 L 287.3015842990653 119.2980950665678 L 287.1262881593078 116.45249313825263 L 287.2030804444249 113.57653376518444 L 287.5358927378336 110.69269927993433 L 288.1266391532547 107.82392328400529 L 288.97516792267356 104.99340860613617 L 290.07922948963744 102.22444029043601 L 291.4344616023399 99.54019511695569 L 293.0343917636912 96.96354920532403 L 294.8704572537469 94.51688528752604 L 296.93204279462685 92.22190125834798 L 299.20653578058125 90.09942162114699 L 301.6793988473868 88.16921344219807 L 304.3342594070167 86.44980840883397 L 307.15301562678303 84.95833255493261 L 310.1159581881408 83.71034517215811 L 313.2019070203201 82.7196883669578 L 316.3883620691244 81.99834865202556 L 319.6516670327886 81.55633187722391 L 322.9671848758714 81.40155270939286 L 326.30948381985286 81.53973976374456 L 329.65253240644364 81.9743573724308 L 332.9699021375487 82.7065448492516 L 336.2349761152359 83.7350739743105 L 339.4211620367306 85.05632527976108 L 342.5021078440792 86.66428356874452 L 345.45191828629436 88.550552945369 L 348.24537062399065 90.70439147536578 L 350.85812769310974 93.11276543614404 L 353.266946545584 95.76042295268196 L 355.4498809008138 98.62998665335567 L 357.38647567266463 101.70206481878019 L 359.057951882206 104.95538033836455 L 360.4473803263802 108.3669166348983 L 361.53984244685813 111.91207956841833 L 362.32257693102497 115.56487418813603 L 362.78511067775304 119.29809506656777 L 362.9193728736576 123.0835288244182 L 362.71979105007136 126.89216733931302 L 362.1833681261075 130.69443002724444 L 361.30973958788707 134.46039349352537 L 360.1012101071881 138.16002677103077 L 358.56276906325076 141.76343029832003 L 356.7020845979865 145.2410767395367 L 354.52947600608866 148.56405171233553 L 352.05786443615096 151.70429246993 L 349.30270205547436 154.63482257899022 L 346.2818800083528 157.32998064673777 L 343.0156156738111 159.76564117824836 L 339.52631990259187 161.91942568858605 L 335.83844508318936 163.77090225376742 L 331.97831505147985 165.30177175934122 L 327.973938016619 166.4960391950968 L 323.8548038259881 167.3401684484982 L 319.65166703278874 167.82321916715276 L 315.39631736017054 167.93696439113086 L 311.1213392743626 167.67598779831005 L 306.8598624850903 167.03775955906855 L 302.6453052836335 166.02268995944843 L 298.51111270631003 164.6341601231095 L 294.490491573226 162.87852934068536 L 290.6161444981413 160.76511869914026 L 286.920004994759 158.30617089196923 L 283.4329758172661 155.51678628209032 L 280.1846726682649 152.41483548151552 L 277.20317538524404 149.0208489038104 L 274.51478867745254 145.35788393540045 L 272.14381442862816 141.4513705583868 L 270.1123375078067 137.32893643916606 L 268.44002694083326 133.02021267228054 L 267.14395418980007 128.55662153607915 L 266.23843016716415 123.97114777453491 L 265.7348624765831 119.29809506656781 L 265.64163422453146 114.57282947918219 L 265.96400558658684 109.83151182246081 L 266.7040391411059 105.11082093184787 L 267.8605498021257 100.44766999521511 L 269.4290799941047 95.87891811807346 L 271.40190051501554 91.44107937919499 L 273.76803733284163 87.17003167024194 L 276.5133243552859 83.10072763627619 L 279.6204820051057 79.2669100388851 L 283.0692212255789 75.70083384994274 L 286.8363723338676 72.43299735164864 L 290.8960379361456 69.49188446757631 L 295.219768918954 66.9037204802651 L 299.7767623379927 64.6922432038037 L 304.53407984005423 62.87849157543051 L 309.4568850775963 61.48061350911975 L 314.50869841005385 60.51369471724922 L 319.6516670327887 59.989610054741696 L 324.84684853494196 59.91689877461654 L 330.0545057625764 60.30066490590647" fill="none" stroke="#c77dff" stroke-width="1" opacity="0.3" class="drift" />
<path d="M 365.41581715475166 113.4572793792806 L 365.41581715475166 113.4572793792806 L 365.7836144243683 113.48945747084785 L 366.1430035237396 113.58550195613661 L 366.4856829618329 113.74394905829769 L 366.8035634692663 113.96237773047656 L 367.08887127832264 114.23743732960953 L 367.3342480370323 114.56488596558701 L 367.5328462867803 114.9396391361366 L 367.67841947635696 115.35582815284049 L 367.7654055389441 115.80686776347302 L 367.7890031217015 116.28553228128726 L 367.74523962981107 116.78403944389702 L 367.63103032736444 117.29414114384181 L 367.4442278256069 117.80722010056508 L 367.18366138393753 118.31439148008191 L 366.8491655498371 118.80660841468672 L 366.44159776959964 119.27477033118421 L 365.96284471139484 119.70983296276356 L 365.41581715475166 120.102918897119 L 364.804433414974 120.44542750199685 L 364.1335913861917 120.72914306916012 L 363.4091294016321 120.94634002884916 L 362.6377762231739 121.08988410911122 L 361.82709058323854 121.15332834770697 L 360.98539080952605 121.13100290840302 L 360.12167516598026 121.01809770795425 L 359.245533640682 120.81073692449792 L 358.36705200217443 120.50604453185784 L 357.496709029133 120.10220008674021 L 356.64526789349026 119.59848408625547 L 355.8236627433486 118.9953123108126 L 355.04288158861175 118.29425867132 L 354.3138466386344 117.49806618884828 L 353.64729327685825 116.61064584846854 L 353.0536488819565 115.63706318583256 L 352.54291271816913 114.58351258413416 L 352.1245381190749 113.4572793792806 L 351.8073181789358 112.26668999129258 L 351.5992761439806 111.02105041901666 L 351.50756166269576 109.73057355205852 L 351.5383540096051 108.40629586732102 L 351.69677334146985 107.05998418658335 L 351.9868009787874 105.70403327513581 L 352.41120962943296 104.35135515859375 L 352.97150438592234 103.01526112470123 L 353.66787523378963 101.70933745831854 L 354.49916170678233 100.44731603004999 L 355.46283021586135 99.24294092137414 L 356.5549644643005 98.10983232103577 L 357.7702692415281 97.0613489682853 L 359.10208776480215 96.1104504478474 L 360.5424326114612 95.26956065889983 L 362.08203015649576 94.55043378559388 L 363.71037830168774 93.96402408959848 L 365.41581715475166 93.52036082576544 L 367.1856121909501 93.22842955036519 L 369.0060493067196 93.09606104761798 L 370.8625410560763 93.12982904473739 L 372.73974324709303 93.33495781881807 L 374.6216809686331 93.7152407211434 L 376.49188301781567 94.27297055647456 L 378.3335236073539 95.0088826573169 L 380.1295701498408 95.92211138683933 L 381.86293584409856 97.01016068993371 L 383.5166357275943 98.2688891908015 L 385.07394480930316 99.69251020847489 L 386.5185568598383 101.27360692991022 L 387.8347424106024 103.00316284487289 L 389.0075045015008 104.87060740894931 L 390.02273071761977 106.86387676188765 L 390.86734006932994 108.96948918932068 L 391.52942329753336 111.17263487800628 L 391.9983752261052 113.4572793792806 L 392.2650178367667 115.80628006368944 L 392.32171280730586 118.20151472295248 L 392.1624623317822 120.62402135470771 L 391.78299713053013 123.05414805200382 L 391.1808506577443 125.4717118143462 L 390.35541862439953 127.85616500126376 L 389.3080030733604 130.18676806379833 L 388.04184037080495 132.44276711487947 L 386.5621126124834 134.60357483701227 L 384.8759420837405 136.6489531757352 L 382.99236855747284 138.5591962304771 L 380.9223093630412 140.31531173120908 L 378.67850231034356 141.89919947998675 L 376.2754317054648 143.29382514134574 L 373.72923784624714 144.48338778463605 L 371.05761053641555 145.45347961475045 L 368.2796673042364 146.1912363751619 L 365.41581715475166 146.68547696847256 L 362.48761082213247 146.9268309143952 L 359.5175786193758 146.90785235272637 L 356.5290571052221 146.6231193987985 L 353.54600590164665 146.06931777037505 L 350.59281609850194 145.24530772712868 L 347.69411177384933 144.15217349577028 L 344.87454623831854 142.79325449453438 L 342.15859467864306 141.17415781894587 L 339.5703449286351 139.30275160539713 L 337.13328813468513 137.18913904877923 L 334.87011110691014 134.84561301391722 L 332.8024921559814 132.2865913464894 L 330.9509022091901 129.52853315605662 L 329.33441297737056 126.58983651037553 L 327.9705139069089 123.49071814487857 L 326.87493959839026 120.25307595264846 L 326.06150930577076 116.90033517697573 L 325.5419800477213 113.45727937928062 L 325.3259147665375 109.94986739845102 L 325.42056686041434 106.40503765220079 L 325.83078229274645 102.85050125564842 L 326.55892034834125 99.3145255457938 L 327.6047939620482 95.82570970184673 L 328.9656303914202 92.412754239459 L 330.63605284285285 89.10422623093207 L 332.6080834914744 85.92832216266228 L 334.8711681602503 82.91263038477923 L 337.41222274474336 80.08389513560203 L 340.2157012881996 77.46778413479407 L 343.2636854286237 75.08866173366852 L 346.53599475679147 72.9693695888636 L 350.0103174432749 71.13101678658356 L 353.66236031505116 69.5927812889505 L 357.46601738967985 68.37172450202763 L 361.3935557088461 67.48262067720013 L 365.41581715475166 66.93780275441188 L 369.5024347837916 66.74702613796684 L 373.62206207353546 66.91735176405174 L 377.7426133524863 67.45304967478805 L 381.83151356862027 68.35552415755424 L 385.8559554533697 69.62326134172169 L 389.7831620534924 71.25179996910728 L 393.5806525350157 73.2337258707368 L 397.2165091118797 75.55869049239135 L 400.6596429176379 78.21345361639445 L 403.8800566220422 81.18195022876256 L 406.8491015958832 84.44538128081311 L 409.53972744720556 87.98232789423345 L 411.9267217900241 91.76888836013626 L 413.98693816276466 95.77883708742196 L 415.6995100875691 99.98380446547762 L 417.0460493528962 104.3534764225048 L 418.01082670993173 108.85581228516477 L 418.5809332974588 113.45727937928058 L 418.746421249165 118.12310265653097 L 418.50042209087206 122.81752748976845 L 417.83924170173157 127.50409365111773 L 416.762430791794 132.14591837353103 L 415.272830037166 136.70598629908287 L 413.3765892117668 141.14744403694053 L 411.08315985994057 145.43389699146 L 408.4052612652528 149.52970607691847 L 405.35881968602274 153.40028191055154 L 401.96288104577945 157.01237407018314 L 398.2394974851345 160.33435301705725 L 394.2135883987181 163.3364823185763 L 389.91277679508016 165.99117885940845 L 385.36720202699206 168.27325880260958 L 380.60931014265725 170.16016715458534 L 375.67362330323147 171.63218889831668 L 370.596489897078 172.67263978756029 L 365.4158171547518 173.26803503982612 L 360.1707882292909 173.40823432679355 L 354.90156585255994 173.0865616362926 L 349.648984808812 172.29989876874782 L 344.4542355801194 171.04875143163892 L 339.35854161376534 169.33728710655038 L 334.4028327381725 167.17334408313752 L 329.6274173106569 164.56841128111452 L 325.07165571660414 161.53757871339383 L 320.77363785509584 158.09945867893643 L 316.7698672402372 154.27607801081825 L 313.09495432033003 150.09274194157888 L 309.78132156861415 145.57787038216617" fill="none" stroke="#4a0080" stroke-width="1" opacity="0.3" class="drift" />
<circle cx="102.78660028350153" cy="82.79047982030549" r="1.1711806474950106" fill="white" opacity="0.39032228964283405" class="shimmer" style="animation-delay: 3.462054924603116s" />
<circle cx="637.6733137078002" cy="53.476482000031744" r="1.233661226901394" fill="white" opacity="0.5327433008048863"  style="animation-delay: 3.4983625623356063s" />
<circle cx="572.2991418402744" cy="62.76923012018276" r="1.3949554263011423" fill="white" opacity="0.7634138469277705"  style="animation-delay: 3.060218805936328s" />
<circle cx="84.08579044337347" cy="80.18209644541558" r="1.539045536742279" fill="white" opacity="0.6425347572794298"  style="animation-delay: 4.538707596867039s" />
<circle cx="524.7128370819313" cy="198.57897028841018" r="0.6227595749373571" fill="white" opacity="0.31475011539547565" class="shimmer" style="animation-delay: 3.4940603216318378s" />
<circle cx="566.4113998998677" cy="76.08483794840275" r="1.390489327616062" fill="white" opacity="0.602349622069192" class="shimmer" style="animation-delay: 2.8447591813349025s" />
<circle cx="585.1927459847216" cy="111.50704960986482" r="1.4306291941344287" fill="white" opacity="0.7189665653906709" class="shimmer" style="animation-delay: 4.663062021319819s" />
<circle cx="203.81750800552362" cy="70.45063876212372" r="1.0407444737116696" fill="white" opacity="0.7472647781690387"  style="animation-delay: 3.65214775396269s" />
<circle cx="645.1565326913383" cy="45.06567242840953" r="0.9097386651163492" fill="white" opacity="0.5952951673833187"  style="animation-delay: 1.34837198639436s" />
<circle cx="76.92583003685397" cy="74.82430956547823" r="1.4793740423941704" fill="white" opacity="0.6573026270184443"  style="animation-delay: 1.6951010568140523s" />
<circle cx="259.55950737291306" cy="162.19102836907" r="0.9898991838824898" fill="white" opacity="0.558924759277547"  style="animation-delay: 1.1817288076193933s" />
<circle cx="315.8497680020183" cy="177.50813315169574" r="1.0675713245138443" fill="white" opacity="0.6422801798737308"  style="animation-delay: 3.5583307322154356s" />
<circle cx="616.8835507582837" cy="159.8112761763644" r="1.8932652278780018" fill="white" opacity="0.30154100665595757"  style="animation-delay: 3.7277279005911215s" />
<circle cx="82.94826918086517" cy="95.84119012375237" r="1.2368679255423283" fill="white" opacity="0.5990876274717427"  style="animation-delay: 3.0366959332033936s" />
<circle cx="573.8931380179887" cy="57.709917892389264" r="0.7527677714920578" fill="white" opacity="0.7859444753621536" class="shimmer" style="animation-delay: 3.858837196414746s" />
<circle cx="486.2559939810241" cy="42.30841176437781" r="1.8769394061020437" fill="white" opacity="0.4676352151480026"  style="animation-delay: 1.3150934109398016s" />
<circle cx="334.3672262478263" cy="165.32139724258025" r="1.1995063074929895" fill="white" opacity="0.6968432149301467" class="shimmer" style="animation-delay: 2.1177615570185457s" />
<circle cx="564.0654637515221" cy="53.63363291074541" r="1.0499890469824704" fill="white" opacity="0.7872471760017101" class="shimmer" style="animation-delay: 4.589113990857356s" />
<circle cx="766.2525082901501" cy="110.04778324620813" r="1.007657978194676" fill="white" opacity="0.3094980811527663"  style="animation-delay: 2.012323388563906s" />
<circle cx="288.8735054697003" cy="67.18972748778901" r="1.2355968002081288" fill="white" opacity="0.4730151857237151"  style="animation-delay: 0.005482047931276712s" />
<circle cx="698.2927245852089" cy="100.31741133614385" r="1.5732837749104696" fill="white" opacity="0.7557666593319128" class="shimmer" style="animation-delay: 2.563326070979751s" />
<circle cx="34.552038243496774" cy="101.00314705358322" r="1.0051230539921194" fill="white" opacity="0.31836758381102687" class="shimmer" style="animation-delay: 0.8166769615764036s" />
<circle cx="532.9841175018357" cy="26.217738056244812" r="1.3571843085548414" fill="white" opacity="0.35997774031373203"  style="animation-delay: 0.545994659445691s" />
<circle cx="161.52898927889422" cy="1.669339314349827" r="1.2599221506177922" fill="white" opacity="0.7892947664315273"  style="animation-delay: 0.8220585069849395s" />
<circle cx="644.1601867609686" cy="17.61748667192835" r="0.644814029407151" fill="white" opacity="0.7357806632013133"  style="animation-delay: 0.9661957467573978s" />
<circle cx="380.7974426950764" cy="108.86518396224298" r="0.9282564638979244" fill="white" opacity="0.5348433743892955"  style="animation-delay: 2.0307798177253544s" />
<circle cx="565.3342884682555" cy="63.11646735832941" r="1.8602914298235294" fill="white" opacity="0.4514320040548066" class="shimmer" style="animation-delay: 3.857809522513768s" />
<circle cx="231.68466172459094" cy="27.183000503867483" r="1.0837473948140757" fill="white" opacity="0.516910783851199"  style="animation-delay: 3.602467647510381s" />
<circle cx="703.3761227158964" cy="106.27924962297017" r="1.4303737225716433" fill="white" opacity="0.33320045151330285"  style="animation-delay: 4.261876571799098s" />
<circle cx="105.17272182801224" cy="177.2180580782658" r="0.5652516691441527" fill="white" opacity="0.7570881308479289"  style="animation-delay: 1.1050841185323157s" />
<circle cx="231.80957762272135" cy="186.49312519098902" r="1.6112610277964197" fill="white" opacity="0.3567070288984369"  style="animation-delay: 0.32327347584058197s" />
<circle cx="479.53229731473357" cy="38.43085102825694" r="1.661548751286702" fill="white" opacity="0.42172155651789694"  style="animation-delay: 3.419342453933052s" />
<circle cx="299.40479344112276" cy="97.45863791412658" r="0.7887339123160295" fill="white" opacity="0.6651313966746462" class="shimmer" style="animation-delay: 3.024406370042152s" />
<circle cx="766.6180452254979" cy="132.63158260839143" r="1.558735115554806" fill="white" opacity="0.32103549307372076" class="shimmer" style="animation-delay: 3.8993581800211743s" />
<circle cx="565.1600337486261" cy="51.61672098829495" r="1.0174881843373176" fill="white" opacity="0.7977193074541242" class="shimmer" style="animation-delay: 2.944884064022173s" />
<circle cx="712.8674075183122" cy="37.8989043047937" r="0.7158884892247622" fill="white" opacity="0.4470953102559843"  style="animation-delay: 4.923356813913593s" />
<circle cx="497.5718649019795" cy="197.8858380001625" r="1.8793995741971172" fill="white" opacity="0.30878274884055007" class="shimmer" style="animation-delay: 2.0072612879904375s" />
<circle cx="220.08572997275485" cy="32.567382699655134" r="1.778546758435768" fill="white" opacity="0.5251532248854209" class="shimmer" style="animation-delay: 1.6165147758138876s" />
<circle cx="503.6810400563738" cy="6.611442155691316" r="1.2048104673651845" fill="white" opacity="0.6729001026470918"  style="animation-delay: 3.9705003111949067s" />
<circle cx="208.50050118534628" cy="95.66867235354425" r="1.640485998062239" fill="white" opacity="0.46879907617247435"  style="animation-delay: 3.5201132143216194s" />
<circle cx="354.04172655752734" cy="111.86691022054003" r="2.7936585209588514" fill="#7b2cbf" opacity="0.8" filter="url(#glow)" class="shimmer" style="animation-delay: 0.6792411515940415s" />
<circle cx="400.79684799152966" cy="69.80576225863607" r="1.8542873153985675" fill="#9d4edd" opacity="0.8" filter="url(#glow)" class="shimmer" style="animation-delay: 2.1651814305618995s" />
<circle cx="144.84663045256312" cy="116.46695169962045" r="1.1235405696580032" fill="#4a0080" opacity="0.8" filter="url(#glow)" class="shimmer" style="animation-delay: 0.8367330732239127s" />
<circle cx="94.78362265086221" cy="147.08378067821207" r="1.0826050420377142" fill="#e0aaff" opacity="0.8" filter="url(#glow)" class="shimmer" style="animation-delay: 2.6124430548455972s" />
<circle cx="629.2181965934674" cy="57.88486875953937" r="2.91547524032717" fill="#7b2cbf" opacity="0.8" filter="url(#glow)" class="shimmer" style="animation-delay: 0.891146405258441s" />
<circle cx="645.3316508844473" cy="174.73839196644252" r="1.095240381644682" fill="#e0aaff" opacity="0.8" filter="url(#glow)" class="shimmer" style="animation-delay: 1.5905497213787096s" />
<circle cx="74.71831014390577" cy="105.010487719625" r="2.1733896803955344" fill="#7b2cbf" opacity="0.8" filter="url(#glow)" class="shimmer" style="animation-delay: 0.7293616190519951s" />
<circle cx="784.4352283569877" cy="105.68831586219143" r="2.009144780606283" fill="#4a0080" opacity="0.8" filter="url(#glow)" class="shimmer" style="animation-delay: 1.9672369346956025s" />
<line x1="76.49928680472942" y1="152.79326112724505" x2="55.96583400093409" y2="56.306907564131876" stroke="#e0aaff" stroke-width="0.5" opacity="0.3" />

  
    <text x="400" y="120" text-anchor="middle" class="name-text" fill="url(#textGrad)" filter="url(#textGlow)">
      JOEL HOOKS
    </text>
  
</svg>
