<svg xmlns="http://www.w3.org/2000/svg" viewBox="0 0 800 200" width="800" height="200">
  <rect width="800" height="200" fill="#1a0a0a"/>
  
    <defs>
      <linearGradient id="grad1" x1="0%" y1="0%" x2="100%" y2="100%">
        <stop offset="0%" style="stop-color:#ff4500;stop-opacity:0.8" />
        <stop offset="100%" style="stop-color:#ff6b35;stop-opacity:0.8" />
      </linearGradient>
      <linearGradient id="grad2" x1="100%" y1="0%" x2="0%" y2="100%">
        <stop offset="0%" style="stop-color:#f7c59f;stop-opacity:0.7" />
        <stop offset="100%" style="stop-color:#efa48b;stop-opacity:0.7" />
      </linearGradient>
      <linearGradient id="textGrad" x1="0%" y1="0%" x2="100%" y2="0%">
        <stop offset="0%" style="stop-color:#ff4500" />
        <stop offset="25%" style="stop-color:#ff6b35" />
        <stop offset="50%" style="stop-color:#f7c59f" />
        <stop offset="75%" style="stop-color:#efa48b" />
        <stop offset="100%" style="stop-color:#d4a5a5" />
      </linearGradient>
      <filter id="glow">
        <feGaussianBlur stdDeviation="3" result="coloredBlur"/>
        <feMerge>
          <feMergeNode in="coloredBlur"/>
          <feMergeNode in="SourceGraphic"/>
        </feMerge>
      </filter>
      <filter id="textGlow">
        <feGaussianBlur stdDeviation="2" result="coloredBlur"/>
        <feMerge>
          <feMergeNode in="coloredBlur"/>
          <feMergeNode in="SourceGraphic"/>
        </feMerge>
      </filter>
    </defs>
  
  
    <style>
      @keyframes float {
        0%, 100% { transform: translateY(0px); }
        50% { transform: translateY(-8px); }
      }
      @keyframes pulse {
        0%, 100% { opacity: 0.4; }
        50% { opacity: 0.9; }
      }
      @keyframes drift {
        0% { transform: translateX(0px); }
        50% { transform: translateX(10px); }
        100% { transform: translateX(0px); }
      }
      @keyframes shimmer {
        0% { opacity: 0.3; }
        50% { opacity: 1; }
        100% { opacity: 0.3; }
      }
      @keyframes glitch {
        0%, 100% { transform: translateX(0); }
        20% { transform: translateX(-2px); }
        40% { transform: translateX(2px); }
        60% { transform: translateX(-1px); }
        80% { transform: translateX(1px); }
      }
      @keyframes dataStream {
        0% { stroke-dashoffset: 0; }
        100% { stroke-dashoffset: -20; }
      }
      .float { animation: float 8s ease-in-out infinite; }
      .pulse { animation: pulse 8s ease-in-out infinite; }
      .drift { animation: drift 8s ease-in-out infinite; }
      .shimmer { animation: shimmer 3s ease-in-out infinite; }
      .glitch { animation: glitch 0.5s ease-in-out infinite; }
      .dataStream { animation: dataStream 2s linear infinite; }
      .name-text { 
        font-family: -apple-system, BlinkMacSystemFont, 'Segoe UI', Helvetica, Arial, sans-serif;
        font-weight: 700;
        font-size: 64px;
        letter-spacing: -2px;
      }
    </style>
  
  <rect x="0" y="160" width="800" height="50" fill="#ff4500" opacity="0.3" />
<rect x="0" y="170" width="800" height="40" fill="#ff6b35" opacity="0.25" />
<rect x="0" y="180" width="800" height="30" fill="#f7c59f" opacity="0.19999999999999998" />
<rect x="0" y="190" width="800" height="20" fill="#efa48b" opacity="0.14999999999999997" />
<rect x="0" y="200" width="800" height="10" fill="#d4a5a5" opacity="0.09999999999999998" />
<line x1="251.21304927473005" y1="170" x2="251.21304927473005" y2="260.814681247382" stroke="#ff4500" stroke-width="2.8003270114000984" opacity="0.13504626575433454" class="pulse" />
<line x1="251.21304927473005" y1="170" x2="287.08788686375584" y2="303.886716595526" stroke="#ff4500" stroke-width="2.0039721671554727" opacity="0.2302225336859129" class="pulse" />
<line x1="251.21304927473005" y1="170" x2="302.5391949228911" y2="258.89949201929517" stroke="#ff4500" stroke-width="2.058050978079873" opacity="0.12375080100002461" class="pulse" />
<line x1="251.21304927473005" y1="170" x2="351.951625928211" y2="270.7385766534809" stroke="#ff4500" stroke-width="1.1160001650480593" opacity="0.15085014512210798" class="pulse" />
<line x1="251.21304927473005" y1="170" x2="358.93552891796276" y2="232.19360261979438" stroke="#ff4500" stroke-width="1.0004255504446" opacity="0.13156570291548936" class="pulse" />
<line x1="251.21304927473005" y1="170" x2="373.59470369080304" y2="202.79206546917152" stroke="#ff4500" stroke-width="1.8460128148065662" opacity="0.23554268888988944" class="pulse" />
<line x1="251.21304927473005" y1="170" x2="366.3091066766147" y2="170" stroke="#ff4500" stroke-width="1.6503204089637236" opacity="0.20490289527320077" class="pulse" />
<line x1="251.21304927473005" y1="170" x2="330.2030256780394" y2="148.83469961257984" stroke="#ff4500" stroke-width="1.6928207507286661" opacity="0.22783281779304695" class="pulse" />
<line x1="251.21304927473005" y1="170" x2="354.1142249149159" y2="110.58997854420977" stroke="#ff4500" stroke-width="1.0969972928953715" opacity="0.2819047072221319" class="pulse" />
<line x1="251.21304927473005" y1="170" x2="317.9264981185426" y2="103.28655115618747" stroke="#ff4500" stroke-width="2.099249437549411" opacity="0.23366811460149303" class="pulse" />
<line x1="251.21304927473005" y1="170" x2="304.56223779071445" y2="77.59649494774501" stroke="#ff4500" stroke-width="1.4654111723990018" opacity="0.28094610550218846" class="pulse" />
<line x1="251.21304927473005" y1="170" x2="277.2355893203768" y2="72.88255840765063" stroke="#ff4500" stroke-width="1.9482910240656066" opacity="0.11559868172905108" class="pulse" />
<path d="M 754.2829707658747 71.08599829322829 C 757.3067153355204 84.5389831833439, 767.3444375353154 111.06485566878877, 760.0706932133467 120.51618667251242 C 752.796948891378 129.96751767623607, 727.090444711286 127.82077389810809, 710.6405048340625 127.79398431557017 C 694.1905649568391 127.76719473303226, 669.7771923875443 129.80678018100858, 661.371053950006 120.35544917728492 C 652.9649155124675 110.90411817356127, 658.8645763855332 86.17005076461501, 660.203674208832 71.08599829322829 C 661.5427720321309 56.00194582184155, 660.9995024522603 40.91272336379434, 669.4056408897987 29.851134348964536 C 677.8117793273371 18.78954533413473, 698.5534073497836 3.0586070404404166, 710.6405048340625 4.716464204249448 C 722.7276023183415 6.374321368058479, 734.6544814735034 28.736688316988918, 741.9282257954721 39.798277331818724 C 749.2019701174409 50.85986634664853, 751.259226196229 57.63301340311267, 754.2829707658747 71.08599829322829 Z" fill="#f7c59f" opacity="0.11797533901895986" class="drift" />
<path d="M 662.7564809289072 35.255965523278476 C 662.8904979086262 42.37855047529594, 641.8007868225246 49.91647907359239, 633.2556868422062 57.025771318488005 C 624.7105868618877 64.13506356338362, 619.5286516299117 77.12555034147366, 611.4858810469966 77.91171899265217 C 603.4431104640815 78.69788764383068, 589.2414768736772 68.85207547045471, 584.999063344716 61.742783225559094 C 580.7566498157547 54.63349098066348, 586.7591920775818 44.81269696172473, 586.0313998732291 35.255965523278476 C 585.3036076688765 25.69923408483222, 576.3898965896384 12.010482828056809, 580.6323101185997 4.40239459488156 C 584.8747236475609 -3.205693638293689, 602.8493352394479 -12.040541711023298, 611.4858810469966 -10.392563875773021 C 620.1224268545453 -8.744586040522744, 623.9064849835734 6.682173373207973, 632.4515849638918 14.290261606383222 C 640.9966849442103 21.89834983955847, 662.6224639491882 28.13338057126101, 662.7564809289072 35.255965523278476 Z" fill="#f7c59f" opacity="0.16134362131406138" class="drift" />
<path d="M 457.3481518595454 51.344218868385624 C 455.83171738886335 62.74842721141672, 453.71904877331184 72.81778761392454, 447.0605638326557 81.00754048543287 C 440.40207889199957 89.1972933569412, 428.59907540230927 99.16867678308387, 417.39724221560846 100.48273609743559 C 406.19540902890765 101.79679541178731, 387.1982701217861 97.0816492430515, 379.8495647124509 88.89189637154317 C 372.5008593031157 80.70214350003484, 372.10386643882475 62.658968048665706, 373.3050097595972 51.34421886838563 C 374.5061530803697 40.02946968810556, 379.7077192277504 30.890786118300483, 387.05642463708557 21.00340128986274 C 394.40513004642077 11.116016461424996, 405.8801178789981 -6.576571625138095, 417.39724221560846 -7.980090102240837 C 428.91436655221884 -9.38360857934358, 449.50068571609165 2.694905598808541, 456.1591706567478 12.582290427246285 C 462.8176555974039 22.46967525568403, 458.86458633022744 39.94001052535453, 457.3481518595454 51.344218868385624 Z" fill="#f7c59f" opacity="0.1334450421747951" class="drift" />
<path d="M 280.38967801152376 68.16130688585105 C 281.2071508264851 76.88738733497892, 282.96736990307744 92.20878109291101, 277.7567763229346 96.79196667811864 C 272.5461827427918 101.37515226332627, 257.20707298853415 97.12301720331895, 249.12611653066702 95.66042039709686 C 241.04516007279992 94.19782359087476, 233.39761317155734 92.59957142599373, 229.27103757573198 88.0163858407861 C 225.14446197990662 83.43320025557847, 225.81605513019116 76.22905871197236, 224.36666295571487 68.16130688585105 C 222.91727078123859 60.09355505972974, 216.44810893304887 44.679956537279566, 220.57468452887423 39.60987488405826 C 224.7012601246996 34.53979323083695, 240.41324071328495 36.93654878330768, 249.12611653066702 37.740816966523205 C 257.8389923480491 38.54508514973873, 267.64134585302384 39.365402330130095, 272.85193943316665 44.4354839833514 C 278.06253301330946 49.50556563657271, 279.57220519656244 59.43522643672318, 280.38967801152376 68.16130688585105 Z" fill="#f7c59f" opacity="0.13878179897693857" class="drift" />
<path d="M 448.52841418616487 28.396679769413158 L 454.3044496336277 25.508662045681724 L 460.08048508109056 28.396679769413158" fill="none" stroke="#d4a5a5" stroke-width="1.5" opacity="0.4" class="float" style="animation-delay: 0.6038575960350674s" />
<path d="M 332.99735342678116 53.694516448335456 L 343.3794007046837 48.503492809384205 L 353.7614479825862 53.694516448335456" fill="none" stroke="#d4a5a5" stroke-width="1.5" opacity="0.4" class="float" style="animation-delay: 0.6297338730098063s" />
<path d="M 499.2205667867851 76.69370850882088 L 505.23332811737487 73.68732784352599 L 511.2460894479646 76.69370850882088" fill="none" stroke="#d4a5a5" stroke-width="1.5" opacity="0.4" class="float" style="animation-delay: 1.9017746629923424s" />
<path d="M 615.9923413511755 64.10002904387092 L 624.5499769961982 59.82121122135954 L 633.107612641221 64.10002904387092" fill="none" stroke="#d4a5a5" stroke-width="1.5" opacity="0.4" class="float" style="animation-delay: 2.4154135815993736s" />
<path d="M 622.5152317058352 79.20299273951228 L 628.647725152449 76.1367460162054 L 634.7802185990628 79.20299273951228" fill="none" stroke="#d4a5a5" stroke-width="1.5" opacity="0.4" class="float" style="animation-delay: 2.477714568609768s" />

  
    <text x="400" y="120" text-anchor="middle" class="name-text" fill="url(#textGrad)" filter="url(#textGlow)">
      JOEL HOOKS
    </text>
  
</svg>
