<svg xmlns="http://www.w3.org/2000/svg" viewBox="0 0 800 200" width="800" height="200">
  <rect width="800" height="200" fill="#05010d"/>
  
    <defs>
      <linearGradient id="grad1" x1="0%" y1="0%" x2="100%" y2="100%">
        <stop offset="0%" style="stop-color:#4a0080;stop-opacity:0.8" />
        <stop offset="100%" style="stop-color:#7b2cbf;stop-opacity:0.8" />
      </linearGradient>
      <linearGradient id="grad2" x1="100%" y1="0%" x2="0%" y2="100%">
        <stop offset="0%" style="stop-color:#9d4edd;stop-opacity:0.7" />
        <stop offset="100%" style="stop-color:#c77dff;stop-opacity:0.7" />
      </linearGradient>
      <linearGradient id="textGrad" x1="0%" y1="0%" x2="100%" y2="0%">
        <stop offset="0%" style="stop-color:#4a0080" />
        <stop offset="25%" style="stop-color:#7b2cbf" />
        <stop offset="50%" style="stop-color:#9d4edd" />
        <stop offset="75%" style="stop-color:#c77dff" />
        <stop offset="100%" style="stop-color:#e0aaff" />
      </linearGradient>
      <filter id="glow">
        <feGaussianBlur stdDeviation="5" result="coloredBlur"/>
        <feMerge>
          <feMergeNode in="coloredBlur"/>
          <feMergeNode in="SourceGraphic"/>
        </feMerge>
      </filter>
      <filter id="textGlow">
        <feGaussianBlur stdDeviation="2" result="coloredBlur"/>
        <feMerge>
          <feMergeNode in="coloredBlur"/>
          <feMergeNode in="SourceGraphic"/>
        </feMerge>
      </filter>
    </defs>
  
  
    <style>
      @keyframes float {
        0%, 100% { transform: translateY(0px); }
        50% { transform: translateY(-8px); }
      }
      @keyframes pulse {
        0%, 100% { opacity: 0.4; }
        50% { opacity: 0.9; }
      }
      @keyframes drift {
        0% { transform: translateX(0px); }
        50% { transform: translateX(10px); }
        100% { transform: translateX(0px); }
      }
      @keyframes shimmer {
        0% { opacity: 0.3; }
        50% { opacity: 1; }
        100% { opacity: 0.3; }
      }
      @keyframes glitch {
        0%, 100% { transform: translateX(0); }
        20% { transform: translateX(-2px); }
        40% { transform: translateX(2px); }
        60% { transform: translateX(-1px); }
        80% { transform: translateX(1px); }
      }
      @keyframes dataStream {
        0% { stroke-dashoffset: 0; }
        100% { stroke-dashoffset: -20; }
      }
      .float { animation: float 8s ease-in-out infinite; }
      .pulse { animation: pulse 8s ease-in-out infinite; }
      .drift { animation: drift 8s ease-in-out infinite; }
      .shimmer { animation: shimmer 3s ease-in-out infinite; }
      .glitch { animation: glitch 0.5s ease-in-out infinite; }
      .dataStream { animation: dataStream 2s linear infinite; }
      .name-text { 
        font-family: -apple-system, BlinkMacSystemFont, 'Segoe UI', Helvetica, Arial, sans-serif;
        font-weight: 700;
        font-size: 64px;
        letter-spacing: -2px;
      }
    </style>
  
  <path d="M 211.9846118459539 29.047559180284345 C 212.88543867755192 51.656854875712334, 257.3966374611042 88.07185062290316, 250.60644923493618 98.61222502213099 C 243.81626100876818 109.15259942135881, 191.35131131184264 89.50733756209462, 171.24348248894592 92.28980557565129 C 151.1356536660492 95.07227358920795, 146.70148381358672 112.0813233527551, 129.9594762975559 115.30703310347099 C 113.2174687815251 118.53274285418686, 80.70600864162967 122.50252457631082, 70.79143739276103 111.64406407994653 C 60.87686614389239 100.78560358358224, 75.54205861719063 68.91353180805477, 70.4720488043441 50.15627012528526 C 65.40203899149756 31.399008442515747, 36.04506822274563 11.453300735807982, 40.37137851568181 -0.8995060166705393 C 44.697688808618 -13.25231276914906, 81.42849336276292 -15.0624995811625, 96.42991056196122 -23.960570389585868 C 111.43132776115952 -32.85864119800924, 118.39555921525331 -53.64338420091686, 130.37988171087164 -54.28793086721074 C 142.36420420648997 -54.93247753350462, 149.19891111325845 -30.701914006811435, 168.3358455356712 -27.827850387349137 C 187.47277995808398 -24.95378676788684, 237.92669386030104 -46.522784078375864, 245.20148824534817 -37.04354915043695 C 252.4762826303953 -27.56431422249804, 211.0837850143559 6.438263484856357, 211.9846118459539 29.047559180284345 Z" fill="#e0aaff" opacity="0.11319387918317257" filter="url(#glow)" class="float" />
<path d="M 531.246037589209 76.89533176584943 C 536.2982711910292 104.72588755672834, 568.332075975973 158.30101873725644, 555.9500501866974 173.10498119421283 C 543.5680243974217 187.9089436511692, 487.33733771546895 162.22733052329295, 456.9538828535554 165.71910650758775 C 426.57042799164185 169.21088249188256, 390.75665199308634 203.58312562755756, 373.6493210152159 194.05563709998165 C 356.54199003734544 184.52814857240574, 356.65563583989467 133.03798349819868, 354.3098969863328 108.55417534213225 C 351.9641581327709 84.07036718606584, 357.9135642917209 74.66129359648463, 359.5748878938446 47.15278816358313 C 361.23621149596835 19.64428273068163, 346.2082355436849 -36.21612805756379, 364.2778385990751 -56.49685725527674 C 382.3474416544653 -76.77758645298968, 441.099371230069 -84.96800430673056, 467.9925062261857 -74.53158702269455 C 494.8856412223024 -64.09516973865854, 515.0943933486049 -19.116173349151307, 525.6366485757754 6.121646448939359 C 536.178903802946 31.359466247030024, 526.1938039873887 49.06477597497053, 531.246037589209 76.89533176584943 Z" fill="#7b2cbf" opacity="0.18862681638121384" filter="url(#glow)" class="float" />
<path d="M 685.2305062738699 189.29600303874693 C 689.1541888496522 213.48265675120788, 674.4955620341947 260.99002126039954, 655.4823714133137 273.6270119034769 C 636.4691807924327 286.26400254655425, 598.5031859745981 265.8764597594399, 571.1513625485837 265.1179468972109 C 543.7995391225694 264.3594340349819, 506.9785315678588 281.7129253731804, 491.37143085722767 269.07593473010303 C 475.76433014659654 256.4389440870257, 477.773145134327 216.15370045206237, 477.50875828479695 189.29600303874693 C 477.2443714352669 162.4383056254315, 474.178009049416 127.95424900290286, 489.78510976004713 107.92975025021033 C 505.39221047067826 87.90525149751781, 547.4588348488217 65.71945395950827, 571.1513625485837 69.14901052259175 C 594.8438902483458 72.57856708567523, 612.9270853377385 108.48259087601866, 631.9402759586195 128.50708962871119 C 650.9534665795005 148.5315883814037, 681.3068236980876 165.10934932628598, 685.2305062738699 189.29600303874693 Z" fill="#7b2cbf" opacity="0.24431852582592578" filter="url(#glow)" class="float" />
<path d="M 731.467178217057 33.27350671130267 C 738.7602726717255 46.20567277054685, 752.5887625134656 75.76327850909881, 746.2931839310119 90.42890349019524 C 739.9976053485582 105.09452847129167, 707.064619359999 127.29720596370346, 693.6937067223353 121.26725659788121 C 680.3227940846715 115.23730723205897, 673.8909174739979 67.00862407287494, 666.0677081050293 54.249207295261726 C 658.2444987360607 41.489790517648515, 654.5792394773226 51.78932935842853, 646.7544505085233 44.71075593220196 C 638.929661539724 37.63218250597539, 617.837111528722 20.534930840115067, 619.1189742922335 11.777766737902322 C 620.400837055745 3.0206026356895794, 642.9734935503906 -2.176578694723638, 654.4456270895926 -7.83222868107449 C 665.9177606287946 -13.487878667425342, 679.9369438418776 -25.600822482836907, 687.9517755274456 -22.156133180202794 C 695.9666072130137 -18.71144387756868, 695.282050088066 3.5976338194792774, 702.5346172030012 12.835907134730189 C 709.7871843179364 22.0741804499811, 724.1740837623886 20.3413406520585, 731.467178217057 33.27350671130267 Z" fill="#4a0080" opacity="0.16795960129444867" filter="url(#glow)" class="float" />
<path d="M 394.5859609936232 55.869519770571664 L 394.5859609936232 55.869519770571664 L 394.80135852218183 55.888364612472046 L 395.011831873102 55.94461229692182 L 395.2125193445726 56.037405574719536 L 395.3986835206947 56.1653265791433 L 395.56577175659504 56.32641303288813 L 395.7094746923098 56.518180706946616 L 395.82578216848106 56.737651903239176 L 395.9110359423656 56.98138967134363 L 395.96197863402784 57.2455374109763 L 395.9757983695882 57.525863456499614 L 395.9501686306721 57.81781018820549 L 395.88328286637307 58.1165471679449 L 395.773883475646 58.417027754298445 L 395.6212848236239 58.71404861532189 L 395.42539001436256 59.002311525318746 L 395.1867012044244 59.276486806402126 L 394.90632330592973 59.53127775606874 L 394.5859609936232 59.76148538882138 L 394.2279089975159 59.96207281318604 L 393.8350357301216 60.12822856535974 L 393.4107603645881 60.25542822721758 L 392.9590235464792 60.33949366946488 L 392.4842519869675 60.37664928024213 L 391.9913172481234 60.363574565318146 L 391.48548909123923 60.29745253792128 L 390.9723838161143 60.17601335398433 L 390.4579080724093 59.997572691785564 L 389.94819867302493 59.76106442327355 L 389.44955898349764 59.46606717733708 L 388.9683925001901 59.112824452446425 L 388.5111342631978 58.702257996933724 L 388.08418077705124 58.23597423914472 L 387.6938191331796 57.71626361619826 L 387.34615604248347 57.14609271852433 L 387.0470474940704 56.52908923708509 L 386.80202975712376 55.869519770571664 L 386.61625243695306 55.172260620257475 L 386.4944142835258 54.44276176991868 L 386.4407024312808 53.68700431664933 L 386.4587357229083 52.91145168485535 L 386.5515127372541 52.122995019576685 L 386.72136510281683 51.328893215947 L 386.96991663378185 50.53670809847122 L 387.2980487755402 49.75423531632584 L 387.70587279160003 48.9894315685485 L 388.1927090641844 48.250338815303095 L 388.7570738171413 47.54500616795439 L 389.39667350262357 46.88141018107871 L 390.1084070229219 46.26737429344763 L 390.8883758864778 45.710488182178 L 391.73190232310935 45.218027804431586 L 392.63355530851913 44.79687690412267 L 393.58718437290287 44.453450756963136 L 394.5859609936232 44.19362291582252 L 395.62242729814426 44.02265569984583 L 396.6885517314276 43.945135145165054 L 397.77579127243274 43.96491110253275 L 398.87515971791186 44.085043128035004 L 399.97730148895744 44.307752767503956 L 401.07257035737274 44.63438278370546 L 402.1511124354401 45.06536381823861 L 403.20295272460595 45.60018891781837 L 404.2180844764556 46.23739628773923 L 405.1865605835621 46.97456056439592 L 406.09858618873216 47.80829282437331 L 406.944611679176 48.73424947044718 L 407.71542521744584 49.74715005553107 L 408.4022439538386 50.84080402485393 L 408.99680306545974 52.00814627517061 L 409.4914417753815 53.241281348316164 L 409.87918552128747 54.53153599564443 L 410.15382346662204 55.86951977057166 L 410.30998057840475 57.245193229299666 L 410.34318353433906 58.64794324552746 L 410.2499197673586 60.066664874268454 L 410.02768900798156 61.489849133432664 L 409.67504674338954 62.905676010245166 L 409.1916390765493 64.30211194344602 L 408.57822853844795 65.66701098210504 L 407.8367104810468 66.98821877829134 L 406.9701197572649 68.25367853421335 L 405.98262747653587 69.45153799518086 L 404.879527709538 70.57025655817237 L 403.6672141028725 71.59871155218434 L 402.35314645300303 72.52630274109293 L 400.9458073779133 73.34305410260876 L 399.4546493139115 74.03971194810474 L 397.89003215303006 74.6078384676392 L 396.26315192275734 75.03989981229165 L 394.5859609936232 75.32934786182022 L 392.8710803806883 75.47069486940894 L 391.13170478151596 75.45958022659681 L 389.3815010650392 75.29282865000357 L 387.6345009921899 74.96849915675176 L 385.90498900961046 74.48592426703664 L 384.20738601162395 73.84573894955759 L 382.5561300123734 73.04989890788818 L 380.9655547091666 72.1016878926656 L 379.4497669491722 71.00571381502262 L 378.0225241343437 69.76789353022127 L 376.69711261353075 68.39542625620297 L 375.48622811595067 66.89675568894585 L 374.4018592764033 65.28152097429076 L 373.4551752897644 63.56049679343408 L 372.6564187103936 61.74552291574719 L 372.0148043812464 59.849423667129976 L 371.5384254378475 57.8859178539127 L 371.2341672841249 55.86951977057167 L 371.1076303807302 53.815432003429876 L 371.16306262228875 51.73943082131306 L 371.4033020084948 49.65774501710037 L 371.82973023562135 47.586929130566 L 372.4422377504596 45.54373204221966 L 373.2392007185774 43.54496197944756 L 374.21747026381496 41.60734901960537 L 375.37237423685895 39.747406209378155 L 376.69773166836296 37.98129044531143 L 378.1858799572367 36.324664276621846 L 379.8277147382754 34.79255979798752 L 381.61274226612414 33.39924579683926 L 383.5291440455648 32.15809930665313 L 385.56385333218844 31.08148269489111 L 387.7026430235604 30.180627381645596 L 389.93022435991344 29.465525242885587 L 392.23035575607526 28.94482870074023 L 394.5859609936232 28.625760442823672 L 396.9792559149719 28.514033643622927 L 399.3918826800332 28.613783483927975 L 401.80505057198167 28.927510679746753 L 404.1996822722012 29.456037640748114 L 406.55656446631446 30.19847778070944 L 408.8565015938721 31.152218399466012 L 411.080471514306 32.312917448271726 L 413.20978183155364 33.67451437913711 L 415.22622559969267 35.22925516450218 L 417.1122351222433 36.967731457448224 L 418.85103255869905 38.87893374550741 L 420.42677606341545 40.95031823394777 L 421.82470020424034 43.16788707817404 L 423.03124944112545 45.51628147056451 L 424.03420348824574 47.97888697562167 L 424.82279343661855 50.537950399710525 L 425.38780757751033 53.17470737881687 L 425.7216859396209 55.86951977057165 L 425.81860263462767 58.60202184612725 L 425.67453519557614 61.35127419413314 L 425.2873201901446 64.09592417381737 L 424.6566944952685 66.814371687722 L 423.784321730184 69.48493898760223 L 422.6738034607887 72.08604317994543 L 421.3306749084149 74.59637006097088 L 419.762385019728 76.99504788523906 L 417.978260880502 79.26181965745039 L 415.98945658348356 81.3772125338621 L 413.80888678840387 83.32270292813928 L 411.451145339372 85.08087593642375 L 408.93240943036005 86.63557772788744 L 406.2703299322026 87.97205958989565 L 403.48390861346047 89.07711237089072 L 400.59336310163576 89.93919012887628 L 397.61998053958496 90.54852186851456 L 394.58596099362325 90.89721033481908 L 391.5142517638607 90.97931692563185 L 388.4283738329104 90.79093188783389 L 385.3522417654902 90.33022907278956 L 382.3099784379005 89.59750464403865 L 379.32572603225344 88.59519925383114 L 376.4234547751245 87.32790333379701 L 373.6267709335075 85.80234527785508 L 370.9587256022189 84.02736243134686 L 368.44162582593515 82.01385493825968 L 366.0968495956625 79.77472263716902 L 363.94466624356386 77.32478533506881 L 362.0040637317112 74.68068692544527 L 360.29258428960884 71.86078395164787 L 358.82616980247747 68.88501934772346 L 357.6190182876076 65.77478221529613 L 356.6834527200093 62.552754615735694 L 356.02980338162456 59.24274647074032 L 355.66630481112605 55.869519770571685 L 355.5990083245073 52.458603386602356 L 355.83171096105167 49.03609987270743 L 356.3659015857088 45.6284857175515 L 357.2007247483345 42.26240657627665 L 358.33296276366514 38.96446906486257 L 359.75703633433795 35.76103074294819 L 361.46502389384807 32.677989940739465 L 363.44669969817767 29.740577102430468 L 365.6895905451258 26.973149322074466 L 368.1790508502889 24.398989737940653 L 370.89835565940956 22.040113428020618 L 373.82881102962466 19.917081412599863 L 376.9498810682078 18.048824319858632 L 380.239330777899 16.452477207604254 L 383.6733837240115 15.1432269588596 L 387.22689341130774 14.134173581648533 L 390.87352713924764 13.436206644517327 L 394.58596099362325 13.057897969824822 L 398.3360845317995 13.005411587400026 L 402.09521362863876 13.282431822690882 L 405.8343098715306 13.890110256960753 L 409.52420482649046 14.827032153461197 L 413.1358274436715 16.08920279391493 L 416.6404328303716 17.670054015226597 L 420.0098305931718 19.560471078304793 L 423.2166109385014 21.7488398404559 L 426.2343667229297 24.221114041265054 L 429.0379096609246 26.96090235050051 L 431.60347892866594 29.949574666641514 L 433.9089404476549 33.166386997448335 L 435.9339751910348 36.588624100816915 L 437.66025492841237 40.19175891627518 L 439.07160391103173 43.949627676072645" fill="none" stroke="#9d4edd" stroke-width="1" opacity="0.3" class="drift" />
<path d="M 490.6160237112988 120.98354825184954 L 490.6160237112988 120.98354825184954 L 490.91261452539976 121.00949658578931 L 491.20242501168383 121.08694662262995 L 491.4787608681889 121.21471797631857 L 491.7350989279705 121.39085832062305 L 491.9651704438509 121.61266570521339 L 492.1630416588901 121.87671948033258 L 492.32319079929346 122.17891951584691 L 492.44058066152064 122.51453331584261 L 492.510726008562 122.87825054911278 L 492.5297550412901 123.26424443962682 L 492.494464269009 123.66623939012685 L 492.4023661682649 124.07758414703221 L 492.2517290900448 124.49132975648504 L 492.0416089520061 124.9003115102006 L 491.7718723336439 125.29723403630005 L 491.4432106775421 125.67475865492973 L 491.0571453882747 126.02559209156595 L 490.6160237112988 126.34257562274779 L 490.12300536644335 126.61877371976789 L 489.5820400034947 126.84756125569979 L 488.99783564001564 127.02270835008026 L 488.3758183330445 127.13846194354406 L 487.7220834258251 127.18962322158929 L 487.04333879736663 127.1716200422149 L 486.34684062559387 127.08057356611616 L 485.6403222533213 126.91335834007047 L 484.93191681950907 126.66765514363924 L 484.2300743855224 126.34199597582531 L 483.5434743467495 125.93580063126723 L 482.8809339733421 125.44940439426475 L 482.25131396947563 124.8840764627054 L 481.66342197792494 124.24202880203762 L 481.1259149855077 123.52641522100883 L 480.6472016047534 122.74132055511649 L 480.23534521776503 121.89173993974111 L 479.8979689695023 120.98354825184954 L 479.6421635895631 120.02345989607845 L 479.4743990039833 119.01897920702177 L 479.40044067172744 117.97834183375221 L 479.4252715445815 116.91044756411443 L 479.55302050437143 115.82478513426601 L 479.7868980781594 114.73134965246825 L 480.12914017076025 113.64055334443711 L 480.5809604850788 112.56313039988763 L 481.1425122249826 111.51003676553339 L 481.8128595933386 110.49234578807405 L 482.58995951017357 109.52114066102831 L 483.47065388343447 108.60740467111884 L 484.4506726683331 107.76191027283879 L 485.5246478516299 106.99510804345292 L 486.6861383953254 106.31701658471778 L 487.92766607100816 105.7371144418389 L 489.24076201249153 105.26423510449837 L 490.6160237112988 104.9064661391548 L 492.04318207798553 104.67105347629644 L 493.51117809315025 104.56431184106884 L 495.00824847621027 104.59154227093758 L 496.5220197085147 104.75695761010944 L 498.0396096609922 105.06361680773455 L 499.5477359961292 105.51336877593617 L 501.03283044041876 106.10680648503902 L 502.48115795724516 106.8432318876304 L 503.8789397921414 107.72063217100691 L 505.2124793130734 108.73566773990493 L 506.46828952839195 109.88367222901678 L 507.6332211348035 111.15866473853609 L 508.6945899274972 112.55337437677399 L 509.6403023947182 114.05927708269985 L 510.4589783197712 115.66664458906195 L 511.14006922477466 117.36460527453521 L 511.67397151246735 119.14121654212663 L 512.0521331948918 120.98354825184954 L 512.2671531406693 122.87777662945197 L 512.3128718255447 124.80928797072467 L 512.1844526335514 126.76279136357518 L 511.87845282806165 128.72243955854626 L 511.3928833926014 130.67195703365277 L 510.72725702998616 132.59477422212905 L 509.8826237043813 134.47416680267705 L 508.86159321351704 136.2933988917803 L 507.6683443866679 138.03586892721862 L 506.30862061722786 139.68525699162325 L 504.78971155583906 141.22567229521468 L 503.12042091006134 142.64179951812827 L 501.3110204184842 143.91904270523554 L 499.3731901899293 145.04366541029174 L 497.31994572090053 146.00292580166254 L 495.16555202563677 146.78520546879062 L 492.9254254319374 147.38013070683547 L 490.6160237112988 147.77868510634076 L 488.2547253227807 147.9733123350374 L 485.8596986554 147.9580080695607 L 483.449762252759 147.72840011544275 L 481.0442370951213 147.28181584363523 L 478.6627920973857 146.6173361703398 L 476.32528405557014 145.73583541331095 L 474.0515933387638 144.640006471204 L 471.8614566773836 143.33437089206691 L 469.77429844140323 141.8252735217451 L 467.809061833526 140.12086155176303 L 465.9840414416617 138.2310479180974 L 464.31671860224606 136.16745913606124 L 462.82360102072516 133.94336779114477 L 461.5200680778338 131.57361003996084 L 460.42022322014515 129.07448860826545 L 459.5367547908925 126.46366190321122 L 458.8808066024955 123.7600199834038 L 458.4618594859093 120.98354825184956 L 458.2876249742936 118.1551798524158 L 458.3639521901224 115.29663785892706 L 458.69474890636496 112.43026844649555 L 459.2819176444903 109.57886632619126 L 460.1253075556209 106.76549380582664 L 461.2226827070634 104.01329491067175 L 462.5697072656724 101.34530605760702 L 464.1599479330823 98.78426482394995 L 465.9848938468768 96.3524183874275 L 468.0339940174009 94.0713332360776 L 470.2947122233434 91.96170775594051 L 472.752599141638 90.04318930002279 L 475.3913813398937 88.33419732408828 L 478.1930666137067 86.85175414336175 L 481.13806500806874 85.6113248193553 L 484.2053247229134 84.62666762797801 L 487.3724819688289 83.90969648922885 L 490.6160237112988 83.47035665556183 L 493.9114621216482 83.31651486102692 L 497.23351944124494 83.45386502720797 L 500.5563218634669 83.88585050557509 L 503.8536009464379 84.61360371001828 L 507.0989009894315 85.63590385898402 L 510.26579073792567 86.9491534048401 L 513.3280777272489 88.54737357995118 L 516.2600235331828 90.42221933563393 L 519.0365581702473 92.56301379290107 L 521.6334918650698 94.95680216396725 L 524.0277224334798 97.5884249421866 L 526.1974365058995 100.4406099967396 L 528.1223028762477 103.49408304833462 L 529.7836562948094 106.72769584477658 L 531.1646700851337 110.11857120180531 L 532.2505160386355 113.64226392644049 L 533.0285101277368 117.27293649846403 L 533.4882426784848 120.98354825184953 L 533.6216917559387 124.74605667311461 L 533.4233186394056 128.53162931881945 L 532.8901443989139 132.3108647508318 L 532.0218067281528 136.05402079646942 L 530.8205963413519 139.7312483620922 L 529.2914724010823 143.3128289639255 L 527.4420566094691 146.7694140895071 L 525.2826057655135 150.072264467718 L 522.8259627647737 153.19348730532445 L 520.0874861931655 156.1062695436197 L 517.0849588426692 158.78510520030252 L 513.838475651858 161.20601488922426 L 510.37031174692356 163.34675565398607" fill="none" stroke="#7b2cbf" stroke-width="1" opacity="0.3" class="drift" />
<circle cx="461.8662577588154" cy="23.62787279316443" r="0.5523632502535682" fill="white" opacity="0.5389910476300874"  style="animation-delay: 3.344995263540367s" />
<circle cx="642.9760086793854" cy="98.17321553501995" r="1.7543460250451046" fill="white" opacity="0.6190778780763468"  style="animation-delay: 2.685142244142443s" />
<circle cx="62.51223018268739" cy="2.509346446367555" r="0.6822015700303167" fill="white" opacity="0.544854863803071"  style="animation-delay: 2.836549576454377s" />
<circle cx="352.94481388981575" cy="188.48958169626414" r="1.1841694639049087" fill="white" opacity="0.3269931128787293"  style="animation-delay: 4.533523819028769s" />
<circle cx="106.61418729341906" cy="197.98970738674092" r="1.9369450507017254" fill="white" opacity="0.4108641576997743"  style="animation-delay: 0.33276323151393616s" />
<circle cx="232.45176213214282" cy="141.88864072415103" r="0.6576863339290817" fill="white" opacity="0.5384947639356656"  style="animation-delay: 1.5958657115969144s" />
<circle cx="611.3226801872798" cy="77.43654113327212" r="0.5040264652443066" fill="white" opacity="0.38367409705136274"  style="animation-delay: 4.591858717451166s" />
<circle cx="33.24306437002971" cy="152.36451949442946" r="1.638462551809075" fill="white" opacity="0.48797777264650405"  style="animation-delay: 0.6269772809335505s" />
<circle cx="149.02748450259082" cy="181.92467460927787" r="1.5175123364613614" fill="white" opacity="0.5602553804956691"  style="animation-delay: 0.4041451279832753s" />
<circle cx="454.8661233856224" cy="0.568879164984093" r="1.4045262234428466" fill="white" opacity="0.5205238016510343"  style="animation-delay: 4.520289323371278s" />
<circle cx="376.6061719913569" cy="56.31663425824556" r="1.7118608343445183" fill="white" opacity="0.699046377627643"  style="animation-delay: 4.234515026645279s" />
<circle cx="298.94135413942865" cy="189.0734305038499" r="1.7875405182758661" fill="white" opacity="0.6334607638767815"  style="animation-delay: 0.024897217831346685s" />
<circle cx="4.500357268199728" cy="54.758388375110115" r="0.9051546470221631" fill="white" opacity="0.6752369854337774"  style="animation-delay: 1.069166378956189s" />
<circle cx="795.6433326845039" cy="2.2599885946712917" r="0.7422038017517927" fill="white" opacity="0.6753985345118105"  style="animation-delay: 3.046686048857791s" />
<circle cx="615.5849096207226" cy="94.73648427605954" r="1.054759839832909" fill="white" opacity="0.7671871334473852" class="shimmer" style="animation-delay: 1.9626857563380695s" />
<circle cx="687.1055903168065" cy="179.75264431148528" r="0.5109472098394792" fill="white" opacity="0.7114149353540571" class="shimmer" style="animation-delay: 1.8005576019649627s" />
<circle cx="302.77938189586973" cy="110.7424424102192" r="0.7689643656621236" fill="white" opacity="0.5872597255064209" class="shimmer" style="animation-delay: 0.23769100966202217s" />
<circle cx="502.87811749628656" cy="196.08589021865183" r="1.1377923275406396" fill="white" opacity="0.44371208837167925"  style="animation-delay: 4.201659570379549s" />
<circle cx="794.345891748894" cy="27.84772017407482" r="0.5360064848957751" fill="white" opacity="0.5349735584904864"  style="animation-delay: 3.896561797011233s" />
<circle cx="549.231153747203" cy="161.8787683038543" r="1.4009346914586958" fill="white" opacity="0.7921101470410097"  style="animation-delay: 0.3609202433550285s" />
<circle cx="712.0462090292674" cy="175.41602206290844" r="0.9027800466407664" fill="white" opacity="0.49913149945838736"  style="animation-delay: 1.900677699994081s" />
<circle cx="113.0116583981831" cy="188.38340531515533" r="1.0554442785885652" fill="white" opacity="0.3802460674506439" class="shimmer" style="animation-delay: 3.5640856341880167s" />
<circle cx="31.512220751172748" cy="122.58961503544259" r="0.7706967094944295" fill="white" opacity="0.5769187153971114" class="shimmer" style="animation-delay: 2.594272309570064s" />
<circle cx="361.5539054060095" cy="33.72881080063266" r="1.2509596669478786" fill="white" opacity="0.7013459730147449"  style="animation-delay: 1.9130950924620371s" />
<circle cx="438.158047472597" cy="80.49751620842822" r="1.8631941105254783" fill="white" opacity="0.40613163292221216"  style="animation-delay: 1.3985031732962194s" />
<circle cx="450.1135713506438" cy="72.35559328042993" r="1.207967943707756" fill="white" opacity="0.4457269301678805"  style="animation-delay: 2.249729122954971s" />
<circle cx="336.18672570360354" cy="54.62885772250283" r="1.199297013548291" fill="white" opacity="0.4935944940726877"  style="animation-delay: 1.2093400536974908s" />
<circle cx="759.7952536650878" cy="84.27719223217105" r="0.7950711846225267" fill="white" opacity="0.5839283205169479"  style="animation-delay: 4.594422640227736s" />
<circle cx="179.3771993450731" cy="166.43803187783362" r="1.5116595482230228" fill="white" opacity="0.7677483528340228"  style="animation-delay: 4.539351693638941s" />
<circle cx="234.36015170344504" cy="51.03280281428617" r="1.068022028100724" fill="white" opacity="0.5569201196314717" class="shimmer" style="animation-delay: 3.924688695705991s" />
<circle cx="275.5720210557966" cy="7.008161410099323" r="1.7801821604369126" fill="white" opacity="0.5132728076965241"  style="animation-delay: 2.1365503772900185s" />
<circle cx="82.22628612109304" cy="77.09374628244188" r="1.7923173860906076" fill="white" opacity="0.6280423146127567" class="shimmer" style="animation-delay: 0.7619567203284516s" />
<circle cx="297.2459673533434" cy="57.94294348161162" r="1.9181976145405093" fill="white" opacity="0.6276600020807526" class="shimmer" style="animation-delay: 0.014926390563969605s" />
<circle cx="527.229601037632" cy="155.94597905045254" r="0.9819520544831352" fill="white" opacity="0.45945900008780244"  style="animation-delay: 0.22337455128812023s" />
<circle cx="489.55009222927595" cy="46.385924200819105" r="1.8879829573688094" fill="white" opacity="0.47016592144652586" class="shimmer" style="animation-delay: 1.6734706303266778s" />
<circle cx="577.3266531758468" cy="96.24425378906002" r="0.7873663212064383" fill="white" opacity="0.770873795978944"  style="animation-delay: 3.395790454413097s" />
<circle cx="653.8679651797815" cy="44.5914095217065" r="1.0560272420684904" fill="white" opacity="0.35321294931599195"  style="animation-delay: 2.5558459600856853s" />
<circle cx="738.2356129023691" cy="132.80801243128315" r="0.6205944987038631" fill="white" opacity="0.3023267386499708"  style="animation-delay: 1.1085546720885042s" />
<circle cx="357.24022822099766" cy="112.46854713191175" r="1.5708848764683991" fill="white" opacity="0.5335277919752202" class="shimmer" style="animation-delay: 2.858195942031976s" />
<circle cx="245.3059836189132" cy="110.59180066488894" r="1.507684005456578" fill="white" opacity="0.6619370627121148"  style="animation-delay: 1.6156594427377868s" />
<circle cx="323.93880351219764" cy="169.68691164031378" r="1.1894377829928677" fill="#9d4edd" opacity="0.8" filter="url(#glow)" class="shimmer" style="animation-delay: 1.7605326146326545s" />
<circle cx="24.894226408693854" cy="89.28689691454265" r="1.4506872408636347" fill="#7b2cbf" opacity="0.8" filter="url(#glow)" class="shimmer" style="animation-delay: 0.0777751114138181s" />
<circle cx="75.27364181414438" cy="57.36688001510779" r="2.706534515207774" fill="#7b2cbf" opacity="0.8" filter="url(#glow)" class="shimmer" style="animation-delay: 2.7166483830428723s" />
<circle cx="187.39782064771208" cy="130.42408179772616" r="1.6137549463063414" fill="#7b2cbf" opacity="0.8" filter="url(#glow)" class="shimmer" style="animation-delay: 0.8378413479133722s" />
<circle cx="550.6519111521245" cy="59.686749724583876" r="2.6534839123137672" fill="#9d4edd" opacity="0.8" filter="url(#glow)" class="shimmer" style="animation-delay: 1.0543134084831103s" />
<circle cx="37.24529093992057" cy="45.259581128789826" r="2.8247415680259875" fill="#e0aaff" opacity="0.8" filter="url(#glow)" class="shimmer" style="animation-delay: 2.0000638024584037s" />
<circle cx="112.30864172126385" cy="12.601628293242584" r="1.4657476025626028" fill="#e0aaff" opacity="0.8" filter="url(#glow)" class="shimmer" style="animation-delay: 0.6216627139356128s" />
<circle cx="635.7293131946765" cy="65.20973863846069" r="2.026338125835074" fill="#e0aaff" opacity="0.8" filter="url(#glow)" class="shimmer" style="animation-delay: 2.4949041131870278s" />
<line x1="105.43510759531605" y1="52.30469788348452" x2="679.11076519506" y2="95.93174454150619" stroke="#e0aaff" stroke-width="0.5" opacity="0.3" />
<line x1="679.11076519506" y1="95.93174454150619" x2="182.3046539422234" y2="102.8245940846126" stroke="#e0aaff" stroke-width="0.5" opacity="0.3" />
<line x1="198.6848141410616" y1="92.12219457355876" x2="570.6529357921726" y2="34.948941328864215" stroke="#e0aaff" stroke-width="0.5" opacity="0.3" />

  
    <text x="400" y="120" text-anchor="middle" class="name-text" fill="url(#textGrad)" filter="url(#textGlow)">
      JOEL HOOKS
    </text>
  
</svg>
