<svg xmlns="http://www.w3.org/2000/svg" viewBox="0 0 800 200" width="800" height="200">
  <rect width="800" height="200" fill="#1a0a0a"/>
  
    <defs>
      <linearGradient id="grad1" x1="0%" y1="0%" x2="100%" y2="100%">
        <stop offset="0%" style="stop-color:#ff4500;stop-opacity:0.8" />
        <stop offset="100%" style="stop-color:#ff6b35;stop-opacity:0.8" />
      </linearGradient>
      <linearGradient id="grad2" x1="100%" y1="0%" x2="0%" y2="100%">
        <stop offset="0%" style="stop-color:#f7c59f;stop-opacity:0.7" />
        <stop offset="100%" style="stop-color:#efa48b;stop-opacity:0.7" />
      </linearGradient>
      <linearGradient id="textGrad" x1="0%" y1="0%" x2="100%" y2="0%">
        <stop offset="0%" style="stop-color:#ff4500" />
        <stop offset="25%" style="stop-color:#ff6b35" />
        <stop offset="50%" style="stop-color:#f7c59f" />
        <stop offset="75%" style="stop-color:#efa48b" />
        <stop offset="100%" style="stop-color:#d4a5a5" />
      </linearGradient>
      <filter id="glow">
        <feGaussianBlur stdDeviation="3" result="coloredBlur"/>
        <feMerge>
          <feMergeNode in="coloredBlur"/>
          <feMergeNode in="SourceGraphic"/>
        </feMerge>
      </filter>
      <filter id="textGlow">
        <feGaussianBlur stdDeviation="2" result="coloredBlur"/>
        <feMerge>
          <feMergeNode in="coloredBlur"/>
          <feMergeNode in="SourceGraphic"/>
        </feMerge>
      </filter>
    </defs>
  
  
    <style>
      @keyframes float {
        0%, 100% { transform: translateY(0px); }
        50% { transform: translateY(-8px); }
      }
      @keyframes pulse {
        0%, 100% { opacity: 0.4; }
        50% { opacity: 0.9; }
      }
      @keyframes drift {
        0% { transform: translateX(0px); }
        50% { transform: translateX(10px); }
        100% { transform: translateX(0px); }
      }
      @keyframes shimmer {
        0% { opacity: 0.3; }
        50% { opacity: 1; }
        100% { opacity: 0.3; }
      }
      @keyframes glitch {
        0%, 100% { transform: translateX(0); }
        20% { transform: translateX(-2px); }
        40% { transform: translateX(2px); }
        60% { transform: translateX(-1px); }
        80% { transform: translateX(1px); }
      }
      @keyframes dataStream {
        0% { stroke-dashoffset: 0; }
        100% { stroke-dashoffset: -20; }
      }
      .float { animation: float 8s ease-in-out infinite; }
      .pulse { animation: pulse 8s ease-in-out infinite; }
      .drift { animation: drift 8s ease-in-out infinite; }
      .shimmer { animation: shimmer 3s ease-in-out infinite; }
      .glitch { animation: glitch 0.5s ease-in-out infinite; }
      .dataStream { animation: dataStream 2s linear infinite; }
      .name-text { 
        font-family: -apple-system, BlinkMacSystemFont, 'Segoe UI', Helvetica, Arial, sans-serif;
        font-weight: 700;
        font-size: 64px;
        letter-spacing: -2px;
      }
    </style>
  
  <rect x="0" y="160" width="800" height="50" fill="#ff4500" opacity="0.3" />
<rect x="0" y="170" width="800" height="40" fill="#ff6b35" opacity="0.25" />
<rect x="0" y="180" width="800" height="30" fill="#f7c59f" opacity="0.19999999999999998" />
<rect x="0" y="190" width="800" height="20" fill="#efa48b" opacity="0.14999999999999997" />
<rect x="0" y="200" width="800" height="10" fill="#d4a5a5" opacity="0.09999999999999998" />
<line x1="435.28859475608647" y1="170" x2="435.28859475608647" y2="281.70265558164226" stroke="#ff4500" stroke-width="1.6944689072546546" opacity="0.29136109053127346" class="pulse" />
<line x1="435.28859475608647" y1="170" x2="466.8815380088616" y2="287.906469379997" stroke="#ff4500" stroke-width="2.933542872169629" opacity="0.2025165779115609" class="pulse" />
<line x1="435.28859475608647" y1="170" x2="484.7042691616696" y2="255.590458760751" stroke="#ff4500" stroke-width="1.893424680212962" opacity="0.21551293482719286" class="pulse" />
<line x1="435.28859475608647" y1="170" x2="507.2813317612367" y2="241.99273700515022" stroke="#ff4500" stroke-width="1.2944474161389503" opacity="0.11932052250948783" class="pulse" />
<line x1="435.28859475608647" y1="170" x2="515.4192387334815" y2="216.2634488706871" stroke="#ff4500" stroke-width="2.0723134839625317" opacity="0.12142660021667138" class="pulse" />
<line x1="435.28859475608647" y1="170" x2="532.4052404511056" y2="196.02232678559986" stroke="#ff4500" stroke-width="1.4817589352896068" opacity="0.13863237574476933" class="pulse" />
<line x1="435.28859475608647" y1="170" x2="524.5095599518572" y2="170" stroke="#ff4500" stroke-width="2.729997349653404" opacity="0.11722619335803337" class="pulse" />
<line x1="435.28859475608647" y1="170" x2="577.3028083206552" y2="131.9474061616328" stroke="#ff4500" stroke-width="1.203250163312957" opacity="0.26376367197654316" class="pulse" />
<line x1="435.28859475608647" y1="170" x2="546.7559651545212" y2="105.64428369460406" stroke="#ff4500" stroke-width="2.505338820708349" opacity="0.1588503176229362" class="pulse" />
<line x1="435.28859475608647" y1="170" x2="530.2769400440552" y2="75.01165471203126" stroke="#ff4500" stroke-width="1.380552468201036" opacity="0.20665684924607328" class="pulse" />
<line x1="435.28859475608647" y1="170" x2="491.60727520449717" y2="72.4531840481168" stroke="#ff4500" stroke-width="2.034353371464368" opacity="0.1491178465916637" class="pulse" />
<line x1="435.28859475608647" y1="170" x2="457.78119557925123" y2="86.05647093358363" stroke="#ff4500" stroke-width="2.0489377098747683" opacity="0.1361854956787095" class="pulse" />
<path d="M 623.7001063511137 34.59218751589061 C 623.1348205789506 45.27790094426533, 610.5367624490831 60.80527851711843, 601.83183707495 64.95347048452518 C 593.126911700817 69.10166245193193, 579.5161006175007 61.55622046535743, 571.4705541063155 59.48133932033111 C 563.4250075951303 57.40645817530479, 561.5457709116357 56.652375581774024, 553.5585580078388 52.50418361436728 C 545.5713451040418 48.35599164696053, 524.8664595799976 41.882035778513206, 523.5472766835339 34.592187515890615 C 522.2280937870703 27.302339253268023, 537.6562477252596 15.547144148304053, 545.6434606290566 8.76509403863173 C 553.6306735328535 1.9830439289594075, 561.5405389265034 -4.779129121417502, 571.4705541063155 -6.1001131421433215 C 581.4005692861276 -7.421097162869141, 596.5186263337962 -5.9428601953955065, 605.2235517079292 0.8391899142768153 C 613.9284770820623 7.621240023949137, 624.2653921232769 23.906474087515882, 623.7001063511137 34.59218751589061 Z" fill="#f7c59f" opacity="0.2165900744658677" class="drift" />
<path d="M 124.94317351096828 63.726068462929746 C 125.61606026202749 76.21716531120623, 125.12588319202194 96.10400243072765, 117.26403496863125 103.21801926093684 C 109.40218674524056 110.33203609114604, 90.279395423462 107.06684179068276, 77.77208417062415 106.4101694441849 C 65.2647729177863 105.75349709768705, 51.334938644313034 106.39200201215893, 42.220167451604176 99.27798518194973 C 33.10539625889532 92.16396835174054, 22.894854045964436 75.38810440086318, 23.083457014370993 63.72606846292975 C 23.27205998277755 52.06403252499632, 34.23701406933466 39.17054340381539, 43.35178526204352 29.30576955434912 C 52.46655645475238 19.440995704882848, 66.12626263725207 4.7098139299773285, 77.77208417062414 4.537425366132126 C 89.41790570399621 4.365036802286924, 105.36486623888528 18.40666432181164, 113.22671446227598 28.271438171277907 C 121.08856268566667 38.136212020744175, 124.27028675990907 51.234971614653254, 124.94317351096828 63.726068462929746 Z" fill="#f7c59f" opacity="0.1226451651137758" class="drift" />
<path d="M 334.14054840724856 22.98069565740478 C 334.6799933570739 32.95712781318101, 345.3983423492835 47.08960396345605, 341.34037487432954 54.528326974209406 C 337.2824073993756 61.96704998496276, 317.1644844067738 70.75716997827757, 309.7927435575249 67.61303372192494 C 302.421002708276 64.4688974655723, 303.38581448029566 43.10223244684692, 297.1099297788361 35.66350943609356 C 290.8340450773765 28.224786425340202, 275.49929866920104 30.570163570734525, 272.13743534876755 22.980695657404784 C 268.77557202833407 15.391227744075042, 270.6628651547756 -6.563601518614178, 276.9387498562352 -9.873298043884894 C 283.21463455769475 -13.18299456915561, 299.59858433766783 2.3653444918743265, 309.7927435575249 3.1225165057804816 C 319.98690277738194 3.8796885196866366, 334.0457377004237 -8.63996248571868, 338.1037051753776 -5.330265960447964 C 342.1616726503316 -2.020569435177247, 333.6011034574232 13.004263501628552, 334.14054840724856 22.98069565740478 Z" fill="#f7c59f" opacity="0.21251539733396" class="drift" />
<path d="M 398.1165478098439 45.90078183113491 C 397.5424593723205 59.51457597928774, 394.1339608177791 75.98384424076772, 385.5136199929885 85.01989896302314 C 376.89327916819786 94.05595368527855, 358.77145236237936 100.77986637401771, 346.39450286110025 100.1171101646674 C 334.01755335982114 99.45435395531707, 321.65137568660776 90.0794164291766, 311.25192298531397 81.04336170692119 C 300.85247028402017 72.00730698466577, 284.01052357257805 57.62771204230421, 283.9977866533375 45.900781831134914 C 283.985049734097 34.17385161996562, 300.7760487685769 16.96796349822376, 311.1755014698707 10.68178043990541 C 321.5749541711645 4.395597381587058, 333.4307280030572 9.40779120885802, 346.39450286110025 8.183683481224804 C 359.3582777191433 6.959575753591589, 380.3378097933384 -2.949048984212233, 388.958150618129 3.3371340741061175 C 397.57849144291964 9.623317132424468, 398.6906362473673 32.28698768298207, 398.1165478098439 45.90078183113491 Z" fill="#f7c59f" opacity="0.20885921373470834" class="drift" />
<path d="M 307.02291621997205 59.48908980875875 L 318.8213253951922 53.58988522114865 L 330.6197345704124 59.48908980875875" fill="none" stroke="#d4a5a5" stroke-width="1.5" opacity="0.4" class="float" style="animation-delay: 2.715747558016525s" />
<path d="M 297.8434974015348 29.43205569999902 L 303.6355001404086 26.536054330562116 L 309.42750287928243 29.43205569999902" fill="none" stroke="#d4a5a5" stroke-width="1.5" opacity="0.4" class="float" style="animation-delay: 2.4238489108400625s" />
<path d="M 66.49945337682391 54.07757777815607 L 76.95996779855804 48.847320567289 L 87.42048222029217 54.07757777815607" fill="none" stroke="#d4a5a5" stroke-width="1.5" opacity="0.4" class="float" style="animation-delay: 2.440279993142923s" />
<path d="M 556.6898461821746 84.40685855670864 L 568.5926157537419 78.45547377092498 L 580.4953853253093 84.40685855670864" fill="none" stroke="#d4a5a5" stroke-width="1.5" opacity="0.4" class="float" style="animation-delay: 1.9993442364779317s" />
<path d="M 513.2965824883316 69.27263973067254 L 521.3987213434773 65.22157030309974 L 529.500860198623 69.27263973067254" fill="none" stroke="#d4a5a5" stroke-width="1.5" opacity="0.4" class="float" style="animation-delay: 1.5933724210546316s" />

  
    <text x="400" y="120" text-anchor="middle" class="name-text" fill="url(#textGrad)" filter="url(#textGlow)">
      JOEL HOOKS
    </text>
  
</svg>
