<svg xmlns="http://www.w3.org/2000/svg" viewBox="0 0 800 200" width="800" height="200">
  <rect width="800" height="200" fill="#1a0a0a"/>
  
    <defs>
      <linearGradient id="grad1" x1="0%" y1="0%" x2="100%" y2="100%">
        <stop offset="0%" style="stop-color:#ff4500;stop-opacity:0.8" />
        <stop offset="100%" style="stop-color:#ff6b35;stop-opacity:0.8" />
      </linearGradient>
      <linearGradient id="grad2" x1="100%" y1="0%" x2="0%" y2="100%">
        <stop offset="0%" style="stop-color:#f7c59f;stop-opacity:0.7" />
        <stop offset="100%" style="stop-color:#efa48b;stop-opacity:0.7" />
      </linearGradient>
      <linearGradient id="textGrad" x1="0%" y1="0%" x2="100%" y2="0%">
        <stop offset="0%" style="stop-color:#ff4500" />
        <stop offset="25%" style="stop-color:#ff6b35" />
        <stop offset="50%" style="stop-color:#f7c59f" />
        <stop offset="75%" style="stop-color:#efa48b" />
        <stop offset="100%" style="stop-color:#d4a5a5" />
      </linearGradient>
      <filter id="glow">
        <feGaussianBlur stdDeviation="3" result="coloredBlur"/>
        <feMerge>
          <feMergeNode in="coloredBlur"/>
          <feMergeNode in="SourceGraphic"/>
        </feMerge>
      </filter>
      <filter id="textGlow">
        <feGaussianBlur stdDeviation="2" result="coloredBlur"/>
        <feMerge>
          <feMergeNode in="coloredBlur"/>
          <feMergeNode in="SourceGraphic"/>
        </feMerge>
      </filter>
    </defs>
  
  
    <style>
      @keyframes float {
        0%, 100% { transform: translateY(0px); }
        50% { transform: translateY(-8px); }
      }
      @keyframes pulse {
        0%, 100% { opacity: 0.4; }
        50% { opacity: 0.9; }
      }
      @keyframes drift {
        0% { transform: translateX(0px); }
        50% { transform: translateX(10px); }
        100% { transform: translateX(0px); }
      }
      @keyframes shimmer {
        0% { opacity: 0.3; }
        50% { opacity: 1; }
        100% { opacity: 0.3; }
      }
      @keyframes glitch {
        0%, 100% { transform: translateX(0); }
        20% { transform: translateX(-2px); }
        40% { transform: translateX(2px); }
        60% { transform: translateX(-1px); }
        80% { transform: translateX(1px); }
      }
      @keyframes dataStream {
        0% { stroke-dashoffset: 0; }
        100% { stroke-dashoffset: -20; }
      }
      .float { animation: float 8s ease-in-out infinite; }
      .pulse { animation: pulse 8s ease-in-out infinite; }
      .drift { animation: drift 8s ease-in-out infinite; }
      .shimmer { animation: shimmer 3s ease-in-out infinite; }
      .glitch { animation: glitch 0.5s ease-in-out infinite; }
      .dataStream { animation: dataStream 2s linear infinite; }
      .name-text { 
        font-family: -apple-system, BlinkMacSystemFont, 'Segoe UI', Helvetica, Arial, sans-serif;
        font-weight: 700;
        font-size: 64px;
        letter-spacing: -2px;
      }
    </style>
  
  <rect x="0" y="160" width="800" height="50" fill="#ff4500" opacity="0.3" />
<rect x="0" y="170" width="800" height="40" fill="#ff6b35" opacity="0.25" />
<rect x="0" y="180" width="800" height="30" fill="#f7c59f" opacity="0.19999999999999998" />
<rect x="0" y="190" width="800" height="20" fill="#efa48b" opacity="0.14999999999999997" />
<rect x="0" y="200" width="800" height="10" fill="#d4a5a5" opacity="0.09999999999999998" />
<line x1="336.55416142933115" y1="170" x2="336.55416142933115" y2="250.29283733170968" stroke="#ff4500" stroke-width="1.4623023187777666" opacity="0.11460414310565743" class="pulse" />
<line x1="336.55416142933115" y1="170" x2="370.765907080745" y2="297.6799729867003" stroke="#ff4500" stroke-width="2.6324185101332715" opacity="0.269593017478183" class="pulse" />
<line x1="336.55416142933115" y1="170" x2="381.9754394677552" y2="248.67196130726296" stroke="#ff4500" stroke-width="1.1721389076992024" opacity="0.18213933338876687" class="pulse" />
<line x1="336.55416142933115" y1="170" x2="416.0749042528131" y2="249.5207428234819" stroke="#ff4500" stroke-width="2.7481967809830357" opacity="0.1319062830556136" class="pulse" />
<line x1="336.55416142933115" y1="170" x2="455.2347742287156" y2="238.52028374731435" stroke="#ff4500" stroke-width="1.1525573542259697" opacity="0.20090740343613697" class="pulse" />
<line x1="336.55416142933115" y1="170" x2="443.30346288648946" y2="198.60338911803206" stroke="#ff4500" stroke-width="2.4187742128642715" opacity="0.11323620778937588" class="pulse" />
<line x1="336.55416142933115" y1="170" x2="437.1495337653715" y2="170" stroke="#ff4500" stroke-width="2.4411687588758224" opacity="0.19891649612300555" class="pulse" />
<line x1="336.55416142933115" y1="170" x2="418.36166882640714" y2="148.0797444581504" stroke="#ff4500" stroke-width="1.0757592674516392" opacity="0.1551151840090335" class="pulse" />
<line x1="336.55416142933115" y1="170" x2="418.9720161338054" y2="122.41602940034032" stroke="#ff4500" stroke-width="2.0678257880289164" opacity="0.22791576650234466" class="pulse" />
<line x1="336.55416142933115" y1="170" x2="433.31816536992693" y2="73.23599605940423" stroke="#ff4500" stroke-width="2.9775127333396765" opacity="0.13287685149473077" class="pulse" />
<line x1="336.55416142933115" y1="170" x2="404.9208032299285" y2="51.58550285850329" stroke="#ff4500" stroke-width="2.2646403952441294" opacity="0.1789011964903719" class="pulse" />
<line x1="336.55416142933115" y1="170" x2="360.0160886490216" y2="82.4388955726321" stroke="#ff4500" stroke-width="2.094377709640572" opacity="0.11036903035264665" class="pulse" />
<path d="M 603.7527390276007 63.75567714763696 C 601.2519121039577 74.16206431615672, 589.0677067044346 78.38948063487008, 581.3873640928754 87.47235788226726 C 573.7070214813161 96.55523512966444, 568.0280288926466 115.80115534249519, 557.670683358245 118.25294063202003 C 547.3133378238434 120.70472592154486, 526.2098995774417 111.26594686681348, 519.2432908864657 102.1830696194163 C 512.2766821954898 93.10019237201912, 515.7801580525747 76.47393481174876, 515.8710312123894 63.755677147636966 C 515.9619043722041 51.03741948352516, 512.8219211543776 31.58429266039563, 519.7885298453535 25.87352363474549 C 526.7551385363295 20.162754609095348, 544.903384060015 29.63097778766892, 557.670683358245 29.491062993736122 C 570.437982656475 29.351148199803323, 588.7119830231741 19.323265845498543, 596.3923256347333 25.034034871148684 C 604.0726682462926 30.744803896798825, 606.2535659512437 53.349289979117195, 603.7527390276007 63.75567714763696 Z" fill="#f7c59f" opacity="0.15074544379547294" class="drift" />
<path d="M 267.4383755129706 27.372749210673156 C 268.05128719923425 38.057316272991635, 277.8428516763255 55.77999405045427, 273.14525965984717 61.26518545641954 C 268.44766764336885 66.75037686238481, 250.38276115955443 60.45143864959324, 239.25282341410076 60.28389764646477 C 228.1228856686471 60.1163566433363, 209.46050116762405 65.74513084361398, 206.3656331871252 60.259939437648704 C 203.27076520662638 54.77474803168344, 217.62873463322012 35.28026505511079, 220.68361553110768 27.37274921067316 C 223.73849642899523 19.465233366235527, 221.60005059395166 17.89924319600137, 224.6949185744505 12.814844371022904 C 227.78978655494933 7.730445546044439, 231.7906782527983 -0.5241335244452578, 239.25282341410076 -3.1336437391976304 C 246.71496857540322 -5.743153953950003, 264.7701975257869 -7.926615742469796, 269.4677895422652 -2.8422169174913314 C 274.16538155874355 2.242181907487133, 266.82546382670694 16.688182148354677, 267.4383755129706 27.372749210673156 Z" fill="#f7c59f" opacity="0.18095674159624453" class="drift" />
<path d="M 719.6792633164968 53.18857342402373 C 720.4137626097157 62.49323545832707, 719.4160333322426 75.47735733541704, 713.3398905388783 83.30605740659075 C 707.263747745514 91.13475747776447, 695.150772573444 98.27156916145566, 683.2224065563113 100.16077385106601 C 671.2940405391786 102.04997854067636, 648.6640906371982 102.46998561542654, 641.7696944360822 94.64128554425282 C 634.8752982349662 86.81258547307911, 640.8925300360689 66.04264481722053, 641.8560293496151 53.18857342402374 C 642.8195286631613 40.33450203082694, 640.6562941162435 26.350603925574227, 647.5506903173596 17.516857185072027 C 654.4450865184756 8.683110444569829, 672.9920391459439 -1.4741116882725667, 683.2224065563113 0.18609298101054605 C 693.4527739666787 1.8462976502936588, 702.8567519862 18.644338460268507, 708.9328947795643 27.478085200770703 C 715.0090375729286 36.3118319412729, 718.9447640232778 43.88391138972039, 719.6792633164968 53.18857342402373 Z" fill="#f7c59f" opacity="0.18810586335952106" class="drift" />
<path d="M 696.8403181882366 36.02419654929137 C 697.9341361146835 42.96699191263848, 684.046453834836 53.763838159491115, 676.6657129902794 60.13403641867356 C 669.2849721457228 66.504234677856, 660.506905822493 74.33096669258435, 652.5558731208972 74.24538610438603 C 644.6048404193015 74.1598055161877, 632.5115971853166 65.99075114866606, 628.9595167807049 59.620552889483626 C 625.4074363760932 53.25035463030118, 630.2372438432433 42.88350181270548, 631.2433906932266 36.02419654929137 C 632.24953754321 29.164891285877253, 631.444317475993 25.88954150052613, 634.9963978806047 18.464721308998932 C 638.5484782852164 11.039901117471736, 646.7048051957318 -8.526815088137147, 652.5558731208972 -8.524724599871817 C 658.4069410460627 -8.522634111606488, 662.7220645870411 11.052444047063716, 670.1028054315976 18.477264238590912 C 677.4835462761541 25.90208443011811, 695.7465002617896 29.08140118594426, 696.8403181882366 36.02419654929137 Z" fill="#f7c59f" opacity="0.15038470605384047" class="drift" />
<path d="M 553.3188880224316 38.84483262997851 L 565.1613013409849 32.92362597070187 L 577.0037146595382 38.84483262997851" fill="none" stroke="#d4a5a5" stroke-width="1.5" opacity="0.4" class="float" style="animation-delay: 2.1045046428480787s" />
<path d="M 169.11310025901426 24.9842923770796 L 176.50167753035157 21.290003741410946 L 183.89025480168888 24.9842923770796" fill="none" stroke="#d4a5a5" stroke-width="1.5" opacity="0.4" class="float" style="animation-delay: 0.24116466331158404s" />
<path d="M 179.57143800679174 55.188346392007375 L 190.98899447279229 49.4795681590071 L 202.40655093879283 55.188346392007375" fill="none" stroke="#d4a5a5" stroke-width="1.5" opacity="0.4" class="float" style="animation-delay: 1.2877868338024185s" />
<path d="M 274.2450272540461 51.04945781028398 L 282.5512856466081 46.89632861400297 L 290.85754403917014 51.04945781028398" fill="none" stroke="#d4a5a5" stroke-width="1.5" opacity="0.4" class="float" style="animation-delay: 2.634581894118148s" />
<path d="M 478.5741686322221 56.48650569717977 L 487.9604760762892 51.79335197514624 L 497.34678352035627 56.48650569717977" fill="none" stroke="#d4a5a5" stroke-width="1.5" opacity="0.4" class="float" style="animation-delay: 0.666127725174237s" />

  
    <text x="400" y="120" text-anchor="middle" class="name-text" fill="url(#textGrad)" filter="url(#textGlow)">
      JOEL HOOKS
    </text>
  
</svg>
