<svg xmlns="http://www.w3.org/2000/svg" viewBox="0 0 800 200" width="800" height="200">
  <rect width="800" height="200" fill="#05010d"/>
  
    <defs>
      <linearGradient id="grad1" x1="0%" y1="0%" x2="100%" y2="100%">
        <stop offset="0%" style="stop-color:#4a0080;stop-opacity:0.8" />
        <stop offset="100%" style="stop-color:#7b2cbf;stop-opacity:0.8" />
      </linearGradient>
      <linearGradient id="grad2" x1="100%" y1="0%" x2="0%" y2="100%">
        <stop offset="0%" style="stop-color:#9d4edd;stop-opacity:0.7" />
        <stop offset="100%" style="stop-color:#c77dff;stop-opacity:0.7" />
      </linearGradient>
      <linearGradient id="textGrad" x1="0%" y1="0%" x2="100%" y2="0%">
        <stop offset="0%" style="stop-color:#4a0080" />
        <stop offset="25%" style="stop-color:#7b2cbf" />
        <stop offset="50%" style="stop-color:#9d4edd" />
        <stop offset="75%" style="stop-color:#c77dff" />
        <stop offset="100%" style="stop-color:#e0aaff" />
      </linearGradient>
      <filter id="glow">
        <feGaussianBlur stdDeviation="5" result="coloredBlur"/>
        <feMerge>
          <feMergeNode in="coloredBlur"/>
          <feMergeNode in="SourceGraphic"/>
        </feMerge>
      </filter>
      <filter id="textGlow">
        <feGaussianBlur stdDeviation="2" result="coloredBlur"/>
        <feMerge>
          <feMergeNode in="coloredBlur"/>
          <feMergeNode in="SourceGraphic"/>
        </feMerge>
      </filter>
    </defs>
  
  
    <style>
      @keyframes float {
        0%, 100% { transform: translateY(0px); }
        50% { transform: translateY(-8px); }
      }
      @keyframes pulse {
        0%, 100% { opacity: 0.4; }
        50% { opacity: 0.9; }
      }
      @keyframes drift {
        0% { transform: translateX(0px); }
        50% { transform: translateX(10px); }
        100% { transform: translateX(0px); }
      }
      @keyframes shimmer {
        0% { opacity: 0.3; }
        50% { opacity: 1; }
        100% { opacity: 0.3; }
      }
      @keyframes glitch {
        0%, 100% { transform: translateX(0); }
        20% { transform: translateX(-2px); }
        40% { transform: translateX(2px); }
        60% { transform: translateX(-1px); }
        80% { transform: translateX(1px); }
      }
      @keyframes dataStream {
        0% { stroke-dashoffset: 0; }
        100% { stroke-dashoffset: -20; }
      }
      .float { animation: float 8s ease-in-out infinite; }
      .pulse { animation: pulse 8s ease-in-out infinite; }
      .drift { animation: drift 8s ease-in-out infinite; }
      .shimmer { animation: shimmer 3s ease-in-out infinite; }
      .glitch { animation: glitch 0.5s ease-in-out infinite; }
      .dataStream { animation: dataStream 2s linear infinite; }
      .name-text { 
        font-family: -apple-system, BlinkMacSystemFont, 'Segoe UI', Helvetica, Arial, sans-serif;
        font-weight: 700;
        font-size: 64px;
        letter-spacing: -2px;
      }
    </style>
  
  <path d="M 300.4336129342528 31.277346048524812 C 294.78179601902053 57.444712347134626, 255.11301172869065 75.79282863119283, 233.73956185755168 92.82399419865752 C 212.3661119864127 109.8551597661222, 196.52410726082113 129.6486952832883, 172.19291370741897 133.4643394533129 C 147.8617201540168 137.2799836233375, 111.77219350874236 132.74902478626976, 87.75240053713871 115.71785921880507 C 63.73260756553506 98.68669365134039, 21.809054618267165 53.159082512421705, 28.07415587779704 31.27734604852483 C 34.33925713732691 9.395609584627955, 101.3232151227143 4.7184465171718735, 125.34300809431795 -15.572559564576189 C 149.3628010659216 -35.86356564632425, 148.4750044983144 -82.367416437226, 172.19291370741894 -90.46869044196353 C 195.91082291652347 -98.56996444670106, 246.27701347780612 -84.47120967474943, 267.6504633489451 -64.18020359300138 C 289.02391322008407 -43.88919751125333, 306.085429849485 5.109979749914995, 300.4336129342528 31.277346048524812 Z" fill="#c77dff" opacity="0.1294064932857665" filter="url(#glow)" class="float" />
<path d="M 897.9690075530153 115.0367584027359 C 900.0622210518421 127.78961261632031, 852.8347160396665 147.03758362080865, 835.8719951451004 158.5645650680117 C 818.9092742505343 170.09154651521473, 812.9848840132752 177.34318996089658, 796.1926821856187 184.19864708595412 C 779.4004803579621 191.05410421101166, 752.9369370923523 205.47878796820754, 735.1187841791614 199.697307818357 C 717.3006312659704 193.91582766850644, 690.3718596296656 166.98096275505992, 689.2837647064729 149.50976618685073 C 688.1956697832802 132.03856961864153, 718.7487032498753 110.91115394018514, 728.5902146400057 94.87012840910178 C 738.431726030136 78.82910287801842, 737.2960238411922 60.12357065342429, 748.3328330472547 53.26361300035058 C 759.3696422533171 46.403655347276874, 782.3144230255664 48.91307802630045, 794.8110698763805 53.710382490659555 C 807.3077167271947 58.50768695501866, 806.1197245393673 71.8263771344925, 823.3127141521397 82.04743978650522 C 840.5057037649121 92.26850243851794, 895.8757940541885 102.28390418915149, 897.9690075530153 115.0367584027359 Z" fill="#9d4edd" opacity="0.1188935782604936" filter="url(#glow)" class="float" />
<path d="M 739.7593985185099 58.16189589279115 C 737.2507685712465 67.39031237988273, 704.2910294514874 68.75245833066474, 696.8044150660505 81.01054963427957 C 689.3178006806137 93.2686409378944, 701.5682511782735 129.93352485173182, 694.8397122058888 131.71044371448014 C 688.111173233504 133.48736257722845, 666.4158919357184 98.87002368068575, 656.4331812317419 91.6720628107694 C 646.4504705277653 84.47410194085306, 650.9792464800452 89.163387271616, 634.9434479820295 88.52267849498205 C 618.9076494840139 87.88196971834809, 562.1957113863338 94.75597739384321, 560.2183902436481 87.82781015096563 C 558.2410691009624 80.89964290808805, 617.3229608225131 64.6875854035718, 623.0795211259156 46.95367503771656 C 628.836081429318 29.219764671861316, 590.4746807874986 -5.984775838940166, 594.7577520640625 -18.575652044165807 C 599.0408233406264 -31.166528249391448, 632.2348346721326 -29.423535846982222, 648.7779487852986 -28.59158219363728 C 665.3210628984646 -27.759628540292336, 683.5033957490032 -22.62253560832405, 694.0164367430586 -13.583930124096156 C 704.5294777371141 -4.545324639868264, 704.2323677870563 13.682413042248852, 711.8561947496315 25.64005071173007 C 719.4800217122067 37.597688381211285, 742.2680284657733 48.933479405699565, 739.7593985185099 58.16189589279115 Z" fill="#9d4edd" opacity="0.1984932788928821" filter="url(#glow)" class="float" />
<path d="M 218.6735448945879 53.43479562226858 C 217.324785810898 69.5308365621256, 194.99939492213454 83.51534374124645, 182.69849088291613 98.327688692826 C 170.39758684369772 113.14003364440555, 161.89320121282603 135.74719499153682, 144.86812065927742 142.3088653317459 C 127.84304010572882 148.87053567195497, 94.05946381416015 148.54291109228427, 80.54800756162446 137.6977107340805 C 67.03655130908876 126.8525103758767, 69.6798700988759 96.37294905026067, 63.799383144063285 77.23766318252316 C 57.918896189250674 58.102377314785656, 41.257748096102674 38.790958151391486, 45.26508583274878 22.885995527655442 C 49.27242356939489 6.981032903919397, 72.61023402159914 -16.225749547500158, 87.84340956393993 -18.192112559893104 C 103.07658510628072 -20.15847557228605, 119.50619978327424 7.763891517701596, 136.6641390867935 11.087817453297767 C 153.82207839031278 14.411743388893937, 177.1228110837565 -5.306386641144548, 190.79104538505555 1.7514430536839214 C 204.45927968635462 8.809272748512392, 220.02230397827782 37.33875468241156, 218.6735448945879 53.43479562226858 Z" fill="#9d4edd" opacity="0.22654324284986166" filter="url(#glow)" class="float" />
<path d="M 132.56807629164518 90.54311205852841 L 132.56807629164518 90.54311205852841 L 132.77736023272976 90.56142203083134 L 132.98185975818208 90.61607324784994 L 133.1768511549577 90.70623279152537 L 133.3577314683406 90.83052303817976 L 133.52007727031935 90.98703740545523 L 133.65970151268212 91.17336217374826 L 133.77270785566853 91.3866041604229 L 133.8555418877499 91.6234239653733 L 133.90503868259188 91.88007444947509 L 133.9184661752013 92.15244405365928 L 133.89356388033653 92.43610451627936 L 133.8285765220849 92.72636250060225 L 133.7222821936549 93.01831460308124 L 133.5740147204249 93.30690517696237 L 133.38367995662998 93.58698637509099 L 133.15176580621744 93.8533797908236 L 132.87934582079495 94.10093905696621 L 132.56807629164518 94.32461274984752 L 132.22018681788956 94.51950693913535 L 131.83846439842984 94.68094672389739 L 131.4262311606665 94.80453610171602 L 130.98731590356275 94.88621553035321 L 130.52601969578183 94.92231656042956 L 130.04707583076578 94.9096129426761 L 129.55560449916487 94.84536764432603 L 129.05706259439927 94.7273752458687 L 128.55718911880513 94.55399923136845 L 128.06194670527873 94.32420373248554 L 127.57745981211994 94.0375793378056 L 127.10995018646057 93.69436263462767 L 126.66567022386536 93.29544920947467 L 126.25083487808183 92.84239989573922 L 125.8715527952075 92.33744012149492 L 125.53375736051791 91.78345227699448 L 125.24313835368501 91.18396108913089 L 125.00507490900695 90.54311205852841 L 124.82457047151586 89.86564308332008 L 124.70619042744411 89.15684946141927 L 124.65400306858247 88.42254252956798 L 124.671524524691 87.6690022620149 L 124.76166826651703 86.90292421372851 L 124.92669974438672 86.13136125198943 L 125.16819668407327 85.36166057546225 L 125.48701551306931 84.60139657088149 L 125.88326433691178 83.858300103795 L 126.35628282728705 83.14018488092637 L 126.90462932178217 82.45487155722887 L 127.52607536988636 81.81011029023301 L 128.21760789176238 81.21350246752161 L 128.9754390460033 80.67242234983567 L 129.79502383069695 80.19393938221562 L 130.67108536928532 79.78474192856903 L 131.59764775959002 79.45106318104587 L 132.56807629164518 79.19860998457106 L 133.5751247683062 79.03249529887671 L 134.6109895926481 78.95717499549524 L 135.66737021858737 78.9763896555906 L 136.73553549658976 79.09311199644483 L 137.80639538538162 79.30950051017328 L 138.8705774438437 79.62685984815917 L 139.91850746529718 80.04560842918221 L 140.9404935696931 80.56525368871695 L 141.92681302827197 81.18437532190163 L 142.8678010604828 81.90061680376925 L 143.75394081471902 82.71068539807955 L 144.57595372305133 83.61036079111003 L 145.32488940587896 84.59451240970907 L 145.9922142954673 85.65712540445544 L 146.56989814783307 86.79133519959842 L 147.05049762043663 87.98947043227471 L 147.4272361086501 89.24310402502053 L 147.69407905692165 90.54311205852841 L 147.84580399081926 91.87974003664215 L 147.87806455351046 93.24267606342514 L 147.7874478744581 94.6211303834523 L 147.57152464885814 96.00392067190408 L 147.22889136322732 97.37956240120138 L 146.7592041651252 98.73636355638648 L 146.16320394276568 100.06252292276625 L 145.44273225269222 101.34623112697734 L 144.60073781016533 102.57577357704854 L 143.64127333680534 103.73963441860161 L 142.56948264267987 104.82660060337652 L 141.3915779047231 105.82586515304534 L 140.11480718940106 106.7271286959892 L 138.74741235414925 107.5206983574799 L 137.2985775485569 108.1975830945914 L 135.77836862179265 108.74958458615195 L 134.19766382660578 109.1693828150557 L 132.56807629164518 109.45061551512399 L 130.90186881207876 109.58795069722485 L 129.21186158285465 109.57715151922577 L 127.51133356873956 109.41513282121643 L 125.81391826983845 109.10000871087075 L 124.1334947000357 108.63113065333752 L 122.48407444812756 108.0091155951192 L 120.87968573682153 107.2358637314232 L 119.33425543279526 106.31456561081103 L 117.86148999123168 105.2496983589419 L 116.4747563403364 104.0470108940896 L 115.18696372502279 102.71349810014895 L 114.01044753401747 101.2573640172659 L 112.9568561309574 99.68797420522083 L 112.03704169756429 98.01579752946353 L 111.2609560757071 96.25233771342187 L 110.63755256518954 94.41005509256969 L 110.17469459559553 92.50227909494168 L 109.8790721437305 90.54311205852842 L 109.75612671342637 88.54732507750929 L 109.80998563211574 86.53024664584407 L 110.04340634908208 84.50764493764102 L 110.45773134417345 82.4956046282906 L 111.05285417360906 80.51039921798238 L 111.82719709194365 78.56835986935118 L 112.7777005969761 76.68574181311892 L 113.89982514812696 74.87858940927747 L 115.18756520933833 73.16260097622153 L 116.63347566568301 71.55299451598403 L 118.2287105594388 70.06437547013174 L 119.96307398724814 68.71060763778993 L 121.82508289601623 67.50468837461364 L 123.80204141227898 66.45862916931813 L 125.88012623876999 65.58334266271522 L 128.0444825537101 64.88853713324067 L 130.2793297537792 64.38261942295637 L 132.56807629164518 64.0726072192946 L 134.893442774117 63.96405154078721 L 137.23759240822332 64.06097020016688 L 139.58226781051428 64.36579293609019 L 141.90893313031407 64.87931881592729 L 144.19892038112775 65.60068641726531 L 146.43357882648192 66.52735719571608 L 148.59442622764053 67.65511234208506 L 150.6633007312971 68.9780633237746 L 152.6225121558454 70.48867619432818 L 154.45499142542513 72.17780964216523 L 156.14443690181614 74.03476663573618 L 157.67545637549443 76.0473594084718 L 159.03370349878693 78.20198741396293 L 160.20600747598482 80.48372777073106 L 161.18049486733346 82.87643760767148 L 161.946702415765 85.36286761669952 L 162.4956798667396 87.92478601920978 L 162.82008182219812 90.5431120585284 L 162.91424774890874 93.19805804245291 L 162.7742693488388 95.86927887900039 L 162.3980445939585 98.53602797537923 L 161.78531782937569 101.17731830562836 L 160.93770545613526 103.77208739694755 L 159.8587068175683 106.2993649390247 L 158.55370002986285 108.73844168510955 L 157.02992261763453 111.0690382885814 L 155.2964369377388 113.27147270462197 L 153.36408049840938 115.32682478354396 L 151.24540140502322 117.21709669047368 L 148.9545792873614 118.92536780548839 L 146.50733218514722 120.43594278889715 L 143.92080998787355 121.73449153799744 L 141.21347514048392 122.80817981409177 L 138.40497143736786 123.64578938148031 L 135.51598183241657 124.23782657314518 L 132.56807629164527 124.57661828040045 L 129.58355080626797 124.65639445531434 L 126.58525876727946 124.47335631455411 L 123.59643597681257 124.02572954071681 L 120.64052063611415 123.3138018913883 L 117.74096970428957 122.3399447462455 L 114.92107306548928 121.10861824756226 L 112.20376697447821 119.62635981852037 L 109.61144827119124 117.90175597575339 L 107.16579086365822 115.94539748651536 L 104.8875659753941 113.76981805569366 L 102.79646763792562 111.38941686249227 L 100.9109448815744 108.82036539990413 L 99.24804203804948 106.08049920096704 L 97.82324851704676 103.18919516318786 L 96.6503593562067 100.16723530534883 L 95.74134776986119 97.03665790814497 L 95.10625083750602 93.82059710075251 L 94.75306937845403 90.54311205852844 L 94.68768295533687 87.22900707169858 L 94.91378083678738 83.90364383026889 L 95.43280962958166 80.59274734571413 L 96.24393816365591 77.3222069945663 L 97.34404008070113 74.1178742222362 L 98.72769443950052 71.00535848671302 L 100.38720450987896 68.00982305077554 L 102.31263478318462 65.15578224767346 L 104.49186608176477 62.46690184864818 L 106.91066850407891 59.965804151041745 L 109.5527917970955 57.67387938303456 L 112.40007260460983 55.611104985346884 L 115.43255790027007 53.795874281705686 L 118.62864377855459 52.24483598880063 L 121.96522864684303 50.97274594321483 L 125.41787973813481 49.99233233791234 L 128.96101174796837 49.31417566486688" fill="none" stroke="#e0aaff" stroke-width="1" opacity="0.3" class="drift" />
<path d="M 452.3739242687933 140.2796713787451 L 452.3739242687933 140.2796713787451 L 452.6134830650313 140.30063005766382 L 452.847565335724 140.36318707801652 L 453.070764039104 140.46638903245372 L 453.27781036053983 140.60865901130805 L 453.4636409823008 140.78781462747313 L 453.6234631609769 141.0010929945102 L 453.75281691527255 141.2451824041918 L 453.8476336552007 141.51626038134202 L 453.9042906185995 141.81003772855126 L 453.91966052203946 142.12180811175432 L 453.89115588020957 142.44650268035534 L 453.8167675003235 142.77874916311225 L 453.69509671548616 143.11293483386447 L 453.52538098276364 143.443272699858 L 453.3075125373365 143.76387023029858 L 453.04204986296475 144.06879991419078 L 452.7302218104119 144.35217091479092 L 452.3739242687933 144.6082010733357 L 451.9757093693372 144.83128850726692 L 451.538767276079 145.01608204805217 L 451.0669006928328 145.15754977091999 L 450.56449228969706 145.25104488335108 L 450.0364653246444 145.29236826087936 L 449.4882378057329 145.2778269474794 L 448.92567060648366 145.20428797331382 L 448.3550100103533 145.06922688456908 L 447.7828252193748 144.8707704281636 L 447.21594141636746 144.60773288783435 L 446.66136901909357 144.2796456270243 L 446.1262298078754 143.88677945757058 L 445.61768064504713 143.43015952085884 L 445.1428355348209 142.91157243924872 L 444.7086867953756 142.33356556954013 L 444.32202613097127 141.69943826635938 L 443.9893664004636 141.01322514090103 L 443.7168648796121 140.2796713787451 L 443.51024880798764 139.50420025875167 L 443.3747439971098 138.69287309258797 L 443.3150072547542 137.85234188053278 L 443.33506335132785 136.98979505311556 L 443.4382472180322 136.1128967391753 L 443.62715202350824 135.2297200683894 L 443.9035837261351 134.34867507957247 L 444.2685226435527 133.47843186446198 L 444.72209251976244 132.62783962971423 L 445.26353750386096 131.80584240690266 L 445.89120738365114 131.02139218095587 L 446.6025513426725 130.28336024127643 L 447.39412043125867 129.60044758637207 L 448.2615788617564 128.98109523191326 L 449.1997241557464 128.43339528346323 L 450.20251608773617 127.96500363854666 L 451.2631142861 127.5830551781316 L 452.3739242687933 127.29408229497332 L 453.52665160932406 127.10393758565561 L 454.7123638483933 127.01772150468524 L 455.9215596892575 127.03971574284184 L 457.1442449409561 127.17332304842016 L 458.37001460378394 127.42101415935717 L 459.5881404264443 127.78428245690927 L 460.78766320482885 128.26360688799738 L 461.9574890389195 128.85842363408787 L 463.0864887174365 129.5671069301019 L 464.16359936005233 130.38695935796966 L 465.177927414672 131.31421185673997 L 466.11885208281274 132.344033605329 L 466.9761282297932 133.4705518457896 L 467.7399878284846 134.6868816251749 L 468.40123898593936 135.98516534344637 L 468.9513616113681 137.3566219042451 L 469.3825988016906 138.7916051755145 L 469.68804304715565 140.2796713787451 L 469.8617163941666 141.80965493981319 L 469.89864374522955 143.36975225178793 L 469.79491852656076 144.9476127214611 L 469.5477600119777 146.5304363974412 L 469.15556165680806 148.10507740915662 L 468.6179298671799 149.65815238369134 L 467.9357127076305 151.17615295164362 L 467.1110181328671 152.64556140471439 L 466.14722141704885 154.05296852700062 L 465.0489615454118 155.38519258942074 L 463.8221264276614 156.6293984727133 L 462.47382688950466 157.77321586931527 L 461.01235949716965 158.80485550837176 L 459.4471583688968 159.71322235129583 L 457.7887362263439 160.4880247177553 L 456.0486150367361 161.11987832369627 L 454.23924669256127 161.60040424392625 L 452.3739242687933 161.92231985169803 L 450.4666844871879 162.07952183640222 L 448.5322021023076 162.0671604575577 L 446.5856770038255 161.88170425837671 L 444.64271490356396 161.52099453478894 L 442.71920254296094 160.98428893538667 L 440.8311784165517 160.27229365368242 L 438.99470005903186 159.38718376567178 L 437.2257089869809 158.33261136223553 L 435.5398944209254 157.11370122661296 L 433.95255693870104 155.73703391120674 L 432.4784732267356 154.21061617447614 L 431.1317631016724 152.54383884675175 L 429.9257599705398 150.74742230254233 L 428.8728858833831 148.83334982538187 L 427.98453230791887 146.8147892585475 L 427.27094772146575 144.7060034401308 L 426.7411330713283 142.5222500230504 L 426.40274610124976 140.2796713787451 L 426.26201547885233 137.99517537660233 L 426.3236655876043 135.68630791881657 L 426.5908527672975 133.37111819152537 L 427.06511369989 131.06801766698243 L 427.7463265435249 128.79563395749184 L 428.63268531730523 126.5726606792082 L 429.7206879337771 124.4177045321207 L 431.00513816588625 122.34913084108963 L 432.47916172131306 120.38490883126485 L 434.1342364804886 118.5424579292362 L 435.96023683619933 116.83849638859795 L 437.94549195349134 115.28889353507343 L 440.0768576495752 113.90852691186477 L 442.33980147562323 112.71114558047542 L 444.71850046673904 111.7092407960065 L 447.1959509139648 110.91392522904115 L 449.7540894039507 110.33482184899628 L 452.3739242687933 109.97996351661095 L 455.0356764914734 109.8557042565203 L 457.7189290221647 109.96664309517973 L 460.4027833782648 110.31556125538509 L 463.06602232708923 110.90337339698232 L 465.68727738546744 111.72909348484986 L 468.2451998156254 112.78981575070625 L 470.7186337522807 114.08071109563944 L 473.08679006229187 115.59503915642142 L 475.3294195158859 117.32417613165254 L 477.4269838377188 119.2576583345973 L 479.3608232070299 121.38324130928814 L 481.1133187890157 123.68697421614783 L 482.66804890430046 126.1532890641061 L 484.0099374799224 128.76510423904168 L 485.1253934733961 131.503941654439 L 486.0024400208736 134.3500567304737 L 486.630832130826 137.28258029336519 L 487.00216182551804 140.27967137874506 L 487.10994972330195 143.31867982196252 L 486.949722154735 146.37631742555936 L 486.51907301401747 149.42883641046845 L 485.81770966341554 152.4522137835743 L 484.84748233131535 155.42234019084015 L 483.6123965733829 158.31521177287252 L 482.11860849998845 161.1071234990954 L 480.37440261053354 163.77486242808678 L 478.39015221549823 166.29589932544997 L 476.1782625687842 168.64857706708722 L 473.7530969751132 170.81229426507124 L 471.1308862786859 172.76768257551822 L 468.32962227885315 174.49677618287907 L 465.36893575502995 175.98317200273368 L 462.2699599153513 177.21217920521204 L 459.05518021050756 178.1709567332018 L 455.7482715747106 178.84863757306158 L 452.3739242687934 179.2364386300604 L 448.95765960503854 179.32775516553755 L 445.52563692853624 179.1182388670632 L 442.10445331481804 178.60585874583344 L 438.7209375174308 177.7909441862268 L 435.40193976127745 176.676209609894 L 432.1741190273705 175.2667603598854 L 429.06372951158005 173.57007955802976 L 426.0964079636086 171.595995839902 L 423.296963622476 169.35663202506234 L 420.6891724610346 166.86633493457913 L 418.29557743437766 164.14158672192792 L 416.1372963954694 161.20089823593295 L 414.23383929603256 158.0646850842259 L 412.60293623194525 154.75512721151503 L 411.26037782046217 151.29601294755489 L 410.2198693119602 147.71256861390225 L 409.492899742193 144.03127490519975 L 409.0886273228874 140.27967137874512 L 409.01378214971703 136.48615049445309 L 409.2725871780988 132.6797427450452 L 409.86669827984076 128.88989450251808 L 410.79516404845214 125.14624028084931 L 412.0544058690176 121.47837117580828 L 413.6382186111022 117.91560129002708 L 415.5377921414192 114.48673398466885 L 417.7417536882198 111.21982981771728 L 420.23623092286357 108.1419780328156 L 423.0049354571162 105.27907345156981 L 426.0292662887475 102.65560059623996 L 429.2884325643101 100.29442682887048 L 432.7595948678917 98.21660623735747 L 436.41802408949 96.4411959290376 L 440.23727677773167 94.98508630854977 L 444.18938574019325 93.86284681953565 L 448.2450645218013 93.08658851986097 L 452.37392426879336 92.66584473824858 L 456.54470137362273 92.60747092738498 L 460.72549419593594 92.91556468567418 L 464.88400706727214 93.59140676792835 L 468.9877997132223 94.63342374554443" fill="none" stroke="#e0aaff" stroke-width="1" opacity="0.3" class="drift" />
<circle cx="634.68816695091" cy="193.7821108219108" r="1.2223704366657884" fill="white" opacity="0.4914904725284008"  style="animation-delay: 0.5429860332935288s" />
<circle cx="731.1742366291298" cy="134.50959605131408" r="0.9612185438536608" fill="white" opacity="0.7148009270175917"  style="animation-delay: 1.9088891542795239s" />
<circle cx="620.3857851602281" cy="76.9472067493295" r="0.6784035078311682" fill="white" opacity="0.5610801784144015"  style="animation-delay: 1.155248095098872s" />
<circle cx="771.823719309484" cy="127.48166163821075" r="1.8256971330290725" fill="white" opacity="0.7023580567698104"  style="animation-delay: 0.7357393227014253s" />
<circle cx="376.6227316780796" cy="31.56381745700223" r="1.852418013519392" fill="white" opacity="0.592497274708006"  style="animation-delay: 0.01747791479923544s" />
<circle cx="624.4231533140121" cy="23.864337219161193" r="1.965412760571311" fill="white" opacity="0.5641915950632328"  style="animation-delay: 0.7248346033961572s" />
<circle cx="454.4690322929055" cy="191.4482654534505" r="1.937509459358791" fill="white" opacity="0.37590919455218846"  style="animation-delay: 0.618183088684432s" />
<circle cx="362.01880374537706" cy="84.26749777382057" r="1.7992215941763416" fill="white" opacity="0.3357712119409781"  style="animation-delay: 4.397646426221737s" />
<circle cx="517.3367824231566" cy="150.83950811235107" r="1.9204890590217787" fill="white" opacity="0.5852686757915424"  style="animation-delay: 0.14602885593584913s" />
<circle cx="119.66931344903848" cy="50.68715529649057" r="0.8661637472832437" fill="white" opacity="0.35336801747706076" class="shimmer" style="animation-delay: 3.2895072355197543s" />
<circle cx="352.4974599305613" cy="172.57778684381066" r="0.8864236943306356" fill="white" opacity="0.312521711891995"  style="animation-delay: 2.2163213966457915s" />
<circle cx="131.32594715421692" cy="122.14540905817164" r="0.7873174301419594" fill="white" opacity="0.3482023921133984" class="shimmer" style="animation-delay: 4.752952577324876s" />
<circle cx="103.93836897388731" cy="34.66386778947172" r="1.9349961238802296" fill="white" opacity="0.6144771209021704" class="shimmer" style="animation-delay: 1.9716078171854967s" />
<circle cx="594.5462687643111" cy="128.66626959377277" r="0.6399183364591243" fill="white" opacity="0.6678968470019051"  style="animation-delay: 4.047822968445194s" />
<circle cx="749.0088093293539" cy="57.82609978524755" r="1.0262061332304115" fill="white" opacity="0.7838673539378855"  style="animation-delay: 2.741495839587753s" />
<circle cx="575.8439792862075" cy="44.42930340554221" r="1.4764119057797724" fill="white" opacity="0.6325904417202617"  style="animation-delay: 4.431982586178428s" />
<circle cx="747.0075278213111" cy="0.5218756658881052" r="1.7745002886288175" fill="white" opacity="0.5926754627783688"  style="animation-delay: 3.3173102248365796s" />
<circle cx="210.80117205548385" cy="115.83594073639642" r="1.276826976552134" fill="white" opacity="0.4047017907752473"  style="animation-delay: 1.6833635363057242s" />
<circle cx="277.58610079870357" cy="28.308538615181035" r="0.9997513585123275" fill="white" opacity="0.7165599220739796"  style="animation-delay: 4.914684530324061s" />
<circle cx="376.26975422975147" cy="155.71461362745404" r="1.3773593603526901" fill="white" opacity="0.5180928756676464"  style="animation-delay: 3.1069649821815357s" />
<circle cx="691.5239199406294" cy="59.259949320955975" r="1.0761211435912426" fill="white" opacity="0.6571889285253396"  style="animation-delay: 1.0314998589553614s" />
<circle cx="139.75436036931157" cy="122.81390478423666" r="0.5805799488183657" fill="white" opacity="0.5947424761875999" class="shimmer" style="animation-delay: 2.6114747848079523s" />
<circle cx="487.1358427208266" cy="113.5702027974109" r="0.5884252826250261" fill="white" opacity="0.5086042129532491"  style="animation-delay: 4.560933762434887s" />
<circle cx="541.1675626048807" cy="103.80956533229484" r="0.6152679731897032" fill="white" opacity="0.7639766666100618"  style="animation-delay: 3.654320485722715s" />
<circle cx="439.50041316605564" cy="163.81916758052643" r="1.7227927243595627" fill="white" opacity="0.5167577583791407"  style="animation-delay: 1.7507333738404507s" />
<circle cx="161.47108262269185" cy="33.07819965981178" r="0.8659869112596701" fill="white" opacity="0.66337526958772" class="shimmer" style="animation-delay: 3.2739907383371136s" />
<circle cx="138.89467189841102" cy="159.4583339791185" r="1.4701552283834656" fill="white" opacity="0.5086175110454008" class="shimmer" style="animation-delay: 3.0961675575673664s" />
<circle cx="570.8382855672706" cy="188.858052488674" r="1.8142499900557758" fill="white" opacity="0.7998333868876002"  style="animation-delay: 2.9346607722689058s" />
<circle cx="493.61905618347885" cy="120.88796058996923" r="0.5565536722543667" fill="white" opacity="0.5195853411051465" class="shimmer" style="animation-delay: 4.910210521154381s" />
<circle cx="444.3747539903274" cy="147.13093722524144" r="1.495073725260742" fill="white" opacity="0.5787131738164677"  style="animation-delay: 4.5415898408596895s" />
<circle cx="436.08598028205546" cy="91.59770218725912" r="0.9382301637464946" fill="white" opacity="0.500149907805139"  style="animation-delay: 0.46221723649626845s" />
<circle cx="259.4478736945545" cy="35.30767947599354" r="1.511669484860755" fill="white" opacity="0.5039376001855853" class="shimmer" style="animation-delay: 4.408937334492135s" />
<circle cx="189.85821794373763" cy="7.865758931758249" r="1.789247915273433" fill="white" opacity="0.6074930213485108"  style="animation-delay: 2.46869531486705s" />
<circle cx="334.35607327277114" cy="183.60321518004855" r="1.7470362781430975" fill="white" opacity="0.6640311922836681"  style="animation-delay: 2.014029180506137s" />
<circle cx="24.834618924242235" cy="72.9831752859059" r="0.5774831787863258" fill="white" opacity="0.4389128883064963" class="shimmer" style="animation-delay: 3.3556516065680153s" />
<circle cx="201.18309732092888" cy="11.703750987625527" r="1.8133137254417218" fill="white" opacity="0.7810816339894464"  style="animation-delay: 1.1490634974902314s" />
<circle cx="484.4197599313322" cy="115.77306295748606" r="1.9477922265473127" fill="white" opacity="0.5159382502801186"  style="animation-delay: 4.7155467713335595s" />
<circle cx="438.27152992537253" cy="132.12461064613356" r="1.5310208575073303" fill="white" opacity="0.6808084786950575"  style="animation-delay: 2.915185766148637s" />
<circle cx="113.59152342480118" cy="187.07278654214377" r="0.7439442071311382" fill="white" opacity="0.49753435971405885" class="shimmer" style="animation-delay: 3.0076200854243806s" />
<circle cx="39.75915327780957" cy="106.66356363932027" r="0.5221063252402115" fill="white" opacity="0.47514078253499864" class="shimmer" style="animation-delay: 2.142825618762436s" />
<circle cx="615.9157697310955" cy="25.0495799532632" r="1.3789054951353963" fill="#c77dff" opacity="0.8" filter="url(#glow)" class="shimmer" style="animation-delay: 1.2245095696985127s" />
<circle cx="97.9660763225267" cy="197.41402972291957" r="2.9545431377183804" fill="#7b2cbf" opacity="0.8" filter="url(#glow)" class="shimmer" style="animation-delay: 2.0379768226170434s" />
<circle cx="19.934136077895204" cy="55.38055723664752" r="1.1831100806088841" fill="#9d4edd" opacity="0.8" filter="url(#glow)" class="shimmer" style="animation-delay: 1.5360349356545286s" />
<circle cx="154.5262208960164" cy="12.27266172213608" r="2.6710214420575147" fill="#7b2cbf" opacity="0.8" filter="url(#glow)" class="shimmer" style="animation-delay: 2.024166300309389s" />
<circle cx="137.21998144082175" cy="170.62865171620115" r="1.135374993890197" fill="#4a0080" opacity="0.8" filter="url(#glow)" class="shimmer" style="animation-delay: 0.0404820817923206s" />
<circle cx="307.6318181235861" cy="197.75141739317695" r="2.692005462937017" fill="#9d4edd" opacity="0.8" filter="url(#glow)" class="shimmer" style="animation-delay: 0.5994556178355404s" />
<circle cx="304.45393187393785" cy="0.6499367414149138" r="1.1369794459919706" fill="#e0aaff" opacity="0.8" filter="url(#glow)" class="shimmer" style="animation-delay: 0.8311134356318848s" />
<circle cx="593.2236875379729" cy="32.50515038531216" r="1.6013886562638548" fill="#9d4edd" opacity="0.8" filter="url(#glow)" class="shimmer" style="animation-delay: 2.532832164257842s" />
<line x1="510.1865935082898" y1="145.37811862334792" x2="504.85152054521177" y2="56.10984919374876" stroke="#e0aaff" stroke-width="0.5" opacity="0.3" />
<line x1="504.85152054521177" y1="56.10984919374876" x2="675.928497101245" y2="33.809463078039045" stroke="#e0aaff" stroke-width="0.5" opacity="0.3" />

  
    <text x="400" y="120" text-anchor="middle" class="name-text" fill="url(#textGrad)" filter="url(#textGlow)">
      JOEL HOOKS
    </text>
  
</svg>
