<svg xmlns="http://www.w3.org/2000/svg" viewBox="0 0 800 200" width="800" height="200">
  <rect width="800" height="200" fill="#1a0a0a"/>
  
    <defs>
      <linearGradient id="grad1" x1="0%" y1="0%" x2="100%" y2="100%">
        <stop offset="0%" style="stop-color:#ff4500;stop-opacity:0.8" />
        <stop offset="100%" style="stop-color:#ff6b35;stop-opacity:0.8" />
      </linearGradient>
      <linearGradient id="grad2" x1="100%" y1="0%" x2="0%" y2="100%">
        <stop offset="0%" style="stop-color:#f7c59f;stop-opacity:0.7" />
        <stop offset="100%" style="stop-color:#efa48b;stop-opacity:0.7" />
      </linearGradient>
      <linearGradient id="textGrad" x1="0%" y1="0%" x2="100%" y2="0%">
        <stop offset="0%" style="stop-color:#ff4500" />
        <stop offset="25%" style="stop-color:#ff6b35" />
        <stop offset="50%" style="stop-color:#f7c59f" />
        <stop offset="75%" style="stop-color:#efa48b" />
        <stop offset="100%" style="stop-color:#d4a5a5" />
      </linearGradient>
      <filter id="glow">
        <feGaussianBlur stdDeviation="3" result="coloredBlur"/>
        <feMerge>
          <feMergeNode in="coloredBlur"/>
          <feMergeNode in="SourceGraphic"/>
        </feMerge>
      </filter>
      <filter id="textGlow">
        <feGaussianBlur stdDeviation="2" result="coloredBlur"/>
        <feMerge>
          <feMergeNode in="coloredBlur"/>
          <feMergeNode in="SourceGraphic"/>
        </feMerge>
      </filter>
    </defs>
  
  
    <style>
      @keyframes float {
        0%, 100% { transform: translateY(0px); }
        50% { transform: translateY(-8px); }
      }
      @keyframes pulse {
        0%, 100% { opacity: 0.4; }
        50% { opacity: 0.9; }
      }
      @keyframes drift {
        0% { transform: translateX(0px); }
        50% { transform: translateX(10px); }
        100% { transform: translateX(0px); }
      }
      @keyframes shimmer {
        0% { opacity: 0.3; }
        50% { opacity: 1; }
        100% { opacity: 0.3; }
      }
      @keyframes glitch {
        0%, 100% { transform: translateX(0); }
        20% { transform: translateX(-2px); }
        40% { transform: translateX(2px); }
        60% { transform: translateX(-1px); }
        80% { transform: translateX(1px); }
      }
      @keyframes dataStream {
        0% { stroke-dashoffset: 0; }
        100% { stroke-dashoffset: -20; }
      }
      .float { animation: float 8s ease-in-out infinite; }
      .pulse { animation: pulse 8s ease-in-out infinite; }
      .drift { animation: drift 8s ease-in-out infinite; }
      .shimmer { animation: shimmer 3s ease-in-out infinite; }
      .glitch { animation: glitch 0.5s ease-in-out infinite; }
      .dataStream { animation: dataStream 2s linear infinite; }
      .name-text { 
        font-family: -apple-system, BlinkMacSystemFont, 'Segoe UI', Helvetica, Arial, sans-serif;
        font-weight: 700;
        font-size: 64px;
        letter-spacing: -2px;
      }
    </style>
  
  <rect x="0" y="160" width="800" height="50" fill="#ff4500" opacity="0.3" />
<rect x="0" y="170" width="800" height="40" fill="#ff6b35" opacity="0.25" />
<rect x="0" y="180" width="800" height="30" fill="#f7c59f" opacity="0.19999999999999998" />
<rect x="0" y="190" width="800" height="20" fill="#efa48b" opacity="0.14999999999999997" />
<rect x="0" y="200" width="800" height="10" fill="#d4a5a5" opacity="0.09999999999999998" />
<line x1="507.4952066008973" y1="170" x2="507.4952066008973" y2="304.2673346494303" stroke="#ff4500" stroke-width="1.4333052979750405" opacity="0.27946009828780516" class="pulse" />
<line x1="507.4952066008973" y1="170" x2="536.8407686944662" y2="279.51912870986644" stroke="#ff4500" stroke-width="2.710413997346595" opacity="0.25637804053942154" class="pulse" />
<line x1="507.4952066008973" y1="170" x2="554.075360277331" y2="250.6791927919494" stroke="#ff4500" stroke-width="2.636318960672281" opacity="0.1663831403173246" class="pulse" />
<line x1="507.4952066008973" y1="170" x2="567.047954005544" y2="229.55274740464677" stroke="#ff4500" stroke-width="1.758421475550218" opacity="0.1593428885133364" class="pulse" />
<line x1="507.4952066008973" y1="170" x2="589.0491163596348" y2="217.08517175267352" stroke="#ff4500" stroke-width="2.6823581898949445" opacity="0.10655813039108004" class="pulse" />
<line x1="507.4952066008973" y1="170" x2="603.5953319225205" y2="195.74995097245863" stroke="#ff4500" stroke-width="2.451761475708743" opacity="0.15150968427583217" class="pulse" />
<line x1="507.4952066008973" y1="170" x2="601.867446425618" y2="170" stroke="#ff4500" stroke-width="2.5437366226399436" opacity="0.10754215649268942" class="pulse" />
<line x1="507.4952066008973" y1="170" x2="647.3564531540992" y2="132.5242919336594" stroke="#ff4500" stroke-width="2.065776926678296" opacity="0.18590598193988636" class="pulse" />
<line x1="507.4952066008973" y1="170" x2="589.1553609819441" y2="122.85348788603622" stroke="#ff4500" stroke-width="1.6455643280126457" opacity="0.23206419497097852" class="pulse" />
<line x1="507.4952066008973" y1="170" x2="596.4232181273592" y2="81.0719884735381" stroke="#ff4500" stroke-width="1.5880919146021122" opacity="0.2517329974266892" class="pulse" />
<line x1="507.4952066008973" y1="170" x2="578.3963370018977" y2="47.195639831401095" stroke="#ff4500" stroke-width="2.6137208777823195" opacity="0.22592319377216707" class="pulse" />
<line x1="507.4952066008973" y1="170" x2="538.0720430326205" y2="55.885692902085836" stroke="#ff4500" stroke-width="2.3066626909047834" opacity="0.13736240900246183" class="pulse" />
<path d="M 401.5753042669861 39.3755486605144 C 399.3408290737914 47.855341545744785, 400.359614592806 53.09280655357418, 396.3692860427486 58.11150173662129 C 392.37895749269126 63.13019691966841, 386.0292477661489 67.33712265132554, 377.6333329666417 69.48771975879708 C 369.23741816713454 71.63831686626862, 351.7548460408057 76.03377956449766, 345.99379724570554 71.01508438145055 C 340.23274845060536 65.99638919840343, 342.7518940396036 49.60691441105621, 343.0670401960405 39.375548660514404 C 343.38218635247745 29.1441829099726, 342.12362538922685 17.839859351716456, 347.884674184327 9.626889878199727 C 353.6457229794272 1.4139204046829992, 367.3180891303767 -9.503243938425834, 377.6333329666417 -9.902268180585963 C 387.94857680290676 -10.301292422746092, 405.7858086518597 -0.980225048277779, 409.77613720191715 7.232744425238948 C 413.7664657519746 15.445713898755676, 403.80977946018083 30.89575577528401, 401.5753042669861 39.3755486605144 Z" fill="#f7c59f" opacity="0.13761505610367805" class="drift" />
<path d="M 484.38412014365673 48.95234134797375 C 484.44628441763166 54.88121552272396, 468.36342024588015 63.16956378387502, 461.5646571970898 66.92545669414909 C 454.7658941482994 70.68134960442316, 449.1199907171542 71.95028839210347, 443.59154185091444 71.48769880961817 C 438.06309298467465 71.02510922713286, 434.70743139801107 67.90581210951133, 428.3939639996509 64.14991919923726 C 422.08049660129075 60.39402628896319, 406.99627609392786 55.30373926490251, 405.7107374607536 48.95234134797376 C 404.4251988275793 42.600943431045, 414.36726480224524 33.03677447902117, 420.6807322006054 26.041531697664723 C 426.99419959896557 19.046288916308278, 436.83971862547526 6.0957713351712295, 443.59154185091444 6.980884659835077 C 450.3433650763536 7.865997984498924, 454.39290850445 24.356968864291364, 461.1916715532404 31.35221164564781 C 467.99043460203075 38.34745442700425, 484.3219558696818 43.02346717322354, 484.38412014365673 48.95234134797375 Z" fill="#f7c59f" opacity="0.18725664062614195" class="drift" />
<path d="M 572.504965731768 25.731052041013328 C 570.7209747967265 36.27811291754774, 553.0111318250665 45.29436382822145, 543.8545230788304 52.02026186549198 C 534.6979143325943 58.746159902762514, 527.2754533236194 65.13937013686167, 517.5653132543517 66.08644026463651 C 507.855173185084 67.03351039241134, 496.7410360333628 64.42858066941153, 485.59368266322406 57.702682632141006 C 474.44632929308534 50.97678459487048, 453.20778993206693 38.91485913660337, 450.68119303351943 25.731052041013335 C 448.15459613497194 12.5472449454233, 459.2867479018005 -13.153789194447471, 470.4341012719392 -21.400159941399203 C 481.5814546420779 -29.646530688350936, 503.544585351495 -25.436848531977844, 517.5653132543517 -23.747172440697057 C 531.5860411572085 -22.05749634941627, 545.4018599428434 -19.508474140666202, 554.5584686890795 -11.262103393714469 C 563.7150774353156 -3.0157326467627374, 574.2889566668096 15.18399116447892, 572.504965731768 25.731052041013328 Z" fill="#f7c59f" opacity="0.12285227435301854" class="drift" />
<path d="M 142.88113822261664 66.86834751081476 C 144.15374594485723 80.54872172154576, 135.0825305943723 104.65543398291643, 124.55101990894045 111.72729330972953 C 114.01950922350862 118.79915263654263, 93.05451223080614 110.89004728388446, 79.69207411002566 109.29950347169334 C 66.32963598924518 107.70895965950223, 51.33890891110115 109.25588976339598, 44.376391184257535 102.18403043658289 C 37.41387345741392 95.11217110976979, 38.62582853766285 79.349102608103, 37.916967748963984 66.86834751081476 C 37.20810696026512 54.38759241352652, 33.160708725220736 35.553664814298415, 40.123226452064344 27.299499852853458 C 47.08574417890795 19.0453348914085, 66.89338292278688 16.95243304339667, 79.69207411002564 17.343357742145017 C 92.4907652972644 17.734282440893363, 106.38386289006502 21.390883083898572, 116.91537357549686 29.64504804534353 C 127.4468842609287 37.899213006788486, 141.60853050037605 53.187973300083755, 142.88113822261664 66.86834751081476 Z" fill="#f7c59f" opacity="0.2199940540823254" class="drift" />
<path d="M 619.3450632818756 25.95792447562993 L 624.648371993264 23.306270119935697 L 629.9516807046525 25.95792447562993" fill="none" stroke="#d4a5a5" stroke-width="1.5" opacity="0.4" class="float" style="animation-delay: 2.670934403647424s" />
<path d="M 530.3494275660831 53.35640173941758 L 538.4457048281574 49.30826310838043 L 546.5419820902317 53.35640173941758" fill="none" stroke="#d4a5a5" stroke-width="1.5" opacity="0.4" class="float" style="animation-delay: 2.7613688366143005s" />
<path d="M 444.2533046033151 80.62524355611669 L 455.7652999125387 74.86924590150488 L 467.2772952217623 80.62524355611669" fill="none" stroke="#d4a5a5" stroke-width="1.5" opacity="0.4" class="float" style="animation-delay: 0.8485423200705218s" />
<path d="M 408.1379248514923 47.78682458896653 L 419.374035739467 42.16876914497918 L 430.6101466274417 47.78682458896653" fill="none" stroke="#d4a5a5" stroke-width="1.5" opacity="0.4" class="float" style="animation-delay: 0.43570290457990724s" />
<path d="M 193.11247900119224 63.800832807971965 L 202.12622574875036 59.293959434192914 L 211.13997249630847 63.800832807971965" fill="none" stroke="#d4a5a5" stroke-width="1.5" opacity="0.4" class="float" style="animation-delay: 2.651102486062278s" />

  
    <text x="400" y="120" text-anchor="middle" class="name-text" fill="url(#textGrad)" filter="url(#textGlow)">
      JOEL HOOKS
    </text>
  
</svg>
